<?xml version="1.0" encoding="UTF-8" standalone="no"?>
<!DOCTYPE svg PUBLIC "-//W3C//DTD SVG 1.1//EN"
 "http://www.w3.org/Graphics/SVG/1.1/DTD/svg11.dtd">
<!-- Generated by graphviz version 2.40.1 (20161225.0304)
 -->
<!-- Title: lpegNode Pages: 1 -->
<svg width="684pt" height="743pt"
 viewBox="0.00 0.00 684.38 742.80" xmlns="http://www.w3.org/2000/svg" xmlns:xlink="http://www.w3.org/1999/xlink">
<g id="graph0" class="graph" transform="scale(1 1) rotate(0) translate(4 738.8007)">
<title>lpegNode</title>
<polygon fill="#ffffff" stroke="transparent" points="-4,4 -4,-738.8007 680.3823,-738.8007 680.3823,4 -4,4"/>
<!-- doc_0 -->
<g id="node1" class="node">
<title>doc_0</title>
<ellipse fill="none" stroke="#000000" cx="213.8823" cy="-716.8007" rx="42.1216" ry="18"/>
<text text-anchor="middle" x="213.8823" y="-712.6007" font-family="Helvetica,sans-Serif" font-size="14.00" fill="#000000">doc &#45; 34</text>
</g>
<!-- section_1 -->
<g id="node2" class="node">
<title>section_1</title>
<ellipse fill="none" stroke="#000000" cx="213.8823" cy="-644.8007" rx="60.9826" ry="18"/>
<text text-anchor="middle" x="213.8823" y="-640.6007" font-family="Helvetica,sans-Serif" font-size="14.00" fill="#000000">section: 1&#45;34</text>
</g>
<!-- doc_0&#45;&gt;section_1 -->
<g id="edge1" class="edge">
<title>doc_0&#45;&gt;section_1</title>
<path fill="none" stroke="#000000" stroke-dasharray="5,2" d="M213.8823,-698.632C213.8823,-690.9316 213.8823,-681.775 213.8823,-673.2173"/>
<polygon fill="#000000" stroke="#000000" points="217.3824,-673.2139 213.8823,-663.214 210.3824,-673.214 217.3824,-673.2139"/>
</g>
<!-- header_2 -->
<g id="node3" class="node">
<title>header_2</title>
<ellipse fill="none" stroke="#000000" cx="81.8823" cy="-572.8007" rx="81.7647" ry="18"/>
<text text-anchor="middle" x="81.8823" y="-568.6007" font-family="Helvetica,sans-Serif" font-size="14.00" fill="#000000">1 : Handle Module</text>
</g>
<!-- section_1&#45;&gt;header_2 -->
<g id="edge2" class="edge">
<title>section_1&#45;&gt;header_2</title>
<path fill="none" stroke="#000000" stroke-dasharray="5,2" d="M184.5872,-628.8216C166.1447,-618.762 142.0956,-605.6443 121.9056,-594.6316"/>
<polygon fill="#000000" stroke="#000000" points="123.3896,-591.4543 112.9347,-589.7384 120.0376,-597.5996 123.3896,-591.4543"/>
</g>
<!-- prose_3 -->
<g id="node4" class="node">
<title>prose_3</title>
<ellipse fill="none" stroke="#000000" cx="213.8823" cy="-572.8007" rx="32.4585" ry="18"/>
<text text-anchor="middle" x="213.8823" y="-568.6007" font-family="Helvetica,sans-Serif" font-size="14.00" fill="#000000">prose</text>
</g>
<!-- section_1&#45;&gt;prose_3 -->
<g id="edge3" class="edge">
<title>section_1&#45;&gt;prose_3</title>
<path fill="none" stroke="#000000" stroke-dasharray="5,2" d="M213.8823,-626.632C213.8823,-618.9316 213.8823,-609.775 213.8823,-601.2173"/>
<polygon fill="#000000" stroke="#000000" points="217.3824,-601.2139 213.8823,-591.214 210.3824,-601.214 217.3824,-601.2139"/>
</g>
<!-- codeblock_4 -->
<g id="node5" class="node">
<title>codeblock_4</title>
<ellipse fill="none" stroke="#000000" cx="393.8823" cy="-572.8007" rx="72.5844" ry="18"/>
<text text-anchor="middle" x="393.8823" y="-568.6007" font-family="Helvetica,sans-Serif" font-size="14.00" fill="#000000">code block 4&#45;33</text>
</g>
<!-- section_1&#45;&gt;codeblock_4 -->
<g id="edge4" class="edge">
<title>section_1&#45;&gt;codeblock_4</title>
<path fill="none" stroke="#000000" stroke-dasharray="5,2" d="M250.3079,-630.2304C277.8385,-619.2182 315.8848,-603.9997 345.8955,-591.9954"/>
<polygon fill="#000000" stroke="#000000" points="347.3484,-595.1839 355.3333,-588.2203 344.7487,-588.6846 347.3484,-595.1839"/>
</g>
<!-- leaf_5 -->
<g id="node6" class="node">
<title>leaf_5</title>
<polygon fill="none" stroke="#c0c0c0" points="145.8823,-315.4003 17.8823,-315.4003 17.8823,-279.4003 145.8823,-279.4003 145.8823,-315.4003"/>
<text text-anchor="middle" x="81.8823" y="-293.9004" font-family="Inconsolata" font-size="14.00" fill="#000000"> * Handle Module</text>
</g>
<!-- header_2&#45;&gt;leaf_5 -->
<g id="edge5" class="edge">
<title>header_2&#45;&gt;leaf_5</title>
<path fill="none" stroke="#000000" stroke-dasharray="5,2" d="M81.8823,-554.7309C81.8823,-507.8514 81.8823,-382.0591 81.8823,-325.5579"/>
<polygon fill="#000000" stroke="#000000" points="85.3824,-325.5366 81.8823,-315.5367 78.3824,-325.5367 85.3824,-325.5366"/>
</g>
<!-- raw_6 -->
<g id="node7" class="node">
<title>raw_6</title>
<ellipse fill="none" stroke="#000000" cx="201.8823" cy="-297.4003" rx="27" ry="18"/>
<text text-anchor="middle" x="201.8823" y="-293.2003" font-family="Helvetica,sans-Serif" font-size="14.00" fill="#000000">raw</text>
</g>
<!-- prose_3&#45;&gt;raw_6 -->
<g id="edge6" class="edge">
<title>prose_3&#45;&gt;raw_6</title>
<path fill="none" stroke="#000000" stroke-dasharray="5,2" d="M213.0949,-554.7309C211.0522,-507.8514 205.5711,-382.0591 203.1092,-325.5579"/>
<polygon fill="#000000" stroke="#000000" points="206.6046,-325.3748 202.6725,-315.5367 199.6112,-325.6796 206.6046,-325.3748"/>
</g>
<!-- leaf_8 -->
<g id="node9" class="node">
<title>leaf_8</title>
<polygon fill="none" stroke="#c0c0c0" points="676.3823,-518.7011 247.3823,-518.7011 247.3823,-76.0996 676.3823,-76.0996 676.3823,-518.7011"/>
<text text-anchor="middle" x="461.8823" y="-503.6007" font-family="Inconsolata" font-size="14.00" fill="#000000">local L = require &quot;lpeg&quot;</text>
<text text-anchor="middle" x="461.8823" y="-472.2007" font-family="Inconsolata" font-size="14.00" fill="#000000">local Node = require &quot;node/node&quot;</text>
<text text-anchor="middle" x="461.8823" y="-456.8006" font-family="Inconsolata" font-size="14.00" fill="#000000">local u = require &quot;../lib/util&quot;</text>
<text text-anchor="middle" x="461.8823" y="-425.4006" font-family="Inconsolata" font-size="14.00" fill="#000000">local m = require &quot;Orbit/morphemes&quot;</text>
<text text-anchor="middle" x="461.8823" y="-394.0006" font-family="Inconsolata" font-size="14.00" fill="#000000">local H, h = u.inherit(Node)</text>
<text text-anchor="middle" x="461.8823" y="-362.6005" font-family="Inconsolata" font-size="14.00" fill="#000000">function h.matchHandle(line)</text>
<text text-anchor="middle" x="461.8823" y="-347.2005" font-family="Inconsolata" font-size="14.00" fill="#000000"> &#160;&#160;&#160;local handlen = L.match(L.C(m.handle), line)</text>
<text text-anchor="middle" x="461.8823" y="-331.8005" font-family="Inconsolata" font-size="14.00" fill="#000000"> &#160;&#160;&#160;if handlen then</text>
<text text-anchor="middle" x="461.8823" y="-316.4004" font-family="Inconsolata" font-size="14.00" fill="#000000"> &#160;&#160;&#160;&#160;&#160;&#160;&#160;return handlen</text>
<text text-anchor="middle" x="461.8823" y="-301.0004" font-family="Inconsolata" font-size="14.00" fill="#000000"> &#160;&#160;&#160;&#160;&#160;&#160;&#160;</text>
<text text-anchor="middle" x="461.8823" y="-285.6004" font-family="Inconsolata" font-size="14.00" fill="#000000"> &#160;&#160;&#160;else</text>
<text text-anchor="middle" x="461.8823" y="-270.2003" font-family="Inconsolata" font-size="14.00" fill="#000000"> &#160;&#160;&#160;&#160;&#160;&#160;&#160;return &quot;&quot;</text>
<text text-anchor="middle" x="461.8823" y="-254.8003" font-family="Inconsolata" font-size="14.00" fill="#000000"> &#160;&#160;&#160;&#160;&#160;&#160;&#160;&#45;&#45;u.freeze(&quot;h.matchHandle fails to match a handle&quot;)</text>
<text text-anchor="middle" x="461.8823" y="-239.4003" font-family="Inconsolata" font-size="14.00" fill="#000000"> &#160;&#160;&#160;end</text>
<text text-anchor="middle" x="461.8823" y="-224.0002" font-family="Inconsolata" font-size="14.00" fill="#000000">end</text>
<text text-anchor="middle" x="461.8823" y="-192.6002" font-family="Inconsolata" font-size="14.00" fill="#000000">local function new(Handle, line)</text>
<text text-anchor="middle" x="461.8823" y="-177.2002" font-family="Inconsolata" font-size="14.00" fill="#000000"> &#160;&#160;&#160;local handle = setmetatable({}, H)</text>
<text text-anchor="middle" x="461.8823" y="-161.8002" font-family="Inconsolata" font-size="14.00" fill="#000000"> &#160;&#160;&#160;handle.id = &quot;handle&quot;</text>
<text text-anchor="middle" x="461.8823" y="-146.4001" font-family="Inconsolata" font-size="14.00" fill="#000000"> &#160;&#160;&#160;handle.val = h.matchHandle(line):sub(2, &#45;1)</text>
<text text-anchor="middle" x="461.8823" y="-131.0001" font-family="Inconsolata" font-size="14.00" fill="#000000"> &#160;&#160;&#160;return handle</text>
<text text-anchor="middle" x="461.8823" y="-115.6001" font-family="Inconsolata" font-size="14.00" fill="#000000">end</text>
<text text-anchor="middle" x="461.8823" y="-84.2" font-family="Inconsolata" font-size="14.00" fill="#000000">return u.export(h, new)</text>
</g>
<!-- codeblock_4&#45;&gt;leaf_8 -->
<g id="edge8" class="edge">
<title>codeblock_4&#45;&gt;leaf_8</title>
<path fill="none" stroke="#000000" stroke-dasharray="5,2" d="M398.3439,-554.7309C400.0971,-547.6304 402.2973,-538.7195 404.8174,-528.5133"/>
<polygon fill="#000000" stroke="#000000" points="408.2187,-529.3383 407.218,-518.7908 401.4228,-527.6602 408.2187,-529.3383"/>
</g>
<!-- leaf_7 -->
<g id="node8" class="node">
<title>leaf_7</title>
<polygon fill="none" stroke="#c0c0c0" points="228.8823,-40 174.8823,-40 174.8823,0 228.8823,0 228.8823,-40"/>
</g>
<!-- raw_6&#45;&gt;leaf_7 -->
<g id="edge7" class="edge">
<title>raw_6&#45;&gt;leaf_7</title>
<path fill="none" stroke="#000000" stroke-dasharray="5,2" d="M201.8823,-279.1993C201.8823,-232.5455 201.8823,-108.3006 201.8823,-50.4391"/>
<polygon fill="#000000" stroke="#000000" points="205.3824,-50.1174 201.8823,-40.1174 198.3824,-50.1175 205.3824,-50.1174"/>
</g>
</g>
</svg>