<?xml version="1.0" encoding="UTF-8" standalone="no"?>
<!DOCTYPE svg PUBLIC "-//W3C//DTD SVG 1.1//EN"
 "http://www.w3.org/Graphics/SVG/1.1/DTD/svg11.dtd">
<!-- Generated by graphviz version 2.40.1 (20161225.0304)
 -->
<!-- Title: lpegNode Pages: 1 -->
<svg width="2803pt" height="862pt"
 viewBox="0.00 0.00 2803.00 862.20" xmlns="http://www.w3.org/2000/svg" xmlns:xlink="http://www.w3.org/1999/xlink">
<g id="graph0" class="graph" transform="scale(1 1) rotate(0) translate(4 858.2007)">
<title>lpegNode</title>
<polygon fill="#ffffff" stroke="transparent" points="-4,4 -4,-858.2007 2799,-858.2007 2799,4 -4,4"/>
<!-- doc_0 -->
<g id="node1" class="node">
<title>doc_0</title>
<ellipse fill="none" stroke="#000000" cx="1369.5" cy="-836.2007" rx="42.1216" ry="18"/>
<text text-anchor="middle" x="1369.5" y="-832.0007" font-family="Helvetica,sans-Serif" font-size="14.00" fill="#000000">doc &#45; 50</text>
</g>
<!-- section_1 -->
<g id="node2" class="node">
<title>section_1</title>
<ellipse fill="none" stroke="#000000" cx="1369.5" cy="-764.2007" rx="60.9826" ry="18"/>
<text text-anchor="middle" x="1369.5" y="-760.0007" font-family="Helvetica,sans-Serif" font-size="14.00" fill="#000000">section: 1&#45;50</text>
</g>
<!-- doc_0&#45;&gt;section_1 -->
<g id="edge1" class="edge">
<title>doc_0&#45;&gt;section_1</title>
<path fill="none" stroke="#000000" stroke-dasharray="5,2" d="M1369.5,-818.0321C1369.5,-810.3317 1369.5,-801.1751 1369.5,-792.6174"/>
<polygon fill="#000000" stroke="#000000" points="1373.0001,-792.6139 1369.5,-782.614 1366.0001,-792.614 1373.0001,-792.6139"/>
</g>
<!-- header_2 -->
<g id="node3" class="node">
<title>header_2</title>
<ellipse fill="none" stroke="#000000" cx="149.5" cy="-692.2007" rx="86.593" ry="18"/>
<text text-anchor="middle" x="149.5" y="-688.0007" font-family="Helvetica,sans-Serif" font-size="14.00" fill="#000000">1 : Hashtag module</text>
</g>
<!-- section_1&#45;&gt;header_2 -->
<g id="edge2" class="edge">
<title>section_1&#45;&gt;header_2</title>
<path fill="none" stroke="#000000" stroke-dasharray="5,2" d="M1308.8853,-762.115C1148.4319,-756.3658 699.3755,-738.7954 326.5,-710.2007 297.0225,-707.9402 264.8445,-704.8538 236.106,-701.8751"/>
<polygon fill="#000000" stroke="#000000" points="236.4043,-698.3873 226.0943,-700.8275 235.6758,-705.3493 236.4043,-698.3873"/>
</g>
<!-- prose_3 -->
<g id="node4" class="node">
<title>prose_3</title>
<ellipse fill="none" stroke="#000000" cx="367.5" cy="-692.2007" rx="32.4585" ry="18"/>
<text text-anchor="middle" x="367.5" y="-688.0007" font-family="Helvetica,sans-Serif" font-size="14.00" fill="#000000">prose</text>
</g>
<!-- section_1&#45;&gt;prose_3 -->
<g id="edge3" class="edge">
<title>section_1&#45;&gt;prose_3</title>
<path fill="none" stroke="#000000" stroke-dasharray="5,2" d="M1310.1916,-759.939C1126.2845,-746.7242 568.4835,-706.6426 409.9421,-695.2504"/>
<polygon fill="#000000" stroke="#000000" points="409.8806,-691.7371 399.6554,-694.5113 409.3788,-698.7191 409.8806,-691.7371"/>
</g>
<!-- prose_4 -->
<g id="node5" class="node">
<title>prose_4</title>
<ellipse fill="none" stroke="#000000" cx="1123.5" cy="-692.2007" rx="32.4585" ry="18"/>
<text text-anchor="middle" x="1123.5" y="-688.0007" font-family="Helvetica,sans-Serif" font-size="14.00" fill="#000000">prose</text>
</g>
<!-- section_1&#45;&gt;prose_4 -->
<g id="edge4" class="edge">
<title>section_1&#45;&gt;prose_4</title>
<path fill="none" stroke="#000000" stroke-dasharray="5,2" d="M1326.0864,-751.4943C1279.635,-737.8988 1206.6446,-716.5357 1162.1236,-703.5052"/>
<polygon fill="#000000" stroke="#000000" points="1162.8446,-700.0694 1152.264,-700.6195 1160.8782,-706.7876 1162.8446,-700.0694"/>
</g>
<!-- prose_5 -->
<g id="node6" class="node">
<title>prose_5</title>
<ellipse fill="none" stroke="#000000" cx="1385.5" cy="-692.2007" rx="32.4585" ry="18"/>
<text text-anchor="middle" x="1385.5" y="-688.0007" font-family="Helvetica,sans-Serif" font-size="14.00" fill="#000000">prose</text>
</g>
<!-- section_1&#45;&gt;prose_5 -->
<g id="edge5" class="edge">
<title>section_1&#45;&gt;prose_5</title>
<path fill="none" stroke="#000000" stroke-dasharray="5,2" d="M1373.5375,-746.0321C1375.2941,-738.1273 1377.3917,-728.688 1379.3363,-719.9372"/>
<polygon fill="#000000" stroke="#000000" points="1382.7665,-720.6353 1381.5192,-710.1141 1375.9332,-719.1167 1382.7665,-720.6353"/>
</g>
<!-- prose_6 -->
<g id="node7" class="node">
<title>prose_6</title>
<ellipse fill="none" stroke="#000000" cx="2001.5" cy="-692.2007" rx="32.4585" ry="18"/>
<text text-anchor="middle" x="2001.5" y="-688.0007" font-family="Helvetica,sans-Serif" font-size="14.00" fill="#000000">prose</text>
</g>
<!-- section_1&#45;&gt;prose_6 -->
<g id="edge6" class="edge">
<title>section_1&#45;&gt;prose_6</title>
<path fill="none" stroke="#000000" stroke-dasharray="5,2" d="M1426.4209,-757.7161C1551.7841,-743.4342 1849.3147,-709.5383 1959.5049,-696.985"/>
<polygon fill="#000000" stroke="#000000" points="1960.032,-700.4477 1969.5715,-695.8381 1959.2396,-693.4926 1960.032,-700.4477"/>
</g>
<!-- codeblock_7 -->
<g id="node8" class="node">
<title>codeblock_7</title>
<ellipse fill="none" stroke="#000000" cx="2312.5" cy="-692.2007" rx="77.4211" ry="18"/>
<text text-anchor="middle" x="2312.5" y="-688.0007" font-family="Helvetica,sans-Serif" font-size="14.00" fill="#000000">code block 19&#45;49</text>
</g>
<!-- section_1&#45;&gt;codeblock_7 -->
<g id="edge7" class="edge">
<title>section_1&#45;&gt;codeblock_7</title>
<path fill="none" stroke="#000000" stroke-dasharray="5,2" d="M1428.4889,-759.6968C1590.1272,-747.3554 2040.5726,-712.9629 2228.4896,-698.6151"/>
<polygon fill="#000000" stroke="#000000" points="2228.8874,-702.095 2238.5919,-697.8438 2228.3544,-695.1153 2228.8874,-702.095"/>
</g>
<!-- leaf_8 -->
<g id="node9" class="node">
<title>leaf_8</title>
<polygon fill="none" stroke="#c0c0c0" points="135,-426.8004 0,-426.8004 0,-390.8004 135,-390.8004 135,-426.8004"/>
<text text-anchor="middle" x="67.5" y="-405.3004" font-family="Inconsolata" font-size="14.00" fill="#000000"> * Hashtag module</text>
</g>
<!-- header_2&#45;&gt;leaf_8 -->
<g id="edge8" class="edge">
<title>header_2&#45;&gt;leaf_8</title>
<path fill="none" stroke="#000000" stroke-dasharray="5,2" d="M144.2458,-674.0416C130.3027,-625.853 92.2925,-494.4858 75.5738,-436.7043"/>
<polygon fill="#000000" stroke="#000000" points="78.852,-435.4414 72.7105,-426.8082 72.1279,-437.387 78.852,-435.4414"/>
</g>
<!-- raw_9 -->
<g id="node10" class="node">
<title>raw_9</title>
<ellipse fill="none" stroke="#000000" cx="180.5" cy="-408.8004" rx="27" ry="18"/>
<text text-anchor="middle" x="180.5" y="-404.6004" font-family="Helvetica,sans-Serif" font-size="14.00" fill="#000000">raw</text>
</g>
<!-- prose_3&#45;&gt;raw_9 -->
<g id="edge9" class="edge">
<title>prose_3&#45;&gt;raw_9</title>
<path fill="none" stroke="#000000" stroke-dasharray="5,2" d="M337.3906,-685.2876C298.0086,-675.6241 232.1682,-657.1265 216.5,-638.2007 168.3224,-580.0063 171.3889,-484.0814 176.4916,-436.8519"/>
<polygon fill="#000000" stroke="#000000" points="179.9883,-437.0867 177.6978,-426.7424 173.0376,-436.2573 179.9883,-437.0867"/>
</g>
<!-- prespace_10 -->
<g id="node11" class="node">
<title>prespace_10</title>
<ellipse fill="none" stroke="#000000" cx="271.5" cy="-408.8004" rx="46.4736" ry="18"/>
<text text-anchor="middle" x="271.5" y="-404.6004" font-family="Helvetica,sans-Serif" font-size="14.00" fill="#000000">prespace</text>
</g>
<!-- prose_3&#45;&gt;prespace_10 -->
<g id="edge10" class="edge">
<title>prose_3&#45;&gt;prespace_10</title>
<path fill="none" stroke="#000000" stroke-dasharray="5,2" d="M352.6486,-675.8132C344.1538,-665.6434 333.9395,-651.9328 327.5,-638.2007 295.5009,-569.9633 280.581,-481.428 274.7124,-436.9388"/>
<polygon fill="#000000" stroke="#000000" points="278.1661,-436.3513 273.4409,-426.8685 271.2213,-437.2282 278.1661,-436.3513"/>
</g>
<!-- literal_11 -->
<g id="node12" class="node">
<title>literal_11</title>
<ellipse fill="none" stroke="#000000" cx="367.5" cy="-408.8004" rx="31.481" ry="18"/>
<text text-anchor="middle" x="367.5" y="-404.6004" font-family="Helvetica,sans-Serif" font-size="14.00" fill="#000000">literal</text>
</g>
<!-- prose_3&#45;&gt;literal_11 -->
<g id="edge11" class="edge">
<title>prose_3&#45;&gt;literal_11</title>
<path fill="none" stroke="#000000" stroke-dasharray="5,2" d="M367.5,-674.0416C367.5,-625.953 367.5,-495.0305 367.5,-437.0649"/>
<polygon fill="#000000" stroke="#000000" points="371.0001,-436.8082 367.5,-426.8082 364.0001,-436.8083 371.0001,-436.8082"/>
</g>
<!-- raw_12 -->
<g id="node13" class="node">
<title>raw_12</title>
<ellipse fill="none" stroke="#000000" cx="526.5" cy="-408.8004" rx="27" ry="18"/>
<text text-anchor="middle" x="526.5" y="-404.6004" font-family="Helvetica,sans-Serif" font-size="14.00" fill="#000000">raw</text>
</g>
<!-- prose_3&#45;&gt;raw_12 -->
<g id="edge12" class="edge">
<title>prose_3&#45;&gt;raw_12</title>
<path fill="none" stroke="#000000" stroke-dasharray="5,2" d="M380.823,-675.6611C388.9653,-665.2134 399.3452,-651.2647 407.5,-638.2007 451.4715,-567.7587 494.0633,-479.2653 514.2865,-435.6423"/>
<polygon fill="#000000" stroke="#000000" points="517.5876,-436.8416 518.5952,-426.2948 511.2304,-433.9112 517.5876,-436.8416"/>
</g>
<!-- raw_17 -->
<g id="node18" class="node">
<title>raw_17</title>
<ellipse fill="none" stroke="#000000" cx="1092.5" cy="-408.8004" rx="27" ry="18"/>
<text text-anchor="middle" x="1092.5" y="-404.6004" font-family="Helvetica,sans-Serif" font-size="14.00" fill="#000000">raw</text>
</g>
<!-- prose_4&#45;&gt;raw_17 -->
<g id="edge17" class="edge">
<title>prose_4&#45;&gt;raw_17</title>
<path fill="none" stroke="#000000" stroke-dasharray="5,2" d="M1121.5137,-674.0416C1116.2534,-625.953 1101.9324,-495.0305 1095.5917,-437.0649"/>
<polygon fill="#000000" stroke="#000000" points="1099.0365,-436.3683 1094.4698,-426.8082 1092.078,-437.1295 1099.0365,-436.3683"/>
</g>
<!-- raw_19 -->
<g id="node20" class="node">
<title>raw_19</title>
<ellipse fill="none" stroke="#000000" cx="1447.5" cy="-408.8004" rx="27" ry="18"/>
<text text-anchor="middle" x="1447.5" y="-404.6004" font-family="Helvetica,sans-Serif" font-size="14.00" fill="#000000">raw</text>
</g>
<!-- prose_5&#45;&gt;raw_19 -->
<g id="edge19" class="edge">
<title>prose_5&#45;&gt;raw_19</title>
<path fill="none" stroke="#000000" stroke-dasharray="5,2" d="M1389.4727,-674.0416C1400.015,-625.853 1428.7545,-494.4858 1441.3954,-436.7043"/>
<polygon fill="#000000" stroke="#000000" points="1444.8423,-437.3252 1443.5604,-426.8082 1438.004,-435.8291 1444.8423,-437.3252"/>
</g>
<!-- raw_21 -->
<g id="node22" class="node">
<title>raw_21</title>
<ellipse fill="none" stroke="#000000" cx="1937.5" cy="-408.8004" rx="27" ry="18"/>
<text text-anchor="middle" x="1937.5" y="-404.6004" font-family="Helvetica,sans-Serif" font-size="14.00" fill="#000000">raw</text>
</g>
<!-- prose_6&#45;&gt;raw_21 -->
<g id="edge21" class="edge">
<title>prose_6&#45;&gt;raw_21</title>
<path fill="none" stroke="#000000" stroke-dasharray="5,2" d="M1997.3992,-674.0416C1986.5168,-625.853 1956.8502,-494.4858 1943.8015,-436.7043"/>
<polygon fill="#000000" stroke="#000000" points="1947.1836,-435.7916 1941.5667,-426.8082 1940.3556,-437.3336 1947.1836,-435.7916"/>
</g>
<!-- link_22 -->
<g id="node23" class="node">
<title>link_22</title>
<ellipse fill="none" stroke="#000000" cx="2066.5" cy="-408.8004" rx="27" ry="18"/>
<text text-anchor="middle" x="2066.5" y="-404.6004" font-family="Helvetica,sans-Serif" font-size="14.00" fill="#000000">link</text>
</g>
<!-- prose_6&#45;&gt;link_22 -->
<g id="edge22" class="edge">
<title>prose_6&#45;&gt;link_22</title>
<path fill="none" stroke="#000000" stroke-dasharray="5,2" d="M2005.6649,-674.0416C2016.7173,-625.853 2046.8474,-494.4858 2060.1,-436.7043"/>
<polygon fill="#000000" stroke="#000000" points="2063.5456,-437.3376 2062.3698,-426.8082 2056.7227,-435.7727 2063.5456,-437.3376"/>
</g>
<!-- raw_23 -->
<g id="node24" class="node">
<title>raw_23</title>
<ellipse fill="none" stroke="#000000" cx="2138.5" cy="-408.8004" rx="27" ry="18"/>
<text text-anchor="middle" x="2138.5" y="-404.6004" font-family="Helvetica,sans-Serif" font-size="14.00" fill="#000000">raw</text>
</g>
<!-- prose_6&#45;&gt;raw_23 -->
<g id="edge23" class="edge">
<title>prose_6&#45;&gt;raw_23</title>
<path fill="none" stroke="#000000" stroke-dasharray="5,2" d="M2030.6906,-684.4432C2053.941,-676.6828 2085.3406,-662.352 2102.5,-638.2007 2145.9491,-577.0476 2145.2543,-483.5911 2141.6338,-437.1036"/>
<polygon fill="#000000" stroke="#000000" points="2145.0961,-436.5219 2140.7279,-426.8695 2138.1233,-437.1392 2145.0961,-436.5219"/>
</g>
<!-- leaf_30 -->
<g id="node31" class="node">
<title>leaf_30</title>
<polygon fill="none" stroke="#c0c0c0" points="2795,-638.1011 2184,-638.1011 2184,-179.4996 2795,-179.4996 2795,-638.1011"/>
<text text-anchor="middle" x="2489.5" y="-623.0007" font-family="Inconsolata" font-size="14.00" fill="#000000">local L = require &quot;lpeg&quot;</text>
<text text-anchor="middle" x="2489.5" y="-591.6007" font-family="Inconsolata" font-size="14.00" fill="#000000">local Node = require &quot;espalier/node&quot;</text>
<text text-anchor="middle" x="2489.5" y="-576.2007" font-family="Inconsolata" font-size="14.00" fill="#000000">local u = require &quot;../lib/util&quot;</text>
<text text-anchor="middle" x="2489.5" y="-544.8006" font-family="Inconsolata" font-size="14.00" fill="#000000">local m = require &quot;Orbit/morphemes&quot;</text>
<text text-anchor="middle" x="2489.5" y="-513.4006" font-family="Inconsolata" font-size="14.00" fill="#000000">local H, h = u.inherit(Node)</text>
<text text-anchor="middle" x="2489.5" y="-482.0006" font-family="Inconsolata" font-size="14.00" fill="#000000">function h.matchHashtag(line)</text>
<text text-anchor="middle" x="2489.5" y="-466.6005" font-family="Inconsolata" font-size="14.00" fill="#000000"> &#160;&#160;&#160;local hashlen = L.match(L.C(m.hashtag), line)</text>
<text text-anchor="middle" x="2489.5" y="-451.2005" font-family="Inconsolata" font-size="14.00" fill="#000000"> &#160;&#160;&#160;if hashlen then</text>
<text text-anchor="middle" x="2489.5" y="-435.8005" font-family="Inconsolata" font-size="14.00" fill="#000000"> &#160;&#160;&#160;&#160;&#160;&#160;&#160;return hashlen</text>
<text text-anchor="middle" x="2489.5" y="-420.4004" font-family="Inconsolata" font-size="14.00" fill="#000000"> &#160;&#160;&#160;else</text>
<text text-anchor="middle" x="2489.5" y="-405.0004" font-family="Inconsolata" font-size="14.00" fill="#000000"> &#160;&#160;&#160;&#160;&#160;&#160;&#160;return &quot;&quot;</text>
<text text-anchor="middle" x="2489.5" y="-389.6004" font-family="Inconsolata" font-size="14.00" fill="#000000"> &#160;&#160;&#160;&#160;&#160;&#160;&#160;&#45;&#45; This is what it /should/ do, but</text>
<text text-anchor="middle" x="2489.5" y="-374.2003" font-family="Inconsolata" font-size="14.00" fill="#000000"> &#160;&#160;&#160;&#160;&#160;&#160;&#160;&#45;&#45; u.freeze(&quot;Hashtag constructor did not match m.hashtag rule on: &#160;&quot; .. line)</text>
<text text-anchor="middle" x="2489.5" y="-358.8003" font-family="Inconsolata" font-size="14.00" fill="#000000"> &#160;&#160;&#160;end</text>
<text text-anchor="middle" x="2489.5" y="-343.4003" font-family="Inconsolata" font-size="14.00" fill="#000000">end</text>
<text text-anchor="middle" x="2489.5" y="-312.0002" font-family="Inconsolata" font-size="14.00" fill="#000000">local function new(Hashtag, line)</text>
<text text-anchor="middle" x="2489.5" y="-296.6002" font-family="Inconsolata" font-size="14.00" fill="#000000"> &#160;&#160;&#160;local hashtag = setmetatable({}, H)</text>
<text text-anchor="middle" x="2489.5" y="-281.2002" font-family="Inconsolata" font-size="14.00" fill="#000000"> &#160;&#160;&#160;hashtag.id = &quot;hashtag&quot;</text>
<text text-anchor="middle" x="2489.5" y="-265.8002" font-family="Inconsolata" font-size="14.00" fill="#000000"> &#160;&#160;&#160;hashtag.val = h.matchHashtag(line):sub(2, &#45;1)</text>
<text text-anchor="middle" x="2489.5" y="-234.4001" font-family="Inconsolata" font-size="14.00" fill="#000000"> &#160;&#160;&#160;return hashtag</text>
<text text-anchor="middle" x="2489.5" y="-219.0001" font-family="Inconsolata" font-size="14.00" fill="#000000">end</text>
<text text-anchor="middle" x="2489.5" y="-187.6001" font-family="Inconsolata" font-size="14.00" fill="#000000">return u.export(h, new)</text>
</g>
<!-- codeblock_7&#45;&gt;leaf_30 -->
<g id="edge30" class="edge">
<title>codeblock_7&#45;&gt;leaf_30</title>
<path fill="none" stroke="#000000" stroke-dasharray="5,2" d="M2323.8414,-674.0416C2328.3869,-666.7636 2334.1175,-657.5883 2340.6957,-647.0557"/>
<polygon fill="#000000" stroke="#000000" points="2343.8179,-648.6638 2346.1466,-638.3281 2337.8807,-644.9557 2343.8179,-648.6638"/>
</g>
<!-- leaf_13 -->
<g id="node14" class="node">
<title>leaf_13</title>
<polygon fill="none" stroke="#c0c0c0" points="165.5,-143.6012 111.5,-143.6012 111.5,-71.7989 165.5,-71.7989 165.5,-143.6012"/>
<text text-anchor="middle" x="138.5" y="-80.2" font-family="Inconsolata" font-size="14.00" fill="#000000">A</text>
</g>
<!-- raw_9&#45;&gt;leaf_13 -->
<g id="edge13" class="edge">
<title>raw_9&#45;&gt;leaf_13</title>
<path fill="none" stroke="#000000" stroke-dasharray="5,2" d="M177.9985,-390.8669C171.5734,-344.8054 154.3351,-221.2231 144.8955,-153.5497"/>
<polygon fill="#000000" stroke="#000000" points="148.354,-153.0084 143.5059,-143.5878 141.4211,-153.9755 148.354,-153.0084"/>
</g>
<!-- leaf_14 -->
<g id="node15" class="node">
<title>leaf_14</title>
<polygon fill="none" stroke="#c0c0c0" points="237.5,-125.7 183.5,-125.7 183.5,-89.7 237.5,-89.7 237.5,-125.7"/>
<text text-anchor="middle" x="210.5" y="-104.2" font-family="Inconsolata" font-size="14.00" fill="#000000"> </text>
</g>
<!-- prespace_10&#45;&gt;leaf_14 -->
<g id="edge14" class="edge">
<title>prespace_10&#45;&gt;leaf_14</title>
<path fill="none" stroke="#000000" stroke-dasharray="5,2" d="M267.776,-390.4185C257.4783,-339.5884 228.5675,-196.8824 216.2138,-135.9036"/>
<polygon fill="#000000" stroke="#000000" points="219.5912,-134.9473 214.1753,-125.8414 212.7306,-136.3372 219.5912,-134.9473"/>
</g>
<!-- leaf_15 -->
<g id="node16" class="node">
<title>leaf_15</title>
<polygon fill="none" stroke="#c0c0c0" points="327.5,-125.7 255.5,-125.7 255.5,-89.7 327.5,-89.7 327.5,-125.7"/>
<text text-anchor="middle" x="291.5" y="-104.2" font-family="Inconsolata" font-size="14.00" fill="#000000">#Hashtag</text>
</g>
<!-- literal_11&#45;&gt;leaf_15 -->
<g id="edge15" class="edge">
<title>literal_11&#45;&gt;leaf_15</title>
<path fill="none" stroke="#000000" stroke-dasharray="5,2" d="M365.9675,-390.5371C362.289,-351.1351 351.3554,-255.5523 326.5,-179.4 321.5197,-164.1414 313.8772,-148.0061 307.0028,-134.914"/>
<polygon fill="#000000" stroke="#000000" points="310.0092,-133.1151 302.182,-125.9747 303.848,-136.4378 310.0092,-133.1151"/>
</g>
<!-- leaf_16 -->
<g id="node17" class="node">
<title>leaf_16</title>
<polygon fill="none" stroke="#c0c0c0" points="789,-125.7 346,-125.7 346,-89.7 789,-89.7 789,-125.7"/>
<text text-anchor="middle" x="567.5" y="-104.2" font-family="Inconsolata" font-size="14.00" fill="#000000"> in Orb language is a function over the singular Orb dialect.</text>
</g>
<!-- raw_12&#45;&gt;leaf_16 -->
<g id="edge16" class="edge">
<title>raw_12&#45;&gt;leaf_16</title>
<path fill="none" stroke="#000000" stroke-dasharray="5,2" d="M528.942,-390.8669C535.8049,-340.4661 555.3061,-197.2507 563.6432,-136.0241"/>
<polygon fill="#000000" stroke="#000000" points="567.1377,-136.301 565.019,-125.9202 560.2017,-135.3565 567.1377,-136.301"/>
</g>
<!-- leaf_18 -->
<g id="node19" class="node">
<title>leaf_18</title>
<polygon fill="none" stroke="#c0c0c0" points="1348,-127.6021 807,-127.6021 807,-87.7979 1348,-87.7979 1348,-127.6021"/>
<text text-anchor="middle" x="1077.5" y="-96.2" font-family="Inconsolata" font-size="14.00" fill="#000000">Orb can be more than declarative, it can be declamatory. &#160;Rhetorical, even.</text>
</g>
<!-- raw_17&#45;&gt;leaf_18 -->
<g id="edge18" class="edge">
<title>raw_17&#45;&gt;leaf_18</title>
<path fill="none" stroke="#000000" stroke-dasharray="5,2" d="M1091.5843,-390.4185C1089.0821,-340.1907 1082.1106,-200.2511 1079.0147,-138.1053"/>
<polygon fill="#000000" stroke="#000000" points="1082.4941,-137.6023 1078.5008,-127.7889 1075.5028,-137.9507 1082.4941,-137.6023"/>
</g>
<!-- leaf_20 -->
<g id="node21" class="node">
<title>leaf_20</title>
<polygon fill="none" stroke="#c0c0c0" points="1774.5,-127.6021 1366.5,-127.6021 1366.5,-87.7979 1774.5,-87.7979 1774.5,-127.6021"/>
<text text-anchor="middle" x="1570.5" y="-96.2" font-family="Inconsolata" font-size="14.00" fill="#000000">One namespace must be authoritative, and it is this one.</text>
</g>
<!-- raw_19&#45;&gt;leaf_20 -->
<g id="edge20" class="edge">
<title>raw_19&#45;&gt;leaf_20</title>
<path fill="none" stroke="#000000" stroke-dasharray="5,2" d="M1454.6447,-391.3105C1474.9461,-341.6131 1533.1374,-199.1625 1558.4723,-137.1435"/>
<polygon fill="#000000" stroke="#000000" points="1561.8441,-138.1444 1562.3858,-127.5634 1555.364,-135.4972 1561.8441,-138.1444"/>
</g>
<!-- leaf_24 -->
<g id="node25" class="node">
<title>leaf_24</title>
<polygon fill="none" stroke="#c0c0c0" points="2026,-127.6021 1793,-127.6021 1793,-87.7979 2026,-87.7979 2026,-127.6021"/>
<text text-anchor="middle" x="1909.5" y="-96.2" font-family="Inconsolata" font-size="14.00" fill="#000000">Here, we collect hashtags. &#160;In </text>
</g>
<!-- raw_21&#45;&gt;leaf_24 -->
<g id="edge24" class="edge">
<title>raw_21&#45;&gt;leaf_24</title>
<path fill="none" stroke="#000000" stroke-dasharray="5,2" d="M1935.7906,-390.4185C1931.1198,-340.1907 1918.1065,-200.2511 1912.3275,-138.1053"/>
<polygon fill="#000000" stroke="#000000" points="1915.7791,-137.4218 1911.3681,-127.7889 1908.8092,-138.07 1915.7791,-137.4218"/>
</g>
<!-- anchortext_25 -->
<g id="node26" class="node">
<title>anchortext_25</title>
<ellipse fill="none" stroke="#000000" cx="2095.5" cy="-107.7" rx="51.3018" ry="18"/>
<text text-anchor="middle" x="2095.5" y="-103.5" font-family="Helvetica,sans-Serif" font-size="14.00" fill="#000000">anchortext</text>
</g>
<!-- link_22&#45;&gt;anchortext_25 -->
<g id="edge25" class="edge">
<title>link_22&#45;&gt;anchortext_25</title>
<path fill="none" stroke="#000000" stroke-dasharray="5,2" d="M2068.2704,-390.4185C2073.166,-339.5884 2086.9105,-196.8824 2092.7836,-135.9036"/>
<polygon fill="#000000" stroke="#000000" points="2096.2778,-136.1309 2093.7527,-125.8414 2089.3101,-135.4597 2096.2778,-136.1309"/>
</g>
<!-- url_26 -->
<g id="node27" class="node">
<title>url_26</title>
<ellipse fill="none" stroke="#000000" cx="2191.5" cy="-107.7" rx="27" ry="18"/>
<text text-anchor="middle" x="2191.5" y="-103.5" font-family="Helvetica,sans-Serif" font-size="14.00" fill="#000000">url</text>
</g>
<!-- link_22&#45;&gt;url_26 -->
<g id="edge26" class="edge">
<title>link_22&#45;&gt;url_26</title>
<path fill="none" stroke="#000000" stroke-dasharray="5,2" d="M2064.7412,-390.7559C2061.6556,-349.7181 2059.2296,-247.6719 2102.5,-179.4 2117.7439,-155.3483 2133.519,-161.5025 2155.5,-143.4 2160.288,-139.4569 2165.1679,-134.9795 2169.7262,-130.5607"/>
<polygon fill="#000000" stroke="#000000" points="2172.4127,-132.8245 2177.021,-123.2844 2167.4692,-127.8685 2172.4127,-132.8245"/>
</g>
<!-- leaf_29 -->
<g id="node30" class="node">
<title>leaf_29</title>
<polygon fill="none" stroke="#c0c0c0" points="2386,-127.0006 2237,-127.0006 2237,-88.3994 2386,-88.3994 2386,-127.0006"/>
<text text-anchor="middle" x="2311.5" y="-111.9" font-family="Inconsolata" font-size="14.00" fill="#000000">, we</text>
<text text-anchor="middle" x="2311.5" y="-96.5" font-family="Inconsolata" font-size="14.00" fill="#000000">collect hash lines.</text>
</g>
<!-- raw_23&#45;&gt;leaf_29 -->
<g id="edge29" class="edge">
<title>raw_23&#45;&gt;leaf_29</title>
<path fill="none" stroke="#000000" stroke-dasharray="5,2" d="M2136.2318,-390.7025C2132.0157,-349.1126 2127.2766,-245.248 2174.5,-179.4 2184.9751,-164.7937 2221.9773,-145.8496 2254.8885,-131.1023"/>
<polygon fill="#000000" stroke="#000000" points="2256.304,-134.3034 2264.0372,-127.0613 2253.4756,-127.9002 2256.304,-134.3034"/>
</g>
<!-- leaf_27 -->
<g id="node28" class="node">
<title>leaf_27</title>
<polygon fill="none" stroke="#c0c0c0" points="2102.5,-36 2030.5,-36 2030.5,0 2102.5,0 2102.5,-36"/>
<text text-anchor="middle" x="2066.5" y="-14.5" font-family="Inconsolata" font-size="14.00" fill="#000000">hashline</text>
</g>
<!-- anchortext_25&#45;&gt;leaf_27 -->
<g id="edge27" class="edge">
<title>anchortext_25&#45;&gt;leaf_27</title>
<path fill="none" stroke="#000000" stroke-dasharray="5,2" d="M2089.6314,-89.5479C2085.5827,-77.0249 2080.1225,-60.1357 2075.5237,-45.9113"/>
<polygon fill="#000000" stroke="#000000" points="2078.7664,-44.5635 2072.3599,-36.1251 2072.1059,-46.7169 2078.7664,-44.5635"/>
</g>
<!-- leaf_28 -->
<g id="node29" class="node">
<title>leaf_28</title>
<polygon fill="none" stroke="#c0c0c0" points="2318.5,-36 2120.5,-36 2120.5,0 2318.5,0 2318.5,-36"/>
<text text-anchor="middle" x="2219.5" y="-14.5" font-family="Inconsolata" font-size="14.00" fill="#000000">hts://~/Orbit/hashline.orb</text>
</g>
<!-- url_26&#45;&gt;leaf_28 -->
<g id="edge28" class="edge">
<title>url_26&#45;&gt;leaf_28</title>
<path fill="none" stroke="#000000" stroke-dasharray="5,2" d="M2197.0319,-89.9782C2200.9306,-77.4883 2206.2328,-60.5024 2210.7074,-46.1678"/>
<polygon fill="#000000" stroke="#000000" points="2214.1486,-46.8895 2213.7874,-36.3009 2207.4666,-44.8037 2214.1486,-46.8895"/>
</g>
</g>
</svg>
