<?xml version="1.0" encoding="UTF-8" standalone="no"?>
<!DOCTYPE svg PUBLIC "-//W3C//DTD SVG 1.1//EN"
 "http://www.w3.org/Graphics/SVG/1.1/DTD/svg11.dtd">
<!-- Generated by graphviz version 2.40.1 (20161225.0304)
 -->
<!-- Title: lpegNode Pages: 1 -->
<svg width="3206pt" height="955pt"
 viewBox="0.00 0.00 3206.00 955.00" xmlns="http://www.w3.org/2000/svg" xmlns:xlink="http://www.w3.org/1999/xlink">
<g id="graph0" class="graph" transform="scale(1 1) rotate(0) translate(4 951.0011)">
<title>lpegNode</title>
<polygon fill="#ffffff" stroke="transparent" points="-4,4 -4,-951.0011 3202,-951.0011 3202,4 -4,4"/>
<!-- doc_0 -->
<g id="node1" class="node">
<title>doc_0</title>
<ellipse fill="none" stroke="#000000" cx="1362.5" cy="-929.0011" rx="42.1216" ry="18"/>
<text text-anchor="middle" x="1362.5" y="-924.8011" font-family="Helvetica,sans-Serif" font-size="14.00" fill="#000000">doc &#45; 79</text>
</g>
<!-- section_1 -->
<g id="node2" class="node">
<title>section_1</title>
<ellipse fill="none" stroke="#000000" cx="1362.5" cy="-857.0011" rx="60.9826" ry="18"/>
<text text-anchor="middle" x="1362.5" y="-852.8011" font-family="Helvetica,sans-Serif" font-size="14.00" fill="#000000">section: 1&#45;58</text>
</g>
<!-- doc_0&#45;&gt;section_1 -->
<g id="edge1" class="edge">
<title>doc_0&#45;&gt;section_1</title>
<path fill="none" stroke="#000000" stroke-dasharray="5,2" d="M1362.5,-910.8325C1362.5,-903.132 1362.5,-893.9754 1362.5,-885.4177"/>
<polygon fill="#000000" stroke="#000000" points="1366.0001,-885.4143 1362.5,-875.4144 1359.0001,-885.4144 1366.0001,-885.4143"/>
</g>
<!-- header_2 -->
<g id="node3" class="node">
<title>header_2</title>
<ellipse fill="none" stroke="#000000" cx="1014.5" cy="-785.0011" rx="89.9744" ry="18"/>
<text text-anchor="middle" x="1014.5" y="-780.8011" font-family="Helvetica,sans-Serif" font-size="14.00" fill="#000000">1 : Structure Module</text>
</g>
<!-- section_1&#45;&gt;header_2 -->
<g id="edge2" class="edge">
<title>section_1&#45;&gt;header_2</title>
<path fill="none" stroke="#000000" stroke-dasharray="5,2" d="M1312.6401,-846.6852C1253.6483,-834.4801 1154.9338,-814.0564 1087.373,-800.0783"/>
<polygon fill="#000000" stroke="#000000" points="1087.726,-796.5772 1077.2243,-797.9785 1086.3077,-803.4321 1087.726,-796.5772"/>
</g>
<!-- prose_3 -->
<g id="node4" class="node">
<title>prose_3</title>
<ellipse fill="none" stroke="#000000" cx="1179.5" cy="-785.0011" rx="32.4585" ry="18"/>
<text text-anchor="middle" x="1179.5" y="-780.8011" font-family="Helvetica,sans-Serif" font-size="14.00" fill="#000000">prose</text>
</g>
<!-- section_1&#45;&gt;prose_3 -->
<g id="edge3" class="edge">
<title>section_1&#45;&gt;prose_3</title>
<path fill="none" stroke="#000000" stroke-dasharray="5,2" d="M1325.907,-842.6039C1293.7681,-829.959 1247.2876,-811.6716 1215.367,-799.1127"/>
<polygon fill="#000000" stroke="#000000" points="1216.5472,-795.8159 1205.9601,-795.4116 1213.9843,-802.3299 1216.5472,-795.8159"/>
</g>
<!-- prose_4 -->
<g id="node5" class="node">
<title>prose_4</title>
<ellipse fill="none" stroke="#000000" cx="1274.5" cy="-785.0011" rx="32.4585" ry="18"/>
<text text-anchor="middle" x="1274.5" y="-780.8011" font-family="Helvetica,sans-Serif" font-size="14.00" fill="#000000">prose</text>
</g>
<!-- section_1&#45;&gt;prose_4 -->
<g id="edge4" class="edge">
<title>section_1&#45;&gt;prose_4</title>
<path fill="none" stroke="#000000" stroke-dasharray="5,2" d="M1341.6452,-839.9381C1329.3549,-829.8824 1313.6965,-817.071 1300.5929,-806.3498"/>
<polygon fill="#000000" stroke="#000000" points="1302.7731,-803.6114 1292.8172,-799.9879 1298.3404,-809.0291 1302.7731,-803.6114"/>
</g>
<!-- prose_5 -->
<g id="node6" class="node">
<title>prose_5</title>
<ellipse fill="none" stroke="#000000" cx="1362.5" cy="-785.0011" rx="32.4585" ry="18"/>
<text text-anchor="middle" x="1362.5" y="-780.8011" font-family="Helvetica,sans-Serif" font-size="14.00" fill="#000000">prose</text>
</g>
<!-- section_1&#45;&gt;prose_5 -->
<g id="edge5" class="edge">
<title>section_1&#45;&gt;prose_5</title>
<path fill="none" stroke="#000000" stroke-dasharray="5,2" d="M1362.5,-838.8325C1362.5,-831.132 1362.5,-821.9754 1362.5,-813.4177"/>
<polygon fill="#000000" stroke="#000000" points="1366.0001,-813.4143 1362.5,-803.4144 1359.0001,-813.4144 1366.0001,-813.4143"/>
</g>
<!-- codeblock_6 -->
<g id="node7" class="node">
<title>codeblock_6</title>
<ellipse fill="none" stroke="#000000" cx="1570.5" cy="-785.0011" rx="77.4211" ry="18"/>
<text text-anchor="middle" x="1570.5" y="-780.8011" font-family="Helvetica,sans-Serif" font-size="14.00" fill="#000000">code block 12&#45;30</text>
</g>
<!-- section_1&#45;&gt;codeblock_6 -->
<g id="edge6" class="edge">
<title>section_1&#45;&gt;codeblock_6</title>
<path fill="none" stroke="#000000" stroke-dasharray="5,2" d="M1402.1128,-843.289C1434.7581,-831.9887 1481.3578,-815.858 1517.2625,-803.4295"/>
<polygon fill="#000000" stroke="#000000" points="1518.7804,-806.6079 1527.0853,-800.0292 1516.4906,-799.993 1518.7804,-806.6079"/>
</g>
<!-- section_7 -->
<g id="node8" class="node">
<title>section_7</title>
<ellipse fill="none" stroke="#000000" cx="2080.5" cy="-785.0011" rx="65.8187" ry="18"/>
<text text-anchor="middle" x="2080.5" y="-780.8011" font-family="Helvetica,sans-Serif" font-size="14.00" fill="#000000">section: 32&#45;58</text>
</g>
<!-- section_1&#45;&gt;section_7 -->
<g id="edge7" class="edge">
<title>section_1&#45;&gt;section_7</title>
<path fill="none" stroke="#000000" stroke-dasharray="5,2" d="M1420.0432,-851.2307C1550.0319,-838.1957 1866.11,-806.4998 2008.6643,-792.2047"/>
<polygon fill="#000000" stroke="#000000" points="2009.0225,-795.6864 2018.6234,-791.206 2008.324,-788.7213 2009.0225,-795.6864"/>
</g>
<!-- section_8 -->
<g id="node9" class="node">
<title>section_8</title>
<ellipse fill="none" stroke="#000000" cx="2723.5" cy="-785.0011" rx="65.8187" ry="18"/>
<text text-anchor="middle" x="2723.5" y="-780.8011" font-family="Helvetica,sans-Serif" font-size="14.00" fill="#000000">section: 59&#45;79</text>
</g>
<!-- section_1&#45;&gt;section_8 -->
<g id="edge8" class="edge">
<title>section_1&#45;&gt;section_8</title>
<path fill="none" stroke="#000000" stroke-dasharray="5,2" d="M1422.7366,-853.8144C1643.2234,-842.1502 2406.059,-801.7944 2648.7436,-788.9559"/>
<polygon fill="#000000" stroke="#000000" points="2649.0749,-792.4433 2658.876,-788.4198 2648.705,-785.4531 2649.0749,-792.4433"/>
</g>
<!-- leaf_9 -->
<g id="node10" class="node">
<title>leaf_9</title>
<polygon fill="none" stroke="#c0c0c0" points="1034,-613.8008 885,-613.8008 885,-577.8008 1034,-577.8008 1034,-613.8008"/>
<text text-anchor="middle" x="959.5" y="-592.3009" font-family="Inconsolata" font-size="14.00" fill="#000000"> * Structure Module</text>
</g>
<!-- header_2&#45;&gt;leaf_9 -->
<g id="edge9" class="edge">
<title>header_2&#45;&gt;leaf_9</title>
<path fill="none" stroke="#000000" stroke-dasharray="5,2" d="M1009.2264,-766.8598C999.576,-733.6624 979.0185,-662.9446 967.5888,-623.6264"/>
<polygon fill="#000000" stroke="#000000" points="970.91,-622.5127 964.7577,-613.8872 964.1883,-624.4668 970.91,-622.5127"/>
</g>
<!-- raw_10 -->
<g id="node11" class="node">
<title>raw_10</title>
<ellipse fill="none" stroke="#000000" cx="1079.5" cy="-595.8008" rx="27" ry="18"/>
<text text-anchor="middle" x="1079.5" y="-591.6008" font-family="Helvetica,sans-Serif" font-size="14.00" fill="#000000">raw</text>
</g>
<!-- prose_3&#45;&gt;raw_10 -->
<g id="edge10" class="edge">
<title>prose_3&#45;&gt;raw_10</title>
<path fill="none" stroke="#000000" stroke-dasharray="5,2" d="M1157.4751,-771.5359C1143.4882,-761.8955 1126.0874,-747.6989 1115.5,-731.0011 1094.5088,-697.895 1085.6767,-652.7998 1082.0156,-623.9879"/>
<polygon fill="#000000" stroke="#000000" points="1085.4643,-623.3394 1080.851,-613.8017 1078.5096,-624.1346 1085.4643,-623.3394"/>
</g>
<!-- raw_12 -->
<g id="node13" class="node">
<title>raw_12</title>
<ellipse fill="none" stroke="#000000" cx="1151.5" cy="-595.8008" rx="27" ry="18"/>
<text text-anchor="middle" x="1151.5" y="-591.6008" font-family="Helvetica,sans-Serif" font-size="14.00" fill="#000000">raw</text>
</g>
<!-- prose_4&#45;&gt;raw_12 -->
<g id="edge12" class="edge">
<title>prose_4&#45;&gt;raw_12</title>
<path fill="none" stroke="#000000" stroke-dasharray="5,2" d="M1247.8659,-774.8472C1228.3639,-766.0831 1202.7418,-751.5681 1187.5,-731.0011 1163.9285,-699.1942 1155.779,-653.0864 1152.9687,-623.7796"/>
<polygon fill="#000000" stroke="#000000" points="1156.4562,-623.4831 1152.1562,-613.8001 1149.4793,-624.0512 1156.4562,-623.4831"/>
</g>
<!-- raw_14 -->
<g id="node15" class="node">
<title>raw_14</title>
<ellipse fill="none" stroke="#000000" cx="1223.5" cy="-595.8008" rx="27" ry="18"/>
<text text-anchor="middle" x="1223.5" y="-591.6008" font-family="Helvetica,sans-Serif" font-size="14.00" fill="#000000">raw</text>
</g>
<!-- prose_5&#45;&gt;raw_14 -->
<g id="edge14" class="edge">
<title>prose_5&#45;&gt;raw_14</title>
<path fill="none" stroke="#000000" stroke-dasharray="5,2" d="M1336.1576,-774.1031C1309.1988,-762.4598 1269.834,-743.9362 1259.5,-731.0011 1234.7894,-700.0708 1226.9512,-653.7234 1224.5175,-624.1268"/>
<polygon fill="#000000" stroke="#000000" points="1228.0026,-623.7849 1223.8442,-614.0402 1221.0181,-624.2512 1228.0026,-623.7849"/>
</g>
<!-- prespace_15 -->
<g id="node16" class="node">
<title>prespace_15</title>
<ellipse fill="none" stroke="#000000" cx="1314.5" cy="-595.8008" rx="46.4736" ry="18"/>
<text text-anchor="middle" x="1314.5" y="-591.6008" font-family="Helvetica,sans-Serif" font-size="14.00" fill="#000000">prespace</text>
</g>
<!-- prose_5&#45;&gt;prespace_15 -->
<g id="edge15" class="edge">
<title>prose_5&#45;&gt;prespace_15</title>
<path fill="none" stroke="#000000" stroke-dasharray="5,2" d="M1357.8976,-766.8598C1349.4754,-733.6624 1331.5343,-662.9446 1321.5593,-623.6264"/>
<polygon fill="#000000" stroke="#000000" points="1324.9402,-622.7195 1319.0885,-613.8872 1318.1551,-624.4409 1324.9402,-622.7195"/>
</g>
<!-- literal_16 -->
<g id="node17" class="node">
<title>literal_16</title>
<ellipse fill="none" stroke="#000000" cx="1410.5" cy="-595.8008" rx="31.481" ry="18"/>
<text text-anchor="middle" x="1410.5" y="-591.6008" font-family="Helvetica,sans-Serif" font-size="14.00" fill="#000000">literal</text>
</g>
<!-- prose_5&#45;&gt;literal_16 -->
<g id="edge16" class="edge">
<title>prose_5&#45;&gt;literal_16</title>
<path fill="none" stroke="#000000" stroke-dasharray="5,2" d="M1367.1024,-766.8598C1375.5246,-733.6624 1393.4657,-662.9446 1403.4407,-623.6264"/>
<polygon fill="#000000" stroke="#000000" points="1406.8449,-624.4409 1405.9115,-613.8872 1400.0598,-622.7195 1406.8449,-624.4409"/>
</g>
<!-- raw_17 -->
<g id="node18" class="node">
<title>raw_17</title>
<ellipse fill="none" stroke="#000000" cx="1486.5" cy="-595.8008" rx="27" ry="18"/>
<text text-anchor="middle" x="1486.5" y="-591.6008" font-family="Helvetica,sans-Serif" font-size="14.00" fill="#000000">raw</text>
</g>
<!-- prose_5&#45;&gt;raw_17 -->
<g id="edge17" class="edge">
<title>prose_5&#45;&gt;raw_17</title>
<path fill="none" stroke="#000000" stroke-dasharray="5,2" d="M1389.4377,-774.9227C1409.1626,-766.1983 1435.0786,-751.6997 1450.5,-731.0011 1474.1527,-699.2545 1482.28,-653.1302 1485.0635,-623.8035"/>
<polygon fill="#000000" stroke="#000000" points="1488.5536,-624.0649 1485.866,-613.8167 1481.5761,-623.5041 1488.5536,-624.0649"/>
</g>
<!-- leaf_22 -->
<g id="node23" class="node">
<title>leaf_22</title>
<polygon fill="none" stroke="#c0c0c0" points="1863,-731.2016 1532,-731.2016 1532,-460.4 1863,-460.4 1863,-731.2016"/>
<text text-anchor="middle" x="1697.5" y="-715.8011" font-family="Inconsolata" font-size="14.00" fill="#000000">local Node = require &quot;espalier/node&quot;</text>
<text text-anchor="middle" x="1697.5" y="-700.4011" font-family="Inconsolata" font-size="14.00" fill="#000000">local u = {}</text>
<text text-anchor="middle" x="1697.5" y="-685.001" font-family="Inconsolata" font-size="14.00" fill="#000000">function u.inherit(meta)</text>
<text text-anchor="middle" x="1697.5" y="-669.601" font-family="Inconsolata" font-size="14.00" fill="#000000"> &#160;local MT = meta or {}</text>
<text text-anchor="middle" x="1697.5" y="-654.201" font-family="Inconsolata" font-size="14.00" fill="#000000"> &#160;local M = setmetatable({}, MT)</text>
<text text-anchor="middle" x="1697.5" y="-638.8009" font-family="Inconsolata" font-size="14.00" fill="#000000"> &#160;M.__index = M</text>
<text text-anchor="middle" x="1697.5" y="-623.4009" font-family="Inconsolata" font-size="14.00" fill="#000000"> &#160;local m = setmetatable({}, M)</text>
<text text-anchor="middle" x="1697.5" y="-608.0009" font-family="Inconsolata" font-size="14.00" fill="#000000"> &#160;m.__index = m</text>
<text text-anchor="middle" x="1697.5" y="-592.6008" font-family="Inconsolata" font-size="14.00" fill="#000000"> &#160;return M, m</text>
<text text-anchor="middle" x="1697.5" y="-577.2008" font-family="Inconsolata" font-size="14.00" fill="#000000">end</text>
<text text-anchor="middle" x="1697.5" y="-561.8008" font-family="Inconsolata" font-size="14.00" fill="#000000">function u.export(mod, constructor)</text>
<text text-anchor="middle" x="1697.5" y="-546.4007" font-family="Inconsolata" font-size="14.00" fill="#000000"> &#160;mod.__call = constructor</text>
<text text-anchor="middle" x="1697.5" y="-531.0007" font-family="Inconsolata" font-size="14.00" fill="#000000"> &#160;return setmetatable({}, mod)</text>
<text text-anchor="middle" x="1697.5" y="-515.6007" font-family="Inconsolata" font-size="14.00" fill="#000000">end</text>
<text text-anchor="middle" x="1697.5" y="-484.2007" font-family="Inconsolata" font-size="14.00" fill="#000000">local Hashline = require &quot;Orbit/hashline&quot;</text>
<text text-anchor="middle" x="1697.5" y="-468.8006" font-family="Inconsolata" font-size="14.00" fill="#000000">local Handleline = require &quot;Orbit/handleline&quot;</text>
</g>
<!-- codeblock_6&#45;&gt;leaf_22 -->
<g id="edge22" class="edge">
<title>codeblock_6&#45;&gt;leaf_22</title>
<path fill="none" stroke="#000000" stroke-dasharray="5,2" d="M1582.4479,-767.2016C1587.516,-759.6512 1593.9159,-750.1168 1601.0904,-739.4286"/>
<polygon fill="#000000" stroke="#000000" points="1604.0512,-741.2976 1606.7185,-731.044 1598.2391,-737.3963 1604.0512,-741.2976"/>
</g>
<!-- header_23 -->
<g id="node24" class="node">
<title>header_23</title>
<ellipse fill="none" stroke="#000000" cx="1997.5" cy="-595.8008" rx="116.5368" ry="18"/>
<text text-anchor="middle" x="1997.5" y="-591.6008" font-family="Helvetica,sans-Serif" font-size="14.00" fill="#000000">2 : Metatable for Structures</text>
</g>
<!-- section_7&#45;&gt;header_23 -->
<g id="edge23" class="edge">
<title>section_7&#45;&gt;header_23</title>
<path fill="none" stroke="#000000" stroke-dasharray="5,2" d="M2072.5416,-766.8598C2057.9163,-733.5212 2026.6909,-662.342 2009.4873,-623.1262"/>
<polygon fill="#000000" stroke="#000000" points="2012.6568,-621.6387 2005.4343,-613.8872 2006.2465,-624.4509 2012.6568,-621.6387"/>
</g>
<!-- prose_24 -->
<g id="node25" class="node">
<title>prose_24</title>
<ellipse fill="none" stroke="#000000" cx="2164.5" cy="-595.8008" rx="32.4585" ry="18"/>
<text text-anchor="middle" x="2164.5" y="-591.6008" font-family="Helvetica,sans-Serif" font-size="14.00" fill="#000000">prose</text>
</g>
<!-- section_7&#45;&gt;prose_24 -->
<g id="edge24" class="edge">
<title>section_7&#45;&gt;prose_24</title>
<path fill="none" stroke="#000000" stroke-dasharray="5,2" d="M2097.4978,-767.2302C2106.2877,-757.239 2116.5922,-744.1584 2123.5,-731.0011 2141.6981,-696.3391 2153.1416,-652.3438 2159.1792,-624.1271"/>
<polygon fill="#000000" stroke="#000000" points="2162.6474,-624.6375 2161.2313,-614.1377 2155.7906,-623.2289 2162.6474,-624.6375"/>
</g>
<!-- codeblock_25 -->
<g id="node26" class="node">
<title>codeblock_25</title>
<ellipse fill="none" stroke="#000000" cx="2337.5" cy="-595.8008" rx="77.4211" ry="18"/>
<text text-anchor="middle" x="2337.5" y="-591.6008" font-family="Helvetica,sans-Serif" font-size="14.00" fill="#000000">code block 34&#45;57</text>
</g>
<!-- section_7&#45;&gt;codeblock_25 -->
<g id="edge25" class="edge">
<title>section_7&#45;&gt;codeblock_25</title>
<path fill="none" stroke="#000000" stroke-dasharray="5,2" d="M2123.1347,-771.2922C2148.3423,-762.0719 2180.1808,-748.4189 2205.5,-731.0011 2250.9555,-699.7309 2293.6587,-651.1927 2317.6062,-621.5731"/>
<polygon fill="#000000" stroke="#000000" points="2320.3472,-623.7496 2323.85,-613.7506 2314.8762,-619.3828 2320.3472,-623.7496"/>
</g>
<!-- header_30 -->
<g id="node31" class="node">
<title>header_30</title>
<ellipse fill="none" stroke="#000000" cx="2648.5" cy="-595.8008" rx="99.6298" ry="18"/>
<text text-anchor="middle" x="2648.5" y="-591.6008" font-family="Helvetica,sans-Serif" font-size="14.00" fill="#000000">2 : Constructor module</text>
</g>
<!-- section_8&#45;&gt;header_30 -->
<g id="edge30" class="edge">
<title>section_8&#45;&gt;header_30</title>
<path fill="none" stroke="#000000" stroke-dasharray="5,2" d="M2716.3087,-766.8598C2703.1211,-733.5918 2674.9968,-662.6435 2659.4309,-623.3759"/>
<polygon fill="#000000" stroke="#000000" points="2662.6084,-621.8937 2655.6695,-613.8872 2656.101,-624.4733 2662.6084,-621.8937"/>
</g>
<!-- prose_31 -->
<g id="node32" class="node">
<title>prose_31</title>
<ellipse fill="none" stroke="#000000" cx="2798.5" cy="-595.8008" rx="32.4585" ry="18"/>
<text text-anchor="middle" x="2798.5" y="-591.6008" font-family="Helvetica,sans-Serif" font-size="14.00" fill="#000000">prose</text>
</g>
<!-- section_8&#45;&gt;prose_31 -->
<g id="edge31" class="edge">
<title>section_8&#45;&gt;prose_31</title>
<path fill="none" stroke="#000000" stroke-dasharray="5,2" d="M2736.4145,-767.1923C2743.377,-756.9797 2751.704,-743.6998 2757.5,-731.0011 2773.7552,-695.3866 2785.6785,-651.6265 2792.3529,-623.722"/>
<polygon fill="#000000" stroke="#000000" points="2795.7916,-624.3871 2794.652,-613.8537 2788.9742,-622.7987 2795.7916,-624.3871"/>
</g>
<!-- codeblock_32 -->
<g id="node33" class="node">
<title>codeblock_32</title>
<ellipse fill="none" stroke="#000000" cx="2974.5" cy="-595.8008" rx="77.4211" ry="18"/>
<text text-anchor="middle" x="2974.5" y="-591.6008" font-family="Helvetica,sans-Serif" font-size="14.00" fill="#000000">code block 62&#45;78</text>
</g>
<!-- section_8&#45;&gt;codeblock_32 -->
<g id="edge32" class="edge">
<title>section_8&#45;&gt;codeblock_32</title>
<path fill="none" stroke="#000000" stroke-dasharray="5,2" d="M2763.2193,-770.5633C2786.5285,-761.1273 2815.936,-747.5024 2839.5,-731.0011 2885.1975,-699.0002 2929.1196,-650.6914 2953.8749,-621.3152"/>
<polygon fill="#000000" stroke="#000000" points="2956.6231,-623.4845 2960.3344,-613.5609 2951.2447,-619.0041 2956.6231,-623.4845"/>
</g>
<!-- leaf_11 -->
<g id="node12" class="node">
<title>leaf_11</title>
<polygon fill="none" stroke="#c0c0c0" points="471,-293.5006 0,-293.5006 0,-207.1 471,-207.1 471,-293.5006"/>
<text text-anchor="middle" x="235.5" y="-246.2003" font-family="Inconsolata" font-size="14.00" fill="#000000"> &#160;&#160;Structure is our holding block for anything which is neither</text>
<text text-anchor="middle" x="235.5" y="-230.8003" font-family="Inconsolata" font-size="14.00" fill="#000000"> prose nor code. &#160;This includes taglines, lists, tables, and some</text>
<text text-anchor="middle" x="235.5" y="-215.4003" font-family="Inconsolata" font-size="14.00" fill="#000000"> more advanced forms such as drawers.</text>
</g>
<!-- raw_10&#45;&gt;leaf_11 -->
<g id="edge11" class="edge">
<title>raw_10&#45;&gt;leaf_11</title>
<path fill="none" stroke="#000000" stroke-dasharray="5,2" d="M1080.5841,-577.4167C1081.2211,-547.6091 1077.5885,-489.1944 1042.5,-460.6006 945.3156,-381.4047 597.6031,-466.6536 479.5,-424.6006 405.1693,-398.1336 333.3272,-341.9113 287.0808,-300.4433"/>
<polygon fill="#000000" stroke="#000000" points="289.3592,-297.7847 279.5991,-293.6626 284.6584,-302.9715 289.3592,-297.7847"/>
</g>
<!-- leaf_13 -->
<g id="node14" class="node">
<title>leaf_13</title>
<polygon fill="none" stroke="#c0c0c0" points="1044,-277.6007 489,-277.6007 489,-222.9999 1044,-222.9999 1044,-277.6007"/>
<text text-anchor="middle" x="766.5" y="-246.5003" font-family="Inconsolata" font-size="14.00" fill="#000000"> For now we need them as containers for taglines, which are part of the short</text>
<text text-anchor="middle" x="766.5" y="-231.1003" font-family="Inconsolata" font-size="14.00" fill="#000000"> path for knitting source code.</text>
</g>
<!-- raw_12&#45;&gt;leaf_13 -->
<g id="edge13" class="edge">
<title>raw_12&#45;&gt;leaf_13</title>
<path fill="none" stroke="#000000" stroke-dasharray="5,2" d="M1151.001,-577.6828C1149.3577,-549.7781 1142.6109,-495.8268 1115.5,-460.6006 1095.8311,-435.0441 1080.2717,-440.9936 1052.5,-424.6006 970.5777,-376.2437 876.5584,-318.5078 819.3616,-283.1299"/>
<polygon fill="#000000" stroke="#000000" points="821.1959,-280.1491 810.8508,-277.8626 817.5121,-286.1014 821.1959,-280.1491"/>
</g>
<!-- leaf_18 -->
<g id="node19" class="node">
<title>leaf_18</title>
<polygon fill="none" stroke="#c0c0c0" points="1323,-270.2024 1062,-270.2024 1062,-230.3982 1323,-230.3982 1323,-270.2024"/>
<text text-anchor="middle" x="1192.5" y="-238.8003" font-family="Inconsolata" font-size="14.00" fill="#000000"> Note that structures do not have a</text>
</g>
<!-- raw_14&#45;&gt;leaf_18 -->
<g id="edge18" class="edge">
<title>raw_14&#45;&gt;leaf_18</title>
<path fill="none" stroke="#000000" stroke-dasharray="5,2" d="M1221.877,-577.7117C1216.8512,-521.6986 1201.5073,-350.688 1195.2252,-280.6733"/>
<polygon fill="#000000" stroke="#000000" points="1198.6775,-279.9838 1194.2978,-270.3366 1191.7055,-280.6094 1198.6775,-279.9838"/>
</g>
<!-- leaf_19 -->
<g id="node20" class="node">
<title>leaf_19</title>
<polygon fill="none" stroke="#c0c0c0" points="1395.5,-268.3003 1341.5,-268.3003 1341.5,-232.3003 1395.5,-232.3003 1395.5,-268.3003"/>
<text text-anchor="middle" x="1368.5" y="-246.8003" font-family="Inconsolata" font-size="14.00" fill="#000000"> </text>
</g>
<!-- prespace_15&#45;&gt;leaf_19 -->
<g id="edge19" class="edge">
<title>prespace_15&#45;&gt;leaf_19</title>
<path fill="none" stroke="#000000" stroke-dasharray="5,2" d="M1317.3272,-577.7117C1326.1642,-521.1714 1353.3146,-347.4588 1364.0576,-278.7235"/>
<polygon fill="#000000" stroke="#000000" points="1367.5493,-279.0478 1365.6356,-268.6272 1360.6333,-277.9668 1367.5493,-279.0478"/>
</g>
<!-- leaf_20 -->
<g id="node21" class="node">
<title>leaf_20</title>
<polygon fill="none" stroke="#c0c0c0" points="1471.5,-268.3003 1413.5,-268.3003 1413.5,-232.3003 1471.5,-232.3003 1471.5,-268.3003"/>
<text text-anchor="middle" x="1442.5" y="-246.8003" font-family="Inconsolata" font-size="14.00" fill="#000000">.lines</text>
</g>
<!-- literal_16&#45;&gt;leaf_20 -->
<g id="edge20" class="edge">
<title>literal_16&#45;&gt;leaf_20</title>
<path fill="none" stroke="#000000" stroke-dasharray="5,2" d="M1412.1754,-577.7117C1417.4121,-521.1714 1433.5013,-347.4588 1439.8675,-278.7235"/>
<polygon fill="#000000" stroke="#000000" points="1443.3653,-278.9074 1440.8026,-268.6272 1436.3952,-278.2618 1443.3653,-278.9074"/>
</g>
<!-- leaf_21 -->
<g id="node22" class="node">
<title>leaf_21</title>
<polygon fill="none" stroke="#c0c0c0" points="1555,-268.3003 1490,-268.3003 1490,-232.3003 1555,-232.3003 1555,-268.3003"/>
<text text-anchor="middle" x="1522.5" y="-246.8003" font-family="Inconsolata" font-size="14.00" fill="#000000"> field.</text>
</g>
<!-- raw_17&#45;&gt;leaf_21 -->
<g id="edge21" class="edge">
<title>raw_17&#45;&gt;leaf_21</title>
<path fill="none" stroke="#000000" stroke-dasharray="5,2" d="M1488.3848,-577.7117C1494.2761,-521.1714 1512.3764,-347.4588 1519.5384,-278.7235"/>
<polygon fill="#000000" stroke="#000000" points="1523.0351,-278.9361 1520.5904,-268.6272 1516.0728,-278.2106 1523.0351,-278.9361"/>
</g>
<!-- leaf_26 -->
<g id="node27" class="node">
<title>leaf_26</title>
<polygon fill="none" stroke="#c0c0c0" points="2080.5,-268.3003 1868.5,-268.3003 1868.5,-232.3003 2080.5,-232.3003 2080.5,-268.3003"/>
<text text-anchor="middle" x="1974.5" y="-246.8003" font-family="Inconsolata" font-size="14.00" fill="#000000"> ** Metatable for Structures</text>
</g>
<!-- header_23&#45;&gt;leaf_26 -->
<g id="edge26" class="edge">
<title>header_23&#45;&gt;leaf_26</title>
<path fill="none" stroke="#000000" stroke-dasharray="5,2" d="M1996.2958,-577.7117C1992.5319,-521.1714 1980.9678,-347.4588 1976.3921,-278.7235"/>
<polygon fill="#000000" stroke="#000000" points="1979.8766,-278.3726 1975.72,-268.6272 1972.8921,-278.8376 1979.8766,-278.3726"/>
</g>
<!-- raw_27 -->
<g id="node28" class="node">
<title>raw_27</title>
<ellipse fill="none" stroke="#000000" cx="2125.5" cy="-250.3003" rx="27" ry="18"/>
<text text-anchor="middle" x="2125.5" y="-246.1003" font-family="Helvetica,sans-Serif" font-size="14.00" fill="#000000">raw</text>
</g>
<!-- prose_24&#45;&gt;raw_27 -->
<g id="edge27" class="edge">
<title>prose_24&#45;&gt;raw_27</title>
<path fill="none" stroke="#000000" stroke-dasharray="5,2" d="M2162.4581,-577.7117C2156.0759,-521.1714 2136.4672,-347.4588 2128.7084,-278.7235"/>
<polygon fill="#000000" stroke="#000000" points="2132.1684,-278.1715 2127.5687,-268.6272 2125.2126,-278.9567 2132.1684,-278.1715"/>
</g>
<!-- leaf_29 -->
<g id="node30" class="node">
<title>leaf_29</title>
<polygon fill="none" stroke="#c0c0c0" points="2550.5,-424.4011 2170.5,-424.4011 2170.5,-76.1995 2550.5,-76.1995 2550.5,-424.4011"/>
<text text-anchor="middle" x="2360.5" y="-409.4006" font-family="Inconsolata" font-size="14.00" fill="#000000">local S, s = u.inherit(Node)</text>
<text text-anchor="middle" x="2360.5" y="-378.0006" font-family="Inconsolata" font-size="14.00" fill="#000000">function S.dotLabel(structure)</text>
<text text-anchor="middle" x="2360.5" y="-362.6005" font-family="Inconsolata" font-size="14.00" fill="#000000"> &#160;&#160;&#160;&#45;&#45; This is a shim and will break.</text>
<text text-anchor="middle" x="2360.5" y="-347.2005" font-family="Inconsolata" font-size="14.00" fill="#000000"> &#160;&#160;&#160;if structure.temp_id then</text>
<text text-anchor="middle" x="2360.5" y="-331.8005" font-family="Inconsolata" font-size="14.00" fill="#000000"> &#160;&#160;&#160;&#160;&#160;&#160;&#160;return structure.temp_id</text>
<text text-anchor="middle" x="2360.5" y="-316.4004" font-family="Inconsolata" font-size="14.00" fill="#000000"> &#160;&#160;&#160;else</text>
<text text-anchor="middle" x="2360.5" y="-301.0004" font-family="Inconsolata" font-size="14.00" fill="#000000"> &#160;&#160;&#160;&#160;&#160;&#160;&#160;return &quot;structure&quot;</text>
<text text-anchor="middle" x="2360.5" y="-285.6004" font-family="Inconsolata" font-size="14.00" fill="#000000"> &#160;&#160;&#160;end</text>
<text text-anchor="middle" x="2360.5" y="-270.2003" font-family="Inconsolata" font-size="14.00" fill="#000000">end</text>
<text text-anchor="middle" x="2360.5" y="-238.8003" font-family="Inconsolata" font-size="14.00" fill="#000000">function S.toMarkdown(structure)</text>
<text text-anchor="middle" x="2360.5" y="-223.4003" font-family="Inconsolata" font-size="14.00" fill="#000000"> &#160;&#160;&#160;if structure[1] and structure[1].toMarkdown then</text>
<text text-anchor="middle" x="2360.5" y="-208.0002" font-family="Inconsolata" font-size="14.00" fill="#000000"> &#160;&#160;&#160;&#160;&#160;&#160;&#160;return structure[1]:toMarkdown()</text>
<text text-anchor="middle" x="2360.5" y="-192.6002" font-family="Inconsolata" font-size="14.00" fill="#000000"> &#160;&#160;&#160;else</text>
<text text-anchor="middle" x="2360.5" y="-177.2002" font-family="Inconsolata" font-size="14.00" fill="#000000"> &#160;&#160;&#160;&#160;&#160;&#160;&#160;return structure.__VALUE</text>
<text text-anchor="middle" x="2360.5" y="-161.8002" font-family="Inconsolata" font-size="14.00" fill="#000000"> &#160;&#160;&#160;end</text>
<text text-anchor="middle" x="2360.5" y="-146.4001" font-family="Inconsolata" font-size="14.00" fill="#000000">end</text>
<text text-anchor="middle" x="2360.5" y="-115.0001" font-family="Inconsolata" font-size="14.00" fill="#000000">function S.toValue(structure)</text>
<text text-anchor="middle" x="2360.5" y="-99.6001" font-family="Inconsolata" font-size="14.00" fill="#000000"> &#160;&#160;&#160;return structure.__VALUE</text>
<text text-anchor="middle" x="2360.5" y="-84.2" font-family="Inconsolata" font-size="14.00" fill="#000000">end</text>
</g>
<!-- codeblock_25&#45;&gt;leaf_29 -->
<g id="edge29" class="edge">
<title>codeblock_25&#45;&gt;leaf_29</title>
<path fill="none" stroke="#000000" stroke-dasharray="5,2" d="M2338.7042,-577.7117C2340.5653,-549.7548 2344.3335,-493.1503 2348.2209,-434.7541"/>
<polygon fill="#000000" stroke="#000000" points="2351.7244,-434.8169 2348.8964,-424.6064 2344.7398,-434.3518 2351.7244,-434.8169"/>
</g>
<!-- leaf_28 -->
<g id="node29" class="node">
<title>leaf_28</title>
<polygon fill="none" stroke="#c0c0c0" points="2152.5,-38 2098.5,-38 2098.5,-2 2152.5,-2 2152.5,-38"/>
</g>
<!-- raw_27&#45;&gt;leaf_28 -->
<g id="edge28" class="edge">
<title>raw_27&#45;&gt;leaf_28</title>
<path fill="none" stroke="#000000" stroke-dasharray="5,2" d="M2125.5,-232.229C2125.5,-192.3035 2125.5,-96.3248 2125.5,-48.3277"/>
<polygon fill="#000000" stroke="#000000" points="2129.0001,-48.306 2125.5,-38.306 2122.0001,-48.306 2129.0001,-48.306"/>
</g>
<!-- leaf_33 -->
<g id="node34" class="node">
<title>leaf_33</title>
<polygon fill="none" stroke="#c0c0c0" points="2738.5,-268.3003 2568.5,-268.3003 2568.5,-232.3003 2738.5,-232.3003 2738.5,-268.3003"/>
<text text-anchor="middle" x="2653.5" y="-246.8003" font-family="Inconsolata" font-size="14.00" fill="#000000"> ** Constructor module</text>
</g>
<!-- header_30&#45;&gt;leaf_33 -->
<g id="edge33" class="edge">
<title>header_30&#45;&gt;leaf_33</title>
<path fill="none" stroke="#000000" stroke-dasharray="5,2" d="M2648.7618,-577.7117C2649.58,-521.1714 2652.0939,-347.4588 2653.0887,-278.7235"/>
<polygon fill="#000000" stroke="#000000" points="2656.5896,-278.6769 2653.2348,-268.6272 2649.5903,-278.5755 2656.5896,-278.6769"/>
</g>
<!-- raw_34 -->
<g id="node35" class="node">
<title>raw_34</title>
<ellipse fill="none" stroke="#000000" cx="2793.5" cy="-250.3003" rx="27" ry="18"/>
<text text-anchor="middle" x="2793.5" y="-246.1003" font-family="Helvetica,sans-Serif" font-size="14.00" fill="#000000">raw</text>
</g>
<!-- prose_31&#45;&gt;raw_34 -->
<g id="edge34" class="edge">
<title>prose_31&#45;&gt;raw_34</title>
<path fill="none" stroke="#000000" stroke-dasharray="5,2" d="M2798.2382,-577.7117C2797.42,-521.1714 2794.9061,-347.4588 2793.9113,-278.7235"/>
<polygon fill="#000000" stroke="#000000" points="2797.4097,-278.5755 2793.7652,-268.6272 2790.4104,-278.6769 2797.4097,-278.5755"/>
</g>
<!-- leaf_36 -->
<g id="node37" class="node">
<title>leaf_36</title>
<polygon fill="none" stroke="#c0c0c0" points="3198,-370.5008 2839,-370.5008 2839,-130.0998 3198,-130.0998 3198,-370.5008"/>
<text text-anchor="middle" x="3018.5" y="-355.2005" font-family="Inconsolata" font-size="14.00" fill="#000000">local function new(Structure, line, line_id, str)</text>
<text text-anchor="middle" x="3018.5" y="-339.8005" font-family="Inconsolata" font-size="14.00" fill="#000000"> &#160;&#160;&#160;local structure = setmetatable({}, S)</text>
<text text-anchor="middle" x="3018.5" y="-324.4004" font-family="Inconsolata" font-size="14.00" fill="#000000"> &#160;&#160;&#160;structure.__VALUE = line</text>
<text text-anchor="middle" x="3018.5" y="-309.0004" font-family="Inconsolata" font-size="14.00" fill="#000000"> &#160;&#160;&#160;structure.id = &quot;structure&quot;</text>
<text text-anchor="middle" x="3018.5" y="-293.6004" font-family="Inconsolata" font-size="14.00" fill="#000000"> &#160;&#160;&#160;if line_id == &quot;hashline&quot; then</text>
<text text-anchor="middle" x="3018.5" y="-278.2003" font-family="Inconsolata" font-size="14.00" fill="#000000"> &#160;&#160;&#160;&#160;&#160;&#160;&#160;structure[1] = Hashline(line)</text>
<text text-anchor="middle" x="3018.5" y="-262.8003" font-family="Inconsolata" font-size="14.00" fill="#000000"> &#160;&#160;&#160;elseif line_id == &quot;handleline&quot; then</text>
<text text-anchor="middle" x="3018.5" y="-247.4003" font-family="Inconsolata" font-size="14.00" fill="#000000"> &#160;&#160;&#160;&#160;&#160;&#160;&#160;structure[1] = Handleline(line)</text>
<text text-anchor="middle" x="3018.5" y="-232.0002" font-family="Inconsolata" font-size="14.00" fill="#000000"> &#160;&#160;&#160;end</text>
<text text-anchor="middle" x="3018.5" y="-216.6002" font-family="Inconsolata" font-size="14.00" fill="#000000"> &#160;&#160;&#160;structure.str = str</text>
<text text-anchor="middle" x="3018.5" y="-201.2002" font-family="Inconsolata" font-size="14.00" fill="#000000"> &#160;&#160;&#160;return structure</text>
<text text-anchor="middle" x="3018.5" y="-185.8002" font-family="Inconsolata" font-size="14.00" fill="#000000">end</text>
<text text-anchor="middle" x="3018.5" y="-138.4001" font-family="Inconsolata" font-size="14.00" fill="#000000">return u.export(s, new)</text>
</g>
<!-- codeblock_32&#45;&gt;leaf_36 -->
<g id="edge36" class="edge">
<title>codeblock_32&#45;&gt;leaf_36</title>
<path fill="none" stroke="#000000" stroke-dasharray="5,2" d="M2976.8037,-577.7117C2981.4743,-541.0367 2992.4233,-455.0616 3001.9297,-380.4154"/>
<polygon fill="#000000" stroke="#000000" points="3005.4092,-380.797 3003.2007,-370.435 2998.4653,-379.9127 3005.4092,-380.797"/>
</g>
<!-- leaf_35 -->
<g id="node36" class="node">
<title>leaf_35</title>
<polygon fill="none" stroke="#c0c0c0" points="2820.5,-40 2766.5,-40 2766.5,0 2820.5,0 2820.5,-40"/>
</g>
<!-- raw_34&#45;&gt;leaf_35 -->
<g id="edge35" class="edge">
<title>raw_34&#45;&gt;leaf_35</title>
<path fill="none" stroke="#000000" stroke-dasharray="5,2" d="M2793.5,-232.229C2793.5,-192.8949 2793.5,-99.1563 2793.5,-50.4922"/>
<polygon fill="#000000" stroke="#000000" points="2797.0001,-50.2672 2793.5,-40.2673 2790.0001,-50.2673 2797.0001,-50.2672"/>
</g>
</g>
</svg>
