<?xml version="1.0" encoding="UTF-8" standalone="no"?>
<!DOCTYPE svg PUBLIC "-//W3C//DTD SVG 1.1//EN"
 "http://www.w3.org/Graphics/SVG/1.1/DTD/svg11.dtd">
<!-- Generated by graphviz version 2.40.1 (20161225.0304)
 -->
<!-- Title: lpegNode Pages: 1 -->
<svg width="3038pt" height="1854pt"
 viewBox="0.00 0.00 3038.00 1853.60" xmlns="http://www.w3.org/2000/svg" xmlns:xlink="http://www.w3.org/1999/xlink">
<g id="graph0" class="graph" transform="scale(1 1) rotate(0) translate(4 1849.6026)">
<title>lpegNode</title>
<polygon fill="#ffffff" stroke="transparent" points="-4,4 -4,-1849.6026 3034,-1849.6026 3034,4 -4,4"/>
<!-- doc_0 -->
<g id="node1" class="node">
<title>doc_0</title>
<ellipse fill="none" stroke="#000000" cx="656" cy="-1827.6026" rx="46.9581" ry="18"/>
<text text-anchor="middle" x="656" y="-1823.4026" font-family="Helvetica,sans-Serif" font-size="14.00" fill="#000000">doc &#45; 154</text>
</g>
<!-- section_1 -->
<g id="node2" class="node">
<title>section_1</title>
<ellipse fill="none" stroke="#000000" cx="656" cy="-1755.6026" rx="60.9826" ry="18"/>
<text text-anchor="middle" x="656" y="-1751.4026" font-family="Helvetica,sans-Serif" font-size="14.00" fill="#000000">section: 1&#45;53</text>
</g>
<!-- doc_0&#45;&gt;section_1 -->
<g id="edge1" class="edge">
<title>doc_0&#45;&gt;section_1</title>
<path fill="none" stroke="#000000" stroke-dasharray="5,2" d="M656,-1809.434C656,-1801.7336 656,-1792.577 656,-1784.0193"/>
<polygon fill="#000000" stroke="#000000" points="659.5001,-1784.0159 656,-1774.0159 652.5001,-1784.0159 659.5001,-1784.0159"/>
</g>
<!-- header_2 -->
<g id="node3" class="node">
<title>header_2</title>
<ellipse fill="none" stroke="#000000" cx="392" cy="-1683.6026" rx="49.5296" ry="18"/>
<text text-anchor="middle" x="392" y="-1679.4026" font-family="Helvetica,sans-Serif" font-size="14.00" fill="#000000">1 : Weave</text>
</g>
<!-- section_1&#45;&gt;header_2 -->
<g id="edge2" class="edge">
<title>section_1&#45;&gt;header_2</title>
<path fill="none" stroke="#000000" stroke-dasharray="5,2" d="M609.453,-1743.8865C567.8117,-1733.2757 505.1665,-1716.9933 451,-1701.6026 447.3881,-1700.5763 443.6588,-1699.4935 439.912,-1698.3889"/>
<polygon fill="#000000" stroke="#000000" points="440.6052,-1694.9433 430.022,-1695.4379 438.6037,-1701.6511 440.6052,-1694.9433"/>
</g>
<!-- prose_3 -->
<g id="node4" class="node">
<title>prose_3</title>
<ellipse fill="none" stroke="#000000" cx="492" cy="-1683.6026" rx="32.4585" ry="18"/>
<text text-anchor="middle" x="492" y="-1679.4026" font-family="Helvetica,sans-Serif" font-size="14.00" fill="#000000">prose</text>
</g>
<!-- section_1&#45;&gt;prose_3 -->
<g id="edge3" class="edge">
<title>section_1&#45;&gt;prose_3</title>
<path fill="none" stroke="#000000" stroke-dasharray="5,2" d="M621.6202,-1740.5091C593.8097,-1728.2996 554.8158,-1711.1803 526.8739,-1698.9131"/>
<polygon fill="#000000" stroke="#000000" points="528.0513,-1695.6076 517.4879,-1694.7924 525.2374,-1702.0171 528.0513,-1695.6076"/>
</g>
<!-- prose_4 -->
<g id="node5" class="node">
<title>prose_4</title>
<ellipse fill="none" stroke="#000000" cx="574" cy="-1683.6026" rx="32.4585" ry="18"/>
<text text-anchor="middle" x="574" y="-1679.4026" font-family="Helvetica,sans-Serif" font-size="14.00" fill="#000000">prose</text>
</g>
<!-- section_1&#45;&gt;prose_4 -->
<g id="edge4" class="edge">
<title>section_1&#45;&gt;prose_4</title>
<path fill="none" stroke="#000000" stroke-dasharray="5,2" d="M636.5671,-1738.5396C625.3006,-1728.647 610.9965,-1716.0873 598.9098,-1705.4746"/>
<polygon fill="#000000" stroke="#000000" points="601.1653,-1702.7973 591.3415,-1698.8293 596.5466,-1708.0574 601.1653,-1702.7973"/>
</g>
<!-- prose_5 -->
<g id="node6" class="node">
<title>prose_5</title>
<ellipse fill="none" stroke="#000000" cx="656" cy="-1683.6026" rx="32.4585" ry="18"/>
<text text-anchor="middle" x="656" y="-1679.4026" font-family="Helvetica,sans-Serif" font-size="14.00" fill="#000000">prose</text>
</g>
<!-- section_1&#45;&gt;prose_5 -->
<g id="edge5" class="edge">
<title>section_1&#45;&gt;prose_5</title>
<path fill="none" stroke="#000000" stroke-dasharray="5,2" d="M656,-1737.434C656,-1729.7336 656,-1720.577 656,-1712.0193"/>
<polygon fill="#000000" stroke="#000000" points="659.5001,-1712.0159 656,-1702.0159 652.5001,-1712.0159 659.5001,-1712.0159"/>
</g>
<!-- codeblock_6 -->
<g id="node7" class="node">
<title>codeblock_6</title>
<ellipse fill="none" stroke="#000000" cx="818" cy="-1683.6026" rx="77.4211" ry="18"/>
<text text-anchor="middle" x="818" y="-1679.4026" font-family="Helvetica,sans-Serif" font-size="14.00" fill="#000000">code block 10&#45;45</text>
</g>
<!-- section_1&#45;&gt;codeblock_6 -->
<g id="edge6" class="edge">
<title>section_1&#45;&gt;codeblock_6</title>
<path fill="none" stroke="#000000" stroke-dasharray="5,2" d="M689.9605,-1740.5091C713.924,-1729.8586 746.2933,-1715.4723 772.4897,-1703.8294"/>
<polygon fill="#000000" stroke="#000000" points="774.118,-1706.9359 781.8347,-1699.6761 771.275,-1700.5392 774.118,-1706.9359"/>
</g>
<!-- codeblock_7 -->
<g id="node8" class="node">
<title>codeblock_7</title>
<ellipse fill="none" stroke="#000000" cx="1083" cy="-1683.6026" rx="77.4211" ry="18"/>
<text text-anchor="middle" x="1083" y="-1679.4026" font-family="Helvetica,sans-Serif" font-size="14.00" fill="#000000">code block 47&#45;51</text>
</g>
<!-- section_1&#45;&gt;codeblock_7 -->
<g id="edge7" class="edge">
<title>section_1&#45;&gt;codeblock_7</title>
<path fill="none" stroke="#000000" stroke-dasharray="5,2" d="M709.2165,-1746.6294C785.129,-1733.8291 924.7521,-1710.2861 1010.1924,-1695.8793"/>
<polygon fill="#000000" stroke="#000000" points="1010.8001,-1699.3263 1020.079,-1694.2123 1009.6362,-1692.4238 1010.8001,-1699.3263"/>
</g>
<!-- section_8 -->
<g id="node9" class="node">
<title>section_8</title>
<ellipse fill="none" stroke="#000000" cx="1637" cy="-1683.6026" rx="70.655" ry="18"/>
<text text-anchor="middle" x="1637" y="-1679.4026" font-family="Helvetica,sans-Serif" font-size="14.00" fill="#000000">section: 54&#45;154</text>
</g>
<!-- section_1&#45;&gt;section_8 -->
<g id="edge8" class="edge">
<title>section_1&#45;&gt;section_8</title>
<path fill="none" stroke="#000000" stroke-dasharray="5,2" d="M715.1567,-1751.2608C884.0641,-1738.864 1368.598,-1703.3018 1558.9142,-1689.3337"/>
<polygon fill="#000000" stroke="#000000" points="1559.3994,-1692.8076 1569.1163,-1688.5849 1558.8869,-1685.8264 1559.3994,-1692.8076"/>
</g>
<!-- leaf_9 -->
<g id="node10" class="node">
<title>leaf_9</title>
<polygon fill="none" stroke="#c0c0c0" points="424.5,-1379.7022 359.5,-1379.7022 359.5,-1343.7022 424.5,-1343.7022 424.5,-1379.7022"/>
<text text-anchor="middle" x="392" y="-1358.2022" font-family="Inconsolata" font-size="14.00" fill="#000000">* Weave</text>
</g>
<!-- header_2&#45;&gt;leaf_9 -->
<g id="edge9" class="edge">
<title>header_2&#45;&gt;leaf_9</title>
<path fill="none" stroke="#000000" stroke-dasharray="5,2" d="M392,-1665.3735C392,-1611.814 392,-1454.647 392,-1389.9866"/>
<polygon fill="#000000" stroke="#000000" points="395.5001,-1389.7313 392,-1379.7313 388.5001,-1389.7314 395.5001,-1389.7313"/>
</g>
<!-- raw_10 -->
<g id="node11" class="node">
<title>raw_10</title>
<ellipse fill="none" stroke="#000000" cx="481" cy="-1361.7022" rx="27" ry="18"/>
<text text-anchor="middle" x="481" y="-1357.5022" font-family="Helvetica,sans-Serif" font-size="14.00" fill="#000000">raw</text>
</g>
<!-- prose_3&#45;&gt;raw_10 -->
<g id="edge10" class="edge">
<title>prose_3&#45;&gt;raw_10</title>
<path fill="none" stroke="#000000" stroke-dasharray="5,2" d="M491.3771,-1665.3735C489.5468,-1611.814 484.1761,-1454.647 481.9665,-1389.9866"/>
<polygon fill="#000000" stroke="#000000" points="485.4557,-1389.6059 481.6161,-1379.7313 478.4598,-1389.8451 485.4557,-1389.6059"/>
</g>
<!-- raw_12 -->
<g id="node13" class="node">
<title>raw_12</title>
<ellipse fill="none" stroke="#000000" cx="564" cy="-1361.7022" rx="27" ry="18"/>
<text text-anchor="middle" x="564" y="-1357.5022" font-family="Helvetica,sans-Serif" font-size="14.00" fill="#000000">raw</text>
</g>
<!-- prose_4&#45;&gt;raw_12 -->
<g id="edge12" class="edge">
<title>prose_4&#45;&gt;raw_12</title>
<path fill="none" stroke="#000000" stroke-dasharray="5,2" d="M573.4337,-1665.3735C571.7699,-1611.814 566.8874,-1454.647 564.8787,-1389.9866"/>
<polygon fill="#000000" stroke="#000000" points="568.369,-1389.6178 564.5601,-1379.7313 561.3724,-1389.8352 568.369,-1389.6178"/>
</g>
<!-- raw_14 -->
<g id="node15" class="node">
<title>raw_14</title>
<ellipse fill="none" stroke="#000000" cx="636" cy="-1361.7022" rx="27" ry="18"/>
<text text-anchor="middle" x="636" y="-1357.5022" font-family="Helvetica,sans-Serif" font-size="14.00" fill="#000000">raw</text>
</g>
<!-- prose_5&#45;&gt;raw_14 -->
<g id="edge14" class="edge">
<title>prose_5&#45;&gt;raw_14</title>
<path fill="none" stroke="#000000" stroke-dasharray="5,2" d="M654.8674,-1665.3735C651.5397,-1611.814 641.7748,-1454.647 637.7573,-1389.9866"/>
<polygon fill="#000000" stroke="#000000" points="641.2336,-1389.495 637.1202,-1379.7313 634.2471,-1389.9292 641.2336,-1389.495"/>
</g>
<!-- leaf_16 -->
<g id="node17" class="node">
<title>leaf_16</title>
<polygon fill="none" stroke="#c0c0c0" points="1040.5,-1629.5031 681.5,-1629.5031 681.5,-1093.9013 1040.5,-1093.9013 1040.5,-1629.5031"/>
<text text-anchor="middle" x="861" y="-1614.4026" font-family="Inconsolata" font-size="14.00" fill="#000000">local L = require &quot;lpeg&quot;</text>
<text text-anchor="middle" x="861" y="-1583.0026" font-family="Inconsolata" font-size="14.00" fill="#000000">local pl_mini = require &quot;util/plmini&quot;</text>
<text text-anchor="middle" x="861" y="-1567.6026" font-family="Inconsolata" font-size="14.00" fill="#000000">local getfiles = pl_mini.dir.getfiles</text>
<text text-anchor="middle" x="861" y="-1552.2025" font-family="Inconsolata" font-size="14.00" fill="#000000">local makepath = pl_mini.dir.makepath</text>
<text text-anchor="middle" x="861" y="-1536.8025" font-family="Inconsolata" font-size="14.00" fill="#000000">local getdirectories = pl_mini.dir.getdirectories</text>
<text text-anchor="middle" x="861" y="-1521.4025" font-family="Inconsolata" font-size="14.00" fill="#000000">local extension = pl_mini.path.extension</text>
<text text-anchor="middle" x="861" y="-1506.0024" font-family="Inconsolata" font-size="14.00" fill="#000000">local dirname = pl_mini.path.dirname</text>
<text text-anchor="middle" x="861" y="-1490.6024" font-family="Inconsolata" font-size="14.00" fill="#000000">local basename = pl_mini.path.basename</text>
<text text-anchor="middle" x="861" y="-1475.2024" font-family="Inconsolata" font-size="14.00" fill="#000000">local read = pl_mini.file.read</text>
<text text-anchor="middle" x="861" y="-1459.8023" font-family="Inconsolata" font-size="14.00" fill="#000000">local write = pl_mini.file.write</text>
<text text-anchor="middle" x="861" y="-1444.4023" font-family="Inconsolata" font-size="14.00" fill="#000000">local isdir = pl_mini.path.isdir</text>
<text text-anchor="middle" x="861" y="-1413.0023" font-family="Inconsolata" font-size="14.00" fill="#000000">local u = require &quot;lib/util&quot;</text>
<text text-anchor="middle" x="861" y="-1397.6022" font-family="Inconsolata" font-size="14.00" fill="#000000">local a = require &quot;lib/ansi&quot;</text>
<text text-anchor="middle" x="861" y="-1350.2022" font-family="Inconsolata" font-size="14.00" fill="#000000">local s = require &quot;lib/status&quot; ()</text>
<text text-anchor="middle" x="861" y="-1334.8022" font-family="Inconsolata" font-size="14.00" fill="#000000">s.verbose = false</text>
<text text-anchor="middle" x="861" y="-1303.4022" font-family="Inconsolata" font-size="14.00" fill="#000000">local m = require &quot;Orbit/morphemes&quot;</text>
<text text-anchor="middle" x="861" y="-1288.0021" font-family="Inconsolata" font-size="14.00" fill="#000000">local walk = require &quot;walk&quot;</text>
<text text-anchor="middle" x="861" y="-1272.6021" font-family="Inconsolata" font-size="14.00" fill="#000000">local strHas = walk.strHas</text>
<text text-anchor="middle" x="861" y="-1257.2021" font-family="Inconsolata" font-size="14.00" fill="#000000">local endsWith = walk.endsWith</text>
<text text-anchor="middle" x="861" y="-1241.802" font-family="Inconsolata" font-size="14.00" fill="#000000">local subLastFor = walk.subLastFor</text>
<text text-anchor="middle" x="861" y="-1226.402" font-family="Inconsolata" font-size="14.00" fill="#000000">local writeOnChange = walk.writeOnChange</text>
<text text-anchor="middle" x="861" y="-1211.002" font-family="Inconsolata" font-size="14.00" fill="#000000">local Path = require &quot;walk/path&quot;</text>
<text text-anchor="middle" x="861" y="-1195.6019" font-family="Inconsolata" font-size="14.00" fill="#000000">local Dir = require &quot;walk/directory&quot;</text>
<text text-anchor="middle" x="861" y="-1180.2019" font-family="Inconsolata" font-size="14.00" fill="#000000">local File = require &quot;walk/file&quot;</text>
<text text-anchor="middle" x="861" y="-1164.8019" font-family="Inconsolata" font-size="14.00" fill="#000000">local epeg = require &quot;epeg&quot;</text>
<text text-anchor="middle" x="861" y="-1133.4018" font-family="Inconsolata" font-size="14.00" fill="#000000">local Doc = require &quot;Orbit/doc&quot;</text>
<text text-anchor="middle" x="861" y="-1102.0018" font-family="Inconsolata" font-size="14.00" fill="#000000">local W, w = u.inherit()</text>
</g>
<!-- codeblock_6&#45;&gt;leaf_16 -->
<g id="edge16" class="edge">
<title>codeblock_6&#45;&gt;leaf_16</title>
<path fill="none" stroke="#000000" stroke-dasharray="5,2" d="M820.4351,-1665.3735C821.3641,-1658.4191 822.5264,-1649.7179 823.8647,-1639.6991"/>
<polygon fill="#000000" stroke="#000000" points="827.3449,-1640.0793 825.1999,-1629.7039 820.4066,-1639.1524 827.3449,-1640.0793"/>
</g>
<!-- leaf_17 -->
<g id="node18" class="node">
<title>leaf_17</title>
<polygon fill="none" stroke="#c0c0c0" points="1291.5,-1388.9027 1058.5,-1388.9027 1058.5,-1334.5017 1291.5,-1334.5017 1291.5,-1388.9027"/>
<text text-anchor="middle" x="1175" y="-1373.6022" font-family="Inconsolata" font-size="14.00" fill="#000000">function W.weaveMd(weaver, doc)</text>
<text text-anchor="middle" x="1175" y="-1358.2022" font-family="Inconsolata" font-size="14.00" fill="#000000"> &#160;return doc:toMarkdown()</text>
<text text-anchor="middle" x="1175" y="-1342.8022" font-family="Inconsolata" font-size="14.00" fill="#000000">end</text>
</g>
<!-- codeblock_7&#45;&gt;leaf_17 -->
<g id="edge17" class="edge">
<title>codeblock_7&#45;&gt;leaf_17</title>
<path fill="none" stroke="#000000" stroke-dasharray="5,2" d="M1088.2099,-1665.3735C1102.853,-1614.1387 1144.5927,-1468.0948 1164.3651,-1398.9127"/>
<polygon fill="#000000" stroke="#000000" points="1167.847,-1399.4661 1167.2299,-1388.8893 1161.1165,-1397.5425 1167.847,-1399.4661"/>
</g>
<!-- header_18 -->
<g id="node19" class="node">
<title>header_18</title>
<ellipse fill="none" stroke="#000000" cx="1375" cy="-1361.7022" rx="65.81" ry="18"/>
<text text-anchor="middle" x="1375" y="-1357.5022" font-family="Helvetica,sans-Serif" font-size="14.00" fill="#000000">3 : .dot to .svg</text>
</g>
<!-- section_8&#45;&gt;header_18 -->
<g id="edge18" class="edge">
<title>section_8&#45;&gt;header_18</title>
<path fill="none" stroke="#000000" stroke-dasharray="5,2" d="M1578.9146,-1673.2305C1531.0312,-1663.5573 1468.145,-1647.8962 1450,-1629.6026 1384.2905,-1563.355 1375.0441,-1444.5265 1374.4624,-1390.2053"/>
<polygon fill="#000000" stroke="#000000" points="1377.9622,-1389.9306 1374.4499,-1379.9349 1370.9622,-1389.9392 1377.9622,-1389.9306"/>
</g>
<!-- prose_19 -->
<g id="node20" class="node">
<title>prose_19</title>
<ellipse fill="none" stroke="#000000" cx="1491" cy="-1361.7022" rx="32.4585" ry="18"/>
<text text-anchor="middle" x="1491" y="-1357.5022" font-family="Helvetica,sans-Serif" font-size="14.00" fill="#000000">prose</text>
</g>
<!-- section_8&#45;&gt;prose_19 -->
<g id="edge19" class="edge">
<title>section_8&#45;&gt;prose_19</title>
<path fill="none" stroke="#000000" stroke-dasharray="5,2" d="M1589.6012,-1670.1329C1568.751,-1661.7991 1545.89,-1648.9024 1532,-1629.6026 1479.2688,-1556.3342 1482.5467,-1442.4204 1487.5003,-1389.9334"/>
<polygon fill="#000000" stroke="#000000" points="1491.011,-1390.0105 1488.5632,-1379.7024 1484.0485,-1389.2871 1491.011,-1390.0105"/>
</g>
<!-- prose_20 -->
<g id="node21" class="node">
<title>prose_20</title>
<ellipse fill="none" stroke="#000000" cx="1573" cy="-1361.7022" rx="32.4585" ry="18"/>
<text text-anchor="middle" x="1573" y="-1357.5022" font-family="Helvetica,sans-Serif" font-size="14.00" fill="#000000">prose</text>
</g>
<!-- section_8&#45;&gt;prose_20 -->
<g id="edge20" class="edge">
<title>section_8&#45;&gt;prose_20</title>
<path fill="none" stroke="#000000" stroke-dasharray="5,2" d="M1628.3856,-1665.4769C1623.7997,-1655.1651 1618.4169,-1641.8917 1615,-1629.6026 1591.2575,-1544.2109 1579.7214,-1439.5299 1575.2787,-1390.1107"/>
<polygon fill="#000000" stroke="#000000" points="1578.7422,-1389.5382 1574.3902,-1379.8785 1571.7685,-1390.1439 1578.7422,-1389.5382"/>
</g>
<!-- codeblock_21 -->
<g id="node22" class="node">
<title>codeblock_21</title>
<ellipse fill="none" stroke="#000000" cx="1701" cy="-1361.7022" rx="77.4211" ry="18"/>
<text text-anchor="middle" x="1701" y="-1357.5022" font-family="Helvetica,sans-Serif" font-size="14.00" fill="#000000">code block 60&#45;72</text>
</g>
<!-- section_8&#45;&gt;codeblock_21 -->
<g id="edge21" class="edge">
<title>section_8&#45;&gt;codeblock_21</title>
<path fill="none" stroke="#000000" stroke-dasharray="5,2" d="M1640.6243,-1665.3735C1651.295,-1611.7034 1682.65,-1453.9971 1695.456,-1389.587"/>
<polygon fill="#000000" stroke="#000000" points="1698.8982,-1390.2219 1697.4155,-1379.7313 1692.0325,-1388.8568 1698.8982,-1390.2219"/>
</g>
<!-- codeblock_22 -->
<g id="node23" class="node">
<title>codeblock_22</title>
<ellipse fill="none" stroke="#000000" cx="2089" cy="-1361.7022" rx="82.2579" ry="18"/>
<text text-anchor="middle" x="2089" y="-1357.5022" font-family="Helvetica,sans-Serif" font-size="14.00" fill="#000000">code block 76&#45;139</text>
</g>
<!-- section_8&#45;&gt;codeblock_22 -->
<g id="edge22" class="edge">
<title>section_8&#45;&gt;codeblock_22</title>
<path fill="none" stroke="#000000" stroke-dasharray="5,2" d="M1687.0617,-1670.787C1717.2719,-1661.8135 1755.8195,-1648.1069 1787,-1629.6026 1905.3852,-1559.346 2019.8883,-1439.1915 2066.7756,-1387.0663"/>
<polygon fill="#000000" stroke="#000000" points="2069.4004,-1389.3817 2073.4533,-1379.5926 2064.1805,-1384.7177 2069.4004,-1389.3817"/>
</g>
<!-- codeblock_23 -->
<g id="node24" class="node">
<title>codeblock_23</title>
<ellipse fill="none" stroke="#000000" cx="2538" cy="-1361.7022" rx="87.0948" ry="18"/>
<text text-anchor="middle" x="2538" y="-1357.5022" font-family="Helvetica,sans-Serif" font-size="14.00" fill="#000000">code block 142&#45;149</text>
</g>
<!-- section_8&#45;&gt;codeblock_23 -->
<g id="edge23" class="edge">
<title>section_8&#45;&gt;codeblock_23</title>
<path fill="none" stroke="#000000" stroke-dasharray="5,2" d="M1707.4356,-1681.2862C1834.2317,-1676.3454 2095.5648,-1662.4272 2180,-1629.6026 2324.4257,-1573.4564 2461.2822,-1441.9896 2514.5652,-1386.7978"/>
<polygon fill="#000000" stroke="#000000" points="2517.134,-1389.1759 2521.5211,-1379.532 2512.0775,-1384.3351 2517.134,-1389.1759"/>
</g>
<!-- codeblock_24 -->
<g id="node25" class="node">
<title>codeblock_24</title>
<ellipse fill="none" stroke="#000000" cx="2862" cy="-1361.7022" rx="87.0948" ry="18"/>
<text text-anchor="middle" x="2862" y="-1357.5022" font-family="Helvetica,sans-Serif" font-size="14.00" fill="#000000">code block 151&#45;153</text>
</g>
<!-- section_8&#45;&gt;codeblock_24 -->
<g id="edge24" class="edge">
<title>section_8&#45;&gt;codeblock_24</title>
<path fill="none" stroke="#000000" stroke-dasharray="5,2" d="M1707.5587,-1682.9833C1921.2238,-1680.6649 2551.6249,-1670.4048 2634,-1629.6026 2742.1273,-1576.0449 2819.1577,-1445.5898 2848.6879,-1388.8294"/>
<polygon fill="#000000" stroke="#000000" points="2851.8954,-1390.2444 2853.3329,-1379.7475 2845.6632,-1387.0569 2851.8954,-1390.2444"/>
</g>
<!-- leaf_11 -->
<g id="node12" class="node">
<title>leaf_11</title>
<polygon fill="none" stroke="#c0c0c0" points="450,-610.5021 0,-610.5021 0,-538.6997 450,-538.6997 450,-610.5021"/>
<text text-anchor="middle" x="225" y="-547.1009" font-family="Inconsolata" font-size="14.00" fill="#000000">Our weaver is currently somewhat narrowly focused on markdown.</text>
</g>
<!-- raw_10&#45;&gt;leaf_11 -->
<g id="edge11" class="edge">
<title>raw_10&#45;&gt;leaf_11</title>
<path fill="none" stroke="#000000" stroke-dasharray="5,2" d="M479.0416,-1343.5428C474.0539,-1299.8731 459.3658,-1185.7811 433,-1093.8018 381.1738,-913.0013 288.7004,-708.5703 246.7565,-619.768"/>
<polygon fill="#000000" stroke="#000000" points="249.8229,-618.0656 242.3772,-610.5282 243.4974,-621.0637 249.8229,-618.0656"/>
</g>
<!-- leaf_13 -->
<g id="node14" class="node">
<title>leaf_13</title>
<polygon fill="none" stroke="#c0c0c0" points="659.5,-594.503 468.5,-594.503 468.5,-554.6988 659.5,-554.6988 659.5,-594.503"/>
<text text-anchor="middle" x="564" y="-563.1009" font-family="Inconsolata" font-size="14.00" fill="#000000">This will change in time.</text>
</g>
<!-- raw_12&#45;&gt;leaf_13 -->
<g id="edge13" class="edge">
<title>raw_12&#45;&gt;leaf_13</title>
<path fill="none" stroke="#000000" stroke-dasharray="5,2" d="M564,-1343.4046C564,-1240.5709 564,-734.5942 564,-604.9227"/>
<polygon fill="#000000" stroke="#000000" points="567.5001,-604.5628 564,-594.5629 560.5001,-604.5629 567.5001,-604.5628"/>
</g>
<!-- leaf_15 -->
<g id="node16" class="node">
<title>leaf_15</title>
<polygon fill="none" stroke="#c0c0c0" points="834,-594.503 678,-594.503 678,-554.6988 834,-554.6988 834,-594.503"/>
<text text-anchor="middle" x="756" y="-563.1009" font-family="Inconsolata" font-size="14.00" fill="#000000">Now to activate dot!</text>
</g>
<!-- raw_14&#45;&gt;leaf_15 -->
<g id="edge15" class="edge">
<title>raw_14&#45;&gt;leaf_15</title>
<path fill="none" stroke="#000000" stroke-dasharray="5,2" d="M638.2764,-1343.4879C643.7285,-1300.1625 658.1163,-1187.5752 672,-1093.8018 699.5888,-907.4611 737.2616,-684.2809 750.8502,-604.643"/>
<polygon fill="#000000" stroke="#000000" points="754.37,-604.8238 752.6042,-594.3772 747.47,-603.6449 754.37,-604.8238"/>
</g>
<!-- leaf_25 -->
<g id="node26" class="node">
<title>leaf_25</title>
<polygon fill="none" stroke="#c0c0c0" points="1300,-592.6009 1172,-592.6009 1172,-556.6009 1300,-556.6009 1300,-592.6009"/>
<text text-anchor="middle" x="1236" y="-571.1009" font-family="Inconsolata" font-size="14.00" fill="#000000">*** .dot to .svg</text>
</g>
<!-- header_18&#45;&gt;leaf_25 -->
<g id="edge25" class="edge">
<title>header_18&#45;&gt;leaf_25</title>
<path fill="none" stroke="#000000" stroke-dasharray="5,2" d="M1370.6514,-1343.629C1359.4477,-1296.6811 1329.0706,-1166.9216 1309,-1057.8018 1277.3302,-885.6194 1249.2854,-677.0639 1239.5986,-602.6459"/>
<polygon fill="#000000" stroke="#000000" points="1243.0607,-602.127 1238.3043,-592.6598 1236.1188,-603.0268 1243.0607,-602.127"/>
</g>
<!-- raw_26 -->
<g id="node27" class="node">
<title>raw_26</title>
<ellipse fill="none" stroke="#000000" cx="1345" cy="-574.6009" rx="27" ry="18"/>
<text text-anchor="middle" x="1345" y="-570.4009" font-family="Helvetica,sans-Serif" font-size="14.00" fill="#000000">raw</text>
</g>
<!-- prose_19&#45;&gt;raw_26 -->
<g id="edge26" class="edge">
<title>prose_19&#45;&gt;raw_26</title>
<path fill="none" stroke="#000000" stroke-dasharray="5,2" d="M1493.4099,-1343.7214C1498.6125,-1297.4603 1506.2511,-1172.4474 1450,-1093.8018 1429.8772,-1065.6678 1400.0178,-1086.6942 1381,-1057.8018 1284.4815,-911.1678 1321.3994,-682.507 1338.3434,-602.9913"/>
<polygon fill="#000000" stroke="#000000" points="1341.8582,-603.3033 1340.5857,-592.7852 1335.0213,-601.8011 1341.8582,-603.3033"/>
</g>
<!-- raw_28 -->
<g id="node29" class="node">
<title>raw_28</title>
<ellipse fill="none" stroke="#000000" cx="1417" cy="-574.6009" rx="27" ry="18"/>
<text text-anchor="middle" x="1417" y="-570.4009" font-family="Helvetica,sans-Serif" font-size="14.00" fill="#000000">raw</text>
</g>
<!-- prose_20&#45;&gt;raw_28 -->
<g id="edge28" class="edge">
<title>prose_20&#45;&gt;raw_28</title>
<path fill="none" stroke="#000000" stroke-dasharray="5,2" d="M1575.6522,-1343.5431C1581.4315,-1296.8578 1590.3271,-1170.9204 1532,-1093.8018 1508.7246,-1063.0277 1475.0657,-1089.4545 1453,-1057.8018 1352.3782,-913.4626 1392.1485,-682.4226 1410.0695,-602.7119"/>
<polygon fill="#000000" stroke="#000000" points="1413.5895,-603.0254 1412.4363,-592.4935 1406.77,-601.4458 1413.5895,-603.0254"/>
</g>
<!-- leaf_30 -->
<g id="node31" class="node">
<title>leaf_30</title>
<polygon fill="none" stroke="#c0c0c0" points="1940,-663.5017 1462,-663.5017 1462,-485.7001 1940,-485.7001 1940,-663.5017"/>
<text text-anchor="middle" x="1701" y="-648.1011" font-family="Inconsolata" font-size="14.00" fill="#000000">local popen = io.popen</text>
<text text-anchor="middle" x="1701" y="-632.701" font-family="Inconsolata" font-size="14.00" fill="#000000">local function dotToSvg(dotted, out_file)</text>
<text text-anchor="middle" x="1701" y="-617.301" font-family="Inconsolata" font-size="14.00" fill="#000000"> &#160;&#160;&#160;local success, svg_file = pcall (popen,</text>
<text text-anchor="middle" x="1701" y="-601.901" font-family="Inconsolata" font-size="14.00" fill="#000000"> &#160;&#160;&#160;&#160;&#160;&#160;&#160;&#160;&#160;&#160;&#160;&#160;&#160;&#160;&#160;&#160;&#160;&#160;&#160;&#160;&#160;&#160;&#160;&#160;&#160;&quot;dot &#45;Tsvg &quot; .. tostring(out_file), &quot;r&quot;)</text>
<text text-anchor="middle" x="1701" y="-586.501" font-family="Inconsolata" font-size="14.00" fill="#000000"> &#160;&#160;&#160;if success then</text>
<text text-anchor="middle" x="1701" y="-571.1009" font-family="Inconsolata" font-size="14.00" fill="#000000"> &#160;&#160;&#160;&#160;&#160;&#160;&#160;return svg_file:read(&quot;*a&quot;)</text>
<text text-anchor="middle" x="1701" y="-555.7009" font-family="Inconsolata" font-size="14.00" fill="#000000"> &#160;&#160;&#160;else</text>
<text text-anchor="middle" x="1701" y="-540.3009" font-family="Inconsolata" font-size="14.00" fill="#000000"> &#160;&#160;&#160;&#160;&#160;&#160;&#160;&#45;&#45; #todo start using %d and format!</text>
<text text-anchor="middle" x="1701" y="-524.9008" font-family="Inconsolata" font-size="14.00" fill="#000000"> &#160;&#160;&#160;&#160;&#160;&#160;&#160;s:complain(&quot;dotError&quot;, &quot;dot failed with &quot; .. success)</text>
<text text-anchor="middle" x="1701" y="-509.5008" font-family="Inconsolata" font-size="14.00" fill="#000000"> &#160;&#160;&#160;end</text>
<text text-anchor="middle" x="1701" y="-494.1008" font-family="Inconsolata" font-size="14.00" fill="#000000">end</text>
</g>
<!-- codeblock_21&#45;&gt;leaf_30 -->
<g id="edge30" class="edge">
<title>codeblock_21&#45;&gt;leaf_30</title>
<path fill="none" stroke="#000000" stroke-dasharray="5,2" d="M1701,-1343.4046C1701,-1254.048 1701,-860.2933 1701,-673.5413"/>
<polygon fill="#000000" stroke="#000000" points="1704.5001,-673.4466 1701,-663.4467 1697.5001,-673.4467 1704.5001,-673.4466"/>
</g>
<!-- leaf_31 -->
<g id="node32" class="node">
<title>leaf_31</title>
<polygon fill="none" stroke="#c0c0c0" points="2639.5,-1058.0027 1958.5,-1058.0027 1958.5,-91.1991 2639.5,-91.1991 2639.5,-1058.0027"/>
<text text-anchor="middle" x="2299" y="-1042.6018" font-family="Inconsolata" font-size="14.00" fill="#000000">local function weave_dir(weaver, pwd, depth)</text>
<text text-anchor="middle" x="2299" y="-1027.2017" font-family="Inconsolata" font-size="14.00" fill="#000000"> &#160;&#160;&#160;local depth = depth + 1</text>
<text text-anchor="middle" x="2299" y="-1011.8017" font-family="Inconsolata" font-size="14.00" fill="#000000"> &#160;&#160;&#160;for dir_str in pl_mini.dir.walk(pwd, false, false) do</text>
<text text-anchor="middle" x="2299" y="-996.4017" font-family="Inconsolata" font-size="14.00" fill="#000000"> &#160;&#160;&#160;&#160;&#160;&#160;&#160;local dir = Dir(dir_str)</text>
<text text-anchor="middle" x="2299" y="-981.0017" font-family="Inconsolata" font-size="14.00" fill="#000000"> &#160;&#160;&#160;&#160;&#160;&#160;&#160;if not strHas(&quot;.git&quot;, dir.path.str)</text>
<text text-anchor="middle" x="2299" y="-965.6016" font-family="Inconsolata" font-size="14.00" fill="#000000"> &#160;&#160;&#160;&#160;&#160;&#160;&#160;&#160;&#160;&#160;&#160;and not strHas(&quot;src/lib&quot;, dir.path.str) then</text>
<text text-anchor="middle" x="2299" y="-950.2016" font-family="Inconsolata" font-size="14.00" fill="#000000"> &#160;&#160;&#160;&#160;&#160;&#160;&#160;&#160;&#160;&#160;&#160;dir = dir.path.str &#45;&#45; migrate this down</text>
<text text-anchor="middle" x="2299" y="-934.8016" font-family="Inconsolata" font-size="14.00" fill="#000000"> &#160;&#160;&#160;&#160;&#160;&#160;&#160;&#160;&#160;&#160;&#160;local files = getfiles(dir)</text>
<text text-anchor="middle" x="2299" y="-919.4015" font-family="Inconsolata" font-size="14.00" fill="#000000"> &#160;&#160;&#160;&#160;&#160;&#160;&#160;&#160;&#160;&#160;&#160;s:verb((&quot; &#160;&quot;):rep(depth) .. &quot;* &quot; .. dir)</text>
<text text-anchor="middle" x="2299" y="-904.0015" font-family="Inconsolata" font-size="14.00" fill="#000000"> &#160;&#160;&#160;&#160;&#160;&#160;&#160;&#160;&#160;&#160;&#160;local subdirs = getdirectories(dir)</text>
<text text-anchor="middle" x="2299" y="-888.6015" font-family="Inconsolata" font-size="14.00" fill="#000000"> &#160;&#160;&#160;&#160;&#160;&#160;&#160;&#160;&#160;&#160;&#160;for _, f in ipairs(files) do</text>
<text text-anchor="middle" x="2299" y="-873.2014" font-family="Inconsolata" font-size="14.00" fill="#000000"> &#160;&#160;&#160;&#160;&#160;&#160;&#160;&#160;&#160;&#160;&#160;&#160;&#160;&#160;&#160;if extension(f) == &quot;.orb&quot; then</text>
<text text-anchor="middle" x="2299" y="-857.8014" font-family="Inconsolata" font-size="14.00" fill="#000000"> &#160;&#160;&#160;&#160;&#160;&#160;&#160;&#160;&#160;&#160;&#160;&#160;&#160;&#160;&#160;&#160;&#160;&#160;&#160;&#45;&#45; Weave and prepare out directory</text>
<text text-anchor="middle" x="2299" y="-842.4014" font-family="Inconsolata" font-size="14.00" fill="#000000"> &#160;&#160;&#160;&#160;&#160;&#160;&#160;&#160;&#160;&#160;&#160;&#160;&#160;&#160;&#160;&#160;&#160;&#160;&#160;s:verb((&quot; &#160;&quot;):rep(depth) .. &quot; &#160;&#45; &quot; .. f)</text>
<text text-anchor="middle" x="2299" y="-827.0013" font-family="Inconsolata" font-size="14.00" fill="#000000"> &#160;&#160;&#160;&#160;&#160;&#160;&#160;&#160;&#160;&#160;&#160;&#160;&#160;&#160;&#160;&#160;&#160;&#160;&#160;local orb_f = read(f)</text>
<text text-anchor="middle" x="2299" y="-811.6013" font-family="Inconsolata" font-size="14.00" fill="#000000"> &#160;&#160;&#160;&#160;&#160;&#160;&#160;&#160;&#160;&#160;&#160;&#160;&#160;&#160;&#160;&#160;&#160;&#160;&#160;local doc = Doc(orb_f)</text>
<text text-anchor="middle" x="2299" y="-796.2013" font-family="Inconsolata" font-size="14.00" fill="#000000"> &#160;&#160;&#160;&#160;&#160;&#160;&#160;&#160;&#160;&#160;&#160;&#160;&#160;&#160;&#160;&#160;&#160;&#160;&#160;local doc_md_dir = subLastFor(&quot;/orb&quot;, &quot;/doc/md&quot;, dirname(f))</text>
<text text-anchor="middle" x="2299" y="-780.8012" font-family="Inconsolata" font-size="14.00" fill="#000000"> &#160;&#160;&#160;&#160;&#160;&#160;&#160;&#160;&#160;&#160;&#160;&#160;&#160;&#160;&#160;&#160;&#160;&#160;&#160;local doc_dot_dir = subLastFor(&quot;/orb&quot;, &quot;/doc/dot&quot;, dirname(f))</text>
<text text-anchor="middle" x="2299" y="-765.4012" font-family="Inconsolata" font-size="14.00" fill="#000000"> &#160;&#160;&#160;&#160;&#160;&#160;&#160;&#160;&#160;&#160;&#160;&#160;&#160;&#160;&#160;&#160;&#160;&#160;&#160;local doc_svg_dir = subLastFor(&quot;/orb&quot;, &quot;/doc/svg&quot;, dirname(f))</text>
<text text-anchor="middle" x="2299" y="-750.0012" font-family="Inconsolata" font-size="14.00" fill="#000000"> &#160;&#160;&#160;&#160;&#160;&#160;&#160;&#160;&#160;&#160;&#160;&#160;&#160;&#160;&#160;&#160;&#160;&#160;&#160;makepath(doc_md_dir)</text>
<text text-anchor="middle" x="2299" y="-734.6012" font-family="Inconsolata" font-size="14.00" fill="#000000"> &#160;&#160;&#160;&#160;&#160;&#160;&#160;&#160;&#160;&#160;&#160;&#160;&#160;&#160;&#160;&#160;&#160;&#160;&#160;makepath(doc_dot_dir)</text>
<text text-anchor="middle" x="2299" y="-719.2011" font-family="Inconsolata" font-size="14.00" fill="#000000"> &#160;&#160;&#160;&#160;&#160;&#160;&#160;&#160;&#160;&#160;&#160;&#160;&#160;&#160;&#160;&#160;&#160;&#160;&#160;makepath(doc_svg_dir)</text>
<text text-anchor="middle" x="2299" y="-703.8011" font-family="Inconsolata" font-size="14.00" fill="#000000"> &#160;&#160;&#160;&#160;&#160;&#160;&#160;&#160;&#160;&#160;&#160;&#160;&#160;&#160;&#160;&#160;&#160;&#160;&#160;local bare_name = basename(f):sub(1, &#45;5) &#45;&#45; &#160;== #&quot;.orb&quot;</text>
<text text-anchor="middle" x="2299" y="-688.4011" font-family="Inconsolata" font-size="14.00" fill="#000000"> &#160;&#160;&#160;&#160;&#160;&#160;&#160;&#160;&#160;&#160;&#160;&#160;&#160;&#160;&#160;&#160;&#160;&#160;&#160;local out_md_name = doc_md_dir .. &quot;/&quot; .. bare_name .. &quot;.md&quot;</text>
<text text-anchor="middle" x="2299" y="-673.001" font-family="Inconsolata" font-size="14.00" fill="#000000"> &#160;&#160;&#160;&#160;&#160;&#160;&#160;&#160;&#160;&#160;&#160;&#160;&#160;&#160;&#160;&#160;&#160;&#160;&#160;local out_dot_name = doc_dot_dir .. &quot;/&quot; .. bare_name .. &quot;.dot&quot;</text>
<text text-anchor="middle" x="2299" y="-657.601" font-family="Inconsolata" font-size="14.00" fill="#000000"> &#160;&#160;&#160;&#160;&#160;&#160;&#160;&#160;&#160;&#160;&#160;&#160;&#160;&#160;&#160;&#160;&#160;&#160;&#160;local out_svg_name = doc_svg_dir .. &quot;/&quot; .. bare_name .. &quot;.svg&quot;</text>
<text text-anchor="middle" x="2299" y="-642.201" font-family="Inconsolata" font-size="14.00" fill="#000000"> &#160;&#160;&#160;&#160;&#160;&#160;&#160;&#160;&#160;&#160;&#160;&#160;&#160;&#160;&#160;&#160;&#160;&#160;&#160;local woven_md = weaver:weaveMd(doc) or &quot;&quot;</text>
<text text-anchor="middle" x="2299" y="-610.8009" font-family="Inconsolata" font-size="14.00" fill="#000000"> &#160;&#160;&#160;&#160;&#160;&#160;&#160;&#160;&#160;&#160;&#160;&#160;&#160;&#160;&#160;&#160;&#160;&#160;&#160;&#45;&#45; Compare, report, and write out if necessary</text>
<text text-anchor="middle" x="2299" y="-595.4009" font-family="Inconsolata" font-size="14.00" fill="#000000"> &#160;&#160;&#160;&#160;&#160;&#160;&#160;&#160;&#160;&#160;&#160;&#160;&#160;&#160;&#160;&#160;&#160;&#160;&#160;local last_md = read(out_md_name) or &quot;&quot;</text>
<text text-anchor="middle" x="2299" y="-580.0009" font-family="Inconsolata" font-size="14.00" fill="#000000"> &#160;&#160;&#160;&#160;&#160;&#160;&#160;&#160;&#160;&#160;&#160;&#160;&#160;&#160;&#160;&#160;&#160;&#160;&#160;local changed_md = writeOnChange(woven_md, last_md, out_md_name, depth)</text>
<text text-anchor="middle" x="2299" y="-564.6008" font-family="Inconsolata" font-size="14.00" fill="#000000"> &#160;&#160;&#160;&#160;&#160;&#160;&#160;&#160;&#160;&#160;&#160;&#160;&#160;&#160;&#160;&#160;&#160;&#160;&#160;local woven_dot = doc:dot() or &quot;&quot;</text>
<text text-anchor="middle" x="2299" y="-549.2008" font-family="Inconsolata" font-size="14.00" fill="#000000"> &#160;&#160;&#160;&#160;&#160;&#160;&#160;&#160;&#160;&#160;&#160;&#160;&#160;&#160;&#160;&#160;&#160;&#160;&#160;local last_dot = read(out_dot_name) or &quot;&quot;</text>
<text text-anchor="middle" x="2299" y="-533.8008" font-family="Inconsolata" font-size="14.00" fill="#000000"> &#160;&#160;&#160;&#160;&#160;&#160;&#160;&#160;&#160;&#160;&#160;&#160;&#160;&#160;&#160;&#160;&#160;&#160;&#160;local changed_dot = writeOnChange(woven_dot, last_dot, out_dot_name, depth)</text>
<text text-anchor="middle" x="2299" y="-502.4007" font-family="Inconsolata" font-size="14.00" fill="#000000"> &#160;&#160;&#160;&#160;&#160;&#160;&#160;&#160;&#160;&#160;&#160;&#160;&#160;&#160;&#160;&#160;&#160;&#160;&#160;&#45;&#45; SVG call is fairly slow and only useful of the dot has changed</text>
<text text-anchor="middle" x="2299" y="-487.0007" font-family="Inconsolata" font-size="14.00" fill="#000000"> &#160;&#160;&#160;&#160;&#160;&#160;&#160;&#160;&#160;&#160;&#160;&#160;&#160;&#160;&#160;&#160;&#160;&#160;&#160;if changed_dot then</text>
<text text-anchor="middle" x="2299" y="-471.6007" font-family="Inconsolata" font-size="14.00" fill="#000000"> &#160;&#160;&#160;&#160;&#160;&#160;&#160;&#160;&#160;&#160;&#160;&#160;&#160;&#160;&#160;&#160;&#160;&#160;&#160;&#160;&#160;&#160;&#160;local woven_svg = dotToSvg(woven_dot, out_dot_name)</text>
<text text-anchor="middle" x="2299" y="-456.2007" font-family="Inconsolata" font-size="14.00" fill="#000000"> &#160;&#160;&#160;&#160;&#160;&#160;&#160;&#160;&#160;&#160;&#160;&#160;&#160;&#160;&#160;&#160;&#160;&#160;&#160;&#160;&#160;&#160;&#160;local last_svg = read(out_svg_name) or &quot;&quot;</text>
<text text-anchor="middle" x="2299" y="-440.8006" font-family="Inconsolata" font-size="14.00" fill="#000000"> &#160;&#160;&#160;&#160;&#160;&#160;&#160;&#160;&#160;&#160;&#160;&#160;&#160;&#160;&#160;&#160;&#160;&#160;&#160;&#160;&#160;&#160;&#160;writeOnChange(woven_svg, last_svg, out_svg_name, depth)</text>
<text text-anchor="middle" x="2299" y="-425.4006" font-family="Inconsolata" font-size="14.00" fill="#000000"> &#160;&#160;&#160;&#160;&#160;&#160;&#160;&#160;&#160;&#160;&#160;&#160;&#160;&#160;&#160;&#160;&#160;&#160;&#160;end</text>
<text text-anchor="middle" x="2299" y="-410.0006" font-family="Inconsolata" font-size="14.00" fill="#000000"> &#160;&#160;&#160;&#160;&#160;&#160;&#160;&#160;&#160;&#160;&#160;&#160;&#160;&#160;&#160;end</text>
<text text-anchor="middle" x="2299" y="-394.6005" font-family="Inconsolata" font-size="14.00" fill="#000000"> &#160;&#160;&#160;&#160;&#160;&#160;&#160;&#160;&#160;&#160;&#160;end</text>
<text text-anchor="middle" x="2299" y="-379.2005" font-family="Inconsolata" font-size="14.00" fill="#000000"> &#160;&#160;&#160;&#160;&#160;&#160;&#160;end</text>
<text text-anchor="middle" x="2299" y="-363.8005" font-family="Inconsolata" font-size="14.00" fill="#000000"> &#160;&#160;&#160;end</text>
<text text-anchor="middle" x="2299" y="-332.4004" font-family="Inconsolata" font-size="14.00" fill="#000000"> &#160;&#160;&#160;return true</text>
<text text-anchor="middle" x="2299" y="-317.0004" font-family="Inconsolata" font-size="14.00" fill="#000000">end</text>
<text text-anchor="middle" x="2299" y="-285.6004" font-family="Inconsolata" font-size="14.00" fill="#000000">local function weave_all(weaver, pwd)</text>
<text text-anchor="middle" x="2299" y="-270.2003" font-family="Inconsolata" font-size="14.00" fill="#000000"> &#160;&#160;&#160;for dir in pl_mini.dir.walk(pwd, false, false) do</text>
<text text-anchor="middle" x="2299" y="-254.8003" font-family="Inconsolata" font-size="14.00" fill="#000000"> &#160;&#160;&#160;&#160;&#160;&#160;&#160;if not strHas(&quot;.git&quot;, dir) and isdir(dir)</text>
<text text-anchor="middle" x="2299" y="-239.4003" font-family="Inconsolata" font-size="14.00" fill="#000000"> &#160;&#160;&#160;&#160;&#160;&#160;&#160;&#160;&#160;&#160;&#160;and endsWith(&quot;orb&quot;, dir) then</text>
<text text-anchor="middle" x="2299" y="-224.0002" font-family="Inconsolata" font-size="14.00" fill="#000000"> &#160;&#160;&#160;&#160;&#160;&#160;&#160;&#160;&#160;&#160;&#160;s:chat(a.cyan(&quot;Weave: &quot; .. dir))</text>
<text text-anchor="middle" x="2299" y="-208.6002" font-family="Inconsolata" font-size="14.00" fill="#000000"> &#160;&#160;&#160;&#160;&#160;&#160;&#160;&#160;&#160;&#160;&#160;return weave_dir(weaver, dir, 0)</text>
<text text-anchor="middle" x="2299" y="-193.2002" font-family="Inconsolata" font-size="14.00" fill="#000000"> &#160;&#160;&#160;&#160;&#160;&#160;&#160;end</text>
<text text-anchor="middle" x="2299" y="-177.8002" font-family="Inconsolata" font-size="14.00" fill="#000000"> &#160;&#160;&#160;end</text>
<text text-anchor="middle" x="2299" y="-146.4001" font-family="Inconsolata" font-size="14.00" fill="#000000"> &#160;&#160;&#160;return false</text>
<text text-anchor="middle" x="2299" y="-131.0001" font-family="Inconsolata" font-size="14.00" fill="#000000">end</text>
<text text-anchor="middle" x="2299" y="-99.6001" font-family="Inconsolata" font-size="14.00" fill="#000000">W.weave_all = weave_all</text>
</g>
<!-- codeblock_22&#45;&gt;leaf_31 -->
<g id="edge31" class="edge">
<title>codeblock_22&#45;&gt;leaf_31</title>
<path fill="none" stroke="#000000" stroke-dasharray="5,2" d="M2093.8818,-1343.4046C2105.1205,-1301.281 2134.4071,-1191.5119 2167.4479,-1067.6717"/>
<polygon fill="#000000" stroke="#000000" points="2170.8414,-1068.5294 2170.0376,-1057.9651 2164.078,-1066.7248 2170.8414,-1068.5294"/>
</g>
<!-- leaf_32 -->
<g id="node33" class="node">
<title>leaf_32</title>
<polygon fill="none" stroke="#c0c0c0" points="2940,-625.2018 2658,-625.2018 2658,-524 2940,-524 2940,-625.2018"/>
<text text-anchor="middle" x="2799" y="-610.201" font-family="Inconsolata" font-size="14.00" fill="#000000">local function new(Weaver, doc)</text>
<text text-anchor="middle" x="2799" y="-594.8009" font-family="Inconsolata" font-size="14.00" fill="#000000"> &#160;&#160;&#160;local weaver = setmetatable({}, W)</text>
<text text-anchor="middle" x="2799" y="-547.4009" font-family="Inconsolata" font-size="14.00" fill="#000000"> &#160;&#160;&#160;return weaver</text>
<text text-anchor="middle" x="2799" y="-532.0009" font-family="Inconsolata" font-size="14.00" fill="#000000">end</text>
</g>
<!-- codeblock_23&#45;&gt;leaf_32 -->
<g id="edge32" class="edge">
<title>codeblock_23&#45;&gt;leaf_32</title>
<path fill="none" stroke="#000000" stroke-dasharray="5,2" d="M2544.8534,-1343.6462C2562.5881,-1296.7393 2611.172,-1167.0691 2648,-1057.8018 2698.9863,-906.5272 2753.6349,-726.6729 2781.083,-634.9435"/>
<polygon fill="#000000" stroke="#000000" points="2784.4631,-635.8565 2783.9736,-625.273 2777.7563,-633.8518 2784.4631,-635.8565"/>
</g>
<!-- leaf_33 -->
<g id="node34" class="node">
<title>leaf_33</title>
<polygon fill="none" stroke="#c0c0c0" points="3030,-592.6009 2958,-592.6009 2958,-556.6009 3030,-556.6009 3030,-592.6009"/>
<text text-anchor="middle" x="2994" y="-571.1009" font-family="Inconsolata" font-size="14.00" fill="#000000">return W</text>
</g>
<!-- codeblock_24&#45;&gt;leaf_33 -->
<g id="edge33" class="edge">
<title>codeblock_24&#45;&gt;leaf_33</title>
<path fill="none" stroke="#000000" stroke-dasharray="5,2" d="M2868.5078,-1343.4887C2884.9286,-1296.732 2928.2123,-1168.3684 2949,-1057.8018 2981.1238,-886.94 2990.6982,-677.5761 2993.2036,-602.7949"/>
<polygon fill="#000000" stroke="#000000" points="2996.703,-602.8654 2993.5238,-592.7588 2989.7066,-602.6421 2996.703,-602.8654"/>
</g>
<!-- leaf_27 -->
<g id="node28" class="node">
<title>leaf_27</title>
<polygon fill="none" stroke="#c0c0c0" points="1334,-55.6015 1206,-55.6015 1206,.2015 1334,.2015 1334,-55.6015"/>
<text text-anchor="middle" x="1270" y="-8.2" font-family="Inconsolata" font-size="14.00" fill="#000000"> &#160;Stripped down:</text>
</g>
<!-- raw_26&#45;&gt;leaf_27 -->
<g id="edge27" class="edge">
<title>raw_26&#45;&gt;leaf_27</title>
<path fill="none" stroke="#000000" stroke-dasharray="5,2" d="M1346.6479,-556.4712C1351.9328,-491.5259 1365.0115,-265.1381 1309,-91.4 1305.9879,-82.057 1301.3468,-72.6694 1296.3035,-64.0805"/>
<polygon fill="#000000" stroke="#000000" points="1299.1988,-62.108 1290.9538,-55.4544 1293.25,-65.7975 1299.1988,-62.108"/>
</g>
<!-- leaf_29 -->
<g id="node30" class="node">
<title>leaf_29</title>
<polygon fill="none" stroke="#c0c0c0" points="1634,-47.6021 1352,-47.6021 1352,-7.7979 1634,-7.7979 1634,-47.6021"/>
<text text-anchor="middle" x="1493" y="-16.2" font-family="Inconsolata" font-size="14.00" fill="#000000"> &#160;&#45; [ ] #todo add error checking here.</text>
</g>
<!-- raw_28&#45;&gt;leaf_29 -->
<g id="edge29" class="edge">
<title>raw_28&#45;&gt;leaf_29</title>
<path fill="none" stroke="#000000" stroke-dasharray="5,2" d="M1415.2836,-556.4489C1409.7674,-491.4283 1396.0044,-264.8178 1453,-91.4 1457.0773,-78.9943 1464.0727,-66.5606 1471.0843,-56.0139"/>
<polygon fill="#000000" stroke="#000000" points="1474.0727,-57.8472 1476.9142,-47.6405 1468.3279,-53.8474 1474.0727,-57.8472"/>
</g>
</g>
</svg>
