<?xml version="1.0" encoding="UTF-8" standalone="no"?>
<!DOCTYPE svg PUBLIC "-//W3C//DTD SVG 1.1//EN"
 "http://www.w3.org/Graphics/SVG/1.1/DTD/svg11.dtd">
<!-- Generated by graphviz version 2.40.1 (20161225.0304)
 -->
<!-- Title: lpegNode Pages: 1 -->
<svg width="3020pt" height="1884pt"
 viewBox="0.00 0.00 3020.00 1884.40" xmlns="http://www.w3.org/2000/svg" xmlns:xlink="http://www.w3.org/1999/xlink">
<g id="graph0" class="graph" transform="scale(1 1) rotate(0) translate(4 1880.4027)">
<title>lpegNode</title>
<polygon fill="#ffffff" stroke="transparent" points="-4,4 -4,-1880.4027 3016,-1880.4027 3016,4 -4,4"/>
<!-- doc_0 -->
<g id="node1" class="node">
<title>doc_0</title>
<ellipse fill="none" stroke="#000000" cx="656" cy="-1858.4027" rx="46.9581" ry="18"/>
<text text-anchor="middle" x="656" y="-1854.2027" font-family="Helvetica,sans-Serif" font-size="14.00" fill="#000000">doc &#45; 148</text>
</g>
<!-- section_1 -->
<g id="node2" class="node">
<title>section_1</title>
<ellipse fill="none" stroke="#000000" cx="656" cy="-1786.4027" rx="60.9826" ry="18"/>
<text text-anchor="middle" x="656" y="-1782.2027" font-family="Helvetica,sans-Serif" font-size="14.00" fill="#000000">section: 1&#45;56</text>
</g>
<!-- doc_0&#45;&gt;section_1 -->
<g id="edge1" class="edge">
<title>doc_0&#45;&gt;section_1</title>
<path fill="none" stroke="#000000" stroke-dasharray="5,2" d="M656,-1840.234C656,-1832.5336 656,-1823.377 656,-1814.8193"/>
<polygon fill="#000000" stroke="#000000" points="659.5001,-1814.8159 656,-1804.816 652.5001,-1814.816 659.5001,-1814.8159"/>
</g>
<!-- header_2 -->
<g id="node3" class="node">
<title>header_2</title>
<ellipse fill="none" stroke="#000000" cx="392" cy="-1714.4027" rx="49.5296" ry="18"/>
<text text-anchor="middle" x="392" y="-1710.2027" font-family="Helvetica,sans-Serif" font-size="14.00" fill="#000000">1 : Weave</text>
</g>
<!-- section_1&#45;&gt;header_2 -->
<g id="edge2" class="edge">
<title>section_1&#45;&gt;header_2</title>
<path fill="none" stroke="#000000" stroke-dasharray="5,2" d="M609.453,-1774.6866C567.8117,-1764.0758 505.1665,-1747.7933 451,-1732.4027 447.3881,-1731.3764 443.6588,-1730.2936 439.912,-1729.189"/>
<polygon fill="#000000" stroke="#000000" points="440.6052,-1725.7434 430.022,-1726.238 438.6037,-1732.4512 440.6052,-1725.7434"/>
</g>
<!-- prose_3 -->
<g id="node4" class="node">
<title>prose_3</title>
<ellipse fill="none" stroke="#000000" cx="492" cy="-1714.4027" rx="32.4585" ry="18"/>
<text text-anchor="middle" x="492" y="-1710.2027" font-family="Helvetica,sans-Serif" font-size="14.00" fill="#000000">prose</text>
</g>
<!-- section_1&#45;&gt;prose_3 -->
<g id="edge3" class="edge">
<title>section_1&#45;&gt;prose_3</title>
<path fill="none" stroke="#000000" stroke-dasharray="5,2" d="M621.6202,-1771.3091C593.8097,-1759.0996 554.8158,-1741.9803 526.8739,-1729.7132"/>
<polygon fill="#000000" stroke="#000000" points="528.0513,-1726.4077 517.4879,-1725.5925 525.2374,-1732.8172 528.0513,-1726.4077"/>
</g>
<!-- prose_4 -->
<g id="node5" class="node">
<title>prose_4</title>
<ellipse fill="none" stroke="#000000" cx="574" cy="-1714.4027" rx="32.4585" ry="18"/>
<text text-anchor="middle" x="574" y="-1710.2027" font-family="Helvetica,sans-Serif" font-size="14.00" fill="#000000">prose</text>
</g>
<!-- section_1&#45;&gt;prose_4 -->
<g id="edge4" class="edge">
<title>section_1&#45;&gt;prose_4</title>
<path fill="none" stroke="#000000" stroke-dasharray="5,2" d="M636.5671,-1769.3397C625.3006,-1759.4471 610.9965,-1746.8874 598.9098,-1736.2747"/>
<polygon fill="#000000" stroke="#000000" points="601.1653,-1733.5974 591.3415,-1729.6294 596.5466,-1738.8575 601.1653,-1733.5974"/>
</g>
<!-- prose_5 -->
<g id="node6" class="node">
<title>prose_5</title>
<ellipse fill="none" stroke="#000000" cx="656" cy="-1714.4027" rx="32.4585" ry="18"/>
<text text-anchor="middle" x="656" y="-1710.2027" font-family="Helvetica,sans-Serif" font-size="14.00" fill="#000000">prose</text>
</g>
<!-- section_1&#45;&gt;prose_5 -->
<g id="edge5" class="edge">
<title>section_1&#45;&gt;prose_5</title>
<path fill="none" stroke="#000000" stroke-dasharray="5,2" d="M656,-1768.234C656,-1760.5336 656,-1751.377 656,-1742.8193"/>
<polygon fill="#000000" stroke="#000000" points="659.5001,-1742.8159 656,-1732.816 652.5001,-1742.816 659.5001,-1742.8159"/>
</g>
<!-- codeblock_6 -->
<g id="node7" class="node">
<title>codeblock_6</title>
<ellipse fill="none" stroke="#000000" cx="808" cy="-1714.4027" rx="76.6175" ry="18"/>
<text text-anchor="middle" x="808" y="-1710.2027" font-family="Helvetica,sans-Serif" font-size="14.00" fill="#000000">code block 11&#45;48</text>
</g>
<!-- section_1&#45;&gt;codeblock_6 -->
<g id="edge6" class="edge">
<title>section_1&#45;&gt;codeblock_6</title>
<path fill="none" stroke="#000000" stroke-dasharray="5,2" d="M688.2353,-1771.1333C710.3919,-1760.6381 740.0766,-1746.5769 764.3491,-1735.0794"/>
<polygon fill="#000000" stroke="#000000" points="766.1596,-1738.0947 773.6987,-1730.6507 763.163,-1731.7685 766.1596,-1738.0947"/>
</g>
<!-- codeblock_7 -->
<g id="node8" class="node">
<title>codeblock_7</title>
<ellipse fill="none" stroke="#000000" cx="1060" cy="-1714.4027" rx="77.4211" ry="18"/>
<text text-anchor="middle" x="1060" y="-1710.2027" font-family="Helvetica,sans-Serif" font-size="14.00" fill="#000000">code block 50&#45;54</text>
</g>
<!-- section_1&#45;&gt;codeblock_7 -->
<g id="edge7" class="edge">
<title>section_1&#45;&gt;codeblock_7</title>
<path fill="none" stroke="#000000" stroke-dasharray="5,2" d="M708.4018,-1777.0638C779.8575,-1764.3291 908.1328,-1741.4681 988.4106,-1727.1612"/>
<polygon fill="#000000" stroke="#000000" points="989.2086,-1730.5742 998.4394,-1725.3739 987.9804,-1723.6828 989.2086,-1730.5742"/>
</g>
<!-- section_8 -->
<g id="node9" class="node">
<title>section_8</title>
<ellipse fill="none" stroke="#000000" cx="1602" cy="-1714.4027" rx="70.655" ry="18"/>
<text text-anchor="middle" x="1602" y="-1710.2027" font-family="Helvetica,sans-Serif" font-size="14.00" fill="#000000">section: 57&#45;148</text>
</g>
<!-- section_1&#45;&gt;section_8 -->
<g id="edge8" class="edge">
<title>section_1&#45;&gt;section_8</title>
<path fill="none" stroke="#000000" stroke-dasharray="5,2" d="M715.1765,-1781.8988C879.1341,-1769.42 1339.304,-1734.3965 1523.9193,-1720.3454"/>
<polygon fill="#000000" stroke="#000000" points="1524.3852,-1723.8202 1534.0907,-1719.5713 1523.8539,-1716.8403 1524.3852,-1723.8202"/>
</g>
<!-- leaf_9 -->
<g id="node10" class="node">
<title>leaf_9</title>
<polygon fill="none" stroke="#c0c0c0" points="424.5,-1395.1022 359.5,-1395.1022 359.5,-1359.1022 424.5,-1359.1022 424.5,-1395.1022"/>
<text text-anchor="middle" x="392" y="-1373.6022" font-family="Inconsolata" font-size="14.00" fill="#000000">* Weave</text>
</g>
<!-- header_2&#45;&gt;leaf_9 -->
<g id="edge9" class="edge">
<title>header_2&#45;&gt;leaf_9</title>
<path fill="none" stroke="#000000" stroke-dasharray="5,2" d="M392,-1696.2679C392,-1640.79 392,-1473.0452 392,-1405.6183"/>
<polygon fill="#000000" stroke="#000000" points="395.5001,-1405.3266 392,-1395.3266 388.5001,-1405.3267 395.5001,-1405.3266"/>
</g>
<!-- raw_10 -->
<g id="node11" class="node">
<title>raw_10</title>
<ellipse fill="none" stroke="#000000" cx="481" cy="-1377.1022" rx="27" ry="18"/>
<text text-anchor="middle" x="481" y="-1372.9022" font-family="Helvetica,sans-Serif" font-size="14.00" fill="#000000">raw</text>
</g>
<!-- prose_3&#45;&gt;raw_10 -->
<g id="edge10" class="edge">
<title>prose_3&#45;&gt;raw_10</title>
<path fill="none" stroke="#000000" stroke-dasharray="5,2" d="M491.4086,-1696.2679C489.5994,-1640.79 484.1289,-1473.0452 481.93,-1405.6183"/>
<polygon fill="#000000" stroke="#000000" points="485.4185,-1405.2072 481.5943,-1395.3266 478.4222,-1405.4354 485.4185,-1405.2072"/>
</g>
<!-- raw_12 -->
<g id="node13" class="node">
<title>raw_12</title>
<ellipse fill="none" stroke="#000000" cx="564" cy="-1377.1022" rx="27" ry="18"/>
<text text-anchor="middle" x="564" y="-1372.9022" font-family="Helvetica,sans-Serif" font-size="14.00" fill="#000000">raw</text>
</g>
<!-- prose_4&#45;&gt;raw_12 -->
<g id="edge12" class="edge">
<title>prose_4&#45;&gt;raw_12</title>
<path fill="none" stroke="#000000" stroke-dasharray="5,2" d="M573.4624,-1696.2679C571.8176,-1640.79 566.8444,-1473.0452 564.8454,-1405.6183"/>
<polygon fill="#000000" stroke="#000000" points="568.3352,-1405.2185 564.5403,-1395.3266 561.3383,-1405.426 568.3352,-1405.2185"/>
</g>
<!-- raw_14 -->
<g id="node15" class="node">
<title>raw_14</title>
<ellipse fill="none" stroke="#000000" cx="636" cy="-1377.1022" rx="27" ry="18"/>
<text text-anchor="middle" x="636" y="-1372.9022" font-family="Helvetica,sans-Serif" font-size="14.00" fill="#000000">raw</text>
</g>
<!-- prose_5&#45;&gt;raw_14 -->
<g id="edge14" class="edge">
<title>prose_5&#45;&gt;raw_14</title>
<path fill="none" stroke="#000000" stroke-dasharray="5,2" d="M654.9247,-1696.2679C651.6352,-1640.79 641.6889,-1473.0452 637.6908,-1405.6183"/>
<polygon fill="#000000" stroke="#000000" points="641.1665,-1405.1019 637.0806,-1395.3266 634.1787,-1405.5163 641.1665,-1405.1019"/>
</g>
<!-- leaf_16 -->
<g id="node17" class="node">
<title>leaf_16</title>
<polygon fill="none" stroke="#c0c0c0" points="1005,-1660.2033 681,-1660.2033 681,-1094.0012 1005,-1094.0012 1005,-1660.2033"/>
<text text-anchor="middle" x="843" y="-1645.2027" font-family="Inconsolata" font-size="14.00" fill="#000000">local L = require &quot;lpeg&quot;</text>
<text text-anchor="middle" x="843" y="-1613.8027" font-family="Inconsolata" font-size="14.00" fill="#000000">local pl_file = require &quot;pl.file&quot;</text>
<text text-anchor="middle" x="843" y="-1598.4026" font-family="Inconsolata" font-size="14.00" fill="#000000">local pl_dir = require &quot;pl.dir&quot;</text>
<text text-anchor="middle" x="843" y="-1583.0026" font-family="Inconsolata" font-size="14.00" fill="#000000">local pl_path = require &quot;pl.path&quot;</text>
<text text-anchor="middle" x="843" y="-1567.6026" font-family="Inconsolata" font-size="14.00" fill="#000000">local getfiles = pl_dir.getfiles</text>
<text text-anchor="middle" x="843" y="-1552.2025" font-family="Inconsolata" font-size="14.00" fill="#000000">local makepath = pl_dir.makepath</text>
<text text-anchor="middle" x="843" y="-1536.8025" font-family="Inconsolata" font-size="14.00" fill="#000000">local getdirectories = pl_dir.getdirectories</text>
<text text-anchor="middle" x="843" y="-1521.4025" font-family="Inconsolata" font-size="14.00" fill="#000000">local extension = pl_path.extension</text>
<text text-anchor="middle" x="843" y="-1506.0024" font-family="Inconsolata" font-size="14.00" fill="#000000">local dirname = pl_path.dirname</text>
<text text-anchor="middle" x="843" y="-1490.6024" font-family="Inconsolata" font-size="14.00" fill="#000000">local basename = pl_path.basename</text>
<text text-anchor="middle" x="843" y="-1475.2024" font-family="Inconsolata" font-size="14.00" fill="#000000">local read = pl_file.read</text>
<text text-anchor="middle" x="843" y="-1459.8023" font-family="Inconsolata" font-size="14.00" fill="#000000">local write = pl_file.write</text>
<text text-anchor="middle" x="843" y="-1444.4023" font-family="Inconsolata" font-size="14.00" fill="#000000">local isdir = pl_path.isdir</text>
<text text-anchor="middle" x="843" y="-1413.0023" font-family="Inconsolata" font-size="14.00" fill="#000000">local u = require &quot;lib/util&quot;</text>
<text text-anchor="middle" x="843" y="-1397.6022" font-family="Inconsolata" font-size="14.00" fill="#000000">local a = require &quot;lib/ansi&quot;</text>
<text text-anchor="middle" x="843" y="-1350.2022" font-family="Inconsolata" font-size="14.00" fill="#000000">local s = require &quot;lib/status&quot; ()</text>
<text text-anchor="middle" x="843" y="-1334.8022" font-family="Inconsolata" font-size="14.00" fill="#000000">s.verbose = false</text>
<text text-anchor="middle" x="843" y="-1303.4022" font-family="Inconsolata" font-size="14.00" fill="#000000">local m = require &quot;Orbit/morphemes&quot;</text>
<text text-anchor="middle" x="843" y="-1288.0021" font-family="Inconsolata" font-size="14.00" fill="#000000">local walk = require &quot;walk&quot;</text>
<text text-anchor="middle" x="843" y="-1272.6021" font-family="Inconsolata" font-size="14.00" fill="#000000">local strHas = walk.strHas</text>
<text text-anchor="middle" x="843" y="-1257.2021" font-family="Inconsolata" font-size="14.00" fill="#000000">local endsWith = walk.endsWith</text>
<text text-anchor="middle" x="843" y="-1241.802" font-family="Inconsolata" font-size="14.00" fill="#000000">local subLastFor = walk.subLastFor</text>
<text text-anchor="middle" x="843" y="-1226.402" font-family="Inconsolata" font-size="14.00" fill="#000000">local writeOnChange = walk.writeOnChange</text>
<text text-anchor="middle" x="843" y="-1211.002" font-family="Inconsolata" font-size="14.00" fill="#000000">local Path = require &quot;walk/path&quot;</text>
<text text-anchor="middle" x="843" y="-1195.6019" font-family="Inconsolata" font-size="14.00" fill="#000000">local Dir = require &quot;walk/directory&quot;</text>
<text text-anchor="middle" x="843" y="-1180.2019" font-family="Inconsolata" font-size="14.00" fill="#000000">local File = require &quot;walk/file&quot;</text>
<text text-anchor="middle" x="843" y="-1164.8019" font-family="Inconsolata" font-size="14.00" fill="#000000">local epeg = require &quot;epeg&quot;</text>
<text text-anchor="middle" x="843" y="-1133.4018" font-family="Inconsolata" font-size="14.00" fill="#000000">local Doc = require &quot;Orbit/doc&quot;</text>
<text text-anchor="middle" x="843" y="-1102.0018" font-family="Inconsolata" font-size="14.00" fill="#000000">local W, w = u.inherit()</text>
</g>
<!-- codeblock_6&#45;&gt;leaf_16 -->
<g id="edge16" class="edge">
<title>codeblock_6&#45;&gt;leaf_16</title>
<path fill="none" stroke="#000000" stroke-dasharray="5,2" d="M809.8818,-1696.2679C810.6081,-1689.2684 811.5198,-1680.4817 812.5727,-1670.3349"/>
<polygon fill="#000000" stroke="#000000" points="816.0731,-1670.5115 813.624,-1660.2037 809.1105,-1669.789 816.0731,-1670.5115"/>
</g>
<!-- leaf_17 -->
<g id="node18" class="node">
<title>leaf_17</title>
<polygon fill="none" stroke="#c0c0c0" points="1256.5,-1404.3027 1023.5,-1404.3027 1023.5,-1349.9018 1256.5,-1349.9018 1256.5,-1404.3027"/>
<text text-anchor="middle" x="1140" y="-1389.0023" font-family="Inconsolata" font-size="14.00" fill="#000000">function W.weaveMd(weaver, doc)</text>
<text text-anchor="middle" x="1140" y="-1373.6022" font-family="Inconsolata" font-size="14.00" fill="#000000"> &#160;return doc:toMarkdown()</text>
<text text-anchor="middle" x="1140" y="-1358.2022" font-family="Inconsolata" font-size="14.00" fill="#000000">end</text>
</g>
<!-- codeblock_7&#45;&gt;leaf_17 -->
<g id="edge17" class="edge">
<title>codeblock_7&#45;&gt;leaf_17</title>
<path fill="none" stroke="#000000" stroke-dasharray="5,2" d="M1064.3011,-1696.2679C1076.922,-1643.0553 1114.0398,-1486.5569 1131.1621,-1414.3652"/>
<polygon fill="#000000" stroke="#000000" points="1134.6356,-1414.8858 1133.5379,-1404.348 1127.8246,-1413.2703 1134.6356,-1414.8858"/>
</g>
<!-- header_18 -->
<g id="node19" class="node">
<title>header_18</title>
<ellipse fill="none" stroke="#000000" cx="1340" cy="-1377.1022" rx="65.81" ry="18"/>
<text text-anchor="middle" x="1340" y="-1372.9022" font-family="Helvetica,sans-Serif" font-size="14.00" fill="#000000">3 : .dot to .svg</text>
</g>
<!-- section_8&#45;&gt;header_18 -->
<g id="edge18" class="edge">
<title>section_8&#45;&gt;header_18</title>
<path fill="none" stroke="#000000" stroke-dasharray="5,2" d="M1543.8509,-1704.0934C1495.926,-1694.4609 1433.015,-1678.8244 1415,-1660.4027 1345.6332,-1589.4699 1338.4262,-1462.2235 1338.9302,-1405.61"/>
<polygon fill="#000000" stroke="#000000" points="1342.4357,-1405.3285 1339.1176,-1395.2667 1335.4369,-1405.2016 1342.4357,-1405.3285"/>
</g>
<!-- prose_19 -->
<g id="node20" class="node">
<title>prose_19</title>
<ellipse fill="none" stroke="#000000" cx="1456" cy="-1377.1022" rx="32.4585" ry="18"/>
<text text-anchor="middle" x="1456" y="-1372.9022" font-family="Helvetica,sans-Serif" font-size="14.00" fill="#000000">prose</text>
</g>
<!-- section_8&#45;&gt;prose_19 -->
<g id="edge19" class="edge">
<title>section_8&#45;&gt;prose_19</title>
<path fill="none" stroke="#000000" stroke-dasharray="5,2" d="M1554.5306,-1700.9836C1533.665,-1692.6608 1510.8113,-1679.7588 1497,-1660.4027 1440.9829,-1581.8967 1446.3334,-1459.6161 1452.2015,-1405.0416"/>
<polygon fill="#000000" stroke="#000000" points="1455.6833,-1405.4004 1453.364,-1395.0625 1448.7303,-1404.5903 1455.6833,-1405.4004"/>
</g>
<!-- prose_20 -->
<g id="node21" class="node">
<title>prose_20</title>
<ellipse fill="none" stroke="#000000" cx="1538" cy="-1377.1022" rx="32.4585" ry="18"/>
<text text-anchor="middle" x="1538" y="-1372.9022" font-family="Helvetica,sans-Serif" font-size="14.00" fill="#000000">prose</text>
</g>
<!-- section_8&#45;&gt;prose_20 -->
<g id="edge20" class="edge">
<title>section_8&#45;&gt;prose_20</title>
<path fill="none" stroke="#000000" stroke-dasharray="5,2" d="M1593.346,-1696.2879C1588.7477,-1685.9795 1583.3657,-1672.7058 1580,-1660.4027 1555.0128,-1569.0623 1543.9586,-1456.8296 1539.936,-1405.3449"/>
<polygon fill="#000000" stroke="#000000" points="1543.4215,-1405.0197 1539.1818,-1395.3101 1536.4412,-1405.5443 1543.4215,-1405.0197"/>
</g>
<!-- codeblock_21 -->
<g id="node22" class="node">
<title>codeblock_21</title>
<ellipse fill="none" stroke="#000000" cx="1666" cy="-1377.1022" rx="77.4211" ry="18"/>
<text text-anchor="middle" x="1666" y="-1372.9022" font-family="Helvetica,sans-Serif" font-size="14.00" fill="#000000">code block 63&#45;67</text>
</g>
<!-- section_8&#45;&gt;codeblock_21 -->
<g id="edge21" class="edge">
<title>section_8&#45;&gt;codeblock_21</title>
<path fill="none" stroke="#000000" stroke-dasharray="5,2" d="M1605.4409,-1696.2679C1615.9891,-1640.6756 1647.9269,-1472.353 1660.6682,-1405.2025"/>
<polygon fill="#000000" stroke="#000000" points="1664.1165,-1405.8038 1662.5421,-1395.3266 1657.2392,-1404.4989 1664.1165,-1405.8038"/>
</g>
<!-- codeblock_22 -->
<g id="node23" class="node">
<title>codeblock_22</title>
<ellipse fill="none" stroke="#000000" cx="2062" cy="-1377.1022" rx="82.2579" ry="18"/>
<text text-anchor="middle" x="2062" y="-1372.9022" font-family="Helvetica,sans-Serif" font-size="14.00" fill="#000000">code block 70&#45;133</text>
</g>
<!-- section_8&#45;&gt;codeblock_22 -->
<g id="edge22" class="edge">
<title>section_8&#45;&gt;codeblock_22</title>
<path fill="none" stroke="#000000" stroke-dasharray="5,2" d="M1652.5069,-1701.6494C1682.7005,-1692.7336 1721.0757,-1679.0656 1752,-1660.4027 1875.4973,-1585.8717 1993.2616,-1457.3353 2040.3939,-1402.7817"/>
<polygon fill="#000000" stroke="#000000" points="2043.2302,-1404.851 2047.0853,-1394.9824 2037.9175,-1400.293 2043.2302,-1404.851"/>
</g>
<!-- codeblock_23 -->
<g id="node24" class="node">
<title>codeblock_23</title>
<ellipse fill="none" stroke="#000000" cx="2515" cy="-1377.1022" rx="87.0948" ry="18"/>
<text text-anchor="middle" x="2515" y="-1372.9022" font-family="Helvetica,sans-Serif" font-size="14.00" fill="#000000">code block 136&#45;143</text>
</g>
<!-- section_8&#45;&gt;codeblock_23 -->
<g id="edge23" class="edge">
<title>section_8&#45;&gt;codeblock_23</title>
<path fill="none" stroke="#000000" stroke-dasharray="5,2" d="M1672.2828,-1712.3877C1800.5796,-1707.9106 2067.3945,-1694.6806 2153,-1660.4027 2301.9464,-1600.762 2440.2091,-1460.0736 2492.7074,-1402.4184"/>
<polygon fill="#000000" stroke="#000000" points="2495.4356,-1404.6194 2499.5381,-1394.8511 2490.2394,-1399.929 2495.4356,-1404.6194"/>
</g>
<!-- codeblock_24 -->
<g id="node25" class="node">
<title>codeblock_24</title>
<ellipse fill="none" stroke="#000000" cx="2842" cy="-1377.1022" rx="87.0948" ry="18"/>
<text text-anchor="middle" x="2842" y="-1372.9022" font-family="Helvetica,sans-Serif" font-size="14.00" fill="#000000">code block 145&#45;147</text>
</g>
<!-- section_8&#45;&gt;codeblock_24 -->
<g id="edge24" class="edge">
<title>section_8&#45;&gt;codeblock_24</title>
<path fill="none" stroke="#000000" stroke-dasharray="5,2" d="M1672.6826,-1713.9083C1888.2865,-1711.9458 2527.9643,-1702.5929 2611,-1660.4027 2723.8155,-1603.0814 2801.0318,-1463.1797 2829.6615,-1404.1184"/>
<polygon fill="#000000" stroke="#000000" points="2832.8479,-1405.5675 2833.9889,-1395.0343 2826.5284,-1402.557 2832.8479,-1405.5675"/>
</g>
<!-- leaf_11 -->
<g id="node12" class="node">
<title>leaf_11</title>
<polygon fill="none" stroke="#c0c0c0" points="450,-610.5021 0,-610.5021 0,-538.6997 450,-538.6997 450,-610.5021"/>
<text text-anchor="middle" x="225" y="-547.1009" font-family="Inconsolata" font-size="14.00" fill="#000000">Our weaver is currently somewhat narrowly focused on markdown.</text>
</g>
<!-- raw_10&#45;&gt;leaf_11 -->
<g id="edge11" class="edge">
<title>raw_10&#45;&gt;leaf_11</title>
<path fill="none" stroke="#000000" stroke-dasharray="5,2" d="M479.2769,-1358.9092C474.6844,-1313.4955 460.579,-1191.759 433,-1093.8018 382.0288,-912.7584 289.1167,-708.4521 246.9085,-619.7249"/>
<polygon fill="#000000" stroke="#000000" points="249.968,-618.0094 242.5011,-610.493 243.6509,-621.0253 249.968,-618.0094"/>
</g>
<!-- leaf_13 -->
<g id="node14" class="node">
<title>leaf_13</title>
<polygon fill="none" stroke="#c0c0c0" points="659.5,-594.503 468.5,-594.503 468.5,-554.6988 659.5,-554.6988 659.5,-594.503"/>
<text text-anchor="middle" x="564" y="-563.1009" font-family="Inconsolata" font-size="14.00" fill="#000000">This will change in time.</text>
</g>
<!-- raw_12&#45;&gt;leaf_13 -->
<g id="edge13" class="edge">
<title>raw_12&#45;&gt;leaf_13</title>
<path fill="none" stroke="#000000" stroke-dasharray="5,2" d="M564,-1358.8331C564,-1254.6739 564,-735.8842 564,-604.7514"/>
<polygon fill="#000000" stroke="#000000" points="567.5001,-604.6289 564,-594.6289 560.5001,-604.629 567.5001,-604.6289"/>
</g>
<!-- leaf_15 -->
<g id="node16" class="node">
<title>leaf_15</title>
<polygon fill="none" stroke="#c0c0c0" points="834,-602.5024 678,-602.5024 678,-546.6994 834,-546.6994 834,-602.5024"/>
<text text-anchor="middle" x="756" y="-571.1009" font-family="Inconsolata" font-size="14.00" fill="#000000">Now to activate dot!</text>
</g>
<!-- raw_14&#45;&gt;leaf_15 -->
<g id="edge15" class="edge">
<title>raw_14&#45;&gt;leaf_15</title>
<path fill="none" stroke="#000000" stroke-dasharray="5,2" d="M638.102,-1358.8441C643.3378,-1313.7773 657.5816,-1193.6608 672,-1093.8018 698.0863,-913.1336 734.6551,-698.0192 749.4269,-612.431"/>
<polygon fill="#000000" stroke="#000000" points="752.9046,-612.8596 751.1591,-602.4095 746.0069,-611.6672 752.9046,-612.8596"/>
</g>
<!-- leaf_25 -->
<g id="node26" class="node">
<title>leaf_25</title>
<polygon fill="none" stroke="#c0c0c0" points="1247,-592.6009 1119,-592.6009 1119,-556.6009 1247,-556.6009 1247,-592.6009"/>
<text text-anchor="middle" x="1183" y="-571.1009" font-family="Inconsolata" font-size="14.00" fill="#000000">*** .dot to .svg</text>
</g>
<!-- header_18&#45;&gt;leaf_25 -->
<g id="edge25" class="edge">
<title>header_18&#45;&gt;leaf_25</title>
<path fill="none" stroke="#000000" stroke-dasharray="5,2" d="M1335.2057,-1359.0959C1317.8509,-1293.8866 1259.1582,-1073.0989 1256,-1057.8018 1220.6024,-886.347 1194.8394,-677.3461 1186.1779,-602.728"/>
<polygon fill="#000000" stroke="#000000" points="1189.6459,-602.2484 1185.025,-592.7144 1182.6919,-603.0491 1189.6459,-602.2484"/>
</g>
<!-- raw_26 -->
<g id="node27" class="node">
<title>raw_26</title>
<ellipse fill="none" stroke="#000000" cx="1292" cy="-574.6009" rx="27" ry="18"/>
<text text-anchor="middle" x="1292" y="-570.4009" font-family="Helvetica,sans-Serif" font-size="14.00" fill="#000000">raw</text>
</g>
<!-- prose_19&#45;&gt;raw_26 -->
<g id="edge26" class="edge">
<title>prose_19&#45;&gt;raw_26</title>
<path fill="none" stroke="#000000" stroke-dasharray="5,2" d="M1459.0107,-1358.8627C1465.9856,-1310.1144 1478.161,-1175.0009 1415,-1093.8018 1389.3073,-1060.7715 1352.532,-1091.703 1328,-1057.8018 1224.6397,-914.9664 1266.3934,-682.1296 1284.9294,-602.4021"/>
<polygon fill="#000000" stroke="#000000" points="1288.3489,-603.1511 1287.2705,-592.6113 1281.5409,-601.5232 1288.3489,-603.1511"/>
</g>
<!-- raw_28 -->
<g id="node29" class="node">
<title>raw_28</title>
<ellipse fill="none" stroke="#000000" cx="1364" cy="-574.6009" rx="27" ry="18"/>
<text text-anchor="middle" x="1364" y="-570.4009" font-family="Helvetica,sans-Serif" font-size="14.00" fill="#000000">raw</text>
</g>
<!-- prose_20&#45;&gt;raw_28 -->
<g id="edge28" class="edge">
<title>prose_20&#45;&gt;raw_28</title>
<path fill="none" stroke="#000000" stroke-dasharray="5,2" d="M1541.1211,-1359.087C1548.4922,-1310.3188 1561.807,-1174.013 1497,-1093.8018 1468.1006,-1058.0332 1427.6418,-1094.5509 1400,-1057.8018 1294.0177,-916.9009 1337.4427,-682.831 1356.6709,-602.5929"/>
<polygon fill="#000000" stroke="#000000" points="1360.105,-603.2849 1359.0988,-592.7379 1353.3082,-601.6104 1360.105,-603.2849"/>
</g>
<!-- leaf_30 -->
<g id="node31" class="node">
<title>leaf_30</title>
<polygon fill="none" stroke="#c0c0c0" points="1922.5,-601.8014 1409.5,-601.8014 1409.5,-547.4004 1922.5,-547.4004 1922.5,-601.8014"/>
<text text-anchor="middle" x="1666" y="-586.501" font-family="Inconsolata" font-size="14.00" fill="#000000">local function dotToSvg(dotted, out_file)</text>
<text text-anchor="middle" x="1666" y="-571.1009" font-family="Inconsolata" font-size="14.00" fill="#000000"> &#160;&#160;&#160;return io.popen(&quot;dot &#45;Tsvg &quot; .. tostring(out_file), &quot;r&quot;):read(&quot;*a&quot;)</text>
<text text-anchor="middle" x="1666" y="-555.7009" font-family="Inconsolata" font-size="14.00" fill="#000000">end</text>
</g>
<!-- codeblock_21&#45;&gt;leaf_30 -->
<g id="edge30" class="edge">
<title>codeblock_21&#45;&gt;leaf_30</title>
<path fill="none" stroke="#000000" stroke-dasharray="5,2" d="M1666,-1358.8331C1666,-1256.6248 1666,-755.1733 1666,-612.5228"/>
<polygon fill="#000000" stroke="#000000" points="1669.5001,-612.1177 1666,-602.1177 1662.5001,-612.1177 1669.5001,-612.1177"/>
</g>
<!-- leaf_31 -->
<g id="node32" class="node">
<title>leaf_31</title>
<polygon fill="none" stroke="#c0c0c0" points="2621.5,-1058.0027 1940.5,-1058.0027 1940.5,-91.1991 2621.5,-91.1991 2621.5,-1058.0027"/>
<text text-anchor="middle" x="2281" y="-1042.6018" font-family="Inconsolata" font-size="14.00" fill="#000000">local function weave_dir(weaver, pwd, depth)</text>
<text text-anchor="middle" x="2281" y="-1027.2017" font-family="Inconsolata" font-size="14.00" fill="#000000"> &#160;&#160;&#160;local depth = depth + 1</text>
<text text-anchor="middle" x="2281" y="-1011.8017" font-family="Inconsolata" font-size="14.00" fill="#000000"> &#160;&#160;&#160;for dir_str in pl_dir.walk(pwd, false, false) do</text>
<text text-anchor="middle" x="2281" y="-996.4017" font-family="Inconsolata" font-size="14.00" fill="#000000"> &#160;&#160;&#160;&#160;&#160;&#160;&#160;local dir = Dir(dir_str)</text>
<text text-anchor="middle" x="2281" y="-981.0017" font-family="Inconsolata" font-size="14.00" fill="#000000"> &#160;&#160;&#160;&#160;&#160;&#160;&#160;if not strHas(&quot;.git&quot;, dir.path.str)</text>
<text text-anchor="middle" x="2281" y="-965.6016" font-family="Inconsolata" font-size="14.00" fill="#000000"> &#160;&#160;&#160;&#160;&#160;&#160;&#160;&#160;&#160;&#160;&#160;and not strHas(&quot;src/lib&quot;, dir.path.str) then</text>
<text text-anchor="middle" x="2281" y="-950.2016" font-family="Inconsolata" font-size="14.00" fill="#000000"> &#160;&#160;&#160;&#160;&#160;&#160;&#160;&#160;&#160;&#160;&#160;dir = dir.path.str &#45;&#45; migrate this down</text>
<text text-anchor="middle" x="2281" y="-934.8016" font-family="Inconsolata" font-size="14.00" fill="#000000"> &#160;&#160;&#160;&#160;&#160;&#160;&#160;&#160;&#160;&#160;&#160;local files = getfiles(dir)</text>
<text text-anchor="middle" x="2281" y="-919.4015" font-family="Inconsolata" font-size="14.00" fill="#000000"> &#160;&#160;&#160;&#160;&#160;&#160;&#160;&#160;&#160;&#160;&#160;s:verb((&quot; &#160;&quot;):rep(depth) .. &quot;* &quot; .. dir)</text>
<text text-anchor="middle" x="2281" y="-904.0015" font-family="Inconsolata" font-size="14.00" fill="#000000"> &#160;&#160;&#160;&#160;&#160;&#160;&#160;&#160;&#160;&#160;&#160;local subdirs = getdirectories(dir)</text>
<text text-anchor="middle" x="2281" y="-888.6015" font-family="Inconsolata" font-size="14.00" fill="#000000"> &#160;&#160;&#160;&#160;&#160;&#160;&#160;&#160;&#160;&#160;&#160;for _, f in ipairs(files) do</text>
<text text-anchor="middle" x="2281" y="-873.2014" font-family="Inconsolata" font-size="14.00" fill="#000000"> &#160;&#160;&#160;&#160;&#160;&#160;&#160;&#160;&#160;&#160;&#160;&#160;&#160;&#160;&#160;if extension(f) == &quot;.orb&quot; then</text>
<text text-anchor="middle" x="2281" y="-857.8014" font-family="Inconsolata" font-size="14.00" fill="#000000"> &#160;&#160;&#160;&#160;&#160;&#160;&#160;&#160;&#160;&#160;&#160;&#160;&#160;&#160;&#160;&#160;&#160;&#160;&#160;&#45;&#45; Weave and prepare out directory</text>
<text text-anchor="middle" x="2281" y="-842.4014" font-family="Inconsolata" font-size="14.00" fill="#000000"> &#160;&#160;&#160;&#160;&#160;&#160;&#160;&#160;&#160;&#160;&#160;&#160;&#160;&#160;&#160;&#160;&#160;&#160;&#160;s:verb((&quot; &#160;&quot;):rep(depth) .. &quot; &#160;&#45; &quot; .. f)</text>
<text text-anchor="middle" x="2281" y="-827.0013" font-family="Inconsolata" font-size="14.00" fill="#000000"> &#160;&#160;&#160;&#160;&#160;&#160;&#160;&#160;&#160;&#160;&#160;&#160;&#160;&#160;&#160;&#160;&#160;&#160;&#160;local orb_f = read(f)</text>
<text text-anchor="middle" x="2281" y="-811.6013" font-family="Inconsolata" font-size="14.00" fill="#000000"> &#160;&#160;&#160;&#160;&#160;&#160;&#160;&#160;&#160;&#160;&#160;&#160;&#160;&#160;&#160;&#160;&#160;&#160;&#160;local doc = Doc(orb_f)</text>
<text text-anchor="middle" x="2281" y="-796.2013" font-family="Inconsolata" font-size="14.00" fill="#000000"> &#160;&#160;&#160;&#160;&#160;&#160;&#160;&#160;&#160;&#160;&#160;&#160;&#160;&#160;&#160;&#160;&#160;&#160;&#160;local doc_md_dir = subLastFor(&quot;/orb&quot;, &quot;/doc/md&quot;, dirname(f))</text>
<text text-anchor="middle" x="2281" y="-780.8012" font-family="Inconsolata" font-size="14.00" fill="#000000"> &#160;&#160;&#160;&#160;&#160;&#160;&#160;&#160;&#160;&#160;&#160;&#160;&#160;&#160;&#160;&#160;&#160;&#160;&#160;local doc_dot_dir = subLastFor(&quot;/orb&quot;, &quot;/doc/dot&quot;, dirname(f))</text>
<text text-anchor="middle" x="2281" y="-765.4012" font-family="Inconsolata" font-size="14.00" fill="#000000"> &#160;&#160;&#160;&#160;&#160;&#160;&#160;&#160;&#160;&#160;&#160;&#160;&#160;&#160;&#160;&#160;&#160;&#160;&#160;local doc_svg_dir = subLastFor(&quot;/orb&quot;, &quot;/doc/svg&quot;, dirname(f))</text>
<text text-anchor="middle" x="2281" y="-750.0012" font-family="Inconsolata" font-size="14.00" fill="#000000"> &#160;&#160;&#160;&#160;&#160;&#160;&#160;&#160;&#160;&#160;&#160;&#160;&#160;&#160;&#160;&#160;&#160;&#160;&#160;makepath(doc_md_dir)</text>
<text text-anchor="middle" x="2281" y="-734.6012" font-family="Inconsolata" font-size="14.00" fill="#000000"> &#160;&#160;&#160;&#160;&#160;&#160;&#160;&#160;&#160;&#160;&#160;&#160;&#160;&#160;&#160;&#160;&#160;&#160;&#160;makepath(doc_dot_dir)</text>
<text text-anchor="middle" x="2281" y="-719.2011" font-family="Inconsolata" font-size="14.00" fill="#000000"> &#160;&#160;&#160;&#160;&#160;&#160;&#160;&#160;&#160;&#160;&#160;&#160;&#160;&#160;&#160;&#160;&#160;&#160;&#160;makepath(doc_svg_dir)</text>
<text text-anchor="middle" x="2281" y="-703.8011" font-family="Inconsolata" font-size="14.00" fill="#000000"> &#160;&#160;&#160;&#160;&#160;&#160;&#160;&#160;&#160;&#160;&#160;&#160;&#160;&#160;&#160;&#160;&#160;&#160;&#160;local bare_name = basename(f):sub(1, &#45;5) &#45;&#45; &#160;== #&quot;.orb&quot;</text>
<text text-anchor="middle" x="2281" y="-688.4011" font-family="Inconsolata" font-size="14.00" fill="#000000"> &#160;&#160;&#160;&#160;&#160;&#160;&#160;&#160;&#160;&#160;&#160;&#160;&#160;&#160;&#160;&#160;&#160;&#160;&#160;local out_md_name = doc_md_dir .. &quot;/&quot; .. bare_name .. &quot;.md&quot;</text>
<text text-anchor="middle" x="2281" y="-673.001" font-family="Inconsolata" font-size="14.00" fill="#000000"> &#160;&#160;&#160;&#160;&#160;&#160;&#160;&#160;&#160;&#160;&#160;&#160;&#160;&#160;&#160;&#160;&#160;&#160;&#160;local out_dot_name = doc_dot_dir .. &quot;/&quot; .. bare_name .. &quot;.dot&quot;</text>
<text text-anchor="middle" x="2281" y="-657.601" font-family="Inconsolata" font-size="14.00" fill="#000000"> &#160;&#160;&#160;&#160;&#160;&#160;&#160;&#160;&#160;&#160;&#160;&#160;&#160;&#160;&#160;&#160;&#160;&#160;&#160;local out_svg_name = doc_svg_dir .. &quot;/&quot; .. bare_name .. &quot;.svg&quot;</text>
<text text-anchor="middle" x="2281" y="-642.201" font-family="Inconsolata" font-size="14.00" fill="#000000"> &#160;&#160;&#160;&#160;&#160;&#160;&#160;&#160;&#160;&#160;&#160;&#160;&#160;&#160;&#160;&#160;&#160;&#160;&#160;local woven_md = weaver:weaveMd(doc) or &quot;&quot;</text>
<text text-anchor="middle" x="2281" y="-610.8009" font-family="Inconsolata" font-size="14.00" fill="#000000"> &#160;&#160;&#160;&#160;&#160;&#160;&#160;&#160;&#160;&#160;&#160;&#160;&#160;&#160;&#160;&#160;&#160;&#160;&#160;&#45;&#45; Compare, report, and write out if necessary</text>
<text text-anchor="middle" x="2281" y="-595.4009" font-family="Inconsolata" font-size="14.00" fill="#000000"> &#160;&#160;&#160;&#160;&#160;&#160;&#160;&#160;&#160;&#160;&#160;&#160;&#160;&#160;&#160;&#160;&#160;&#160;&#160;local last_md = read(out_md_name) or &quot;&quot;</text>
<text text-anchor="middle" x="2281" y="-580.0009" font-family="Inconsolata" font-size="14.00" fill="#000000"> &#160;&#160;&#160;&#160;&#160;&#160;&#160;&#160;&#160;&#160;&#160;&#160;&#160;&#160;&#160;&#160;&#160;&#160;&#160;local changed_md = writeOnChange(woven_md, last_md, out_md_name, depth)</text>
<text text-anchor="middle" x="2281" y="-564.6008" font-family="Inconsolata" font-size="14.00" fill="#000000"> &#160;&#160;&#160;&#160;&#160;&#160;&#160;&#160;&#160;&#160;&#160;&#160;&#160;&#160;&#160;&#160;&#160;&#160;&#160;local woven_dot = doc:dot() or &quot;&quot;</text>
<text text-anchor="middle" x="2281" y="-549.2008" font-family="Inconsolata" font-size="14.00" fill="#000000"> &#160;&#160;&#160;&#160;&#160;&#160;&#160;&#160;&#160;&#160;&#160;&#160;&#160;&#160;&#160;&#160;&#160;&#160;&#160;local last_dot = read(out_dot_name) or &quot;&quot;</text>
<text text-anchor="middle" x="2281" y="-533.8008" font-family="Inconsolata" font-size="14.00" fill="#000000"> &#160;&#160;&#160;&#160;&#160;&#160;&#160;&#160;&#160;&#160;&#160;&#160;&#160;&#160;&#160;&#160;&#160;&#160;&#160;local changed_dot = writeOnChange(woven_dot, last_dot, out_dot_name, depth)</text>
<text text-anchor="middle" x="2281" y="-502.4007" font-family="Inconsolata" font-size="14.00" fill="#000000"> &#160;&#160;&#160;&#160;&#160;&#160;&#160;&#160;&#160;&#160;&#160;&#160;&#160;&#160;&#160;&#160;&#160;&#160;&#160;&#45;&#45; SVG call is fairly slow and only useful of the dot has changed</text>
<text text-anchor="middle" x="2281" y="-487.0007" font-family="Inconsolata" font-size="14.00" fill="#000000"> &#160;&#160;&#160;&#160;&#160;&#160;&#160;&#160;&#160;&#160;&#160;&#160;&#160;&#160;&#160;&#160;&#160;&#160;&#160;if changed_dot then</text>
<text text-anchor="middle" x="2281" y="-471.6007" font-family="Inconsolata" font-size="14.00" fill="#000000"> &#160;&#160;&#160;&#160;&#160;&#160;&#160;&#160;&#160;&#160;&#160;&#160;&#160;&#160;&#160;&#160;&#160;&#160;&#160;&#160;&#160;&#160;&#160;local woven_svg = dotToSvg(woven_dot, out_dot_name)</text>
<text text-anchor="middle" x="2281" y="-456.2007" font-family="Inconsolata" font-size="14.00" fill="#000000"> &#160;&#160;&#160;&#160;&#160;&#160;&#160;&#160;&#160;&#160;&#160;&#160;&#160;&#160;&#160;&#160;&#160;&#160;&#160;&#160;&#160;&#160;&#160;local last_svg = read(out_svg_name) or &quot;&quot;</text>
<text text-anchor="middle" x="2281" y="-440.8006" font-family="Inconsolata" font-size="14.00" fill="#000000"> &#160;&#160;&#160;&#160;&#160;&#160;&#160;&#160;&#160;&#160;&#160;&#160;&#160;&#160;&#160;&#160;&#160;&#160;&#160;&#160;&#160;&#160;&#160;writeOnChange(woven_svg, last_svg, out_svg_name, depth)</text>
<text text-anchor="middle" x="2281" y="-425.4006" font-family="Inconsolata" font-size="14.00" fill="#000000"> &#160;&#160;&#160;&#160;&#160;&#160;&#160;&#160;&#160;&#160;&#160;&#160;&#160;&#160;&#160;&#160;&#160;&#160;&#160;end</text>
<text text-anchor="middle" x="2281" y="-410.0006" font-family="Inconsolata" font-size="14.00" fill="#000000"> &#160;&#160;&#160;&#160;&#160;&#160;&#160;&#160;&#160;&#160;&#160;&#160;&#160;&#160;&#160;end</text>
<text text-anchor="middle" x="2281" y="-394.6005" font-family="Inconsolata" font-size="14.00" fill="#000000"> &#160;&#160;&#160;&#160;&#160;&#160;&#160;&#160;&#160;&#160;&#160;end</text>
<text text-anchor="middle" x="2281" y="-379.2005" font-family="Inconsolata" font-size="14.00" fill="#000000"> &#160;&#160;&#160;&#160;&#160;&#160;&#160;end</text>
<text text-anchor="middle" x="2281" y="-363.8005" font-family="Inconsolata" font-size="14.00" fill="#000000"> &#160;&#160;&#160;end</text>
<text text-anchor="middle" x="2281" y="-332.4004" font-family="Inconsolata" font-size="14.00" fill="#000000"> &#160;&#160;&#160;return true</text>
<text text-anchor="middle" x="2281" y="-317.0004" font-family="Inconsolata" font-size="14.00" fill="#000000">end</text>
<text text-anchor="middle" x="2281" y="-285.6004" font-family="Inconsolata" font-size="14.00" fill="#000000">local function weave_all(weaver, pwd)</text>
<text text-anchor="middle" x="2281" y="-270.2003" font-family="Inconsolata" font-size="14.00" fill="#000000"> &#160;&#160;&#160;for dir in pl_dir.walk(pwd, false, false) do</text>
<text text-anchor="middle" x="2281" y="-254.8003" font-family="Inconsolata" font-size="14.00" fill="#000000"> &#160;&#160;&#160;&#160;&#160;&#160;&#160;if not strHas(&quot;.git&quot;, dir) and isdir(dir)</text>
<text text-anchor="middle" x="2281" y="-239.4003" font-family="Inconsolata" font-size="14.00" fill="#000000"> &#160;&#160;&#160;&#160;&#160;&#160;&#160;&#160;&#160;&#160;&#160;and endsWith(&quot;orb&quot;, dir) then</text>
<text text-anchor="middle" x="2281" y="-224.0002" font-family="Inconsolata" font-size="14.00" fill="#000000"> &#160;&#160;&#160;&#160;&#160;&#160;&#160;&#160;&#160;&#160;&#160;s:chat(a.cyan(&quot;Weave: &quot; .. dir))</text>
<text text-anchor="middle" x="2281" y="-208.6002" font-family="Inconsolata" font-size="14.00" fill="#000000"> &#160;&#160;&#160;&#160;&#160;&#160;&#160;&#160;&#160;&#160;&#160;return weave_dir(weaver, dir, 0)</text>
<text text-anchor="middle" x="2281" y="-193.2002" font-family="Inconsolata" font-size="14.00" fill="#000000"> &#160;&#160;&#160;&#160;&#160;&#160;&#160;end</text>
<text text-anchor="middle" x="2281" y="-177.8002" font-family="Inconsolata" font-size="14.00" fill="#000000"> &#160;&#160;&#160;end</text>
<text text-anchor="middle" x="2281" y="-146.4001" font-family="Inconsolata" font-size="14.00" fill="#000000"> &#160;&#160;&#160;return false</text>
<text text-anchor="middle" x="2281" y="-131.0001" font-family="Inconsolata" font-size="14.00" fill="#000000">end</text>
<text text-anchor="middle" x="2281" y="-99.6001" font-family="Inconsolata" font-size="14.00" fill="#000000">W.weave_all = weave_all</text>
</g>
<!-- codeblock_22&#45;&gt;leaf_31 -->
<g id="edge31" class="edge">
<title>codeblock_22&#45;&gt;leaf_31</title>
<path fill="none" stroke="#000000" stroke-dasharray="5,2" d="M2066.9856,-1358.8331C2078.9192,-1315.1035 2110.797,-1198.291 2146.4171,-1067.765"/>
<polygon fill="#000000" stroke="#000000" points="2149.8419,-1068.5096 2149.0981,-1057.9409 2143.0888,-1066.6666 2149.8419,-1068.5096"/>
</g>
<!-- leaf_32 -->
<g id="node33" class="node">
<title>leaf_32</title>
<polygon fill="none" stroke="#c0c0c0" points="2922,-625.2018 2640,-625.2018 2640,-524 2922,-524 2922,-625.2018"/>
<text text-anchor="middle" x="2781" y="-610.201" font-family="Inconsolata" font-size="14.00" fill="#000000">local function new(Weaver, doc)</text>
<text text-anchor="middle" x="2781" y="-594.8009" font-family="Inconsolata" font-size="14.00" fill="#000000"> &#160;&#160;&#160;local weaver = setmetatable({}, W)</text>
<text text-anchor="middle" x="2781" y="-547.4009" font-family="Inconsolata" font-size="14.00" fill="#000000"> &#160;&#160;&#160;return weaver</text>
<text text-anchor="middle" x="2781" y="-532.0009" font-family="Inconsolata" font-size="14.00" fill="#000000">end</text>
</g>
<!-- codeblock_23&#45;&gt;leaf_32 -->
<g id="edge32" class="edge">
<title>codeblock_23&#45;&gt;leaf_32</title>
<path fill="none" stroke="#000000" stroke-dasharray="5,2" d="M2521.8877,-1358.8406C2540.1805,-1310.1601 2591.2315,-1173.1295 2630,-1057.8018 2680.866,-906.4867 2735.565,-726.6494 2763.0526,-634.9332"/>
<polygon fill="#000000" stroke="#000000" points="2766.4321,-635.8479 2765.9474,-625.2642 2759.7262,-633.8402 2766.4321,-635.8479"/>
</g>
<!-- leaf_33 -->
<g id="node34" class="node">
<title>leaf_33</title>
<polygon fill="none" stroke="#c0c0c0" points="3012,-592.6009 2940,-592.6009 2940,-556.6009 3012,-556.6009 3012,-592.6009"/>
<text text-anchor="middle" x="2976" y="-571.1009" font-family="Inconsolata" font-size="14.00" fill="#000000">return W</text>
</g>
<!-- codeblock_24&#45;&gt;leaf_33 -->
<g id="edge33" class="edge">
<title>codeblock_24&#45;&gt;leaf_33</title>
<path fill="none" stroke="#000000" stroke-dasharray="5,2" d="M2848.2787,-1359.013C2864.7569,-1310.7545 2909.4506,-1174.6666 2931,-1057.8018 2962.5268,-886.8288 2972.4666,-677.533 2975.1362,-602.7824"/>
<polygon fill="#000000" stroke="#000000" points="2978.6354,-602.8642 2975.4791,-592.7505 2971.6395,-602.6251 2978.6354,-602.8642"/>
</g>
<!-- leaf_27 -->
<g id="node28" class="node">
<title>leaf_27</title>
<polygon fill="none" stroke="#c0c0c0" points="1281,-55.6015 1153,-55.6015 1153,.2015 1281,.2015 1281,-55.6015"/>
<text text-anchor="middle" x="1217" y="-8.2" font-family="Inconsolata" font-size="14.00" fill="#000000"> &#160;Stripped down:</text>
</g>
<!-- raw_26&#45;&gt;leaf_27 -->
<g id="edge27" class="edge">
<title>raw_26&#45;&gt;leaf_27</title>
<path fill="none" stroke="#000000" stroke-dasharray="5,2" d="M1293.6479,-556.4712C1298.9328,-491.5259 1312.0115,-265.1381 1256,-91.4 1252.9879,-82.057 1248.3468,-72.6694 1243.3035,-64.0805"/>
<polygon fill="#000000" stroke="#000000" points="1246.1988,-62.108 1237.9538,-55.4544 1240.25,-65.7975 1246.1988,-62.108"/>
</g>
<!-- leaf_29 -->
<g id="node30" class="node">
<title>leaf_29</title>
<polygon fill="none" stroke="#c0c0c0" points="1581,-47.6021 1299,-47.6021 1299,-7.7979 1581,-7.7979 1581,-47.6021"/>
<text text-anchor="middle" x="1440" y="-16.2" font-family="Inconsolata" font-size="14.00" fill="#000000"> &#160;&#45; [ ] #todo add error checking here.</text>
</g>
<!-- raw_28&#45;&gt;leaf_29 -->
<g id="edge29" class="edge">
<title>raw_28&#45;&gt;leaf_29</title>
<path fill="none" stroke="#000000" stroke-dasharray="5,2" d="M1362.2836,-556.4489C1356.7674,-491.4283 1343.0044,-264.8178 1400,-91.4 1404.0773,-78.9943 1411.0727,-66.5606 1418.0843,-56.0139"/>
<polygon fill="#000000" stroke="#000000" points="1421.0727,-57.8472 1423.9142,-47.6405 1415.3279,-53.8474 1421.0727,-57.8472"/>
</g>
</g>
</svg>
