<?xml version="1.0" encoding="UTF-8" standalone="no"?>
<!DOCTYPE svg PUBLIC "-//W3C//DTD SVG 1.1//EN"
 "http://www.w3.org/Graphics/SVG/1.1/DTD/svg11.dtd">
<!-- Generated by graphviz version 2.40.1 (20161225.0304)
 -->
<!-- Title: lpegNode Pages: 1 -->
<svg width="1148pt" height="351pt"
 viewBox="0.00 0.00 1147.50 351.40" xmlns="http://www.w3.org/2000/svg" xmlns:xlink="http://www.w3.org/1999/xlink">
<g id="graph0" class="graph" transform="scale(1 1) rotate(0) translate(4 347.4)">
<title>lpegNode</title>
<polygon fill="#ffffff" stroke="transparent" points="-4,4 -4,-347.4 1143.5,-347.4 1143.5,4 -4,4"/>
<!-- doc_0 -->
<g id="node1" class="node">
<title>doc_0</title>
<ellipse fill="none" stroke="#000000" cx="643" cy="-325.4" rx="42.1216" ry="18"/>
<text text-anchor="middle" x="643" y="-321.2" font-family="Helvetica,sans-Serif" font-size="14.00" fill="#000000">doc &#45; 18</text>
</g>
<!-- section_1 -->
<g id="node2" class="node">
<title>section_1</title>
<ellipse fill="none" stroke="#000000" cx="643" cy="-253.4" rx="60.9826" ry="18"/>
<text text-anchor="middle" x="643" y="-249.2" font-family="Helvetica,sans-Serif" font-size="14.00" fill="#000000">section: 1&#45;18</text>
</g>
<!-- doc_0&#45;&gt;section_1 -->
<g id="edge1" class="edge">
<title>doc_0&#45;&gt;section_1</title>
<path fill="none" stroke="#000000" stroke-dasharray="5,2" d="M643,-307.2314C643,-299.531 643,-290.3744 643,-281.8167"/>
<polygon fill="#000000" stroke="#000000" points="646.5001,-281.8133 643,-271.8133 639.5001,-281.8133 646.5001,-281.8133"/>
</g>
<!-- header_2 -->
<g id="node3" class="node">
<title>header_2</title>
<ellipse fill="none" stroke="#000000" cx="251" cy="-181.4" rx="46.9581" ry="18"/>
<text text-anchor="middle" x="251" y="-177.2" font-family="Helvetica,sans-Serif" font-size="14.00" fill="#000000">1 : loader</text>
</g>
<!-- section_1&#45;&gt;header_2 -->
<g id="edge2" class="edge">
<title>section_1&#45;&gt;header_2</title>
<path fill="none" stroke="#000000" stroke-dasharray="5,2" d="M591.3497,-243.9133C516.5915,-230.1821 378.9636,-204.9036 303.6496,-191.0704"/>
<polygon fill="#000000" stroke="#000000" points="303.9169,-187.561 293.4491,-189.1968 302.6523,-194.4458 303.9169,-187.561"/>
</g>
<!-- prose_3 -->
<g id="node4" class="node">
<title>prose_3</title>
<ellipse fill="none" stroke="#000000" cx="433" cy="-181.4" rx="32.4585" ry="18"/>
<text text-anchor="middle" x="433" y="-177.2" font-family="Helvetica,sans-Serif" font-size="14.00" fill="#000000">prose</text>
</g>
<!-- section_1&#45;&gt;prose_3 -->
<g id="edge3" class="edge">
<title>section_1&#45;&gt;prose_3</title>
<path fill="none" stroke="#000000" stroke-dasharray="5,2" d="M603.0063,-239.6879C564.6627,-226.5415 507.2512,-206.8576 469.9564,-194.0708"/>
<polygon fill="#000000" stroke="#000000" points="471.0628,-190.7502 460.4682,-190.8177 468.7925,-197.3718 471.0628,-190.7502"/>
</g>
<!-- prose_4 -->
<g id="node5" class="node">
<title>prose_4</title>
<ellipse fill="none" stroke="#000000" cx="582" cy="-181.4" rx="32.4585" ry="18"/>
<text text-anchor="middle" x="582" y="-177.2" font-family="Helvetica,sans-Serif" font-size="14.00" fill="#000000">prose</text>
</g>
<!-- section_1&#45;&gt;prose_4 -->
<g id="edge4" class="edge">
<title>section_1&#45;&gt;prose_4</title>
<path fill="none" stroke="#000000" stroke-dasharray="5,2" d="M627.9213,-235.6023C620.3139,-226.623 610.9694,-215.5934 602.7003,-205.8331"/>
<polygon fill="#000000" stroke="#000000" points="605.2035,-203.3733 596.0688,-198.0059 599.8626,-207.8982 605.2035,-203.3733"/>
</g>
<!-- codeblock_5 -->
<g id="node6" class="node">
<title>codeblock_5</title>
<ellipse fill="none" stroke="#000000" cx="714" cy="-181.4" rx="72.5844" ry="18"/>
<text text-anchor="middle" x="714" y="-177.2" font-family="Helvetica,sans-Serif" font-size="14.00" fill="#000000">code block 8&#45;10</text>
</g>
<!-- section_1&#45;&gt;codeblock_5 -->
<g id="edge5" class="edge">
<title>section_1&#45;&gt;codeblock_5</title>
<path fill="none" stroke="#000000" stroke-dasharray="5,2" d="M660.1871,-235.9708C669.0172,-227.0164 679.9289,-215.951 689.6133,-206.1302"/>
<polygon fill="#000000" stroke="#000000" points="692.1957,-208.4962 696.7251,-198.9183 687.2115,-203.5811 692.1957,-208.4962"/>
</g>
<!-- codeblock_6 -->
<g id="node7" class="node">
<title>codeblock_6</title>
<ellipse fill="none" stroke="#000000" cx="886" cy="-181.4" rx="77.4211" ry="18"/>
<text text-anchor="middle" x="886" y="-177.2" font-family="Helvetica,sans-Serif" font-size="14.00" fill="#000000">code block 12&#45;14</text>
</g>
<!-- section_1&#45;&gt;codeblock_6 -->
<g id="edge6" class="edge">
<title>section_1&#45;&gt;codeblock_6</title>
<path fill="none" stroke="#000000" stroke-dasharray="5,2" d="M686.1635,-240.6108C725.7233,-228.8894 784.598,-211.4451 828.2059,-198.5242"/>
<polygon fill="#000000" stroke="#000000" points="829.2295,-201.8714 837.8231,-195.6747 827.2408,-195.1598 829.2295,-201.8714"/>
</g>
<!-- codeblock_7 -->
<g id="node8" class="node">
<title>codeblock_7</title>
<ellipse fill="none" stroke="#000000" cx="1061" cy="-181.4" rx="77.4211" ry="18"/>
<text text-anchor="middle" x="1061" y="-177.2" font-family="Helvetica,sans-Serif" font-size="14.00" fill="#000000">code block 16&#45;18</text>
</g>
<!-- section_1&#45;&gt;codeblock_7 -->
<g id="edge7" class="edge">
<title>section_1&#45;&gt;codeblock_7</title>
<path fill="none" stroke="#000000" stroke-dasharray="5,2" d="M697.248,-245.1239C762.5533,-235.0159 875.4943,-217.0727 972,-199.4 978.7719,-198.1599 985.8234,-196.8191 992.8621,-195.448"/>
<polygon fill="#000000" stroke="#000000" points="993.996,-198.792 1003.1312,-193.4257 992.6434,-191.9239 993.996,-198.792"/>
</g>
<!-- leaf_8 -->
<g id="node9" class="node">
<title>leaf_8</title>
<polygon fill="none" stroke="#c0c0c0" points="201,-127.4 129,-127.4 129,-91.4 201,-91.4 201,-127.4"/>
<text text-anchor="middle" x="165" y="-105.9" font-family="Inconsolata" font-size="14.00" fill="#000000">* loader</text>
</g>
<!-- header_2&#45;&gt;leaf_8 -->
<g id="edge8" class="edge">
<title>header_2&#45;&gt;leaf_8</title>
<path fill="none" stroke="#000000" stroke-dasharray="5,2" d="M231.0537,-164.7008C220.1451,-155.5681 206.4262,-144.0824 194.3215,-133.9483"/>
<polygon fill="#000000" stroke="#000000" points="196.5603,-131.2579 186.6459,-127.5222 192.0667,-136.6252 196.5603,-131.2579"/>
</g>
<!-- raw_9 -->
<g id="node10" class="node">
<title>raw_9</title>
<ellipse fill="none" stroke="#000000" cx="246" cy="-109.4" rx="27" ry="18"/>
<text text-anchor="middle" x="246" y="-105.2" font-family="Helvetica,sans-Serif" font-size="14.00" fill="#000000">raw</text>
</g>
<!-- prose_3&#45;&gt;raw_9 -->
<g id="edge9" class="edge">
<title>prose_3&#45;&gt;raw_9</title>
<path fill="none" stroke="#000000" stroke-dasharray="5,2" d="M404.7815,-172.4372C374.1521,-162.4486 323.9919,-145.3297 282,-127.4 280.2167,-126.6386 278.3969,-125.8307 276.5697,-124.9954"/>
<polygon fill="#000000" stroke="#000000" points="278.0375,-121.8178 267.504,-120.6786 275.028,-128.1379 278.0375,-121.8178"/>
</g>
<!-- prespace_10 -->
<g id="node11" class="node">
<title>prespace_10</title>
<ellipse fill="none" stroke="#000000" cx="337" cy="-109.4" rx="46.4736" ry="18"/>
<text text-anchor="middle" x="337" y="-105.2" font-family="Helvetica,sans-Serif" font-size="14.00" fill="#000000">prespace</text>
</g>
<!-- prose_3&#45;&gt;prespace_10 -->
<g id="edge10" class="edge">
<title>prose_3&#45;&gt;prespace_10</title>
<path fill="none" stroke="#000000" stroke-dasharray="5,2" d="M413.573,-166.8298C400.0746,-156.706 381.8362,-143.0272 366.5453,-131.559"/>
<polygon fill="#000000" stroke="#000000" points="368.5024,-128.6519 358.4024,-125.4518 364.3024,-134.2519 368.5024,-128.6519"/>
</g>
<!-- literal_11 -->
<g id="node12" class="node">
<title>literal_11</title>
<ellipse fill="none" stroke="#000000" cx="433" cy="-109.4" rx="31.481" ry="18"/>
<text text-anchor="middle" x="433" y="-105.2" font-family="Helvetica,sans-Serif" font-size="14.00" fill="#000000">literal</text>
</g>
<!-- prose_3&#45;&gt;literal_11 -->
<g id="edge11" class="edge">
<title>prose_3&#45;&gt;literal_11</title>
<path fill="none" stroke="#000000" stroke-dasharray="5,2" d="M433,-163.2314C433,-155.531 433,-146.3744 433,-137.8167"/>
<polygon fill="#000000" stroke="#000000" points="436.5001,-137.8133 433,-127.8133 429.5001,-137.8133 436.5001,-137.8133"/>
</g>
<!-- raw_12 -->
<g id="node13" class="node">
<title>raw_12</title>
<ellipse fill="none" stroke="#000000" cx="509" cy="-109.4" rx="27" ry="18"/>
<text text-anchor="middle" x="509" y="-105.2" font-family="Helvetica,sans-Serif" font-size="14.00" fill="#000000">raw</text>
</g>
<!-- prose_3&#45;&gt;raw_12 -->
<g id="edge12" class="edge">
<title>prose_3&#45;&gt;raw_12</title>
<path fill="none" stroke="#000000" stroke-dasharray="5,2" d="M449.4909,-165.7771C460.1629,-155.6668 474.2097,-142.3593 485.976,-131.2122"/>
<polygon fill="#000000" stroke="#000000" points="488.468,-133.6727 493.3204,-124.2543 483.6538,-128.591 488.468,-133.6727"/>
</g>
<!-- raw_17 -->
<g id="node18" class="node">
<title>raw_17</title>
<ellipse fill="none" stroke="#000000" cx="581" cy="-109.4" rx="27" ry="18"/>
<text text-anchor="middle" x="581" y="-105.2" font-family="Helvetica,sans-Serif" font-size="14.00" fill="#000000">raw</text>
</g>
<!-- prose_4&#45;&gt;raw_17 -->
<g id="edge17" class="edge">
<title>prose_4&#45;&gt;raw_17</title>
<path fill="none" stroke="#000000" stroke-dasharray="5,2" d="M581.7477,-163.2314C581.6407,-155.531 581.5135,-146.3744 581.3947,-137.8167"/>
<polygon fill="#000000" stroke="#000000" points="584.8944,-137.7637 581.2557,-127.8133 577.8951,-137.861 584.8944,-137.7637"/>
</g>
<!-- leaf_19 -->
<g id="node20" class="node">
<title>leaf_19</title>
<polygon fill="none" stroke="#c0c0c0" points="838,-127.4 626,-127.4 626,-91.4 838,-91.4 838,-127.4"/>
<text text-anchor="middle" x="732" y="-105.9" font-family="Inconsolata" font-size="14.00" fill="#000000">local sql = require &quot;sqlite&quot;</text>
</g>
<!-- codeblock_5&#45;&gt;leaf_19 -->
<g id="edge19" class="edge">
<title>codeblock_5&#45;&gt;leaf_19</title>
<path fill="none" stroke="#000000" stroke-dasharray="5,2" d="M718.5422,-163.2314C720.4884,-155.4464 722.8068,-146.173 724.9663,-137.5348"/>
<polygon fill="#000000" stroke="#000000" points="728.3668,-138.3636 727.3967,-127.8133 721.5758,-136.6658 728.3668,-138.3636"/>
</g>
<!-- leaf_20 -->
<g id="node21" class="node">
<title>leaf_20</title>
<polygon fill="none" stroke="#c0c0c0" points="991.5,-127.4 856.5,-127.4 856.5,-91.4 991.5,-91.4 991.5,-127.4"/>
<text text-anchor="middle" x="924" y="-105.9" font-family="Inconsolata" font-size="14.00" fill="#000000">local Loader = {}</text>
</g>
<!-- codeblock_6&#45;&gt;leaf_20 -->
<g id="edge20" class="edge">
<title>codeblock_6&#45;&gt;leaf_20</title>
<path fill="none" stroke="#000000" stroke-dasharray="5,2" d="M895.589,-163.2314C899.8317,-155.1925 904.9121,-145.5666 909.596,-136.6918"/>
<polygon fill="#000000" stroke="#000000" points="912.7096,-138.2908 914.2819,-127.8133 906.5189,-135.0235 912.7096,-138.2908"/>
</g>
<!-- leaf_21 -->
<g id="node22" class="node">
<title>leaf_21</title>
<polygon fill="none" stroke="#c0c0c0" points="1116.5,-127.4 1009.5,-127.4 1009.5,-91.4 1116.5,-91.4 1116.5,-127.4"/>
<text text-anchor="middle" x="1063" y="-105.9" font-family="Inconsolata" font-size="14.00" fill="#000000">return Loader</text>
</g>
<!-- codeblock_7&#45;&gt;leaf_21 -->
<g id="edge21" class="edge">
<title>codeblock_7&#45;&gt;leaf_21</title>
<path fill="none" stroke="#000000" stroke-dasharray="5,2" d="M1061.5047,-163.2314C1061.7186,-155.531 1061.9729,-146.3744 1062.2106,-137.8167"/>
<polygon fill="#000000" stroke="#000000" points="1065.7094,-137.9067 1062.4885,-127.8133 1058.7121,-137.7122 1065.7094,-137.9067"/>
</g>
<!-- leaf_13 -->
<g id="node14" class="node">
<title>leaf_13</title>
<polygon fill="none" stroke="#c0c0c0" points="282,-55.6015 0,-55.6015 0,.2015 282,.2015 282,-55.6015"/>
<text text-anchor="middle" x="141" y="-8.2" font-family="Inconsolata" font-size="14.00" fill="#000000">This is ultimately something to add to</text>
</g>
<!-- raw_9&#45;&gt;leaf_13 -->
<g id="edge13" class="edge">
<title>raw_9&#45;&gt;leaf_13</title>
<path fill="none" stroke="#000000" stroke-dasharray="5,2" d="M228.1882,-95.5407C216.34,-86.3217 200.2253,-73.783 185.0725,-61.9926"/>
<polygon fill="#000000" stroke="#000000" points="186.828,-58.9239 176.7864,-55.5452 182.5293,-64.4485 186.828,-58.9239"/>
</g>
<!-- leaf_14 -->
<g id="node15" class="node">
<title>leaf_14</title>
<polygon fill="none" stroke="#c0c0c0" points="354,-45.7 300,-45.7 300,-9.7 354,-9.7 354,-45.7"/>
<text text-anchor="middle" x="327" y="-24.2" font-family="Inconsolata" font-size="14.00" fill="#000000"> </text>
</g>
<!-- prespace_10&#45;&gt;leaf_14 -->
<g id="edge14" class="edge">
<title>prespace_10&#45;&gt;leaf_14</title>
<path fill="none" stroke="#000000" stroke-dasharray="5,2" d="M334.7807,-91.2681C333.5119,-80.9023 331.8929,-67.6748 330.4606,-55.973"/>
<polygon fill="#000000" stroke="#000000" points="333.9022,-55.2819 329.2131,-45.7812 326.9541,-56.1324 333.9022,-55.2819"/>
</g>
<!-- leaf_15 -->
<g id="node16" class="node">
<title>leaf_15</title>
<polygon fill="none" stroke="#c0c0c0" points="493.5,-45.7 372.5,-45.7 372.5,-9.7 493.5,-9.7 493.5,-45.7"/>
<text text-anchor="middle" x="433" y="-24.2" font-family="Inconsolata" font-size="14.00" fill="#000000">package.loaders</text>
</g>
<!-- literal_11&#45;&gt;leaf_15 -->
<g id="edge15" class="edge">
<title>literal_11&#45;&gt;leaf_15</title>
<path fill="none" stroke="#000000" stroke-dasharray="5,2" d="M433,-91.2681C433,-80.9023 433,-67.6748 433,-55.973"/>
<polygon fill="#000000" stroke="#000000" points="436.5001,-55.7812 433,-45.7812 429.5001,-55.7812 436.5001,-55.7812"/>
</g>
<!-- leaf_16 -->
<g id="node17" class="node">
<title>leaf_16</title>
<polygon fill="none" stroke="#c0c0c0" points="566,-45.7 512,-45.7 512,-9.7 566,-9.7 566,-45.7"/>
<text text-anchor="middle" x="539" y="-24.2" font-family="Inconsolata" font-size="14.00" fill="#000000">.</text>
</g>
<!-- raw_12&#45;&gt;leaf_16 -->
<g id="edge16" class="edge">
<title>raw_12&#45;&gt;leaf_16</title>
<path fill="none" stroke="#000000" stroke-dasharray="5,2" d="M515.5096,-91.6723C519.387,-81.1129 524.3929,-67.4799 528.7868,-55.514"/>
<polygon fill="#000000" stroke="#000000" points="532.1339,-56.5524 532.2954,-45.9588 525.5629,-54.1395 532.1339,-56.5524"/>
</g>
<!-- leaf_18 -->
<g id="node19" class="node">
<title>leaf_18</title>
<polygon fill="none" stroke="#c0c0c0" points="1139.5,-55.0004 584.5,-55.0004 584.5,-.3996 1139.5,-.3996 1139.5,-55.0004"/>
<text text-anchor="middle" x="862" y="-23.9" font-family="Inconsolata" font-size="14.00" fill="#000000">I need to add a bunch of database manipulation here, so it will probably also</text>
<text text-anchor="middle" x="862" y="-8.5" font-family="Inconsolata" font-size="14.00" fill="#000000">have the parts of the compiler which write changes to the database.</text>
</g>
<!-- raw_17&#45;&gt;leaf_18 -->
<g id="edge18" class="edge">
<title>raw_17&#45;&gt;leaf_18</title>
<path fill="none" stroke="#000000" stroke-dasharray="5,2" d="M601.991,-97.9848C606.8352,-95.6103 612.0279,-93.2659 617,-91.4 651.6961,-78.3796 690.1164,-67.0256 726.0434,-57.6528"/>
<polygon fill="#000000" stroke="#000000" points="727.2939,-60.945 736.1053,-55.062 725.5484,-54.1661 727.2939,-60.945"/>
</g>
</g>
</svg>
