<?xml version="1.0" encoding="UTF-8" standalone="no"?>
<!DOCTYPE svg PUBLIC "-//W3C//DTD SVG 1.1//EN"
 "http://www.w3.org/Graphics/SVG/1.1/DTD/svg11.dtd">
<!-- Generated by graphviz version 2.40.1 (20161225.0304)
 -->
<!-- Title: hierarchy Pages: 1 -->
<svg width="2161pt" height="1465pt"
 viewBox="0.00 0.00 2161.17 1464.60" xmlns="http://www.w3.org/2000/svg" xmlns:xlink="http://www.w3.org/1999/xlink">
<g id="graph0" class="graph" transform="scale(1 1) rotate(0) translate(4 1460.6018)">
<title>hierarchy</title>
<polygon fill="#ffffff" stroke="transparent" points="-4,4 -4,-1460.6018 2157.1655,-1460.6018 2157.1655,4 -4,4"/>
<!-- doc_0 -->
<g id="node1" class="node">
<title>doc_0</title>
<ellipse fill="none" stroke="#000000" cx="722.6655" cy="-1438.6018" rx="46.9581" ry="18"/>
<text text-anchor="middle" x="722.6655" y="-1434.4018" font-family="Helvetica,sans-Serif" font-size="14.00" fill="#000000">doc &#45; 159</text>
</g>
<!-- section_1 -->
<g id="node2" class="node">
<title>section_1</title>
<ellipse fill="none" stroke="#000000" cx="722.6655" cy="-1366.6018" rx="65.8187" ry="18"/>
<text text-anchor="middle" x="722.6655" y="-1362.4018" font-family="Helvetica,sans-Serif" font-size="14.00" fill="#000000">section: 1&#45;159</text>
</g>
<!-- doc_0&#45;&gt;section_1 -->
<g id="edge1" class="edge">
<title>doc_0&#45;&gt;section_1</title>
<path fill="none" stroke="#000000" stroke-dasharray="5,2" d="M722.6655,-1420.4332C722.6655,-1412.7328 722.6655,-1403.5762 722.6655,-1395.0185"/>
<polygon fill="#000000" stroke="#000000" points="726.1656,-1395.0151 722.6655,-1385.0151 719.1656,-1395.0151 726.1656,-1395.0151"/>
</g>
<!-- header_2 -->
<g id="node3" class="node">
<title>header_2</title>
<ellipse fill="none" stroke="#000000" cx="174.6655" cy="-1294.6018" rx="27" ry="18"/>
<text text-anchor="middle" x="174.6655" y="-1290.4018" font-family="Helvetica,sans-Serif" font-size="14.00" fill="#000000">0 : </text>
</g>
<!-- section_1&#45;&gt;header_2 -->
<g id="edge2" class="edge">
<title>section_1&#45;&gt;header_2</title>
<path fill="none" stroke="#000000" stroke-dasharray="5,2" d="M658.1081,-1362.678C539.8458,-1355.0132 293.0261,-1336.6746 210.6655,-1312.6018 208.5402,-1311.9806 206.3894,-1311.2374 204.2521,-1310.412"/>
<polygon fill="#000000" stroke="#000000" points="205.6517,-1307.204 195.0882,-1306.3893 202.838,-1313.6137 205.6517,-1307.204"/>
</g>
<!-- prose_3 -->
<g id="node4" class="node">
<title>prose_3</title>
<ellipse fill="none" stroke="#000000" cx="251.6655" cy="-1294.6018" rx="32.4585" ry="18"/>
<text text-anchor="middle" x="251.6655" y="-1290.4018" font-family="Helvetica,sans-Serif" font-size="14.00" fill="#000000">prose</text>
</g>
<!-- section_1&#45;&gt;prose_3 -->
<g id="edge3" class="edge">
<title>section_1&#45;&gt;prose_3</title>
<path fill="none" stroke="#000000" stroke-dasharray="5,2" d="M657.418,-1364.2513C572.1599,-1359.8628 418.8627,-1347.434 292.6655,-1312.6018 290.2394,-1311.9322 287.7713,-1311.1441 285.3104,-1310.2781"/>
<polygon fill="#000000" stroke="#000000" points="286.5488,-1307.0044 275.9602,-1306.6385 284.0095,-1313.5276 286.5488,-1307.0044"/>
</g>
<!-- codeblock_4 -->
<g id="node5" class="node">
<title>codeblock_4</title>
<ellipse fill="none" stroke="#000000" cx="369.6655" cy="-1294.6018" rx="67.748" ry="18"/>
<text text-anchor="middle" x="369.6655" y="-1290.4018" font-family="Helvetica,sans-Serif" font-size="14.00" fill="#000000">code block 2&#45;4</text>
</g>
<!-- section_1&#45;&gt;codeblock_4 -->
<g id="edge4" class="edge">
<title>section_1&#45;&gt;codeblock_4</title>
<path fill="none" stroke="#000000" stroke-dasharray="5,2" d="M667.8729,-1356.5896C611.8969,-1346.2042 522.5338,-1329.1903 445.6655,-1312.6018 440.5771,-1311.5037 435.3056,-1310.3302 430.0205,-1309.1285"/>
<polygon fill="#000000" stroke="#000000" points="430.4148,-1305.6278 419.8845,-1306.7954 428.8446,-1312.4494 430.4148,-1305.6278"/>
</g>
<!-- structure_5 -->
<g id="node6" class="node">
<title>structure_5</title>
<ellipse fill="none" stroke="#000000" cx="499.6655" cy="-1294.6018" rx="44.5182" ry="18"/>
<text text-anchor="middle" x="499.6655" y="-1290.4018" font-family="Helvetica,sans-Serif" font-size="14.00" fill="#000000">structure</text>
</g>
<!-- section_1&#45;&gt;structure_5 -->
<g id="edge5" class="edge">
<title>section_1&#45;&gt;structure_5</title>
<path fill="none" stroke="#000000" stroke-dasharray="5,2" d="M679.5515,-1352.9889C645.3726,-1342.1578 596.4161,-1326.5563 553.6655,-1312.6018 550.5184,-1311.5746 547.2702,-1310.5079 544.0014,-1309.4298"/>
<polygon fill="#000000" stroke="#000000" points="544.8063,-1306.0095 534.213,-1306.1889 542.606,-1312.6547 544.8063,-1306.0095"/>
</g>
<!-- prose_6 -->
<g id="node7" class="node">
<title>prose_6</title>
<ellipse fill="none" stroke="#000000" cx="594.6655" cy="-1294.6018" rx="32.4585" ry="18"/>
<text text-anchor="middle" x="594.6655" y="-1290.4018" font-family="Helvetica,sans-Serif" font-size="14.00" fill="#000000">prose</text>
</g>
<!-- section_1&#45;&gt;prose_6 -->
<g id="edge6" class="edge">
<title>section_1&#45;&gt;prose_6</title>
<path fill="none" stroke="#000000" stroke-dasharray="5,2" d="M693.6203,-1350.2639C673.6635,-1339.0382 647.1654,-1324.1331 626.6125,-1312.572"/>
<polygon fill="#000000" stroke="#000000" points="628.0641,-1309.3729 617.6324,-1307.5207 624.6323,-1315.4739 628.0641,-1309.3729"/>
</g>
<!-- codeblock_7 -->
<g id="node8" class="node">
<title>codeblock_7</title>
<ellipse fill="none" stroke="#000000" cx="722.6655" cy="-1294.6018" rx="77.4211" ry="18"/>
<text text-anchor="middle" x="722.6655" y="-1290.4018" font-family="Helvetica,sans-Serif" font-size="14.00" fill="#000000">code block 14&#45;69</text>
</g>
<!-- section_1&#45;&gt;codeblock_7 -->
<g id="edge7" class="edge">
<title>section_1&#45;&gt;codeblock_7</title>
<path fill="none" stroke="#000000" stroke-dasharray="5,2" d="M722.6655,-1348.4332C722.6655,-1340.7328 722.6655,-1331.5762 722.6655,-1323.0185"/>
<polygon fill="#000000" stroke="#000000" points="726.1656,-1323.0151 722.6655,-1313.0151 719.1656,-1323.0151 726.1656,-1323.0151"/>
</g>
<!-- prose_8 -->
<g id="node9" class="node">
<title>prose_8</title>
<ellipse fill="none" stroke="#000000" cx="935.6655" cy="-1294.6018" rx="32.4585" ry="18"/>
<text text-anchor="middle" x="935.6655" y="-1290.4018" font-family="Helvetica,sans-Serif" font-size="14.00" fill="#000000">prose</text>
</g>
<!-- section_1&#45;&gt;prose_8 -->
<g id="edge8" class="edge">
<title>section_1&#45;&gt;prose_8</title>
<path fill="none" stroke="#000000" stroke-dasharray="5,2" d="M764.2397,-1352.5486C803.2487,-1339.3625 861.0502,-1319.8239 898.5428,-1307.1504"/>
<polygon fill="#000000" stroke="#000000" points="899.7269,-1310.4447 908.0795,-1303.9267 897.4853,-1303.8133 899.7269,-1310.4447"/>
</g>
<!-- prose_9 -->
<g id="node10" class="node">
<title>prose_9</title>
<ellipse fill="none" stroke="#000000" cx="1060.6655" cy="-1294.6018" rx="32.4585" ry="18"/>
<text text-anchor="middle" x="1060.6655" y="-1290.4018" font-family="Helvetica,sans-Serif" font-size="14.00" fill="#000000">prose</text>
</g>
<!-- section_1&#45;&gt;prose_9 -->
<g id="edge9" class="edge">
<title>section_1&#45;&gt;prose_9</title>
<path fill="none" stroke="#000000" stroke-dasharray="5,2" d="M774.722,-1355.5604C826.0679,-1344.6636 906.7834,-1327.5176 976.6655,-1312.6018 990.8457,-1309.5752 1006.37,-1306.2514 1020.1726,-1303.2927"/>
<polygon fill="#000000" stroke="#000000" points="1021.2972,-1306.6312 1030.3411,-1301.1123 1019.8295,-1299.7868 1021.2972,-1306.6312"/>
</g>
<!-- codeblock_10 -->
<g id="node11" class="node">
<title>codeblock_10</title>
<ellipse fill="none" stroke="#000000" cx="1318.6655" cy="-1294.6018" rx="82.2579" ry="18"/>
<text text-anchor="middle" x="1318.6655" y="-1290.4018" font-family="Helvetica,sans-Serif" font-size="14.00" fill="#000000">code block 77&#45;147</text>
</g>
<!-- section_1&#45;&gt;codeblock_10 -->
<g id="edge10" class="edge">
<title>section_1&#45;&gt;codeblock_10</title>
<path fill="none" stroke="#000000" stroke-dasharray="5,2" d="M782.8168,-1359.3352C890.1918,-1346.3638 1114.9673,-1319.2097 1236.483,-1304.5299"/>
<polygon fill="#000000" stroke="#000000" points="1236.9736,-1307.9962 1246.4816,-1303.322 1236.134,-1301.0467 1236.9736,-1307.9962"/>
</g>
<!-- prose_11 -->
<g id="node12" class="node">
<title>prose_11</title>
<ellipse fill="none" stroke="#000000" cx="1617.6655" cy="-1294.6018" rx="32.4585" ry="18"/>
<text text-anchor="middle" x="1617.6655" y="-1290.4018" font-family="Helvetica,sans-Serif" font-size="14.00" fill="#000000">prose</text>
</g>
<!-- section_1&#45;&gt;prose_11 -->
<g id="edge11" class="edge">
<title>section_1&#45;&gt;prose_11</title>
<path fill="none" stroke="#000000" stroke-dasharray="5,2" d="M786.1378,-1361.7808C907.3475,-1352.537 1180.142,-1331.5534 1409.6655,-1312.6018 1467.1097,-1307.8587 1533.4482,-1302.0626 1575.4648,-1298.352"/>
<polygon fill="#000000" stroke="#000000" points="1575.95,-1301.8228 1585.6027,-1297.4554 1575.3333,-1294.85 1575.95,-1301.8228"/>
</g>
<!-- codeblock_12 -->
<g id="node13" class="node">
<title>codeblock_12</title>
<ellipse fill="none" stroke="#000000" cx="1878.6655" cy="-1294.6018" rx="87.0948" ry="18"/>
<text text-anchor="middle" x="1878.6655" y="-1290.4018" font-family="Helvetica,sans-Serif" font-size="14.00" fill="#000000">code block 151&#45;159</text>
</g>
<!-- section_1&#45;&gt;codeblock_12 -->
<g id="edge12" class="edge">
<title>section_1&#45;&gt;codeblock_12</title>
<path fill="none" stroke="#000000" stroke-dasharray="5,2" d="M787.3817,-1363.4044C939.4648,-1355.7733 1331.4783,-1335.4216 1658.6655,-1312.6018 1701.2186,-1309.634 1748.3595,-1305.844 1788.0536,-1302.5079"/>
<polygon fill="#000000" stroke="#000000" points="1788.5722,-1305.9766 1798.2423,-1301.6478 1787.9834,-1299.0014 1788.5722,-1305.9766"/>
</g>
<!-- raw_13 -->
<g id="node14" class="node">
<title>raw_13</title>
<ellipse fill="none" stroke="#000000" cx="42.6655" cy="-701.701" rx="27" ry="18"/>
<text text-anchor="middle" x="42.6655" y="-697.501" font-family="Helvetica,sans-Serif" font-size="14.00" fill="#000000">raw</text>
</g>
<!-- prose_3&#45;&gt;raw_13 -->
<g id="edge13" class="edge">
<title>prose_3&#45;&gt;raw_13</title>
<path fill="none" stroke="#000000" stroke-dasharray="5,2" d="M226.7487,-1282.965C221.494,-1280.7087 215.9423,-1278.4683 210.6655,-1276.6018 153.3366,-1256.3244 117.1673,-1287.6698 78.6655,-1240.6018 -47.7154,-1086.1031 11.1905,-815.927 34.6255,-729.2783"/>
<polygon fill="#000000" stroke="#000000" points="38.0608,-729.9871 37.3567,-719.4157 31.3147,-728.1189 38.0608,-729.9871"/>
</g>
<!-- leaf_15 -->
<g id="node16" class="node">
<title>leaf_15</title>
<polygon fill="none" stroke="#c0c0c0" points="243.6655,-719.701 87.6655,-719.701 87.6655,-683.701 243.6655,-683.701 243.6655,-719.701"/>
<text text-anchor="middle" x="165.6655" y="-698.201" font-family="Inconsolata" font-size="14.00" fill="#000000">&#45;&#45;&#45; Transform Module</text>
</g>
<!-- codeblock_4&#45;&gt;leaf_15 -->
<g id="edge15" class="edge">
<title>codeblock_4&#45;&gt;leaf_15</title>
<path fill="none" stroke="#000000" stroke-dasharray="5,2" d="M318.2371,-1282.7755C294.7302,-1274.7455 268.6252,-1261.6296 252.6655,-1240.6018 131.2365,-1080.6121 151.2356,-816.1761 161.718,-729.8832"/>
<polygon fill="#000000" stroke="#000000" points="165.2093,-730.1724 162.9989,-719.8107 158.2652,-729.2892 165.2093,-730.1724"/>
</g>
<!-- hashline_16 -->
<g id="node17" class="node">
<title>hashline_16</title>
<ellipse fill="none" stroke="#000000" cx="304.6655" cy="-701.701" rx="43.0992" ry="18"/>
<text text-anchor="middle" x="304.6655" y="-697.501" font-family="Helvetica,sans-Serif" font-size="14.00" fill="#000000">hashline</text>
</g>
<!-- structure_5&#45;&gt;hashline_16 -->
<g id="edge16" class="edge">
<title>structure_5&#45;&gt;hashline_16</title>
<path fill="none" stroke="#000000" stroke-dasharray="5,2" d="M465.7732,-1282.8162C424.6025,-1268.3517 360.1621,-1245.1732 356.6655,-1240.6018 235.5162,-1082.2137 279.4516,-816.2419 298.0567,-729.7754"/>
<polygon fill="#000000" stroke="#000000" points="301.4956,-730.4338 300.2387,-719.9138 294.6609,-728.9215 301.4956,-730.4338"/>
</g>
<!-- raw_19 -->
<g id="node20" class="node">
<title>raw_19</title>
<ellipse fill="none" stroke="#000000" cx="392.6655" cy="-701.701" rx="27" ry="18"/>
<text text-anchor="middle" x="392.6655" y="-697.501" font-family="Helvetica,sans-Serif" font-size="14.00" fill="#000000">raw</text>
</g>
<!-- prose_6&#45;&gt;raw_19 -->
<g id="edge19" class="edge">
<title>prose_6&#45;&gt;raw_19</title>
<path fill="none" stroke="#000000" stroke-dasharray="5,2" d="M569.728,-1283.0228C564.4749,-1280.7623 558.9289,-1278.5056 553.6655,-1276.6018 499.2987,-1256.9379 464.9528,-1285.609 428.6655,-1240.6018 364.8468,-1161.4475 383.3202,-829.6559 390.4585,-730.0758"/>
<polygon fill="#000000" stroke="#000000" points="393.9653,-730.1112 391.2086,-719.8813 386.9842,-729.5975 393.9653,-730.1112"/>
</g>
<!-- leaf_21 -->
<g id="node22" class="node">
<title>leaf_21</title>
<polygon fill="none" stroke="#c0c0c0" points="965.1655,-1124.9023 438.1655,-1124.9023 438.1655,-278.4996 965.1655,-278.4996 965.1655,-1124.9023"/>
<text text-anchor="middle" x="701.6655" y="-1109.6016" font-family="Inconsolata" font-size="14.00" fill="#000000">local t = {}</text>
<text text-anchor="middle" x="701.6655" y="-1078.2016" font-family="Inconsolata" font-size="14.00" fill="#000000">local dot_header = [=[</text>
<text text-anchor="middle" x="701.6655" y="-1062.8016" font-family="Inconsolata" font-size="14.00" fill="#000000">digraph hierarchy {</text>
<text text-anchor="middle" x="701.6655" y="-1031.4015" font-family="Inconsolata" font-size="14.00" fill="#000000">node [fontname=Helvetica]</text>
<text text-anchor="middle" x="701.6655" y="-1016.0015" font-family="Inconsolata" font-size="14.00" fill="#000000">edge [style=dashed]</text>
<text text-anchor="middle" x="701.6655" y="-984.6015" font-family="Inconsolata" font-size="14.00" fill="#000000">]=]</text>
<text text-anchor="middle" x="701.6655" y="-953.2014" font-family="Inconsolata" font-size="14.00" fill="#000000">local dot_footer = [=[</text>
<text text-anchor="middle" x="701.6655" y="-921.8014" font-family="Inconsolata" font-size="14.00" fill="#000000">}</text>
<text text-anchor="middle" x="701.6655" y="-906.4014" font-family="Inconsolata" font-size="14.00" fill="#000000">]=]</text>
<text text-anchor="middle" x="701.6655" y="-875.0013" font-family="Inconsolata" font-size="14.00" fill="#000000">local leaf_font &#160;= &quot;Inconsolata&quot;</text>
<text text-anchor="middle" x="701.6655" y="-859.6013" font-family="Inconsolata" font-size="14.00" fill="#000000">local leaf_color = &quot;Gray&quot;</text>
<text text-anchor="middle" x="701.6655" y="-828.2013" font-family="Inconsolata" font-size="14.00" fill="#000000">local function sanitize_string(str)</text>
<text text-anchor="middle" x="701.6655" y="-812.8012" font-family="Inconsolata" font-size="14.00" fill="#000000"> &#160;&#160;&#45;&#45; filter \ and &quot;</text>
<text text-anchor="middle" x="701.6655" y="-797.4012" font-family="Inconsolata" font-size="14.00" fill="#000000"> &#160;&#160;local phrase = str:gsub(&quot;\\&quot;, &quot;\\\\&quot;):gsub(&#39;&quot;&#39;, &#39;\\&quot;&#39;)</text>
<text text-anchor="middle" x="701.6655" y="-782.0012" font-family="Inconsolata" font-size="14.00" fill="#000000"> &#160;&#160;if phrase:sub(&#45;1,&#45;1) == &quot;\n&quot; then</text>
<text text-anchor="middle" x="701.6655" y="-766.6012" font-family="Inconsolata" font-size="14.00" fill="#000000"> &#160;&#160;&#160;&#160;&#160;return phrase:sub(1, &#45;2)</text>
<text text-anchor="middle" x="701.6655" y="-751.2011" font-family="Inconsolata" font-size="14.00" fill="#000000"> &#160;&#160;else</text>
<text text-anchor="middle" x="701.6655" y="-735.8011" font-family="Inconsolata" font-size="14.00" fill="#000000"> &#160;&#160;&#160;&#160;&#160;return phrase</text>
<text text-anchor="middle" x="701.6655" y="-720.4011" font-family="Inconsolata" font-size="14.00" fill="#000000"> &#160;&#160;end</text>
<text text-anchor="middle" x="701.6655" y="-705.001" font-family="Inconsolata" font-size="14.00" fill="#000000">end</text>
<text text-anchor="middle" x="701.6655" y="-673.601" font-family="Inconsolata" font-size="14.00" fill="#000000">local function ast_to_label(ast, leaf_count)</text>
<text text-anchor="middle" x="701.6655" y="-658.201" font-family="Inconsolata" font-size="14.00" fill="#000000"> &#160;&#160;&#45;&#45; nodes need unique names, so we append a leaf_count and increment it</text>
<text text-anchor="middle" x="701.6655" y="-642.8009" font-family="Inconsolata" font-size="14.00" fill="#000000"> &#160;&#160;local label &#160;&#160;&#160;&#160;&#160;= ast.id.. &quot;_&quot; .. leaf_count </text>
<text text-anchor="middle" x="701.6655" y="-627.4009" font-family="Inconsolata" font-size="14.00" fill="#000000"> &#160;&#160;local label_line = label .. &quot; [label=\&quot;&quot;</text>
<text text-anchor="middle" x="701.6655" y="-612.0009" font-family="Inconsolata" font-size="14.00" fill="#000000"> &#160;&#160;&#160;&#160;&#160;.. sanitize_string(ast:dotLabel()) .. &quot;\&quot;]\n&quot;</text>
<text text-anchor="middle" x="701.6655" y="-596.6008" font-family="Inconsolata" font-size="14.00" fill="#000000"> &#160;&#160;return label, label_line, leaf_count + 1</text>
<text text-anchor="middle" x="701.6655" y="-581.2008" font-family="Inconsolata" font-size="14.00" fill="#000000">end</text>
<text text-anchor="middle" x="701.6655" y="-549.8008" font-family="Inconsolata" font-size="14.00" fill="#000000">local function list_from_table(tab)</text>
<text text-anchor="middle" x="701.6655" y="-534.4007" font-family="Inconsolata" font-size="14.00" fill="#000000"> &#160;&#160;local table_list = &quot;&quot;</text>
<text text-anchor="middle" x="701.6655" y="-519.0007" font-family="Inconsolata" font-size="14.00" fill="#000000"> &#160;&#160;for _,v in ipairs(tab) do</text>
<text text-anchor="middle" x="701.6655" y="-503.6007" font-family="Inconsolata" font-size="14.00" fill="#000000"> &#160;&#160;&#160;&#160;&#160;table_list = table_list..&quot; &quot;..v</text>
<text text-anchor="middle" x="701.6655" y="-488.2007" font-family="Inconsolata" font-size="14.00" fill="#000000"> &#160;&#160;end</text>
<text text-anchor="middle" x="701.6655" y="-472.8006" font-family="Inconsolata" font-size="14.00" fill="#000000"> &#160;&#160;return table_list</text>
<text text-anchor="middle" x="701.6655" y="-457.4006" font-family="Inconsolata" font-size="14.00" fill="#000000">end</text>
<text text-anchor="middle" x="701.6655" y="-426.0006" font-family="Inconsolata" font-size="14.00" fill="#000000">local function value_to_label(value, leaf_count)</text>
<text text-anchor="middle" x="701.6655" y="-410.6005" font-family="Inconsolata" font-size="14.00" fill="#000000"> &#160;&#160;&#45;&#45; Generates a name and label for a leaf node.</text>
<text text-anchor="middle" x="701.6655" y="-395.2005" font-family="Inconsolata" font-size="14.00" fill="#000000"> &#160;&#160;&#45;&#45; Returns these with an incremented leaf_count.</text>
<text text-anchor="middle" x="701.6655" y="-379.8005" font-family="Inconsolata" font-size="14.00" fill="#000000"> &#160;&#160;local value = sanitize_string(value)</text>
<text text-anchor="middle" x="701.6655" y="-364.4004" font-family="Inconsolata" font-size="14.00" fill="#000000"> &#160;&#160;local name &#160;= &quot;leaf_&quot;..leaf_count</text>
<text text-anchor="middle" x="701.6655" y="-349.0004" font-family="Inconsolata" font-size="14.00" fill="#000000"> &#160;&#160;local label = &quot; [color=&quot;..leaf_color..&quot;,shape=rectangle,fontname=&quot;</text>
<text text-anchor="middle" x="701.6655" y="-333.6004" font-family="Inconsolata" font-size="14.00" fill="#000000"> &#160;&#160;&#160;&#160;&#160;&#160;&#160;&#160;..leaf_font..&quot;,label=\&quot;&quot;..value..&quot;\&quot;]\n&quot;</text>
<text text-anchor="middle" x="701.6655" y="-302.2003" font-family="Inconsolata" font-size="14.00" fill="#000000"> &#160;&#160;return name, label, leaf_count + 1</text>
<text text-anchor="middle" x="701.6655" y="-286.8003" font-family="Inconsolata" font-size="14.00" fill="#000000">end</text>
</g>
<!-- codeblock_7&#45;&gt;leaf_21 -->
<g id="edge21" class="edge">
<title>codeblock_7&#45;&gt;leaf_21</title>
<path fill="none" stroke="#000000" stroke-dasharray="5,2" d="M722.0255,-1276.5338C721.0974,-1250.3288 719.2427,-1197.9659 717.0148,-1135.0646"/>
<polygon fill="#000000" stroke="#000000" points="720.506,-1134.7511 716.6541,-1124.8813 713.5104,-1134.9989 720.506,-1134.7511"/>
</g>
<!-- raw_22 -->
<g id="node23" class="node">
<title>raw_22</title>
<ellipse fill="none" stroke="#000000" cx="1010.6655" cy="-701.701" rx="27" ry="18"/>
<text text-anchor="middle" x="1010.6655" y="-697.501" font-family="Helvetica,sans-Serif" font-size="14.00" fill="#000000">raw</text>
</g>
<!-- prose_8&#45;&gt;raw_22 -->
<g id="edge22" class="edge">
<title>prose_8&#45;&gt;raw_22</title>
<path fill="none" stroke="#000000" stroke-dasharray="5,2" d="M950.5994,-1278.4419C958.9619,-1268.3527 968.6833,-1254.647 973.6655,-1240.6018 1039.376,-1055.359 1022.2913,-812.2186 1013.9372,-730.1491"/>
<polygon fill="#000000" stroke="#000000" points="1017.4056,-729.665 1012.873,-720.0887 1010.4444,-730.4014 1017.4056,-729.665"/>
</g>
<!-- raw_24 -->
<g id="node25" class="node">
<title>raw_24</title>
<ellipse fill="none" stroke="#000000" cx="1082.6655" cy="-701.701" rx="27" ry="18"/>
<text text-anchor="middle" x="1082.6655" y="-697.501" font-family="Helvetica,sans-Serif" font-size="14.00" fill="#000000">raw</text>
</g>
<!-- prose_9&#45;&gt;raw_24 -->
<g id="edge24" class="edge">
<title>prose_9&#45;&gt;raw_24</title>
<path fill="none" stroke="#000000" stroke-dasharray="5,2" d="M1061.3359,-1276.5338C1064.4796,-1191.8111 1077.7689,-833.6652 1081.6172,-729.9509"/>
<polygon fill="#000000" stroke="#000000" points="1085.1162,-730.0421 1081.9895,-719.9192 1078.121,-729.7825 1085.1162,-730.0421"/>
</g>
<!-- leaf_26 -->
<g id="node27" class="node">
<title>leaf_26</title>
<polygon fill="none" stroke="#c0c0c0" points="1717.6655,-1240.5027 1127.6655,-1240.5027 1127.6655,-162.8992 1717.6655,-162.8992 1717.6655,-1240.5027"/>
<text text-anchor="middle" x="1422.6655" y="-1225.4018" font-family="Inconsolata" font-size="14.00" fill="#000000">local function dot_ranks(ast, phrase, leaf_count, ast_label)</text>
<text text-anchor="middle" x="1422.6655" y="-1210.0018" font-family="Inconsolata" font-size="14.00" fill="#000000"> &#160;&#160;local leaf_count = leaf_count or 0</text>
<text text-anchor="middle" x="1422.6655" y="-1178.6018" font-family="Inconsolata" font-size="14.00" fill="#000000"> &#160;&#160;&#45;&#45; Add the node we&#39;re working on</text>
<text text-anchor="middle" x="1422.6655" y="-1163.2017" font-family="Inconsolata" font-size="14.00" fill="#000000"> &#160;&#160;if ast.isNode or ast.isnode then</text>
<text text-anchor="middle" x="1422.6655" y="-1147.8017" font-family="Inconsolata" font-size="14.00" fill="#000000"> &#160;&#160;&#160;&#160;&#160;local label = &quot;&quot;</text>
<text text-anchor="middle" x="1422.6655" y="-1132.4017" font-family="Inconsolata" font-size="14.00" fill="#000000"> &#160;&#160;&#160;&#160;&#160;local label_line = &quot;&quot;</text>
<text text-anchor="middle" x="1422.6655" y="-1117.0017" font-family="Inconsolata" font-size="14.00" fill="#000000"> &#160;&#160;&#160;&#160;&#160;local child_labels = {}</text>
<text text-anchor="middle" x="1422.6655" y="-1101.6016" font-family="Inconsolata" font-size="14.00" fill="#000000"> &#160;&#160;&#160;&#160;&#160;local child_label_lines = {}</text>
<text text-anchor="middle" x="1422.6655" y="-1070.2016" font-family="Inconsolata" font-size="14.00" fill="#000000"> &#160;&#160;&#160;&#160;&#160;&#45;&#45; Handle anonymous nodes</text>
<text text-anchor="middle" x="1422.6655" y="-1054.8016" font-family="Inconsolata" font-size="14.00" fill="#000000"> &#160;&#160;&#160;&#160;&#160;if not ast_label then</text>
<text text-anchor="middle" x="1422.6655" y="-1039.4015" font-family="Inconsolata" font-size="14.00" fill="#000000"> &#160;&#160;&#160;&#160;&#160;&#160;&#160;&#160;label, label_line, leaf_count = ast_to_label(ast, leaf_count)</text>
<text text-anchor="middle" x="1422.6655" y="-1024.0015" font-family="Inconsolata" font-size="14.00" fill="#000000"> &#160;&#160;&#160;&#160;&#160;&#160;&#160;&#160;phrase = phrase .. label_line .. &quot;\n\n&quot;</text>
<text text-anchor="middle" x="1422.6655" y="-1008.6015" font-family="Inconsolata" font-size="14.00" fill="#000000"> &#160;&#160;&#160;&#160;&#160;else </text>
<text text-anchor="middle" x="1422.6655" y="-993.2014" font-family="Inconsolata" font-size="14.00" fill="#000000"> &#160;&#160;&#160;&#160;&#160;&#160;&#160;&#160;label = ast_label </text>
<text text-anchor="middle" x="1422.6655" y="-977.8014" font-family="Inconsolata" font-size="14.00" fill="#000000"> &#160;&#160;&#160;&#160;&#160;end</text>
<text text-anchor="middle" x="1422.6655" y="-946.4014" font-family="Inconsolata" font-size="14.00" fill="#000000"> &#160;&#160;&#160;&#160;&#160;&#45;&#45; Document child nodes</text>
<text text-anchor="middle" x="1422.6655" y="-931.0013" font-family="Inconsolata" font-size="14.00" fill="#000000"> &#160;&#160;&#160;&#160;&#160;for i,v in ipairs(ast) do</text>
<text text-anchor="middle" x="1422.6655" y="-915.6013" font-family="Inconsolata" font-size="14.00" fill="#000000"> &#160;&#160;&#160;&#160;&#160;&#160;&#160;&#160;&#45;&#45; assemble labels and label lines for all child nodes</text>
<text text-anchor="middle" x="1422.6655" y="-900.2013" font-family="Inconsolata" font-size="14.00" fill="#000000"> &#160;&#160;&#160;&#160;&#160;&#160;&#160;&#160;if v.isNode or v.isnode then</text>
<text text-anchor="middle" x="1422.6655" y="-884.8012" font-family="Inconsolata" font-size="14.00" fill="#000000"> &#160;&#160;&#160;&#160;&#160;&#160;&#160;&#160;&#160;&#160;&#160;child_labels[i], child_label_lines[i], leaf_count = </text>
<text text-anchor="middle" x="1422.6655" y="-869.4012" font-family="Inconsolata" font-size="14.00" fill="#000000"> &#160;&#160;&#160;&#160;&#160;&#160;&#160;&#160;&#160;&#160;&#160;&#160;&#160;&#160;ast_to_label(v, leaf_count)</text>
<text text-anchor="middle" x="1422.6655" y="-854.0012" font-family="Inconsolata" font-size="14.00" fill="#000000"> &#160;&#160;&#160;&#160;&#160;&#160;&#160;&#160;end</text>
<text text-anchor="middle" x="1422.6655" y="-838.6012" font-family="Inconsolata" font-size="14.00" fill="#000000"> &#160;&#160;&#160;&#160;&#160;end</text>
<text text-anchor="middle" x="1422.6655" y="-807.2011" font-family="Inconsolata" font-size="14.00" fill="#000000"> &#160;&#160;&#160;&#160;&#160;local child_list = list_from_table(child_labels)</text>
<text text-anchor="middle" x="1422.6655" y="-775.8011" font-family="Inconsolata" font-size="14.00" fill="#000000"> &#160;&#160;&#160;&#160;&#160;if next(child_labels) ~= nil then</text>
<text text-anchor="middle" x="1422.6655" y="-760.4011" font-family="Inconsolata" font-size="14.00" fill="#000000"> &#160;&#160;&#160;&#160;&#160;&#160;&#160;&#160;phrase = phrase..label..&quot; &#45;&gt; {&quot;..child_list..&quot;}\n&quot;</text>
<text text-anchor="middle" x="1422.6655" y="-745.001" font-family="Inconsolata" font-size="14.00" fill="#000000"> &#160;&#160;&#160;&#160;&#160;&#160;&#160;&#160;phrase = phrase..&quot;{rank=same;&quot;..list_from_table(child_labels)..&quot;}\n\n&quot;</text>
<text text-anchor="middle" x="1422.6655" y="-729.601" font-family="Inconsolata" font-size="14.00" fill="#000000"> &#160;&#160;&#160;&#160;&#160;end</text>
<text text-anchor="middle" x="1422.6655" y="-698.201" font-family="Inconsolata" font-size="14.00" fill="#000000"> &#160;&#160;&#160;&#160;&#160;&#45;&#45; Concatenate child label lines</text>
<text text-anchor="middle" x="1422.6655" y="-682.8009" font-family="Inconsolata" font-size="14.00" fill="#000000"> &#160;&#160;&#160;&#160;&#160;for _, v in ipairs(child_label_lines) do</text>
<text text-anchor="middle" x="1422.6655" y="-667.4009" font-family="Inconsolata" font-size="14.00" fill="#000000"> &#160;&#160;&#160;&#160;&#160;&#160;&#160;&#160;phrase = phrase..v..&quot;\n&quot;</text>
<text text-anchor="middle" x="1422.6655" y="-652.0009" font-family="Inconsolata" font-size="14.00" fill="#000000"> &#160;&#160;&#160;&#160;&#160;end</text>
<text text-anchor="middle" x="1422.6655" y="-620.6008" font-family="Inconsolata" font-size="14.00" fill="#000000"> &#160;&#160;&#160;&#160;&#160;if next(child_labels) ~= nil then</text>
<text text-anchor="middle" x="1422.6655" y="-605.2008" font-family="Inconsolata" font-size="14.00" fill="#000000"> &#160;&#160;&#160;&#160;&#160;&#160;&#160;&#160;phrase = phrase..&quot;\n&quot;</text>
<text text-anchor="middle" x="1422.6655" y="-589.8008" font-family="Inconsolata" font-size="14.00" fill="#000000"> &#160;&#160;&#160;&#160;&#160;end</text>
<text text-anchor="middle" x="1422.6655" y="-558.4007" font-family="Inconsolata" font-size="14.00" fill="#000000"> &#160;&#160;&#160;&#160;&#160;&#45;&#45; Execute recursively for all nodes</text>
<text text-anchor="middle" x="1422.6655" y="-543.0007" font-family="Inconsolata" font-size="14.00" fill="#000000"> &#160;&#160;&#160;&#160;&#160;for i,v in ipairs(ast) do</text>
<text text-anchor="middle" x="1422.6655" y="-527.6007" font-family="Inconsolata" font-size="14.00" fill="#000000"> &#160;&#160;&#160;&#160;&#160;&#160;&#160;&#160;if v.isNode or v.isnode then</text>
<text text-anchor="middle" x="1422.6655" y="-512.2007" font-family="Inconsolata" font-size="14.00" fill="#000000"> &#160;&#160;&#160;&#160;&#160;&#160;&#160;&#160;&#160;&#160;&#160;phrase, leaf_count = dot_ranks(v, phrase, leaf_count, child_labels[i])</text>
<text text-anchor="middle" x="1422.6655" y="-496.8006" font-family="Inconsolata" font-size="14.00" fill="#000000"> &#160;&#160;&#160;&#160;&#160;&#160;&#160;&#160;end</text>
<text text-anchor="middle" x="1422.6655" y="-481.4006" font-family="Inconsolata" font-size="14.00" fill="#000000"> &#160;&#160;&#160;&#160;&#160;end</text>
<text text-anchor="middle" x="1422.6655" y="-450.0006" font-family="Inconsolata" font-size="14.00" fill="#000000"> &#160;&#160;&#160;&#160;&#160;local leaf_val = nil</text>
<text text-anchor="middle" x="1422.6655" y="-418.6005" font-family="Inconsolata" font-size="14.00" fill="#000000"> &#160;&#160;&#160;&#160;&#160;if ast.val then</text>
<text text-anchor="middle" x="1422.6655" y="-403.2005" font-family="Inconsolata" font-size="14.00" fill="#000000"> &#160;&#160;&#160;&#160;&#160;&#160;&#160;&#160;leaf_val = ast.val</text>
<text text-anchor="middle" x="1422.6655" y="-387.8005" font-family="Inconsolata" font-size="14.00" fill="#000000"> &#160;&#160;&#160;&#160;&#160;elseif ast.toValue then</text>
<text text-anchor="middle" x="1422.6655" y="-372.4004" font-family="Inconsolata" font-size="14.00" fill="#000000"> &#160;&#160;&#160;&#160;&#160;&#160;&#160;&#160;leaf_val = ast:toValue()</text>
<text text-anchor="middle" x="1422.6655" y="-357.0004" font-family="Inconsolata" font-size="14.00" fill="#000000"> &#160;&#160;&#160;&#160;&#160;end</text>
<text text-anchor="middle" x="1422.6655" y="-325.6004" font-family="Inconsolata" font-size="14.00" fill="#000000"> &#160;&#160;&#160;&#160;&#160;&#45;&#45; Document value of leaf nodes</text>
<text text-anchor="middle" x="1422.6655" y="-310.2003" font-family="Inconsolata" font-size="14.00" fill="#000000"> &#160;&#160;&#160;&#160;&#160;if (not ast[1]) and leaf_val then</text>
<text text-anchor="middle" x="1422.6655" y="-294.8003" font-family="Inconsolata" font-size="14.00" fill="#000000"> &#160;&#160;&#160;&#160;&#160;&#160;&#160;&#160;local name = &quot;&quot; ; local val_label = &quot;&quot;</text>
<text text-anchor="middle" x="1422.6655" y="-279.4003" font-family="Inconsolata" font-size="14.00" fill="#000000"> &#160;&#160;&#160;&#160;&#160;&#160;&#160;&#160;name, val_label, leaf_count = value_to_label(leaf_val, leaf_count)</text>
<text text-anchor="middle" x="1422.6655" y="-264.0002" font-family="Inconsolata" font-size="14.00" fill="#000000"> &#160;&#160;&#160;&#160;&#160;&#160;&#160;&#160;phrase = phrase..label..&quot; &#45;&gt; &quot;..name..&quot;\n&quot;</text>
<text text-anchor="middle" x="1422.6655" y="-248.6002" font-family="Inconsolata" font-size="14.00" fill="#000000"> &#160;&#160;&#160;&#160;&#160;&#160;&#160;&#160;phrase = phrase..name..&quot; &quot;..val_label</text>
<text text-anchor="middle" x="1422.6655" y="-233.2002" font-family="Inconsolata" font-size="14.00" fill="#000000"> &#160;&#160;&#160;&#160;&#160;end</text>
<text text-anchor="middle" x="1422.6655" y="-217.8002" font-family="Inconsolata" font-size="14.00" fill="#000000"> &#160;&#160;end</text>
<text text-anchor="middle" x="1422.6655" y="-186.4001" font-family="Inconsolata" font-size="14.00" fill="#000000"> &#160;&#160;return phrase, leaf_count</text>
<text text-anchor="middle" x="1422.6655" y="-171.0001" font-family="Inconsolata" font-size="14.00" fill="#000000">end</text>
</g>
<!-- codeblock_10&#45;&gt;leaf_26 -->
<g id="edge26" class="edge">
<title>codeblock_10&#45;&gt;leaf_26</title>
<path fill="none" stroke="#000000" stroke-dasharray="5,2" d="M1321.8348,-1276.5338C1323.0344,-1269.695 1324.5464,-1261.0746 1326.3223,-1250.9504"/>
<polygon fill="#000000" stroke="#000000" points="1329.8238,-1251.2462 1328.1042,-1240.7919 1322.9291,-1250.0368 1329.8238,-1251.2462"/>
</g>
<!-- raw_27 -->
<g id="node28" class="node">
<title>raw_27</title>
<ellipse fill="none" stroke="#000000" cx="1762.6655" cy="-701.701" rx="27" ry="18"/>
<text text-anchor="middle" x="1762.6655" y="-697.501" font-family="Helvetica,sans-Serif" font-size="14.00" fill="#000000">raw</text>
</g>
<!-- prose_11&#45;&gt;raw_27 -->
<g id="edge27" class="edge">
<title>prose_11&#45;&gt;raw_27</title>
<path fill="none" stroke="#000000" stroke-dasharray="5,2" d="M1647.9389,-1288.3928C1673.5238,-1281.4212 1708.7805,-1267.3851 1726.6655,-1240.6018 1837.0254,-1075.3349 1789.3307,-814.3594 1769.642,-729.4141"/>
<polygon fill="#000000" stroke="#000000" points="1773.0034,-728.4206 1767.284,-719.5021 1766.1934,-730.0407 1773.0034,-728.4206"/>
</g>
<!-- leaf_29 -->
<g id="node30" class="node">
<title>leaf_29</title>
<polygon fill="none" stroke="#c0c0c0" points="2153.1655,-760.2011 1808.1655,-760.2011 1808.1655,-643.2008 2153.1655,-643.2008 2153.1655,-760.2011"/>
<text text-anchor="middle" x="1980.6655" y="-745.001" font-family="Inconsolata" font-size="14.00" fill="#000000">function t.dot(ast)</text>
<text text-anchor="middle" x="1980.6655" y="-729.601" font-family="Inconsolata" font-size="14.00" fill="#000000"> &#160;&#160;local phrase = dot_header</text>
<text text-anchor="middle" x="1980.6655" y="-698.201" font-family="Inconsolata" font-size="14.00" fill="#000000"> &#160;&#160;return &#160;dot_ranks(ast, phrase) .. dot_footer</text>
<text text-anchor="middle" x="1980.6655" y="-682.8009" font-family="Inconsolata" font-size="14.00" fill="#000000">end</text>
<text text-anchor="middle" x="1980.6655" y="-651.4009" font-family="Inconsolata" font-size="14.00" fill="#000000">return t</text>
</g>
<!-- codeblock_12&#45;&gt;leaf_29 -->
<g id="edge29" class="edge">
<title>codeblock_12&#45;&gt;leaf_29</title>
<path fill="none" stroke="#000000" stroke-dasharray="5,2" d="M1881.7738,-1276.5338C1894.819,-1200.7052 1945.545,-905.8474 1968.8441,-770.4156"/>
<polygon fill="#000000" stroke="#000000" points="1972.2945,-771.0022 1970.5408,-760.5535 1965.3959,-769.8153 1972.2945,-771.0022"/>
</g>
<!-- leaf_14 -->
<g id="node15" class="node">
<title>leaf_14</title>
<polygon fill="none" stroke="#c0c0c0" points="69.6655,-117.4 15.6655,-117.4 15.6655,-81.4 69.6655,-81.4 69.6655,-117.4"/>
</g>
<!-- raw_13&#45;&gt;leaf_14 -->
<g id="edge14" class="edge">
<title>raw_13&#45;&gt;leaf_14</title>
<path fill="none" stroke="#000000" stroke-dasharray="5,2" d="M42.6655,-683.6753C42.6655,-598.1332 42.6655,-232.9217 42.6655,-127.8081"/>
<polygon fill="#000000" stroke="#000000" points="46.1656,-127.6495 42.6655,-117.6496 39.1656,-127.6496 46.1656,-127.6495"/>
</g>
<!-- hashtag_17 -->
<g id="node18" class="node">
<title>hashtag_17</title>
<ellipse fill="none" stroke="#000000" cx="161.6655" cy="-99.4" rx="41.6544" ry="18"/>
<text text-anchor="middle" x="161.6655" y="-95.2" font-family="Helvetica,sans-Serif" font-size="14.00" fill="#000000">hashtag</text>
</g>
<!-- hashline_16&#45;&gt;hashtag_17 -->
<g id="edge17" class="edge">
<title>hashline_16&#45;&gt;hashtag_17</title>
<path fill="none" stroke="#000000" stroke-dasharray="5,2" d="M308.0635,-683.3168C320.4318,-610.994 357.0673,-341.296 252.6655,-162.8001 245.7998,-151.0618 218.8067,-132.9756 195.9874,-119.12"/>
<polygon fill="#000000" stroke="#000000" points="197.5562,-115.9801 187.1775,-113.8507 193.963,-121.9876 197.5562,-115.9801"/>
</g>
<!-- leaf_18 -->
<g id="node19" class="node">
<title>leaf_18</title>
<polygon fill="none" stroke="#c0c0c0" points="188.6655,-36 134.6655,-36 134.6655,0 188.6655,0 188.6655,-36"/>
</g>
<!-- hashtag_17&#45;&gt;leaf_18 -->
<g id="edge18" class="edge">
<title>hashtag_17&#45;&gt;leaf_18</title>
<path fill="none" stroke="#000000" stroke-dasharray="5,2" d="M161.6655,-81.3347C161.6655,-71.0069 161.6655,-57.828 161.6655,-46.1691"/>
<polygon fill="#000000" stroke="#000000" points="165.1656,-46.0148 161.6655,-36.0148 158.1656,-46.0148 165.1656,-46.0148"/>
</g>
<!-- leaf_20 -->
<g id="node21" class="node">
<title>leaf_20</title>
<polygon fill="none" stroke="#c0c0c0" points="671.6655,-119.3021 221.6655,-119.3021 221.6655,-79.4979 671.6655,-79.4979 671.6655,-119.3021"/>
<text text-anchor="middle" x="446.6655" y="-87.9" font-family="Inconsolata" font-size="14.00" fill="#000000"> &#160;&#45; [ ] Make leaf_font and leaf_color configurable values of t</text>
</g>
<!-- raw_19&#45;&gt;leaf_20 -->
<g id="edge20" class="edge">
<title>raw_19&#45;&gt;leaf_20</title>
<path fill="none" stroke="#000000" stroke-dasharray="5,2" d="M392.5036,-683.3931C392.1862,-614.5253 393.6662,-364.671 428.6655,-162.8001 430.6207,-151.5228 433.7962,-139.3785 436.9398,-128.7666"/>
<polygon fill="#000000" stroke="#000000" points="440.3061,-129.7274 439.9032,-119.1402 433.6159,-127.6678 440.3061,-129.7274"/>
</g>
<!-- leaf_23 -->
<g id="node24" class="node">
<title>leaf_23</title>
<polygon fill="none" stroke="#c0c0c0" points="1159.6655,-126.7005 751.6655,-126.7005 751.6655,-72.0996 1159.6655,-72.0996 1159.6655,-126.7005"/>
<text text-anchor="middle" x="955.6655" y="-95.6001" font-family="Inconsolata" font-size="14.00" fill="#000000"> Recursively walk an AST, concatenating dot descriptions</text>
<text text-anchor="middle" x="955.6655" y="-80.2" font-family="Inconsolata" font-size="14.00" fill="#000000"> to the phrase. </text>
</g>
<!-- raw_22&#45;&gt;leaf_23 -->
<g id="edge23" class="edge">
<title>raw_22&#45;&gt;leaf_23</title>
<path fill="none" stroke="#000000" stroke-dasharray="5,2" d="M1010.7816,-683.3926C1010.9292,-614.5232 1008.8555,-364.6638 973.6655,-162.8001 972.1684,-154.2122 969.9681,-145.1206 967.6158,-136.5858"/>
<polygon fill="#000000" stroke="#000000" points="970.9523,-135.5239 964.8176,-126.8859 964.2266,-137.4642 970.9523,-135.5239"/>
</g>
<!-- leaf_25 -->
<g id="node26" class="node">
<title>leaf_25</title>
<polygon fill="none" stroke="#c0c0c0" points="1579.1655,-126.7005 1178.1655,-126.7005 1178.1655,-72.0996 1579.1655,-72.0996 1579.1655,-126.7005"/>
<text text-anchor="middle" x="1378.6655" y="-95.6001" font-family="Inconsolata" font-size="14.00" fill="#000000"> &#45; [ ] #todo allow nodes to skip themselves to collapse</text>
<text text-anchor="middle" x="1378.6655" y="-80.2" font-family="Inconsolata" font-size="14.00" fill="#000000"> &#160;&#160;&#160;&#160;&#160;&#160;&#160;&#160;&#160;&#160;&#160;&#160;semantic intermediates</text>
</g>
<!-- raw_24&#45;&gt;leaf_25 -->
<g id="edge25" class="edge">
<title>raw_24&#45;&gt;leaf_25</title>
<path fill="none" stroke="#000000" stroke-dasharray="5,2" d="M1081.1348,-683.4598C1074.4142,-598.6422 1050.7756,-243.5393 1118.6655,-162.8001 1130.0278,-149.2873 1157.5577,-138.2101 1190.6547,-129.3132"/>
<polygon fill="#000000" stroke="#000000" points="1191.8017,-132.6319 1200.6085,-126.742 1190.0509,-125.8543 1191.8017,-132.6319"/>
</g>
<!-- leaf_28 -->
<g id="node29" class="node">
<title>leaf_28</title>
<polygon fill="none" stroke="#c0c0c0" points="1896.6655,-119.3021 1628.6655,-119.3021 1628.6655,-79.4979 1896.6655,-79.4979 1896.6655,-119.3021"/>
<text text-anchor="middle" x="1762.6655" y="-87.9" font-family="Inconsolata" font-size="14.00" fill="#000000"> turn an AST into a dotfile string. </text>
</g>
<!-- raw_27&#45;&gt;leaf_28 -->
<g id="edge28" class="edge">
<title>raw_27&#45;&gt;leaf_28</title>
<path fill="none" stroke="#000000" stroke-dasharray="5,2" d="M1762.6655,-683.6753C1762.6655,-598.5198 1762.6655,-236.217 1762.6655,-129.2491"/>
<polygon fill="#000000" stroke="#000000" points="1766.1656,-129.1532 1762.6655,-119.1532 1759.1656,-129.1533 1766.1656,-129.1532"/>
</g>
</g>
</svg>