<?xml version="1.0" encoding="UTF-8" standalone="no"?>
<!DOCTYPE svg PUBLIC "-//W3C//DTD SVG 1.1//EN"
 "http://www.w3.org/Graphics/SVG/1.1/DTD/svg11.dtd">
<!-- Generated by graphviz version 2.40.1 (20161225.0304)
 -->
<!-- Title: hierarchy Pages: 1 -->
<svg width="2582pt" height="890pt"
 viewBox="0.00 0.00 2582.38 890.00" xmlns="http://www.w3.org/2000/svg" xmlns:xlink="http://www.w3.org/1999/xlink">
<g id="graph0" class="graph" transform="scale(1 1) rotate(0) translate(4 886.0009)">
<title>hierarchy</title>
<polygon fill="#ffffff" stroke="transparent" points="-4,4 -4,-886.0009 2578.3788,-886.0009 2578.3788,4 -4,4"/>
<!-- doc_0 -->
<g id="node1" class="node">
<title>doc_0</title>
<ellipse fill="none" stroke="#000000" cx="933" cy="-864.0009" rx="46.9581" ry="18"/>
<text text-anchor="middle" x="933" y="-859.8009" font-family="Helvetica,sans-Serif" font-size="14.00" fill="#000000">doc &#45; 100</text>
</g>
<!-- section_1 -->
<g id="node2" class="node">
<title>section_1</title>
<ellipse fill="none" stroke="#000000" cx="933" cy="-792.0009" rx="60.9826" ry="18"/>
<text text-anchor="middle" x="933" y="-787.8009" font-family="Helvetica,sans-Serif" font-size="14.00" fill="#000000">section: 1&#45;76</text>
</g>
<!-- doc_0&#45;&gt;section_1 -->
<g id="edge1" class="edge">
<title>doc_0&#45;&gt;section_1</title>
<path fill="none" stroke="#000000" stroke-dasharray="5,2" d="M933,-845.8323C933,-838.1319 933,-828.9753 933,-820.4176"/>
<polygon fill="#000000" stroke="#000000" points="936.5001,-820.4142 933,-810.4142 929.5001,-820.4142 936.5001,-820.4142"/>
</g>
<!-- header_2 -->
<g id="node3" class="node">
<title>header_2</title>
<ellipse fill="none" stroke="#000000" cx="487" cy="-720.0009" rx="42.6061" ry="18"/>
<text text-anchor="middle" x="487" y="-715.8009" font-family="Helvetica,sans-Serif" font-size="14.00" fill="#000000">1 : Spec</text>
</g>
<!-- section_1&#45;&gt;header_2 -->
<g id="edge2" class="edge">
<title>section_1&#45;&gt;header_2</title>
<path fill="none" stroke="#000000" stroke-dasharray="5,2" d="M873.9213,-787.5578C796.2707,-780.8896 656.0071,-765.9813 539,-738.0009 535.5985,-737.1875 532.1064,-736.2386 528.6192,-735.2097"/>
<polygon fill="#000000" stroke="#000000" points="529.4735,-731.8093 518.8839,-732.1438 527.3707,-738.486 529.4735,-731.8093"/>
</g>
<!-- prose_3 -->
<g id="node4" class="node">
<title>prose_3</title>
<ellipse fill="none" stroke="#000000" cx="580" cy="-720.0009" rx="32.4585" ry="18"/>
<text text-anchor="middle" x="580" y="-715.8009" font-family="Helvetica,sans-Serif" font-size="14.00" fill="#000000">prose</text>
</g>
<!-- section_1&#45;&gt;prose_3 -->
<g id="edge3" class="edge">
<title>section_1&#45;&gt;prose_3</title>
<path fill="none" stroke="#000000" stroke-dasharray="5,2" d="M875.3913,-786.2643C812.0397,-778.9846 707.7187,-764.1184 621,-738.0009 618.5901,-737.2751 616.1341,-736.4451 613.6821,-735.5486"/>
<polygon fill="#000000" stroke="#000000" points="614.9367,-732.2811 604.3509,-731.8429 612.353,-738.7868 614.9367,-732.2811"/>
</g>
<!-- section_4 -->
<g id="node5" class="node">
<title>section_4</title>
<ellipse fill="none" stroke="#000000" cx="691" cy="-720.0009" rx="60.9826" ry="18"/>
<text text-anchor="middle" x="691" y="-715.8009" font-family="Helvetica,sans-Serif" font-size="14.00" fill="#000000">section: 6&#45;27</text>
</g>
<!-- section_1&#45;&gt;section_4 -->
<g id="edge4" class="edge">
<title>section_1&#45;&gt;section_4</title>
<path fill="none" stroke="#000000" stroke-dasharray="5,2" d="M890.0141,-779.2117C849.1018,-767.0395 787.446,-748.6956 743.6148,-735.6549"/>
<polygon fill="#000000" stroke="#000000" points="744.5753,-732.2891 733.9924,-732.7921 742.5791,-738.9985 744.5753,-732.2891"/>
</g>
<!-- section_5 -->
<g id="node6" class="node">
<title>section_5</title>
<ellipse fill="none" stroke="#000000" cx="1092" cy="-720.0009" rx="65.8187" ry="18"/>
<text text-anchor="middle" x="1092" y="-715.8009" font-family="Helvetica,sans-Serif" font-size="14.00" fill="#000000">section: 28&#45;68</text>
</g>
<!-- section_1&#45;&gt;section_5 -->
<g id="edge5" class="edge">
<title>section_1&#45;&gt;section_5</title>
<path fill="none" stroke="#000000" stroke-dasharray="5,2" d="M966.3316,-776.9074C990.2568,-766.0733 1022.7192,-751.3734 1048.6569,-739.628"/>
<polygon fill="#000000" stroke="#000000" points="1050.224,-742.7606 1057.8897,-735.4471 1047.3364,-736.3839 1050.224,-742.7606"/>
</g>
<!-- section_6 -->
<g id="node7" class="node">
<title>section_6</title>
<ellipse fill="none" stroke="#000000" cx="1522" cy="-720.0009" rx="65.8187" ry="18"/>
<text text-anchor="middle" x="1522" y="-715.8009" font-family="Helvetica,sans-Serif" font-size="14.00" fill="#000000">section: 69&#45;76</text>
</g>
<!-- section_1&#45;&gt;section_6 -->
<g id="edge6" class="edge">
<title>section_1&#45;&gt;section_6</title>
<path fill="none" stroke="#000000" stroke-dasharray="5,2" d="M989.209,-785.1299C1097.1981,-771.9292 1333.423,-743.0528 1451.6595,-728.5994"/>
<polygon fill="#000000" stroke="#000000" points="1452.1896,-732.0608 1461.691,-727.3732 1451.3402,-725.1125 1452.1896,-732.0608"/>
</g>
<!-- section_7 -->
<g id="node8" class="node">
<title>section_7</title>
<ellipse fill="none" stroke="#000000" cx="2052" cy="-720.0009" rx="70.655" ry="18"/>
<text text-anchor="middle" x="2052" y="-715.8009" font-family="Helvetica,sans-Serif" font-size="14.00" fill="#000000">section: 77&#45;100</text>
</g>
<!-- section_1&#45;&gt;section_7 -->
<g id="edge7" class="edge">
<title>section_1&#45;&gt;section_7</title>
<path fill="none" stroke="#000000" stroke-dasharray="5,2" d="M992.3722,-788.1807C1180.0846,-776.1027 1760.829,-738.7358 1973.1889,-725.0719"/>
<polygon fill="#000000" stroke="#000000" points="1973.5681,-728.5548 1983.3227,-724.4198 1973.1186,-721.5693 1973.5681,-728.5548"/>
</g>
<!-- raw_8 -->
<g id="node9" class="node">
<title>raw_8</title>
<ellipse fill="none" stroke="#000000" cx="257" cy="-648.0009" rx="27" ry="18"/>
<text text-anchor="middle" x="257" y="-643.8009" font-family="Helvetica,sans-Serif" font-size="14.00" fill="#000000">raw</text>
</g>
<!-- prose_3&#45;&gt;raw_8 -->
<g id="edge8" class="edge">
<title>prose_3&#45;&gt;raw_8</title>
<path fill="none" stroke="#000000" stroke-dasharray="5,2" d="M555.6641,-708.1087C550.2719,-705.8166 544.5181,-703.6267 539,-702.0009 442.2776,-673.5039 413.1746,-689.002 315,-666.0009 307.0605,-664.1408 298.6242,-661.7616 290.7161,-659.3469"/>
<polygon fill="#000000" stroke="#000000" points="291.6483,-655.971 281.0587,-656.3055 289.5455,-662.6477 291.6483,-655.971"/>
</g>
<!-- header_10 -->
<g id="node11" class="node">
<title>header_10</title>
<ellipse fill="none" stroke="#000000" cx="379" cy="-648.0009" rx="54.6851" ry="18"/>
<text text-anchor="middle" x="379" y="-643.8009" font-family="Helvetica,sans-Serif" font-size="14.00" fill="#000000">3 : includes</text>
</g>
<!-- section_4&#45;&gt;header_10 -->
<g id="edge10" class="edge">
<title>section_4&#45;&gt;header_10</title>
<path fill="none" stroke="#000000" stroke-dasharray="5,2" d="M645.5222,-707.9401C637.375,-705.8841 628.9496,-703.8256 621,-702.0009 542.3328,-683.9444 521.4593,-684.9404 443,-666.0009 438.7189,-664.9675 434.2922,-663.8423 429.8584,-662.6755"/>
<polygon fill="#000000" stroke="#000000" points="430.7605,-659.2938 420.1945,-660.0746 428.9412,-666.0533 430.7605,-659.2938"/>
</g>
<!-- prose_11 -->
<g id="node12" class="node">
<title>prose_11</title>
<ellipse fill="none" stroke="#000000" cx="484" cy="-648.0009" rx="32.4585" ry="18"/>
<text text-anchor="middle" x="484" y="-643.8009" font-family="Helvetica,sans-Serif" font-size="14.00" fill="#000000">prose</text>
</g>
<!-- section_4&#45;&gt;prose_11 -->
<g id="edge11" class="edge">
<title>section_4&#45;&gt;prose_11</title>
<path fill="none" stroke="#000000" stroke-dasharray="5,2" d="M647.9463,-707.2803C614.1945,-697.0004 566.2045,-681.7035 525,-666.0009 522.7935,-665.1601 520.5334,-664.2653 518.2635,-663.3413"/>
<polygon fill="#000000" stroke="#000000" points="519.5638,-660.0913 508.9889,-659.4413 516.8504,-666.544 519.5638,-660.0913"/>
</g>
<!-- codeblock_12 -->
<g id="node13" class="node">
<title>codeblock_12</title>
<ellipse fill="none" stroke="#000000" cx="607" cy="-648.0009" rx="72.5844" ry="18"/>
<text text-anchor="middle" x="607" y="-643.8009" font-family="Helvetica,sans-Serif" font-size="14.00" fill="#000000">code block 8&#45;22</text>
</g>
<!-- section_4&#45;&gt;codeblock_12 -->
<g id="edge12" class="edge">
<title>section_4&#45;&gt;codeblock_12</title>
<path fill="none" stroke="#000000" stroke-dasharray="5,2" d="M671.0932,-702.9379C660.3712,-693.7477 646.9639,-682.2557 635.1871,-672.1613"/>
<polygon fill="#000000" stroke="#000000" points="637.2178,-669.2922 627.3475,-665.4416 632.6623,-674.607 637.2178,-669.2922"/>
</g>
<!-- codeblock_13 -->
<g id="node14" class="node">
<title>codeblock_13</title>
<ellipse fill="none" stroke="#000000" cx="775" cy="-648.0009" rx="77.4211" ry="18"/>
<text text-anchor="middle" x="775" y="-643.8009" font-family="Helvetica,sans-Serif" font-size="14.00" fill="#000000">code block 24&#45;26</text>
</g>
<!-- section_4&#45;&gt;codeblock_13 -->
<g id="edge13" class="edge">
<title>section_4&#45;&gt;codeblock_13</title>
<path fill="none" stroke="#000000" stroke-dasharray="5,2" d="M710.9068,-702.9379C721.6288,-693.7477 735.0361,-682.2557 746.8129,-672.1613"/>
<polygon fill="#000000" stroke="#000000" points="749.3377,-674.607 754.6525,-665.4416 744.7822,-669.2922 749.3377,-674.607"/>
</g>
<!-- header_18 -->
<g id="node19" class="node">
<title>header_18</title>
<ellipse fill="none" stroke="#000000" cx="956" cy="-648.0009" rx="85.0876" ry="18"/>
<text text-anchor="middle" x="956" y="-643.8009" font-family="Helvetica,sans-Serif" font-size="14.00" fill="#000000">2 : Trivial Grammar</text>
</g>
<!-- section_5&#45;&gt;header_18 -->
<g id="edge18" class="edge">
<title>section_5&#45;&gt;header_18</title>
<path fill="none" stroke="#000000" stroke-dasharray="5,2" d="M1061.4789,-703.8427C1042.3774,-693.7302 1017.5379,-680.5798 996.7622,-669.5809"/>
<polygon fill="#000000" stroke="#000000" points="998.3132,-666.4418 987.8377,-664.8562 995.0379,-672.6284 998.3132,-666.4418"/>
</g>
<!-- prose_19 -->
<g id="node20" class="node">
<title>prose_19</title>
<ellipse fill="none" stroke="#000000" cx="1092" cy="-648.0009" rx="32.4585" ry="18"/>
<text text-anchor="middle" x="1092" y="-643.8009" font-family="Helvetica,sans-Serif" font-size="14.00" fill="#000000">prose</text>
</g>
<!-- section_5&#45;&gt;prose_19 -->
<g id="edge19" class="edge">
<title>section_5&#45;&gt;prose_19</title>
<path fill="none" stroke="#000000" stroke-dasharray="5,2" d="M1092,-701.8323C1092,-694.1319 1092,-684.9753 1092,-676.4176"/>
<polygon fill="#000000" stroke="#000000" points="1095.5001,-676.4142 1092,-666.4142 1088.5001,-676.4142 1095.5001,-676.4142"/>
</g>
<!-- prose_20 -->
<g id="node21" class="node">
<title>prose_20</title>
<ellipse fill="none" stroke="#000000" cx="1174" cy="-648.0009" rx="32.4585" ry="18"/>
<text text-anchor="middle" x="1174" y="-643.8009" font-family="Helvetica,sans-Serif" font-size="14.00" fill="#000000">prose</text>
</g>
<!-- section_5&#45;&gt;prose_20 -->
<g id="edge20" class="edge">
<title>section_5&#45;&gt;prose_20</title>
<path fill="none" stroke="#000000" stroke-dasharray="5,2" d="M1111.8499,-702.5717C1122.9412,-692.833 1136.8761,-680.5975 1148.7387,-670.1816"/>
<polygon fill="#000000" stroke="#000000" points="1151.3546,-672.5424 1156.5597,-663.3143 1146.736,-667.2823 1151.3546,-672.5424"/>
</g>
<!-- codeblock_21 -->
<g id="node22" class="node">
<title>codeblock_21</title>
<ellipse fill="none" stroke="#000000" cx="1302" cy="-648.0009" rx="77.4211" ry="18"/>
<text text-anchor="middle" x="1302" y="-643.8009" font-family="Helvetica,sans-Serif" font-size="14.00" fill="#000000">code block 34&#45;67</text>
</g>
<!-- section_5&#45;&gt;codeblock_21 -->
<g id="edge21" class="edge">
<title>section_5&#45;&gt;codeblock_21</title>
<path fill="none" stroke="#000000" stroke-dasharray="5,2" d="M1133.2387,-705.862C1166.212,-694.5568 1212.6867,-678.6226 1248.5192,-666.3372"/>
<polygon fill="#000000" stroke="#000000" points="1249.9992,-669.5299 1258.3235,-662.9757 1247.7289,-662.9082 1249.9992,-669.5299"/>
</g>
<!-- header_27 -->
<g id="node28" class="node">
<title>header_27</title>
<ellipse fill="none" stroke="#000000" cx="1464" cy="-648.0009" rx="66.7704" ry="18"/>
<text text-anchor="middle" x="1464" y="-643.8009" font-family="Helvetica,sans-Serif" font-size="14.00" fill="#000000">2 : Easy mode</text>
</g>
<!-- section_6&#45;&gt;header_27 -->
<g id="edge27" class="edge">
<title>section_6&#45;&gt;header_27</title>
<path fill="none" stroke="#000000" stroke-dasharray="5,2" d="M1507.6629,-702.2032C1500.7095,-693.5713 1492.2298,-683.0449 1484.5994,-673.5726"/>
<polygon fill="#000000" stroke="#000000" points="1487.1711,-671.1859 1478.1722,-665.594 1481.7198,-675.5772 1487.1711,-671.1859"/>
</g>
<!-- prose_28 -->
<g id="node29" class="node">
<title>prose_28</title>
<ellipse fill="none" stroke="#000000" cx="1581" cy="-648.0009" rx="32.4585" ry="18"/>
<text text-anchor="middle" x="1581" y="-643.8009" font-family="Helvetica,sans-Serif" font-size="14.00" fill="#000000">prose</text>
</g>
<!-- section_6&#45;&gt;prose_28 -->
<g id="edge28" class="edge">
<title>section_6&#45;&gt;prose_28</title>
<path fill="none" stroke="#000000" stroke-dasharray="5,2" d="M1536.5843,-702.2032C1543.9423,-693.2239 1552.9804,-682.1944 1560.9784,-672.434"/>
<polygon fill="#000000" stroke="#000000" points="1563.7614,-674.56 1567.3924,-664.6068 1558.347,-670.1232 1563.7614,-674.56"/>
</g>
<!-- codeblock_29 -->
<g id="node30" class="node">
<title>codeblock_29</title>
<ellipse fill="none" stroke="#000000" cx="1709" cy="-648.0009" rx="77.4211" ry="18"/>
<text text-anchor="middle" x="1709" y="-643.8009" font-family="Helvetica,sans-Serif" font-size="14.00" fill="#000000">code block 71&#45;75</text>
</g>
<!-- section_6&#45;&gt;codeblock_29 -->
<g id="edge29" class="edge">
<title>section_6&#45;&gt;codeblock_29</title>
<path fill="none" stroke="#000000" stroke-dasharray="5,2" d="M1560.2935,-705.2569C1588.9571,-694.2207 1628.4052,-679.0321 1659.4691,-667.0717"/>
<polygon fill="#000000" stroke="#000000" points="1660.7447,-670.3311 1668.8192,-663.4716 1658.2294,-663.7985 1660.7447,-670.3311"/>
</g>
<!-- header_33 -->
<g id="node34" class="node">
<title>header_33</title>
<ellipse fill="none" stroke="#000000" cx="1871" cy="-648.0009" rx="66.7444" ry="18"/>
<text text-anchor="middle" x="1871" y="-643.8009" font-family="Helvetica,sans-Serif" font-size="14.00" fill="#000000">2 : With metas</text>
</g>
<!-- section_7&#45;&gt;header_33 -->
<g id="edge33" class="edge">
<title>section_7&#45;&gt;header_33</title>
<path fill="none" stroke="#000000" stroke-dasharray="5,2" d="M2013.6146,-704.7316C1985.7106,-693.6317 1947.7796,-678.5431 1918.0505,-666.7171"/>
<polygon fill="#000000" stroke="#000000" points="1919.295,-663.4455 1908.7095,-663.0014 1916.7076,-669.9498 1919.295,-663.4455"/>
</g>
<!-- prose_34 -->
<g id="node35" class="node">
<title>prose_34</title>
<ellipse fill="none" stroke="#000000" cx="1988" cy="-648.0009" rx="32.4585" ry="18"/>
<text text-anchor="middle" x="1988" y="-643.8009" font-family="Helvetica,sans-Serif" font-size="14.00" fill="#000000">prose</text>
</g>
<!-- section_7&#45;&gt;prose_34 -->
<g id="edge34" class="edge">
<title>section_7&#45;&gt;prose_34</title>
<path fill="none" stroke="#000000" stroke-dasharray="5,2" d="M2036.1798,-702.2032C2028.1184,-693.1341 2018.1979,-681.9736 2009.4584,-672.1416"/>
<polygon fill="#000000" stroke="#000000" points="2012.0204,-669.7556 2002.7607,-664.6068 2006.7885,-674.4062 2012.0204,-669.7556"/>
</g>
<!-- codeblock_35 -->
<g id="node36" class="node">
<title>codeblock_35</title>
<ellipse fill="none" stroke="#000000" cx="2116" cy="-648.0009" rx="77.4211" ry="18"/>
<text text-anchor="middle" x="2116" y="-643.8009" font-family="Helvetica,sans-Serif" font-size="14.00" fill="#000000">code block 79&#45;92</text>
</g>
<!-- section_7&#45;&gt;codeblock_35 -->
<g id="edge35" class="edge">
<title>section_7&#45;&gt;codeblock_35</title>
<path fill="none" stroke="#000000" stroke-dasharray="5,2" d="M2067.8202,-702.2032C2075.5126,-693.5492 2084.8978,-682.9909 2093.3344,-673.4998"/>
<polygon fill="#000000" stroke="#000000" points="2096.1122,-675.6429 2100.14,-665.8435 2090.8803,-670.9923 2096.1122,-675.6429"/>
</g>
<!-- codeblock_36 -->
<g id="node37" class="node">
<title>codeblock_36</title>
<ellipse fill="none" stroke="#000000" cx="2305" cy="-648.0009" rx="77.4211" ry="18"/>
<text text-anchor="middle" x="2305" y="-643.8009" font-family="Helvetica,sans-Serif" font-size="14.00" fill="#000000">code block 94&#45;96</text>
</g>
<!-- section_7&#45;&gt;codeblock_36 -->
<g id="edge36" class="edge">
<title>section_7&#45;&gt;codeblock_36</title>
<path fill="none" stroke="#000000" stroke-dasharray="5,2" d="M2099.2906,-706.5427C2140.776,-694.7366 2201.2794,-677.5183 2245.9374,-664.8093"/>
<polygon fill="#000000" stroke="#000000" points="2247.1229,-668.111 2255.7829,-662.0074 2245.2068,-661.3783 2247.1229,-668.111"/>
</g>
<!-- codeblock_37 -->
<g id="node38" class="node">
<title>codeblock_37</title>
<ellipse fill="none" stroke="#000000" cx="2492" cy="-648.0009" rx="82.2579" ry="18"/>
<text text-anchor="middle" x="2492" y="-643.8009" font-family="Helvetica,sans-Serif" font-size="14.00" fill="#000000">code block 98&#45;100</text>
</g>
<!-- section_7&#45;&gt;codeblock_37 -->
<g id="edge37" class="edge">
<title>section_7&#45;&gt;codeblock_37</title>
<path fill="none" stroke="#000000" stroke-dasharray="5,2" d="M2112.6803,-710.6796C2180.5541,-700.173 2293.7432,-682.4121 2391,-666.0009 2399.8994,-664.4993 2409.2328,-662.8868 2418.4798,-661.2663"/>
<polygon fill="#000000" stroke="#000000" points="2419.2138,-664.691 2428.4552,-659.5096 2417.9997,-657.7971 2419.2138,-664.691"/>
</g>
<!-- leaf_9 -->
<g id="node10" class="node">
<title>leaf_9</title>
<polygon fill="none" stroke="#c0c0c0" points="408,-378.6016 0,-378.6016 0,-306.7993 408,-306.7993 408,-378.6016"/>
<text text-anchor="middle" x="204" y="-315.2005" font-family="Inconsolata" font-size="14.00" fill="#000000"> &#160;A small test harness to exercise our fresh Node class.</text>
</g>
<!-- raw_8&#45;&gt;leaf_9 -->
<g id="edge9" class="edge">
<title>raw_8&#45;&gt;leaf_9</title>
<path fill="none" stroke="#000000" stroke-dasharray="5,2" d="M253.8433,-629.8173C245.7143,-582.9911 223.8686,-457.1514 211.9773,-388.6528"/>
<polygon fill="#000000" stroke="#000000" points="215.3868,-387.8294 210.2279,-378.5755 208.4899,-389.0268 215.3868,-387.8294"/>
</g>
<!-- raw_14 -->
<g id="node15" class="node">
<title>raw_14</title>
<ellipse fill="none" stroke="#000000" cx="453" cy="-342.7005" rx="27" ry="18"/>
<text text-anchor="middle" x="453" y="-338.5005" font-family="Helvetica,sans-Serif" font-size="14.00" fill="#000000">raw</text>
</g>
<!-- prose_11&#45;&gt;raw_14 -->
<g id="edge14" class="edge">
<title>prose_11&#45;&gt;raw_14</title>
<path fill="none" stroke="#000000" stroke-dasharray="5,2" d="M482.1536,-629.8173C476.9523,-578.5923 462.1498,-432.8116 455.8715,-370.9797"/>
<polygon fill="#000000" stroke="#000000" points="459.3291,-370.3841 454.8367,-360.7888 452.3649,-371.0913 459.3291,-370.3841"/>
</g>
<!-- leaf_16 -->
<g id="node17" class="node">
<title>leaf_16</title>
<polygon fill="none" stroke="#c0c0c0" points="780,-439.7008 498,-439.7008 498,-245.7002 780,-245.7002 780,-439.7008"/>
<text text-anchor="middle" x="639" y="-424.5006" font-family="Inconsolata" font-size="14.00" fill="#000000">local u = require &quot;util&quot;</text>
<text text-anchor="middle" x="639" y="-409.1006" font-family="Inconsolata" font-size="14.00" fill="#000000">local m = require &quot;grym/morphemes&quot;</text>
<text text-anchor="middle" x="639" y="-377.7006" font-family="Inconsolata" font-size="14.00" fill="#000000">local Grammar = require &quot;node/grammar&quot;</text>
<text text-anchor="middle" x="639" y="-362.3005" font-family="Inconsolata" font-size="14.00" fill="#000000">local Node = require &quot;node/node&quot;</text>
<text text-anchor="middle" x="639" y="-346.9005" font-family="Inconsolata" font-size="14.00" fill="#000000">local epnf = require &quot;peg/epnf&quot;</text>
<text text-anchor="middle" x="639" y="-331.5005" font-family="Inconsolata" font-size="14.00" fill="#000000">local pnf = require &quot;node/define&quot;</text>
<text text-anchor="middle" x="639" y="-316.1005" font-family="Inconsolata" font-size="14.00" fill="#000000">local L = require &quot;lpeg&quot;</text>
<text text-anchor="middle" x="639" y="-300.7004" font-family="Inconsolata" font-size="14.00" fill="#000000">local P = L.P</text>
<text text-anchor="middle" x="639" y="-285.3004" font-family="Inconsolata" font-size="14.00" fill="#000000">local V = L.V</text>
<text text-anchor="middle" x="639" y="-269.9004" font-family="Inconsolata" font-size="14.00" fill="#000000">local C = L.C</text>
</g>
<!-- codeblock_12&#45;&gt;leaf_16 -->
<g id="edge16" class="edge">
<title>codeblock_12&#45;&gt;leaf_16</title>
<path fill="none" stroke="#000000" stroke-dasharray="5,2" d="M608.9059,-629.8173C612.5598,-594.9571 620.8036,-516.3061 627.7405,-450.1234"/>
<polygon fill="#000000" stroke="#000000" points="631.2361,-450.3475 628.7977,-440.0371 624.2742,-449.6178 631.2361,-450.3475"/>
</g>
<!-- leaf_17 -->
<g id="node18" class="node">
<title>leaf_17</title>
<polygon fill="none" stroke="#c0c0c0" points="919.5,-360.7005 798.5,-360.7005 798.5,-324.7005 919.5,-324.7005 919.5,-360.7005"/>
<text text-anchor="middle" x="859" y="-339.2005" font-family="Inconsolata" font-size="14.00" fill="#000000">local Spec = {}</text>
</g>
<!-- codeblock_13&#45;&gt;leaf_17 -->
<g id="edge17" class="edge">
<title>codeblock_13&#45;&gt;leaf_17</title>
<path fill="none" stroke="#000000" stroke-dasharray="5,2" d="M780.003,-629.8173C794.1262,-578.4863 834.3731,-432.2075 851.3247,-370.5967"/>
<polygon fill="#000000" stroke="#000000" points="854.7449,-371.3591 854.0232,-360.7888 847.9957,-369.502 854.7449,-371.3591"/>
</g>
<!-- leaf_15 -->
<g id="node16" class="node">
<title>leaf_15</title>
<polygon fill="none" stroke="#c0c0c0" points="480,-45.7 426,-45.7 426,-9.7 480,-9.7 480,-45.7"/>
</g>
<!-- raw_14&#45;&gt;leaf_15 -->
<g id="edge15" class="edge">
<title>raw_14&#45;&gt;leaf_15</title>
<path fill="none" stroke="#000000" stroke-dasharray="5,2" d="M453,-324.4032C453,-271.774 453,-119.7153 453,-56.1542"/>
<polygon fill="#000000" stroke="#000000" points="456.5001,-56.0478 453,-46.0478 449.5001,-56.0479 456.5001,-56.0478"/>
</g>
<!-- raw_22 -->
<g id="node23" class="node">
<title>raw_22</title>
<ellipse fill="none" stroke="#000000" cx="1044" cy="-342.7005" rx="27" ry="18"/>
<text text-anchor="middle" x="1044" y="-338.5005" font-family="Helvetica,sans-Serif" font-size="14.00" fill="#000000">raw</text>
</g>
<!-- prose_19&#45;&gt;raw_22 -->
<g id="edge22" class="edge">
<title>prose_19&#45;&gt;raw_22</title>
<path fill="none" stroke="#000000" stroke-dasharray="5,2" d="M1089.1411,-629.8173C1081.0874,-578.5923 1058.1675,-432.8116 1048.4461,-370.9797"/>
<polygon fill="#000000" stroke="#000000" points="1051.8546,-370.1239 1046.8439,-360.7888 1044.9396,-371.2111 1051.8546,-370.1239"/>
</g>
<!-- raw_24 -->
<g id="node25" class="node">
<title>raw_24</title>
<ellipse fill="none" stroke="#000000" cx="1167" cy="-342.7005" rx="27" ry="18"/>
<text text-anchor="middle" x="1167" y="-338.5005" font-family="Helvetica,sans-Serif" font-size="14.00" fill="#000000">raw</text>
</g>
<!-- prose_20&#45;&gt;raw_24 -->
<g id="edge24" class="edge">
<title>prose_20&#45;&gt;raw_24</title>
<path fill="none" stroke="#000000" stroke-dasharray="5,2" d="M1173.5831,-629.8173C1172.4086,-578.5923 1169.0661,-432.8116 1167.6484,-370.9797"/>
<polygon fill="#000000" stroke="#000000" points="1171.1431,-370.706 1167.4147,-360.7888 1164.145,-370.8665 1171.1431,-370.706"/>
</g>
<!-- leaf_26 -->
<g id="node27" class="node">
<title>leaf_26</title>
<polygon fill="none" stroke="#c0c0c0" points="1536,-593.8015 1212,-593.8015 1212,-91.5994 1536,-91.5994 1536,-593.8015"/>
<text text-anchor="middle" x="1374" y="-578.8009" font-family="Inconsolata" font-size="14.00" fill="#000000">local function epsilon(_ENV)</text>
<text text-anchor="middle" x="1374" y="-563.4009" font-family="Inconsolata" font-size="14.00" fill="#000000"> &#160;START &quot;any&quot;</text>
<text text-anchor="middle" x="1374" y="-548.0009" font-family="Inconsolata" font-size="14.00" fill="#000000"> &#160;any = V&quot;anything&quot; + V&quot;other&quot;</text>
<text text-anchor="middle" x="1374" y="-532.6008" font-family="Inconsolata" font-size="14.00" fill="#000000"> &#160;anything = P(1)</text>
<text text-anchor="middle" x="1374" y="-517.2008" font-family="Inconsolata" font-size="14.00" fill="#000000"> &#160;other = P(1)^1</text>
<text text-anchor="middle" x="1374" y="-501.8008" font-family="Inconsolata" font-size="14.00" fill="#000000">end </text>
<text text-anchor="middle" x="1374" y="-470.4007" font-family="Inconsolata" font-size="14.00" fill="#000000">local function a(_ENV)</text>
<text text-anchor="middle" x="1374" y="-455.0007" font-family="Inconsolata" font-size="14.00" fill="#000000"> &#160;START &quot;A&quot;</text>
<text text-anchor="middle" x="1374" y="-439.6007" font-family="Inconsolata" font-size="14.00" fill="#000000"> &#160;A = P&quot;a&quot; + P&quot;A&quot;</text>
<text text-anchor="middle" x="1374" y="-424.2007" font-family="Inconsolata" font-size="14.00" fill="#000000">end</text>
<text text-anchor="middle" x="1374" y="-392.8006" font-family="Inconsolata" font-size="14.00" fill="#000000">local function ab(_ENV)</text>
<text text-anchor="middle" x="1374" y="-377.4006" font-family="Inconsolata" font-size="14.00" fill="#000000"> &#160;START &quot;AB&quot;</text>
<text text-anchor="middle" x="1374" y="-362.0006" font-family="Inconsolata" font-size="14.00" fill="#000000"> &#160;AB = V&quot;B&quot; + V&quot;A&quot; &#160;</text>
<text text-anchor="middle" x="1374" y="-346.6005" font-family="Inconsolata" font-size="14.00" fill="#000000"> &#160;A = P&quot;a&quot; + P&quot;A&quot;</text>
<text text-anchor="middle" x="1374" y="-331.2005" font-family="Inconsolata" font-size="14.00" fill="#000000"> &#160;B = V&quot;bmatch&quot; + (V&quot;A&quot; * V&quot;bmatch&quot;)</text>
<text text-anchor="middle" x="1374" y="-315.8005" font-family="Inconsolata" font-size="14.00" fill="#000000"> &#160;bmatch = P&quot;b&quot; + P&quot;B&quot;</text>
<text text-anchor="middle" x="1374" y="-300.4004" font-family="Inconsolata" font-size="14.00" fill="#000000">end</text>
<text text-anchor="middle" x="1374" y="-269.0004" font-family="Inconsolata" font-size="14.00" fill="#000000">local function clu_gm(_ENV)</text>
<text text-anchor="middle" x="1374" y="-253.6004" font-family="Inconsolata" font-size="14.00" fill="#000000"> &#160;local WS = P(m._ + m.NL)^0</text>
<text text-anchor="middle" x="1374" y="-238.2003" font-family="Inconsolata" font-size="14.00" fill="#000000"> &#160;START &quot;clu&quot;</text>
<text text-anchor="middle" x="1374" y="-222.8003" font-family="Inconsolata" font-size="14.00" fill="#000000"> &#160;SUPPRESS &quot;form&quot;</text>
<text text-anchor="middle" x="1374" y="-207.4003" font-family="Inconsolata" font-size="14.00" fill="#000000"> &#160;clu = V&quot;form&quot;^1</text>
<text text-anchor="middle" x="1374" y="-192.0002" font-family="Inconsolata" font-size="14.00" fill="#000000"> &#160;form = (V&quot;number&quot; * WS)</text>
<text text-anchor="middle" x="1374" y="-176.6002" font-family="Inconsolata" font-size="14.00" fill="#000000"> &#160;&#160;&#160;&#160;&#160;&#160;+ (V&quot;atom&quot; * WS) </text>
<text text-anchor="middle" x="1374" y="-161.2002" font-family="Inconsolata" font-size="14.00" fill="#000000"> &#160;&#160;&#160;&#160;&#160;&#160;+ (V&quot;expr&quot; * WS)</text>
<text text-anchor="middle" x="1374" y="-145.8002" font-family="Inconsolata" font-size="14.00" fill="#000000"> &#160;expr = m.pal * WS * V&quot;form&quot;^0 * WS * m.par</text>
<text text-anchor="middle" x="1374" y="-130.4001" font-family="Inconsolata" font-size="14.00" fill="#000000"> &#160;atom = m.symbol</text>
<text text-anchor="middle" x="1374" y="-115.0001" font-family="Inconsolata" font-size="14.00" fill="#000000"> &#160;number = m.number</text>
<text text-anchor="middle" x="1374" y="-99.6001" font-family="Inconsolata" font-size="14.00" fill="#000000">end</text>
</g>
<!-- codeblock_21&#45;&gt;leaf_26 -->
<g id="edge26" class="edge">
<title>codeblock_21&#45;&gt;leaf_26</title>
<path fill="none" stroke="#000000" stroke-dasharray="5,2" d="M1306.2883,-629.8173C1307.9572,-622.7409 1310.0516,-613.86 1312.4605,-603.6452"/>
<polygon fill="#000000" stroke="#000000" points="1315.8692,-604.4393 1314.7581,-593.9028 1309.0561,-602.8324 1315.8692,-604.4393"/>
</g>
<!-- leaf_23 -->
<g id="node24" class="node">
<title>leaf_23</title>
<polygon fill="none" stroke="#c0c0c0" points="1063,-55.6015 739,-55.6015 739,.2015 1063,.2015 1063,-55.6015"/>
<text text-anchor="middle" x="901" y="-8.2" font-family="Inconsolata" font-size="14.00" fill="#000000">This should succeed under all circumstances.</text>
</g>
<!-- raw_22&#45;&gt;leaf_23 -->
<g id="edge23" class="edge">
<title>raw_22&#45;&gt;leaf_23</title>
<path fill="none" stroke="#000000" stroke-dasharray="5,2" d="M1036.108,-325.316C1013.6277,-275.7963 948.8876,-133.1869 917.9091,-64.9474"/>
<polygon fill="#000000" stroke="#000000" points="921.0906,-63.4884 913.7699,-55.8295 914.7166,-66.382 921.0906,-63.4884"/>
</g>
<!-- leaf_25 -->
<g id="node26" class="node">
<title>leaf_25</title>
<polygon fill="none" stroke="#c0c0c0" points="1440.5,-47.6021 1081.5,-47.6021 1081.5,-7.7979 1440.5,-7.7979 1440.5,-47.6021"/>
<text text-anchor="middle" x="1261" y="-16.2" font-family="Inconsolata" font-size="14.00" fill="#000000">I&#39;d have to guess what it will return currently. </text>
</g>
<!-- raw_24&#45;&gt;leaf_25 -->
<g id="edge25" class="edge">
<title>raw_24&#45;&gt;leaf_25</title>
<path fill="none" stroke="#000000" stroke-dasharray="5,2" d="M1166.0631,-324.6229C1164.5727,-281.8394 1165.0433,-171.9328 1203,-91.4 1209.3626,-77.9006 1219.5767,-65.2471 1229.6733,-54.831"/>
<polygon fill="#000000" stroke="#000000" points="1232.2821,-57.1741 1236.9477,-47.6618 1227.3685,-52.1884 1232.2821,-57.1741"/>
</g>
<!-- raw_30 -->
<g id="node31" class="node">
<title>raw_30</title>
<ellipse fill="none" stroke="#000000" cx="1581" cy="-342.7005" rx="27" ry="18"/>
<text text-anchor="middle" x="1581" y="-338.5005" font-family="Helvetica,sans-Serif" font-size="14.00" fill="#000000">raw</text>
</g>
<!-- prose_28&#45;&gt;raw_30 -->
<g id="edge30" class="edge">
<title>prose_28&#45;&gt;raw_30</title>
<path fill="none" stroke="#000000" stroke-dasharray="5,2" d="M1581,-629.8173C1581,-578.5923 1581,-432.8116 1581,-370.9797"/>
<polygon fill="#000000" stroke="#000000" points="1584.5001,-370.7888 1581,-360.7888 1577.5001,-370.7889 1584.5001,-370.7888"/>
</g>
<!-- leaf_32 -->
<g id="node33" class="node">
<title>leaf_32</title>
<polygon fill="none" stroke="#c0c0c0" points="1859.5,-369.9009 1626.5,-369.9009 1626.5,-315.5 1859.5,-315.5 1859.5,-369.9009"/>
<text text-anchor="middle" x="1743" y="-354.6005" font-family="Inconsolata" font-size="14.00" fill="#000000">Spec.trivial = Grammar(epsilon)</text>
<text text-anchor="middle" x="1743" y="-339.2005" font-family="Inconsolata" font-size="14.00" fill="#000000">Spec.a = Grammar(a)</text>
<text text-anchor="middle" x="1743" y="-323.8005" font-family="Inconsolata" font-size="14.00" fill="#000000">Spec.clu = Grammar(clu_gm)</text>
</g>
<!-- codeblock_29&#45;&gt;leaf_32 -->
<g id="edge32" class="edge">
<title>codeblock_29&#45;&gt;leaf_32</title>
<path fill="none" stroke="#000000" stroke-dasharray="5,2" d="M1711.025,-629.8173C1716.4666,-580.9549 1731.4896,-446.0576 1738.8402,-380.0532"/>
<polygon fill="#000000" stroke="#000000" points="1742.323,-380.4011 1739.9514,-370.0752 1735.366,-379.6263 1742.323,-380.4011"/>
</g>
<!-- leaf_31 -->
<g id="node32" class="node">
<title>leaf_31</title>
<polygon fill="none" stroke="#c0c0c0" points="1608,-45.7 1554,-45.7 1554,-9.7 1608,-9.7 1608,-45.7"/>
</g>
<!-- raw_30&#45;&gt;leaf_31 -->
<g id="edge31" class="edge">
<title>raw_30&#45;&gt;leaf_31</title>
<path fill="none" stroke="#000000" stroke-dasharray="5,2" d="M1581,-324.4032C1581,-271.774 1581,-119.7153 1581,-56.1542"/>
<polygon fill="#000000" stroke="#000000" points="1584.5001,-56.0478 1581,-46.0478 1577.5001,-56.0479 1584.5001,-56.0478"/>
</g>
<!-- raw_38 -->
<g id="node39" class="node">
<title>raw_38</title>
<ellipse fill="none" stroke="#000000" cx="1928" cy="-342.7005" rx="27" ry="18"/>
<text text-anchor="middle" x="1928" y="-338.5005" font-family="Helvetica,sans-Serif" font-size="14.00" fill="#000000">raw</text>
</g>
<!-- prose_34&#45;&gt;raw_38 -->
<g id="edge38" class="edge">
<title>prose_34&#45;&gt;raw_38</title>
<path fill="none" stroke="#000000" stroke-dasharray="5,2" d="M1978.7242,-630.4655C1973.6323,-620.1204 1967.6323,-606.6204 1964,-594.0009 1941.2671,-515.0207 1932.551,-417.7639 1929.4934,-370.7625"/>
<polygon fill="#000000" stroke="#000000" points="1932.9835,-370.4932 1928.8779,-360.7262 1925.9967,-370.9217 1932.9835,-370.4932"/>
</g>
<!-- leaf_40 -->
<g id="node41" class="node">
<title>leaf_40</title>
<polygon fill="none" stroke="#c0c0c0" points="2213,-440.4008 1973,-440.4008 1973,-245.0001 2213,-245.0001 2213,-440.4008"/>
<text text-anchor="middle" x="2093" y="-409.1006" font-family="Inconsolata" font-size="14.00" fill="#000000">local metas = {}</text>
<text text-anchor="middle" x="2093" y="-377.7006" font-family="Inconsolata" font-size="14.00" fill="#000000">local AMt, amt = u.inherit(Node)</text>
<text text-anchor="middle" x="2093" y="-346.3005" font-family="Inconsolata" font-size="14.00" fill="#000000">local function Anew(A, t, str)</text>
<text text-anchor="middle" x="2093" y="-330.9005" font-family="Inconsolata" font-size="14.00" fill="#000000"> &#160;local a = setmetatable(t, AMt)</text>
<text text-anchor="middle" x="2093" y="-315.5005" font-family="Inconsolata" font-size="14.00" fill="#000000"> &#160;a.id = &quot;A&quot; &#160;</text>
<text text-anchor="middle" x="2093" y="-300.1005" font-family="Inconsolata" font-size="14.00" fill="#000000"> &#160;return a</text>
<text text-anchor="middle" x="2093" y="-284.7004" font-family="Inconsolata" font-size="14.00" fill="#000000">end</text>
<text text-anchor="middle" x="2093" y="-253.3004" font-family="Inconsolata" font-size="14.00" fill="#000000">metas[&quot;A&quot;] = u.export(amt, Anew)</text>
</g>
<!-- codeblock_35&#45;&gt;leaf_40 -->
<g id="edge40" class="edge">
<title>codeblock_35&#45;&gt;leaf_40</title>
<path fill="none" stroke="#000000" stroke-dasharray="5,2" d="M2114.6301,-629.8173C2112.0085,-595.0182 2106.0994,-516.5815 2101.119,-450.4712"/>
<polygon fill="#000000" stroke="#000000" points="2104.6013,-450.1037 2100.3599,-440.395 2097.6211,-450.6297 2104.6013,-450.1037"/>
</g>
<!-- leaf_41 -->
<g id="node42" class="node">
<title>leaf_41</title>
<polygon fill="none" stroke="#c0c0c0" points="2443,-360.7005 2231,-360.7005 2231,-324.7005 2443,-324.7005 2443,-360.7005"/>
<text text-anchor="middle" x="2337" y="-339.2005" font-family="Inconsolata" font-size="14.00" fill="#000000">Spec.ab = Grammar(ab, metas)</text>
</g>
<!-- codeblock_36&#45;&gt;leaf_41 -->
<g id="edge41" class="edge">
<title>codeblock_36&#45;&gt;leaf_41</title>
<path fill="none" stroke="#000000" stroke-dasharray="5,2" d="M2306.9059,-629.8173C2312.275,-578.5923 2327.555,-432.8116 2334.0359,-370.9797"/>
<polygon fill="#000000" stroke="#000000" points="2337.5425,-371.0992 2335.1041,-360.7888 2330.5806,-370.3695 2337.5425,-371.0992"/>
</g>
<!-- leaf_42 -->
<g id="node43" class="node">
<title>leaf_42</title>
<polygon fill="none" stroke="#c0c0c0" points="2554.5,-360.7005 2461.5,-360.7005 2461.5,-324.7005 2554.5,-324.7005 2554.5,-360.7005"/>
<text text-anchor="middle" x="2508" y="-339.2005" font-family="Inconsolata" font-size="14.00" fill="#000000">return Spec</text>
</g>
<!-- codeblock_37&#45;&gt;leaf_42 -->
<g id="edge42" class="edge">
<title>codeblock_37&#45;&gt;leaf_42</title>
<path fill="none" stroke="#000000" stroke-dasharray="5,2" d="M2492.953,-629.8173C2495.6375,-578.5923 2503.2775,-432.8116 2506.518,-370.9797"/>
<polygon fill="#000000" stroke="#000000" points="2510.0238,-370.9583 2507.052,-360.7888 2503.0334,-370.5919 2510.0238,-370.9583"/>
</g>
<!-- leaf_39 -->
<g id="node40" class="node">
<title>leaf_39</title>
<polygon fill="none" stroke="#c0c0c0" points="1955,-45.7 1901,-45.7 1901,-9.7 1955,-9.7 1955,-45.7"/>
</g>
<!-- raw_38&#45;&gt;leaf_39 -->
<g id="edge39" class="edge">
<title>raw_38&#45;&gt;leaf_39</title>
<path fill="none" stroke="#000000" stroke-dasharray="5,2" d="M1928,-324.4032C1928,-271.774 1928,-119.7153 1928,-56.1542"/>
<polygon fill="#000000" stroke="#000000" points="1931.5001,-56.0478 1928,-46.0478 1924.5001,-56.0479 1931.5001,-56.0478"/>
</g>
</g>
</svg>