<?xml version="1.0" encoding="UTF-8" standalone="no"?>
<!DOCTYPE svg PUBLIC "-//W3C//DTD SVG 1.1//EN"
 "http://www.w3.org/Graphics/SVG/1.1/DTD/svg11.dtd">
<!-- Generated by graphviz version 2.40.1 (20161225.0304)
 -->
<!-- Title: hierarchy Pages: 1 -->
<svg width="3028pt" height="893pt"
 viewBox="0.00 0.00 3028.00 893.40" xmlns="http://www.w3.org/2000/svg" xmlns:xlink="http://www.w3.org/1999/xlink">
<g id="graph0" class="graph" transform="scale(1 1) rotate(0) translate(4 889.401)">
<title>hierarchy</title>
<polygon fill="#ffffff" stroke="transparent" points="-4,4 -4,-889.401 3024,-889.401 3024,4 -4,4"/>
<!-- doc_0 -->
<g id="node1" class="node">
<title>doc_0</title>
<ellipse fill="none" stroke="#000000" cx="1028" cy="-867.401" rx="46.9581" ry="18"/>
<text text-anchor="middle" x="1028" y="-863.201" font-family="Helvetica,sans-Serif" font-size="14.00" fill="#000000">doc &#45; 100</text>
</g>
<!-- section_1 -->
<g id="node2" class="node">
<title>section_1</title>
<ellipse fill="none" stroke="#000000" cx="1028" cy="-795.401" rx="60.9826" ry="18"/>
<text text-anchor="middle" x="1028" y="-791.201" font-family="Helvetica,sans-Serif" font-size="14.00" fill="#000000">section: 1&#45;76</text>
</g>
<!-- doc_0&#45;&gt;section_1 -->
<g id="edge1" class="edge">
<title>doc_0&#45;&gt;section_1</title>
<path fill="none" stroke="#000000" stroke-dasharray="5,2" d="M1028,-849.2323C1028,-841.5319 1028,-832.3753 1028,-823.8176"/>
<polygon fill="#000000" stroke="#000000" points="1031.5001,-823.8142 1028,-813.8142 1024.5001,-823.8143 1031.5001,-823.8142"/>
</g>
<!-- header_2 -->
<g id="node3" class="node">
<title>header_2</title>
<ellipse fill="none" stroke="#000000" cx="536" cy="-723.401" rx="42.6061" ry="18"/>
<text text-anchor="middle" x="536" y="-719.201" font-family="Helvetica,sans-Serif" font-size="14.00" fill="#000000">1 : Spec</text>
</g>
<!-- section_1&#45;&gt;header_2 -->
<g id="edge2" class="edge">
<title>section_1&#45;&gt;header_2</title>
<path fill="none" stroke="#000000" stroke-dasharray="5,2" d="M968.0746,-792.2016C882.5629,-786.7058 721.0412,-772.8661 587,-741.401 583.6535,-740.6154 580.2212,-739.6864 576.7961,-738.6711"/>
<polygon fill="#000000" stroke="#000000" points="577.8298,-735.3272 567.2393,-735.6284 575.7062,-741.9973 577.8298,-735.3272"/>
</g>
<!-- block_3 -->
<g id="node4" class="node">
<title>block_3</title>
<ellipse fill="none" stroke="#000000" cx="647" cy="-723.401" rx="50.8172" ry="18"/>
<text text-anchor="middle" x="647" y="-719.201" font-family="Helvetica,sans-Serif" font-size="14.00" fill="#000000">block 1&#45;76</text>
</g>
<!-- section_1&#45;&gt;block_3 -->
<g id="edge3" class="edge">
<title>section_1&#45;&gt;block_3</title>
<path fill="none" stroke="#000000" stroke-dasharray="5,2" d="M972.1987,-788.1687C907.8339,-779.33 799.0479,-762.8622 707,-741.401 702.9488,-740.4564 698.7688,-739.3923 694.5889,-738.2654"/>
<polygon fill="#000000" stroke="#000000" points="695.47,-734.8776 684.8964,-735.5488 693.5808,-741.6178 695.47,-734.8776"/>
</g>
<!-- section_4 -->
<g id="node5" class="node">
<title>section_4</title>
<ellipse fill="none" stroke="#000000" cx="777" cy="-723.401" rx="60.9826" ry="18"/>
<text text-anchor="middle" x="777" y="-719.201" font-family="Helvetica,sans-Serif" font-size="14.00" fill="#000000">section: 6&#45;27</text>
</g>
<!-- section_1&#45;&gt;section_4 -->
<g id="edge4" class="edge">
<title>section_1&#45;&gt;section_4</title>
<path fill="none" stroke="#000000" stroke-dasharray="5,2" d="M984.2791,-782.8595C941.6207,-770.6229 876.6347,-751.9814 830.8208,-738.8396"/>
<polygon fill="#000000" stroke="#000000" points="831.6395,-735.4333 821.062,-736.0403 829.7093,-742.162 831.6395,-735.4333"/>
</g>
<!-- section_5 -->
<g id="node6" class="node">
<title>section_5</title>
<ellipse fill="none" stroke="#000000" cx="1218" cy="-723.401" rx="65.8187" ry="18"/>
<text text-anchor="middle" x="1218" y="-719.201" font-family="Helvetica,sans-Serif" font-size="14.00" fill="#000000">section: 28&#45;68</text>
</g>
<!-- section_1&#45;&gt;section_5 -->
<g id="edge5" class="edge">
<title>section_1&#45;&gt;section_5</title>
<path fill="none" stroke="#000000" stroke-dasharray="5,2" d="M1065.5379,-781.1761C1095.3327,-769.8854 1137.2065,-754.0175 1169.5336,-741.7672"/>
<polygon fill="#000000" stroke="#000000" points="1171.1248,-744.9071 1179.2357,-738.0906 1168.6443,-738.3614 1171.1248,-744.9071"/>
</g>
<!-- section_6 -->
<g id="node7" class="node">
<title>section_6</title>
<ellipse fill="none" stroke="#000000" cx="1865" cy="-723.401" rx="65.8187" ry="18"/>
<text text-anchor="middle" x="1865" y="-719.201" font-family="Helvetica,sans-Serif" font-size="14.00" fill="#000000">section: 69&#45;76</text>
</g>
<!-- section_1&#45;&gt;section_6 -->
<g id="edge6" class="edge">
<title>section_1&#45;&gt;section_6</title>
<path fill="none" stroke="#000000" stroke-dasharray="5,2" d="M1086.5235,-790.3667C1235.352,-777.5642 1628.0417,-743.7845 1791.7337,-729.7034"/>
<polygon fill="#000000" stroke="#000000" points="1792.5164,-733.1491 1802.1796,-728.8049 1791.9164,-726.1749 1792.5164,-733.1491"/>
</g>
<!-- section_7 -->
<g id="node8" class="node">
<title>section_7</title>
<ellipse fill="none" stroke="#000000" cx="2416" cy="-723.401" rx="70.655" ry="18"/>
<text text-anchor="middle" x="2416" y="-719.201" font-family="Helvetica,sans-Serif" font-size="14.00" fill="#000000">section: 77&#45;100</text>
</g>
<!-- section_1&#45;&gt;section_7 -->
<g id="edge7" class="edge">
<title>section_1&#45;&gt;section_7</title>
<path fill="none" stroke="#000000" stroke-dasharray="5,2" d="M1088.0861,-792.2841C1310.183,-780.7632 2084.8574,-740.5784 2336.4321,-727.5284"/>
<polygon fill="#000000" stroke="#000000" points="2336.784,-731.015 2346.5892,-727.0015 2336.4213,-724.0244 2336.784,-731.015"/>
</g>
<!-- leaf_8 -->
<g id="node9" class="node">
<title>leaf_8</title>
<polygon fill="none" stroke="#c0c0c0" points="408,-669.6024 0,-669.6024 0,-613.7995 408,-613.7995 408,-669.6024"/>
<text text-anchor="middle" x="204" y="-622.201" font-family="Inconsolata" font-size="14.00" fill="#000000"> &#160;A small test harness to exercise our fresh Node class.</text>
</g>
<!-- block_3&#45;&gt;leaf_8 -->
<g id="edge8" class="edge">
<title>block_3&#45;&gt;leaf_8</title>
<path fill="none" stroke="#000000" stroke-dasharray="5,2" d="M609.4315,-711.1321C602.3562,-709.0518 594.9858,-707.0385 588,-705.401 531.246,-692.0973 469.1407,-680.5268 411.7339,-671.0318"/>
<polygon fill="#000000" stroke="#000000" points="412.2547,-667.5705 401.8199,-669.4048 411.1211,-674.4782 412.2547,-667.5705"/>
</g>
<!-- header_9 -->
<g id="node10" class="node">
<title>header_9</title>
<ellipse fill="none" stroke="#000000" cx="481" cy="-641.701" rx="54.6851" ry="18"/>
<text text-anchor="middle" x="481" y="-637.501" font-family="Helvetica,sans-Serif" font-size="14.00" fill="#000000">3 : includes</text>
</g>
<!-- section_4&#45;&gt;header_9 -->
<g id="edge9" class="edge">
<title>section_4&#45;&gt;header_9</title>
<path fill="none" stroke="#000000" stroke-dasharray="5,2" d="M731.4925,-711.4668C723.3485,-709.3974 714.9318,-707.3015 707,-705.401 635.274,-688.2144 615.1599,-692.1515 545,-669.401 537.2217,-666.8787 529.0929,-663.7593 521.3401,-660.5334"/>
<polygon fill="#000000" stroke="#000000" points="522.6886,-657.3035 512.1186,-656.5786 519.9296,-663.7368 522.6886,-657.3035"/>
</g>
<!-- block_10 -->
<g id="node11" class="node">
<title>block_10</title>
<ellipse fill="none" stroke="#000000" cx="600" cy="-641.701" rx="45.9804" ry="18"/>
<text text-anchor="middle" x="600" y="-637.501" font-family="Helvetica,sans-Serif" font-size="14.00" fill="#000000">block 6&#45;7</text>
</g>
<!-- section_4&#45;&gt;block_10 -->
<g id="edge10" class="edge">
<title>section_4&#45;&gt;block_10</title>
<path fill="none" stroke="#000000" stroke-dasharray="5,2" d="M742.3475,-708.6101C717.8139,-698.0054 684.2118,-683.2114 655,-669.401 649.1645,-666.6421 643.0223,-663.6438 637.0427,-660.6726"/>
<polygon fill="#000000" stroke="#000000" points="638.3558,-657.4157 627.8475,-656.0639 635.2192,-663.6737 638.3558,-657.4157"/>
</g>
<!-- block_11 -->
<g id="node12" class="node">
<title>block_11</title>
<ellipse fill="none" stroke="#000000" cx="715" cy="-641.701" rx="50.8172" ry="18"/>
<text text-anchor="middle" x="715" y="-637.501" font-family="Helvetica,sans-Serif" font-size="14.00" fill="#000000">block 8&#45;23</text>
</g>
<!-- section_4&#45;&gt;block_11 -->
<g id="edge11" class="edge">
<title>section_4&#45;&gt;block_11</title>
<path fill="none" stroke="#000000" stroke-dasharray="5,2" d="M763.5469,-705.6733C755.0395,-694.4627 743.9031,-679.7878 734.4427,-667.3214"/>
<polygon fill="#000000" stroke="#000000" points="737.0471,-664.9635 728.2138,-659.1134 731.4709,-669.1951 737.0471,-664.9635"/>
</g>
<!-- block_12 -->
<g id="node13" class="node">
<title>block_12</title>
<ellipse fill="none" stroke="#000000" cx="840" cy="-641.701" rx="55.6542" ry="18"/>
<text text-anchor="middle" x="840" y="-637.501" font-family="Helvetica,sans-Serif" font-size="14.00" fill="#000000">block 24&#45;27</text>
</g>
<!-- section_4&#45;&gt;block_12 -->
<g id="edge12" class="edge">
<title>section_4&#45;&gt;block_12</title>
<path fill="none" stroke="#000000" stroke-dasharray="5,2" d="M790.6701,-705.6733C799.2559,-694.5389 810.4769,-679.9873 820.0473,-667.5761"/>
<polygon fill="#000000" stroke="#000000" points="823.0218,-669.4504 826.3566,-659.394 817.4784,-665.1758 823.0218,-669.4504"/>
</g>
<!-- header_20 -->
<g id="node21" class="node">
<title>header_20</title>
<ellipse fill="none" stroke="#000000" cx="1059" cy="-641.701" rx="85.0876" ry="18"/>
<text text-anchor="middle" x="1059" y="-637.501" font-family="Helvetica,sans-Serif" font-size="14.00" fill="#000000">2 : Trivial Grammar</text>
</g>
<!-- section_5&#45;&gt;header_20 -->
<g id="edge20" class="edge">
<title>section_5&#45;&gt;header_20</title>
<path fill="none" stroke="#000000" stroke-dasharray="5,2" d="M1186.9657,-707.4544C1162.3894,-694.8262 1127.8207,-677.0636 1100.807,-663.1829"/>
<polygon fill="#000000" stroke="#000000" points="1102.0899,-659.9071 1091.5958,-658.4498 1098.8906,-666.1333 1102.0899,-659.9071"/>
</g>
<!-- block_21 -->
<g id="node22" class="node">
<title>block_21</title>
<ellipse fill="none" stroke="#000000" cx="1218" cy="-641.701" rx="55.6542" ry="18"/>
<text text-anchor="middle" x="1218" y="-637.501" font-family="Helvetica,sans-Serif" font-size="14.00" fill="#000000">block 28&#45;31</text>
</g>
<!-- section_5&#45;&gt;block_21 -->
<g id="edge21" class="edge">
<title>section_5&#45;&gt;block_21</title>
<path fill="none" stroke="#000000" stroke-dasharray="5,2" d="M1218,-705.2691C1218,-694.9032 1218,-681.6757 1218,-669.9739"/>
<polygon fill="#000000" stroke="#000000" points="1221.5001,-669.7821 1218,-659.7821 1214.5001,-669.7822 1221.5001,-669.7821"/>
</g>
<!-- block_22 -->
<g id="node23" class="node">
<title>block_22</title>
<ellipse fill="none" stroke="#000000" cx="1407" cy="-641.701" rx="55.6542" ry="18"/>
<text text-anchor="middle" x="1407" y="-637.501" font-family="Helvetica,sans-Serif" font-size="14.00" fill="#000000">block 32&#45;33</text>
</g>
<!-- section_5&#45;&gt;block_22 -->
<g id="edge22" class="edge">
<title>section_5&#45;&gt;block_22</title>
<path fill="none" stroke="#000000" stroke-dasharray="5,2" d="M1253.5495,-708.0338C1284.8878,-694.487 1330.6271,-674.7151 1364.0133,-660.283"/>
<polygon fill="#000000" stroke="#000000" points="1365.723,-663.3571 1373.5133,-656.1764 1362.9454,-656.9317 1365.723,-663.3571"/>
</g>
<!-- block_23 -->
<g id="node24" class="node">
<title>block_23</title>
<ellipse fill="none" stroke="#000000" cx="1655" cy="-641.701" rx="55.6542" ry="18"/>
<text text-anchor="middle" x="1655" y="-637.501" font-family="Helvetica,sans-Serif" font-size="14.00" fill="#000000">block 34&#45;68</text>
</g>
<!-- section_5&#45;&gt;block_23 -->
<g id="edge23" class="edge">
<title>section_5&#45;&gt;block_23</title>
<path fill="none" stroke="#000000" stroke-dasharray="5,2" d="M1272.4628,-713.2188C1355.131,-697.7634 1511.6253,-668.5058 1596.5808,-652.6228"/>
<polygon fill="#000000" stroke="#000000" points="1597.3903,-656.0322 1606.5768,-650.754 1596.1039,-649.1514 1597.3903,-656.0322"/>
</g>
<!-- header_29 -->
<g id="node30" class="node">
<title>header_29</title>
<ellipse fill="none" stroke="#000000" cx="1795" cy="-641.701" rx="66.7704" ry="18"/>
<text text-anchor="middle" x="1795" y="-637.501" font-family="Helvetica,sans-Serif" font-size="14.00" fill="#000000">2 : Easy mode</text>
</g>
<!-- section_6&#45;&gt;header_29 -->
<g id="edge29" class="edge">
<title>section_6&#45;&gt;header_29</title>
<path fill="none" stroke="#000000" stroke-dasharray="5,2" d="M1849.811,-705.6733C1840.1795,-694.4319 1827.5634,-679.7071 1816.8634,-667.2187"/>
<polygon fill="#000000" stroke="#000000" points="1819.3236,-664.7107 1810.1593,-659.394 1814.0079,-669.2652 1819.3236,-664.7107"/>
</g>
<!-- block_30 -->
<g id="node31" class="node">
<title>block_30</title>
<ellipse fill="none" stroke="#000000" cx="1935" cy="-641.701" rx="55.6542" ry="18"/>
<text text-anchor="middle" x="1935" y="-637.501" font-family="Helvetica,sans-Serif" font-size="14.00" fill="#000000">block 69&#45;70</text>
</g>
<!-- section_6&#45;&gt;block_30 -->
<g id="edge30" class="edge">
<title>section_6&#45;&gt;block_30</title>
<path fill="none" stroke="#000000" stroke-dasharray="5,2" d="M1880.189,-705.6733C1889.8865,-694.3549 1902.6095,-679.5052 1913.3562,-666.9624"/>
<polygon fill="#000000" stroke="#000000" points="1916.2326,-668.9845 1920.0812,-659.1134 1910.9169,-664.43 1916.2326,-668.9845"/>
</g>
<!-- block_31 -->
<g id="node32" class="node">
<title>block_31</title>
<ellipse fill="none" stroke="#000000" cx="2065" cy="-641.701" rx="55.6542" ry="18"/>
<text text-anchor="middle" x="2065" y="-637.501" font-family="Helvetica,sans-Serif" font-size="14.00" fill="#000000">block 71&#45;76</text>
</g>
<!-- section_6&#45;&gt;block_31 -->
<g id="edge31" class="edge">
<title>section_6&#45;&gt;block_31</title>
<path fill="none" stroke="#000000" stroke-dasharray="5,2" d="M1902.6257,-708.6112C1929.7571,-697.8832 1967.2195,-682.9399 2000,-669.401 2007.0152,-666.5036 2014.4365,-663.3886 2021.6577,-660.3304"/>
<polygon fill="#000000" stroke="#000000" points="2023.4903,-663.3546 2031.3239,-656.2212 2020.7517,-656.9125 2023.4903,-663.3546"/>
</g>
<!-- header_36 -->
<g id="node37" class="node">
<title>header_36</title>
<ellipse fill="none" stroke="#000000" cx="2211" cy="-641.701" rx="66.7444" ry="18"/>
<text text-anchor="middle" x="2211" y="-637.501" font-family="Helvetica,sans-Serif" font-size="14.00" fill="#000000">2 : With metas</text>
</g>
<!-- section_7&#45;&gt;header_36 -->
<g id="edge36" class="edge">
<title>section_7&#45;&gt;header_36</title>
<path fill="none" stroke="#000000" stroke-dasharray="5,2" d="M2377.9215,-708.2253C2344.0145,-694.7121 2294.2907,-674.8954 2257.934,-660.4059"/>
<polygon fill="#000000" stroke="#000000" points="2259.1136,-657.1083 2248.5284,-656.6574 2256.5221,-663.611 2259.1136,-657.1083"/>
</g>
<!-- block_37 -->
<g id="node38" class="node">
<title>block_37</title>
<ellipse fill="none" stroke="#000000" cx="2351" cy="-641.701" rx="55.6542" ry="18"/>
<text text-anchor="middle" x="2351" y="-637.501" font-family="Helvetica,sans-Serif" font-size="14.00" fill="#000000">block 77&#45;78</text>
</g>
<!-- section_7&#45;&gt;block_37 -->
<g id="edge37" class="edge">
<title>section_7&#45;&gt;block_37</title>
<path fill="none" stroke="#000000" stroke-dasharray="5,2" d="M2401.896,-705.6733C2393.0375,-694.5389 2381.4604,-679.9873 2371.5861,-667.5761"/>
<polygon fill="#000000" stroke="#000000" points="2374.0414,-665.0405 2365.0765,-659.394 2368.5635,-669.3986 2374.0414,-665.0405"/>
</g>
<!-- block_38 -->
<g id="node39" class="node">
<title>block_38</title>
<ellipse fill="none" stroke="#000000" cx="2481" cy="-641.701" rx="55.6542" ry="18"/>
<text text-anchor="middle" x="2481" y="-637.501" font-family="Helvetica,sans-Serif" font-size="14.00" fill="#000000">block 79&#45;93</text>
</g>
<!-- section_7&#45;&gt;block_38 -->
<g id="edge38" class="edge">
<title>section_7&#45;&gt;block_38</title>
<path fill="none" stroke="#000000" stroke-dasharray="5,2" d="M2430.104,-705.6733C2438.9625,-694.5389 2450.5396,-679.9873 2460.4139,-667.5761"/>
<polygon fill="#000000" stroke="#000000" points="2463.4365,-669.3986 2466.9235,-659.394 2457.9586,-665.0405 2463.4365,-669.3986"/>
</g>
<!-- block_39 -->
<g id="node40" class="node">
<title>block_39</title>
<ellipse fill="none" stroke="#000000" cx="2617" cy="-641.701" rx="55.6542" ry="18"/>
<text text-anchor="middle" x="2617" y="-637.501" font-family="Helvetica,sans-Serif" font-size="14.00" fill="#000000">block 94&#45;97</text>
</g>
<!-- section_7&#45;&gt;block_39 -->
<g id="edge39" class="edge">
<title>section_7&#45;&gt;block_39</title>
<path fill="none" stroke="#000000" stroke-dasharray="5,2" d="M2453.8066,-708.0338C2487.4855,-694.3444 2536.8041,-674.298 2572.4011,-659.8289"/>
<polygon fill="#000000" stroke="#000000" points="2574.107,-662.9137 2582.0531,-655.9058 2571.4711,-656.4289 2574.107,-662.9137"/>
</g>
<!-- block_40 -->
<g id="node41" class="node">
<title>block_40</title>
<ellipse fill="none" stroke="#000000" cx="2866" cy="-641.701" rx="60.9913" ry="18"/>
<text text-anchor="middle" x="2866" y="-637.501" font-family="Helvetica,sans-Serif" font-size="14.00" fill="#000000">block 98&#45;100</text>
</g>
<!-- section_7&#45;&gt;block_40 -->
<g id="edge40" class="edge">
<title>section_7&#45;&gt;block_40</title>
<path fill="none" stroke="#000000" stroke-dasharray="5,2" d="M2473.9084,-712.8874C2558.85,-697.4657 2716.5783,-668.8293 2803.8638,-652.9821"/>
<polygon fill="#000000" stroke="#000000" points="2804.6776,-656.3917 2813.8915,-651.1615 2803.4271,-649.5043 2804.6776,-656.3917"/>
</g>
<!-- leaf_13 -->
<g id="node14" class="node">
<title>leaf_13</title>
<polygon fill="none" stroke="#c0c0c0" points="446,-576.3009 392,-576.3009 392,-540.3009 446,-540.3009 446,-576.3009"/>
</g>
<!-- block_10&#45;&gt;leaf_13 -->
<g id="edge13" class="edge">
<title>block_10&#45;&gt;leaf_13</title>
<path fill="none" stroke="#000000" stroke-dasharray="5,2" d="M572.2444,-627.139C563.5921,-622.7577 553.9669,-618.0433 545,-614.0009 508.41,-597.5057 495.7029,-596.4469 455.6259,-578.0476"/>
<polygon fill="#000000" stroke="#000000" points="456.8826,-574.7715 446.3416,-573.7045 453.9165,-581.1121 456.8826,-574.7715"/>
</g>
<!-- codeblock_14 -->
<g id="node15" class="node">
<title>codeblock_14</title>
<ellipse fill="none" stroke="#000000" cx="537" cy="-558.3009" rx="72.5844" ry="18"/>
<text text-anchor="middle" x="537" y="-554.1009" font-family="Helvetica,sans-Serif" font-size="14.00" fill="#000000">code block 8&#45;22</text>
</g>
<!-- block_11&#45;&gt;codeblock_14 -->
<g id="edge14" class="edge">
<title>block_11&#45;&gt;codeblock_14</title>
<path fill="none" stroke="#000000" stroke-dasharray="5,2" d="M683.9948,-627.1738C655.2565,-613.7088 612.2291,-593.5487 580.1426,-578.515"/>
<polygon fill="#000000" stroke="#000000" points="581.5251,-575.2976 570.9847,-574.2241 578.5551,-581.6363 581.5251,-575.2976"/>
</g>
<!-- leaf_16 -->
<g id="node17" class="node">
<title>leaf_16</title>
<polygon fill="none" stroke="#c0c0c0" points="682,-576.3009 628,-576.3009 628,-540.3009 682,-540.3009 682,-576.3009"/>
</g>
<!-- block_11&#45;&gt;leaf_16 -->
<g id="edge16" class="edge">
<title>block_11&#45;&gt;leaf_16</title>
<path fill="none" stroke="#000000" stroke-dasharray="5,2" d="M702.2755,-624.014C694.1143,-612.6698 683.3655,-597.729 674.1797,-584.9607"/>
<polygon fill="#000000" stroke="#000000" points="676.8021,-582.6126 668.1209,-576.539 671.1198,-586.7006 676.8021,-582.6126"/>
</g>
<!-- codeblock_17 -->
<g id="node18" class="node">
<title>codeblock_17</title>
<ellipse fill="none" stroke="#000000" cx="777" cy="-558.3009" rx="77.4211" ry="18"/>
<text text-anchor="middle" x="777" y="-554.1009" font-family="Helvetica,sans-Serif" font-size="14.00" fill="#000000">code block 24&#45;26</text>
</g>
<!-- block_12&#45;&gt;codeblock_17 -->
<g id="edge17" class="edge">
<title>block_12&#45;&gt;codeblock_17</title>
<path fill="none" stroke="#000000" stroke-dasharray="5,2" d="M826.6393,-624.014C817.9284,-612.4823 806.41,-597.2341 796.6617,-584.3293"/>
<polygon fill="#000000" stroke="#000000" points="799.3789,-582.1196 790.5586,-576.2499 793.7934,-586.3389 799.3789,-582.1196"/>
</g>
<!-- leaf_19 -->
<g id="node20" class="node">
<title>leaf_19</title>
<polygon fill="none" stroke="#c0c0c0" points="926,-576.3009 872,-576.3009 872,-540.3009 926,-540.3009 926,-576.3009"/>
</g>
<!-- block_12&#45;&gt;leaf_19 -->
<g id="edge19" class="edge">
<title>block_12&#45;&gt;leaf_19</title>
<path fill="none" stroke="#000000" stroke-dasharray="5,2" d="M852.5124,-624.014C860.5376,-612.6698 871.1072,-597.729 880.14,-584.9607"/>
<polygon fill="#000000" stroke="#000000" points="883.1798,-586.7241 886.0978,-576.539 877.4652,-582.6813 883.1798,-586.7241"/>
</g>
<!-- leaf_15 -->
<g id="node16" class="node">
<title>leaf_15</title>
<polygon fill="none" stroke="#c0c0c0" points="678,-348.3008 396,-348.3008 396,-154.3001 678,-154.3001 678,-348.3008"/>
<text text-anchor="middle" x="537" y="-333.1006" font-family="Inconsolata" font-size="14.00" fill="#000000">local u = require &quot;util&quot;</text>
<text text-anchor="middle" x="537" y="-317.7006" font-family="Inconsolata" font-size="14.00" fill="#000000">local m = require &quot;grym/morphemes&quot;</text>
<text text-anchor="middle" x="537" y="-286.3005" font-family="Inconsolata" font-size="14.00" fill="#000000">local Grammar = require &quot;node/grammar&quot;</text>
<text text-anchor="middle" x="537" y="-270.9005" font-family="Inconsolata" font-size="14.00" fill="#000000">local Node = require &quot;node/node&quot;</text>
<text text-anchor="middle" x="537" y="-255.5005" font-family="Inconsolata" font-size="14.00" fill="#000000">local epnf = require &quot;peg/epnf&quot;</text>
<text text-anchor="middle" x="537" y="-240.1005" font-family="Inconsolata" font-size="14.00" fill="#000000">local pnf = require &quot;node/define&quot;</text>
<text text-anchor="middle" x="537" y="-224.7004" font-family="Inconsolata" font-size="14.00" fill="#000000">local L = require &quot;lpeg&quot;</text>
<text text-anchor="middle" x="537" y="-209.3004" font-family="Inconsolata" font-size="14.00" fill="#000000">local P = L.P</text>
<text text-anchor="middle" x="537" y="-193.9004" font-family="Inconsolata" font-size="14.00" fill="#000000">local V = L.V</text>
<text text-anchor="middle" x="537" y="-178.5003" font-family="Inconsolata" font-size="14.00" fill="#000000">local C = L.C</text>
</g>
<!-- codeblock_14&#45;&gt;leaf_15 -->
<g id="edge15" class="edge">
<title>codeblock_14&#45;&gt;leaf_15</title>
<path fill="none" stroke="#000000" stroke-dasharray="5,2" d="M537,-540.016C537,-504.839 537,-425.3182 537,-358.6226"/>
<polygon fill="#000000" stroke="#000000" points="540.5001,-358.4603 537,-348.4604 533.5001,-358.4604 540.5001,-358.4603"/>
</g>
<!-- leaf_18 -->
<g id="node19" class="node">
<title>leaf_18</title>
<polygon fill="none" stroke="#c0c0c0" points="837.5,-269.3005 716.5,-269.3005 716.5,-233.3005 837.5,-233.3005 837.5,-269.3005"/>
<text text-anchor="middle" x="777" y="-247.8005" font-family="Inconsolata" font-size="14.00" fill="#000000">local Spec = {}</text>
</g>
<!-- codeblock_17&#45;&gt;leaf_18 -->
<g id="edge18" class="edge">
<title>codeblock_17&#45;&gt;leaf_18</title>
<path fill="none" stroke="#000000" stroke-dasharray="5,2" d="M777,-540.016C777,-488.5058 777,-341.9133 777,-279.7372"/>
<polygon fill="#000000" stroke="#000000" points="780.5001,-279.4895 777,-269.4895 773.5001,-279.4896 780.5001,-279.4895"/>
</g>
<!-- leaf_24 -->
<g id="node25" class="node">
<title>leaf_24</title>
<polygon fill="none" stroke="#c0c0c0" points="1268,-578.203 944,-578.203 944,-538.3988 1268,-538.3988 1268,-578.203"/>
<text text-anchor="middle" x="1106" y="-546.8009" font-family="Inconsolata" font-size="14.00" fill="#000000">This should succeed under all circumstances.</text>
</g>
<!-- block_21&#45;&gt;leaf_24 -->
<g id="edge24" class="edge">
<title>block_21&#45;&gt;leaf_24</title>
<path fill="none" stroke="#000000" stroke-dasharray="5,2" d="M1195.6043,-625.0242C1180.0241,-613.4225 1158.937,-597.7201 1141.1333,-584.4627"/>
<polygon fill="#000000" stroke="#000000" points="1142.8066,-581.3449 1132.6956,-578.1796 1138.6258,-586.9593 1142.8066,-581.3449"/>
</g>
<!-- leaf_25 -->
<g id="node26" class="node">
<title>leaf_25</title>
<polygon fill="none" stroke="#c0c0c0" points="1645.5,-576.3009 1286.5,-576.3009 1286.5,-540.3009 1645.5,-540.3009 1645.5,-576.3009"/>
<text text-anchor="middle" x="1466" y="-554.8009" font-family="Inconsolata" font-size="14.00" fill="#000000">I&#39;d have to guess what it will return currently. </text>
</g>
<!-- block_22&#45;&gt;leaf_25 -->
<g id="edge25" class="edge">
<title>block_22&#45;&gt;leaf_25</title>
<path fill="none" stroke="#000000" stroke-dasharray="5,2" d="M1419.5124,-624.014C1427.5376,-612.6698 1438.1072,-597.729 1447.14,-584.9607"/>
<polygon fill="#000000" stroke="#000000" points="1450.1798,-586.7241 1453.0978,-576.539 1444.4652,-582.6813 1450.1798,-586.7241"/>
</g>
<!-- codeblock_26 -->
<g id="node27" class="node">
<title>codeblock_26</title>
<ellipse fill="none" stroke="#000000" cx="1741" cy="-558.3009" rx="77.4211" ry="18"/>
<text text-anchor="middle" x="1741" y="-554.1009" font-family="Helvetica,sans-Serif" font-size="14.00" fill="#000000">code block 34&#45;67</text>
</g>
<!-- block_23&#45;&gt;codeblock_26 -->
<g id="edge26" class="edge">
<title>block_23&#45;&gt;codeblock_26</title>
<path fill="none" stroke="#000000" stroke-dasharray="5,2" d="M1672.8193,-624.4204C1685.1897,-612.4239 1701.8533,-596.2642 1715.6099,-582.9234"/>
<polygon fill="#000000" stroke="#000000" points="1718.1655,-585.3206 1722.9077,-575.8463 1713.2923,-580.2954 1718.1655,-585.3206"/>
</g>
<!-- leaf_28 -->
<g id="node29" class="node">
<title>leaf_28</title>
<polygon fill="none" stroke="#c0c0c0" points="1890,-576.3009 1836,-576.3009 1836,-540.3009 1890,-540.3009 1890,-576.3009"/>
</g>
<!-- block_23&#45;&gt;leaf_28 -->
<g id="edge28" class="edge">
<title>block_23&#45;&gt;leaf_28</title>
<path fill="none" stroke="#000000" stroke-dasharray="5,2" d="M1687.6629,-626.9155C1697.647,-622.572 1708.7087,-617.9348 1719,-614.0009 1763.4921,-596.9939 1778.826,-598.0276 1826.4534,-577.8922"/>
<polygon fill="#000000" stroke="#000000" points="1827.9478,-581.0593 1835.7367,-573.877 1825.1689,-574.6345 1827.9478,-581.0593"/>
</g>
<!-- leaf_27 -->
<g id="node28" class="node">
<title>leaf_27</title>
<polygon fill="none" stroke="#c0c0c0" points="1903,-502.4015 1579,-502.4015 1579,-.1994 1903,-.1994 1903,-502.4015"/>
<text text-anchor="middle" x="1741" y="-487.4009" font-family="Inconsolata" font-size="14.00" fill="#000000">local function epsilon(_ENV)</text>
<text text-anchor="middle" x="1741" y="-472.0009" font-family="Inconsolata" font-size="14.00" fill="#000000"> &#160;START &quot;any&quot;</text>
<text text-anchor="middle" x="1741" y="-456.6008" font-family="Inconsolata" font-size="14.00" fill="#000000"> &#160;any = V&quot;anything&quot; + V&quot;other&quot;</text>
<text text-anchor="middle" x="1741" y="-441.2008" font-family="Inconsolata" font-size="14.00" fill="#000000"> &#160;anything = P(1)</text>
<text text-anchor="middle" x="1741" y="-425.8008" font-family="Inconsolata" font-size="14.00" fill="#000000"> &#160;other = P(1)^1</text>
<text text-anchor="middle" x="1741" y="-410.4007" font-family="Inconsolata" font-size="14.00" fill="#000000">end </text>
<text text-anchor="middle" x="1741" y="-379.0007" font-family="Inconsolata" font-size="14.00" fill="#000000">local function a(_ENV)</text>
<text text-anchor="middle" x="1741" y="-363.6007" font-family="Inconsolata" font-size="14.00" fill="#000000"> &#160;START &quot;A&quot;</text>
<text text-anchor="middle" x="1741" y="-348.2007" font-family="Inconsolata" font-size="14.00" fill="#000000"> &#160;A = P&quot;a&quot; + P&quot;A&quot;</text>
<text text-anchor="middle" x="1741" y="-332.8006" font-family="Inconsolata" font-size="14.00" fill="#000000">end</text>
<text text-anchor="middle" x="1741" y="-301.4006" font-family="Inconsolata" font-size="14.00" fill="#000000">local function ab(_ENV)</text>
<text text-anchor="middle" x="1741" y="-286.0006" font-family="Inconsolata" font-size="14.00" fill="#000000"> &#160;START &quot;AB&quot;</text>
<text text-anchor="middle" x="1741" y="-270.6005" font-family="Inconsolata" font-size="14.00" fill="#000000"> &#160;AB = V&quot;B&quot; + V&quot;A&quot; &#160;</text>
<text text-anchor="middle" x="1741" y="-255.2005" font-family="Inconsolata" font-size="14.00" fill="#000000"> &#160;A = P&quot;a&quot; + P&quot;A&quot;</text>
<text text-anchor="middle" x="1741" y="-239.8005" font-family="Inconsolata" font-size="14.00" fill="#000000"> &#160;B = V&quot;bmatch&quot; + (V&quot;A&quot; * V&quot;bmatch&quot;)</text>
<text text-anchor="middle" x="1741" y="-224.4004" font-family="Inconsolata" font-size="14.00" fill="#000000"> &#160;bmatch = P&quot;b&quot; + P&quot;B&quot;</text>
<text text-anchor="middle" x="1741" y="-209.0004" font-family="Inconsolata" font-size="14.00" fill="#000000">end</text>
<text text-anchor="middle" x="1741" y="-177.6004" font-family="Inconsolata" font-size="14.00" fill="#000000">local function clu_gm(_ENV)</text>
<text text-anchor="middle" x="1741" y="-162.2003" font-family="Inconsolata" font-size="14.00" fill="#000000"> &#160;local WS = P(m._ + m.NL)^0</text>
<text text-anchor="middle" x="1741" y="-146.8003" font-family="Inconsolata" font-size="14.00" fill="#000000"> &#160;START &quot;clu&quot;</text>
<text text-anchor="middle" x="1741" y="-131.4003" font-family="Inconsolata" font-size="14.00" fill="#000000"> &#160;SUPPRESS &quot;form&quot;</text>
<text text-anchor="middle" x="1741" y="-116.0002" font-family="Inconsolata" font-size="14.00" fill="#000000"> &#160;clu = V&quot;form&quot;^1</text>
<text text-anchor="middle" x="1741" y="-100.6002" font-family="Inconsolata" font-size="14.00" fill="#000000"> &#160;form = (V&quot;number&quot; * WS)</text>
<text text-anchor="middle" x="1741" y="-85.2002" font-family="Inconsolata" font-size="14.00" fill="#000000"> &#160;&#160;&#160;&#160;&#160;&#160;+ (V&quot;atom&quot; * WS) </text>
<text text-anchor="middle" x="1741" y="-69.8002" font-family="Inconsolata" font-size="14.00" fill="#000000"> &#160;&#160;&#160;&#160;&#160;&#160;+ (V&quot;expr&quot; * WS)</text>
<text text-anchor="middle" x="1741" y="-54.4001" font-family="Inconsolata" font-size="14.00" fill="#000000"> &#160;expr = m.pal * WS * V&quot;form&quot;^0 * WS * m.par</text>
<text text-anchor="middle" x="1741" y="-39.0001" font-family="Inconsolata" font-size="14.00" fill="#000000"> &#160;atom = m.symbol</text>
<text text-anchor="middle" x="1741" y="-23.6001" font-family="Inconsolata" font-size="14.00" fill="#000000"> &#160;number = m.number</text>
<text text-anchor="middle" x="1741" y="-8.2" font-family="Inconsolata" font-size="14.00" fill="#000000">end</text>
</g>
<!-- codeblock_26&#45;&gt;leaf_27 -->
<g id="edge27" class="edge">
<title>codeblock_26&#45;&gt;leaf_27</title>
<path fill="none" stroke="#000000" stroke-dasharray="5,2" d="M1741,-540.016C1741,-532.7026 1741,-523.4724 1741,-512.8392"/>
<polygon fill="#000000" stroke="#000000" points="1744.5001,-512.6943 1741,-502.6943 1737.5001,-512.6944 1744.5001,-512.6943"/>
</g>
<!-- leaf_32 -->
<g id="node33" class="node">
<title>leaf_32</title>
<polygon fill="none" stroke="#c0c0c0" points="1962,-576.3009 1908,-576.3009 1908,-540.3009 1962,-540.3009 1962,-576.3009"/>
</g>
<!-- block_30&#45;&gt;leaf_32 -->
<g id="edge32" class="edge">
<title>block_30&#45;&gt;leaf_32</title>
<path fill="none" stroke="#000000" stroke-dasharray="5,2" d="M1935,-623.6044C1935,-612.7848 1935,-598.8042 1935,-586.5563"/>
<polygon fill="#000000" stroke="#000000" points="1938.5001,-586.3621 1935,-576.3622 1931.5001,-586.3622 1938.5001,-586.3621"/>
</g>
<!-- codeblock_33 -->
<g id="node34" class="node">
<title>codeblock_33</title>
<ellipse fill="none" stroke="#000000" cx="2057" cy="-558.3009" rx="77.4211" ry="18"/>
<text text-anchor="middle" x="2057" y="-554.1009" font-family="Helvetica,sans-Serif" font-size="14.00" fill="#000000">code block 71&#45;75</text>
</g>
<!-- block_31&#45;&gt;codeblock_33 -->
<g id="edge33" class="edge">
<title>block_31&#45;&gt;codeblock_33</title>
<path fill="none" stroke="#000000" stroke-dasharray="5,2" d="M2063.2641,-623.6044C2062.2263,-612.7848 2060.8852,-598.8042 2059.7104,-586.5563"/>
<polygon fill="#000000" stroke="#000000" points="2063.1714,-585.9822 2058.7325,-576.3622 2056.2034,-586.6507 2063.1714,-585.9822"/>
</g>
<!-- leaf_35 -->
<g id="node36" class="node">
<title>leaf_35</title>
<polygon fill="none" stroke="#c0c0c0" points="2206,-576.3009 2152,-576.3009 2152,-540.3009 2206,-540.3009 2206,-576.3009"/>
</g>
<!-- block_31&#45;&gt;leaf_35 -->
<g id="edge35" class="edge">
<title>block_31&#45;&gt;leaf_35</title>
<path fill="none" stroke="#000000" stroke-dasharray="5,2" d="M2087.5227,-625.2238C2104.1789,-613.0385 2127.1265,-596.2505 2145.8707,-582.5376"/>
<polygon fill="#000000" stroke="#000000" points="2148.1452,-585.2103 2154.1495,-576.4811 2144.0121,-579.5607 2148.1452,-585.2103"/>
</g>
<!-- leaf_34 -->
<g id="node35" class="node">
<title>leaf_34</title>
<polygon fill="none" stroke="#c0c0c0" points="2173.5,-278.5009 1940.5,-278.5009 1940.5,-224.1 2173.5,-224.1 2173.5,-278.5009"/>
<text text-anchor="middle" x="2057" y="-263.2005" font-family="Inconsolata" font-size="14.00" fill="#000000">Spec.trivial = Grammar(epsilon)</text>
<text text-anchor="middle" x="2057" y="-247.8005" font-family="Inconsolata" font-size="14.00" fill="#000000">Spec.a = Grammar(a)</text>
<text text-anchor="middle" x="2057" y="-232.4004" font-family="Inconsolata" font-size="14.00" fill="#000000">Spec.clu = Grammar(clu_gm)</text>
</g>
<!-- codeblock_33&#45;&gt;leaf_34 -->
<g id="edge34" class="edge">
<title>codeblock_33&#45;&gt;leaf_34</title>
<path fill="none" stroke="#000000" stroke-dasharray="5,2" d="M2057,-540.016C2057,-490.8815 2057,-355.2331 2057,-288.8612"/>
<polygon fill="#000000" stroke="#000000" points="2060.5001,-288.8275 2057,-278.8276 2053.5001,-288.8276 2060.5001,-288.8275"/>
</g>
<!-- leaf_41 -->
<g id="node42" class="node">
<title>leaf_41</title>
<polygon fill="none" stroke="#c0c0c0" points="2278,-576.3009 2224,-576.3009 2224,-540.3009 2278,-540.3009 2278,-576.3009"/>
</g>
<!-- block_37&#45;&gt;leaf_41 -->
<g id="edge41" class="edge">
<title>block_37&#45;&gt;leaf_41</title>
<path fill="none" stroke="#000000" stroke-dasharray="5,2" d="M2330.7635,-624.8237C2316.3781,-612.8263 2296.8246,-596.5187 2280.6783,-583.0526"/>
<polygon fill="#000000" stroke="#000000" points="2282.5122,-580.0246 2272.5908,-576.3076 2278.0288,-585.4004 2282.5122,-580.0246"/>
</g>
<!-- codeblock_42 -->
<g id="node43" class="node">
<title>codeblock_42</title>
<ellipse fill="none" stroke="#000000" cx="2373" cy="-558.3009" rx="77.4211" ry="18"/>
<text text-anchor="middle" x="2373" y="-554.1009" font-family="Helvetica,sans-Serif" font-size="14.00" fill="#000000">code block 79&#45;92</text>
</g>
<!-- block_38&#45;&gt;codeblock_42 -->
<g id="edge42" class="edge">
<title>block_38&#45;&gt;codeblock_42</title>
<path fill="none" stroke="#000000" stroke-dasharray="5,2" d="M2459.4042,-625.0242C2443.534,-612.7689 2421.7384,-595.9378 2404.0086,-582.2465"/>
<polygon fill="#000000" stroke="#000000" points="2405.7293,-579.1531 2395.6753,-575.8113 2401.4509,-584.6935 2405.7293,-579.1531"/>
</g>
<!-- leaf_44 -->
<g id="node45" class="node">
<title>leaf_44</title>
<polygon fill="none" stroke="#c0c0c0" points="2522,-576.3009 2468,-576.3009 2468,-540.3009 2522,-540.3009 2522,-576.3009"/>
</g>
<!-- block_38&#45;&gt;leaf_44 -->
<g id="edge44" class="edge">
<title>block_38&#45;&gt;leaf_44</title>
<path fill="none" stroke="#000000" stroke-dasharray="5,2" d="M2484.0378,-623.6044C2485.854,-612.7848 2488.2009,-598.8042 2490.2569,-586.5563"/>
<polygon fill="#000000" stroke="#000000" points="2493.7643,-586.8036 2491.9681,-576.3622 2486.8609,-585.6447 2493.7643,-586.8036"/>
</g>
<!-- codeblock_45 -->
<g id="node46" class="node">
<title>codeblock_45</title>
<ellipse fill="none" stroke="#000000" cx="2617" cy="-558.3009" rx="77.4211" ry="18"/>
<text text-anchor="middle" x="2617" y="-554.1009" font-family="Helvetica,sans-Serif" font-size="14.00" fill="#000000">code block 94&#45;96</text>
</g>
<!-- block_39&#45;&gt;codeblock_45 -->
<g id="edge45" class="edge">
<title>block_39&#45;&gt;codeblock_45</title>
<path fill="none" stroke="#000000" stroke-dasharray="5,2" d="M2617,-623.6044C2617,-612.7848 2617,-598.8042 2617,-586.5563"/>
<polygon fill="#000000" stroke="#000000" points="2620.5001,-586.3621 2617,-576.3622 2613.5001,-586.3622 2620.5001,-586.3621"/>
</g>
<!-- leaf_47 -->
<g id="node48" class="node">
<title>leaf_47</title>
<polygon fill="none" stroke="#c0c0c0" points="2766,-576.3009 2712,-576.3009 2712,-540.3009 2766,-540.3009 2766,-576.3009"/>
</g>
<!-- block_39&#45;&gt;leaf_47 -->
<g id="edge47" class="edge">
<title>block_39&#45;&gt;leaf_47</title>
<path fill="none" stroke="#000000" stroke-dasharray="5,2" d="M2641.1033,-625.2238C2659.0889,-612.9287 2683.9293,-595.9477 2704.0869,-582.1677"/>
<polygon fill="#000000" stroke="#000000" points="2706.1254,-585.0139 2712.4056,-576.4811 2702.1749,-579.2351 2706.1254,-585.0139"/>
</g>
<!-- codeblock_48 -->
<g id="node49" class="node">
<title>codeblock_48</title>
<ellipse fill="none" stroke="#000000" cx="2866" cy="-558.3009" rx="82.2579" ry="18"/>
<text text-anchor="middle" x="2866" y="-554.1009" font-family="Helvetica,sans-Serif" font-size="14.00" fill="#000000">code block 98&#45;100</text>
</g>
<!-- block_40&#45;&gt;codeblock_48 -->
<g id="edge48" class="edge">
<title>block_40&#45;&gt;codeblock_48</title>
<path fill="none" stroke="#000000" stroke-dasharray="5,2" d="M2866,-623.6044C2866,-612.7848 2866,-598.8042 2866,-586.5563"/>
<polygon fill="#000000" stroke="#000000" points="2869.5001,-586.3621 2866,-576.3622 2862.5001,-586.3622 2869.5001,-586.3621"/>
</g>
<!-- leaf_50 -->
<g id="node51" class="node">
<title>leaf_50</title>
<polygon fill="none" stroke="#c0c0c0" points="3020,-576.3009 2966,-576.3009 2966,-540.3009 3020,-540.3009 3020,-576.3009"/>
</g>
<!-- block_40&#45;&gt;leaf_50 -->
<g id="edge50" class="edge">
<title>block_40&#45;&gt;leaf_50</title>
<path fill="none" stroke="#000000" stroke-dasharray="5,2" d="M2891.0911,-625.2238C2910.0245,-612.7904 2936.255,-595.5649 2957.3625,-581.7039"/>
<polygon fill="#000000" stroke="#000000" points="2959.325,-584.6023 2965.7626,-576.1875 2955.4826,-578.7511 2959.325,-584.6023"/>
</g>
<!-- leaf_43 -->
<g id="node44" class="node">
<title>leaf_43</title>
<polygon fill="none" stroke="#c0c0c0" points="2493,-349.0008 2253,-349.0008 2253,-153.6001 2493,-153.6001 2493,-349.0008"/>
<text text-anchor="middle" x="2373" y="-317.7006" font-family="Inconsolata" font-size="14.00" fill="#000000">local metas = {}</text>
<text text-anchor="middle" x="2373" y="-286.3005" font-family="Inconsolata" font-size="14.00" fill="#000000">local AMt, amt = u.inherit(Node)</text>
<text text-anchor="middle" x="2373" y="-254.9005" font-family="Inconsolata" font-size="14.00" fill="#000000">local function Anew(A, t, str)</text>
<text text-anchor="middle" x="2373" y="-239.5005" font-family="Inconsolata" font-size="14.00" fill="#000000"> &#160;local a = setmetatable(t, AMt)</text>
<text text-anchor="middle" x="2373" y="-224.1005" font-family="Inconsolata" font-size="14.00" fill="#000000"> &#160;a.id = &quot;A&quot; &#160;</text>
<text text-anchor="middle" x="2373" y="-208.7004" font-family="Inconsolata" font-size="14.00" fill="#000000"> &#160;return a</text>
<text text-anchor="middle" x="2373" y="-193.3004" font-family="Inconsolata" font-size="14.00" fill="#000000">end</text>
<text text-anchor="middle" x="2373" y="-161.9004" font-family="Inconsolata" font-size="14.00" fill="#000000">metas[&quot;A&quot;] = u.export(amt, Anew)</text>
</g>
<!-- codeblock_42&#45;&gt;leaf_43 -->
<g id="edge43" class="edge">
<title>codeblock_42&#45;&gt;leaf_43</title>
<path fill="none" stroke="#000000" stroke-dasharray="5,2" d="M2373,-540.016C2373,-504.9618 2373,-425.8728 2373,-359.3215"/>
<polygon fill="#000000" stroke="#000000" points="2376.5001,-359.1791 2373,-349.1791 2369.5001,-359.1791 2376.5001,-359.1791"/>
</g>
<!-- leaf_46 -->
<g id="node47" class="node">
<title>leaf_46</title>
<polygon fill="none" stroke="#c0c0c0" points="2723,-269.3005 2511,-269.3005 2511,-233.3005 2723,-233.3005 2723,-269.3005"/>
<text text-anchor="middle" x="2617" y="-247.8005" font-family="Inconsolata" font-size="14.00" fill="#000000">Spec.ab = Grammar(ab, metas)</text>
</g>
<!-- codeblock_45&#45;&gt;leaf_46 -->
<g id="edge46" class="edge">
<title>codeblock_45&#45;&gt;leaf_46</title>
<path fill="none" stroke="#000000" stroke-dasharray="5,2" d="M2617,-540.016C2617,-488.5058 2617,-341.9133 2617,-279.7372"/>
<polygon fill="#000000" stroke="#000000" points="2620.5001,-279.4895 2617,-269.4895 2613.5001,-279.4896 2620.5001,-279.4895"/>
</g>
<!-- leaf_49 -->
<g id="node50" class="node">
<title>leaf_49</title>
<polygon fill="none" stroke="#c0c0c0" points="2912.5,-269.3005 2819.5,-269.3005 2819.5,-233.3005 2912.5,-233.3005 2912.5,-269.3005"/>
<text text-anchor="middle" x="2866" y="-247.8005" font-family="Inconsolata" font-size="14.00" fill="#000000">return Spec</text>
</g>
<!-- codeblock_48&#45;&gt;leaf_49 -->
<g id="edge49" class="edge">
<title>codeblock_48&#45;&gt;leaf_49</title>
<path fill="none" stroke="#000000" stroke-dasharray="5,2" d="M2866,-540.016C2866,-488.5058 2866,-341.9133 2866,-279.7372"/>
<polygon fill="#000000" stroke="#000000" points="2869.5001,-279.4895 2866,-269.4895 2862.5001,-279.4896 2869.5001,-279.4895"/>
</g>
</g>
</svg>