<?xml version="1.0" encoding="UTF-8" standalone="no"?>
<!DOCTYPE svg PUBLIC "-//W3C//DTD SVG 1.1//EN"
 "http://www.w3.org/Graphics/SVG/1.1/DTD/svg11.dtd">
<!-- Generated by graphviz version 2.40.1 (20161225.0304)
 -->
<!-- Title: hierarchy Pages: 1 -->
<svg width="3386pt" height="818pt"
 viewBox="0.00 0.00 3386.38 818.00" xmlns="http://www.w3.org/2000/svg" xmlns:xlink="http://www.w3.org/1999/xlink">
<g id="graph0" class="graph" transform="scale(1 1) rotate(0) translate(4 814.0009)">
<title>hierarchy</title>
<polygon fill="#ffffff" stroke="transparent" points="-4,4 -4,-814.0009 3382.3788,-814.0009 3382.3788,4 -4,4"/>
<!-- doc_0 -->
<g id="node1" class="node">
<title>doc_0</title>
<ellipse fill="none" stroke="#000000" cx="1063" cy="-792.0009" rx="46.9581" ry="18"/>
<text text-anchor="middle" x="1063" y="-787.8009" font-family="Helvetica,sans-Serif" font-size="14.00" fill="#000000">doc &#45; 100</text>
</g>
<!-- section_1 -->
<g id="node2" class="node">
<title>section_1</title>
<ellipse fill="none" stroke="#000000" cx="1063" cy="-720.0009" rx="60.9826" ry="18"/>
<text text-anchor="middle" x="1063" y="-715.8009" font-family="Helvetica,sans-Serif" font-size="14.00" fill="#000000">section: 1&#45;76</text>
</g>
<!-- doc_0&#45;&gt;section_1 -->
<g id="edge1" class="edge">
<title>doc_0&#45;&gt;section_1</title>
<path fill="none" stroke="#000000" stroke-dasharray="5,2" d="M1063,-773.8323C1063,-766.1319 1063,-756.9753 1063,-748.4176"/>
<polygon fill="#000000" stroke="#000000" points="1066.5001,-748.4142 1063,-738.4142 1059.5001,-748.4142 1066.5001,-748.4142"/>
</g>
<!-- header_2 -->
<g id="node3" class="node">
<title>header_2</title>
<ellipse fill="none" stroke="#000000" cx="163" cy="-648.0009" rx="42.6061" ry="18"/>
<text text-anchor="middle" x="163" y="-643.8009" font-family="Helvetica,sans-Serif" font-size="14.00" fill="#000000">1 : Spec</text>
</g>
<!-- section_1&#45;&gt;header_2 -->
<g id="edge2" class="edge">
<title>section_1&#45;&gt;header_2</title>
<path fill="none" stroke="#000000" stroke-dasharray="5,2" d="M1004.2957,-715.3046C839.0936,-702.0884 372.0592,-664.7257 215.1534,-652.1732"/>
<polygon fill="#000000" stroke="#000000" points="215.0837,-648.6565 204.8364,-651.3478 214.5254,-655.6342 215.0837,-648.6565"/>
</g>
<!-- block_3 -->
<g id="node4" class="node">
<title>block_3</title>
<ellipse fill="none" stroke="#000000" cx="544" cy="-648.0009" rx="50.8172" ry="18"/>
<text text-anchor="middle" x="544" y="-643.8009" font-family="Helvetica,sans-Serif" font-size="14.00" fill="#000000">block 1&#45;76</text>
</g>
<!-- section_1&#45;&gt;block_3 -->
<g id="edge3" class="edge">
<title>section_1&#45;&gt;block_3</title>
<path fill="none" stroke="#000000" stroke-dasharray="5,2" d="M1007.9493,-712.3638C909.0795,-698.6478 702.3787,-669.9725 601.6517,-655.9989"/>
<polygon fill="#000000" stroke="#000000" points="602.0435,-652.5198 591.6574,-654.6124 601.0815,-659.4534 602.0435,-652.5198"/>
</g>
<!-- section_4 -->
<g id="node5" class="node">
<title>section_4</title>
<ellipse fill="none" stroke="#000000" cx="809" cy="-648.0009" rx="60.9826" ry="18"/>
<text text-anchor="middle" x="809" y="-643.8009" font-family="Helvetica,sans-Serif" font-size="14.00" fill="#000000">section: 6&#45;27</text>
</g>
<!-- section_1&#45;&gt;section_4 -->
<g id="edge4" class="edge">
<title>section_1&#45;&gt;section_4</title>
<path fill="none" stroke="#000000" stroke-dasharray="5,2" d="M1019.0466,-707.5417C975.7903,-695.2801 909.6452,-676.5303 863.164,-663.3545"/>
<polygon fill="#000000" stroke="#000000" points="863.8422,-659.9089 853.2667,-660.549 861.9331,-666.6436 863.8422,-659.9089"/>
</g>
<!-- section_5 -->
<g id="node6" class="node">
<title>section_5</title>
<ellipse fill="none" stroke="#000000" cx="1317" cy="-648.0009" rx="65.8187" ry="18"/>
<text text-anchor="middle" x="1317" y="-643.8009" font-family="Helvetica,sans-Serif" font-size="14.00" fill="#000000">section: 28&#45;68</text>
</g>
<!-- section_1&#45;&gt;section_5 -->
<g id="edge5" class="edge">
<title>section_1&#45;&gt;section_5</title>
<path fill="none" stroke="#000000" stroke-dasharray="5,2" d="M1106.9534,-707.5417C1149.6806,-695.4301 1214.74,-676.988 1261.1216,-663.8405"/>
<polygon fill="#000000" stroke="#000000" points="1262.347,-667.1311 1271.0134,-661.0365 1260.438,-660.3964 1262.347,-667.1311"/>
</g>
<!-- section_6 -->
<g id="node7" class="node">
<title>section_6</title>
<ellipse fill="none" stroke="#000000" cx="2234" cy="-648.0009" rx="65.8187" ry="18"/>
<text text-anchor="middle" x="2234" y="-643.8009" font-family="Helvetica,sans-Serif" font-size="14.00" fill="#000000">section: 69&#45;76</text>
</g>
<!-- section_1&#45;&gt;section_6 -->
<g id="edge6" class="edge">
<title>section_1&#45;&gt;section_6</title>
<path fill="none" stroke="#000000" stroke-dasharray="5,2" d="M1122.68,-716.3315C1318.8283,-704.2711 1943.3919,-665.8692 2159.5366,-652.5794"/>
<polygon fill="#000000" stroke="#000000" points="2160.0575,-656.0541 2169.8238,-651.9469 2159.6278,-649.0673 2160.0575,-656.0541"/>
</g>
<!-- section_7 -->
<g id="node8" class="node">
<title>section_7</title>
<ellipse fill="none" stroke="#000000" cx="2840" cy="-648.0009" rx="70.655" ry="18"/>
<text text-anchor="middle" x="2840" y="-643.8009" font-family="Helvetica,sans-Serif" font-size="14.00" fill="#000000">section: 77&#45;100</text>
</g>
<!-- section_1&#45;&gt;section_7 -->
<g id="edge7" class="edge">
<title>section_1&#45;&gt;section_7</title>
<path fill="none" stroke="#000000" stroke-dasharray="5,2" d="M1123.398,-717.5537C1389.5489,-706.7699 2457.866,-663.4841 2760.022,-651.2415"/>
<polygon fill="#000000" stroke="#000000" points="2760.1688,-654.7385 2770.0189,-650.8364 2759.8854,-647.7442 2760.1688,-654.7385"/>
</g>
<!-- leaf_8 -->
<g id="node9" class="node">
<title>leaf_8</title>
<polygon fill="none" stroke="#c0c0c0" points="54,-584.3009 0,-584.3009 0,-548.3009 54,-548.3009 54,-584.3009"/>
</g>
<!-- header_2&#45;&gt;leaf_8 -->
<g id="edge8" class="edge">
<title>header_2&#45;&gt;leaf_8</title>
<path fill="none" stroke="#000000" stroke-dasharray="5,2" d="M134.7204,-634.2662C114.3048,-623.9855 86.3392,-609.1418 63,-594.0009 61.313,-592.9065 59.6048,-591.7553 57.8965,-590.5694"/>
<polygon fill="#000000" stroke="#000000" points="59.603,-587.4839 49.4507,-584.4541 55.4978,-593.1537 59.603,-587.4839"/>
</g>
<!-- leaf_9 -->
<g id="node10" class="node">
<title>leaf_9</title>
<polygon fill="none" stroke="#c0c0c0" points="480,-594.2024 72,-594.2024 72,-538.3994 480,-538.3994 480,-594.2024"/>
<text text-anchor="middle" x="276" y="-546.8009" font-family="Inconsolata" font-size="14.00" fill="#000000"> &#160;A small test harness to exercise our fresh Node class.</text>
</g>
<!-- block_3&#45;&gt;leaf_9 -->
<g id="edge9" class="edge">
<title>block_3&#45;&gt;leaf_9</title>
<path fill="none" stroke="#000000" stroke-dasharray="5,2" d="M505.3167,-636.2083C471.7576,-625.9778 421.6613,-610.7059 376.8447,-597.0435"/>
<polygon fill="#000000" stroke="#000000" points="377.6593,-593.6329 367.0733,-594.0647 375.6181,-600.3287 377.6593,-593.6329"/>
</g>
<!-- header_10 -->
<g id="node11" class="node">
<title>header_10</title>
<ellipse fill="none" stroke="#000000" cx="553" cy="-566.3009" rx="54.6851" ry="18"/>
<text text-anchor="middle" x="553" y="-562.1009" font-family="Helvetica,sans-Serif" font-size="14.00" fill="#000000">3 : includes</text>
</g>
<!-- section_4&#45;&gt;header_10 -->
<g id="edge10" class="edge">
<title>section_4&#45;&gt;header_10</title>
<path fill="none" stroke="#000000" stroke-dasharray="5,2" d="M761.8931,-636.6369C722.6831,-626.7306 665.6174,-611.2709 617,-594.0009 609.5397,-591.3509 601.7149,-588.2474 594.1986,-585.0949"/>
<polygon fill="#000000" stroke="#000000" points="595.4636,-581.8292 584.8935,-581.1061 592.7056,-588.263 595.4636,-581.8292"/>
</g>
<!-- block_11 -->
<g id="node12" class="node">
<title>block_11</title>
<ellipse fill="none" stroke="#000000" cx="672" cy="-566.3009" rx="45.9804" ry="18"/>
<text text-anchor="middle" x="672" y="-562.1009" font-family="Helvetica,sans-Serif" font-size="14.00" fill="#000000">block 6&#45;7</text>
</g>
<!-- section_4&#45;&gt;block_11 -->
<g id="edge11" class="edge">
<title>section_4&#45;&gt;block_11</title>
<path fill="none" stroke="#000000" stroke-dasharray="5,2" d="M781.9332,-631.8596C760.3168,-618.9687 729.8827,-600.8193 706.5154,-586.8842"/>
<polygon fill="#000000" stroke="#000000" points="708.0019,-583.6956 697.6205,-581.5797 704.4165,-589.7077 708.0019,-583.6956"/>
</g>
<!-- codeblock_12 -->
<g id="node13" class="node">
<title>codeblock_12</title>
<ellipse fill="none" stroke="#000000" cx="809" cy="-566.3009" rx="72.5844" ry="18"/>
<text text-anchor="middle" x="809" y="-562.1009" font-family="Helvetica,sans-Serif" font-size="14.00" fill="#000000">code block 8&#45;22</text>
</g>
<!-- section_4&#45;&gt;codeblock_12 -->
<g id="edge12" class="edge">
<title>section_4&#45;&gt;codeblock_12</title>
<path fill="none" stroke="#000000" stroke-dasharray="5,2" d="M809,-629.8691C809,-619.5032 809,-606.2757 809,-594.5739"/>
<polygon fill="#000000" stroke="#000000" points="812.5001,-594.3821 809,-584.3821 805.5001,-594.3822 812.5001,-594.3821"/>
</g>
<!-- codeblock_13 -->
<g id="node14" class="node">
<title>codeblock_13</title>
<ellipse fill="none" stroke="#000000" cx="977" cy="-566.3009" rx="77.4211" ry="18"/>
<text text-anchor="middle" x="977" y="-562.1009" font-family="Helvetica,sans-Serif" font-size="14.00" fill="#000000">code block 24&#45;26</text>
</g>
<!-- section_4&#45;&gt;codeblock_13 -->
<g id="edge13" class="edge">
<title>section_4&#45;&gt;codeblock_13</title>
<path fill="none" stroke="#000000" stroke-dasharray="5,2" d="M840.995,-632.4415C867.4538,-619.5743 905.2619,-601.1879 934.302,-587.0654"/>
<polygon fill="#000000" stroke="#000000" points="935.9347,-590.1633 943.397,-582.6424 932.8733,-583.8683 935.9347,-590.1633"/>
</g>
<!-- header_18 -->
<g id="node19" class="node">
<title>header_18</title>
<ellipse fill="none" stroke="#000000" cx="1158" cy="-566.3009" rx="85.0876" ry="18"/>
<text text-anchor="middle" x="1158" y="-562.1009" font-family="Helvetica,sans-Serif" font-size="14.00" fill="#000000">2 : Trivial Grammar</text>
</g>
<!-- section_5&#45;&gt;header_18 -->
<g id="edge18" class="edge">
<title>section_5&#45;&gt;header_18</title>
<path fill="none" stroke="#000000" stroke-dasharray="5,2" d="M1285.9657,-632.0544C1261.3894,-619.4262 1226.8207,-601.6635 1199.807,-587.7829"/>
<polygon fill="#000000" stroke="#000000" points="1201.0899,-584.5071 1190.5958,-583.0498 1197.8906,-590.7333 1201.0899,-584.5071"/>
</g>
<!-- block_19 -->
<g id="node20" class="node">
<title>block_19</title>
<ellipse fill="none" stroke="#000000" cx="1317" cy="-566.3009" rx="55.6542" ry="18"/>
<text text-anchor="middle" x="1317" y="-562.1009" font-family="Helvetica,sans-Serif" font-size="14.00" fill="#000000">block 28&#45;31</text>
</g>
<!-- section_5&#45;&gt;block_19 -->
<g id="edge19" class="edge">
<title>section_5&#45;&gt;block_19</title>
<path fill="none" stroke="#000000" stroke-dasharray="5,2" d="M1317,-629.8691C1317,-619.5032 1317,-606.2757 1317,-594.5739"/>
<polygon fill="#000000" stroke="#000000" points="1320.5001,-594.3821 1317,-584.3821 1313.5001,-594.3822 1320.5001,-594.3821"/>
</g>
<!-- block_20 -->
<g id="node21" class="node">
<title>block_20</title>
<ellipse fill="none" stroke="#000000" cx="1555" cy="-566.3009" rx="55.6542" ry="18"/>
<text text-anchor="middle" x="1555" y="-562.1009" font-family="Helvetica,sans-Serif" font-size="14.00" fill="#000000">block 32&#45;33</text>
</g>
<!-- section_5&#45;&gt;block_20 -->
<g id="edge20" class="edge">
<title>section_5&#45;&gt;block_20</title>
<path fill="none" stroke="#000000" stroke-dasharray="5,2" d="M1358.1847,-633.8632C1399.6208,-619.6391 1463.4717,-597.7205 1507.1359,-582.7316"/>
<polygon fill="#000000" stroke="#000000" points="1508.3562,-586.0132 1516.6781,-579.456 1506.0834,-579.3925 1508.3562,-586.0132"/>
</g>
<!-- codeblock_21 -->
<g id="node22" class="node">
<title>codeblock_21</title>
<ellipse fill="none" stroke="#000000" cx="1904" cy="-566.3009" rx="77.4211" ry="18"/>
<text text-anchor="middle" x="1904" y="-562.1009" font-family="Helvetica,sans-Serif" font-size="14.00" fill="#000000">code block 34&#45;67</text>
</g>
<!-- section_5&#45;&gt;codeblock_21 -->
<g id="edge21" class="edge">
<title>section_5&#45;&gt;codeblock_21</title>
<path fill="none" stroke="#000000" stroke-dasharray="5,2" d="M1375.7004,-639.8309C1482.4899,-624.9677 1708.4563,-593.5171 1827.2829,-576.9786"/>
<polygon fill="#000000" stroke="#000000" points="1827.9721,-580.4165 1837.3941,-575.5713 1827.0071,-573.4833 1827.9721,-580.4165"/>
</g>
<!-- header_26 -->
<g id="node27" class="node">
<title>header_26</title>
<ellipse fill="none" stroke="#000000" cx="2164" cy="-566.3009" rx="66.7704" ry="18"/>
<text text-anchor="middle" x="2164" y="-562.1009" font-family="Helvetica,sans-Serif" font-size="14.00" fill="#000000">2 : Easy mode</text>
</g>
<!-- section_6&#45;&gt;header_26 -->
<g id="edge26" class="edge">
<title>section_6&#45;&gt;header_26</title>
<path fill="none" stroke="#000000" stroke-dasharray="5,2" d="M2218.811,-630.2732C2209.1795,-619.0318 2196.5634,-604.3071 2185.8634,-591.8187"/>
<polygon fill="#000000" stroke="#000000" points="2188.3236,-589.3107 2179.1593,-583.994 2183.0079,-593.8652 2188.3236,-589.3107"/>
</g>
<!-- block_27 -->
<g id="node28" class="node">
<title>block_27</title>
<ellipse fill="none" stroke="#000000" cx="2304" cy="-566.3009" rx="55.6542" ry="18"/>
<text text-anchor="middle" x="2304" y="-562.1009" font-family="Helvetica,sans-Serif" font-size="14.00" fill="#000000">block 69&#45;70</text>
</g>
<!-- section_6&#45;&gt;block_27 -->
<g id="edge27" class="edge">
<title>section_6&#45;&gt;block_27</title>
<path fill="none" stroke="#000000" stroke-dasharray="5,2" d="M2249.189,-630.2732C2258.8865,-618.9548 2271.6095,-604.1052 2282.3562,-591.5624"/>
<polygon fill="#000000" stroke="#000000" points="2285.2326,-593.5845 2289.0812,-583.7133 2279.9169,-589.03 2285.2326,-593.5845"/>
</g>
<!-- codeblock_28 -->
<g id="node29" class="node">
<title>codeblock_28</title>
<ellipse fill="none" stroke="#000000" cx="2460" cy="-566.3009" rx="77.4211" ry="18"/>
<text text-anchor="middle" x="2460" y="-562.1009" font-family="Helvetica,sans-Serif" font-size="14.00" fill="#000000">code block 71&#45;75</text>
</g>
<!-- section_6&#45;&gt;codeblock_28 -->
<g id="edge28" class="edge">
<title>section_6&#45;&gt;codeblock_28</title>
<path fill="none" stroke="#000000" stroke-dasharray="5,2" d="M2273.884,-633.5827C2311.3072,-620.054 2367.4802,-599.7472 2408.3221,-584.9827"/>
<polygon fill="#000000" stroke="#000000" points="2409.6173,-588.2362 2417.8317,-581.5449 2407.2375,-581.6532 2409.6173,-588.2362"/>
</g>
<!-- header_32 -->
<g id="node33" class="node">
<title>header_32</title>
<ellipse fill="none" stroke="#000000" cx="2625" cy="-566.3009" rx="66.7444" ry="18"/>
<text text-anchor="middle" x="2625" y="-562.1009" font-family="Helvetica,sans-Serif" font-size="14.00" fill="#000000">2 : With metas</text>
</g>
<!-- section_7&#45;&gt;header_32 -->
<g id="edge32" class="edge">
<title>section_7&#45;&gt;header_32</title>
<path fill="none" stroke="#000000" stroke-dasharray="5,2" d="M2800.5657,-633.0159C2764.6917,-619.3838 2711.638,-599.2234 2673.2471,-584.6348"/>
<polygon fill="#000000" stroke="#000000" points="2674.4132,-581.3338 2663.822,-581.0533 2671.9266,-587.8773 2674.4132,-581.3338"/>
</g>
<!-- block_33 -->
<g id="node34" class="node">
<title>block_33</title>
<ellipse fill="none" stroke="#000000" cx="2765" cy="-566.3009" rx="55.6542" ry="18"/>
<text text-anchor="middle" x="2765" y="-562.1009" font-family="Helvetica,sans-Serif" font-size="14.00" fill="#000000">block 77&#45;78</text>
</g>
<!-- section_7&#45;&gt;block_33 -->
<g id="edge33" class="edge">
<title>section_7&#45;&gt;block_33</title>
<path fill="none" stroke="#000000" stroke-dasharray="5,2" d="M2823.7261,-630.2732C2813.2369,-618.847 2799.4441,-603.822 2787.8614,-591.2046"/>
<polygon fill="#000000" stroke="#000000" points="2790.3254,-588.7131 2780.9845,-583.7133 2785.1687,-593.4469 2790.3254,-588.7131"/>
</g>
<!-- codeblock_34 -->
<g id="node35" class="node">
<title>codeblock_34</title>
<ellipse fill="none" stroke="#000000" cx="2916" cy="-566.3009" rx="77.4211" ry="18"/>
<text text-anchor="middle" x="2916" y="-562.1009" font-family="Helvetica,sans-Serif" font-size="14.00" fill="#000000">code block 79&#45;92</text>
</g>
<!-- section_7&#45;&gt;codeblock_34 -->
<g id="edge34" class="edge">
<title>section_7&#45;&gt;codeblock_34</title>
<path fill="none" stroke="#000000" stroke-dasharray="5,2" d="M2856.4909,-630.2732C2867.0476,-618.9248 2880.9066,-604.0263 2892.5939,-591.4625"/>
<polygon fill="#000000" stroke="#000000" points="2895.2929,-593.6998 2899.5413,-583.994 2890.1676,-588.932 2895.2929,-593.6998"/>
</g>
<!-- codeblock_35 -->
<g id="node36" class="node">
<title>codeblock_35</title>
<ellipse fill="none" stroke="#000000" cx="3100" cy="-566.3009" rx="77.4211" ry="18"/>
<text text-anchor="middle" x="3100" y="-562.1009" font-family="Helvetica,sans-Serif" font-size="14.00" fill="#000000">code block 94&#45;96</text>
</g>
<!-- section_7&#45;&gt;codeblock_35 -->
<g id="edge35" class="edge">
<title>section_7&#45;&gt;codeblock_35</title>
<path fill="none" stroke="#000000" stroke-dasharray="5,2" d="M2884.6956,-633.9562C2928.8413,-620.0842 2996.4845,-598.8287 3044.1485,-583.8512"/>
<polygon fill="#000000" stroke="#000000" points="3045.2102,-587.1864 3053.701,-580.8495 3043.1117,-580.5083 3045.2102,-587.1864"/>
</g>
<!-- codeblock_36 -->
<g id="node37" class="node">
<title>codeblock_36</title>
<ellipse fill="none" stroke="#000000" cx="3296" cy="-566.3009" rx="82.2579" ry="18"/>
<text text-anchor="middle" x="3296" y="-562.1009" font-family="Helvetica,sans-Serif" font-size="14.00" fill="#000000">code block 98&#45;100</text>
</g>
<!-- section_7&#45;&gt;codeblock_36 -->
<g id="edge36" class="edge">
<title>section_7&#45;&gt;codeblock_36</title>
<path fill="none" stroke="#000000" stroke-dasharray="5,2" d="M2903.1312,-639.9224C2972.7289,-630.6045 3087.8492,-613.9742 3186,-594.0009 3201.672,-590.8117 3218.4706,-586.8584 3234.1038,-582.9466"/>
<polygon fill="#000000" stroke="#000000" points="3235.3522,-586.2409 3244.1853,-580.3905 3233.6318,-579.4556 3235.3522,-586.2409"/>
</g>
<!-- leaf_14 -->
<g id="node15" class="node">
<title>leaf_14</title>
<polygon fill="none" stroke="#c0c0c0" points="539,-269.3005 485,-269.3005 485,-233.3005 539,-233.3005 539,-269.3005"/>
</g>
<!-- header_10&#45;&gt;leaf_14 -->
<g id="edge14" class="edge">
<title>header_10&#45;&gt;leaf_14</title>
<path fill="none" stroke="#000000" stroke-dasharray="5,2" d="M550.6184,-548.0036C543.7683,-495.3744 523.9766,-343.3157 515.7036,-279.7546"/>
<polygon fill="#000000" stroke="#000000" points="519.1496,-279.1128 514.3881,-269.6483 512.2082,-280.0164 519.1496,-279.1128"/>
</g>
<!-- leaf_15 -->
<g id="node16" class="node">
<title>leaf_15</title>
<polygon fill="none" stroke="#c0c0c0" points="611,-269.3005 557,-269.3005 557,-233.3005 611,-233.3005 611,-269.3005"/>
</g>
<!-- block_11&#45;&gt;leaf_15 -->
<g id="edge15" class="edge">
<title>block_11&#45;&gt;leaf_15</title>
<path fill="none" stroke="#000000" stroke-dasharray="5,2" d="M654.0858,-549.6748C642.4075,-537.7428 627.9153,-520.6417 620,-502.6009 586.8975,-427.1521 582.9434,-327.8912 583.219,-279.8265"/>
<polygon fill="#000000" stroke="#000000" points="586.722,-279.6054 583.3487,-269.562 579.7226,-279.5169 586.722,-279.6054"/>
</g>
<!-- leaf_16 -->
<g id="node17" class="node">
<title>leaf_16</title>
<polygon fill="none" stroke="#c0c0c0" points="911,-348.3008 629,-348.3008 629,-154.3001 911,-154.3001 911,-348.3008"/>
<text text-anchor="middle" x="770" y="-333.1006" font-family="Inconsolata" font-size="14.00" fill="#000000">local u = require &quot;util&quot;</text>
<text text-anchor="middle" x="770" y="-317.7006" font-family="Inconsolata" font-size="14.00" fill="#000000">local m = require &quot;grym/morphemes&quot;</text>
<text text-anchor="middle" x="770" y="-286.3005" font-family="Inconsolata" font-size="14.00" fill="#000000">local Grammar = require &quot;node/grammar&quot;</text>
<text text-anchor="middle" x="770" y="-270.9005" font-family="Inconsolata" font-size="14.00" fill="#000000">local Node = require &quot;node/node&quot;</text>
<text text-anchor="middle" x="770" y="-255.5005" font-family="Inconsolata" font-size="14.00" fill="#000000">local epnf = require &quot;peg/epnf&quot;</text>
<text text-anchor="middle" x="770" y="-240.1005" font-family="Inconsolata" font-size="14.00" fill="#000000">local pnf = require &quot;node/define&quot;</text>
<text text-anchor="middle" x="770" y="-224.7004" font-family="Inconsolata" font-size="14.00" fill="#000000">local L = require &quot;lpeg&quot;</text>
<text text-anchor="middle" x="770" y="-209.3004" font-family="Inconsolata" font-size="14.00" fill="#000000">local P = L.P</text>
<text text-anchor="middle" x="770" y="-193.9004" font-family="Inconsolata" font-size="14.00" fill="#000000">local V = L.V</text>
<text text-anchor="middle" x="770" y="-178.5003" font-family="Inconsolata" font-size="14.00" fill="#000000">local C = L.C</text>
</g>
<!-- codeblock_12&#45;&gt;leaf_16 -->
<g id="edge16" class="edge">
<title>codeblock_12&#45;&gt;leaf_16</title>
<path fill="none" stroke="#000000" stroke-dasharray="5,2" d="M806.7346,-548.0036C802.2334,-511.6472 791.8575,-427.842 783.2772,-358.5398"/>
<polygon fill="#000000" stroke="#000000" points="786.7275,-357.9216 782.0252,-348.4275 779.7805,-358.7818 786.7275,-357.9216"/>
</g>
<!-- leaf_17 -->
<g id="node18" class="node">
<title>leaf_17</title>
<polygon fill="none" stroke="#c0c0c0" points="1050.5,-269.3005 929.5,-269.3005 929.5,-233.3005 1050.5,-233.3005 1050.5,-269.3005"/>
<text text-anchor="middle" x="990" y="-247.8005" font-family="Inconsolata" font-size="14.00" fill="#000000">local Spec = {}</text>
</g>
<!-- codeblock_13&#45;&gt;leaf_17 -->
<g id="edge17" class="edge">
<title>codeblock_13&#45;&gt;leaf_17</title>
<path fill="none" stroke="#000000" stroke-dasharray="5,2" d="M977.7551,-548.0036C979.9271,-495.3744 986.2026,-343.3157 988.8257,-279.7546"/>
<polygon fill="#000000" stroke="#000000" points="992.3274,-279.7841 989.2428,-269.6483 985.3333,-279.4954 992.3274,-279.7841"/>
</g>
<!-- leaf_22 -->
<g id="node23" class="node">
<title>leaf_22</title>
<polygon fill="none" stroke="#c0c0c0" points="1123,-269.3005 1069,-269.3005 1069,-233.3005 1123,-233.3005 1123,-269.3005"/>
</g>
<!-- header_18&#45;&gt;leaf_22 -->
<g id="edge22" class="edge">
<title>header_18&#45;&gt;leaf_22</title>
<path fill="none" stroke="#000000" stroke-dasharray="5,2" d="M1149.2712,-548.3158C1143.5339,-535.7773 1136.3157,-518.5097 1132,-502.6009 1110.5356,-423.4784 1101.2571,-326.6623 1097.7881,-279.6382"/>
<polygon fill="#000000" stroke="#000000" points="1101.2742,-279.317 1097.0801,-269.5876 1094.2915,-279.8089 1101.2742,-279.317"/>
</g>
<!-- leaf_23 -->
<g id="node24" class="node">
<title>leaf_23</title>
<polygon fill="none" stroke="#c0c0c0" points="1465,-271.2025 1141,-271.2025 1141,-231.3984 1465,-231.3984 1465,-271.2025"/>
<text text-anchor="middle" x="1303" y="-239.8005" font-family="Inconsolata" font-size="14.00" fill="#000000">This should succeed under all circumstances.</text>
</g>
<!-- block_19&#45;&gt;leaf_23 -->
<g id="edge23" class="edge">
<title>block_19&#45;&gt;leaf_23</title>
<path fill="none" stroke="#000000" stroke-dasharray="5,2" d="M1316.1868,-548.0036C1313.8698,-495.8709 1307.2167,-346.1759 1304.3456,-281.577"/>
<polygon fill="#000000" stroke="#000000" points="1307.8275,-281.0901 1303.8869,-271.2553 1300.8344,-281.4009 1307.8275,-281.0901"/>
</g>
<!-- leaf_24 -->
<g id="node25" class="node">
<title>leaf_24</title>
<polygon fill="none" stroke="#c0c0c0" points="1842.5,-269.3005 1483.5,-269.3005 1483.5,-233.3005 1842.5,-233.3005 1842.5,-269.3005"/>
<text text-anchor="middle" x="1663" y="-247.8005" font-family="Inconsolata" font-size="14.00" fill="#000000">I&#39;d have to guess what it will return currently. </text>
</g>
<!-- block_20&#45;&gt;leaf_24 -->
<g id="edge24" class="edge">
<title>block_20&#45;&gt;leaf_24</title>
<path fill="none" stroke="#000000" stroke-dasharray="5,2" d="M1561.2734,-548.0036C1579.3549,-495.2657 1631.6675,-342.6869 1653.379,-279.3618"/>
<polygon fill="#000000" stroke="#000000" points="1656.7768,-280.2429 1656.7093,-269.6483 1650.1552,-277.9726 1656.7768,-280.2429"/>
</g>
<!-- leaf_25 -->
<g id="node26" class="node">
<title>leaf_25</title>
<polygon fill="none" stroke="#c0c0c0" points="2185,-502.4015 1861,-502.4015 1861,-.1994 2185,-.1994 2185,-502.4015"/>
<text text-anchor="middle" x="2023" y="-487.4009" font-family="Inconsolata" font-size="14.00" fill="#000000">local function epsilon(_ENV)</text>
<text text-anchor="middle" x="2023" y="-472.0009" font-family="Inconsolata" font-size="14.00" fill="#000000"> &#160;START &quot;any&quot;</text>
<text text-anchor="middle" x="2023" y="-456.6008" font-family="Inconsolata" font-size="14.00" fill="#000000"> &#160;any = V&quot;anything&quot; + V&quot;other&quot;</text>
<text text-anchor="middle" x="2023" y="-441.2008" font-family="Inconsolata" font-size="14.00" fill="#000000"> &#160;anything = P(1)</text>
<text text-anchor="middle" x="2023" y="-425.8008" font-family="Inconsolata" font-size="14.00" fill="#000000"> &#160;other = P(1)^1</text>
<text text-anchor="middle" x="2023" y="-410.4007" font-family="Inconsolata" font-size="14.00" fill="#000000">end </text>
<text text-anchor="middle" x="2023" y="-379.0007" font-family="Inconsolata" font-size="14.00" fill="#000000">local function a(_ENV)</text>
<text text-anchor="middle" x="2023" y="-363.6007" font-family="Inconsolata" font-size="14.00" fill="#000000"> &#160;START &quot;A&quot;</text>
<text text-anchor="middle" x="2023" y="-348.2007" font-family="Inconsolata" font-size="14.00" fill="#000000"> &#160;A = P&quot;a&quot; + P&quot;A&quot;</text>
<text text-anchor="middle" x="2023" y="-332.8006" font-family="Inconsolata" font-size="14.00" fill="#000000">end</text>
<text text-anchor="middle" x="2023" y="-301.4006" font-family="Inconsolata" font-size="14.00" fill="#000000">local function ab(_ENV)</text>
<text text-anchor="middle" x="2023" y="-286.0006" font-family="Inconsolata" font-size="14.00" fill="#000000"> &#160;START &quot;AB&quot;</text>
<text text-anchor="middle" x="2023" y="-270.6005" font-family="Inconsolata" font-size="14.00" fill="#000000"> &#160;AB = V&quot;B&quot; + V&quot;A&quot; &#160;</text>
<text text-anchor="middle" x="2023" y="-255.2005" font-family="Inconsolata" font-size="14.00" fill="#000000"> &#160;A = P&quot;a&quot; + P&quot;A&quot;</text>
<text text-anchor="middle" x="2023" y="-239.8005" font-family="Inconsolata" font-size="14.00" fill="#000000"> &#160;B = V&quot;bmatch&quot; + (V&quot;A&quot; * V&quot;bmatch&quot;)</text>
<text text-anchor="middle" x="2023" y="-224.4004" font-family="Inconsolata" font-size="14.00" fill="#000000"> &#160;bmatch = P&quot;b&quot; + P&quot;B&quot;</text>
<text text-anchor="middle" x="2023" y="-209.0004" font-family="Inconsolata" font-size="14.00" fill="#000000">end</text>
<text text-anchor="middle" x="2023" y="-177.6004" font-family="Inconsolata" font-size="14.00" fill="#000000">local function clu_gm(_ENV)</text>
<text text-anchor="middle" x="2023" y="-162.2003" font-family="Inconsolata" font-size="14.00" fill="#000000"> &#160;local WS = P(m._ + m.NL)^0</text>
<text text-anchor="middle" x="2023" y="-146.8003" font-family="Inconsolata" font-size="14.00" fill="#000000"> &#160;START &quot;clu&quot;</text>
<text text-anchor="middle" x="2023" y="-131.4003" font-family="Inconsolata" font-size="14.00" fill="#000000"> &#160;SUPPRESS &quot;form&quot;</text>
<text text-anchor="middle" x="2023" y="-116.0002" font-family="Inconsolata" font-size="14.00" fill="#000000"> &#160;clu = V&quot;form&quot;^1</text>
<text text-anchor="middle" x="2023" y="-100.6002" font-family="Inconsolata" font-size="14.00" fill="#000000"> &#160;form = (V&quot;number&quot; * WS)</text>
<text text-anchor="middle" x="2023" y="-85.2002" font-family="Inconsolata" font-size="14.00" fill="#000000"> &#160;&#160;&#160;&#160;&#160;&#160;+ (V&quot;atom&quot; * WS) </text>
<text text-anchor="middle" x="2023" y="-69.8002" font-family="Inconsolata" font-size="14.00" fill="#000000"> &#160;&#160;&#160;&#160;&#160;&#160;+ (V&quot;expr&quot; * WS)</text>
<text text-anchor="middle" x="2023" y="-54.4001" font-family="Inconsolata" font-size="14.00" fill="#000000"> &#160;expr = m.pal * WS * V&quot;form&quot;^0 * WS * m.par</text>
<text text-anchor="middle" x="2023" y="-39.0001" font-family="Inconsolata" font-size="14.00" fill="#000000"> &#160;atom = m.symbol</text>
<text text-anchor="middle" x="2023" y="-23.6001" font-family="Inconsolata" font-size="14.00" fill="#000000"> &#160;number = m.number</text>
<text text-anchor="middle" x="2023" y="-8.2" font-family="Inconsolata" font-size="14.00" fill="#000000">end</text>
</g>
<!-- codeblock_21&#45;&gt;leaf_25 -->
<g id="edge25" class="edge">
<title>codeblock_21&#45;&gt;leaf_25</title>
<path fill="none" stroke="#000000" stroke-dasharray="5,2" d="M1910.9123,-548.0036C1914.3914,-538.7942 1919.0207,-526.5403 1924.4197,-512.2487"/>
<polygon fill="#000000" stroke="#000000" points="1927.8145,-513.166 1928.0744,-502.5744 1921.2662,-510.6922 1927.8145,-513.166"/>
</g>
<!-- leaf_29 -->
<g id="node30" class="node">
<title>leaf_29</title>
<polygon fill="none" stroke="#c0c0c0" points="2257,-269.3005 2203,-269.3005 2203,-233.3005 2257,-233.3005 2257,-269.3005"/>
</g>
<!-- header_26&#45;&gt;leaf_29 -->
<g id="edge29" class="edge">
<title>header_26&#45;&gt;leaf_29</title>
<path fill="none" stroke="#000000" stroke-dasharray="5,2" d="M2174.1586,-548.4753C2180.8173,-536.008 2189.1565,-518.7599 2194,-502.6009 2217.5972,-423.8746 2225.9185,-326.5017 2228.6979,-279.4187"/>
<polygon fill="#000000" stroke="#000000" points="2232.1963,-279.5413 2229.2511,-269.3641 2225.2069,-279.1567 2232.1963,-279.5413"/>
</g>
<!-- leaf_30 -->
<g id="node31" class="node">
<title>leaf_30</title>
<polygon fill="none" stroke="#c0c0c0" points="2329,-269.3005 2275,-269.3005 2275,-233.3005 2329,-233.3005 2329,-269.3005"/>
</g>
<!-- block_27&#45;&gt;leaf_30 -->
<g id="edge30" class="edge">
<title>block_27&#45;&gt;leaf_30</title>
<path fill="none" stroke="#000000" stroke-dasharray="5,2" d="M2303.8838,-548.0036C2303.5497,-495.3744 2302.5842,-343.3157 2302.1807,-279.7546"/>
<polygon fill="#000000" stroke="#000000" points="2305.68,-279.6258 2302.1165,-269.6483 2298.6802,-279.6703 2305.68,-279.6258"/>
</g>
<!-- leaf_31 -->
<g id="node32" class="node">
<title>leaf_31</title>
<polygon fill="none" stroke="#c0c0c0" points="2580.5,-278.5009 2347.5,-278.5009 2347.5,-224.1 2580.5,-224.1 2580.5,-278.5009"/>
<text text-anchor="middle" x="2464" y="-263.2005" font-family="Inconsolata" font-size="14.00" fill="#000000">Spec.trivial = Grammar(epsilon)</text>
<text text-anchor="middle" x="2464" y="-247.8005" font-family="Inconsolata" font-size="14.00" fill="#000000">Spec.a = Grammar(a)</text>
<text text-anchor="middle" x="2464" y="-232.4004" font-family="Inconsolata" font-size="14.00" fill="#000000">Spec.clu = Grammar(clu_gm)</text>
</g>
<!-- codeblock_28&#45;&gt;leaf_31 -->
<g id="edge31" class="edge">
<title>codeblock_28&#45;&gt;leaf_31</title>
<path fill="none" stroke="#000000" stroke-dasharray="5,2" d="M2460.2323,-548.0036C2460.8702,-497.7744 2462.6581,-356.9769 2463.5215,-288.9842"/>
<polygon fill="#000000" stroke="#000000" points="2467.0244,-288.7655 2463.6518,-278.7219 2460.025,-288.6766 2467.0244,-288.7655"/>
</g>
<!-- leaf_37 -->
<g id="node38" class="node">
<title>leaf_37</title>
<polygon fill="none" stroke="#c0c0c0" points="2653,-269.3005 2599,-269.3005 2599,-233.3005 2653,-233.3005 2653,-269.3005"/>
</g>
<!-- header_32&#45;&gt;leaf_37 -->
<g id="edge37" class="edge">
<title>header_32&#45;&gt;leaf_37</title>
<path fill="none" stroke="#000000" stroke-dasharray="5,2" d="M2625.0581,-548.0036C2625.2252,-495.3744 2625.7079,-343.3157 2625.9097,-279.7546"/>
<polygon fill="#000000" stroke="#000000" points="2629.4099,-279.6594 2625.9418,-269.6483 2622.4099,-279.6371 2629.4099,-279.6594"/>
</g>
<!-- leaf_38 -->
<g id="node39" class="node">
<title>leaf_38</title>
<polygon fill="none" stroke="#c0c0c0" points="2752,-269.3005 2698,-269.3005 2698,-233.3005 2752,-233.3005 2752,-269.3005"/>
</g>
<!-- block_33&#45;&gt;leaf_38 -->
<g id="edge38" class="edge">
<title>block_33&#45;&gt;leaf_38</title>
<path fill="none" stroke="#000000" stroke-dasharray="5,2" d="M2762.6765,-548.0036C2755.9935,-495.3744 2736.6845,-343.3157 2728.6132,-279.7546"/>
<polygon fill="#000000" stroke="#000000" points="2732.0618,-279.1277 2727.3299,-269.6483 2725.1176,-280.0095 2732.0618,-279.1277"/>
</g>
<!-- leaf_39 -->
<g id="node40" class="node">
<title>leaf_39</title>
<polygon fill="none" stroke="#c0c0c0" points="3010,-349.0008 2770,-349.0008 2770,-153.6001 3010,-153.6001 3010,-349.0008"/>
<text text-anchor="middle" x="2890" y="-317.7006" font-family="Inconsolata" font-size="14.00" fill="#000000">local metas = {}</text>
<text text-anchor="middle" x="2890" y="-286.3005" font-family="Inconsolata" font-size="14.00" fill="#000000">local AMt, amt = u.inherit(Node)</text>
<text text-anchor="middle" x="2890" y="-254.9005" font-family="Inconsolata" font-size="14.00" fill="#000000">local function Anew(A, t, str)</text>
<text text-anchor="middle" x="2890" y="-239.5005" font-family="Inconsolata" font-size="14.00" fill="#000000"> &#160;local a = setmetatable(t, AMt)</text>
<text text-anchor="middle" x="2890" y="-224.1005" font-family="Inconsolata" font-size="14.00" fill="#000000"> &#160;a.id = &quot;A&quot; &#160;</text>
<text text-anchor="middle" x="2890" y="-208.7004" font-family="Inconsolata" font-size="14.00" fill="#000000"> &#160;return a</text>
<text text-anchor="middle" x="2890" y="-193.3004" font-family="Inconsolata" font-size="14.00" fill="#000000">end</text>
<text text-anchor="middle" x="2890" y="-161.9004" font-family="Inconsolata" font-size="14.00" fill="#000000">metas[&quot;A&quot;] = u.export(amt, Anew)</text>
</g>
<!-- codeblock_34&#45;&gt;leaf_39 -->
<g id="edge39" class="edge">
<title>codeblock_34&#45;&gt;leaf_39</title>
<path fill="none" stroke="#000000" stroke-dasharray="5,2" d="M2914.4897,-548.0036C2911.4992,-511.7723 2904.6192,-428.4184 2898.9106,-359.256"/>
<polygon fill="#000000" stroke="#000000" points="2902.3883,-358.8401 2898.0774,-349.1619 2895.412,-359.416 2902.3883,-358.8401"/>
</g>
<!-- leaf_40 -->
<g id="node41" class="node">
<title>leaf_40</title>
<polygon fill="none" stroke="#c0c0c0" points="3240,-269.3005 3028,-269.3005 3028,-233.3005 3240,-233.3005 3240,-269.3005"/>
<text text-anchor="middle" x="3134" y="-247.8005" font-family="Inconsolata" font-size="14.00" fill="#000000">Spec.ab = Grammar(ab, metas)</text>
</g>
<!-- codeblock_35&#45;&gt;leaf_40 -->
<g id="edge40" class="edge">
<title>codeblock_35&#45;&gt;leaf_40</title>
<path fill="none" stroke="#000000" stroke-dasharray="5,2" d="M3101.9749,-548.0036C3107.6555,-495.3744 3124.0682,-343.3157 3130.9288,-279.7546"/>
<polygon fill="#000000" stroke="#000000" points="3134.4262,-279.9661 3132.0196,-269.6483 3127.4666,-279.2149 3134.4262,-279.9661"/>
</g>
<!-- leaf_41 -->
<g id="node42" class="node">
<title>leaf_41</title>
<polygon fill="none" stroke="#c0c0c0" points="3351.5,-269.3005 3258.5,-269.3005 3258.5,-233.3005 3351.5,-233.3005 3351.5,-269.3005"/>
<text text-anchor="middle" x="3305" y="-247.8005" font-family="Inconsolata" font-size="14.00" fill="#000000">return Spec</text>
</g>
<!-- codeblock_36&#45;&gt;leaf_41 -->
<g id="edge41" class="edge">
<title>codeblock_36&#45;&gt;leaf_41</title>
<path fill="none" stroke="#000000" stroke-dasharray="5,2" d="M3296.5228,-548.0036C3298.0265,-495.3744 3302.371,-343.3157 3304.187,-279.7546"/>
<polygon fill="#000000" stroke="#000000" points="3307.6887,-279.7442 3304.4758,-269.6483 3300.6915,-279.5442 3307.6887,-279.7442"/>
</g>
</g>
</svg>