<?xml version="1.0" encoding="UTF-8" standalone="no"?>
<!DOCTYPE svg PUBLIC "-//W3C//DTD SVG 1.1//EN"
 "http://www.w3.org/Graphics/SVG/1.1/DTD/svg11.dtd">
<!-- Generated by graphviz version 2.40.1 (20161225.0304)
 -->
<!-- Title: lpegNode Pages: 1 -->
<svg width="2787pt" height="810pt"
 viewBox="0.00 0.00 2786.50 809.60" xmlns="http://www.w3.org/2000/svg" xmlns:xlink="http://www.w3.org/1999/xlink">
<g id="graph0" class="graph" transform="scale(1 1) rotate(0) translate(4 805.6007)">
<title>lpegNode</title>
<polygon fill="#ffffff" stroke="transparent" points="-4,4 -4,-805.6007 2782.5,-805.6007 2782.5,4 -4,4"/>
<!-- doc_0 -->
<g id="node1" class="espalier/node">
<title>doc_0</title>
<ellipse fill="none" stroke="#000000" cx="831.5" cy="-783.6007" rx="46.9581" ry="18"/>
<text text-anchor="middle" x="831.5" y="-779.4007" font-family="Helvetica,sans-Serif" font-size="14.00" fill="#000000">doc &#45; 103</text>
</g>
<!-- section_1 -->
<g id="node2" class="espalier/node">
<title>section_1</title>
<ellipse fill="none" stroke="#000000" cx="831.5" cy="-711.6007" rx="60.1778" ry="18"/>
<text text-anchor="middle" x="831.5" y="-707.4007" font-family="Helvetica,sans-Serif" font-size="14.00" fill="#000000">section: 1&#45;11</text>
</g>
<!-- doc_0&#45;&gt;section_1 -->
<g id="edge1" class="edge">
<title>doc_0&#45;&gt;section_1</title>
<path fill="none" stroke="#000000" stroke-dasharray="5,2" d="M831.5,-765.4321C831.5,-757.7317 831.5,-748.5751 831.5,-740.0174"/>
<polygon fill="#000000" stroke="#000000" points="835.0001,-740.014 831.5,-730.014 828.0001,-740.0141 835.0001,-740.014"/>
</g>
<!-- header_2 -->
<g id="node3" class="espalier/node">
<title>header_2</title>
<ellipse fill="none" stroke="#000000" cx="601.5" cy="-639.6007" rx="62.8772" ry="18"/>
<text text-anchor="middle" x="601.5" y="-635.4007" font-family="Helvetica,sans-Serif" font-size="14.00" fill="#000000">1 : Grymback</text>
</g>
<!-- section_1&#45;&gt;header_2 -->
<g id="edge2" class="edge">
<title>section_1&#45;&gt;header_2</title>
<path fill="none" stroke="#000000" stroke-dasharray="5,2" d="M789.8487,-698.5621C751.6183,-686.5943 694.8265,-668.816 653.6053,-655.912"/>
<polygon fill="#000000" stroke="#000000" points="654.5981,-652.5553 644.0091,-652.908 652.5068,-659.2357 654.5981,-652.5553"/>
</g>
<!-- prose_3 -->
<g id="node4" class="espalier/node">
<title>prose_3</title>
<ellipse fill="none" stroke="#000000" cx="790.5" cy="-639.6007" rx="32.4585" ry="18"/>
<text text-anchor="middle" x="790.5" y="-635.4007" font-family="Helvetica,sans-Serif" font-size="14.00" fill="#000000">prose</text>
</g>
<!-- section_1&#45;&gt;prose_3 -->
<g id="edge3" class="edge">
<title>section_1&#45;&gt;prose_3</title>
<path fill="none" stroke="#000000" stroke-dasharray="5,2" d="M821.3652,-693.803C816.5632,-685.3703 810.7315,-675.1293 805.4358,-665.8295"/>
<polygon fill="#000000" stroke="#000000" points="808.3667,-663.9032 800.3768,-656.9453 802.2838,-667.3671 808.3667,-663.9032"/>
</g>
<!-- prose_4 -->
<g id="node5" class="espalier/node">
<title>prose_4</title>
<ellipse fill="none" stroke="#000000" cx="910.5" cy="-639.6007" rx="32.4585" ry="18"/>
<text text-anchor="middle" x="910.5" y="-635.4007" font-family="Helvetica,sans-Serif" font-size="14.00" fill="#000000">prose</text>
</g>
<!-- section_1&#45;&gt;prose_4 -->
<g id="edge4" class="edge">
<title>section_1&#45;&gt;prose_4</title>
<path fill="none" stroke="#000000" stroke-dasharray="5,2" d="M850.6237,-694.1716C861.235,-684.5005 874.548,-672.3671 885.9245,-661.9987"/>
<polygon fill="#000000" stroke="#000000" points="888.4008,-664.4773 893.4342,-655.1544 883.6856,-659.3036 888.4008,-664.4773"/>
</g>
<!-- section_5 -->
<g id="node6" class="espalier/node">
<title>section_5</title>
<ellipse fill="none" stroke="#000000" cx="1979.5" cy="-639.6007" rx="70.655" ry="18"/>
<text text-anchor="middle" x="1979.5" y="-635.4007" font-family="Helvetica,sans-Serif" font-size="14.00" fill="#000000">section: 12&#45;103</text>
</g>
<!-- section_1&#45;&gt;section_5 -->
<g id="edge5" class="edge">
<title>section_1&#45;&gt;section_5</title>
<path fill="none" stroke="#000000" stroke-dasharray="5,2" d="M890.4053,-707.9063C1081.4618,-695.9237 1684.0891,-658.1283 1900.8571,-644.5331"/>
<polygon fill="#000000" stroke="#000000" points="1901.1233,-648.0233 1910.8845,-643.9042 1900.685,-641.0371 1901.1233,-648.0233"/>
</g>
<!-- leaf_6 -->
<g id="node7" class="espalier/node">
<title>leaf_6</title>
<polygon fill="none" stroke="#c0c0c0" points="568.5,-585.6007 482.5,-585.6007 482.5,-549.6007 568.5,-549.6007 568.5,-585.6007"/>
<text text-anchor="middle" x="525.5" y="-564.1008" font-family="Inconsolata" font-size="14.00" fill="#000000">* Grymback</text>
</g>
<!-- header_2&#45;&gt;leaf_6 -->
<g id="edge6" class="edge">
<title>header_2&#45;&gt;leaf_6</title>
<path fill="none" stroke="#000000" stroke-dasharray="5,2" d="M583.1025,-622.1716C573.7906,-613.3498 562.3161,-602.4792 552.0656,-592.7682"/>
<polygon fill="#000000" stroke="#000000" points="554.1884,-589.958 544.5217,-585.6213 549.3742,-595.0397 554.1884,-589.958"/>
</g>
<!-- raw_7 -->
<g id="node8" class="espalier/node">
<title>raw_7</title>
<ellipse fill="none" stroke="#000000" cx="613.5" cy="-567.6007" rx="27" ry="18"/>
<text text-anchor="middle" x="613.5" y="-563.4007" font-family="Helvetica,sans-Serif" font-size="14.00" fill="#000000">raw</text>
</g>
<!-- prose_3&#45;&gt;raw_7 -->
<g id="edge7" class="edge">
<title>prose_3&#45;&gt;raw_7</title>
<path fill="none" stroke="#000000" stroke-dasharray="5,2" d="M763.1496,-630.0261C734.5056,-619.7901 688.3656,-602.7105 649.5,-585.6007 647.7253,-584.8195 645.9123,-583.9961 644.0902,-583.1488"/>
<polygon fill="#000000" stroke="#000000" points="645.5681,-579.9759 635.0388,-578.7991 642.5361,-586.2852 645.5681,-579.9759"/>
</g>
<!-- raw_9 -->
<g id="node10" class="espalier/node">
<title>raw_9</title>
<ellipse fill="none" stroke="#000000" cx="685.5" cy="-567.6007" rx="27" ry="18"/>
<text text-anchor="middle" x="685.5" y="-563.4007" font-family="Helvetica,sans-Serif" font-size="14.00" fill="#000000">raw</text>
</g>
<!-- prose_4&#45;&gt;raw_9 -->
<g id="edge9" class="edge">
<title>prose_4&#45;&gt;raw_9</title>
<path fill="none" stroke="#000000" stroke-dasharray="5,2" d="M880.4763,-632.8472C842.7165,-623.9413 776.2031,-606.8794 721.5,-585.6007 719.644,-584.8788 717.755,-584.0945 715.8635,-583.2707"/>
<polygon fill="#000000" stroke="#000000" points="717.068,-579.9709 706.5246,-578.928 714.1164,-586.3182 717.068,-579.9709"/>
</g>
<!-- prespace_10 -->
<g id="node11" class="espalier/node">
<title>prespace_10</title>
<ellipse fill="none" stroke="#000000" cx="776.5" cy="-567.6007" rx="46.4736" ry="18"/>
<text text-anchor="middle" x="776.5" y="-563.4007" font-family="Helvetica,sans-Serif" font-size="14.00" fill="#000000">prespace</text>
</g>
<!-- prose_4&#45;&gt;prespace_10 -->
<g id="edge10" class="edge">
<title>prose_4&#45;&gt;prespace_10</title>
<path fill="none" stroke="#000000" stroke-dasharray="5,2" d="M887.159,-627.0593C866.6379,-616.0331 836.4385,-599.8065 812.7702,-587.0892"/>
<polygon fill="#000000" stroke="#000000" points="814.1935,-583.8807 803.7279,-582.2307 810.8802,-590.047 814.1935,-583.8807"/>
</g>
<!-- literal_11 -->
<g id="node12" class="espalier/node">
<title>literal_11</title>
<ellipse fill="none" stroke="#000000" cx="872.5" cy="-567.6007" rx="31.481" ry="18"/>
<text text-anchor="middle" x="872.5" y="-563.4007" font-family="Helvetica,sans-Serif" font-size="14.00" fill="#000000">literal</text>
</g>
<!-- prose_4&#45;&gt;literal_11 -->
<g id="edge11" class="edge">
<title>prose_4&#45;&gt;literal_11</title>
<path fill="none" stroke="#000000" stroke-dasharray="5,2" d="M901.3013,-622.1716C896.8203,-613.6814 891.3379,-603.2936 886.3634,-593.8682"/>
<polygon fill="#000000" stroke="#000000" points="889.377,-592.0796 881.614,-584.8694 883.1863,-595.347 889.377,-592.0796"/>
</g>
<!-- raw_12 -->
<g id="node13" class="espalier/node">
<title>raw_12</title>
<ellipse fill="none" stroke="#000000" cx="948.5" cy="-567.6007" rx="27" ry="18"/>
<text text-anchor="middle" x="948.5" y="-563.4007" font-family="Helvetica,sans-Serif" font-size="14.00" fill="#000000">raw</text>
</g>
<!-- prose_4&#45;&gt;raw_12 -->
<g id="edge12" class="edge">
<title>prose_4&#45;&gt;raw_12</title>
<path fill="none" stroke="#000000" stroke-dasharray="5,2" d="M919.6987,-622.1716C924.1797,-613.6814 929.6621,-603.2936 934.6366,-593.8682"/>
<polygon fill="#000000" stroke="#000000" points="937.8137,-595.347 939.386,-584.8694 931.623,-592.0796 937.8137,-595.347"/>
</g>
<!-- prespace_13 -->
<g id="node14" class="espalier/node">
<title>prespace_13</title>
<ellipse fill="none" stroke="#000000" cx="1062.5" cy="-567.6007" rx="46.4736" ry="18"/>
<text text-anchor="middle" x="1062.5" y="-563.4007" font-family="Helvetica,sans-Serif" font-size="14.00" fill="#000000">prespace</text>
</g>
<!-- prose_4&#45;&gt;prespace_13 -->
<g id="edge13" class="edge">
<title>prose_4&#45;&gt;prespace_13</title>
<path fill="none" stroke="#000000" stroke-dasharray="5,2" d="M935.2597,-627.8725C959.2939,-616.4878 996.1253,-599.0414 1023.9881,-585.8432"/>
<polygon fill="#000000" stroke="#000000" points="1025.5229,-588.9891 1033.062,-581.5451 1022.5263,-582.6629 1025.5229,-588.9891"/>
</g>
<!-- literal_14 -->
<g id="node15" class="espalier/node">
<title>literal_14</title>
<ellipse fill="none" stroke="#000000" cx="1181.5" cy="-567.6007" rx="31.481" ry="18"/>
<text text-anchor="middle" x="1181.5" y="-563.4007" font-family="Helvetica,sans-Serif" font-size="14.00" fill="#000000">literal</text>
</g>
<!-- prose_4&#45;&gt;literal_14 -->
<g id="edge14" class="edge">
<title>prose_4&#45;&gt;literal_14</title>
<path fill="none" stroke="#000000" stroke-dasharray="5,2" d="M940.0267,-632.086C980.2286,-621.8115 1054.4095,-602.7004 1117.5,-585.6007 1125.9875,-583.3004 1135.0916,-580.7749 1143.6936,-578.3622"/>
<polygon fill="#000000" stroke="#000000" points="1144.8173,-581.6819 1153.4938,-575.6017 1142.9194,-574.9441 1144.8173,-581.6819"/>
</g>
<!-- raw_15 -->
<g id="node16" class="espalier/node">
<title>raw_15</title>
<ellipse fill="none" stroke="#000000" cx="1398.5" cy="-567.6007" rx="27" ry="18"/>
<text text-anchor="middle" x="1398.5" y="-563.4007" font-family="Helvetica,sans-Serif" font-size="14.00" fill="#000000">raw</text>
</g>
<!-- prose_4&#45;&gt;raw_15 -->
<g id="edge15" class="edge">
<title>prose_4&#45;&gt;raw_15</title>
<path fill="none" stroke="#000000" stroke-dasharray="5,2" d="M941.769,-634.9873C1028.16,-622.2411 1269.8045,-586.5886 1362.0659,-572.9763"/>
<polygon fill="#000000" stroke="#000000" points="1362.668,-576.4254 1372.05,-571.5032 1361.6462,-569.5004 1362.668,-576.4254"/>
</g>
<!-- header_23 -->
<g id="node24" class="espalier/node">
<title>header_23</title>
<ellipse fill="none" stroke="#000000" cx="1874.5" cy="-567.6007" rx="54.6851" ry="18"/>
<text text-anchor="middle" x="1874.5" y="-563.4007" font-family="Helvetica,sans-Serif" font-size="14.00" fill="#000000">3 : includes</text>
</g>
<!-- section_5&#45;&gt;header_23 -->
<g id="edge23" class="edge">
<title>section_5&#45;&gt;header_23</title>
<path fill="none" stroke="#000000" stroke-dasharray="5,2" d="M1954.8822,-622.7199C1940.4596,-612.8302 1922.0822,-600.2285 1906.5405,-589.5714"/>
<polygon fill="#000000" stroke="#000000" points="1908.4677,-586.6491 1898.2411,-583.8803 1904.509,-592.4222 1908.4677,-586.6491"/>
</g>
<!-- prose_24 -->
<g id="node25" class="espalier/node">
<title>prose_24</title>
<ellipse fill="none" stroke="#000000" cx="1979.5" cy="-567.6007" rx="32.4585" ry="18"/>
<text text-anchor="middle" x="1979.5" y="-563.4007" font-family="Helvetica,sans-Serif" font-size="14.00" fill="#000000">prose</text>
</g>
<!-- section_5&#45;&gt;prose_24 -->
<g id="edge24" class="edge">
<title>section_5&#45;&gt;prose_24</title>
<path fill="none" stroke="#000000" stroke-dasharray="5,2" d="M1979.5,-621.4321C1979.5,-613.7317 1979.5,-604.5751 1979.5,-596.0174"/>
<polygon fill="#000000" stroke="#000000" points="1983.0001,-596.014 1979.5,-586.014 1976.0001,-596.0141 1983.0001,-596.014"/>
</g>
<!-- codeblock_25 -->
<g id="node26" class="espalier/node">
<title>codeblock_25</title>
<ellipse fill="none" stroke="#000000" cx="2141.5" cy="-567.6007" rx="77.4211" ry="18"/>
<text text-anchor="middle" x="2141.5" y="-563.4007" font-family="Helvetica,sans-Serif" font-size="14.00" fill="#000000">code block 14&#45;39</text>
</g>
<!-- section_5&#45;&gt;codeblock_25 -->
<g id="edge25" class="edge">
<title>section_5&#45;&gt;codeblock_25</title>
<path fill="none" stroke="#000000" stroke-dasharray="5,2" d="M2014.6516,-623.9778C2038.6037,-613.3324 2070.5312,-599.1424 2096.3621,-587.6621"/>
<polygon fill="#000000" stroke="#000000" points="2097.8602,-590.8264 2105.5768,-583.5666 2095.0172,-584.4297 2097.8602,-590.8264"/>
</g>
<!-- codeblock_26 -->
<g id="node27" class="espalier/node">
<title>codeblock_26</title>
<ellipse fill="none" stroke="#000000" cx="2440.5" cy="-567.6007" rx="77.4211" ry="18"/>
<text text-anchor="middle" x="2440.5" y="-563.4007" font-family="Helvetica,sans-Serif" font-size="14.00" fill="#000000">code block 43&#45;72</text>
</g>
<!-- section_5&#45;&gt;codeblock_26 -->
<g id="edge26" class="edge">
<title>section_5&#45;&gt;codeblock_26</title>
<path fill="none" stroke="#000000" stroke-dasharray="5,2" d="M2039.7677,-630.188C2123.6318,-617.0899 2275.4246,-593.3826 2366.1943,-579.206"/>
<polygon fill="#000000" stroke="#000000" points="2366.7983,-582.6542 2376.1384,-577.6529 2365.7181,-575.738 2366.7983,-582.6542"/>
</g>
<!-- leaf_8 -->
<g id="node9" class="espalier/node">
<title>leaf_8</title>
<polygon fill="none" stroke="#c0c0c0" points="513,-336.1007 0,-336.1007 0,-249.5001 513,-249.5001 513,-336.1007"/>
<text text-anchor="middle" x="256.5" y="-273.0004" font-family="Inconsolata" font-size="14.00" fill="#000000"> &#160;This is a standalone program to restore grym in the event that a knit</text>
<text text-anchor="middle" x="256.5" y="-257.6004" font-family="Inconsolata" font-size="14.00" fill="#000000">results in an unusable grym module.</text>
</g>
<!-- raw_7&#45;&gt;leaf_8 -->
<g id="edge8" class="edge">
<title>raw_7&#45;&gt;leaf_8</title>
<path fill="none" stroke="#000000" stroke-dasharray="5,2" d="M592.063,-556.3243C573.0155,-546.0023 544.6814,-529.8967 521.5,-513.6007 445.1555,-459.9325 363.5603,-389.7845 311.397,-343.1074"/>
<polygon fill="#000000" stroke="#000000" points="313.6986,-340.4701 303.9185,-336.3957 309.0231,-345.6798 313.6986,-340.4701"/>
</g>
<!-- leaf_16 -->
<g id="node17" class="espalier/node">
<title>leaf_16</title>
<polygon fill="none" stroke="#c0c0c0" points="624,-312.7025 531,-312.7025 531,-272.8983 624,-272.8983 624,-312.7025"/>
<text text-anchor="middle" x="577.5" y="-281.3004" font-family="Inconsolata" font-size="14.00" fill="#000000">The plan: A</text>
</g>
<!-- raw_9&#45;&gt;leaf_16 -->
<g id="edge16" class="edge">
<title>raw_9&#45;&gt;leaf_16</title>
<path fill="none" stroke="#000000" stroke-dasharray="5,2" d="M668.1039,-553.7637C656.6569,-543.7635 642.2282,-529.2981 633.5,-513.6007 598.7903,-451.1763 585.1831,-366.9334 580.1788,-322.7287"/>
<polygon fill="#000000" stroke="#000000" points="583.6447,-322.2206 579.1094,-312.6456 576.6837,-322.959 583.6447,-322.2206"/>
</g>
<!-- leaf_17 -->
<g id="node18" class="espalier/node">
<title>leaf_17</title>
<polygon fill="none" stroke="#c0c0c0" points="696.5,-310.8004 642.5,-310.8004 642.5,-274.8004 696.5,-274.8004 696.5,-310.8004"/>
<text text-anchor="middle" x="669.5" y="-289.3004" font-family="Inconsolata" font-size="14.00" fill="#000000"> </text>
</g>
<!-- prespace_10&#45;&gt;leaf_17 -->
<g id="edge17" class="edge">
<title>prespace_10&#45;&gt;leaf_17</title>
<path fill="none" stroke="#000000" stroke-dasharray="5,2" d="M748.301,-553.1263C733.1833,-543.8805 715.6304,-530.4589 705.5,-513.6007 668.7219,-452.3977 666.2012,-365.2286 667.7022,-320.9509"/>
<polygon fill="#000000" stroke="#000000" points="671.2009,-321.0544 668.1385,-310.9118 664.2075,-320.7503 671.2009,-321.0544"/>
</g>
<!-- leaf_18 -->
<g id="node19" class="espalier/node">
<title>leaf_18</title>
<polygon fill="none" stroke="#c0c0c0" points="768.5,-310.8004 714.5,-310.8004 714.5,-274.8004 768.5,-274.8004 768.5,-310.8004"/>
<text text-anchor="middle" x="741.5" y="-289.3004" font-family="Inconsolata" font-size="14.00" fill="#000000">.grym</text>
</g>
<!-- literal_11&#45;&gt;leaf_18 -->
<g id="edge18" class="edge">
<title>literal_11&#45;&gt;leaf_18</title>
<path fill="none" stroke="#000000" stroke-dasharray="5,2" d="M847.4925,-556.4243C822.429,-544.7151 786.3292,-526.2936 777.5,-513.6007 736.6235,-454.8368 735.9448,-366.2428 738.7709,-321.228"/>
<polygon fill="#000000" stroke="#000000" points="742.2784,-321.2529 739.5209,-311.0233 735.2972,-320.7398 742.2784,-321.2529"/>
</g>
<!-- leaf_19 -->
<g id="node20" class="espalier/node">
<title>leaf_19</title>
<polygon fill="none" stroke="#c0c0c0" points="1110.5,-312.1009 786.5,-312.1009 786.5,-273.4998 1110.5,-273.4998 1110.5,-312.1009"/>
<text text-anchor="middle" x="948.5" y="-297.0004" font-family="Inconsolata" font-size="14.00" fill="#000000"> file in the root directory will contain any</text>
<text text-anchor="middle" x="948.5" y="-281.6004" font-family="Inconsolata" font-size="14.00" fill="#000000">knit&#45;modified files from the last pass. </text>
</g>
<!-- raw_12&#45;&gt;leaf_19 -->
<g id="edge19" class="edge">
<title>raw_12&#45;&gt;leaf_19</title>
<path fill="none" stroke="#000000" stroke-dasharray="5,2" d="M948.5,-549.5703C948.5,-503.2416 948.5,-379.6755 948.5,-322.5379"/>
<polygon fill="#000000" stroke="#000000" points="952.0001,-322.3567 948.5,-312.3568 945.0001,-322.3568 952.0001,-322.3567"/>
</g>
<!-- leaf_20 -->
<g id="node21" class="espalier/node">
<title>leaf_20</title>
<polygon fill="none" stroke="#c0c0c0" points="1182.5,-310.8004 1128.5,-310.8004 1128.5,-274.8004 1182.5,-274.8004 1182.5,-310.8004"/>
<text text-anchor="middle" x="1155.5" y="-289.3004" font-family="Inconsolata" font-size="14.00" fill="#000000"> </text>
</g>
<!-- prespace_13&#45;&gt;leaf_20 -->
<g id="edge20" class="edge">
<title>prespace_13&#45;&gt;leaf_20</title>
<path fill="none" stroke="#000000" stroke-dasharray="5,2" d="M1085.4494,-551.7106C1097.5281,-542.098 1111.4619,-528.7795 1119.5,-513.6007 1152.7619,-450.791 1156.8662,-364.956 1156.5019,-321.1064"/>
<polygon fill="#000000" stroke="#000000" points="1159.998,-320.8413 1156.3281,-310.9024 1152.999,-320.9606 1159.998,-320.8413"/>
</g>
<!-- leaf_21 -->
<g id="node22" class="espalier/node">
<title>leaf_21</title>
<polygon fill="none" stroke="#c0c0c0" points="1254.5,-310.8004 1200.5,-310.8004 1200.5,-274.8004 1254.5,-274.8004 1254.5,-310.8004"/>
<text text-anchor="middle" x="1227.5" y="-289.3004" font-family="Inconsolata" font-size="14.00" fill="#000000">grym</text>
</g>
<!-- literal_14&#45;&gt;leaf_21 -->
<g id="edge21" class="edge">
<title>literal_14&#45;&gt;leaf_21</title>
<path fill="none" stroke="#000000" stroke-dasharray="5,2" d="M1184.9301,-549.6181C1186.9068,-539.1239 1189.4068,-525.6239 1191.5,-513.6007 1203.5417,-444.4329 1216.5272,-362.8558 1223.1197,-320.8807"/>
<polygon fill="#000000" stroke="#000000" points="1226.6006,-321.275 1224.6912,-310.8537 1219.685,-320.1911 1226.6006,-321.275"/>
</g>
<!-- leaf_22 -->
<g id="node23" class="espalier/node">
<title>leaf_22</title>
<polygon fill="none" stroke="#c0c0c0" points="1806.5,-320.0008 1272.5,-320.0008 1272.5,-265.5999 1806.5,-265.5999 1806.5,-320.0008"/>
<text text-anchor="middle" x="1539.5" y="-304.7004" font-family="Inconsolata" font-size="14.00" fill="#000000"> itself will read and write</text>
<text text-anchor="middle" x="1539.5" y="-289.3004" font-family="Inconsolata" font-size="14.00" fill="#000000">to the .grym file, maintaining a data structure in the meantime; this will</text>
<text text-anchor="middle" x="1539.5" y="-273.9004" font-family="Inconsolata" font-size="14.00" fill="#000000">be in Lua&#45;native table format, at first, eventually Clu(den).</text>
</g>
<!-- raw_15&#45;&gt;leaf_22 -->
<g id="edge22" class="edge">
<title>raw_15&#45;&gt;leaf_22</title>
<path fill="none" stroke="#000000" stroke-dasharray="5,2" d="M1407.3202,-550.4108C1429.8681,-506.4663 1490.0018,-389.2694 1520.7812,-329.2822"/>
<polygon fill="#000000" stroke="#000000" points="1524.0076,-330.6608 1525.4588,-320.1658 1517.7796,-327.4652 1524.0076,-330.6608"/>
</g>
<!-- leaf_27 -->
<g id="node28" class="espalier/node">
<title>leaf_27</title>
<polygon fill="none" stroke="#c0c0c0" points="1924.5,-310.8004 1824.5,-310.8004 1824.5,-274.8004 1924.5,-274.8004 1924.5,-310.8004"/>
<text text-anchor="middle" x="1874.5" y="-289.3004" font-family="Inconsolata" font-size="14.00" fill="#000000">*** includes</text>
</g>
<!-- header_23&#45;&gt;leaf_27 -->
<g id="edge27" class="edge">
<title>header_23&#45;&gt;leaf_27</title>
<path fill="none" stroke="#000000" stroke-dasharray="5,2" d="M1874.5,-549.5703C1874.5,-502.8902 1874.5,-377.7962 1874.5,-321.2491"/>
<polygon fill="#000000" stroke="#000000" points="1878.0001,-320.8972 1874.5,-310.8972 1871.0001,-320.8972 1878.0001,-320.8972"/>
</g>
<!-- raw_28 -->
<g id="node29" class="espalier/node">
<title>raw_28</title>
<ellipse fill="none" stroke="#000000" cx="1969.5" cy="-292.8004" rx="27" ry="18"/>
<text text-anchor="middle" x="1969.5" y="-288.6004" font-family="Helvetica,sans-Serif" font-size="14.00" fill="#000000">raw</text>
</g>
<!-- prose_24&#45;&gt;raw_28 -->
<g id="edge28" class="edge">
<title>prose_24&#45;&gt;raw_28</title>
<path fill="none" stroke="#000000" stroke-dasharray="5,2" d="M1978.8439,-549.5703C1977.1416,-502.7929 1972.574,-377.2747 1970.5224,-320.8966"/>
<polygon fill="#000000" stroke="#000000" points="1974.02,-320.7633 1970.1585,-310.8972 1967.0246,-321.0179 1974.02,-320.7633"/>
</g>
<!-- leaf_30 -->
<g id="node31" class="espalier/node">
<title>leaf_30</title>
<polygon fill="none" stroke="#c0c0c0" points="2338.5,-482.801 2014.5,-482.801 2014.5,-102.7998 2338.5,-102.7998 2338.5,-482.801"/>
<text text-anchor="middle" x="2176.5" y="-467.6007" font-family="Inconsolata" font-size="14.00" fill="#000000">local L = require &quot;lpeg&quot;</text>
<text text-anchor="middle" x="2176.5" y="-436.2007" font-family="Inconsolata" font-size="14.00" fill="#000000">local s = require &quot;lib/status&quot;</text>
<text text-anchor="middle" x="2176.5" y="-420.8006" font-family="Inconsolata" font-size="14.00" fill="#000000">local u = require &quot;lib/util&quot;</text>
<text text-anchor="middle" x="2176.5" y="-405.4006" font-family="Inconsolata" font-size="14.00" fill="#000000">local a = require &quot;lib/ansi&quot;</text>
<text text-anchor="middle" x="2176.5" y="-390.0006" font-family="Inconsolata" font-size="14.00" fill="#000000">s.chatty = true</text>
<text text-anchor="middle" x="2176.5" y="-358.6005" font-family="Inconsolata" font-size="14.00" fill="#000000">local epeg = require &quot;epeg&quot;</text>
<text text-anchor="middle" x="2176.5" y="-327.2005" font-family="Inconsolata" font-size="14.00" fill="#000000">local pl_file = require &quot;pl.file&quot;</text>
<text text-anchor="middle" x="2176.5" y="-311.8005" font-family="Inconsolata" font-size="14.00" fill="#000000">local pl_dir = require &quot;pl.dir&quot;</text>
<text text-anchor="middle" x="2176.5" y="-296.4004" font-family="Inconsolata" font-size="14.00" fill="#000000">local pl_path = require &quot;pl.path&quot;</text>
<text text-anchor="middle" x="2176.5" y="-281.0004" font-family="Inconsolata" font-size="14.00" fill="#000000">local getfiles = pl_dir.getfiles</text>
<text text-anchor="middle" x="2176.5" y="-265.6004" font-family="Inconsolata" font-size="14.00" fill="#000000">local getdirectories = pl_dir.getdirectories</text>
<text text-anchor="middle" x="2176.5" y="-250.2003" font-family="Inconsolata" font-size="14.00" fill="#000000">local makepath = pl_dir.makepath</text>
<text text-anchor="middle" x="2176.5" y="-234.8003" font-family="Inconsolata" font-size="14.00" fill="#000000">local extension = pl_path.extension</text>
<text text-anchor="middle" x="2176.5" y="-219.4003" font-family="Inconsolata" font-size="14.00" fill="#000000">local dirname = pl_path.dirname</text>
<text text-anchor="middle" x="2176.5" y="-204.0002" font-family="Inconsolata" font-size="14.00" fill="#000000">local basename = pl_path.basename</text>
<text text-anchor="middle" x="2176.5" y="-188.6002" font-family="Inconsolata" font-size="14.00" fill="#000000">local read = pl_file.read</text>
<text text-anchor="middle" x="2176.5" y="-173.2002" font-family="Inconsolata" font-size="14.00" fill="#000000">local write = pl_file.write</text>
<text text-anchor="middle" x="2176.5" y="-157.8002" font-family="Inconsolata" font-size="14.00" fill="#000000">local delete = pl_file.delete</text>
<text text-anchor="middle" x="2176.5" y="-142.4001" font-family="Inconsolata" font-size="14.00" fill="#000000">local isdir = pl_path.isdir</text>
<text text-anchor="middle" x="2176.5" y="-111.0001" font-family="Inconsolata" font-size="14.00" fill="#000000">local walk = &quot;walk&quot;</text>
</g>
<!-- codeblock_25&#45;&gt;leaf_30 -->
<g id="edge30" class="edge">
<title>codeblock_25&#45;&gt;leaf_30</title>
<path fill="none" stroke="#000000" stroke-dasharray="5,2" d="M2143.7964,-549.5703C2145.5131,-536.0924 2148.0623,-516.0776 2150.9935,-493.0631"/>
<polygon fill="#000000" stroke="#000000" points="2154.4802,-493.3886 2152.2718,-483.0264 2147.5363,-492.5041 2154.4802,-493.3886"/>
</g>
<!-- leaf_31 -->
<g id="node32" class="espalier/node">
<title>leaf_31</title>
<polygon fill="none" stroke="#c0c0c0" points="2778.5,-513.4013 2356.5,-513.4013 2356.5,-72.1994 2778.5,-72.1994 2778.5,-513.4013"/>
<text text-anchor="middle" x="2567.5" y="-482.4007" font-family="Inconsolata" font-size="14.00" fill="#000000">local pwd = &quot;&quot;</text>
<text text-anchor="middle" x="2567.5" y="-451.0007" font-family="Inconsolata" font-size="14.00" fill="#000000">if (arg) then</text>
<text text-anchor="middle" x="2567.5" y="-435.6007" font-family="Inconsolata" font-size="14.00" fill="#000000"> &#160;pwd = table.remove(arg, 1)</text>
<text text-anchor="middle" x="2567.5" y="-420.2007" font-family="Inconsolata" font-size="14.00" fill="#000000">else</text>
<text text-anchor="middle" x="2567.5" y="-404.8006" font-family="Inconsolata" font-size="14.00" fill="#000000"> &#160;os.exit(&quot;Must be called with a root codex directory&quot;, 1)</text>
<text text-anchor="middle" x="2567.5" y="-389.4006" font-family="Inconsolata" font-size="14.00" fill="#000000">end</text>
<text text-anchor="middle" x="2567.5" y="-358.0006" font-family="Inconsolata" font-size="14.00" fill="#000000">io.write(&quot;pwd: &quot; .. pwd .. &quot;\n&quot;)</text>
<text text-anchor="middle" x="2567.5" y="-326.6005" font-family="Inconsolata" font-size="14.00" fill="#000000">local grymback_rc = read(pwd .. &quot;/.grymback&quot;)</text>
<text text-anchor="middle" x="2567.5" y="-311.2005" font-family="Inconsolata" font-size="14.00" fill="#000000">if not grymback_rc then</text>
<text text-anchor="middle" x="2567.5" y="-295.8005" font-family="Inconsolata" font-size="14.00" fill="#000000"> &#160;s:chat(&quot;No contents in grymback. &#160;No action taken.&quot;)</text>
<text text-anchor="middle" x="2567.5" y="-280.4004" font-family="Inconsolata" font-size="14.00" fill="#000000"> &#160;os.exit()</text>
<text text-anchor="middle" x="2567.5" y="-265.0004" font-family="Inconsolata" font-size="14.00" fill="#000000">else</text>
<text text-anchor="middle" x="2567.5" y="-249.6004" font-family="Inconsolata" font-size="14.00" fill="#000000"> &#160;for _,v in ipairs(epeg.split(grymback_rc, &quot;\n&quot;)) do</text>
<text text-anchor="middle" x="2567.5" y="-234.2003" font-family="Inconsolata" font-size="14.00" fill="#000000"> &#160;&#160;&#160;if v ~= &quot;&quot; then</text>
<text text-anchor="middle" x="2567.5" y="-218.8003" font-family="Inconsolata" font-size="14.00" fill="#000000"> &#160;&#160;&#160;&#160;&#160;s:chat(&quot;Reverting &quot; .. a.cyan(grymback_rc))</text>
<text text-anchor="middle" x="2567.5" y="-203.4003" font-family="Inconsolata" font-size="14.00" fill="#000000"> &#160;&#160;&#160;&#160;&#160;s:chat(&quot;Reading &quot; .. a.green(pwd .. &quot;/tmp&quot; .. v))</text>
<text text-anchor="middle" x="2567.5" y="-188.0002" font-family="Inconsolata" font-size="14.00" fill="#000000"> &#160;&#160;&#160;&#160;&#160;local new_tmp = read(pwd .. &quot;/tmp&quot; .. v)</text>
<text text-anchor="middle" x="2567.5" y="-172.6002" font-family="Inconsolata" font-size="14.00" fill="#000000"> &#160;&#160;&#160;&#160;&#160;if new_tmp then</text>
<text text-anchor="middle" x="2567.5" y="-157.2002" font-family="Inconsolata" font-size="14.00" fill="#000000"> &#160;&#160;&#160;&#160;&#160;&#160;&#160;s:chat(&quot; &#160;&#45; writing&quot;)</text>
<text text-anchor="middle" x="2567.5" y="-141.8002" font-family="Inconsolata" font-size="14.00" fill="#000000"> &#160;&#160;&#160;&#160;&#160;&#160;&#160;write(v, read(pwd .. &quot;/tmp&quot; .. v))</text>
<text text-anchor="middle" x="2567.5" y="-126.4001" font-family="Inconsolata" font-size="14.00" fill="#000000"> &#160;&#160;&#160;&#160;&#160;end</text>
<text text-anchor="middle" x="2567.5" y="-111.0001" font-family="Inconsolata" font-size="14.00" fill="#000000"> &#160;&#160;&#160;end</text>
<text text-anchor="middle" x="2567.5" y="-95.6001" font-family="Inconsolata" font-size="14.00" fill="#000000"> &#160;end</text>
<text text-anchor="middle" x="2567.5" y="-80.2" font-family="Inconsolata" font-size="14.00" fill="#000000">end</text>
</g>
<!-- codeblock_26&#45;&gt;leaf_31 -->
<g id="edge31" class="edge">
<title>codeblock_26&#45;&gt;leaf_31</title>
<path fill="none" stroke="#000000" stroke-dasharray="5,2" d="M2448.8328,-549.5703C2452.1956,-542.294 2456.4389,-533.1125 2461.3054,-522.5824"/>
<polygon fill="#000000" stroke="#000000" points="2464.5161,-523.9779 2465.5343,-513.4321 2458.1619,-521.0412 2464.5161,-523.9779"/>
</g>
<!-- leaf_29 -->
<g id="node30" class="espalier/node">
<title>leaf_29</title>
<polygon fill="none" stroke="#c0c0c0" points="1996.5,-36 1942.5,-36 1942.5,0 1996.5,0 1996.5,-36"/>
</g>
<!-- raw_28&#45;&gt;leaf_29 -->
<g id="edge29" class="edge">
<title>raw_28&#45;&gt;leaf_29</title>
<path fill="none" stroke="#000000" stroke-dasharray="5,2" d="M1969.5,-274.77C1969.5,-228.0898 1969.5,-102.9959 1969.5,-46.4487"/>
<polygon fill="#000000" stroke="#000000" points="1973.0001,-46.0968 1969.5,-36.0968 1966.0001,-46.0968 1973.0001,-46.0968"/>
</g>
</g>
</svg>