<?xml version="1.0" encoding="UTF-8" standalone="no"?>
<!DOCTYPE svg PUBLIC "-//W3C//DTD SVG 1.1//EN"
 "http://www.w3.org/Graphics/SVG/1.1/DTD/svg11.dtd">
<!-- Generated by graphviz version 2.40.1 (20161225.0304)
 -->
<!-- Title: hierarchy Pages: 1 -->
<svg width="2650pt" height="810pt"
 viewBox="0.00 0.00 2649.50 809.60" xmlns="http://www.w3.org/2000/svg" xmlns:xlink="http://www.w3.org/1999/xlink">
<g id="graph0" class="graph" transform="scale(1 1) rotate(0) translate(4 805.6007)">
<title>hierarchy</title>
<polygon fill="#ffffff" stroke="transparent" points="-4,4 -4,-805.6007 2645.5,-805.6007 2645.5,4 -4,4"/>
<!-- doc_0 -->
<g id="node1" class="node">
<title>doc_0</title>
<ellipse fill="none" stroke="#000000" cx="794.5" cy="-783.6007" rx="46.9581" ry="18"/>
<text text-anchor="middle" x="794.5" y="-779.4007" font-family="Helvetica,sans-Serif" font-size="14.00" fill="#000000">doc &#45; 103</text>
</g>
<!-- section_1 -->
<g id="node2" class="node">
<title>section_1</title>
<ellipse fill="none" stroke="#000000" cx="794.5" cy="-711.6007" rx="60.1778" ry="18"/>
<text text-anchor="middle" x="794.5" y="-707.4007" font-family="Helvetica,sans-Serif" font-size="14.00" fill="#000000">section: 1&#45;11</text>
</g>
<!-- doc_0&#45;&gt;section_1 -->
<g id="edge1" class="edge">
<title>doc_0&#45;&gt;section_1</title>
<path fill="none" stroke="#000000" stroke-dasharray="5,2" d="M794.5,-765.4321C794.5,-757.7317 794.5,-748.5751 794.5,-740.0174"/>
<polygon fill="#000000" stroke="#000000" points="798.0001,-740.014 794.5,-730.014 791.0001,-740.0141 798.0001,-740.014"/>
</g>
<!-- header_2 -->
<g id="node3" class="node">
<title>header_2</title>
<ellipse fill="none" stroke="#000000" cx="620.5" cy="-639.6007" rx="62.8772" ry="18"/>
<text text-anchor="middle" x="620.5" y="-635.4007" font-family="Helvetica,sans-Serif" font-size="14.00" fill="#000000">1 : Grymback</text>
</g>
<!-- section_1&#45;&gt;header_2 -->
<g id="edge2" class="edge">
<title>section_1&#45;&gt;header_2</title>
<path fill="none" stroke="#000000" stroke-dasharray="5,2" d="M758.8686,-696.8567C731.981,-685.7308 694.8948,-670.3848 665.8845,-658.3806"/>
<polygon fill="#000000" stroke="#000000" points="666.9607,-655.0381 656.3823,-654.4486 664.2842,-661.5062 666.9607,-655.0381"/>
</g>
<!-- prose_3 -->
<g id="node4" class="node">
<title>prose_3</title>
<ellipse fill="none" stroke="#000000" cx="753.5" cy="-639.6007" rx="32.4585" ry="18"/>
<text text-anchor="middle" x="753.5" y="-635.4007" font-family="Helvetica,sans-Serif" font-size="14.00" fill="#000000">prose</text>
</g>
<!-- section_1&#45;&gt;prose_3 -->
<g id="edge3" class="edge">
<title>section_1&#45;&gt;prose_3</title>
<path fill="none" stroke="#000000" stroke-dasharray="5,2" d="M784.3652,-693.803C779.5632,-685.3703 773.7315,-675.1293 768.4358,-665.8295"/>
<polygon fill="#000000" stroke="#000000" points="771.3667,-663.9032 763.3768,-656.9453 765.2838,-667.3671 771.3667,-663.9032"/>
</g>
<!-- prose_4 -->
<g id="node5" class="node">
<title>prose_4</title>
<ellipse fill="none" stroke="#000000" cx="845.5" cy="-639.6007" rx="32.4585" ry="18"/>
<text text-anchor="middle" x="845.5" y="-635.4007" font-family="Helvetica,sans-Serif" font-size="14.00" fill="#000000">prose</text>
</g>
<!-- section_1&#45;&gt;prose_4 -->
<g id="edge4" class="edge">
<title>section_1&#45;&gt;prose_4</title>
<path fill="none" stroke="#000000" stroke-dasharray="5,2" d="M807.1067,-693.803C813.2495,-685.1308 820.7469,-674.5463 827.4808,-665.0397"/>
<polygon fill="#000000" stroke="#000000" points="830.4653,-666.8813 833.3895,-656.698 824.7532,-662.8352 830.4653,-666.8813"/>
</g>
<!-- section_5 -->
<g id="node6" class="node">
<title>section_5</title>
<ellipse fill="none" stroke="#000000" cx="1842.5" cy="-639.6007" rx="70.655" ry="18"/>
<text text-anchor="middle" x="1842.5" y="-635.4007" font-family="Helvetica,sans-Serif" font-size="14.00" fill="#000000">section: 12&#45;103</text>
</g>
<!-- section_1&#45;&gt;section_5 -->
<g id="edge5" class="edge">
<title>section_1&#45;&gt;section_5</title>
<path fill="none" stroke="#000000" stroke-dasharray="5,2" d="M853.0907,-707.5754C1030.6182,-695.3789 1562.7135,-658.8227 1764.1033,-644.9868"/>
<polygon fill="#000000" stroke="#000000" points="1764.5679,-648.4632 1774.3044,-644.2859 1764.088,-641.4797 1764.5679,-648.4632"/>
</g>
<!-- leaf_6 -->
<g id="node7" class="node">
<title>leaf_6</title>
<polygon fill="none" stroke="#c0c0c0" points="614.5,-585.6007 528.5,-585.6007 528.5,-549.6007 614.5,-549.6007 614.5,-585.6007"/>
<text text-anchor="middle" x="571.5" y="-564.1008" font-family="Inconsolata" font-size="14.00" fill="#000000">* Grymback</text>
</g>
<!-- header_2&#45;&gt;leaf_6 -->
<g id="edge6" class="edge">
<title>header_2&#45;&gt;leaf_6</title>
<path fill="none" stroke="#000000" stroke-dasharray="5,2" d="M608.3876,-621.803C602.7178,-613.4718 595.8468,-603.3756 589.579,-594.1658"/>
<polygon fill="#000000" stroke="#000000" points="592.3332,-591.9918 583.8134,-585.6939 586.5462,-595.9302 592.3332,-591.9918"/>
</g>
<!-- raw_7 -->
<g id="node8" class="node">
<title>raw_7</title>
<ellipse fill="none" stroke="#000000" cx="659.5" cy="-567.6007" rx="27" ry="18"/>
<text text-anchor="middle" x="659.5" y="-563.4007" font-family="Helvetica,sans-Serif" font-size="14.00" fill="#000000">raw</text>
</g>
<!-- prose_3&#45;&gt;raw_7 -->
<g id="edge7" class="edge">
<title>prose_3&#45;&gt;raw_7</title>
<path fill="none" stroke="#000000" stroke-dasharray="5,2" d="M734.4777,-625.0305C720.4457,-614.2826 701.1828,-599.528 685.6956,-587.6655"/>
<polygon fill="#000000" stroke="#000000" points="687.6043,-584.7187 677.5372,-581.4165 683.3478,-590.2759 687.6043,-584.7187"/>
</g>
<!-- raw_9 -->
<g id="node10" class="node">
<title>raw_9</title>
<ellipse fill="none" stroke="#000000" cx="731.5" cy="-567.6007" rx="27" ry="18"/>
<text text-anchor="middle" x="731.5" y="-563.4007" font-family="Helvetica,sans-Serif" font-size="14.00" fill="#000000">raw</text>
</g>
<!-- prose_4&#45;&gt;raw_9 -->
<g id="edge9" class="edge">
<title>prose_4&#45;&gt;raw_9</title>
<path fill="none" stroke="#000000" stroke-dasharray="5,2" d="M824.0575,-626.0581C805.9355,-614.6127 779.8298,-598.1248 759.9601,-585.5755"/>
<polygon fill="#000000" stroke="#000000" points="761.6445,-582.4998 751.3206,-580.1191 757.9066,-588.4182 761.6445,-582.4998"/>
</g>
<!-- literal_10 -->
<g id="node11" class="node">
<title>literal_10</title>
<ellipse fill="none" stroke="#000000" cx="807.5" cy="-567.6007" rx="31.481" ry="18"/>
<text text-anchor="middle" x="807.5" y="-563.4007" font-family="Helvetica,sans-Serif" font-size="14.00" fill="#000000">literal</text>
</g>
<!-- prose_4&#45;&gt;literal_10 -->
<g id="edge10" class="edge">
<title>prose_4&#45;&gt;literal_10</title>
<path fill="none" stroke="#000000" stroke-dasharray="5,2" d="M836.3013,-622.1716C831.8203,-613.6814 826.3379,-603.2936 821.3634,-593.8682"/>
<polygon fill="#000000" stroke="#000000" points="824.377,-592.0796 816.614,-584.8694 818.1863,-595.347 824.377,-592.0796"/>
</g>
<!-- raw_11 -->
<g id="node12" class="node">
<title>raw_11</title>
<ellipse fill="none" stroke="#000000" cx="883.5" cy="-567.6007" rx="27" ry="18"/>
<text text-anchor="middle" x="883.5" y="-563.4007" font-family="Helvetica,sans-Serif" font-size="14.00" fill="#000000">raw</text>
</g>
<!-- prose_4&#45;&gt;raw_11 -->
<g id="edge11" class="edge">
<title>prose_4&#45;&gt;raw_11</title>
<path fill="none" stroke="#000000" stroke-dasharray="5,2" d="M854.6987,-622.1716C859.1797,-613.6814 864.6621,-603.2936 869.6366,-593.8682"/>
<polygon fill="#000000" stroke="#000000" points="872.8137,-595.347 874.386,-584.8694 866.623,-592.0796 872.8137,-595.347"/>
</g>
<!-- literal_12 -->
<g id="node13" class="node">
<title>literal_12</title>
<ellipse fill="none" stroke="#000000" cx="1025.5" cy="-567.6007" rx="31.481" ry="18"/>
<text text-anchor="middle" x="1025.5" y="-563.4007" font-family="Helvetica,sans-Serif" font-size="14.00" fill="#000000">literal</text>
</g>
<!-- prose_4&#45;&gt;literal_12 -->
<g id="edge12" class="edge">
<title>prose_4&#45;&gt;literal_12</title>
<path fill="none" stroke="#000000" stroke-dasharray="5,2" d="M872.0596,-628.9769C903.301,-616.4803 955.2933,-595.6834 989.9784,-581.8094"/>
<polygon fill="#000000" stroke="#000000" points="991.7225,-584.8814 999.7074,-577.9178 989.1227,-578.3821 991.7225,-584.8814"/>
</g>
<!-- raw_13 -->
<g id="node14" class="node">
<title>raw_13</title>
<ellipse fill="none" stroke="#000000" cx="1252.5" cy="-567.6007" rx="27" ry="18"/>
<text text-anchor="middle" x="1252.5" y="-563.4007" font-family="Helvetica,sans-Serif" font-size="14.00" fill="#000000">raw</text>
</g>
<!-- prose_4&#45;&gt;raw_13 -->
<g id="edge13" class="edge">
<title>prose_4&#45;&gt;raw_13</title>
<path fill="none" stroke="#000000" stroke-dasharray="5,2" d="M876.4252,-634.13C950.3689,-621.049 1137.1168,-588.0125 1216.2107,-574.0205"/>
<polygon fill="#000000" stroke="#000000" points="1216.9558,-577.4431 1226.1931,-572.2545 1215.7363,-570.5501 1216.9558,-577.4431"/>
</g>
<!-- header_19 -->
<g id="node20" class="node">
<title>header_19</title>
<ellipse fill="none" stroke="#000000" cx="1737.5" cy="-567.6007" rx="54.6851" ry="18"/>
<text text-anchor="middle" x="1737.5" y="-563.4007" font-family="Helvetica,sans-Serif" font-size="14.00" fill="#000000">3 : includes</text>
</g>
<!-- section_5&#45;&gt;header_19 -->
<g id="edge19" class="edge">
<title>section_5&#45;&gt;header_19</title>
<path fill="none" stroke="#000000" stroke-dasharray="5,2" d="M1817.8822,-622.7199C1803.4596,-612.8302 1785.0822,-600.2285 1769.5405,-589.5714"/>
<polygon fill="#000000" stroke="#000000" points="1771.4677,-586.6491 1761.2411,-583.8803 1767.509,-592.4222 1771.4677,-586.6491"/>
</g>
<!-- prose_20 -->
<g id="node21" class="node">
<title>prose_20</title>
<ellipse fill="none" stroke="#000000" cx="1842.5" cy="-567.6007" rx="32.4585" ry="18"/>
<text text-anchor="middle" x="1842.5" y="-563.4007" font-family="Helvetica,sans-Serif" font-size="14.00" fill="#000000">prose</text>
</g>
<!-- section_5&#45;&gt;prose_20 -->
<g id="edge20" class="edge">
<title>section_5&#45;&gt;prose_20</title>
<path fill="none" stroke="#000000" stroke-dasharray="5,2" d="M1842.5,-621.4321C1842.5,-613.7317 1842.5,-604.5751 1842.5,-596.0174"/>
<polygon fill="#000000" stroke="#000000" points="1846.0001,-596.014 1842.5,-586.014 1839.0001,-596.0141 1846.0001,-596.014"/>
</g>
<!-- codeblock_21 -->
<g id="node22" class="node">
<title>codeblock_21</title>
<ellipse fill="none" stroke="#000000" cx="2004.5" cy="-567.6007" rx="77.4211" ry="18"/>
<text text-anchor="middle" x="2004.5" y="-563.4007" font-family="Helvetica,sans-Serif" font-size="14.00" fill="#000000">code block 14&#45;39</text>
</g>
<!-- section_5&#45;&gt;codeblock_21 -->
<g id="edge21" class="edge">
<title>section_5&#45;&gt;codeblock_21</title>
<path fill="none" stroke="#000000" stroke-dasharray="5,2" d="M1877.6516,-623.9778C1901.6037,-613.3324 1933.5312,-599.1424 1959.3621,-587.6621"/>
<polygon fill="#000000" stroke="#000000" points="1960.8602,-590.8264 1968.5768,-583.5666 1958.0172,-584.4297 1960.8602,-590.8264"/>
</g>
<!-- codeblock_22 -->
<g id="node23" class="node">
<title>codeblock_22</title>
<ellipse fill="none" stroke="#000000" cx="2303.5" cy="-567.6007" rx="77.4211" ry="18"/>
<text text-anchor="middle" x="2303.5" y="-563.4007" font-family="Helvetica,sans-Serif" font-size="14.00" fill="#000000">code block 43&#45;72</text>
</g>
<!-- section_5&#45;&gt;codeblock_22 -->
<g id="edge22" class="edge">
<title>section_5&#45;&gt;codeblock_22</title>
<path fill="none" stroke="#000000" stroke-dasharray="5,2" d="M1902.7677,-630.188C1986.6318,-617.0899 2138.4246,-593.3826 2229.1943,-579.206"/>
<polygon fill="#000000" stroke="#000000" points="2229.7983,-582.6542 2239.1384,-577.6529 2228.7181,-575.738 2229.7983,-582.6542"/>
</g>
<!-- leaf_8 -->
<g id="node9" class="node">
<title>leaf_8</title>
<polygon fill="none" stroke="#c0c0c0" points="513,-336.1007 0,-336.1007 0,-249.5001 513,-249.5001 513,-336.1007"/>
<text text-anchor="middle" x="256.5" y="-273.0004" font-family="Inconsolata" font-size="14.00" fill="#000000"> &#160;This is a standalone program to restore grym in the event that a knit</text>
<text text-anchor="middle" x="256.5" y="-257.6004" font-family="Inconsolata" font-size="14.00" fill="#000000">results in an unusable grym module.</text>
</g>
<!-- raw_7&#45;&gt;leaf_8 -->
<g id="edge8" class="edge">
<title>raw_7&#45;&gt;leaf_8</title>
<path fill="none" stroke="#000000" stroke-dasharray="5,2" d="M637.9976,-556.3184C633.2714,-553.9884 628.2566,-551.6288 623.5,-549.6007 579.663,-530.9104 563.9126,-537.1805 522.5,-513.6007 439.483,-466.332 356.8667,-392.4838 306.2465,-343.3821"/>
<polygon fill="#000000" stroke="#000000" points="308.6151,-340.8031 299.0139,-336.3233 303.7259,-345.8127 308.6151,-340.8031"/>
</g>
<!-- leaf_14 -->
<g id="node15" class="node">
<title>leaf_14</title>
<polygon fill="none" stroke="#c0c0c0" points="631.5,-312.7025 531.5,-312.7025 531.5,-272.8983 631.5,-272.8983 631.5,-312.7025"/>
<text text-anchor="middle" x="581.5" y="-281.3004" font-family="Inconsolata" font-size="14.00" fill="#000000">The plan: A </text>
</g>
<!-- raw_9&#45;&gt;leaf_14 -->
<g id="edge14" class="edge">
<title>raw_9&#45;&gt;leaf_14</title>
<path fill="none" stroke="#000000" stroke-dasharray="5,2" d="M710.5183,-556.2499C685.1684,-542.3687 645.2969,-519.9347 640.5,-513.6007 596.811,-455.9124 585.4268,-368.3557 582.4923,-322.7672"/>
<polygon fill="#000000" stroke="#000000" points="585.9798,-322.4422 581.9372,-312.649 578.9903,-322.8258 585.9798,-322.4422"/>
</g>
<!-- leaf_15 -->
<g id="node16" class="node">
<title>leaf_15</title>
<polygon fill="none" stroke="#c0c0c0" points="703.5,-310.8004 649.5,-310.8004 649.5,-274.8004 703.5,-274.8004 703.5,-310.8004"/>
<text text-anchor="middle" x="676.5" y="-289.3004" font-family="Inconsolata" font-size="14.00" fill="#000000">.grym</text>
</g>
<!-- literal_10&#45;&gt;leaf_15 -->
<g id="edge15" class="edge">
<title>literal_10&#45;&gt;leaf_15</title>
<path fill="none" stroke="#000000" stroke-dasharray="5,2" d="M782.4925,-556.4243C757.429,-544.7151 721.3292,-526.2936 712.5,-513.6007 671.6235,-454.8368 670.9448,-366.2428 673.7709,-321.228"/>
<polygon fill="#000000" stroke="#000000" points="677.2784,-321.2529 674.5209,-311.0233 670.2972,-320.7398 677.2784,-321.2529"/>
</g>
<!-- leaf_16 -->
<g id="node17" class="node">
<title>leaf_16</title>
<polygon fill="none" stroke="#c0c0c0" points="1045.5,-312.1009 721.5,-312.1009 721.5,-273.4998 1045.5,-273.4998 1045.5,-312.1009"/>
<text text-anchor="middle" x="883.5" y="-297.0004" font-family="Inconsolata" font-size="14.00" fill="#000000"> file in the root directory will contain any</text>
<text text-anchor="middle" x="883.5" y="-281.6004" font-family="Inconsolata" font-size="14.00" fill="#000000">knit&#45;modified files from the last pass. &#160;</text>
</g>
<!-- raw_11&#45;&gt;leaf_16 -->
<g id="edge16" class="edge">
<title>raw_11&#45;&gt;leaf_16</title>
<path fill="none" stroke="#000000" stroke-dasharray="5,2" d="M883.5,-549.5703C883.5,-503.2416 883.5,-379.6755 883.5,-322.5379"/>
<polygon fill="#000000" stroke="#000000" points="887.0001,-322.3567 883.5,-312.3568 880.0001,-322.3568 887.0001,-322.3567"/>
</g>
<!-- leaf_17 -->
<g id="node18" class="node">
<title>leaf_17</title>
<polygon fill="none" stroke="#c0c0c0" points="1117.5,-310.8004 1063.5,-310.8004 1063.5,-274.8004 1117.5,-274.8004 1117.5,-310.8004"/>
<text text-anchor="middle" x="1090.5" y="-289.3004" font-family="Inconsolata" font-size="14.00" fill="#000000">grym</text>
</g>
<!-- literal_12&#45;&gt;leaf_17 -->
<g id="edge17" class="edge">
<title>literal_12&#45;&gt;leaf_17</title>
<path fill="none" stroke="#000000" stroke-dasharray="5,2" d="M1036.7165,-550.2744C1042.8719,-539.9989 1050.1219,-526.4989 1054.5,-513.6007 1077.1237,-446.9489 1085.7572,-364.0131 1088.8706,-321.2501"/>
<polygon fill="#000000" stroke="#000000" points="1092.3788,-321.2472 1089.5637,-311.0332 1085.3948,-320.7733 1092.3788,-321.2472"/>
</g>
<!-- leaf_18 -->
<g id="node19" class="node">
<title>leaf_18</title>
<polygon fill="none" stroke="#c0c0c0" points="1669.5,-320.0008 1135.5,-320.0008 1135.5,-265.5999 1669.5,-265.5999 1669.5,-320.0008"/>
<text text-anchor="middle" x="1402.5" y="-304.7004" font-family="Inconsolata" font-size="14.00" fill="#000000"> itself will read and write</text>
<text text-anchor="middle" x="1402.5" y="-289.3004" font-family="Inconsolata" font-size="14.00" fill="#000000">to the .grym file, maintaining a data structure in the meantime; this will</text>
<text text-anchor="middle" x="1402.5" y="-273.9004" font-family="Inconsolata" font-size="14.00" fill="#000000">be in Lua&#45;native table format, at first, eventually Clu(den).</text>
</g>
<!-- raw_13&#45;&gt;leaf_18 -->
<g id="edge18" class="edge">
<title>raw_13&#45;&gt;leaf_18</title>
<path fill="none" stroke="#000000" stroke-dasharray="5,2" d="M1261.8832,-550.4108C1285.8703,-506.4663 1349.8423,-389.2694 1382.5864,-329.2822"/>
<polygon fill="#000000" stroke="#000000" points="1385.8434,-330.6202 1387.5626,-320.1658 1379.6992,-327.2664 1385.8434,-330.6202"/>
</g>
<!-- leaf_23 -->
<g id="node24" class="node">
<title>leaf_23</title>
<polygon fill="none" stroke="#c0c0c0" points="1787.5,-310.8004 1687.5,-310.8004 1687.5,-274.8004 1787.5,-274.8004 1787.5,-310.8004"/>
<text text-anchor="middle" x="1737.5" y="-289.3004" font-family="Inconsolata" font-size="14.00" fill="#000000">*** includes</text>
</g>
<!-- header_19&#45;&gt;leaf_23 -->
<g id="edge23" class="edge">
<title>header_19&#45;&gt;leaf_23</title>
<path fill="none" stroke="#000000" stroke-dasharray="5,2" d="M1737.5,-549.5703C1737.5,-502.8902 1737.5,-377.7962 1737.5,-321.2491"/>
<polygon fill="#000000" stroke="#000000" points="1741.0001,-320.8972 1737.5,-310.8972 1734.0001,-320.8972 1741.0001,-320.8972"/>
</g>
<!-- raw_24 -->
<g id="node25" class="node">
<title>raw_24</title>
<ellipse fill="none" stroke="#000000" cx="1832.5" cy="-292.8004" rx="27" ry="18"/>
<text text-anchor="middle" x="1832.5" y="-288.6004" font-family="Helvetica,sans-Serif" font-size="14.00" fill="#000000">raw</text>
</g>
<!-- prose_20&#45;&gt;raw_24 -->
<g id="edge24" class="edge">
<title>prose_20&#45;&gt;raw_24</title>
<path fill="none" stroke="#000000" stroke-dasharray="5,2" d="M1841.8439,-549.5703C1840.1416,-502.7929 1835.574,-377.2747 1833.5224,-320.8966"/>
<polygon fill="#000000" stroke="#000000" points="1837.02,-320.7633 1833.1585,-310.8972 1830.0246,-321.0179 1837.02,-320.7633"/>
</g>
<!-- leaf_26 -->
<g id="node27" class="node">
<title>leaf_26</title>
<polygon fill="none" stroke="#c0c0c0" points="2201.5,-482.801 1877.5,-482.801 1877.5,-102.7998 2201.5,-102.7998 2201.5,-482.801"/>
<text text-anchor="middle" x="2039.5" y="-467.6007" font-family="Inconsolata" font-size="14.00" fill="#000000">local L = require &quot;lpeg&quot;</text>
<text text-anchor="middle" x="2039.5" y="-436.2007" font-family="Inconsolata" font-size="14.00" fill="#000000">local s = require &quot;lib/status&quot;</text>
<text text-anchor="middle" x="2039.5" y="-420.8006" font-family="Inconsolata" font-size="14.00" fill="#000000">local u = require &quot;lib/util&quot;</text>
<text text-anchor="middle" x="2039.5" y="-405.4006" font-family="Inconsolata" font-size="14.00" fill="#000000">local a = require &quot;lib/ansi&quot;</text>
<text text-anchor="middle" x="2039.5" y="-390.0006" font-family="Inconsolata" font-size="14.00" fill="#000000">s.chatty = true</text>
<text text-anchor="middle" x="2039.5" y="-358.6005" font-family="Inconsolata" font-size="14.00" fill="#000000">local epeg = require &quot;epeg&quot;</text>
<text text-anchor="middle" x="2039.5" y="-327.2005" font-family="Inconsolata" font-size="14.00" fill="#000000">local pl_file = require &quot;pl.file&quot;</text>
<text text-anchor="middle" x="2039.5" y="-311.8005" font-family="Inconsolata" font-size="14.00" fill="#000000">local pl_dir = require &quot;pl.dir&quot;</text>
<text text-anchor="middle" x="2039.5" y="-296.4004" font-family="Inconsolata" font-size="14.00" fill="#000000">local pl_path = require &quot;pl.path&quot;</text>
<text text-anchor="middle" x="2039.5" y="-281.0004" font-family="Inconsolata" font-size="14.00" fill="#000000">local getfiles = pl_dir.getfiles</text>
<text text-anchor="middle" x="2039.5" y="-265.6004" font-family="Inconsolata" font-size="14.00" fill="#000000">local getdirectories = pl_dir.getdirectories</text>
<text text-anchor="middle" x="2039.5" y="-250.2003" font-family="Inconsolata" font-size="14.00" fill="#000000">local makepath = pl_dir.makepath</text>
<text text-anchor="middle" x="2039.5" y="-234.8003" font-family="Inconsolata" font-size="14.00" fill="#000000">local extension = pl_path.extension</text>
<text text-anchor="middle" x="2039.5" y="-219.4003" font-family="Inconsolata" font-size="14.00" fill="#000000">local dirname = pl_path.dirname</text>
<text text-anchor="middle" x="2039.5" y="-204.0002" font-family="Inconsolata" font-size="14.00" fill="#000000">local basename = pl_path.basename</text>
<text text-anchor="middle" x="2039.5" y="-188.6002" font-family="Inconsolata" font-size="14.00" fill="#000000">local read = pl_file.read</text>
<text text-anchor="middle" x="2039.5" y="-173.2002" font-family="Inconsolata" font-size="14.00" fill="#000000">local write = pl_file.write</text>
<text text-anchor="middle" x="2039.5" y="-157.8002" font-family="Inconsolata" font-size="14.00" fill="#000000">local delete = pl_file.delete</text>
<text text-anchor="middle" x="2039.5" y="-142.4001" font-family="Inconsolata" font-size="14.00" fill="#000000">local isdir = pl_path.isdir</text>
<text text-anchor="middle" x="2039.5" y="-111.0001" font-family="Inconsolata" font-size="14.00" fill="#000000">local walk = &quot;walk&quot;</text>
</g>
<!-- codeblock_21&#45;&gt;leaf_26 -->
<g id="edge26" class="edge">
<title>codeblock_21&#45;&gt;leaf_26</title>
<path fill="none" stroke="#000000" stroke-dasharray="5,2" d="M2006.7964,-549.5703C2008.5131,-536.0924 2011.0623,-516.0776 2013.9935,-493.0631"/>
<polygon fill="#000000" stroke="#000000" points="2017.4802,-493.3886 2015.2718,-483.0264 2010.5363,-492.5041 2017.4802,-493.3886"/>
</g>
<!-- leaf_27 -->
<g id="node28" class="node">
<title>leaf_27</title>
<polygon fill="none" stroke="#c0c0c0" points="2641.5,-513.4013 2219.5,-513.4013 2219.5,-72.1994 2641.5,-72.1994 2641.5,-513.4013"/>
<text text-anchor="middle" x="2430.5" y="-482.4007" font-family="Inconsolata" font-size="14.00" fill="#000000">local pwd = &quot;&quot;</text>
<text text-anchor="middle" x="2430.5" y="-451.0007" font-family="Inconsolata" font-size="14.00" fill="#000000">if (arg) then</text>
<text text-anchor="middle" x="2430.5" y="-435.6007" font-family="Inconsolata" font-size="14.00" fill="#000000"> &#160;pwd = table.remove(arg, 1)</text>
<text text-anchor="middle" x="2430.5" y="-420.2007" font-family="Inconsolata" font-size="14.00" fill="#000000">else</text>
<text text-anchor="middle" x="2430.5" y="-404.8006" font-family="Inconsolata" font-size="14.00" fill="#000000"> &#160;os.exit(&quot;Must be called with a root codex directory&quot;, 1)</text>
<text text-anchor="middle" x="2430.5" y="-389.4006" font-family="Inconsolata" font-size="14.00" fill="#000000">end</text>
<text text-anchor="middle" x="2430.5" y="-358.0006" font-family="Inconsolata" font-size="14.00" fill="#000000">io.write(&quot;pwd: &quot; .. pwd .. &quot;\n&quot;)</text>
<text text-anchor="middle" x="2430.5" y="-326.6005" font-family="Inconsolata" font-size="14.00" fill="#000000">local grymback_rc = read(pwd .. &quot;/.grymback&quot;)</text>
<text text-anchor="middle" x="2430.5" y="-311.2005" font-family="Inconsolata" font-size="14.00" fill="#000000">if not grymback_rc then</text>
<text text-anchor="middle" x="2430.5" y="-295.8005" font-family="Inconsolata" font-size="14.00" fill="#000000"> &#160;s:chat(&quot;No contents in grymback. &#160;No action taken.&quot;)</text>
<text text-anchor="middle" x="2430.5" y="-280.4004" font-family="Inconsolata" font-size="14.00" fill="#000000"> &#160;os.exit()</text>
<text text-anchor="middle" x="2430.5" y="-265.0004" font-family="Inconsolata" font-size="14.00" fill="#000000">else</text>
<text text-anchor="middle" x="2430.5" y="-249.6004" font-family="Inconsolata" font-size="14.00" fill="#000000"> &#160;for _,v in ipairs(epeg.split(grymback_rc, &quot;\n&quot;)) do</text>
<text text-anchor="middle" x="2430.5" y="-234.2003" font-family="Inconsolata" font-size="14.00" fill="#000000"> &#160;&#160;&#160;if v ~= &quot;&quot; then</text>
<text text-anchor="middle" x="2430.5" y="-218.8003" font-family="Inconsolata" font-size="14.00" fill="#000000"> &#160;&#160;&#160;&#160;&#160;s:chat(&quot;Reverting &quot; .. a.cyan(grymback_rc))</text>
<text text-anchor="middle" x="2430.5" y="-203.4003" font-family="Inconsolata" font-size="14.00" fill="#000000"> &#160;&#160;&#160;&#160;&#160;s:chat(&quot;Reading &quot; .. a.green(pwd .. &quot;/tmp&quot; .. v))</text>
<text text-anchor="middle" x="2430.5" y="-188.0002" font-family="Inconsolata" font-size="14.00" fill="#000000"> &#160;&#160;&#160;&#160;&#160;local new_tmp = read(pwd .. &quot;/tmp&quot; .. v)</text>
<text text-anchor="middle" x="2430.5" y="-172.6002" font-family="Inconsolata" font-size="14.00" fill="#000000"> &#160;&#160;&#160;&#160;&#160;if new_tmp then</text>
<text text-anchor="middle" x="2430.5" y="-157.2002" font-family="Inconsolata" font-size="14.00" fill="#000000"> &#160;&#160;&#160;&#160;&#160;&#160;&#160;s:chat(&quot; &#160;&#45; writing&quot;)</text>
<text text-anchor="middle" x="2430.5" y="-141.8002" font-family="Inconsolata" font-size="14.00" fill="#000000"> &#160;&#160;&#160;&#160;&#160;&#160;&#160;write(v, read(pwd .. &quot;/tmp&quot; .. v))</text>
<text text-anchor="middle" x="2430.5" y="-126.4001" font-family="Inconsolata" font-size="14.00" fill="#000000"> &#160;&#160;&#160;&#160;&#160;end</text>
<text text-anchor="middle" x="2430.5" y="-111.0001" font-family="Inconsolata" font-size="14.00" fill="#000000"> &#160;&#160;&#160;end</text>
<text text-anchor="middle" x="2430.5" y="-95.6001" font-family="Inconsolata" font-size="14.00" fill="#000000"> &#160;end</text>
<text text-anchor="middle" x="2430.5" y="-80.2" font-family="Inconsolata" font-size="14.00" fill="#000000">end</text>
</g>
<!-- codeblock_22&#45;&gt;leaf_27 -->
<g id="edge27" class="edge">
<title>codeblock_22&#45;&gt;leaf_27</title>
<path fill="none" stroke="#000000" stroke-dasharray="5,2" d="M2311.8328,-549.5703C2315.1956,-542.294 2319.4389,-533.1125 2324.3054,-522.5824"/>
<polygon fill="#000000" stroke="#000000" points="2327.5161,-523.9779 2328.5343,-513.4321 2321.1619,-521.0412 2327.5161,-523.9779"/>
</g>
<!-- leaf_25 -->
<g id="node26" class="node">
<title>leaf_25</title>
<polygon fill="none" stroke="#c0c0c0" points="1859.5,-36 1805.5,-36 1805.5,0 1859.5,0 1859.5,-36"/>
</g>
<!-- raw_24&#45;&gt;leaf_25 -->
<g id="edge25" class="edge">
<title>raw_24&#45;&gt;leaf_25</title>
<path fill="none" stroke="#000000" stroke-dasharray="5,2" d="M1832.5,-274.77C1832.5,-228.0898 1832.5,-102.9959 1832.5,-46.4487"/>
<polygon fill="#000000" stroke="#000000" points="1836.0001,-46.0968 1832.5,-36.0968 1829.0001,-46.0968 1836.0001,-46.0968"/>
</g>
</g>
</svg>