<?xml version="1.0" encoding="UTF-8" standalone="no"?>
<!DOCTYPE svg PUBLIC "-//W3C//DTD SVG 1.1//EN"
 "http://www.w3.org/Graphics/SVG/1.1/DTD/svg11.dtd">
<!-- Generated by graphviz version 2.40.1 (20161225.0304)
 -->
<!-- Title: hierarchy Pages: 1 -->
<svg width="4132pt" height="1624pt"
 viewBox="0.00 0.00 4131.50 1624.40" xmlns="http://www.w3.org/2000/svg" xmlns:xlink="http://www.w3.org/1999/xlink">
<g id="graph0" class="graph" transform="scale(1 1) rotate(0) translate(4 1620.4021)">
<title>hierarchy</title>
<polygon fill="#ffffff" stroke="transparent" points="-4,4 -4,-1620.4021 4127.5,-1620.4021 4127.5,4 -4,4"/>
<!-- doc_0 -->
<g id="node1" class="node">
<title>doc_0</title>
<ellipse fill="none" stroke="#000000" cx="467.5" cy="-1598.4021" rx="46.9581" ry="18"/>
<text text-anchor="middle" x="467.5" y="-1594.2021" font-family="Helvetica,sans-Serif" font-size="14.00" fill="#000000">doc &#45; 159</text>
</g>
<!-- section_1 -->
<g id="node2" class="node">
<title>section_1</title>
<ellipse fill="none" stroke="#000000" cx="467.5" cy="-1526.4021" rx="60.9826" ry="18"/>
<text text-anchor="middle" x="467.5" y="-1522.2021" font-family="Helvetica,sans-Serif" font-size="14.00" fill="#000000">section: 1&#45;60</text>
</g>
<!-- doc_0&#45;&gt;section_1 -->
<g id="edge1" class="edge">
<title>doc_0&#45;&gt;section_1</title>
<path fill="none" stroke="#000000" stroke-dasharray="5,2" d="M467.5,-1580.2334C467.5,-1572.533 467.5,-1563.3764 467.5,-1554.8187"/>
<polygon fill="#000000" stroke="#000000" points="471.0001,-1554.8153 467.5,-1544.8153 464.0001,-1554.8154 471.0001,-1554.8153"/>
</g>
<!-- header_2 -->
<g id="node3" class="node">
<title>header_2</title>
<ellipse fill="none" stroke="#000000" cx="303.5" cy="-1454.4021" rx="58.5101" ry="18"/>
<text text-anchor="middle" x="303.5" y="-1450.2021" font-family="Helvetica,sans-Serif" font-size="14.00" fill="#000000">1 : Grimoire </text>
</g>
<!-- section_1&#45;&gt;header_2 -->
<g id="edge2" class="edge">
<title>section_1&#45;&gt;header_2</title>
<path fill="none" stroke="#000000" stroke-dasharray="5,2" d="M433.1202,-1511.3085C407.9143,-1500.2425 373.5217,-1485.1433 346.4972,-1473.2789"/>
<polygon fill="#000000" stroke="#000000" points="347.8362,-1470.0443 337.2727,-1469.2291 345.0222,-1476.4538 347.8362,-1470.0443"/>
</g>
<!-- prose_3 -->
<g id="node4" class="node">
<title>prose_3</title>
<ellipse fill="none" stroke="#000000" cx="412.5" cy="-1454.4021" rx="32.4585" ry="18"/>
<text text-anchor="middle" x="412.5" y="-1450.2021" font-family="Helvetica,sans-Serif" font-size="14.00" fill="#000000">prose</text>
</g>
<!-- section_1&#45;&gt;prose_3 -->
<g id="edge3" class="edge">
<title>section_1&#45;&gt;prose_3</title>
<path fill="none" stroke="#000000" stroke-dasharray="5,2" d="M453.9045,-1508.6043C447.1139,-1499.7148 438.7883,-1488.8159 431.3881,-1479.1284"/>
<polygon fill="#000000" stroke="#000000" points="434.0368,-1476.83 425.185,-1471.0079 428.4741,-1481.0793 434.0368,-1476.83"/>
</g>
<!-- section_4 -->
<g id="node5" class="node">
<title>section_4</title>
<ellipse fill="none" stroke="#000000" cx="523.5" cy="-1454.4021" rx="60.9826" ry="18"/>
<text text-anchor="middle" x="523.5" y="-1450.2021" font-family="Helvetica,sans-Serif" font-size="14.00" fill="#000000">section: 5&#45;41</text>
</g>
<!-- section_1&#45;&gt;section_4 -->
<g id="edge4" class="edge">
<title>section_1&#45;&gt;section_4</title>
<path fill="none" stroke="#000000" stroke-dasharray="5,2" d="M481.3427,-1508.6043C488.0563,-1499.9725 496.2436,-1489.446 503.6109,-1479.9737"/>
<polygon fill="#000000" stroke="#000000" points="506.4398,-1482.0374 509.8165,-1471.9951 500.9143,-1477.7398 506.4398,-1482.0374"/>
</g>
<!-- section_5 -->
<g id="node6" class="node">
<title>section_5</title>
<ellipse fill="none" stroke="#000000" cx="2085.5" cy="-1454.4021" rx="70.655" ry="18"/>
<text text-anchor="middle" x="2085.5" y="-1450.2021" font-family="Helvetica,sans-Serif" font-size="14.00" fill="#000000">section: 61&#45;137</text>
</g>
<!-- section_1&#45;&gt;section_5 -->
<g id="edge5" class="edge">
<title>section_1&#45;&gt;section_5</title>
<path fill="none" stroke="#000000" stroke-dasharray="5,2" d="M527.9745,-1523.711C777.0366,-1512.6279 1723.5406,-1470.509 2005.669,-1457.9545"/>
<polygon fill="#000000" stroke="#000000" points="2005.9871,-1461.4439 2015.8216,-1457.5027 2005.6758,-1454.4508 2005.9871,-1461.4439"/>
</g>
<!-- leaf_6 -->
<g id="node7" class="node">
<title>leaf_6</title>
<polygon fill="none" stroke="#c0c0c0" points="281.5,-1400.6035 41.5,-1400.6035 41.5,-1344.8006 281.5,-1344.8006 281.5,-1400.6035"/>
<text text-anchor="middle" x="161.5" y="-1353.2021" font-family="Inconsolata" font-size="14.00" fill="#000000">A metalanguage for magic spells.</text>
</g>
<!-- prose_3&#45;&gt;leaf_6 -->
<g id="edge6" class="edge">
<title>prose_3&#45;&gt;leaf_6</title>
<path fill="none" stroke="#000000" stroke-dasharray="5,2" d="M387.5415,-1442.8805C382.2899,-1440.6158 376.7499,-1438.3429 371.5,-1436.4021 339.439,-1424.5497 304.0572,-1413.181 271.6201,-1403.4128"/>
<polygon fill="#000000" stroke="#000000" points="272.2385,-1399.9446 261.6549,-1400.4339 270.2336,-1406.6514 272.2385,-1399.9446"/>
</g>
<!-- header_7 -->
<g id="node8" class="node">
<title>header_7</title>
<ellipse fill="none" stroke="#000000" cx="357.5" cy="-1372.702" rx="57.5753" ry="18"/>
<text text-anchor="middle" x="357.5" y="-1368.502" font-family="Helvetica,sans-Serif" font-size="14.00" fill="#000000">2 : Requires</text>
</g>
<!-- section_4&#45;&gt;header_7 -->
<g id="edge7" class="edge">
<title>section_4&#45;&gt;header_7</title>
<path fill="none" stroke="#000000" stroke-dasharray="5,2" d="M491.8859,-1438.8426C465.063,-1425.6412 426.4359,-1406.6301 397.4716,-1392.3748"/>
<polygon fill="#000000" stroke="#000000" points="398.9522,-1389.2026 388.4344,-1387.927 395.8611,-1395.4832 398.9522,-1389.2026"/>
</g>
<!-- prose_8 -->
<g id="node9" class="node">
<title>prose_8</title>
<ellipse fill="none" stroke="#000000" cx="465.5" cy="-1372.702" rx="32.4585" ry="18"/>
<text text-anchor="middle" x="465.5" y="-1368.502" font-family="Helvetica,sans-Serif" font-size="14.00" fill="#000000">prose</text>
</g>
<!-- section_4&#45;&gt;prose_8 -->
<g id="edge8" class="edge">
<title>section_4&#45;&gt;prose_8</title>
<path fill="none" stroke="#000000" stroke-dasharray="5,2" d="M510.9149,-1436.6744C502.848,-1425.3112 492.2544,-1410.3889 483.328,-1397.8149"/>
<polygon fill="#000000" stroke="#000000" points="486.1087,-1395.6857 477.466,-1389.5576 480.4008,-1399.7378 486.1087,-1395.6857"/>
</g>
<!-- section_9 -->
<g id="node10" class="node">
<title>section_9</title>
<ellipse fill="none" stroke="#000000" cx="581.5" cy="-1372.702" rx="65.8187" ry="18"/>
<text text-anchor="middle" x="581.5" y="-1368.502" font-family="Helvetica,sans-Serif" font-size="14.00" fill="#000000">section: 10&#45;41</text>
</g>
<!-- section_4&#45;&gt;section_9 -->
<g id="edge9" class="edge">
<title>section_4&#45;&gt;section_9</title>
<path fill="none" stroke="#000000" stroke-dasharray="5,2" d="M536.0851,-1436.6744C543.9896,-1425.54 554.32,-1410.9884 563.1309,-1398.5772"/>
<polygon fill="#000000" stroke="#000000" points="566.0046,-1400.5754 568.9394,-1390.3951 560.2967,-1396.5232 566.0046,-1400.5754"/>
</g>
<!-- section_10 -->
<g id="node11" class="node">
<title>section_10</title>
<ellipse fill="none" stroke="#000000" cx="946.5" cy="-1372.702" rx="65.8187" ry="18"/>
<text text-anchor="middle" x="946.5" y="-1368.502" font-family="Helvetica,sans-Serif" font-size="14.00" fill="#000000">section: 42&#45;60</text>
</g>
<!-- section_4&#45;&gt;section_10 -->
<g id="edge10" class="edge">
<title>section_4&#45;&gt;section_10</title>
<path fill="none" stroke="#000000" stroke-dasharray="5,2" d="M574.5237,-1444.5471C651.8057,-1429.6206 798.4351,-1401.2999 882.6733,-1385.0298"/>
<polygon fill="#000000" stroke="#000000" points="883.4734,-1388.44 892.6282,-1383.1071 882.1459,-1381.5671 883.4734,-1388.44"/>
</g>
<!-- header_24 -->
<g id="node25" class="node">
<title>header_24</title>
<ellipse fill="none" stroke="#000000" cx="1861.5" cy="-1372.702" rx="91.9296" ry="18"/>
<text text-anchor="middle" x="1861.5" y="-1368.502" font-family="Helvetica,sans-Serif" font-size="14.00" fill="#000000">2 : Argument parsing</text>
</g>
<!-- section_5&#45;&gt;header_24 -->
<g id="edge24" class="edge">
<title>section_5&#45;&gt;header_24</title>
<path fill="none" stroke="#000000" stroke-dasharray="5,2" d="M2044.9353,-1439.6068C2008.4795,-1426.3102 1954.6936,-1406.6928 1914.7801,-1392.135"/>
<polygon fill="#000000" stroke="#000000" points="1915.8016,-1388.7821 1905.2077,-1388.6436 1913.403,-1395.3584 1915.8016,-1388.7821"/>
</g>
<!-- prose_25 -->
<g id="node26" class="node">
<title>prose_25</title>
<ellipse fill="none" stroke="#000000" cx="2003.5" cy="-1372.702" rx="32.4585" ry="18"/>
<text text-anchor="middle" x="2003.5" y="-1368.502" font-family="Helvetica,sans-Serif" font-size="14.00" fill="#000000">prose</text>
</g>
<!-- section_5&#45;&gt;prose_25 -->
<g id="edge25" class="edge">
<title>section_5&#45;&gt;prose_25</title>
<path fill="none" stroke="#000000" stroke-dasharray="5,2" d="M2067.7072,-1436.6744C2055.6584,-1424.6696 2039.6225,-1408.6924 2026.5908,-1395.7084"/>
<polygon fill="#000000" stroke="#000000" points="2028.8724,-1393.0409 2019.318,-1388.4622 2023.9317,-1397.9997 2028.8724,-1393.0409"/>
</g>
<!-- prose_26 -->
<g id="node27" class="node">
<title>prose_26</title>
<ellipse fill="none" stroke="#000000" cx="2085.5" cy="-1372.702" rx="32.4585" ry="18"/>
<text text-anchor="middle" x="2085.5" y="-1368.502" font-family="Helvetica,sans-Serif" font-size="14.00" fill="#000000">prose</text>
</g>
<!-- section_5&#45;&gt;prose_26 -->
<g id="edge26" class="edge">
<title>section_5&#45;&gt;prose_26</title>
<path fill="none" stroke="#000000" stroke-dasharray="5,2" d="M2085.5,-1436.2702C2085.5,-1425.9043 2085.5,-1412.6768 2085.5,-1400.975"/>
<polygon fill="#000000" stroke="#000000" points="2089.0001,-1400.7832 2085.5,-1390.7832 2082.0001,-1400.7833 2089.0001,-1400.7832"/>
</g>
<!-- codeblock_27 -->
<g id="node28" class="node">
<title>codeblock_27</title>
<ellipse fill="none" stroke="#000000" cx="2311.5" cy="-1372.702" rx="82.2579" ry="18"/>
<text text-anchor="middle" x="2311.5" y="-1368.502" font-family="Helvetica,sans-Serif" font-size="14.00" fill="#000000">code block 69&#45;126</text>
</g>
<!-- section_5&#45;&gt;codeblock_27 -->
<g id="edge27" class="edge">
<title>section_5&#45;&gt;codeblock_27</title>
<path fill="none" stroke="#000000" stroke-dasharray="5,2" d="M2126.4269,-1439.6068C2163.6392,-1426.1544 2218.7486,-1406.2321 2259.1541,-1391.6253"/>
<polygon fill="#000000" stroke="#000000" points="2260.3571,-1394.9122 2268.5716,-1388.2209 2257.9773,-1388.3291 2260.3571,-1394.9122"/>
</g>
<!-- section_28 -->
<g id="node29" class="node">
<title>section_28</title>
<ellipse fill="none" stroke="#000000" cx="2973.5" cy="-1372.702" rx="75.4916" ry="18"/>
<text text-anchor="middle" x="2973.5" y="-1368.502" font-family="Helvetica,sans-Serif" font-size="14.00" fill="#000000">section: 128&#45;137</text>
</g>
<!-- section_5&#45;&gt;section_28 -->
<g id="edge28" class="edge">
<title>section_5&#45;&gt;section_28</title>
<path fill="none" stroke="#000000" stroke-dasharray="5,2" d="M2152.2443,-1448.2613C2312.6078,-1433.5071 2719.1273,-1396.1055 2892.8135,-1380.1256"/>
<polygon fill="#000000" stroke="#000000" points="2893.2749,-1383.598 2902.9122,-1379.1964 2892.6335,-1376.6274 2893.2749,-1383.598"/>
</g>
<!-- section_29 -->
<g id="node30" class="node">
<title>section_29</title>
<ellipse fill="none" stroke="#000000" cx="3568.5" cy="-1372.702" rx="75.4916" ry="18"/>
<text text-anchor="middle" x="3568.5" y="-1368.502" font-family="Helvetica,sans-Serif" font-size="14.00" fill="#000000">section: 138&#45;159</text>
</g>
<!-- section_5&#45;&gt;section_29 -->
<g id="edge29" class="edge">
<title>section_5&#45;&gt;section_29</title>
<path fill="none" stroke="#000000" stroke-dasharray="5,2" d="M2154.5457,-1450.5983C2398.3116,-1437.1689 3218.1936,-1392.0008 3484.3162,-1377.3398"/>
<polygon fill="#000000" stroke="#000000" points="3484.8907,-1380.8136 3494.683,-1376.7687 3484.5056,-1373.8242 3484.8907,-1380.8136"/>
</g>
<!-- leaf_11 -->
<g id="node12" class="node">
<title>leaf_11</title>
<polygon fill="none" stroke="#c0c0c0" points="359,-907.3024 0,-907.3024 0,-835.5001 359,-835.5001 359,-907.3024"/>
<text text-anchor="middle" x="179.5" y="-859.9013" font-family="Inconsolata" font-size="14.00" fill="#000000">Like any main entry =grym.lua= is mostly imports.</text>
</g>
<!-- prose_8&#45;&gt;leaf_11 -->
<g id="edge11" class="edge">
<title>prose_8&#45;&gt;leaf_11</title>
<path fill="none" stroke="#000000" stroke-dasharray="5,2" d="M444.7039,-1358.5179C438.2497,-1354.152 431.0987,-1349.3513 424.5,-1345.002 399.7954,-1328.719 387.6421,-1331.5639 368.5,-1309.002 265.7338,-1187.8764 210.8205,-1002.3741 189.7746,-917.1293"/>
<polygon fill="#000000" stroke="#000000" points="193.1348,-916.1342 187.375,-907.2417 186.3323,-917.7851 193.1348,-916.1342"/>
</g>
<!-- header_12 -->
<g id="node13" class="node">
<title>header_12</title>
<ellipse fill="none" stroke="#000000" cx="422.5" cy="-871.4013" rx="45.0114" ry="18"/>
<text text-anchor="middle" x="422.5" y="-867.2013" font-family="Helvetica,sans-Serif" font-size="14.00" fill="#000000">3 : locals</text>
</g>
<!-- section_9&#45;&gt;header_12 -->
<g id="edge12" class="edge">
<title>section_9&#45;&gt;header_12</title>
<path fill="none" stroke="#000000" stroke-dasharray="5,2" d="M540.9077,-1358.3949C518.189,-1348.2149 491.4959,-1332.1862 476.5,-1309.002 390.7111,-1176.3695 408.1387,-973.2327 418.1252,-899.4289"/>
<polygon fill="#000000" stroke="#000000" points="421.5942,-899.8941 419.5315,-889.502 414.6634,-898.9122 421.5942,-899.8941"/>
</g>
<!-- prose_13 -->
<g id="node14" class="node">
<title>prose_13</title>
<ellipse fill="none" stroke="#000000" cx="517.5" cy="-871.4013" rx="32.4585" ry="18"/>
<text text-anchor="middle" x="517.5" y="-867.2013" font-family="Helvetica,sans-Serif" font-size="14.00" fill="#000000">prose</text>
</g>
<!-- section_9&#45;&gt;prose_13 -->
<g id="edge13" class="edge">
<title>section_9&#45;&gt;prose_13</title>
<path fill="none" stroke="#000000" stroke-dasharray="5,2" d="M573.9732,-1354.6332C569.0557,-1342.0572 562.9307,-1324.7794 559.5,-1309.002 526.4812,-1157.1543 519.417,-970.0359 517.9085,-899.8053"/>
<polygon fill="#000000" stroke="#000000" points="521.4032,-899.4913 517.7109,-889.5606 514.4045,-899.6263 521.4032,-899.4913"/>
</g>
<!-- codeblock_14 -->
<g id="node15" class="node">
<title>codeblock_14</title>
<ellipse fill="none" stroke="#000000" cx="645.5" cy="-871.4013" rx="77.4211" ry="18"/>
<text text-anchor="middle" x="645.5" y="-867.2013" font-family="Helvetica,sans-Serif" font-size="14.00" fill="#000000">code block 12&#45;39</text>
</g>
<!-- section_9&#45;&gt;codeblock_14 -->
<g id="edge14" class="edge">
<title>section_9&#45;&gt;codeblock_14</title>
<path fill="none" stroke="#000000" stroke-dasharray="5,2" d="M583.8156,-1354.5643C593.42,-1279.3347 630.1664,-991.5065 641.8859,-899.7101"/>
<polygon fill="#000000" stroke="#000000" points="645.3928,-899.8774 643.1875,-889.5146 638.4492,-898.9908 645.3928,-899.8774"/>
</g>
<!-- header_17 -->
<g id="node18" class="node">
<title>header_17</title>
<ellipse fill="none" stroke="#000000" cx="845.5" cy="-871.4013" rx="50.3413" ry="18"/>
<text text-anchor="middle" x="845.5" y="-867.2013" font-family="Helvetica,sans-Serif" font-size="14.00" fill="#000000">3 : globals</text>
</g>
<!-- section_10&#45;&gt;header_17 -->
<g id="edge17" class="edge">
<title>section_10&#45;&gt;header_17</title>
<path fill="none" stroke="#000000" stroke-dasharray="5,2" d="M932.0074,-1354.893C922.8853,-1342.7082 911.7017,-1325.7789 905.5,-1309.002 851.2388,-1162.2135 845.3599,-971.359 845.2071,-899.984"/>
<polygon fill="#000000" stroke="#000000" points="848.7077,-899.5858 845.2253,-889.5797 841.7078,-899.5735 848.7077,-899.5858"/>
</g>
<!-- prose_18 -->
<g id="node19" class="node">
<title>prose_18</title>
<ellipse fill="none" stroke="#000000" cx="946.5" cy="-871.4013" rx="32.4585" ry="18"/>
<text text-anchor="middle" x="946.5" y="-867.2013" font-family="Helvetica,sans-Serif" font-size="14.00" fill="#000000">prose</text>
</g>
<!-- section_10&#45;&gt;prose_18 -->
<g id="edge18" class="edge">
<title>section_10&#45;&gt;prose_18</title>
<path fill="none" stroke="#000000" stroke-dasharray="5,2" d="M946.5,-1354.5643C946.5,-1279.3347 946.5,-991.5065 946.5,-899.7101"/>
<polygon fill="#000000" stroke="#000000" points="950.0001,-899.5146 946.5,-889.5146 943.0001,-899.5147 950.0001,-899.5146"/>
</g>
<!-- prose_19 -->
<g id="node20" class="node">
<title>prose_19</title>
<ellipse fill="none" stroke="#000000" cx="1028.5" cy="-871.4013" rx="32.4585" ry="18"/>
<text text-anchor="middle" x="1028.5" y="-867.2013" font-family="Helvetica,sans-Serif" font-size="14.00" fill="#000000">prose</text>
</g>
<!-- section_10&#45;&gt;prose_19 -->
<g id="edge19" class="edge">
<title>section_10&#45;&gt;prose_19</title>
<path fill="none" stroke="#000000" stroke-dasharray="5,2" d="M961.2304,-1354.9781C970.4529,-1342.8291 981.6591,-1325.9079 987.5,-1309.002 1038.3527,-1161.8142 1034.1827,-971.197 1030.3997,-899.9348"/>
<polygon fill="#000000" stroke="#000000" points="1033.8709,-899.3306 1029.8044,-889.5473 1026.8824,-899.7312 1033.8709,-899.3306"/>
</g>
<!-- codeblock_20 -->
<g id="node21" class="node">
<title>codeblock_20</title>
<ellipse fill="none" stroke="#000000" cx="1156.5" cy="-871.4013" rx="77.4211" ry="18"/>
<text text-anchor="middle" x="1156.5" y="-867.2013" font-family="Helvetica,sans-Serif" font-size="14.00" fill="#000000">code block 48&#45;59</text>
</g>
<!-- section_10&#45;&gt;codeblock_20 -->
<g id="edge20" class="edge">
<title>section_10&#45;&gt;codeblock_20</title>
<path fill="none" stroke="#000000" stroke-dasharray="5,2" d="M992.6028,-1359.8713C1019.0484,-1350.1506 1050.643,-1334.0874 1069.5,-1309.002 1165.7649,-1180.9415 1163.2689,-974.168 1158.7585,-899.4595"/>
<polygon fill="#000000" stroke="#000000" points="1162.2468,-899.1656 1158.0899,-889.4203 1155.2622,-899.6308 1162.2468,-899.1656"/>
</g>
<!-- leaf_15 -->
<g id="node16" class="node">
<title>leaf_15</title>
<polygon fill="none" stroke="#c0c0c0" points="410.5,-216.9003 356.5,-216.9003 356.5,-180.9003 410.5,-180.9003 410.5,-216.9003"/>
</g>
<!-- prose_13&#45;&gt;leaf_15 -->
<g id="edge15" class="edge">
<title>prose_13&#45;&gt;leaf_15</title>
<path fill="none" stroke="#000000" stroke-dasharray="5,2" d="M521.0446,-853.4179C532.4898,-790.2282 562.9116,-574.5991 476.5,-433.8005 460.8273,-408.2634 436.2515,-422.6433 419.5,-397.8005 384.2007,-345.451 380.7371,-268.4381 381.796,-227.288"/>
<polygon fill="#000000" stroke="#000000" points="385.2985,-227.2806 382.1687,-217.1586 378.3032,-227.0232 385.2985,-227.2806"/>
</g>
<!-- leaf_16 -->
<g id="node17" class="node">
<title>leaf_16</title>
<polygon fill="none" stroke="#c0c0c0" points="752.5,-397.7008 428.5,-397.7008 428.5,-.0997 752.5,-.0997 752.5,-397.7008"/>
<text text-anchor="middle" x="590.5" y="-382.6005" font-family="Inconsolata" font-size="14.00" fill="#000000">require &quot;pl.strict&quot;</text>
<text text-anchor="middle" x="590.5" y="-351.2005" font-family="Inconsolata" font-size="14.00" fill="#000000">local verbose = false</text>
<text text-anchor="middle" x="590.5" y="-303.8005" font-family="Inconsolata" font-size="14.00" fill="#000000">local pl_file &#160;= require &quot;pl.file&quot;</text>
<text text-anchor="middle" x="590.5" y="-288.4004" font-family="Inconsolata" font-size="14.00" fill="#000000">local pl_dir &#160;&#160;= require &quot;pl.dir&quot;</text>
<text text-anchor="middle" x="590.5" y="-273.0004" font-family="Inconsolata" font-size="14.00" fill="#000000">local pl_path &#160;= require &quot;pl.path&quot;</text>
<text text-anchor="middle" x="590.5" y="-257.6004" font-family="Inconsolata" font-size="14.00" fill="#000000">local getfiles = pl_dir.getfiles</text>
<text text-anchor="middle" x="590.5" y="-242.2003" font-family="Inconsolata" font-size="14.00" fill="#000000">local getdirectories = pl_dir.getdirectories</text>
<text text-anchor="middle" x="590.5" y="-226.8003" font-family="Inconsolata" font-size="14.00" fill="#000000">local read = pl_file.read</text>
<text text-anchor="middle" x="590.5" y="-211.4003" font-family="Inconsolata" font-size="14.00" fill="#000000">local write = pl_file.write</text>
<text text-anchor="middle" x="590.5" y="-196.0002" font-family="Inconsolata" font-size="14.00" fill="#000000">local isdir = pl_path.isdir</text>
<text text-anchor="middle" x="590.5" y="-164.6002" font-family="Inconsolata" font-size="14.00" fill="#000000">local ansi = require &quot;ansi&quot;</text>
<text text-anchor="middle" x="590.5" y="-133.2002" font-family="Inconsolata" font-size="14.00" fill="#000000">local P_grym = require &quot;grym/grymmyr&quot; </text>
<text text-anchor="middle" x="590.5" y="-101.8002" font-family="Inconsolata" font-size="14.00" fill="#000000">local invert = require &quot;invert&quot;</text>
<text text-anchor="middle" x="590.5" y="-86.4001" font-family="Inconsolata" font-size="14.00" fill="#000000">local knit &#160;&#160;= require &quot;knit&quot;</text>
<text text-anchor="middle" x="590.5" y="-71.0001" font-family="Inconsolata" font-size="14.00" fill="#000000">local weave &#160;= require &quot;weave&quot;</text>
<text text-anchor="middle" x="590.5" y="-39.6001" font-family="Inconsolata" font-size="14.00" fill="#000000">local ast &#160;= require &quot;peg/ast&quot;</text>
<text text-anchor="middle" x="590.5" y="-24.2" font-family="Inconsolata" font-size="14.00" fill="#000000">local epeg = require &quot;peg/epeg&quot;</text>
</g>
<!-- codeblock_14&#45;&gt;leaf_16 -->
<g id="edge16" class="edge">
<title>codeblock_14&#45;&gt;leaf_16</title>
<path fill="none" stroke="#000000" stroke-dasharray="5,2" d="M644.0004,-853.0647C638.819,-789.7112 621.2445,-574.8223 607.6361,-408.4288"/>
<polygon fill="#000000" stroke="#000000" points="611.0903,-407.7243 606.7867,-398.0429 604.1136,-408.295 611.0903,-407.7243"/>
</g>
<!-- leaf_21 -->
<g id="node22" class="node">
<title>leaf_21</title>
<polygon fill="none" stroke="#c0c0c0" points="1122.5,-226.8018 770.5,-226.8018 770.5,-170.9988 1122.5,-170.9988 1122.5,-226.8018"/>
<text text-anchor="middle" x="946.5" y="-179.4003" font-family="Inconsolata" font-size="14.00" fill="#000000"> &#160;For interactive and introspective development.</text>
</g>
<!-- prose_18&#45;&gt;leaf_21 -->
<g id="edge21" class="edge">
<title>prose_18&#45;&gt;leaf_21</title>
<path fill="none" stroke="#000000" stroke-dasharray="5,2" d="M946.5,-853.0647C946.5,-762.551 946.5,-362.7222 946.5,-236.9259"/>
<polygon fill="#000000" stroke="#000000" points="950.0001,-236.6394 946.5,-226.6395 943.0001,-236.6395 950.0001,-236.6394"/>
</g>
<!-- leaf_22 -->
<g id="node23" class="node">
<title>leaf_22</title>
<polygon fill="none" stroke="#c0c0c0" points="1422.5,-218.8023 1140.5,-218.8023 1140.5,-178.9982 1422.5,-178.9982 1422.5,-218.8023"/>
<text text-anchor="middle" x="1281.5" y="-187.4003" font-family="Inconsolata" font-size="14.00" fill="#000000">Can&#39;t wait to build a reasonable REPL.</text>
</g>
<!-- prose_19&#45;&gt;leaf_22 -->
<g id="edge22" class="edge">
<title>prose_19&#45;&gt;leaf_22</title>
<path fill="none" stroke="#000000" stroke-dasharray="5,2" d="M1024.8559,-853.3187C1013.0882,-789.7994 981.7981,-573.2097 1070.5,-433.8005 1087.3993,-407.2406 1108.0186,-418.768 1131.5,-397.8005 1189.5351,-345.9787 1240.077,-268.7705 1264.9988,-227.4446"/>
<polygon fill="#000000" stroke="#000000" points="1268.0914,-229.0921 1270.2058,-218.7103 1262.0787,-225.5075 1268.0914,-229.0921"/>
</g>
<!-- leaf_23 -->
<g id="node24" class="node">
<title>leaf_23</title>
<polygon fill="none" stroke="#c0c0c0" points="1652.5,-280.6006 1440.5,-280.6006 1440.5,-117.1999 1652.5,-117.1999 1652.5,-280.6006"/>
<text text-anchor="middle" x="1546.5" y="-265.3004" font-family="Inconsolata" font-size="14.00" fill="#000000">L = require &quot;lpeg&quot;</text>
<text text-anchor="middle" x="1546.5" y="-249.9004" font-family="Inconsolata" font-size="14.00" fill="#000000">u = require &quot;util&quot;</text>
<text text-anchor="middle" x="1546.5" y="-234.5003" font-family="Inconsolata" font-size="14.00" fill="#000000">s = require &quot;status&quot;</text>
<text text-anchor="middle" x="1546.5" y="-219.1003" font-family="Inconsolata" font-size="14.00" fill="#000000">m = require &quot;grym/morphemes&quot;</text>
<text text-anchor="middle" x="1546.5" y="-203.7003" font-family="Inconsolata" font-size="14.00" fill="#000000">Doc = require &quot;grym/doc&quot;</text>
<text text-anchor="middle" x="1546.5" y="-172.3002" font-family="Inconsolata" font-size="14.00" fill="#000000">Link = require &quot;grym/link&quot;</text>
<text text-anchor="middle" x="1546.5" y="-140.9002" font-family="Inconsolata" font-size="14.00" fill="#000000">spec = require &quot;node/spec&quot;</text>
<text text-anchor="middle" x="1546.5" y="-125.5002" font-family="Inconsolata" font-size="14.00" fill="#000000">pnf = require &quot;node/define&quot;</text>
</g>
<!-- codeblock_20&#45;&gt;leaf_23 -->
<g id="edge23" class="edge">
<title>codeblock_20&#45;&gt;leaf_23</title>
<path fill="none" stroke="#000000" stroke-dasharray="5,2" d="M1153.7099,-853.204C1144.6009,-786.4594 1122.8015,-552.803 1242.5,-433.8005 1303.1409,-373.5122 1361.7761,-447.3038 1431.5,-397.8005 1468.6858,-371.399 1495.5947,-328.9062 1513.989,-289.9617"/>
<polygon fill="#000000" stroke="#000000" points="1517.2613,-291.2224 1518.2497,-280.6738 1510.8988,-288.3037 1517.2613,-291.2224"/>
</g>
<!-- leaf_30 -->
<g id="node31" class="node">
<title>leaf_30</title>
<polygon fill="none" stroke="#c0c0c0" points="1743.5,-906.7016 1251.5,-906.7016 1251.5,-836.1009 1743.5,-836.1009 1743.5,-906.7016"/>
<text text-anchor="middle" x="1497.5" y="-859.6013" font-family="Inconsolata" font-size="14.00" fill="#000000">This is done crudely, we can use =pl.lapp= in future to parse within</text>
<text text-anchor="middle" x="1497.5" y="-844.2013" font-family="Inconsolata" font-size="14.00" fill="#000000">commands to each verb.</text>
</g>
<!-- prose_25&#45;&gt;leaf_30 -->
<g id="edge30" class="edge">
<title>prose_25&#45;&gt;leaf_30</title>
<path fill="none" stroke="#000000" stroke-dasharray="5,2" d="M1984.8519,-1357.6581C1978.151,-1352.9348 1970.3118,-1348.14 1962.5,-1345.002 1874.6297,-1309.7043 1830.307,-1362.9759 1752.5,-1309.002 1611.1345,-1210.9383 1536.8991,-1007.1405 1509.7594,-916.5241"/>
<polygon fill="#000000" stroke="#000000" points="1513.0852,-915.4273 1506.9047,-906.8219 1506.3698,-917.4032 1513.0852,-915.4273"/>
</g>
<!-- leaf_31 -->
<g id="node32" class="node">
<title>leaf_31</title>
<polygon fill="none" stroke="#c0c0c0" points="2225.5,-898.7017 1761.5,-898.7017 1761.5,-844.1009 2225.5,-844.1009 2225.5,-898.7017"/>
<text text-anchor="middle" x="1993.5" y="-867.6013" font-family="Inconsolata" font-size="14.00" fill="#000000">Note here that we pass in the pwd from a shell script. This may </text>
<text text-anchor="middle" x="1993.5" y="-852.2013" font-family="Inconsolata" font-size="14.00" fill="#000000">change, now that we&#39;ve added [[sh][../lib/sh.lua]]]]</text>
</g>
<!-- prose_26&#45;&gt;leaf_31 -->
<g id="edge31" class="edge">
<title>prose_26&#45;&gt;leaf_31</title>
<path fill="none" stroke="#000000" stroke-dasharray="5,2" d="M2082.1713,-1354.5643C2068.7926,-1281.665 2018.777,-1009.1337 2000.3621,-908.7925"/>
<polygon fill="#000000" stroke="#000000" points="2003.7765,-908.0068 1998.5288,-898.8029 1996.8915,-909.2704 2003.7765,-908.0068"/>
</g>
<!-- leaf_32 -->
<g id="node33" class="node">
<title>leaf_32</title>
<polygon fill="none" stroke="#c0c0c0" points="2749.5,-1309.1028 2243.5,-1309.1028 2243.5,-433.6998 2749.5,-433.6998 2749.5,-1309.1028"/>
<text text-anchor="middle" x="2496.5" y="-1293.802" font-family="Inconsolata" font-size="14.00" fill="#000000">local pwd, verb = &quot;&quot;, &quot;&quot;</text>
<text text-anchor="middle" x="2496.5" y="-1262.402" font-family="Inconsolata" font-size="14.00" fill="#000000">if (arg) then</text>
<text text-anchor="middle" x="2496.5" y="-1247.002" font-family="Inconsolata" font-size="14.00" fill="#000000"> &#160;&#160;&#160;pwd = table.remove(arg, 1)</text>
<text text-anchor="middle" x="2496.5" y="-1231.6019" font-family="Inconsolata" font-size="14.00" fill="#000000"> &#160;&#160;&#160;verb = table.remove(arg, 1)</text>
<text text-anchor="middle" x="2496.5" y="-1216.2019" font-family="Inconsolata" font-size="14.00" fill="#000000"> &#160;&#160;&#160;for _, v in ipairs(arg) do</text>
<text text-anchor="middle" x="2496.5" y="-1200.8019" font-family="Inconsolata" font-size="14.00" fill="#000000"> &#160;&#160;&#160;&#160;&#160;&#160;&#160;io.write(ansi.yellow(v)..&quot;\n&quot;)</text>
<text text-anchor="middle" x="2496.5" y="-1185.4018" font-family="Inconsolata" font-size="14.00" fill="#000000"> &#160;&#160;&#160;end</text>
<text text-anchor="middle" x="2496.5" y="-1170.0018" font-family="Inconsolata" font-size="14.00" fill="#000000">end</text>
<text text-anchor="middle" x="2496.5" y="-1122.6018" font-family="Inconsolata" font-size="14.00" fill="#000000">local grym = {}</text>
<text text-anchor="middle" x="2496.5" y="-1091.2017" font-family="Inconsolata" font-size="14.00" fill="#000000">grym.invert = invert</text>
<text text-anchor="middle" x="2496.5" y="-1075.8017" font-family="Inconsolata" font-size="14.00" fill="#000000">grym.knit &#160;&#160;= knit</text>
<text text-anchor="middle" x="2496.5" y="-1060.4017" font-family="Inconsolata" font-size="14.00" fill="#000000">grym.weave &#160;= weave</text>
<text text-anchor="middle" x="2496.5" y="-1029.0017" font-family="Inconsolata" font-size="14.00" fill="#000000">samples = getfiles(&quot;samples&quot;)</text>
<text text-anchor="middle" x="2496.5" y="-997.6016" font-family="Inconsolata" font-size="14.00" fill="#000000">local own = require &quot;grym/own&quot;</text>
<text text-anchor="middle" x="2496.5" y="-966.2016" font-family="Inconsolata" font-size="14.00" fill="#000000">if verb == &quot;invert&quot; then</text>
<text text-anchor="middle" x="2496.5" y="-950.8016" font-family="Inconsolata" font-size="14.00" fill="#000000"> &#160;&#160;&#160;&#45;&#45; If we allow inversion in its present no&#45;guards state,</text>
<text text-anchor="middle" x="2496.5" y="-935.4015" font-family="Inconsolata" font-size="14.00" fill="#000000"> &#160;&#160;&#160;&#45;&#45; we will lose all commentary</text>
<text text-anchor="middle" x="2496.5" y="-920.0015" font-family="Inconsolata" font-size="14.00" fill="#000000"> &#160;&#160;&#160;u.freeze(&quot;no&quot;)</text>
<text text-anchor="middle" x="2496.5" y="-904.6015" font-family="Inconsolata" font-size="14.00" fill="#000000"> &#160;&#160;&#160;&#45;&#45;invert:invert_all(pwd)</text>
<text text-anchor="middle" x="2496.5" y="-889.2014" font-family="Inconsolata" font-size="14.00" fill="#000000">elseif verb == &quot;knit&quot; then</text>
<text text-anchor="middle" x="2496.5" y="-873.8014" font-family="Inconsolata" font-size="14.00" fill="#000000"> &#160;&#160;&#160;&#45;&#45; knitter goes here</text>
<text text-anchor="middle" x="2496.5" y="-858.4014" font-family="Inconsolata" font-size="14.00" fill="#000000"> &#160;&#160;&#160;knit:knit_all(pwd)</text>
<text text-anchor="middle" x="2496.5" y="-843.0013" font-family="Inconsolata" font-size="14.00" fill="#000000">elseif verb == &quot;weave&quot; then</text>
<text text-anchor="middle" x="2496.5" y="-827.6013" font-family="Inconsolata" font-size="14.00" fill="#000000"> &#160;&#160;&#160;&#45;&#45; local weaved = weave:weaveMd(Doc(read(&quot;../orb/grym/block.gm&quot;)))</text>
<text text-anchor="middle" x="2496.5" y="-812.2013" font-family="Inconsolata" font-size="14.00" fill="#000000"> &#160;&#160;&#160;&#45;&#45; io.write(weaved)</text>
<text text-anchor="middle" x="2496.5" y="-796.8012" font-family="Inconsolata" font-size="14.00" fill="#000000"> &#160;&#160;&#160;weave:weave_all(pwd) </text>
<text text-anchor="middle" x="2496.5" y="-781.4012" font-family="Inconsolata" font-size="14.00" fill="#000000">elseif verb == &quot;spec&quot; then</text>
<text text-anchor="middle" x="2496.5" y="-766.0012" font-family="Inconsolata" font-size="14.00" fill="#000000"> &#160;&#160;&#160;&#45;&#45; This is just a shim to get us inside whatever</text>
<text text-anchor="middle" x="2496.5" y="-750.6012" font-family="Inconsolata" font-size="14.00" fill="#000000"> &#160;&#160;&#160;&#45;&#45; I&#39;m working on</text>
<text text-anchor="middle" x="2496.5" y="-735.2011" font-family="Inconsolata" font-size="14.00" fill="#000000"> &#160;&#160;&#160;local abstr = &quot;ab&quot;</text>
<text text-anchor="middle" x="2496.5" y="-719.8011" font-family="Inconsolata" font-size="14.00" fill="#000000"> &#160;&#160;&#160;local abNode = spec.ab(abstr)</text>
<text text-anchor="middle" x="2496.5" y="-704.4011" font-family="Inconsolata" font-size="14.00" fill="#000000"> &#160;&#160;&#160;assert(abNode.isNode)</text>
<text text-anchor="middle" x="2496.5" y="-689.001" font-family="Inconsolata" font-size="14.00" fill="#000000"> &#160;&#160;&#160;io.write(tostring(abNode))</text>
<text text-anchor="middle" x="2496.5" y="-673.601" font-family="Inconsolata" font-size="14.00" fill="#000000"> &#160;&#160;&#160;io.write(tostring(abNode:dot()))</text>
<text text-anchor="middle" x="2496.5" y="-658.201" font-family="Inconsolata" font-size="14.00" fill="#000000"> &#160;&#160;&#160;io.write(&quot;nodewalker:\n&quot;)</text>
<text text-anchor="middle" x="2496.5" y="-642.8009" font-family="Inconsolata" font-size="14.00" fill="#000000"> &#160;&#160;&#160;for node in abNode:walkDeep() do</text>
<text text-anchor="middle" x="2496.5" y="-627.4009" font-family="Inconsolata" font-size="14.00" fill="#000000"> &#160;&#160;&#160;&#160;&#160;&#160;&#160;io.write(node.id .. &quot; &#45;&#45; &quot;)</text>
<text text-anchor="middle" x="2496.5" y="-612.0009" font-family="Inconsolata" font-size="14.00" fill="#000000"> &#160;&#160;&#160;end</text>
<text text-anchor="middle" x="2496.5" y="-596.6008" font-family="Inconsolata" font-size="14.00" fill="#000000"> &#160;&#160;&#160;io.write(&quot;\n&quot;)</text>
<text text-anchor="middle" x="2496.5" y="-581.2008" font-family="Inconsolata" font-size="14.00" fill="#000000"> &#160;&#160;&#160;for node in abNode:walkBroad() do</text>
<text text-anchor="middle" x="2496.5" y="-565.8008" font-family="Inconsolata" font-size="14.00" fill="#000000"> &#160;&#160;&#160;&#160;&#160;&#160;&#160;io.write(node.id .. &quot; ~~ &quot;)</text>
<text text-anchor="middle" x="2496.5" y="-550.4007" font-family="Inconsolata" font-size="14.00" fill="#000000"> &#160;&#160;&#160;end</text>
<text text-anchor="middle" x="2496.5" y="-535.0007" font-family="Inconsolata" font-size="14.00" fill="#000000"> &#160;&#160;&#160;io.write(&quot;\n&quot;)</text>
<text text-anchor="middle" x="2496.5" y="-503.6007" font-family="Inconsolata" font-size="14.00" fill="#000000">elseif not verb then</text>
<text text-anchor="middle" x="2496.5" y="-488.2007" font-family="Inconsolata" font-size="14.00" fill="#000000"> &#160;&#160;&#160;&#45;&#45; do the things</text>
<text text-anchor="middle" x="2496.5" y="-472.8006" font-family="Inconsolata" font-size="14.00" fill="#000000"> &#160;&#160;&#160;weave:weave_all(pwd)</text>
<text text-anchor="middle" x="2496.5" y="-457.4006" font-family="Inconsolata" font-size="14.00" fill="#000000"> &#160;&#160;&#160;knit:knit_all(pwd)</text>
<text text-anchor="middle" x="2496.5" y="-442.0006" font-family="Inconsolata" font-size="14.00" fill="#000000">end</text>
</g>
<!-- codeblock_27&#45;&gt;leaf_32 -->
<g id="edge32" class="edge">
<title>codeblock_27&#45;&gt;leaf_32</title>
<path fill="none" stroke="#000000" stroke-dasharray="5,2" d="M2318.1935,-1354.5643C2321.5147,-1345.5648 2325.9587,-1333.5229 2331.2672,-1319.1381"/>
<polygon fill="#000000" stroke="#000000" points="2334.6988,-1319.9487 2334.8775,-1309.3554 2328.1317,-1317.5251 2334.6988,-1319.9487"/>
</g>
<!-- header_33 -->
<g id="node34" class="node">
<title>header_33</title>
<ellipse fill="none" stroke="#000000" cx="2888.5" cy="-871.4013" rx="120.9043" ry="18"/>
<text text-anchor="middle" x="2888.5" y="-867.2013" font-family="Helvetica,sans-Serif" font-size="14.00" fill="#000000">4 : Sample Doc for REPLing</text>
</g>
<!-- section_28&#45;&gt;header_33 -->
<g id="edge33" class="edge">
<title>section_28&#45;&gt;header_33</title>
<path fill="none" stroke="#000000" stroke-dasharray="5,2" d="M2970.4246,-1354.5643C2957.6558,-1279.2582 2908.7657,-990.9213 2893.2527,-899.4308"/>
<polygon fill="#000000" stroke="#000000" points="2896.6938,-898.7888 2891.5713,-889.5146 2889.7923,-899.959 2896.6938,-898.7888"/>
</g>
<!-- prose_34 -->
<g id="node35" class="node">
<title>prose_34</title>
<ellipse fill="none" stroke="#000000" cx="3059.5" cy="-871.4013" rx="32.4585" ry="18"/>
<text text-anchor="middle" x="3059.5" y="-867.2013" font-family="Helvetica,sans-Serif" font-size="14.00" fill="#000000">prose</text>
</g>
<!-- section_28&#45;&gt;prose_34 -->
<g id="edge34" class="edge">
<title>section_28&#45;&gt;prose_34</title>
<path fill="none" stroke="#000000" stroke-dasharray="5,2" d="M2989.9067,-1354.9525C2999.9922,-1342.9233 3012.1596,-1326.1464 3018.5,-1309.002 3072.6266,-1162.6447 3066.4404,-970.8684 3061.7611,-899.634"/>
<polygon fill="#000000" stroke="#000000" points="3065.2513,-899.3699 3061.0608,-889.639 3058.2684,-899.8592 3065.2513,-899.3699"/>
</g>
<!-- codeblock_35 -->
<g id="node36" class="node">
<title>codeblock_35</title>
<ellipse fill="none" stroke="#000000" cx="3197.5" cy="-871.4013" rx="87.0948" ry="18"/>
<text text-anchor="middle" x="3197.5" y="-867.2013" font-family="Helvetica,sans-Serif" font-size="14.00" fill="#000000">code block 130&#45;136</text>
</g>
<!-- section_28&#45;&gt;codeblock_35 -->
<g id="edge35" class="edge">
<title>section_28&#45;&gt;codeblock_35</title>
<path fill="none" stroke="#000000" stroke-dasharray="5,2" d="M3023.3914,-1359.1862C3050.0842,-1349.4562 3081.3191,-1333.6138 3100.5,-1309.002 3199.4346,-1182.0547 3201.8219,-974.5956 3199.0889,-899.5828"/>
<polygon fill="#000000" stroke="#000000" points="3202.582,-899.3436 3198.6594,-889.5017 3195.5883,-899.6416 3202.582,-899.3436"/>
</g>
<!-- header_38 -->
<g id="node39" class="node">
<title>header_38</title>
<ellipse fill="none" stroke="#000000" cx="3463.5" cy="-871.4013" rx="160.5556" ry="18"/>
<text text-anchor="middle" x="3463.5" y="-867.2013" font-family="Helvetica,sans-Serif" font-size="14.00" fill="#000000">3 : Run the samples and make dotfiles</text>
</g>
<!-- section_29&#45;&gt;header_38 -->
<g id="edge38" class="edge">
<title>section_29&#45;&gt;header_38</title>
<path fill="none" stroke="#000000" stroke-dasharray="5,2" d="M3564.701,-1354.5643C3548.9277,-1279.2582 3488.5341,-990.9213 3469.3709,-899.4308"/>
<polygon fill="#000000" stroke="#000000" points="3472.7697,-898.5847 3467.2939,-889.5146 3465.9184,-900.0198 3472.7697,-898.5847"/>
</g>
<!-- prose_39 -->
<g id="node40" class="node">
<title>prose_39</title>
<ellipse fill="none" stroke="#000000" cx="3674.5" cy="-871.4013" rx="32.4585" ry="18"/>
<text text-anchor="middle" x="3674.5" y="-867.2013" font-family="Helvetica,sans-Serif" font-size="14.00" fill="#000000">prose</text>
</g>
<!-- section_29&#45;&gt;prose_39 -->
<g id="edge39" class="edge">
<title>section_29&#45;&gt;prose_39</title>
<path fill="none" stroke="#000000" stroke-dasharray="5,2" d="M3593.1652,-1355.5981C3607.5312,-1344.1794 3624.5324,-1327.832 3633.5,-1309.002 3700.7508,-1167.7899 3686.5926,-972.1628 3678.2775,-899.7927"/>
<polygon fill="#000000" stroke="#000000" points="3681.7261,-899.1553 3677.0549,-889.6458 3674.7764,-899.9927 3681.7261,-899.1553"/>
</g>
<!-- codeblock_40 -->
<g id="node41" class="node">
<title>codeblock_40</title>
<ellipse fill="none" stroke="#000000" cx="3874.5" cy="-871.4013" rx="87.0948" ry="18"/>
<text text-anchor="middle" x="3874.5" y="-867.2013" font-family="Helvetica,sans-Serif" font-size="14.00" fill="#000000">code block 140&#45;158</text>
</g>
<!-- section_29&#45;&gt;codeblock_40 -->
<g id="edge40" class="edge">
<title>section_29&#45;&gt;codeblock_40</title>
<path fill="none" stroke="#000000" stroke-dasharray="5,2" d="M3623.6979,-1360.2942C3654.3473,-1350.8499 3691.0973,-1334.9249 3715.5,-1309.002 3830.3571,-1186.9899 3863.4596,-975.628 3871.8971,-899.6338"/>
<polygon fill="#000000" stroke="#000000" points="3875.4049,-899.7417 3872.9697,-889.4305 3868.4433,-899.0097 3875.4049,-899.7417"/>
</g>
<!-- leaf_36 -->
<g id="node37" class="node">
<title>leaf_36</title>
<polygon fill="none" stroke="#c0c0c0" points="3028.5,-216.9003 2974.5,-216.9003 2974.5,-180.9003 3028.5,-180.9003 3028.5,-216.9003"/>
</g>
<!-- prose_34&#45;&gt;leaf_36 -->
<g id="edge36" class="edge">
<title>prose_34&#45;&gt;leaf_36</title>
<path fill="none" stroke="#000000" stroke-dasharray="5,2" d="M3057.9486,-853.4135C3049.9899,-761.1327 3013.7375,-340.7918 3003.9444,-227.2431"/>
<polygon fill="#000000" stroke="#000000" points="3007.4026,-226.6059 3003.0562,-216.9437 3000.4285,-227.2075 3007.4026,-226.6059"/>
</g>
<!-- leaf_37 -->
<g id="node38" class="node">
<title>leaf_37</title>
<polygon fill="none" stroke="#c0c0c0" points="3462,-234.2006 3047,-234.2006 3047,-163.5999 3462,-163.5999 3462,-234.2006"/>
<text text-anchor="middle" x="3254.5" y="-219.1003" font-family="Inconsolata" font-size="14.00" fill="#000000">sample_doc = Doc(read(&quot;../orb/grym.orb&quot;)) or &quot;&quot;</text>
<text text-anchor="middle" x="3254.5" y="-187.7003" font-family="Inconsolata" font-size="14.00" fill="#000000">dot_sh = (require &quot;sh&quot;):clear_G().command(&#39;dot&#39;, &#39;&#45;Tsvg&#39;)</text>
</g>
<!-- codeblock_35&#45;&gt;leaf_37 -->
<g id="edge37" class="edge">
<title>codeblock_35&#45;&gt;leaf_37</title>
<path fill="none" stroke="#000000" stroke-dasharray="5,2" d="M3199.0542,-853.0647C3206.5763,-764.3162 3239.3029,-378.1995 3250.6271,-244.5941"/>
<polygon fill="#000000" stroke="#000000" points="3254.1419,-244.5659 3251.4991,-234.306 3247.1669,-243.9747 3254.1419,-244.5659"/>
</g>
<!-- leaf_41 -->
<g id="node42" class="node">
<title>leaf_41</title>
<polygon fill="none" stroke="#c0c0c0" points="3669.5,-216.9003 3615.5,-216.9003 3615.5,-180.9003 3669.5,-180.9003 3669.5,-216.9003"/>
</g>
<!-- prose_39&#45;&gt;leaf_41 -->
<g id="edge41" class="edge">
<title>prose_39&#45;&gt;leaf_41</title>
<path fill="none" stroke="#000000" stroke-dasharray="5,2" d="M3673.6275,-853.0647C3669.2021,-760.0627 3649.2381,-340.5049 3643.8459,-227.1845"/>
<polygon fill="#000000" stroke="#000000" points="3647.3282,-226.7283 3643.3568,-216.906 3640.3361,-227.0611 3647.3282,-226.7283"/>
</g>
<!-- leaf_42 -->
<g id="node43" class="node">
<title>leaf_42</title>
<polygon fill="none" stroke="#c0c0c0" points="4123.5,-333.7009 3687.5,-333.7009 3687.5,-64.0997 4123.5,-64.0997 4123.5,-333.7009"/>
<text text-anchor="middle" x="3905.5" y="-318.6005" font-family="Inconsolata" font-size="14.00" fill="#000000">&#45;&#45;&#45;[[</text>
<text text-anchor="middle" x="3905.5" y="-303.2005" font-family="Inconsolata" font-size="14.00" fill="#000000">for _,v in ipairs(samples) do</text>
<text text-anchor="middle" x="3905.5" y="-287.8005" font-family="Inconsolata" font-size="14.00" fill="#000000"> &#160;&#160;&#160;if v:match(&quot;~&quot;) == nil then</text>
<text text-anchor="middle" x="3905.5" y="-272.4004" font-family="Inconsolata" font-size="14.00" fill="#000000"> &#160;&#160;&#160;&#160;&#160;&#160;&#160;if verbose then io.write(v) end</text>
<text text-anchor="middle" x="3905.5" y="-257.0004" font-family="Inconsolata" font-size="14.00" fill="#000000"> &#160;&#160;&#160;&#160;&#160;&#160;&#160;local sample = read(v)</text>
<text text-anchor="middle" x="3905.5" y="-241.6004" font-family="Inconsolata" font-size="14.00" fill="#000000"> &#160;&#160;&#160;&#160;&#160;&#160;&#160;&#45;&#45;io.write(v..&quot;\n&quot;)</text>
<text text-anchor="middle" x="3905.5" y="-226.2003" font-family="Inconsolata" font-size="14.00" fill="#000000"> &#160;&#160;&#160;&#160;&#160;&#160;&#160;local doc = Doc(sample)</text>
<text text-anchor="middle" x="3905.5" y="-210.8003" font-family="Inconsolata" font-size="14.00" fill="#000000"> &#160;&#160;&#160;&#160;&#160;&#160;&#160;local doc_dot = doc:dot()</text>
<text text-anchor="middle" x="3905.5" y="-195.4003" font-family="Inconsolata" font-size="14.00" fill="#000000"> &#160;&#160;&#160;&#160;&#160;&#160;&#160;local old_dot = read(&quot;../orb/dot/&quot; .. v .. &quot;.dot&quot;)</text>
<text text-anchor="middle" x="3905.5" y="-180.0002" font-family="Inconsolata" font-size="14.00" fill="#000000"> &#160;&#160;&#160;&#160;&#160;&#160;&#160;if old_dot and old_dot ~= doc_dot then</text>
<text text-anchor="middle" x="3905.5" y="-164.6002" font-family="Inconsolata" font-size="14.00" fill="#000000"> &#160;&#160;&#160;&#160;&#160;&#160;&#160;&#160;&#160;&#160;&#160;io.write(&quot; &#160;&#160;&#45;&#45; changed dotfile: &quot; .. v)</text>
<text text-anchor="middle" x="3905.5" y="-149.2002" font-family="Inconsolata" font-size="14.00" fill="#000000"> &#160;&#160;&#160;&#160;&#160;&#160;&#160;&#160;&#160;&#160;&#160;write(&quot;../orb/dot/&quot; .. v .. &quot;&#45;old.dot&quot;, old_dot)</text>
<text text-anchor="middle" x="3905.5" y="-133.8002" font-family="Inconsolata" font-size="14.00" fill="#000000"> &#160;&#160;&#160;&#160;&#160;&#160;&#160;end</text>
<text text-anchor="middle" x="3905.5" y="-118.4001" font-family="Inconsolata" font-size="14.00" fill="#000000"> &#160;&#160;&#160;&#160;&#160;&#160;&#160;write(&quot;../orb/dot/&quot; .. v .. &quot;.dot&quot;, doc:dot())</text>
<text text-anchor="middle" x="3905.5" y="-103.0001" font-family="Inconsolata" font-size="14.00" fill="#000000"> &#160;&#160;&#160;end</text>
<text text-anchor="middle" x="3905.5" y="-87.6001" font-family="Inconsolata" font-size="14.00" fill="#000000">end</text>
<text text-anchor="middle" x="3905.5" y="-72.2" font-family="Inconsolata" font-size="14.00" fill="#000000">&#45;&#45;]]</text>
</g>
<!-- codeblock_40&#45;&gt;leaf_42 -->
<g id="edge42" class="edge">
<title>codeblock_40&#45;&gt;leaf_42</title>
<path fill="none" stroke="#000000" stroke-dasharray="5,2" d="M3875.3453,-853.0647C3878.661,-781.134 3890.9815,-513.8587 3898.811,-344.0096"/>
<polygon fill="#000000" stroke="#000000" points="3902.3091,-344.1282 3899.2734,-333.9776 3895.3165,-343.8058 3902.3091,-344.1282"/>
</g>
</g>
</svg>