<?xml version="1.0" encoding="UTF-8" standalone="no"?>
<!DOCTYPE svg PUBLIC "-//W3C//DTD SVG 1.1//EN"
 "http://www.w3.org/Graphics/SVG/1.1/DTD/svg11.dtd">
<!-- Generated by graphviz version 2.40.1 (20161225.0304)
 -->
<!-- Title: hierarchy Pages: 1 -->
<svg width="1928pt" height="810pt"
 viewBox="0.00 0.00 1927.50 809.60" xmlns="http://www.w3.org/2000/svg" xmlns:xlink="http://www.w3.org/1999/xlink">
<g id="graph0" class="graph" transform="scale(1 1) rotate(0) translate(4 805.6007)">
<title>hierarchy</title>
<polygon fill="#ffffff" stroke="transparent" points="-4,4 -4,-805.6007 1923.5,-805.6007 1923.5,4 -4,4"/>
<!-- doc_0 -->
<g id="node1" class="node">
<title>doc_0</title>
<ellipse fill="none" stroke="#000000" cx="757.5" cy="-783.6007" rx="46.9581" ry="18"/>
<text text-anchor="middle" x="757.5" y="-779.4007" font-family="Helvetica,sans-Serif" font-size="14.00" fill="#000000">doc &#45; 103</text>
</g>
<!-- section_1 -->
<g id="node2" class="node">
<title>section_1</title>
<ellipse fill="none" stroke="#000000" cx="757.5" cy="-711.6007" rx="60.1778" ry="18"/>
<text text-anchor="middle" x="757.5" y="-707.4007" font-family="Helvetica,sans-Serif" font-size="14.00" fill="#000000">section: 1&#45;11</text>
</g>
<!-- doc_0&#45;&gt;section_1 -->
<g id="edge1" class="edge">
<title>doc_0&#45;&gt;section_1</title>
<path fill="none" stroke="#000000" stroke-dasharray="5,2" d="M757.5,-765.4321C757.5,-757.7317 757.5,-748.5751 757.5,-740.0174"/>
<polygon fill="#000000" stroke="#000000" points="761.0001,-740.014 757.5,-730.014 754.0001,-740.0141 761.0001,-740.014"/>
</g>
<!-- header_2 -->
<g id="node3" class="node">
<title>header_2</title>
<ellipse fill="none" stroke="#000000" cx="603.5" cy="-639.6007" rx="62.8772" ry="18"/>
<text text-anchor="middle" x="603.5" y="-635.4007" font-family="Helvetica,sans-Serif" font-size="14.00" fill="#000000">1 : Grymback</text>
</g>
<!-- section_1&#45;&gt;header_2 -->
<g id="edge2" class="edge">
<title>section_1&#45;&gt;header_2</title>
<path fill="none" stroke="#000000" stroke-dasharray="5,2" d="M724.8406,-696.3314C701.7451,-685.5335 670.5762,-670.961 645.6118,-659.2894"/>
<polygon fill="#000000" stroke="#000000" points="646.9187,-656.0368 636.3775,-654.972 643.9539,-662.378 646.9187,-656.0368"/>
</g>
<!-- prose_3 -->
<g id="node4" class="node">
<title>prose_3</title>
<ellipse fill="none" stroke="#000000" cx="716.5" cy="-639.6007" rx="32.4585" ry="18"/>
<text text-anchor="middle" x="716.5" y="-635.4007" font-family="Helvetica,sans-Serif" font-size="14.00" fill="#000000">prose</text>
</g>
<!-- section_1&#45;&gt;prose_3 -->
<g id="edge3" class="edge">
<title>section_1&#45;&gt;prose_3</title>
<path fill="none" stroke="#000000" stroke-dasharray="5,2" d="M747.3652,-693.803C742.5632,-685.3703 736.7315,-675.1293 731.4358,-665.8295"/>
<polygon fill="#000000" stroke="#000000" points="734.3667,-663.9032 726.3768,-656.9453 728.2838,-667.3671 734.3667,-663.9032"/>
</g>
<!-- prose_4 -->
<g id="node5" class="node">
<title>prose_4</title>
<ellipse fill="none" stroke="#000000" cx="798.5" cy="-639.6007" rx="32.4585" ry="18"/>
<text text-anchor="middle" x="798.5" y="-635.4007" font-family="Helvetica,sans-Serif" font-size="14.00" fill="#000000">prose</text>
</g>
<!-- section_1&#45;&gt;prose_4 -->
<g id="edge4" class="edge">
<title>section_1&#45;&gt;prose_4</title>
<path fill="none" stroke="#000000" stroke-dasharray="5,2" d="M767.6348,-693.803C772.4368,-685.3703 778.2685,-675.1293 783.5642,-665.8295"/>
<polygon fill="#000000" stroke="#000000" points="786.7162,-667.3671 788.6232,-656.9453 780.6333,-663.9032 786.7162,-667.3671"/>
</g>
<!-- section_5 -->
<g id="node6" class="node">
<title>section_5</title>
<ellipse fill="none" stroke="#000000" cx="1130.5" cy="-639.6007" rx="70.655" ry="18"/>
<text text-anchor="middle" x="1130.5" y="-635.4007" font-family="Helvetica,sans-Serif" font-size="14.00" fill="#000000">section: 12&#45;103</text>
</g>
<!-- section_1&#45;&gt;section_5 -->
<g id="edge5" class="edge">
<title>section_1&#45;&gt;section_5</title>
<path fill="none" stroke="#000000" stroke-dasharray="5,2" d="M808.1926,-701.8156C874.4919,-689.0179 990.802,-666.5666 1064.0811,-652.4215"/>
<polygon fill="#000000" stroke="#000000" points="1064.9705,-655.8146 1074.1259,-650.4826 1063.6437,-648.9414 1064.9705,-655.8146"/>
</g>
<!-- raw_6 -->
<g id="node7" class="node">
<title>raw_6</title>
<ellipse fill="none" stroke="#000000" cx="486.5" cy="-567.6007" rx="27" ry="18"/>
<text text-anchor="middle" x="486.5" y="-563.4007" font-family="Helvetica,sans-Serif" font-size="14.00" fill="#000000">raw</text>
</g>
<!-- prose_3&#45;&gt;raw_6 -->
<g id="edge6" class="edge">
<title>prose_3&#45;&gt;raw_6</title>
<path fill="none" stroke="#000000" stroke-dasharray="5,2" d="M691.5656,-628.0131C686.3123,-625.7532 680.7655,-623.4989 675.5,-621.6007 622.9737,-602.6652 560.3856,-585.8759 522.0536,-576.2243"/>
<polygon fill="#000000" stroke="#000000" points="522.4636,-572.7194 511.9138,-573.6955 520.7696,-579.5114 522.4636,-572.7194"/>
</g>
<!-- raw_8 -->
<g id="node9" class="node">
<title>raw_8</title>
<ellipse fill="none" stroke="#000000" cx="798.5" cy="-567.6007" rx="27" ry="18"/>
<text text-anchor="middle" x="798.5" y="-563.4007" font-family="Helvetica,sans-Serif" font-size="14.00" fill="#000000">raw</text>
</g>
<!-- prose_4&#45;&gt;raw_8 -->
<g id="edge8" class="edge">
<title>prose_4&#45;&gt;raw_8</title>
<path fill="none" stroke="#000000" stroke-dasharray="5,2" d="M798.5,-621.4321C798.5,-613.7317 798.5,-604.5751 798.5,-596.0174"/>
<polygon fill="#000000" stroke="#000000" points="802.0001,-596.014 798.5,-586.014 795.0001,-596.0141 802.0001,-596.014"/>
</g>
<!-- header_10 -->
<g id="node11" class="node">
<title>header_10</title>
<ellipse fill="none" stroke="#000000" cx="1025.5" cy="-567.6007" rx="54.6851" ry="18"/>
<text text-anchor="middle" x="1025.5" y="-563.4007" font-family="Helvetica,sans-Serif" font-size="14.00" fill="#000000">3 : includes</text>
</g>
<!-- section_5&#45;&gt;header_10 -->
<g id="edge10" class="edge">
<title>section_5&#45;&gt;header_10</title>
<path fill="none" stroke="#000000" stroke-dasharray="5,2" d="M1105.8822,-622.7199C1091.4596,-612.8302 1073.0822,-600.2285 1057.5405,-589.5714"/>
<polygon fill="#000000" stroke="#000000" points="1059.4677,-586.6491 1049.2411,-583.8803 1055.509,-592.4222 1059.4677,-586.6491"/>
</g>
<!-- prose_11 -->
<g id="node12" class="node">
<title>prose_11</title>
<ellipse fill="none" stroke="#000000" cx="1130.5" cy="-567.6007" rx="32.4585" ry="18"/>
<text text-anchor="middle" x="1130.5" y="-563.4007" font-family="Helvetica,sans-Serif" font-size="14.00" fill="#000000">prose</text>
</g>
<!-- section_5&#45;&gt;prose_11 -->
<g id="edge11" class="edge">
<title>section_5&#45;&gt;prose_11</title>
<path fill="none" stroke="#000000" stroke-dasharray="5,2" d="M1130.5,-621.4321C1130.5,-613.7317 1130.5,-604.5751 1130.5,-596.0174"/>
<polygon fill="#000000" stroke="#000000" points="1134.0001,-596.014 1130.5,-586.014 1127.0001,-596.0141 1134.0001,-596.014"/>
</g>
<!-- codeblock_12 -->
<g id="node13" class="node">
<title>codeblock_12</title>
<ellipse fill="none" stroke="#000000" cx="1297.5" cy="-567.6007" rx="77.4211" ry="18"/>
<text text-anchor="middle" x="1297.5" y="-563.4007" font-family="Helvetica,sans-Serif" font-size="14.00" fill="#000000">code block 14&#45;39</text>
</g>
<!-- section_5&#45;&gt;codeblock_12 -->
<g id="edge12" class="edge">
<title>section_5&#45;&gt;codeblock_12</title>
<path fill="none" stroke="#000000" stroke-dasharray="5,2" d="M1166.7365,-623.9778C1191.4279,-613.3324 1224.3408,-599.1424 1250.9689,-587.6621"/>
<polygon fill="#000000" stroke="#000000" points="1252.6709,-590.7398 1260.4681,-583.5666 1249.8994,-584.3118 1252.6709,-590.7398"/>
</g>
<!-- codeblock_13 -->
<g id="node14" class="node">
<title>codeblock_13</title>
<ellipse fill="none" stroke="#000000" cx="1599.5" cy="-567.6007" rx="77.4211" ry="18"/>
<text text-anchor="middle" x="1599.5" y="-563.4007" font-family="Helvetica,sans-Serif" font-size="14.00" fill="#000000">code block 43&#45;72</text>
</g>
<!-- section_5&#45;&gt;codeblock_13 -->
<g id="edge13" class="edge">
<title>section_5&#45;&gt;codeblock_13</title>
<path fill="none" stroke="#000000" stroke-dasharray="5,2" d="M1191.3327,-630.2618C1276.738,-617.1506 1432.0634,-593.3053 1524.5107,-579.113"/>
<polygon fill="#000000" stroke="#000000" points="1525.2823,-582.5356 1534.6354,-577.5586 1524.22,-575.6167 1525.2823,-582.5356"/>
</g>
<!-- leaf_7 -->
<g id="node8" class="node">
<title>leaf_7</title>
<polygon fill="none" stroke="#c0c0c0" points="513,-336.1007 0,-336.1007 0,-249.5001 513,-249.5001 513,-336.1007"/>
<text text-anchor="middle" x="256.5" y="-273.0004" font-family="Inconsolata" font-size="14.00" fill="#000000"> &#160;This is a standalone program to restore grym in the event that a knit</text>
<text text-anchor="middle" x="256.5" y="-257.6004" font-family="Inconsolata" font-size="14.00" fill="#000000">results in an unusable grym module.</text>
</g>
<!-- raw_6&#45;&gt;leaf_7 -->
<g id="edge7" class="edge">
<title>raw_6&#45;&gt;leaf_7</title>
<path fill="none" stroke="#000000" stroke-dasharray="5,2" d="M473.1401,-551.6385C439.949,-511.9824 352.597,-407.6155 299.5014,-344.1778"/>
<polygon fill="#000000" stroke="#000000" points="301.986,-341.6931 292.8837,-336.271 296.618,-346.1859 301.986,-341.6931"/>
</g>
<!-- leaf_9 -->
<g id="node10" class="node">
<title>leaf_9</title>
<polygon fill="none" stroke="#c0c0c0" points="1065.5,-335.4014 531.5,-335.4014 531.5,-250.1993 1065.5,-250.1993 1065.5,-335.4014"/>
<text text-anchor="middle" x="798.5" y="-304.4004" font-family="Inconsolata" font-size="14.00" fill="#000000">The plan: A =.grym= file in the root directory will contain any</text>
<text text-anchor="middle" x="798.5" y="-289.0004" font-family="Inconsolata" font-size="14.00" fill="#000000">knit&#45;modified files from the last pass. &#160;=grym= itself will read and write</text>
<text text-anchor="middle" x="798.5" y="-273.6004" font-family="Inconsolata" font-size="14.00" fill="#000000">to the .grym file, maintaining a data structure in the meantime; this will</text>
<text text-anchor="middle" x="798.5" y="-258.2003" font-family="Inconsolata" font-size="14.00" fill="#000000">be in Lua&#45;native table format, at first, eventually Clu(den).</text>
</g>
<!-- raw_8&#45;&gt;leaf_9 -->
<g id="edge9" class="edge">
<title>raw_8&#45;&gt;leaf_9</title>
<path fill="none" stroke="#000000" stroke-dasharray="5,2" d="M798.5,-549.5703C798.5,-508.7946 798.5,-408.1871 798.5,-345.699"/>
<polygon fill="#000000" stroke="#000000" points="802.0001,-345.6342 798.5,-335.6342 795.0001,-345.6342 802.0001,-345.6342"/>
</g>
<!-- raw_14 -->
<g id="node15" class="node">
<title>raw_14</title>
<ellipse fill="none" stroke="#000000" cx="1110.5" cy="-292.8004" rx="27" ry="18"/>
<text text-anchor="middle" x="1110.5" y="-288.6004" font-family="Helvetica,sans-Serif" font-size="14.00" fill="#000000">raw</text>
</g>
<!-- prose_11&#45;&gt;raw_14 -->
<g id="edge14" class="edge">
<title>prose_11&#45;&gt;raw_14</title>
<path fill="none" stroke="#000000" stroke-dasharray="5,2" d="M1129.1877,-549.5703C1125.7833,-502.7929 1116.648,-377.2747 1112.5448,-320.8966"/>
<polygon fill="#000000" stroke="#000000" points="1116.0338,-320.6167 1111.8171,-310.8972 1109.0523,-321.1249 1116.0338,-320.6167"/>
</g>
<!-- leaf_16 -->
<g id="node17" class="node">
<title>leaf_16</title>
<polygon fill="none" stroke="#c0c0c0" points="1479.5,-482.801 1155.5,-482.801 1155.5,-102.7998 1479.5,-102.7998 1479.5,-482.801"/>
<text text-anchor="middle" x="1317.5" y="-467.6007" font-family="Inconsolata" font-size="14.00" fill="#000000">local L = require &quot;lpeg&quot;</text>
<text text-anchor="middle" x="1317.5" y="-436.2007" font-family="Inconsolata" font-size="14.00" fill="#000000">local s = require &quot;lib/status&quot;</text>
<text text-anchor="middle" x="1317.5" y="-420.8006" font-family="Inconsolata" font-size="14.00" fill="#000000">local u = require &quot;lib/util&quot;</text>
<text text-anchor="middle" x="1317.5" y="-405.4006" font-family="Inconsolata" font-size="14.00" fill="#000000">local a = require &quot;lib/ansi&quot;</text>
<text text-anchor="middle" x="1317.5" y="-390.0006" font-family="Inconsolata" font-size="14.00" fill="#000000">s.chatty = true</text>
<text text-anchor="middle" x="1317.5" y="-358.6005" font-family="Inconsolata" font-size="14.00" fill="#000000">local epeg = require &quot;peg/epeg&quot;</text>
<text text-anchor="middle" x="1317.5" y="-327.2005" font-family="Inconsolata" font-size="14.00" fill="#000000">local pl_file = require &quot;pl.file&quot;</text>
<text text-anchor="middle" x="1317.5" y="-311.8005" font-family="Inconsolata" font-size="14.00" fill="#000000">local pl_dir = require &quot;pl.dir&quot;</text>
<text text-anchor="middle" x="1317.5" y="-296.4004" font-family="Inconsolata" font-size="14.00" fill="#000000">local pl_path = require &quot;pl.path&quot;</text>
<text text-anchor="middle" x="1317.5" y="-281.0004" font-family="Inconsolata" font-size="14.00" fill="#000000">local getfiles = pl_dir.getfiles</text>
<text text-anchor="middle" x="1317.5" y="-265.6004" font-family="Inconsolata" font-size="14.00" fill="#000000">local getdirectories = pl_dir.getdirectories</text>
<text text-anchor="middle" x="1317.5" y="-250.2003" font-family="Inconsolata" font-size="14.00" fill="#000000">local makepath = pl_dir.makepath</text>
<text text-anchor="middle" x="1317.5" y="-234.8003" font-family="Inconsolata" font-size="14.00" fill="#000000">local extension = pl_path.extension</text>
<text text-anchor="middle" x="1317.5" y="-219.4003" font-family="Inconsolata" font-size="14.00" fill="#000000">local dirname = pl_path.dirname</text>
<text text-anchor="middle" x="1317.5" y="-204.0002" font-family="Inconsolata" font-size="14.00" fill="#000000">local basename = pl_path.basename</text>
<text text-anchor="middle" x="1317.5" y="-188.6002" font-family="Inconsolata" font-size="14.00" fill="#000000">local read = pl_file.read</text>
<text text-anchor="middle" x="1317.5" y="-173.2002" font-family="Inconsolata" font-size="14.00" fill="#000000">local write = pl_file.write</text>
<text text-anchor="middle" x="1317.5" y="-157.8002" font-family="Inconsolata" font-size="14.00" fill="#000000">local delete = pl_file.delete</text>
<text text-anchor="middle" x="1317.5" y="-142.4001" font-family="Inconsolata" font-size="14.00" fill="#000000">local isdir = pl_path.isdir</text>
<text text-anchor="middle" x="1317.5" y="-111.0001" font-family="Inconsolata" font-size="14.00" fill="#000000">local walk = &quot;walk&quot;</text>
</g>
<!-- codeblock_12&#45;&gt;leaf_16 -->
<g id="edge16" class="edge">
<title>codeblock_12&#45;&gt;leaf_16</title>
<path fill="none" stroke="#000000" stroke-dasharray="5,2" d="M1298.8123,-549.5703C1299.7932,-536.0924 1301.2499,-516.0776 1302.9249,-493.0631"/>
<polygon fill="#000000" stroke="#000000" points="1306.4201,-493.2542 1303.6553,-483.0264 1299.4386,-492.746 1306.4201,-493.2542"/>
</g>
<!-- leaf_17 -->
<g id="node18" class="node">
<title>leaf_17</title>
<polygon fill="none" stroke="#c0c0c0" points="1919.5,-513.4013 1497.5,-513.4013 1497.5,-72.1994 1919.5,-72.1994 1919.5,-513.4013"/>
<text text-anchor="middle" x="1708.5" y="-482.4007" font-family="Inconsolata" font-size="14.00" fill="#000000">local pwd = &quot;&quot;</text>
<text text-anchor="middle" x="1708.5" y="-451.0007" font-family="Inconsolata" font-size="14.00" fill="#000000">if (arg) then</text>
<text text-anchor="middle" x="1708.5" y="-435.6007" font-family="Inconsolata" font-size="14.00" fill="#000000"> &#160;pwd = table.remove(arg, 1)</text>
<text text-anchor="middle" x="1708.5" y="-420.2007" font-family="Inconsolata" font-size="14.00" fill="#000000">else</text>
<text text-anchor="middle" x="1708.5" y="-404.8006" font-family="Inconsolata" font-size="14.00" fill="#000000"> &#160;os.exit(&quot;Must be called with a root codex directory&quot;, 1)</text>
<text text-anchor="middle" x="1708.5" y="-389.4006" font-family="Inconsolata" font-size="14.00" fill="#000000">end</text>
<text text-anchor="middle" x="1708.5" y="-358.0006" font-family="Inconsolata" font-size="14.00" fill="#000000">io.write(&quot;pwd: &quot; .. pwd .. &quot;\n&quot;)</text>
<text text-anchor="middle" x="1708.5" y="-326.6005" font-family="Inconsolata" font-size="14.00" fill="#000000">local grymback_rc = read(pwd .. &quot;/.grymback&quot;)</text>
<text text-anchor="middle" x="1708.5" y="-311.2005" font-family="Inconsolata" font-size="14.00" fill="#000000">if not grymback_rc then</text>
<text text-anchor="middle" x="1708.5" y="-295.8005" font-family="Inconsolata" font-size="14.00" fill="#000000"> &#160;s:chat(&quot;No contents in grymback. &#160;No action taken.&quot;)</text>
<text text-anchor="middle" x="1708.5" y="-280.4004" font-family="Inconsolata" font-size="14.00" fill="#000000"> &#160;os.exit()</text>
<text text-anchor="middle" x="1708.5" y="-265.0004" font-family="Inconsolata" font-size="14.00" fill="#000000">else</text>
<text text-anchor="middle" x="1708.5" y="-249.6004" font-family="Inconsolata" font-size="14.00" fill="#000000"> &#160;for _,v in ipairs(epeg.split(grymback_rc, &quot;\n&quot;)) do</text>
<text text-anchor="middle" x="1708.5" y="-234.2003" font-family="Inconsolata" font-size="14.00" fill="#000000"> &#160;&#160;&#160;if v ~= &quot;&quot; then</text>
<text text-anchor="middle" x="1708.5" y="-218.8003" font-family="Inconsolata" font-size="14.00" fill="#000000"> &#160;&#160;&#160;&#160;&#160;s:chat(&quot;Reverting &quot; .. a.cyan(grymback_rc))</text>
<text text-anchor="middle" x="1708.5" y="-203.4003" font-family="Inconsolata" font-size="14.00" fill="#000000"> &#160;&#160;&#160;&#160;&#160;s:chat(&quot;Reading &quot; .. a.green(pwd .. &quot;/tmp&quot; .. v))</text>
<text text-anchor="middle" x="1708.5" y="-188.0002" font-family="Inconsolata" font-size="14.00" fill="#000000"> &#160;&#160;&#160;&#160;&#160;local new_tmp = read(pwd .. &quot;/tmp&quot; .. v)</text>
<text text-anchor="middle" x="1708.5" y="-172.6002" font-family="Inconsolata" font-size="14.00" fill="#000000"> &#160;&#160;&#160;&#160;&#160;if new_tmp then</text>
<text text-anchor="middle" x="1708.5" y="-157.2002" font-family="Inconsolata" font-size="14.00" fill="#000000"> &#160;&#160;&#160;&#160;&#160;&#160;&#160;s:chat(&quot; &#160;&#45; writing&quot;)</text>
<text text-anchor="middle" x="1708.5" y="-141.8002" font-family="Inconsolata" font-size="14.00" fill="#000000"> &#160;&#160;&#160;&#160;&#160;&#160;&#160;write(v, read(pwd .. &quot;/tmp&quot; .. v))</text>
<text text-anchor="middle" x="1708.5" y="-126.4001" font-family="Inconsolata" font-size="14.00" fill="#000000"> &#160;&#160;&#160;&#160;&#160;end</text>
<text text-anchor="middle" x="1708.5" y="-111.0001" font-family="Inconsolata" font-size="14.00" fill="#000000"> &#160;&#160;&#160;end</text>
<text text-anchor="middle" x="1708.5" y="-95.6001" font-family="Inconsolata" font-size="14.00" fill="#000000"> &#160;end</text>
<text text-anchor="middle" x="1708.5" y="-80.2" font-family="Inconsolata" font-size="14.00" fill="#000000">end</text>
</g>
<!-- codeblock_13&#45;&gt;leaf_17 -->
<g id="edge17" class="edge">
<title>codeblock_13&#45;&gt;leaf_17</title>
<path fill="none" stroke="#000000" stroke-dasharray="5,2" d="M1606.6518,-549.5703C1609.5091,-542.3668 1613.107,-533.296 1617.2315,-522.8979"/>
<polygon fill="#000000" stroke="#000000" points="1620.5524,-524.018 1620.9861,-513.4321 1614.0456,-521.437 1620.5524,-524.018"/>
</g>
<!-- leaf_15 -->
<g id="node16" class="node">
<title>leaf_15</title>
<polygon fill="none" stroke="#c0c0c0" points="1137.5,-36 1083.5,-36 1083.5,0 1137.5,0 1137.5,-36"/>
</g>
<!-- raw_14&#45;&gt;leaf_15 -->
<g id="edge15" class="edge">
<title>raw_14&#45;&gt;leaf_15</title>
<path fill="none" stroke="#000000" stroke-dasharray="5,2" d="M1110.5,-274.77C1110.5,-228.0898 1110.5,-102.9959 1110.5,-46.4487"/>
<polygon fill="#000000" stroke="#000000" points="1114.0001,-46.0968 1110.5,-36.0968 1107.0001,-46.0968 1114.0001,-46.0968"/>
</g>
</g>
</svg>