<?xml version="1.0" encoding="UTF-8" standalone="no"?>
<!DOCTYPE svg PUBLIC "-//W3C//DTD SVG 1.1//EN"
 "http://www.w3.org/Graphics/SVG/1.1/DTD/svg11.dtd">
<!-- Generated by graphviz version 2.40.1 (20161225.0304)
 -->
<!-- Title: hierarchy Pages: 1 -->
<svg width="4129pt" height="1363pt"
 viewBox="0.00 0.00 4128.50 1362.60" xmlns="http://www.w3.org/2000/svg" xmlns:xlink="http://www.w3.org/1999/xlink">
<g id="graph0" class="graph" transform="scale(1 1) rotate(0) translate(4 1358.6015)">
<title>hierarchy</title>
<polygon fill="#ffffff" stroke="transparent" points="-4,4 -4,-1358.6015 4124.5,-1358.6015 4124.5,4 -4,4"/>
<!-- doc_0 -->
<g id="node1" class="node">
<title>doc_0</title>
<ellipse fill="none" stroke="#000000" cx="467.5" cy="-1336.6015" rx="46.9581" ry="18"/>
<text text-anchor="middle" x="467.5" y="-1332.4015" font-family="Helvetica,sans-Serif" font-size="14.00" fill="#000000">doc &#45; 139</text>
</g>
<!-- section_1 -->
<g id="node2" class="node">
<title>section_1</title>
<ellipse fill="none" stroke="#000000" cx="467.5" cy="-1264.6015" rx="60.9826" ry="18"/>
<text text-anchor="middle" x="467.5" y="-1260.4015" font-family="Helvetica,sans-Serif" font-size="14.00" fill="#000000">section: 1&#45;57</text>
</g>
<!-- doc_0&#45;&gt;section_1 -->
<g id="edge1" class="edge">
<title>doc_0&#45;&gt;section_1</title>
<path fill="none" stroke="#000000" stroke-dasharray="5,2" d="M467.5,-1318.4329C467.5,-1310.7325 467.5,-1301.5759 467.5,-1293.0182"/>
<polygon fill="#000000" stroke="#000000" points="471.0001,-1293.0148 467.5,-1283.0148 464.0001,-1293.0148 471.0001,-1293.0148"/>
</g>
<!-- header_2 -->
<g id="node3" class="node">
<title>header_2</title>
<ellipse fill="none" stroke="#000000" cx="303.5" cy="-1192.6015" rx="58.5101" ry="18"/>
<text text-anchor="middle" x="303.5" y="-1188.4015" font-family="Helvetica,sans-Serif" font-size="14.00" fill="#000000">1 : Grimoire </text>
</g>
<!-- section_1&#45;&gt;header_2 -->
<g id="edge2" class="edge">
<title>section_1&#45;&gt;header_2</title>
<path fill="none" stroke="#000000" stroke-dasharray="5,2" d="M433.1202,-1249.508C407.9143,-1238.442 373.5217,-1223.3428 346.4972,-1211.4784"/>
<polygon fill="#000000" stroke="#000000" points="347.8362,-1208.2438 337.2727,-1207.4286 345.0222,-1214.6533 347.8362,-1208.2438"/>
</g>
<!-- prose_3 -->
<g id="node4" class="node">
<title>prose_3</title>
<ellipse fill="none" stroke="#000000" cx="412.5" cy="-1192.6015" rx="32.4585" ry="18"/>
<text text-anchor="middle" x="412.5" y="-1188.4015" font-family="Helvetica,sans-Serif" font-size="14.00" fill="#000000">prose</text>
</g>
<!-- section_1&#45;&gt;prose_3 -->
<g id="edge3" class="edge">
<title>section_1&#45;&gt;prose_3</title>
<path fill="none" stroke="#000000" stroke-dasharray="5,2" d="M453.9045,-1246.8038C447.1139,-1237.9143 438.7883,-1227.0153 431.3881,-1217.3278"/>
<polygon fill="#000000" stroke="#000000" points="434.0368,-1215.0294 425.185,-1209.2074 428.4741,-1219.2787 434.0368,-1215.0294"/>
</g>
<!-- section_4 -->
<g id="node5" class="node">
<title>section_4</title>
<ellipse fill="none" stroke="#000000" cx="523.5" cy="-1192.6015" rx="60.9826" ry="18"/>
<text text-anchor="middle" x="523.5" y="-1188.4015" font-family="Helvetica,sans-Serif" font-size="14.00" fill="#000000">section: 5&#45;41</text>
</g>
<!-- section_1&#45;&gt;section_4 -->
<g id="edge4" class="edge">
<title>section_1&#45;&gt;section_4</title>
<path fill="none" stroke="#000000" stroke-dasharray="5,2" d="M481.3427,-1246.8038C488.0563,-1238.1719 496.2436,-1227.6455 503.6109,-1218.1732"/>
<polygon fill="#000000" stroke="#000000" points="506.4398,-1220.2369 509.8165,-1210.1946 500.9143,-1215.9393 506.4398,-1220.2369"/>
</g>
<!-- section_5 -->
<g id="node6" class="node">
<title>section_5</title>
<ellipse fill="none" stroke="#000000" cx="2085.5" cy="-1192.6015" rx="69.851" ry="18"/>
<text text-anchor="middle" x="2085.5" y="-1188.4015" font-family="Helvetica,sans-Serif" font-size="14.00" fill="#000000">section: 58&#45;117</text>
</g>
<!-- section_1&#45;&gt;section_5 -->
<g id="edge5" class="edge">
<title>section_1&#45;&gt;section_5</title>
<path fill="none" stroke="#000000" stroke-dasharray="5,2" d="M527.9745,-1261.9105C777.1783,-1250.821 1724.6176,-1208.6606 2006.1498,-1196.1326"/>
<polygon fill="#000000" stroke="#000000" points="2006.4451,-1199.623 2016.2795,-1195.6818 2006.1338,-1192.6299 2006.4451,-1199.623"/>
</g>
<!-- leaf_6 -->
<g id="node7" class="node">
<title>leaf_6</title>
<polygon fill="none" stroke="#c0c0c0" points="281.5,-1138.803 41.5,-1138.803 41.5,-1083 281.5,-1083 281.5,-1138.803"/>
<text text-anchor="middle" x="161.5" y="-1091.4015" font-family="Inconsolata" font-size="14.00" fill="#000000">A metalanguage for magic spells.</text>
</g>
<!-- prose_3&#45;&gt;leaf_6 -->
<g id="edge6" class="edge">
<title>prose_3&#45;&gt;leaf_6</title>
<path fill="none" stroke="#000000" stroke-dasharray="5,2" d="M387.5415,-1181.08C382.2899,-1178.8153 376.7499,-1176.5423 371.5,-1174.6015 339.439,-1162.7491 304.0572,-1151.3805 271.6201,-1141.6122"/>
<polygon fill="#000000" stroke="#000000" points="272.2385,-1138.1441 261.6549,-1138.6333 270.2336,-1144.8508 272.2385,-1138.1441"/>
</g>
<!-- header_7 -->
<g id="node8" class="node">
<title>header_7</title>
<ellipse fill="none" stroke="#000000" cx="357.5" cy="-1110.9015" rx="57.5753" ry="18"/>
<text text-anchor="middle" x="357.5" y="-1106.7015" font-family="Helvetica,sans-Serif" font-size="14.00" fill="#000000">2 : Requires</text>
</g>
<!-- section_4&#45;&gt;header_7 -->
<g id="edge7" class="edge">
<title>section_4&#45;&gt;header_7</title>
<path fill="none" stroke="#000000" stroke-dasharray="5,2" d="M491.8859,-1177.0421C465.063,-1163.8407 426.4359,-1144.8296 397.4716,-1130.5743"/>
<polygon fill="#000000" stroke="#000000" points="398.9522,-1127.4021 388.4344,-1126.1265 395.8611,-1133.6826 398.9522,-1127.4021"/>
</g>
<!-- prose_8 -->
<g id="node9" class="node">
<title>prose_8</title>
<ellipse fill="none" stroke="#000000" cx="465.5" cy="-1110.9015" rx="32.4585" ry="18"/>
<text text-anchor="middle" x="465.5" y="-1106.7015" font-family="Helvetica,sans-Serif" font-size="14.00" fill="#000000">prose</text>
</g>
<!-- section_4&#45;&gt;prose_8 -->
<g id="edge8" class="edge">
<title>section_4&#45;&gt;prose_8</title>
<path fill="none" stroke="#000000" stroke-dasharray="5,2" d="M510.9149,-1174.8738C502.848,-1163.5107 492.2544,-1148.5884 483.328,-1136.0144"/>
<polygon fill="#000000" stroke="#000000" points="486.1087,-1133.8851 477.466,-1127.757 480.4008,-1137.9373 486.1087,-1133.8851"/>
</g>
<!-- section_9 -->
<g id="node10" class="node">
<title>section_9</title>
<ellipse fill="none" stroke="#000000" cx="581.5" cy="-1110.9015" rx="65.8187" ry="18"/>
<text text-anchor="middle" x="581.5" y="-1106.7015" font-family="Helvetica,sans-Serif" font-size="14.00" fill="#000000">section: 10&#45;41</text>
</g>
<!-- section_4&#45;&gt;section_9 -->
<g id="edge9" class="edge">
<title>section_4&#45;&gt;section_9</title>
<path fill="none" stroke="#000000" stroke-dasharray="5,2" d="M536.0851,-1174.8738C543.9896,-1163.7395 554.32,-1149.1878 563.1309,-1136.7767"/>
<polygon fill="#000000" stroke="#000000" points="566.0046,-1138.7749 568.9394,-1128.5946 560.2967,-1134.7227 566.0046,-1138.7749"/>
</g>
<!-- section_10 -->
<g id="node11" class="node">
<title>section_10</title>
<ellipse fill="none" stroke="#000000" cx="946.5" cy="-1110.9015" rx="65.8187" ry="18"/>
<text text-anchor="middle" x="946.5" y="-1106.7015" font-family="Helvetica,sans-Serif" font-size="14.00" fill="#000000">section: 42&#45;57</text>
</g>
<!-- section_4&#45;&gt;section_10 -->
<g id="edge10" class="edge">
<title>section_4&#45;&gt;section_10</title>
<path fill="none" stroke="#000000" stroke-dasharray="5,2" d="M574.5237,-1182.7466C651.8057,-1167.82 798.4351,-1139.4994 882.6733,-1123.2293"/>
<polygon fill="#000000" stroke="#000000" points="883.4734,-1126.6395 892.6282,-1121.3066 882.1459,-1119.7665 883.4734,-1126.6395"/>
</g>
<!-- header_24 -->
<g id="node25" class="node">
<title>header_24</title>
<ellipse fill="none" stroke="#000000" cx="1861.5" cy="-1110.9015" rx="91.9296" ry="18"/>
<text text-anchor="middle" x="1861.5" y="-1106.7015" font-family="Helvetica,sans-Serif" font-size="14.00" fill="#000000">2 : Argument parsing</text>
</g>
<!-- section_5&#45;&gt;header_24 -->
<g id="edge24" class="edge">
<title>section_5&#45;&gt;header_24</title>
<path fill="none" stroke="#000000" stroke-dasharray="5,2" d="M2044.9353,-1177.8063C2008.4795,-1164.5097 1954.6936,-1144.8922 1914.7801,-1130.3345"/>
<polygon fill="#000000" stroke="#000000" points="1915.8016,-1126.9816 1905.2077,-1126.8431 1913.403,-1133.5578 1915.8016,-1126.9816"/>
</g>
<!-- prose_25 -->
<g id="node26" class="node">
<title>prose_25</title>
<ellipse fill="none" stroke="#000000" cx="2003.5" cy="-1110.9015" rx="32.4585" ry="18"/>
<text text-anchor="middle" x="2003.5" y="-1106.7015" font-family="Helvetica,sans-Serif" font-size="14.00" fill="#000000">prose</text>
</g>
<!-- section_5&#45;&gt;prose_25 -->
<g id="edge25" class="edge">
<title>section_5&#45;&gt;prose_25</title>
<path fill="none" stroke="#000000" stroke-dasharray="5,2" d="M2067.7072,-1174.8738C2055.6584,-1162.8691 2039.6225,-1146.8918 2026.5908,-1133.9079"/>
<polygon fill="#000000" stroke="#000000" points="2028.8724,-1131.2404 2019.318,-1126.6617 2023.9317,-1136.1992 2028.8724,-1131.2404"/>
</g>
<!-- prose_26 -->
<g id="node27" class="node">
<title>prose_26</title>
<ellipse fill="none" stroke="#000000" cx="2085.5" cy="-1110.9015" rx="32.4585" ry="18"/>
<text text-anchor="middle" x="2085.5" y="-1106.7015" font-family="Helvetica,sans-Serif" font-size="14.00" fill="#000000">prose</text>
</g>
<!-- section_5&#45;&gt;prose_26 -->
<g id="edge26" class="edge">
<title>section_5&#45;&gt;prose_26</title>
<path fill="none" stroke="#000000" stroke-dasharray="5,2" d="M2085.5,-1174.4696C2085.5,-1164.1038 2085.5,-1150.8763 2085.5,-1139.1745"/>
<polygon fill="#000000" stroke="#000000" points="2089.0001,-1138.9827 2085.5,-1128.9827 2082.0001,-1138.9827 2089.0001,-1138.9827"/>
</g>
<!-- codeblock_27 -->
<g id="node28" class="node">
<title>codeblock_27</title>
<ellipse fill="none" stroke="#000000" cx="2311.5" cy="-1110.9015" rx="82.2579" ry="18"/>
<text text-anchor="middle" x="2311.5" y="-1106.7015" font-family="Helvetica,sans-Serif" font-size="14.00" fill="#000000">code block 66&#45;106</text>
</g>
<!-- section_5&#45;&gt;codeblock_27 -->
<g id="edge27" class="edge">
<title>section_5&#45;&gt;codeblock_27</title>
<path fill="none" stroke="#000000" stroke-dasharray="5,2" d="M2126.1653,-1177.9008C2163.4609,-1164.4183 2218.8925,-1144.3795 2259.4161,-1129.7301"/>
<polygon fill="#000000" stroke="#000000" points="2260.6434,-1133.0082 2268.8578,-1126.3168 2258.2635,-1126.4251 2260.6434,-1133.0082"/>
</g>
<!-- section_28 -->
<g id="node29" class="node">
<title>section_28</title>
<ellipse fill="none" stroke="#000000" cx="2973.5" cy="-1110.9015" rx="74.6878" ry="18"/>
<text text-anchor="middle" x="2973.5" y="-1106.7015" font-family="Helvetica,sans-Serif" font-size="14.00" fill="#000000">section: 108&#45;117</text>
</g>
<!-- section_5&#45;&gt;section_28 -->
<g id="edge28" class="edge">
<title>section_5&#45;&gt;section_28</title>
<path fill="none" stroke="#000000" stroke-dasharray="5,2" d="M2151.5189,-1186.5275C2311.5215,-1171.8065 2719.5946,-1134.262 2893.2802,-1118.2821"/>
<polygon fill="#000000" stroke="#000000" points="2893.7397,-1121.7547 2903.3769,-1117.3532 2893.0983,-1114.7841 2893.7397,-1121.7547"/>
</g>
<!-- section_29 -->
<g id="node30" class="node">
<title>section_29</title>
<ellipse fill="none" stroke="#000000" cx="3565.5" cy="-1110.9015" rx="74.6878" ry="18"/>
<text text-anchor="middle" x="3565.5" y="-1106.7015" font-family="Helvetica,sans-Serif" font-size="14.00" fill="#000000">section: 118&#45;139</text>
</g>
<!-- section_5&#45;&gt;section_29 -->
<g id="edge29" class="edge">
<title>section_5&#45;&gt;section_29</title>
<path fill="none" stroke="#000000" stroke-dasharray="5,2" d="M2153.9152,-1188.8248C2396.6893,-1175.423 3216.4868,-1130.168 3481.8577,-1115.5188"/>
<polygon fill="#000000" stroke="#000000" points="3482.4021,-1118.9942 3492.1939,-1114.9482 3482.0162,-1112.0048 3482.4021,-1118.9942"/>
</g>
<!-- leaf_11 -->
<g id="node12" class="node">
<title>leaf_11</title>
<polygon fill="none" stroke="#c0c0c0" points="359,-776.4022 0,-776.4022 0,-704.5999 359,-704.5999 359,-776.4022"/>
<text text-anchor="middle" x="179.5" y="-729.001" font-family="Inconsolata" font-size="14.00" fill="#000000">Like any main entry =grym.lua= is mostly imports.</text>
</g>
<!-- prose_8&#45;&gt;leaf_11 -->
<g id="edge11" class="edge">
<title>prose_8&#45;&gt;leaf_11</title>
<path fill="none" stroke="#000000" stroke-dasharray="5,2" d="M444.7039,-1096.7174C438.2497,-1092.3515 431.0987,-1087.5508 424.5,-1083.2015 399.7954,-1066.9184 389.2216,-1068.3219 368.5,-1047.2015 290.3809,-967.5787 229.3784,-850.0436 199.5576,-786.0638"/>
<polygon fill="#000000" stroke="#000000" points="202.5804,-784.2608 195.2134,-776.6464 196.224,-787.193 202.5804,-784.2608"/>
</g>
<!-- header_12 -->
<g id="node13" class="node">
<title>header_12</title>
<ellipse fill="none" stroke="#000000" cx="422.5" cy="-740.501" rx="45.0114" ry="18"/>
<text text-anchor="middle" x="422.5" y="-736.301" font-family="Helvetica,sans-Serif" font-size="14.00" fill="#000000">3 : locals</text>
</g>
<!-- section_9&#45;&gt;header_12 -->
<g id="edge12" class="edge">
<title>section_9&#45;&gt;header_12</title>
<path fill="none" stroke="#000000" stroke-dasharray="5,2" d="M541.8634,-1096.543C519.1869,-1086.2724 492.2083,-1070.1679 476.5,-1047.2015 416.7135,-959.7903 416.8034,-826.5881 420.1434,-768.842"/>
<polygon fill="#000000" stroke="#000000" points="423.6498,-768.858 420.8145,-758.6496 416.6649,-768.398 423.6498,-768.858"/>
</g>
<!-- prose_13 -->
<g id="node14" class="node">
<title>prose_13</title>
<ellipse fill="none" stroke="#000000" cx="517.5" cy="-740.501" rx="32.4585" ry="18"/>
<text text-anchor="middle" x="517.5" y="-736.301" font-family="Helvetica,sans-Serif" font-size="14.00" fill="#000000">prose</text>
</g>
<!-- section_9&#45;&gt;prose_13 -->
<g id="edge13" class="edge">
<title>section_9&#45;&gt;prose_13</title>
<path fill="none" stroke="#000000" stroke-dasharray="5,2" d="M574.1759,-1092.7864C569.3489,-1080.1898 563.2488,-1062.9063 559.5,-1047.2015 535.4517,-946.4559 523.8084,-823.5774 519.5218,-768.987"/>
<polygon fill="#000000" stroke="#000000" points="522.9882,-768.4115 518.739,-758.7062 516.0084,-768.9431 522.9882,-768.4115"/>
</g>
<!-- codeblock_14 -->
<g id="node15" class="node">
<title>codeblock_14</title>
<ellipse fill="none" stroke="#000000" cx="645.5" cy="-740.501" rx="77.4211" ry="18"/>
<text text-anchor="middle" x="645.5" y="-736.301" font-family="Helvetica,sans-Serif" font-size="14.00" fill="#000000">code block 12&#45;39</text>
</g>
<!-- section_9&#45;&gt;codeblock_14 -->
<g id="edge14" class="edge">
<title>section_9&#45;&gt;codeblock_14</title>
<path fill="none" stroke="#000000" stroke-dasharray="5,2" d="M584.6302,-1092.7856C594.9662,-1032.9656 628.0607,-841.4309 640.6113,-768.7945"/>
<polygon fill="#000000" stroke="#000000" points="644.122,-769.032 642.3758,-758.5821 637.2242,-767.8401 644.122,-769.032"/>
</g>
<!-- header_17 -->
<g id="node18" class="node">
<title>header_17</title>
<ellipse fill="none" stroke="#000000" cx="845.5" cy="-740.501" rx="50.3413" ry="18"/>
<text text-anchor="middle" x="845.5" y="-736.301" font-family="Helvetica,sans-Serif" font-size="14.00" fill="#000000">3 : globals</text>
</g>
<!-- section_10&#45;&gt;header_17 -->
<g id="edge17" class="edge">
<title>section_10&#45;&gt;header_17</title>
<path fill="none" stroke="#000000" stroke-dasharray="5,2" d="M932.5184,-1093.2408C923.4949,-1080.9849 912.2257,-1063.9171 905.5,-1047.2015 866.2922,-949.7575 852.0716,-824.2978 847.4684,-768.9208"/>
<polygon fill="#000000" stroke="#000000" points="850.9464,-768.5029 846.6714,-758.8089 843.9681,-769.053 850.9464,-768.5029"/>
</g>
<!-- prose_18 -->
<g id="node19" class="node">
<title>prose_18</title>
<ellipse fill="none" stroke="#000000" cx="946.5" cy="-740.501" rx="32.4585" ry="18"/>
<text text-anchor="middle" x="946.5" y="-736.301" font-family="Helvetica,sans-Serif" font-size="14.00" fill="#000000">prose</text>
</g>
<!-- section_10&#45;&gt;prose_18 -->
<g id="edge18" class="edge">
<title>section_10&#45;&gt;prose_18</title>
<path fill="none" stroke="#000000" stroke-dasharray="5,2" d="M946.5,-1092.7856C946.5,-1032.9656 946.5,-841.4309 946.5,-768.7945"/>
<polygon fill="#000000" stroke="#000000" points="950.0001,-768.582 946.5,-758.5821 943.0001,-768.5821 950.0001,-768.582"/>
</g>
<!-- prose_19 -->
<g id="node20" class="node">
<title>prose_19</title>
<ellipse fill="none" stroke="#000000" cx="1028.5" cy="-740.501" rx="32.4585" ry="18"/>
<text text-anchor="middle" x="1028.5" y="-736.301" font-family="Helvetica,sans-Serif" font-size="14.00" fill="#000000">prose</text>
</g>
<!-- section_10&#45;&gt;prose_19 -->
<g id="edge19" class="edge">
<title>section_10&#45;&gt;prose_19</title>
<path fill="none" stroke="#000000" stroke-dasharray="5,2" d="M961.0113,-1093.0994C970.1412,-1080.9174 981.3266,-1063.9888 987.5,-1047.2015 1023.3947,-949.5932 1028.4474,-824.2177 1028.7777,-768.8915"/>
<polygon fill="#000000" stroke="#000000" points="1032.2777,-768.793 1028.7886,-758.7892 1025.2778,-768.7854 1032.2777,-768.793"/>
</g>
<!-- codeblock_20 -->
<g id="node21" class="node">
<title>codeblock_20</title>
<ellipse fill="none" stroke="#000000" cx="1156.5" cy="-740.501" rx="77.4211" ry="18"/>
<text text-anchor="middle" x="1156.5" y="-736.301" font-family="Helvetica,sans-Serif" font-size="14.00" fill="#000000">code block 48&#45;56</text>
</g>
<!-- section_10&#45;&gt;codeblock_20 -->
<g id="edge20" class="edge">
<title>section_10&#45;&gt;codeblock_20</title>
<path fill="none" stroke="#000000" stroke-dasharray="5,2" d="M991.288,-1097.7386C1017.5932,-1087.8355 1049.501,-1071.6975 1069.5,-1047.2015 1138.2265,-963.0211 1152.7078,-827.5524 1155.7249,-768.9883"/>
<polygon fill="#000000" stroke="#000000" points="1159.2363,-768.8012 1156.1768,-758.6577 1152.243,-768.4951 1159.2363,-768.8012"/>
</g>
<!-- leaf_15 -->
<g id="node16" class="node">
<title>leaf_15</title>
<polygon fill="none" stroke="#c0c0c0" points="410.5,-216.9003 356.5,-216.9003 356.5,-180.9003 410.5,-180.9003 410.5,-216.9003"/>
</g>
<!-- prose_13&#45;&gt;leaf_15 -->
<g id="edge15" class="edge">
<title>prose_13&#45;&gt;leaf_15</title>
<path fill="none" stroke="#000000" stroke-dasharray="5,2" d="M520.0337,-722.4807C526.133,-672.2348 536.96,-528.0879 476.5,-433.8005 460.3263,-408.5777 436.2515,-422.6433 419.5,-397.8005 384.2007,-345.451 380.7371,-268.4381 381.796,-227.288"/>
<polygon fill="#000000" stroke="#000000" points="385.2985,-227.2806 382.1687,-217.1586 378.3032,-227.0232 385.2985,-227.2806"/>
</g>
<!-- leaf_16 -->
<g id="node17" class="node">
<title>leaf_16</title>
<polygon fill="none" stroke="#c0c0c0" points="752.5,-397.7008 428.5,-397.7008 428.5,-.0997 752.5,-.0997 752.5,-397.7008"/>
<text text-anchor="middle" x="590.5" y="-382.6005" font-family="Inconsolata" font-size="14.00" fill="#000000">require &quot;pl.strict&quot;</text>
<text text-anchor="middle" x="590.5" y="-351.2005" font-family="Inconsolata" font-size="14.00" fill="#000000">local verbose = false</text>
<text text-anchor="middle" x="590.5" y="-303.8005" font-family="Inconsolata" font-size="14.00" fill="#000000">local pl_file &#160;= require &quot;pl.file&quot;</text>
<text text-anchor="middle" x="590.5" y="-288.4004" font-family="Inconsolata" font-size="14.00" fill="#000000">local pl_dir &#160;&#160;= require &quot;pl.dir&quot;</text>
<text text-anchor="middle" x="590.5" y="-273.0004" font-family="Inconsolata" font-size="14.00" fill="#000000">local pl_path &#160;= require &quot;pl.path&quot;</text>
<text text-anchor="middle" x="590.5" y="-257.6004" font-family="Inconsolata" font-size="14.00" fill="#000000">local getfiles = pl_dir.getfiles</text>
<text text-anchor="middle" x="590.5" y="-242.2003" font-family="Inconsolata" font-size="14.00" fill="#000000">local getdirectories = pl_dir.getdirectories</text>
<text text-anchor="middle" x="590.5" y="-226.8003" font-family="Inconsolata" font-size="14.00" fill="#000000">local read = pl_file.read</text>
<text text-anchor="middle" x="590.5" y="-211.4003" font-family="Inconsolata" font-size="14.00" fill="#000000">local write = pl_file.write</text>
<text text-anchor="middle" x="590.5" y="-196.0002" font-family="Inconsolata" font-size="14.00" fill="#000000">local isdir = pl_path.isdir</text>
<text text-anchor="middle" x="590.5" y="-164.6002" font-family="Inconsolata" font-size="14.00" fill="#000000">local ansi = require &quot;ansi&quot;</text>
<text text-anchor="middle" x="590.5" y="-133.2002" font-family="Inconsolata" font-size="14.00" fill="#000000">local P_grym = require &quot;grym/grymmyr&quot; </text>
<text text-anchor="middle" x="590.5" y="-101.8002" font-family="Inconsolata" font-size="14.00" fill="#000000">local invert = require &quot;invert&quot;</text>
<text text-anchor="middle" x="590.5" y="-86.4001" font-family="Inconsolata" font-size="14.00" fill="#000000">local knit &#160;&#160;= require &quot;knit&quot;</text>
<text text-anchor="middle" x="590.5" y="-71.0001" font-family="Inconsolata" font-size="14.00" fill="#000000">local weave &#160;= require &quot;weave&quot;</text>
<text text-anchor="middle" x="590.5" y="-39.6001" font-family="Inconsolata" font-size="14.00" fill="#000000">local ast &#160;= require &quot;peg/ast&quot;</text>
<text text-anchor="middle" x="590.5" y="-24.2" font-family="Inconsolata" font-size="14.00" fill="#000000">local epeg = require &quot;peg/epeg&quot;</text>
</g>
<!-- codeblock_14&#45;&gt;leaf_16 -->
<g id="edge16" class="edge">
<title>codeblock_14&#45;&gt;leaf_16</title>
<path fill="none" stroke="#000000" stroke-dasharray="5,2" d="M643.6701,-722.481C638.6612,-673.1578 624.2636,-531.3801 611.7123,-407.7842"/>
<polygon fill="#000000" stroke="#000000" points="615.1894,-407.3802 610.6969,-397.785 608.2252,-408.0874 615.1894,-407.3802"/>
</g>
<!-- leaf_21 -->
<g id="node22" class="node">
<title>leaf_21</title>
<polygon fill="none" stroke="#c0c0c0" points="1122.5,-226.8018 770.5,-226.8018 770.5,-170.9988 1122.5,-170.9988 1122.5,-226.8018"/>
<text text-anchor="middle" x="946.5" y="-179.4003" font-family="Inconsolata" font-size="14.00" fill="#000000"> &#160;For interactive and introspective development.</text>
</g>
<!-- prose_18&#45;&gt;leaf_21 -->
<g id="edge21" class="edge">
<title>prose_18&#45;&gt;leaf_21</title>
<path fill="none" stroke="#000000" stroke-dasharray="5,2" d="M946.5,-722.481C946.5,-645.5664 946.5,-343.828 946.5,-236.8014"/>
<polygon fill="#000000" stroke="#000000" points="950.0001,-236.7727 946.5,-226.7727 943.0001,-236.7727 950.0001,-236.7727"/>
</g>
<!-- leaf_22 -->
<g id="node23" class="node">
<title>leaf_22</title>
<polygon fill="none" stroke="#c0c0c0" points="1422.5,-218.8023 1140.5,-218.8023 1140.5,-178.9982 1422.5,-178.9982 1422.5,-218.8023"/>
<text text-anchor="middle" x="1281.5" y="-187.4003" font-family="Inconsolata" font-size="14.00" fill="#000000">Can&#39;t wait to build a reasonable REPL.</text>
</g>
<!-- prose_19&#45;&gt;leaf_22 -->
<g id="edge22" class="edge">
<title>prose_19&#45;&gt;leaf_22</title>
<path fill="none" stroke="#000000" stroke-dasharray="5,2" d="M1025.8925,-722.3794C1019.6131,-671.8707 1008.4487,-527.1067 1070.5,-433.8005 1087.9324,-407.5875 1108.0186,-418.768 1131.5,-397.8005 1189.5351,-345.9787 1240.077,-268.7705 1264.9988,-227.4446"/>
<polygon fill="#000000" stroke="#000000" points="1268.0914,-229.0921 1270.2058,-218.7103 1262.0787,-225.5075 1268.0914,-229.0921"/>
</g>
<!-- leaf_23 -->
<g id="node24" class="node">
<title>leaf_23</title>
<polygon fill="none" stroke="#c0c0c0" points="1652.5,-257.3011 1440.5,-257.3011 1440.5,-140.4994 1652.5,-140.4994 1652.5,-257.3011"/>
<text text-anchor="middle" x="1546.5" y="-241.9004" font-family="Inconsolata" font-size="14.00" fill="#000000">L = require &quot;lpeg&quot;</text>
<text text-anchor="middle" x="1546.5" y="-226.5003" font-family="Inconsolata" font-size="14.00" fill="#000000">u &#160;&#160;&#160;= require &quot;util&quot;</text>
<text text-anchor="middle" x="1546.5" y="-211.1003" font-family="Inconsolata" font-size="14.00" fill="#000000">s = require &quot;status&quot;</text>
<text text-anchor="middle" x="1546.5" y="-195.7003" font-family="Inconsolata" font-size="14.00" fill="#000000">m = require &quot;grym/morphemes&quot;</text>
<text text-anchor="middle" x="1546.5" y="-180.3002" font-family="Inconsolata" font-size="14.00" fill="#000000">Doc = require &quot;grym/doc&quot;</text>
<text text-anchor="middle" x="1546.5" y="-148.9002" font-family="Inconsolata" font-size="14.00" fill="#000000">Link = require &quot;grym/link&quot;</text>
</g>
<!-- codeblock_20&#45;&gt;leaf_23 -->
<g id="edge23" class="edge">
<title>codeblock_20&#45;&gt;leaf_23</title>
<path fill="none" stroke="#000000" stroke-dasharray="5,2" d="M1155.5588,-722.3409C1153.8752,-669.1545 1156.7585,-512.5343 1242.5,-433.8005 1305.4839,-375.9643 1361.7761,-447.3038 1431.5,-397.8005 1476.1933,-366.0688 1506.0411,-311.0925 1524.1032,-266.9695"/>
<polygon fill="#000000" stroke="#000000" points="1527.4476,-268.0312 1527.89,-257.4456 1520.9429,-265.4448 1527.4476,-268.0312"/>
</g>
<!-- leaf_30 -->
<g id="node31" class="node">
<title>leaf_30</title>
<polygon fill="none" stroke="#c0c0c0" points="1743.5,-775.8014 1251.5,-775.8014 1251.5,-705.2007 1743.5,-705.2007 1743.5,-775.8014"/>
<text text-anchor="middle" x="1497.5" y="-728.701" font-family="Inconsolata" font-size="14.00" fill="#000000">This is done crudely, we can use =pl.lapp= in future to parse within</text>
<text text-anchor="middle" x="1497.5" y="-713.301" font-family="Inconsolata" font-size="14.00" fill="#000000">commands to each verb.</text>
</g>
<!-- prose_25&#45;&gt;leaf_30 -->
<g id="edge30" class="edge">
<title>prose_25&#45;&gt;leaf_30</title>
<path fill="none" stroke="#000000" stroke-dasharray="5,2" d="M1984.8519,-1095.8575C1978.151,-1091.1343 1970.3118,-1086.3395 1962.5,-1083.2015 1874.6297,-1047.9038 1834.5137,-1094.5392 1752.5,-1047.2015 1642.2987,-983.5941 1558.9208,-853.2864 1520.6357,-784.8003"/>
<polygon fill="#000000" stroke="#000000" points="1523.6521,-783.0223 1515.7533,-775.9611 1517.5247,-786.4068 1523.6521,-783.0223"/>
</g>
<!-- leaf_31 -->
<g id="node32" class="node">
<title>leaf_31</title>
<polygon fill="none" stroke="#c0c0c0" points="2225.5,-767.8014 1761.5,-767.8014 1761.5,-713.2006 2225.5,-713.2006 2225.5,-767.8014"/>
<text text-anchor="middle" x="1993.5" y="-736.701" font-family="Inconsolata" font-size="14.00" fill="#000000">Note here that we pass in the pwd from a shell script. This may </text>
<text text-anchor="middle" x="1993.5" y="-721.301" font-family="Inconsolata" font-size="14.00" fill="#000000">change, now that we&#39;ve added [[sh][../lib/sh.lua]]]]</text>
</g>
<!-- prose_26&#45;&gt;leaf_31 -->
<g id="edge31" class="edge">
<title>prose_26&#45;&gt;leaf_31</title>
<path fill="none" stroke="#000000" stroke-dasharray="5,2" d="M2081.0626,-1093.0363C2066.8585,-1035.8492 2022.3019,-856.46 2002.798,-777.9357"/>
<polygon fill="#000000" stroke="#000000" points="2006.1349,-776.8505 2000.3275,-767.9891 1999.3413,-778.538 2006.1349,-776.8505"/>
</g>
<!-- leaf_32 -->
<g id="node33" class="node">
<title>leaf_32</title>
<polygon fill="none" stroke="#c0c0c0" points="2749.5,-1047.4021 2243.5,-1047.4021 2243.5,-433.5999 2749.5,-433.5999 2749.5,-1047.4021"/>
<text text-anchor="middle" x="2496.5" y="-1032.0015" font-family="Inconsolata" font-size="14.00" fill="#000000">local pwd, verb = &quot;&quot;, &quot;&quot;</text>
<text text-anchor="middle" x="2496.5" y="-1000.6015" font-family="Inconsolata" font-size="14.00" fill="#000000">if (arg) then</text>
<text text-anchor="middle" x="2496.5" y="-985.2014" font-family="Inconsolata" font-size="14.00" fill="#000000"> &#160;&#160;&#160;pwd = table.remove(arg, 1)</text>
<text text-anchor="middle" x="2496.5" y="-969.8014" font-family="Inconsolata" font-size="14.00" fill="#000000"> &#160;&#160;&#160;verb = table.remove(arg, 1)</text>
<text text-anchor="middle" x="2496.5" y="-954.4014" font-family="Inconsolata" font-size="14.00" fill="#000000"> &#160;&#160;&#160;for _, v in ipairs(arg) do</text>
<text text-anchor="middle" x="2496.5" y="-939.0013" font-family="Inconsolata" font-size="14.00" fill="#000000"> &#160;&#160;&#160;&#160;&#160;&#160;&#160;io.write(ansi.yellow(v)..&quot;\n&quot;)</text>
<text text-anchor="middle" x="2496.5" y="-923.6013" font-family="Inconsolata" font-size="14.00" fill="#000000"> &#160;&#160;&#160;end</text>
<text text-anchor="middle" x="2496.5" y="-908.2013" font-family="Inconsolata" font-size="14.00" fill="#000000">end</text>
<text text-anchor="middle" x="2496.5" y="-860.8012" font-family="Inconsolata" font-size="14.00" fill="#000000">local grym = {}</text>
<text text-anchor="middle" x="2496.5" y="-829.4012" font-family="Inconsolata" font-size="14.00" fill="#000000">grym.invert = invert</text>
<text text-anchor="middle" x="2496.5" y="-814.0012" font-family="Inconsolata" font-size="14.00" fill="#000000">grym.knit &#160;&#160;= knit</text>
<text text-anchor="middle" x="2496.5" y="-798.6012" font-family="Inconsolata" font-size="14.00" fill="#000000">grym.weave &#160;= weave</text>
<text text-anchor="middle" x="2496.5" y="-767.2011" font-family="Inconsolata" font-size="14.00" fill="#000000">samples = getfiles(&quot;samples&quot;)</text>
<text text-anchor="middle" x="2496.5" y="-735.8011" font-family="Inconsolata" font-size="14.00" fill="#000000">local own = require &quot;grym/own&quot;</text>
<text text-anchor="middle" x="2496.5" y="-704.4011" font-family="Inconsolata" font-size="14.00" fill="#000000">if verb == &quot;invert&quot; then</text>
<text text-anchor="middle" x="2496.5" y="-689.001" font-family="Inconsolata" font-size="14.00" fill="#000000"> &#160;&#160;&#160;&#45;&#45; If we allow inversion in its present no&#45;guards state,</text>
<text text-anchor="middle" x="2496.5" y="-673.601" font-family="Inconsolata" font-size="14.00" fill="#000000"> &#160;&#160;&#160;&#45;&#45; we will lose all commentary</text>
<text text-anchor="middle" x="2496.5" y="-658.201" font-family="Inconsolata" font-size="14.00" fill="#000000"> &#160;&#160;&#160;u.freeze(&quot;no&quot;)</text>
<text text-anchor="middle" x="2496.5" y="-642.8009" font-family="Inconsolata" font-size="14.00" fill="#000000"> &#160;&#160;&#160;&#45;&#45;invert:invert_all(pwd)</text>
<text text-anchor="middle" x="2496.5" y="-627.4009" font-family="Inconsolata" font-size="14.00" fill="#000000">elseif verb == &quot;knit&quot; then</text>
<text text-anchor="middle" x="2496.5" y="-612.0009" font-family="Inconsolata" font-size="14.00" fill="#000000"> &#160;&#160;&#160;&#45;&#45; knitter goes here</text>
<text text-anchor="middle" x="2496.5" y="-596.6008" font-family="Inconsolata" font-size="14.00" fill="#000000"> &#160;&#160;&#160;knit:knit_all(pwd)</text>
<text text-anchor="middle" x="2496.5" y="-581.2008" font-family="Inconsolata" font-size="14.00" fill="#000000">elseif verb == &quot;weave&quot; then</text>
<text text-anchor="middle" x="2496.5" y="-565.8008" font-family="Inconsolata" font-size="14.00" fill="#000000"> &#160;&#160;&#160;&#45;&#45; local weaved = weave:weaveMd(Doc(read(&quot;../orb/grym/block.gm&quot;)))</text>
<text text-anchor="middle" x="2496.5" y="-550.4007" font-family="Inconsolata" font-size="14.00" fill="#000000"> &#160;&#160;&#160;&#45;&#45; io.write(weaved)</text>
<text text-anchor="middle" x="2496.5" y="-535.0007" font-family="Inconsolata" font-size="14.00" fill="#000000"> &#160;&#160;&#160;weave:weave_all(pwd) &#160;&#160;&#160;</text>
<text text-anchor="middle" x="2496.5" y="-503.6007" font-family="Inconsolata" font-size="14.00" fill="#000000">elseif not verb then</text>
<text text-anchor="middle" x="2496.5" y="-488.2007" font-family="Inconsolata" font-size="14.00" fill="#000000"> &#160;&#160;&#160;&#45;&#45; do the things</text>
<text text-anchor="middle" x="2496.5" y="-472.8006" font-family="Inconsolata" font-size="14.00" fill="#000000"> &#160;&#160;&#160;weave:weave_all(pwd)</text>
<text text-anchor="middle" x="2496.5" y="-457.4006" font-family="Inconsolata" font-size="14.00" fill="#000000"> &#160;&#160;&#160;knit:knit_all(pwd)</text>
<text text-anchor="middle" x="2496.5" y="-442.0006" font-family="Inconsolata" font-size="14.00" fill="#000000">end</text>
</g>
<!-- codeblock_27&#45;&gt;leaf_32 -->
<g id="edge32" class="edge">
<title>codeblock_27&#45;&gt;leaf_32</title>
<path fill="none" stroke="#000000" stroke-dasharray="5,2" d="M2320.5482,-1092.7856C2325.1439,-1083.5841 2331.2962,-1071.2662 2338.5495,-1056.744"/>
<polygon fill="#000000" stroke="#000000" points="2341.8667,-1057.9353 2343.2038,-1047.4252 2335.6043,-1054.8075 2341.8667,-1057.9353"/>
</g>
<!-- header_33 -->
<g id="node34" class="node">
<title>header_33</title>
<ellipse fill="none" stroke="#000000" cx="2888.5" cy="-740.501" rx="120.9043" ry="18"/>
<text text-anchor="middle" x="2888.5" y="-736.301" font-family="Helvetica,sans-Serif" font-size="14.00" fill="#000000">4 : Sample Doc for REPLing</text>
</g>
<!-- section_28&#45;&gt;header_33 -->
<g id="edge33" class="edge">
<title>section_28&#45;&gt;header_33</title>
<path fill="none" stroke="#000000" stroke-dasharray="5,2" d="M2969.3427,-1092.7856C2955.587,-1032.8428 2911.4809,-840.6438 2894.8905,-768.3486"/>
<polygon fill="#000000" stroke="#000000" points="2898.2973,-767.5459 2892.6493,-758.5821 2891.4747,-769.1116 2898.2973,-767.5459"/>
</g>
<!-- prose_34 -->
<g id="node35" class="node">
<title>prose_34</title>
<ellipse fill="none" stroke="#000000" cx="3059.5" cy="-740.501" rx="32.4585" ry="18"/>
<text text-anchor="middle" x="3059.5" y="-736.301" font-family="Helvetica,sans-Serif" font-size="14.00" fill="#000000">prose</text>
</g>
<!-- section_28&#45;&gt;prose_34 -->
<g id="edge34" class="edge">
<title>section_28&#45;&gt;prose_34</title>
<path fill="none" stroke="#000000" stroke-dasharray="5,2" d="M2989.6808,-1093.0659C2999.6735,-1081.0013 3011.8224,-1064.2174 3018.5,-1047.2015 3056.5836,-950.1557 3060.4888,-823.9969 3060.1492,-768.6311"/>
<polygon fill="#000000" stroke="#000000" points="3063.6479,-768.4907 3060.0335,-758.5314 3056.6484,-768.5709 3063.6479,-768.4907"/>
</g>
<!-- codeblock_35 -->
<g id="node36" class="node">
<title>codeblock_35</title>
<ellipse fill="none" stroke="#000000" cx="3195.5" cy="-740.501" rx="85.9862" ry="18"/>
<text text-anchor="middle" x="3195.5" y="-736.301" font-family="Helvetica,sans-Serif" font-size="14.00" fill="#000000">code block 110&#45;116</text>
</g>
<!-- section_28&#45;&gt;codeblock_35 -->
<g id="edge35" class="edge">
<title>section_28&#45;&gt;codeblock_35</title>
<path fill="none" stroke="#000000" stroke-dasharray="5,2" d="M3021.6883,-1097.1151C3048.3344,-1087.2113 3080.0844,-1071.2863 3100.5,-1047.2015 3171.4173,-963.5388 3189.4413,-827.3095 3193.9855,-768.7353"/>
<polygon fill="#000000" stroke="#000000" points="3197.4788,-768.9525 3194.6869,-758.7321 3190.4959,-768.4628 3197.4788,-768.9525"/>
</g>
<!-- header_38 -->
<g id="node39" class="node">
<title>header_38</title>
<ellipse fill="none" stroke="#000000" cx="3460.5" cy="-740.501" rx="160.5556" ry="18"/>
<text text-anchor="middle" x="3460.5" y="-736.301" font-family="Helvetica,sans-Serif" font-size="14.00" fill="#000000">3 : Run the samples and make dotfiles</text>
</g>
<!-- section_29&#45;&gt;header_38 -->
<g id="edge38" class="edge">
<title>section_29&#45;&gt;header_38</title>
<path fill="none" stroke="#000000" stroke-dasharray="5,2" d="M3560.3646,-1092.7856C3543.3721,-1032.8428 3488.8882,-840.6438 3468.3941,-768.3486"/>
<polygon fill="#000000" stroke="#000000" points="3471.7203,-767.2484 3465.6256,-758.5821 3464.9856,-769.1576 3471.7203,-767.2484"/>
</g>
<!-- prose_39 -->
<g id="node40" class="node">
<title>prose_39</title>
<ellipse fill="none" stroke="#000000" cx="3671.5" cy="-740.501" rx="32.4585" ry="18"/>
<text text-anchor="middle" x="3671.5" y="-736.301" font-family="Helvetica,sans-Serif" font-size="14.00" fill="#000000">prose</text>
</g>
<!-- section_29&#45;&gt;prose_39 -->
<g id="edge39" class="edge">
<title>section_29&#45;&gt;prose_39</title>
<path fill="none" stroke="#000000" stroke-dasharray="5,2" d="M3589.9048,-1093.6705C3604.1729,-1082.2039 3621.1626,-1065.8508 3630.5,-1047.2015 3677.2863,-953.7571 3676.6425,-825.2293 3673.636,-768.8946"/>
<polygon fill="#000000" stroke="#000000" points="3677.1122,-768.3932 3673.0165,-758.622 3670.1249,-768.8146 3677.1122,-768.3932"/>
</g>
<!-- codeblock_40 -->
<g id="node41" class="node">
<title>codeblock_40</title>
<ellipse fill="none" stroke="#000000" cx="3871.5" cy="-740.501" rx="87.0948" ry="18"/>
<text text-anchor="middle" x="3871.5" y="-736.301" font-family="Helvetica,sans-Serif" font-size="14.00" fill="#000000">code block 120&#45;138</text>
</g>
<!-- section_29&#45;&gt;codeblock_40 -->
<g id="edge40" class="edge">
<title>section_29&#45;&gt;codeblock_40</title>
<path fill="none" stroke="#000000" stroke-dasharray="5,2" d="M3617.7115,-1097.8366C3648.2782,-1088.0316 3685.9594,-1071.962 3712.5,-1047.2015 3799.1723,-966.3422 3846.7845,-827.5389 3863.9897,-768.4497"/>
<polygon fill="#000000" stroke="#000000" points="3867.394,-769.2741 3866.7618,-758.6982 3860.6608,-767.36 3867.394,-769.2741"/>
</g>
<!-- leaf_36 -->
<g id="node37" class="node">
<title>leaf_36</title>
<polygon fill="none" stroke="#c0c0c0" points="3027.5,-216.9003 2973.5,-216.9003 2973.5,-180.9003 3027.5,-180.9003 3027.5,-216.9003"/>
</g>
<!-- prose_34&#45;&gt;leaf_36 -->
<g id="edge36" class="edge">
<title>prose_34&#45;&gt;leaf_36</title>
<path fill="none" stroke="#000000" stroke-dasharray="5,2" d="M3057.537,-722.481C3048.8924,-643.1267 3014.178,-324.4597 3003.5848,-227.2179"/>
<polygon fill="#000000" stroke="#000000" points="3007.0329,-226.5501 3002.4704,-216.988 3000.074,-227.3082 3007.0329,-226.5501"/>
</g>
<!-- leaf_37 -->
<g id="node38" class="node">
<title>leaf_37</title>
<polygon fill="none" stroke="#c0c0c0" points="3461,-234.2006 3046,-234.2006 3046,-163.5999 3461,-163.5999 3461,-234.2006"/>
<text text-anchor="middle" x="3253.5" y="-219.1003" font-family="Inconsolata" font-size="14.00" fill="#000000">sample_doc = Doc(read(&quot;../orb/grym.orb&quot;)) or &quot;&quot;</text>
<text text-anchor="middle" x="3253.5" y="-187.7003" font-family="Inconsolata" font-size="14.00" fill="#000000">dot_sh = (require &quot;sh&quot;):clear_G().command(&#39;dot&#39;, &#39;&#45;Tsvg&#39;)</text>
</g>
<!-- codeblock_35&#45;&gt;leaf_37 -->
<g id="edge37" class="edge">
<title>codeblock_35&#45;&gt;leaf_37</title>
<path fill="none" stroke="#000000" stroke-dasharray="5,2" d="M3197.4298,-722.481C3205.4735,-647.3691 3236.4783,-357.8483 3248.6015,-244.6421"/>
<polygon fill="#000000" stroke="#000000" points="3252.0956,-244.8829 3249.6804,-234.567 3245.1354,-244.1375 3252.0956,-244.8829"/>
</g>
<!-- leaf_41 -->
<g id="node42" class="node">
<title>leaf_41</title>
<polygon fill="none" stroke="#c0c0c0" points="3666.5,-216.9003 3612.5,-216.9003 3612.5,-180.9003 3666.5,-180.9003 3666.5,-216.9003"/>
</g>
<!-- prose_39&#45;&gt;leaf_41 -->
<g id="edge41" class="edge">
<title>prose_39&#45;&gt;leaf_41</title>
<path fill="none" stroke="#000000" stroke-dasharray="5,2" d="M3670.4353,-722.481C3665.7467,-643.1267 3646.9186,-324.4597 3641.1731,-227.2179"/>
<polygon fill="#000000" stroke="#000000" points="3644.6525,-226.7641 3640.5687,-216.988 3637.6647,-227.177 3644.6525,-226.7641"/>
</g>
<!-- leaf_42 -->
<g id="node43" class="node">
<title>leaf_42</title>
<polygon fill="none" stroke="#c0c0c0" points="4120.5,-333.7009 3684.5,-333.7009 3684.5,-64.0997 4120.5,-64.0997 4120.5,-333.7009"/>
<text text-anchor="middle" x="3902.5" y="-318.6005" font-family="Inconsolata" font-size="14.00" fill="#000000">&#45;&#45;&#45;[[</text>
<text text-anchor="middle" x="3902.5" y="-303.2005" font-family="Inconsolata" font-size="14.00" fill="#000000">for _,v in ipairs(samples) do</text>
<text text-anchor="middle" x="3902.5" y="-287.8005" font-family="Inconsolata" font-size="14.00" fill="#000000"> &#160;&#160;&#160;if v:match(&quot;~&quot;) == nil then</text>
<text text-anchor="middle" x="3902.5" y="-272.4004" font-family="Inconsolata" font-size="14.00" fill="#000000"> &#160;&#160;&#160;&#160;&#160;&#160;&#160;if verbose then io.write(v) end</text>
<text text-anchor="middle" x="3902.5" y="-257.0004" font-family="Inconsolata" font-size="14.00" fill="#000000"> &#160;&#160;&#160;&#160;&#160;&#160;&#160;local sample = read(v)</text>
<text text-anchor="middle" x="3902.5" y="-241.6004" font-family="Inconsolata" font-size="14.00" fill="#000000"> &#160;&#160;&#160;&#160;&#160;&#160;&#160;&#45;&#45;io.write(v..&quot;\n&quot;)</text>
<text text-anchor="middle" x="3902.5" y="-226.2003" font-family="Inconsolata" font-size="14.00" fill="#000000"> &#160;&#160;&#160;&#160;&#160;&#160;&#160;local doc = Doc(sample)</text>
<text text-anchor="middle" x="3902.5" y="-210.8003" font-family="Inconsolata" font-size="14.00" fill="#000000"> &#160;&#160;&#160;&#160;&#160;&#160;&#160;local doc_dot = doc:dot()</text>
<text text-anchor="middle" x="3902.5" y="-195.4003" font-family="Inconsolata" font-size="14.00" fill="#000000"> &#160;&#160;&#160;&#160;&#160;&#160;&#160;local old_dot = read(&quot;../orb/dot/&quot; .. v .. &quot;.dot&quot;)</text>
<text text-anchor="middle" x="3902.5" y="-180.0002" font-family="Inconsolata" font-size="14.00" fill="#000000"> &#160;&#160;&#160;&#160;&#160;&#160;&#160;if old_dot and old_dot ~= doc_dot then</text>
<text text-anchor="middle" x="3902.5" y="-164.6002" font-family="Inconsolata" font-size="14.00" fill="#000000"> &#160;&#160;&#160;&#160;&#160;&#160;&#160;&#160;&#160;&#160;&#160;io.write(&quot; &#160;&#160;&#45;&#45; changed dotfile: &quot; .. v)</text>
<text text-anchor="middle" x="3902.5" y="-149.2002" font-family="Inconsolata" font-size="14.00" fill="#000000"> &#160;&#160;&#160;&#160;&#160;&#160;&#160;&#160;&#160;&#160;&#160;write(&quot;../orb/dot/&quot; .. v .. &quot;&#45;old.dot&quot;, old_dot)</text>
<text text-anchor="middle" x="3902.5" y="-133.8002" font-family="Inconsolata" font-size="14.00" fill="#000000"> &#160;&#160;&#160;&#160;&#160;&#160;&#160;end</text>
<text text-anchor="middle" x="3902.5" y="-118.4001" font-family="Inconsolata" font-size="14.00" fill="#000000"> &#160;&#160;&#160;&#160;&#160;&#160;&#160;write(&quot;../orb/dot/&quot; .. v .. &quot;.dot&quot;, doc:dot())</text>
<text text-anchor="middle" x="3902.5" y="-103.0001" font-family="Inconsolata" font-size="14.00" fill="#000000"> &#160;&#160;&#160;end</text>
<text text-anchor="middle" x="3902.5" y="-87.6001" font-family="Inconsolata" font-size="14.00" fill="#000000">end</text>
<text text-anchor="middle" x="3902.5" y="-72.2" font-family="Inconsolata" font-size="14.00" fill="#000000">&#45;&#45;]]</text>
</g>
<!-- codeblock_40&#45;&gt;leaf_42 -->
<g id="edge42" class="edge">
<title>codeblock_40&#45;&gt;leaf_42</title>
<path fill="none" stroke="#000000" stroke-dasharray="5,2" d="M3872.5314,-722.481C3875.8566,-664.3876 3886.5228,-478.0379 3894.1833,-344.2006"/>
<polygon fill="#000000" stroke="#000000" points="3897.6985,-344.0342 3894.7758,-333.8505 3890.7099,-343.6342 3897.6985,-344.0342"/>
</g>
</g>
</svg>