<?xml version="1.0" encoding="UTF-8" standalone="no"?>
<!DOCTYPE svg PUBLIC "-//W3C//DTD SVG 1.1//EN"
 "http://www.w3.org/Graphics/SVG/1.1/DTD/svg11.dtd">
<!-- Generated by graphviz version 2.40.1 (20161225.0304)
 -->
<!-- Title: hierarchy Pages: 1 -->
<svg width="1856pt" height="844pt"
 viewBox="0.00 0.00 1855.50 844.40" xmlns="http://www.w3.org/2000/svg" xmlns:xlink="http://www.w3.org/1999/xlink">
<g id="graph0" class="graph" transform="scale(1 1) rotate(0) translate(4 840.4008)">
<title>hierarchy</title>
<polygon fill="#ffffff" stroke="transparent" points="-4,4 -4,-840.4008 1851.5,-840.4008 1851.5,4 -4,4"/>
<!-- doc_0 -->
<g id="node1" class="node">
<title>doc_0</title>
<ellipse fill="none" stroke="#000000" cx="741.5" cy="-818.4008" rx="46.9581" ry="18"/>
<text text-anchor="middle" x="741.5" y="-814.2008" font-family="Helvetica,sans-Serif" font-size="14.00" fill="#000000">doc &#45; 103</text>
</g>
<!-- section_1 -->
<g id="node2" class="node">
<title>section_1</title>
<ellipse fill="none" stroke="#000000" cx="741.5" cy="-746.4008" rx="60.1778" ry="18"/>
<text text-anchor="middle" x="741.5" y="-742.2008" font-family="Helvetica,sans-Serif" font-size="14.00" fill="#000000">section: 1&#45;11</text>
</g>
<!-- doc_0&#45;&gt;section_1 -->
<g id="edge1" class="edge">
<title>doc_0&#45;&gt;section_1</title>
<path fill="none" stroke="#000000" stroke-dasharray="5,2" d="M741.5,-800.2322C741.5,-792.5318 741.5,-783.3752 741.5,-774.8174"/>
<polygon fill="#000000" stroke="#000000" points="745.0001,-774.814 741.5,-764.8141 738.0001,-774.8141 745.0001,-774.814"/>
</g>
<!-- header_2 -->
<g id="node3" class="node">
<title>header_2</title>
<ellipse fill="none" stroke="#000000" cx="557.5" cy="-674.4008" rx="62.8772" ry="18"/>
<text text-anchor="middle" x="557.5" y="-670.2008" font-family="Helvetica,sans-Serif" font-size="14.00" fill="#000000">1 : Grymback</text>
</g>
<!-- section_1&#45;&gt;header_2 -->
<g id="edge2" class="edge">
<title>section_1&#45;&gt;header_2</title>
<path fill="none" stroke="#000000" stroke-dasharray="5,2" d="M704.7071,-732.0036C675.8141,-720.6976 635.3931,-704.8807 604.2158,-692.6809"/>
<polygon fill="#000000" stroke="#000000" points="605.4477,-689.4046 594.8598,-689.0199 602.8969,-695.9233 605.4477,-689.4046"/>
</g>
<!-- block_3 -->
<g id="node4" class="node">
<title>block_3</title>
<ellipse fill="none" stroke="#000000" cx="684.5" cy="-674.4008" rx="45.9804" ry="18"/>
<text text-anchor="middle" x="684.5" y="-670.2008" font-family="Helvetica,sans-Serif" font-size="14.00" fill="#000000">block 1&#45;6</text>
</g>
<!-- section_1&#45;&gt;block_3 -->
<g id="edge3" class="edge">
<title>section_1&#45;&gt;block_3</title>
<path fill="none" stroke="#000000" stroke-dasharray="5,2" d="M727.4101,-728.6031C720.5256,-719.9068 712.1187,-709.2875 704.5765,-699.7606"/>
<polygon fill="#000000" stroke="#000000" points="707.1824,-697.4134 698.2311,-691.7454 701.694,-701.7583 707.1824,-697.4134"/>
</g>
<!-- block_4 -->
<g id="node5" class="node">
<title>block_4</title>
<ellipse fill="none" stroke="#000000" cx="798.5" cy="-674.4008" rx="50.0142" ry="18"/>
<text text-anchor="middle" x="798.5" y="-670.2008" font-family="Helvetica,sans-Serif" font-size="14.00" fill="#000000">block 7&#45;11</text>
</g>
<!-- section_1&#45;&gt;block_4 -->
<g id="edge4" class="edge">
<title>section_1&#45;&gt;block_4</title>
<path fill="none" stroke="#000000" stroke-dasharray="5,2" d="M755.5899,-728.6031C762.4744,-719.9068 770.8813,-709.2875 778.4235,-699.7606"/>
<polygon fill="#000000" stroke="#000000" points="781.306,-701.7583 784.7689,-691.7454 775.8176,-697.4134 781.306,-701.7583"/>
</g>
<!-- section_5 -->
<g id="node6" class="node">
<title>section_5</title>
<ellipse fill="none" stroke="#000000" cx="1115.5" cy="-674.4008" rx="70.655" ry="18"/>
<text text-anchor="middle" x="1115.5" y="-670.2008" font-family="Helvetica,sans-Serif" font-size="14.00" fill="#000000">section: 12&#45;103</text>
</g>
<!-- section_1&#45;&gt;section_5 -->
<g id="edge5" class="edge">
<title>section_1&#45;&gt;section_5</title>
<path fill="none" stroke="#000000" stroke-dasharray="5,2" d="M792.3285,-736.6156C858.8055,-723.8179 975.4274,-701.3667 1048.9031,-687.2216"/>
<polygon fill="#000000" stroke="#000000" points="1049.8167,-690.6101 1058.9747,-685.2827 1048.4934,-683.7363 1049.8167,-690.6101"/>
</g>
<!-- prose_6 -->
<g id="node7" class="node">
<title>prose_6</title>
<ellipse fill="none" stroke="#000000" cx="470.5" cy="-602.4008" rx="32.4585" ry="18"/>
<text text-anchor="middle" x="470.5" y="-598.2008" font-family="Helvetica,sans-Serif" font-size="14.00" fill="#000000">prose</text>
</g>
<!-- block_3&#45;&gt;prose_6 -->
<g id="edge6" class="edge">
<title>block_3&#45;&gt;prose_6</title>
<path fill="none" stroke="#000000" stroke-dasharray="5,2" d="M649.1623,-662.5115C610.2015,-649.4032 547.7809,-628.4018 507.9833,-615.012"/>
<polygon fill="#000000" stroke="#000000" points="508.9748,-611.6529 498.3807,-611.7812 506.7425,-618.2874 508.9748,-611.6529"/>
</g>
<!-- prose_8 -->
<g id="node9" class="node">
<title>prose_8</title>
<ellipse fill="none" stroke="#000000" cx="798.5" cy="-602.4008" rx="32.4585" ry="18"/>
<text text-anchor="middle" x="798.5" y="-598.2008" font-family="Helvetica,sans-Serif" font-size="14.00" fill="#000000">prose</text>
</g>
<!-- block_4&#45;&gt;prose_8 -->
<g id="edge8" class="edge">
<title>block_4&#45;&gt;prose_8</title>
<path fill="none" stroke="#000000" stroke-dasharray="5,2" d="M798.5,-656.2322C798.5,-648.5318 798.5,-639.3752 798.5,-630.8174"/>
<polygon fill="#000000" stroke="#000000" points="802.0001,-630.814 798.5,-620.8141 795.0001,-630.8141 802.0001,-630.814"/>
</g>
<!-- header_10 -->
<g id="node11" class="node">
<title>header_10</title>
<ellipse fill="none" stroke="#000000" cx="986.5" cy="-602.4008" rx="54.6851" ry="18"/>
<text text-anchor="middle" x="986.5" y="-598.2008" font-family="Helvetica,sans-Serif" font-size="14.00" fill="#000000">3 : includes</text>
</g>
<!-- section_5&#45;&gt;header_10 -->
<g id="edge10" class="edge">
<title>section_5&#45;&gt;header_10</title>
<path fill="none" stroke="#000000" stroke-dasharray="5,2" d="M1085.9048,-657.8826C1067.3271,-647.5136 1043.221,-634.059 1023.4003,-622.9963"/>
<polygon fill="#000000" stroke="#000000" points="1025.0681,-619.919 1014.6303,-618.1014 1021.6565,-626.0313 1025.0681,-619.919"/>
</g>
<!-- block_11 -->
<g id="node12" class="node">
<title>block_11</title>
<ellipse fill="none" stroke="#000000" cx="1115.5" cy="-602.4008" rx="55.6542" ry="18"/>
<text text-anchor="middle" x="1115.5" y="-598.2008" font-family="Helvetica,sans-Serif" font-size="14.00" fill="#000000">block 12&#45;13</text>
</g>
<!-- section_5&#45;&gt;block_11 -->
<g id="edge11" class="edge">
<title>section_5&#45;&gt;block_11</title>
<path fill="none" stroke="#000000" stroke-dasharray="5,2" d="M1115.5,-656.2322C1115.5,-648.5318 1115.5,-639.3752 1115.5,-630.8174"/>
<polygon fill="#000000" stroke="#000000" points="1119.0001,-630.814 1115.5,-620.8141 1112.0001,-630.8141 1119.0001,-630.814"/>
</g>
<!-- block_12 -->
<g id="node13" class="node">
<title>block_12</title>
<ellipse fill="none" stroke="#000000" cx="1245.5" cy="-602.4008" rx="55.6542" ry="18"/>
<text text-anchor="middle" x="1245.5" y="-598.2008" font-family="Helvetica,sans-Serif" font-size="14.00" fill="#000000">block 14&#45;42</text>
</g>
<!-- section_5&#45;&gt;block_12 -->
<g id="edge12" class="edge">
<title>section_5&#45;&gt;block_12</title>
<path fill="none" stroke="#000000" stroke-dasharray="5,2" d="M1145.3246,-657.8826C1164.0463,-647.5136 1188.3393,-634.059 1208.3137,-622.9963"/>
<polygon fill="#000000" stroke="#000000" points="1210.0995,-626.0083 1217.1516,-618.1014 1206.708,-619.8847 1210.0995,-626.0083"/>
</g>
<!-- block_13 -->
<g id="node14" class="node">
<title>block_13</title>
<ellipse fill="none" stroke="#000000" cx="1508.5" cy="-602.4008" rx="60.9913" ry="18"/>
<text text-anchor="middle" x="1508.5" y="-598.2008" font-family="Helvetica,sans-Serif" font-size="14.00" fill="#000000">block 43&#45;103</text>
</g>
<!-- section_5&#45;&gt;block_13 -->
<g id="edge13" class="edge">
<title>section_5&#45;&gt;block_13</title>
<path fill="none" stroke="#000000" stroke-dasharray="5,2" d="M1173.0665,-663.8543C1246.0659,-650.4803 1371.4407,-627.5109 1446.4934,-613.7608"/>
<polygon fill="#000000" stroke="#000000" points="1447.5334,-617.1286 1456.7389,-611.8838 1446.2719,-610.2432 1447.5334,-617.1286"/>
</g>
<!-- leaf_7 -->
<g id="node8" class="node">
<title>leaf_7</title>
<polygon fill="none" stroke="#c0c0c0" points="513,-548.3011 0,-548.3011 0,-477.7004 513,-477.7004 513,-548.3011"/>
<text text-anchor="middle" x="256.5" y="-501.2008" font-family="Inconsolata" font-size="14.00" fill="#000000"> &#160;This is a standalone program to restore grym in the event that a knit</text>
<text text-anchor="middle" x="256.5" y="-485.8008" font-family="Inconsolata" font-size="14.00" fill="#000000">results in an unusable grym module.</text>
</g>
<!-- prose_6&#45;&gt;leaf_7 -->
<g id="edge7" class="edge">
<title>prose_6&#45;&gt;leaf_7</title>
<path fill="none" stroke="#000000" stroke-dasharray="5,2" d="M444.6866,-591.6171C421.2139,-581.8112 385.0959,-566.7226 350.7546,-552.3763"/>
<polygon fill="#000000" stroke="#000000" points="351.7041,-548.9799 341.1277,-548.3546 349.0057,-555.4389 351.7041,-548.9799"/>
</g>
<!-- leaf_9 -->
<g id="node10" class="node">
<title>leaf_9</title>
<polygon fill="none" stroke="#c0c0c0" points="1065.5,-547.602 531.5,-547.602 531.5,-478.3995 1065.5,-478.3995 1065.5,-547.602"/>
<text text-anchor="middle" x="798.5" y="-532.6008" font-family="Inconsolata" font-size="14.00" fill="#000000">The plan: A =.grym= file in the root directory will contain any</text>
<text text-anchor="middle" x="798.5" y="-517.2008" font-family="Inconsolata" font-size="14.00" fill="#000000">knit&#45;modified files from the last pass. &#160;=grym= itself will read and write</text>
<text text-anchor="middle" x="798.5" y="-501.8008" font-family="Inconsolata" font-size="14.00" fill="#000000">to the .grym file, maintaining a data structure in the meantime; this will</text>
<text text-anchor="middle" x="798.5" y="-486.4007" font-family="Inconsolata" font-size="14.00" fill="#000000">be in Lua&#45;native table format, at first, eventually Clu(den).</text>
</g>
<!-- prose_8&#45;&gt;leaf_9 -->
<g id="edge9" class="edge">
<title>prose_8&#45;&gt;leaf_9</title>
<path fill="none" stroke="#000000" stroke-dasharray="5,2" d="M798.5,-584.3094C798.5,-576.5908 798.5,-567.208 798.5,-557.8183"/>
<polygon fill="#000000" stroke="#000000" points="802.0001,-557.7051 798.5,-547.7051 795.0001,-557.7052 802.0001,-557.7051"/>
</g>
<!-- prose_14 -->
<g id="node15" class="node">
<title>prose_14</title>
<ellipse fill="none" stroke="#000000" cx="1115.5" cy="-513.0008" rx="32.4585" ry="18"/>
<text text-anchor="middle" x="1115.5" y="-508.8008" font-family="Helvetica,sans-Serif" font-size="14.00" fill="#000000">prose</text>
</g>
<!-- block_11&#45;&gt;prose_14 -->
<g id="edge14" class="edge">
<title>block_11&#45;&gt;prose_14</title>
<path fill="none" stroke="#000000" stroke-dasharray="5,2" d="M1115.5,-584.3094C1115.5,-571.9494 1115.5,-555.322 1115.5,-541.2324"/>
<polygon fill="#000000" stroke="#000000" points="1119.0001,-541.0653 1115.5,-531.0653 1112.0001,-541.0653 1119.0001,-541.0653"/>
</g>
<!-- codeblock_16 -->
<g id="node17" class="node">
<title>codeblock_16</title>
<ellipse fill="none" stroke="#000000" cx="1245.5" cy="-513.0008" rx="77.4211" ry="18"/>
<text text-anchor="middle" x="1245.5" y="-508.8008" font-family="Helvetica,sans-Serif" font-size="14.00" fill="#000000">code block 14&#45;39</text>
</g>
<!-- block_12&#45;&gt;codeblock_16 -->
<g id="edge16" class="edge">
<title>block_12&#45;&gt;codeblock_16</title>
<path fill="none" stroke="#000000" stroke-dasharray="5,2" d="M1245.5,-584.3094C1245.5,-571.9494 1245.5,-555.322 1245.5,-541.2324"/>
<polygon fill="#000000" stroke="#000000" points="1249.0001,-541.0653 1245.5,-531.0653 1242.0001,-541.0653 1249.0001,-541.0653"/>
</g>
<!-- codeblock_18 -->
<g id="node19" class="node">
<title>codeblock_18</title>
<ellipse fill="none" stroke="#000000" cx="1572.5" cy="-513.0008" rx="77.4211" ry="18"/>
<text text-anchor="middle" x="1572.5" y="-508.8008" font-family="Helvetica,sans-Serif" font-size="14.00" fill="#000000">code block 43&#45;72</text>
</g>
<!-- block_13&#45;&gt;codeblock_18 -->
<g id="edge18" class="edge">
<title>block_13&#45;&gt;codeblock_18</title>
<path fill="none" stroke="#000000" stroke-dasharray="5,2" d="M1521.1443,-584.7382C1530.4627,-571.7216 1543.2887,-553.8054 1553.7915,-539.1342"/>
<polygon fill="#000000" stroke="#000000" points="1556.6878,-541.1012 1559.6629,-530.9327 1550.9959,-537.0265 1556.6878,-541.1012"/>
</g>
<!-- leaf_15 -->
<g id="node16" class="node">
<title>leaf_15</title>
<polygon fill="none" stroke="#c0c0c0" points="1065.5,-238.8004 1011.5,-238.8004 1011.5,-202.8004 1065.5,-202.8004 1065.5,-238.8004"/>
</g>
<!-- prose_14&#45;&gt;leaf_15 -->
<g id="edge15" class="edge">
<title>prose_14&#45;&gt;leaf_15</title>
<path fill="none" stroke="#000000" stroke-dasharray="5,2" d="M1103.5478,-496.2434C1094.1803,-482.2841 1081.5837,-461.5349 1074.5,-441.6007 1050.9315,-375.277 1042.6908,-292.2049 1039.8876,-249.3341"/>
<polygon fill="#000000" stroke="#000000" points="1043.3657,-248.8623 1039.2726,-239.09 1036.3782,-249.2818 1043.3657,-248.8623"/>
</g>
<!-- leaf_17 -->
<g id="node18" class="node">
<title>leaf_17</title>
<polygon fill="none" stroke="#c0c0c0" points="1407.5,-410.801 1083.5,-410.801 1083.5,-30.7998 1407.5,-30.7998 1407.5,-410.801"/>
<text text-anchor="middle" x="1245.5" y="-395.6007" font-family="Inconsolata" font-size="14.00" fill="#000000">local L = require &quot;lpeg&quot;</text>
<text text-anchor="middle" x="1245.5" y="-364.2007" font-family="Inconsolata" font-size="14.00" fill="#000000">local s = require &quot;lib/status&quot;</text>
<text text-anchor="middle" x="1245.5" y="-348.8006" font-family="Inconsolata" font-size="14.00" fill="#000000">local u = require &quot;lib/util&quot;</text>
<text text-anchor="middle" x="1245.5" y="-333.4006" font-family="Inconsolata" font-size="14.00" fill="#000000">local a = require &quot;lib/ansi&quot;</text>
<text text-anchor="middle" x="1245.5" y="-318.0006" font-family="Inconsolata" font-size="14.00" fill="#000000">s.chatty = true</text>
<text text-anchor="middle" x="1245.5" y="-286.6005" font-family="Inconsolata" font-size="14.00" fill="#000000">local epeg = require &quot;peg/epeg&quot;</text>
<text text-anchor="middle" x="1245.5" y="-255.2005" font-family="Inconsolata" font-size="14.00" fill="#000000">local pl_file = require &quot;pl.file&quot;</text>
<text text-anchor="middle" x="1245.5" y="-239.8005" font-family="Inconsolata" font-size="14.00" fill="#000000">local pl_dir = require &quot;pl.dir&quot;</text>
<text text-anchor="middle" x="1245.5" y="-224.4004" font-family="Inconsolata" font-size="14.00" fill="#000000">local pl_path = require &quot;pl.path&quot;</text>
<text text-anchor="middle" x="1245.5" y="-209.0004" font-family="Inconsolata" font-size="14.00" fill="#000000">local getfiles = pl_dir.getfiles</text>
<text text-anchor="middle" x="1245.5" y="-193.6004" font-family="Inconsolata" font-size="14.00" fill="#000000">local getdirectories = pl_dir.getdirectories</text>
<text text-anchor="middle" x="1245.5" y="-178.2003" font-family="Inconsolata" font-size="14.00" fill="#000000">local makepath = pl_dir.makepath</text>
<text text-anchor="middle" x="1245.5" y="-162.8003" font-family="Inconsolata" font-size="14.00" fill="#000000">local extension = pl_path.extension</text>
<text text-anchor="middle" x="1245.5" y="-147.4003" font-family="Inconsolata" font-size="14.00" fill="#000000">local dirname = pl_path.dirname</text>
<text text-anchor="middle" x="1245.5" y="-132.0002" font-family="Inconsolata" font-size="14.00" fill="#000000">local basename = pl_path.basename</text>
<text text-anchor="middle" x="1245.5" y="-116.6002" font-family="Inconsolata" font-size="14.00" fill="#000000">local read = pl_file.read</text>
<text text-anchor="middle" x="1245.5" y="-101.2002" font-family="Inconsolata" font-size="14.00" fill="#000000">local write = pl_file.write</text>
<text text-anchor="middle" x="1245.5" y="-85.8002" font-family="Inconsolata" font-size="14.00" fill="#000000">local delete = pl_file.delete</text>
<text text-anchor="middle" x="1245.5" y="-70.4001" font-family="Inconsolata" font-size="14.00" fill="#000000">local isdir = pl_path.isdir</text>
<text text-anchor="middle" x="1245.5" y="-39.0001" font-family="Inconsolata" font-size="14.00" fill="#000000">local walk = &quot;walk&quot;</text>
</g>
<!-- codeblock_16&#45;&gt;leaf_17 -->
<g id="edge17" class="edge">
<title>codeblock_16&#45;&gt;leaf_17</title>
<path fill="none" stroke="#000000" stroke-dasharray="5,2" d="M1245.5,-494.7223C1245.5,-478.053 1245.5,-451.4709 1245.5,-421.2743"/>
<polygon fill="#000000" stroke="#000000" points="1249.0001,-420.9042 1245.5,-410.9042 1242.0001,-420.9043 1249.0001,-420.9042"/>
</g>
<!-- leaf_19 -->
<g id="node20" class="node">
<title>leaf_19</title>
<polygon fill="none" stroke="#c0c0c0" points="1847.5,-441.4013 1425.5,-441.4013 1425.5,-.1994 1847.5,-.1994 1847.5,-441.4013"/>
<text text-anchor="middle" x="1636.5" y="-410.4007" font-family="Inconsolata" font-size="14.00" fill="#000000">local pwd = &quot;&quot;</text>
<text text-anchor="middle" x="1636.5" y="-379.0007" font-family="Inconsolata" font-size="14.00" fill="#000000">if (arg) then</text>
<text text-anchor="middle" x="1636.5" y="-363.6007" font-family="Inconsolata" font-size="14.00" fill="#000000"> &#160;pwd = table.remove(arg, 1)</text>
<text text-anchor="middle" x="1636.5" y="-348.2007" font-family="Inconsolata" font-size="14.00" fill="#000000">else</text>
<text text-anchor="middle" x="1636.5" y="-332.8006" font-family="Inconsolata" font-size="14.00" fill="#000000"> &#160;os.exit(&quot;Must be called with a root codex directory&quot;, 1)</text>
<text text-anchor="middle" x="1636.5" y="-317.4006" font-family="Inconsolata" font-size="14.00" fill="#000000">end</text>
<text text-anchor="middle" x="1636.5" y="-286.0006" font-family="Inconsolata" font-size="14.00" fill="#000000">io.write(&quot;pwd: &quot; .. pwd .. &quot;\n&quot;)</text>
<text text-anchor="middle" x="1636.5" y="-254.6005" font-family="Inconsolata" font-size="14.00" fill="#000000">local grymback_rc = read(pwd .. &quot;/.grymback&quot;)</text>
<text text-anchor="middle" x="1636.5" y="-239.2005" font-family="Inconsolata" font-size="14.00" fill="#000000">if not grymback_rc then</text>
<text text-anchor="middle" x="1636.5" y="-223.8005" font-family="Inconsolata" font-size="14.00" fill="#000000"> &#160;s:chat(&quot;No contents in grymback. &#160;No action taken.&quot;)</text>
<text text-anchor="middle" x="1636.5" y="-208.4004" font-family="Inconsolata" font-size="14.00" fill="#000000"> &#160;os.exit()</text>
<text text-anchor="middle" x="1636.5" y="-193.0004" font-family="Inconsolata" font-size="14.00" fill="#000000">else</text>
<text text-anchor="middle" x="1636.5" y="-177.6004" font-family="Inconsolata" font-size="14.00" fill="#000000"> &#160;for _,v in ipairs(epeg.split(grymback_rc, &quot;\n&quot;)) do</text>
<text text-anchor="middle" x="1636.5" y="-162.2003" font-family="Inconsolata" font-size="14.00" fill="#000000"> &#160;&#160;&#160;if v ~= &quot;&quot; then</text>
<text text-anchor="middle" x="1636.5" y="-146.8003" font-family="Inconsolata" font-size="14.00" fill="#000000"> &#160;&#160;&#160;&#160;&#160;s:chat(&quot;Reverting &quot; .. a.cyan(grymback_rc))</text>
<text text-anchor="middle" x="1636.5" y="-131.4003" font-family="Inconsolata" font-size="14.00" fill="#000000"> &#160;&#160;&#160;&#160;&#160;s:chat(&quot;Reading &quot; .. a.green(pwd .. &quot;/tmp&quot; .. v))</text>
<text text-anchor="middle" x="1636.5" y="-116.0002" font-family="Inconsolata" font-size="14.00" fill="#000000"> &#160;&#160;&#160;&#160;&#160;local new_tmp = read(pwd .. &quot;/tmp&quot; .. v)</text>
<text text-anchor="middle" x="1636.5" y="-100.6002" font-family="Inconsolata" font-size="14.00" fill="#000000"> &#160;&#160;&#160;&#160;&#160;if new_tmp then</text>
<text text-anchor="middle" x="1636.5" y="-85.2002" font-family="Inconsolata" font-size="14.00" fill="#000000"> &#160;&#160;&#160;&#160;&#160;&#160;&#160;s:chat(&quot; &#160;&#45; writing&quot;)</text>
<text text-anchor="middle" x="1636.5" y="-69.8002" font-family="Inconsolata" font-size="14.00" fill="#000000"> &#160;&#160;&#160;&#160;&#160;&#160;&#160;write(v, read(pwd .. &quot;/tmp&quot; .. v))</text>
<text text-anchor="middle" x="1636.5" y="-54.4001" font-family="Inconsolata" font-size="14.00" fill="#000000"> &#160;&#160;&#160;&#160;&#160;end</text>
<text text-anchor="middle" x="1636.5" y="-39.0001" font-family="Inconsolata" font-size="14.00" fill="#000000"> &#160;&#160;&#160;end</text>
<text text-anchor="middle" x="1636.5" y="-23.6001" font-family="Inconsolata" font-size="14.00" fill="#000000"> &#160;end</text>
<text text-anchor="middle" x="1636.5" y="-8.2" font-family="Inconsolata" font-size="14.00" fill="#000000">end</text>
</g>
<!-- codeblock_18&#45;&gt;leaf_19 -->
<g id="edge19" class="edge">
<title>codeblock_18&#45;&gt;leaf_19</title>
<path fill="none" stroke="#000000" stroke-dasharray="5,2" d="M1576.5035,-494.7223C1578.8702,-483.9169 1582.1492,-468.9462 1585.9647,-451.5258"/>
<polygon fill="#000000" stroke="#000000" points="1589.4166,-452.124 1588.1373,-441.6067 1582.5787,-450.6262 1589.4166,-452.124"/>
</g>
</g>
</svg>