<?xml version="1.0" encoding="UTF-8" standalone="no"?>
<!DOCTYPE svg PUBLIC "-//W3C//DTD SVG 1.1//EN"
 "http://www.w3.org/Graphics/SVG/1.1/DTD/svg11.dtd">
<!-- Generated by graphviz version 2.40.1 (20161225.0304)
 -->
<!-- Title: hierarchy Pages: 1 -->
<svg width="2046pt" height="810pt"
 viewBox="0.00 0.00 2045.50 809.60" xmlns="http://www.w3.org/2000/svg" xmlns:xlink="http://www.w3.org/1999/xlink">
<g id="graph0" class="graph" transform="scale(1 1) rotate(0) translate(4 805.6007)">
<title>hierarchy</title>
<polygon fill="#ffffff" stroke="transparent" points="-4,4 -4,-805.6007 2041.5,-805.6007 2041.5,4 -4,4"/>
<!-- doc_0 -->
<g id="node1" class="node">
<title>doc_0</title>
<ellipse fill="none" stroke="#000000" cx="757.5" cy="-783.6007" rx="46.9581" ry="18"/>
<text text-anchor="middle" x="757.5" y="-779.4007" font-family="Helvetica,sans-Serif" font-size="14.00" fill="#000000">doc &#45; 103</text>
</g>
<!-- section_1 -->
<g id="node2" class="node">
<title>section_1</title>
<ellipse fill="none" stroke="#000000" cx="757.5" cy="-711.6007" rx="60.1778" ry="18"/>
<text text-anchor="middle" x="757.5" y="-707.4007" font-family="Helvetica,sans-Serif" font-size="14.00" fill="#000000">section: 1&#45;11</text>
</g>
<!-- doc_0&#45;&gt;section_1 -->
<g id="edge1" class="edge">
<title>doc_0&#45;&gt;section_1</title>
<path fill="none" stroke="#000000" stroke-dasharray="5,2" d="M757.5,-765.4321C757.5,-757.7317 757.5,-748.5751 757.5,-740.0174"/>
<polygon fill="#000000" stroke="#000000" points="761.0001,-740.014 757.5,-730.014 754.0001,-740.0141 761.0001,-740.014"/>
</g>
<!-- header_2 -->
<g id="node3" class="node">
<title>header_2</title>
<ellipse fill="none" stroke="#000000" cx="603.5" cy="-639.6007" rx="62.8772" ry="18"/>
<text text-anchor="middle" x="603.5" y="-635.4007" font-family="Helvetica,sans-Serif" font-size="14.00" fill="#000000">1 : Grymback</text>
</g>
<!-- section_1&#45;&gt;header_2 -->
<g id="edge2" class="edge">
<title>section_1&#45;&gt;header_2</title>
<path fill="none" stroke="#000000" stroke-dasharray="5,2" d="M724.8406,-696.3314C701.7451,-685.5335 670.5762,-670.961 645.6118,-659.2894"/>
<polygon fill="#000000" stroke="#000000" points="646.9187,-656.0368 636.3775,-654.972 643.9539,-662.378 646.9187,-656.0368"/>
</g>
<!-- prose_3 -->
<g id="node4" class="node">
<title>prose_3</title>
<ellipse fill="none" stroke="#000000" cx="716.5" cy="-639.6007" rx="32.4585" ry="18"/>
<text text-anchor="middle" x="716.5" y="-635.4007" font-family="Helvetica,sans-Serif" font-size="14.00" fill="#000000">prose</text>
</g>
<!-- section_1&#45;&gt;prose_3 -->
<g id="edge3" class="edge">
<title>section_1&#45;&gt;prose_3</title>
<path fill="none" stroke="#000000" stroke-dasharray="5,2" d="M747.3652,-693.803C742.5632,-685.3703 736.7315,-675.1293 731.4358,-665.8295"/>
<polygon fill="#000000" stroke="#000000" points="734.3667,-663.9032 726.3768,-656.9453 728.2838,-667.3671 734.3667,-663.9032"/>
</g>
<!-- prose_4 -->
<g id="node5" class="node">
<title>prose_4</title>
<ellipse fill="none" stroke="#000000" cx="798.5" cy="-639.6007" rx="32.4585" ry="18"/>
<text text-anchor="middle" x="798.5" y="-635.4007" font-family="Helvetica,sans-Serif" font-size="14.00" fill="#000000">prose</text>
</g>
<!-- section_1&#45;&gt;prose_4 -->
<g id="edge4" class="edge">
<title>section_1&#45;&gt;prose_4</title>
<path fill="none" stroke="#000000" stroke-dasharray="5,2" d="M767.6348,-693.803C772.4368,-685.3703 778.2685,-675.1293 783.5642,-665.8295"/>
<polygon fill="#000000" stroke="#000000" points="786.7162,-667.3671 788.6232,-656.9453 780.6333,-663.9032 786.7162,-667.3671"/>
</g>
<!-- section_5 -->
<g id="node6" class="node">
<title>section_5</title>
<ellipse fill="none" stroke="#000000" cx="1238.5" cy="-639.6007" rx="70.655" ry="18"/>
<text text-anchor="middle" x="1238.5" y="-635.4007" font-family="Helvetica,sans-Serif" font-size="14.00" fill="#000000">section: 12&#45;103</text>
</g>
<!-- section_1&#45;&gt;section_5 -->
<g id="edge5" class="edge">
<title>section_1&#45;&gt;section_5</title>
<path fill="none" stroke="#000000" stroke-dasharray="5,2" d="M811.2767,-703.551C898.4073,-690.5086 1070.4435,-664.7568 1167.5178,-650.2259"/>
<polygon fill="#000000" stroke="#000000" points="1168.1636,-653.6684 1177.5353,-648.7264 1167.1273,-646.7455 1168.1636,-653.6684"/>
</g>
<!-- leaf_6 -->
<g id="node7" class="node">
<title>leaf_6</title>
<polygon fill="none" stroke="#c0c0c0" points="646.5,-585.6007 560.5,-585.6007 560.5,-549.6007 646.5,-549.6007 646.5,-585.6007"/>
<text text-anchor="middle" x="603.5" y="-564.1008" font-family="Inconsolata" font-size="14.00" fill="#000000">* Grymback</text>
</g>
<!-- header_2&#45;&gt;leaf_6 -->
<g id="edge6" class="edge">
<title>header_2&#45;&gt;leaf_6</title>
<path fill="none" stroke="#000000" stroke-dasharray="5,2" d="M603.5,-621.4321C603.5,-613.7317 603.5,-604.5751 603.5,-596.0174"/>
<polygon fill="#000000" stroke="#000000" points="607.0001,-596.014 603.5,-586.014 600.0001,-596.0141 607.0001,-596.014"/>
</g>
<!-- raw_7 -->
<g id="node8" class="node">
<title>raw_7</title>
<ellipse fill="none" stroke="#000000" cx="703.5" cy="-567.6007" rx="27" ry="18"/>
<text text-anchor="middle" x="703.5" y="-563.4007" font-family="Helvetica,sans-Serif" font-size="14.00" fill="#000000">raw</text>
</g>
<!-- prose_3&#45;&gt;raw_7 -->
<g id="edge7" class="edge">
<title>prose_3&#45;&gt;raw_7</title>
<path fill="none" stroke="#000000" stroke-dasharray="5,2" d="M713.2196,-621.4321C711.8078,-613.6132 710.125,-604.293 708.5595,-595.6228"/>
<polygon fill="#000000" stroke="#000000" points="711.9556,-594.7331 706.7344,-585.5142 705.067,-595.977 711.9556,-594.7331"/>
</g>
<!-- raw_9 -->
<g id="node10" class="node">
<title>raw_9</title>
<ellipse fill="none" stroke="#000000" cx="798.5" cy="-567.6007" rx="27" ry="18"/>
<text text-anchor="middle" x="798.5" y="-563.4007" font-family="Helvetica,sans-Serif" font-size="14.00" fill="#000000">raw</text>
</g>
<!-- prose_4&#45;&gt;raw_9 -->
<g id="edge9" class="edge">
<title>prose_4&#45;&gt;raw_9</title>
<path fill="none" stroke="#000000" stroke-dasharray="5,2" d="M798.5,-621.4321C798.5,-613.7317 798.5,-604.5751 798.5,-596.0174"/>
<polygon fill="#000000" stroke="#000000" points="802.0001,-596.014 798.5,-586.014 795.0001,-596.0141 802.0001,-596.014"/>
</g>
<!-- header_11 -->
<g id="node12" class="node">
<title>header_11</title>
<ellipse fill="none" stroke="#000000" cx="1133.5" cy="-567.6007" rx="54.6851" ry="18"/>
<text text-anchor="middle" x="1133.5" y="-563.4007" font-family="Helvetica,sans-Serif" font-size="14.00" fill="#000000">3 : includes</text>
</g>
<!-- section_5&#45;&gt;header_11 -->
<g id="edge11" class="edge">
<title>section_5&#45;&gt;header_11</title>
<path fill="none" stroke="#000000" stroke-dasharray="5,2" d="M1213.8822,-622.7199C1199.4596,-612.8302 1181.0822,-600.2285 1165.5405,-589.5714"/>
<polygon fill="#000000" stroke="#000000" points="1167.4677,-586.6491 1157.2411,-583.8803 1163.509,-592.4222 1167.4677,-586.6491"/>
</g>
<!-- prose_12 -->
<g id="node13" class="node">
<title>prose_12</title>
<ellipse fill="none" stroke="#000000" cx="1238.5" cy="-567.6007" rx="32.4585" ry="18"/>
<text text-anchor="middle" x="1238.5" y="-563.4007" font-family="Helvetica,sans-Serif" font-size="14.00" fill="#000000">prose</text>
</g>
<!-- section_5&#45;&gt;prose_12 -->
<g id="edge12" class="edge">
<title>section_5&#45;&gt;prose_12</title>
<path fill="none" stroke="#000000" stroke-dasharray="5,2" d="M1238.5,-621.4321C1238.5,-613.7317 1238.5,-604.5751 1238.5,-596.0174"/>
<polygon fill="#000000" stroke="#000000" points="1242.0001,-596.014 1238.5,-586.014 1235.0001,-596.0141 1242.0001,-596.014"/>
</g>
<!-- codeblock_13 -->
<g id="node14" class="node">
<title>codeblock_13</title>
<ellipse fill="none" stroke="#000000" cx="1400.5" cy="-567.6007" rx="77.4211" ry="18"/>
<text text-anchor="middle" x="1400.5" y="-563.4007" font-family="Helvetica,sans-Serif" font-size="14.00" fill="#000000">code block 14&#45;39</text>
</g>
<!-- section_5&#45;&gt;codeblock_13 -->
<g id="edge13" class="edge">
<title>section_5&#45;&gt;codeblock_13</title>
<path fill="none" stroke="#000000" stroke-dasharray="5,2" d="M1273.6516,-623.9778C1297.6037,-613.3324 1329.5312,-599.1424 1355.3621,-587.6621"/>
<polygon fill="#000000" stroke="#000000" points="1356.8602,-590.8264 1364.5768,-583.5666 1354.0172,-584.4297 1356.8602,-590.8264"/>
</g>
<!-- codeblock_14 -->
<g id="node15" class="node">
<title>codeblock_14</title>
<ellipse fill="none" stroke="#000000" cx="1699.5" cy="-567.6007" rx="77.4211" ry="18"/>
<text text-anchor="middle" x="1699.5" y="-563.4007" font-family="Helvetica,sans-Serif" font-size="14.00" fill="#000000">code block 43&#45;72</text>
</g>
<!-- section_5&#45;&gt;codeblock_14 -->
<g id="edge14" class="edge">
<title>section_5&#45;&gt;codeblock_14</title>
<path fill="none" stroke="#000000" stroke-dasharray="5,2" d="M1298.7677,-630.188C1382.6318,-617.0899 1534.4246,-593.3826 1625.1943,-579.206"/>
<polygon fill="#000000" stroke="#000000" points="1625.7983,-582.6542 1635.1384,-577.6529 1624.7181,-575.738 1625.7983,-582.6542"/>
</g>
<!-- leaf_8 -->
<g id="node9" class="node">
<title>leaf_8</title>
<polygon fill="none" stroke="#c0c0c0" points="513,-336.1007 0,-336.1007 0,-249.5001 513,-249.5001 513,-336.1007"/>
<text text-anchor="middle" x="256.5" y="-273.0004" font-family="Inconsolata" font-size="14.00" fill="#000000"> &#160;This is a standalone program to restore grym in the event that a knit</text>
<text text-anchor="middle" x="256.5" y="-257.6004" font-family="Inconsolata" font-size="14.00" fill="#000000">results in an unusable grym module.</text>
</g>
<!-- raw_7&#45;&gt;leaf_8 -->
<g id="edge8" class="edge">
<title>raw_7&#45;&gt;leaf_8</title>
<path fill="none" stroke="#000000" stroke-dasharray="5,2" d="M680.218,-558.3653C672.4158,-555.4059 663.6327,-552.2198 655.5,-549.6007 597.2099,-530.8287 576.8582,-541.802 522.5,-513.6007 436.9403,-469.212 354.0433,-393.6179 304.1416,-343.4417"/>
<polygon fill="#000000" stroke="#000000" points="306.5383,-340.8875 297.0221,-336.2299 301.5567,-345.8053 306.5383,-340.8875"/>
</g>
<!-- leaf_10 -->
<g id="node11" class="node">
<title>leaf_10</title>
<polygon fill="none" stroke="#c0c0c0" points="1065.5,-335.4014 531.5,-335.4014 531.5,-250.1993 1065.5,-250.1993 1065.5,-335.4014"/>
<text text-anchor="middle" x="798.5" y="-304.4004" font-family="Inconsolata" font-size="14.00" fill="#000000">The plan: A =.grym= file in the root directory will contain any</text>
<text text-anchor="middle" x="798.5" y="-289.0004" font-family="Inconsolata" font-size="14.00" fill="#000000">knit&#45;modified files from the last pass. &#160;=grym= itself will read and write</text>
<text text-anchor="middle" x="798.5" y="-273.6004" font-family="Inconsolata" font-size="14.00" fill="#000000">to the .grym file, maintaining a data structure in the meantime; this will</text>
<text text-anchor="middle" x="798.5" y="-258.2003" font-family="Inconsolata" font-size="14.00" fill="#000000">be in Lua&#45;native table format, at first, eventually Clu(den).</text>
</g>
<!-- raw_9&#45;&gt;leaf_10 -->
<g id="edge10" class="edge">
<title>raw_9&#45;&gt;leaf_10</title>
<path fill="none" stroke="#000000" stroke-dasharray="5,2" d="M798.5,-549.5703C798.5,-508.7946 798.5,-408.1871 798.5,-345.699"/>
<polygon fill="#000000" stroke="#000000" points="802.0001,-345.6342 798.5,-335.6342 795.0001,-345.6342 802.0001,-345.6342"/>
</g>
<!-- leaf_15 -->
<g id="node16" class="node">
<title>leaf_15</title>
<polygon fill="none" stroke="#c0c0c0" points="1183.5,-310.8004 1083.5,-310.8004 1083.5,-274.8004 1183.5,-274.8004 1183.5,-310.8004"/>
<text text-anchor="middle" x="1133.5" y="-289.3004" font-family="Inconsolata" font-size="14.00" fill="#000000">*** includes</text>
</g>
<!-- header_11&#45;&gt;leaf_15 -->
<g id="edge15" class="edge">
<title>header_11&#45;&gt;leaf_15</title>
<path fill="none" stroke="#000000" stroke-dasharray="5,2" d="M1133.5,-549.5703C1133.5,-502.8902 1133.5,-377.7962 1133.5,-321.2491"/>
<polygon fill="#000000" stroke="#000000" points="1137.0001,-320.8972 1133.5,-310.8972 1130.0001,-320.8972 1137.0001,-320.8972"/>
</g>
<!-- raw_16 -->
<g id="node17" class="node">
<title>raw_16</title>
<ellipse fill="none" stroke="#000000" cx="1228.5" cy="-292.8004" rx="27" ry="18"/>
<text text-anchor="middle" x="1228.5" y="-288.6004" font-family="Helvetica,sans-Serif" font-size="14.00" fill="#000000">raw</text>
</g>
<!-- prose_12&#45;&gt;raw_16 -->
<g id="edge16" class="edge">
<title>prose_12&#45;&gt;raw_16</title>
<path fill="none" stroke="#000000" stroke-dasharray="5,2" d="M1237.8439,-549.5703C1236.1416,-502.7929 1231.574,-377.2747 1229.5224,-320.8966"/>
<polygon fill="#000000" stroke="#000000" points="1233.02,-320.7633 1229.1585,-310.8972 1226.0246,-321.0179 1233.02,-320.7633"/>
</g>
<!-- leaf_18 -->
<g id="node19" class="node">
<title>leaf_18</title>
<polygon fill="none" stroke="#c0c0c0" points="1597.5,-482.801 1273.5,-482.801 1273.5,-102.7998 1597.5,-102.7998 1597.5,-482.801"/>
<text text-anchor="middle" x="1435.5" y="-467.6007" font-family="Inconsolata" font-size="14.00" fill="#000000">local L = require &quot;lpeg&quot;</text>
<text text-anchor="middle" x="1435.5" y="-436.2007" font-family="Inconsolata" font-size="14.00" fill="#000000">local s = require &quot;lib/status&quot;</text>
<text text-anchor="middle" x="1435.5" y="-420.8006" font-family="Inconsolata" font-size="14.00" fill="#000000">local u = require &quot;lib/util&quot;</text>
<text text-anchor="middle" x="1435.5" y="-405.4006" font-family="Inconsolata" font-size="14.00" fill="#000000">local a = require &quot;lib/ansi&quot;</text>
<text text-anchor="middle" x="1435.5" y="-390.0006" font-family="Inconsolata" font-size="14.00" fill="#000000">s.chatty = true</text>
<text text-anchor="middle" x="1435.5" y="-358.6005" font-family="Inconsolata" font-size="14.00" fill="#000000">local epeg = require &quot;peg/epeg&quot;</text>
<text text-anchor="middle" x="1435.5" y="-327.2005" font-family="Inconsolata" font-size="14.00" fill="#000000">local pl_file = require &quot;pl.file&quot;</text>
<text text-anchor="middle" x="1435.5" y="-311.8005" font-family="Inconsolata" font-size="14.00" fill="#000000">local pl_dir = require &quot;pl.dir&quot;</text>
<text text-anchor="middle" x="1435.5" y="-296.4004" font-family="Inconsolata" font-size="14.00" fill="#000000">local pl_path = require &quot;pl.path&quot;</text>
<text text-anchor="middle" x="1435.5" y="-281.0004" font-family="Inconsolata" font-size="14.00" fill="#000000">local getfiles = pl_dir.getfiles</text>
<text text-anchor="middle" x="1435.5" y="-265.6004" font-family="Inconsolata" font-size="14.00" fill="#000000">local getdirectories = pl_dir.getdirectories</text>
<text text-anchor="middle" x="1435.5" y="-250.2003" font-family="Inconsolata" font-size="14.00" fill="#000000">local makepath = pl_dir.makepath</text>
<text text-anchor="middle" x="1435.5" y="-234.8003" font-family="Inconsolata" font-size="14.00" fill="#000000">local extension = pl_path.extension</text>
<text text-anchor="middle" x="1435.5" y="-219.4003" font-family="Inconsolata" font-size="14.00" fill="#000000">local dirname = pl_path.dirname</text>
<text text-anchor="middle" x="1435.5" y="-204.0002" font-family="Inconsolata" font-size="14.00" fill="#000000">local basename = pl_path.basename</text>
<text text-anchor="middle" x="1435.5" y="-188.6002" font-family="Inconsolata" font-size="14.00" fill="#000000">local read = pl_file.read</text>
<text text-anchor="middle" x="1435.5" y="-173.2002" font-family="Inconsolata" font-size="14.00" fill="#000000">local write = pl_file.write</text>
<text text-anchor="middle" x="1435.5" y="-157.8002" font-family="Inconsolata" font-size="14.00" fill="#000000">local delete = pl_file.delete</text>
<text text-anchor="middle" x="1435.5" y="-142.4001" font-family="Inconsolata" font-size="14.00" fill="#000000">local isdir = pl_path.isdir</text>
<text text-anchor="middle" x="1435.5" y="-111.0001" font-family="Inconsolata" font-size="14.00" fill="#000000">local walk = &quot;walk&quot;</text>
</g>
<!-- codeblock_13&#45;&gt;leaf_18 -->
<g id="edge18" class="edge">
<title>codeblock_13&#45;&gt;leaf_18</title>
<path fill="none" stroke="#000000" stroke-dasharray="5,2" d="M1402.7964,-549.5703C1404.5131,-536.0924 1407.0623,-516.0776 1409.9935,-493.0631"/>
<polygon fill="#000000" stroke="#000000" points="1413.4802,-493.3886 1411.2718,-483.0264 1406.5363,-492.5041 1413.4802,-493.3886"/>
</g>
<!-- leaf_19 -->
<g id="node20" class="node">
<title>leaf_19</title>
<polygon fill="none" stroke="#c0c0c0" points="2037.5,-513.4013 1615.5,-513.4013 1615.5,-72.1994 2037.5,-72.1994 2037.5,-513.4013"/>
<text text-anchor="middle" x="1826.5" y="-482.4007" font-family="Inconsolata" font-size="14.00" fill="#000000">local pwd = &quot;&quot;</text>
<text text-anchor="middle" x="1826.5" y="-451.0007" font-family="Inconsolata" font-size="14.00" fill="#000000">if (arg) then</text>
<text text-anchor="middle" x="1826.5" y="-435.6007" font-family="Inconsolata" font-size="14.00" fill="#000000"> &#160;pwd = table.remove(arg, 1)</text>
<text text-anchor="middle" x="1826.5" y="-420.2007" font-family="Inconsolata" font-size="14.00" fill="#000000">else</text>
<text text-anchor="middle" x="1826.5" y="-404.8006" font-family="Inconsolata" font-size="14.00" fill="#000000"> &#160;os.exit(&quot;Must be called with a root codex directory&quot;, 1)</text>
<text text-anchor="middle" x="1826.5" y="-389.4006" font-family="Inconsolata" font-size="14.00" fill="#000000">end</text>
<text text-anchor="middle" x="1826.5" y="-358.0006" font-family="Inconsolata" font-size="14.00" fill="#000000">io.write(&quot;pwd: &quot; .. pwd .. &quot;\n&quot;)</text>
<text text-anchor="middle" x="1826.5" y="-326.6005" font-family="Inconsolata" font-size="14.00" fill="#000000">local grymback_rc = read(pwd .. &quot;/.grymback&quot;)</text>
<text text-anchor="middle" x="1826.5" y="-311.2005" font-family="Inconsolata" font-size="14.00" fill="#000000">if not grymback_rc then</text>
<text text-anchor="middle" x="1826.5" y="-295.8005" font-family="Inconsolata" font-size="14.00" fill="#000000"> &#160;s:chat(&quot;No contents in grymback. &#160;No action taken.&quot;)</text>
<text text-anchor="middle" x="1826.5" y="-280.4004" font-family="Inconsolata" font-size="14.00" fill="#000000"> &#160;os.exit()</text>
<text text-anchor="middle" x="1826.5" y="-265.0004" font-family="Inconsolata" font-size="14.00" fill="#000000">else</text>
<text text-anchor="middle" x="1826.5" y="-249.6004" font-family="Inconsolata" font-size="14.00" fill="#000000"> &#160;for _,v in ipairs(epeg.split(grymback_rc, &quot;\n&quot;)) do</text>
<text text-anchor="middle" x="1826.5" y="-234.2003" font-family="Inconsolata" font-size="14.00" fill="#000000"> &#160;&#160;&#160;if v ~= &quot;&quot; then</text>
<text text-anchor="middle" x="1826.5" y="-218.8003" font-family="Inconsolata" font-size="14.00" fill="#000000"> &#160;&#160;&#160;&#160;&#160;s:chat(&quot;Reverting &quot; .. a.cyan(grymback_rc))</text>
<text text-anchor="middle" x="1826.5" y="-203.4003" font-family="Inconsolata" font-size="14.00" fill="#000000"> &#160;&#160;&#160;&#160;&#160;s:chat(&quot;Reading &quot; .. a.green(pwd .. &quot;/tmp&quot; .. v))</text>
<text text-anchor="middle" x="1826.5" y="-188.0002" font-family="Inconsolata" font-size="14.00" fill="#000000"> &#160;&#160;&#160;&#160;&#160;local new_tmp = read(pwd .. &quot;/tmp&quot; .. v)</text>
<text text-anchor="middle" x="1826.5" y="-172.6002" font-family="Inconsolata" font-size="14.00" fill="#000000"> &#160;&#160;&#160;&#160;&#160;if new_tmp then</text>
<text text-anchor="middle" x="1826.5" y="-157.2002" font-family="Inconsolata" font-size="14.00" fill="#000000"> &#160;&#160;&#160;&#160;&#160;&#160;&#160;s:chat(&quot; &#160;&#45; writing&quot;)</text>
<text text-anchor="middle" x="1826.5" y="-141.8002" font-family="Inconsolata" font-size="14.00" fill="#000000"> &#160;&#160;&#160;&#160;&#160;&#160;&#160;write(v, read(pwd .. &quot;/tmp&quot; .. v))</text>
<text text-anchor="middle" x="1826.5" y="-126.4001" font-family="Inconsolata" font-size="14.00" fill="#000000"> &#160;&#160;&#160;&#160;&#160;end</text>
<text text-anchor="middle" x="1826.5" y="-111.0001" font-family="Inconsolata" font-size="14.00" fill="#000000"> &#160;&#160;&#160;end</text>
<text text-anchor="middle" x="1826.5" y="-95.6001" font-family="Inconsolata" font-size="14.00" fill="#000000"> &#160;end</text>
<text text-anchor="middle" x="1826.5" y="-80.2" font-family="Inconsolata" font-size="14.00" fill="#000000">end</text>
</g>
<!-- codeblock_14&#45;&gt;leaf_19 -->
<g id="edge19" class="edge">
<title>codeblock_14&#45;&gt;leaf_19</title>
<path fill="none" stroke="#000000" stroke-dasharray="5,2" d="M1707.8328,-549.5703C1711.1956,-542.294 1715.4389,-533.1125 1720.3054,-522.5824"/>
<polygon fill="#000000" stroke="#000000" points="1723.5161,-523.9779 1724.5343,-513.4321 1717.1619,-521.0412 1723.5161,-523.9779"/>
</g>
<!-- leaf_17 -->
<g id="node18" class="node">
<title>leaf_17</title>
<polygon fill="none" stroke="#c0c0c0" points="1255.5,-36 1201.5,-36 1201.5,0 1255.5,0 1255.5,-36"/>
</g>
<!-- raw_16&#45;&gt;leaf_17 -->
<g id="edge17" class="edge">
<title>raw_16&#45;&gt;leaf_17</title>
<path fill="none" stroke="#000000" stroke-dasharray="5,2" d="M1228.5,-274.77C1228.5,-228.0898 1228.5,-102.9959 1228.5,-46.4487"/>
<polygon fill="#000000" stroke="#000000" points="1232.0001,-46.0968 1228.5,-36.0968 1225.0001,-46.0968 1232.0001,-46.0968"/>
</g>
</g>
</svg>