<?xml version="1.0" encoding="UTF-8" standalone="no"?>
<!DOCTYPE svg PUBLIC "-//W3C//DTD SVG 1.1//EN"
 "http://www.w3.org/Graphics/SVG/1.1/DTD/svg11.dtd">
<!-- Generated by graphviz version 2.40.1 (20161225.0304)
 -->
<!-- Title: hierarchy Pages: 1 -->
<svg width="2470pt" height="1341pt"
 viewBox="0.00 0.00 2469.50 1341.40" xmlns="http://www.w3.org/2000/svg" xmlns:xlink="http://www.w3.org/1999/xlink">
<g id="graph0" class="graph" transform="scale(1 1) rotate(0) translate(4 1337.4016)">
<title>hierarchy</title>
<polygon fill="#ffffff" stroke="transparent" points="-4,4 -4,-1337.4016 2465.5,-1337.4016 2465.5,4 -4,4"/>
<!-- doc_0 -->
<g id="node1" class="node">
<title>doc_0</title>
<ellipse fill="none" stroke="#000000" cx="332.5" cy="-1315.4016" rx="27" ry="18"/>
<text text-anchor="middle" x="332.5" y="-1311.2016" font-family="Helvetica,sans-Serif" font-size="14.00" fill="#000000">23 &#160;</text>
</g>
<!-- section_1 -->
<g id="node2" class="node">
<title>section_1</title>
<ellipse fill="none" stroke="#000000" cx="332.5" cy="-1243.4016" rx="27" ry="18"/>
<text text-anchor="middle" x="332.5" y="-1239.2016" font-family="Helvetica,sans-Serif" font-size="14.00" fill="#000000">41 &#160;</text>
</g>
<!-- doc_0&#45;&gt;section_1 -->
<g id="edge1" class="edge">
<title>doc_0&#45;&gt;section_1</title>
<path fill="none" stroke="#000000" stroke-dasharray="5,2" d="M332.5,-1297.233C332.5,-1289.5325 332.5,-1280.3759 332.5,-1271.8182"/>
<polygon fill="#000000" stroke="#000000" points="336.0001,-1271.8148 332.5,-1261.8149 329.0001,-1271.8149 336.0001,-1271.8148"/>
</g>
<!-- header_2 -->
<g id="node3" class="node">
<title>header_2</title>
<ellipse fill="none" stroke="#000000" cx="224.5" cy="-1171.4016" rx="27" ry="18"/>
<text text-anchor="middle" x="224.5" y="-1167.2016" font-family="Helvetica,sans-Serif" font-size="14.00" fill="#000000">e &#160;&#160;</text>
</g>
<!-- section_1&#45;&gt;header_2 -->
<g id="edge2" class="edge">
<title>section_1&#45;&gt;header_2</title>
<path fill="none" stroke="#000000" stroke-dasharray="5,2" d="M313.1918,-1230.5294C296.1445,-1219.1646 271.0981,-1202.467 251.9656,-1189.712"/>
<polygon fill="#000000" stroke="#000000" points="253.9031,-1186.7972 243.6411,-1184.1623 250.0201,-1192.6215 253.9031,-1186.7972"/>
</g>
<!-- block_3 -->
<g id="node4" class="node">
<title>block_3</title>
<ellipse fill="none" stroke="#000000" cx="296.5" cy="-1171.4016" rx="27" ry="18"/>
<text text-anchor="middle" x="296.5" y="-1167.2016" font-family="Helvetica,sans-Serif" font-size="14.00" fill="#000000">41 &#160;</text>
</g>
<!-- section_1&#45;&gt;block_3 -->
<g id="edge3" class="edge">
<title>section_1&#45;&gt;block_3</title>
<path fill="none" stroke="#000000" stroke-dasharray="5,2" d="M323.7854,-1225.9724C319.5403,-1217.4823 314.3464,-1207.0944 309.6337,-1197.669"/>
<polygon fill="#000000" stroke="#000000" points="312.737,-1196.0493 305.1343,-1188.6703 306.476,-1199.1798 312.737,-1196.0493"/>
</g>
<!-- section_4 -->
<g id="node5" class="node">
<title>section_4</title>
<ellipse fill="none" stroke="#000000" cx="368.5" cy="-1171.4016" rx="27" ry="18"/>
<text text-anchor="middle" x="368.5" y="-1167.2016" font-family="Helvetica,sans-Serif" font-size="14.00" fill="#000000">41 &#160;</text>
</g>
<!-- section_1&#45;&gt;section_4 -->
<g id="edge4" class="edge">
<title>section_1&#45;&gt;section_4</title>
<path fill="none" stroke="#000000" stroke-dasharray="5,2" d="M341.2146,-1225.9724C345.4597,-1217.4823 350.6536,-1207.0944 355.3663,-1197.669"/>
<polygon fill="#000000" stroke="#000000" points="358.524,-1199.1798 359.8657,-1188.6703 352.263,-1196.0493 358.524,-1199.1798"/>
</g>
<!-- section_5 -->
<g id="node6" class="node">
<title>section_5</title>
<ellipse fill="none" stroke="#000000" cx="1365.5" cy="-1171.4016" rx="27" ry="18"/>
<text text-anchor="middle" x="1365.5" y="-1167.2016" font-family="Helvetica,sans-Serif" font-size="14.00" fill="#000000">01 &#160;</text>
</g>
<!-- section_1&#45;&gt;section_5 -->
<g id="edge5" class="edge">
<title>section_1&#45;&gt;section_5</title>
<path fill="none" stroke="#000000" stroke-dasharray="5,2" d="M359.5993,-1241.5128C501.9511,-1231.5909 1162.974,-1185.5176 1328.0613,-1174.0111"/>
<polygon fill="#000000" stroke="#000000" points="1328.4749,-1177.4908 1338.2073,-1173.3039 1327.9882,-1170.5078 1328.4749,-1177.4908"/>
</g>
<!-- leaf_6 -->
<g id="node7" class="node">
<title>leaf_6</title>
<polygon fill="none" stroke="#c0c0c0" points="251.5,-1117.6031 11.5,-1117.6031 11.5,-1061.8001 251.5,-1061.8001 251.5,-1117.6031"/>
<text text-anchor="middle" x="131.5" y="-1086.2016" font-family="Inconsolata" font-size="14.00" fill="#000000">A metalanguage for magic spells.</text>
</g>
<!-- block_3&#45;&gt;leaf_6 -->
<g id="edge6" class="edge">
<title>block_3&#45;&gt;leaf_6</title>
<path fill="none" stroke="#000000" stroke-dasharray="5,2" d="M274.8067,-1160.5331C270.0924,-1158.1773 265.1307,-1155.7026 260.5,-1153.4016 239.9387,-1143.1848 217.5111,-1132.0921 197.2086,-1122.0699"/>
<polygon fill="#000000" stroke="#000000" points="198.5607,-1118.8342 188.0442,-1117.5474 195.4629,-1125.1115 198.5607,-1118.8342"/>
</g>
<!-- header_7 -->
<g id="node8" class="node">
<title>header_7</title>
<ellipse fill="none" stroke="#000000" cx="296.5" cy="-1089.7016" rx="27" ry="18"/>
<text text-anchor="middle" x="296.5" y="-1085.5016" font-family="Helvetica,sans-Serif" font-size="14.00" fill="#000000">es &#160;</text>
</g>
<!-- section_4&#45;&gt;header_7 -->
<g id="edge7" class="edge">
<title>section_4&#45;&gt;header_7</title>
<path fill="none" stroke="#000000" stroke-dasharray="5,2" d="M354.6177,-1155.649C343.9598,-1143.5553 329.0794,-1126.6701 317.0439,-1113.0131"/>
<polygon fill="#000000" stroke="#000000" points="319.5772,-1110.5941 310.3397,-1105.4058 314.3256,-1115.2223 319.5772,-1110.5941"/>
</g>
<!-- block_8 -->
<g id="node9" class="node">
<title>block_8</title>
<ellipse fill="none" stroke="#000000" cx="368.5" cy="-1089.7016" rx="27" ry="18"/>
<text text-anchor="middle" x="368.5" y="-1085.5016" font-family="Helvetica,sans-Serif" font-size="14.00" fill="#000000">&#45;8 &#160;</text>
</g>
<!-- section_4&#45;&gt;block_8 -->
<g id="edge8" class="edge">
<title>section_4&#45;&gt;block_8</title>
<path fill="none" stroke="#000000" stroke-dasharray="5,2" d="M368.5,-1153.2697C368.5,-1142.9038 368.5,-1129.6763 368.5,-1117.9745"/>
<polygon fill="#000000" stroke="#000000" points="372.0001,-1117.7827 368.5,-1107.7828 365.0001,-1117.7828 372.0001,-1117.7827"/>
</g>
<!-- block_9 -->
<g id="node10" class="node">
<title>block_9</title>
<ellipse fill="none" stroke="#000000" cx="440.5" cy="-1089.7016" rx="27" ry="18"/>
<text text-anchor="middle" x="440.5" y="-1085.5016" font-family="Helvetica,sans-Serif" font-size="14.00" fill="#000000">41 &#160;</text>
</g>
<!-- section_4&#45;&gt;block_9 -->
<g id="edge9" class="edge">
<title>section_4&#45;&gt;block_9</title>
<path fill="none" stroke="#000000" stroke-dasharray="5,2" d="M382.3823,-1155.649C393.0402,-1143.5553 407.9206,-1126.6701 419.9561,-1113.0131"/>
<polygon fill="#000000" stroke="#000000" points="422.6744,-1115.2223 426.6603,-1105.4058 417.4228,-1110.5941 422.6744,-1115.2223"/>
</g>
<!-- header_14 -->
<g id="node15" class="node">
<title>header_14</title>
<ellipse fill="none" stroke="#000000" cx="1221.5" cy="-1089.7016" rx="27" ry="18"/>
<text text-anchor="middle" x="1221.5" y="-1085.5016" font-family="Helvetica,sans-Serif" font-size="14.00" fill="#000000">ng &#160;</text>
</g>
<!-- section_5&#45;&gt;header_14 -->
<g id="edge14" class="edge">
<title>section_5&#45;&gt;header_14</title>
<path fill="none" stroke="#000000" stroke-dasharray="5,2" d="M1342.4761,-1161.4516C1320.1283,-1151.436 1285.5672,-1134.9881 1257.5,-1117.4016 1253.8914,-1115.1405 1250.2034,-1112.6008 1246.63,-1110.0007"/>
<polygon fill="#000000" stroke="#000000" points="1248.68,-1107.1628 1238.5915,-1103.9265 1244.4599,-1112.7477 1248.68,-1107.1628"/>
</g>
<!-- block_15 -->
<g id="node16" class="node">
<title>block_15</title>
<ellipse fill="none" stroke="#000000" cx="1293.5" cy="-1089.7016" rx="27" ry="18"/>
<text text-anchor="middle" x="1293.5" y="-1085.5016" font-family="Helvetica,sans-Serif" font-size="14.00" fill="#000000">46 &#160;</text>
</g>
<!-- section_5&#45;&gt;block_15 -->
<g id="edge15" class="edge">
<title>section_5&#45;&gt;block_15</title>
<path fill="none" stroke="#000000" stroke-dasharray="5,2" d="M1351.6177,-1155.649C1340.9598,-1143.5553 1326.0794,-1126.6701 1314.0439,-1113.0131"/>
<polygon fill="#000000" stroke="#000000" points="1316.5772,-1110.5941 1307.3397,-1105.4058 1311.3256,-1115.2223 1316.5772,-1110.5941"/>
</g>
<!-- block_16 -->
<g id="node17" class="node">
<title>block_16</title>
<ellipse fill="none" stroke="#000000" cx="1365.5" cy="-1089.7016" rx="27" ry="18"/>
<text text-anchor="middle" x="1365.5" y="-1085.5016" font-family="Helvetica,sans-Serif" font-size="14.00" fill="#000000">49 &#160;</text>
</g>
<!-- section_5&#45;&gt;block_16 -->
<g id="edge16" class="edge">
<title>section_5&#45;&gt;block_16</title>
<path fill="none" stroke="#000000" stroke-dasharray="5,2" d="M1365.5,-1153.2697C1365.5,-1142.9038 1365.5,-1129.6763 1365.5,-1117.9745"/>
<polygon fill="#000000" stroke="#000000" points="1369.0001,-1117.7827 1365.5,-1107.7828 1362.0001,-1117.7828 1369.0001,-1117.7827"/>
</g>
<!-- block_17 -->
<g id="node18" class="node">
<title>block_17</title>
<ellipse fill="none" stroke="#000000" cx="1540.5" cy="-1089.7016" rx="27" ry="18"/>
<text text-anchor="middle" x="1540.5" y="-1085.5016" font-family="Helvetica,sans-Serif" font-size="14.00" fill="#000000">01 &#160;</text>
</g>
<!-- section_5&#45;&gt;block_17 -->
<g id="edge17" class="edge">
<title>section_5&#45;&gt;block_17</title>
<path fill="none" stroke="#000000" stroke-dasharray="5,2" d="M1387.6639,-1161.0542C1418.349,-1146.7287 1473.9405,-1120.7754 1508.9496,-1104.4311"/>
<polygon fill="#000000" stroke="#000000" points="1510.6598,-1107.4954 1518.2404,-1100.0936 1507.6986,-1101.1526 1510.6598,-1107.4954"/>
</g>
<!-- section_18 -->
<g id="node19" class="node">
<title>section_18</title>
<ellipse fill="none" stroke="#000000" cx="1720.5" cy="-1089.7016" rx="27" ry="18"/>
<text text-anchor="middle" x="1720.5" y="-1085.5016" font-family="Helvetica,sans-Serif" font-size="14.00" fill="#000000">01 &#160;</text>
</g>
<!-- section_5&#45;&gt;section_18 -->
<g id="edge18" class="edge">
<title>section_5&#45;&gt;section_18</title>
<path fill="none" stroke="#000000" stroke-dasharray="5,2" d="M1391.0307,-1165.5259C1453.3091,-1151.1931 1613.1555,-1114.4059 1684.8132,-1097.9146"/>
<polygon fill="#000000" stroke="#000000" points="1685.7634,-1101.2875 1694.7236,-1095.6338 1684.1934,-1094.4658 1685.7634,-1101.2875"/>
</g>
<!-- section_19 -->
<g id="node20" class="node">
<title>section_19</title>
<ellipse fill="none" stroke="#000000" cx="2050.5" cy="-1089.7016" rx="27" ry="18"/>
<text text-anchor="middle" x="2050.5" y="-1085.5016" font-family="Helvetica,sans-Serif" font-size="14.00" fill="#000000">23 &#160;</text>
</g>
<!-- section_5&#45;&gt;section_19 -->
<g id="edge19" class="edge">
<title>section_5&#45;&gt;section_19</title>
<path fill="none" stroke="#000000" stroke-dasharray="5,2" d="M1392.3528,-1168.1989C1498.8285,-1155.4995 1891.4663,-1108.6695 2013.8357,-1094.0745"/>
<polygon fill="#000000" stroke="#000000" points="2014.3177,-1097.5419 2023.8328,-1092.8822 2013.4887,-1090.5912 2014.3177,-1097.5419"/>
</g>
<!-- leaf_10 -->
<g id="node11" class="node">
<title>leaf_10</title>
<polygon fill="none" stroke="#c0c0c0" points="359,-1018.503 0,-1018.503 0,-962.7 359,-962.7 359,-1018.503"/>
<text text-anchor="middle" x="179.5" y="-987.1015" font-family="Inconsolata" font-size="14.00" fill="#000000">Like any main entry =grym.lua= is mostly imports.</text>
</g>
<!-- block_8&#45;&gt;leaf_10 -->
<g id="edge10" class="edge">
<title>block_8&#45;&gt;leaf_10</title>
<path fill="none" stroke="#000000" stroke-dasharray="5,2" d="M351.4715,-1075.3746C345.6487,-1070.8127 338.969,-1065.9342 332.5,-1062.0016 308.7355,-1047.5544 281.5701,-1034.0086 256.7891,-1022.6805"/>
<polygon fill="#000000" stroke="#000000" points="257.9747,-1019.3756 247.4204,-1018.4502 255.094,-1025.7554 257.9747,-1019.3756"/>
</g>
<!-- codeblock_11 -->
<g id="node12" class="node">
<title>codeblock_11</title>
<ellipse fill="none" stroke="#000000" cx="404.5" cy="-990.6015" rx="27" ry="18"/>
<text text-anchor="middle" x="404.5" y="-986.4015" font-family="Helvetica,sans-Serif" font-size="14.00" fill="#000000">40 &#160;</text>
</g>
<!-- block_9&#45;&gt;codeblock_11 -->
<g id="edge11" class="edge">
<title>block_9&#45;&gt;codeblock_11</title>
<path fill="none" stroke="#000000" stroke-dasharray="5,2" d="M434.0639,-1071.9845C428.5863,-1056.9057 420.631,-1035.0065 414.3521,-1017.7222"/>
<polygon fill="#000000" stroke="#000000" points="417.5845,-1016.3692 410.8804,-1008.1652 411.0051,-1018.7594 417.5845,-1016.3692"/>
</g>
<!-- leaf_13 -->
<g id="node14" class="node">
<title>leaf_13</title>
<polygon fill="none" stroke="#c0c0c0" points="503.5,-1008.6015 449.5,-1008.6015 449.5,-972.6015 503.5,-972.6015 503.5,-1008.6015"/>
</g>
<!-- block_9&#45;&gt;leaf_13 -->
<g id="edge13" class="edge">
<title>block_9&#45;&gt;leaf_13</title>
<path fill="none" stroke="#000000" stroke-dasharray="5,2" d="M446.9361,-1071.9845C452.3461,-1057.0919 460.173,-1035.5462 466.4146,-1018.3645"/>
<polygon fill="#000000" stroke="#000000" points="469.7513,-1019.4298 469.8761,-1008.8357 463.172,-1017.0397 469.7513,-1019.4298"/>
</g>
<!-- leaf_12 -->
<g id="node13" class="node">
<title>leaf_12</title>
<polygon fill="none" stroke="#c0c0c0" points="566.5,-850.4018 242.5,-850.4018 242.5,-374.6002 566.5,-374.6002 566.5,-850.4018"/>
<text text-anchor="middle" x="404.5" y="-835.0013" font-family="Inconsolata" font-size="14.00" fill="#000000">require &quot;pl.strict&quot;</text>
<text text-anchor="middle" x="404.5" y="-803.6013" font-family="Inconsolata" font-size="14.00" fill="#000000">local verbose = false</text>
<text text-anchor="middle" x="404.5" y="-756.2013" font-family="Inconsolata" font-size="14.00" fill="#000000">local pl_file &#160;= require &quot;pl.file&quot;</text>
<text text-anchor="middle" x="404.5" y="-740.8012" font-family="Inconsolata" font-size="14.00" fill="#000000">local pl_dir &#160;&#160;= require &quot;pl.dir&quot;</text>
<text text-anchor="middle" x="404.5" y="-725.4012" font-family="Inconsolata" font-size="14.00" fill="#000000">local pl_path &#160;= require &quot;pl.path&quot;</text>
<text text-anchor="middle" x="404.5" y="-710.0012" font-family="Inconsolata" font-size="14.00" fill="#000000">local getfiles = pl_dir.getfiles</text>
<text text-anchor="middle" x="404.5" y="-694.6012" font-family="Inconsolata" font-size="14.00" fill="#000000">local getdirectories = pl_dir.getdirectories</text>
<text text-anchor="middle" x="404.5" y="-679.2011" font-family="Inconsolata" font-size="14.00" fill="#000000">local read = pl_file.read</text>
<text text-anchor="middle" x="404.5" y="-663.8011" font-family="Inconsolata" font-size="14.00" fill="#000000">local write = pl_file.write</text>
<text text-anchor="middle" x="404.5" y="-648.4011" font-family="Inconsolata" font-size="14.00" fill="#000000">local isdir = pl_path.isdir</text>
<text text-anchor="middle" x="404.5" y="-617.001" font-family="Inconsolata" font-size="14.00" fill="#000000">L = require &quot;lpeg&quot;</text>
<text text-anchor="middle" x="404.5" y="-585.601" font-family="Inconsolata" font-size="14.00" fill="#000000">local ansi = require &quot;lib/ansi&quot;</text>
<text text-anchor="middle" x="404.5" y="-570.201" font-family="Inconsolata" font-size="14.00" fill="#000000">u &#160;&#160;&#160;= require &quot;lib/util&quot;</text>
<text text-anchor="middle" x="404.5" y="-522.8009" font-family="Inconsolata" font-size="14.00" fill="#000000">local ast &#160;= require &quot;peg/ast&quot;</text>
<text text-anchor="middle" x="404.5" y="-507.4009" font-family="Inconsolata" font-size="14.00" fill="#000000">local epeg = require &quot;peg/epeg&quot;</text>
<text text-anchor="middle" x="404.5" y="-476.0009" font-family="Inconsolata" font-size="14.00" fill="#000000">local P_grym = require &quot;grym/grymmyr&quot; </text>
<text text-anchor="middle" x="404.5" y="-460.6008" font-family="Inconsolata" font-size="14.00" fill="#000000">m = require &quot;grym/morphemes&quot;</text>
<text text-anchor="middle" x="404.5" y="-445.2008" font-family="Inconsolata" font-size="14.00" fill="#000000">Doc = require &quot;grym/doc&quot;</text>
<text text-anchor="middle" x="404.5" y="-413.8008" font-family="Inconsolata" font-size="14.00" fill="#000000">local invert = require &quot;invert&quot;</text>
<text text-anchor="middle" x="404.5" y="-398.4007" font-family="Inconsolata" font-size="14.00" fill="#000000">local knit &#160;&#160;= require &quot;knit&quot;</text>
<text text-anchor="middle" x="404.5" y="-383.0007" font-family="Inconsolata" font-size="14.00" fill="#000000">local weave &#160;= require &quot;weave&quot;</text>
</g>
<!-- codeblock_11&#45;&gt;leaf_12 -->
<g id="edge12" class="edge">
<title>codeblock_11&#45;&gt;leaf_12</title>
<path fill="none" stroke="#000000" stroke-dasharray="5,2" d="M404.5,-972.365C404.5,-949.5727 404.5,-907.7642 404.5,-860.4925"/>
<polygon fill="#000000" stroke="#000000" points="408.0001,-860.3271 404.5,-850.3272 401.0001,-860.3272 408.0001,-860.3271"/>
</g>
<!-- leaf_20 -->
<g id="node21" class="node">
<title>leaf_20</title>
<polygon fill="none" stroke="#c0c0c0" points="1013.5,-1025.9019 521.5,-1025.9019 521.5,-955.3012 1013.5,-955.3012 1013.5,-1025.9019"/>
<text text-anchor="middle" x="767.5" y="-994.8016" font-family="Inconsolata" font-size="14.00" fill="#000000">This is done crudely, we can use =pl.lapp= in future to parse within</text>
<text text-anchor="middle" x="767.5" y="-979.4015" font-family="Inconsolata" font-size="14.00" fill="#000000">commands to each verb.</text>
</g>
<!-- block_15&#45;&gt;leaf_20 -->
<g id="edge20" class="edge">
<title>block_15&#45;&gt;leaf_20</title>
<path fill="none" stroke="#000000" stroke-dasharray="5,2" d="M1277.7787,-1074.8027C1271.8446,-1069.9733 1264.7627,-1065.0744 1257.5,-1062.0016 1251.4477,-1059.4408 1139.3273,-1043.0286 1023.8735,-1026.5853"/>
<polygon fill="#000000" stroke="#000000" points="1024.166,-1023.0917 1013.7726,-1025.1478 1023.1797,-1030.0219 1024.166,-1023.0917"/>
</g>
<!-- leaf_21 -->
<g id="node22" class="node">
<title>leaf_21</title>
<polygon fill="none" stroke="#c0c0c0" points="1495.5,-1017.902 1031.5,-1017.902 1031.5,-963.3011 1495.5,-963.3011 1495.5,-1017.902"/>
<text text-anchor="middle" x="1263.5" y="-1002.8016" font-family="Inconsolata" font-size="14.00" fill="#000000">Note here that we pass in the pwd from a shell script. This may </text>
<text text-anchor="middle" x="1263.5" y="-987.4015" font-family="Inconsolata" font-size="14.00" fill="#000000">change, now that we&#39;ve added [[sh][../lib/sh.lua]]]]</text>
</g>
<!-- block_16&#45;&gt;leaf_21 -->
<g id="edge21" class="edge">
<title>block_16&#45;&gt;leaf_21</title>
<path fill="none" stroke="#000000" stroke-dasharray="5,2" d="M1350.0084,-1074.6504C1336.5494,-1061.5741 1316.5405,-1042.1341 1299.1551,-1025.2429"/>
<polygon fill="#000000" stroke="#000000" points="1301.5028,-1022.6439 1291.8915,-1018.1858 1296.6249,-1027.6646 1301.5028,-1022.6439"/>
</g>
<!-- codeblock_22 -->
<g id="node23" class="node">
<title>codeblock_22</title>
<ellipse fill="none" stroke="#000000" cx="1540.5" cy="-990.6015" rx="27" ry="18"/>
<text text-anchor="middle" x="1540.5" y="-986.4015" font-family="Helvetica,sans-Serif" font-size="14.00" fill="#000000">90 &#160;</text>
</g>
<!-- block_17&#45;&gt;codeblock_22 -->
<g id="edge22" class="edge">
<title>block_17&#45;&gt;codeblock_22</title>
<path fill="none" stroke="#000000" stroke-dasharray="5,2" d="M1540.5,-1071.5251C1540.5,-1056.8572 1540.5,-1035.9584 1540.5,-1019.0733"/>
<polygon fill="#000000" stroke="#000000" points="1544.0001,-1018.6627 1540.5,-1008.6628 1537.0001,-1018.6628 1544.0001,-1018.6627"/>
</g>
<!-- leaf_24 -->
<g id="node25" class="node">
<title>leaf_24</title>
<polygon fill="none" stroke="#c0c0c0" points="1639.5,-1008.6015 1585.5,-1008.6015 1585.5,-972.6015 1639.5,-972.6015 1639.5,-1008.6015"/>
</g>
<!-- block_17&#45;&gt;leaf_24 -->
<g id="edge24" class="edge">
<title>block_17&#45;&gt;leaf_24</title>
<path fill="none" stroke="#000000" stroke-dasharray="5,2" d="M1552.3893,-1073.3372C1563.5105,-1058.0301 1580.3131,-1034.9032 1593.3288,-1016.9886"/>
<polygon fill="#000000" stroke="#000000" points="1596.3263,-1018.8174 1599.3726,-1008.67 1590.6631,-1014.7029 1596.3263,-1018.8174"/>
</g>
<!-- header_25 -->
<g id="node26" class="node">
<title>header_25</title>
<ellipse fill="none" stroke="#000000" cx="1684.5" cy="-990.6015" rx="27" ry="18"/>
<text text-anchor="middle" x="1684.5" y="-986.4015" font-family="Helvetica,sans-Serif" font-size="14.00" fill="#000000">ng &#160;</text>
</g>
<!-- section_18&#45;&gt;header_25 -->
<g id="edge25" class="edge">
<title>section_18&#45;&gt;header_25</title>
<path fill="none" stroke="#000000" stroke-dasharray="5,2" d="M1714.0639,-1071.9845C1708.5863,-1056.9057 1700.631,-1035.0065 1694.3521,-1017.7222"/>
<polygon fill="#000000" stroke="#000000" points="1697.5845,-1016.3692 1690.8804,-1008.1652 1691.0051,-1018.7594 1697.5845,-1016.3692"/>
</g>
<!-- block_26 -->
<g id="node27" class="node">
<title>block_26</title>
<ellipse fill="none" stroke="#000000" cx="1756.5" cy="-990.6015" rx="27" ry="18"/>
<text text-anchor="middle" x="1756.5" y="-986.4015" font-family="Helvetica,sans-Serif" font-size="14.00" fill="#000000">93 &#160;</text>
</g>
<!-- section_18&#45;&gt;block_26 -->
<g id="edge26" class="edge">
<title>section_18&#45;&gt;block_26</title>
<path fill="none" stroke="#000000" stroke-dasharray="5,2" d="M1726.9361,-1071.9845C1732.4137,-1056.9057 1740.369,-1035.0065 1746.6479,-1017.7222"/>
<polygon fill="#000000" stroke="#000000" points="1749.9949,-1018.7594 1750.1196,-1008.1652 1743.4155,-1016.3692 1749.9949,-1018.7594"/>
</g>
<!-- block_27 -->
<g id="node28" class="node">
<title>block_27</title>
<ellipse fill="none" stroke="#000000" cx="1828.5" cy="-990.6015" rx="27" ry="18"/>
<text text-anchor="middle" x="1828.5" y="-986.4015" font-family="Helvetica,sans-Serif" font-size="14.00" fill="#000000">01 &#160;</text>
</g>
<!-- section_18&#45;&gt;block_27 -->
<g id="edge27" class="edge">
<title>section_18&#45;&gt;block_27</title>
<path fill="none" stroke="#000000" stroke-dasharray="5,2" d="M1737.3089,-1075.2721C1752.0448,-1062.5181 1773.9494,-1043.3059 1792.5,-1026.0016 1796.9347,-1021.8648 1801.6019,-1017.3783 1806.0519,-1013.0334"/>
<polygon fill="#000000" stroke="#000000" points="1808.5853,-1015.4509 1813.2567,-1005.9415 1803.6747,-1010.4622 1808.5853,-1015.4509"/>
</g>
<!-- header_32 -->
<g id="node33" class="node">
<title>header_32</title>
<ellipse fill="none" stroke="#000000" cx="2014.5" cy="-990.6015" rx="27" ry="18"/>
<text text-anchor="middle" x="2014.5" y="-986.4015" font-family="Helvetica,sans-Serif" font-size="14.00" fill="#000000">es &#160;</text>
</g>
<!-- section_19&#45;&gt;header_32 -->
<g id="edge32" class="edge">
<title>section_19&#45;&gt;header_32</title>
<path fill="none" stroke="#000000" stroke-dasharray="5,2" d="M2044.0639,-1071.9845C2038.5863,-1056.9057 2030.631,-1035.0065 2024.3521,-1017.7222"/>
<polygon fill="#000000" stroke="#000000" points="2027.5845,-1016.3692 2020.8804,-1008.1652 2021.0051,-1018.7594 2027.5845,-1016.3692"/>
</g>
<!-- block_33 -->
<g id="node34" class="node">
<title>block_33</title>
<ellipse fill="none" stroke="#000000" cx="2086.5" cy="-990.6015" rx="27" ry="18"/>
<text text-anchor="middle" x="2086.5" y="-986.4015" font-family="Helvetica,sans-Serif" font-size="14.00" fill="#000000">03 &#160;</text>
</g>
<!-- section_19&#45;&gt;block_33 -->
<g id="edge33" class="edge">
<title>section_19&#45;&gt;block_33</title>
<path fill="none" stroke="#000000" stroke-dasharray="5,2" d="M2056.9361,-1071.9845C2062.4137,-1056.9057 2070.369,-1035.0065 2076.6479,-1017.7222"/>
<polygon fill="#000000" stroke="#000000" points="2079.9949,-1018.7594 2080.1196,-1008.1652 2073.4155,-1016.3692 2079.9949,-1018.7594"/>
</g>
<!-- block_34 -->
<g id="node35" class="node">
<title>block_34</title>
<ellipse fill="none" stroke="#000000" cx="2215.5" cy="-990.6015" rx="27" ry="18"/>
<text text-anchor="middle" x="2215.5" y="-986.4015" font-family="Helvetica,sans-Serif" font-size="14.00" fill="#000000">23 &#160;</text>
</g>
<!-- section_19&#45;&gt;block_34 -->
<g id="edge34" class="edge">
<title>section_19&#45;&gt;block_34</title>
<path fill="none" stroke="#000000" stroke-dasharray="5,2" d="M2070.7322,-1077.55C2099.7574,-1060.1173 2153.3664,-1027.9193 2186.5731,-1007.9752"/>
<polygon fill="#000000" stroke="#000000" points="2188.5901,-1010.8466 2195.3606,-1002.6974 2184.9859,-1004.8458 2188.5901,-1010.8466"/>
</g>
<!-- leaf_23 -->
<g id="node24" class="node">
<title>leaf_23</title>
<polygon fill="none" stroke="#c0c0c0" points="1711.5,-919.4021 1205.5,-919.4021 1205.5,-305.5999 1711.5,-305.5999 1711.5,-919.4021"/>
<text text-anchor="middle" x="1458.5" y="-904.0015" font-family="Inconsolata" font-size="14.00" fill="#000000">local pwd, verb = &quot;&quot;, &quot;&quot;</text>
<text text-anchor="middle" x="1458.5" y="-872.6015" font-family="Inconsolata" font-size="14.00" fill="#000000">if (arg) then</text>
<text text-anchor="middle" x="1458.5" y="-857.2014" font-family="Inconsolata" font-size="14.00" fill="#000000"> &#160;&#160;&#160;pwd = table.remove(arg, 1)</text>
<text text-anchor="middle" x="1458.5" y="-841.8014" font-family="Inconsolata" font-size="14.00" fill="#000000"> &#160;&#160;&#160;verb = table.remove(arg, 1)</text>
<text text-anchor="middle" x="1458.5" y="-826.4014" font-family="Inconsolata" font-size="14.00" fill="#000000"> &#160;&#160;&#160;for _, v in ipairs(arg) do</text>
<text text-anchor="middle" x="1458.5" y="-811.0013" font-family="Inconsolata" font-size="14.00" fill="#000000"> &#160;&#160;&#160;&#160;&#160;&#160;&#160;io.write(ansi.yellow(v)..&quot;\n&quot;)</text>
<text text-anchor="middle" x="1458.5" y="-795.6013" font-family="Inconsolata" font-size="14.00" fill="#000000"> &#160;&#160;&#160;end</text>
<text text-anchor="middle" x="1458.5" y="-780.2013" font-family="Inconsolata" font-size="14.00" fill="#000000">end</text>
<text text-anchor="middle" x="1458.5" y="-732.8012" font-family="Inconsolata" font-size="14.00" fill="#000000">local grym = {}</text>
<text text-anchor="middle" x="1458.5" y="-701.4012" font-family="Inconsolata" font-size="14.00" fill="#000000">grym.invert = invert</text>
<text text-anchor="middle" x="1458.5" y="-686.0012" font-family="Inconsolata" font-size="14.00" fill="#000000">grym.knit &#160;&#160;= knit</text>
<text text-anchor="middle" x="1458.5" y="-670.6012" font-family="Inconsolata" font-size="14.00" fill="#000000">grym.weave &#160;= weave</text>
<text text-anchor="middle" x="1458.5" y="-639.2011" font-family="Inconsolata" font-size="14.00" fill="#000000">samples = getfiles(&quot;samples&quot;)</text>
<text text-anchor="middle" x="1458.5" y="-607.8011" font-family="Inconsolata" font-size="14.00" fill="#000000">local own = require &quot;grym/own&quot;</text>
<text text-anchor="middle" x="1458.5" y="-576.4011" font-family="Inconsolata" font-size="14.00" fill="#000000">if verb == &quot;invert&quot; then</text>
<text text-anchor="middle" x="1458.5" y="-561.001" font-family="Inconsolata" font-size="14.00" fill="#000000"> &#160;&#160;&#160;&#45;&#45; If we allow inversion in its present no&#45;guards state,</text>
<text text-anchor="middle" x="1458.5" y="-545.601" font-family="Inconsolata" font-size="14.00" fill="#000000"> &#160;&#160;&#160;&#45;&#45; we will lose all commentary</text>
<text text-anchor="middle" x="1458.5" y="-530.201" font-family="Inconsolata" font-size="14.00" fill="#000000"> &#160;&#160;&#160;u.freeze(&quot;no&quot;)</text>
<text text-anchor="middle" x="1458.5" y="-514.8009" font-family="Inconsolata" font-size="14.00" fill="#000000"> &#160;&#160;&#160;&#45;&#45;invert:invert_all(pwd)</text>
<text text-anchor="middle" x="1458.5" y="-499.4009" font-family="Inconsolata" font-size="14.00" fill="#000000">elseif verb == &quot;knit&quot; then</text>
<text text-anchor="middle" x="1458.5" y="-484.0009" font-family="Inconsolata" font-size="14.00" fill="#000000"> &#160;&#160;&#160;&#45;&#45; knitter goes here</text>
<text text-anchor="middle" x="1458.5" y="-468.6008" font-family="Inconsolata" font-size="14.00" fill="#000000"> &#160;&#160;&#160;knit:knit_all(pwd)</text>
<text text-anchor="middle" x="1458.5" y="-453.2008" font-family="Inconsolata" font-size="14.00" fill="#000000">elseif verb == &quot;weave&quot; then</text>
<text text-anchor="middle" x="1458.5" y="-437.8008" font-family="Inconsolata" font-size="14.00" fill="#000000"> &#160;&#160;&#160;&#45;&#45; local weaved = weave:weaveMd(Doc(read(&quot;../orb/grym/block.gm&quot;)))</text>
<text text-anchor="middle" x="1458.5" y="-422.4007" font-family="Inconsolata" font-size="14.00" fill="#000000"> &#160;&#160;&#160;&#45;&#45; io.write(weaved)</text>
<text text-anchor="middle" x="1458.5" y="-407.0007" font-family="Inconsolata" font-size="14.00" fill="#000000"> &#160;&#160;&#160;weave:weave_all(pwd) &#160;&#160;&#160;</text>
<text text-anchor="middle" x="1458.5" y="-375.6007" font-family="Inconsolata" font-size="14.00" fill="#000000">elseif not verb then</text>
<text text-anchor="middle" x="1458.5" y="-360.2007" font-family="Inconsolata" font-size="14.00" fill="#000000"> &#160;&#160;&#160;&#45;&#45; do the things</text>
<text text-anchor="middle" x="1458.5" y="-344.8006" font-family="Inconsolata" font-size="14.00" fill="#000000"> &#160;&#160;&#160;weave:weave_all(pwd)</text>
<text text-anchor="middle" x="1458.5" y="-329.4006" font-family="Inconsolata" font-size="14.00" fill="#000000"> &#160;&#160;&#160;knit:knit_all(pwd)</text>
<text text-anchor="middle" x="1458.5" y="-314.0006" font-family="Inconsolata" font-size="14.00" fill="#000000">end</text>
</g>
<!-- codeblock_22&#45;&gt;leaf_23 -->
<g id="edge23" class="edge">
<title>codeblock_22&#45;&gt;leaf_23</title>
<path fill="none" stroke="#000000" stroke-dasharray="5,2" d="M1536.6001,-972.6193C1534.2906,-961.9701 1531.067,-947.1062 1527.2348,-929.4362"/>
<polygon fill="#000000" stroke="#000000" points="1530.5852,-928.3707 1525.0452,-919.3397 1523.7443,-929.8544 1530.5852,-928.3707"/>
</g>
<!-- leaf_28 -->
<g id="node29" class="node">
<title>leaf_28</title>
<polygon fill="none" stroke="#c0c0c0" points="1783.5,-630.501 1729.5,-630.501 1729.5,-594.501 1783.5,-594.501 1783.5,-630.501"/>
</g>
<!-- block_26&#45;&gt;leaf_28 -->
<g id="edge28" class="edge">
<title>block_26&#45;&gt;leaf_28</title>
<path fill="none" stroke="#000000" stroke-dasharray="5,2" d="M1756.5,-972.365C1756.5,-911.47 1756.5,-714.8349 1756.5,-640.9309"/>
<polygon fill="#000000" stroke="#000000" points="1760.0001,-640.5546 1756.5,-630.5546 1753.0001,-640.5546 1760.0001,-640.5546"/>
</g>
<!-- codeblock_29 -->
<g id="node30" class="node">
<title>codeblock_29</title>
<ellipse fill="none" stroke="#000000" cx="1828.5" cy="-612.501" rx="27" ry="18"/>
<text text-anchor="middle" x="1828.5" y="-608.301" font-family="Helvetica,sans-Serif" font-size="14.00" fill="#000000">00 &#160;</text>
</g>
<!-- block_27&#45;&gt;codeblock_29 -->
<g id="edge29" class="edge">
<title>block_27&#45;&gt;codeblock_29</title>
<path fill="none" stroke="#000000" stroke-dasharray="5,2" d="M1828.5,-972.365C1828.5,-911.47 1828.5,-714.8349 1828.5,-640.9309"/>
<polygon fill="#000000" stroke="#000000" points="1832.0001,-640.5546 1828.5,-630.5546 1825.0001,-640.5546 1832.0001,-640.5546"/>
</g>
<!-- leaf_31 -->
<g id="node32" class="node">
<title>leaf_31</title>
<polygon fill="none" stroke="#c0c0c0" points="1927.5,-630.501 1873.5,-630.501 1873.5,-594.501 1927.5,-594.501 1927.5,-630.501"/>
</g>
<!-- block_27&#45;&gt;leaf_31 -->
<g id="edge31" class="edge">
<title>block_27&#45;&gt;leaf_31</title>
<path fill="none" stroke="#000000" stroke-dasharray="5,2" d="M1838.9902,-973.9903C1847.3283,-959.9486 1858.5471,-939.0111 1864.5,-919.2015 1894.3079,-820.0099 1899.6286,-695.8633 1900.4452,-640.9155"/>
<polygon fill="#000000" stroke="#000000" points="1903.9485,-640.6121 1900.5563,-630.575 1896.9489,-640.5368 1903.9485,-640.6121"/>
</g>
<!-- leaf_30 -->
<g id="node31" class="node">
<title>leaf_30</title>
<polygon fill="none" stroke="#c0c0c0" points="2007,-178.2006 1592,-178.2006 1592,-91.6 2007,-91.6 2007,-178.2006"/>
<text text-anchor="middle" x="1799.5" y="-163.1003" font-family="Inconsolata" font-size="14.00" fill="#000000">sample_doc = Doc(read(&quot;../orb/grym.orb&quot;)) or &quot;&quot;</text>
<text text-anchor="middle" x="1799.5" y="-131.7003" font-family="Inconsolata" font-size="14.00" fill="#000000">dot_sh = (require &quot;sh&quot;):clear_G().command(&#39;dot&#39;, &#39;&#45;Tsvg&#39;)</text>
</g>
<!-- codeblock_29&#45;&gt;leaf_30 -->
<g id="edge30" class="edge">
<title>codeblock_29&#45;&gt;leaf_30</title>
<path fill="none" stroke="#000000" stroke-dasharray="5,2" d="M1827.3986,-594.3617C1823.3535,-527.7427 1809.2176,-294.94 1802.7612,-188.6085"/>
<polygon fill="#000000" stroke="#000000" points="1806.2421,-188.1871 1802.1424,-178.4176 1799.255,-188.6114 1806.2421,-188.1871"/>
</g>
<!-- leaf_35 -->
<g id="node36" class="node">
<title>leaf_35</title>
<polygon fill="none" stroke="#c0c0c0" points="2113.5,-630.501 2059.5,-630.501 2059.5,-594.501 2113.5,-594.501 2113.5,-630.501"/>
</g>
<!-- block_33&#45;&gt;leaf_35 -->
<g id="edge35" class="edge">
<title>block_33&#45;&gt;leaf_35</title>
<path fill="none" stroke="#000000" stroke-dasharray="5,2" d="M2086.5,-972.365C2086.5,-911.47 2086.5,-714.8349 2086.5,-640.9309"/>
<polygon fill="#000000" stroke="#000000" points="2090.0001,-640.5546 2086.5,-630.5546 2083.0001,-640.5546 2090.0001,-640.5546"/>
</g>
<!-- codeblock_36 -->
<g id="node37" class="node">
<title>codeblock_36</title>
<ellipse fill="none" stroke="#000000" cx="2215.5" cy="-612.501" rx="27" ry="18"/>
<text text-anchor="middle" x="2215.5" y="-608.301" font-family="Helvetica,sans-Serif" font-size="14.00" fill="#000000">22 &#160;</text>
</g>
<!-- block_34&#45;&gt;codeblock_36 -->
<g id="edge36" class="edge">
<title>block_34&#45;&gt;codeblock_36</title>
<path fill="none" stroke="#000000" stroke-dasharray="5,2" d="M2215.5,-972.365C2215.5,-911.47 2215.5,-714.8349 2215.5,-640.9309"/>
<polygon fill="#000000" stroke="#000000" points="2219.0001,-640.5546 2215.5,-630.5546 2212.0001,-640.5546 2219.0001,-640.5546"/>
</g>
<!-- leaf_38 -->
<g id="node39" class="node">
<title>leaf_38</title>
<polygon fill="none" stroke="#c0c0c0" points="2314.5,-630.501 2260.5,-630.501 2260.5,-594.501 2314.5,-594.501 2314.5,-630.501"/>
</g>
<!-- block_34&#45;&gt;leaf_38 -->
<g id="edge38" class="edge">
<title>block_34&#45;&gt;leaf_38</title>
<path fill="none" stroke="#000000" stroke-dasharray="5,2" d="M2225.9902,-973.9903C2234.3283,-959.9486 2245.5471,-939.0111 2251.5,-919.2015 2281.3079,-820.0099 2286.6286,-695.8633 2287.4452,-640.9155"/>
<polygon fill="#000000" stroke="#000000" points="2290.9485,-640.6121 2287.5563,-630.575 2283.9489,-640.5368 2290.9485,-640.6121"/>
</g>
<!-- leaf_37 -->
<g id="node38" class="node">
<title>leaf_37</title>
<polygon fill="none" stroke="#c0c0c0" points="2461.5,-269.7009 2025.5,-269.7009 2025.5,-.0997 2461.5,-.0997 2461.5,-269.7009"/>
<text text-anchor="middle" x="2243.5" y="-254.6005" font-family="Inconsolata" font-size="14.00" fill="#000000">&#45;&#45;&#45;[[</text>
<text text-anchor="middle" x="2243.5" y="-239.2005" font-family="Inconsolata" font-size="14.00" fill="#000000">for _,v in ipairs(samples) do</text>
<text text-anchor="middle" x="2243.5" y="-223.8005" font-family="Inconsolata" font-size="14.00" fill="#000000"> &#160;&#160;&#160;if v:match(&quot;~&quot;) == nil then</text>
<text text-anchor="middle" x="2243.5" y="-208.4004" font-family="Inconsolata" font-size="14.00" fill="#000000"> &#160;&#160;&#160;&#160;&#160;&#160;&#160;if verbose then io.write(v) end</text>
<text text-anchor="middle" x="2243.5" y="-193.0004" font-family="Inconsolata" font-size="14.00" fill="#000000"> &#160;&#160;&#160;&#160;&#160;&#160;&#160;local sample = read(v)</text>
<text text-anchor="middle" x="2243.5" y="-177.6004" font-family="Inconsolata" font-size="14.00" fill="#000000"> &#160;&#160;&#160;&#160;&#160;&#160;&#160;&#45;&#45;io.write(v..&quot;\n&quot;)</text>
<text text-anchor="middle" x="2243.5" y="-162.2003" font-family="Inconsolata" font-size="14.00" fill="#000000"> &#160;&#160;&#160;&#160;&#160;&#160;&#160;local doc = Doc(sample)</text>
<text text-anchor="middle" x="2243.5" y="-146.8003" font-family="Inconsolata" font-size="14.00" fill="#000000"> &#160;&#160;&#160;&#160;&#160;&#160;&#160;local doc_dot = doc:dot()</text>
<text text-anchor="middle" x="2243.5" y="-131.4003" font-family="Inconsolata" font-size="14.00" fill="#000000"> &#160;&#160;&#160;&#160;&#160;&#160;&#160;local old_dot = read(&quot;../orb/dot/&quot; .. v .. &quot;.dot&quot;)</text>
<text text-anchor="middle" x="2243.5" y="-116.0002" font-family="Inconsolata" font-size="14.00" fill="#000000"> &#160;&#160;&#160;&#160;&#160;&#160;&#160;if old_dot and old_dot ~= doc_dot then</text>
<text text-anchor="middle" x="2243.5" y="-100.6002" font-family="Inconsolata" font-size="14.00" fill="#000000"> &#160;&#160;&#160;&#160;&#160;&#160;&#160;&#160;&#160;&#160;&#160;io.write(&quot; &#160;&#160;&#45;&#45; changed dotfile: &quot; .. v)</text>
<text text-anchor="middle" x="2243.5" y="-85.2002" font-family="Inconsolata" font-size="14.00" fill="#000000"> &#160;&#160;&#160;&#160;&#160;&#160;&#160;&#160;&#160;&#160;&#160;write(&quot;../orb/dot/&quot; .. v .. &quot;&#45;old.dot&quot;, old_dot)</text>
<text text-anchor="middle" x="2243.5" y="-69.8002" font-family="Inconsolata" font-size="14.00" fill="#000000"> &#160;&#160;&#160;&#160;&#160;&#160;&#160;end</text>
<text text-anchor="middle" x="2243.5" y="-54.4001" font-family="Inconsolata" font-size="14.00" fill="#000000"> &#160;&#160;&#160;&#160;&#160;&#160;&#160;write(&quot;../orb/dot/&quot; .. v .. &quot;.dot&quot;, doc:dot())</text>
<text text-anchor="middle" x="2243.5" y="-39.0001" font-family="Inconsolata" font-size="14.00" fill="#000000"> &#160;&#160;&#160;end</text>
<text text-anchor="middle" x="2243.5" y="-23.6001" font-family="Inconsolata" font-size="14.00" fill="#000000">end</text>
<text text-anchor="middle" x="2243.5" y="-8.2" font-family="Inconsolata" font-size="14.00" fill="#000000">&#45;&#45;]]</text>
</g>
<!-- codeblock_36&#45;&gt;leaf_37 -->
<g id="edge37" class="edge">
<title>codeblock_36&#45;&gt;leaf_37</title>
<path fill="none" stroke="#000000" stroke-dasharray="5,2" d="M2216.5634,-594.3617C2219.5573,-543.2951 2228.2759,-394.5802 2234.9914,-280.0337"/>
<polygon fill="#000000" stroke="#000000" points="2238.5024,-279.947 2235.5937,-269.7593 2231.5144,-279.5373 2238.5024,-279.947"/>
</g>
</g>
</svg>