<?xml version="1.0" encoding="UTF-8" standalone="no"?>
<!DOCTYPE svg PUBLIC "-//W3C//DTD SVG 1.1//EN"
 "http://www.w3.org/Graphics/SVG/1.1/DTD/svg11.dtd">
<!-- Generated by graphviz version 2.40.1 (20161225.0304)
 -->
<!-- Title: hierarchy Pages: 1 -->
<svg width="1837pt" height="1328pt"
 viewBox="0.00 0.00 1836.50 1328.40" xmlns="http://www.w3.org/2000/svg" xmlns:xlink="http://www.w3.org/1999/xlink">
<g id="graph0" class="graph" transform="scale(1 1) rotate(0) translate(4 1324.4008)">
<title>hierarchy</title>
<polygon fill="#ffffff" stroke="transparent" points="-4,4 -4,-1324.4008 1832.5,-1324.4008 1832.5,4 -4,4"/>
<!-- doc_0 -->
<g id="node1" class="node">
<title>doc_0</title>
<ellipse fill="none" stroke="#000000" cx="762.5" cy="-1302.4008" rx="27" ry="18"/>
<text text-anchor="middle" x="762.5" y="-1298.2008" font-family="Helvetica,sans-Serif" font-size="14.00" fill="#000000">03 &#160;</text>
</g>
<!-- section_1 -->
<g id="node2" class="node">
<title>section_1</title>
<ellipse fill="none" stroke="#000000" cx="762.5" cy="-1230.4008" rx="27" ry="18"/>
<text text-anchor="middle" x="762.5" y="-1226.2008" font-family="Helvetica,sans-Serif" font-size="14.00" fill="#000000">11 &#160;</text>
</g>
<!-- doc_0&#45;&gt;section_1 -->
<g id="edge1" class="edge">
<title>doc_0&#45;&gt;section_1</title>
<path fill="none" stroke="#000000" stroke-dasharray="5,2" d="M762.5,-1284.2322C762.5,-1276.5318 762.5,-1267.3752 762.5,-1258.8174"/>
<polygon fill="#000000" stroke="#000000" points="766.0001,-1258.814 762.5,-1248.8141 759.0001,-1258.8141 766.0001,-1258.814"/>
</g>
<!-- header_2 -->
<g id="node3" class="node">
<title>header_2</title>
<ellipse fill="none" stroke="#000000" cx="654.5" cy="-1158.4008" rx="27" ry="18"/>
<text text-anchor="middle" x="654.5" y="-1154.2008" font-family="Helvetica,sans-Serif" font-size="14.00" fill="#000000">ck &#160;</text>
</g>
<!-- section_1&#45;&gt;header_2 -->
<g id="edge2" class="edge">
<title>section_1&#45;&gt;header_2</title>
<path fill="none" stroke="#000000" stroke-dasharray="5,2" d="M743.1918,-1217.5287C726.1445,-1206.1638 701.0981,-1189.4662 681.9656,-1176.7112"/>
<polygon fill="#000000" stroke="#000000" points="683.9031,-1173.7964 673.6411,-1171.1615 680.0201,-1179.6208 683.9031,-1173.7964"/>
</g>
<!-- block_3 -->
<g id="node4" class="node">
<title>block_3</title>
<ellipse fill="none" stroke="#000000" cx="726.5" cy="-1158.4008" rx="27" ry="18"/>
<text text-anchor="middle" x="726.5" y="-1154.2008" font-family="Helvetica,sans-Serif" font-size="14.00" fill="#000000">&#45;6 &#160;</text>
</g>
<!-- section_1&#45;&gt;block_3 -->
<g id="edge3" class="edge">
<title>section_1&#45;&gt;block_3</title>
<path fill="none" stroke="#000000" stroke-dasharray="5,2" d="M753.7854,-1212.9716C749.5403,-1204.4815 744.3464,-1194.0937 739.6337,-1184.6682"/>
<polygon fill="#000000" stroke="#000000" points="742.737,-1183.0485 735.1343,-1175.6695 736.476,-1186.179 742.737,-1183.0485"/>
</g>
<!-- block_4 -->
<g id="node5" class="node">
<title>block_4</title>
<ellipse fill="none" stroke="#000000" cx="798.5" cy="-1158.4008" rx="27" ry="18"/>
<text text-anchor="middle" x="798.5" y="-1154.2008" font-family="Helvetica,sans-Serif" font-size="14.00" fill="#000000">11 &#160;</text>
</g>
<!-- section_1&#45;&gt;block_4 -->
<g id="edge4" class="edge">
<title>section_1&#45;&gt;block_4</title>
<path fill="none" stroke="#000000" stroke-dasharray="5,2" d="M771.2146,-1212.9716C775.4597,-1204.4815 780.6536,-1194.0937 785.3663,-1184.6682"/>
<polygon fill="#000000" stroke="#000000" points="788.524,-1186.179 789.8657,-1175.6695 782.263,-1183.0485 788.524,-1186.179"/>
</g>
<!-- section_5 -->
<g id="node6" class="node">
<title>section_5</title>
<ellipse fill="none" stroke="#000000" cx="1182.5" cy="-1158.4008" rx="27" ry="18"/>
<text text-anchor="middle" x="1182.5" y="-1154.2008" font-family="Helvetica,sans-Serif" font-size="14.00" fill="#000000">03 &#160;</text>
</g>
<!-- section_1&#45;&gt;section_5 -->
<g id="edge5" class="edge">
<title>section_1&#45;&gt;section_5</title>
<path fill="none" stroke="#000000" stroke-dasharray="5,2" d="M788.7729,-1225.8969C861.1055,-1213.497 1063.2907,-1178.8367 1146.2644,-1164.6126"/>
<polygon fill="#000000" stroke="#000000" points="1146.9722,-1168.0424 1156.237,-1162.903 1145.7894,-1161.1431 1146.9722,-1168.0424"/>
</g>
<!-- leaf_6 -->
<g id="node7" class="node">
<title>leaf_6</title>
<polygon fill="none" stroke="#c0c0c0" points="513,-1104.3011 0,-1104.3011 0,-1017.7005 513,-1017.7005 513,-1104.3011"/>
<text text-anchor="middle" x="256.5" y="-1057.2008" font-family="Inconsolata" font-size="14.00" fill="#000000"> &#160;This is a standalone program to restore grym in the event that a knit</text>
<text text-anchor="middle" x="256.5" y="-1041.8008" font-family="Inconsolata" font-size="14.00" fill="#000000">results in an unusable grym module.</text>
</g>
<!-- block_3&#45;&gt;leaf_6 -->
<g id="edge6" class="edge">
<title>block_3&#45;&gt;leaf_6</title>
<path fill="none" stroke="#000000" stroke-dasharray="5,2" d="M705.6056,-1146.713C700.7564,-1144.3527 695.5372,-1142.0829 690.5,-1140.4008 672.08,-1134.2496 600.1466,-1120.5117 519.9884,-1106.1633"/>
<polygon fill="#000000" stroke="#000000" points="520.1212,-1102.6317 509.6617,-1104.3194 518.8908,-1109.5227 520.1212,-1102.6317"/>
</g>
<!-- leaf_7 -->
<g id="node8" class="node">
<title>leaf_7</title>
<polygon fill="none" stroke="#c0c0c0" points="1065.5,-1103.6018 531.5,-1103.6018 531.5,-1018.3997 1065.5,-1018.3997 1065.5,-1103.6018"/>
<text text-anchor="middle" x="798.5" y="-1088.6008" font-family="Inconsolata" font-size="14.00" fill="#000000">The plan: A =.grym= file in the root directory will contain any</text>
<text text-anchor="middle" x="798.5" y="-1073.2008" font-family="Inconsolata" font-size="14.00" fill="#000000">knit&#45;modified files from the last pass. &#160;=grym= itself will read and write</text>
<text text-anchor="middle" x="798.5" y="-1057.8008" font-family="Inconsolata" font-size="14.00" fill="#000000">to the .grym file, maintaining a data structure in the meantime; this will</text>
<text text-anchor="middle" x="798.5" y="-1042.4007" font-family="Inconsolata" font-size="14.00" fill="#000000">be in Lua&#45;native table format, at first, eventually Clu(den).</text>
</g>
<!-- block_4&#45;&gt;leaf_7 -->
<g id="edge7" class="edge">
<title>block_4&#45;&gt;leaf_7</title>
<path fill="none" stroke="#000000" stroke-dasharray="5,2" d="M798.5,-1140.0806C798.5,-1132.5534 798.5,-1123.4141 798.5,-1114.0585"/>
<polygon fill="#000000" stroke="#000000" points="802.0001,-1113.8879 798.5,-1103.888 795.0001,-1113.888 802.0001,-1113.8879"/>
</g>
<!-- header_8 -->
<g id="node9" class="node">
<title>header_8</title>
<ellipse fill="none" stroke="#000000" cx="1110.5" cy="-1061.0008" rx="27" ry="18"/>
<text text-anchor="middle" x="1110.5" y="-1056.8008" font-family="Helvetica,sans-Serif" font-size="14.00" fill="#000000">es &#160;</text>
</g>
<!-- section_5&#45;&gt;header_8 -->
<g id="edge8" class="edge">
<title>section_5&#45;&gt;header_8</title>
<path fill="none" stroke="#000000" stroke-dasharray="5,2" d="M1170.2862,-1141.8782C1158.8392,-1126.393 1141.5846,-1103.0513 1128.5495,-1085.4178"/>
<polygon fill="#000000" stroke="#000000" points="1131.2924,-1083.2403 1122.5334,-1077.2794 1125.6634,-1087.4013 1131.2924,-1083.2403"/>
</g>
<!-- block_9 -->
<g id="node10" class="node">
<title>block_9</title>
<ellipse fill="none" stroke="#000000" cx="1182.5" cy="-1061.0008" rx="27" ry="18"/>
<text text-anchor="middle" x="1182.5" y="-1056.8008" font-family="Helvetica,sans-Serif" font-size="14.00" fill="#000000">13 &#160;</text>
</g>
<!-- section_5&#45;&gt;block_9 -->
<g id="edge9" class="edge">
<title>section_5&#45;&gt;block_9</title>
<path fill="none" stroke="#000000" stroke-dasharray="5,2" d="M1182.5,-1140.0806C1182.5,-1125.796 1182.5,-1105.7054 1182.5,-1089.3493"/>
<polygon fill="#000000" stroke="#000000" points="1186.0001,-1089.2388 1182.5,-1079.2388 1179.0001,-1089.2389 1186.0001,-1089.2388"/>
</g>
<!-- block_10 -->
<g id="node11" class="node">
<title>block_10</title>
<ellipse fill="none" stroke="#000000" cx="1254.5" cy="-1061.0008" rx="27" ry="18"/>
<text text-anchor="middle" x="1254.5" y="-1056.8008" font-family="Helvetica,sans-Serif" font-size="14.00" fill="#000000">42 &#160;</text>
</g>
<!-- section_5&#45;&gt;block_10 -->
<g id="edge10" class="edge">
<title>section_5&#45;&gt;block_10</title>
<path fill="none" stroke="#000000" stroke-dasharray="5,2" d="M1194.7138,-1141.8782C1206.1608,-1126.393 1223.4154,-1103.0513 1236.4505,-1085.4178"/>
<polygon fill="#000000" stroke="#000000" points="1239.3366,-1087.4013 1242.4666,-1077.2794 1233.7076,-1083.2403 1239.3366,-1087.4013"/>
</g>
<!-- block_11 -->
<g id="node12" class="node">
<title>block_11</title>
<ellipse fill="none" stroke="#000000" cx="1617.5" cy="-1061.0008" rx="27" ry="18"/>
<text text-anchor="middle" x="1617.5" y="-1056.8008" font-family="Helvetica,sans-Serif" font-size="14.00" fill="#000000">03 &#160;</text>
</g>
<!-- section_5&#45;&gt;block_11 -->
<g id="edge11" class="edge">
<title>section_5&#45;&gt;block_11</title>
<path fill="none" stroke="#000000" stroke-dasharray="5,2" d="M1208.4085,-1152.5997C1282.6796,-1135.9698 1496.4599,-1088.1026 1581.7457,-1069.0065"/>
<polygon fill="#000000" stroke="#000000" points="1582.7336,-1072.372 1591.7272,-1066.7715 1581.2041,-1065.5411 1582.7336,-1072.372"/>
</g>
<!-- leaf_12 -->
<g id="node13" class="node">
<title>leaf_12</title>
<polygon fill="none" stroke="#c0c0c0" points="1088.5,-747.6007 1034.5,-747.6007 1034.5,-711.6007 1088.5,-711.6007 1088.5,-747.6007"/>
</g>
<!-- block_9&#45;&gt;leaf_12 -->
<g id="edge12" class="edge">
<title>block_9&#45;&gt;leaf_12</title>
<path fill="none" stroke="#000000" stroke-dasharray="5,2" d="M1170.378,-1044.5105C1163.7732,-1036.0345 1155.1899,-1025.7938 1146.5,-1017.6007 1126.8377,-999.0625 1111.3829,-1004.7856 1097.5,-981.6007 1054.6515,-910.0424 1055.4146,-807.0338 1058.7746,-757.8368"/>
<polygon fill="#000000" stroke="#000000" points="1062.282,-757.8749 1059.5638,-747.6347 1055.3029,-757.335 1062.282,-757.8749"/>
</g>
<!-- codeblock_13 -->
<g id="node14" class="node">
<title>codeblock_13</title>
<ellipse fill="none" stroke="#000000" cx="1133.5" cy="-729.6007" rx="27" ry="18"/>
<text text-anchor="middle" x="1133.5" y="-725.4007" font-family="Helvetica,sans-Serif" font-size="14.00" fill="#000000">39 &#160;</text>
</g>
<!-- block_10&#45;&gt;codeblock_13 -->
<g id="edge13" class="edge">
<title>block_10&#45;&gt;codeblock_13</title>
<path fill="none" stroke="#000000" stroke-dasharray="5,2" d="M1242.378,-1044.5105C1235.7732,-1036.0345 1227.1899,-1025.7938 1218.5,-1017.6007 1198.8377,-999.0625 1183.3829,-1004.7856 1169.5,-981.6007 1126.6515,-910.0424 1127.4146,-807.0338 1130.7746,-757.8368"/>
<polygon fill="#000000" stroke="#000000" points="1134.282,-757.8749 1131.5638,-747.6347 1127.3029,-757.335 1134.282,-757.8749"/>
</g>
<!-- leaf_15 -->
<g id="node16" class="node">
<title>leaf_15</title>
<polygon fill="none" stroke="#c0c0c0" points="1572.5,-757.5022 1178.5,-757.5022 1178.5,-701.6993 1572.5,-701.6993 1572.5,-757.5022"/>
<text text-anchor="middle" x="1375.5" y="-726.1008" font-family="Inconsolata" font-size="14.00" fill="#000000">This is pure script, we shouldn&#39;t even need a function</text>
</g>
<!-- block_10&#45;&gt;leaf_15 -->
<g id="edge15" class="edge">
<title>block_10&#45;&gt;leaf_15</title>
<path fill="none" stroke="#000000" stroke-dasharray="5,2" d="M1261.0055,-1043.1833C1280.0398,-991.0511 1335.9141,-838.0203 1361.9095,-766.8231"/>
<polygon fill="#000000" stroke="#000000" points="1365.2302,-767.9328 1365.3723,-757.339 1358.6548,-765.532 1365.2302,-767.9328"/>
</g>
<!-- codeblock_16 -->
<g id="node17" class="node">
<title>codeblock_16</title>
<ellipse fill="none" stroke="#000000" cx="1617.5" cy="-729.6007" rx="27" ry="18"/>
<text text-anchor="middle" x="1617.5" y="-725.4007" font-family="Helvetica,sans-Serif" font-size="14.00" fill="#000000">72 &#160;</text>
</g>
<!-- block_11&#45;&gt;codeblock_16 -->
<g id="edge16" class="edge">
<title>block_11&#45;&gt;codeblock_16</title>
<path fill="none" stroke="#000000" stroke-dasharray="5,2" d="M1617.5,-1042.7112C1617.5,-987.8261 1617.5,-824.2454 1617.5,-757.9634"/>
<polygon fill="#000000" stroke="#000000" points="1621.0001,-757.8337 1617.5,-747.8338 1614.0001,-757.8338 1621.0001,-757.8337"/>
</g>
<!-- leaf_18 -->
<g id="node19" class="node">
<title>leaf_18</title>
<polygon fill="none" stroke="#c0c0c0" points="1716.5,-981.6007 1662.5,-981.6007 1662.5,-477.6007 1716.5,-477.6007 1716.5,-981.6007"/>
</g>
<!-- block_11&#45;&gt;leaf_18 -->
<g id="edge18" class="edge">
<title>block_11&#45;&gt;leaf_18</title>
<path fill="none" stroke="#000000" stroke-dasharray="5,2" d="M1626.9829,-1043.8874C1635.2718,-1028.1649 1646.9737,-1003.977 1653.5,-981.6007 1655.8569,-973.5198 1658.0623,-965.2464 1660.1258,-956.8538"/>
<polygon fill="#000000" stroke="#000000" points="1663.5721,-957.4901 1662.4836,-946.9514 1656.7625,-955.8687 1663.5721,-957.4901"/>
</g>
<!-- leaf_14 -->
<g id="node15" class="node">
<title>leaf_14</title>
<polygon fill="none" stroke="#c0c0c0" points="1295.5,-410.801 971.5,-410.801 971.5,-30.7998 1295.5,-30.7998 1295.5,-410.801"/>
<text text-anchor="middle" x="1133.5" y="-395.6007" font-family="Inconsolata" font-size="14.00" fill="#000000">local L = require &quot;lpeg&quot;</text>
<text text-anchor="middle" x="1133.5" y="-364.2007" font-family="Inconsolata" font-size="14.00" fill="#000000">local s = require &quot;lib/status&quot;</text>
<text text-anchor="middle" x="1133.5" y="-348.8006" font-family="Inconsolata" font-size="14.00" fill="#000000">local u = require &quot;lib/util&quot;</text>
<text text-anchor="middle" x="1133.5" y="-333.4006" font-family="Inconsolata" font-size="14.00" fill="#000000">local a = require &quot;lib/ansi&quot;</text>
<text text-anchor="middle" x="1133.5" y="-318.0006" font-family="Inconsolata" font-size="14.00" fill="#000000">s.chatty = true</text>
<text text-anchor="middle" x="1133.5" y="-286.6005" font-family="Inconsolata" font-size="14.00" fill="#000000">local epeg = require &quot;peg/epeg&quot;</text>
<text text-anchor="middle" x="1133.5" y="-255.2005" font-family="Inconsolata" font-size="14.00" fill="#000000">local pl_file = require &quot;pl.file&quot;</text>
<text text-anchor="middle" x="1133.5" y="-239.8005" font-family="Inconsolata" font-size="14.00" fill="#000000">local pl_dir = require &quot;pl.dir&quot;</text>
<text text-anchor="middle" x="1133.5" y="-224.4004" font-family="Inconsolata" font-size="14.00" fill="#000000">local pl_path = require &quot;pl.path&quot;</text>
<text text-anchor="middle" x="1133.5" y="-209.0004" font-family="Inconsolata" font-size="14.00" fill="#000000">local getfiles = pl_dir.getfiles</text>
<text text-anchor="middle" x="1133.5" y="-193.6004" font-family="Inconsolata" font-size="14.00" fill="#000000">local getdirectories = pl_dir.getdirectories</text>
<text text-anchor="middle" x="1133.5" y="-178.2003" font-family="Inconsolata" font-size="14.00" fill="#000000">local makepath = pl_dir.makepath</text>
<text text-anchor="middle" x="1133.5" y="-162.8003" font-family="Inconsolata" font-size="14.00" fill="#000000">local extension = pl_path.extension</text>
<text text-anchor="middle" x="1133.5" y="-147.4003" font-family="Inconsolata" font-size="14.00" fill="#000000">local dirname = pl_path.dirname</text>
<text text-anchor="middle" x="1133.5" y="-132.0002" font-family="Inconsolata" font-size="14.00" fill="#000000">local basename = pl_path.basename</text>
<text text-anchor="middle" x="1133.5" y="-116.6002" font-family="Inconsolata" font-size="14.00" fill="#000000">local read = pl_file.read</text>
<text text-anchor="middle" x="1133.5" y="-101.2002" font-family="Inconsolata" font-size="14.00" fill="#000000">local write = pl_file.write</text>
<text text-anchor="middle" x="1133.5" y="-85.8002" font-family="Inconsolata" font-size="14.00" fill="#000000">local delete = pl_file.delete</text>
<text text-anchor="middle" x="1133.5" y="-70.4001" font-family="Inconsolata" font-size="14.00" fill="#000000">local isdir = pl_path.isdir</text>
<text text-anchor="middle" x="1133.5" y="-39.0001" font-family="Inconsolata" font-size="14.00" fill="#000000">local walk = &quot;walk&quot;</text>
</g>
<!-- codeblock_13&#45;&gt;leaf_14 -->
<g id="edge14" class="edge">
<title>codeblock_13&#45;&gt;leaf_14</title>
<path fill="none" stroke="#000000" stroke-dasharray="5,2" d="M1133.5,-711.4923C1133.5,-664.7089 1133.5,-535.4902 1133.5,-421.4"/>
<polygon fill="#000000" stroke="#000000" points="1137.0001,-421.1138 1133.5,-411.1139 1130.0001,-421.1139 1137.0001,-421.1138"/>
</g>
<!-- leaf_17 -->
<g id="node18" class="node">
<title>leaf_17</title>
<polygon fill="none" stroke="#c0c0c0" points="1828.5,-441.4013 1406.5,-441.4013 1406.5,-.1994 1828.5,-.1994 1828.5,-441.4013"/>
<text text-anchor="middle" x="1617.5" y="-410.4007" font-family="Inconsolata" font-size="14.00" fill="#000000">local pwd = &quot;&quot;</text>
<text text-anchor="middle" x="1617.5" y="-379.0007" font-family="Inconsolata" font-size="14.00" fill="#000000">if (arg) then</text>
<text text-anchor="middle" x="1617.5" y="-363.6007" font-family="Inconsolata" font-size="14.00" fill="#000000"> &#160;pwd = table.remove(arg, 1)</text>
<text text-anchor="middle" x="1617.5" y="-348.2007" font-family="Inconsolata" font-size="14.00" fill="#000000">else</text>
<text text-anchor="middle" x="1617.5" y="-332.8006" font-family="Inconsolata" font-size="14.00" fill="#000000"> &#160;os.exit(&quot;Must be called with a root codex directory&quot;, 1)</text>
<text text-anchor="middle" x="1617.5" y="-317.4006" font-family="Inconsolata" font-size="14.00" fill="#000000">end</text>
<text text-anchor="middle" x="1617.5" y="-286.0006" font-family="Inconsolata" font-size="14.00" fill="#000000">io.write(&quot;pwd: &quot; .. pwd .. &quot;\n&quot;)</text>
<text text-anchor="middle" x="1617.5" y="-254.6005" font-family="Inconsolata" font-size="14.00" fill="#000000">local grymback_rc = read(pwd .. &quot;/.grymback&quot;)</text>
<text text-anchor="middle" x="1617.5" y="-239.2005" font-family="Inconsolata" font-size="14.00" fill="#000000">if not grymback_rc then</text>
<text text-anchor="middle" x="1617.5" y="-223.8005" font-family="Inconsolata" font-size="14.00" fill="#000000"> &#160;s:chat(&quot;No contents in grymback. &#160;No action taken.&quot;)</text>
<text text-anchor="middle" x="1617.5" y="-208.4004" font-family="Inconsolata" font-size="14.00" fill="#000000"> &#160;os.exit()</text>
<text text-anchor="middle" x="1617.5" y="-193.0004" font-family="Inconsolata" font-size="14.00" fill="#000000">else</text>
<text text-anchor="middle" x="1617.5" y="-177.6004" font-family="Inconsolata" font-size="14.00" fill="#000000"> &#160;for _,v in ipairs(epeg.split(grymback_rc, &quot;\n&quot;)) do</text>
<text text-anchor="middle" x="1617.5" y="-162.2003" font-family="Inconsolata" font-size="14.00" fill="#000000"> &#160;&#160;&#160;if v ~= &quot;&quot; then</text>
<text text-anchor="middle" x="1617.5" y="-146.8003" font-family="Inconsolata" font-size="14.00" fill="#000000"> &#160;&#160;&#160;&#160;&#160;s:chat(&quot;Reverting &quot; .. a.cyan(grymback_rc))</text>
<text text-anchor="middle" x="1617.5" y="-131.4003" font-family="Inconsolata" font-size="14.00" fill="#000000"> &#160;&#160;&#160;&#160;&#160;s:chat(&quot;Reading &quot; .. a.green(pwd .. &quot;/tmp&quot; .. v))</text>
<text text-anchor="middle" x="1617.5" y="-116.0002" font-family="Inconsolata" font-size="14.00" fill="#000000"> &#160;&#160;&#160;&#160;&#160;local new_tmp = read(pwd .. &quot;/tmp&quot; .. v)</text>
<text text-anchor="middle" x="1617.5" y="-100.6002" font-family="Inconsolata" font-size="14.00" fill="#000000"> &#160;&#160;&#160;&#160;&#160;if new_tmp then</text>
<text text-anchor="middle" x="1617.5" y="-85.2002" font-family="Inconsolata" font-size="14.00" fill="#000000"> &#160;&#160;&#160;&#160;&#160;&#160;&#160;s:chat(&quot; &#160;&#45; writing&quot;)</text>
<text text-anchor="middle" x="1617.5" y="-69.8002" font-family="Inconsolata" font-size="14.00" fill="#000000"> &#160;&#160;&#160;&#160;&#160;&#160;&#160;write(v, read(pwd .. &quot;/tmp&quot; .. v))</text>
<text text-anchor="middle" x="1617.5" y="-54.4001" font-family="Inconsolata" font-size="14.00" fill="#000000"> &#160;&#160;&#160;&#160;&#160;end</text>
<text text-anchor="middle" x="1617.5" y="-39.0001" font-family="Inconsolata" font-size="14.00" fill="#000000"> &#160;&#160;&#160;end</text>
<text text-anchor="middle" x="1617.5" y="-23.6001" font-family="Inconsolata" font-size="14.00" fill="#000000"> &#160;end</text>
<text text-anchor="middle" x="1617.5" y="-8.2" font-family="Inconsolata" font-size="14.00" fill="#000000">end</text>
</g>
<!-- codeblock_16&#45;&gt;leaf_17 -->
<g id="edge17" class="edge">
<title>codeblock_16&#45;&gt;leaf_17</title>
<path fill="none" stroke="#000000" stroke-dasharray="5,2" d="M1617.5,-711.4923C1617.5,-668.8331 1617.5,-557.6324 1617.5,-451.8591"/>
<polygon fill="#000000" stroke="#000000" points="1621.0001,-451.6424 1617.5,-441.6424 1614.0001,-451.6424 1621.0001,-451.6424"/>
</g>
</g>
</svg>