<?xml version="1.0" encoding="UTF-8" standalone="no"?>
<!DOCTYPE svg PUBLIC "-//W3C//DTD SVG 1.1//EN"
 "http://www.w3.org/Graphics/SVG/1.1/DTD/svg11.dtd">
<!-- Generated by graphviz version 2.40.1 (20161225.0304)
 -->
<!-- Title: lpegNode Pages: 1 -->
<svg width="430pt" height="367pt"
 viewBox="0.00 0.00 430.00 367.40" xmlns="http://www.w3.org/2000/svg" xmlns:xlink="http://www.w3.org/1999/xlink">
<g id="graph0" class="graph" transform="scale(1 1) rotate(0) translate(4 363.4)">
<title>lpegNode</title>
<polygon fill="#ffffff" stroke="transparent" points="-4,4 -4,-363.4 426,-363.4 426,4 -4,4"/>
<!-- doc_0 -->
<g id="node1" class="espalier/node">
<title>doc_0</title>
<ellipse fill="none" stroke="#000000" cx="169" cy="-341.4" rx="37.2854" ry="18"/>
<text text-anchor="middle" x="169" y="-337.2" font-family="Helvetica,sans-Serif" font-size="14.00" fill="#000000">doc &#45; 4</text>
</g>
<!-- section_1 -->
<g id="node2" class="espalier/node">
<title>section_1</title>
<ellipse fill="none" stroke="#000000" cx="169" cy="-269.4" rx="55.6456" ry="18"/>
<text text-anchor="middle" x="169" y="-265.2" font-family="Helvetica,sans-Serif" font-size="14.00" fill="#000000">section: 1&#45;4</text>
</g>
<!-- doc_0&#45;&gt;section_1 -->
<g id="edge1" class="edge">
<title>doc_0&#45;&gt;section_1</title>
<path fill="none" stroke="#000000" stroke-dasharray="5,2" d="M169,-323.2314C169,-315.531 169,-306.3744 169,-297.8167"/>
<polygon fill="#000000" stroke="#000000" points="172.5001,-297.8133 169,-287.8133 165.5001,-297.8133 172.5001,-297.8133"/>
</g>
<!-- header_2 -->
<g id="node3" class="espalier/node">
<title>header_2</title>
<ellipse fill="none" stroke="#000000" cx="127" cy="-197.4" rx="34.3874" ry="18"/>
<text text-anchor="middle" x="127" y="-193.2" font-family="Helvetica,sans-Serif" font-size="14.00" fill="#000000">1 : Init</text>
</g>
<!-- section_1&#45;&gt;header_2 -->
<g id="edge2" class="edge">
<title>section_1&#45;&gt;header_2</title>
<path fill="none" stroke="#000000" stroke-dasharray="5,2" d="M158.618,-251.6023C153.6989,-243.1695 147.725,-232.9286 142.3001,-223.6288"/>
<polygon fill="#000000" stroke="#000000" points="145.1797,-221.6189 137.1177,-214.7446 139.1332,-225.146 145.1797,-221.6189"/>
</g>
<!-- prose_3 -->
<g id="node4" class="espalier/node">
<title>prose_3</title>
<ellipse fill="none" stroke="#000000" cx="211" cy="-197.4" rx="32.4585" ry="18"/>
<text text-anchor="middle" x="211" y="-193.2" font-family="Helvetica,sans-Serif" font-size="14.00" fill="#000000">prose</text>
</g>
<!-- section_1&#45;&gt;prose_3 -->
<g id="edge3" class="edge">
<title>section_1&#45;&gt;prose_3</title>
<path fill="none" stroke="#000000" stroke-dasharray="5,2" d="M179.382,-251.6023C184.3011,-243.1695 190.275,-232.9286 195.6999,-223.6288"/>
<polygon fill="#000000" stroke="#000000" points="198.8668,-225.146 200.8823,-214.7446 192.8203,-221.6189 198.8668,-225.146"/>
</g>
<!-- leaf_4 -->
<g id="node5" class="espalier/node">
<title>leaf_4</title>
<polygon fill="none" stroke="#c0c0c0" points="156,-143.4 98,-143.4 98,-107.4 156,-107.4 156,-143.4"/>
<text text-anchor="middle" x="127" y="-121.9" font-family="Inconsolata" font-size="14.00" fill="#000000">* Init</text>
</g>
<!-- header_2&#45;&gt;leaf_4 -->
<g id="edge4" class="edge">
<title>header_2&#45;&gt;leaf_4</title>
<path fill="none" stroke="#000000" stroke-dasharray="5,2" d="M127,-179.2314C127,-171.531 127,-162.3744 127,-153.8167"/>
<polygon fill="#000000" stroke="#000000" points="130.5001,-153.8133 127,-143.8133 123.5001,-153.8133 130.5001,-153.8133"/>
</g>
<!-- raw_5 -->
<g id="node6" class="espalier/node">
<title>raw_5</title>
<ellipse fill="none" stroke="#000000" cx="211" cy="-125.4" rx="27" ry="18"/>
<text text-anchor="middle" x="211" y="-121.2" font-family="Helvetica,sans-Serif" font-size="14.00" fill="#000000">raw</text>
</g>
<!-- prose_3&#45;&gt;raw_5 -->
<g id="edge5" class="edge">
<title>prose_3&#45;&gt;raw_5</title>
<path fill="none" stroke="#000000" stroke-dasharray="5,2" d="M211,-179.2314C211,-171.531 211,-162.3744 211,-153.8167"/>
<polygon fill="#000000" stroke="#000000" points="214.5001,-153.8133 211,-143.8133 207.5001,-153.8133 214.5001,-153.8133"/>
</g>
<!-- leaf_6 -->
<g id="node7" class="espalier/node">
<title>leaf_6</title>
<polygon fill="none" stroke="#c0c0c0" points="422,-71.6012 0,-71.6012 0,.2011 422,.2011 422,-71.6012"/>
<text text-anchor="middle" x="211" y="-8.2" font-family="Inconsolata" font-size="14.00" fill="#000000">This sets up a presumably empty directory in codex format.</text>
</g>
<!-- raw_5&#45;&gt;leaf_6 -->
<g id="edge6" class="edge">
<title>raw_5&#45;&gt;leaf_6</title>
<path fill="none" stroke="#000000" stroke-dasharray="5,2" d="M211,-107.2479C211,-99.809 211,-90.8294 211,-81.7829"/>
<polygon fill="#000000" stroke="#000000" points="214.5001,-81.6192 211,-71.6192 207.5001,-81.6192 214.5001,-81.6192"/>
</g>
</g>
</svg>