<?xml version="1.0" encoding="UTF-8" standalone="no"?>
<!DOCTYPE svg PUBLIC "-//W3C//DTD SVG 1.1//EN"
 "http://www.w3.org/Graphics/SVG/1.1/DTD/svg11.dtd">
<!-- Generated by graphviz version 2.40.1 (20161225.0304)
 -->
<!-- Title: lpegNode Pages: 1 -->
<svg width="3356pt" height="366pt"
 viewBox="0.00 0.00 3355.50 366.20" xmlns="http://www.w3.org/2000/svg" xmlns:xlink="http://www.w3.org/1999/xlink">
<g id="graph0" class="graph" transform="scale(1 1) rotate(0) translate(4 362.2001)">
<title>lpegNode</title>
<polygon fill="#ffffff" stroke="transparent" points="-4,4 -4,-362.2001 3351.5,-362.2001 3351.5,4 -4,4"/>
<!-- doc_0 -->
<g id="node1" class="node">
<title>doc_0</title>
<ellipse fill="none" stroke="#000000" cx="1518.5" cy="-340.2001" rx="42.1216" ry="18"/>
<text text-anchor="middle" x="1518.5" y="-336.0001" font-family="Helvetica,sans-Serif" font-size="14.00" fill="#000000">doc &#45; 19</text>
</g>
<!-- section_1 -->
<g id="node2" class="node">
<title>section_1</title>
<ellipse fill="none" stroke="#000000" cx="1518.5" cy="-268.2001" rx="60.9826" ry="18"/>
<text text-anchor="middle" x="1518.5" y="-264.0001" font-family="Helvetica,sans-Serif" font-size="14.00" fill="#000000">section: 1&#45;19</text>
</g>
<!-- doc_0&#45;&gt;section_1 -->
<g id="edge1" class="edge">
<title>doc_0&#45;&gt;section_1</title>
<path fill="none" stroke="#000000" stroke-dasharray="5,2" d="M1518.5,-322.0315C1518.5,-314.331 1518.5,-305.1744 1518.5,-296.6167"/>
<polygon fill="#000000" stroke="#000000" points="1522.0001,-296.6133 1518.5,-286.6134 1515.0001,-296.6134 1522.0001,-296.6133"/>
</g>
<!-- header_2 -->
<g id="node3" class="node">
<title>header_2</title>
<ellipse fill="none" stroke="#000000" cx="1176.5" cy="-196.2001" rx="88.0467" ry="18"/>
<text text-anchor="middle" x="1176.5" y="-192.0001" font-family="Helvetica,sans-Serif" font-size="14.00" fill="#000000">1 : concordance.orb</text>
</g>
<!-- section_1&#45;&gt;header_2 -->
<g id="edge2" class="edge">
<title>section_1&#45;&gt;header_2</title>
<path fill="none" stroke="#000000" stroke-dasharray="5,2" d="M1468.7703,-257.7307C1410.7079,-245.507 1314.2141,-225.1925 1248.0953,-211.2728"/>
<polygon fill="#000000" stroke="#000000" points="1248.6687,-207.8169 1238.1621,-209.1816 1247.2266,-214.6667 1248.6687,-207.8169"/>
</g>
<!-- prose_3 -->
<g id="node4" class="node">
<title>prose_3</title>
<ellipse fill="none" stroke="#000000" cx="1337.5" cy="-196.2001" rx="32.4585" ry="18"/>
<text text-anchor="middle" x="1337.5" y="-192.0001" font-family="Helvetica,sans-Serif" font-size="14.00" fill="#000000">prose</text>
</g>
<!-- section_1&#45;&gt;prose_3 -->
<g id="edge3" class="edge">
<title>section_1&#45;&gt;prose_3</title>
<path fill="none" stroke="#000000" stroke-dasharray="5,2" d="M1481.8719,-253.6298C1450.2736,-241.0603 1404.899,-223.0107 1373.4884,-210.5159"/>
<polygon fill="#000000" stroke="#000000" points="1374.4015,-207.1124 1363.8159,-206.6683 1371.8141,-213.6167 1374.4015,-207.1124"/>
</g>
<!-- prose_4 -->
<g id="node5" class="node">
<title>prose_4</title>
<ellipse fill="none" stroke="#000000" cx="1430.5" cy="-196.2001" rx="32.4585" ry="18"/>
<text text-anchor="middle" x="1430.5" y="-192.0001" font-family="Helvetica,sans-Serif" font-size="14.00" fill="#000000">prose</text>
</g>
<!-- section_1&#45;&gt;prose_4 -->
<g id="edge4" class="edge">
<title>section_1&#45;&gt;prose_4</title>
<path fill="none" stroke="#000000" stroke-dasharray="5,2" d="M1497.6452,-251.1371C1485.3549,-241.0814 1469.6965,-228.27 1456.5929,-217.5488"/>
<polygon fill="#000000" stroke="#000000" points="1458.7731,-214.8104 1448.8172,-211.1869 1454.3404,-220.2281 1458.7731,-214.8104"/>
</g>
<!-- prose_5 -->
<g id="node6" class="node">
<title>prose_5</title>
<ellipse fill="none" stroke="#000000" cx="1518.5" cy="-196.2001" rx="32.4585" ry="18"/>
<text text-anchor="middle" x="1518.5" y="-192.0001" font-family="Helvetica,sans-Serif" font-size="14.00" fill="#000000">prose</text>
</g>
<!-- section_1&#45;&gt;prose_5 -->
<g id="edge5" class="edge">
<title>section_1&#45;&gt;prose_5</title>
<path fill="none" stroke="#000000" stroke-dasharray="5,2" d="M1518.5,-250.0315C1518.5,-242.331 1518.5,-233.1744 1518.5,-224.6167"/>
<polygon fill="#000000" stroke="#000000" points="1522.0001,-224.6133 1518.5,-214.6134 1515.0001,-224.6134 1522.0001,-224.6133"/>
</g>
<!-- prose_6 -->
<g id="node7" class="node">
<title>prose_6</title>
<ellipse fill="none" stroke="#000000" cx="1671.5" cy="-196.2001" rx="32.4585" ry="18"/>
<text text-anchor="middle" x="1671.5" y="-192.0001" font-family="Helvetica,sans-Serif" font-size="14.00" fill="#000000">prose</text>
</g>
<!-- section_1&#45;&gt;prose_6 -->
<g id="edge6" class="edge">
<title>section_1&#45;&gt;prose_6</title>
<path fill="none" stroke="#000000" stroke-dasharray="5,2" d="M1550.9474,-252.9307C1576.4158,-240.9456 1611.7661,-224.3102 1637.6005,-212.1528"/>
<polygon fill="#000000" stroke="#000000" points="1639.0941,-215.3182 1646.652,-207.8933 1636.1135,-208.9844 1639.0941,-215.3182"/>
</g>
<!-- prose_7 -->
<g id="node8" class="node">
<title>prose_7</title>
<ellipse fill="none" stroke="#000000" cx="1788.5" cy="-196.2001" rx="32.4585" ry="18"/>
<text text-anchor="middle" x="1788.5" y="-192.0001" font-family="Helvetica,sans-Serif" font-size="14.00" fill="#000000">prose</text>
</g>
<!-- section_1&#45;&gt;prose_7 -->
<g id="edge7" class="edge">
<title>section_1&#45;&gt;prose_7</title>
<path fill="none" stroke="#000000" stroke-dasharray="5,2" d="M1563.6919,-256.1489C1615.6886,-242.2831 1700.2159,-219.7425 1749.4647,-206.6095"/>
<polygon fill="#000000" stroke="#000000" points="1750.6535,-209.9149 1759.414,-203.9564 1748.8498,-203.1512 1750.6535,-209.9149"/>
</g>
<!-- prose_8 -->
<g id="node9" class="node">
<title>prose_8</title>
<ellipse fill="none" stroke="#000000" cx="1888.5" cy="-196.2001" rx="32.4585" ry="18"/>
<text text-anchor="middle" x="1888.5" y="-192.0001" font-family="Helvetica,sans-Serif" font-size="14.00" fill="#000000">prose</text>
</g>
<!-- section_1&#45;&gt;prose_8 -->
<g id="edge8" class="edge">
<title>section_1&#45;&gt;prose_8</title>
<path fill="none" stroke="#000000" stroke-dasharray="5,2" d="M1573.9772,-260.692C1636.514,-251.7377 1741.0101,-235.2948 1829.5,-214.2001 1836.4291,-212.5483 1843.7405,-210.5397 1850.7679,-208.4712"/>
<polygon fill="#000000" stroke="#000000" points="1852.2299,-211.6852 1860.7828,-205.4323 1850.1974,-204.9868 1852.2299,-211.6852"/>
</g>
<!-- leaf_9 -->
<g id="node10" class="node">
<title>leaf_9</title>
<polygon fill="none" stroke="#c0c0c0" points="1190,-142.2001 1055,-142.2001 1055,-106.2001 1190,-106.2001 1190,-142.2001"/>
<text text-anchor="middle" x="1122.5" y="-120.7001" font-family="Inconsolata" font-size="14.00" fill="#000000">* concordance.orb</text>
</g>
<!-- header_2&#45;&gt;leaf_9 -->
<g id="edge9" class="edge">
<title>header_2&#45;&gt;leaf_9</title>
<path fill="none" stroke="#000000" stroke-dasharray="5,2" d="M1163.1517,-178.4023C1156.8389,-169.9852 1149.1749,-159.7666 1142.2103,-150.4805"/>
<polygon fill="#000000" stroke="#000000" points="1144.8699,-148.1932 1136.0698,-142.2932 1139.2699,-152.3932 1144.8699,-148.1932"/>
</g>
<!-- raw_10 -->
<g id="node11" class="node">
<title>raw_10</title>
<ellipse fill="none" stroke="#000000" cx="1235.5" cy="-124.2001" rx="27" ry="18"/>
<text text-anchor="middle" x="1235.5" y="-120.0001" font-family="Helvetica,sans-Serif" font-size="14.00" fill="#000000">raw</text>
</g>
<!-- prose_3&#45;&gt;raw_10 -->
<g id="edge10" class="edge">
<title>prose_3&#45;&gt;raw_10</title>
<path fill="none" stroke="#000000" stroke-dasharray="5,2" d="M1317.3481,-181.9752C1301.7249,-170.9471 1279.9153,-155.5521 1262.7376,-143.4267"/>
<polygon fill="#000000" stroke="#000000" points="1264.4225,-140.3318 1254.2344,-137.4243 1260.3856,-146.0506 1264.4225,-140.3318"/>
</g>
<!-- raw_12 -->
<g id="node13" class="node">
<title>raw_12</title>
<ellipse fill="none" stroke="#000000" cx="1307.5" cy="-124.2001" rx="27" ry="18"/>
<text text-anchor="middle" x="1307.5" y="-120.0001" font-family="Helvetica,sans-Serif" font-size="14.00" fill="#000000">raw</text>
</g>
<!-- prose_4&#45;&gt;raw_12 -->
<g id="edge12" class="edge">
<title>prose_4&#45;&gt;raw_12</title>
<path fill="none" stroke="#000000" stroke-dasharray="5,2" d="M1408.2256,-183.1614C1388.2358,-171.4601 1358.7566,-154.204 1336.8494,-141.3802"/>
<polygon fill="#000000" stroke="#000000" points="1338.3722,-138.2161 1327.9739,-136.1848 1334.8359,-144.2572 1338.3722,-138.2161"/>
</g>
<!-- raw_14 -->
<g id="node15" class="node">
<title>raw_14</title>
<ellipse fill="none" stroke="#000000" cx="1379.5" cy="-124.2001" rx="27" ry="18"/>
<text text-anchor="middle" x="1379.5" y="-120.0001" font-family="Helvetica,sans-Serif" font-size="14.00" fill="#000000">raw</text>
</g>
<!-- prose_5&#45;&gt;raw_14 -->
<g id="edge14" class="edge">
<title>prose_5&#45;&gt;raw_14</title>
<path fill="none" stroke="#000000" stroke-dasharray="5,2" d="M1494.605,-183.8229C1471.3411,-171.7724 1435.8712,-153.3996 1410.4572,-140.2355"/>
<polygon fill="#000000" stroke="#000000" points="1411.7451,-136.9609 1401.2557,-135.4693 1408.5254,-143.1766 1411.7451,-136.9609"/>
</g>
<!-- prespace_15 -->
<g id="node16" class="node">
<title>prespace_15</title>
<ellipse fill="none" stroke="#000000" cx="1470.5" cy="-124.2001" rx="46.4736" ry="18"/>
<text text-anchor="middle" x="1470.5" y="-120.0001" font-family="Helvetica,sans-Serif" font-size="14.00" fill="#000000">prespace</text>
</g>
<!-- prose_5&#45;&gt;prespace_15 -->
<g id="edge15" class="edge">
<title>prose_5&#45;&gt;prespace_15</title>
<path fill="none" stroke="#000000" stroke-dasharray="5,2" d="M1507.1247,-179.1371C1501.3513,-170.4771 1494.2154,-159.7732 1487.7805,-150.1208"/>
<polygon fill="#000000" stroke="#000000" points="1490.5863,-148.0198 1482.1271,-141.6408 1484.762,-151.9028 1490.5863,-148.0198"/>
</g>
<!-- literal_16 -->
<g id="node17" class="node">
<title>literal_16</title>
<ellipse fill="none" stroke="#000000" cx="1566.5" cy="-124.2001" rx="31.481" ry="18"/>
<text text-anchor="middle" x="1566.5" y="-120.0001" font-family="Helvetica,sans-Serif" font-size="14.00" fill="#000000">literal</text>
</g>
<!-- prose_5&#45;&gt;literal_16 -->
<g id="edge16" class="edge">
<title>prose_5&#45;&gt;literal_16</title>
<path fill="none" stroke="#000000" stroke-dasharray="5,2" d="M1529.8753,-179.1371C1535.7336,-170.3497 1542.9948,-159.458 1549.5029,-149.6957"/>
<polygon fill="#000000" stroke="#000000" points="1552.5715,-151.4026 1555.2063,-141.1406 1546.7471,-147.5197 1552.5715,-151.4026"/>
</g>
<!-- raw_17 -->
<g id="node18" class="node">
<title>raw_17</title>
<ellipse fill="none" stroke="#000000" cx="1642.5" cy="-124.2001" rx="27" ry="18"/>
<text text-anchor="middle" x="1642.5" y="-120.0001" font-family="Helvetica,sans-Serif" font-size="14.00" fill="#000000">raw</text>
</g>
<!-- prose_5&#45;&gt;raw_17 -->
<g id="edge17" class="edge">
<title>prose_5&#45;&gt;raw_17</title>
<path fill="none" stroke="#000000" stroke-dasharray="5,2" d="M1540.9555,-183.1614C1561.1978,-171.4078 1591.0922,-154.0498 1613.2073,-141.2087"/>
<polygon fill="#000000" stroke="#000000" points="1614.9693,-144.233 1621.8597,-136.1848 1611.4543,-138.1794 1614.9693,-144.233"/>
</g>
<!-- raw_22 -->
<g id="node23" class="node">
<title>raw_22</title>
<ellipse fill="none" stroke="#000000" cx="1836.5" cy="-124.2001" rx="27" ry="18"/>
<text text-anchor="middle" x="1836.5" y="-120.0001" font-family="Helvetica,sans-Serif" font-size="14.00" fill="#000000">raw</text>
</g>
<!-- prose_6&#45;&gt;raw_22 -->
<g id="edge22" class="edge">
<title>prose_6&#45;&gt;raw_22</title>
<path fill="none" stroke="#000000" stroke-dasharray="5,2" d="M1696.9196,-185.1079C1725.8386,-172.4887 1773.1111,-151.8607 1804.512,-138.1585"/>
<polygon fill="#000000" stroke="#000000" points="1805.9442,-141.3523 1813.7097,-134.1449 1803.1445,-134.9365 1805.9442,-141.3523"/>
</g>
<!-- raw_24 -->
<g id="node25" class="node">
<title>raw_24</title>
<ellipse fill="none" stroke="#000000" cx="2214.5" cy="-124.2001" rx="27" ry="18"/>
<text text-anchor="middle" x="2214.5" y="-120.0001" font-family="Helvetica,sans-Serif" font-size="14.00" fill="#000000">raw</text>
</g>
<!-- prose_7&#45;&gt;raw_24 -->
<g id="edge24" class="edge">
<title>prose_7&#45;&gt;raw_24</title>
<path fill="none" stroke="#000000" stroke-dasharray="5,2" d="M1816.1823,-186.8173C1825.989,-183.7439 1837.156,-180.5252 1847.5,-178.2001 1966.7855,-151.3874 2110.979,-134.6455 2177.5386,-127.7831"/>
<polygon fill="#000000" stroke="#000000" points="2177.944,-131.26 2187.5387,-126.7665 2177.236,-124.2959 2177.944,-131.26"/>
</g>
<!-- raw_26 -->
<g id="node27" class="node">
<title>raw_26</title>
<ellipse fill="none" stroke="#000000" cx="2683.5" cy="-124.2001" rx="27" ry="18"/>
<text text-anchor="middle" x="2683.5" y="-120.0001" font-family="Helvetica,sans-Serif" font-size="14.00" fill="#000000">raw</text>
</g>
<!-- prose_8&#45;&gt;raw_26 -->
<g id="edge26" class="edge">
<title>prose_8&#45;&gt;raw_26</title>
<path fill="none" stroke="#000000" stroke-dasharray="5,2" d="M1920.6496,-193.2884C2047.2171,-181.8257 2510.8006,-139.8408 2646.1583,-127.582"/>
<polygon fill="#000000" stroke="#000000" points="2646.7763,-131.0404 2656.4199,-126.6526 2646.1449,-124.069 2646.7763,-131.0404"/>
</g>
<!-- leaf_11 -->
<g id="node12" class="node">
<title>leaf_11</title>
<polygon fill="none" stroke="#c0c0c0" points="541,-63.0015 0,-63.0015 0,-7.1986 541,-7.1986 541,-63.0015"/>
<text text-anchor="middle" x="270.5" y="-15.6001" font-family="Inconsolata" font-size="14.00" fill="#000000">A versioned or published edition of a codex deserves a perfect concordance.</text>
</g>
<!-- raw_10&#45;&gt;leaf_11 -->
<g id="edge11" class="edge">
<title>raw_10&#45;&gt;leaf_11</title>
<path fill="none" stroke="#000000" stroke-dasharray="5,2" d="M1214.9247,-112.4118C1209.7187,-109.9331 1204.0312,-107.6366 1198.5,-106.2001 1058.694,-69.8912 693.3557,-83.2229 549.5,-70.2001 529.5485,-68.3939 508.8246,-66.265 488.0885,-63.963"/>
<polygon fill="#000000" stroke="#000000" points="488.2395,-60.4581 477.9113,-62.8198 487.458,-67.4143 488.2395,-60.4581"/>
</g>
<!-- leaf_13 -->
<g id="node14" class="node">
<title>leaf_13</title>
<polygon fill="none" stroke="#c0c0c0" points="890,-55.0021 559,-55.0021 559,-15.198 890,-15.198 890,-55.0021"/>
<text text-anchor="middle" x="724.5" y="-23.6001" font-family="Inconsolata" font-size="14.00" fill="#000000">This is the co&#45;product of a book, in a sense.</text>
</g>
<!-- raw_12&#45;&gt;leaf_13 -->
<g id="edge13" class="edge">
<title>raw_12&#45;&gt;leaf_13</title>
<path fill="none" stroke="#000000" stroke-dasharray="5,2" d="M1287.087,-112.379C1282.1265,-109.9653 1276.7383,-107.706 1271.5,-106.2001 1111.4349,-60.1844 1063.2364,-94.6992 898.5,-70.2001 873.9867,-66.5546 847.7036,-61.7356 823.1817,-56.8403"/>
<polygon fill="#000000" stroke="#000000" points="823.6505,-53.3644 813.1555,-54.8154 822.2647,-60.2258 823.6505,-53.3644"/>
</g>
<!-- leaf_18 -->
<g id="node19" class="node">
<title>leaf_18</title>
<polygon fill="none" stroke="#c0c0c0" points="1449,-62.4005 908,-62.4005 908,-7.7996 1449,-7.7996 1449,-62.4005"/>
<text text-anchor="middle" x="1178.5" y="-31.3001" font-family="Inconsolata" font-size="14.00" fill="#000000">We do this at the letter level, punctuation included, every codepoint which</text>
<text text-anchor="middle" x="1178.5" y="-15.9" font-family="Inconsolata" font-size="14.00" fill="#000000">makes an appearance is stored with each and every offset into the original</text>
</g>
<!-- raw_14&#45;&gt;leaf_18 -->
<g id="edge18" class="edge">
<title>raw_14&#45;&gt;leaf_18</title>
<path fill="none" stroke="#000000" stroke-dasharray="5,2" d="M1357.8947,-113.1486C1353.1749,-110.8042 1348.1888,-108.3804 1343.5,-106.2001 1314.4041,-92.6705 1282.0485,-78.5335 1253.7513,-66.4619"/>
<polygon fill="#000000" stroke="#000000" points="1254.8931,-63.1442 1244.321,-62.4511 1252.1534,-69.5858 1254.8931,-63.1442"/>
</g>
<!-- leaf_19 -->
<g id="node20" class="node">
<title>leaf_19</title>
<polygon fill="none" stroke="#c0c0c0" points="1521.5,-53.1 1467.5,-53.1 1467.5,-17.1 1521.5,-17.1 1521.5,-53.1"/>
</g>
<!-- prespace_15&#45;&gt;leaf_19 -->
<g id="edge19" class="edge">
<title>prespace_15&#45;&gt;leaf_19</title>
<path fill="none" stroke="#000000" stroke-dasharray="5,2" d="M1475.3568,-106.1694C1478.7074,-93.7301 1483.2262,-76.9539 1487.0321,-62.8246"/>
<polygon fill="#000000" stroke="#000000" points="1490.429,-63.6701 1489.6505,-53.104 1483.6699,-61.8495 1490.429,-63.6701"/>
</g>
<!-- leaf_20 -->
<g id="node21" class="node">
<title>leaf_20</title>
<polygon fill="none" stroke="#c0c0c0" points="1593.5,-53.1 1539.5,-53.1 1539.5,-17.1 1593.5,-17.1 1593.5,-53.1"/>
<text text-anchor="middle" x="1566.5" y="-31.6001" font-family="Inconsolata" font-size="14.00" fill="#000000">.orb</text>
</g>
<!-- literal_16&#45;&gt;leaf_20 -->
<g id="edge20" class="edge">
<title>literal_16&#45;&gt;leaf_20</title>
<path fill="none" stroke="#000000" stroke-dasharray="5,2" d="M1566.5,-106.1694C1566.5,-93.8509 1566.5,-77.2793 1566.5,-63.2369"/>
<polygon fill="#000000" stroke="#000000" points="1570.0001,-63.1039 1566.5,-53.104 1563.0001,-63.104 1570.0001,-63.1039"/>
</g>
<!-- leaf_21 -->
<g id="node22" class="node">
<title>leaf_21</title>
<polygon fill="none" stroke="#c0c0c0" points="1669.5,-53.1 1611.5,-53.1 1611.5,-17.1 1669.5,-17.1 1669.5,-53.1"/>
<text text-anchor="middle" x="1640.5" y="-31.6001" font-family="Inconsolata" font-size="14.00" fill="#000000"> file.</text>
</g>
<!-- raw_17&#45;&gt;leaf_21 -->
<g id="edge21" class="edge">
<title>raw_17&#45;&gt;leaf_21</title>
<path fill="none" stroke="#000000" stroke-dasharray="5,2" d="M1642.0953,-106.1694C1641.8188,-93.8509 1641.4468,-77.2793 1641.1316,-63.2369"/>
<polygon fill="#000000" stroke="#000000" points="1644.6278,-63.0229 1640.9041,-53.104 1637.6295,-63.18 1644.6278,-63.0229"/>
</g>
<!-- leaf_23 -->
<g id="node24" class="node">
<title>leaf_23</title>
<polygon fill="none" stroke="#c0c0c0" points="2229,-70.3004 1688,-70.3004 1688,.1003 2229,.1003 2229,-70.3004"/>
<text text-anchor="middle" x="1958.5" y="-39.0001" font-family="Inconsolata" font-size="14.00" fill="#000000">We also do this at the word boundary level, and indeed, as we grow in power</text>
<text text-anchor="middle" x="1958.5" y="-23.6001" font-family="Inconsolata" font-size="14.00" fill="#000000">and sophistication, on the morphemic and grammatical particle levels, and</text>
<text text-anchor="middle" x="1958.5" y="-8.2" font-family="Inconsolata" font-size="14.00" fill="#000000">phonemics, phrasals</text>
</g>
<!-- raw_22&#45;&gt;leaf_23 -->
<g id="edge23" class="edge">
<title>raw_22&#45;&gt;leaf_23</title>
<path fill="none" stroke="#000000" stroke-dasharray="5,2" d="M1854.7646,-110.8609C1867.3892,-101.6408 1884.9216,-88.8365 1901.9836,-76.3756"/>
<polygon fill="#000000" stroke="#000000" points="1904.2867,-79.0276 1910.2981,-70.3033 1900.1582,-73.3747 1904.2867,-79.0276"/>
</g>
<!-- leaf_25 -->
<g id="node26" class="node">
<title>leaf_25</title>
<polygon fill="none" stroke="#c0c0c0" points="2795.5,-62.4005 2247.5,-62.4005 2247.5,-7.7996 2795.5,-7.7996 2795.5,-62.4005"/>
<text text-anchor="middle" x="2521.5" y="-31.3001" font-family="Inconsolata" font-size="14.00" fill="#000000">Thing is this is superlinear by a constant factor and it gets thinner as you</text>
<text text-anchor="middle" x="2521.5" y="-15.9" font-family="Inconsolata" font-size="14.00" fill="#000000">raise complexity.</text>
</g>
<!-- raw_24&#45;&gt;leaf_25 -->
<g id="edge25" class="edge">
<title>raw_24&#45;&gt;leaf_25</title>
<path fill="none" stroke="#000000" stroke-dasharray="5,2" d="M2239.3631,-116.9841C2277.8556,-105.8125 2354.0629,-83.695 2417.5808,-65.2603"/>
<polygon fill="#000000" stroke="#000000" points="2418.6276,-68.601 2427.2557,-62.4524 2416.6764,-61.8784 2418.6276,-68.601"/>
</g>
<!-- leaf_27 -->
<g id="node28" class="node">
<title>leaf_27</title>
<polygon fill="none" stroke="#c0c0c0" points="3347.5,-62.4005 2813.5,-62.4005 2813.5,-7.7996 3347.5,-7.7996 3347.5,-62.4005"/>
<text text-anchor="middle" x="3080.5" y="-31.3001" font-family="Inconsolata" font-size="14.00" fill="#000000">There&#39;s no reason not to put it on a yield loop on the main channel, it&#39;ll</text>
<text text-anchor="middle" x="3080.5" y="-15.9" font-family="Inconsolata" font-size="14.00" fill="#000000">sort out and then we just have it.</text>
</g>
<!-- raw_26&#45;&gt;leaf_27 -->
<g id="edge27" class="edge">
<title>raw_26&#45;&gt;leaf_27</title>
<path fill="none" stroke="#000000" stroke-dasharray="5,2" d="M2709.2424,-118.4226C2757.0564,-107.6916 2862.5652,-84.0119 2948.9296,-64.6288"/>
<polygon fill="#000000" stroke="#000000" points="2949.8344,-68.0129 2958.8252,-62.4079 2948.3015,-61.1828 2949.8344,-68.0129"/>
</g>
</g>
</svg>
