<?xml version="1.0" encoding="UTF-8" standalone="no"?>
<!DOCTYPE svg PUBLIC "-//W3C//DTD SVG 1.1//EN"
 "http://www.w3.org/Graphics/SVG/1.1/DTD/svg11.dtd">
<!-- Generated by graphviz version 2.40.1 (20161225.0304)
 -->
<!-- Title: lpegNode Pages: 1 -->
<svg width="3370pt" height="366pt"
 viewBox="0.00 0.00 3369.50 366.20" xmlns="http://www.w3.org/2000/svg" xmlns:xlink="http://www.w3.org/1999/xlink">
<g id="graph0" class="graph" transform="scale(1 1) rotate(0) translate(4 362.2001)">
<title>lpegNode</title>
<polygon fill="#ffffff" stroke="transparent" points="-4,4 -4,-362.2001 3365.5,-362.2001 3365.5,4 -4,4"/>
<!-- doc_0 -->
<g id="node1" class="node">
<title>doc_0</title>
<ellipse fill="none" stroke="#000000" cx="1532.5" cy="-340.2001" rx="42.1216" ry="18"/>
<text text-anchor="middle" x="1532.5" y="-336.0001" font-family="Helvetica,sans-Serif" font-size="14.00" fill="#000000">doc &#45; 19</text>
</g>
<!-- section_1 -->
<g id="node2" class="node">
<title>section_1</title>
<ellipse fill="none" stroke="#000000" cx="1532.5" cy="-268.2001" rx="60.9826" ry="18"/>
<text text-anchor="middle" x="1532.5" y="-264.0001" font-family="Helvetica,sans-Serif" font-size="14.00" fill="#000000">section: 1&#45;19</text>
</g>
<!-- doc_0&#45;&gt;section_1 -->
<g id="edge1" class="edge">
<title>doc_0&#45;&gt;section_1</title>
<path fill="none" stroke="#000000" stroke-dasharray="5,2" d="M1532.5,-322.0315C1532.5,-314.331 1532.5,-305.1744 1532.5,-296.6167"/>
<polygon fill="#000000" stroke="#000000" points="1536.0001,-296.6133 1532.5,-286.6134 1529.0001,-296.6134 1536.0001,-296.6133"/>
</g>
<!-- header_2 -->
<g id="node3" class="node">
<title>header_2</title>
<ellipse fill="none" stroke="#000000" cx="1145.5" cy="-196.2001" rx="136.5396" ry="18"/>
<text text-anchor="middle" x="1145.5" y="-192.0001" font-family="Helvetica,sans-Serif" font-size="14.00" fill="#000000">1 : Concordance #Todo [ ] &#160;Write</text>
</g>
<!-- section_1&#45;&gt;header_2 -->
<g id="edge2" class="edge">
<title>section_1&#45;&gt;header_2</title>
<path fill="none" stroke="#000000" stroke-dasharray="5,2" d="M1480.709,-258.5646C1417.928,-246.8844 1311.0908,-227.0077 1234.9059,-212.8337"/>
<polygon fill="#000000" stroke="#000000" points="1235.3079,-209.3486 1224.8364,-210.9603 1234.0275,-216.2305 1235.3079,-209.3486"/>
</g>
<!-- prose_3 -->
<g id="node4" class="node">
<title>prose_3</title>
<ellipse fill="none" stroke="#000000" cx="1353.5" cy="-196.2001" rx="32.4585" ry="18"/>
<text text-anchor="middle" x="1353.5" y="-192.0001" font-family="Helvetica,sans-Serif" font-size="14.00" fill="#000000">prose</text>
</g>
<!-- section_1&#45;&gt;prose_3 -->
<g id="edge3" class="edge">
<title>section_1&#45;&gt;prose_3</title>
<path fill="none" stroke="#000000" stroke-dasharray="5,2" d="M1496.2767,-253.6298C1465.1196,-241.0974 1420.4189,-223.1172 1389.366,-210.6266"/>
<polygon fill="#000000" stroke="#000000" points="1390.3816,-207.2627 1379.7979,-206.778 1387.7693,-213.757 1390.3816,-207.2627"/>
</g>
<!-- prose_4 -->
<g id="node5" class="node">
<title>prose_4</title>
<ellipse fill="none" stroke="#000000" cx="1445.5" cy="-196.2001" rx="32.4585" ry="18"/>
<text text-anchor="middle" x="1445.5" y="-192.0001" font-family="Helvetica,sans-Serif" font-size="14.00" fill="#000000">prose</text>
</g>
<!-- section_1&#45;&gt;prose_4 -->
<g id="edge4" class="edge">
<title>section_1&#45;&gt;prose_4</title>
<path fill="none" stroke="#000000" stroke-dasharray="5,2" d="M1511.8822,-251.1371C1499.8462,-241.1763 1484.5429,-228.5115 1471.6637,-217.8528"/>
<polygon fill="#000000" stroke="#000000" points="1473.5445,-214.8662 1463.609,-211.1869 1469.0815,-220.259 1473.5445,-214.8662"/>
</g>
<!-- prose_5 -->
<g id="node6" class="node">
<title>prose_5</title>
<ellipse fill="none" stroke="#000000" cx="1532.5" cy="-196.2001" rx="32.4585" ry="18"/>
<text text-anchor="middle" x="1532.5" y="-192.0001" font-family="Helvetica,sans-Serif" font-size="14.00" fill="#000000">prose</text>
</g>
<!-- section_1&#45;&gt;prose_5 -->
<g id="edge5" class="edge">
<title>section_1&#45;&gt;prose_5</title>
<path fill="none" stroke="#000000" stroke-dasharray="5,2" d="M1532.5,-250.0315C1532.5,-242.331 1532.5,-233.1744 1532.5,-224.6167"/>
<polygon fill="#000000" stroke="#000000" points="1536.0001,-224.6133 1532.5,-214.6134 1529.0001,-224.6134 1536.0001,-224.6133"/>
</g>
<!-- prose_6 -->
<g id="node7" class="node">
<title>prose_6</title>
<ellipse fill="none" stroke="#000000" cx="1685.5" cy="-196.2001" rx="32.4585" ry="18"/>
<text text-anchor="middle" x="1685.5" y="-192.0001" font-family="Helvetica,sans-Serif" font-size="14.00" fill="#000000">prose</text>
</g>
<!-- section_1&#45;&gt;prose_6 -->
<g id="edge6" class="edge">
<title>section_1&#45;&gt;prose_6</title>
<path fill="none" stroke="#000000" stroke-dasharray="5,2" d="M1564.9474,-252.9307C1590.4158,-240.9456 1625.7661,-224.3102 1651.6005,-212.1528"/>
<polygon fill="#000000" stroke="#000000" points="1653.0941,-215.3182 1660.652,-207.8933 1650.1135,-208.9844 1653.0941,-215.3182"/>
</g>
<!-- prose_7 -->
<g id="node8" class="node">
<title>prose_7</title>
<ellipse fill="none" stroke="#000000" cx="1802.5" cy="-196.2001" rx="32.4585" ry="18"/>
<text text-anchor="middle" x="1802.5" y="-192.0001" font-family="Helvetica,sans-Serif" font-size="14.00" fill="#000000">prose</text>
</g>
<!-- section_1&#45;&gt;prose_7 -->
<g id="edge7" class="edge">
<title>section_1&#45;&gt;prose_7</title>
<path fill="none" stroke="#000000" stroke-dasharray="5,2" d="M1577.6919,-256.1489C1629.6886,-242.2831 1714.2159,-219.7425 1763.4647,-206.6095"/>
<polygon fill="#000000" stroke="#000000" points="1764.6535,-209.9149 1773.414,-203.9564 1762.8498,-203.1512 1764.6535,-209.9149"/>
</g>
<!-- prose_8 -->
<g id="node9" class="node">
<title>prose_8</title>
<ellipse fill="none" stroke="#000000" cx="1902.5" cy="-196.2001" rx="32.4585" ry="18"/>
<text text-anchor="middle" x="1902.5" y="-192.0001" font-family="Helvetica,sans-Serif" font-size="14.00" fill="#000000">prose</text>
</g>
<!-- section_1&#45;&gt;prose_8 -->
<g id="edge8" class="edge">
<title>section_1&#45;&gt;prose_8</title>
<path fill="none" stroke="#000000" stroke-dasharray="5,2" d="M1587.9772,-260.692C1650.514,-251.7377 1755.0101,-235.2948 1843.5,-214.2001 1850.4291,-212.5483 1857.7405,-210.5397 1864.7679,-208.4712"/>
<polygon fill="#000000" stroke="#000000" points="1866.2299,-211.6852 1874.7828,-205.4323 1864.1974,-204.9868 1866.2299,-211.6852"/>
</g>
<!-- leaf_9 -->
<g id="node10" class="node">
<title>leaf_9</title>
<polygon fill="none" stroke="#c0c0c0" points="1204.5,-142.2001 978.5,-142.2001 978.5,-106.2001 1204.5,-106.2001 1204.5,-142.2001"/>
<text text-anchor="middle" x="1091.5" y="-120.7001" font-family="Inconsolata" font-size="14.00" fill="#000000">* Concordance #Todo [ ] &#160;Write</text>
</g>
<!-- header_2&#45;&gt;leaf_9 -->
<g id="edge9" class="edge">
<title>header_2&#45;&gt;leaf_9</title>
<path fill="none" stroke="#000000" stroke-dasharray="5,2" d="M1131.8735,-178.0315C1125.654,-169.7387 1118.1678,-159.7571 1111.34,-150.6534"/>
<polygon fill="#000000" stroke="#000000" points="1114.11,-148.5134 1105.31,-142.6134 1108.51,-152.7134 1114.11,-148.5134"/>
</g>
<!-- raw_10 -->
<g id="node11" class="node">
<title>raw_10</title>
<ellipse fill="none" stroke="#000000" cx="1249.5" cy="-124.2001" rx="27" ry="18"/>
<text text-anchor="middle" x="1249.5" y="-120.0001" font-family="Helvetica,sans-Serif" font-size="14.00" fill="#000000">raw</text>
</g>
<!-- prose_3&#45;&gt;raw_10 -->
<g id="edge10" class="edge">
<title>prose_3&#45;&gt;raw_10</title>
<path fill="none" stroke="#000000" stroke-dasharray="5,2" d="M1332.9529,-181.9752C1316.9226,-170.8773 1294.5044,-155.357 1276.9397,-143.1968"/>
<polygon fill="#000000" stroke="#000000" points="1278.4706,-139.9998 1268.2565,-137.1853 1274.4862,-145.7552 1278.4706,-139.9998"/>
</g>
<!-- raw_12 -->
<g id="node13" class="node">
<title>raw_12</title>
<ellipse fill="none" stroke="#000000" cx="1321.5" cy="-124.2001" rx="27" ry="18"/>
<text text-anchor="middle" x="1321.5" y="-120.0001" font-family="Helvetica,sans-Serif" font-size="14.00" fill="#000000">raw</text>
</g>
<!-- prose_4&#45;&gt;raw_12 -->
<g id="edge12" class="edge">
<title>prose_4&#45;&gt;raw_12</title>
<path fill="none" stroke="#000000" stroke-dasharray="5,2" d="M1423.0445,-183.1614C1402.8022,-171.4078 1372.9078,-154.0498 1350.7927,-141.2087"/>
<polygon fill="#000000" stroke="#000000" points="1352.5457,-138.1794 1342.1403,-136.1848 1349.0307,-144.233 1352.5457,-138.1794"/>
</g>
<!-- raw_14 -->
<g id="node15" class="node">
<title>raw_14</title>
<ellipse fill="none" stroke="#000000" cx="1393.5" cy="-124.2001" rx="27" ry="18"/>
<text text-anchor="middle" x="1393.5" y="-120.0001" font-family="Helvetica,sans-Serif" font-size="14.00" fill="#000000">raw</text>
</g>
<!-- prose_5&#45;&gt;raw_14 -->
<g id="edge14" class="edge">
<title>prose_5&#45;&gt;raw_14</title>
<path fill="none" stroke="#000000" stroke-dasharray="5,2" d="M1508.605,-183.8229C1485.3411,-171.7724 1449.8712,-153.3996 1424.4572,-140.2355"/>
<polygon fill="#000000" stroke="#000000" points="1425.7451,-136.9609 1415.2557,-135.4693 1422.5254,-143.1766 1425.7451,-136.9609"/>
</g>
<!-- prespace_15 -->
<g id="node16" class="node">
<title>prespace_15</title>
<ellipse fill="none" stroke="#000000" cx="1484.5" cy="-124.2001" rx="46.4736" ry="18"/>
<text text-anchor="middle" x="1484.5" y="-120.0001" font-family="Helvetica,sans-Serif" font-size="14.00" fill="#000000">prespace</text>
</g>
<!-- prose_5&#45;&gt;prespace_15 -->
<g id="edge15" class="edge">
<title>prose_5&#45;&gt;prespace_15</title>
<path fill="none" stroke="#000000" stroke-dasharray="5,2" d="M1521.1247,-179.1371C1515.3513,-170.4771 1508.2154,-159.7732 1501.7805,-150.1208"/>
<polygon fill="#000000" stroke="#000000" points="1504.5863,-148.0198 1496.1271,-141.6408 1498.762,-151.9028 1504.5863,-148.0198"/>
</g>
<!-- literal_16 -->
<g id="node17" class="node">
<title>literal_16</title>
<ellipse fill="none" stroke="#000000" cx="1580.5" cy="-124.2001" rx="31.481" ry="18"/>
<text text-anchor="middle" x="1580.5" y="-120.0001" font-family="Helvetica,sans-Serif" font-size="14.00" fill="#000000">literal</text>
</g>
<!-- prose_5&#45;&gt;literal_16 -->
<g id="edge16" class="edge">
<title>prose_5&#45;&gt;literal_16</title>
<path fill="none" stroke="#000000" stroke-dasharray="5,2" d="M1543.8753,-179.1371C1549.7336,-170.3497 1556.9948,-159.458 1563.5029,-149.6957"/>
<polygon fill="#000000" stroke="#000000" points="1566.5715,-151.4026 1569.2063,-141.1406 1560.7471,-147.5197 1566.5715,-151.4026"/>
</g>
<!-- raw_17 -->
<g id="node18" class="node">
<title>raw_17</title>
<ellipse fill="none" stroke="#000000" cx="1656.5" cy="-124.2001" rx="27" ry="18"/>
<text text-anchor="middle" x="1656.5" y="-120.0001" font-family="Helvetica,sans-Serif" font-size="14.00" fill="#000000">raw</text>
</g>
<!-- prose_5&#45;&gt;raw_17 -->
<g id="edge17" class="edge">
<title>prose_5&#45;&gt;raw_17</title>
<path fill="none" stroke="#000000" stroke-dasharray="5,2" d="M1554.9555,-183.1614C1575.1978,-171.4078 1605.0922,-154.0498 1627.2073,-141.2087"/>
<polygon fill="#000000" stroke="#000000" points="1628.9693,-144.233 1635.8597,-136.1848 1625.4543,-138.1794 1628.9693,-144.233"/>
</g>
<!-- raw_22 -->
<g id="node23" class="node">
<title>raw_22</title>
<ellipse fill="none" stroke="#000000" cx="1850.5" cy="-124.2001" rx="27" ry="18"/>
<text text-anchor="middle" x="1850.5" y="-120.0001" font-family="Helvetica,sans-Serif" font-size="14.00" fill="#000000">raw</text>
</g>
<!-- prose_6&#45;&gt;raw_22 -->
<g id="edge22" class="edge">
<title>prose_6&#45;&gt;raw_22</title>
<path fill="none" stroke="#000000" stroke-dasharray="5,2" d="M1710.9196,-185.1079C1739.8386,-172.4887 1787.1111,-151.8607 1818.512,-138.1585"/>
<polygon fill="#000000" stroke="#000000" points="1819.9442,-141.3523 1827.7097,-134.1449 1817.1445,-134.9365 1819.9442,-141.3523"/>
</g>
<!-- raw_24 -->
<g id="node25" class="node">
<title>raw_24</title>
<ellipse fill="none" stroke="#000000" cx="2228.5" cy="-124.2001" rx="27" ry="18"/>
<text text-anchor="middle" x="2228.5" y="-120.0001" font-family="Helvetica,sans-Serif" font-size="14.00" fill="#000000">raw</text>
</g>
<!-- prose_7&#45;&gt;raw_24 -->
<g id="edge24" class="edge">
<title>prose_7&#45;&gt;raw_24</title>
<path fill="none" stroke="#000000" stroke-dasharray="5,2" d="M1830.1823,-186.8173C1839.989,-183.7439 1851.156,-180.5252 1861.5,-178.2001 1980.7855,-151.3874 2124.979,-134.6455 2191.5386,-127.7831"/>
<polygon fill="#000000" stroke="#000000" points="2191.944,-131.26 2201.5387,-126.7665 2191.236,-124.2959 2191.944,-131.26"/>
</g>
<!-- raw_26 -->
<g id="node27" class="node">
<title>raw_26</title>
<ellipse fill="none" stroke="#000000" cx="2697.5" cy="-124.2001" rx="27" ry="18"/>
<text text-anchor="middle" x="2697.5" y="-120.0001" font-family="Helvetica,sans-Serif" font-size="14.00" fill="#000000">raw</text>
</g>
<!-- prose_8&#45;&gt;raw_26 -->
<g id="edge26" class="edge">
<title>prose_8&#45;&gt;raw_26</title>
<path fill="none" stroke="#000000" stroke-dasharray="5,2" d="M1934.6496,-193.2884C2061.2171,-181.8257 2524.8006,-139.8408 2660.1583,-127.582"/>
<polygon fill="#000000" stroke="#000000" points="2660.7763,-131.0404 2670.4199,-126.6526 2660.1449,-124.069 2660.7763,-131.0404"/>
</g>
<!-- leaf_11 -->
<g id="node12" class="node">
<title>leaf_11</title>
<polygon fill="none" stroke="#c0c0c0" points="555,-63.0015 0,-63.0015 0,-7.1986 555,-7.1986 555,-63.0015"/>
<text text-anchor="middle" x="277.5" y="-15.6001" font-family="Inconsolata" font-size="14.00" fill="#000000"> &#160;A versioned or published edition of a codex deserves a perfect concordance.</text>
</g>
<!-- raw_10&#45;&gt;leaf_11 -->
<g id="edge11" class="edge">
<title>raw_10&#45;&gt;leaf_11</title>
<path fill="none" stroke="#000000" stroke-dasharray="5,2" d="M1229.1301,-112.2232C1224.1678,-109.8159 1218.7679,-107.5986 1213.5,-106.2001 1073.6774,-69.0809 707.5968,-83.0184 563.5,-70.2001 543.0674,-68.3825 521.8425,-66.2466 500.6034,-63.941"/>
<polygon fill="#000000" stroke="#000000" points="500.8368,-60.4457 490.5145,-62.8334 500.0728,-67.4039 500.8368,-60.4457"/>
</g>
<!-- leaf_13 -->
<g id="node14" class="node">
<title>leaf_13</title>
<polygon fill="none" stroke="#c0c0c0" points="904,-55.0021 573,-55.0021 573,-15.198 904,-15.198 904,-55.0021"/>
<text text-anchor="middle" x="738.5" y="-23.6001" font-family="Inconsolata" font-size="14.00" fill="#000000">This is the co&#45;product of a book, in a sense.</text>
</g>
<!-- raw_12&#45;&gt;leaf_13 -->
<g id="edge13" class="edge">
<title>raw_12&#45;&gt;leaf_13</title>
<path fill="none" stroke="#000000" stroke-dasharray="5,2" d="M1301.087,-112.379C1296.1265,-109.9653 1290.7383,-107.706 1285.5,-106.2001 1125.4349,-60.1844 1077.2364,-94.6992 912.5,-70.2001 887.9867,-66.5546 861.7036,-61.7356 837.1817,-56.8403"/>
<polygon fill="#000000" stroke="#000000" points="837.6505,-53.3644 827.1555,-54.8154 836.2647,-60.2258 837.6505,-53.3644"/>
</g>
<!-- leaf_18 -->
<g id="node19" class="node">
<title>leaf_18</title>
<polygon fill="none" stroke="#c0c0c0" points="1463,-62.4005 922,-62.4005 922,-7.7996 1463,-7.7996 1463,-62.4005"/>
<text text-anchor="middle" x="1192.5" y="-31.3001" font-family="Inconsolata" font-size="14.00" fill="#000000">We do this at the letter level, punctuation included, every codepoint which</text>
<text text-anchor="middle" x="1192.5" y="-15.9" font-family="Inconsolata" font-size="14.00" fill="#000000">makes an appearance is stored with each and every offset into the original</text>
</g>
<!-- raw_14&#45;&gt;leaf_18 -->
<g id="edge18" class="edge">
<title>raw_14&#45;&gt;leaf_18</title>
<path fill="none" stroke="#000000" stroke-dasharray="5,2" d="M1371.8947,-113.1486C1367.1749,-110.8042 1362.1888,-108.3804 1357.5,-106.2001 1328.4041,-92.6705 1296.0485,-78.5335 1267.7513,-66.4619"/>
<polygon fill="#000000" stroke="#000000" points="1268.8931,-63.1442 1258.321,-62.4511 1266.1534,-69.5858 1268.8931,-63.1442"/>
</g>
<!-- leaf_19 -->
<g id="node20" class="node">
<title>leaf_19</title>
<polygon fill="none" stroke="#c0c0c0" points="1535.5,-53.1 1481.5,-53.1 1481.5,-17.1 1535.5,-17.1 1535.5,-53.1"/>
</g>
<!-- prespace_15&#45;&gt;leaf_19 -->
<g id="edge19" class="edge">
<title>prespace_15&#45;&gt;leaf_19</title>
<path fill="none" stroke="#000000" stroke-dasharray="5,2" d="M1489.3568,-106.1694C1492.7074,-93.7301 1497.2262,-76.9539 1501.0321,-62.8246"/>
<polygon fill="#000000" stroke="#000000" points="1504.429,-63.6701 1503.6505,-53.104 1497.6699,-61.8495 1504.429,-63.6701"/>
</g>
<!-- leaf_20 -->
<g id="node21" class="node">
<title>leaf_20</title>
<polygon fill="none" stroke="#c0c0c0" points="1607.5,-53.1 1553.5,-53.1 1553.5,-17.1 1607.5,-17.1 1607.5,-53.1"/>
<text text-anchor="middle" x="1580.5" y="-31.6001" font-family="Inconsolata" font-size="14.00" fill="#000000">.orb</text>
</g>
<!-- literal_16&#45;&gt;leaf_20 -->
<g id="edge20" class="edge">
<title>literal_16&#45;&gt;leaf_20</title>
<path fill="none" stroke="#000000" stroke-dasharray="5,2" d="M1580.5,-106.1694C1580.5,-93.8509 1580.5,-77.2793 1580.5,-63.2369"/>
<polygon fill="#000000" stroke="#000000" points="1584.0001,-63.1039 1580.5,-53.104 1577.0001,-63.104 1584.0001,-63.1039"/>
</g>
<!-- leaf_21 -->
<g id="node22" class="node">
<title>leaf_21</title>
<polygon fill="none" stroke="#c0c0c0" points="1683.5,-53.1 1625.5,-53.1 1625.5,-17.1 1683.5,-17.1 1683.5,-53.1"/>
<text text-anchor="middle" x="1654.5" y="-31.6001" font-family="Inconsolata" font-size="14.00" fill="#000000"> file.</text>
</g>
<!-- raw_17&#45;&gt;leaf_21 -->
<g id="edge21" class="edge">
<title>raw_17&#45;&gt;leaf_21</title>
<path fill="none" stroke="#000000" stroke-dasharray="5,2" d="M1656.0953,-106.1694C1655.8188,-93.8509 1655.4468,-77.2793 1655.1316,-63.2369"/>
<polygon fill="#000000" stroke="#000000" points="1658.6278,-63.0229 1654.9041,-53.104 1651.6295,-63.18 1658.6278,-63.0229"/>
</g>
<!-- leaf_23 -->
<g id="node24" class="node">
<title>leaf_23</title>
<polygon fill="none" stroke="#c0c0c0" points="2243,-70.3004 1702,-70.3004 1702,.1003 2243,.1003 2243,-70.3004"/>
<text text-anchor="middle" x="1972.5" y="-39.0001" font-family="Inconsolata" font-size="14.00" fill="#000000">We also do this at the word boundary level, and indeed, as we grow in power</text>
<text text-anchor="middle" x="1972.5" y="-23.6001" font-family="Inconsolata" font-size="14.00" fill="#000000">and sophistication, on the morphemic and grammatical particle levels, and</text>
<text text-anchor="middle" x="1972.5" y="-8.2" font-family="Inconsolata" font-size="14.00" fill="#000000">phonemics, phrasals</text>
</g>
<!-- raw_22&#45;&gt;leaf_23 -->
<g id="edge23" class="edge">
<title>raw_22&#45;&gt;leaf_23</title>
<path fill="none" stroke="#000000" stroke-dasharray="5,2" d="M1868.7646,-110.8609C1881.3892,-101.6408 1898.9216,-88.8365 1915.9836,-76.3756"/>
<polygon fill="#000000" stroke="#000000" points="1918.2867,-79.0276 1924.2981,-70.3033 1914.1582,-73.3747 1918.2867,-79.0276"/>
</g>
<!-- leaf_25 -->
<g id="node26" class="node">
<title>leaf_25</title>
<polygon fill="none" stroke="#c0c0c0" points="2809.5,-62.4005 2261.5,-62.4005 2261.5,-7.7996 2809.5,-7.7996 2809.5,-62.4005"/>
<text text-anchor="middle" x="2535.5" y="-31.3001" font-family="Inconsolata" font-size="14.00" fill="#000000">Thing is this is superlinear by a constant factor and it gets thinner as you</text>
<text text-anchor="middle" x="2535.5" y="-15.9" font-family="Inconsolata" font-size="14.00" fill="#000000">raise complexity.</text>
</g>
<!-- raw_24&#45;&gt;leaf_25 -->
<g id="edge25" class="edge">
<title>raw_24&#45;&gt;leaf_25</title>
<path fill="none" stroke="#000000" stroke-dasharray="5,2" d="M2253.3631,-116.9841C2291.8556,-105.8125 2368.0629,-83.695 2431.5808,-65.2603"/>
<polygon fill="#000000" stroke="#000000" points="2432.6276,-68.601 2441.2557,-62.4524 2430.6764,-61.8784 2432.6276,-68.601"/>
</g>
<!-- leaf_27 -->
<g id="node28" class="node">
<title>leaf_27</title>
<polygon fill="none" stroke="#c0c0c0" points="3361.5,-62.4005 2827.5,-62.4005 2827.5,-7.7996 3361.5,-7.7996 3361.5,-62.4005"/>
<text text-anchor="middle" x="3094.5" y="-31.3001" font-family="Inconsolata" font-size="14.00" fill="#000000">There&#39;s no reason not to put it on a yield loop on the main channel, it&#39;ll</text>
<text text-anchor="middle" x="3094.5" y="-15.9" font-family="Inconsolata" font-size="14.00" fill="#000000">sort out and then we just have it.</text>
</g>
<!-- raw_26&#45;&gt;leaf_27 -->
<g id="edge27" class="edge">
<title>raw_26&#45;&gt;leaf_27</title>
<path fill="none" stroke="#000000" stroke-dasharray="5,2" d="M2723.2424,-118.4226C2771.0564,-107.6916 2876.5652,-84.0119 2962.9296,-64.6288"/>
<polygon fill="#000000" stroke="#000000" points="2963.8344,-68.0129 2972.8252,-62.4079 2962.3015,-61.1828 2963.8344,-68.0129"/>
</g>
</g>
</svg>
