<?xml version="1.0" encoding="UTF-8" standalone="no"?>
<!DOCTYPE svg PUBLIC "-//W3C//DTD SVG 1.1//EN"
 "http://www.w3.org/Graphics/SVG/1.1/DTD/svg11.dtd">
<!-- Generated by graphviz version 2.40.1 (20161225.0304)
 -->
<!-- Title: lpegNode Pages: 1 -->
<svg width="2533pt" height="351pt"
 viewBox="0.00 0.00 2533.00 351.40" xmlns="http://www.w3.org/2000/svg" xmlns:xlink="http://www.w3.org/1999/xlink">
<g id="graph0" class="graph" transform="scale(1 1) rotate(0) translate(4 347.4)">
<title>lpegNode</title>
<polygon fill="#ffffff" stroke="transparent" points="-4,4 -4,-347.4 2529,-347.4 2529,4 -4,4"/>
<!-- doc_0 -->
<g id="node1" class="node">
<title>doc_0</title>
<ellipse fill="none" stroke="#000000" cx="777" cy="-325.4" rx="42.1216" ry="18"/>
<text text-anchor="middle" x="777" y="-321.2" font-family="Helvetica,sans-Serif" font-size="14.00" fill="#000000">doc &#45; 14</text>
</g>
<!-- section_1 -->
<g id="node2" class="node">
<title>section_1</title>
<ellipse fill="none" stroke="#000000" cx="777" cy="-253.4" rx="60.9826" ry="18"/>
<text text-anchor="middle" x="777" y="-249.2" font-family="Helvetica,sans-Serif" font-size="14.00" fill="#000000">section: 1&#45;14</text>
</g>
<!-- doc_0&#45;&gt;section_1 -->
<g id="edge1" class="edge">
<title>doc_0&#45;&gt;section_1</title>
<path fill="none" stroke="#000000" stroke-dasharray="5,2" d="M777,-307.2314C777,-299.531 777,-290.3744 777,-281.8167"/>
<polygon fill="#000000" stroke="#000000" points="780.5001,-281.8133 777,-271.8133 773.5001,-281.8133 780.5001,-281.8133"/>
</g>
<!-- header_2 -->
<g id="node3" class="node">
<title>header_2</title>
<ellipse fill="none" stroke="#000000" cx="512" cy="-181.4" rx="50.2982" ry="18"/>
<text text-anchor="middle" x="512" y="-177.2" font-family="Helvetica,sans-Serif" font-size="14.00" fill="#000000">1 : CRDTs</text>
</g>
<!-- section_1&#45;&gt;header_2 -->
<g id="edge2" class="edge">
<title>section_1&#45;&gt;header_2</title>
<path fill="none" stroke="#000000" stroke-dasharray="5,2" d="M730.4703,-241.6226C688.8404,-230.9716 626.2022,-214.6645 572,-199.4 568.1644,-198.3199 564.1977,-197.1801 560.2158,-196.0201"/>
<polygon fill="#000000" stroke="#000000" points="560.9347,-192.5832 550.3533,-193.1168 558.9579,-199.2983 560.9347,-192.5832"/>
</g>
<!-- prose_3 -->
<g id="node4" class="node">
<title>prose_3</title>
<ellipse fill="none" stroke="#000000" cx="613" cy="-181.4" rx="32.4585" ry="18"/>
<text text-anchor="middle" x="613" y="-177.2" font-family="Helvetica,sans-Serif" font-size="14.00" fill="#000000">prose</text>
</g>
<!-- section_1&#45;&gt;prose_3 -->
<g id="edge3" class="edge">
<title>section_1&#45;&gt;prose_3</title>
<path fill="none" stroke="#000000" stroke-dasharray="5,2" d="M742.6202,-238.3065C714.8097,-226.097 675.8158,-208.9777 647.8739,-196.7105"/>
<polygon fill="#000000" stroke="#000000" points="649.0513,-193.405 638.4879,-192.5898 646.2374,-199.8146 649.0513,-193.405"/>
</g>
<!-- prose_4 -->
<g id="node5" class="node">
<title>prose_4</title>
<ellipse fill="none" stroke="#000000" cx="695" cy="-181.4" rx="32.4585" ry="18"/>
<text text-anchor="middle" x="695" y="-177.2" font-family="Helvetica,sans-Serif" font-size="14.00" fill="#000000">prose</text>
</g>
<!-- section_1&#45;&gt;prose_4 -->
<g id="edge4" class="edge">
<title>section_1&#45;&gt;prose_4</title>
<path fill="none" stroke="#000000" stroke-dasharray="5,2" d="M757.5671,-236.337C746.3006,-226.4444 731.9965,-213.8848 719.9098,-203.2721"/>
<polygon fill="#000000" stroke="#000000" points="722.1653,-200.5947 712.3415,-196.6267 717.5466,-205.8548 722.1653,-200.5947"/>
</g>
<!-- prose_5 -->
<g id="node6" class="node">
<title>prose_5</title>
<ellipse fill="none" stroke="#000000" cx="777" cy="-181.4" rx="32.4585" ry="18"/>
<text text-anchor="middle" x="777" y="-177.2" font-family="Helvetica,sans-Serif" font-size="14.00" fill="#000000">prose</text>
</g>
<!-- section_1&#45;&gt;prose_5 -->
<g id="edge5" class="edge">
<title>section_1&#45;&gt;prose_5</title>
<path fill="none" stroke="#000000" stroke-dasharray="5,2" d="M777,-235.2314C777,-227.531 777,-218.3744 777,-209.8167"/>
<polygon fill="#000000" stroke="#000000" points="780.5001,-209.8133 777,-199.8133 773.5001,-209.8133 780.5001,-209.8133"/>
</g>
<!-- prose_6 -->
<g id="node7" class="node">
<title>prose_6</title>
<ellipse fill="none" stroke="#000000" cx="984" cy="-181.4" rx="32.4585" ry="18"/>
<text text-anchor="middle" x="984" y="-177.2" font-family="Helvetica,sans-Serif" font-size="14.00" fill="#000000">prose</text>
</g>
<!-- section_1&#45;&gt;prose_6 -->
<g id="edge6" class="edge">
<title>section_1&#45;&gt;prose_6</title>
<path fill="none" stroke="#000000" stroke-dasharray="5,2" d="M816.4224,-239.6879C853.9502,-226.6348 910.0077,-207.1365 946.7864,-194.3439"/>
<polygon fill="#000000" stroke="#000000" points="948.322,-197.5155 956.6172,-190.9245 946.0223,-190.904 948.322,-197.5155"/>
</g>
<!-- prose_7 -->
<g id="node8" class="node">
<title>prose_7</title>
<ellipse fill="none" stroke="#000000" cx="1367" cy="-181.4" rx="32.4585" ry="18"/>
<text text-anchor="middle" x="1367" y="-177.2" font-family="Helvetica,sans-Serif" font-size="14.00" fill="#000000">prose</text>
</g>
<!-- section_1&#45;&gt;prose_7 -->
<g id="edge7" class="edge">
<title>section_1&#45;&gt;prose_7</title>
<path fill="none" stroke="#000000" stroke-dasharray="5,2" d="M833.3044,-246.529C951.0974,-232.1542 1221.2088,-199.1915 1325.1625,-186.5056"/>
<polygon fill="#000000" stroke="#000000" points="1325.7697,-189.9576 1335.2721,-185.2719 1324.9217,-183.0091 1325.7697,-189.9576"/>
</g>
<!-- prose_8 -->
<g id="node9" class="node">
<title>prose_8</title>
<ellipse fill="none" stroke="#000000" cx="1887" cy="-181.4" rx="32.4585" ry="18"/>
<text text-anchor="middle" x="1887" y="-177.2" font-family="Helvetica,sans-Serif" font-size="14.00" fill="#000000">prose</text>
</g>
<!-- section_1&#45;&gt;prose_8 -->
<g id="edge8" class="edge">
<title>section_1&#45;&gt;prose_8</title>
<path fill="none" stroke="#000000" stroke-dasharray="5,2" d="M836.6784,-249.529C1035.8236,-236.6115 1674.5547,-195.1803 1844.9102,-184.1302"/>
<polygon fill="#000000" stroke="#000000" points="1845.2338,-187.6166 1854.9862,-183.4766 1844.7806,-180.6313 1845.2338,-187.6166"/>
</g>
<!-- leaf_9 -->
<g id="node10" class="node">
<title>leaf_9</title>
<polygon fill="none" stroke="#c0c0c0" points="544.5,-127.4 479.5,-127.4 479.5,-91.4 544.5,-91.4 544.5,-127.4"/>
<text text-anchor="middle" x="512" y="-105.9" font-family="Inconsolata" font-size="14.00" fill="#000000">* CRDTs</text>
</g>
<!-- header_2&#45;&gt;leaf_9 -->
<g id="edge9" class="edge">
<title>header_2&#45;&gt;leaf_9</title>
<path fill="none" stroke="#000000" stroke-dasharray="5,2" d="M512,-163.2314C512,-155.531 512,-146.3744 512,-137.8167"/>
<polygon fill="#000000" stroke="#000000" points="515.5001,-137.8133 512,-127.8133 508.5001,-137.8133 515.5001,-137.8133"/>
</g>
<!-- raw_10 -->
<g id="node11" class="node">
<title>raw_10</title>
<ellipse fill="none" stroke="#000000" cx="601" cy="-109.4" rx="27" ry="18"/>
<text text-anchor="middle" x="601" y="-105.2" font-family="Helvetica,sans-Serif" font-size="14.00" fill="#000000">raw</text>
</g>
<!-- prose_3&#45;&gt;raw_10 -->
<g id="edge10" class="edge">
<title>prose_3&#45;&gt;raw_10</title>
<path fill="none" stroke="#000000" stroke-dasharray="5,2" d="M609.9719,-163.2314C608.6687,-155.4125 607.1154,-146.0923 605.6703,-137.4221"/>
<polygon fill="#000000" stroke="#000000" points="609.082,-136.602 603.9856,-127.3134 602.1773,-137.7528 609.082,-136.602"/>
</g>
<!-- raw_12 -->
<g id="node13" class="node">
<title>raw_12</title>
<ellipse fill="none" stroke="#000000" cx="684" cy="-109.4" rx="27" ry="18"/>
<text text-anchor="middle" x="684" y="-105.2" font-family="Helvetica,sans-Serif" font-size="14.00" fill="#000000">raw</text>
</g>
<!-- prose_4&#45;&gt;raw_12 -->
<g id="edge12" class="edge">
<title>prose_4&#45;&gt;raw_12</title>
<path fill="none" stroke="#000000" stroke-dasharray="5,2" d="M692.2242,-163.2314C691.0297,-155.4125 689.6058,-146.0923 688.2812,-137.4221"/>
<polygon fill="#000000" stroke="#000000" points="691.707,-136.6701 686.7368,-127.3134 684.7873,-137.7274 691.707,-136.6701"/>
</g>
<!-- raw_14 -->
<g id="node15" class="node">
<title>raw_14</title>
<ellipse fill="none" stroke="#000000" cx="767" cy="-109.4" rx="27" ry="18"/>
<text text-anchor="middle" x="767" y="-105.2" font-family="Helvetica,sans-Serif" font-size="14.00" fill="#000000">raw</text>
</g>
<!-- prose_5&#45;&gt;raw_14 -->
<g id="edge14" class="edge">
<title>prose_5&#45;&gt;raw_14</title>
<path fill="none" stroke="#000000" stroke-dasharray="5,2" d="M774.4766,-163.2314C773.4071,-155.531 772.1353,-146.3744 770.9468,-137.8167"/>
<polygon fill="#000000" stroke="#000000" points="774.3999,-137.2367 769.5574,-127.8133 767.4664,-138.1997 774.3999,-137.2367"/>
</g>
<!-- raw_16 -->
<g id="node17" class="node">
<title>raw_16</title>
<ellipse fill="none" stroke="#000000" cx="1013" cy="-109.4" rx="27" ry="18"/>
<text text-anchor="middle" x="1013" y="-105.2" font-family="Helvetica,sans-Serif" font-size="14.00" fill="#000000">raw</text>
</g>
<!-- prose_6&#45;&gt;raw_16 -->
<g id="edge16" class="edge">
<title>prose_6&#45;&gt;raw_16</title>
<path fill="none" stroke="#000000" stroke-dasharray="5,2" d="M991.1685,-163.6023C994.4697,-155.4064 998.4588,-145.5024 1002.1191,-136.4146"/>
<polygon fill="#000000" stroke="#000000" points="1005.4243,-137.5766 1005.9139,-126.9931 998.9312,-134.9613 1005.4243,-137.5766"/>
</g>
<!-- raw_18 -->
<g id="node19" class="node">
<title>raw_18</title>
<ellipse fill="none" stroke="#000000" cx="1484" cy="-109.4" rx="27" ry="18"/>
<text text-anchor="middle" x="1484" y="-105.2" font-family="Helvetica,sans-Serif" font-size="14.00" fill="#000000">raw</text>
</g>
<!-- prose_7&#45;&gt;raw_18 -->
<g id="edge18" class="edge">
<title>prose_7&#45;&gt;raw_18</title>
<path fill="none" stroke="#000000" stroke-dasharray="5,2" d="M1388.7326,-168.0261C1407.4992,-156.4774 1434.7552,-139.7045 1455.3103,-127.0552"/>
<polygon fill="#000000" stroke="#000000" points="1457.264,-129.9626 1463.9462,-121.7408 1453.5953,-124.001 1457.264,-129.9626"/>
</g>
<!-- raw_20 -->
<g id="node21" class="node">
<title>raw_20</title>
<ellipse fill="none" stroke="#000000" cx="2072" cy="-109.4" rx="27" ry="18"/>
<text text-anchor="middle" x="2072" y="-105.2" font-family="Helvetica,sans-Serif" font-size="14.00" fill="#000000">raw</text>
</g>
<!-- prose_8&#45;&gt;raw_20 -->
<g id="edge20" class="edge">
<title>prose_8&#45;&gt;raw_20</title>
<path fill="none" stroke="#000000" stroke-dasharray="5,2" d="M1913.506,-171.0842C1946.5654,-158.2178 2003.0917,-136.2184 2038.9452,-122.2646"/>
<polygon fill="#000000" stroke="#000000" points="2040.4231,-125.4452 2048.4728,-118.5566 2037.8843,-118.9218 2040.4231,-125.4452"/>
</g>
<!-- leaf_11 -->
<g id="node12" class="node">
<title>leaf_11</title>
<polygon fill="none" stroke="#c0c0c0" points="72,-55.6015 0,-55.6015 0,.2015 72,.2015 72,-55.6015"/>
<text text-anchor="middle" x="36" y="-8.2" font-family="Inconsolata" font-size="14.00" fill="#000000">Linkola:</text>
</g>
<!-- raw_10&#45;&gt;leaf_11 -->
<g id="edge11" class="edge">
<title>raw_10&#45;&gt;leaf_11</title>
<path fill="none" stroke="#000000" stroke-dasharray="5,2" d="M578.4494,-99.4442C570.5469,-96.3605 561.5166,-93.2817 553,-91.4 350.7772,-46.7208 283.2144,-118.0771 81.8286,-54.9973"/>
<polygon fill="#000000" stroke="#000000" points="82.7277,-51.6101 72.1366,-51.8909 80.5911,-58.2761 82.7277,-51.6101"/>
</g>
<!-- leaf_13 -->
<g id="node14" class="node">
<title>leaf_13</title>
<polygon fill="none" stroke="#c0c0c0" points="547.5,-47.6021 90.5,-47.6021 90.5,-7.7979 547.5,-7.7979 547.5,-47.6021"/>
<text text-anchor="middle" x="319" y="-16.2" font-family="Inconsolata" font-size="14.00" fill="#000000">&#45; &#160;http://archagon.net/blog/2018/03/24/data&#45;laced&#45;with&#45;history/</text>
</g>
<!-- raw_12&#45;&gt;leaf_13 -->
<g id="edge13" class="edge">
<title>raw_12&#45;&gt;leaf_13</title>
<path fill="none" stroke="#000000" stroke-dasharray="5,2" d="M660.8352,-99.6416C653.3221,-96.7169 644.8896,-93.6834 637,-91.4 577.1807,-74.0871 509.693,-59.8438 452.3287,-49.2494"/>
<polygon fill="#000000" stroke="#000000" points="452.9446,-45.804 442.478,-47.4474 451.6849,-52.6898 452.9446,-45.804"/>
</g>
<!-- leaf_15 -->
<g id="node16" class="node">
<title>leaf_15</title>
<polygon fill="none" stroke="#c0c0c0" points="854.5,-47.6021 565.5,-47.6021 565.5,-7.7979 854.5,-7.7979 854.5,-47.6021"/>
<text text-anchor="middle" x="710" y="-16.2" font-family="Inconsolata" font-size="14.00" fill="#000000">&#45; &#160;https://github.com/ljwagerfield/crdt</text>
</g>
<!-- raw_14&#45;&gt;leaf_15 -->
<g id="edge15" class="edge">
<title>raw_14&#45;&gt;leaf_15</title>
<path fill="none" stroke="#000000" stroke-dasharray="5,2" d="M755.4652,-92.8668C748.0645,-82.2592 738.2642,-68.2121 729.6579,-55.8764"/>
<polygon fill="#000000" stroke="#000000" points="732.527,-53.8717 723.9347,-47.673 726.7861,-57.877 732.527,-53.8717"/>
</g>
<!-- leaf_17 -->
<g id="node18" class="node">
<title>leaf_17</title>
<polygon fill="none" stroke="#c0c0c0" points="1211,-47.6021 873,-47.6021 873,-7.7979 1211,-7.7979 1211,-47.6021"/>
<text text-anchor="middle" x="1042" y="-16.2" font-family="Inconsolata" font-size="14.00" fill="#000000">&#45; &#160;https://www.youtube.com/watch?v=9xFfOhasiOE</text>
</g>
<!-- raw_16&#45;&gt;leaf_17 -->
<g id="edge17" class="edge">
<title>raw_16&#45;&gt;leaf_17</title>
<path fill="none" stroke="#000000" stroke-dasharray="5,2" d="M1019.2926,-91.6723C1022.8486,-81.6541 1027.3867,-68.8692 1031.4698,-57.3663"/>
<polygon fill="#000000" stroke="#000000" points="1034.8579,-58.2841 1034.9046,-47.6894 1028.2611,-55.9425 1034.8579,-58.2841"/>
</g>
<!-- leaf_19 -->
<g id="node20" class="node">
<title>leaf_19</title>
<polygon fill="none" stroke="#c0c0c0" points="1973,-47.6021 1229,-47.6021 1229,-7.7979 1973,-7.7979 1973,-47.6021"/>
<text text-anchor="middle" x="1601" y="-16.2" font-family="Inconsolata" font-size="14.00" fill="#000000">&#45; &#160;https://github.com/google/xi&#45;editor/blob/e8065a3993b80af0aadbca0e50602125d60e4e38/doc/crdt&#45;details.md</text>
</g>
<!-- raw_18&#45;&gt;leaf_19 -->
<g id="edge19" class="edge">
<title>raw_18&#45;&gt;leaf_19</title>
<path fill="none" stroke="#000000" stroke-dasharray="5,2" d="M1502.7981,-96.2735C1519.3024,-84.7487 1543.7893,-67.6497 1564.1818,-53.4098"/>
<polygon fill="#000000" stroke="#000000" points="1566.4405,-56.1015 1572.6356,-47.5066 1562.4328,-50.3623 1566.4405,-56.1015"/>
</g>
<!-- leaf_21 -->
<g id="node22" class="node">
<title>leaf_21</title>
<polygon fill="none" stroke="#c0c0c0" points="2525,-55.0004 1991,-55.0004 1991,-.3996 2525,-.3996 2525,-55.0004"/>
<text text-anchor="middle" x="2258" y="-23.9" font-family="Inconsolata" font-size="14.00" fill="#000000">This class of algorithm is worth studying, because it has properties which</text>
<text text-anchor="middle" x="2258" y="-8.5" font-family="Inconsolata" font-size="14.00" fill="#000000">may be useful in the quipu.</text>
</g>
<!-- raw_20&#45;&gt;leaf_21 -->
<g id="edge21" class="edge">
<title>raw_20&#45;&gt;leaf_21</title>
<path fill="none" stroke="#000000" stroke-dasharray="5,2" d="M2094.8073,-99.382C2117.5864,-89.3763 2153.7977,-73.4706 2186.3288,-59.1814"/>
<polygon fill="#000000" stroke="#000000" points="2188.0903,-62.2305 2195.8384,-55.0043 2185.2752,-55.8215 2188.0903,-62.2305"/>
</g>
</g>
</svg>
