<?xml version="1.0" encoding="UTF-8" standalone="no"?>
<!DOCTYPE svg PUBLIC "-//W3C//DTD SVG 1.1//EN"
 "http://www.w3.org/Graphics/SVG/1.1/DTD/svg11.dtd">
<!-- Generated by graphviz version 2.40.1 (20161225.0304)
 -->
<!-- Title: hierarchy Pages: 1 -->
<svg width="1197pt" height="188pt"
 viewBox="0.00 0.00 1197.13 188.00" xmlns="http://www.w3.org/2000/svg" xmlns:xlink="http://www.w3.org/1999/xlink">
<g id="graph0" class="graph" transform="scale(1 1) rotate(0) translate(4 184)">
<title>hierarchy</title>
<polygon fill="#ffffff" stroke="transparent" points="-4,4 -4,-184 1193.1265,-184 1193.1265,4 -4,4"/>
<!-- doc_0 -->
<g id="node1" class="node">
<title>doc_0</title>
<ellipse fill="none" stroke="#000000" cx="132.7408" cy="-162" rx="42.1216" ry="18"/>
<text text-anchor="middle" x="132.7408" y="-157.8" font-family="Helvetica,sans-Serif" font-size="14.00" fill="#000000">doc &#45; 86</text>
</g>
<!-- section_1 -->
<g id="node2" class="node">
<title>section_1</title>
<ellipse fill="none" stroke="#000000" cx="60.7408" cy="-90" rx="60.9826" ry="18"/>
<text text-anchor="middle" x="60.7408" y="-85.8" font-family="Helvetica,sans-Serif" font-size="14.00" fill="#000000">section: 1&#45;17</text>
</g>
<!-- doc_0&#45;&gt;section_1 -->
<g id="edge1" class="edge">
<title>doc_0&#45;&gt;section_1</title>
<path fill="none" stroke="#000000" stroke-dasharray="5,2" d="M116.0416,-145.3008C107.0374,-136.2965 95.746,-125.0052 85.7177,-114.9769"/>
<polygon fill="#000000" stroke="#000000" points="87.9,-112.2094 78.354,-107.6132 82.9502,-117.1592 87.9,-112.2094"/>
</g>
<!-- section_2 -->
<g id="node3" class="node">
<title>section_2</title>
<ellipse fill="none" stroke="#000000" cx="204.7408" cy="-90" rx="65.8187" ry="18"/>
<text text-anchor="middle" x="204.7408" y="-85.8" font-family="Helvetica,sans-Serif" font-size="14.00" fill="#000000">section: 18&#45;54</text>
</g>
<!-- doc_0&#45;&gt;section_2 -->
<g id="edge2" class="edge">
<title>doc_0&#45;&gt;section_2</title>
<path fill="none" stroke="#000000" stroke-dasharray="5,2" d="M149.4401,-145.3008C158.4443,-136.2965 169.7357,-125.0052 179.764,-114.9769"/>
<polygon fill="#000000" stroke="#000000" points="182.5315,-117.1592 187.1277,-107.6132 177.5817,-112.2094 182.5315,-117.1592"/>
</g>
<!-- header_3 -->
<g id="node4" class="node">
<title>header_3</title>
<ellipse fill="none" stroke="#000000" cx="60.7408" cy="-18" rx="42.0956" ry="18"/>
<text text-anchor="middle" x="60.7408" y="-13.8" font-family="Helvetica,sans-Serif" font-size="14.00" fill="#000000">1 : grym</text>
</g>
<!-- section_1&#45;&gt;header_3 -->
<g id="edge3" class="edge">
<title>section_1&#45;&gt;header_3</title>
<path fill="none" stroke="#000000" stroke-dasharray="5,2" d="M60.7408,-71.8314C60.7408,-64.131 60.7408,-54.9743 60.7408,-46.4166"/>
<polygon fill="#000000" stroke="#000000" points="64.2409,-46.4132 60.7408,-36.4133 57.2409,-46.4133 64.2409,-46.4132"/>
</g>
<!-- header_4 -->
<g id="node5" class="node">
<title>header_4</title>
<ellipse fill="none" stroke="#000000" cx="204.7408" cy="-18" rx="66.7367" ry="18"/>
<text text-anchor="middle" x="204.7408" y="-13.8" font-family="Helvetica,sans-Serif" font-size="14.00" fill="#000000">1 : grym [a&#45;z]+</text>
</g>
<!-- section_2&#45;&gt;header_4 -->
<g id="edge4" class="edge">
<title>section_2&#45;&gt;header_4</title>
<path fill="none" stroke="#000000" stroke-dasharray="5,2" d="M204.7408,-71.8314C204.7408,-64.131 204.7408,-54.9743 204.7408,-46.4166"/>
<polygon fill="#000000" stroke="#000000" points="208.2409,-46.4132 204.7408,-36.4133 201.2409,-46.4133 208.2409,-46.4132"/>
</g>
<!-- section_5 -->
<g id="node6" class="node">
<title>section_5</title>
<ellipse fill="none" stroke="#000000" cx="346.7408" cy="-162" rx="47.9272" ry="18"/>
<text text-anchor="middle" x="346.7408" y="-157.8" font-family="Helvetica,sans-Serif" font-size="14.00" fill="#000000">section_5</text>
</g>
<!-- header_11 -->
<g id="node7" class="node">
<title>header_11</title>
<ellipse fill="none" stroke="#000000" cx="346.7408" cy="-90" rx="58.0341" ry="18"/>
<text text-anchor="middle" x="346.7408" y="-85.8" font-family="Helvetica,sans-Serif" font-size="14.00" fill="#000000">3 : grym knit</text>
</g>
<!-- section_5&#45;&gt;header_11 -->
<g id="edge5" class="edge">
<title>section_5&#45;&gt;header_11</title>
<path fill="none" stroke="#000000" stroke-dasharray="5,2" d="M346.7408,-143.8314C346.7408,-136.131 346.7408,-126.9743 346.7408,-118.4166"/>
<polygon fill="#000000" stroke="#000000" points="350.2409,-118.4132 346.7408,-108.4133 343.2409,-118.4133 350.2409,-118.4132"/>
</g>
<!-- section_6 -->
<g id="node8" class="node">
<title>section_6</title>
<ellipse fill="none" stroke="#000000" cx="492.7408" cy="-162" rx="47.9272" ry="18"/>
<text text-anchor="middle" x="492.7408" y="-157.8" font-family="Helvetica,sans-Serif" font-size="14.00" fill="#000000">section_6</text>
</g>
<!-- header_12 -->
<g id="node9" class="node">
<title>header_12</title>
<ellipse fill="none" stroke="#000000" cx="492.7408" cy="-90" rx="70.1359" ry="18"/>
<text text-anchor="middle" x="492.7408" y="-85.8" font-family="Helvetica,sans-Serif" font-size="14.00" fill="#000000">3 : grym weave</text>
</g>
<!-- section_6&#45;&gt;header_12 -->
<g id="edge6" class="edge">
<title>section_6&#45;&gt;header_12</title>
<path fill="none" stroke="#000000" stroke-dasharray="5,2" d="M492.7408,-143.8314C492.7408,-136.131 492.7408,-126.9743 492.7408,-118.4166"/>
<polygon fill="#000000" stroke="#000000" points="496.2409,-118.4132 492.7408,-108.4133 489.2409,-118.4133 496.2409,-118.4132"/>
</g>
<!-- section_7 -->
<g id="node10" class="node">
<title>section_7</title>
<ellipse fill="none" stroke="#000000" cx="654.7408" cy="-162" rx="47.9272" ry="18"/>
<text text-anchor="middle" x="654.7408" y="-157.8" font-family="Helvetica,sans-Serif" font-size="14.00" fill="#000000">section_7</text>
</g>
<!-- header_13 -->
<g id="node11" class="node">
<title>header_13</title>
<ellipse fill="none" stroke="#000000" cx="654.7408" cy="-90" rx="73.5189" ry="18"/>
<text text-anchor="middle" x="654.7408" y="-85.8" font-family="Helvetica,sans-Serif" font-size="14.00" fill="#000000">3 : grym unravel</text>
</g>
<!-- section_7&#45;&gt;header_13 -->
<g id="edge7" class="edge">
<title>section_7&#45;&gt;header_13</title>
<path fill="none" stroke="#000000" stroke-dasharray="5,2" d="M654.7408,-143.8314C654.7408,-136.131 654.7408,-126.9743 654.7408,-118.4166"/>
<polygon fill="#000000" stroke="#000000" points="658.2409,-118.4132 654.7408,-108.4133 651.2409,-118.4133 658.2409,-118.4132"/>
</g>
<!-- section_8 -->
<g id="node12" class="node">
<title>section_8</title>
<ellipse fill="none" stroke="#000000" cx="812.7408" cy="-162" rx="47.9272" ry="18"/>
<text text-anchor="middle" x="812.7408" y="-157.8" font-family="Helvetica,sans-Serif" font-size="14.00" fill="#000000">section_8</text>
</g>
<!-- header_14 -->
<g id="node13" class="node">
<title>header_14</title>
<ellipse fill="none" stroke="#000000" cx="812.7408" cy="-90" rx="66.2599" ry="18"/>
<text text-anchor="middle" x="812.7408" y="-85.8" font-family="Helvetica,sans-Serif" font-size="14.00" fill="#000000">3 : grym invert</text>
</g>
<!-- section_8&#45;&gt;header_14 -->
<g id="edge8" class="edge">
<title>section_8&#45;&gt;header_14</title>
<path fill="none" stroke="#000000" stroke-dasharray="5,2" d="M812.7408,-143.8314C812.7408,-136.131 812.7408,-126.9743 812.7408,-118.4166"/>
<polygon fill="#000000" stroke="#000000" points="816.2409,-118.4132 812.7408,-108.4133 809.2409,-118.4133 816.2409,-118.4132"/>
</g>
<!-- section_9 -->
<g id="node14" class="node">
<title>section_9</title>
<ellipse fill="none" stroke="#000000" cx="952.7408" cy="-162" rx="47.9272" ry="18"/>
<text text-anchor="middle" x="952.7408" y="-157.8" font-family="Helvetica,sans-Serif" font-size="14.00" fill="#000000">section_9</text>
</g>
<!-- header_15 -->
<g id="node15" class="node">
<title>header_15</title>
<ellipse fill="none" stroke="#000000" cx="952.7408" cy="-90" rx="55.6198" ry="18"/>
<text text-anchor="middle" x="952.7408" y="-85.8" font-family="Helvetica,sans-Serif" font-size="14.00" fill="#000000">3 : grym init</text>
</g>
<!-- section_9&#45;&gt;header_15 -->
<g id="edge9" class="edge">
<title>section_9&#45;&gt;header_15</title>
<path fill="none" stroke="#000000" stroke-dasharray="5,2" d="M952.7408,-143.8314C952.7408,-136.131 952.7408,-126.9743 952.7408,-118.4166"/>
<polygon fill="#000000" stroke="#000000" points="956.2409,-118.4132 952.7408,-108.4133 949.2409,-118.4133 956.2409,-118.4132"/>
</g>
<!-- section_10 -->
<g id="node16" class="node">
<title>section_10</title>
<ellipse fill="none" stroke="#000000" cx="1107.7408" cy="-162" rx="52.7641" ry="18"/>
<text text-anchor="middle" x="1107.7408" y="-157.8" font-family="Helvetica,sans-Serif" font-size="14.00" fill="#000000">section_10</text>
</g>
<!-- header_16 -->
<g id="node17" class="node">
<title>header_16</title>
<ellipse fill="none" stroke="#000000" cx="1107.7408" cy="-90" rx="81.2715" ry="18"/>
<text text-anchor="middle" x="1107.7408" y="-85.8" font-family="Helvetica,sans-Serif" font-size="14.00" fill="#000000">2 : Considerations</text>
</g>
<!-- section_10&#45;&gt;header_16 -->
<g id="edge10" class="edge">
<title>section_10&#45;&gt;header_16</title>
<path fill="none" stroke="#000000" stroke-dasharray="5,2" d="M1107.7408,-143.8314C1107.7408,-136.131 1107.7408,-126.9743 1107.7408,-118.4166"/>
<polygon fill="#000000" stroke="#000000" points="1111.2409,-118.4132 1107.7408,-108.4133 1104.2409,-118.4133 1111.2409,-118.4132"/>
</g>
</g>
</svg>