<?xml version="1.0" encoding="UTF-8" standalone="no"?>
<!DOCTYPE svg PUBLIC "-//W3C//DTD SVG 1.1//EN"
 "http://www.w3.org/Graphics/SVG/1.1/DTD/svg11.dtd">
<!-- Generated by graphviz version 2.40.1 (20161225.0304)
 -->
<!-- Title: hierarchy Pages: 1 -->
<svg width="278pt" height="116pt"
 viewBox="0.00 0.00 278.40 116.00" xmlns="http://www.w3.org/2000/svg" xmlns:xlink="http://www.w3.org/1999/xlink">
<g id="graph0" class="graph" transform="scale(1 1) rotate(0) translate(4 112)">
<title>hierarchy</title>
<polygon fill="#ffffff" stroke="transparent" points="-4,4 -4,-112 274.4,-112 274.4,4 -4,4"/>
<!-- doc_0 -->
<g id="node1" class="node">
<title>doc_0</title>
<ellipse fill="none" stroke="#000000" cx="132.7408" cy="-90" rx="42.1216" ry="18"/>
<text text-anchor="middle" x="132.7408" y="-85.8" font-family="Helvetica,sans-Serif" font-size="14.00" fill="#000000">doc &#45; 86</text>
</g>
<!-- section_1 -->
<g id="node2" class="node">
<title>section_1</title>
<ellipse fill="none" stroke="#000000" cx="60.7408" cy="-18" rx="60.9826" ry="18"/>
<text text-anchor="middle" x="60.7408" y="-13.8" font-family="Helvetica,sans-Serif" font-size="14.00" fill="#000000">section: 1&#45;17</text>
</g>
<!-- doc_0&#45;&gt;section_1 -->
<g id="edge1" class="edge">
<title>doc_0&#45;&gt;section_1</title>
<path fill="none" stroke="#000000" stroke-dasharray="5,2" d="M116.0416,-73.3008C107.0374,-64.2965 95.746,-53.0052 85.7177,-42.9769"/>
<polygon fill="#000000" stroke="#000000" points="87.9,-40.2094 78.354,-35.6132 82.9502,-45.1592 87.9,-40.2094"/>
</g>
<!-- section_2 -->
<g id="node3" class="node">
<title>section_2</title>
<ellipse fill="none" stroke="#000000" cx="204.7408" cy="-18" rx="65.8187" ry="18"/>
<text text-anchor="middle" x="204.7408" y="-13.8" font-family="Helvetica,sans-Serif" font-size="14.00" fill="#000000">section: 18&#45;54</text>
</g>
<!-- doc_0&#45;&gt;section_2 -->
<g id="edge2" class="edge">
<title>doc_0&#45;&gt;section_2</title>
<path fill="none" stroke="#000000" stroke-dasharray="5,2" d="M149.4401,-73.3008C158.4443,-64.2965 169.7357,-53.0052 179.764,-42.9769"/>
<polygon fill="#000000" stroke="#000000" points="182.5315,-45.1592 187.1277,-35.6132 177.5817,-40.2094 182.5315,-45.1592"/>
</g>
</g>
</svg>