<?xml version="1.0" encoding="UTF-8" standalone="no"?>
<!DOCTYPE svg PUBLIC "-//W3C//DTD SVG 1.1//EN"
 "http://www.w3.org/Graphics/SVG/1.1/DTD/svg11.dtd">
<!-- Generated by graphviz version 2.40.1 (20161225.0304)
 -->
<!-- Title: hierarchy Pages: 1 -->
<svg width="9724pt" height="418pt"
 viewBox="0.00 0.00 9724.00 417.60" xmlns="http://www.w3.org/2000/svg" xmlns:xlink="http://www.w3.org/1999/xlink">
<g id="graph0" class="graph" transform="scale(1 1) rotate(0) translate(4 413.6001)">
<title>hierarchy</title>
<polygon fill="#ffffff" stroke="transparent" points="-4,4 -4,-413.6001 9720,-413.6001 9720,4 -4,4"/>
<!-- doc_0 -->
<g id="node1" class="node">
<title>doc_0</title>
<ellipse fill="none" stroke="#000000" cx="2417" cy="-391.6001" rx="42.1216" ry="18"/>
<text text-anchor="middle" x="2417" y="-387.4001" font-family="Helvetica,sans-Serif" font-size="14.00" fill="#000000">doc &#45; 86</text>
</g>
<!-- section_1 -->
<g id="node2" class="node">
<title>section_1</title>
<ellipse fill="none" stroke="#000000" cx="1504" cy="-319.6001" rx="60.9826" ry="18"/>
<text text-anchor="middle" x="1504" y="-315.4001" font-family="Helvetica,sans-Serif" font-size="14.00" fill="#000000">section: 1&#45;17</text>
</g>
<!-- doc_0&#45;&gt;section_1 -->
<g id="edge1" class="edge">
<title>doc_0&#45;&gt;section_1</title>
<path fill="none" stroke="#000000" stroke-dasharray="5,2" d="M2375.3978,-388.3193C2231.3301,-376.958 1752.7298,-339.2152 1573.0024,-325.0417"/>
<polygon fill="#000000" stroke="#000000" points="1573.1222,-321.5404 1562.878,-324.2433 1572.5718,-328.5187 1573.1222,-321.5404"/>
</g>
<!-- section_2 -->
<g id="node3" class="node">
<title>section_2</title>
<ellipse fill="none" stroke="#000000" cx="3399" cy="-319.6001" rx="65.8187" ry="18"/>
<text text-anchor="middle" x="3399" y="-315.4001" font-family="Helvetica,sans-Serif" font-size="14.00" fill="#000000">section: 18&#45;54</text>
</g>
<!-- doc_0&#45;&gt;section_2 -->
<g id="edge2" class="edge">
<title>doc_0&#45;&gt;section_2</title>
<path fill="none" stroke="#000000" stroke-dasharray="5,2" d="M2458.5681,-388.5524C2609.645,-377.4754 3130.9107,-339.2564 3325.2205,-325.0096"/>
<polygon fill="#000000" stroke="#000000" points="3325.6153,-328.4902 3335.3326,-324.2682 3325.1034,-321.5089 3325.6153,-328.4902"/>
</g>
<!-- header_3 -->
<g id="node4" class="node">
<title>header_3</title>
<ellipse fill="none" stroke="#000000" cx="171" cy="-247.6001" rx="42.0956" ry="18"/>
<text text-anchor="middle" x="171" y="-243.4001" font-family="Helvetica,sans-Serif" font-size="14.00" fill="#000000">1 : grym</text>
</g>
<!-- section_1&#45;&gt;header_3 -->
<g id="edge3" class="edge">
<title>section_1&#45;&gt;header_3</title>
<path fill="none" stroke="#000000" stroke-dasharray="5,2" d="M1444.1341,-316.3666C1220.0737,-304.2643 433.0894,-261.7565 222.9241,-250.4047"/>
<polygon fill="#000000" stroke="#000000" points="222.953,-246.9013 212.7788,-249.8567 222.5754,-253.8911 222.953,-246.9013"/>
</g>
<!-- block_4 -->
<g id="node5" class="node">
<title>block_4</title>
<ellipse fill="none" stroke="#000000" cx="850" cy="-247.6001" rx="45.9804" ry="18"/>
<text text-anchor="middle" x="850" y="-243.4001" font-family="Helvetica,sans-Serif" font-size="14.00" fill="#000000">block 1&#45;5</text>
</g>
<!-- section_1&#45;&gt;block_4 -->
<g id="edge4" class="edge">
<title>section_1&#45;&gt;block_4</title>
<path fill="none" stroke="#000000" stroke-dasharray="5,2" d="M1446.8208,-313.3052C1322.0728,-299.5714 1026.8804,-267.0732 904.5594,-253.6067"/>
<polygon fill="#000000" stroke="#000000" points="904.636,-250.094 894.313,-252.4786 903.8699,-257.052 904.636,-250.094"/>
</g>
<!-- block_5 -->
<g id="node6" class="node">
<title>block_5</title>
<ellipse fill="none" stroke="#000000" cx="1247" cy="-247.6001" rx="45.9804" ry="18"/>
<text text-anchor="middle" x="1247" y="-243.4001" font-family="Helvetica,sans-Serif" font-size="14.00" fill="#000000">block 6&#45;7</text>
</g>
<!-- section_1&#45;&gt;block_5 -->
<g id="edge5" class="edge">
<title>section_1&#45;&gt;block_5</title>
<path fill="none" stroke="#000000" stroke-dasharray="5,2" d="M1459.8201,-307.2229C1413.7291,-294.3102 1341.7253,-274.138 1294.4514,-260.8939"/>
<polygon fill="#000000" stroke="#000000" points="1295.3307,-257.5056 1284.7573,-258.178 1293.4423,-264.246 1295.3307,-257.5056"/>
</g>
<!-- block_6 -->
<g id="node7" class="node">
<title>block_6</title>
<ellipse fill="none" stroke="#000000" cx="1504" cy="-247.6001" rx="50.0142" ry="18"/>
<text text-anchor="middle" x="1504" y="-243.4001" font-family="Helvetica,sans-Serif" font-size="14.00" fill="#000000">block 8&#45;11</text>
</g>
<!-- section_1&#45;&gt;block_6 -->
<g id="edge6" class="edge">
<title>section_1&#45;&gt;block_6</title>
<path fill="none" stroke="#000000" stroke-dasharray="5,2" d="M1504,-301.4315C1504,-293.7311 1504,-284.5745 1504,-276.0168"/>
<polygon fill="#000000" stroke="#000000" points="1507.5001,-276.0134 1504,-266.0134 1500.5001,-276.0134 1507.5001,-276.0134"/>
</g>
<!-- block_7 -->
<g id="node8" class="node">
<title>block_7</title>
<ellipse fill="none" stroke="#000000" cx="1856" cy="-247.6001" rx="55.6542" ry="18"/>
<text text-anchor="middle" x="1856" y="-243.4001" font-family="Helvetica,sans-Serif" font-size="14.00" fill="#000000">block 12&#45;14</text>
</g>
<!-- section_1&#45;&gt;block_7 -->
<g id="edge7" class="edge">
<title>section_1&#45;&gt;block_7</title>
<path fill="none" stroke="#000000" stroke-dasharray="5,2" d="M1554.0592,-309.3607C1618.6018,-296.1589 1730.5966,-273.2508 1798.5438,-259.3525"/>
<polygon fill="#000000" stroke="#000000" points="1799.5516,-262.7189 1808.6473,-257.2859 1798.1488,-255.8609 1799.5516,-262.7189"/>
</g>
<!-- block_8 -->
<g id="node9" class="node">
<title>block_8</title>
<ellipse fill="none" stroke="#000000" cx="2297" cy="-247.6001" rx="55.6542" ry="18"/>
<text text-anchor="middle" x="2297" y="-243.4001" font-family="Helvetica,sans-Serif" font-size="14.00" fill="#000000">block 15&#45;17</text>
</g>
<!-- section_1&#45;&gt;block_8 -->
<g id="edge8" class="edge">
<title>section_1&#45;&gt;block_8</title>
<path fill="none" stroke="#000000" stroke-dasharray="5,2" d="M1562.3112,-314.3058C1707.1532,-301.1549 2082.4568,-267.0795 2233.0695,-253.4047"/>
<polygon fill="#000000" stroke="#000000" points="2233.4475,-256.8848 2243.09,-252.4949 2232.8145,-249.9135 2233.4475,-256.8848"/>
</g>
<!-- header_15 -->
<g id="node16" class="node">
<title>header_15</title>
<ellipse fill="none" stroke="#000000" cx="2882" cy="-247.6001" rx="66.7367" ry="18"/>
<text text-anchor="middle" x="2882" y="-243.4001" font-family="Helvetica,sans-Serif" font-size="14.00" fill="#000000">1 : grym [a&#45;z]+</text>
</g>
<!-- section_2&#45;&gt;header_15 -->
<g id="edge15" class="edge">
<title>section_2&#45;&gt;header_15</title>
<path fill="none" stroke="#000000" stroke-dasharray="5,2" d="M3336.9357,-313.6481C3252.4685,-305.1447 3096.7372,-288.0339 2965,-265.6001 2957.7232,-264.3609 2950.1183,-262.9181 2942.592,-261.3985"/>
<polygon fill="#000000" stroke="#000000" points="2943.2791,-257.9666 2932.7773,-259.3675 2941.8605,-264.8214 2943.2791,-257.9666"/>
</g>
<!-- block_16 -->
<g id="node17" class="node">
<title>block_16</title>
<ellipse fill="none" stroke="#000000" cx="3030" cy="-247.6001" rx="55.6542" ry="18"/>
<text text-anchor="middle" x="3030" y="-243.4001" font-family="Helvetica,sans-Serif" font-size="14.00" fill="#000000">block 18&#45;54</text>
</g>
<!-- section_2&#45;&gt;block_16 -->
<g id="edge16" class="edge">
<title>section_2&#45;&gt;block_16</title>
<path fill="none" stroke="#000000" stroke-dasharray="5,2" d="M3343.1414,-310.0705C3284.259,-299.8379 3188.8735,-282.7305 3107,-265.6001 3099.7123,-264.0753 3092.0565,-262.3887 3084.5157,-260.6773"/>
<polygon fill="#000000" stroke="#000000" points="3085.2392,-257.2524 3074.7094,-258.4247 3083.672,-264.0747 3085.2392,-257.2524"/>
</g>
<!-- section_17 -->
<g id="node18" class="node">
<title>section_17</title>
<ellipse fill="none" stroke="#000000" cx="3182" cy="-247.6001" rx="65.8187" ry="18"/>
<text text-anchor="middle" x="3182" y="-243.4001" font-family="Helvetica,sans-Serif" font-size="14.00" fill="#000000">section: 21&#45;25</text>
</g>
<!-- section_2&#45;&gt;section_17 -->
<g id="edge17" class="edge">
<title>section_2&#45;&gt;section_17</title>
<path fill="none" stroke="#000000" stroke-dasharray="5,2" d="M3357.1602,-305.7178C3321.9996,-294.0516 3271.5904,-277.326 3233.8695,-264.8103"/>
<polygon fill="#000000" stroke="#000000" points="3234.6744,-261.3898 3224.081,-261.5625 3232.47,-268.0336 3234.6744,-261.3898"/>
</g>
<!-- section_18 -->
<g id="node19" class="node">
<title>section_18</title>
<ellipse fill="none" stroke="#000000" cx="3399" cy="-247.6001" rx="65.8187" ry="18"/>
<text text-anchor="middle" x="3399" y="-243.4001" font-family="Helvetica,sans-Serif" font-size="14.00" fill="#000000">section: 26&#45;30</text>
</g>
<!-- section_2&#45;&gt;section_18 -->
<g id="edge18" class="edge">
<title>section_2&#45;&gt;section_18</title>
<path fill="none" stroke="#000000" stroke-dasharray="5,2" d="M3399,-301.4315C3399,-293.7311 3399,-284.5745 3399,-276.0168"/>
<polygon fill="#000000" stroke="#000000" points="3402.5001,-276.0134 3399,-266.0134 3395.5001,-276.0134 3402.5001,-276.0134"/>
</g>
<!-- section_19 -->
<g id="node20" class="node">
<title>section_19</title>
<ellipse fill="none" stroke="#000000" cx="3636" cy="-247.6001" rx="65.8187" ry="18"/>
<text text-anchor="middle" x="3636" y="-243.4001" font-family="Helvetica,sans-Serif" font-size="14.00" fill="#000000">section: 31&#45;35</text>
</g>
<!-- section_2&#45;&gt;section_19 -->
<g id="edge19" class="edge">
<title>section_2&#45;&gt;section_19</title>
<path fill="none" stroke="#000000" stroke-dasharray="5,2" d="M3443.0225,-306.2262C3482.308,-294.2914 3539.9594,-276.777 3582.0153,-264.0005"/>
<polygon fill="#000000" stroke="#000000" points="3583.261,-267.2801 3591.8118,-261.0244 3581.2262,-260.5824 3583.261,-267.2801"/>
</g>
<!-- section_20 -->
<g id="node21" class="node">
<title>section_20</title>
<ellipse fill="none" stroke="#000000" cx="4180" cy="-247.6001" rx="65.8187" ry="18"/>
<text text-anchor="middle" x="4180" y="-243.4001" font-family="Helvetica,sans-Serif" font-size="14.00" fill="#000000">section: 36&#45;44</text>
</g>
<!-- section_2&#45;&gt;section_20 -->
<g id="edge20" class="edge">
<title>section_2&#45;&gt;section_20</title>
<path fill="none" stroke="#000000" stroke-dasharray="5,2" d="M3461.2641,-313.86C3604.1588,-300.6866 3955.0215,-268.3408 4107.3995,-254.2931"/>
<polygon fill="#000000" stroke="#000000" points="4107.9473,-257.7576 4117.5838,-253.3542 4107.3047,-250.7871 4107.9473,-257.7576"/>
</g>
<!-- section_21 -->
<g id="node22" class="node">
<title>section_21</title>
<ellipse fill="none" stroke="#000000" cx="5368" cy="-247.6001" rx="65.8187" ry="18"/>
<text text-anchor="middle" x="5368" y="-243.4001" font-family="Helvetica,sans-Serif" font-size="14.00" fill="#000000">section: 45&#45;54</text>
</g>
<!-- section_2&#45;&gt;section_21 -->
<g id="edge21" class="edge">
<title>section_2&#45;&gt;section_21</title>
<path fill="none" stroke="#000000" stroke-dasharray="5,2" d="M3464.2315,-317.2148C3760.1447,-306.3942 4975.5781,-261.9497 5292.2675,-250.3694"/>
<polygon fill="#000000" stroke="#000000" points="5292.8425,-253.8508 5302.7079,-249.9876 5292.5866,-246.8555 5292.8425,-253.8508"/>
</g>
<!-- section_22 -->
<g id="node23" class="node">
<title>section_22</title>
<ellipse fill="none" stroke="#000000" cx="7560" cy="-247.6001" rx="65.8187" ry="18"/>
<text text-anchor="middle" x="7560" y="-243.4001" font-family="Helvetica,sans-Serif" font-size="14.00" fill="#000000">section: 55&#45;86</text>
</g>
<!-- section_2&#45;&gt;section_22 -->
<g id="edge22" class="edge">
<title>section_2&#45;&gt;section_22</title>
<path fill="none" stroke="#000000" stroke-dasharray="5,2" d="M3464.7788,-318.4619C3949.6339,-310.0722 6965.3375,-257.8899 7484.0755,-248.9139"/>
<polygon fill="#000000" stroke="#000000" points="7484.4924,-252.4073 7494.4303,-248.7347 7484.3713,-245.4083 7484.4924,-252.4073"/>
</g>
<!-- leaf_9 -->
<g id="node10" class="node">
<title>leaf_9</title>
<polygon fill="none" stroke="#c0c0c0" points="54,-183.9001 0,-183.9001 0,-147.9001 54,-147.9001 54,-183.9001"/>
</g>
<!-- header_3&#45;&gt;leaf_9 -->
<g id="edge9" class="edge">
<title>header_3&#45;&gt;leaf_9</title>
<path fill="none" stroke="#000000" stroke-dasharray="5,2" d="M141.297,-234.6282C119.1246,-224.5012 88.4026,-209.517 63,-193.6001 61.2959,-192.5324 59.5742,-191.4025 57.8551,-190.2335"/>
<polygon fill="#000000" stroke="#000000" points="59.5467,-187.1403 49.3772,-184.1685 55.4739,-192.8334 59.5467,-187.1403"/>
</g>
<!-- leaf_10 -->
<g id="node11" class="node">
<title>leaf_10</title>
<polygon fill="none" stroke="#c0c0c0" points="627.5,-193.8016 72.5,-193.8016 72.5,-137.9986 627.5,-137.9986 627.5,-193.8016"/>
<text text-anchor="middle" x="350" y="-146.4001" font-family="Inconsolata" font-size="14.00" fill="#000000"> &#160;=grym= is the command&#45;line utility for bootstrapping the Grimoire language.</text>
</g>
<!-- block_4&#45;&gt;leaf_10 -->
<g id="edge10" class="edge">
<title>block_4&#45;&gt;leaf_10</title>
<path fill="none" stroke="#000000" stroke-dasharray="5,2" d="M807.3703,-240.6344C746.1762,-230.6353 629.7744,-211.6153 529.7197,-195.2663"/>
<polygon fill="#000000" stroke="#000000" points="530.2149,-191.8009 519.7813,-193.6424 529.086,-198.7093 530.2149,-191.8009"/>
</g>
<!-- leaf_11 -->
<g id="node12" class="node">
<title>leaf_11</title>
<polygon fill="none" stroke="#c0c0c0" points="1208,-183.9001 646,-183.9001 646,-147.9001 1208,-147.9001 1208,-183.9001"/>
<text text-anchor="middle" x="927" y="-162.4001" font-family="Inconsolata" font-size="14.00" fill="#000000">It works in a reasonably&#45;familiar, Unixey sort of way, as a command&#45;line tool.</text>
</g>
<!-- block_5&#45;&gt;leaf_11 -->
<g id="edge11" class="edge">
<title>block_5&#45;&gt;leaf_11</title>
<path fill="none" stroke="#000000" stroke-dasharray="5,2" d="M1208.4005,-237.7452C1158.8317,-225.0897 1071.5509,-202.8058 1007.2992,-186.4015"/>
<polygon fill="#000000" stroke="#000000" points="1008.1494,-183.0064 997.5944,-183.9237 1006.4178,-189.7888 1008.1494,-183.0064"/>
</g>
<!-- leaf_12 -->
<g id="node13" class="node">
<title>leaf_12</title>
<polygon fill="none" stroke="#c0c0c0" points="1781.5,-193.1006 1226.5,-193.1006 1226.5,-138.6996 1781.5,-138.6996 1781.5,-193.1006"/>
<text text-anchor="middle" x="1504" y="-177.8002" font-family="Inconsolata" font-size="14.00" fill="#000000">Unlike most such tools I produce, it doesn&#39;t take from =stdin= or write to</text>
<text text-anchor="middle" x="1504" y="-162.4001" font-family="Inconsolata" font-size="14.00" fill="#000000">=stdout=. &#160;Instead it will happily make major changes to your files, sweeping</text>
<text text-anchor="middle" x="1504" y="-147.0001" font-family="Inconsolata" font-size="14.00" fill="#000000">entire subdirectories, by default.</text>
</g>
<!-- block_6&#45;&gt;leaf_12 -->
<g id="edge12" class="edge">
<title>block_6&#45;&gt;leaf_12</title>
<path fill="none" stroke="#000000" stroke-dasharray="5,2" d="M1504,-229.4682C1504,-221.7489 1504,-212.4427 1504,-203.3613"/>
<polygon fill="#000000" stroke="#000000" points="1507.5001,-203.3003 1504,-193.3003 1500.5001,-203.3004 1507.5001,-203.3003"/>
</g>
<!-- leaf_13 -->
<g id="node14" class="node">
<title>leaf_13</title>
<polygon fill="none" stroke="#c0c0c0" points="2368.5,-185.2007 1799.5,-185.2007 1799.5,-146.5995 2368.5,-146.5995 2368.5,-185.2007"/>
<text text-anchor="middle" x="2084" y="-170.1001" font-family="Inconsolata" font-size="14.00" fill="#000000">Not unlike =git= in that singular respect, except it&#39;s harder to persuade =git=</text>
<text text-anchor="middle" x="2084" y="-154.7001" font-family="Inconsolata" font-size="14.00" fill="#000000">to mangle things. &#160;We&#39;ll include a few simple sanity checks. </text>
</g>
<!-- block_7&#45;&gt;leaf_13 -->
<g id="edge13" class="edge">
<title>block_7&#45;&gt;leaf_13</title>
<path fill="none" stroke="#000000" stroke-dasharray="5,2" d="M1893.3943,-234.2005C1927.7798,-221.879 1979.4717,-203.3561 2020.3524,-188.7072"/>
<polygon fill="#000000" stroke="#000000" points="2021.7283,-191.9321 2029.9615,-185.2639 2019.367,-185.3424 2021.7283,-191.9321"/>
</g>
<!-- leaf_14 -->
<g id="node15" class="node">
<title>leaf_14</title>
<polygon fill="none" stroke="#c0c0c0" points="2829.5,-185.8022 2386.5,-185.8022 2386.5,-145.998 2829.5,-145.998 2829.5,-185.8022"/>
<text text-anchor="middle" x="2608" y="-170.4001" font-family="Inconsolata" font-size="14.00" fill="#000000">Like =git=, =grym= is mostly invoked with secondary commands.</text>
</g>
<!-- block_8&#45;&gt;leaf_14 -->
<g id="edge14" class="edge">
<title>block_8&#45;&gt;leaf_14</title>
<path fill="none" stroke="#000000" stroke-dasharray="5,2" d="M2340.5707,-236.1541C2387.7606,-223.7572 2464.2068,-203.6747 2523.3046,-188.1497"/>
<polygon fill="#000000" stroke="#000000" points="2524.2227,-191.5273 2533.0052,-185.6013 2522.4441,-184.7571 2524.2227,-191.5273"/>
</g>
<!-- leaf_23 -->
<g id="node24" class="node">
<title>leaf_23</title>
<polygon fill="none" stroke="#c0c0c0" points="2902,-183.9001 2848,-183.9001 2848,-147.9001 2902,-147.9001 2902,-183.9001"/>
</g>
<!-- header_15&#45;&gt;leaf_23 -->
<g id="edge23" class="edge">
<title>header_15&#45;&gt;leaf_23</title>
<path fill="none" stroke="#000000" stroke-dasharray="5,2" d="M2880.4465,-229.4682C2879.5583,-219.1024 2878.425,-205.8748 2877.4224,-194.1731"/>
<polygon fill="#000000" stroke="#000000" points="2880.8902,-193.646 2876.5492,-183.9813 2873.9157,-194.2436 2880.8902,-193.646"/>
</g>
<!-- leaf_24 -->
<g id="node25" class="node">
<title>leaf_24</title>
<polygon fill="none" stroke="#c0c0c0" points="2974,-183.9001 2920,-183.9001 2920,-147.9001 2974,-147.9001 2974,-183.9001"/>
</g>
<!-- block_16&#45;&gt;leaf_24 -->
<g id="edge24" class="edge">
<title>block_16&#45;&gt;leaf_24</title>
<path fill="none" stroke="#000000" stroke-dasharray="5,2" d="M3012.3978,-230.2737C3000.862,-218.9185 2985.589,-203.8847 2972.704,-191.2015"/>
<polygon fill="#000000" stroke="#000000" points="2975.0217,-188.5717 2965.4397,-184.051 2970.1111,-193.5604 2975.0217,-188.5717"/>
</g>
<!-- header_25 -->
<g id="node26" class="node">
<title>header_25</title>
<ellipse fill="none" stroke="#000000" cx="3050" cy="-165.9001" rx="58.0341" ry="18"/>
<text text-anchor="middle" x="3050" y="-161.7001" font-family="Helvetica,sans-Serif" font-size="14.00" fill="#000000">3 : grym knit</text>
</g>
<!-- section_17&#45;&gt;header_25 -->
<g id="edge25" class="edge">
<title>section_17&#45;&gt;header_25</title>
<path fill="none" stroke="#000000" stroke-dasharray="5,2" d="M3155.2878,-231.0669C3135.0272,-218.5268 3107.0004,-201.1799 3084.9567,-187.5362"/>
<polygon fill="#000000" stroke="#000000" points="3086.5671,-184.4168 3076.222,-182.1299 3082.883,-190.3689 3086.5671,-184.4168"/>
</g>
<!-- block_26 -->
<g id="node27" class="node">
<title>block_26</title>
<ellipse fill="none" stroke="#000000" cx="3182" cy="-165.9001" rx="55.6542" ry="18"/>
<text text-anchor="middle" x="3182" y="-161.7001" font-family="Helvetica,sans-Serif" font-size="14.00" fill="#000000">block 21&#45;25</text>
</g>
<!-- section_17&#45;&gt;block_26 -->
<g id="edge26" class="edge">
<title>section_17&#45;&gt;block_26</title>
<path fill="none" stroke="#000000" stroke-dasharray="5,2" d="M3182,-229.4682C3182,-219.1024 3182,-205.8748 3182,-194.1731"/>
<polygon fill="#000000" stroke="#000000" points="3185.5001,-193.9813 3182,-183.9813 3178.5001,-193.9813 3185.5001,-193.9813"/>
</g>
<!-- header_29 -->
<g id="node30" class="node">
<title>header_29</title>
<ellipse fill="none" stroke="#000000" cx="3326" cy="-165.9001" rx="70.1359" ry="18"/>
<text text-anchor="middle" x="3326" y="-161.7001" font-family="Helvetica,sans-Serif" font-size="14.00" fill="#000000">3 : grym weave</text>
</g>
<!-- section_18&#45;&gt;header_29 -->
<g id="edge29" class="edge">
<title>section_18&#45;&gt;header_29</title>
<path fill="none" stroke="#000000" stroke-dasharray="5,2" d="M3383.1601,-229.8724C3373.0201,-218.524 3359.7081,-203.6255 3348.4822,-191.0617"/>
<polygon fill="#000000" stroke="#000000" points="3351.0819,-188.7182 3341.809,-183.5932 3345.862,-193.3822 3351.0819,-188.7182"/>
</g>
<!-- block_30 -->
<g id="node31" class="node">
<title>block_30</title>
<ellipse fill="none" stroke="#000000" cx="3470" cy="-165.9001" rx="55.6542" ry="18"/>
<text text-anchor="middle" x="3470" y="-161.7001" font-family="Helvetica,sans-Serif" font-size="14.00" fill="#000000">block 26&#45;30</text>
</g>
<!-- section_18&#45;&gt;block_30 -->
<g id="edge30" class="edge">
<title>section_18&#45;&gt;block_30</title>
<path fill="none" stroke="#000000" stroke-dasharray="5,2" d="M3414.4059,-229.8724C3424.242,-218.554 3437.1468,-203.7044 3448.047,-191.1616"/>
<polygon fill="#000000" stroke="#000000" points="3450.9503,-193.1564 3454.868,-183.3125 3445.6667,-188.5648 3450.9503,-193.1564"/>
</g>
<!-- header_33 -->
<g id="node34" class="node">
<title>header_33</title>
<ellipse fill="none" stroke="#000000" cx="3636" cy="-165.9001" rx="73.5189" ry="18"/>
<text text-anchor="middle" x="3636" y="-161.7001" font-family="Helvetica,sans-Serif" font-size="14.00" fill="#000000">3 : grym unravel</text>
</g>
<!-- section_19&#45;&gt;header_33 -->
<g id="edge33" class="edge">
<title>section_19&#45;&gt;header_33</title>
<path fill="none" stroke="#000000" stroke-dasharray="5,2" d="M3636,-229.4682C3636,-219.1024 3636,-205.8748 3636,-194.1731"/>
<polygon fill="#000000" stroke="#000000" points="3639.5001,-193.9813 3636,-183.9813 3632.5001,-193.9813 3639.5001,-193.9813"/>
</g>
<!-- block_34 -->
<g id="node35" class="node">
<title>block_34</title>
<ellipse fill="none" stroke="#000000" cx="3806" cy="-165.9001" rx="55.6542" ry="18"/>
<text text-anchor="middle" x="3806" y="-161.7001" font-family="Helvetica,sans-Serif" font-size="14.00" fill="#000000">block 31&#45;35</text>
</g>
<!-- section_19&#45;&gt;block_34 -->
<g id="edge34" class="edge">
<title>section_19&#45;&gt;block_34</title>
<path fill="none" stroke="#000000" stroke-dasharray="5,2" d="M3668.7777,-231.8475C3696.3764,-218.5839 3735.9675,-199.5569 3765.537,-185.3461"/>
<polygon fill="#000000" stroke="#000000" points="3767.2604,-188.4012 3774.7575,-180.9149 3764.2283,-182.0919 3767.2604,-188.4012"/>
</g>
<!-- header_37 -->
<g id="node38" class="node">
<title>header_37</title>
<ellipse fill="none" stroke="#000000" cx="4066" cy="-165.9001" rx="66.2599" ry="18"/>
<text text-anchor="middle" x="4066" y="-161.7001" font-family="Helvetica,sans-Serif" font-size="14.00" fill="#000000">3 : grym invert</text>
</g>
<!-- section_20&#45;&gt;header_37 -->
<g id="edge37" class="edge">
<title>section_20&#45;&gt;header_37</title>
<path fill="none" stroke="#000000" stroke-dasharray="5,2" d="M4156.3791,-230.6718C4139.4124,-218.5124 4116.3535,-201.9868 4097.774,-188.6715"/>
<polygon fill="#000000" stroke="#000000" points="4099.7576,-185.7871 4089.5906,-182.8067 4095.68,-191.4768 4099.7576,-185.7871"/>
</g>
<!-- block_38 -->
<g id="node39" class="node">
<title>block_38</title>
<ellipse fill="none" stroke="#000000" cx="4294" cy="-165.9001" rx="55.6542" ry="18"/>
<text text-anchor="middle" x="4294" y="-161.7001" font-family="Helvetica,sans-Serif" font-size="14.00" fill="#000000">block 36&#45;40</text>
</g>
<!-- section_20&#45;&gt;block_38 -->
<g id="edge38" class="edge">
<title>section_20&#45;&gt;block_38</title>
<path fill="none" stroke="#000000" stroke-dasharray="5,2" d="M4203.6209,-230.6718C4220.7007,-218.4313 4243.9543,-201.7662 4262.597,-188.4056"/>
<polygon fill="#000000" stroke="#000000" points="4264.7101,-191.1973 4270.7994,-182.5272 4260.6324,-185.5075 4264.7101,-191.1973"/>
</g>
<!-- block_39 -->
<g id="node40" class="node">
<title>block_39</title>
<ellipse fill="none" stroke="#000000" cx="4659" cy="-165.9001" rx="55.6542" ry="18"/>
<text text-anchor="middle" x="4659" y="-161.7001" font-family="Helvetica,sans-Serif" font-size="14.00" fill="#000000">block 41&#45;44</text>
</g>
<!-- section_20&#45;&gt;block_39 -->
<g id="edge39" class="edge">
<title>section_20&#45;&gt;block_39</title>
<path fill="none" stroke="#000000" stroke-dasharray="5,2" d="M4235.8848,-238.0682C4326.8701,-222.5494 4506.2122,-191.9602 4599.487,-176.0509"/>
<polygon fill="#000000" stroke="#000000" points="4600.3357,-179.4567 4609.6048,-174.3251 4599.1587,-172.5564 4600.3357,-179.4567"/>
</g>
<!-- header_43 -->
<g id="node44" class="node">
<title>header_43</title>
<ellipse fill="none" stroke="#000000" cx="5255" cy="-165.9001" rx="55.6198" ry="18"/>
<text text-anchor="middle" x="5255" y="-161.7001" font-family="Helvetica,sans-Serif" font-size="14.00" fill="#000000">3 : grym init</text>
</g>
<!-- section_21&#45;&gt;header_43 -->
<g id="edge43" class="edge">
<title>section_21&#45;&gt;header_43</title>
<path fill="none" stroke="#000000" stroke-dasharray="5,2" d="M5344.5863,-230.6718C5327.6563,-218.4313 5304.6067,-201.7662 5286.1275,-188.4056"/>
<polygon fill="#000000" stroke="#000000" points="5288.1515,-185.55 5277.997,-182.5272 5284.0501,-191.2226 5288.1515,-185.55"/>
</g>
<!-- block_44 -->
<g id="node45" class="node">
<title>block_44</title>
<ellipse fill="none" stroke="#000000" cx="5481" cy="-165.9001" rx="55.6542" ry="18"/>
<text text-anchor="middle" x="5481" y="-161.7001" font-family="Helvetica,sans-Serif" font-size="14.00" fill="#000000">block 45&#45;51</text>
</g>
<!-- section_21&#45;&gt;block_44 -->
<g id="edge44" class="edge">
<title>section_21&#45;&gt;block_44</title>
<path fill="none" stroke="#000000" stroke-dasharray="5,2" d="M5391.4137,-230.6718C5408.3437,-218.4313 5431.3933,-201.7662 5449.8725,-188.4056"/>
<polygon fill="#000000" stroke="#000000" points="5451.9499,-191.2226 5458.003,-182.5272 5447.8485,-185.55 5451.9499,-191.2226"/>
</g>
<!-- block_45 -->
<g id="node46" class="node">
<title>block_45</title>
<ellipse fill="none" stroke="#000000" cx="5815" cy="-165.9001" rx="55.6542" ry="18"/>
<text text-anchor="middle" x="5815" y="-161.7001" font-family="Helvetica,sans-Serif" font-size="14.00" fill="#000000">block 52&#45;54</text>
</g>
<!-- section_21&#45;&gt;block_45 -->
<g id="edge45" class="edge">
<title>section_21&#45;&gt;block_45</title>
<path fill="none" stroke="#000000" stroke-dasharray="5,2" d="M5422.811,-237.5821C5507.4653,-222.1095 5669.3123,-192.528 5756.2773,-176.6331"/>
<polygon fill="#000000" stroke="#000000" points="5757.0378,-180.0522 5766.2455,-174.8112 5755.7792,-173.1662 5757.0378,-180.0522"/>
</g>
<!-- header_49 -->
<g id="node50" class="node">
<title>header_49</title>
<ellipse fill="none" stroke="#000000" cx="6638" cy="-165.9001" rx="81.2715" ry="18"/>
<text text-anchor="middle" x="6638" y="-161.7001" font-family="Helvetica,sans-Serif" font-size="14.00" fill="#000000">2 : Considerations</text>
</g>
<!-- section_22&#45;&gt;header_49 -->
<g id="edge49" class="edge">
<title>section_22&#45;&gt;header_49</title>
<path fill="none" stroke="#000000" stroke-dasharray="5,2" d="M7497.3521,-242.0488C7336.3476,-227.7819 6907.8831,-189.8149 6723.8993,-173.5118"/>
<polygon fill="#000000" stroke="#000000" points="6723.9999,-170.0071 6713.73,-172.6107 6723.382,-176.9798 6723.9999,-170.0071"/>
</g>
<!-- block_50 -->
<g id="node51" class="node">
<title>block_50</title>
<ellipse fill="none" stroke="#000000" cx="7098" cy="-165.9001" rx="55.6542" ry="18"/>
<text text-anchor="middle" x="7098" y="-161.7001" font-family="Helvetica,sans-Serif" font-size="14.00" fill="#000000">block 55&#45;60</text>
</g>
<!-- section_22&#45;&gt;block_50 -->
<g id="edge50" class="edge">
<title>section_22&#45;&gt;block_50</title>
<path fill="none" stroke="#000000" stroke-dasharray="5,2" d="M7504.7309,-237.8263C7417.0942,-222.3287 7246.991,-192.2477 7157.0476,-176.3421"/>
<polygon fill="#000000" stroke="#000000" points="7157.4717,-172.8628 7147.0149,-174.5679 7156.2526,-179.7559 7157.4717,-172.8628"/>
</g>
<!-- block_51 -->
<g id="node52" class="node">
<title>block_51</title>
<ellipse fill="none" stroke="#000000" cx="7381" cy="-165.9001" rx="55.6542" ry="18"/>
<text text-anchor="middle" x="7381" y="-161.7001" font-family="Helvetica,sans-Serif" font-size="14.00" fill="#000000">block 61&#45;64</text>
</g>
<!-- section_22&#45;&gt;block_51 -->
<g id="edge51" class="edge">
<title>section_22&#45;&gt;block_51</title>
<path fill="none" stroke="#000000" stroke-dasharray="5,2" d="M7525.9101,-232.0407C7496.5856,-218.6562 7454.1771,-199.2999 7422.809,-184.9828"/>
<polygon fill="#000000" stroke="#000000" points="7424.0058,-181.6817 7413.4553,-180.7135 7421.0992,-188.0498 7424.0058,-181.6817"/>
</g>
<!-- block_52 -->
<g id="node53" class="node">
<title>block_52</title>
<ellipse fill="none" stroke="#000000" cx="7650" cy="-165.9001" rx="55.6542" ry="18"/>
<text text-anchor="middle" x="7650" y="-161.7001" font-family="Helvetica,sans-Serif" font-size="14.00" fill="#000000">block 65&#45;70</text>
</g>
<!-- section_22&#45;&gt;block_52 -->
<g id="edge52" class="edge">
<title>section_22&#45;&gt;block_52</title>
<path fill="none" stroke="#000000" stroke-dasharray="5,2" d="M7579.0867,-230.2737C7592.0606,-218.4962 7609.3939,-202.7615 7623.6759,-189.7965"/>
<polygon fill="#000000" stroke="#000000" points="7626.1977,-192.2344 7631.2494,-182.9215 7621.4927,-187.0514 7626.1977,-192.2344"/>
</g>
<!-- block_53 -->
<g id="node54" class="node">
<title>block_53</title>
<ellipse fill="none" stroke="#000000" cx="8047" cy="-165.9001" rx="55.6542" ry="18"/>
<text text-anchor="middle" x="8047" y="-161.7001" font-family="Helvetica,sans-Serif" font-size="14.00" fill="#000000">block 71&#45;74</text>
</g>
<!-- section_22&#45;&gt;block_53 -->
<g id="edge53" class="edge">
<title>section_22&#45;&gt;block_53</title>
<path fill="none" stroke="#000000" stroke-dasharray="5,2" d="M7616.3408,-238.1483C7708.9851,-222.6061 7892.6485,-191.7944 7987.3872,-175.9009"/>
<polygon fill="#000000" stroke="#000000" points="7988.0973,-179.3307 7997.3804,-174.2244 7986.9391,-172.4272 7988.0973,-179.3307"/>
</g>
<!-- block_54 -->
<g id="node55" class="node">
<title>block_54</title>
<ellipse fill="none" stroke="#000000" cx="8527" cy="-165.9001" rx="55.6542" ry="18"/>
<text text-anchor="middle" x="8527" y="-161.7001" font-family="Helvetica,sans-Serif" font-size="14.00" fill="#000000">block 75&#45;79</text>
</g>
<!-- section_22&#45;&gt;block_54 -->
<g id="edge54" class="edge">
<title>section_22&#45;&gt;block_54</title>
<path fill="none" stroke="#000000" stroke-dasharray="5,2" d="M7623.0746,-242.2711C7797.7149,-227.516 8286.2904,-186.2372 8462.5578,-171.3447"/>
<polygon fill="#000000" stroke="#000000" points="8463.0452,-174.8161 8472.715,-170.4865 8462.4558,-167.8409 8463.0452,-174.8161"/>
</g>
<!-- block_55 -->
<g id="node56" class="node">
<title>block_55</title>
<ellipse fill="none" stroke="#000000" cx="9224" cy="-165.9001" rx="55.6542" ry="18"/>
<text text-anchor="middle" x="9224" y="-161.7001" font-family="Helvetica,sans-Serif" font-size="14.00" fill="#000000">block 80&#45;86</text>
</g>
<!-- section_22&#45;&gt;block_55 -->
<g id="edge55" class="edge">
<title>section_22&#45;&gt;block_55</title>
<path fill="none" stroke="#000000" stroke-dasharray="5,2" d="M7624.7201,-244.4225C7889.8648,-231.4042 8891.6517,-182.2179 9158.4069,-169.1206"/>
<polygon fill="#000000" stroke="#000000" points="9158.8848,-172.6015 9168.7011,-168.6152 9158.5415,-165.6099 9158.8848,-172.6015"/>
</g>
<!-- leaf_27 -->
<g id="node28" class="node">
<title>leaf_27</title>
<polygon fill="none" stroke="#c0c0c0" points="2919,-69.1 2865,-69.1 2865,-33.1 2919,-33.1 2919,-69.1"/>
</g>
<!-- header_25&#45;&gt;leaf_27 -->
<g id="edge27" class="edge">
<title>header_25&#45;&gt;leaf_27</title>
<path fill="none" stroke="#000000" stroke-dasharray="5,2" d="M3012.7795,-151.9723C2987.0519,-141.0992 2953.0784,-124.1568 2928,-102.2001 2920.1222,-95.3029 2913.0688,-86.346 2907.3375,-77.8618"/>
<polygon fill="#000000" stroke="#000000" points="2910.1985,-75.839 2901.8642,-69.2976 2904.3001,-79.6086 2910.1985,-75.839"/>
</g>
<!-- leaf_28 -->
<g id="node29" class="node">
<title>leaf_28</title>
<polygon fill="none" stroke="#c0c0c0" points="3219,-79.0015 2937,-79.0015 2937,-23.1986 3219,-23.1986 3219,-79.0015"/>
<text text-anchor="middle" x="3078" y="-47.6001" font-family="Inconsolata" font-size="14.00" fill="#000000"> &#160;This generates =/src/= from =/org/=.</text>
</g>
<!-- block_26&#45;&gt;leaf_28 -->
<g id="edge28" class="edge">
<title>block_26&#45;&gt;leaf_28</title>
<path fill="none" stroke="#000000" stroke-dasharray="5,2" d="M3166.2046,-148.4645C3151.391,-132.1125 3128.7952,-107.1702 3110.1827,-86.6248"/>
<polygon fill="#000000" stroke="#000000" points="3112.5766,-84.0542 3103.2688,-78.993 3107.3888,-88.7539 3112.5766,-84.0542"/>
</g>
<!-- leaf_31 -->
<g id="node32" class="node">
<title>leaf_31</title>
<polygon fill="none" stroke="#c0c0c0" points="3291,-69.1 3237,-69.1 3237,-33.1 3291,-33.1 3291,-69.1"/>
</g>
<!-- header_29&#45;&gt;leaf_31 -->
<g id="edge31" class="edge">
<title>header_29&#45;&gt;leaf_31</title>
<path fill="none" stroke="#000000" stroke-dasharray="5,2" d="M3316.3125,-147.9626C3306.2256,-129.2855 3290.3038,-99.8045 3278.6729,-78.2686"/>
<polygon fill="#000000" stroke="#000000" points="3281.6557,-76.4261 3273.8241,-69.2905 3275.4965,-79.7525 3281.6557,-76.4261"/>
</g>
<!-- leaf_32 -->
<g id="node33" class="node">
<title>leaf_32</title>
<polygon fill="none" stroke="#c0c0c0" points="3591,-79.0015 3309,-79.0015 3309,-23.1986 3591,-23.1986 3591,-79.0015"/>
<text text-anchor="middle" x="3450" y="-47.6001" font-family="Inconsolata" font-size="14.00" fill="#000000"> &#160;This generates =/doc/= from =/org/=.</text>
</g>
<!-- block_30&#45;&gt;leaf_32 -->
<g id="edge32" class="edge">
<title>block_30&#45;&gt;leaf_32</title>
<path fill="none" stroke="#000000" stroke-dasharray="5,2" d="M3466.8309,-147.7097C3464.0921,-131.9887 3460.0437,-108.7512 3456.6038,-89.006"/>
<polygon fill="#000000" stroke="#000000" points="3460.035,-88.308 3454.8706,-79.0571 3453.1389,-89.5095 3460.035,-88.308"/>
</g>
<!-- leaf_35 -->
<g id="node36" class="node">
<title>leaf_35</title>
<polygon fill="none" stroke="#c0c0c0" points="3663,-69.1 3609,-69.1 3609,-33.1 3663,-33.1 3663,-69.1"/>
</g>
<!-- header_33&#45;&gt;leaf_35 -->
<g id="edge35" class="edge">
<title>header_33&#45;&gt;leaf_35</title>
<path fill="none" stroke="#000000" stroke-dasharray="5,2" d="M3636,-147.7097C3636,-129.3205 3636,-100.6467 3636,-79.3078"/>
<polygon fill="#000000" stroke="#000000" points="3639.5001,-79.2053 3636,-69.2054 3632.5001,-79.2054 3639.5001,-79.2053"/>
</g>
<!-- leaf_36 -->
<g id="node37" class="node">
<title>leaf_36</title>
<polygon fill="none" stroke="#c0c0c0" points="3977,-79.0015 3681,-79.0015 3681,-23.1986 3977,-23.1986 3977,-79.0015"/>
<text text-anchor="middle" x="3829" y="-47.6001" font-family="Inconsolata" font-size="14.00" fill="#000000"> &#160;This regenerates =/org/= from =/src/=.</text>
</g>
<!-- block_34&#45;&gt;leaf_36 -->
<g id="edge36" class="edge">
<title>block_34&#45;&gt;leaf_36</title>
<path fill="none" stroke="#000000" stroke-dasharray="5,2" d="M3809.6444,-147.7097C3812.7941,-131.9887 3817.4497,-108.7512 3821.4056,-89.006"/>
<polygon fill="#000000" stroke="#000000" points="3824.8661,-89.5499 3823.3988,-79.0571 3818.0025,-88.1747 3824.8661,-89.5499"/>
</g>
<!-- leaf_40 -->
<g id="node41" class="node">
<title>leaf_40</title>
<polygon fill="none" stroke="#c0c0c0" points="4049,-69.1 3995,-69.1 3995,-33.1 4049,-33.1 4049,-69.1"/>
</g>
<!-- header_37&#45;&gt;leaf_40 -->
<g id="edge40" class="edge">
<title>header_37&#45;&gt;leaf_40</title>
<path fill="none" stroke="#000000" stroke-dasharray="5,2" d="M4059.125,-147.9626C4052.0308,-129.453 4040.8696,-100.3325 4032.6358,-78.8499"/>
<polygon fill="#000000" stroke="#000000" points="4035.8191,-77.3755 4028.9719,-69.2905 4029.2827,-79.8807 4035.8191,-77.3755"/>
</g>
<!-- leaf_41 -->
<g id="node42" class="node">
<title>leaf_41</title>
<polygon fill="none" stroke="#c0c0c0" points="4608.5,-78.4005 4067.5,-78.4005 4067.5,-23.7996 4608.5,-23.7996 4608.5,-78.4005"/>
<text text-anchor="middle" x="4338" y="-47.3001" font-family="Inconsolata" font-size="14.00" fill="#000000"> &#160;This takes a directory called =/src/= and creates an =/org/= from it, as </text>
<text text-anchor="middle" x="4338" y="-31.9" font-family="Inconsolata" font-size="14.00" fill="#000000">best it&#39;s able. </text>
</g>
<!-- block_38&#45;&gt;leaf_41 -->
<g id="edge41" class="edge">
<title>block_38&#45;&gt;leaf_41</title>
<path fill="none" stroke="#000000" stroke-dasharray="5,2" d="M4300.875,-147.9626C4306.9817,-132.0297 4316.1018,-108.2344 4323.7743,-88.2163"/>
<polygon fill="#000000" stroke="#000000" points="4327.0941,-89.3339 4327.4049,-78.7436 4320.5578,-86.8286 4327.0941,-89.3339"/>
</g>
<!-- leaf_42 -->
<g id="node43" class="node">
<title>leaf_42</title>
<polygon fill="none" stroke="#c0c0c0" points="5161,-78.4005 4627,-78.4005 4627,-23.7996 5161,-23.7996 5161,-78.4005"/>
<text text-anchor="middle" x="4894" y="-63.3001" font-family="Inconsolata" font-size="14.00" fill="#000000">This being a rough&#45;and&#45;ready kind of operation, if we find anything at all</text>
<text text-anchor="middle" x="4894" y="-47.9" font-family="Inconsolata" font-size="14.00" fill="#000000">in =/org/= before we start, we&#39;ll copy it over somewhere temporary. </text>
</g>
<!-- block_39&#45;&gt;leaf_42 -->
<g id="edge42" class="edge">
<title>block_39&#45;&gt;leaf_42</title>
<path fill="none" stroke="#000000" stroke-dasharray="5,2" d="M4690.2062,-150.6555C4725.3647,-133.4802 4783.4963,-105.0823 4828.6953,-83.0021"/>
<polygon fill="#000000" stroke="#000000" points="4830.3923,-86.0685 4837.8412,-78.5343 4827.3197,-79.7788 4830.3923,-86.0685"/>
</g>
<!-- leaf_46 -->
<g id="node47" class="node">
<title>leaf_46</title>
<polygon fill="none" stroke="#c0c0c0" points="5233,-69.1 5179,-69.1 5179,-33.1 5233,-33.1 5233,-69.1"/>
</g>
<!-- header_43&#45;&gt;leaf_46 -->
<g id="edge46" class="edge">
<title>header_43&#45;&gt;leaf_46</title>
<path fill="none" stroke="#000000" stroke-dasharray="5,2" d="M5247.3438,-147.9626C5239.4076,-129.3693 5226.9013,-100.0687 5217.7202,-78.5588"/>
<polygon fill="#000000" stroke="#000000" points="5220.9089,-77.1137 5213.7642,-69.2905 5214.4709,-79.8617 5220.9089,-77.1137"/>
</g>
<!-- leaf_47 -->
<g id="node48" class="node">
<title>leaf_47</title>
<polygon fill="none" stroke="#c0c0c0" points="5806.5,-93.7011 5251.5,-93.7011 5251.5,-8.499 5806.5,-8.499 5806.5,-93.7011"/>
<text text-anchor="middle" x="5529" y="-62.7001" font-family="Inconsolata" font-size="14.00" fill="#000000"> &#160;This checks for the codex directory structure and if it finds one writes a </text>
<text text-anchor="middle" x="5529" y="-47.3001" font-family="Inconsolata" font-size="14.00" fill="#000000">=.grym= file in the home directory. &#160;This will almost certainly turn into a </text>
<text text-anchor="middle" x="5529" y="-31.9" font-family="Inconsolata" font-size="14.00" fill="#000000">directory, the question is whether that =.git= style organization is under</text>
<text text-anchor="middle" x="5529" y="-16.5" font-family="Inconsolata" font-size="14.00" fill="#000000">=.bridge= or both that and =.grym=.</text>
</g>
<!-- block_44&#45;&gt;leaf_47 -->
<g id="edge47" class="edge">
<title>block_44&#45;&gt;leaf_47</title>
<path fill="none" stroke="#000000" stroke-dasharray="5,2" d="M5488.5,-147.9626C5493.5254,-135.9435 5500.4216,-119.4502 5507.0993,-103.4793"/>
<polygon fill="#000000" stroke="#000000" points="5510.3615,-104.7502 5510.99,-94.174 5503.9033,-102.0498 5510.3615,-104.7502"/>
</g>
<!-- leaf_48 -->
<g id="node49" class="node">
<title>leaf_48</title>
<polygon fill="none" stroke="#c0c0c0" points="6211.5,-71.0021 5824.5,-71.0021 5824.5,-31.198 6211.5,-31.198 6211.5,-71.0021"/>
<text text-anchor="middle" x="6018" y="-55.6001" font-family="Inconsolata" font-size="14.00" fill="#000000">I want to give it a chance to just be a config file. </text>
</g>
<!-- block_45&#45;&gt;leaf_48 -->
<g id="edge48" class="edge">
<title>block_45&#45;&gt;leaf_48</title>
<path fill="none" stroke="#000000" stroke-dasharray="5,2" d="M5842.8006,-150.1784C5876.7205,-130.9961 5934.4655,-98.3403 5974.3378,-75.7918"/>
<polygon fill="#000000" stroke="#000000" points="5976.0781,-78.8286 5983.0597,-70.8594 5972.6323,-72.7354 5976.0781,-78.8286"/>
</g>
<!-- leaf_56 -->
<g id="node57" class="node">
<title>leaf_56</title>
<polygon fill="none" stroke="#c0c0c0" points="6284,-69.1 6230,-69.1 6230,-33.1 6284,-33.1 6284,-69.1"/>
</g>
<!-- header_49&#45;&gt;leaf_56 -->
<g id="edge56" class="edge">
<title>header_49&#45;&gt;leaf_56</title>
<path fill="none" stroke="#000000" stroke-dasharray="5,2" d="M6563.2715,-158.7457C6475.6441,-149.2227 6336.7843,-130.2533 6293,-102.2001 6283.7484,-96.2725 6276.1836,-87.0403 6270.4185,-78.0447"/>
<polygon fill="#000000" stroke="#000000" points="6273.3405,-76.1088 6265.2575,-69.2592 6267.3049,-79.6544 6273.3405,-76.1088"/>
</g>
<!-- leaf_57 -->
<g id="node58" class="node">
<title>leaf_57</title>
<polygon fill="none" stroke="#c0c0c0" points="6850,-86.3004 6302,-86.3004 6302,-15.8997 6850,-15.8997 6850,-86.3004"/>
<text text-anchor="middle" x="6576" y="-55.0001" font-family="Inconsolata" font-size="14.00" fill="#000000"> &#160;One of the early philosophical decisions in Grimoire: it will do things to</text>
<text text-anchor="middle" x="6576" y="-39.6001" font-family="Inconsolata" font-size="14.00" fill="#000000">your source files, in&#45;place. &#160;The first example is filtering, also the first</text>
<text text-anchor="middle" x="6576" y="-24.2" font-family="Inconsolata" font-size="14.00" fill="#000000">step.</text>
</g>
<!-- block_50&#45;&gt;leaf_57 -->
<g id="edge57" class="edge">
<title>block_50&#45;&gt;leaf_57</title>
<path fill="none" stroke="#000000" stroke-dasharray="5,2" d="M7051.676,-155.7124C6983.5632,-140.7328 6852.8649,-111.9891 6745.679,-88.4164"/>
<polygon fill="#000000" stroke="#000000" points="6746.2302,-84.9541 6735.7118,-86.2244 6744.7266,-91.7907 6746.2302,-84.9541"/>
</g>
<!-- leaf_58 -->
<g id="node59" class="node">
<title>leaf_58</title>
<polygon fill="none" stroke="#c0c0c0" points="7437.5,-78.3005 6868.5,-78.3005 6868.5,-23.8996 7437.5,-23.8996 7437.5,-78.3005"/>
<text text-anchor="middle" x="7153" y="-63.0001" font-family="Inconsolata" font-size="14.00" fill="#000000">Any file that Grimoire opens will have tabs replaced with two space marks,</text>
<text text-anchor="middle" x="7153" y="-47.6001" font-family="Inconsolata" font-size="14.00" fill="#000000">all trailing whitespace pruned, &quot;\r&quot; excised where encountered, and any</text>
<text text-anchor="middle" x="7153" y="-32.2" font-family="Inconsolata" font-size="14.00" fill="#000000">line consisting only of what Unicode considers spacemarks is replaced with &quot;&quot;. </text>
</g>
<!-- block_51&#45;&gt;leaf_58 -->
<g id="edge58" class="edge">
<title>block_51&#45;&gt;leaf_58</title>
<path fill="none" stroke="#000000" stroke-dasharray="5,2" d="M7350.7234,-150.6555C7316.5703,-133.4592 7260.0736,-105.0126 7216.198,-82.9208"/>
<polygon fill="#000000" stroke="#000000" points="7217.5453,-79.6806 7207.0396,-78.3095 7214.3973,-85.9328 7217.5453,-79.6806"/>
</g>
<!-- leaf_59 -->
<g id="node60" class="node">
<title>leaf_59</title>
<polygon fill="none" stroke="#c0c0c0" points="8024.5,-93.6002 7455.5,-93.6002 7455.5,-8.5999 8024.5,-8.5999 8024.5,-93.6002"/>
<text text-anchor="middle" x="7740" y="-78.4001" font-family="Inconsolata" font-size="14.00" fill="#000000">The line between formatting and linting is blurry but in general Grimoire wants</text>
<text text-anchor="middle" x="7740" y="-63.0001" font-family="Inconsolata" font-size="14.00" fill="#000000">things to be a certain way and isn&#39;t shy about making it so. &#160;A rule like</text>
<text text-anchor="middle" x="7740" y="-47.6001" font-family="Inconsolata" font-size="14.00" fill="#000000">two spaces to begin a sentence allows for trivial sentence&#45;counting and </text>
<text text-anchor="middle" x="7740" y="-32.2" font-family="Inconsolata" font-size="14.00" fill="#000000">navigation, and the number of phrases like &quot;Dr.&quot; in the English language is </text>
<text text-anchor="middle" x="7740" y="-16.8" font-family="Inconsolata" font-size="14.00" fill="#000000">finite.</text>
</g>
<!-- block_52&#45;&gt;leaf_59 -->
<g id="edge59" class="edge">
<title>block_52&#45;&gt;leaf_59</title>
<path fill="none" stroke="#000000" stroke-dasharray="5,2" d="M7664.0625,-147.9626C7673.8343,-135.4981 7687.3785,-118.2217 7700.3262,-101.7062"/>
<polygon fill="#000000" stroke="#000000" points="7703.1999,-103.7135 7706.6152,-93.6842 7697.691,-99.3947 7703.1999,-103.7135"/>
</g>
<!-- leaf_60 -->
<g id="node61" class="node">
<title>leaf_60</title>
<polygon fill="none" stroke="#c0c0c0" points="8583.5,-78.3005 8042.5,-78.3005 8042.5,-23.8996 8583.5,-23.8996 8583.5,-78.3005"/>
<text text-anchor="middle" x="8313" y="-63.0001" font-family="Inconsolata" font-size="14.00" fill="#000000">Preceding each section with two blank lines, and starting the first </text>
<text text-anchor="middle" x="8313" y="-47.6001" font-family="Inconsolata" font-size="14.00" fill="#000000">paragraph with two spaces of indentation, gives a good flow to the document</text>
<text text-anchor="middle" x="8313" y="-32.2" font-family="Inconsolata" font-size="14.00" fill="#000000">which computers and humans can both follow.</text>
</g>
<!-- block_53&#45;&gt;leaf_60 -->
<g id="edge60" class="edge">
<title>block_53&#45;&gt;leaf_60</title>
<path fill="none" stroke="#000000" stroke-dasharray="5,2" d="M8080.4197,-151.4768C8120.4359,-134.2067 8188.5927,-104.7916 8240.8115,-82.2551"/>
<polygon fill="#000000" stroke="#000000" points="8242.2409,-85.4503 8250.0354,-78.2742 8239.4671,-79.0233 8242.2409,-85.4503"/>
</g>
<!-- leaf_61 -->
<g id="node62" class="node">
<title>leaf_61</title>
<polygon fill="none" stroke="#c0c0c0" points="9150,-85.7013 8602,-85.7013 8602,-16.4988 9150,-16.4988 9150,-85.7013"/>
<text text-anchor="middle" x="8876" y="-70.7001" font-family="Inconsolata" font-size="14.00" fill="#000000">Asking for the pure&#45;prose content of a line to stretch no more than 77 </text>
<text text-anchor="middle" x="8876" y="-55.3001" font-family="Inconsolata" font-size="14.00" fill="#000000">columns is a reasonable standard for reading monospaced text. &#160;In nearly all</text>
<text text-anchor="middle" x="8876" y="-39.9" font-family="Inconsolata" font-size="14.00" fill="#000000">languages, two characters to begin a comment and one for leading whitespace</text>
<text text-anchor="middle" x="8876" y="-24.5" font-family="Inconsolata" font-size="14.00" fill="#000000">allows this convention to fit in the 80&#45;column standard. </text>
</g>
<!-- block_54&#45;&gt;leaf_61 -->
<g id="edge61" class="edge">
<title>block_54&#45;&gt;leaf_61</title>
<path fill="none" stroke="#000000" stroke-dasharray="5,2" d="M8566.3563,-152.9542C8613.2515,-137.5285 8693.6988,-111.0662 8760.8409,-88.9805"/>
<polygon fill="#000000" stroke="#000000" points="8762.2394,-92.205 8770.645,-85.7555 8760.052,-85.5555 8762.2394,-92.205"/>
</g>
<!-- leaf_62 -->
<g id="node63" class="node">
<title>leaf_62</title>
<polygon fill="none" stroke="#c0c0c0" points="9716,-102.3003 9168,-102.3003 9168,.1002 9716,.1002 9716,-102.3003"/>
<text text-anchor="middle" x="9442" y="-87.0001" font-family="Inconsolata" font-size="14.00" fill="#000000">To support this I intend to allow links to have newlines in them which are</text>
<text text-anchor="middle" x="9442" y="-71.6001" font-family="Inconsolata" font-size="14.00" fill="#000000">filtered out during weaving. &#160;Grimoire succeeds when it&#39;s readable by anyone</text>
<text text-anchor="middle" x="9442" y="-56.2" font-family="Inconsolata" font-size="14.00" fill="#000000">who speaks the language used in the document. </text>
</g>
<!-- block_55&#45;&gt;leaf_62 -->
<g id="edge62" class="edge">
<title>block_55&#45;&gt;leaf_62</title>
<path fill="none" stroke="#000000" stroke-dasharray="5,2" d="M9253.4004,-150.4177C9274.8735,-139.1098 9305.4087,-123.0298 9335.6694,-107.0944"/>
<polygon fill="#000000" stroke="#000000" points="9337.3964,-110.1406 9344.6137,-102.3842 9334.1347,-103.9469 9337.3964,-110.1406"/>
</g>
</g>
</svg>