<?xml version="1.0" encoding="UTF-8" standalone="no"?>
<!DOCTYPE svg PUBLIC "-//W3C//DTD SVG 1.1//EN"
 "http://www.w3.org/Graphics/SVG/1.1/DTD/svg11.dtd">
<!-- Generated by graphviz version 2.40.1 (20161225.0304)
 -->
<!-- Title: hierarchy Pages: 1 -->
<svg width="4718pt" height="626pt"
 viewBox="0.00 0.00 4718.00 626.00" xmlns="http://www.w3.org/2000/svg" xmlns:xlink="http://www.w3.org/1999/xlink">
<g id="graph0" class="graph" transform="scale(1 1) rotate(0) translate(4 622.0003)">
<title>hierarchy</title>
<polygon fill="#ffffff" stroke="transparent" points="-4,4 -4,-622.0003 4714,-622.0003 4714,4 -4,4"/>
<!-- doc_0 -->
<g id="node1" class="node">
<title>doc_0</title>
<ellipse fill="none" stroke="#000000" cx="1354" cy="-600.0003" rx="42.1216" ry="18"/>
<text text-anchor="middle" x="1354" y="-595.8003" font-family="Helvetica,sans-Serif" font-size="14.00" fill="#000000">doc &#45; 59</text>
</g>
<!-- section_1 -->
<g id="node2" class="node">
<title>section_1</title>
<ellipse fill="none" stroke="#000000" cx="1354" cy="-528.0003" rx="60.9826" ry="18"/>
<text text-anchor="middle" x="1354" y="-523.8003" font-family="Helvetica,sans-Serif" font-size="14.00" fill="#000000">section: 1&#45;38</text>
</g>
<!-- doc_0&#45;&gt;section_1 -->
<g id="edge1" class="edge">
<title>doc_0&#45;&gt;section_1</title>
<path fill="none" stroke="#000000" stroke-dasharray="5,2" d="M1354,-581.8317C1354,-574.1313 1354,-564.9747 1354,-556.4169"/>
<polygon fill="#000000" stroke="#000000" points="1357.5001,-556.4135 1354,-546.4136 1350.5001,-556.4136 1357.5001,-556.4135"/>
</g>
<!-- header_2 -->
<g id="node3" class="node">
<title>header_2</title>
<ellipse fill="none" stroke="#000000" cx="1109" cy="-456.0003" rx="66.2859" ry="18"/>
<text text-anchor="middle" x="1109" y="-451.8003" font-family="Helvetica,sans-Serif" font-size="14.00" fill="#000000">1 : Node class</text>
</g>
<!-- section_1&#45;&gt;header_2 -->
<g id="edge2" class="edge">
<title>section_1&#45;&gt;header_2</title>
<path fill="none" stroke="#000000" stroke-dasharray="5,2" d="M1310.7629,-515.2939C1269.8946,-503.2836 1208.3996,-485.2116 1164.0466,-472.1773"/>
<polygon fill="#000000" stroke="#000000" points="1164.8749,-468.7727 1154.2938,-469.3111 1162.9012,-475.4887 1164.8749,-468.7727"/>
</g>
<!-- block_3 -->
<g id="node4" class="node">
<title>block_3</title>
<ellipse fill="none" stroke="#000000" cx="1239" cy="-456.0003" rx="45.9804" ry="18"/>
<text text-anchor="middle" x="1239" y="-451.8003" font-family="Helvetica,sans-Serif" font-size="14.00" fill="#000000">block 1&#45;6</text>
</g>
<!-- section_1&#45;&gt;block_3 -->
<g id="edge3" class="edge">
<title>section_1&#45;&gt;block_3</title>
<path fill="none" stroke="#000000" stroke-dasharray="5,2" d="M1327.9047,-511.6624C1311.4265,-501.3456 1289.9845,-487.921 1272.2867,-476.8407"/>
<polygon fill="#000000" stroke="#000000" points="1273.7525,-473.629 1263.4193,-471.2889 1270.0378,-479.5621 1273.7525,-473.629"/>
</g>
<!-- block_4 -->
<g id="node5" class="node">
<title>block_4</title>
<ellipse fill="none" stroke="#000000" cx="1354" cy="-456.0003" rx="50.8172" ry="18"/>
<text text-anchor="middle" x="1354" y="-451.8003" font-family="Helvetica,sans-Serif" font-size="14.00" fill="#000000">block 7&#45;38</text>
</g>
<!-- section_1&#45;&gt;block_4 -->
<g id="edge4" class="edge">
<title>section_1&#45;&gt;block_4</title>
<path fill="none" stroke="#000000" stroke-dasharray="5,2" d="M1354,-509.8317C1354,-502.1313 1354,-492.9747 1354,-484.4169"/>
<polygon fill="#000000" stroke="#000000" points="1357.5001,-484.4135 1354,-474.4136 1350.5001,-484.4136 1357.5001,-484.4135"/>
</g>
<!-- section_5 -->
<g id="node6" class="node">
<title>section_5</title>
<ellipse fill="none" stroke="#000000" cx="1684" cy="-456.0003" rx="65.0143" ry="18"/>
<text text-anchor="middle" x="1684" y="-451.8003" font-family="Helvetica,sans-Serif" font-size="14.00" fill="#000000">section: 11&#45;38</text>
</g>
<!-- section_1&#45;&gt;section_5 -->
<g id="edge5" class="edge">
<title>section_1&#45;&gt;section_5</title>
<path fill="none" stroke="#000000" stroke-dasharray="5,2" d="M1403.048,-517.2989C1461.5903,-504.5261 1559.5102,-483.1617 1622.9122,-469.3286"/>
<polygon fill="#000000" stroke="#000000" points="1623.7561,-472.7269 1632.7802,-467.1756 1622.2639,-465.8877 1623.7561,-472.7269"/>
</g>
<!-- section_6 -->
<g id="node7" class="node">
<title>section_6</title>
<ellipse fill="none" stroke="#000000" cx="3631" cy="-456.0003" rx="65.8187" ry="18"/>
<text text-anchor="middle" x="3631" y="-451.8003" font-family="Helvetica,sans-Serif" font-size="14.00" fill="#000000">section: 39&#45;54</text>
</g>
<!-- section_1&#45;&gt;section_6 -->
<g id="edge6" class="edge">
<title>section_1&#45;&gt;section_6</title>
<path fill="none" stroke="#000000" stroke-dasharray="5,2" d="M1414.6107,-526.0838C1732.2885,-516.0386 3204.0481,-469.5008 3555.4871,-458.3881"/>
<polygon fill="#000000" stroke="#000000" points="3555.6713,-461.8841 3565.5556,-458.0697 3555.45,-454.8876 3555.6713,-461.8841"/>
</g>
<!-- prose_7 -->
<g id="node8" class="node">
<title>prose_7</title>
<ellipse fill="none" stroke="#000000" cx="1108" cy="-384.0003" rx="32.4585" ry="18"/>
<text text-anchor="middle" x="1108" y="-379.8003" font-family="Helvetica,sans-Serif" font-size="14.00" fill="#000000">prose</text>
</g>
<!-- block_3&#45;&gt;prose_7 -->
<g id="edge7" class="edge">
<title>block_3&#45;&gt;prose_7</title>
<path fill="none" stroke="#000000" stroke-dasharray="5,2" d="M1212.1741,-441.2563C1191.3457,-429.8086 1162.3886,-413.8933 1140.2896,-401.7473"/>
<polygon fill="#000000" stroke="#000000" points="1141.7316,-398.546 1131.2822,-396.7966 1138.3599,-404.6805 1141.7316,-398.546"/>
</g>
<!-- prose_9 -->
<g id="node10" class="node">
<title>prose_9</title>
<ellipse fill="none" stroke="#000000" cx="1206" cy="-384.0003" rx="32.4585" ry="18"/>
<text text-anchor="middle" x="1206" y="-379.8003" font-family="Helvetica,sans-Serif" font-size="14.00" fill="#000000">prose</text>
</g>
<!-- block_4&#45;&gt;prose_9 -->
<g id="edge9" class="edge">
<title>block_4&#45;&gt;prose_9</title>
<path fill="none" stroke="#000000" stroke-dasharray="5,2" d="M1324.05,-441.43C1299.6337,-429.5518 1265.1579,-412.7798 1239.7646,-400.4263"/>
<polygon fill="#000000" stroke="#000000" points="1241.0405,-397.1549 1230.517,-395.9275 1237.9782,-403.4495 1241.0405,-397.1549"/>
</g>
<!-- header_11 -->
<g id="node12" class="node">
<title>header_11</title>
<ellipse fill="none" stroke="#000000" cx="1358" cy="-384.0003" rx="59.0032" ry="18"/>
<text text-anchor="middle" x="1358" y="-379.8003" font-family="Helvetica,sans-Serif" font-size="14.00" fill="#000000">2 : Members</text>
</g>
<!-- section_5&#45;&gt;header_11 -->
<g id="edge11" class="edge">
<title>section_5&#45;&gt;header_11</title>
<path fill="none" stroke="#000000" stroke-dasharray="5,2" d="M1630.4531,-445.6444C1578.1454,-435.3277 1496.3581,-418.6634 1426,-402.0003 1421.4137,-400.9141 1416.6648,-399.7464 1411.9065,-398.5463"/>
<polygon fill="#000000" stroke="#000000" points="1412.7312,-395.1446 1402.1754,-396.0534 1410.994,-401.9256 1412.7312,-395.1446"/>
</g>
<!-- block_12 -->
<g id="node13" class="node">
<title>block_12</title>
<ellipse fill="none" stroke="#000000" cx="1490" cy="-384.0003" rx="55.3502" ry="18"/>
<text text-anchor="middle" x="1490" y="-379.8003" font-family="Helvetica,sans-Serif" font-size="14.00" fill="#000000">block 11&#45;15</text>
</g>
<!-- section_5&#45;&gt;block_12 -->
<g id="edge12" class="edge">
<title>section_5&#45;&gt;block_12</title>
<path fill="none" stroke="#000000" stroke-dasharray="5,2" d="M1644.7412,-441.43C1613.3009,-429.7615 1569.1358,-413.3703 1536.0323,-401.0845"/>
<polygon fill="#000000" stroke="#000000" points="1537.1684,-397.7729 1526.5754,-397.5747 1534.7327,-404.3355 1537.1684,-397.7729"/>
</g>
<!-- block_13 -->
<g id="node14" class="node">
<title>block_13</title>
<ellipse fill="none" stroke="#000000" cx="1619" cy="-384.0003" rx="55.6542" ry="18"/>
<text text-anchor="middle" x="1619" y="-379.8003" font-family="Helvetica,sans-Serif" font-size="14.00" fill="#000000">block 16&#45;24</text>
</g>
<!-- section_5&#45;&gt;block_13 -->
<g id="edge13" class="edge">
<title>section_5&#45;&gt;block_13</title>
<path fill="none" stroke="#000000" stroke-dasharray="5,2" d="M1667.9326,-438.2026C1659.9232,-429.3306 1650.1069,-418.4572 1641.3742,-408.7841"/>
<polygon fill="#000000" stroke="#000000" points="1643.9573,-406.4222 1634.6583,-401.3449 1638.7614,-411.113 1643.9573,-406.4222"/>
</g>
<!-- block_14 -->
<g id="node15" class="node">
<title>block_14</title>
<ellipse fill="none" stroke="#000000" cx="1749" cy="-384.0003" rx="55.6542" ry="18"/>
<text text-anchor="middle" x="1749" y="-379.8003" font-family="Helvetica,sans-Serif" font-size="14.00" fill="#000000">block 25&#45;26</text>
</g>
<!-- section_5&#45;&gt;block_14 -->
<g id="edge14" class="edge">
<title>section_5&#45;&gt;block_14</title>
<path fill="none" stroke="#000000" stroke-dasharray="5,2" d="M1700.0674,-438.2026C1708.0768,-429.3306 1717.8931,-418.4572 1726.6258,-408.7841"/>
<polygon fill="#000000" stroke="#000000" points="1729.2386,-411.113 1733.3417,-401.3449 1724.0427,-406.4222 1729.2386,-411.113"/>
</g>
<!-- block_15 -->
<g id="node16" class="node">
<title>block_15</title>
<ellipse fill="none" stroke="#000000" cx="1879" cy="-384.0003" rx="55.6542" ry="18"/>
<text text-anchor="middle" x="1879" y="-379.8003" font-family="Helvetica,sans-Serif" font-size="14.00" fill="#000000">block 27&#45;32</text>
</g>
<!-- section_5&#45;&gt;block_15 -->
<g id="edge15" class="edge">
<title>section_5&#45;&gt;block_15</title>
<path fill="none" stroke="#000000" stroke-dasharray="5,2" d="M1723.4612,-441.43C1755.0635,-429.7615 1799.4563,-413.3703 1832.7304,-401.0845"/>
<polygon fill="#000000" stroke="#000000" points="1834.0674,-404.3218 1842.2361,-397.5747 1831.6428,-397.7551 1834.0674,-404.3218"/>
</g>
<!-- block_16 -->
<g id="node17" class="node">
<title>block_16</title>
<ellipse fill="none" stroke="#000000" cx="2111" cy="-384.0003" rx="55.6542" ry="18"/>
<text text-anchor="middle" x="2111" y="-379.8003" font-family="Helvetica,sans-Serif" font-size="14.00" fill="#000000">block 33&#45;35</text>
</g>
<!-- section_5&#45;&gt;block_16 -->
<g id="edge16" class="edge">
<title>section_5&#45;&gt;block_16</title>
<path fill="none" stroke="#000000" stroke-dasharray="5,2" d="M1739.8228,-446.5876C1820.442,-432.9937 1968.8334,-407.9722 2051.4725,-394.0377"/>
<polygon fill="#000000" stroke="#000000" points="2052.1813,-397.4677 2061.4601,-392.3536 2051.0173,-390.5652 2052.1813,-397.4677"/>
</g>
<!-- block_17 -->
<g id="node18" class="node">
<title>block_17</title>
<ellipse fill="none" stroke="#000000" cx="2435" cy="-384.0003" rx="55.6542" ry="18"/>
<text text-anchor="middle" x="2435" y="-379.8003" font-family="Helvetica,sans-Serif" font-size="14.00" fill="#000000">block 36&#45;38</text>
</g>
<!-- section_5&#45;&gt;block_17 -->
<g id="edge17" class="edge">
<title>section_5&#45;&gt;block_17</title>
<path fill="none" stroke="#000000" stroke-dasharray="5,2" d="M1745.4575,-450.1082C1885.7505,-436.658 2228.4436,-403.8033 2371.0758,-390.1289"/>
<polygon fill="#000000" stroke="#000000" points="2371.7815,-393.5773 2381.4018,-389.1389 2371.1134,-386.6093 2371.7815,-393.5773"/>
</g>
<!-- header_30 -->
<g id="node31" class="node">
<title>header_30</title>
<ellipse fill="none" stroke="#000000" cx="3407" cy="-384.0003" rx="84.6634" ry="18"/>
<text text-anchor="middle" x="3407" y="-379.8003" font-family="Helvetica,sans-Serif" font-size="14.00" fill="#000000">2 : Node metatable</text>
</g>
<!-- section_6&#45;&gt;header_30 -->
<g id="edge30" class="edge">
<title>section_6&#45;&gt;header_30</title>
<path fill="none" stroke="#000000" stroke-dasharray="5,2" d="M3588.3401,-442.2882C3552.8831,-430.8913 3502.1403,-414.5811 3463.3438,-402.1108"/>
<polygon fill="#000000" stroke="#000000" points="3464.3456,-398.7565 3453.7543,-399.0285 3462.2035,-405.4207 3464.3456,-398.7565"/>
</g>
<!-- block_31 -->
<g id="node32" class="node">
<title>block_31</title>
<ellipse fill="none" stroke="#000000" cx="3566" cy="-384.0003" rx="55.6542" ry="18"/>
<text text-anchor="middle" x="3566" y="-379.8003" font-family="Helvetica,sans-Serif" font-size="14.00" fill="#000000">block 39&#45;44</text>
</g>
<!-- section_6&#45;&gt;block_31 -->
<g id="edge31" class="edge">
<title>section_6&#45;&gt;block_31</title>
<path fill="none" stroke="#000000" stroke-dasharray="5,2" d="M3614.9326,-438.2026C3606.9232,-429.3306 3597.1069,-418.4572 3588.3742,-408.7841"/>
<polygon fill="#000000" stroke="#000000" points="3590.9573,-406.4222 3581.6583,-401.3449 3585.7614,-411.113 3590.9573,-406.4222"/>
</g>
<!-- block_32 -->
<g id="node33" class="node">
<title>block_32</title>
<ellipse fill="none" stroke="#000000" cx="3696" cy="-384.0003" rx="55.6542" ry="18"/>
<text text-anchor="middle" x="3696" y="-379.8003" font-family="Helvetica,sans-Serif" font-size="14.00" fill="#000000">block 45&#45;54</text>
</g>
<!-- section_6&#45;&gt;block_32 -->
<g id="edge32" class="edge">
<title>section_6&#45;&gt;block_32</title>
<path fill="none" stroke="#000000" stroke-dasharray="5,2" d="M3647.0674,-438.2026C3655.0768,-429.3306 3664.8931,-418.4572 3673.6258,-408.7841"/>
<polygon fill="#000000" stroke="#000000" points="3676.2386,-411.113 3680.3417,-401.3449 3671.0427,-406.4222 3676.2386,-411.113"/>
</g>
<!-- section_33 -->
<g id="node34" class="node">
<title>section_33</title>
<ellipse fill="none" stroke="#000000" cx="3863" cy="-384.0003" rx="65.8187" ry="18"/>
<text text-anchor="middle" x="3863" y="-379.8003" font-family="Helvetica,sans-Serif" font-size="14.00" fill="#000000">section: 48&#45;54</text>
</g>
<!-- section_6&#45;&gt;section_33 -->
<g id="edge33" class="edge">
<title>section_6&#45;&gt;section_33</title>
<path fill="none" stroke="#000000" stroke-dasharray="5,2" d="M3674.6374,-442.4577C3712.8346,-430.6034 3768.4611,-413.34 3809.3649,-400.6457"/>
<polygon fill="#000000" stroke="#000000" points="3810.6512,-403.9112 3819.1645,-397.6044 3808.5764,-397.2258 3810.6512,-403.9112"/>
</g>
<!-- section_34 -->
<g id="node35" class="node">
<title>section_34</title>
<ellipse fill="none" stroke="#000000" cx="4252" cy="-384.0003" rx="65.8187" ry="18"/>
<text text-anchor="middle" x="4252" y="-379.8003" font-family="Helvetica,sans-Serif" font-size="14.00" fill="#000000">section: 55&#45;59</text>
</g>
<!-- section_6&#45;&gt;section_34 -->
<g id="edge34" class="edge">
<title>section_6&#45;&gt;section_34</title>
<path fill="none" stroke="#000000" stroke-dasharray="5,2" d="M3691.6748,-448.9656C3807.1493,-435.5772 4057.9523,-406.4986 4181.0094,-392.2311"/>
<polygon fill="#000000" stroke="#000000" points="4181.5486,-395.6921 4191.0789,-391.0636 4180.7424,-388.7387 4181.5486,-395.6921"/>
</g>
<!-- leaf_8 -->
<g id="node9" class="node">
<title>leaf_8</title>
<polygon fill="none" stroke="#c0c0c0" points="888,-329.9006 326,-329.9006 326,-259.2999 888,-259.2999 888,-329.9006"/>
<text text-anchor="middle" x="607" y="-282.8003" font-family="Inconsolata" font-size="14.00" fill="#000000"> &#160;The behavior of abstract syntax trees in `pegylator` is provided by the Node</text>
<text text-anchor="middle" x="607" y="-267.4003" font-family="Inconsolata" font-size="14.00" fill="#000000">class.</text>
</g>
<!-- prose_7&#45;&gt;leaf_8 -->
<g id="edge8" class="edge">
<title>prose_7&#45;&gt;leaf_8</title>
<path fill="none" stroke="#000000" stroke-dasharray="5,2" d="M1077.0383,-378.4754C1024.8547,-369.1636 915.2508,-349.6055 815.0013,-331.7167"/>
<polygon fill="#000000" stroke="#000000" points="815.4794,-328.2468 805.0201,-329.9356 814.2497,-335.1379 815.4794,-328.2468"/>
</g>
<!-- leaf_10 -->
<g id="node11" class="node">
<title>leaf_10</title>
<polygon fill="none" stroke="#c0c0c0" points="1461.5,-321.9007 906.5,-321.9007 906.5,-267.2999 1461.5,-267.2999 1461.5,-321.9007"/>
<text text-anchor="middle" x="1184" y="-306.8003" font-family="Inconsolata" font-size="14.00" fill="#000000">This is in turn poorly specified and full of exploratory code that is in need</text>
<text text-anchor="middle" x="1184" y="-291.4003" font-family="Inconsolata" font-size="14.00" fill="#000000">of a few once&#45;overs.</text>
</g>
<!-- prose_9&#45;&gt;leaf_10 -->
<g id="edge10" class="edge">
<title>prose_9&#45;&gt;leaf_10</title>
<path fill="none" stroke="#000000" stroke-dasharray="5,2" d="M1201.548,-365.9089C1199.1591,-356.2013 1196.1224,-343.8612 1193.2492,-332.1857"/>
<polygon fill="#000000" stroke="#000000" points="1196.575,-331.0533 1190.7868,-322.1794 1189.7778,-332.7261 1196.575,-331.0533"/>
</g>
<!-- prose_18 -->
<g id="node19" class="node">
<title>prose_18</title>
<ellipse fill="none" stroke="#000000" cx="1512" cy="-294.6003" rx="32.4585" ry="18"/>
<text text-anchor="middle" x="1512" y="-290.4003" font-family="Helvetica,sans-Serif" font-size="14.00" fill="#000000">prose</text>
</g>
<!-- block_12&#45;&gt;prose_18 -->
<g id="edge18" class="edge">
<title>block_12&#45;&gt;prose_18</title>
<path fill="none" stroke="#000000" stroke-dasharray="5,2" d="M1494.452,-365.9089C1497.5234,-353.4278 1501.6657,-336.5951 1505.1544,-322.4182"/>
<polygon fill="#000000" stroke="#000000" points="1508.5636,-323.2115 1507.5546,-312.6648 1501.7664,-321.5387 1508.5636,-323.2115"/>
</g>
<!-- prose_20 -->
<g id="node21" class="node">
<title>prose_20</title>
<ellipse fill="none" stroke="#000000" cx="1606" cy="-294.6003" rx="32.4585" ry="18"/>
<text text-anchor="middle" x="1606" y="-290.4003" font-family="Helvetica,sans-Serif" font-size="14.00" fill="#000000">prose</text>
</g>
<!-- block_13&#45;&gt;prose_20 -->
<g id="edge20" class="edge">
<title>block_13&#45;&gt;prose_20</title>
<path fill="none" stroke="#000000" stroke-dasharray="5,2" d="M1616.3693,-365.9089C1614.572,-353.5489 1612.1541,-336.9215 1610.1053,-322.8319"/>
<polygon fill="#000000" stroke="#000000" points="1613.5295,-322.057 1608.6268,-312.6648 1606.6023,-323.0644 1613.5295,-322.057"/>
</g>
<!-- prose_22 -->
<g id="node23" class="node">
<title>prose_22</title>
<ellipse fill="none" stroke="#000000" cx="1718" cy="-294.6003" rx="32.4585" ry="18"/>
<text text-anchor="middle" x="1718" y="-290.4003" font-family="Helvetica,sans-Serif" font-size="14.00" fill="#000000">prose</text>
</g>
<!-- block_14&#45;&gt;prose_22 -->
<g id="edge22" class="edge">
<title>block_14&#45;&gt;prose_22</title>
<path fill="none" stroke="#000000" stroke-dasharray="5,2" d="M1742.7267,-365.9089C1738.3703,-353.3457 1732.4851,-336.3734 1727.5491,-322.1387"/>
<polygon fill="#000000" stroke="#000000" points="1730.7413,-320.6611 1724.1582,-312.3597 1724.1276,-322.9545 1730.7413,-320.6611"/>
</g>
<!-- prose_24 -->
<g id="node25" class="node">
<title>prose_24</title>
<ellipse fill="none" stroke="#000000" cx="1879" cy="-294.6003" rx="32.4585" ry="18"/>
<text text-anchor="middle" x="1879" y="-290.4003" font-family="Helvetica,sans-Serif" font-size="14.00" fill="#000000">prose</text>
</g>
<!-- block_15&#45;&gt;prose_24 -->
<g id="edge24" class="edge">
<title>block_15&#45;&gt;prose_24</title>
<path fill="none" stroke="#000000" stroke-dasharray="5,2" d="M1879,-365.9089C1879,-353.5489 1879,-336.9215 1879,-322.8319"/>
<polygon fill="#000000" stroke="#000000" points="1882.5001,-322.6648 1879,-312.6648 1875.5001,-322.6648 1882.5001,-322.6648"/>
</g>
<!-- prose_26 -->
<g id="node27" class="node">
<title>prose_26</title>
<ellipse fill="none" stroke="#000000" cx="2213" cy="-294.6003" rx="32.4585" ry="18"/>
<text text-anchor="middle" x="2213" y="-290.4003" font-family="Helvetica,sans-Serif" font-size="14.00" fill="#000000">prose</text>
</g>
<!-- block_16&#45;&gt;prose_26 -->
<g id="edge26" class="edge">
<title>block_16&#45;&gt;prose_26</title>
<path fill="none" stroke="#000000" stroke-dasharray="5,2" d="M2130.6666,-366.7631C2146.9321,-352.5069 2170.14,-332.1659 2187.7724,-316.7115"/>
<polygon fill="#000000" stroke="#000000" points="2190.2232,-319.2176 2195.4366,-309.9941 2185.6093,-313.9534 2190.2232,-319.2176"/>
</g>
<!-- prose_28 -->
<g id="node29" class="node">
<title>prose_28</title>
<ellipse fill="none" stroke="#000000" cx="2628" cy="-294.6003" rx="32.4585" ry="18"/>
<text text-anchor="middle" x="2628" y="-290.4003" font-family="Helvetica,sans-Serif" font-size="14.00" fill="#000000">prose</text>
</g>
<!-- block_17&#45;&gt;prose_28 -->
<g id="edge28" class="edge">
<title>block_17&#45;&gt;prose_28</title>
<path fill="none" stroke="#000000" stroke-dasharray="5,2" d="M2467.3039,-369.0368C2502.3722,-352.7927 2558.1409,-326.9599 2593.8982,-310.3967"/>
<polygon fill="#000000" stroke="#000000" points="2595.373,-313.5708 2602.9757,-306.1918 2592.4308,-307.2192 2595.373,-313.5708"/>
</g>
<!-- leaf_19 -->
<g id="node20" class="node">
<title>leaf_19</title>
<polygon fill="none" stroke="#c0c0c0" points="506,-185.2016 0,-185.2016 0,-129.3987 506,-129.3987 506,-185.2016"/>
<text text-anchor="middle" x="253" y="-137.8002" font-family="Inconsolata" font-size="14.00" fill="#000000"> &#160;To be a Node, all indexed elements of the Array must also be Nodes. </text>
</g>
<!-- prose_18&#45;&gt;leaf_19 -->
<g id="edge19" class="edge">
<title>prose_18&#45;&gt;leaf_19</title>
<path fill="none" stroke="#000000" stroke-dasharray="5,2" d="M1497.6935,-278.3685C1490.2387,-271.0973 1480.4953,-263.259 1470,-259.2002 1370.9613,-220.9 620.117,-238.233 515,-223.2002 460.9198,-215.4662 401.8143,-201.128 353.4514,-187.7961"/>
<polygon fill="#000000" stroke="#000000" points="354.1862,-184.3676 343.6139,-185.0575 352.3088,-191.1112 354.1862,-184.3676"/>
</g>
<!-- leaf_21 -->
<g id="node22" class="node">
<title>leaf_21</title>
<polygon fill="none" stroke="#c0c0c0" points="1065.5,-223.1005 524.5,-223.1005 524.5,-91.4998 1065.5,-91.4998 1065.5,-223.1005"/>
<text text-anchor="middle" x="795" y="-208.0002" font-family="Inconsolata" font-size="14.00" fill="#000000">There are invariant fields a Node is also expected to have, they are:</text>
<text text-anchor="middle" x="795" y="-192.6002" font-family="Inconsolata" font-size="14.00" fill="#000000"> </text>
<text text-anchor="middle" x="795" y="-177.2002" font-family="Inconsolata" font-size="14.00" fill="#000000"> &#160;&#45; `first` : &#160;Index into `str` which begins the span.</text>
<text text-anchor="middle" x="795" y="-161.8002" font-family="Inconsolata" font-size="14.00" fill="#000000"> &#160;&#45; `last` &#160;: &#160;Index into `str` which ends the span.</text>
<text text-anchor="middle" x="795" y="-146.4001" font-family="Inconsolata" font-size="14.00" fill="#000000"> &#160;&#45; `id` &#160;&#160;&#160;: &#160;A string naming the Node. </text>
<text text-anchor="middle" x="795" y="-131.0001" font-family="Inconsolata" font-size="14.00" fill="#000000"> &#160;&#160;&#160;&#160;&#160;&#160;&#160;&#160;&#160;&#160;&#160;&#160;&#160;&#160;This is identical to the name of the pattern that recognizes</text>
<text text-anchor="middle" x="795" y="-115.6001" font-family="Inconsolata" font-size="14.00" fill="#000000"> &#160;&#160;&#160;&#160;&#160;&#160;&#160;&#160;&#160;&#160;&#160;&#160;&#160;&#160;or captures it.</text>
</g>
<!-- prose_20&#45;&gt;leaf_21 -->
<g id="edge21" class="edge">
<title>prose_20&#45;&gt;leaf_21</title>
<path fill="none" stroke="#000000" stroke-dasharray="5,2" d="M1588.1281,-279.2735C1578.3973,-271.8465 1565.7622,-263.6005 1553,-259.2002 1354.7365,-190.8417 1287.6488,-253.6755 1075.8938,-223.2451"/>
<polygon fill="#000000" stroke="#000000" points="1076.1067,-219.7383 1065.6998,-221.7247 1075.074,-226.6617 1076.1067,-219.7383"/>
</g>
<!-- leaf_23 -->
<g id="node24" class="node">
<title>leaf_23</title>
<polygon fill="none" stroke="#c0c0c0" points="1618,-175.3001 1084,-175.3001 1084,-139.3001 1618,-139.3001 1618,-175.3001"/>
<text text-anchor="middle" x="1351" y="-153.8002" font-family="Inconsolata" font-size="14.00" fill="#000000">There are other fields which are of less obvious value, which still exist:</text>
</g>
<!-- prose_22&#45;&gt;leaf_23 -->
<g id="edge23" class="edge">
<title>prose_22&#45;&gt;leaf_23</title>
<path fill="none" stroke="#000000" stroke-dasharray="5,2" d="M1694.6941,-282.0133C1681.0087,-274.8676 1663.2587,-266.0176 1647,-259.2002 1571.0353,-227.348 1481.2673,-197.4942 1420.6668,-178.4371"/>
<polygon fill="#000000" stroke="#000000" points="1421.4135,-175.0034 1410.8245,-175.3562 1419.3224,-181.6838 1421.4135,-175.0034"/>
</g>
<!-- leaf_25 -->
<g id="node26" class="node">
<title>leaf_25</title>
<polygon fill="none" stroke="#c0c0c0" points="2121.5,-199.8003 1636.5,-199.8003 1636.5,-114.8 2121.5,-114.8 2121.5,-199.8003"/>
<text text-anchor="middle" x="1879" y="-184.6002" font-family="Inconsolata" font-size="14.00" fill="#000000"> &#160;&#45; `str` &#160;: a &quot;string&quot; covering the whole abstract syntax tree.</text>
<text text-anchor="middle" x="1879" y="-169.2002" font-family="Inconsolata" font-size="14.00" fill="#000000"> &#160;&#160;&#160;&#160;&#160;&#160;&#160;&#160;&#160;&#160;&#160;&#160;This is normally found on root for which see:</text>
<text text-anchor="middle" x="1879" y="-153.8002" font-family="Inconsolata" font-size="14.00" fill="#000000"> &#160;&#45; `root` : a function which, called, returns the root node.</text>
<text text-anchor="middle" x="1879" y="-138.4001" font-family="Inconsolata" font-size="14.00" fill="#000000"> &#160;&#160;&#160;&#160;&#160;&#160;&#160;&#160;&#160;&#160;&#160;&#160;I was impressed with this idea when I came up with it.</text>
<text text-anchor="middle" x="1879" y="-123.0001" font-family="Inconsolata" font-size="14.00" fill="#000000"> &#160;&#160;&#160;&#160;&#160;&#160;&#160;&#160;&#160;&#160;&#160;&#160;Haven&#39;t been getting much use out of it.</text>
</g>
<!-- prose_24&#45;&gt;leaf_25 -->
<g id="edge25" class="edge">
<title>prose_24&#45;&gt;leaf_25</title>
<path fill="none" stroke="#000000" stroke-dasharray="5,2" d="M1879,-276.3679C1879,-259.4655 1879,-233.4754 1879,-210.0849"/>
<polygon fill="#000000" stroke="#000000" points="1882.5001,-209.9094 1879,-199.9095 1875.5001,-209.9095 1882.5001,-209.9094"/>
</g>
<!-- leaf_27 -->
<g id="node28" class="node">
<title>leaf_27</title>
<polygon fill="none" stroke="#c0c0c0" points="2694.5,-176.6007 2139.5,-176.6007 2139.5,-137.9996 2694.5,-137.9996 2694.5,-176.6007"/>
<text text-anchor="middle" x="2417" y="-161.5002" font-family="Inconsolata" font-size="14.00" fill="#000000">An important optional field, if a Node has a semantic span (such as a symbol)</text>
<text text-anchor="middle" x="2417" y="-146.1001" font-family="Inconsolata" font-size="14.00" fill="#000000">then it will have:</text>
</g>
<!-- prose_26&#45;&gt;leaf_27 -->
<g id="edge27" class="edge">
<title>prose_26&#45;&gt;leaf_27</title>
<path fill="none" stroke="#000000" stroke-dasharray="5,2" d="M2233.6833,-280.6796C2267.8936,-257.6547 2336.7355,-211.3213 2379.6352,-182.4481"/>
<polygon fill="#000000" stroke="#000000" points="2381.7708,-185.2298 2388.1125,-176.7425 2377.8623,-179.4225 2381.7708,-185.2298"/>
</g>
<!-- leaf_29 -->
<g id="node30" class="node">
<title>leaf_29</title>
<polygon fill="none" stroke="#c0c0c0" points="3113.5,-177.2022 2712.5,-177.2022 2712.5,-137.3981 3113.5,-137.3981 3113.5,-177.2022"/>
<text text-anchor="middle" x="2913" y="-161.8002" font-family="Inconsolata" font-size="14.00" fill="#000000"> &#160;&#45; `val` : &#160;The substring of value to the syntax tree.</text>
</g>
<!-- prose_28&#45;&gt;leaf_29 -->
<g id="edge29" class="edge">
<title>prose_28&#45;&gt;leaf_29</title>
<path fill="none" stroke="#000000" stroke-dasharray="5,2" d="M2652.7933,-282.656C2699.4242,-260.1913 2801.0188,-211.2477 2862.5603,-181.5997"/>
<polygon fill="#000000" stroke="#000000" points="2864.2185,-184.6859 2871.7085,-177.1925 2861.1803,-178.3796 2864.2185,-184.6859"/>
</g>
<!-- prose_35 -->
<g id="node36" class="node">
<title>prose_35</title>
<ellipse fill="none" stroke="#000000" cx="3487" cy="-294.6003" rx="32.4585" ry="18"/>
<text text-anchor="middle" x="3487" y="-290.4003" font-family="Helvetica,sans-Serif" font-size="14.00" fill="#000000">prose</text>
</g>
<!-- block_31&#45;&gt;prose_35 -->
<g id="edge35" class="edge">
<title>block_31&#45;&gt;prose_35</title>
<path fill="none" stroke="#000000" stroke-dasharray="5,2" d="M3550.3921,-366.3377C3538.4029,-352.7701 3521.7096,-333.8793 3508.4629,-318.8887"/>
<polygon fill="#000000" stroke="#000000" points="3510.7545,-316.1963 3501.5099,-311.0204 3505.509,-320.8315 3510.7545,-316.1963"/>
</g>
<!-- prose_37 -->
<g id="node38" class="node">
<title>prose_37</title>
<ellipse fill="none" stroke="#000000" cx="3696" cy="-294.6003" rx="32.4585" ry="18"/>
<text text-anchor="middle" x="3696" y="-290.4003" font-family="Helvetica,sans-Serif" font-size="14.00" fill="#000000">prose</text>
</g>
<!-- block_32&#45;&gt;prose_37 -->
<g id="edge37" class="edge">
<title>block_32&#45;&gt;prose_37</title>
<path fill="none" stroke="#000000" stroke-dasharray="5,2" d="M3696,-365.9089C3696,-353.5489 3696,-336.9215 3696,-322.8319"/>
<polygon fill="#000000" stroke="#000000" points="3699.5001,-322.6648 3696,-312.6648 3692.5001,-322.6648 3699.5001,-322.6648"/>
</g>
<!-- header_39 -->
<g id="node40" class="node">
<title>header_39</title>
<ellipse fill="none" stroke="#000000" cx="3781" cy="-294.6003" rx="34.8806" ry="18"/>
<text text-anchor="middle" x="3781" y="-290.4003" font-family="Helvetica,sans-Serif" font-size="14.00" fill="#000000">3 : dot</text>
</g>
<!-- section_33&#45;&gt;header_39 -->
<g id="edge39" class="edge">
<title>section_33&#45;&gt;header_39</title>
<path fill="none" stroke="#000000" stroke-dasharray="5,2" d="M3846.7994,-366.3377C3834.2396,-352.6445 3816.7064,-333.529 3802.8969,-318.4733"/>
<polygon fill="#000000" stroke="#000000" points="3805.3998,-316.0241 3796.0609,-311.0204 3800.2411,-320.7557 3805.3998,-316.0241"/>
</g>
<!-- block_40 -->
<g id="node41" class="node">
<title>block_40</title>
<ellipse fill="none" stroke="#000000" cx="3890" cy="-294.6003" rx="55.6542" ry="18"/>
<text text-anchor="middle" x="3890" y="-290.4003" font-family="Helvetica,sans-Serif" font-size="14.00" fill="#000000">block 48&#45;51</text>
</g>
<!-- section_33&#45;&gt;block_40 -->
<g id="edge40" class="edge">
<title>section_33&#45;&gt;block_40</title>
<path fill="none" stroke="#000000" stroke-dasharray="5,2" d="M3868.4639,-365.9089C3872.2333,-353.4278 3877.317,-336.5951 3881.5986,-322.4182"/>
<polygon fill="#000000" stroke="#000000" points="3885.0036,-323.2497 3884.5443,-312.6648 3878.3025,-321.2258 3885.0036,-323.2497"/>
</g>
<!-- block_41 -->
<g id="node42" class="node">
<title>block_41</title>
<ellipse fill="none" stroke="#000000" cx="4020" cy="-294.6003" rx="55.6542" ry="18"/>
<text text-anchor="middle" x="4020" y="-290.4003" font-family="Helvetica,sans-Serif" font-size="14.00" fill="#000000">block 52&#45;54</text>
</g>
<!-- section_33&#45;&gt;block_41 -->
<g id="edge41" class="edge">
<title>section_33&#45;&gt;block_41</title>
<path fill="none" stroke="#000000" stroke-dasharray="5,2" d="M3891.7962,-367.603C3917.5652,-352.9294 3955.4733,-331.3435 3983.3877,-315.4483"/>
<polygon fill="#000000" stroke="#000000" points="3985.4813,-318.2839 3992.4393,-310.2941 3982.0175,-312.2009 3985.4813,-318.2839"/>
</g>
<!-- header_46 -->
<g id="node47" class="node">
<title>header_46</title>
<ellipse fill="none" stroke="#000000" cx="4252" cy="-294.6003" rx="45.4959" ry="18"/>
<text text-anchor="middle" x="4252" y="-290.4003" font-family="Helvetica,sans-Serif" font-size="14.00" fill="#000000">3 : select</text>
</g>
<!-- section_34&#45;&gt;header_46 -->
<g id="edge46" class="edge">
<title>section_34&#45;&gt;header_46</title>
<path fill="none" stroke="#000000" stroke-dasharray="5,2" d="M4252,-365.9089C4252,-353.5489 4252,-336.9215 4252,-322.8319"/>
<polygon fill="#000000" stroke="#000000" points="4255.5001,-322.6648 4252,-312.6648 4248.5001,-322.6648 4255.5001,-322.6648"/>
</g>
<!-- block_47 -->
<g id="node48" class="node">
<title>block_47</title>
<ellipse fill="none" stroke="#000000" cx="4428" cy="-294.6003" rx="55.6542" ry="18"/>
<text text-anchor="middle" x="4428" y="-290.4003" font-family="Helvetica,sans-Serif" font-size="14.00" fill="#000000">block 55&#45;59</text>
</g>
<!-- section_34&#45;&gt;block_47 -->
<g id="edge47" class="edge">
<title>section_34&#45;&gt;block_47</title>
<path fill="none" stroke="#000000" stroke-dasharray="5,2" d="M4283.4653,-368.0174C4312.9825,-353.024 4357.2159,-330.5554 4388.9695,-314.426"/>
<polygon fill="#000000" stroke="#000000" points="4390.6513,-317.4974 4397.9819,-309.8481 4387.4811,-311.2564 4390.6513,-317.4974"/>
</g>
<!-- leaf_36 -->
<g id="node37" class="node">
<title>leaf_36</title>
<polygon fill="none" stroke="#c0c0c0" points="3686.5,-192.6005 3131.5,-192.6005 3131.5,-121.9998 3686.5,-121.9998 3686.5,-192.6005"/>
<text text-anchor="middle" x="3409" y="-145.5002" font-family="Inconsolata" font-size="14.00" fill="#000000"> &#160;This is currently constructed wildly and piecemeal. &#160;It also does important</text>
<text text-anchor="middle" x="3409" y="-130.1001" font-family="Inconsolata" font-size="14.00" fill="#000000">work. </text>
</g>
<!-- prose_35&#45;&gt;leaf_36 -->
<g id="edge36" class="edge">
<title>prose_35&#45;&gt;leaf_36</title>
<path fill="none" stroke="#000000" stroke-dasharray="5,2" d="M3477.1212,-277.2111C3466.3769,-258.2983 3448.7816,-227.326 3434.165,-201.597"/>
<polygon fill="#000000" stroke="#000000" points="3437.1181,-199.7094 3429.1353,-192.7434 3431.0316,-203.1671 3437.1181,-199.7094"/>
</g>
<!-- leaf_38 -->
<g id="node39" class="node">
<title>leaf_38</title>
<polygon fill="none" stroke="#c0c0c0" points="3839.5,-177.2022 3704.5,-177.2022 3704.5,-137.3981 3839.5,-137.3981 3839.5,-177.2022"/>
<text text-anchor="middle" x="3772" y="-161.8002" font-family="Inconsolata" font-size="14.00" fill="#000000">Best methods are:</text>
</g>
<!-- prose_37&#45;&gt;leaf_38 -->
<g id="edge38" class="edge">
<title>prose_37&#45;&gt;leaf_38</title>
<path fill="none" stroke="#000000" stroke-dasharray="5,2" d="M3705.6255,-277.2111C3718.329,-254.2611 3740.8621,-213.5533 3756.1108,-186.0052"/>
<polygon fill="#000000" stroke="#000000" points="3759.1974,-187.6561 3760.9781,-177.212 3753.073,-184.2661 3759.1974,-187.6561"/>
</g>
<!-- prose_42 -->
<g id="node43" class="node">
<title>prose_42</title>
<ellipse fill="none" stroke="#000000" cx="3890" cy="-157.3001" rx="32.4585" ry="18"/>
<text text-anchor="middle" x="3890" y="-153.1001" font-family="Helvetica,sans-Serif" font-size="14.00" fill="#000000">prose</text>
</g>
<!-- block_40&#45;&gt;prose_42 -->
<g id="edge42" class="edge">
<title>block_40&#45;&gt;prose_42</title>
<path fill="none" stroke="#000000" stroke-dasharray="5,2" d="M3890,-276.3679C3890,-253.1847 3890,-212.9053 3890,-185.6864"/>
<polygon fill="#000000" stroke="#000000" points="3893.5001,-185.6079 3890,-175.6079 3886.5001,-185.608 3893.5001,-185.6079"/>
</g>
<!-- prose_44 -->
<g id="node45" class="node">
<title>prose_44</title>
<ellipse fill="none" stroke="#000000" cx="4020" cy="-157.3001" rx="32.4585" ry="18"/>
<text text-anchor="middle" x="4020" y="-153.1001" font-family="Helvetica,sans-Serif" font-size="14.00" fill="#000000">prose</text>
</g>
<!-- block_41&#45;&gt;prose_44 -->
<g id="edge44" class="edge">
<title>block_41&#45;&gt;prose_44</title>
<path fill="none" stroke="#000000" stroke-dasharray="5,2" d="M4020,-276.3679C4020,-253.1847 4020,-212.9053 4020,-185.6864"/>
<polygon fill="#000000" stroke="#000000" points="4023.5001,-185.6079 4020,-175.6079 4016.5001,-185.608 4023.5001,-185.6079"/>
</g>
<!-- leaf_43 -->
<g id="node44" class="node">
<title>leaf_43</title>
<polygon fill="none" stroke="#c0c0c0" points="3780,-47.6021 3302,-47.6021 3302,-7.7979 3780,-7.7979 3780,-47.6021"/>
<text text-anchor="middle" x="3541" y="-16.2" font-family="Inconsolata" font-size="14.00" fill="#000000"> &#160;Some of my most recent code, this prints the AST as a dot file. </text>
</g>
<!-- prose_42&#45;&gt;leaf_43 -->
<g id="edge43" class="edge">
<title>prose_42&#45;&gt;leaf_43</title>
<path fill="none" stroke="#000000" stroke-dasharray="5,2" d="M3883.641,-139.6088C3877.251,-124.4303 3865.9086,-103.195 3849,-91.4 3824.0785,-74.0155 3762.612,-59.707 3701.0867,-49.0858"/>
<polygon fill="#000000" stroke="#000000" points="3701.6616,-45.6334 3691.2173,-47.4129 3700.4918,-52.535 3701.6616,-45.6334"/>
</g>
<!-- leaf_45 -->
<g id="node46" class="node">
<title>leaf_45</title>
<polygon fill="none" stroke="#c0c0c0" points="4241.5,-47.6021 3798.5,-47.6021 3798.5,-7.7979 4241.5,-7.7979 4241.5,-47.6021"/>
<text text-anchor="middle" x="4020" y="-32.2" font-family="Inconsolata" font-size="14.00" fill="#000000">It is now reasonably documented in [[src/peg/transform.lua]].</text>
</g>
<!-- prose_44&#45;&gt;leaf_45 -->
<g id="edge45" class="edge">
<title>prose_44&#45;&gt;leaf_45</title>
<path fill="none" stroke="#000000" stroke-dasharray="5,2" d="M4020,-139.2798C4020,-118.223 4020,-83.0549 4020,-57.8262"/>
<polygon fill="#000000" stroke="#000000" points="4023.5001,-57.6925 4020,-47.6926 4016.5001,-57.6926 4023.5001,-57.6925"/>
</g>
<!-- prose_48 -->
<g id="node49" class="node">
<title>prose_48</title>
<ellipse fill="none" stroke="#000000" cx="4457" cy="-157.3001" rx="32.4585" ry="18"/>
<text text-anchor="middle" x="4457" y="-153.1001" font-family="Helvetica,sans-Serif" font-size="14.00" fill="#000000">prose</text>
</g>
<!-- block_47&#45;&gt;prose_48 -->
<g id="edge48" class="edge">
<title>block_47&#45;&gt;prose_48</title>
<path fill="none" stroke="#000000" stroke-dasharray="5,2" d="M4431.851,-276.3679C4436.7476,-253.1847 4445.2553,-212.9053 4451.0044,-185.6864"/>
<polygon fill="#000000" stroke="#000000" points="4454.4909,-186.1154 4453.1331,-175.6079 4447.642,-184.6688 4454.4909,-186.1154"/>
</g>
<!-- leaf_49 -->
<g id="node50" class="node">
<title>leaf_49</title>
<polygon fill="none" stroke="#c0c0c0" points="4710,-55.6015 4260,-55.6015 4260,.2015 4710,.2015 4710,-55.6015"/>
<text text-anchor="middle" x="4485" y="-24.2" font-family="Inconsolata" font-size="14.00" fill="#000000"> &#160;Select pulls out sub Nodes which fulfill certain predicates.</text>
</g>
<!-- prose_48&#45;&gt;leaf_49 -->
<g id="edge49" class="edge">
<title>prose_48&#45;&gt;leaf_49</title>
<path fill="none" stroke="#000000" stroke-dasharray="5,2" d="M4460.8933,-139.2798C4464.9955,-120.2921 4471.5768,-89.8303 4476.8271,-65.5287"/>
<polygon fill="#000000" stroke="#000000" points="4480.2939,-66.0559 4478.9847,-55.5423 4473.4518,-64.5776 4480.2939,-66.0559"/>
</g>
</g>
</svg>