<?xml version="1.0" encoding="UTF-8" standalone="no"?>
<!DOCTYPE svg PUBLIC "-//W3C//DTD SVG 1.1//EN"
 "http://www.w3.org/Graphics/SVG/1.1/DTD/svg11.dtd">
<!-- Generated by graphviz version 2.40.1 (20161225.0304)
 -->
<!-- Title: hierarchy Pages: 1 -->
<svg width="4757pt" height="602pt"
 viewBox="0.00 0.00 4757.00 602.00" xmlns="http://www.w3.org/2000/svg" xmlns:xlink="http://www.w3.org/1999/xlink">
<g id="graph0" class="graph" transform="scale(1 1) rotate(0) translate(4 598.0003)">
<title>hierarchy</title>
<polygon fill="#ffffff" stroke="transparent" points="-4,4 -4,-598.0003 4753,-598.0003 4753,4 -4,4"/>
<!-- doc_0 -->
<g id="node1" class="node">
<title>doc_0</title>
<ellipse fill="none" stroke="#000000" cx="1384" cy="-576.0003" rx="42.1216" ry="18"/>
<text text-anchor="middle" x="1384" y="-571.8003" font-family="Helvetica,sans-Serif" font-size="14.00" fill="#000000">doc &#45; 59</text>
</g>
<!-- section_1 -->
<g id="node2" class="node">
<title>section_1</title>
<ellipse fill="none" stroke="#000000" cx="1384" cy="-504.0003" rx="60.9826" ry="18"/>
<text text-anchor="middle" x="1384" y="-499.8003" font-family="Helvetica,sans-Serif" font-size="14.00" fill="#000000">section: 1&#45;38</text>
</g>
<!-- doc_0&#45;&gt;section_1 -->
<g id="edge1" class="edge">
<title>doc_0&#45;&gt;section_1</title>
<path fill="none" stroke="#000000" stroke-dasharray="5,2" d="M1384,-557.8317C1384,-550.1313 1384,-540.9747 1384,-532.4169"/>
<polygon fill="#000000" stroke="#000000" points="1387.5001,-532.4135 1384,-522.4136 1380.5001,-532.4136 1387.5001,-532.4135"/>
</g>
<!-- header_2 -->
<g id="node3" class="node">
<title>header_2</title>
<ellipse fill="none" stroke="#000000" cx="1186" cy="-432.0003" rx="66.2859" ry="18"/>
<text text-anchor="middle" x="1186" y="-427.8003" font-family="Helvetica,sans-Serif" font-size="14.00" fill="#000000">1 : Node class</text>
</g>
<!-- section_1&#45;&gt;header_2 -->
<g id="edge2" class="edge">
<title>section_1&#45;&gt;header_2</title>
<path fill="none" stroke="#000000" stroke-dasharray="5,2" d="M1345.3536,-489.9471C1314.0097,-478.5493 1269.6139,-462.4053 1235.64,-450.0512"/>
<polygon fill="#000000" stroke="#000000" points="1236.5004,-446.6399 1225.9063,-446.5117 1234.1081,-453.2185 1236.5004,-446.6399"/>
</g>
<!-- prose_3 -->
<g id="node4" class="node">
<title>prose_3</title>
<ellipse fill="none" stroke="#000000" cx="1302" cy="-432.0003" rx="32.4585" ry="18"/>
<text text-anchor="middle" x="1302" y="-427.8003" font-family="Helvetica,sans-Serif" font-size="14.00" fill="#000000">prose</text>
</g>
<!-- section_1&#45;&gt;prose_3 -->
<g id="edge3" class="edge">
<title>section_1&#45;&gt;prose_3</title>
<path fill="none" stroke="#000000" stroke-dasharray="5,2" d="M1364.5671,-486.9373C1353.3006,-477.0447 1338.9965,-464.485 1326.9098,-453.8723"/>
<polygon fill="#000000" stroke="#000000" points="1329.1653,-451.195 1319.3415,-447.227 1324.5466,-456.4551 1329.1653,-451.195"/>
</g>
<!-- prose_4 -->
<g id="node5" class="node">
<title>prose_4</title>
<ellipse fill="none" stroke="#000000" cx="1384" cy="-432.0003" rx="32.4585" ry="18"/>
<text text-anchor="middle" x="1384" y="-427.8003" font-family="Helvetica,sans-Serif" font-size="14.00" fill="#000000">prose</text>
</g>
<!-- section_1&#45;&gt;prose_4 -->
<g id="edge4" class="edge">
<title>section_1&#45;&gt;prose_4</title>
<path fill="none" stroke="#000000" stroke-dasharray="5,2" d="M1384,-485.8317C1384,-478.1313 1384,-468.9747 1384,-460.4169"/>
<polygon fill="#000000" stroke="#000000" points="1387.5001,-460.4135 1384,-450.4136 1380.5001,-460.4136 1387.5001,-460.4135"/>
</g>
<!-- section_5 -->
<g id="node6" class="node">
<title>section_5</title>
<ellipse fill="none" stroke="#000000" cx="1756" cy="-432.0003" rx="65.0143" ry="18"/>
<text text-anchor="middle" x="1756" y="-427.8003" font-family="Helvetica,sans-Serif" font-size="14.00" fill="#000000">section: 11&#45;38</text>
</g>
<!-- section_1&#45;&gt;section_5 -->
<g id="edge5" class="edge">
<title>section_1&#45;&gt;section_5</title>
<path fill="none" stroke="#000000" stroke-dasharray="5,2" d="M1434.945,-494.14C1502.0321,-481.1554 1619.9767,-458.3274 1692.7126,-444.2495"/>
<polygon fill="#000000" stroke="#000000" points="1693.5132,-447.6596 1702.6659,-442.323 1692.183,-440.7871 1693.5132,-447.6596"/>
</g>
<!-- section_6 -->
<g id="node7" class="node">
<title>section_6</title>
<ellipse fill="none" stroke="#000000" cx="3731" cy="-432.0003" rx="65.8187" ry="18"/>
<text text-anchor="middle" x="3731" y="-427.8003" font-family="Helvetica,sans-Serif" font-size="14.00" fill="#000000">section: 39&#45;54</text>
</g>
<!-- section_1&#45;&gt;section_6 -->
<g id="edge6" class="edge">
<title>section_1&#45;&gt;section_6</title>
<path fill="none" stroke="#000000" stroke-dasharray="5,2" d="M1444.6725,-502.139C1769.032,-492.1885 3297.0288,-445.3134 3655.5696,-434.3143"/>
<polygon fill="#000000" stroke="#000000" points="3655.6953,-437.8122 3665.5833,-434.0071 3655.4806,-430.8155 3655.6953,-437.8122"/>
</g>
<!-- leaf_7 -->
<g id="node8" class="node">
<title>leaf_7</title>
<polygon fill="none" stroke="#c0c0c0" points="873,-377.9006 311,-377.9006 311,-291.3 873,-291.3 873,-377.9006"/>
<text text-anchor="middle" x="592" y="-314.8003" font-family="Inconsolata" font-size="14.00" fill="#000000"> &#160;The behavior of abstract syntax trees in `pegylator` is provided by the Node</text>
<text text-anchor="middle" x="592" y="-299.4003" font-family="Inconsolata" font-size="14.00" fill="#000000">class.</text>
</g>
<!-- prose_3&#45;&gt;leaf_7 -->
<g id="edge7" class="edge">
<title>prose_3&#45;&gt;leaf_7</title>
<path fill="none" stroke="#000000" stroke-dasharray="5,2" d="M1277.7394,-419.8364C1272.3425,-417.5612 1266.5678,-415.4469 1261,-414.0003 1100.3531,-372.2616 1051.7957,-397.5233 883.1945,-378.1"/>
<polygon fill="#000000" stroke="#000000" points="883.5811,-374.6214 873.2381,-376.9175 882.7555,-381.5725 883.5811,-374.6214"/>
</g>
<!-- leaf_8 -->
<g id="node9" class="node">
<title>leaf_8</title>
<polygon fill="none" stroke="#c0c0c0" points="1446.5,-369.9006 891.5,-369.9006 891.5,-299.2999 1446.5,-299.2999 1446.5,-369.9006"/>
<text text-anchor="middle" x="1169" y="-338.8003" font-family="Inconsolata" font-size="14.00" fill="#000000">This is in turn poorly specified and full of exploratory code that is in need</text>
<text text-anchor="middle" x="1169" y="-323.4003" font-family="Inconsolata" font-size="14.00" fill="#000000">of a few once&#45;overs.</text>
</g>
<!-- prose_4&#45;&gt;leaf_8 -->
<g id="edge8" class="edge">
<title>prose_4&#45;&gt;leaf_8</title>
<path fill="none" stroke="#000000" stroke-dasharray="5,2" d="M1358.916,-420.6367C1333.6931,-409.2101 1293.3422,-390.9302 1256.3078,-374.1528"/>
<polygon fill="#000000" stroke="#000000" points="1257.5282,-370.8633 1246.975,-369.9248 1254.6396,-377.2395 1257.5282,-370.8633"/>
</g>
<!-- header_9 -->
<g id="node10" class="node">
<title>header_9</title>
<ellipse fill="none" stroke="#000000" cx="1524" cy="-334.6003" rx="59.0032" ry="18"/>
<text text-anchor="middle" x="1524" y="-330.4003" font-family="Helvetica,sans-Serif" font-size="14.00" fill="#000000">2 : Members</text>
</g>
<!-- section_5&#45;&gt;header_9 -->
<g id="edge9" class="edge">
<title>section_5&#45;&gt;header_9</title>
<path fill="none" stroke="#000000" stroke-dasharray="5,2" d="M1708.1327,-419.6659C1674.7579,-410.2484 1629.6432,-395.8636 1592,-378.0003 1579.6201,-372.1255 1566.7701,-364.4016 1555.6178,-357.1003"/>
<polygon fill="#000000" stroke="#000000" points="1557.335,-354.0378 1547.0792,-351.3787 1553.4383,-359.853 1557.335,-354.0378"/>
</g>
<!-- prose_10 -->
<g id="node11" class="node">
<title>prose_10</title>
<ellipse fill="none" stroke="#000000" cx="1633" cy="-334.6003" rx="32.4585" ry="18"/>
<text text-anchor="middle" x="1633" y="-330.4003" font-family="Helvetica,sans-Serif" font-size="14.00" fill="#000000">prose</text>
</g>
<!-- section_5&#45;&gt;prose_10 -->
<g id="edge10" class="edge">
<title>section_5&#45;&gt;prose_10</title>
<path fill="none" stroke="#000000" stroke-dasharray="5,2" d="M1727.9177,-415.7519C1711.5351,-405.7352 1690.8452,-392.1339 1674,-378.0003 1667.0371,-372.1583 1660.0339,-365.2264 1653.8348,-358.6367"/>
<polygon fill="#000000" stroke="#000000" points="1656.3109,-356.1581 1646.9776,-351.144 1651.147,-360.884 1656.3109,-356.1581"/>
</g>
<!-- prose_11 -->
<g id="node12" class="node">
<title>prose_11</title>
<ellipse fill="none" stroke="#000000" cx="1715" cy="-334.6003" rx="32.4585" ry="18"/>
<text text-anchor="middle" x="1715" y="-330.4003" font-family="Helvetica,sans-Serif" font-size="14.00" fill="#000000">prose</text>
</g>
<!-- section_5&#45;&gt;prose_11 -->
<g id="edge11" class="edge">
<title>section_5&#45;&gt;prose_11</title>
<path fill="none" stroke="#000000" stroke-dasharray="5,2" d="M1748.2882,-413.6801C1742.1411,-399.0769 1733.4397,-378.4059 1726.4749,-361.8601"/>
<polygon fill="#000000" stroke="#000000" points="1729.5067,-360.0411 1722.401,-352.1823 1723.055,-362.7569 1729.5067,-360.0411"/>
</g>
<!-- prose_12 -->
<g id="node13" class="node">
<title>prose_12</title>
<ellipse fill="none" stroke="#000000" cx="1797" cy="-334.6003" rx="32.4585" ry="18"/>
<text text-anchor="middle" x="1797" y="-330.4003" font-family="Helvetica,sans-Serif" font-size="14.00" fill="#000000">prose</text>
</g>
<!-- section_5&#45;&gt;prose_12 -->
<g id="edge12" class="edge">
<title>section_5&#45;&gt;prose_12</title>
<path fill="none" stroke="#000000" stroke-dasharray="5,2" d="M1763.7118,-413.6801C1769.8589,-399.0769 1778.5603,-378.4059 1785.5251,-361.8601"/>
<polygon fill="#000000" stroke="#000000" points="1788.945,-362.7569 1789.599,-352.1823 1782.4933,-360.0411 1788.945,-362.7569"/>
</g>
<!-- prose_13 -->
<g id="node14" class="node">
<title>prose_13</title>
<ellipse fill="none" stroke="#000000" cx="1879" cy="-334.6003" rx="32.4585" ry="18"/>
<text text-anchor="middle" x="1879" y="-330.4003" font-family="Helvetica,sans-Serif" font-size="14.00" fill="#000000">prose</text>
</g>
<!-- section_5&#45;&gt;prose_13 -->
<g id="edge13" class="edge">
<title>section_5&#45;&gt;prose_13</title>
<path fill="none" stroke="#000000" stroke-dasharray="5,2" d="M1784.0823,-415.7519C1800.4649,-405.7352 1821.1548,-392.1339 1838,-378.0003 1844.9629,-372.1583 1851.9661,-365.2264 1858.1652,-358.6367"/>
<polygon fill="#000000" stroke="#000000" points="1860.853,-360.884 1865.0224,-351.144 1855.6891,-356.1581 1860.853,-360.884"/>
</g>
<!-- prose_14 -->
<g id="node15" class="node">
<title>prose_14</title>
<ellipse fill="none" stroke="#000000" cx="2189" cy="-334.6003" rx="32.4585" ry="18"/>
<text text-anchor="middle" x="2189" y="-330.4003" font-family="Helvetica,sans-Serif" font-size="14.00" fill="#000000">prose</text>
</g>
<!-- section_5&#45;&gt;prose_14 -->
<g id="edge14" class="edge">
<title>section_5&#45;&gt;prose_14</title>
<path fill="none" stroke="#000000" stroke-dasharray="5,2" d="M1806.518,-420.6367C1893.5199,-401.0663 2069.894,-361.3923 2149.0134,-343.595"/>
<polygon fill="#000000" stroke="#000000" points="2150.0772,-346.9432 2159.0653,-341.3339 2148.541,-340.1138 2150.0772,-346.9432"/>
</g>
<!-- prose_15 -->
<g id="node16" class="node">
<title>prose_15</title>
<ellipse fill="none" stroke="#000000" cx="2592" cy="-334.6003" rx="32.4585" ry="18"/>
<text text-anchor="middle" x="2592" y="-330.4003" font-family="Helvetica,sans-Serif" font-size="14.00" fill="#000000">prose</text>
</g>
<!-- section_5&#45;&gt;prose_15 -->
<g id="edge15" class="edge">
<title>section_5&#45;&gt;prose_15</title>
<path fill="none" stroke="#000000" stroke-dasharray="5,2" d="M1816.6205,-425.2097C1906.7744,-415.0846 2081.514,-395.3592 2230,-378.0003 2345.7725,-364.4658 2482.2994,-347.9462 2549.8174,-339.7392"/>
<polygon fill="#000000" stroke="#000000" points="2550.543,-343.1768 2560.0473,-338.4951 2549.6979,-336.228 2550.543,-343.1768"/>
</g>
<!-- header_22 -->
<g id="node23" class="node">
<title>header_22</title>
<ellipse fill="none" stroke="#000000" cx="3555" cy="-334.6003" rx="84.6634" ry="18"/>
<text text-anchor="middle" x="3555" y="-330.4003" font-family="Helvetica,sans-Serif" font-size="14.00" fill="#000000">2 : Node metatable</text>
</g>
<!-- section_6&#45;&gt;header_22 -->
<g id="edge22" class="edge">
<title>section_6&#45;&gt;header_22</title>
<path fill="none" stroke="#000000" stroke-dasharray="5,2" d="M3701.5416,-415.6977C3672.1133,-399.4119 3626.6998,-374.2796 3594.2314,-356.3113"/>
<polygon fill="#000000" stroke="#000000" points="3595.8853,-353.2264 3585.441,-351.4466 3592.4958,-359.3511 3595.8853,-353.2264"/>
</g>
<!-- prose_23 -->
<g id="node24" class="node">
<title>prose_23</title>
<ellipse fill="none" stroke="#000000" cx="3690" cy="-334.6003" rx="32.4585" ry="18"/>
<text text-anchor="middle" x="3690" y="-330.4003" font-family="Helvetica,sans-Serif" font-size="14.00" fill="#000000">prose</text>
</g>
<!-- section_6&#45;&gt;prose_23 -->
<g id="edge23" class="edge">
<title>section_6&#45;&gt;prose_23</title>
<path fill="none" stroke="#000000" stroke-dasharray="5,2" d="M3723.2882,-413.6801C3717.1411,-399.0769 3708.4397,-378.4059 3701.4749,-361.8601"/>
<polygon fill="#000000" stroke="#000000" points="3704.5067,-360.0411 3697.401,-352.1823 3698.055,-362.7569 3704.5067,-360.0411"/>
</g>
<!-- prose_24 -->
<g id="node25" class="node">
<title>prose_24</title>
<ellipse fill="none" stroke="#000000" cx="3772" cy="-334.6003" rx="32.4585" ry="18"/>
<text text-anchor="middle" x="3772" y="-330.4003" font-family="Helvetica,sans-Serif" font-size="14.00" fill="#000000">prose</text>
</g>
<!-- section_6&#45;&gt;prose_24 -->
<g id="edge24" class="edge">
<title>section_6&#45;&gt;prose_24</title>
<path fill="none" stroke="#000000" stroke-dasharray="5,2" d="M3738.7118,-413.6801C3744.8589,-399.0769 3753.5603,-378.4059 3760.5251,-361.8601"/>
<polygon fill="#000000" stroke="#000000" points="3763.945,-362.7569 3764.599,-352.1823 3757.4933,-360.0411 3763.945,-362.7569"/>
</g>
<!-- section_25 -->
<g id="node26" class="node">
<title>section_25</title>
<ellipse fill="none" stroke="#000000" cx="3934" cy="-334.6003" rx="65.8187" ry="18"/>
<text text-anchor="middle" x="3934" y="-330.4003" font-family="Helvetica,sans-Serif" font-size="14.00" fill="#000000">section: 48&#45;54</text>
</g>
<!-- section_6&#45;&gt;section_25 -->
<g id="edge25" class="edge">
<title>section_6&#45;&gt;section_25</title>
<path fill="none" stroke="#000000" stroke-dasharray="5,2" d="M3763.6155,-416.3513C3798.4346,-399.645 3853.7313,-373.1135 3891.8349,-354.8312"/>
<polygon fill="#000000" stroke="#000000" points="3893.6271,-357.8534 3901.1289,-350.3719 3890.5989,-351.5423 3893.6271,-357.8534"/>
</g>
<!-- section_26 -->
<g id="node27" class="node">
<title>section_26</title>
<ellipse fill="none" stroke="#000000" cx="4291" cy="-334.6003" rx="65.8187" ry="18"/>
<text text-anchor="middle" x="4291" y="-330.4003" font-family="Helvetica,sans-Serif" font-size="14.00" fill="#000000">section: 55&#45;59</text>
</g>
<!-- section_6&#45;&gt;section_26 -->
<g id="edge26" class="edge">
<title>section_6&#45;&gt;section_26</title>
<path fill="none" stroke="#000000" stroke-dasharray="5,2" d="M3786.4847,-422.3499C3890.4416,-404.2689 4114.0647,-365.3744 4225.3353,-346.0213"/>
<polygon fill="#000000" stroke="#000000" points="4226.1685,-349.429 4235.4208,-344.2671 4224.9689,-342.5325 4226.1685,-349.429"/>
</g>
<!-- leaf_16 -->
<g id="node17" class="node">
<title>leaf_16</title>
<polygon fill="none" stroke="#c0c0c0" points="506,-217.2013 0,-217.2013 0,-145.399 506,-145.399 506,-217.2013"/>
<text text-anchor="middle" x="253" y="-153.8002" font-family="Inconsolata" font-size="14.00" fill="#000000"> &#160;To be a Node, all indexed elements of the Array must also be Nodes. </text>
</g>
<!-- prose_10&#45;&gt;leaf_16 -->
<g id="edge16" class="edge">
<title>prose_10&#45;&gt;leaf_16</title>
<path fill="none" stroke="#000000" stroke-dasharray="5,2" d="M1621.9076,-317.4343C1614.6646,-307.8444 1604.2838,-296.7393 1592,-291.2002 1482.8501,-241.9822 633.3134,-273.5861 515,-255.2002 465.7329,-247.5442 412.578,-233.6483 367.106,-219.9556"/>
<polygon fill="#000000" stroke="#000000" points="368.1094,-216.6025 357.5236,-217.0391 366.0712,-223.2992 368.1094,-216.6025"/>
</g>
<!-- leaf_17 -->
<g id="node18" class="node">
<title>leaf_17</title>
<polygon fill="none" stroke="#c0c0c0" points="1065.5,-255.1005 524.5,-255.1005 524.5,-107.4998 1065.5,-107.4998 1065.5,-255.1005"/>
<text text-anchor="middle" x="795" y="-224.0002" font-family="Inconsolata" font-size="14.00" fill="#000000">There are invariant fields a Node is also expected to have, they are:</text>
<text text-anchor="middle" x="795" y="-208.6002" font-family="Inconsolata" font-size="14.00" fill="#000000"> </text>
<text text-anchor="middle" x="795" y="-193.2002" font-family="Inconsolata" font-size="14.00" fill="#000000"> &#160;&#45; `first` : &#160;Index into `str` which begins the span.</text>
<text text-anchor="middle" x="795" y="-177.8002" font-family="Inconsolata" font-size="14.00" fill="#000000"> &#160;&#45; `last` &#160;: &#160;Index into `str` which ends the span.</text>
<text text-anchor="middle" x="795" y="-162.4001" font-family="Inconsolata" font-size="14.00" fill="#000000"> &#160;&#45; `id` &#160;&#160;&#160;: &#160;A string naming the Node. </text>
<text text-anchor="middle" x="795" y="-147.0001" font-family="Inconsolata" font-size="14.00" fill="#000000"> &#160;&#160;&#160;&#160;&#160;&#160;&#160;&#160;&#160;&#160;&#160;&#160;&#160;&#160;This is identical to the name of the pattern that recognizes</text>
<text text-anchor="middle" x="795" y="-131.6001" font-family="Inconsolata" font-size="14.00" fill="#000000"> &#160;&#160;&#160;&#160;&#160;&#160;&#160;&#160;&#160;&#160;&#160;&#160;&#160;&#160;or captures it.</text>
</g>
<!-- prose_11&#45;&gt;leaf_17 -->
<g id="edge17" class="edge">
<title>prose_11&#45;&gt;leaf_17</title>
<path fill="none" stroke="#000000" stroke-dasharray="5,2" d="M1703.8532,-317.5527C1696.591,-308.0049 1686.209,-296.9022 1674,-291.2002 1556.008,-236.0942 1222.787,-274.425 1075.8972,-255.1396"/>
<polygon fill="#000000" stroke="#000000" points="1076.0483,-251.6248 1065.6487,-253.6494 1075.041,-258.552 1076.0483,-251.6248"/>
</g>
<!-- leaf_18 -->
<g id="node19" class="node">
<title>leaf_18</title>
<polygon fill="none" stroke="#c0c0c0" points="1618,-201.2022 1084,-201.2022 1084,-161.3981 1618,-161.3981 1618,-201.2022"/>
<text text-anchor="middle" x="1351" y="-169.8002" font-family="Inconsolata" font-size="14.00" fill="#000000">There are other fields which are of less obvious value, which still exist:</text>
</g>
<!-- prose_12&#45;&gt;leaf_18 -->
<g id="edge18" class="edge">
<title>prose_12&#45;&gt;leaf_18</title>
<path fill="none" stroke="#000000" stroke-dasharray="5,2" d="M1784.6887,-317.5812C1777.3132,-308.5267 1767.2059,-297.9083 1756,-291.2002 1752.4707,-289.0875 1552.2018,-235.2182 1434.6474,-203.6985"/>
<polygon fill="#000000" stroke="#000000" points="1435.5007,-200.3038 1424.9355,-201.0949 1433.6881,-207.065 1435.5007,-200.3038"/>
</g>
<!-- leaf_19 -->
<g id="node20" class="node">
<title>leaf_19</title>
<polygon fill="none" stroke="#c0c0c0" points="2121.5,-231.8003 1636.5,-231.8003 1636.5,-130.8 2121.5,-130.8 2121.5,-231.8003"/>
<text text-anchor="middle" x="1879" y="-200.6002" font-family="Inconsolata" font-size="14.00" fill="#000000"> &#160;&#45; `str` &#160;: a &quot;string&quot; covering the whole abstract syntax tree.</text>
<text text-anchor="middle" x="1879" y="-185.2002" font-family="Inconsolata" font-size="14.00" fill="#000000"> &#160;&#160;&#160;&#160;&#160;&#160;&#160;&#160;&#160;&#160;&#160;&#160;This is normally found on root for which see:</text>
<text text-anchor="middle" x="1879" y="-169.8002" font-family="Inconsolata" font-size="14.00" fill="#000000"> &#160;&#45; `root` : a function which, called, returns the root node.</text>
<text text-anchor="middle" x="1879" y="-154.4001" font-family="Inconsolata" font-size="14.00" fill="#000000"> &#160;&#160;&#160;&#160;&#160;&#160;&#160;&#160;&#160;&#160;&#160;&#160;I was impressed with this idea when I came up with it.</text>
<text text-anchor="middle" x="1879" y="-139.0001" font-family="Inconsolata" font-size="14.00" fill="#000000"> &#160;&#160;&#160;&#160;&#160;&#160;&#160;&#160;&#160;&#160;&#160;&#160;Haven&#39;t been getting much use out of it.</text>
</g>
<!-- prose_13&#45;&gt;leaf_19 -->
<g id="edge19" class="edge">
<title>prose_13&#45;&gt;leaf_19</title>
<path fill="none" stroke="#000000" stroke-dasharray="5,2" d="M1879,-316.4127C1879,-298.0573 1879,-268.6896 1879,-242.0154"/>
<polygon fill="#000000" stroke="#000000" points="1882.5001,-241.9527 1879,-231.9528 1875.5001,-241.9528 1882.5001,-241.9527"/>
</g>
<!-- leaf_20 -->
<g id="node21" class="node">
<title>leaf_20</title>
<polygon fill="none" stroke="#c0c0c0" points="2694.5,-208.6006 2139.5,-208.6006 2139.5,-153.9997 2694.5,-153.9997 2694.5,-208.6006"/>
<text text-anchor="middle" x="2417" y="-177.5002" font-family="Inconsolata" font-size="14.00" fill="#000000">An important optional field, if a Node has a semantic span (such as a symbol)</text>
<text text-anchor="middle" x="2417" y="-162.1001" font-family="Inconsolata" font-size="14.00" fill="#000000">then it will have:</text>
</g>
<!-- prose_14&#45;&gt;leaf_20 -->
<g id="edge20" class="edge">
<title>prose_14&#45;&gt;leaf_20</title>
<path fill="none" stroke="#000000" stroke-dasharray="5,2" d="M2209.6356,-320.7255C2245.0014,-296.9466 2318.1349,-247.774 2367.3959,-214.6524"/>
<polygon fill="#000000" stroke="#000000" points="2369.6518,-217.3532 2375.9975,-208.869 2365.746,-211.5442 2369.6518,-217.3532"/>
</g>
<!-- leaf_21 -->
<g id="node22" class="node">
<title>leaf_21</title>
<polygon fill="none" stroke="#c0c0c0" points="3113.5,-209.2016 2712.5,-209.2016 2712.5,-153.3987 3113.5,-153.3987 3113.5,-209.2016"/>
<text text-anchor="middle" x="2913" y="-177.8002" font-family="Inconsolata" font-size="14.00" fill="#000000"> &#160;&#45; `val` : &#160;The substring of value to the syntax tree.</text>
</g>
<!-- prose_15&#45;&gt;leaf_21 -->
<g id="edge21" class="edge">
<title>prose_15&#45;&gt;leaf_21</title>
<path fill="none" stroke="#000000" stroke-dasharray="5,2" d="M2616.6553,-322.8256C2665.0578,-299.71 2774.0056,-247.6798 2845.4531,-213.5585"/>
<polygon fill="#000000" stroke="#000000" points="2847.3255,-216.543 2854.841,-209.0752 2844.3089,-210.2264 2847.3255,-216.543"/>
</g>
<!-- leaf_27 -->
<g id="node28" class="node">
<title>leaf_27</title>
<polygon fill="none" stroke="#c0c0c0" points="3686.5,-224.6004 3131.5,-224.6004 3131.5,-137.9998 3686.5,-137.9998 3686.5,-224.6004"/>
<text text-anchor="middle" x="3409" y="-161.5002" font-family="Inconsolata" font-size="14.00" fill="#000000"> &#160;This is currently constructed wildly and piecemeal. &#160;It also does important</text>
<text text-anchor="middle" x="3409" y="-146.1001" font-family="Inconsolata" font-size="14.00" fill="#000000">work. </text>
</g>
<!-- prose_23&#45;&gt;leaf_27 -->
<g id="edge27" class="edge">
<title>prose_23&#45;&gt;leaf_27</title>
<path fill="none" stroke="#000000" stroke-dasharray="5,2" d="M3676.8733,-317.8535C3669.3945,-309.1016 3659.4486,-298.6852 3649,-291.2002 3614.9134,-266.7819 3574.5349,-245.7796 3536.7162,-228.8706"/>
<polygon fill="#000000" stroke="#000000" points="3537.7241,-225.49 3527.1618,-224.6603 3534.9013,-231.8956 3537.7241,-225.49"/>
</g>
<!-- leaf_28 -->
<g id="node29" class="node">
<title>leaf_28</title>
<polygon fill="none" stroke="#c0c0c0" points="3839.5,-209.2016 3704.5,-209.2016 3704.5,-153.3987 3839.5,-153.3987 3839.5,-209.2016"/>
<text text-anchor="middle" x="3772" y="-177.8002" font-family="Inconsolata" font-size="14.00" fill="#000000">Best methods are:</text>
</g>
<!-- prose_24&#45;&gt;leaf_28 -->
<g id="edge28" class="edge">
<title>prose_24&#45;&gt;leaf_28</title>
<path fill="none" stroke="#000000" stroke-dasharray="5,2" d="M3772,-316.4127C3772,-292.5418 3772,-250.0459 3772,-219.0712"/>
<polygon fill="#000000" stroke="#000000" points="3775.5001,-219.0519 3772,-209.0519 3768.5001,-219.052 3775.5001,-219.0519"/>
</g>
<!-- header_29 -->
<g id="node30" class="node">
<title>header_29</title>
<ellipse fill="none" stroke="#000000" cx="3892" cy="-181.3001" rx="34.8806" ry="18"/>
<text text-anchor="middle" x="3892" y="-177.1001" font-family="Helvetica,sans-Serif" font-size="14.00" fill="#000000">3 : dot</text>
</g>
<!-- section_25&#45;&gt;header_29 -->
<g id="edge29" class="edge">
<title>section_25&#45;&gt;header_29</title>
<path fill="none" stroke="#000000" stroke-dasharray="5,2" d="M3929.0171,-316.4127C3921.7548,-289.9053 3908.2004,-240.4316 3899.663,-209.2701"/>
<polygon fill="#000000" stroke="#000000" points="3902.9944,-208.1837 3896.9764,-199.464 3896.2432,-210.0334 3902.9944,-208.1837"/>
</g>
<!-- prose_30 -->
<g id="node31" class="node">
<title>prose_30</title>
<ellipse fill="none" stroke="#000000" cx="3977" cy="-181.3001" rx="32.4585" ry="18"/>
<text text-anchor="middle" x="3977" y="-177.1001" font-family="Helvetica,sans-Serif" font-size="14.00" fill="#000000">prose</text>
</g>
<!-- section_25&#45;&gt;prose_30 -->
<g id="edge30" class="edge">
<title>section_25&#45;&gt;prose_30</title>
<path fill="none" stroke="#000000" stroke-dasharray="5,2" d="M3939.1015,-316.4127C3946.5367,-289.9053 3960.4139,-240.4316 3969.1545,-209.2701"/>
<polygon fill="#000000" stroke="#000000" points="3972.5743,-210.0377 3971.9051,-199.464 3965.8344,-208.1471 3972.5743,-210.0377"/>
</g>
<!-- prose_31 -->
<g id="node32" class="node">
<title>prose_31</title>
<ellipse fill="none" stroke="#000000" cx="4059" cy="-181.3001" rx="32.4585" ry="18"/>
<text text-anchor="middle" x="4059" y="-177.1001" font-family="Helvetica,sans-Serif" font-size="14.00" fill="#000000">prose</text>
</g>
<!-- section_25&#45;&gt;prose_31 -->
<g id="edge31" class="edge">
<title>section_25&#45;&gt;prose_31</title>
<path fill="none" stroke="#000000" stroke-dasharray="5,2" d="M3955.4249,-317.5663C3973.5344,-302.4608 3999.4209,-279.1376 4018,-255.2002 4029.2909,-240.6531 4039.3654,-222.6073 4046.7025,-207.9899"/>
<polygon fill="#000000" stroke="#000000" points="4049.8735,-209.4724 4051.1139,-198.9504 4043.5826,-206.4023 4049.8735,-209.4724"/>
</g>
<!-- header_34 -->
<g id="node35" class="node">
<title>header_34</title>
<ellipse fill="none" stroke="#000000" cx="4291" cy="-181.3001" rx="45.4959" ry="18"/>
<text text-anchor="middle" x="4291" y="-177.1001" font-family="Helvetica,sans-Serif" font-size="14.00" fill="#000000">3 : select</text>
</g>
<!-- section_26&#45;&gt;header_34 -->
<g id="edge34" class="edge">
<title>section_26&#45;&gt;header_34</title>
<path fill="none" stroke="#000000" stroke-dasharray="5,2" d="M4291,-316.4127C4291,-290.0205 4291,-240.8614 4291,-209.6776"/>
<polygon fill="#000000" stroke="#000000" points="4294.5001,-209.464 4291,-199.464 4287.5001,-209.464 4294.5001,-209.464"/>
</g>
<!-- prose_35 -->
<g id="node36" class="node">
<title>prose_35</title>
<ellipse fill="none" stroke="#000000" cx="4456" cy="-181.3001" rx="32.4585" ry="18"/>
<text text-anchor="middle" x="4456" y="-177.1001" font-family="Helvetica,sans-Serif" font-size="14.00" fill="#000000">prose</text>
</g>
<!-- section_26&#45;&gt;prose_35 -->
<g id="edge35" class="edge">
<title>section_26&#45;&gt;prose_35</title>
<path fill="none" stroke="#000000" stroke-dasharray="5,2" d="M4309.6069,-317.3128C4339.5686,-289.4756 4398.4998,-234.7231 4431.7268,-203.8522"/>
<polygon fill="#000000" stroke="#000000" points="4434.2505,-206.2849 4439.1943,-196.9142 4429.4859,-201.1567 4434.2505,-206.2849"/>
</g>
<!-- leaf_32 -->
<g id="node33" class="node">
<title>leaf_32</title>
<polygon fill="none" stroke="#c0c0c0" points="3819,-63.6015 3341,-63.6015 3341,-7.7985 3819,-7.7985 3819,-63.6015"/>
<text text-anchor="middle" x="3580" y="-16.2" font-family="Inconsolata" font-size="14.00" fill="#000000"> &#160;Some of my most recent code, this prints the AST as a dot file. </text>
</g>
<!-- prose_30&#45;&gt;leaf_32 -->
<g id="edge32" class="edge">
<title>prose_30&#45;&gt;leaf_32</title>
<path fill="none" stroke="#000000" stroke-dasharray="5,2" d="M3971.9117,-163.4428C3966.0853,-146.3445 3954.8295,-121.1725 3936,-107.4 3920.6585,-96.1788 3840.7739,-79.6191 3760.5583,-65.2404"/>
<polygon fill="#000000" stroke="#000000" points="3760.7279,-61.7156 3750.2691,-63.4081 3759.5005,-68.6072 3760.7279,-61.7156"/>
</g>
<!-- leaf_33 -->
<g id="node34" class="node">
<title>leaf_33</title>
<polygon fill="none" stroke="#c0c0c0" points="4280.5,-63.6015 3837.5,-63.6015 3837.5,-7.7985 4280.5,-7.7985 4280.5,-63.6015"/>
<text text-anchor="middle" x="4059" y="-32.2" font-family="Inconsolata" font-size="14.00" fill="#000000">It is now reasonably documented in [[src/peg/transform.lua]].</text>
</g>
<!-- prose_31&#45;&gt;leaf_33 -->
<g id="edge33" class="edge">
<title>prose_31&#45;&gt;leaf_33</title>
<path fill="none" stroke="#000000" stroke-dasharray="5,2" d="M4059,-163.1542C4059,-140.885 4059,-102.5367 4059,-73.7068"/>
<polygon fill="#000000" stroke="#000000" points="4062.5001,-73.5632 4059,-63.5633 4055.5001,-73.5633 4062.5001,-73.5632"/>
</g>
<!-- leaf_36 -->
<g id="node37" class="node">
<title>leaf_36</title>
<polygon fill="none" stroke="#c0c0c0" points="4749,-71.6012 4299,-71.6012 4299,.2011 4749,.2011 4749,-71.6012"/>
<text text-anchor="middle" x="4524" y="-24.2" font-family="Inconsolata" font-size="14.00" fill="#000000"> &#160;Select pulls out sub Nodes which fulfill certain predicates.</text>
</g>
<!-- prose_35&#45;&gt;leaf_36 -->
<g id="edge36" class="edge">
<title>prose_35&#45;&gt;leaf_36</title>
<path fill="none" stroke="#000000" stroke-dasharray="5,2" d="M4464.2024,-163.7374C4473.7551,-143.2834 4489.8988,-108.7168 4503.006,-80.6518"/>
<polygon fill="#000000" stroke="#000000" points="4506.2603,-81.9548 4507.3208,-71.4132 4499.9179,-78.9927 4506.2603,-81.9548"/>
</g>
</g>
</svg>