<?xml version="1.0" encoding="UTF-8" standalone="no"?>
<!DOCTYPE svg PUBLIC "-//W3C//DTD SVG 1.1//EN"
 "http://www.w3.org/Graphics/SVG/1.1/DTD/svg11.dtd">
<!-- Generated by graphviz version 2.40.1 (20161225.0304)
 -->
<!-- Title: hierarchy Pages: 1 -->
<svg width="6551pt" height="1543pt"
 viewBox="0.00 0.00 6551.00 1542.60" xmlns="http://www.w3.org/2000/svg" xmlns:xlink="http://www.w3.org/1999/xlink">
<g id="graph0" class="graph" transform="scale(1 1) rotate(0) translate(4 1538.6015)">
<title>hierarchy</title>
<polygon fill="#ffffff" stroke="transparent" points="-4,4 -4,-1538.6015 6547,-1538.6015 6547,4 -4,4"/>
<!-- doc_0 -->
<g id="node1" class="node">
<title>doc_0</title>
<ellipse fill="none" stroke="#000000" cx="2328" cy="-1516.6015" rx="42.1216" ry="18"/>
<text text-anchor="middle" x="2328" y="-1512.4015" font-family="Helvetica,sans-Serif" font-size="14.00" fill="#000000">doc &#45; 60</text>
</g>
<!-- section_1 -->
<g id="node2" class="node">
<title>section_1</title>
<ellipse fill="none" stroke="#000000" cx="2328" cy="-1444.6015" rx="60.9826" ry="18"/>
<text text-anchor="middle" x="2328" y="-1440.4015" font-family="Helvetica,sans-Serif" font-size="14.00" fill="#000000">section: 1&#45;39</text>
</g>
<!-- doc_0&#45;&gt;section_1 -->
<g id="edge1" class="edge">
<title>doc_0&#45;&gt;section_1</title>
<path fill="none" stroke="#000000" stroke-dasharray="5,2" d="M2328,-1498.4329C2328,-1490.7325 2328,-1481.5759 2328,-1473.0182"/>
<polygon fill="#000000" stroke="#000000" points="2331.5001,-1473.0148 2328,-1463.0148 2324.5001,-1473.0148 2331.5001,-1473.0148"/>
</g>
<!-- header_2 -->
<g id="node3" class="node">
<title>header_2</title>
<ellipse fill="none" stroke="#000000" cx="1514" cy="-1074.1011" rx="66.2859" ry="18"/>
<text text-anchor="middle" x="1514" y="-1069.9011" font-family="Helvetica,sans-Serif" font-size="14.00" fill="#000000">1 : Node class</text>
</g>
<!-- section_1&#45;&gt;header_2 -->
<g id="edge2" class="edge">
<title>section_1&#45;&gt;header_2</title>
<path fill="none" stroke="#000000" stroke-dasharray="5,2" d="M2266.9914,-1444.2108C2099.2457,-1442.5771 1640.1072,-1434.134 1589,-1390.6015 1503.0516,-1317.3916 1505.607,-1165.486 1510.8489,-1102.46"/>
<polygon fill="#000000" stroke="#000000" points="1514.3392,-1102.7247 1511.769,-1092.4464 1507.3685,-1102.0841 1514.3392,-1102.7247"/>
</g>
<!-- block_3 -->
<g id="node4" class="node">
<title>block_3</title>
<ellipse fill="none" stroke="#000000" cx="1649" cy="-1074.1011" rx="50.8172" ry="18"/>
<text text-anchor="middle" x="1649" y="-1069.9011" font-family="Helvetica,sans-Serif" font-size="14.00" fill="#000000">block 1&#45;39</text>
</g>
<!-- section_1&#45;&gt;block_3 -->
<g id="edge3" class="edge">
<title>section_1&#45;&gt;block_3</title>
<path fill="none" stroke="#000000" stroke-dasharray="5,2" d="M2267.3505,-1443.4032C2119.552,-1439.9138 1749.8536,-1427.5489 1709,-1390.6015 1626.0687,-1315.5999 1636.0778,-1164.7011 1644.4397,-1102.2021"/>
<polygon fill="#000000" stroke="#000000" points="1647.9085,-1102.6687 1645.8561,-1092.2746 1640.9787,-1101.6799 1647.9085,-1102.6687"/>
</g>
<!-- section_4 -->
<g id="node5" class="node">
<title>section_4</title>
<ellipse fill="none" stroke="#000000" cx="1778" cy="-1074.1011" rx="60.1778" ry="18"/>
<text text-anchor="middle" x="1778" y="-1069.9011" font-family="Helvetica,sans-Serif" font-size="14.00" fill="#000000">section: 3&#45;11</text>
</g>
<!-- section_1&#45;&gt;section_4 -->
<g id="edge4" class="edge">
<title>section_1&#45;&gt;section_4</title>
<path fill="none" stroke="#000000" stroke-dasharray="5,2" d="M2303.2992,-1427.9621C2214.6316,-1368.2323 1912.3073,-1164.5755 1811.2239,-1096.482"/>
<polygon fill="#000000" stroke="#000000" points="1812.882,-1093.3789 1802.6328,-1090.6947 1808.9711,-1099.1845 1812.882,-1093.3789"/>
</g>
<!-- section_5 -->
<g id="node6" class="node">
<title>section_5</title>
<ellipse fill="none" stroke="#000000" cx="2704" cy="-1074.1011" rx="65.8187" ry="18"/>
<text text-anchor="middle" x="2704" y="-1069.9011" font-family="Helvetica,sans-Serif" font-size="14.00" fill="#000000">section: 12&#45;39</text>
</g>
<!-- section_1&#45;&gt;section_5 -->
<g id="edge5" class="edge">
<title>section_1&#45;&gt;section_5</title>
<path fill="none" stroke="#000000" stroke-dasharray="5,2" d="M2345.6309,-1427.2285C2406.4276,-1367.3211 2607.4873,-1169.2022 2678.7139,-1099.0173"/>
<polygon fill="#000000" stroke="#000000" points="2681.3033,-1101.3796 2685.9697,-1091.8677 2676.3901,-1096.3935 2681.3033,-1101.3796"/>
</g>
<!-- section_6 -->
<g id="node7" class="node">
<title>section_6</title>
<ellipse fill="none" stroke="#000000" cx="4861" cy="-1074.1011" rx="65.8187" ry="18"/>
<text text-anchor="middle" x="4861" y="-1069.9011" font-family="Helvetica,sans-Serif" font-size="14.00" fill="#000000">section: 40&#45;55</text>
</g>
<!-- section_1&#45;&gt;section_6 -->
<g id="edge6" class="edge">
<title>section_1&#45;&gt;section_6</title>
<path fill="none" stroke="#000000" stroke-dasharray="5,2" d="M2385.0294,-1438.3598C2470.6768,-1428.8531 2637.5662,-1409.814 2779,-1390.6015 3574.0073,-1282.607 4535.8915,-1127.1963 4794.3933,-1085.0133"/>
<polygon fill="#000000" stroke="#000000" points="4795.0697,-1088.4493 4804.3751,-1083.3836 4793.9418,-1081.5407 4795.0697,-1088.4493"/>
</g>
<!-- leaf_46 -->
<g id="node47" class="node">
<title>leaf_46</title>
<polygon fill="none" stroke="#c0c0c0" points="5507,-1390.6019 4945,-1390.6019 4945,-757.6004 5507,-757.6004 5507,-1390.6019"/>
<text text-anchor="middle" x="5226" y="-1375.4015" font-family="Inconsolata" font-size="14.00" fill="#000000">* Node class</text>
<text text-anchor="middle" x="5226" y="-1344.0015" font-family="Inconsolata" font-size="14.00" fill="#000000">** THIS FILE IS DEPRECATED</text>
<text text-anchor="middle" x="5226" y="-1312.6015" font-family="Inconsolata" font-size="14.00" fill="#000000"> &#160;The behavior of abstract syntax trees in `pegylator` is provided by the Node</text>
<text text-anchor="middle" x="5226" y="-1297.2014" font-family="Inconsolata" font-size="14.00" fill="#000000">class.</text>
<text text-anchor="middle" x="5226" y="-1265.8014" font-family="Inconsolata" font-size="14.00" fill="#000000">This is in turn poorly specified and full of exploratory code that is in need</text>
<text text-anchor="middle" x="5226" y="-1250.4014" font-family="Inconsolata" font-size="14.00" fill="#000000">of a few once&#45;overs.</text>
<text text-anchor="middle" x="5226" y="-1203.0013" font-family="Inconsolata" font-size="14.00" fill="#000000">** Members</text>
<text text-anchor="middle" x="5226" y="-1155.6013" font-family="Inconsolata" font-size="14.00" fill="#000000"> &#160;To be a Node, all indexed elements of the Array must also be Nodes. </text>
<text text-anchor="middle" x="5226" y="-1124.2013" font-family="Inconsolata" font-size="14.00" fill="#000000">There are invariant fields a Node is also expected to have, they are:</text>
<text text-anchor="middle" x="5226" y="-1108.8012" font-family="Inconsolata" font-size="14.00" fill="#000000"> </text>
<text text-anchor="middle" x="5226" y="-1093.4012" font-family="Inconsolata" font-size="14.00" fill="#000000"> &#160;&#45; `first` : &#160;Index into `str` which begins the span.</text>
<text text-anchor="middle" x="5226" y="-1078.0012" font-family="Inconsolata" font-size="14.00" fill="#000000"> &#160;&#45; `last` &#160;: &#160;Index into `str` which ends the span.</text>
<text text-anchor="middle" x="5226" y="-1062.6012" font-family="Inconsolata" font-size="14.00" fill="#000000"> &#160;&#45; `id` &#160;&#160;&#160;: &#160;A string naming the Node. </text>
<text text-anchor="middle" x="5226" y="-1047.2011" font-family="Inconsolata" font-size="14.00" fill="#000000"> &#160;&#160;&#160;&#160;&#160;&#160;&#160;&#160;&#160;&#160;&#160;&#160;&#160;&#160;This is identical to the name of the pattern that recognizes</text>
<text text-anchor="middle" x="5226" y="-1031.8011" font-family="Inconsolata" font-size="14.00" fill="#000000"> &#160;&#160;&#160;&#160;&#160;&#160;&#160;&#160;&#160;&#160;&#160;&#160;&#160;&#160;or captures it.</text>
<text text-anchor="middle" x="5226" y="-984.4011" font-family="Inconsolata" font-size="14.00" fill="#000000">There are other fields which are of less obvious value, which still exist:</text>
<text text-anchor="middle" x="5226" y="-953.001" font-family="Inconsolata" font-size="14.00" fill="#000000"> &#160;&#45; `str` &#160;: a &quot;string&quot; covering the whole abstract syntax tree.</text>
<text text-anchor="middle" x="5226" y="-937.601" font-family="Inconsolata" font-size="14.00" fill="#000000"> &#160;&#160;&#160;&#160;&#160;&#160;&#160;&#160;&#160;&#160;&#160;&#160;This is normally found on root for which see:</text>
<text text-anchor="middle" x="5226" y="-922.201" font-family="Inconsolata" font-size="14.00" fill="#000000"> &#160;&#45; `root` : a function which, called, returns the root node.</text>
<text text-anchor="middle" x="5226" y="-906.8009" font-family="Inconsolata" font-size="14.00" fill="#000000"> &#160;&#160;&#160;&#160;&#160;&#160;&#160;&#160;&#160;&#160;&#160;&#160;I was impressed with this idea when I came up with it.</text>
<text text-anchor="middle" x="5226" y="-891.4009" font-family="Inconsolata" font-size="14.00" fill="#000000"> &#160;&#160;&#160;&#160;&#160;&#160;&#160;&#160;&#160;&#160;&#160;&#160;Haven&#39;t been getting much use out of it.</text>
<text text-anchor="middle" x="5226" y="-860.0009" font-family="Inconsolata" font-size="14.00" fill="#000000">An important optional field, if a Node has a semantic span (such as a symbol)</text>
<text text-anchor="middle" x="5226" y="-844.6008" font-family="Inconsolata" font-size="14.00" fill="#000000">then it will have:</text>
<text text-anchor="middle" x="5226" y="-813.2008" font-family="Inconsolata" font-size="14.00" fill="#000000"> &#160;&#45; `val` : &#160;The substring of value to the syntax tree.</text>
<text text-anchor="middle" x="5226" y="-765.8008" font-family="Inconsolata" font-size="14.00" fill="#000000">*</text>
</g>
<!-- section_1&#45;&gt;leaf_46 -->
<g id="edge46" class="edge">
<title>section_1&#45;&gt;leaf_46</title>
<path fill="none" stroke="#000000" stroke-dasharray="5,2" d="M2389.0029,-1443.9994C2765.6925,-1440.2036 4764.5182,-1418.9031 4934.9969,-1388.9328"/>
<polygon fill="#000000" stroke="#000000" points="4936.0279,-1392.2822 4944.861,-1386.4319 4934.3075,-1385.4969 4936.0279,-1392.2822"/>
</g>
<!-- leaf_7 -->
<g id="node8" class="node">
<title>leaf_7</title>
<polygon fill="none" stroke="#c0c0c0" points="1134,-509.3005 1080,-509.3005 1080,-473.3005 1134,-473.3005 1134,-509.3005"/>
</g>
<!-- block_3&#45;&gt;leaf_7 -->
<g id="edge7" class="edge">
<title>block_3&#45;&gt;leaf_7</title>
<path fill="none" stroke="#000000" stroke-dasharray="5,2" d="M1652.1671,-1055.9019C1660.5422,-1001.1156 1676.9853,-836.657 1589,-757.6007 1515.0371,-691.1439 1215.8804,-789.2429 1143,-721.6007 1086.7652,-669.4078 1094.0787,-568.2104 1101.6577,-519.2179"/>
<polygon fill="#000000" stroke="#000000" points="1105.1163,-519.7555 1103.3053,-509.3166 1098.2113,-518.6064 1105.1163,-519.7555"/>
</g>
<!-- header_8 -->
<g id="node9" class="node">
<title>header_8</title>
<ellipse fill="none" stroke="#000000" cx="1289" cy="-491.3005" rx="136.6506" ry="18"/>
<text text-anchor="middle" x="1289" y="-487.1005" font-family="Helvetica,sans-Serif" font-size="14.00" fill="#000000">2 : THIS FILE IS DEPRECATED</text>
</g>
<!-- section_4&#45;&gt;header_8 -->
<g id="edge8" class="edge">
<title>section_4&#45;&gt;header_8</title>
<path fill="none" stroke="#000000" stroke-dasharray="5,2" d="M1780.4077,-1056.0329C1786.5389,-1001.6177 1796.5643,-838.1012 1709,-757.6007 1618.5795,-674.4746 1538.5244,-787.6956 1435,-721.6007 1358.8475,-672.9814 1315.095,-568.856 1297.7581,-519.0078"/>
<polygon fill="#000000" stroke="#000000" points="1301.067,-517.8666 1294.5491,-509.5139 1294.4355,-520.1082 1301.067,-517.8666"/>
</g>
<!-- block_9 -->
<g id="node10" class="node">
<title>block_9</title>
<ellipse fill="none" stroke="#000000" cx="1490" cy="-491.3005" rx="45.9804" ry="18"/>
<text text-anchor="middle" x="1490" y="-487.1005" font-family="Helvetica,sans-Serif" font-size="14.00" fill="#000000">block 3&#45;7</text>
</g>
<!-- section_4&#45;&gt;block_9 -->
<g id="edge9" class="edge">
<title>section_4&#45;&gt;block_9</title>
<path fill="none" stroke="#000000" stroke-dasharray="5,2" d="M1780.1259,-1055.9842C1785.3519,-1002.131 1792.8475,-841.5686 1709,-757.6007 1656.2705,-704.7956 1598.2491,-773.882 1545,-721.6007 1489.6419,-667.2488 1486.0136,-567.8705 1487.9296,-519.3932"/>
<polygon fill="#000000" stroke="#000000" points="1491.4299,-519.4731 1488.4395,-509.3091 1484.4389,-519.1196 1491.4299,-519.4731"/>
</g>
<!-- block_10 -->
<g id="node11" class="node">
<title>block_10</title>
<ellipse fill="none" stroke="#000000" cx="1604" cy="-491.3005" rx="50.0142" ry="18"/>
<text text-anchor="middle" x="1604" y="-487.1005" font-family="Helvetica,sans-Serif" font-size="14.00" fill="#000000">block 8&#45;11</text>
</g>
<!-- section_4&#45;&gt;block_10 -->
<g id="edge10" class="edge">
<title>section_4&#45;&gt;block_10</title>
<path fill="none" stroke="#000000" stroke-dasharray="5,2" d="M1778.1972,-1056.0795C1777.9408,-1005.1047 1771.5047,-857.1423 1709,-757.6007 1695.1945,-735.6148 1677.2006,-743.3336 1663,-721.6007 1621.0934,-657.4659 1608.9394,-565.2596 1605.4239,-519.4075"/>
<polygon fill="#000000" stroke="#000000" points="1608.9077,-519.05 1604.7341,-509.3119 1601.924,-519.5272 1608.9077,-519.05"/>
</g>
<!-- leaf_13 -->
<g id="node14" class="node">
<title>leaf_13</title>
<polygon fill="none" stroke="#c0c0c0" points="2234,-573.7011 1672,-573.7011 1672,-408.8998 2234,-408.8998 2234,-573.7011"/>
<text text-anchor="middle" x="1953" y="-558.3005" font-family="Inconsolata" font-size="14.00" fill="#000000">** THIS FILE IS DEPRECATED</text>
<text text-anchor="middle" x="1953" y="-526.9005" font-family="Inconsolata" font-size="14.00" fill="#000000"> &#160;The behavior of abstract syntax trees in `pegylator` is provided by the Node</text>
<text text-anchor="middle" x="1953" y="-511.5005" font-family="Inconsolata" font-size="14.00" fill="#000000">class.</text>
<text text-anchor="middle" x="1953" y="-480.1005" font-family="Inconsolata" font-size="14.00" fill="#000000">This is in turn poorly specified and full of exploratory code that is in need</text>
<text text-anchor="middle" x="1953" y="-464.7004" font-family="Inconsolata" font-size="14.00" fill="#000000">of a few once&#45;overs.</text>
<text text-anchor="middle" x="1953" y="-417.3004" font-family="Inconsolata" font-size="14.00" fill="#000000">*</text>
</g>
<!-- section_4&#45;&gt;leaf_13 -->
<g id="edge13" class="edge">
<title>section_4&#45;&gt;leaf_13</title>
<path fill="none" stroke="#000000" stroke-dasharray="5,2" d="M1783.4293,-1056.02C1804.6552,-985.3316 1882.9379,-724.6276 1925.3155,-583.4979"/>
<polygon fill="#000000" stroke="#000000" points="1928.7795,-584.1315 1928.3034,-573.5474 1922.0753,-582.1184 1928.7795,-584.1315"/>
</g>
<!-- header_14 -->
<g id="node15" class="node">
<title>header_14</title>
<ellipse fill="none" stroke="#000000" cx="2311" cy="-491.3005" rx="59.0032" ry="18"/>
<text text-anchor="middle" x="2311" y="-487.1005" font-family="Helvetica,sans-Serif" font-size="14.00" fill="#000000">2 : Members</text>
</g>
<!-- section_5&#45;&gt;header_14 -->
<g id="edge14" class="edge">
<title>section_5&#45;&gt;header_14</title>
<path fill="none" stroke="#000000" stroke-dasharray="5,2" d="M2682.1812,-1056.7744C2624.0364,-1009.4476 2464.0119,-871.4749 2379,-721.6007 2341.0113,-654.6275 2322.443,-564.4193 2315.0463,-519.3619"/>
<polygon fill="#000000" stroke="#000000" points="2318.4951,-518.763 2313.4784,-509.4311 2311.5808,-519.8546 2318.4951,-518.763"/>
</g>
<!-- block_15 -->
<g id="node16" class="node">
<title>block_15</title>
<ellipse fill="none" stroke="#000000" cx="2444" cy="-491.3005" rx="55.6542" ry="18"/>
<text text-anchor="middle" x="2444" y="-487.1005" font-family="Helvetica,sans-Serif" font-size="14.00" fill="#000000">block 12&#45;16</text>
</g>
<!-- section_5&#45;&gt;block_15 -->
<g id="edge15" class="edge">
<title>section_5&#45;&gt;block_15</title>
<path fill="none" stroke="#000000" stroke-dasharray="5,2" d="M2692.0797,-1056.1261C2658.9326,-1005.472 2564.4645,-856.4609 2509,-721.6007 2480.0223,-651.1424 2459.2065,-563.4536 2449.7286,-519.3737"/>
<polygon fill="#000000" stroke="#000000" points="2453.1113,-518.4527 2447.6172,-509.3937 2446.2629,-519.9016 2453.1113,-518.4527"/>
</g>
<!-- block_16 -->
<g id="node17" class="node">
<title>block_16</title>
<ellipse fill="none" stroke="#000000" cx="2574" cy="-491.3005" rx="55.6542" ry="18"/>
<text text-anchor="middle" x="2574" y="-487.1005" font-family="Helvetica,sans-Serif" font-size="14.00" fill="#000000">block 17&#45;25</text>
</g>
<!-- section_5&#45;&gt;block_16 -->
<g id="edge16" class="edge">
<title>section_5&#45;&gt;block_16</title>
<path fill="none" stroke="#000000" stroke-dasharray="5,2" d="M2699.9668,-1056.02C2681.2784,-972.2383 2603.0493,-621.5307 2580.2568,-519.3501"/>
<polygon fill="#000000" stroke="#000000" points="2583.6436,-518.4566 2578.0503,-509.4584 2576.8115,-519.9806 2583.6436,-518.4566"/>
</g>
<!-- block_17 -->
<g id="node18" class="node">
<title>block_17</title>
<ellipse fill="none" stroke="#000000" cx="2704" cy="-491.3005" rx="55.6542" ry="18"/>
<text text-anchor="middle" x="2704" y="-487.1005" font-family="Helvetica,sans-Serif" font-size="14.00" fill="#000000">block 26&#45;27</text>
</g>
<!-- section_5&#45;&gt;block_17 -->
<g id="edge17" class="edge">
<title>section_5&#45;&gt;block_17</title>
<path fill="none" stroke="#000000" stroke-dasharray="5,2" d="M2704,-1056.02C2704,-972.323 2704,-622.2397 2704,-519.6608"/>
<polygon fill="#000000" stroke="#000000" points="2707.5001,-519.4584 2704,-509.4584 2700.5001,-519.4585 2707.5001,-519.4584"/>
</g>
<!-- block_18 -->
<g id="node19" class="node">
<title>block_18</title>
<ellipse fill="none" stroke="#000000" cx="2834" cy="-491.3005" rx="55.6542" ry="18"/>
<text text-anchor="middle" x="2834" y="-487.1005" font-family="Helvetica,sans-Serif" font-size="14.00" fill="#000000">block 28&#45;33</text>
</g>
<!-- section_5&#45;&gt;block_18 -->
<g id="edge18" class="edge">
<title>section_5&#45;&gt;block_18</title>
<path fill="none" stroke="#000000" stroke-dasharray="5,2" d="M2708.0332,-1056.02C2726.7216,-972.2383 2804.9507,-621.5307 2827.7432,-519.3501"/>
<polygon fill="#000000" stroke="#000000" points="2831.1885,-519.9806 2829.9497,-509.4584 2824.3564,-518.4566 2831.1885,-519.9806"/>
</g>
<!-- block_19 -->
<g id="node20" class="node">
<title>block_19</title>
<ellipse fill="none" stroke="#000000" cx="2964" cy="-491.3005" rx="55.6542" ry="18"/>
<text text-anchor="middle" x="2964" y="-487.1005" font-family="Helvetica,sans-Serif" font-size="14.00" fill="#000000">block 34&#45;36</text>
</g>
<!-- section_5&#45;&gt;block_19 -->
<g id="edge19" class="edge">
<title>section_5&#45;&gt;block_19</title>
<path fill="none" stroke="#000000" stroke-dasharray="5,2" d="M2715.9203,-1056.1261C2749.0674,-1005.472 2843.5355,-856.4609 2899,-721.6007 2927.9777,-651.1424 2948.7935,-563.4536 2958.2714,-519.3737"/>
<polygon fill="#000000" stroke="#000000" points="2961.7371,-519.9016 2960.3828,-509.3937 2954.8887,-518.4527 2961.7371,-519.9016"/>
</g>
<!-- block_20 -->
<g id="node21" class="node">
<title>block_20</title>
<ellipse fill="none" stroke="#000000" cx="3094" cy="-491.3005" rx="55.6542" ry="18"/>
<text text-anchor="middle" x="3094" y="-487.1005" font-family="Helvetica,sans-Serif" font-size="14.00" fill="#000000">block 37&#45;39</text>
</g>
<!-- section_5&#45;&gt;block_20 -->
<g id="edge20" class="edge">
<title>section_5&#45;&gt;block_20</title>
<path fill="none" stroke="#000000" stroke-dasharray="5,2" d="M2725.918,-1056.8303C2784.3091,-1009.6422 2944.8907,-871.9833 3029,-721.6007 3066.4551,-654.6332 3083.6983,-564.4224 3090.3982,-519.3632"/>
<polygon fill="#000000" stroke="#000000" points="3093.8676,-519.8254 3091.8112,-509.432 3086.9374,-518.8393 3093.8676,-519.8254"/>
</g>
<!-- leaf_27 -->
<g id="node28" class="node">
<title>leaf_27</title>
<polygon fill="none" stroke="#c0c0c0" points="3722.5,-721.4012 3167.5,-721.4012 3167.5,-261.1997 3722.5,-261.1997 3722.5,-721.4012"/>
<text text-anchor="middle" x="3445" y="-706.4007" font-family="Inconsolata" font-size="14.00" fill="#000000">** Members</text>
<text text-anchor="middle" x="3445" y="-659.0007" font-family="Inconsolata" font-size="14.00" fill="#000000"> &#160;To be a Node, all indexed elements of the Array must also be Nodes. </text>
<text text-anchor="middle" x="3445" y="-627.6007" font-family="Inconsolata" font-size="14.00" fill="#000000">There are invariant fields a Node is also expected to have, they are:</text>
<text text-anchor="middle" x="3445" y="-612.2007" font-family="Inconsolata" font-size="14.00" fill="#000000"> </text>
<text text-anchor="middle" x="3445" y="-596.8006" font-family="Inconsolata" font-size="14.00" fill="#000000"> &#160;&#45; `first` : &#160;Index into `str` which begins the span.</text>
<text text-anchor="middle" x="3445" y="-581.4006" font-family="Inconsolata" font-size="14.00" fill="#000000"> &#160;&#45; `last` &#160;: &#160;Index into `str` which ends the span.</text>
<text text-anchor="middle" x="3445" y="-566.0006" font-family="Inconsolata" font-size="14.00" fill="#000000"> &#160;&#45; `id` &#160;&#160;&#160;: &#160;A string naming the Node. </text>
<text text-anchor="middle" x="3445" y="-550.6005" font-family="Inconsolata" font-size="14.00" fill="#000000"> &#160;&#160;&#160;&#160;&#160;&#160;&#160;&#160;&#160;&#160;&#160;&#160;&#160;&#160;This is identical to the name of the pattern that recognizes</text>
<text text-anchor="middle" x="3445" y="-535.2005" font-family="Inconsolata" font-size="14.00" fill="#000000"> &#160;&#160;&#160;&#160;&#160;&#160;&#160;&#160;&#160;&#160;&#160;&#160;&#160;&#160;or captures it.</text>
<text text-anchor="middle" x="3445" y="-487.8005" font-family="Inconsolata" font-size="14.00" fill="#000000">There are other fields which are of less obvious value, which still exist:</text>
<text text-anchor="middle" x="3445" y="-456.4004" font-family="Inconsolata" font-size="14.00" fill="#000000"> &#160;&#45; `str` &#160;: a &quot;string&quot; covering the whole abstract syntax tree.</text>
<text text-anchor="middle" x="3445" y="-441.0004" font-family="Inconsolata" font-size="14.00" fill="#000000"> &#160;&#160;&#160;&#160;&#160;&#160;&#160;&#160;&#160;&#160;&#160;&#160;This is normally found on root for which see:</text>
<text text-anchor="middle" x="3445" y="-425.6004" font-family="Inconsolata" font-size="14.00" fill="#000000"> &#160;&#45; `root` : a function which, called, returns the root node.</text>
<text text-anchor="middle" x="3445" y="-410.2003" font-family="Inconsolata" font-size="14.00" fill="#000000"> &#160;&#160;&#160;&#160;&#160;&#160;&#160;&#160;&#160;&#160;&#160;&#160;I was impressed with this idea when I came up with it.</text>
<text text-anchor="middle" x="3445" y="-394.8003" font-family="Inconsolata" font-size="14.00" fill="#000000"> &#160;&#160;&#160;&#160;&#160;&#160;&#160;&#160;&#160;&#160;&#160;&#160;Haven&#39;t been getting much use out of it.</text>
<text text-anchor="middle" x="3445" y="-363.4003" font-family="Inconsolata" font-size="14.00" fill="#000000">An important optional field, if a Node has a semantic span (such as a symbol)</text>
<text text-anchor="middle" x="3445" y="-348.0002" font-family="Inconsolata" font-size="14.00" fill="#000000">then it will have:</text>
<text text-anchor="middle" x="3445" y="-316.6002" font-family="Inconsolata" font-size="14.00" fill="#000000"> &#160;&#45; `val` : &#160;The substring of value to the syntax tree.</text>
<text text-anchor="middle" x="3445" y="-269.2002" font-family="Inconsolata" font-size="14.00" fill="#000000">*</text>
</g>
<!-- section_5&#45;&gt;leaf_27 -->
<g id="edge27" class="edge">
<title>section_5&#45;&gt;leaf_27</title>
<path fill="none" stroke="#000000" stroke-dasharray="5,2" d="M2726.3677,-1057.0092C2792.6905,-1006.279 2993.9374,-851.9792 3159,-721.6007 3159.086,-721.5328 3159.172,-721.4649 3159.258,-721.397"/>
<polygon fill="#000000" stroke="#000000" points="3161.6201,-723.9913 3167.2938,-715.0437 3157.2786,-718.5001 3161.6201,-723.9913"/>
</g>
<!-- header_28 -->
<g id="node29" class="node">
<title>header_28</title>
<ellipse fill="none" stroke="#000000" cx="4637" cy="-491.3005" rx="84.6634" ry="18"/>
<text text-anchor="middle" x="4637" y="-487.1005" font-family="Helvetica,sans-Serif" font-size="14.00" fill="#000000">2 : Node metatable</text>
</g>
<!-- section_6&#45;&gt;header_28 -->
<g id="edge28" class="edge">
<title>section_6&#45;&gt;header_28</title>
<path fill="none" stroke="#000000" stroke-dasharray="5,2" d="M4854.0505,-1056.02C4821.8164,-972.1536 4686.7814,-620.8212 4647.6621,-519.0409"/>
<polygon fill="#000000" stroke="#000000" points="4650.8337,-517.537 4643.979,-509.4584 4644.2997,-520.0484 4650.8337,-517.537"/>
</g>
<!-- block_29 -->
<g id="node30" class="node">
<title>block_29</title>
<ellipse fill="none" stroke="#000000" cx="4796" cy="-491.3005" rx="55.6542" ry="18"/>
<text text-anchor="middle" x="4796" y="-487.1005" font-family="Helvetica,sans-Serif" font-size="14.00" fill="#000000">block 40&#45;45</text>
</g>
<!-- section_6&#45;&gt;block_29 -->
<g id="edge29" class="edge">
<title>section_6&#45;&gt;block_29</title>
<path fill="none" stroke="#000000" stroke-dasharray="5,2" d="M4858.9834,-1056.02C4849.6486,-972.323 4810.6037,-622.2397 4799.163,-519.6608"/>
<polygon fill="#000000" stroke="#000000" points="4802.6121,-519.0088 4798.0252,-509.4584 4795.6553,-519.7848 4802.6121,-519.0088"/>
</g>
<!-- block_30 -->
<g id="node31" class="node">
<title>block_30</title>
<ellipse fill="none" stroke="#000000" cx="4926" cy="-491.3005" rx="55.6542" ry="18"/>
<text text-anchor="middle" x="4926" y="-487.1005" font-family="Helvetica,sans-Serif" font-size="14.00" fill="#000000">block 46&#45;55</text>
</g>
<!-- section_6&#45;&gt;block_30 -->
<g id="edge30" class="edge">
<title>section_6&#45;&gt;block_30</title>
<path fill="none" stroke="#000000" stroke-dasharray="5,2" d="M4863.0166,-1056.02C4872.3514,-972.323 4911.3963,-622.2397 4922.837,-519.6608"/>
<polygon fill="#000000" stroke="#000000" points="4926.3447,-519.7848 4923.9748,-509.4584 4919.3879,-519.0088 4926.3447,-519.7848"/>
</g>
<!-- section_31 -->
<g id="node32" class="node">
<title>section_31</title>
<ellipse fill="none" stroke="#000000" cx="5155" cy="-491.3005" rx="65.8187" ry="18"/>
<text text-anchor="middle" x="5155" y="-487.1005" font-family="Helvetica,sans-Serif" font-size="14.00" fill="#000000">section: 49&#45;55</text>
</g>
<!-- section_6&#45;&gt;section_31 -->
<g id="edge31" class="edge">
<title>section_6&#45;&gt;section_31</title>
<path fill="none" stroke="#000000" stroke-dasharray="5,2" d="M4860.7999,-1055.7824C4861.1159,-1004.0261 4868.2004,-854.2047 4936,-757.6007 4952.7832,-733.6873 4969.9403,-741.8497 4991,-721.6007 5057.3957,-657.761 5114.5725,-563.7689 5140.3703,-518.1309"/>
<polygon fill="#000000" stroke="#000000" points="5143.5641,-519.5905 5145.391,-509.1544 5137.4548,-516.1734 5143.5641,-519.5905"/>
</g>
<!-- section_32 -->
<g id="node33" class="node">
<title>section_32</title>
<ellipse fill="none" stroke="#000000" cx="5900" cy="-491.3005" rx="65.8187" ry="18"/>
<text text-anchor="middle" x="5900" y="-487.1005" font-family="Helvetica,sans-Serif" font-size="14.00" fill="#000000">section: 56&#45;60</text>
</g>
<!-- section_6&#45;&gt;section_32 -->
<g id="edge32" class="edge">
<title>section_6&#45;&gt;section_32</title>
<path fill="none" stroke="#000000" stroke-dasharray="5,2" d="M4858.943,-1055.9553C4853.8666,-1001.3203 4846.9999,-837.2456 4936,-757.6007 4985.0491,-713.7074 5165.8593,-736.3796 5230,-721.6007 5471.7589,-665.8962 5748.4826,-555.0029 5854.9917,-510.4684"/>
<polygon fill="#000000" stroke="#000000" points="5856.5954,-513.5912 5864.463,-506.4953 5853.8875,-507.1362 5856.5954,-513.5912"/>
</g>
<!-- leaf_45 -->
<g id="node46" class="node">
<title>leaf_45</title>
<polygon fill="none" stroke="#c0c0c0" points="6538.5,-629.0008 5983.5,-629.0008 5983.5,-353.6001 6538.5,-353.6001 6538.5,-629.0008"/>
<text text-anchor="middle" x="6261" y="-613.7006" font-family="Inconsolata" font-size="14.00" fill="#000000">** Node metatable</text>
<text text-anchor="middle" x="6261" y="-566.3005" font-family="Inconsolata" font-size="14.00" fill="#000000"> &#160;This is currently constructed wildly and piecemeal. &#160;It also does important</text>
<text text-anchor="middle" x="6261" y="-550.9005" font-family="Inconsolata" font-size="14.00" fill="#000000">work. </text>
<text text-anchor="middle" x="6261" y="-519.5005" font-family="Inconsolata" font-size="14.00" fill="#000000">Best methods are:</text>
<text text-anchor="middle" x="6261" y="-472.1005" font-family="Inconsolata" font-size="14.00" fill="#000000">*** dot</text>
<text text-anchor="middle" x="6261" y="-440.7004" font-family="Inconsolata" font-size="14.00" fill="#000000"> &#160;Some of my most recent code, this prints the AST as a dot file. </text>
<text text-anchor="middle" x="6261" y="-409.3004" font-family="Inconsolata" font-size="14.00" fill="#000000">It is now reasonably documented in [[src/peg/transform.lua]].</text>
<text text-anchor="middle" x="6261" y="-361.9004" font-family="Inconsolata" font-size="14.00" fill="#000000">*</text>
</g>
<!-- section_6&#45;&gt;leaf_45 -->
<g id="edge45" class="edge">
<title>section_6&#45;&gt;leaf_45</title>
<path fill="none" stroke="#000000" stroke-dasharray="5,2" d="M4858.6781,-1055.9896C4852.7325,-1000.7337 4843.3944,-833.4693 4936,-757.6007 5025.3552,-684.3951 5866.7406,-761.8911 5975,-721.6007 6026.4645,-702.4474 6075.676,-670.1093 6118.3239,-635.6277"/>
<polygon fill="#000000" stroke="#000000" points="6120.6925,-638.2119 6126.2098,-629.167 6116.2563,-632.797 6120.6925,-638.2119"/>
</g>
<!-- leaf_11 -->
<g id="node12" class="node">
<title>leaf_11</title>
<polygon fill="none" stroke="#c0c0c0" points="562,-185.5005 0,-185.5005 0,-130.8997 562,-130.8997 562,-185.5005"/>
<text text-anchor="middle" x="281" y="-154.4001" font-family="Inconsolata" font-size="14.00" fill="#000000"> &#160;The behavior of abstract syntax trees in `pegylator` is provided by the Node</text>
<text text-anchor="middle" x="281" y="-139.0001" font-family="Inconsolata" font-size="14.00" fill="#000000">class.</text>
</g>
<!-- block_9&#45;&gt;leaf_11 -->
<g id="edge11" class="edge">
<title>block_9&#45;&gt;leaf_11</title>
<path fill="none" stroke="#000000" stroke-dasharray="5,2" d="M1492.1261,-473.2535C1496.2215,-428.9022 1499.7285,-314.3148 1435,-261.0002 1397.9177,-230.4567 618.6109,-231.4194 571,-225.0002 510.1447,-216.7952 443.2878,-201.8104 389.119,-188.1097"/>
<polygon fill="#000000" stroke="#000000" points="389.7113,-184.6488 379.1565,-185.5683 387.981,-191.4316 389.7113,-184.6488"/>
</g>
<!-- leaf_12 -->
<g id="node13" class="node">
<title>leaf_12</title>
<polygon fill="none" stroke="#c0c0c0" points="1135.5,-185.5005 580.5,-185.5005 580.5,-130.8997 1135.5,-130.8997 1135.5,-185.5005"/>
<text text-anchor="middle" x="858" y="-170.4001" font-family="Inconsolata" font-size="14.00" fill="#000000">This is in turn poorly specified and full of exploratory code that is in need</text>
<text text-anchor="middle" x="858" y="-155.0001" font-family="Inconsolata" font-size="14.00" fill="#000000">of a few once&#45;overs.</text>
</g>
<!-- block_10&#45;&gt;leaf_12 -->
<g id="edge12" class="edge">
<title>block_10&#45;&gt;leaf_12</title>
<path fill="none" stroke="#000000" stroke-dasharray="5,2" d="M1605.6456,-473.0824C1608.5223,-428.8487 1608.9761,-315.4224 1545,-261.0002 1477.0207,-203.1724 1233.1193,-239.1503 1145,-225.0002 1086.6305,-215.6272 1022.4778,-201.105 969.6561,-187.9921"/>
<polygon fill="#000000" stroke="#000000" points="970.4792,-184.5902 959.929,-185.5615 968.7822,-191.3814 970.4792,-184.5902"/>
</g>
<!-- leaf_21 -->
<g id="node22" class="node">
<title>leaf_21</title>
<polygon fill="none" stroke="#c0c0c0" points="1660,-186.1016 1154,-186.1016 1154,-130.2986 1660,-130.2986 1660,-186.1016"/>
<text text-anchor="middle" x="1407" y="-138.7001" font-family="Inconsolata" font-size="14.00" fill="#000000"> &#160;To be a Node, all indexed elements of the Array must also be Nodes. </text>
</g>
<!-- block_15&#45;&gt;leaf_21 -->
<g id="edge21" class="edge">
<title>block_15&#45;&gt;leaf_21</title>
<path fill="none" stroke="#000000" stroke-dasharray="5,2" d="M2445.2457,-473.1949C2447.1945,-428.7096 2445.2618,-313.8408 2379,-261.0002 2317.2423,-211.7513 1747.1015,-236.8162 1669,-225.0002 1614.8315,-216.805 1555.599,-202.1983 1507.1782,-188.7293"/>
<polygon fill="#000000" stroke="#000000" points="1507.9036,-185.2977 1497.3297,-185.9642 1506.0114,-192.0371 1507.9036,-185.2977"/>
</g>
<!-- leaf_22 -->
<g id="node23" class="node">
<title>leaf_22</title>
<polygon fill="none" stroke="#c0c0c0" points="2219.5,-224.0005 1678.5,-224.0005 1678.5,-92.3997 2219.5,-92.3997 2219.5,-224.0005"/>
<text text-anchor="middle" x="1949" y="-208.9002" font-family="Inconsolata" font-size="14.00" fill="#000000">There are invariant fields a Node is also expected to have, they are:</text>
<text text-anchor="middle" x="1949" y="-193.5002" font-family="Inconsolata" font-size="14.00" fill="#000000"> </text>
<text text-anchor="middle" x="1949" y="-178.1001" font-family="Inconsolata" font-size="14.00" fill="#000000"> &#160;&#45; `first` : &#160;Index into `str` which begins the span.</text>
<text text-anchor="middle" x="1949" y="-162.7001" font-family="Inconsolata" font-size="14.00" fill="#000000"> &#160;&#45; `last` &#160;: &#160;Index into `str` which ends the span.</text>
<text text-anchor="middle" x="1949" y="-147.3001" font-family="Inconsolata" font-size="14.00" fill="#000000"> &#160;&#45; `id` &#160;&#160;&#160;: &#160;A string naming the Node. </text>
<text text-anchor="middle" x="1949" y="-131.9" font-family="Inconsolata" font-size="14.00" fill="#000000"> &#160;&#160;&#160;&#160;&#160;&#160;&#160;&#160;&#160;&#160;&#160;&#160;&#160;&#160;This is identical to the name of the pattern that recognizes</text>
<text text-anchor="middle" x="1949" y="-116.5" font-family="Inconsolata" font-size="14.00" fill="#000000"> &#160;&#160;&#160;&#160;&#160;&#160;&#160;&#160;&#160;&#160;&#160;&#160;&#160;&#160;or captures it.</text>
</g>
<!-- block_16&#45;&gt;leaf_22 -->
<g id="edge22" class="edge">
<title>block_16&#45;&gt;leaf_22</title>
<path fill="none" stroke="#000000" stroke-dasharray="5,2" d="M2574.9971,-473.1834C2576.33,-429.1771 2573.0157,-316.2231 2509,-261.0002 2463.6318,-221.8634 2305.8047,-234.9487 2229.8837,-224.8619"/>
<polygon fill="#000000" stroke="#000000" points="2230.1551,-221.3619 2219.7348,-223.2769 2229.075,-228.2781 2230.1551,-221.3619"/>
</g>
<!-- leaf_23 -->
<g id="node24" class="node">
<title>leaf_23</title>
<polygon fill="none" stroke="#c0c0c0" points="2772,-176.2001 2238,-176.2001 2238,-140.2001 2772,-140.2001 2772,-176.2001"/>
<text text-anchor="middle" x="2505" y="-154.7001" font-family="Inconsolata" font-size="14.00" fill="#000000">There are other fields which are of less obvious value, which still exist:</text>
</g>
<!-- block_17&#45;&gt;leaf_23 -->
<g id="edge23" class="edge">
<title>block_17&#45;&gt;leaf_23</title>
<path fill="none" stroke="#000000" stroke-dasharray="5,2" d="M2702.7499,-473.2427C2699.1376,-432.1633 2685.7399,-329.9478 2639,-261.0002 2616.0381,-227.1282 2578.2866,-199.6351 2548.6956,-181.6328"/>
<polygon fill="#000000" stroke="#000000" points="2550.1856,-178.4472 2539.7996,-176.354 2546.6134,-184.4671 2550.1856,-178.4472"/>
</g>
<!-- leaf_24 -->
<g id="node25" class="node">
<title>leaf_24</title>
<polygon fill="none" stroke="#c0c0c0" points="3275.5,-200.7002 2790.5,-200.7002 2790.5,-115.6999 3275.5,-115.6999 3275.5,-200.7002"/>
<text text-anchor="middle" x="3033" y="-185.5002" font-family="Inconsolata" font-size="14.00" fill="#000000"> &#160;&#45; `str` &#160;: a &quot;string&quot; covering the whole abstract syntax tree.</text>
<text text-anchor="middle" x="3033" y="-170.1001" font-family="Inconsolata" font-size="14.00" fill="#000000"> &#160;&#160;&#160;&#160;&#160;&#160;&#160;&#160;&#160;&#160;&#160;&#160;This is normally found on root for which see:</text>
<text text-anchor="middle" x="3033" y="-154.7001" font-family="Inconsolata" font-size="14.00" fill="#000000"> &#160;&#45; `root` : a function which, called, returns the root node.</text>
<text text-anchor="middle" x="3033" y="-139.3001" font-family="Inconsolata" font-size="14.00" fill="#000000"> &#160;&#160;&#160;&#160;&#160;&#160;&#160;&#160;&#160;&#160;&#160;&#160;I was impressed with this idea when I came up with it.</text>
<text text-anchor="middle" x="3033" y="-123.9" font-family="Inconsolata" font-size="14.00" fill="#000000"> &#160;&#160;&#160;&#160;&#160;&#160;&#160;&#160;&#160;&#160;&#160;&#160;Haven&#39;t been getting much use out of it.</text>
</g>
<!-- block_18&#45;&gt;leaf_24 -->
<g id="edge24" class="edge">
<title>block_18&#45;&gt;leaf_24</title>
<path fill="none" stroke="#000000" stroke-dasharray="5,2" d="M2835.2501,-473.2427C2838.8624,-432.1633 2852.2601,-329.9478 2899,-261.0002 2912.9544,-240.4156 2932.3708,-222.1869 2952.0983,-207.0125"/>
<polygon fill="#000000" stroke="#000000" points="2954.3411,-209.7058 2960.2566,-200.9161 2950.1509,-204.0984 2954.3411,-209.7058"/>
</g>
<!-- leaf_25 -->
<g id="node26" class="node">
<title>leaf_25</title>
<polygon fill="none" stroke="#c0c0c0" points="3848.5,-177.5007 3293.5,-177.5007 3293.5,-138.8995 3848.5,-138.8995 3848.5,-177.5007"/>
<text text-anchor="middle" x="3571" y="-162.4001" font-family="Inconsolata" font-size="14.00" fill="#000000">An important optional field, if a Node has a semantic span (such as a symbol)</text>
<text text-anchor="middle" x="3571" y="-147.0001" font-family="Inconsolata" font-size="14.00" fill="#000000">then it will have:</text>
</g>
<!-- block_19&#45;&gt;leaf_25 -->
<g id="edge25" class="edge">
<title>block_19&#45;&gt;leaf_25</title>
<path fill="none" stroke="#000000" stroke-dasharray="5,2" d="M2963.0462,-473.2333C2961.8107,-429.3392 2965.3273,-316.6183 3029,-261.0002 3072.1009,-223.3515 3227.7423,-235.4971 3284,-225.0002 3352.4348,-212.2311 3429.209,-194.1623 3486.12,-180.036"/>
<polygon fill="#000000" stroke="#000000" points="3487.2934,-183.3507 3496.1501,-177.5361 3485.6005,-176.5585 3487.2934,-183.3507"/>
</g>
<!-- leaf_26 -->
<g id="node27" class="node">
<title>leaf_26</title>
<polygon fill="none" stroke="#c0c0c0" points="4267.5,-178.1022 3866.5,-178.1022 3866.5,-138.298 4267.5,-138.298 4267.5,-178.1022"/>
<text text-anchor="middle" x="4067" y="-162.7001" font-family="Inconsolata" font-size="14.00" fill="#000000"> &#160;&#45; `val` : &#160;The substring of value to the syntax tree.</text>
</g>
<!-- block_20&#45;&gt;leaf_26 -->
<g id="edge26" class="edge">
<title>block_20&#45;&gt;leaf_26</title>
<path fill="none" stroke="#000000" stroke-dasharray="5,2" d="M3092.6721,-473.2069C3090.5219,-428.7492 3091.9384,-313.9383 3158,-261.0002 3218.7746,-212.2987 3781.3829,-238.9714 3858,-225.0002 3909.8671,-215.5421 3966.7405,-196.7857 4008.0465,-181.5496"/>
<polygon fill="#000000" stroke="#000000" points="4009.5241,-184.7341 4017.6702,-177.9597 4007.0775,-178.1755 4009.5241,-184.7341"/>
</g>
<!-- leaf_33 -->
<g id="node34" class="node">
<title>leaf_33</title>
<polygon fill="none" stroke="#c0c0c0" points="4840.5,-193.5004 4285.5,-193.5004 4285.5,-122.8997 4840.5,-122.8997 4840.5,-193.5004"/>
<text text-anchor="middle" x="4563" y="-146.4001" font-family="Inconsolata" font-size="14.00" fill="#000000"> &#160;This is currently constructed wildly and piecemeal. &#160;It also does important</text>
<text text-anchor="middle" x="4563" y="-131.0001" font-family="Inconsolata" font-size="14.00" fill="#000000">work. </text>
</g>
<!-- block_29&#45;&gt;leaf_33 -->
<g id="edge33" class="edge">
<title>block_29&#45;&gt;leaf_33</title>
<path fill="none" stroke="#000000" stroke-dasharray="5,2" d="M4795.2713,-473.1942C4792.7389,-431.5729 4781.428,-327.5589 4731,-261.0002 4711.5286,-235.3004 4683.6082,-214.5858 4656.1047,-198.6707"/>
<polygon fill="#000000" stroke="#000000" points="4657.6341,-195.5155 4647.2008,-193.6718 4654.2072,-201.6193 4657.6341,-195.5155"/>
</g>
<!-- leaf_34 -->
<g id="node35" class="node">
<title>leaf_34</title>
<polygon fill="none" stroke="#c0c0c0" points="4993.5,-178.1022 4858.5,-178.1022 4858.5,-138.298 4993.5,-138.298 4993.5,-178.1022"/>
<text text-anchor="middle" x="4926" y="-162.7001" font-family="Inconsolata" font-size="14.00" fill="#000000">Best methods are:</text>
</g>
<!-- block_30&#45;&gt;leaf_34 -->
<g id="edge34" class="edge">
<title>block_30&#45;&gt;leaf_34</title>
<path fill="none" stroke="#000000" stroke-dasharray="5,2" d="M4926,-472.9171C4926,-418.2672 4926,-256.4012 4926,-188.6061"/>
<polygon fill="#000000" stroke="#000000" points="4929.5001,-188.1929 4926,-178.193 4922.5001,-188.193 4929.5001,-188.1929"/>
</g>
<!-- header_35 -->
<g id="node36" class="node">
<title>header_35</title>
<ellipse fill="none" stroke="#000000" cx="5046" cy="-158.2001" rx="34.8806" ry="18"/>
<text text-anchor="middle" x="5046" y="-154.0001" font-family="Helvetica,sans-Serif" font-size="14.00" fill="#000000">3 : dot</text>
</g>
<!-- section_31&#45;&gt;header_35 -->
<g id="edge35" class="edge">
<title>section_31&#45;&gt;header_35</title>
<path fill="none" stroke="#000000" stroke-dasharray="5,2" d="M5148.9844,-472.9171C5130.8527,-417.5072 5076.6543,-251.8785 5055.0422,-185.8328"/>
<polygon fill="#000000" stroke="#000000" points="5058.3004,-184.5356 5051.8639,-176.1201 5051.6476,-186.7127 5058.3004,-184.5356"/>
</g>
<!-- block_36 -->
<g id="node37" class="node">
<title>block_36</title>
<ellipse fill="none" stroke="#000000" cx="5155" cy="-158.2001" rx="55.6542" ry="18"/>
<text text-anchor="middle" x="5155" y="-154.0001" font-family="Helvetica,sans-Serif" font-size="14.00" fill="#000000">block 49&#45;52</text>
</g>
<!-- section_31&#45;&gt;block_36 -->
<g id="edge36" class="edge">
<title>section_31&#45;&gt;block_36</title>
<path fill="none" stroke="#000000" stroke-dasharray="5,2" d="M5155,-472.9171C5155,-417.7504 5155,-253.3304 5155,-186.7083"/>
<polygon fill="#000000" stroke="#000000" points="5158.5001,-186.5266 5155,-176.5267 5151.5001,-186.5267 5158.5001,-186.5266"/>
</g>
<!-- block_37 -->
<g id="node38" class="node">
<title>block_37</title>
<ellipse fill="none" stroke="#000000" cx="5285" cy="-158.2001" rx="55.6542" ry="18"/>
<text text-anchor="middle" x="5285" y="-154.0001" font-family="Helvetica,sans-Serif" font-size="14.00" fill="#000000">block 53&#45;55</text>
</g>
<!-- section_31&#45;&gt;block_37 -->
<g id="edge37" class="edge">
<title>section_31&#45;&gt;block_37</title>
<path fill="none" stroke="#000000" stroke-dasharray="5,2" d="M5161.9894,-473.3915C5183.4595,-418.3785 5248.5563,-251.5803 5274.3291,-185.5423"/>
<polygon fill="#000000" stroke="#000000" points="5277.6008,-186.7858 5277.9761,-176.1976 5271.0799,-184.2408 5277.6008,-186.7858"/>
</g>
<!-- leaf_40 -->
<g id="node41" class="node">
<title>leaf_40</title>
<polygon fill="none" stroke="#c0c0c0" points="5837,-224.8008 5359,-224.8008 5359,-91.5994 5837,-91.5994 5837,-224.8008"/>
<text text-anchor="middle" x="5598" y="-209.8002" font-family="Inconsolata" font-size="14.00" fill="#000000">*** dot</text>
<text text-anchor="middle" x="5598" y="-178.4001" font-family="Inconsolata" font-size="14.00" fill="#000000"> &#160;Some of my most recent code, this prints the AST as a dot file. </text>
<text text-anchor="middle" x="5598" y="-147.0001" font-family="Inconsolata" font-size="14.00" fill="#000000">It is now reasonably documented in [[src/peg/transform.lua]].</text>
<text text-anchor="middle" x="5598" y="-99.6001" font-family="Inconsolata" font-size="14.00" fill="#000000">*</text>
</g>
<!-- section_31&#45;&gt;leaf_40 -->
<g id="edge40" class="edge">
<title>section_31&#45;&gt;leaf_40</title>
<path fill="none" stroke="#000000" stroke-dasharray="5,2" d="M5177.5775,-474.324C5236.2612,-430.1986 5396.309,-309.8555 5501.1378,-231.0326"/>
<polygon fill="#000000" stroke="#000000" points="5503.3265,-233.766 5509.2157,-224.9588 5499.1196,-228.1712 5503.3265,-233.766"/>
</g>
<!-- header_41 -->
<g id="node42" class="node">
<title>header_41</title>
<ellipse fill="none" stroke="#000000" cx="5900" cy="-158.2001" rx="45.4959" ry="18"/>
<text text-anchor="middle" x="5900" y="-154.0001" font-family="Helvetica,sans-Serif" font-size="14.00" fill="#000000">3 : select</text>
</g>
<!-- section_32&#45;&gt;header_41 -->
<g id="edge41" class="edge">
<title>section_32&#45;&gt;header_41</title>
<path fill="none" stroke="#000000" stroke-dasharray="5,2" d="M5900,-472.9171C5900,-417.7504 5900,-253.3304 5900,-186.7083"/>
<polygon fill="#000000" stroke="#000000" points="5903.5001,-186.5266 5900,-176.5267 5896.5001,-186.5267 5903.5001,-186.5266"/>
</g>
<!-- block_42 -->
<g id="node43" class="node">
<title>block_42</title>
<ellipse fill="none" stroke="#000000" cx="6019" cy="-158.2001" rx="55.6542" ry="18"/>
<text text-anchor="middle" x="6019" y="-154.0001" font-family="Helvetica,sans-Serif" font-size="14.00" fill="#000000">block 56&#45;60</text>
</g>
<!-- section_32&#45;&gt;block_42 -->
<g id="edge42" class="edge">
<title>section_32&#45;&gt;block_42</title>
<path fill="none" stroke="#000000" stroke-dasharray="5,2" d="M5905.2929,-473.1936C5916.8578,-434.0799 5945.6995,-338.932 5975,-261.0002 5984.7463,-235.0775 5997.2936,-206.1233 6006.4937,-185.566"/>
<polygon fill="#000000" stroke="#000000" points="6009.7972,-186.7539 6010.7142,-176.1988 6003.4152,-183.8783 6009.7972,-186.7539"/>
</g>
<!-- leaf_44 -->
<g id="node45" class="node">
<title>leaf_44</title>
<polygon fill="none" stroke="#c0c0c0" points="6543,-185.5005 6093,-185.5005 6093,-130.8997 6543,-130.8997 6543,-185.5005"/>
<text text-anchor="middle" x="6318" y="-170.4001" font-family="Inconsolata" font-size="14.00" fill="#000000">*** select</text>
<text text-anchor="middle" x="6318" y="-139.0001" font-family="Inconsolata" font-size="14.00" fill="#000000"> &#160;Select pulls out sub Nodes which fulfill certain predicates.</text>
</g>
<!-- section_32&#45;&gt;leaf_44 -->
<g id="edge44" class="edge">
<title>section_32&#45;&gt;leaf_44</title>
<path fill="none" stroke="#000000" stroke-dasharray="5,2" d="M5900.476,-473.1249C5902.6104,-429.9672 5914.0822,-320.4945 5975,-261.0002 5979.4722,-256.6324 6113.806,-217.1494 6213.0026,-188.4152"/>
<polygon fill="#000000" stroke="#000000" points="6214.1569,-191.7248 6222.7893,-185.5821 6212.2104,-185.0009 6214.1569,-191.7248"/>
</g>
<!-- leaf_38 -->
<g id="node39" class="node">
<title>leaf_38</title>
<polygon fill="none" stroke="#c0c0c0" points="5179,-47.6021 4701,-47.6021 4701,-7.7979 5179,-7.7979 5179,-47.6021"/>
<text text-anchor="middle" x="4940" y="-16.2" font-family="Inconsolata" font-size="14.00" fill="#000000"> &#160;Some of my most recent code, this prints the AST as a dot file. </text>
</g>
<!-- block_36&#45;&gt;leaf_38 -->
<g id="edge38" class="edge">
<title>block_36&#45;&gt;leaf_38</title>
<path fill="none" stroke="#000000" stroke-dasharray="5,2" d="M5141.3409,-140.6717C5129.1535,-125.9636 5110.1619,-105.203 5090,-91.4 5065.9849,-74.9591 5037.05,-61.4457 5011.0267,-51.1617"/>
<polygon fill="#000000" stroke="#000000" points="5012.175,-47.8533 5001.5854,-47.5196 5009.6556,-54.3842 5012.175,-47.8533"/>
</g>
<!-- leaf_39 -->
<g id="node40" class="node">
<title>leaf_39</title>
<polygon fill="none" stroke="#c0c0c0" points="5640.5,-47.6021 5197.5,-47.6021 5197.5,-7.7979 5640.5,-7.7979 5640.5,-47.6021"/>
<text text-anchor="middle" x="5419" y="-32.2" font-family="Inconsolata" font-size="14.00" fill="#000000">It is now reasonably documented in [[src/peg/transform.lua]].</text>
</g>
<!-- block_37&#45;&gt;leaf_39 -->
<g id="edge39" class="edge">
<title>block_37&#45;&gt;leaf_39</title>
<path fill="none" stroke="#000000" stroke-dasharray="5,2" d="M5301.316,-140.9297C5314.3149,-127.2936 5333.0767,-107.8846 5350,-91.4 5362.7662,-78.9647 5377.2109,-65.5348 5389.5729,-54.2269"/>
<polygon fill="#000000" stroke="#000000" points="5391.9335,-56.811 5396.9672,-47.4883 5387.2185,-51.6371 5391.9335,-56.811"/>
</g>
<!-- leaf_43 -->
<g id="node44" class="node">
<title>leaf_43</title>
<polygon fill="none" stroke="#c0c0c0" points="6244,-55.6015 5794,-55.6015 5794,.2015 6244,.2015 6244,-55.6015"/>
<text text-anchor="middle" x="6019" y="-24.2" font-family="Inconsolata" font-size="14.00" fill="#000000"> &#160;Select pulls out sub Nodes which fulfill certain predicates.</text>
</g>
<!-- block_42&#45;&gt;leaf_43 -->
<g id="edge43" class="edge">
<title>block_42&#45;&gt;leaf_43</title>
<path fill="none" stroke="#000000" stroke-dasharray="5,2" d="M6019,-140.0546C6019,-120.9351 6019,-90.2617 6019,-65.7914"/>
<polygon fill="#000000" stroke="#000000" points="6022.5001,-65.7356 6019,-55.7356 6015.5001,-65.7357 6022.5001,-65.7356"/>
</g>
</g>
</svg>