<?xml version="1.0" encoding="UTF-8" standalone="no"?>
<!DOCTYPE svg PUBLIC "-//W3C//DTD SVG 1.1//EN"
 "http://www.w3.org/Graphics/SVG/1.1/DTD/svg11.dtd">
<!-- Generated by graphviz version 2.40.1 (20161225.0304)
 -->
<!-- Title: hierarchy Pages: 1 -->
<svg width="6919pt" height="315pt"
 viewBox="0.00 0.00 6919.34 314.60" xmlns="http://www.w3.org/2000/svg" xmlns:xlink="http://www.w3.org/1999/xlink">
<g id="graph0" class="graph" transform="scale(1 1) rotate(0) translate(4 310.6003)">
<title>hierarchy</title>
<polygon fill="#ffffff" stroke="transparent" points="-4,4 -4,-310.6003 6915.3424,-310.6003 6915.3424,4 -4,4"/>
<!-- doc_0 -->
<g id="node1" class="node">
<title>doc_0</title>
<ellipse fill="none" stroke="#000000" cx="65.6592" cy="-288.6003" rx="46.9581" ry="18"/>
<text text-anchor="middle" x="65.6592" y="-284.4003" font-family="Helvetica,sans-Serif" font-size="14.00" fill="#000000">doc &#45; 508</text>
</g>
<!-- section_1 -->
<g id="node2" class="node">
<title>section_1</title>
<ellipse fill="none" stroke="#000000" cx="65.6592" cy="-153.3001" rx="65.8187" ry="18"/>
<text text-anchor="middle" x="65.6592" y="-149.1001" font-family="Helvetica,sans-Serif" font-size="14.00" fill="#000000">section: 1&#45;224</text>
</g>
<!-- doc_0&#45;&gt;section_1 -->
<g id="edge1" class="edge">
<title>doc_0&#45;&gt;section_1</title>
<path fill="none" stroke="#000000" stroke-dasharray="5,2" d="M65.6592,-270.3531C65.6592,-247.6571 65.6592,-208.6494 65.6592,-181.9502"/>
<polygon fill="#000000" stroke="#000000" points="69.1593,-181.6903 65.6592,-171.6903 62.1593,-181.6904 69.1593,-181.6903"/>
</g>
<!-- header_2 -->
<g id="node3" class="node">
<title>header_2</title>
<ellipse fill="none" stroke="#000000" cx="65.6592" cy="-18" rx="64.8151" ry="18"/>
<text text-anchor="middle" x="65.6592" y="-13.8" font-family="Helvetica,sans-Serif" font-size="14.00" fill="#000000">1 : Orb format</text>
</g>
<!-- section_1&#45;&gt;header_2 -->
<g id="edge2" class="edge">
<title>section_1&#45;&gt;header_2</title>
<path fill="none" stroke="#000000" stroke-dasharray="5,2" d="M65.6592,-135.053C65.6592,-112.357 65.6592,-73.3493 65.6592,-46.6501"/>
<polygon fill="#000000" stroke="#000000" points="69.1593,-46.3902 65.6592,-36.3902 62.1593,-46.3902 69.1593,-46.3902"/>
</g>
<!-- section_3 -->
<g id="node4" class="node">
<title>section_3</title>
<ellipse fill="none" stroke="#000000" cx="227.6592" cy="-288.6003" rx="47.9272" ry="18"/>
<text text-anchor="middle" x="227.6592" y="-284.4003" font-family="Helvetica,sans-Serif" font-size="14.00" fill="#000000">section_3</text>
</g>
<!-- header_9 -->
<g id="node5" class="node">
<title>header_9</title>
<ellipse fill="none" stroke="#000000" cx="227.6592" cy="-153.3001" rx="78.3988" ry="18"/>
<text text-anchor="middle" x="227.6592" y="-149.1001" font-family="Helvetica,sans-Serif" font-size="14.00" fill="#000000">2 : Metalanguage</text>
</g>
<!-- section_3&#45;&gt;header_9 -->
<g id="edge3" class="edge">
<title>section_3&#45;&gt;header_9</title>
<path fill="none" stroke="#000000" stroke-dasharray="5,2" d="M227.6592,-270.3531C227.6592,-247.6571 227.6592,-208.6494 227.6592,-181.9502"/>
<polygon fill="#000000" stroke="#000000" points="231.1593,-181.6903 227.6592,-171.6903 224.1593,-181.6904 231.1593,-181.6903"/>
</g>
<!-- section_4 -->
<g id="node6" class="node">
<title>section_4</title>
<ellipse fill="none" stroke="#000000" cx="369.6592" cy="-288.6003" rx="47.9272" ry="18"/>
<text text-anchor="middle" x="369.6592" y="-284.4003" font-family="Helvetica,sans-Serif" font-size="14.00" fill="#000000">section_4</text>
</g>
<!-- header_10 -->
<g id="node7" class="node">
<title>header_10</title>
<ellipse fill="none" stroke="#000000" cx="369.6592" cy="-153.3001" rx="45.4959" ry="18"/>
<text text-anchor="middle" x="369.6592" y="-149.1001" font-family="Helvetica,sans-Serif" font-size="14.00" fill="#000000">2 : Goals</text>
</g>
<!-- section_4&#45;&gt;header_10 -->
<g id="edge4" class="edge">
<title>section_4&#45;&gt;header_10</title>
<path fill="none" stroke="#000000" stroke-dasharray="5,2" d="M369.6592,-270.3531C369.6592,-247.6571 369.6592,-208.6494 369.6592,-181.9502"/>
<polygon fill="#000000" stroke="#000000" points="373.1593,-181.6903 369.6592,-171.6903 366.1593,-181.6904 373.1593,-181.6903"/>
</g>
<!-- section_5 -->
<g id="node8" class="node">
<title>section_5</title>
<ellipse fill="none" stroke="#000000" cx="492.6592" cy="-288.6003" rx="47.9272" ry="18"/>
<text text-anchor="middle" x="492.6592" y="-284.4003" font-family="Helvetica,sans-Serif" font-size="14.00" fill="#000000">section_5</text>
</g>
<!-- header_11 -->
<g id="node9" class="node">
<title>header_11</title>
<ellipse fill="none" stroke="#000000" cx="492.6592" cy="-153.3001" rx="59.0463" ry="18"/>
<text text-anchor="middle" x="492.6592" y="-149.1001" font-family="Helvetica,sans-Serif" font-size="14.00" fill="#000000">2 : Encoding</text>
</g>
<!-- section_5&#45;&gt;header_11 -->
<g id="edge5" class="edge">
<title>section_5&#45;&gt;header_11</title>
<path fill="none" stroke="#000000" stroke-dasharray="5,2" d="M492.6592,-270.3531C492.6592,-247.6571 492.6592,-208.6494 492.6592,-181.9502"/>
<polygon fill="#000000" stroke="#000000" points="496.1593,-181.6903 492.6592,-171.6903 489.1593,-181.6904 496.1593,-181.6903"/>
</g>
<!-- section_12 -->
<g id="node10" class="node">
<title>section_12</title>
<ellipse fill="none" stroke="#000000" cx="611.6592" cy="-288.6003" rx="52.7641" ry="18"/>
<text text-anchor="middle" x="611.6592" y="-284.4003" font-family="Helvetica,sans-Serif" font-size="14.00" fill="#000000">section_12</text>
</g>
<!-- header_13 -->
<g id="node11" class="node">
<title>header_13</title>
<ellipse fill="none" stroke="#000000" cx="611.6592" cy="-153.3001" rx="40.8417" ry="18"/>
<text text-anchor="middle" x="611.6592" y="-149.1001" font-family="Helvetica,sans-Serif" font-size="14.00" fill="#000000">4 : Tabs</text>
</g>
<!-- section_12&#45;&gt;header_13 -->
<g id="edge6" class="edge">
<title>section_12&#45;&gt;header_13</title>
<path fill="none" stroke="#000000" stroke-dasharray="5,2" d="M611.6592,-270.3531C611.6592,-247.6571 611.6592,-208.6494 611.6592,-181.9502"/>
<polygon fill="#000000" stroke="#000000" points="615.1593,-181.6903 611.6592,-171.6903 608.1593,-181.6904 615.1593,-181.6903"/>
</g>
<!-- section_6 -->
<g id="node12" class="node">
<title>section_6</title>
<ellipse fill="none" stroke="#000000" cx="771.6592" cy="-288.6003" rx="47.9272" ry="18"/>
<text text-anchor="middle" x="771.6592" y="-284.4003" font-family="Helvetica,sans-Serif" font-size="14.00" fill="#000000">section_6</text>
</g>
<!-- header_14 -->
<g id="node13" class="node">
<title>header_14</title>
<ellipse fill="none" stroke="#000000" cx="771.6592" cy="-153.3001" rx="101.092" ry="18"/>
<text text-anchor="middle" x="771.6592" y="-149.1001" font-family="Helvetica,sans-Serif" font-size="14.00" fill="#000000">2 : Prose and Structure</text>
</g>
<!-- section_6&#45;&gt;header_14 -->
<g id="edge7" class="edge">
<title>section_6&#45;&gt;header_14</title>
<path fill="none" stroke="#000000" stroke-dasharray="5,2" d="M771.6592,-270.3531C771.6592,-247.6571 771.6592,-208.6494 771.6592,-181.9502"/>
<polygon fill="#000000" stroke="#000000" points="775.1593,-181.6903 771.6592,-171.6903 768.1593,-181.6904 775.1593,-181.6903"/>
</g>
<!-- section_7 -->
<g id="node14" class="node">
<title>section_7</title>
<ellipse fill="none" stroke="#000000" cx="955.6592" cy="-288.6003" rx="47.9272" ry="18"/>
<text text-anchor="middle" x="955.6592" y="-284.4003" font-family="Helvetica,sans-Serif" font-size="14.00" fill="#000000">section_7</text>
</g>
<!-- header_15 -->
<g id="node15" class="node">
<title>header_15</title>
<ellipse fill="none" stroke="#000000" cx="955.6592" cy="-153.3001" rx="64.8324" ry="18"/>
<text text-anchor="middle" x="955.6592" y="-149.1001" font-family="Helvetica,sans-Serif" font-size="14.00" fill="#000000">2 : Ownership</text>
</g>
<!-- section_7&#45;&gt;header_15 -->
<g id="edge8" class="edge">
<title>section_7&#45;&gt;header_15</title>
<path fill="none" stroke="#000000" stroke-dasharray="5,2" d="M955.6592,-270.3531C955.6592,-247.6571 955.6592,-208.6494 955.6592,-181.9502"/>
<polygon fill="#000000" stroke="#000000" points="959.1593,-181.6903 955.6592,-171.6903 952.1593,-181.6904 959.1593,-181.6903"/>
</g>
<!-- section_16 -->
<g id="node16" class="node">
<title>section_16</title>
<ellipse fill="none" stroke="#000000" cx="1093.6592" cy="-288.6003" rx="52.7641" ry="18"/>
<text text-anchor="middle" x="1093.6592" y="-284.4003" font-family="Helvetica,sans-Serif" font-size="14.00" fill="#000000">section_16</text>
</g>
<!-- header_17 -->
<g id="node17" class="node">
<title>header_17</title>
<ellipse fill="none" stroke="#000000" cx="1093.6592" cy="-153.3001" rx="55.6456" ry="18"/>
<text text-anchor="middle" x="1093.6592" y="-149.1001" font-family="Helvetica,sans-Serif" font-size="14.00" fill="#000000">3 : Blocking</text>
</g>
<!-- section_16&#45;&gt;header_17 -->
<g id="edge9" class="edge">
<title>section_16&#45;&gt;header_17</title>
<path fill="none" stroke="#000000" stroke-dasharray="5,2" d="M1093.6592,-270.3531C1093.6592,-247.6571 1093.6592,-208.6494 1093.6592,-181.9502"/>
<polygon fill="#000000" stroke="#000000" points="1097.1593,-181.6903 1093.6592,-171.6903 1090.1593,-181.6904 1097.1593,-181.6903"/>
</g>
<!-- section_18 -->
<g id="node18" class="node">
<title>section_18</title>
<ellipse fill="none" stroke="#000000" cx="1248.6592" cy="-288.6003" rx="52.7641" ry="18"/>
<text text-anchor="middle" x="1248.6592" y="-284.4003" font-family="Helvetica,sans-Serif" font-size="14.00" fill="#000000">section_18</text>
</g>
<!-- header_19 -->
<g id="node19" class="node">
<title>header_19</title>
<ellipse fill="none" stroke="#000000" cx="1248.6592" cy="-153.3001" rx="80.968" ry="18"/>
<text text-anchor="middle" x="1248.6592" y="-149.1001" font-family="Helvetica,sans-Serif" font-size="14.00" fill="#000000">4 : The Cling Rule</text>
</g>
<!-- section_18&#45;&gt;header_19 -->
<g id="edge10" class="edge">
<title>section_18&#45;&gt;header_19</title>
<path fill="none" stroke="#000000" stroke-dasharray="5,2" d="M1248.6592,-270.3531C1248.6592,-247.6571 1248.6592,-208.6494 1248.6592,-181.9502"/>
<polygon fill="#000000" stroke="#000000" points="1252.1593,-181.6903 1248.6592,-171.6903 1245.1593,-181.6904 1252.1593,-181.6903"/>
</g>
<!-- codeblock_20 -->
<g id="node20" class="node">
<title>codeblock_20</title>
<ellipse fill="none" stroke="#000000" cx="1425.6592" cy="-288.6003" rx="64.8671" ry="18"/>
<text text-anchor="middle" x="1425.6592" y="-284.4003" font-family="Helvetica,sans-Serif" font-size="14.00" fill="#000000">codeblock_20</text>
</g>
<!-- leaf_23 -->
<g id="node21" class="node">
<title>leaf_23</title>
<polygon fill="none" stroke="#c0c0c0" points="1503.6592,-204.5004 1347.6592,-204.5004 1347.6592,-102.0999 1503.6592,-102.0999 1503.6592,-204.5004"/>
<text text-anchor="middle" x="1425.6592" y="-189.2002" font-family="Inconsolata" font-size="14.00" fill="#000000">| x | y | z |</text>
<text text-anchor="middle" x="1425.6592" y="-157.8002" font-family="Inconsolata" font-size="14.00" fill="#000000">#tag</text>
<text text-anchor="middle" x="1425.6592" y="-110.4001" font-family="Inconsolata" font-size="14.00" fill="#000000">someprose on a block</text>
</g>
<!-- codeblock_20&#45;&gt;leaf_23 -->
<g id="edge11" class="edge">
<title>codeblock_20&#45;&gt;leaf_23</title>
<path fill="none" stroke="#000000" stroke-dasharray="5,2" d="M1425.6592,-270.3531C1425.6592,-255.9139 1425.6592,-234.8725 1425.6592,-214.5987"/>
<polygon fill="#000000" stroke="#000000" points="1429.1593,-214.4242 1425.6592,-204.4242 1422.1593,-214.4242 1429.1593,-214.4242"/>
</g>
<!-- codeblock_21 -->
<g id="node22" class="node">
<title>codeblock_21</title>
<ellipse fill="none" stroke="#000000" cx="1599.6592" cy="-288.6003" rx="64.8671" ry="18"/>
<text text-anchor="middle" x="1599.6592" y="-284.4003" font-family="Helvetica,sans-Serif" font-size="14.00" fill="#000000">codeblock_21</text>
</g>
<!-- leaf_24 -->
<g id="node23" class="node">
<title>leaf_24</title>
<polygon fill="none" stroke="#c0c0c0" points="1677.6592,-204.5004 1521.6592,-204.5004 1521.6592,-102.0999 1677.6592,-102.0999 1677.6592,-204.5004"/>
<text text-anchor="middle" x="1599.6592" y="-189.2002" font-family="Inconsolata" font-size="14.00" fill="#000000">| x | y | z |</text>
<text text-anchor="middle" x="1599.6592" y="-141.8002" font-family="Inconsolata" font-size="14.00" fill="#000000">#tag</text>
<text text-anchor="middle" x="1599.6592" y="-110.4001" font-family="Inconsolata" font-size="14.00" fill="#000000">someprose on a block</text>
</g>
<!-- codeblock_21&#45;&gt;leaf_24 -->
<g id="edge12" class="edge">
<title>codeblock_21&#45;&gt;leaf_24</title>
<path fill="none" stroke="#000000" stroke-dasharray="5,2" d="M1599.6592,-270.3531C1599.6592,-255.9139 1599.6592,-234.8725 1599.6592,-214.5987"/>
<polygon fill="#000000" stroke="#000000" points="1603.1593,-214.4242 1599.6592,-204.4242 1596.1593,-214.4242 1603.1593,-214.4242"/>
</g>
<!-- codeblock_22 -->
<g id="node24" class="node">
<title>codeblock_22</title>
<ellipse fill="none" stroke="#000000" cx="1773.6592" cy="-288.6003" rx="64.8671" ry="18"/>
<text text-anchor="middle" x="1773.6592" y="-284.4003" font-family="Helvetica,sans-Serif" font-size="14.00" fill="#000000">codeblock_22</text>
</g>
<!-- leaf_25 -->
<g id="node25" class="node">
<title>leaf_25</title>
<polygon fill="none" stroke="#c0c0c0" points="1851.6592,-196.5005 1695.6592,-196.5005 1695.6592,-110.0998 1851.6592,-110.0998 1851.6592,-196.5005"/>
<text text-anchor="middle" x="1773.6592" y="-181.2002" font-family="Inconsolata" font-size="14.00" fill="#000000">| x | y | z |</text>
<text text-anchor="middle" x="1773.6592" y="-149.8002" font-family="Inconsolata" font-size="14.00" fill="#000000">#tag</text>
<text text-anchor="middle" x="1773.6592" y="-118.4001" font-family="Inconsolata" font-size="14.00" fill="#000000">someprose on a block</text>
</g>
<!-- codeblock_22&#45;&gt;leaf_25 -->
<g id="edge13" class="edge">
<title>codeblock_22&#45;&gt;leaf_25</title>
<path fill="none" stroke="#000000" stroke-dasharray="5,2" d="M1773.6592,-270.3531C1773.6592,-254.0272 1773.6592,-229.2611 1773.6592,-206.7073"/>
<polygon fill="#000000" stroke="#000000" points="1777.1593,-206.5387 1773.6592,-196.5387 1770.1593,-206.5387 1777.1593,-206.5387"/>
</g>
<!-- section_8 -->
<g id="node26" class="node">
<title>section_8</title>
<ellipse fill="none" stroke="#000000" cx="1968.6592" cy="-288.6003" rx="47.9272" ry="18"/>
<text text-anchor="middle" x="1968.6592" y="-284.4003" font-family="Helvetica,sans-Serif" font-size="14.00" fill="#000000">section_8</text>
</g>
<!-- header_26 -->
<g id="node27" class="node">
<title>header_26</title>
<ellipse fill="none" stroke="#000000" cx="1968.6592" cy="-153.3001" rx="98.6608" ry="18"/>
<text text-anchor="middle" x="1968.6592" y="-149.1001" font-family="Helvetica,sans-Serif" font-size="14.00" fill="#000000">2 : Structural elements</text>
</g>
<!-- section_8&#45;&gt;header_26 -->
<g id="edge14" class="edge">
<title>section_8&#45;&gt;header_26</title>
<path fill="none" stroke="#000000" stroke-dasharray="5,2" d="M1968.6592,-270.3531C1968.6592,-247.6571 1968.6592,-208.6494 1968.6592,-181.9502"/>
<polygon fill="#000000" stroke="#000000" points="1972.1593,-181.6903 1968.6592,-171.6903 1965.1593,-181.6904 1972.1593,-181.6903"/>
</g>
<!-- section_27 -->
<g id="node28" class="node">
<title>section_27</title>
<ellipse fill="none" stroke="#000000" cx="2146.6592" cy="-288.6003" rx="52.7641" ry="18"/>
<text text-anchor="middle" x="2146.6592" y="-284.4003" font-family="Helvetica,sans-Serif" font-size="14.00" fill="#000000">section_27</text>
</g>
<!-- header_34 -->
<g id="node29" class="node">
<title>header_34</title>
<ellipse fill="none" stroke="#000000" cx="2146.6592" cy="-153.3001" rx="61.9516" ry="18"/>
<text text-anchor="middle" x="2146.6592" y="-149.1001" font-family="Helvetica,sans-Serif" font-size="14.00" fill="#000000">3 : Headlines</text>
</g>
<!-- section_27&#45;&gt;header_34 -->
<g id="edge15" class="edge">
<title>section_27&#45;&gt;header_34</title>
<path fill="none" stroke="#000000" stroke-dasharray="5,2" d="M2146.6592,-270.3531C2146.6592,-247.6571 2146.6592,-208.6494 2146.6592,-181.9502"/>
<polygon fill="#000000" stroke="#000000" points="2150.1593,-181.6903 2146.6592,-171.6903 2143.1593,-181.6904 2150.1593,-181.6903"/>
</g>
<!-- codeblock_35 -->
<g id="node30" class="node">
<title>codeblock_35</title>
<ellipse fill="none" stroke="#000000" cx="2374.6592" cy="-288.6003" rx="64.8671" ry="18"/>
<text text-anchor="middle" x="2374.6592" y="-284.4003" font-family="Helvetica,sans-Serif" font-size="14.00" fill="#000000">codeblock_35</text>
</g>
<!-- leaf_36 -->
<g id="node31" class="node">
<title>leaf_36</title>
<polygon fill="none" stroke="#c0c0c0" points="2522.6592,-171.3001 2226.6592,-171.3001 2226.6592,-135.3001 2522.6592,-135.3001 2522.6592,-171.3001"/>
<text text-anchor="middle" x="2374.6592" y="-149.8002" font-family="Inconsolata" font-size="14.00" fill="#000000"> &#160;&#160;&#160;headline = WS? &#160;&#39;*&#39;+ &#160;&#39; &#39; &#160;prose &#160;NL</text>
</g>
<!-- codeblock_35&#45;&gt;leaf_36 -->
<g id="edge16" class="edge">
<title>codeblock_35&#45;&gt;leaf_36</title>
<path fill="none" stroke="#000000" stroke-dasharray="5,2" d="M2374.6592,-270.3531C2374.6592,-247.6571 2374.6592,-208.6494 2374.6592,-181.9502"/>
<polygon fill="#000000" stroke="#000000" points="2378.1593,-181.6903 2374.6592,-171.6903 2371.1593,-181.6904 2378.1593,-181.6903"/>
</g>
<!-- section_28 -->
<g id="node32" class="node">
<title>section_28</title>
<ellipse fill="none" stroke="#000000" cx="2633.6592" cy="-288.6003" rx="52.7641" ry="18"/>
<text text-anchor="middle" x="2633.6592" y="-284.4003" font-family="Helvetica,sans-Serif" font-size="14.00" fill="#000000">section_28</text>
</g>
<!-- header_37 -->
<g id="node33" class="node">
<title>header_37</title>
<ellipse fill="none" stroke="#000000" cx="2633.6592" cy="-153.3001" rx="92.7611" ry="18"/>
<text text-anchor="middle" x="2633.6592" y="-149.1001" font-family="Helvetica,sans-Serif" font-size="14.00" fill="#000000">3 : Tags and Taglines</text>
</g>
<!-- section_28&#45;&gt;header_37 -->
<g id="edge17" class="edge">
<title>section_28&#45;&gt;header_37</title>
<path fill="none" stroke="#000000" stroke-dasharray="5,2" d="M2633.6592,-270.3531C2633.6592,-247.6571 2633.6592,-208.6494 2633.6592,-181.9502"/>
<polygon fill="#000000" stroke="#000000" points="2637.1593,-181.6903 2633.6592,-171.6903 2630.1593,-181.6904 2637.1593,-181.6903"/>
</g>
<!-- codeblock_38 -->
<g id="node34" class="node">
<title>codeblock_38</title>
<ellipse fill="none" stroke="#000000" cx="2850.6592" cy="-288.6003" rx="64.8671" ry="18"/>
<text text-anchor="middle" x="2850.6592" y="-284.4003" font-family="Helvetica,sans-Serif" font-size="14.00" fill="#000000">codeblock_38</text>
</g>
<!-- leaf_40 -->
<g id="node35" class="node">
<title>leaf_40</title>
<polygon fill="none" stroke="#c0c0c0" points="2956.6592,-171.3001 2744.6592,-171.3001 2744.6592,-135.3001 2956.6592,-135.3001 2956.6592,-171.3001"/>
<text text-anchor="middle" x="2850.6592" y="-149.8002" font-family="Inconsolata" font-size="14.00" fill="#000000"> &#160;hashtag = WS+ &#160;&#39;#&#39; &#160;symbol</text>
</g>
<!-- codeblock_38&#45;&gt;leaf_40 -->
<g id="edge18" class="edge">
<title>codeblock_38&#45;&gt;leaf_40</title>
<path fill="none" stroke="#000000" stroke-dasharray="5,2" d="M2850.6592,-270.3531C2850.6592,-247.6571 2850.6592,-208.6494 2850.6592,-181.9502"/>
<polygon fill="#000000" stroke="#000000" points="2854.1593,-181.6903 2850.6592,-171.6903 2847.1593,-181.6904 2854.1593,-181.6903"/>
</g>
<!-- codeblock_39 -->
<g id="node36" class="node">
<title>codeblock_39</title>
<ellipse fill="none" stroke="#000000" cx="3147.6592" cy="-288.6003" rx="64.8671" ry="18"/>
<text text-anchor="middle" x="3147.6592" y="-284.4003" font-family="Helvetica,sans-Serif" font-size="14.00" fill="#000000">codeblock_39</text>
</g>
<!-- leaf_41 -->
<g id="node37" class="node">
<title>leaf_41</title>
<polygon fill="none" stroke="#c0c0c0" points="3320.1592,-172.6007 2975.1592,-172.6007 2975.1592,-133.9996 3320.1592,-133.9996 3320.1592,-172.6007"/>
<text text-anchor="middle" x="3147.6592" y="-157.5002" font-family="Inconsolata" font-size="14.00" fill="#000000"> &#160;hashline = WS? &#160;&#39;#&#39; &#160;symbol &#160;&#39; &#39; &#160;prose &#160;NL</text>
<text text-anchor="middle" x="3147.6592" y="-142.1001" font-family="Inconsolata" font-size="14.00" fill="#000000"> &#160;handleline = WS? &#160;&#39;@&#39; &#160;symbol &#160;&#39; &#39; &#160;prose &#160;NL</text>
</g>
<!-- codeblock_39&#45;&gt;leaf_41 -->
<g id="edge19" class="edge">
<title>codeblock_39&#45;&gt;leaf_41</title>
<path fill="none" stroke="#000000" stroke-dasharray="5,2" d="M3147.6592,-270.3531C3147.6592,-248.0375 3147.6592,-209.9524 3147.6592,-183.3029"/>
<polygon fill="#000000" stroke="#000000" points="3151.1593,-183.0101 3147.6592,-173.0101 3144.1593,-183.0102 3151.1593,-183.0101"/>
</g>
<!-- section_29 -->
<g id="node38" class="node">
<title>section_29</title>
<ellipse fill="none" stroke="#000000" cx="3376.6592" cy="-288.6003" rx="52.7641" ry="18"/>
<text text-anchor="middle" x="3376.6592" y="-284.4003" font-family="Helvetica,sans-Serif" font-size="14.00" fill="#000000">section_29</text>
</g>
<!-- header_42 -->
<g id="node39" class="node">
<title>header_42</title>
<ellipse fill="none" stroke="#000000" cx="3376.6592" cy="-153.3001" rx="38.7302" ry="18"/>
<text text-anchor="middle" x="3376.6592" y="-149.1001" font-family="Helvetica,sans-Serif" font-size="14.00" fill="#000000">3 : List </text>
</g>
<!-- section_29&#45;&gt;header_42 -->
<g id="edge20" class="edge">
<title>section_29&#45;&gt;header_42</title>
<path fill="none" stroke="#000000" stroke-dasharray="5,2" d="M3376.6592,-270.3531C3376.6592,-247.6571 3376.6592,-208.6494 3376.6592,-181.9502"/>
<polygon fill="#000000" stroke="#000000" points="3380.1593,-181.6903 3376.6592,-171.6903 3373.1593,-181.6904 3380.1593,-181.6903"/>
</g>
<!-- codeblock_43 -->
<g id="node40" class="node">
<title>codeblock_43</title>
<ellipse fill="none" stroke="#000000" cx="3556.6592" cy="-288.6003" rx="64.8671" ry="18"/>
<text text-anchor="middle" x="3556.6592" y="-284.4003" font-family="Helvetica,sans-Serif" font-size="14.00" fill="#000000">codeblock_43</text>
</g>
<!-- leaf_49 -->
<g id="node41" class="node">
<title>leaf_49</title>
<polygon fill="none" stroke="#c0c0c0" points="3680.1592,-171.3001 3433.1592,-171.3001 3433.1592,-135.3001 3680.1592,-135.3001 3680.1592,-171.3001"/>
<text text-anchor="middle" x="3556.6592" y="-149.8002" font-family="Inconsolata" font-size="14.00" fill="#000000"> &#160;listline&#45;un = WS? &#39;&#45; &#39; prose NL</text>
</g>
<!-- codeblock_43&#45;&gt;leaf_49 -->
<g id="edge21" class="edge">
<title>codeblock_43&#45;&gt;leaf_49</title>
<path fill="none" stroke="#000000" stroke-dasharray="5,2" d="M3556.6592,-270.3531C3556.6592,-247.6571 3556.6592,-208.6494 3556.6592,-181.9502"/>
<polygon fill="#000000" stroke="#000000" points="3560.1593,-181.6903 3556.6592,-171.6903 3553.1593,-181.6904 3560.1593,-181.6903"/>
</g>
<!-- codeblock_44 -->
<g id="node42" class="node">
<title>codeblock_44</title>
<ellipse fill="none" stroke="#000000" cx="3846.6592" cy="-288.6003" rx="64.8671" ry="18"/>
<text text-anchor="middle" x="3846.6592" y="-284.4003" font-family="Helvetica,sans-Serif" font-size="14.00" fill="#000000">codeblock_44</text>
</g>
<!-- leaf_50 -->
<g id="node43" class="node">
<title>leaf_50</title>
<polygon fill="none" stroke="#c0c0c0" points="3994.6592,-171.3001 3698.6592,-171.3001 3698.6592,-135.3001 3994.6592,-135.3001 3994.6592,-171.3001"/>
<text text-anchor="middle" x="3846.6592" y="-149.8002" font-family="Inconsolata" font-size="14.00" fill="#000000"> &#160;listline&#45;li = WS? digits &#39;. &#39; prose NL</text>
</g>
<!-- codeblock_44&#45;&gt;leaf_50 -->
<g id="edge22" class="edge">
<title>codeblock_44&#45;&gt;leaf_50</title>
<path fill="none" stroke="#000000" stroke-dasharray="5,2" d="M3846.6592,-270.3531C3846.6592,-247.6571 3846.6592,-208.6494 3846.6592,-181.9502"/>
<polygon fill="#000000" stroke="#000000" points="3850.1593,-181.6903 3846.6592,-171.6903 3843.1593,-181.6904 3850.1593,-181.6903"/>
</g>
<!-- codeblock_45 -->
<g id="node44" class="node">
<title>codeblock_45</title>
<ellipse fill="none" stroke="#000000" cx="4139.6592" cy="-288.6003" rx="64.8671" ry="18"/>
<text text-anchor="middle" x="4139.6592" y="-284.4003" font-family="Helvetica,sans-Serif" font-size="14.00" fill="#000000">codeblock_45</text>
</g>
<!-- leaf_51 -->
<g id="node45" class="node">
<title>leaf_51</title>
<polygon fill="none" stroke="#c0c0c0" points="4266.6592,-172.6007 4012.6592,-172.6007 4012.6592,-133.9996 4266.6592,-133.9996 4266.6592,-172.6007"/>
<text text-anchor="middle" x="4139.6592" y="-157.5002" font-family="Inconsolata" font-size="14.00" fill="#000000"> &#160;&#45; list entry </text>
<text text-anchor="middle" x="4139.6592" y="-142.1001" font-family="Inconsolata" font-size="14.00" fill="#000000"> &#160;&#160;prose directly under, bad style</text>
</g>
<!-- codeblock_45&#45;&gt;leaf_51 -->
<g id="edge23" class="edge">
<title>codeblock_45&#45;&gt;leaf_51</title>
<path fill="none" stroke="#000000" stroke-dasharray="5,2" d="M4139.6592,-270.3531C4139.6592,-248.0375 4139.6592,-209.9524 4139.6592,-183.3029"/>
<polygon fill="#000000" stroke="#000000" points="4143.1593,-183.0101 4139.6592,-173.0101 4136.1593,-183.0102 4143.1593,-183.0101"/>
</g>
<!-- codeblock_46 -->
<g id="node46" class="node">
<title>codeblock_46</title>
<ellipse fill="none" stroke="#000000" cx="4376.6592" cy="-288.6003" rx="64.8671" ry="18"/>
<text text-anchor="middle" x="4376.6592" y="-284.4003" font-family="Helvetica,sans-Serif" font-size="14.00" fill="#000000">codeblock_46</text>
</g>
<!-- leaf_52 -->
<g id="node47" class="node">
<title>leaf_52</title>
<polygon fill="none" stroke="#c0c0c0" points="4468.6592,-172.6007 4284.6592,-172.6007 4284.6592,-133.9996 4468.6592,-133.9996 4468.6592,-172.6007"/>
<text text-anchor="middle" x="4376.6592" y="-157.5002" font-family="Inconsolata" font-size="14.00" fill="#000000"> &#160;&#45; list entry </text>
<text text-anchor="middle" x="4376.6592" y="-142.1001" font-family="Inconsolata" font-size="14.00" fill="#000000"> &#160;&#160;&#160;continues list entry</text>
</g>
<!-- codeblock_46&#45;&gt;leaf_52 -->
<g id="edge24" class="edge">
<title>codeblock_46&#45;&gt;leaf_52</title>
<path fill="none" stroke="#000000" stroke-dasharray="5,2" d="M4376.6592,-270.3531C4376.6592,-248.0375 4376.6592,-209.9524 4376.6592,-183.3029"/>
<polygon fill="#000000" stroke="#000000" points="4380.1593,-183.0101 4376.6592,-173.0101 4373.1593,-183.0102 4380.1593,-183.0101"/>
</g>
<!-- section_47 -->
<g id="node48" class="node">
<title>section_47</title>
<ellipse fill="none" stroke="#000000" cx="4549.6592" cy="-288.6003" rx="52.7641" ry="18"/>
<text text-anchor="middle" x="4549.6592" y="-284.4003" font-family="Helvetica,sans-Serif" font-size="14.00" fill="#000000">section_47</text>
</g>
<!-- header_53 -->
<g id="node49" class="node">
<title>header_53</title>
<ellipse fill="none" stroke="#000000" cx="4549.6592" cy="-153.3001" rx="63.3876" ry="18"/>
<text text-anchor="middle" x="4549.6592" y="-149.1001" font-family="Helvetica,sans-Serif" font-size="14.00" fill="#000000">4 : List Boxes</text>
</g>
<!-- section_47&#45;&gt;header_53 -->
<g id="edge25" class="edge">
<title>section_47&#45;&gt;header_53</title>
<path fill="none" stroke="#000000" stroke-dasharray="5,2" d="M4549.6592,-270.3531C4549.6592,-247.6571 4549.6592,-208.6494 4549.6592,-181.9502"/>
<polygon fill="#000000" stroke="#000000" points="4553.1593,-181.6903 4549.6592,-171.6903 4546.1593,-181.6904 4553.1593,-181.6903"/>
</g>
<!-- codeblock_54 -->
<g id="node50" class="node">
<title>codeblock_54</title>
<ellipse fill="none" stroke="#000000" cx="4740.6592" cy="-288.6003" rx="64.8671" ry="18"/>
<text text-anchor="middle" x="4740.6592" y="-284.4003" font-family="Helvetica,sans-Serif" font-size="14.00" fill="#000000">codeblock_54</text>
</g>
<!-- leaf_55 -->
<g id="node51" class="node">
<title>leaf_55</title>
<polygon fill="none" stroke="#c0c0c0" points="4850.1592,-234.4009 4631.1592,-234.4009 4631.1592,-72.1994 4850.1592,-72.1994 4850.1592,-234.4009"/>
<text text-anchor="middle" x="4740.6592" y="-219.4003" font-family="Inconsolata" font-size="14.00" fill="#000000"> &#160;&#45; [ ] #todo finish orb.orb</text>
<text text-anchor="middle" x="4740.6592" y="-204.0002" font-family="Inconsolata" font-size="14.00" fill="#000000"> &#160;&#160;&#160;&#45; [X] Metalanguage</text>
<text text-anchor="middle" x="4740.6592" y="-188.6002" font-family="Inconsolata" font-size="14.00" fill="#000000"> &#160;&#160;&#160;&#45; [X] Prose and Structure</text>
<text text-anchor="middle" x="4740.6592" y="-173.2002" font-family="Inconsolata" font-size="14.00" fill="#000000"> &#160;&#160;&#160;&#45; [REVISE] Link</text>
<text text-anchor="middle" x="4740.6592" y="-157.8002" font-family="Inconsolata" font-size="14.00" fill="#000000"> &#160;&#160;&#160;&#45; [ ] Code Block</text>
<text text-anchor="middle" x="4740.6592" y="-126.4001" font-family="Inconsolata" font-size="14.00" fill="#000000"> &#160;&#45; Fruits</text>
<text text-anchor="middle" x="4740.6592" y="-111.0001" font-family="Inconsolata" font-size="14.00" fill="#000000"> &#160;&#160;&#160;&#45; ( ) Bananas</text>
<text text-anchor="middle" x="4740.6592" y="-95.6001" font-family="Inconsolata" font-size="14.00" fill="#000000"> &#160;&#160;&#160;&#45; (*) Coconuts</text>
<text text-anchor="middle" x="4740.6592" y="-80.2" font-family="Inconsolata" font-size="14.00" fill="#000000"> &#160;&#160;&#160;&#45; ( ) Grapes</text>
</g>
<!-- codeblock_54&#45;&gt;leaf_55 -->
<g id="edge26" class="edge">
<title>codeblock_54&#45;&gt;leaf_55</title>
<path fill="none" stroke="#000000" stroke-dasharray="5,2" d="M4740.6592,-270.3531C4740.6592,-263.1794 4740.6592,-254.3761 4740.6592,-244.847"/>
<polygon fill="#000000" stroke="#000000" points="4744.1593,-244.6917 4740.6592,-234.6917 4737.1593,-244.6918 4744.1593,-244.6917"/>
</g>
<!-- section_48 -->
<g id="node52" class="node">
<title>section_48</title>
<ellipse fill="none" stroke="#000000" cx="4950.6592" cy="-288.6003" rx="52.7641" ry="18"/>
<text text-anchor="middle" x="4950.6592" y="-284.4003" font-family="Helvetica,sans-Serif" font-size="14.00" fill="#000000">section_48</text>
</g>
<!-- header_56 -->
<g id="node53" class="node">
<title>header_56</title>
<ellipse fill="none" stroke="#000000" cx="4950.6592" cy="-153.3001" rx="82.7165" ry="18"/>
<text text-anchor="middle" x="4950.6592" y="-149.1001" font-family="Helvetica,sans-Serif" font-size="14.00" fill="#000000">4 : Key/value pairs</text>
</g>
<!-- section_48&#45;&gt;header_56 -->
<g id="edge27" class="edge">
<title>section_48&#45;&gt;header_56</title>
<path fill="none" stroke="#000000" stroke-dasharray="5,2" d="M4950.6592,-270.3531C4950.6592,-247.6571 4950.6592,-208.6494 4950.6592,-181.9502"/>
<polygon fill="#000000" stroke="#000000" points="4954.1593,-181.6903 4950.6592,-171.6903 4947.1593,-181.6904 4954.1593,-181.6903"/>
</g>
<!-- codeblock_57 -->
<g id="node54" class="node">
<title>codeblock_57</title>
<ellipse fill="none" stroke="#000000" cx="5150.6592" cy="-288.6003" rx="64.8671" ry="18"/>
<text text-anchor="middle" x="5150.6592" y="-284.4003" font-family="Helvetica,sans-Serif" font-size="14.00" fill="#000000">codeblock_57</text>
</g>
<!-- leaf_58 -->
<g id="node55" class="node">
<title>leaf_58</title>
<polygon fill="none" stroke="#c0c0c0" points="5249.6592,-180.5006 5051.6592,-180.5006 5051.6592,-126.0997 5249.6592,-126.0997 5249.6592,-180.5006"/>
<text text-anchor="middle" x="5150.6592" y="-165.2002" font-family="Inconsolata" font-size="14.00" fill="#000000"> &#45; first key:</text>
<text text-anchor="middle" x="5150.6592" y="-149.8002" font-family="Inconsolata" font-size="14.00" fill="#000000"> &#160;&#160;&#45; value : another value</text>
<text text-anchor="middle" x="5150.6592" y="-134.4001" font-family="Inconsolata" font-size="14.00" fill="#000000"> &#160;&#160;&#45; 42 : the answer</text>
</g>
<!-- codeblock_57&#45;&gt;leaf_58 -->
<g id="edge28" class="edge">
<title>codeblock_57&#45;&gt;leaf_58</title>
<path fill="none" stroke="#000000" stroke-dasharray="5,2" d="M5150.6592,-270.3531C5150.6592,-250.0662 5150.6592,-216.7466 5150.6592,-190.834"/>
<polygon fill="#000000" stroke="#000000" points="5154.1593,-190.5987 5150.6592,-180.5987 5147.1593,-190.5988 5154.1593,-190.5987"/>
</g>
<!-- section_30 -->
<g id="node56" class="node">
<title>section_30</title>
<ellipse fill="none" stroke="#000000" cx="5335.6592" cy="-288.6003" rx="52.7641" ry="18"/>
<text text-anchor="middle" x="5335.6592" y="-284.4003" font-family="Helvetica,sans-Serif" font-size="14.00" fill="#000000">section_30</text>
</g>
<!-- header_59 -->
<g id="node57" class="node">
<title>header_59</title>
<ellipse fill="none" stroke="#000000" cx="5335.6592" cy="-153.3001" rx="67.7394" ry="18"/>
<text text-anchor="middle" x="5335.6592" y="-149.1001" font-family="Helvetica,sans-Serif" font-size="14.00" fill="#000000">3 : Code Block</text>
</g>
<!-- section_30&#45;&gt;header_59 -->
<g id="edge29" class="edge">
<title>section_30&#45;&gt;header_59</title>
<path fill="none" stroke="#000000" stroke-dasharray="5,2" d="M5335.6592,-270.3531C5335.6592,-247.6571 5335.6592,-208.6494 5335.6592,-181.9502"/>
<polygon fill="#000000" stroke="#000000" points="5339.1593,-181.6903 5335.6592,-171.6903 5332.1593,-181.6904 5339.1593,-181.6903"/>
</g>
<!-- codeblock_60 -->
<g id="node58" class="node">
<title>codeblock_60</title>
<ellipse fill="none" stroke="#000000" cx="5499.6592" cy="-288.6003" rx="64.8671" ry="18"/>
<text text-anchor="middle" x="5499.6592" y="-284.4003" font-family="Helvetica,sans-Serif" font-size="14.00" fill="#000000">codeblock_60</text>
</g>
<!-- leaf_62 -->
<g id="node59" class="node">
<title>leaf_62</title>
<polygon fill="none" stroke="#c0c0c0" points="5577.6592,-180.5006 5421.6592,-180.5006 5421.6592,-126.0997 5577.6592,-126.0997 5577.6592,-180.5006"/>
<text text-anchor="middle" x="5499.6592" y="-165.2002" font-family="Inconsolata" font-size="14.00" fill="#000000">#!orb</text>
<text text-anchor="middle" x="5499.6592" y="-149.8002" font-family="Inconsolata" font-size="14.00" fill="#000000">*** Some Orb content</text>
<text text-anchor="middle" x="5499.6592" y="-134.4001" font-family="Inconsolata" font-size="14.00" fill="#000000">#/orb</text>
</g>
<!-- codeblock_60&#45;&gt;leaf_62 -->
<g id="edge30" class="edge">
<title>codeblock_60&#45;&gt;leaf_62</title>
<path fill="none" stroke="#000000" stroke-dasharray="5,2" d="M5499.6592,-270.3531C5499.6592,-250.0662 5499.6592,-216.7466 5499.6592,-190.834"/>
<polygon fill="#000000" stroke="#000000" points="5503.1593,-190.5987 5499.6592,-180.5987 5496.1593,-190.5988 5503.1593,-190.5987"/>
</g>
<!-- codeblock_61 -->
<g id="node60" class="node">
<title>codeblock_61</title>
<ellipse fill="none" stroke="#000000" cx="5708.6592" cy="-288.6003" rx="64.8671" ry="18"/>
<text text-anchor="middle" x="5708.6592" y="-284.4003" font-family="Helvetica,sans-Serif" font-size="14.00" fill="#000000">codeblock_61</text>
</g>
<!-- leaf_63 -->
<g id="node61" class="node">
<title>leaf_63</title>
<polygon fill="none" stroke="#c0c0c0" points="5821.6592,-180.6006 5595.6592,-180.6006 5595.6592,-125.9997 5821.6592,-125.9997 5821.6592,-180.6006"/>
<text text-anchor="middle" x="5708.6592" y="-165.5002" font-family="Inconsolata" font-size="14.00" fill="#000000">#!/usr/bin/python</text>
<text text-anchor="middle" x="5708.6592" y="-134.1001" font-family="Inconsolata" font-size="14.00" fill="#000000">from future import bettertools</text>
</g>
<!-- codeblock_61&#45;&gt;leaf_63 -->
<g id="edge31" class="edge">
<title>codeblock_61&#45;&gt;leaf_63</title>
<path fill="none" stroke="#000000" stroke-dasharray="5,2" d="M5708.6592,-270.3531C5708.6592,-250.1296 5708.6592,-216.9547 5708.6592,-191.0771"/>
<polygon fill="#000000" stroke="#000000" points="5712.1593,-190.8496 5708.6592,-180.8496 5705.1593,-190.8496 5712.1593,-190.8496"/>
</g>
<!-- section_31 -->
<g id="node62" class="node">
<title>section_31</title>
<ellipse fill="none" stroke="#000000" cx="5882.6592" cy="-288.6003" rx="52.7641" ry="18"/>
<text text-anchor="middle" x="5882.6592" y="-284.4003" font-family="Helvetica,sans-Serif" font-size="14.00" fill="#000000">section_31</text>
</g>
<!-- header_64 -->
<g id="node63" class="node">
<title>header_64</title>
<ellipse fill="none" stroke="#000000" cx="5882.6592" cy="-153.3001" rx="43.2645" ry="18"/>
<text text-anchor="middle" x="5882.6592" y="-149.1001" font-family="Helvetica,sans-Serif" font-size="14.00" fill="#000000">3 : Table</text>
</g>
<!-- section_31&#45;&gt;header_64 -->
<g id="edge32" class="edge">
<title>section_31&#45;&gt;header_64</title>
<path fill="none" stroke="#000000" stroke-dasharray="5,2" d="M5882.6592,-270.3531C5882.6592,-247.6571 5882.6592,-208.6494 5882.6592,-181.9502"/>
<polygon fill="#000000" stroke="#000000" points="5886.1593,-181.6903 5882.6592,-171.6903 5879.1593,-181.6904 5886.1593,-181.6903"/>
</g>
<!-- codeblock_65 -->
<g id="node64" class="node">
<title>codeblock_65</title>
<ellipse fill="none" stroke="#000000" cx="6025.6592" cy="-288.6003" rx="64.8671" ry="18"/>
<text text-anchor="middle" x="6025.6592" y="-284.4003" font-family="Helvetica,sans-Serif" font-size="14.00" fill="#000000">codeblock_65</text>
</g>
<!-- leaf_68 -->
<g id="node65" class="node">
<title>leaf_68</title>
<polygon fill="none" stroke="#c0c0c0" points="6107.1592,-172.6007 5944.1592,-172.6007 5944.1592,-133.9996 6107.1592,-133.9996 6107.1592,-172.6007"/>
<text text-anchor="middle" x="6025.6592" y="-157.5002" font-family="Inconsolata" font-size="14.00" fill="#000000">| 2 &#160;| 4 &#160;| 6 &#160;| 8 &#160;|</text>
<text text-anchor="middle" x="6025.6592" y="-142.1001" font-family="Inconsolata" font-size="14.00" fill="#000000">| 10 | 12 | 14 | 16 |</text>
</g>
<!-- codeblock_65&#45;&gt;leaf_68 -->
<g id="edge33" class="edge">
<title>codeblock_65&#45;&gt;leaf_68</title>
<path fill="none" stroke="#000000" stroke-dasharray="5,2" d="M6025.6592,-270.3531C6025.6592,-248.0375 6025.6592,-209.9524 6025.6592,-183.3029"/>
<polygon fill="#000000" stroke="#000000" points="6029.1593,-183.0101 6025.6592,-173.0101 6022.1593,-183.0102 6029.1593,-183.0101"/>
</g>
<!-- codeblock_66 -->
<g id="node66" class="node">
<title>codeblock_66</title>
<ellipse fill="none" stroke="#000000" cx="6206.6592" cy="-288.6003" rx="64.8671" ry="18"/>
<text text-anchor="middle" x="6206.6592" y="-284.4003" font-family="Helvetica,sans-Serif" font-size="14.00" fill="#000000">codeblock_66</text>
</g>
<!-- leaf_69 -->
<g id="node67" class="node">
<title>leaf_69</title>
<polygon fill="none" stroke="#c0c0c0" points="6288.1592,-180.5006 6125.1592,-180.5006 6125.1592,-126.0997 6288.1592,-126.0997 6288.1592,-180.5006"/>
<text text-anchor="middle" x="6206.6592" y="-165.2002" font-family="Inconsolata" font-size="14.00" fill="#000000">| a &#160;| b &#160;| c &#160;| d &#160;|</text>
<text text-anchor="middle" x="6206.6592" y="-149.8002" font-family="Inconsolata" font-size="14.00" fill="#000000">~ 3 &#160;| 6 &#160;| 9 &#160;| 12 |</text>
<text text-anchor="middle" x="6206.6592" y="-134.4001" font-family="Inconsolata" font-size="14.00" fill="#000000">| 18 | 21 | 24 | 27 |</text>
</g>
<!-- codeblock_66&#45;&gt;leaf_69 -->
<g id="edge34" class="edge">
<title>codeblock_66&#45;&gt;leaf_69</title>
<path fill="none" stroke="#000000" stroke-dasharray="5,2" d="M6206.6592,-270.3531C6206.6592,-250.0662 6206.6592,-216.7466 6206.6592,-190.834"/>
<polygon fill="#000000" stroke="#000000" points="6210.1593,-190.5987 6206.6592,-180.5987 6203.1593,-190.5988 6210.1593,-190.5987"/>
</g>
<!-- codeblock_67 -->
<g id="node68" class="node">
<title>codeblock_67</title>
<ellipse fill="none" stroke="#000000" cx="6415.6592" cy="-288.6003" rx="64.8671" ry="18"/>
<text text-anchor="middle" x="6415.6592" y="-284.4003" font-family="Helvetica,sans-Serif" font-size="14.00" fill="#000000">codeblock_67</text>
</g>
<!-- leaf_70 -->
<g id="node69" class="node">
<title>leaf_70</title>
<polygon fill="none" stroke="#c0c0c0" points="6525.1592,-172.6007 6306.1592,-172.6007 6306.1592,-133.9996 6525.1592,-133.9996 6525.1592,-172.6007"/>
<text text-anchor="middle" x="6415.6592" y="-157.5002" font-family="Inconsolata" font-size="14.00" fill="#000000">| cat, | chien, &#160;| gato, &#160;&#160;&#160;\</text>
<text text-anchor="middle" x="6415.6592" y="-142.1001" font-family="Inconsolata" font-size="14.00" fill="#000000">| hat &#160;| chapeau | sombrero |</text>
</g>
<!-- codeblock_67&#45;&gt;leaf_70 -->
<g id="edge35" class="edge">
<title>codeblock_67&#45;&gt;leaf_70</title>
<path fill="none" stroke="#000000" stroke-dasharray="5,2" d="M6415.6592,-270.3531C6415.6592,-248.0375 6415.6592,-209.9524 6415.6592,-183.3029"/>
<polygon fill="#000000" stroke="#000000" points="6419.1593,-183.0101 6415.6592,-173.0101 6412.1593,-183.0102 6419.1593,-183.0101"/>
</g>
<!-- section_32 -->
<g id="node70" class="node">
<title>section_32</title>
<ellipse fill="none" stroke="#000000" cx="6586.6592" cy="-288.6003" rx="52.7641" ry="18"/>
<text text-anchor="middle" x="6586.6592" y="-284.4003" font-family="Helvetica,sans-Serif" font-size="14.00" fill="#000000">section_32</text>
</g>
<!-- header_71 -->
<g id="node71" class="node">
<title>header_71</title>
<ellipse fill="none" stroke="#000000" cx="6586.6592" cy="-153.3001" rx="43.5665" ry="18"/>
<text text-anchor="middle" x="6586.6592" y="-149.1001" font-family="Helvetica,sans-Serif" font-size="14.00" fill="#000000">3 : Link &#160;</text>
</g>
<!-- section_32&#45;&gt;header_71 -->
<g id="edge36" class="edge">
<title>section_32&#45;&gt;header_71</title>
<path fill="none" stroke="#000000" stroke-dasharray="5,2" d="M6586.6592,-270.3531C6586.6592,-247.6571 6586.6592,-208.6494 6586.6592,-181.9502"/>
<polygon fill="#000000" stroke="#000000" points="6590.1593,-181.6903 6586.6592,-171.6903 6583.1593,-181.6904 6590.1593,-181.6903"/>
</g>
<!-- section_33 -->
<g id="node72" class="node">
<title>section_33</title>
<ellipse fill="none" stroke="#000000" cx="6710.6592" cy="-288.6003" rx="52.7641" ry="18"/>
<text text-anchor="middle" x="6710.6592" y="-284.4003" font-family="Helvetica,sans-Serif" font-size="14.00" fill="#000000">section_33</text>
</g>
<!-- header_72 -->
<g id="node73" class="node">
<title>header_72</title>
<ellipse fill="none" stroke="#000000" cx="6710.6592" cy="-153.3001" rx="50.7914" ry="18"/>
<text text-anchor="middle" x="6710.6592" y="-149.1001" font-family="Helvetica,sans-Serif" font-size="14.00" fill="#000000">3 : Drawer</text>
</g>
<!-- section_33&#45;&gt;header_72 -->
<g id="edge37" class="edge">
<title>section_33&#45;&gt;header_72</title>
<path fill="none" stroke="#000000" stroke-dasharray="5,2" d="M6710.6592,-270.3531C6710.6592,-247.6571 6710.6592,-208.6494 6710.6592,-181.9502"/>
<polygon fill="#000000" stroke="#000000" points="6714.1593,-181.6903 6710.6592,-171.6903 6707.1593,-181.6904 6714.1593,-181.6903"/>
</g>
<!-- codeblock_73 -->
<g id="node74" class="node">
<title>codeblock_73</title>
<ellipse fill="none" stroke="#000000" cx="6846.6592" cy="-288.6003" rx="64.8671" ry="18"/>
<text text-anchor="middle" x="6846.6592" y="-284.4003" font-family="Helvetica,sans-Serif" font-size="14.00" fill="#000000">codeblock_73</text>
</g>
<!-- leaf_74 -->
<g id="node75" class="node">
<title>leaf_74</title>
<polygon fill="none" stroke="#c0c0c0" points="6896.6592,-180.5006 6796.6592,-180.5006 6796.6592,-126.0997 6896.6592,-126.0997 6896.6592,-180.5006"/>
<text text-anchor="middle" x="6846.6592" y="-165.2002" font-family="Inconsolata" font-size="14.00" fill="#000000">:[a&#45;drawer]:</text>
<text text-anchor="middle" x="6846.6592" y="-149.8002" font-family="Inconsolata" font-size="14.00" fill="#000000">contents</text>
<text text-anchor="middle" x="6846.6592" y="-134.4001" font-family="Inconsolata" font-size="14.00" fill="#000000">:[a&#45;drawer]:</text>
</g>
<!-- codeblock_73&#45;&gt;leaf_74 -->
<g id="edge38" class="edge">
<title>codeblock_73&#45;&gt;leaf_74</title>
<path fill="none" stroke="#000000" stroke-dasharray="5,2" d="M6846.6592,-270.3531C6846.6592,-250.0662 6846.6592,-216.7466 6846.6592,-190.834"/>
<polygon fill="#000000" stroke="#000000" points="6850.1593,-190.5987 6846.6592,-180.5987 6843.1593,-190.5988 6850.1593,-190.5987"/>
</g>
</g>
</svg>