<?xml version="1.0" encoding="UTF-8" standalone="no"?>
<!DOCTYPE svg PUBLIC "-//W3C//DTD SVG 1.1//EN"
 "http://www.w3.org/Graphics/SVG/1.1/DTD/svg11.dtd">
<!-- Generated by graphviz version 2.40.1 (20161225.0304)
 -->
<!-- Title: hierarchy Pages: 1 -->
<svg width="2265pt" height="188pt"
 viewBox="0.00 0.00 2264.84 188.00" xmlns="http://www.w3.org/2000/svg" xmlns:xlink="http://www.w3.org/1999/xlink">
<g id="graph0" class="graph" transform="scale(1 1) rotate(0) translate(4 184)">
<title>hierarchy</title>
<polygon fill="#ffffff" stroke="transparent" points="-4,4 -4,-184 2260.8368,-184 2260.8368,4 -4,4"/>
<!-- doc_0 -->
<g id="node1" class="node">
<title>doc_0</title>
<ellipse fill="none" stroke="#000000" cx="92.1896" cy="-162" rx="46.9581" ry="18"/>
<text text-anchor="middle" x="92.1896" y="-157.8" font-family="Helvetica,sans-Serif" font-size="14.00" fill="#000000">doc &#45; 155</text>
</g>
<!-- section_1 -->
<g id="node2" class="node">
<title>section_1</title>
<ellipse fill="none" stroke="#000000" cx="92.1896" cy="-90" rx="65.8187" ry="18"/>
<text text-anchor="middle" x="92.1896" y="-85.8" font-family="Helvetica,sans-Serif" font-size="14.00" fill="#000000">section: 1&#45;124</text>
</g>
<!-- doc_0&#45;&gt;section_1 -->
<g id="edge1" class="edge">
<title>doc_0&#45;&gt;section_1</title>
<path fill="none" stroke="#000000" stroke-dasharray="5,2" d="M92.1896,-143.8314C92.1896,-136.131 92.1896,-126.9743 92.1896,-118.4166"/>
<polygon fill="#000000" stroke="#000000" points="95.6897,-118.4132 92.1896,-108.4133 88.6897,-118.4133 95.6897,-118.4132"/>
</g>
<!-- header_2 -->
<g id="node3" class="node">
<title>header_2</title>
<ellipse fill="none" stroke="#000000" cx="92.1896" cy="-18" rx="92.3795" ry="18"/>
<text text-anchor="middle" x="92.1896" y="-13.8" font-family="Helvetica,sans-Serif" font-size="14.00" fill="#000000">1 : A Grimoire Parser</text>
</g>
<!-- section_1&#45;&gt;header_2 -->
<g id="edge2" class="edge">
<title>section_1&#45;&gt;header_2</title>
<path fill="none" stroke="#000000" stroke-dasharray="5,2" d="M92.1896,-71.8314C92.1896,-64.131 92.1896,-54.9743 92.1896,-46.4166"/>
<polygon fill="#000000" stroke="#000000" points="95.6897,-46.4132 92.1896,-36.4133 88.6897,-46.4133 95.6897,-46.4132"/>
</g>
<!-- section_3 -->
<g id="node4" class="node">
<title>section_3</title>
<ellipse fill="none" stroke="#000000" cx="244.1896" cy="-162" rx="47.9272" ry="18"/>
<text text-anchor="middle" x="244.1896" y="-157.8" font-family="Helvetica,sans-Serif" font-size="14.00" fill="#000000">section_3</text>
</g>
<!-- header_7 -->
<g id="node5" class="node">
<title>header_7</title>
<ellipse fill="none" stroke="#000000" cx="244.1896" cy="-90" rx="68.717" ry="18"/>
<text text-anchor="middle" x="244.1896" y="-85.8" font-family="Helvetica,sans-Serif" font-size="14.00" fill="#000000">2 : Introduction</text>
</g>
<!-- section_3&#45;&gt;header_7 -->
<g id="edge3" class="edge">
<title>section_3&#45;&gt;header_7</title>
<path fill="none" stroke="#000000" stroke-dasharray="5,2" d="M244.1896,-143.8314C244.1896,-136.131 244.1896,-126.9743 244.1896,-118.4166"/>
<polygon fill="#000000" stroke="#000000" points="247.6897,-118.4132 244.1896,-108.4133 240.6897,-118.4133 247.6897,-118.4132"/>
</g>
<!-- section_4 -->
<g id="node6" class="node">
<title>section_4</title>
<ellipse fill="none" stroke="#000000" cx="389.1896" cy="-162" rx="47.9272" ry="18"/>
<text text-anchor="middle" x="389.1896" y="-157.8" font-family="Helvetica,sans-Serif" font-size="14.00" fill="#000000">section_4</text>
</g>
<!-- header_8 -->
<g id="node7" class="node">
<title>header_8</title>
<ellipse fill="none" stroke="#000000" cx="389.1896" cy="-90" rx="58.0513" ry="18"/>
<text text-anchor="middle" x="389.1896" y="-85.8" font-family="Helvetica,sans-Serif" font-size="14.00" fill="#000000">2 : Structure</text>
</g>
<!-- section_4&#45;&gt;header_8 -->
<g id="edge4" class="edge">
<title>section_4&#45;&gt;header_8</title>
<path fill="none" stroke="#000000" stroke-dasharray="5,2" d="M389.1896,-143.8314C389.1896,-136.131 389.1896,-126.9743 389.1896,-118.4166"/>
<polygon fill="#000000" stroke="#000000" points="392.6897,-118.4132 389.1896,-108.4133 385.6897,-118.4133 392.6897,-118.4132"/>
</g>
<!-- section_9 -->
<g id="node8" class="node">
<title>section_9</title>
<ellipse fill="none" stroke="#000000" cx="525.1896" cy="-162" rx="47.9272" ry="18"/>
<text text-anchor="middle" x="525.1896" y="-157.8" font-family="Helvetica,sans-Serif" font-size="14.00" fill="#000000">section_9</text>
</g>
<!-- header_14 -->
<g id="node9" class="node">
<title>header_14</title>
<ellipse fill="none" stroke="#000000" cx="525.1896" cy="-90" rx="59.5222" ry="18"/>
<text text-anchor="middle" x="525.1896" y="-85.8" font-family="Helvetica,sans-Serif" font-size="14.00" fill="#000000">3 : Chunking</text>
</g>
<!-- section_9&#45;&gt;header_14 -->
<g id="edge5" class="edge">
<title>section_9&#45;&gt;header_14</title>
<path fill="none" stroke="#000000" stroke-dasharray="5,2" d="M525.1896,-143.8314C525.1896,-136.131 525.1896,-126.9743 525.1896,-118.4166"/>
<polygon fill="#000000" stroke="#000000" points="528.6897,-118.4132 525.1896,-108.4133 521.6897,-118.4133 528.6897,-118.4132"/>
</g>
<!-- section_10 -->
<g id="node10" class="node">
<title>section_10</title>
<ellipse fill="none" stroke="#000000" cx="667.1896" cy="-162" rx="52.7641" ry="18"/>
<text text-anchor="middle" x="667.1896" y="-157.8" font-family="Helvetica,sans-Serif" font-size="14.00" fill="#000000">section_10</text>
</g>
<!-- header_15 -->
<g id="node11" class="node">
<title>header_15</title>
<ellipse fill="none" stroke="#000000" cx="667.1896" cy="-90" rx="64.8324" ry="18"/>
<text text-anchor="middle" x="667.1896" y="-85.8" font-family="Helvetica,sans-Serif" font-size="14.00" fill="#000000">3 : Ownership</text>
</g>
<!-- section_10&#45;&gt;header_15 -->
<g id="edge6" class="edge">
<title>section_10&#45;&gt;header_15</title>
<path fill="none" stroke="#000000" stroke-dasharray="5,2" d="M667.1896,-143.8314C667.1896,-136.131 667.1896,-126.9743 667.1896,-118.4166"/>
<polygon fill="#000000" stroke="#000000" points="670.6897,-118.4132 667.1896,-108.4133 663.6897,-118.4133 670.6897,-118.4132"/>
</g>
<!-- section_16 -->
<g id="node12" class="node">
<title>section_16</title>
<ellipse fill="none" stroke="#000000" cx="813.1896" cy="-162" rx="52.7641" ry="18"/>
<text text-anchor="middle" x="813.1896" y="-157.8" font-family="Helvetica,sans-Serif" font-size="14.00" fill="#000000">section_16</text>
</g>
<!-- header_17 -->
<g id="node13" class="node">
<title>header_17</title>
<ellipse fill="none" stroke="#000000" cx="813.1896" cy="-90" rx="63.3876" ry="18"/>
<text text-anchor="middle" x="813.1896" y="-85.8" font-family="Helvetica,sans-Serif" font-size="14.00" fill="#000000">4 : Cling Rule</text>
</g>
<!-- section_16&#45;&gt;header_17 -->
<g id="edge7" class="edge">
<title>section_16&#45;&gt;header_17</title>
<path fill="none" stroke="#000000" stroke-dasharray="5,2" d="M813.1896,-143.8314C813.1896,-136.131 813.1896,-126.9743 813.1896,-118.4166"/>
<polygon fill="#000000" stroke="#000000" points="816.6897,-118.4132 813.1896,-108.4133 809.6897,-118.4133 816.6897,-118.4132"/>
</g>
<!-- section_11 -->
<g id="node14" class="node">
<title>section_11</title>
<ellipse fill="none" stroke="#000000" cx="971.1896" cy="-162" rx="52.4608" ry="18"/>
<text text-anchor="middle" x="971.1896" y="-157.8" font-family="Helvetica,sans-Serif" font-size="14.00" fill="#000000">section_11</text>
</g>
<!-- header_18 -->
<g id="node15" class="node">
<title>header_18</title>
<ellipse fill="none" stroke="#000000" cx="971.1896" cy="-90" rx="76.4261" ry="18"/>
<text text-anchor="middle" x="971.1896" y="-85.8" font-family="Helvetica,sans-Serif" font-size="14.00" fill="#000000">3 : Block Parsing</text>
</g>
<!-- section_11&#45;&gt;header_18 -->
<g id="edge8" class="edge">
<title>section_11&#45;&gt;header_18</title>
<path fill="none" stroke="#000000" stroke-dasharray="5,2" d="M971.1896,-143.8314C971.1896,-136.131 971.1896,-126.9743 971.1896,-118.4166"/>
<polygon fill="#000000" stroke="#000000" points="974.6897,-118.4132 971.1896,-108.4133 967.6897,-118.4133 974.6897,-118.4132"/>
</g>
<!-- section_12 -->
<g id="node16" class="node">
<title>section_12</title>
<ellipse fill="none" stroke="#000000" cx="1143.1896" cy="-162" rx="52.7641" ry="18"/>
<text text-anchor="middle" x="1143.1896" y="-157.8" font-family="Helvetica,sans-Serif" font-size="14.00" fill="#000000">section_12</text>
</g>
<!-- header_19 -->
<g id="node17" class="node">
<title>header_19</title>
<ellipse fill="none" stroke="#000000" cx="1143.1896" cy="-90" rx="77.8797" ry="18"/>
<text text-anchor="middle" x="1143.1896" y="-85.8" font-family="Helvetica,sans-Serif" font-size="14.00" fill="#000000">3 : Prose Parsing</text>
</g>
<!-- section_12&#45;&gt;header_19 -->
<g id="edge9" class="edge">
<title>section_12&#45;&gt;header_19</title>
<path fill="none" stroke="#000000" stroke-dasharray="5,2" d="M1143.1896,-143.8314C1143.1896,-136.131 1143.1896,-126.9743 1143.1896,-118.4166"/>
<polygon fill="#000000" stroke="#000000" points="1146.6897,-118.4132 1143.1896,-108.4133 1139.6897,-118.4133 1146.6897,-118.4132"/>
</g>
<!-- section_13 -->
<g id="node18" class="node">
<title>section_13</title>
<ellipse fill="none" stroke="#000000" cx="1313.1896" cy="-162" rx="52.7641" ry="18"/>
<text text-anchor="middle" x="1313.1896" y="-157.8" font-family="Helvetica,sans-Serif" font-size="14.00" fill="#000000">section_13</text>
</g>
<!-- header_20 -->
<g id="node19" class="node">
<title>header_20</title>
<ellipse fill="none" stroke="#000000" cx="1313.1896" cy="-90" rx="74.4793" ry="18"/>
<text text-anchor="middle" x="1313.1896" y="-85.8" font-family="Helvetica,sans-Serif" font-size="14.00" fill="#000000">3 : Mark Parsing</text>
</g>
<!-- section_13&#45;&gt;header_20 -->
<g id="edge10" class="edge">
<title>section_13&#45;&gt;header_20</title>
<path fill="none" stroke="#000000" stroke-dasharray="5,2" d="M1313.1896,-143.8314C1313.1896,-136.131 1313.1896,-126.9743 1313.1896,-118.4166"/>
<polygon fill="#000000" stroke="#000000" points="1316.6897,-118.4132 1313.1896,-108.4133 1309.6897,-118.4133 1316.6897,-118.4132"/>
</g>
<!-- section_5 -->
<g id="node20" class="node">
<title>section_5</title>
<ellipse fill="none" stroke="#000000" cx="1453.1896" cy="-162" rx="47.9272" ry="18"/>
<text text-anchor="middle" x="1453.1896" y="-157.8" font-family="Helvetica,sans-Serif" font-size="14.00" fill="#000000">section_5</text>
</g>
<!-- header_21 -->
<g id="node21" class="node">
<title>header_21</title>
<ellipse fill="none" stroke="#000000" cx="1453.1896" cy="-90" rx="47.4254" ry="18"/>
<text text-anchor="middle" x="1453.1896" y="-85.8" font-family="Helvetica,sans-Serif" font-size="14.00" fill="#000000">2 : Result</text>
</g>
<!-- section_5&#45;&gt;header_21 -->
<g id="edge11" class="edge">
<title>section_5&#45;&gt;header_21</title>
<path fill="none" stroke="#000000" stroke-dasharray="5,2" d="M1453.1896,-143.8314C1453.1896,-136.131 1453.1896,-126.9743 1453.1896,-118.4166"/>
<polygon fill="#000000" stroke="#000000" points="1456.6897,-118.4132 1453.1896,-108.4133 1449.6897,-118.4133 1456.6897,-118.4132"/>
</g>
<!-- section_6 -->
<g id="node22" class="node">
<title>section_6</title>
<ellipse fill="none" stroke="#000000" cx="1619.1896" cy="-162" rx="47.9272" ry="18"/>
<text text-anchor="middle" x="1619.1896" y="-157.8" font-family="Helvetica,sans-Serif" font-size="14.00" fill="#000000">section_6</text>
</g>
<!-- header_22 -->
<g id="node23" class="node">
<title>header_22</title>
<ellipse fill="none" stroke="#000000" cx="1619.1896" cy="-90" rx="100.6507" ry="18"/>
<text text-anchor="middle" x="1619.1896" y="-85.8" font-family="Helvetica,sans-Serif" font-size="14.00" fill="#000000">2 : Subsequent Actions</text>
</g>
<!-- section_6&#45;&gt;header_22 -->
<g id="edge12" class="edge">
<title>section_6&#45;&gt;header_22</title>
<path fill="none" stroke="#000000" stroke-dasharray="5,2" d="M1619.1896,-143.8314C1619.1896,-136.131 1619.1896,-126.9743 1619.1896,-118.4166"/>
<polygon fill="#000000" stroke="#000000" points="1622.6897,-118.4132 1619.1896,-108.4133 1615.6897,-118.4133 1622.6897,-118.4132"/>
</g>
<!-- section_23 -->
<g id="node24" class="node">
<title>section_23</title>
<ellipse fill="none" stroke="#000000" cx="1794.1896" cy="-162" rx="52.7641" ry="18"/>
<text text-anchor="middle" x="1794.1896" y="-157.8" font-family="Helvetica,sans-Serif" font-size="14.00" fill="#000000">section_23</text>
</g>
<!-- header_27 -->
<g id="node25" class="node">
<title>header_27</title>
<ellipse fill="none" stroke="#000000" cx="1794.1896" cy="-90" rx="56.113" ry="18"/>
<text text-anchor="middle" x="1794.1896" y="-85.8" font-family="Helvetica,sans-Serif" font-size="14.00" fill="#000000">3 : Filtration</text>
</g>
<!-- section_23&#45;&gt;header_27 -->
<g id="edge13" class="edge">
<title>section_23&#45;&gt;header_27</title>
<path fill="none" stroke="#000000" stroke-dasharray="5,2" d="M1794.1896,-143.8314C1794.1896,-136.131 1794.1896,-126.9743 1794.1896,-118.4166"/>
<polygon fill="#000000" stroke="#000000" points="1797.6897,-118.4132 1794.1896,-108.4133 1790.6897,-118.4133 1797.6897,-118.4132"/>
</g>
<!-- section_24 -->
<g id="node26" class="node">
<title>section_24</title>
<ellipse fill="none" stroke="#000000" cx="1923.1896" cy="-162" rx="52.7641" ry="18"/>
<text text-anchor="middle" x="1923.1896" y="-157.8" font-family="Helvetica,sans-Serif" font-size="14.00" fill="#000000">section_24</text>
</g>
<!-- header_28 -->
<g id="node27" class="node">
<title>header_28</title>
<ellipse fill="none" stroke="#000000" cx="1923.1896" cy="-90" rx="55.3675" ry="18"/>
<text text-anchor="middle" x="1923.1896" y="-85.8" font-family="Helvetica,sans-Serif" font-size="14.00" fill="#000000">3 : Tangling</text>
</g>
<!-- section_24&#45;&gt;header_28 -->
<g id="edge14" class="edge">
<title>section_24&#45;&gt;header_28</title>
<path fill="none" stroke="#000000" stroke-dasharray="5,2" d="M1923.1896,-143.8314C1923.1896,-136.131 1923.1896,-126.9743 1923.1896,-118.4166"/>
<polygon fill="#000000" stroke="#000000" points="1926.6897,-118.4132 1923.1896,-108.4133 1919.6897,-118.4133 1926.6897,-118.4132"/>
</g>
<!-- section_25 -->
<g id="node28" class="node">
<title>section_25</title>
<ellipse fill="none" stroke="#000000" cx="2061.1896" cy="-162" rx="52.7641" ry="18"/>
<text text-anchor="middle" x="2061.1896" y="-157.8" font-family="Helvetica,sans-Serif" font-size="14.00" fill="#000000">section_25</text>
</g>
<!-- header_29 -->
<g id="node29" class="node">
<title>header_29</title>
<ellipse fill="none" stroke="#000000" cx="2061.1896" cy="-90" rx="64.8411" ry="18"/>
<text text-anchor="middle" x="2061.1896" y="-85.8" font-family="Helvetica,sans-Serif" font-size="14.00" fill="#000000">3 : Unraveling</text>
</g>
<!-- section_25&#45;&gt;header_29 -->
<g id="edge15" class="edge">
<title>section_25&#45;&gt;header_29</title>
<path fill="none" stroke="#000000" stroke-dasharray="5,2" d="M2061.1896,-143.8314C2061.1896,-136.131 2061.1896,-126.9743 2061.1896,-118.4166"/>
<polygon fill="#000000" stroke="#000000" points="2064.6897,-118.4132 2061.1896,-108.4133 2057.6897,-118.4133 2064.6897,-118.4132"/>
</g>
<!-- section_26 -->
<g id="node30" class="node">
<title>section_26</title>
<ellipse fill="none" stroke="#000000" cx="2200.1896" cy="-162" rx="52.7641" ry="18"/>
<text text-anchor="middle" x="2200.1896" y="-157.8" font-family="Helvetica,sans-Serif" font-size="14.00" fill="#000000">section_26</text>
</g>
<!-- header_30 -->
<g id="node31" class="node">
<title>header_30</title>
<ellipse fill="none" stroke="#000000" cx="2200.1896" cy="-90" rx="56.795" ry="18"/>
<text text-anchor="middle" x="2200.1896" y="-85.8" font-family="Helvetica,sans-Serif" font-size="14.00" fill="#000000">3 : Weaving</text>
</g>
<!-- section_26&#45;&gt;header_30 -->
<g id="edge16" class="edge">
<title>section_26&#45;&gt;header_30</title>
<path fill="none" stroke="#000000" stroke-dasharray="5,2" d="M2200.1896,-143.8314C2200.1896,-136.131 2200.1896,-126.9743 2200.1896,-118.4166"/>
<polygon fill="#000000" stroke="#000000" points="2203.6897,-118.4132 2200.1896,-108.4133 2196.6897,-118.4133 2203.6897,-118.4132"/>
</g>
</g>
</svg>