<?xml version="1.0" encoding="UTF-8" standalone="no"?>
<!DOCTYPE svg PUBLIC "-//W3C//DTD SVG 1.1//EN"
 "http://www.w3.org/Graphics/SVG/1.1/DTD/svg11.dtd">
<!-- Generated by graphviz version 2.40.1 (20161225.0304)
 -->
<!-- Title: hierarchy Pages: 1 -->
<svg width="2661pt" height="571pt"
 viewBox="0.00 0.00 2660.50 570.60" xmlns="http://www.w3.org/2000/svg" xmlns:xlink="http://www.w3.org/1999/xlink">
<g id="graph0" class="graph" transform="scale(1 1) rotate(0) translate(4 566.6003)">
<title>hierarchy</title>
<polygon fill="#ffffff" stroke="transparent" points="-4,4 -4,-566.6003 2656.5,-566.6003 2656.5,4 -4,4"/>
<!-- doc_0 -->
<g id="node1" class="node">
<title>doc_0</title>
<ellipse fill="none" stroke="#000000" cx="975" cy="-544.6003" rx="42.1216" ry="18"/>
<text text-anchor="middle" x="975" y="-540.4003" font-family="Helvetica,sans-Serif" font-size="14.00" fill="#000000">doc &#45; 40</text>
</g>
<!-- section_1 -->
<g id="node2" class="node">
<title>section_1</title>
<ellipse fill="none" stroke="#000000" cx="975" cy="-472.6003" rx="60.9826" ry="18"/>
<text text-anchor="middle" x="975" y="-468.4003" font-family="Helvetica,sans-Serif" font-size="14.00" fill="#000000">section: 1&#45;35</text>
</g>
<!-- doc_0&#45;&gt;section_1 -->
<g id="edge1" class="edge">
<title>doc_0&#45;&gt;section_1</title>
<path fill="none" stroke="#000000" stroke-dasharray="5,2" d="M975,-526.4316C975,-518.7312 975,-509.5746 975,-501.0169"/>
<polygon fill="#000000" stroke="#000000" points="978.5001,-501.0135 975,-491.0135 971.5001,-501.0136 978.5001,-501.0135"/>
</g>
<!-- header_2 -->
<g id="node3" class="node">
<title>header_2</title>
<ellipse fill="none" stroke="#000000" cx="647" cy="-400.6003" rx="137.8451" ry="18"/>
<text text-anchor="middle" x="647" y="-396.4003" font-family="Helvetica,sans-Serif" font-size="14.00" fill="#000000">1 : Pegylator and the Node class</text>
</g>
<!-- section_1&#45;&gt;header_2 -->
<g id="edge2" class="edge">
<title>section_1&#45;&gt;header_2</title>
<path fill="none" stroke="#000000" stroke-dasharray="5,2" d="M925.8951,-461.8212C873.4771,-450.3148 789.589,-431.9003 727.4898,-418.2688"/>
<polygon fill="#000000" stroke="#000000" points="728.2363,-414.8494 717.7184,-416.1238 726.7354,-421.6866 728.2363,-414.8494"/>
</g>
<!-- prose_3 -->
<g id="node4" class="node">
<title>prose_3</title>
<ellipse fill="none" stroke="#000000" cx="835" cy="-400.6003" rx="32.4585" ry="18"/>
<text text-anchor="middle" x="835" y="-396.4003" font-family="Helvetica,sans-Serif" font-size="14.00" fill="#000000">prose</text>
</g>
<!-- section_1&#45;&gt;prose_3 -->
<g id="edge3" class="edge">
<title>section_1&#45;&gt;prose_3</title>
<path fill="none" stroke="#000000" stroke-dasharray="5,2" d="M944.6221,-456.9774C922.0039,-445.3452 891.1565,-429.4808 867.9458,-417.5438"/>
<polygon fill="#000000" stroke="#000000" points="869.322,-414.3159 858.8284,-412.8549 866.1205,-420.5409 869.322,-414.3159"/>
</g>
<!-- prose_4 -->
<g id="node5" class="node">
<title>prose_4</title>
<ellipse fill="none" stroke="#000000" cx="917" cy="-400.6003" rx="32.4585" ry="18"/>
<text text-anchor="middle" x="917" y="-396.4003" font-family="Helvetica,sans-Serif" font-size="14.00" fill="#000000">prose</text>
</g>
<!-- section_1&#45;&gt;prose_4 -->
<g id="edge4" class="edge">
<title>section_1&#45;&gt;prose_4</title>
<path fill="none" stroke="#000000" stroke-dasharray="5,2" d="M960.6629,-454.8025C953.4296,-445.8232 944.5447,-434.7937 936.6822,-425.0334"/>
<polygon fill="#000000" stroke="#000000" points="939.3759,-422.798 930.3769,-417.2061 933.9246,-427.1893 939.3759,-422.798"/>
</g>
<!-- section_5 -->
<g id="node6" class="node">
<title>section_5</title>
<ellipse fill="none" stroke="#000000" cx="1033" cy="-400.6003" rx="65.8187" ry="18"/>
<text text-anchor="middle" x="1033" y="-396.4003" font-family="Helvetica,sans-Serif" font-size="14.00" fill="#000000">section: 10&#45;13</text>
</g>
<!-- section_1&#45;&gt;section_5 -->
<g id="edge5" class="edge">
<title>section_1&#45;&gt;section_5</title>
<path fill="none" stroke="#000000" stroke-dasharray="5,2" d="M989.3371,-454.8025C996.2905,-446.1707 1004.7702,-435.6442 1012.4006,-426.1719"/>
<polygon fill="#000000" stroke="#000000" points="1015.2802,-428.1765 1018.8278,-418.1933 1009.8289,-423.7852 1015.2802,-428.1765"/>
</g>
<!-- section_6 -->
<g id="node7" class="node">
<title>section_6</title>
<ellipse fill="none" stroke="#000000" cx="1322" cy="-400.6003" rx="65.8187" ry="18"/>
<text text-anchor="middle" x="1322" y="-396.4003" font-family="Helvetica,sans-Serif" font-size="14.00" fill="#000000">section: 31&#45;35</text>
</g>
<!-- section_1&#45;&gt;section_6 -->
<g id="edge6" class="edge">
<title>section_1&#45;&gt;section_6</title>
<path fill="none" stroke="#000000" stroke-dasharray="5,2" d="M1025.0862,-462.2078C1086.9438,-449.3728 1192.1954,-427.5338 1259.3428,-413.6012"/>
<polygon fill="#000000" stroke="#000000" points="1260.2911,-416.9791 1269.3715,-411.5203 1258.8689,-410.125 1260.2911,-416.9791"/>
</g>
<!-- section_7 -->
<g id="node8" class="node">
<title>section_7</title>
<ellipse fill="none" stroke="#000000" cx="1787" cy="-400.6003" rx="65.8187" ry="18"/>
<text text-anchor="middle" x="1787" y="-396.4003" font-family="Helvetica,sans-Serif" font-size="14.00" fill="#000000">section: 36&#45;40</text>
</g>
<!-- section_1&#45;&gt;section_7 -->
<g id="edge7" class="edge">
<title>section_1&#45;&gt;section_7</title>
<path fill="none" stroke="#000000" stroke-dasharray="5,2" d="M1033.397,-467.4222C1178.4861,-454.5572 1555.0884,-421.1639 1714.2695,-407.0493"/>
<polygon fill="#000000" stroke="#000000" points="1714.7835,-410.5175 1724.4353,-406.1479 1714.1652,-403.5449 1714.7835,-410.5175"/>
</g>
<!-- leaf_8 -->
<g id="node9" class="node">
<title>leaf_8</title>
<polygon fill="none" stroke="#c0c0c0" points="534,-346.7005 0,-346.7005 0,-244.2999 534,-244.2999 534,-346.7005"/>
<text text-anchor="middle" x="267" y="-283.4003" font-family="Inconsolata" font-size="14.00" fill="#000000"> &#160;Current grym has a nodule of undigested code in the =/peg= directory.</text>
<text text-anchor="middle" x="267" y="-268.0002" font-family="Inconsolata" font-size="14.00" fill="#000000">This is early 2015 era stuff, and is built somewhat blindly upon epnf as I</text>
<text text-anchor="middle" x="267" y="-252.6002" font-family="Inconsolata" font-size="14.00" fill="#000000">found it on the internet.</text>
</g>
<!-- prose_3&#45;&gt;leaf_8 -->
<g id="edge8" class="edge">
<title>prose_3&#45;&gt;leaf_8</title>
<path fill="none" stroke="#000000" stroke-dasharray="5,2" d="M810.6846,-388.6372C805.2912,-386.3496 799.5317,-384.1794 794,-382.6003 688.701,-352.5408 656.0492,-364.1502 544.2761,-346.7582"/>
<polygon fill="#000000" stroke="#000000" points="544.725,-343.2856 534.2976,-345.1618 543.6191,-350.1977 544.725,-343.2856"/>
</g>
<!-- leaf_9 -->
<g id="node10" class="node">
<title>leaf_9</title>
<polygon fill="none" stroke="#c0c0c0" points="799.5,-315.4023 552.5,-315.4023 552.5,-275.5982 799.5,-275.5982 799.5,-315.4023"/>
<text text-anchor="middle" x="676" y="-284.0002" font-family="Inconsolata" font-size="14.00" fill="#000000">It needs a substantial refactor. </text>
</g>
<!-- prose_4&#45;&gt;leaf_9 -->
<g id="edge9" class="edge">
<title>prose_4&#45;&gt;leaf_9</title>
<path fill="none" stroke="#000000" stroke-dasharray="5,2" d="M891.416,-389.3544C886.3106,-387.1141 880.9859,-384.7804 876,-382.6003 827.0102,-361.179 771.2269,-336.8942 731.043,-319.4194"/>
<polygon fill="#000000" stroke="#000000" points="732.257,-316.1308 721.6908,-315.3529 729.4657,-322.5502 732.257,-316.1308"/>
</g>
<!-- header_10 -->
<g id="node11" class="node">
<title>header_10</title>
<ellipse fill="none" stroke="#000000" cx="900" cy="-295.5002" rx="82.1803" ry="18"/>
<text text-anchor="middle" x="900" y="-291.3002" font-family="Helvetica,sans-Serif" font-size="14.00" fill="#000000">2 : Grammar class</text>
</g>
<!-- section_5&#45;&gt;header_10 -->
<g id="edge10" class="edge">
<title>section_5&#45;&gt;header_10</title>
<path fill="none" stroke="#000000" stroke-dasharray="5,2" d="M1011.3352,-383.4802C989.2472,-366.0257 954.8065,-338.8097 930.0799,-319.2702"/>
<polygon fill="#000000" stroke="#000000" points="932.1147,-316.4172 922.0987,-312.9632 927.7746,-321.9094 932.1147,-316.4172"/>
</g>
<!-- prose_11 -->
<g id="node12" class="node">
<title>prose_11</title>
<ellipse fill="none" stroke="#000000" cx="1033" cy="-295.5002" rx="32.4585" ry="18"/>
<text text-anchor="middle" x="1033" y="-291.3002" font-family="Helvetica,sans-Serif" font-size="14.00" fill="#000000">prose</text>
</g>
<!-- section_5&#45;&gt;prose_11 -->
<g id="edge11" class="edge">
<title>section_5&#45;&gt;prose_11</title>
<path fill="none" stroke="#000000" stroke-dasharray="5,2" d="M1033,-382.2932C1033,-366.1677 1033,-342.4224 1033,-323.8431"/>
<polygon fill="#000000" stroke="#000000" points="1036.5001,-323.5974 1033,-313.5975 1029.5001,-323.5975 1036.5001,-323.5974"/>
</g>
<!-- section_12 -->
<g id="node13" class="node">
<title>section_12</title>
<ellipse fill="none" stroke="#000000" cx="1149" cy="-295.5002" rx="65.8187" ry="18"/>
<text text-anchor="middle" x="1149" y="-291.3002" font-family="Helvetica,sans-Serif" font-size="14.00" fill="#000000">section: 14&#45;30</text>
</g>
<!-- section_5&#45;&gt;section_12 -->
<g id="edge12" class="edge">
<title>section_5&#45;&gt;section_12</title>
<path fill="none" stroke="#000000" stroke-dasharray="5,2" d="M1052.155,-383.2451C1071.2972,-365.9017 1100.8868,-339.0925 1122.3225,-319.671"/>
<polygon fill="#000000" stroke="#000000" points="1124.7558,-322.1892 1129.8165,-312.8812 1120.0558,-317.0018 1124.7558,-322.1892"/>
</g>
<!-- header_23 -->
<g id="node24" class="node">
<title>header_23</title>
<ellipse fill="none" stroke="#000000" cx="1322" cy="-295.5002" rx="66.2859" ry="18"/>
<text text-anchor="middle" x="1322" y="-291.3002" font-family="Helvetica,sans-Serif" font-size="14.00" fill="#000000">2 : Node class</text>
</g>
<!-- section_6&#45;&gt;header_23 -->
<g id="edge23" class="edge">
<title>section_6&#45;&gt;header_23</title>
<path fill="none" stroke="#000000" stroke-dasharray="5,2" d="M1322,-382.2932C1322,-366.1677 1322,-342.4224 1322,-323.8431"/>
<polygon fill="#000000" stroke="#000000" points="1325.5001,-323.5974 1322,-313.5975 1318.5001,-323.5975 1325.5001,-323.5974"/>
</g>
<!-- prose_24 -->
<g id="node25" class="node">
<title>prose_24</title>
<ellipse fill="none" stroke="#000000" cx="1450" cy="-295.5002" rx="32.4585" ry="18"/>
<text text-anchor="middle" x="1450" y="-291.3002" font-family="Helvetica,sans-Serif" font-size="14.00" fill="#000000">prose</text>
</g>
<!-- section_6&#45;&gt;prose_24 -->
<g id="edge24" class="edge">
<title>section_6&#45;&gt;prose_24</title>
<path fill="none" stroke="#000000" stroke-dasharray="5,2" d="M1346.9843,-383.9472C1361.8973,-373.6832 1380.9877,-359.9669 1397,-346.6003 1407.2721,-338.0254 1418.0061,-327.9183 1427.1063,-318.9661"/>
<polygon fill="#000000" stroke="#000000" points="1429.7077,-321.3149 1434.3203,-311.7769 1424.7665,-316.3567 1429.7077,-321.3149"/>
</g>
<!-- header_26 -->
<g id="node27" class="node">
<title>header_26</title>
<ellipse fill="none" stroke="#000000" cx="1727" cy="-295.5002" rx="70.1273" ry="18"/>
<text text-anchor="middle" x="1727" y="-291.3002" font-family="Helvetica,sans-Serif" font-size="14.00" fill="#000000">2 : Forest class</text>
</g>
<!-- section_7&#45;&gt;header_26 -->
<g id="edge26" class="edge">
<title>section_7&#45;&gt;header_26</title>
<path fill="none" stroke="#000000" stroke-dasharray="5,2" d="M1776.8218,-382.7715C1767.3401,-366.1627 1753.0769,-341.1782 1742.238,-322.1921"/>
<polygon fill="#000000" stroke="#000000" points="1745.2256,-320.3657 1737.2281,-313.4165 1739.1464,-323.8362 1745.2256,-320.3657"/>
</g>
<!-- prose_27 -->
<g id="node28" class="node">
<title>prose_27</title>
<ellipse fill="none" stroke="#000000" cx="1847" cy="-295.5002" rx="32.4585" ry="18"/>
<text text-anchor="middle" x="1847" y="-291.3002" font-family="Helvetica,sans-Serif" font-size="14.00" fill="#000000">prose</text>
</g>
<!-- section_7&#45;&gt;prose_27 -->
<g id="edge27" class="edge">
<title>section_7&#45;&gt;prose_27</title>
<path fill="none" stroke="#000000" stroke-dasharray="5,2" d="M1797.1782,-382.7715C1806.7748,-365.9614 1821.2696,-340.5713 1832.1546,-321.5044"/>
<polygon fill="#000000" stroke="#000000" points="1835.2526,-323.1372 1837.1709,-312.7175 1829.1735,-319.6667 1835.2526,-323.1372"/>
</g>
<!-- prose_28 -->
<g id="node29" class="node">
<title>prose_28</title>
<ellipse fill="none" stroke="#000000" cx="2163" cy="-295.5002" rx="32.4585" ry="18"/>
<text text-anchor="middle" x="2163" y="-291.3002" font-family="Helvetica,sans-Serif" font-size="14.00" fill="#000000">prose</text>
</g>
<!-- section_7&#45;&gt;prose_28 -->
<g id="edge28" class="edge">
<title>section_7&#45;&gt;prose_28</title>
<path fill="none" stroke="#000000" stroke-dasharray="5,2" d="M1833.105,-387.713C1907.8678,-366.8151 2054.2071,-325.9102 2124.0732,-306.3811"/>
<polygon fill="#000000" stroke="#000000" points="2125.1202,-309.7227 2133.8088,-303.6598 2123.2357,-302.9811 2125.1202,-309.7227"/>
</g>
<!-- leaf_13 -->
<g id="node14" class="node">
<title>leaf_13</title>
<polygon fill="none" stroke="#c0c0c0" points="571.5,-200.6017 422.5,-200.6017 422.5,-144.7987 571.5,-144.7987 571.5,-200.6017"/>
<text text-anchor="middle" x="497" y="-153.2002" font-family="Inconsolata" font-size="14.00" fill="#000000">This has the verbs:</text>
</g>
<!-- prose_11&#45;&gt;leaf_13 -->
<g id="edge13" class="edge">
<title>prose_11&#45;&gt;leaf_13</title>
<path fill="none" stroke="#000000" stroke-dasharray="5,2" d="M1023.7049,-278.1504C1016.4499,-266.4767 1005.2222,-251.8969 991,-244.4002 909.8946,-201.6486 668.9053,-230.7971 580,-208.4002 574.9947,-207.1392 569.9047,-205.6126 564.8347,-203.9094"/>
<polygon fill="#000000" stroke="#000000" points="565.7311,-200.5129 555.1365,-200.4399 563.3731,-207.1039 565.7311,-200.5129"/>
</g>
<!-- header_14 -->
<g id="node15" class="node">
<title>header_14</title>
<ellipse fill="none" stroke="#000000" cx="800" cy="-172.7002" rx="210.7615" ry="18"/>
<text text-anchor="middle" x="800" y="-168.5002" font-family="Helvetica,sans-Serif" font-size="14.00" fill="#000000">3 : Grammar / new(Grammar, g_func, meta_tables)</text>
</g>
<!-- section_12&#45;&gt;header_14 -->
<g id="edge14" class="edge">
<title>section_12&#45;&gt;header_14</title>
<path fill="none" stroke="#000000" stroke-dasharray="5,2" d="M1127.8676,-278.1923C1113.4518,-267.1418 1093.5038,-253.2747 1074,-244.4002 1019.9708,-219.8162 955.9683,-202.474 903.4131,-191.0105"/>
<polygon fill="#000000" stroke="#000000" points="903.9112,-187.5379 893.4001,-188.8669 902.4458,-194.3828 903.9112,-187.5379"/>
</g>
<!-- prose_15 -->
<g id="node16" class="node">
<title>prose_15</title>
<ellipse fill="none" stroke="#000000" cx="1061" cy="-172.7002" rx="32.4585" ry="18"/>
<text text-anchor="middle" x="1061" y="-168.5002" font-family="Helvetica,sans-Serif" font-size="14.00" fill="#000000">prose</text>
</g>
<!-- section_12&#45;&gt;prose_15 -->
<g id="edge15" class="edge">
<title>section_12&#45;&gt;prose_15</title>
<path fill="none" stroke="#000000" stroke-dasharray="5,2" d="M1136.204,-277.6441C1121.1749,-256.6715 1096.1385,-221.7344 1079.1185,-197.9837"/>
<polygon fill="#000000" stroke="#000000" points="1081.9139,-195.8758 1073.244,-189.7861 1076.224,-199.9532 1081.9139,-195.8758"/>
</g>
<!-- prose_16 -->
<g id="node17" class="node">
<title>prose_16</title>
<ellipse fill="none" stroke="#000000" cx="1143" cy="-172.7002" rx="32.4585" ry="18"/>
<text text-anchor="middle" x="1143" y="-168.5002" font-family="Helvetica,sans-Serif" font-size="14.00" fill="#000000">prose</text>
</g>
<!-- section_12&#45;&gt;prose_16 -->
<g id="edge16" class="edge">
<title>section_12&#45;&gt;prose_16</title>
<path fill="none" stroke="#000000" stroke-dasharray="5,2" d="M1148.1147,-277.3807C1147.1309,-257.2468 1145.53,-224.4802 1144.3811,-200.9674"/>
<polygon fill="#000000" stroke="#000000" points="1147.8729,-200.7113 1143.889,-190.8941 1140.8812,-201.053 1147.8729,-200.7113"/>
</g>
<!-- prose_17 -->
<g id="node18" class="node">
<title>prose_17</title>
<ellipse fill="none" stroke="#000000" cx="1225" cy="-172.7002" rx="32.4585" ry="18"/>
<text text-anchor="middle" x="1225" y="-168.5002" font-family="Helvetica,sans-Serif" font-size="14.00" fill="#000000">prose</text>
</g>
<!-- section_12&#45;&gt;prose_17 -->
<g id="edge17" class="edge">
<title>section_12&#45;&gt;prose_17</title>
<path fill="none" stroke="#000000" stroke-dasharray="5,2" d="M1160.0511,-277.6441C1172.9739,-256.7635 1194.4636,-222.0406 1209.1584,-198.2968"/>
<polygon fill="#000000" stroke="#000000" points="1212.1392,-200.1313 1214.4257,-189.7861 1206.1869,-196.4474 1212.1392,-200.1313"/>
</g>
<!-- prose_18 -->
<g id="node19" class="node">
<title>prose_18</title>
<ellipse fill="none" stroke="#000000" cx="1307" cy="-172.7002" rx="32.4585" ry="18"/>
<text text-anchor="middle" x="1307" y="-168.5002" font-family="Helvetica,sans-Serif" font-size="14.00" fill="#000000">prose</text>
</g>
<!-- section_12&#45;&gt;prose_18 -->
<g id="edge18" class="edge">
<title>section_12&#45;&gt;prose_18</title>
<path fill="none" stroke="#000000" stroke-dasharray="5,2" d="M1172.7088,-278.6649C1196.6333,-261.488 1234.4486,-233.8193 1266,-208.4002 1271.2092,-204.2035 1276.6765,-199.5942 1281.8599,-195.1224"/>
<polygon fill="#000000" stroke="#000000" points="1284.4594,-197.4993 1289.6935,-188.2876 1279.8573,-192.2247 1284.4594,-197.4993"/>
</g>
<!-- leaf_19 -->
<g id="node20" class="node">
<title>leaf_19</title>
<polygon fill="none" stroke="#c0c0c0" points="590,-78.4016 126,-78.4016 126,-22.5986 590,-22.5986 590,-78.4016"/>
<text text-anchor="middle" x="358" y="-31.0001" font-family="Inconsolata" font-size="14.00" fill="#000000">This takes a function, building and returning a grammar over it.</text>
</g>
<!-- prose_15&#45;&gt;leaf_19 -->
<g id="edge19" class="edge">
<title>prose_15&#45;&gt;leaf_19</title>
<path fill="none" stroke="#000000" stroke-dasharray="5,2" d="M1046.67,-156.1804C1039.4437,-149.0028 1030.0805,-141.2723 1020,-137.0002 933.5465,-100.361 691.899,-114.6539 599,-101.0002 562.1764,-95.588 522.5247,-88.0161 486.2276,-80.3794"/>
<polygon fill="#000000" stroke="#000000" points="486.593,-76.8791 476.0841,-78.2255 485.139,-83.7264 486.593,-76.8791"/>
</g>
<!-- leaf_20 -->
<g id="node21" class="node">
<title>leaf_20</title>
<polygon fill="none" stroke="#c0c0c0" points="1170,-101.0002 608,-101.0002 608,.0001 1170,.0001 1170,-101.0002"/>
<text text-anchor="middle" x="889" y="-69.8002" font-family="Inconsolata" font-size="14.00" fill="#000000"> &#160;&#45; #params</text>
<text text-anchor="middle" x="889" y="-54.4001" font-family="Inconsolata" font-size="14.00" fill="#000000"> &#160;&#160;&#160;&#45; Grammar : &#160;The __call object</text>
<text text-anchor="middle" x="889" y="-39.0001" font-family="Inconsolata" font-size="14.00" fill="#000000"> &#160;&#160;&#160;&#45; g_func &#160;: &#160;The function(_ENV) grammar</text>
<text text-anchor="middle" x="889" y="-23.6001" font-family="Inconsolata" font-size="14.00" fill="#000000"> &#160;&#160;&#160;&#45; meta_tables : &#160;A map of rule ids to metatables. &#160;These should themsevles</text>
<text text-anchor="middle" x="889" y="-8.2" font-family="Inconsolata" font-size="14.00" fill="#000000"> &#160;&#160;&#160;&#160;&#160;&#160;&#160;&#160;&#160;&#160;&#160;&#160;inherit from Node.</text>
</g>
<!-- prose_16&#45;&gt;leaf_20 -->
<g id="edge20" class="edge">
<title>prose_16&#45;&gt;leaf_20</title>
<path fill="none" stroke="#000000" stroke-dasharray="5,2" d="M1127.2249,-156.7746C1119.9793,-150.0602 1111.0059,-142.5352 1102,-137.0002 1083.1171,-125.3948 1062.4036,-114.7541 1041.5424,-105.2056"/>
<polygon fill="#000000" stroke="#000000" points="1042.8325,-101.9482 1032.2768,-101.0387 1039.9615,-108.3324 1042.8325,-101.9482"/>
</g>
<!-- leaf_21 -->
<g id="node22" class="node">
<title>leaf_21</title>
<polygon fill="none" stroke="#c0c0c0" points="1771.5,-77.8005 1188.5,-77.8005 1188.5,-23.1997 1771.5,-23.1997 1771.5,-77.8005"/>
<text text-anchor="middle" x="1480" y="-46.7001" font-family="Inconsolata" font-size="14.00" fill="#000000">The constructor handles building the metatable stack so that the table it returns</text>
<text text-anchor="middle" x="1480" y="-31.3001" font-family="Inconsolata" font-size="14.00" fill="#000000">works like a function over a string returning a Node. </text>
</g>
<!-- prose_17&#45;&gt;leaf_21 -->
<g id="edge21" class="edge">
<title>prose_17&#45;&gt;leaf_21</title>
<path fill="none" stroke="#000000" stroke-dasharray="5,2" d="M1240.7709,-156.7677C1248.0156,-150.052 1256.9896,-142.5278 1266,-137.0002 1302.6848,-114.495 1346.2535,-95.6487 1384.4736,-81.3522"/>
<polygon fill="#000000" stroke="#000000" points="1385.8953,-84.5584 1394.0679,-77.8161 1383.4745,-77.9903 1385.8953,-84.5584"/>
</g>
<!-- leaf_22 -->
<g id="node23" class="node">
<title>leaf_22</title>
<polygon fill="none" stroke="#c0c0c0" points="2358.5,-85.8004 1789.5,-85.8004 1789.5,-15.1997 2358.5,-15.1997 2358.5,-85.8004"/>
<text text-anchor="middle" x="2074" y="-54.7001" font-family="Inconsolata" font-size="14.00" fill="#000000">Also automated: If a string isn&#39;t provided in =meta_tables=, the Node metatable</text>
<text text-anchor="middle" x="2074" y="-39.3001" font-family="Inconsolata" font-size="14.00" fill="#000000">is assigned. I also have some notes on the [[Node class][./node]].</text>
</g>
<!-- prose_18&#45;&gt;leaf_22 -->
<g id="edge22" class="edge">
<title>prose_18&#45;&gt;leaf_22</title>
<path fill="none" stroke="#000000" stroke-dasharray="5,2" d="M1321.3255,-156.1697C1328.5508,-148.9898 1337.9145,-141.2604 1348,-137.0002 1436.9444,-99.4287 1685.2211,-113.2118 1781,-101.0002 1810.9166,-97.1858 1842.4395,-92.4821 1873.2771,-87.4936"/>
<polygon fill="#000000" stroke="#000000" points="1873.9564,-90.9292 1883.2624,-85.8648 1872.8293,-84.0205 1873.9564,-90.9292"/>
</g>
<!-- leaf_25 -->
<g id="node26" class="node">
<title>leaf_25</title>
<polygon fill="none" stroke="#c0c0c0" points="1555,-208.6013 1357,-208.6013 1357,-136.799 1555,-136.799 1555,-208.6013"/>
<text text-anchor="middle" x="1456" y="-161.2002" font-family="Inconsolata" font-size="14.00" fill="#000000"> &#160;Covered [[here][./node]]</text>
</g>
<!-- prose_24&#45;&gt;leaf_25 -->
<g id="edge25" class="edge">
<title>prose_24&#45;&gt;leaf_25</title>
<path fill="none" stroke="#000000" stroke-dasharray="5,2" d="M1450.8853,-277.3807C1451.641,-261.9136 1452.761,-238.9913 1453.7605,-218.5363"/>
<polygon fill="#000000" stroke="#000000" points="1457.2621,-218.5868 1454.2543,-208.4278 1450.2704,-218.2451 1457.2621,-218.5868"/>
</g>
<!-- leaf_29 -->
<g id="node30" class="node">
<title>leaf_29</title>
<polygon fill="none" stroke="#c0c0c0" points="2121,-200.6017 1573,-200.6017 1573,-144.7987 2121,-144.7987 2121,-200.6017"/>
<text text-anchor="middle" x="1847" y="-153.2002" font-family="Inconsolata" font-size="14.00" fill="#000000"> &#160;This is just an array of Nodes offering a familiar =select= etc interface.</text>
</g>
<!-- prose_27&#45;&gt;leaf_29 -->
<g id="edge29" class="edge">
<title>prose_27&#45;&gt;leaf_29</title>
<path fill="none" stroke="#000000" stroke-dasharray="5,2" d="M1847,-277.3807C1847,-259.8717 1847,-232.8092 1847,-210.587"/>
<polygon fill="#000000" stroke="#000000" points="1850.5001,-210.4503 1847,-200.4503 1843.5001,-210.4504 1850.5001,-210.4503"/>
</g>
<!-- leaf_30 -->
<g id="node31" class="node">
<title>leaf_30</title>
<polygon fill="none" stroke="#c0c0c0" points="2652.5,-192.6023 2139.5,-192.6023 2139.5,-152.7981 2652.5,-152.7981 2652.5,-192.6023"/>
<text text-anchor="middle" x="2396" y="-161.2002" font-family="Inconsolata" font-size="14.00" fill="#000000">These are the only classes which should exist once this is cleaned up. </text>
</g>
<!-- prose_28&#45;&gt;leaf_30 -->
<g id="edge30" class="edge">
<title>prose_28&#45;&gt;leaf_30</title>
<path fill="none" stroke="#000000" stroke-dasharray="5,2" d="M2186.6235,-283.0497C2224.7438,-262.9588 2300.5121,-223.026 2349.6852,-197.1099"/>
<polygon fill="#000000" stroke="#000000" points="2351.3276,-200.2007 2358.5423,-192.4418 2348.0639,-194.0081 2351.3276,-200.2007"/>
</g>
</g>
</svg>