<?xml version="1.0" encoding="UTF-8" standalone="no"?>
<!DOCTYPE svg PUBLIC "-//W3C//DTD SVG 1.1//EN"
 "http://www.w3.org/Graphics/SVG/1.1/DTD/svg11.dtd">
<!-- Generated by graphviz version 2.40.1 (20161225.0304)
 -->
<!-- Title: hierarchy Pages: 1 -->
<svg width="3032pt" height="643pt"
 viewBox="0.00 0.00 3031.50 642.60" xmlns="http://www.w3.org/2000/svg" xmlns:xlink="http://www.w3.org/1999/xlink">
<g id="graph0" class="graph" transform="scale(1 1) rotate(0) translate(4 638.6003)">
<title>hierarchy</title>
<polygon fill="#ffffff" stroke="transparent" points="-4,4 -4,-638.6003 3027.5,-638.6003 3027.5,4 -4,4"/>
<!-- doc_0 -->
<g id="node1" class="node">
<title>doc_0</title>
<ellipse fill="none" stroke="#000000" cx="910" cy="-616.6003" rx="42.1216" ry="18"/>
<text text-anchor="middle" x="910" y="-612.4003" font-family="Helvetica,sans-Serif" font-size="14.00" fill="#000000">doc &#45; 40</text>
</g>
<!-- section_1 -->
<g id="node2" class="node">
<title>section_1</title>
<ellipse fill="none" stroke="#000000" cx="910" cy="-544.6003" rx="60.9826" ry="18"/>
<text text-anchor="middle" x="910" y="-540.4003" font-family="Helvetica,sans-Serif" font-size="14.00" fill="#000000">section: 1&#45;35</text>
</g>
<!-- doc_0&#45;&gt;section_1 -->
<g id="edge1" class="edge">
<title>doc_0&#45;&gt;section_1</title>
<path fill="none" stroke="#000000" stroke-dasharray="5,2" d="M910,-598.4316C910,-590.7312 910,-581.5746 910,-573.0169"/>
<polygon fill="#000000" stroke="#000000" points="913.5001,-573.0135 910,-563.0135 906.5001,-573.0136 913.5001,-573.0135"/>
</g>
<!-- header_2 -->
<g id="node3" class="node">
<title>header_2</title>
<ellipse fill="none" stroke="#000000" cx="576" cy="-472.6003" rx="137.8451" ry="18"/>
<text text-anchor="middle" x="576" y="-468.4003" font-family="Helvetica,sans-Serif" font-size="14.00" fill="#000000">1 : Pegylator and the Node class</text>
</g>
<!-- section_1&#45;&gt;header_2 -->
<g id="edge2" class="edge">
<title>section_1&#45;&gt;header_2</title>
<path fill="none" stroke="#000000" stroke-dasharray="5,2" d="M860.7171,-533.9764C807.321,-522.4659 721.2571,-503.9132 657.7122,-490.2149"/>
<polygon fill="#000000" stroke="#000000" points="658.2285,-486.7459 647.7155,-488.0599 656.7533,-493.5887 658.2285,-486.7459"/>
</g>
<!-- prose_3 -->
<g id="node4" class="node">
<title>prose_3</title>
<ellipse fill="none" stroke="#000000" cx="768" cy="-472.6003" rx="32.4585" ry="18"/>
<text text-anchor="middle" x="768" y="-468.4003" font-family="Helvetica,sans-Serif" font-size="14.00" fill="#000000">prose</text>
</g>
<!-- section_1&#45;&gt;prose_3 -->
<g id="edge3" class="edge">
<title>section_1&#45;&gt;prose_3</title>
<path fill="none" stroke="#000000" stroke-dasharray="5,2" d="M879.1881,-528.9774C856.1449,-517.2935 824.6805,-501.3397 801.103,-489.3849"/>
<polygon fill="#000000" stroke="#000000" points="802.6706,-486.2556 792.1688,-484.8549 799.505,-492.4989 802.6706,-486.2556"/>
</g>
<!-- prose_4 -->
<g id="node5" class="node">
<title>prose_4</title>
<ellipse fill="none" stroke="#000000" cx="852" cy="-472.6003" rx="32.4585" ry="18"/>
<text text-anchor="middle" x="852" y="-468.4003" font-family="Helvetica,sans-Serif" font-size="14.00" fill="#000000">prose</text>
</g>
<!-- section_1&#45;&gt;prose_4 -->
<g id="edge4" class="edge">
<title>section_1&#45;&gt;prose_4</title>
<path fill="none" stroke="#000000" stroke-dasharray="5,2" d="M895.6629,-526.8025C888.4296,-517.8232 879.5447,-506.7937 871.6822,-497.0334"/>
<polygon fill="#000000" stroke="#000000" points="874.3759,-494.798 865.3769,-489.2061 868.9246,-499.1893 874.3759,-494.798"/>
</g>
<!-- section_5 -->
<g id="node6" class="node">
<title>section_5</title>
<ellipse fill="none" stroke="#000000" cx="969" cy="-472.6003" rx="65.8187" ry="18"/>
<text text-anchor="middle" x="969" y="-468.4003" font-family="Helvetica,sans-Serif" font-size="14.00" fill="#000000">section: 10&#45;13</text>
</g>
<!-- section_1&#45;&gt;section_5 -->
<g id="edge5" class="edge">
<title>section_1&#45;&gt;section_5</title>
<path fill="none" stroke="#000000" stroke-dasharray="5,2" d="M924.5843,-526.8025C931.6576,-518.1707 940.2834,-507.6442 948.0454,-498.1719"/>
<polygon fill="#000000" stroke="#000000" points="950.9524,-500.1465 954.5835,-490.1933 945.538,-495.7097 950.9524,-500.1465"/>
</g>
<!-- section_6 -->
<g id="node7" class="node">
<title>section_6</title>
<ellipse fill="none" stroke="#000000" cx="1713" cy="-472.6003" rx="65.8187" ry="18"/>
<text text-anchor="middle" x="1713" y="-468.4003" font-family="Helvetica,sans-Serif" font-size="14.00" fill="#000000">section: 31&#45;35</text>
</g>
<!-- section_1&#45;&gt;section_6 -->
<g id="edge6" class="edge">
<title>section_1&#45;&gt;section_6</title>
<path fill="none" stroke="#000000" stroke-dasharray="5,2" d="M968.3966,-539.3642C1112.1297,-526.4766 1482.7743,-493.2432 1640.3628,-479.1132"/>
<polygon fill="#000000" stroke="#000000" points="1640.7826,-482.5897 1650.4301,-478.2105 1640.1574,-475.6177 1640.7826,-482.5897"/>
</g>
<!-- section_7 -->
<g id="node8" class="node">
<title>section_7</title>
<ellipse fill="none" stroke="#000000" cx="2158" cy="-472.6003" rx="65.8187" ry="18"/>
<text text-anchor="middle" x="2158" y="-468.4003" font-family="Helvetica,sans-Serif" font-size="14.00" fill="#000000">section: 36&#45;40</text>
</g>
<!-- section_1&#45;&gt;section_7 -->
<g id="edge7" class="edge">
<title>section_1&#45;&gt;section_7</title>
<path fill="none" stroke="#000000" stroke-dasharray="5,2" d="M969.7732,-541.1518C1175.803,-529.2655 1856.17,-490.0136 2083.3807,-476.9052"/>
<polygon fill="#000000" stroke="#000000" points="2083.7506,-480.3898 2093.5324,-476.3196 2083.3474,-473.4014 2083.7506,-480.3898"/>
</g>
<!-- leaf_8 -->
<g id="node9" class="node">
<title>leaf_8</title>
<polygon fill="none" stroke="#c0c0c0" points="601,-418.6003 547,-418.6003 547,-382.6003 601,-382.6003 601,-418.6003"/>
</g>
<!-- header_2&#45;&gt;leaf_8 -->
<g id="edge8" class="edge">
<title>header_2&#45;&gt;leaf_8</title>
<path fill="none" stroke="#000000" stroke-dasharray="5,2" d="M575.4953,-454.4316C575.2814,-446.7312 575.0271,-437.5746 574.7894,-429.0169"/>
<polygon fill="#000000" stroke="#000000" points="578.2879,-428.9125 574.5115,-419.0135 571.2906,-429.1069 578.2879,-428.9125"/>
</g>
<!-- raw_9 -->
<g id="node10" class="node">
<title>raw_9</title>
<ellipse fill="none" stroke="#000000" cx="646" cy="-400.6003" rx="27" ry="18"/>
<text text-anchor="middle" x="646" y="-396.4003" font-family="Helvetica,sans-Serif" font-size="14.00" fill="#000000">raw</text>
</g>
<!-- prose_3&#45;&gt;raw_9 -->
<g id="edge9" class="edge">
<title>prose_3&#45;&gt;raw_9</title>
<path fill="none" stroke="#000000" stroke-dasharray="5,2" d="M745.6233,-459.3944C725.8807,-447.743 696.9684,-430.68 675.37,-417.9334"/>
<polygon fill="#000000" stroke="#000000" points="677.0004,-414.8315 666.6094,-412.7632 673.4426,-420.86 677.0004,-414.8315"/>
</g>
<!-- raw_11 -->
<g id="node12" class="node">
<title>raw_11</title>
<ellipse fill="none" stroke="#000000" cx="718" cy="-400.6003" rx="27" ry="18"/>
<text text-anchor="middle" x="718" y="-396.4003" font-family="Helvetica,sans-Serif" font-size="14.00" fill="#000000">raw</text>
</g>
<!-- prose_4&#45;&gt;raw_11 -->
<g id="edge11" class="edge">
<title>prose_4&#45;&gt;raw_11</title>
<path fill="none" stroke="#000000" stroke-dasharray="5,2" d="M828.659,-460.0588C806.3184,-448.0549 772.507,-429.8876 748.1397,-416.7948"/>
<polygon fill="#000000" stroke="#000000" points="749.7723,-413.6988 739.3067,-412.0487 746.4591,-419.865 749.7723,-413.6988"/>
</g>
<!-- header_13 -->
<g id="node14" class="node">
<title>header_13</title>
<ellipse fill="none" stroke="#000000" cx="845" cy="-400.6003" rx="82.1803" ry="18"/>
<text text-anchor="middle" x="845" y="-396.4003" font-family="Helvetica,sans-Serif" font-size="14.00" fill="#000000">2 : Grammar class</text>
</g>
<!-- section_5&#45;&gt;header_13 -->
<g id="edge13" class="edge">
<title>section_5&#45;&gt;header_13</title>
<path fill="none" stroke="#000000" stroke-dasharray="5,2" d="M940.8625,-456.2624C923.7913,-446.3501 901.7795,-433.569 883.1546,-422.7545"/>
<polygon fill="#000000" stroke="#000000" points="884.7254,-419.6194 874.32,-417.6248 881.2104,-425.673 884.7254,-419.6194"/>
</g>
<!-- prose_14 -->
<g id="node15" class="node">
<title>prose_14</title>
<ellipse fill="none" stroke="#000000" cx="978" cy="-400.6003" rx="32.4585" ry="18"/>
<text text-anchor="middle" x="978" y="-396.4003" font-family="Helvetica,sans-Serif" font-size="14.00" fill="#000000">prose</text>
</g>
<!-- section_5&#45;&gt;prose_14 -->
<g id="edge14" class="edge">
<title>section_5&#45;&gt;prose_14</title>
<path fill="none" stroke="#000000" stroke-dasharray="5,2" d="M971.2711,-454.4316C972.2336,-446.7312 973.3782,-437.5746 974.4479,-429.0169"/>
<polygon fill="#000000" stroke="#000000" points="977.9309,-429.3705 975.6983,-419.0135 970.9849,-428.5022 977.9309,-429.3705"/>
</g>
<!-- section_15 -->
<g id="node16" class="node">
<title>section_15</title>
<ellipse fill="none" stroke="#000000" cx="1475" cy="-400.6003" rx="65.8187" ry="18"/>
<text text-anchor="middle" x="1475" y="-396.4003" font-family="Helvetica,sans-Serif" font-size="14.00" fill="#000000">section: 14&#45;30</text>
</g>
<!-- section_5&#45;&gt;section_15 -->
<g id="edge15" class="edge">
<title>section_5&#45;&gt;section_15</title>
<path fill="none" stroke="#000000" stroke-dasharray="5,2" d="M1027.5389,-464.2706C1121.7289,-450.8681 1306.4679,-424.5811 1406.5888,-410.3347"/>
<polygon fill="#000000" stroke="#000000" points="1407.1906,-413.7844 1416.5978,-408.9105 1406.2045,-406.8542 1407.1906,-413.7844"/>
</g>
<!-- header_33 -->
<g id="node34" class="node">
<title>header_33</title>
<ellipse fill="none" stroke="#000000" cx="1713" cy="-400.6003" rx="66.2859" ry="18"/>
<text text-anchor="middle" x="1713" y="-396.4003" font-family="Helvetica,sans-Serif" font-size="14.00" fill="#000000">2 : Node class</text>
</g>
<!-- section_6&#45;&gt;header_33 -->
<g id="edge33" class="edge">
<title>section_6&#45;&gt;header_33</title>
<path fill="none" stroke="#000000" stroke-dasharray="5,2" d="M1713,-454.4316C1713,-446.7312 1713,-437.5746 1713,-429.0169"/>
<polygon fill="#000000" stroke="#000000" points="1716.5001,-429.0135 1713,-419.0135 1709.5001,-429.0136 1716.5001,-429.0135"/>
</g>
<!-- prose_34 -->
<g id="node35" class="node">
<title>prose_34</title>
<ellipse fill="none" stroke="#000000" cx="1829" cy="-400.6003" rx="32.4585" ry="18"/>
<text text-anchor="middle" x="1829" y="-396.4003" font-family="Helvetica,sans-Serif" font-size="14.00" fill="#000000">prose</text>
</g>
<!-- section_6&#45;&gt;prose_34 -->
<g id="edge34" class="edge">
<title>section_6&#45;&gt;prose_34</title>
<path fill="none" stroke="#000000" stroke-dasharray="5,2" d="M1739.6127,-456.082C1757.2025,-445.1643 1780.3036,-430.8256 1798.6147,-419.4601"/>
<polygon fill="#000000" stroke="#000000" points="1800.5232,-422.395 1807.1738,-414.1476 1796.8316,-416.4475 1800.5232,-422.395"/>
</g>
<!-- header_38 -->
<g id="node39" class="node">
<title>header_38</title>
<ellipse fill="none" stroke="#000000" cx="2098" cy="-400.6003" rx="70.1273" ry="18"/>
<text text-anchor="middle" x="2098" y="-396.4003" font-family="Helvetica,sans-Serif" font-size="14.00" fill="#000000">2 : Forest class</text>
</g>
<!-- section_7&#45;&gt;header_38 -->
<g id="edge38" class="edge">
<title>section_7&#45;&gt;header_38</title>
<path fill="none" stroke="#000000" stroke-dasharray="5,2" d="M2143.1685,-454.8025C2136.029,-446.2351 2127.3341,-435.8012 2119.4866,-426.3842"/>
<polygon fill="#000000" stroke="#000000" points="2121.9594,-423.8844 2112.8688,-418.4428 2116.5819,-428.3657 2121.9594,-423.8844"/>
</g>
<!-- prose_39 -->
<g id="node40" class="node">
<title>prose_39</title>
<ellipse fill="none" stroke="#000000" cx="2218" cy="-400.6003" rx="32.4585" ry="18"/>
<text text-anchor="middle" x="2218" y="-396.4003" font-family="Helvetica,sans-Serif" font-size="14.00" fill="#000000">prose</text>
</g>
<!-- section_7&#45;&gt;prose_39 -->
<g id="edge39" class="edge">
<title>section_7&#45;&gt;prose_39</title>
<path fill="none" stroke="#000000" stroke-dasharray="5,2" d="M2172.8315,-454.8025C2180.3142,-445.8232 2189.5055,-434.7937 2197.6391,-425.0334"/>
<polygon fill="#000000" stroke="#000000" points="2200.4487,-427.129 2204.1618,-417.2061 2195.0711,-422.6477 2200.4487,-427.129"/>
</g>
<!-- prose_40 -->
<g id="node41" class="node">
<title>prose_40</title>
<ellipse fill="none" stroke="#000000" cx="2533" cy="-400.6003" rx="32.4585" ry="18"/>
<text text-anchor="middle" x="2533" y="-396.4003" font-family="Helvetica,sans-Serif" font-size="14.00" fill="#000000">prose</text>
</g>
<!-- section_7&#45;&gt;prose_40 -->
<g id="edge40" class="edge">
<title>section_7&#45;&gt;prose_40</title>
<path fill="none" stroke="#000000" stroke-dasharray="5,2" d="M2212.1277,-462.2078C2288.1407,-447.6133 2424.7879,-421.377 2492.5814,-408.3607"/>
<polygon fill="#000000" stroke="#000000" points="2493.2994,-411.7868 2502.46,-406.464 2491.9794,-404.9124 2493.2994,-411.7868"/>
</g>
<!-- leaf_10 -->
<g id="node11" class="node">
<title>leaf_10</title>
<polygon fill="none" stroke="#c0c0c0" points="534,-346.7005 0,-346.7005 0,-244.2999 534,-244.2999 534,-346.7005"/>
<text text-anchor="middle" x="267" y="-283.4003" font-family="Inconsolata" font-size="14.00" fill="#000000"> &#160;Current grym has a nodule of undigested code in the =/peg= directory.</text>
<text text-anchor="middle" x="267" y="-268.0002" font-family="Inconsolata" font-size="14.00" fill="#000000">This is early 2015 era stuff, and is built somewhat blindly upon epnf as I</text>
<text text-anchor="middle" x="267" y="-252.6002" font-family="Inconsolata" font-size="14.00" fill="#000000">found it on the internet.</text>
</g>
<!-- raw_9&#45;&gt;leaf_10 -->
<g id="edge10" class="edge">
<title>raw_9&#45;&gt;leaf_10</title>
<path fill="none" stroke="#000000" stroke-dasharray="5,2" d="M625.0169,-389.164C620.1723,-386.7907 614.9774,-384.452 610,-382.6003 577.1036,-370.3619 541.808,-359.2481 506.8223,-349.3665"/>
<polygon fill="#000000" stroke="#000000" points="507.538,-345.9324 496.965,-346.6121 505.6541,-352.6742 507.538,-345.9324"/>
</g>
<!-- leaf_12 -->
<g id="node13" class="node">
<title>leaf_12</title>
<polygon fill="none" stroke="#c0c0c0" points="799.5,-315.4023 552.5,-315.4023 552.5,-275.5982 799.5,-275.5982 799.5,-315.4023"/>
<text text-anchor="middle" x="676" y="-284.0002" font-family="Inconsolata" font-size="14.00" fill="#000000">It needs a substantial refactor. </text>
</g>
<!-- raw_11&#45;&gt;leaf_12 -->
<g id="edge12" class="edge">
<title>raw_11&#45;&gt;leaf_12</title>
<path fill="none" stroke="#000000" stroke-dasharray="5,2" d="M710.8753,-382.7715C704.527,-366.8856 695.1166,-343.3373 687.6705,-324.7042"/>
<polygon fill="#000000" stroke="#000000" points="690.8362,-323.1942 683.8752,-315.2071 684.3361,-325.7919 690.8362,-323.1942"/>
</g>
<!-- leaf_16 -->
<g id="node17" class="node">
<title>leaf_16</title>
<polygon fill="none" stroke="#c0c0c0" points="872,-313.5002 818,-313.5002 818,-277.5002 872,-277.5002 872,-313.5002"/>
</g>
<!-- header_13&#45;&gt;leaf_16 -->
<g id="edge16" class="edge">
<title>header_13&#45;&gt;leaf_16</title>
<path fill="none" stroke="#000000" stroke-dasharray="5,2" d="M845,-382.2932C845,-366.1677 845,-342.4224 845,-323.8431"/>
<polygon fill="#000000" stroke="#000000" points="848.5001,-323.5974 845,-313.5975 841.5001,-323.5975 848.5001,-323.5974"/>
</g>
<!-- raw_17 -->
<g id="node18" class="node">
<title>raw_17</title>
<ellipse fill="none" stroke="#000000" cx="917" cy="-295.5002" rx="27" ry="18"/>
<text text-anchor="middle" x="917" y="-291.3002" font-family="Helvetica,sans-Serif" font-size="14.00" fill="#000000">raw</text>
</g>
<!-- prose_14&#45;&gt;raw_17 -->
<g id="edge17" class="edge">
<title>prose_14&#45;&gt;raw_17</title>
<path fill="none" stroke="#000000" stroke-dasharray="5,2" d="M967.9271,-383.2451C958.156,-366.41 943.2083,-340.6559 932.0307,-321.3973"/>
<polygon fill="#000000" stroke="#000000" points="934.9324,-319.4243 926.8855,-312.5324 928.8782,-322.9382 934.9324,-319.4243"/>
</g>
<!-- header_19 -->
<g id="node20" class="node">
<title>header_19</title>
<ellipse fill="none" stroke="#000000" cx="1173" cy="-295.5002" rx="210.7615" ry="18"/>
<text text-anchor="middle" x="1173" y="-291.3002" font-family="Helvetica,sans-Serif" font-size="14.00" fill="#000000">3 : Grammar / new(Grammar, g_func, meta_tables)</text>
</g>
<!-- section_15&#45;&gt;header_19 -->
<g id="edge19" class="edge">
<title>section_15&#45;&gt;header_19</title>
<path fill="none" stroke="#000000" stroke-dasharray="5,2" d="M1434.2709,-386.426C1382.4932,-368.4067 1292.6806,-337.1507 1233.042,-316.3956"/>
<polygon fill="#000000" stroke="#000000" points="1233.9688,-313.0124 1223.374,-313.0311 1231.668,-319.6235 1233.9688,-313.0124"/>
</g>
<!-- prose_20 -->
<g id="node21" class="node">
<title>prose_20</title>
<ellipse fill="none" stroke="#000000" cx="1434" cy="-295.5002" rx="32.4585" ry="18"/>
<text text-anchor="middle" x="1434" y="-291.3002" font-family="Helvetica,sans-Serif" font-size="14.00" fill="#000000">prose</text>
</g>
<!-- section_15&#45;&gt;prose_20 -->
<g id="edge20" class="edge">
<title>section_15&#45;&gt;prose_20</title>
<path fill="none" stroke="#000000" stroke-dasharray="5,2" d="M1467.8583,-382.2932C1461.4406,-365.8419 1451.9291,-341.4599 1444.6199,-322.7235"/>
<polygon fill="#000000" stroke="#000000" points="1447.8182,-321.2915 1440.9232,-313.2473 1441.2969,-323.8355 1447.8182,-321.2915"/>
</g>
<!-- prose_21 -->
<g id="node22" class="node">
<title>prose_21</title>
<ellipse fill="none" stroke="#000000" cx="1516" cy="-295.5002" rx="32.4585" ry="18"/>
<text text-anchor="middle" x="1516" y="-291.3002" font-family="Helvetica,sans-Serif" font-size="14.00" fill="#000000">prose</text>
</g>
<!-- section_15&#45;&gt;prose_21 -->
<g id="edge21" class="edge">
<title>section_15&#45;&gt;prose_21</title>
<path fill="none" stroke="#000000" stroke-dasharray="5,2" d="M1482.1417,-382.2932C1488.5594,-365.8419 1498.0709,-341.4599 1505.3801,-322.7235"/>
<polygon fill="#000000" stroke="#000000" points="1508.7031,-323.8355 1509.0768,-313.2473 1502.1818,-321.2915 1508.7031,-323.8355"/>
</g>
<!-- prose_22 -->
<g id="node23" class="node">
<title>prose_22</title>
<ellipse fill="none" stroke="#000000" cx="1598" cy="-295.5002" rx="32.4585" ry="18"/>
<text text-anchor="middle" x="1598" y="-291.3002" font-family="Helvetica,sans-Serif" font-size="14.00" fill="#000000">prose</text>
</g>
<!-- section_15&#45;&gt;prose_22 -->
<g id="edge22" class="edge">
<title>section_15&#45;&gt;prose_22</title>
<path fill="none" stroke="#000000" stroke-dasharray="5,2" d="M1504.2858,-384.385C1520.6855,-374.5769 1540.9915,-361.1732 1557,-346.6003 1565.4136,-338.9411 1573.5121,-329.4655 1580.257,-320.7623"/>
<polygon fill="#000000" stroke="#000000" points="1583.0745,-322.839 1586.2752,-312.7392 1577.4748,-318.6386 1583.0745,-322.839"/>
</g>
<!-- prose_23 -->
<g id="node24" class="node">
<title>prose_23</title>
<ellipse fill="none" stroke="#000000" cx="1680" cy="-295.5002" rx="32.4585" ry="18"/>
<text text-anchor="middle" x="1680" y="-291.3002" font-family="Helvetica,sans-Serif" font-size="14.00" fill="#000000">prose</text>
</g>
<!-- section_15&#45;&gt;prose_23 -->
<g id="edge23" class="edge">
<title>section_15&#45;&gt;prose_23</title>
<path fill="none" stroke="#000000" stroke-dasharray="5,2" d="M1530.272,-390.7368C1563.8991,-382.8016 1606.4856,-369.1493 1639,-346.6003 1648.6327,-339.9199 1657.1545,-330.3363 1663.8987,-321.2697"/>
<polygon fill="#000000" stroke="#000000" points="1666.9279,-323.0458 1669.7983,-312.8472 1661.1945,-319.0298 1666.9279,-323.0458"/>
</g>
<!-- leaf_18 -->
<g id="node19" class="node">
<title>leaf_18</title>
<polygon fill="none" stroke="#c0c0c0" points="991.5,-200.6017 842.5,-200.6017 842.5,-144.7987 991.5,-144.7987 991.5,-200.6017"/>
<text text-anchor="middle" x="917" y="-153.2002" font-family="Inconsolata" font-size="14.00" fill="#000000">This has the verbs:</text>
</g>
<!-- raw_17&#45;&gt;leaf_18 -->
<g id="edge18" class="edge">
<title>raw_17&#45;&gt;leaf_18</title>
<path fill="none" stroke="#000000" stroke-dasharray="5,2" d="M917,-277.3807C917,-259.8717 917,-232.8092 917,-210.587"/>
<polygon fill="#000000" stroke="#000000" points="920.5001,-210.4503 917,-200.4503 913.5001,-210.4504 920.5001,-210.4503"/>
</g>
<!-- leaf_24 -->
<g id="node25" class="node">
<title>leaf_24</title>
<polygon fill="none" stroke="#c0c0c0" points="1200,-190.7002 1146,-190.7002 1146,-154.7002 1200,-154.7002 1200,-190.7002"/>
</g>
<!-- header_19&#45;&gt;leaf_24 -->
<g id="edge24" class="edge">
<title>header_19&#45;&gt;leaf_24</title>
<path fill="none" stroke="#000000" stroke-dasharray="5,2" d="M1173,-277.3807C1173,-257.2468 1173,-224.4802 1173,-200.9674"/>
<polygon fill="#000000" stroke="#000000" points="1176.5001,-200.894 1173,-190.8941 1169.5001,-200.8941 1176.5001,-200.894"/>
</g>
<!-- raw_25 -->
<g id="node26" class="node">
<title>raw_25</title>
<ellipse fill="none" stroke="#000000" cx="1339" cy="-172.7002" rx="27" ry="18"/>
<text text-anchor="middle" x="1339" y="-168.5002" font-family="Helvetica,sans-Serif" font-size="14.00" fill="#000000">raw</text>
</g>
<!-- prose_20&#45;&gt;raw_25 -->
<g id="edge25" class="edge">
<title>prose_20&#45;&gt;raw_25</title>
<path fill="none" stroke="#000000" stroke-dasharray="5,2" d="M1421.1879,-278.9389C1404.8782,-257.8564 1376.5715,-221.2663 1357.8114,-197.0164"/>
<polygon fill="#000000" stroke="#000000" points="1360.4964,-194.767 1351.6091,-188.9991 1354.9597,-199.0502 1360.4964,-194.767"/>
</g>
<!-- raw_27 -->
<g id="node28" class="node">
<title>raw_27</title>
<ellipse fill="none" stroke="#000000" cx="1464" cy="-172.7002" rx="27" ry="18"/>
<text text-anchor="middle" x="1464" y="-168.5002" font-family="Helvetica,sans-Serif" font-size="14.00" fill="#000000">raw</text>
</g>
<!-- prose_21&#45;&gt;raw_27 -->
<g id="edge27" class="edge">
<title>prose_21&#45;&gt;raw_27</title>
<path fill="none" stroke="#000000" stroke-dasharray="5,2" d="M1508.5497,-277.906C1499.9001,-257.4797 1485.5355,-223.5572 1475.4619,-199.7679"/>
<polygon fill="#000000" stroke="#000000" points="1478.5589,-198.1054 1471.4365,-190.2618 1472.113,-200.835 1478.5589,-198.1054"/>
</g>
<!-- raw_29 -->
<g id="node30" class="node">
<title>raw_29</title>
<ellipse fill="none" stroke="#000000" cx="1603" cy="-172.7002" rx="27" ry="18"/>
<text text-anchor="middle" x="1603" y="-168.5002" font-family="Helvetica,sans-Serif" font-size="14.00" fill="#000000">raw</text>
</g>
<!-- prose_22&#45;&gt;raw_29 -->
<g id="edge29" class="edge">
<title>prose_22&#45;&gt;raw_29</title>
<path fill="none" stroke="#000000" stroke-dasharray="5,2" d="M1598.7378,-277.3807C1599.5575,-257.2468 1600.8917,-224.4802 1601.8491,-200.9674"/>
<polygon fill="#000000" stroke="#000000" points="1605.3494,-201.0282 1602.2592,-190.8941 1598.3552,-200.7434 1605.3494,-201.0282"/>
</g>
<!-- raw_31 -->
<g id="node32" class="node">
<title>raw_31</title>
<ellipse fill="none" stroke="#000000" cx="1681" cy="-172.7002" rx="27" ry="18"/>
<text text-anchor="middle" x="1681" y="-168.5002" font-family="Helvetica,sans-Serif" font-size="14.00" fill="#000000">raw</text>
</g>
<!-- prose_23&#45;&gt;raw_31 -->
<g id="edge31" class="edge">
<title>prose_23&#45;&gt;raw_31</title>
<path fill="none" stroke="#000000" stroke-dasharray="5,2" d="M1680.1476,-277.3807C1680.3115,-257.2468 1680.5783,-224.4802 1680.7698,-200.9674"/>
<polygon fill="#000000" stroke="#000000" points="1684.2702,-200.9223 1680.8518,-190.8941 1677.2704,-200.8652 1684.2702,-200.9223"/>
</g>
<!-- leaf_26 -->
<g id="node27" class="node">
<title>leaf_26</title>
<polygon fill="none" stroke="#c0c0c0" points="937,-78.4016 473,-78.4016 473,-22.5986 937,-22.5986 937,-78.4016"/>
<text text-anchor="middle" x="705" y="-31.0001" font-family="Inconsolata" font-size="14.00" fill="#000000">This takes a function, building and returning a grammar over it.</text>
</g>
<!-- raw_25&#45;&gt;leaf_26 -->
<g id="edge26" class="edge">
<title>raw_25&#45;&gt;leaf_26</title>
<path fill="none" stroke="#000000" stroke-dasharray="5,2" d="M1314.3137,-164.8723C1288.3371,-156.8833 1246.145,-144.6081 1209,-137.0002 1093.4205,-113.3275 1062.2522,-121.1108 946,-101.0002 911.3034,-94.9979 873.9846,-87.6301 839.323,-80.3969"/>
<polygon fill="#000000" stroke="#000000" points="839.6469,-76.8887 829.1412,-78.2602 838.2092,-83.7395 839.6469,-76.8887"/>
</g>
<!-- leaf_28 -->
<g id="node29" class="node">
<title>leaf_28</title>
<polygon fill="none" stroke="#c0c0c0" points="1517,-101.0002 955,-101.0002 955,.0001 1517,.0001 1517,-101.0002"/>
<text text-anchor="middle" x="1236" y="-69.8002" font-family="Inconsolata" font-size="14.00" fill="#000000"> &#160;&#45; #params</text>
<text text-anchor="middle" x="1236" y="-54.4001" font-family="Inconsolata" font-size="14.00" fill="#000000"> &#160;&#160;&#160;&#45; Grammar : &#160;The __call object</text>
<text text-anchor="middle" x="1236" y="-39.0001" font-family="Inconsolata" font-size="14.00" fill="#000000"> &#160;&#160;&#160;&#45; g_func &#160;: &#160;The function(_ENV) grammar</text>
<text text-anchor="middle" x="1236" y="-23.6001" font-family="Inconsolata" font-size="14.00" fill="#000000"> &#160;&#160;&#160;&#45; meta_tables : &#160;A map of rule ids to metatables. &#160;These should themsevles</text>
<text text-anchor="middle" x="1236" y="-8.2" font-family="Inconsolata" font-size="14.00" fill="#000000"> &#160;&#160;&#160;&#160;&#160;&#160;&#160;&#160;&#160;&#160;&#160;&#160;inherit from Node.</text>
</g>
<!-- raw_27&#45;&gt;leaf_28 -->
<g id="edge28" class="edge">
<title>raw_27&#45;&gt;leaf_28</title>
<path fill="none" stroke="#000000" stroke-dasharray="5,2" d="M1442.5503,-161.2039C1418.6896,-148.4153 1378.3862,-126.8141 1339.6821,-106.0701"/>
<polygon fill="#000000" stroke="#000000" points="1340.881,-102.7417 1330.4137,-101.1025 1337.5742,-108.9114 1340.881,-102.7417"/>
</g>
<!-- leaf_30 -->
<g id="node31" class="node">
<title>leaf_30</title>
<polygon fill="none" stroke="#c0c0c0" points="2118.5,-77.8005 1535.5,-77.8005 1535.5,-23.1997 2118.5,-23.1997 2118.5,-77.8005"/>
<text text-anchor="middle" x="1827" y="-46.7001" font-family="Inconsolata" font-size="14.00" fill="#000000">The constructor handles building the metatable stack so that the table it returns</text>
<text text-anchor="middle" x="1827" y="-31.3001" font-family="Inconsolata" font-size="14.00" fill="#000000">works like a function over a string returning a Node. </text>
</g>
<!-- raw_29&#45;&gt;leaf_30 -->
<g id="edge30" class="edge">
<title>raw_29&#45;&gt;leaf_30</title>
<path fill="none" stroke="#000000" stroke-dasharray="5,2" d="M1618.5811,-157.7563C1626.1811,-150.9239 1635.6785,-143.0288 1645,-137.0002 1677.6246,-115.9004 1716.1954,-96.8282 1749.4132,-81.9954"/>
<polygon fill="#000000" stroke="#000000" points="1750.8963,-85.1667 1758.631,-77.9261 1748.0692,-78.7629 1750.8963,-85.1667"/>
</g>
<!-- leaf_32 -->
<g id="node33" class="node">
<title>leaf_32</title>
<polygon fill="none" stroke="#c0c0c0" points="2705.5,-85.8004 2136.5,-85.8004 2136.5,-15.1997 2705.5,-15.1997 2705.5,-85.8004"/>
<text text-anchor="middle" x="2421" y="-54.7001" font-family="Inconsolata" font-size="14.00" fill="#000000">Also automated: If a string isn&#39;t provided in =meta_tables=, the Node metatable</text>
<text text-anchor="middle" x="2421" y="-39.3001" font-family="Inconsolata" font-size="14.00" fill="#000000">is assigned. I also have some notes on the [[Node class][./node]].</text>
</g>
<!-- raw_31&#45;&gt;leaf_32 -->
<g id="edge32" class="edge">
<title>raw_31&#45;&gt;leaf_32</title>
<path fill="none" stroke="#000000" stroke-dasharray="5,2" d="M1693.7235,-156.568C1700.4162,-149.2913 1709.2514,-141.3653 1719,-137.0002 1802.2734,-99.7129 2037.5206,-112.7589 2128,-101.0002 2157.6763,-97.1434 2188.9384,-92.4435 2219.546,-87.4801"/>
<polygon fill="#000000" stroke="#000000" points="2220.1533,-90.9274 2229.4577,-85.8601 2219.0241,-84.0191 2220.1533,-90.9274"/>
</g>
<!-- leaf_35 -->
<g id="node36" class="node">
<title>leaf_35</title>
<polygon fill="none" stroke="#c0c0c0" points="1784,-313.5002 1730,-313.5002 1730,-277.5002 1784,-277.5002 1784,-313.5002"/>
</g>
<!-- header_33&#45;&gt;leaf_35 -->
<g id="edge35" class="edge">
<title>header_33&#45;&gt;leaf_35</title>
<path fill="none" stroke="#000000" stroke-dasharray="5,2" d="M1720.6642,-382.2932C1727.5098,-365.9416 1737.6354,-341.7552 1745.4601,-323.0648"/>
<polygon fill="#000000" stroke="#000000" points="1748.7903,-324.1734 1749.4236,-313.5975 1742.3333,-321.4701 1748.7903,-324.1734"/>
</g>
<!-- raw_36 -->
<g id="node37" class="node">
<title>raw_36</title>
<ellipse fill="none" stroke="#000000" cx="1829" cy="-295.5002" rx="27" ry="18"/>
<text text-anchor="middle" x="1829" y="-291.3002" font-family="Helvetica,sans-Serif" font-size="14.00" fill="#000000">raw</text>
</g>
<!-- prose_34&#45;&gt;raw_36 -->
<g id="edge36" class="edge">
<title>prose_34&#45;&gt;raw_36</title>
<path fill="none" stroke="#000000" stroke-dasharray="5,2" d="M1829,-382.2932C1829,-366.1677 1829,-342.4224 1829,-323.8431"/>
<polygon fill="#000000" stroke="#000000" points="1832.5001,-323.5974 1829,-313.5975 1825.5001,-323.5975 1832.5001,-323.5974"/>
</g>
<!-- leaf_37 -->
<g id="node38" class="node">
<title>leaf_37</title>
<polygon fill="none" stroke="#c0c0c0" points="1926,-208.6013 1728,-208.6013 1728,-136.799 1926,-136.799 1926,-208.6013"/>
<text text-anchor="middle" x="1827" y="-161.2002" font-family="Inconsolata" font-size="14.00" fill="#000000"> &#160;Covered [[here][./node]]</text>
</g>
<!-- raw_36&#45;&gt;leaf_37 -->
<g id="edge37" class="edge">
<title>raw_36&#45;&gt;leaf_37</title>
<path fill="none" stroke="#000000" stroke-dasharray="5,2" d="M1828.7049,-277.3807C1828.453,-261.9136 1828.0797,-238.9913 1827.7465,-218.5363"/>
<polygon fill="#000000" stroke="#000000" points="1831.2444,-218.3695 1827.5819,-208.4278 1824.2453,-218.4835 1831.2444,-218.3695"/>
</g>
<!-- leaf_41 -->
<g id="node42" class="node">
<title>leaf_41</title>
<polygon fill="none" stroke="#c0c0c0" points="2125,-313.5002 2071,-313.5002 2071,-277.5002 2125,-277.5002 2125,-313.5002"/>
</g>
<!-- header_38&#45;&gt;leaf_41 -->
<g id="edge41" class="edge">
<title>header_38&#45;&gt;leaf_41</title>
<path fill="none" stroke="#000000" stroke-dasharray="5,2" d="M2098,-382.2932C2098,-366.1677 2098,-342.4224 2098,-323.8431"/>
<polygon fill="#000000" stroke="#000000" points="2101.5001,-323.5974 2098,-313.5975 2094.5001,-323.5975 2101.5001,-323.5974"/>
</g>
<!-- raw_42 -->
<g id="node43" class="node">
<title>raw_42</title>
<ellipse fill="none" stroke="#000000" cx="2218" cy="-295.5002" rx="27" ry="18"/>
<text text-anchor="middle" x="2218" y="-291.3002" font-family="Helvetica,sans-Serif" font-size="14.00" fill="#000000">raw</text>
</g>
<!-- prose_39&#45;&gt;raw_42 -->
<g id="edge42" class="edge">
<title>prose_39&#45;&gt;raw_42</title>
<path fill="none" stroke="#000000" stroke-dasharray="5,2" d="M2218,-382.2932C2218,-366.1677 2218,-342.4224 2218,-323.8431"/>
<polygon fill="#000000" stroke="#000000" points="2221.5001,-323.5974 2218,-313.5975 2214.5001,-323.5975 2221.5001,-323.5974"/>
</g>
<!-- raw_44 -->
<g id="node45" class="node">
<title>raw_44</title>
<ellipse fill="none" stroke="#000000" cx="2650" cy="-295.5002" rx="27" ry="18"/>
<text text-anchor="middle" x="2650" y="-291.3002" font-family="Helvetica,sans-Serif" font-size="14.00" fill="#000000">raw</text>
</g>
<!-- prose_40&#45;&gt;raw_44 -->
<g id="edge44" class="edge">
<title>prose_40&#45;&gt;raw_44</title>
<path fill="none" stroke="#000000" stroke-dasharray="5,2" d="M2550.2638,-385.0924C2570.3926,-367.0108 2603.7741,-337.0245 2626.3154,-316.7759"/>
<polygon fill="#000000" stroke="#000000" points="2628.6966,-319.3417 2633.797,-310.0553 2624.0187,-314.1342 2628.6966,-319.3417"/>
</g>
<!-- leaf_43 -->
<g id="node44" class="node">
<title>leaf_43</title>
<polygon fill="none" stroke="#c0c0c0" points="2492,-200.6017 1944,-200.6017 1944,-144.7987 2492,-144.7987 2492,-200.6017"/>
<text text-anchor="middle" x="2218" y="-153.2002" font-family="Inconsolata" font-size="14.00" fill="#000000"> &#160;This is just an array of Nodes offering a familiar =select= etc interface.</text>
</g>
<!-- raw_42&#45;&gt;leaf_43 -->
<g id="edge43" class="edge">
<title>raw_42&#45;&gt;leaf_43</title>
<path fill="none" stroke="#000000" stroke-dasharray="5,2" d="M2218,-277.3807C2218,-259.8717 2218,-232.8092 2218,-210.587"/>
<polygon fill="#000000" stroke="#000000" points="2221.5001,-210.4503 2218,-200.4503 2214.5001,-210.4504 2221.5001,-210.4503"/>
</g>
<!-- leaf_45 -->
<g id="node46" class="node">
<title>leaf_45</title>
<polygon fill="none" stroke="#c0c0c0" points="3023.5,-192.6023 2510.5,-192.6023 2510.5,-152.7981 3023.5,-152.7981 3023.5,-192.6023"/>
<text text-anchor="middle" x="2767" y="-161.2002" font-family="Inconsolata" font-size="14.00" fill="#000000">These are the only classes which should exist once this is cleaned up. </text>
</g>
<!-- raw_44&#45;&gt;leaf_45 -->
<g id="edge45" class="edge">
<title>raw_44&#45;&gt;leaf_45</title>
<path fill="none" stroke="#000000" stroke-dasharray="5,2" d="M2664.5816,-280.1958C2683.6786,-260.152 2717.4907,-224.6638 2741.0182,-199.97"/>
<polygon fill="#000000" stroke="#000000" points="2743.5979,-202.3364 2747.9619,-192.682 2738.5299,-197.5077 2743.5979,-202.3364"/>
</g>
</g>
</svg>