<?xml version="1.0" encoding="UTF-8" standalone="no"?>
<!DOCTYPE svg PUBLIC "-//W3C//DTD SVG 1.1//EN"
 "http://www.w3.org/Graphics/SVG/1.1/DTD/svg11.dtd">
<!-- Generated by graphviz version 2.40.1 (20161225.0304)
 -->
<!-- Title: hierarchy Pages: 1 -->
<svg width="3880pt" height="699pt"
 viewBox="0.00 0.00 3879.50 698.60" xmlns="http://www.w3.org/2000/svg" xmlns:xlink="http://www.w3.org/1999/xlink">
<g id="graph0" class="graph" transform="scale(1 1) rotate(0) translate(4 694.6003)">
<title>hierarchy</title>
<polygon fill="#ffffff" stroke="transparent" points="-4,4 -4,-694.6003 3875.5,-694.6003 3875.5,4 -4,4"/>
<!-- doc_0 -->
<g id="node1" class="node">
<title>doc_0</title>
<ellipse fill="none" stroke="#000000" cx="899" cy="-672.6003" rx="42.1216" ry="18"/>
<text text-anchor="middle" x="899" y="-668.4003" font-family="Helvetica,sans-Serif" font-size="14.00" fill="#000000">doc &#45; 40</text>
</g>
<!-- section_1 -->
<g id="node2" class="node">
<title>section_1</title>
<ellipse fill="none" stroke="#000000" cx="899" cy="-600.6003" rx="60.9826" ry="18"/>
<text text-anchor="middle" x="899" y="-596.4003" font-family="Helvetica,sans-Serif" font-size="14.00" fill="#000000">section: 1&#45;35</text>
</g>
<!-- doc_0&#45;&gt;section_1 -->
<g id="edge1" class="edge">
<title>doc_0&#45;&gt;section_1</title>
<path fill="none" stroke="#000000" stroke-dasharray="5,2" d="M899,-654.4316C899,-646.7312 899,-637.5746 899,-629.0169"/>
<polygon fill="#000000" stroke="#000000" points="902.5001,-629.0135 899,-619.0135 895.5001,-629.0136 902.5001,-629.0135"/>
</g>
<!-- header_2 -->
<g id="node3" class="node">
<title>header_2</title>
<ellipse fill="none" stroke="#000000" cx="532" cy="-528.6003" rx="137.8451" ry="18"/>
<text text-anchor="middle" x="532" y="-524.4003" font-family="Helvetica,sans-Serif" font-size="14.00" fill="#000000">1 : Pegylator and the Node class</text>
</g>
<!-- section_1&#45;&gt;header_2 -->
<g id="edge2" class="edge">
<title>section_1&#45;&gt;header_2</title>
<path fill="none" stroke="#000000" stroke-dasharray="5,2" d="M847.9702,-590.589C788.622,-578.9457 689.6884,-559.5364 618.3201,-545.535"/>
<polygon fill="#000000" stroke="#000000" points="618.9265,-542.0873 608.4397,-543.5966 617.5788,-548.9564 618.9265,-542.0873"/>
</g>
<!-- prose_3 -->
<g id="node4" class="node">
<title>prose_3</title>
<ellipse fill="none" stroke="#000000" cx="746" cy="-528.6003" rx="32.4585" ry="18"/>
<text text-anchor="middle" x="746" y="-524.4003" font-family="Helvetica,sans-Serif" font-size="14.00" fill="#000000">prose</text>
</g>
<!-- section_1&#45;&gt;prose_3 -->
<g id="edge3" class="edge">
<title>section_1&#45;&gt;prose_3</title>
<path fill="none" stroke="#000000" stroke-dasharray="5,2" d="M866.5526,-585.3309C841.0842,-573.3458 805.7339,-556.7104 779.8995,-544.553"/>
<polygon fill="#000000" stroke="#000000" points="781.3865,-541.3846 770.848,-540.2934 778.4059,-547.7183 781.3865,-541.3846"/>
</g>
<!-- prose_4 -->
<g id="node5" class="node">
<title>prose_4</title>
<ellipse fill="none" stroke="#000000" cx="841" cy="-528.6003" rx="32.4585" ry="18"/>
<text text-anchor="middle" x="841" y="-524.4003" font-family="Helvetica,sans-Serif" font-size="14.00" fill="#000000">prose</text>
</g>
<!-- section_1&#45;&gt;prose_4 -->
<g id="edge4" class="edge">
<title>section_1&#45;&gt;prose_4</title>
<path fill="none" stroke="#000000" stroke-dasharray="5,2" d="M884.6629,-582.8025C877.4296,-573.8232 868.5447,-562.7937 860.6822,-553.0334"/>
<polygon fill="#000000" stroke="#000000" points="863.3759,-550.798 854.3769,-545.2061 857.9246,-555.1893 863.3759,-550.798"/>
</g>
<!-- section_5 -->
<g id="node6" class="node">
<title>section_5</title>
<ellipse fill="none" stroke="#000000" cx="963" cy="-528.6003" rx="65.8187" ry="18"/>
<text text-anchor="middle" x="963" y="-524.4003" font-family="Helvetica,sans-Serif" font-size="14.00" fill="#000000">section: 10&#45;13</text>
</g>
<!-- section_1&#45;&gt;section_5 -->
<g id="edge5" class="edge">
<title>section_1&#45;&gt;section_5</title>
<path fill="none" stroke="#000000" stroke-dasharray="5,2" d="M914.4926,-583.1711C922.3741,-574.3044 932.0953,-563.3681 940.7606,-553.6196"/>
<polygon fill="#000000" stroke="#000000" points="943.4005,-555.9179 947.4282,-546.1185 938.1686,-551.2674 943.4005,-555.9179"/>
</g>
<!-- section_6 -->
<g id="node7" class="node">
<title>section_6</title>
<ellipse fill="none" stroke="#000000" cx="2351" cy="-528.6003" rx="65.8187" ry="18"/>
<text text-anchor="middle" x="2351" y="-524.4003" font-family="Helvetica,sans-Serif" font-size="14.00" fill="#000000">section: 31&#45;35</text>
</g>
<!-- section_1&#45;&gt;section_6 -->
<g id="edge6" class="edge">
<title>section_1&#45;&gt;section_6</title>
<path fill="none" stroke="#000000" stroke-dasharray="5,2" d="M959.0838,-597.6209C1190.0275,-586.1692 2020.4053,-544.9934 2275.7537,-532.3315"/>
<polygon fill="#000000" stroke="#000000" points="2276.2232,-535.8126 2286.0375,-531.8216 2275.8764,-528.8212 2276.2232,-535.8126"/>
</g>
<!-- section_7 -->
<g id="node8" class="node">
<title>section_7</title>
<ellipse fill="none" stroke="#000000" cx="3006" cy="-528.6003" rx="65.8187" ry="18"/>
<text text-anchor="middle" x="3006" y="-524.4003" font-family="Helvetica,sans-Serif" font-size="14.00" fill="#000000">section: 36&#45;40</text>
</g>
<!-- section_1&#45;&gt;section_7 -->
<g id="edge7" class="edge">
<title>section_1&#45;&gt;section_7</title>
<path fill="none" stroke="#000000" stroke-dasharray="5,2" d="M959.5048,-598.5327C1260.7962,-588.2371 2597.9856,-542.5429 2930.7971,-531.1701"/>
<polygon fill="#000000" stroke="#000000" points="2930.9408,-534.6673 2940.8154,-530.8278 2930.7016,-527.6714 2930.9408,-534.6673"/>
</g>
<!-- leaf_8 -->
<g id="node9" class="node">
<title>leaf_8</title>
<polygon fill="none" stroke="#c0c0c0" points="638,-474.6003 412,-474.6003 412,-438.6003 638,-438.6003 638,-474.6003"/>
<text text-anchor="middle" x="525" y="-453.1003" font-family="Inconsolata" font-size="14.00" fill="#000000">* Pegylator and the Node class</text>
</g>
<!-- header_2&#45;&gt;leaf_8 -->
<g id="edge8" class="edge">
<title>header_2&#45;&gt;leaf_8</title>
<path fill="none" stroke="#000000" stroke-dasharray="5,2" d="M530.2336,-510.4316C529.485,-502.7312 528.5947,-493.5746 527.7627,-485.0169"/>
<polygon fill="#000000" stroke="#000000" points="531.2415,-484.6279 526.7902,-475.0135 524.2744,-485.3053 531.2415,-484.6279"/>
</g>
<!-- raw_9 -->
<g id="node10" class="node">
<title>raw_9</title>
<ellipse fill="none" stroke="#000000" cx="683" cy="-456.6003" rx="27" ry="18"/>
<text text-anchor="middle" x="683" y="-452.4003" font-family="Helvetica,sans-Serif" font-size="14.00" fill="#000000">raw</text>
</g>
<!-- prose_3&#45;&gt;raw_9 -->
<g id="edge9" class="edge">
<title>prose_3&#45;&gt;raw_9</title>
<path fill="none" stroke="#000000" stroke-dasharray="5,2" d="M731.7043,-512.2624C723.3726,-502.7403 712.7244,-490.571 703.5104,-480.0408"/>
<polygon fill="#000000" stroke="#000000" points="706.0252,-477.5997 696.8061,-472.3787 700.7572,-482.2093 706.0252,-477.5997"/>
</g>
<!-- raw_11 -->
<g id="node12" class="node">
<title>raw_11</title>
<ellipse fill="none" stroke="#000000" cx="755" cy="-456.6003" rx="27" ry="18"/>
<text text-anchor="middle" x="755" y="-452.4003" font-family="Helvetica,sans-Serif" font-size="14.00" fill="#000000">raw</text>
</g>
<!-- prose_4&#45;&gt;raw_11 -->
<g id="edge11" class="edge">
<title>prose_4&#45;&gt;raw_11</title>
<path fill="none" stroke="#000000" stroke-dasharray="5,2" d="M822.7616,-513.3309C810.2318,-502.8409 793.4469,-488.7884 779.7175,-477.294"/>
<polygon fill="#000000" stroke="#000000" points="781.9566,-474.6039 772.0422,-470.8682 777.463,-479.9712 781.9566,-474.6039"/>
</g>
<!-- header_13 -->
<g id="node14" class="node">
<title>header_13</title>
<ellipse fill="none" stroke="#000000" cx="882" cy="-456.6003" rx="82.1803" ry="18"/>
<text text-anchor="middle" x="882" y="-452.4003" font-family="Helvetica,sans-Serif" font-size="14.00" fill="#000000">2 : Grammar class</text>
</g>
<!-- section_5&#45;&gt;header_13 -->
<g id="edge13" class="edge">
<title>section_5&#45;&gt;header_13</title>
<path fill="none" stroke="#000000" stroke-dasharray="5,2" d="M943.3922,-511.1711C933.2196,-502.1288 920.6256,-490.9341 909.4969,-481.0419"/>
<polygon fill="#000000" stroke="#000000" points="911.5074,-478.1462 901.708,-474.1185 906.8569,-483.3781 911.5074,-478.1462"/>
</g>
<!-- prose_14 -->
<g id="node15" class="node">
<title>prose_14</title>
<ellipse fill="none" stroke="#000000" cx="1015" cy="-456.6003" rx="32.4585" ry="18"/>
<text text-anchor="middle" x="1015" y="-452.4003" font-family="Helvetica,sans-Serif" font-size="14.00" fill="#000000">prose</text>
</g>
<!-- section_5&#45;&gt;prose_14 -->
<g id="edge14" class="edge">
<title>section_5&#45;&gt;prose_14</title>
<path fill="none" stroke="#000000" stroke-dasharray="5,2" d="M975.8539,-510.8025C982.1172,-502.1304 989.7616,-491.5458 996.6274,-482.0392"/>
<polygon fill="#000000" stroke="#000000" points="999.6344,-483.8535 1002.652,-473.6975 993.9597,-479.7551 999.6344,-483.8535"/>
</g>
<!-- section_15 -->
<g id="node16" class="node">
<title>section_15</title>
<ellipse fill="none" stroke="#000000" cx="1549" cy="-456.6003" rx="65.8187" ry="18"/>
<text text-anchor="middle" x="1549" y="-452.4003" font-family="Helvetica,sans-Serif" font-size="14.00" fill="#000000">section: 14&#45;30</text>
</g>
<!-- section_5&#45;&gt;section_15 -->
<g id="edge15" class="edge">
<title>section_5&#45;&gt;section_15</title>
<path fill="none" stroke="#000000" stroke-dasharray="5,2" d="M1022.9584,-521.2334C1131.9736,-507.839 1362.112,-479.5626 1478.4703,-465.266"/>
<polygon fill="#000000" stroke="#000000" points="1479.1899,-468.704 1488.6884,-464.0106 1478.3362,-461.7563 1479.1899,-468.704"/>
</g>
<!-- header_40 -->
<g id="node41" class="node">
<title>header_40</title>
<ellipse fill="none" stroke="#000000" cx="2351" cy="-456.6003" rx="66.2859" ry="18"/>
<text text-anchor="middle" x="2351" y="-452.4003" font-family="Helvetica,sans-Serif" font-size="14.00" fill="#000000">2 : Node class</text>
</g>
<!-- section_6&#45;&gt;header_40 -->
<g id="edge40" class="edge">
<title>section_6&#45;&gt;header_40</title>
<path fill="none" stroke="#000000" stroke-dasharray="5,2" d="M2351,-510.4316C2351,-502.7312 2351,-493.5746 2351,-485.0169"/>
<polygon fill="#000000" stroke="#000000" points="2354.5001,-485.0135 2351,-475.0135 2347.5001,-485.0136 2354.5001,-485.0135"/>
</g>
<!-- prose_41 -->
<g id="node42" class="node">
<title>prose_41</title>
<ellipse fill="none" stroke="#000000" cx="2533" cy="-456.6003" rx="32.4585" ry="18"/>
<text text-anchor="middle" x="2533" y="-452.4003" font-family="Helvetica,sans-Serif" font-size="14.00" fill="#000000">prose</text>
</g>
<!-- section_6&#45;&gt;prose_41 -->
<g id="edge41" class="edge">
<title>section_6&#45;&gt;prose_41</title>
<path fill="none" stroke="#000000" stroke-dasharray="5,2" d="M2388.7105,-513.6818C2420.466,-501.1192 2465.589,-483.2684 2496.8856,-470.8873"/>
<polygon fill="#000000" stroke="#000000" points="2498.5153,-474.0066 2506.5265,-467.0733 2495.9402,-467.4974 2498.5153,-474.0066"/>
</g>
<!-- header_52 -->
<g id="node53" class="node">
<title>header_52</title>
<ellipse fill="none" stroke="#000000" cx="2946" cy="-456.6003" rx="70.1273" ry="18"/>
<text text-anchor="middle" x="2946" y="-452.4003" font-family="Helvetica,sans-Serif" font-size="14.00" fill="#000000">2 : Forest class</text>
</g>
<!-- section_7&#45;&gt;header_52 -->
<g id="edge52" class="edge">
<title>section_7&#45;&gt;header_52</title>
<path fill="none" stroke="#000000" stroke-dasharray="5,2" d="M2991.1685,-510.8025C2984.029,-502.2351 2975.3341,-491.8012 2967.4866,-482.3842"/>
<polygon fill="#000000" stroke="#000000" points="2969.9594,-479.8844 2960.8688,-474.4428 2964.5819,-484.3657 2969.9594,-479.8844"/>
</g>
<!-- prose_53 -->
<g id="node54" class="node">
<title>prose_53</title>
<ellipse fill="none" stroke="#000000" cx="3066" cy="-456.6003" rx="32.4585" ry="18"/>
<text text-anchor="middle" x="3066" y="-452.4003" font-family="Helvetica,sans-Serif" font-size="14.00" fill="#000000">prose</text>
</g>
<!-- section_7&#45;&gt;prose_53 -->
<g id="edge53" class="edge">
<title>section_7&#45;&gt;prose_53</title>
<path fill="none" stroke="#000000" stroke-dasharray="5,2" d="M3020.8315,-510.8025C3028.3142,-501.8232 3037.5055,-490.7937 3045.6391,-481.0334"/>
<polygon fill="#000000" stroke="#000000" points="3048.4487,-483.129 3052.1618,-473.2061 3043.0711,-478.6477 3048.4487,-483.129"/>
</g>
<!-- prose_54 -->
<g id="node55" class="node">
<title>prose_54</title>
<ellipse fill="none" stroke="#000000" cx="3381" cy="-456.6003" rx="32.4585" ry="18"/>
<text text-anchor="middle" x="3381" y="-452.4003" font-family="Helvetica,sans-Serif" font-size="14.00" fill="#000000">prose</text>
</g>
<!-- section_7&#45;&gt;prose_54 -->
<g id="edge54" class="edge">
<title>section_7&#45;&gt;prose_54</title>
<path fill="none" stroke="#000000" stroke-dasharray="5,2" d="M3060.1277,-518.2078C3136.1407,-503.6133 3272.7879,-477.377 3340.5814,-464.3607"/>
<polygon fill="#000000" stroke="#000000" points="3341.2994,-467.7868 3350.46,-462.464 3339.9794,-460.9124 3341.2994,-467.7868"/>
</g>
<!-- leaf_10 -->
<g id="node11" class="node">
<title>leaf_10</title>
<polygon fill="none" stroke="#c0c0c0" points="534,-402.7005 0,-402.7005 0,-300.2999 534,-300.2999 534,-402.7005"/>
<text text-anchor="middle" x="267" y="-339.4003" font-family="Inconsolata" font-size="14.00" fill="#000000"> &#160;Current grym has a nodule of undigested code in the =/peg= directory.</text>
<text text-anchor="middle" x="267" y="-324.0002" font-family="Inconsolata" font-size="14.00" fill="#000000">This is early 2015 era stuff, and is built somewhat blindly upon epnf as I</text>
<text text-anchor="middle" x="267" y="-308.6002" font-family="Inconsolata" font-size="14.00" fill="#000000">found it on the internet.</text>
</g>
<!-- raw_9&#45;&gt;leaf_10 -->
<g id="edge10" class="edge">
<title>raw_9&#45;&gt;leaf_10</title>
<path fill="none" stroke="#000000" stroke-dasharray="5,2" d="M662.0485,-445.0776C657.2022,-442.7088 651.9987,-440.3937 647,-438.6003 612.204,-426.1158 574.9579,-414.9938 537.8912,-405.2211"/>
<polygon fill="#000000" stroke="#000000" points="538.5198,-401.7681 527.9604,-402.6335 536.7548,-408.5419 538.5198,-401.7681"/>
</g>
<!-- leaf_12 -->
<g id="node13" class="node">
<title>leaf_12</title>
<polygon fill="none" stroke="#c0c0c0" points="799.5,-371.4023 552.5,-371.4023 552.5,-331.5982 799.5,-331.5982 799.5,-371.4023"/>
<text text-anchor="middle" x="676" y="-340.0002" font-family="Inconsolata" font-size="14.00" fill="#000000">It needs a substantial refactor. </text>
</g>
<!-- raw_11&#45;&gt;leaf_12 -->
<g id="edge12" class="edge">
<title>raw_11&#45;&gt;leaf_12</title>
<path fill="none" stroke="#000000" stroke-dasharray="5,2" d="M742.6563,-440.1784C730.484,-423.9847 711.6434,-398.9195 697.0939,-379.5632"/>
<polygon fill="#000000" stroke="#000000" points="699.7585,-377.2829 690.9522,-371.3923 694.163,-381.4889 699.7585,-377.2829"/>
</g>
<!-- leaf_16 -->
<g id="node17" class="node">
<title>leaf_16</title>
<polygon fill="none" stroke="#c0c0c0" points="946,-369.5002 818,-369.5002 818,-333.5002 946,-333.5002 946,-369.5002"/>
<text text-anchor="middle" x="882" y="-348.0002" font-family="Inconsolata" font-size="14.00" fill="#000000">** Grammar class</text>
</g>
<!-- header_13&#45;&gt;leaf_16 -->
<g id="edge16" class="edge">
<title>header_13&#45;&gt;leaf_16</title>
<path fill="none" stroke="#000000" stroke-dasharray="5,2" d="M882,-438.2932C882,-422.1677 882,-398.4224 882,-379.8431"/>
<polygon fill="#000000" stroke="#000000" points="885.5001,-379.5974 882,-369.5975 878.5001,-379.5975 885.5001,-379.5974"/>
</g>
<!-- raw_17 -->
<g id="node18" class="node">
<title>raw_17</title>
<ellipse fill="none" stroke="#000000" cx="991" cy="-351.5002" rx="27" ry="18"/>
<text text-anchor="middle" x="991" y="-347.3002" font-family="Helvetica,sans-Serif" font-size="14.00" fill="#000000">raw</text>
</g>
<!-- prose_14&#45;&gt;raw_17 -->
<g id="edge17" class="edge">
<title>prose_14&#45;&gt;raw_17</title>
<path fill="none" stroke="#000000" stroke-dasharray="5,2" d="M1010.8195,-438.2932C1007.12,-422.0923 1001.6642,-398.2004 997.4128,-379.583"/>
<polygon fill="#000000" stroke="#000000" points="1000.771,-378.5673 995.1326,-369.5975 993.9467,-380.1257 1000.771,-378.5673"/>
</g>
<!-- header_19 -->
<g id="node20" class="node">
<title>header_19</title>
<ellipse fill="none" stroke="#000000" cx="1247" cy="-351.5002" rx="210.7615" ry="18"/>
<text text-anchor="middle" x="1247" y="-347.3002" font-family="Helvetica,sans-Serif" font-size="14.00" fill="#000000">3 : Grammar / new(Grammar, g_func, meta_tables)</text>
</g>
<!-- section_15&#45;&gt;header_19 -->
<g id="edge19" class="edge">
<title>section_15&#45;&gt;header_19</title>
<path fill="none" stroke="#000000" stroke-dasharray="5,2" d="M1508.2709,-442.426C1456.4932,-424.4067 1366.6806,-393.1507 1307.042,-372.3956"/>
<polygon fill="#000000" stroke="#000000" points="1307.9688,-369.0124 1297.374,-369.0311 1305.668,-375.6235 1307.9688,-369.0124"/>
</g>
<!-- prose_20 -->
<g id="node21" class="node">
<title>prose_20</title>
<ellipse fill="none" stroke="#000000" cx="1508" cy="-351.5002" rx="32.4585" ry="18"/>
<text text-anchor="middle" x="1508" y="-347.3002" font-family="Helvetica,sans-Serif" font-size="14.00" fill="#000000">prose</text>
</g>
<!-- section_15&#45;&gt;prose_20 -->
<g id="edge20" class="edge">
<title>section_15&#45;&gt;prose_20</title>
<path fill="none" stroke="#000000" stroke-dasharray="5,2" d="M1541.8583,-438.2932C1535.4406,-421.8419 1525.9291,-397.4599 1518.6199,-378.7235"/>
<polygon fill="#000000" stroke="#000000" points="1521.8182,-377.2915 1514.9232,-369.2473 1515.2969,-379.8355 1521.8182,-377.2915"/>
</g>
<!-- prose_21 -->
<g id="node22" class="node">
<title>prose_21</title>
<ellipse fill="none" stroke="#000000" cx="1590" cy="-351.5002" rx="32.4585" ry="18"/>
<text text-anchor="middle" x="1590" y="-347.3002" font-family="Helvetica,sans-Serif" font-size="14.00" fill="#000000">prose</text>
</g>
<!-- section_15&#45;&gt;prose_21 -->
<g id="edge21" class="edge">
<title>section_15&#45;&gt;prose_21</title>
<path fill="none" stroke="#000000" stroke-dasharray="5,2" d="M1556.1417,-438.2932C1562.5594,-421.8419 1572.0709,-397.4599 1579.3801,-378.7235"/>
<polygon fill="#000000" stroke="#000000" points="1582.7031,-379.8355 1583.0768,-369.2473 1576.1818,-377.2915 1582.7031,-379.8355"/>
</g>
<!-- prose_22 -->
<g id="node23" class="node">
<title>prose_22</title>
<ellipse fill="none" stroke="#000000" cx="1672" cy="-351.5002" rx="32.4585" ry="18"/>
<text text-anchor="middle" x="1672" y="-347.3002" font-family="Helvetica,sans-Serif" font-size="14.00" fill="#000000">prose</text>
</g>
<!-- section_15&#45;&gt;prose_22 -->
<g id="edge22" class="edge">
<title>section_15&#45;&gt;prose_22</title>
<path fill="none" stroke="#000000" stroke-dasharray="5,2" d="M1578.2858,-440.385C1594.6855,-430.5769 1614.9915,-417.1732 1631,-402.6003 1639.4136,-394.9411 1647.5121,-385.4655 1654.257,-376.7623"/>
<polygon fill="#000000" stroke="#000000" points="1657.0745,-378.839 1660.2752,-368.7392 1651.4748,-374.6386 1657.0745,-378.839"/>
</g>
<!-- prose_23 -->
<g id="node24" class="node">
<title>prose_23</title>
<ellipse fill="none" stroke="#000000" cx="2109" cy="-351.5002" rx="32.4585" ry="18"/>
<text text-anchor="middle" x="2109" y="-347.3002" font-family="Helvetica,sans-Serif" font-size="14.00" fill="#000000">prose</text>
</g>
<!-- section_15&#45;&gt;prose_23 -->
<g id="edge23" class="edge">
<title>section_15&#45;&gt;prose_23</title>
<path fill="none" stroke="#000000" stroke-dasharray="5,2" d="M1603.204,-446.4274C1715.0793,-425.4307 1969.357,-377.7082 2068.4247,-359.1154"/>
<polygon fill="#000000" stroke="#000000" points="2069.1633,-362.5379 2078.3461,-357.2533 2067.8721,-355.658 2069.1633,-362.5379"/>
</g>
<!-- leaf_18 -->
<g id="node19" class="node">
<title>leaf_18</title>
<polygon fill="none" stroke="#c0c0c0" points="1060.5,-264.6017 911.5,-264.6017 911.5,-208.7987 1060.5,-208.7987 1060.5,-264.6017"/>
<text text-anchor="middle" x="986" y="-217.2002" font-family="Inconsolata" font-size="14.00" fill="#000000">This has the verbs:</text>
</g>
<!-- raw_17&#45;&gt;leaf_18 -->
<g id="edge18" class="edge">
<title>raw_17&#45;&gt;leaf_18</title>
<path fill="none" stroke="#000000" stroke-dasharray="5,2" d="M990.2077,-333.3098C989.5262,-317.661 988.5202,-294.5643 987.6628,-274.878"/>
<polygon fill="#000000" stroke="#000000" points="991.1495,-274.4955 987.2176,-264.6573 984.1562,-274.8001 991.1495,-274.4955"/>
</g>
<!-- leaf_24 -->
<g id="node25" class="node">
<title>leaf_24</title>
<polygon fill="none" stroke="#c0c0c0" points="1423.5,-254.7002 1078.5,-254.7002 1078.5,-218.7002 1423.5,-218.7002 1423.5,-254.7002"/>
<text text-anchor="middle" x="1251" y="-233.2002" font-family="Inconsolata" font-size="14.00" fill="#000000">*** Grammar / new(Grammar, g_func, meta_tables)</text>
</g>
<!-- header_19&#45;&gt;leaf_24 -->
<g id="edge24" class="edge">
<title>header_19&#45;&gt;leaf_24</title>
<path fill="none" stroke="#000000" stroke-dasharray="5,2" d="M1247.6338,-333.3098C1248.2745,-314.9206 1249.2736,-286.2468 1250.0172,-264.908"/>
<polygon fill="#000000" stroke="#000000" points="1253.5187,-264.9213 1250.3692,-254.8055 1246.523,-264.6775 1253.5187,-264.9213"/>
</g>
<!-- raw_25 -->
<g id="node26" class="node">
<title>raw_25</title>
<ellipse fill="none" stroke="#000000" cx="1490" cy="-236.7002" rx="27" ry="18"/>
<text text-anchor="middle" x="1490" y="-232.5002" font-family="Helvetica,sans-Serif" font-size="14.00" fill="#000000">raw</text>
</g>
<!-- prose_20&#45;&gt;raw_25 -->
<g id="edge25" class="edge">
<title>prose_20&#45;&gt;raw_25</title>
<path fill="none" stroke="#000000" stroke-dasharray="5,2" d="M1505.1875,-333.5627C1502.3116,-315.2207 1497.8019,-286.4588 1494.4428,-265.0351"/>
<polygon fill="#000000" stroke="#000000" points="1497.859,-264.2277 1492.8522,-254.8906 1490.9435,-265.3121 1497.859,-264.2277"/>
</g>
<!-- raw_27 -->
<g id="node28" class="node">
<title>raw_27</title>
<ellipse fill="none" stroke="#000000" cx="1578" cy="-236.7002" rx="27" ry="18"/>
<text text-anchor="middle" x="1578" y="-232.5002" font-family="Helvetica,sans-Serif" font-size="14.00" fill="#000000">raw</text>
</g>
<!-- prose_21&#45;&gt;raw_27 -->
<g id="edge27" class="edge">
<title>prose_21&#45;&gt;raw_27</title>
<path fill="none" stroke="#000000" stroke-dasharray="5,2" d="M1588.0986,-333.3098C1586.1764,-314.9206 1583.1791,-286.2468 1580.9485,-264.908"/>
<polygon fill="#000000" stroke="#000000" points="1584.4133,-264.3874 1579.8925,-254.8055 1577.4512,-265.1152 1584.4133,-264.3874"/>
</g>
<!-- raw_29 -->
<g id="node30" class="node">
<title>raw_29</title>
<ellipse fill="none" stroke="#000000" cx="1663" cy="-236.7002" rx="27" ry="18"/>
<text text-anchor="middle" x="1663" y="-232.5002" font-family="Helvetica,sans-Serif" font-size="14.00" fill="#000000">raw</text>
</g>
<!-- prose_22&#45;&gt;raw_29 -->
<g id="edge29" class="edge">
<title>prose_22&#45;&gt;raw_29</title>
<path fill="none" stroke="#000000" stroke-dasharray="5,2" d="M1670.5739,-333.3098C1669.1323,-314.9206 1666.8843,-286.2468 1665.2114,-264.908"/>
<polygon fill="#000000" stroke="#000000" points="1668.6904,-264.5013 1664.4194,-254.8055 1661.7118,-265.0485 1668.6904,-264.5013"/>
</g>
<!-- raw_31 -->
<g id="node32" class="node">
<title>raw_31</title>
<ellipse fill="none" stroke="#000000" cx="2029" cy="-236.7002" rx="27" ry="18"/>
<text text-anchor="middle" x="2029" y="-232.5002" font-family="Helvetica,sans-Serif" font-size="14.00" fill="#000000">raw</text>
</g>
<!-- prose_23&#45;&gt;raw_31 -->
<g id="edge31" class="edge">
<title>prose_23&#45;&gt;raw_31</title>
<path fill="none" stroke="#000000" stroke-dasharray="5,2" d="M2097.1957,-334.5611C2083.7662,-315.2897 2061.7092,-283.6379 2046.3288,-261.567"/>
<polygon fill="#000000" stroke="#000000" points="2049.1815,-259.5389 2040.5926,-253.3356 2043.4384,-263.5411 2049.1815,-259.5389"/>
</g>
<!-- link_32 -->
<g id="node33" class="node">
<title>link_32</title>
<ellipse fill="none" stroke="#000000" cx="2307" cy="-236.7002" rx="27" ry="18"/>
<text text-anchor="middle" x="2307" y="-232.5002" font-family="Helvetica,sans-Serif" font-size="14.00" fill="#000000">link</text>
</g>
<!-- prose_23&#45;&gt;link_32 -->
<g id="edge32" class="edge">
<title>prose_23&#45;&gt;link_32</title>
<path fill="none" stroke="#000000" stroke-dasharray="5,2" d="M2131.7131,-338.3312C2167.712,-317.4591 2237.8572,-276.7891 2277.6307,-253.7284"/>
<polygon fill="#000000" stroke="#000000" points="2279.4463,-256.7215 2286.3418,-248.6777 2275.9352,-250.6658 2279.4463,-256.7215"/>
</g>
<!-- raw_33 -->
<g id="node34" class="node">
<title>raw_33</title>
<ellipse fill="none" stroke="#000000" cx="2379" cy="-236.7002" rx="27" ry="18"/>
<text text-anchor="middle" x="2379" y="-232.5002" font-family="Helvetica,sans-Serif" font-size="14.00" fill="#000000">raw</text>
</g>
<!-- prose_23&#45;&gt;raw_33 -->
<g id="edge33" class="edge">
<title>prose_23&#45;&gt;raw_33</title>
<path fill="none" stroke="#000000" stroke-dasharray="5,2" d="M2138.3053,-343.6726C2183.8555,-330.8393 2273.6167,-302.8542 2343,-264.4002 2346.8023,-262.2929 2350.6363,-259.8087 2354.312,-257.2077"/>
<polygon fill="#000000" stroke="#000000" points="2356.6181,-259.853 2362.5123,-251.049 2352.4144,-254.2557 2356.6181,-259.853"/>
</g>
<!-- leaf_26 -->
<g id="node27" class="node">
<title>leaf_26</title>
<polygon fill="none" stroke="#c0c0c0" points="512,-150.4016 48,-150.4016 48,-94.5986 512,-94.5986 512,-150.4016"/>
<text text-anchor="middle" x="280" y="-103.0001" font-family="Inconsolata" font-size="14.00" fill="#000000">This takes a function, building and returning a grammar over it.</text>
</g>
<!-- raw_25&#45;&gt;leaf_26 -->
<g id="edge26" class="edge">
<title>raw_25&#45;&gt;leaf_26</title>
<path fill="none" stroke="#000000" stroke-dasharray="5,2" d="M1469.825,-224.5644C1459.0074,-218.7139 1445.2154,-212.2696 1432,-209.0002 1235.3268,-160.344 722.0712,-197.8627 521,-173.0002 482.3465,-168.2206 440.681,-160.4468 403.0433,-152.4153"/>
<polygon fill="#000000" stroke="#000000" points="403.5683,-148.9481 393.0548,-150.258 402.0905,-155.7903 403.5683,-148.9481"/>
</g>
<!-- leaf_28 -->
<g id="node29" class="node">
<title>leaf_28</title>
<polygon fill="none" stroke="#c0c0c0" points="1092,-173.0002 530,-173.0002 530,-71.9999 1092,-71.9999 1092,-173.0002"/>
<text text-anchor="middle" x="811" y="-141.8002" font-family="Inconsolata" font-size="14.00" fill="#000000"> &#160;&#45; #params</text>
<text text-anchor="middle" x="811" y="-126.4001" font-family="Inconsolata" font-size="14.00" fill="#000000"> &#160;&#160;&#160;&#45; Grammar : &#160;The __call object</text>
<text text-anchor="middle" x="811" y="-111.0001" font-family="Inconsolata" font-size="14.00" fill="#000000"> &#160;&#160;&#160;&#45; g_func &#160;: &#160;The function(_ENV) grammar</text>
<text text-anchor="middle" x="811" y="-95.6001" font-family="Inconsolata" font-size="14.00" fill="#000000"> &#160;&#160;&#160;&#45; meta_tables : &#160;A map of rule ids to metatables. &#160;These should themsevles</text>
<text text-anchor="middle" x="811" y="-80.2" font-family="Inconsolata" font-size="14.00" fill="#000000"> &#160;&#160;&#160;&#160;&#160;&#160;&#160;&#160;&#160;&#160;&#160;&#160;inherit from Node.</text>
</g>
<!-- raw_27&#45;&gt;leaf_28 -->
<g id="edge28" class="edge">
<title>raw_27&#45;&gt;leaf_28</title>
<path fill="none" stroke="#000000" stroke-dasharray="5,2" d="M1558.5649,-223.9216C1549.1237,-218.361 1537.3801,-212.3587 1526,-209.0002 1347.2945,-156.2591 1290.9266,-195.8785 1102.1797,-173.0917"/>
<polygon fill="#000000" stroke="#000000" points="1102.57,-169.6134 1092.213,-171.8457 1101.7016,-176.5593 1102.57,-169.6134"/>
</g>
<!-- leaf_30 -->
<g id="node31" class="node">
<title>leaf_30</title>
<polygon fill="none" stroke="#c0c0c0" points="1693.5,-149.8005 1110.5,-149.8005 1110.5,-95.1997 1693.5,-95.1997 1693.5,-149.8005"/>
<text text-anchor="middle" x="1402" y="-118.7001" font-family="Inconsolata" font-size="14.00" fill="#000000">The constructor handles building the metatable stack so that the table it returns</text>
<text text-anchor="middle" x="1402" y="-103.3001" font-family="Inconsolata" font-size="14.00" fill="#000000">works like a function over a string returning a Node. </text>
</g>
<!-- raw_29&#45;&gt;leaf_30 -->
<g id="edge30" class="edge">
<title>raw_29&#45;&gt;leaf_30</title>
<path fill="none" stroke="#000000" stroke-dasharray="5,2" d="M1642.8064,-224.5193C1634.0822,-219.4581 1623.6747,-213.685 1614,-209.0002 1572.2662,-188.791 1524.5488,-169.0393 1484.9656,-153.524"/>
<polygon fill="#000000" stroke="#000000" points="1486.1981,-150.248 1475.6097,-149.8761 1483.6551,-156.7698 1486.1981,-150.248"/>
</g>
<!-- leaf_34 -->
<g id="node35" class="node">
<title>leaf_34</title>
<polygon fill="none" stroke="#c0c0c0" points="2280.5,-149.8005 1711.5,-149.8005 1711.5,-95.1997 2280.5,-95.1997 2280.5,-149.8005"/>
<text text-anchor="middle" x="1996" y="-118.7001" font-family="Inconsolata" font-size="14.00" fill="#000000">Also automated: If a string isn&#39;t provided in =meta_tables=, the Node metatable</text>
<text text-anchor="middle" x="1996" y="-103.3001" font-family="Inconsolata" font-size="14.00" fill="#000000">is assigned. I also have some notes on the </text>
</g>
<!-- raw_31&#45;&gt;leaf_34 -->
<g id="edge34" class="edge">
<title>raw_31&#45;&gt;leaf_34</title>
<path fill="none" stroke="#000000" stroke-dasharray="5,2" d="M2023.8438,-218.8564C2019.2846,-203.0788 2012.4858,-179.5509 2006.7478,-159.6941"/>
<polygon fill="#000000" stroke="#000000" points="2010.0849,-158.6345 2003.9463,-149.9992 2003.36,-160.5778 2010.0849,-158.6345"/>
</g>
<!-- anchortext_35 -->
<g id="node36" class="node">
<title>anchortext_35</title>
<ellipse fill="none" stroke="#000000" cx="2350" cy="-122.5001" rx="51.3018" ry="18"/>
<text text-anchor="middle" x="2350" y="-118.3001" font-family="Helvetica,sans-Serif" font-size="14.00" fill="#000000">anchortext</text>
</g>
<!-- link_32&#45;&gt;anchortext_35 -->
<g id="edge35" class="edge">
<title>link_32&#45;&gt;anchortext_35</title>
<path fill="none" stroke="#000000" stroke-dasharray="5,2" d="M2313.7188,-218.8564C2320.6518,-200.4436 2331.5593,-171.4752 2339.6059,-150.1049"/>
<polygon fill="#000000" stroke="#000000" points="2342.9382,-151.1874 2343.1865,-140.5954 2336.3872,-148.7206 2342.9382,-151.1874"/>
</g>
<!-- url_36 -->
<g id="node37" class="node">
<title>url_36</title>
<ellipse fill="none" stroke="#000000" cx="2446" cy="-122.5001" rx="27" ry="18"/>
<text text-anchor="middle" x="2446" y="-118.3001" font-family="Helvetica,sans-Serif" font-size="14.00" fill="#000000">url</text>
</g>
<!-- link_32&#45;&gt;url_36 -->
<g id="edge36" class="edge">
<title>link_32&#45;&gt;url_36</title>
<path fill="none" stroke="#000000" stroke-dasharray="5,2" d="M2324.1616,-222.5852C2329.9932,-218.0375 2336.6445,-213.1137 2343,-209.0002 2371.3784,-190.6322 2384.6365,-195.3476 2410,-173.0002 2418.0344,-165.9211 2425.2595,-156.7207 2431.0916,-148.1155"/>
<polygon fill="#000000" stroke="#000000" points="2434.1805,-149.7827 2436.6404,-139.4774 2428.2909,-145.9994 2434.1805,-149.7827"/>
</g>
<!-- leaf_39 -->
<g id="node40" class="node">
<title>leaf_39</title>
<polygon fill="none" stroke="#c0c0c0" points="2545,-142.4022 2491,-142.4022 2491,-102.598 2545,-102.598 2545,-142.4022"/>
<text text-anchor="middle" x="2518" y="-127.0001" font-family="Inconsolata" font-size="14.00" fill="#000000">.</text>
</g>
<!-- raw_33&#45;&gt;leaf_39 -->
<g id="edge39" class="edge">
<title>raw_33&#45;&gt;leaf_39</title>
<path fill="none" stroke="#000000" stroke-dasharray="5,2" d="M2396.1616,-222.5852C2401.9932,-218.0375 2408.6445,-213.1137 2415,-209.0002 2443.3784,-190.6322 2456.6365,-195.3476 2482,-173.0002 2489.1609,-166.6907 2495.6789,-158.6961 2501.1407,-150.9398"/>
<polygon fill="#000000" stroke="#000000" points="2504.207,-152.6498 2506.8365,-142.3864 2498.3806,-148.7699 2504.207,-152.6498"/>
</g>
<!-- leaf_37 -->
<g id="node38" class="node">
<title>leaf_37</title>
<polygon fill="none" stroke="#c0c0c0" points="2393,-36 2307,-36 2307,0 2393,0 2393,-36"/>
<text text-anchor="middle" x="2350" y="-14.5" font-family="Inconsolata" font-size="14.00" fill="#000000">Node class</text>
</g>
<!-- anchortext_35&#45;&gt;leaf_37 -->
<g id="edge37" class="edge">
<title>anchortext_35&#45;&gt;leaf_37</title>
<path fill="none" stroke="#000000" stroke-dasharray="5,2" d="M2350,-104.2976C2350,-88.3618 2350,-64.942 2350,-46.5196"/>
<polygon fill="#000000" stroke="#000000" points="2353.5001,-46.3445 2350,-36.3446 2346.5001,-46.3446 2353.5001,-46.3445"/>
</g>
<!-- leaf_38 -->
<g id="node39" class="node">
<title>leaf_38</title>
<polygon fill="none" stroke="#c0c0c0" points="2475,-36 2417,-36 2417,0 2475,0 2475,-36"/>
<text text-anchor="middle" x="2446" y="-14.5" font-family="Inconsolata" font-size="14.00" fill="#000000">./node</text>
</g>
<!-- url_36&#45;&gt;leaf_38 -->
<g id="edge38" class="edge">
<title>url_36&#45;&gt;leaf_38</title>
<path fill="none" stroke="#000000" stroke-dasharray="5,2" d="M2446,-104.2976C2446,-88.3618 2446,-64.942 2446,-46.5196"/>
<polygon fill="#000000" stroke="#000000" points="2449.5001,-46.3445 2446,-36.3446 2442.5001,-46.3446 2449.5001,-46.3445"/>
</g>
<!-- leaf_42 -->
<g id="node43" class="node">
<title>leaf_42</title>
<polygon fill="none" stroke="#c0c0c0" points="2390.5,-378.8007 2311.5,-378.8007 2311.5,-324.1998 2390.5,-324.1998 2390.5,-378.8007"/>
<text text-anchor="middle" x="2351" y="-363.7003" font-family="Inconsolata" font-size="14.00" fill="#000000">ode class</text>
<text text-anchor="middle" x="2351" y="-332.3002" font-family="Inconsolata" font-size="14.00" fill="#000000"> &#160;C</text>
</g>
<!-- header_40&#45;&gt;leaf_42 -->
<g id="edge42" class="edge">
<title>header_40&#45;&gt;leaf_42</title>
<path fill="none" stroke="#000000" stroke-dasharray="5,2" d="M2351,-438.2932C2351,-424.7536 2351,-405.8421 2351,-389.1271"/>
<polygon fill="#000000" stroke="#000000" points="2354.5001,-389.0711 2351,-379.0711 2347.5001,-389.0711 2354.5001,-389.0711"/>
</g>
<!-- raw_43 -->
<g id="node44" class="node">
<title>raw_43</title>
<ellipse fill="none" stroke="#000000" cx="2487" cy="-351.5002" rx="27" ry="18"/>
<text text-anchor="middle" x="2487" y="-347.3002" font-family="Helvetica,sans-Serif" font-size="14.00" fill="#000000">raw</text>
</g>
<!-- prose_41&#45;&gt;raw_43 -->
<g id="edge43" class="edge">
<title>prose_41&#45;&gt;raw_43</title>
<path fill="none" stroke="#000000" stroke-dasharray="5,2" d="M2525.1967,-438.7715C2517.9498,-422.2139 2507.0597,-397.3323 2498.7594,-378.368"/>
<polygon fill="#000000" stroke="#000000" points="2501.904,-376.8233 2494.688,-369.0657 2495.4913,-379.6301 2501.904,-376.8233"/>
</g>
<!-- link_44 -->
<g id="node45" class="node">
<title>link_44</title>
<ellipse fill="none" stroke="#000000" cx="2579" cy="-351.5002" rx="27" ry="18"/>
<text text-anchor="middle" x="2579" y="-347.3002" font-family="Helvetica,sans-Serif" font-size="14.00" fill="#000000">link</text>
</g>
<!-- prose_41&#45;&gt;link_44 -->
<g id="edge44" class="edge">
<title>prose_41&#45;&gt;link_44</title>
<path fill="none" stroke="#000000" stroke-dasharray="5,2" d="M2540.8033,-438.7715C2548.0502,-422.2139 2558.9403,-397.3323 2567.2406,-378.368"/>
<polygon fill="#000000" stroke="#000000" points="2570.5087,-379.6301 2571.312,-369.0657 2564.096,-376.8233 2570.5087,-379.6301"/>
</g>
<!-- raw_45 -->
<g id="node46" class="node">
<title>raw_45</title>
<ellipse fill="none" stroke="#000000" cx="2699" cy="-351.5002" rx="27" ry="18"/>
<text text-anchor="middle" x="2699" y="-347.3002" font-family="Helvetica,sans-Serif" font-size="14.00" fill="#000000">raw</text>
</g>
<!-- prose_41&#45;&gt;raw_45 -->
<g id="edge45" class="edge">
<title>prose_41&#45;&gt;raw_45</title>
<path fill="none" stroke="#000000" stroke-dasharray="5,2" d="M2554.3618,-443.0754C2583.977,-424.3251 2637.5774,-390.3889 2670.554,-369.5103"/>
<polygon fill="#000000" stroke="#000000" points="2672.6944,-372.2977 2679.2711,-363.9912 2668.9499,-366.3834 2672.6944,-372.2977"/>
</g>
<!-- leaf_46 -->
<g id="node47" class="node">
<title>leaf_46</title>
<polygon fill="none" stroke="#c0c0c0" points="2510,-264.6017 2424,-264.6017 2424,-208.7987 2510,-208.7987 2510,-264.6017"/>
<text text-anchor="middle" x="2467" y="-217.2002" font-family="Inconsolata" font-size="14.00" fill="#000000"> &#160;Covered </text>
</g>
<!-- raw_43&#45;&gt;leaf_46 -->
<g id="edge46" class="edge">
<title>raw_43&#45;&gt;leaf_46</title>
<path fill="none" stroke="#000000" stroke-dasharray="5,2" d="M2483.875,-333.5627C2481.1432,-317.8821 2477.0846,-294.586 2473.6324,-274.77"/>
<polygon fill="#000000" stroke="#000000" points="2477.057,-274.0343 2471.8926,-264.7834 2470.1609,-275.2358 2477.057,-274.0343"/>
</g>
<!-- anchortext_47 -->
<g id="node48" class="node">
<title>anchortext_47</title>
<ellipse fill="none" stroke="#000000" cx="2579" cy="-236.7002" rx="51.3018" ry="18"/>
<text text-anchor="middle" x="2579" y="-232.5002" font-family="Helvetica,sans-Serif" font-size="14.00" fill="#000000">anchortext</text>
</g>
<!-- link_44&#45;&gt;anchortext_47 -->
<g id="edge47" class="edge">
<title>link_44&#45;&gt;anchortext_47</title>
<path fill="none" stroke="#000000" stroke-dasharray="5,2" d="M2579,-333.3098C2579,-314.9206 2579,-286.2468 2579,-264.908"/>
<polygon fill="#000000" stroke="#000000" points="2582.5001,-264.8054 2579,-254.8055 2575.5001,-264.8055 2582.5001,-264.8054"/>
</g>
<!-- url_48 -->
<g id="node49" class="node">
<title>url_48</title>
<ellipse fill="none" stroke="#000000" cx="2675" cy="-236.7002" rx="27" ry="18"/>
<text text-anchor="middle" x="2675" y="-232.5002" font-family="Helvetica,sans-Serif" font-size="14.00" fill="#000000">url</text>
</g>
<!-- link_44&#45;&gt;url_48 -->
<g id="edge48" class="edge">
<title>link_44&#45;&gt;url_48</title>
<path fill="none" stroke="#000000" stroke-dasharray="5,2" d="M2592.3484,-335.5378C2608.6834,-316.0038 2636.4829,-282.7603 2655.2835,-260.2779"/>
<polygon fill="#000000" stroke="#000000" points="2658.0349,-262.4436 2661.765,-252.5271 2652.665,-257.9531 2658.0349,-262.4436"/>
</g>
<!-- leaf_51 -->
<g id="node52" class="node">
<title>leaf_51</title>
<polygon fill="none" stroke="#c0c0c0" points="2774,-256.7002 2720,-256.7002 2720,-216.7002 2774,-216.7002 2774,-256.7002"/>
</g>
<!-- raw_45&#45;&gt;leaf_51 -->
<g id="edge51" class="edge">
<title>raw_45&#45;&gt;leaf_51</title>
<path fill="none" stroke="#000000" stroke-dasharray="5,2" d="M2706.2902,-334.0646C2713.7954,-316.1146 2725.6287,-287.8133 2734.6072,-266.3396"/>
<polygon fill="#000000" stroke="#000000" points="2737.8773,-267.5917 2738.5058,-257.0155 2731.4191,-264.8913 2737.8773,-267.5917"/>
</g>
<!-- leaf_49 -->
<g id="node50" class="node">
<title>leaf_49</title>
<polygon fill="none" stroke="#c0c0c0" points="2617,-140.5001 2563,-140.5001 2563,-104.5001 2617,-104.5001 2617,-140.5001"/>
<text text-anchor="middle" x="2590" y="-119.0001" font-family="Inconsolata" font-size="14.00" fill="#000000">here</text>
</g>
<!-- anchortext_47&#45;&gt;leaf_49 -->
<g id="edge49" class="edge">
<title>anchortext_47&#45;&gt;leaf_49</title>
<path fill="none" stroke="#000000" stroke-dasharray="5,2" d="M2580.743,-218.6048C2582.505,-200.3117 2585.2525,-171.7878 2587.2972,-150.5604"/>
<polygon fill="#000000" stroke="#000000" points="2590.7902,-150.8003 2588.2652,-140.5108 2583.8224,-150.1291 2590.7902,-150.8003"/>
</g>
<!-- leaf_50 -->
<g id="node51" class="node">
<title>leaf_50</title>
<polygon fill="none" stroke="#c0c0c0" points="2704,-140.5001 2646,-140.5001 2646,-104.5001 2704,-104.5001 2704,-140.5001"/>
<text text-anchor="middle" x="2675" y="-119.0001" font-family="Inconsolata" font-size="14.00" fill="#000000">./node</text>
</g>
<!-- url_48&#45;&gt;leaf_50 -->
<g id="edge50" class="edge">
<title>url_48&#45;&gt;leaf_50</title>
<path fill="none" stroke="#000000" stroke-dasharray="5,2" d="M2675,-218.6048C2675,-200.3117 2675,-171.7878 2675,-150.5604"/>
<polygon fill="#000000" stroke="#000000" points="2678.5001,-150.5107 2675,-140.5108 2671.5001,-150.5108 2678.5001,-150.5107"/>
</g>
<!-- leaf_55 -->
<g id="node56" class="node">
<title>leaf_55</title>
<polygon fill="none" stroke="#c0c0c0" points="2992.5,-378.8007 2899.5,-378.8007 2899.5,-324.1998 2992.5,-324.1998 2992.5,-378.8007"/>
<text text-anchor="middle" x="2946" y="-363.7003" font-family="Inconsolata" font-size="14.00" fill="#000000">orest class</text>
<text text-anchor="middle" x="2946" y="-332.3002" font-family="Inconsolata" font-size="14.00" fill="#000000"> &#160;T</text>
</g>
<!-- header_52&#45;&gt;leaf_55 -->
<g id="edge55" class="edge">
<title>header_52&#45;&gt;leaf_55</title>
<path fill="none" stroke="#000000" stroke-dasharray="5,2" d="M2946,-438.2932C2946,-424.7536 2946,-405.8421 2946,-389.1271"/>
<polygon fill="#000000" stroke="#000000" points="2949.5001,-389.0711 2946,-379.0711 2942.5001,-389.0711 2949.5001,-389.0711"/>
</g>
<!-- raw_56 -->
<g id="node57" class="node">
<title>raw_56</title>
<ellipse fill="none" stroke="#000000" cx="3066" cy="-351.5002" rx="27" ry="18"/>
<text text-anchor="middle" x="3066" y="-347.3002" font-family="Helvetica,sans-Serif" font-size="14.00" fill="#000000">raw</text>
</g>
<!-- prose_53&#45;&gt;raw_56 -->
<g id="edge56" class="edge">
<title>prose_53&#45;&gt;raw_56</title>
<path fill="none" stroke="#000000" stroke-dasharray="5,2" d="M3066,-438.2932C3066,-422.1677 3066,-398.4224 3066,-379.8431"/>
<polygon fill="#000000" stroke="#000000" points="3069.5001,-379.5974 3066,-369.5975 3062.5001,-379.5975 3069.5001,-379.5974"/>
</g>
<!-- raw_58 -->
<g id="node59" class="node">
<title>raw_58</title>
<ellipse fill="none" stroke="#000000" cx="3498" cy="-351.5002" rx="27" ry="18"/>
<text text-anchor="middle" x="3498" y="-347.3002" font-family="Helvetica,sans-Serif" font-size="14.00" fill="#000000">raw</text>
</g>
<!-- prose_54&#45;&gt;raw_58 -->
<g id="edge58" class="edge">
<title>prose_54&#45;&gt;raw_58</title>
<path fill="none" stroke="#000000" stroke-dasharray="5,2" d="M3398.2638,-441.0924C3418.3926,-423.0108 3451.7741,-393.0245 3474.3154,-372.7759"/>
<polygon fill="#000000" stroke="#000000" points="3476.6966,-375.3417 3481.797,-366.0553 3472.0187,-370.1342 3476.6966,-375.3417"/>
</g>
<!-- leaf_57 -->
<g id="node58" class="node">
<title>leaf_57</title>
<polygon fill="none" stroke="#c0c0c0" points="3340,-264.6017 2792,-264.6017 2792,-208.7987 3340,-208.7987 3340,-264.6017"/>
<text text-anchor="middle" x="3066" y="-217.2002" font-family="Inconsolata" font-size="14.00" fill="#000000"> &#160;This is just an array of Nodes offering a familiar =select= etc interface.</text>
</g>
<!-- raw_56&#45;&gt;leaf_57 -->
<g id="edge57" class="edge">
<title>raw_56&#45;&gt;leaf_57</title>
<path fill="none" stroke="#000000" stroke-dasharray="5,2" d="M3066,-333.3098C3066,-317.661 3066,-294.5643 3066,-274.878"/>
<polygon fill="#000000" stroke="#000000" points="3069.5001,-274.6572 3066,-264.6573 3062.5001,-274.6573 3069.5001,-274.6572"/>
</g>
<!-- leaf_59 -->
<g id="node60" class="node">
<title>leaf_59</title>
<polygon fill="none" stroke="#c0c0c0" points="3871.5,-256.6023 3358.5,-256.6023 3358.5,-216.7981 3871.5,-216.7981 3871.5,-256.6023"/>
<text text-anchor="middle" x="3615" y="-225.2002" font-family="Inconsolata" font-size="14.00" fill="#000000">These are the only classes which should exist once this is cleaned up. </text>
</g>
<!-- raw_58&#45;&gt;leaf_59 -->
<g id="edge59" class="edge">
<title>raw_58&#45;&gt;leaf_59</title>
<path fill="none" stroke="#000000" stroke-dasharray="5,2" d="M3513.2957,-336.4921C3532.0757,-318.0652 3564.2774,-286.469 3587.4198,-263.7618"/>
<polygon fill="#000000" stroke="#000000" points="3589.9001,-266.2316 3594.5867,-256.7296 3584.9975,-261.235 3589.9001,-266.2316"/>
</g>
</g>
</svg>