<?xml version="1.0" encoding="UTF-8" standalone="no"?>
<!DOCTYPE svg PUBLIC "-//W3C//DTD SVG 1.1//EN"
 "http://www.w3.org/Graphics/SVG/1.1/DTD/svg11.dtd">
<!-- Generated by graphviz version 2.40.1 (20161225.0304)
 -->
<!-- Title: hierarchy Pages: 1 -->
<svg width="3239pt" height="1307pt"
 viewBox="0.00 0.00 3238.50 1307.40" xmlns="http://www.w3.org/2000/svg" xmlns:xlink="http://www.w3.org/1999/xlink">
<g id="graph0" class="graph" transform="scale(1 1) rotate(0) translate(4 1303.4013)">
<title>hierarchy</title>
<polygon fill="#ffffff" stroke="transparent" points="-4,4 -4,-1303.4013 3234.5,-1303.4013 3234.5,4 -4,4"/>
<!-- doc_0 -->
<g id="node1" class="node">
<title>doc_0</title>
<ellipse fill="none" stroke="#000000" cx="1195" cy="-1281.4013" rx="42.1216" ry="18"/>
<text text-anchor="middle" x="1195" y="-1277.2013" font-family="Helvetica,sans-Serif" font-size="14.00" fill="#000000">doc &#45; 40</text>
</g>
<!-- section_1 -->
<g id="node2" class="node">
<title>section_1</title>
<ellipse fill="none" stroke="#000000" cx="1195" cy="-1209.4013" rx="60.9826" ry="18"/>
<text text-anchor="middle" x="1195" y="-1205.2013" font-family="Helvetica,sans-Serif" font-size="14.00" fill="#000000">section: 1&#45;35</text>
</g>
<!-- doc_0&#45;&gt;section_1 -->
<g id="edge1" class="edge">
<title>doc_0&#45;&gt;section_1</title>
<path fill="none" stroke="#000000" stroke-dasharray="5,2" d="M1195,-1263.2326C1195,-1255.5322 1195,-1246.3756 1195,-1237.8179"/>
<polygon fill="#000000" stroke="#000000" points="1198.5001,-1237.8145 1195,-1227.8145 1191.5001,-1237.8146 1198.5001,-1237.8145"/>
</g>
<!-- header_2 -->
<g id="node3" class="node">
<title>header_2</title>
<ellipse fill="none" stroke="#000000" cx="743" cy="-869.701" rx="137.8451" ry="18"/>
<text text-anchor="middle" x="743" y="-865.501" font-family="Helvetica,sans-Serif" font-size="14.00" fill="#000000">1 : Pegylator and the Node class</text>
</g>
<!-- section_1&#45;&gt;header_2 -->
<g id="edge2" class="edge">
<title>section_1&#45;&gt;header_2</title>
<path fill="none" stroke="#000000" stroke-dasharray="5,2" d="M1135.748,-1205.1334C1058.333,-1198.5211 928.14,-1183.5273 890,-1155.4013 801.669,-1090.2623 762.2822,-956.488 748.7827,-898.058"/>
<polygon fill="#000000" stroke="#000000" points="752.1461,-897.059 746.5573,-888.0581 745.3132,-898.5797 752.1461,-897.059"/>
</g>
<!-- block_3 -->
<g id="node4" class="node">
<title>block_3</title>
<ellipse fill="none" stroke="#000000" cx="945" cy="-869.701" rx="45.9804" ry="18"/>
<text text-anchor="middle" x="945" y="-865.501" font-family="Helvetica,sans-Serif" font-size="14.00" fill="#000000">block 1&#45;7</text>
</g>
<!-- section_1&#45;&gt;block_3 -->
<g id="edge3" class="edge">
<title>section_1&#45;&gt;block_3</title>
<path fill="none" stroke="#000000" stroke-dasharray="5,2" d="M1140.8647,-1200.9421C1090.0221,-1191.8829 1019.0017,-1175.9868 1000,-1155.4013 933.0525,-1082.8738 936.2628,-954.6084 941.5333,-897.9524"/>
<polygon fill="#000000" stroke="#000000" points="945.0232,-898.2289 942.5597,-887.9245 938.0596,-897.5161 945.0232,-898.2289"/>
</g>
<!-- block_4 -->
<g id="node5" class="node">
<title>block_4</title>
<ellipse fill="none" stroke="#000000" cx="1060" cy="-869.701" rx="50.8172" ry="18"/>
<text text-anchor="middle" x="1060" y="-865.501" font-family="Helvetica,sans-Serif" font-size="14.00" fill="#000000">block 8&#45;35</text>
</g>
<!-- section_1&#45;&gt;block_4 -->
<g id="edge4" class="edge">
<title>section_1&#45;&gt;block_4</title>
<path fill="none" stroke="#000000" stroke-dasharray="5,2" d="M1163.2609,-1193.7641C1147.9232,-1184.6272 1130.5888,-1171.6735 1120,-1155.4013 1066.5958,-1073.3331 1059.6248,-952.425 1059.4188,-898.0357"/>
<polygon fill="#000000" stroke="#000000" points="1062.9197,-897.7899 1059.4596,-887.7761 1055.9198,-897.762 1062.9197,-897.7899"/>
</g>
<!-- section_5 -->
<g id="node6" class="node">
<title>section_5</title>
<ellipse fill="none" stroke="#000000" cx="1195" cy="-869.701" rx="65.8187" ry="18"/>
<text text-anchor="middle" x="1195" y="-865.501" font-family="Helvetica,sans-Serif" font-size="14.00" fill="#000000">section: 10&#45;13</text>
</g>
<!-- section_1&#45;&gt;section_5 -->
<g id="edge5" class="edge">
<title>section_1&#45;&gt;section_5</title>
<path fill="none" stroke="#000000" stroke-dasharray="5,2" d="M1195,-1191.1375C1195,-1135.2648 1195,-966.3266 1195,-898.4199"/>
<polygon fill="#000000" stroke="#000000" points="1198.5001,-898.055 1195,-888.055 1191.5001,-898.0551 1198.5001,-898.055"/>
</g>
<!-- section_6 -->
<g id="node7" class="node">
<title>section_6</title>
<ellipse fill="none" stroke="#000000" cx="1666" cy="-869.701" rx="65.8187" ry="18"/>
<text text-anchor="middle" x="1666" y="-865.501" font-family="Helvetica,sans-Serif" font-size="14.00" fill="#000000">section: 31&#45;35</text>
</g>
<!-- section_1&#45;&gt;section_6 -->
<g id="edge6" class="edge">
<title>section_1&#45;&gt;section_6</title>
<path fill="none" stroke="#000000" stroke-dasharray="5,2" d="M1218.3146,-1192.6235C1233.1211,-1181.9663 1252.6883,-1167.8784 1270,-1155.4013 1405.2576,-1057.9167 1566.4115,-941.5965 1633.8441,-892.9163"/>
<polygon fill="#000000" stroke="#000000" points="1636.2899,-895.4674 1642.3492,-886.7763 1632.1926,-889.7918 1636.2899,-895.4674"/>
</g>
<!-- section_7 -->
<g id="node8" class="node">
<title>section_7</title>
<ellipse fill="none" stroke="#000000" cx="2270" cy="-869.701" rx="65.8187" ry="18"/>
<text text-anchor="middle" x="2270" y="-865.501" font-family="Helvetica,sans-Serif" font-size="14.00" fill="#000000">section: 36&#45;40</text>
</g>
<!-- section_1&#45;&gt;section_7 -->
<g id="edge7" class="edge">
<title>section_1&#45;&gt;section_7</title>
<path fill="none" stroke="#000000" stroke-dasharray="5,2" d="M1255.2709,-1206.443C1377.7096,-1199.9435 1651.5071,-1182.7797 1741,-1155.4013 1944.5091,-1093.1422 2159.412,-948.8254 2238.4659,-892.6545"/>
<polygon fill="#000000" stroke="#000000" points="2240.8903,-895.2239 2246.9922,-886.5626 2236.8209,-889.5283 2240.8903,-895.2239"/>
</g>
<!-- leaf_35 -->
<g id="node36" class="node">
<title>leaf_35</title>
<polygon fill="none" stroke="#c0c0c0" points="2936.5,-1155.6017 2353.5,-1155.6017 2353.5,-583.8002 2936.5,-583.8002 2936.5,-1155.6017"/>
<text text-anchor="middle" x="2645" y="-1140.2013" font-family="Inconsolata" font-size="14.00" fill="#000000">* Pegylator and the Node class</text>
<text text-anchor="middle" x="2645" y="-1092.8012" font-family="Inconsolata" font-size="14.00" fill="#000000"> &#160;Current grym has a nodule of undigested code in the =/peg= directory.</text>
<text text-anchor="middle" x="2645" y="-1077.4012" font-family="Inconsolata" font-size="14.00" fill="#000000">This is early 2015 era stuff, and is built somewhat blindly upon epnf as I</text>
<text text-anchor="middle" x="2645" y="-1062.0012" font-family="Inconsolata" font-size="14.00" fill="#000000">found it on the internet.</text>
<text text-anchor="middle" x="2645" y="-1030.6012" font-family="Inconsolata" font-size="14.00" fill="#000000">It needs a substantial refactor. </text>
<text text-anchor="middle" x="2645" y="-999.2011" font-family="Inconsolata" font-size="14.00" fill="#000000">** Grammar class</text>
<text text-anchor="middle" x="2645" y="-967.8011" font-family="Inconsolata" font-size="14.00" fill="#000000">This has the verbs:</text>
<text text-anchor="middle" x="2645" y="-936.4011" font-family="Inconsolata" font-size="14.00" fill="#000000">*** Grammar / new(Grammar, g_func, meta_tables)</text>
<text text-anchor="middle" x="2645" y="-905.001" font-family="Inconsolata" font-size="14.00" fill="#000000">This takes a function, building and returning a grammar over it.</text>
<text text-anchor="middle" x="2645" y="-873.601" font-family="Inconsolata" font-size="14.00" fill="#000000"> &#160;&#45; #params</text>
<text text-anchor="middle" x="2645" y="-858.201" font-family="Inconsolata" font-size="14.00" fill="#000000"> &#160;&#160;&#160;&#45; Grammar : &#160;The __call object</text>
<text text-anchor="middle" x="2645" y="-842.8009" font-family="Inconsolata" font-size="14.00" fill="#000000"> &#160;&#160;&#160;&#45; g_func &#160;: &#160;The function(_ENV) grammar</text>
<text text-anchor="middle" x="2645" y="-827.4009" font-family="Inconsolata" font-size="14.00" fill="#000000"> &#160;&#160;&#160;&#45; meta_tables : &#160;A map of rule ids to metatables. &#160;These should themsevles</text>
<text text-anchor="middle" x="2645" y="-812.0009" font-family="Inconsolata" font-size="14.00" fill="#000000"> &#160;&#160;&#160;				 inherit from Node.</text>
<text text-anchor="middle" x="2645" y="-780.6008" font-family="Inconsolata" font-size="14.00" fill="#000000">The constructor handles building the metatable stack so that the table it returns</text>
<text text-anchor="middle" x="2645" y="-765.2008" font-family="Inconsolata" font-size="14.00" fill="#000000">works like a function over a string returning a Node. </text>
<text text-anchor="middle" x="2645" y="-733.8008" font-family="Inconsolata" font-size="14.00" fill="#000000">Also automated: If a string isn&#39;t provided in =meta_tables=, the Node metatable</text>
<text text-anchor="middle" x="2645" y="-718.4007" font-family="Inconsolata" font-size="14.00" fill="#000000">is assigned. I also have some notes on the [[Node class][./node]].</text>
<text text-anchor="middle" x="2645" y="-671.0007" font-family="Inconsolata" font-size="14.00" fill="#000000">** Node class</text>
<text text-anchor="middle" x="2645" y="-639.6007" font-family="Inconsolata" font-size="14.00" fill="#000000"> &#160;Covered [[here][./node]]</text>
<text text-anchor="middle" x="2645" y="-592.2007" font-family="Inconsolata" font-size="14.00" fill="#000000">** Fo</text>
</g>
<!-- section_1&#45;&gt;leaf_35 -->
<g id="edge35" class="edge">
<title>section_1&#45;&gt;leaf_35</title>
<path fill="none" stroke="#000000" stroke-dasharray="5,2" d="M1256.1028,-1209.0212C1473.9053,-1207.3355 2206.2162,-1198.7201 2343.8715,-1155.1582"/>
<polygon fill="#000000" stroke="#000000" points="2345.2051,-1158.3974 2353.3998,-1151.6819 2342.8058,-1151.8214 2345.2051,-1158.3974"/>
</g>
<!-- leaf_8 -->
<g id="node9" class="node">
<title>leaf_8</title>
<polygon fill="none" stroke="#c0c0c0" points="534,-540.1009 0,-540.1009 0,-453.7003 534,-453.7003 534,-540.1009"/>
<text text-anchor="middle" x="267" y="-492.8006" font-family="Inconsolata" font-size="14.00" fill="#000000"> &#160;Current grym has a nodule of undigested code in the =/peg= directory.</text>
<text text-anchor="middle" x="267" y="-477.4006" font-family="Inconsolata" font-size="14.00" fill="#000000">This is early 2015 era stuff, and is built somewhat blindly upon epnf as I</text>
<text text-anchor="middle" x="267" y="-462.0006" font-family="Inconsolata" font-size="14.00" fill="#000000">found it on the internet.</text>
</g>
<!-- block_3&#45;&gt;leaf_8 -->
<g id="edge8" class="edge">
<title>block_3&#45;&gt;leaf_8</title>
<path fill="none" stroke="#000000" stroke-dasharray="5,2" d="M947.988,-851.5608C955.2321,-800.6203 967.8172,-655.3399 890,-584.0006 832.8546,-531.6124 619.7312,-559.0662 543,-548.0006 529.5129,-546.0556 515.6792,-543.9259 501.7355,-541.6749"/>
<polygon fill="#000000" stroke="#000000" points="501.9995,-538.1717 491.5663,-540.0153 500.872,-545.0803 501.9995,-538.1717"/>
</g>
<!-- leaf_9 -->
<g id="node10" class="node">
<title>leaf_9</title>
<polygon fill="none" stroke="#c0c0c0" points="799.5,-514.9006 552.5,-514.9006 552.5,-478.9006 799.5,-478.9006 799.5,-514.9006"/>
<text text-anchor="middle" x="676" y="-493.4006" font-family="Inconsolata" font-size="14.00" fill="#000000">It needs a substantial refactor. </text>
</g>
<!-- block_4&#45;&gt;leaf_9 -->
<g id="edge9" class="edge">
<title>block_4&#45;&gt;leaf_9</title>
<path fill="none" stroke="#000000" stroke-dasharray="5,2" d="M1062.3666,-851.4803C1067.8147,-800.9558 1075.4921,-657.9455 1000,-584.0006 938.2885,-523.5539 892.1011,-571.5874 809,-548.0006 781.2703,-540.13 751.2271,-528.8365 726.7225,-518.8672"/>
<polygon fill="#000000" stroke="#000000" points="727.8547,-515.5483 717.2752,-514.9782 725.19,-522.0214 727.8547,-515.5483"/>
</g>
<!-- header_10 -->
<g id="node11" class="node">
<title>header_10</title>
<ellipse fill="none" stroke="#000000" cx="900" cy="-496.9006" rx="82.1803" ry="18"/>
<text text-anchor="middle" x="900" y="-492.7006" font-family="Helvetica,sans-Serif" font-size="14.00" fill="#000000">2 : Grammar class</text>
</g>
<!-- section_5&#45;&gt;header_10 -->
<g id="edge10" class="edge">
<title>section_5&#45;&gt;header_10</title>
<path fill="none" stroke="#000000" stroke-dasharray="5,2" d="M1195.9719,-851.351C1197.5766,-801.1087 1194.8397,-660.0038 1120,-584.0006 1078.236,-541.5874 1046.0112,-570.7357 991,-548.0006 971.926,-540.1177 951.8099,-529.1331 935.3552,-519.3676"/>
<polygon fill="#000000" stroke="#000000" points="936.9903,-516.2664 926.6203,-514.0952 933.373,-522.2593 936.9903,-516.2664"/>
</g>
<!-- block_11 -->
<g id="node12" class="node">
<title>block_11</title>
<ellipse fill="none" stroke="#000000" cx="1056" cy="-496.9006" rx="55.6542" ry="18"/>
<text text-anchor="middle" x="1056" y="-492.7006" font-family="Helvetica,sans-Serif" font-size="14.00" fill="#000000">block 10&#45;13</text>
</g>
<!-- section_5&#45;&gt;block_11 -->
<g id="edge11" class="edge">
<title>section_5&#45;&gt;block_11</title>
<path fill="none" stroke="#000000" stroke-dasharray="5,2" d="M1192.6465,-851.4988C1186.132,-805.0096 1165.2723,-678.8798 1120,-584.0006 1109.2649,-561.5027 1092.4373,-538.8998 1078.731,-522.3592"/>
<polygon fill="#000000" stroke="#000000" points="1081.0321,-519.6609 1071.8968,-514.2948 1075.6918,-524.1866 1081.0321,-519.6609"/>
</g>
<!-- section_12 -->
<g id="node13" class="node">
<title>section_12</title>
<ellipse fill="none" stroke="#000000" cx="1195" cy="-496.9006" rx="65.8187" ry="18"/>
<text text-anchor="middle" x="1195" y="-492.7006" font-family="Helvetica,sans-Serif" font-size="14.00" fill="#000000">section: 14&#45;30</text>
</g>
<!-- section_5&#45;&gt;section_12 -->
<g id="edge12" class="edge">
<title>section_5&#45;&gt;section_12</title>
<path fill="none" stroke="#000000" stroke-dasharray="5,2" d="M1195,-851.4677C1195,-791.2601 1195,-598.4844 1195,-525.3774"/>
<polygon fill="#000000" stroke="#000000" points="1198.5001,-525.0988 1195,-515.0988 1191.5001,-525.0988 1198.5001,-525.0988"/>
</g>
<!-- leaf_24 -->
<g id="node25" class="node">
<title>leaf_24</title>
<polygon fill="none" stroke="#c0c0c0" points="1427.5,-540.1009 1278.5,-540.1009 1278.5,-453.7003 1427.5,-453.7003 1427.5,-540.1009"/>
<text text-anchor="middle" x="1353" y="-524.8006" font-family="Inconsolata" font-size="14.00" fill="#000000">** Grammar class</text>
<text text-anchor="middle" x="1353" y="-493.4006" font-family="Inconsolata" font-size="14.00" fill="#000000">This has the verbs:</text>
<text text-anchor="middle" x="1353" y="-462.0006" font-family="Inconsolata" font-size="14.00" fill="#000000">*</text>
</g>
<!-- section_5&#45;&gt;leaf_24 -->
<g id="edge24" class="edge">
<title>section_5&#45;&gt;leaf_24</title>
<path fill="none" stroke="#000000" stroke-dasharray="5,2" d="M1202.6207,-851.72C1225.5615,-797.5913 1294.6037,-634.6865 1330.6073,-549.7361"/>
<polygon fill="#000000" stroke="#000000" points="1333.9385,-550.8452 1334.6183,-540.2722 1327.4935,-548.1137 1333.9385,-550.8452"/>
</g>
<!-- header_25 -->
<g id="node26" class="node">
<title>header_25</title>
<ellipse fill="none" stroke="#000000" cx="1596" cy="-496.9006" rx="66.2859" ry="18"/>
<text text-anchor="middle" x="1596" y="-492.7006" font-family="Helvetica,sans-Serif" font-size="14.00" fill="#000000">2 : Node class</text>
</g>
<!-- section_6&#45;&gt;header_25 -->
<g id="edge25" class="edge">
<title>section_6&#45;&gt;header_25</title>
<path fill="none" stroke="#000000" stroke-dasharray="5,2" d="M1662.6238,-851.72C1651.3528,-791.6941 1614.9643,-597.899 1601.2739,-524.9878"/>
<polygon fill="#000000" stroke="#000000" points="1604.7098,-524.3202 1599.4244,-515.1378 1597.83,-525.612 1604.7098,-524.3202"/>
</g>
<!-- block_26 -->
<g id="node27" class="node">
<title>block_26</title>
<ellipse fill="none" stroke="#000000" cx="1736" cy="-496.9006" rx="55.6542" ry="18"/>
<text text-anchor="middle" x="1736" y="-492.7006" font-family="Helvetica,sans-Serif" font-size="14.00" fill="#000000">block 31&#45;35</text>
</g>
<!-- section_6&#45;&gt;block_26 -->
<g id="edge26" class="edge">
<title>section_6&#45;&gt;block_26</title>
<path fill="none" stroke="#000000" stroke-dasharray="5,2" d="M1669.3762,-851.72C1680.6472,-791.6941 1717.0357,-597.899 1730.7261,-524.9878"/>
<polygon fill="#000000" stroke="#000000" points="1734.17,-525.612 1732.5756,-515.1378 1727.2902,-524.3202 1734.17,-525.612"/>
</g>
<!-- leaf_28 -->
<g id="node29" class="node">
<title>leaf_28</title>
<polygon fill="none" stroke="#c0c0c0" points="2008,-548.1009 1810,-548.1009 1810,-445.7003 2008,-445.7003 2008,-548.1009"/>
<text text-anchor="middle" x="1909" y="-532.8006" font-family="Inconsolata" font-size="14.00" fill="#000000">ode class</text>
<text text-anchor="middle" x="1909" y="-501.4006" font-family="Inconsolata" font-size="14.00" fill="#000000"> &#160;Covered [[here][./node]]</text>
<text text-anchor="middle" x="1909" y="-454.0006" font-family="Inconsolata" font-size="14.00" fill="#000000">** Fo</text>
</g>
<!-- section_6&#45;&gt;leaf_28 -->
<g id="edge28" class="edge">
<title>section_6&#45;&gt;leaf_28</title>
<path fill="none" stroke="#000000" stroke-dasharray="5,2" d="M1677.7204,-851.72C1712.0807,-799.0059 1813.6862,-643.127 1870.1173,-556.5528"/>
<polygon fill="#000000" stroke="#000000" points="1873.0717,-558.4297 1875.6003,-548.141 1867.2075,-554.6073 1873.0717,-558.4297"/>
</g>
<!-- header_29 -->
<g id="node30" class="node">
<title>header_29</title>
<ellipse fill="none" stroke="#000000" cx="2198" cy="-496.9006" rx="70.1273" ry="18"/>
<text text-anchor="middle" x="2198" y="-492.7006" font-family="Helvetica,sans-Serif" font-size="14.00" fill="#000000">2 : Forest class</text>
</g>
<!-- section_7&#45;&gt;header_29 -->
<g id="edge29" class="edge">
<title>section_7&#45;&gt;header_29</title>
<path fill="none" stroke="#000000" stroke-dasharray="5,2" d="M2266.5273,-851.72C2254.9343,-791.6941 2217.5061,-597.899 2203.4246,-524.9878"/>
<polygon fill="#000000" stroke="#000000" points="2206.8551,-524.2927 2201.5222,-515.1378 2199.9821,-525.6201 2206.8551,-524.2927"/>
</g>
<!-- block_30 -->
<g id="node31" class="node">
<title>block_30</title>
<ellipse fill="none" stroke="#000000" cx="2342" cy="-496.9006" rx="55.6542" ry="18"/>
<text text-anchor="middle" x="2342" y="-492.7006" font-family="Helvetica,sans-Serif" font-size="14.00" fill="#000000">block 36&#45;39</text>
</g>
<!-- section_7&#45;&gt;block_30 -->
<g id="edge30" class="edge">
<title>section_7&#45;&gt;block_30</title>
<path fill="none" stroke="#000000" stroke-dasharray="5,2" d="M2273.4727,-851.72C2285.0657,-791.6941 2322.4939,-597.899 2336.5754,-524.9878"/>
<polygon fill="#000000" stroke="#000000" points="2340.0179,-525.6201 2338.4778,-515.1378 2333.1449,-524.2927 2340.0179,-525.6201"/>
</g>
<!-- block_31 -->
<g id="node32" class="node">
<title>block_31</title>
<ellipse fill="none" stroke="#000000" cx="2472" cy="-496.9006" rx="55.6542" ry="18"/>
<text text-anchor="middle" x="2472" y="-492.7006" font-family="Helvetica,sans-Serif" font-size="14.00" fill="#000000">block 40&#45;40</text>
</g>
<!-- section_7&#45;&gt;block_31 -->
<g id="edge31" class="edge">
<title>section_7&#45;&gt;block_31</title>
<path fill="none" stroke="#000000" stroke-dasharray="5,2" d="M2270.1238,-851.5897C2271.3471,-803.1305 2280.6968,-668.4602 2345,-584.0006 2364.302,-558.6483 2380.6326,-565.8911 2407,-548.0006 2419.617,-539.4399 2432.9541,-529.186 2444.2417,-520.1177"/>
<polygon fill="#000000" stroke="#000000" points="2446.5055,-522.7881 2452.059,-513.7653 2442.091,-517.3556 2446.5055,-522.7881"/>
</g>
<!-- leaf_34 -->
<g id="node35" class="node">
<title>leaf_34</title>
<polygon fill="none" stroke="#c0c0c0" points="3094,-540.1009 2546,-540.1009 2546,-453.7003 3094,-453.7003 3094,-540.1009"/>
<text text-anchor="middle" x="2820" y="-524.8006" font-family="Inconsolata" font-size="14.00" fill="#000000">orest class</text>
<text text-anchor="middle" x="2820" y="-493.4006" font-family="Inconsolata" font-size="14.00" fill="#000000"> &#160;This is just an array of Nodes offering a familiar =select= etc interface.</text>
<text text-anchor="middle" x="2820" y="-462.0006" font-family="Inconsolata" font-size="14.00" fill="#000000">These are the only classes which should exist once this is cleaned up. </text>
</g>
<!-- section_7&#45;&gt;leaf_34 -->
<g id="edge34" class="edge">
<title>section_7&#45;&gt;leaf_34</title>
<path fill="none" stroke="#000000" stroke-dasharray="5,2" d="M2268.6907,-851.352C2266.1563,-800.4949 2266.6003,-656.7036 2345,-584.0006 2346.1865,-582.9003 2456.8195,-562.5828 2571.0028,-541.8497"/>
<polygon fill="#000000" stroke="#000000" points="2571.779,-545.266 2580.9931,-540.0362 2570.5288,-538.3786 2571.779,-545.266"/>
</g>
<!-- leaf_13 -->
<g id="node14" class="node">
<title>leaf_13</title>
<polygon fill="none" stroke="#c0c0c0" points="357.5,-285.3024 208.5,-285.3024 208.5,-245.4983 357.5,-245.4983 357.5,-285.3024"/>
<text text-anchor="middle" x="283" y="-253.9004" font-family="Inconsolata" font-size="14.00" fill="#000000">This has the verbs:</text>
</g>
<!-- block_11&#45;&gt;leaf_13 -->
<g id="edge13" class="edge">
<title>block_11&#45;&gt;leaf_13</title>
<path fill="none" stroke="#000000" stroke-dasharray="5,2" d="M1039.8935,-479.5676C1027.7247,-467.7402 1009.9288,-452.9662 991,-445.8005 860.8917,-396.5466 484.3598,-482.9106 366,-409.8005 324.4206,-384.1172 301.5655,-329.4049 290.8343,-295.1895"/>
<polygon fill="#000000" stroke="#000000" points="294.0933,-293.8697 287.8859,-285.2838 287.3842,-295.8667 294.0933,-293.8697"/>
</g>
<!-- header_14 -->
<g id="node15" class="node">
<title>header_14</title>
<ellipse fill="none" stroke="#000000" cx="586" cy="-265.4003" rx="210.7615" ry="18"/>
<text text-anchor="middle" x="586" y="-261.2003" font-family="Helvetica,sans-Serif" font-size="14.00" fill="#000000">3 : Grammar / new(Grammar, g_func, meta_tables)</text>
</g>
<!-- section_12&#45;&gt;header_14 -->
<g id="edge14" class="edge">
<title>section_12&#45;&gt;header_14</title>
<path fill="none" stroke="#000000" stroke-dasharray="5,2" d="M1175.7937,-479.6619C1161.6778,-468.0406 1141.4651,-453.4778 1121,-445.8005 988.6532,-396.1521 937.871,-458.0286 805,-409.8005 729.064,-382.2381 653.2157,-323.5434 613.7914,-290.0927"/>
<polygon fill="#000000" stroke="#000000" points="615.8125,-287.215 605.9446,-283.3582 611.2535,-292.5269 615.8125,-287.215"/>
</g>
<!-- block_15 -->
<g id="node16" class="node">
<title>block_15</title>
<ellipse fill="none" stroke="#000000" cx="870" cy="-265.4003" rx="55.6542" ry="18"/>
<text text-anchor="middle" x="870" y="-261.2003" font-family="Helvetica,sans-Serif" font-size="14.00" fill="#000000">block 14&#45;17</text>
</g>
<!-- section_12&#45;&gt;block_15 -->
<g id="edge15" class="edge">
<title>section_12&#45;&gt;block_15</title>
<path fill="none" stroke="#000000" stroke-dasharray="5,2" d="M1174.9878,-479.6582C1160.8151,-468.3435 1140.8634,-454.1464 1121,-445.8005 1043.3729,-413.1844 1001.0242,-462.0555 935,-409.8005 898.4298,-380.857 881.7842,-326.8643 874.7153,-293.7302"/>
<polygon fill="#000000" stroke="#000000" points="878.1178,-292.8941 872.7436,-283.7634 871.2509,-294.2526 878.1178,-292.8941"/>
</g>
<!-- block_16 -->
<g id="node17" class="node">
<title>block_16</title>
<ellipse fill="none" stroke="#000000" cx="1000" cy="-265.4003" rx="55.6542" ry="18"/>
<text text-anchor="middle" x="1000" y="-261.2003" font-family="Helvetica,sans-Serif" font-size="14.00" fill="#000000">block 18&#45;23</text>
</g>
<!-- section_12&#45;&gt;block_16 -->
<g id="edge16" class="edge">
<title>section_12&#45;&gt;block_16</title>
<path fill="none" stroke="#000000" stroke-dasharray="5,2" d="M1171.1415,-480.1294C1156.7082,-470.0578 1137.8895,-457.0563 1121,-445.8005 1096.3786,-429.3919 1084.3138,-432.2156 1065,-409.8005 1035.1723,-375.1833 1016.6765,-324.6468 1007.3713,-293.4551"/>
<polygon fill="#000000" stroke="#000000" points="1010.6862,-292.3173 1004.5649,-283.6697 1003.9574,-294.2471 1010.6862,-292.3173"/>
</g>
<!-- block_17 -->
<g id="node18" class="node">
<title>block_17</title>
<ellipse fill="none" stroke="#000000" cx="1130" cy="-265.4003" rx="55.6542" ry="18"/>
<text text-anchor="middle" x="1130" y="-261.2003" font-family="Helvetica,sans-Serif" font-size="14.00" fill="#000000">block 24&#45;26</text>
</g>
<!-- section_12&#45;&gt;block_17 -->
<g id="edge17" class="edge">
<title>section_12&#45;&gt;block_17</title>
<path fill="none" stroke="#000000" stroke-dasharray="5,2" d="M1189.8996,-478.7351C1178.5794,-438.4179 1151.2937,-341.2388 1137.8101,-293.2165"/>
<polygon fill="#000000" stroke="#000000" points="1141.1498,-292.1629 1135.0767,-283.4814 1134.4104,-294.0553 1141.1498,-292.1629"/>
</g>
<!-- block_18 -->
<g id="node19" class="node">
<title>block_18</title>
<ellipse fill="none" stroke="#000000" cx="1260" cy="-265.4003" rx="55.6542" ry="18"/>
<text text-anchor="middle" x="1260" y="-261.2003" font-family="Helvetica,sans-Serif" font-size="14.00" fill="#000000">block 27&#45;30</text>
</g>
<!-- section_12&#45;&gt;block_18 -->
<g id="edge18" class="edge">
<title>section_12&#45;&gt;block_18</title>
<path fill="none" stroke="#000000" stroke-dasharray="5,2" d="M1200.1004,-478.7351C1211.4206,-438.4179 1238.7063,-341.2388 1252.1899,-293.2165"/>
<polygon fill="#000000" stroke="#000000" points="1255.5896,-294.0553 1254.9233,-283.4814 1248.8502,-292.1629 1255.5896,-294.0553"/>
</g>
<!-- leaf_23 -->
<g id="node24" class="node">
<title>leaf_23</title>
<polygon fill="none" stroke="#c0c0c0" points="1916.5,-409.7008 1333.5,-409.7008 1333.5,-121.0999 1916.5,-121.0999 1916.5,-409.7008"/>
<text text-anchor="middle" x="1625" y="-394.6005" font-family="Inconsolata" font-size="14.00" fill="#000000">*** Grammar / new(Grammar, g_func, meta_tables)</text>
<text text-anchor="middle" x="1625" y="-363.2005" font-family="Inconsolata" font-size="14.00" fill="#000000">This takes a function, building and returning a grammar over it.</text>
<text text-anchor="middle" x="1625" y="-331.8005" font-family="Inconsolata" font-size="14.00" fill="#000000"> &#160;&#45; #params</text>
<text text-anchor="middle" x="1625" y="-316.4004" font-family="Inconsolata" font-size="14.00" fill="#000000"> &#160;&#160;&#160;&#45; Grammar : &#160;The __call object</text>
<text text-anchor="middle" x="1625" y="-301.0004" font-family="Inconsolata" font-size="14.00" fill="#000000"> &#160;&#160;&#160;&#45; g_func &#160;: &#160;The function(_ENV) grammar</text>
<text text-anchor="middle" x="1625" y="-285.6004" font-family="Inconsolata" font-size="14.00" fill="#000000"> &#160;&#160;&#160;&#45; meta_tables : &#160;A map of rule ids to metatables. &#160;These should themsevles</text>
<text text-anchor="middle" x="1625" y="-270.2003" font-family="Inconsolata" font-size="14.00" fill="#000000"> &#160;&#160;&#160;				 inherit from Node.</text>
<text text-anchor="middle" x="1625" y="-238.8003" font-family="Inconsolata" font-size="14.00" fill="#000000">The constructor handles building the metatable stack so that the table it returns</text>
<text text-anchor="middle" x="1625" y="-223.4003" font-family="Inconsolata" font-size="14.00" fill="#000000">works like a function over a string returning a Node. </text>
<text text-anchor="middle" x="1625" y="-192.0002" font-family="Inconsolata" font-size="14.00" fill="#000000">Also automated: If a string isn&#39;t provided in =meta_tables=, the Node metatable</text>
<text text-anchor="middle" x="1625" y="-176.6002" font-family="Inconsolata" font-size="14.00" fill="#000000">is assigned. I also have some notes on the [[Node class][./node]].</text>
<text text-anchor="middle" x="1625" y="-129.2002" font-family="Inconsolata" font-size="14.00" fill="#000000">** No</text>
</g>
<!-- section_12&#45;&gt;leaf_23 -->
<g id="edge23" class="edge">
<title>section_12&#45;&gt;leaf_23</title>
<path fill="none" stroke="#000000" stroke-dasharray="5,2" d="M1217.8,-479.9644C1232.1679,-469.5943 1251.2887,-456.3376 1269,-445.8005 1286.8634,-435.1729 1305.4288,-424.5588 1324.2864,-414.101"/>
<polygon fill="#000000" stroke="#000000" points="1326.2025,-417.0412 1333.2662,-409.1447 1322.8199,-410.9127 1326.2025,-417.0412"/>
</g>
<!-- leaf_19 -->
<g id="node20" class="node">
<title>leaf_19</title>
<polygon fill="none" stroke="#c0c0c0" points="471,-62.4022 7,-62.4022 7,-22.598 471,-22.598 471,-62.4022"/>
<text text-anchor="middle" x="239" y="-31.0001" font-family="Inconsolata" font-size="14.00" fill="#000000">This takes a function, building and returning a grammar over it.</text>
</g>
<!-- block_15&#45;&gt;leaf_19 -->
<g id="edge19" class="edge">
<title>block_15&#45;&gt;leaf_19</title>
<path fill="none" stroke="#000000" stroke-dasharray="5,2" d="M867.7374,-247.1945C862.7752,-215.7284 847.8225,-151.6085 806,-121.0002 747.1841,-77.955 552.1485,-95.3345 480,-85.0002 438.1358,-79.0037 392.3904,-71.2447 352.1118,-64.0005"/>
<polygon fill="#000000" stroke="#000000" points="352.7285,-60.5554 342.2653,-62.2204 351.4831,-67.4437 352.7285,-60.5554"/>
</g>
<!-- leaf_20 -->
<g id="node21" class="node">
<title>leaf_20</title>
<polygon fill="none" stroke="#c0c0c0" points="1051,-85.0002 489,-85.0002 489,.0001 1051,.0001 1051,-85.0002"/>
<text text-anchor="middle" x="770" y="-69.8002" font-family="Inconsolata" font-size="14.00" fill="#000000"> &#160;&#45; #params</text>
<text text-anchor="middle" x="770" y="-54.4001" font-family="Inconsolata" font-size="14.00" fill="#000000"> &#160;&#160;&#160;&#45; Grammar : &#160;The __call object</text>
<text text-anchor="middle" x="770" y="-39.0001" font-family="Inconsolata" font-size="14.00" fill="#000000"> &#160;&#160;&#160;&#45; g_func &#160;: &#160;The function(_ENV) grammar</text>
<text text-anchor="middle" x="770" y="-23.6001" font-family="Inconsolata" font-size="14.00" fill="#000000"> &#160;&#160;&#160;&#45; meta_tables : &#160;A map of rule ids to metatables. &#160;These should themsevles</text>
<text text-anchor="middle" x="770" y="-8.2" font-family="Inconsolata" font-size="14.00" fill="#000000"> &#160;&#160;&#160;&#160;&#160;&#160;&#160;&#160;&#160;&#160;&#160;&#160;inherit from Node.</text>
</g>
<!-- block_16&#45;&gt;leaf_20 -->
<g id="edge20" class="edge">
<title>block_16&#45;&gt;leaf_20</title>
<path fill="none" stroke="#000000" stroke-dasharray="5,2" d="M996.1025,-247.1107C988.8774,-217.2096 970.7749,-157.5379 935,-121.0002 923.6051,-109.3623 910.1438,-99.235 895.9035,-90.4804"/>
<polygon fill="#000000" stroke="#000000" points="897.3404,-87.2648 886.9476,-85.2056 893.7879,-93.2964 897.3404,-87.2648"/>
</g>
<!-- leaf_21 -->
<g id="node22" class="node">
<title>leaf_21</title>
<polygon fill="none" stroke="#c0c0c0" points="1652.5,-61.8007 1069.5,-61.8007 1069.5,-23.1995 1652.5,-23.1995 1652.5,-61.8007"/>
<text text-anchor="middle" x="1361" y="-46.7001" font-family="Inconsolata" font-size="14.00" fill="#000000">The constructor handles building the metatable stack so that the table it returns</text>
<text text-anchor="middle" x="1361" y="-31.3001" font-family="Inconsolata" font-size="14.00" fill="#000000">works like a function over a string returning a Node. </text>
</g>
<!-- block_17&#45;&gt;leaf_21 -->
<g id="edge21" class="edge">
<title>block_17&#45;&gt;leaf_21</title>
<path fill="none" stroke="#000000" stroke-dasharray="5,2" d="M1133.888,-247.1013C1141.0992,-217.1867 1159.1824,-157.496 1195,-121.0002 1219.5871,-95.9474 1253.7335,-77.9234 1284.6673,-65.5165"/>
<polygon fill="#000000" stroke="#000000" points="1286.0885,-68.7195 1294.1502,-61.8448 1283.561,-62.1917 1286.0885,-68.7195"/>
</g>
<!-- leaf_22 -->
<g id="node23" class="node">
<title>leaf_22</title>
<polygon fill="none" stroke="#c0c0c0" points="2239.5,-69.8005 1670.5,-69.8005 1670.5,-15.1997 2239.5,-15.1997 2239.5,-69.8005"/>
<text text-anchor="middle" x="1955" y="-54.7001" font-family="Inconsolata" font-size="14.00" fill="#000000">Also automated: If a string isn&#39;t provided in =meta_tables=, the Node metatable</text>
<text text-anchor="middle" x="1955" y="-39.3001" font-family="Inconsolata" font-size="14.00" fill="#000000">is assigned. I also have some notes on the [[Node class][./node]].</text>
</g>
<!-- block_18&#45;&gt;leaf_22 -->
<g id="edge22" class="edge">
<title>block_18&#45;&gt;leaf_22</title>
<path fill="none" stroke="#000000" stroke-dasharray="5,2" d="M1262.2514,-247.1792C1267.1963,-215.6893 1282.1231,-151.5339 1324,-121.0002 1384.8561,-76.6281 1586.2726,-94.3895 1661,-85.0002 1694.0665,-80.8454 1729.1727,-76.0802 1763.1819,-71.2773"/>
<polygon fill="#000000" stroke="#000000" points="1763.8085,-74.7236 1773.2182,-69.8545 1762.8259,-67.7929 1763.8085,-74.7236"/>
</g>
<!-- leaf_27 -->
<g id="node28" class="node">
<title>leaf_27</title>
<polygon fill="none" stroke="#c0c0c0" points="2133,-293.3018 1935,-293.3018 1935,-237.4989 2133,-237.4989 2133,-293.3018"/>
<text text-anchor="middle" x="2034" y="-261.9004" font-family="Inconsolata" font-size="14.00" fill="#000000"> &#160;Covered [[here][./node]]</text>
</g>
<!-- block_26&#45;&gt;leaf_27 -->
<g id="edge27" class="edge">
<title>block_26&#45;&gt;leaf_27</title>
<path fill="none" stroke="#000000" stroke-dasharray="5,2" d="M1754.0097,-479.6211C1766.3745,-468.5827 1783.6339,-454.7182 1801,-445.8005 1852.0494,-419.5861 1877.7464,-442.3633 1925,-409.8005 1965.0715,-382.187 1996.564,-335.1067 2015.1844,-302.2369"/>
<polygon fill="#000000" stroke="#000000" points="2018.3113,-303.8149 2020.0914,-293.3707 2012.1867,-300.4252 2018.3113,-303.8149"/>
</g>
<!-- leaf_32 -->
<g id="node33" class="node">
<title>leaf_32</title>
<polygon fill="none" stroke="#c0c0c0" points="2699,-285.3024 2151,-285.3024 2151,-245.4983 2699,-245.4983 2699,-285.3024"/>
<text text-anchor="middle" x="2425" y="-253.9004" font-family="Inconsolata" font-size="14.00" fill="#000000"> &#160;This is just an array of Nodes offering a familiar =select= etc interface.</text>
</g>
<!-- block_30&#45;&gt;leaf_32 -->
<g id="edge32" class="edge">
<title>block_30&#45;&gt;leaf_32</title>
<path fill="none" stroke="#000000" stroke-dasharray="5,2" d="M2348.5129,-478.7351C2362.8198,-438.831 2397.0978,-343.224 2414.4924,-294.7078"/>
<polygon fill="#000000" stroke="#000000" points="2417.8543,-295.7012 2417.9347,-285.1067 2411.265,-293.3387 2417.8543,-295.7012"/>
</g>
<!-- leaf_33 -->
<g id="node34" class="node">
<title>leaf_33</title>
<polygon fill="none" stroke="#c0c0c0" points="3230.5,-283.4003 2717.5,-283.4003 2717.5,-247.4003 3230.5,-247.4003 3230.5,-283.4003"/>
<text text-anchor="middle" x="2974" y="-261.9004" font-family="Inconsolata" font-size="14.00" fill="#000000">These are the only classes which should exist once this is cleaned up. </text>
</g>
<!-- block_31&#45;&gt;leaf_33 -->
<g id="edge33" class="edge">
<title>block_31&#45;&gt;leaf_33</title>
<path fill="none" stroke="#000000" stroke-dasharray="5,2" d="M2489.2589,-479.6808C2501.5654,-468.3761 2519.0514,-454.1818 2537,-445.8005 2607.3716,-412.9397 2635.1074,-436.6085 2708,-409.8005 2795.2317,-377.7191 2888.907,-321.0344 2938.4777,-289.0605"/>
<polygon fill="#000000" stroke="#000000" points="2940.438,-291.9608 2946.9187,-283.5792 2936.6257,-286.09 2940.438,-291.9608"/>
</g>
</g>
</svg>