<?xml version="1.0" encoding="UTF-8" standalone="no"?>
<!DOCTYPE svg PUBLIC "-//W3C//DTD SVG 1.1//EN"
 "http://www.w3.org/Graphics/SVG/1.1/DTD/svg11.dtd">
<!-- Generated by graphviz version 2.40.1 (20161225.0304)
 -->
<!-- Title: hierarchy Pages: 1 -->
<svg width="3049pt" height="523pt"
 viewBox="0.00 0.00 3048.50 522.60" xmlns="http://www.w3.org/2000/svg" xmlns:xlink="http://www.w3.org/1999/xlink">
<g id="graph0" class="graph" transform="scale(1 1) rotate(0) translate(4 518.6003)">
<title>hierarchy</title>
<polygon fill="#ffffff" stroke="transparent" points="-4,4 -4,-518.6003 3044.5,-518.6003 3044.5,4 -4,4"/>
<!-- doc_0 -->
<g id="node1" class="node">
<title>doc_0</title>
<ellipse fill="none" stroke="#000000" cx="904" cy="-496.6003" rx="42.1216" ry="18"/>
<text text-anchor="middle" x="904" y="-492.4003" font-family="Helvetica,sans-Serif" font-size="14.00" fill="#000000">doc &#45; 40</text>
</g>
<!-- section_1 -->
<g id="node2" class="node">
<title>section_1</title>
<ellipse fill="none" stroke="#000000" cx="904" cy="-424.6003" rx="60.9826" ry="18"/>
<text text-anchor="middle" x="904" y="-420.4003" font-family="Helvetica,sans-Serif" font-size="14.00" fill="#000000">section: 1&#45;35</text>
</g>
<!-- doc_0&#45;&gt;section_1 -->
<g id="edge1" class="edge">
<title>doc_0&#45;&gt;section_1</title>
<path fill="none" stroke="#000000" stroke-dasharray="5,2" d="M904,-478.4316C904,-470.7312 904,-461.5746 904,-453.0169"/>
<polygon fill="#000000" stroke="#000000" points="907.5001,-453.0135 904,-443.0135 900.5001,-453.0136 907.5001,-453.0135"/>
</g>
<!-- header_2 -->
<g id="node3" class="node">
<title>header_2</title>
<ellipse fill="none" stroke="#000000" cx="172" cy="-352.6003" rx="137.8451" ry="18"/>
<text text-anchor="middle" x="172" y="-348.4003" font-family="Helvetica,sans-Serif" font-size="14.00" fill="#000000">1 : Pegylator and the Node class</text>
</g>
<!-- section_1&#45;&gt;header_2 -->
<g id="edge2" class="edge">
<title>section_1&#45;&gt;header_2</title>
<path fill="none" stroke="#000000" stroke-dasharray="5,2" d="M846.2556,-418.9205C727.1675,-407.2069 452.1172,-380.1528 292.5421,-364.4569"/>
<polygon fill="#000000" stroke="#000000" points="292.4956,-360.9355 282.201,-363.4397 291.8103,-367.9019 292.4956,-360.9355"/>
</g>
<!-- block_3 -->
<g id="node4" class="node">
<title>block_3</title>
<ellipse fill="none" stroke="#000000" cx="576" cy="-352.6003" rx="45.9804" ry="18"/>
<text text-anchor="middle" x="576" y="-348.4003" font-family="Helvetica,sans-Serif" font-size="14.00" fill="#000000">block 1&#45;7</text>
</g>
<!-- section_1&#45;&gt;block_3 -->
<g id="edge3" class="edge">
<title>section_1&#45;&gt;block_3</title>
<path fill="none" stroke="#000000" stroke-dasharray="5,2" d="M854.8951,-413.8212C793.274,-400.2946 688.1626,-377.2213 626.0847,-363.5945"/>
<polygon fill="#000000" stroke="#000000" points="626.6499,-360.1353 616.132,-361.4098 625.149,-366.9725 626.6499,-360.1353"/>
</g>
<!-- block_4 -->
<g id="node5" class="node">
<title>block_4</title>
<ellipse fill="none" stroke="#000000" cx="792" cy="-352.6003" rx="50.8172" ry="18"/>
<text text-anchor="middle" x="792" y="-348.4003" font-family="Helvetica,sans-Serif" font-size="14.00" fill="#000000">block 8&#45;35</text>
</g>
<!-- section_1&#45;&gt;block_4 -->
<g id="edge4" class="edge">
<title>section_1&#45;&gt;block_4</title>
<path fill="none" stroke="#000000" stroke-dasharray="5,2" d="M878.3049,-408.082C862.5761,-397.9706 842.2828,-384.9249 825.3265,-374.0244"/>
<polygon fill="#000000" stroke="#000000" points="827.1099,-371.0101 816.8054,-368.5466 823.3245,-376.8984 827.1099,-371.0101"/>
</g>
<!-- section_5 -->
<g id="node6" class="node">
<title>section_5</title>
<ellipse fill="none" stroke="#000000" cx="1050" cy="-352.6003" rx="65.8187" ry="18"/>
<text text-anchor="middle" x="1050" y="-348.4003" font-family="Helvetica,sans-Serif" font-size="14.00" fill="#000000">section: 10&#45;13</text>
</g>
<!-- section_1&#45;&gt;section_5 -->
<g id="edge5" class="edge">
<title>section_1&#45;&gt;section_5</title>
<path fill="none" stroke="#000000" stroke-dasharray="5,2" d="M935.3207,-409.1545C956.8457,-398.5394 985.6416,-384.3387 1008.9929,-372.823"/>
<polygon fill="#000000" stroke="#000000" points="1010.5538,-375.9557 1017.9745,-368.3937 1007.4577,-369.6776 1010.5538,-375.9557"/>
</g>
<!-- section_6 -->
<g id="node7" class="node">
<title>section_6</title>
<ellipse fill="none" stroke="#000000" cx="1628" cy="-352.6003" rx="65.8187" ry="18"/>
<text text-anchor="middle" x="1628" y="-348.4003" font-family="Helvetica,sans-Serif" font-size="14.00" fill="#000000">section: 31&#45;35</text>
</g>
<!-- section_1&#45;&gt;section_6 -->
<g id="edge6" class="edge">
<title>section_1&#45;&gt;section_6</title>
<path fill="none" stroke="#000000" stroke-dasharray="5,2" d="M961.7198,-418.8602C1092.7447,-405.8301 1412.3878,-374.0424 1556.0236,-359.7582"/>
<polygon fill="#000000" stroke="#000000" points="1556.4516,-363.2329 1566.0561,-358.7604 1555.7588,-356.2673 1556.4516,-363.2329"/>
</g>
<!-- section_7 -->
<g id="node8" class="node">
<title>section_7</title>
<ellipse fill="none" stroke="#000000" cx="2075" cy="-352.6003" rx="65.8187" ry="18"/>
<text text-anchor="middle" x="2075" y="-348.4003" font-family="Helvetica,sans-Serif" font-size="14.00" fill="#000000">section: 36&#45;40</text>
</g>
<!-- section_1&#45;&gt;section_7 -->
<g id="edge7" class="edge">
<title>section_1&#45;&gt;section_7</title>
<path fill="none" stroke="#000000" stroke-dasharray="5,2" d="M963.68,-420.9308C1159.8283,-408.8704 1784.3919,-370.4686 2000.5366,-357.1787"/>
<polygon fill="#000000" stroke="#000000" points="2001.0575,-360.6534 2010.8238,-356.5462 2000.6278,-353.6666 2001.0575,-360.6534"/>
</g>
<!-- leaf_8 -->
<g id="node9" class="node">
<title>leaf_8</title>
<polygon fill="none" stroke="#c0c0c0" points="54,-273.5002 0,-273.5002 0,-237.5002 54,-237.5002 54,-273.5002"/>
</g>
<!-- header_2&#45;&gt;leaf_8 -->
<g id="edge8" class="edge">
<title>header_2&#45;&gt;leaf_8</title>
<path fill="none" stroke="#000000" stroke-dasharray="5,2" d="M127.3887,-335.5376C106.633,-326.3806 82.3234,-313.8292 63,-298.6003 56.8933,-293.7876 51.0977,-287.7907 46.0119,-281.8145"/>
<polygon fill="#000000" stroke="#000000" points="48.5509,-279.3868 39.5543,-273.7911 43.0977,-283.7758 48.5509,-279.3868"/>
</g>
<!-- leaf_9 -->
<g id="node10" class="node">
<title>leaf_9</title>
<polygon fill="none" stroke="#c0c0c0" points="606,-298.7006 72,-298.7006 72,-212.2999 606,-212.2999 606,-298.7006"/>
<text text-anchor="middle" x="339" y="-251.4003" font-family="Inconsolata" font-size="14.00" fill="#000000"> &#160;Current grym has a nodule of undigested code in the =/peg= directory.</text>
<text text-anchor="middle" x="339" y="-236.0002" font-family="Inconsolata" font-size="14.00" fill="#000000">This is early 2015 era stuff, and is built somewhat blindly upon epnf as I</text>
<text text-anchor="middle" x="339" y="-220.6002" font-family="Inconsolata" font-size="14.00" fill="#000000">found it on the internet.</text>
</g>
<!-- block_3&#45;&gt;leaf_9 -->
<g id="edge9" class="edge">
<title>block_3&#45;&gt;leaf_9</title>
<path fill="none" stroke="#000000" stroke-dasharray="5,2" d="M544.0371,-339.5049C520.4769,-329.8522 486.8818,-316.0881 453.6862,-302.4877"/>
<polygon fill="#000000" stroke="#000000" points="454.9231,-299.2122 444.3426,-298.6596 452.2692,-305.6896 454.9231,-299.2122"/>
</g>
<!-- leaf_10 -->
<g id="node11" class="node">
<title>leaf_10</title>
<polygon fill="none" stroke="#c0c0c0" points="871.5,-273.5002 624.5,-273.5002 624.5,-237.5002 871.5,-237.5002 871.5,-273.5002"/>
<text text-anchor="middle" x="748" y="-252.0002" font-family="Inconsolata" font-size="14.00" fill="#000000">It needs a substantial refactor. </text>
</g>
<!-- block_4&#45;&gt;leaf_10 -->
<g id="edge10" class="edge">
<title>block_4&#45;&gt;leaf_10</title>
<path fill="none" stroke="#000000" stroke-dasharray="5,2" d="M783.9297,-334.7906C777.3347,-320.2366 767.9025,-299.4215 760.357,-282.77"/>
<polygon fill="#000000" stroke="#000000" points="763.4836,-281.1897 756.1681,-273.5258 757.1076,-284.0789 763.4836,-281.1897"/>
</g>
<!-- header_11 -->
<g id="node12" class="node">
<title>header_11</title>
<ellipse fill="none" stroke="#000000" cx="972" cy="-255.5002" rx="82.1803" ry="18"/>
<text text-anchor="middle" x="972" y="-251.3002" font-family="Helvetica,sans-Serif" font-size="14.00" fill="#000000">2 : Grammar class</text>
</g>
<!-- section_5&#45;&gt;header_11 -->
<g id="edge11" class="edge">
<title>section_5&#45;&gt;header_11</title>
<path fill="none" stroke="#000000" stroke-dasharray="5,2" d="M1035.6936,-334.7906C1023.6746,-319.8285 1006.3402,-298.2494 992.7887,-281.3795"/>
<polygon fill="#000000" stroke="#000000" points="995.4711,-279.13 986.4799,-273.5258 990.0138,-283.5139 995.4711,-279.13"/>
</g>
<!-- block_12 -->
<g id="node13" class="node">
<title>block_12</title>
<ellipse fill="none" stroke="#000000" cx="1128" cy="-255.5002" rx="55.6542" ry="18"/>
<text text-anchor="middle" x="1128" y="-251.3002" font-family="Helvetica,sans-Serif" font-size="14.00" fill="#000000">block 10&#45;13</text>
</g>
<!-- section_5&#45;&gt;block_12 -->
<g id="edge12" class="edge">
<title>section_5&#45;&gt;block_12</title>
<path fill="none" stroke="#000000" stroke-dasharray="5,2" d="M1064.3064,-334.7906C1076.401,-319.7344 1093.8781,-297.9777 1107.4666,-281.0617"/>
<polygon fill="#000000" stroke="#000000" points="1110.2503,-283.1851 1113.7843,-273.197 1104.793,-278.8012 1110.2503,-283.1851"/>
</g>
<!-- section_13 -->
<g id="node14" class="node">
<title>section_13</title>
<ellipse fill="none" stroke="#000000" cx="1267" cy="-255.5002" rx="65.8187" ry="18"/>
<text text-anchor="middle" x="1267" y="-251.3002" font-family="Helvetica,sans-Serif" font-size="14.00" fill="#000000">section: 14&#45;30</text>
</g>
<!-- section_5&#45;&gt;section_13 -->
<g id="edge13" class="edge">
<title>section_5&#45;&gt;section_13</title>
<path fill="none" stroke="#000000" stroke-dasharray="5,2" d="M1092.3759,-338.6809C1121.2443,-328.6965 1160.0525,-314.2821 1193,-298.6003 1206.051,-292.3884 1219.8617,-284.6788 1231.9728,-277.5049"/>
<polygon fill="#000000" stroke="#000000" points="1234.0976,-280.3112 1240.8622,-272.157 1230.4891,-274.313 1234.0976,-280.3112"/>
</g>
<!-- header_26 -->
<g id="node27" class="node">
<title>header_26</title>
<ellipse fill="none" stroke="#000000" cx="1628" cy="-255.5002" rx="66.2859" ry="18"/>
<text text-anchor="middle" x="1628" y="-251.3002" font-family="Helvetica,sans-Serif" font-size="14.00" fill="#000000">2 : Node class</text>
</g>
<!-- section_6&#45;&gt;header_26 -->
<g id="edge26" class="edge">
<title>section_6&#45;&gt;header_26</title>
<path fill="none" stroke="#000000" stroke-dasharray="5,2" d="M1628,-334.3365C1628,-320.0959 1628,-300.0672 1628,-283.7614"/>
<polygon fill="#000000" stroke="#000000" points="1631.5001,-283.6821 1628,-273.6821 1624.5001,-283.6821 1631.5001,-283.6821"/>
</g>
<!-- block_27 -->
<g id="node28" class="node">
<title>block_27</title>
<ellipse fill="none" stroke="#000000" cx="1770" cy="-255.5002" rx="55.6542" ry="18"/>
<text text-anchor="middle" x="1770" y="-251.3002" font-family="Helvetica,sans-Serif" font-size="14.00" fill="#000000">block 31&#45;35</text>
</g>
<!-- section_6&#45;&gt;block_27 -->
<g id="edge27" class="edge">
<title>section_6&#45;&gt;block_27</title>
<path fill="none" stroke="#000000" stroke-dasharray="5,2" d="M1652.7345,-335.6867C1676.2934,-319.5771 1711.8896,-295.2363 1737.6823,-277.5991"/>
<polygon fill="#000000" stroke="#000000" points="1739.743,-280.4301 1746.0221,-271.8964 1735.7918,-274.6519 1739.743,-280.4301"/>
</g>
<!-- header_30 -->
<g id="node31" class="node">
<title>header_30</title>
<ellipse fill="none" stroke="#000000" cx="1960" cy="-255.5002" rx="70.1273" ry="18"/>
<text text-anchor="middle" x="1960" y="-251.3002" font-family="Helvetica,sans-Serif" font-size="14.00" fill="#000000">2 : Forest class</text>
</g>
<!-- section_7&#45;&gt;header_30 -->
<g id="edge30" class="edge">
<title>section_7&#45;&gt;header_30</title>
<path fill="none" stroke="#000000" stroke-dasharray="5,2" d="M2054.705,-335.4643C2036.2615,-319.8915 2008.8681,-296.7619 1988.2808,-279.379"/>
<polygon fill="#000000" stroke="#000000" points="1990.3776,-276.5687 1980.4789,-272.7916 1985.8616,-281.9172 1990.3776,-276.5687"/>
</g>
<!-- block_31 -->
<g id="node32" class="node">
<title>block_31</title>
<ellipse fill="none" stroke="#000000" cx="2191" cy="-255.5002" rx="55.6542" ry="18"/>
<text text-anchor="middle" x="2191" y="-251.3002" font-family="Helvetica,sans-Serif" font-size="14.00" fill="#000000">block 36&#45;39</text>
</g>
<!-- section_7&#45;&gt;block_31 -->
<g id="edge31" class="edge">
<title>section_7&#45;&gt;block_31</title>
<path fill="none" stroke="#000000" stroke-dasharray="5,2" d="M2095.4714,-335.4643C2114.1902,-319.7953 2142.0484,-296.4761 2162.8571,-279.0578"/>
<polygon fill="#000000" stroke="#000000" points="2165.3116,-281.5676 2170.7332,-272.465 2160.8185,-276.1999 2165.3116,-281.5676"/>
</g>
<!-- block_32 -->
<g id="node33" class="node">
<title>block_32</title>
<ellipse fill="none" stroke="#000000" cx="2574" cy="-255.5002" rx="55.6542" ry="18"/>
<text text-anchor="middle" x="2574" y="-251.3002" font-family="Helvetica,sans-Serif" font-size="14.00" fill="#000000">block 40&#45;40</text>
</g>
<!-- section_7&#45;&gt;block_32 -->
<g id="edge32" class="edge">
<title>section_7&#45;&gt;block_32</title>
<path fill="none" stroke="#000000" stroke-dasharray="5,2" d="M2128.8759,-342.1166C2223.4363,-323.7162 2418.4637,-285.7659 2515.9169,-266.8026"/>
<polygon fill="#000000" stroke="#000000" points="2516.7406,-270.208 2525.8879,-264.8623 2515.4034,-263.3369 2516.7406,-270.208"/>
</g>
<!-- leaf_14 -->
<g id="node15" class="node">
<title>leaf_14</title>
<polygon fill="none" stroke="#c0c0c0" points="457,-166.7002 403,-166.7002 403,-130.7002 457,-130.7002 457,-166.7002"/>
</g>
<!-- header_11&#45;&gt;leaf_14 -->
<g id="edge14" class="edge">
<title>header_11&#45;&gt;leaf_14</title>
<path fill="none" stroke="#000000" stroke-dasharray="5,2" d="M942.7631,-238.5609C925.1632,-229.2008 901.9741,-218.3029 880,-212.4002 701.629,-164.486 638.1097,-243.4096 466,-176.4002 463.2442,-175.3273 460.5234,-173.9743 457.8863,-172.4463"/>
<polygon fill="#000000" stroke="#000000" points="459.5759,-169.3662 449.3142,-166.73 455.6922,-175.1901 459.5759,-169.3662"/>
</g>
<!-- leaf_15 -->
<g id="node16" class="node">
<title>leaf_15</title>
<polygon fill="none" stroke="#c0c0c0" points="624.5,-168.6023 475.5,-168.6023 475.5,-128.7981 624.5,-128.7981 624.5,-168.6023"/>
<text text-anchor="middle" x="550" y="-137.2002" font-family="Inconsolata" font-size="14.00" fill="#000000">This has the verbs:</text>
</g>
<!-- block_12&#45;&gt;leaf_15 -->
<g id="edge15" class="edge">
<title>block_12&#45;&gt;leaf_15</title>
<path fill="none" stroke="#000000" stroke-dasharray="5,2" d="M1108.0622,-238.4368C1095.8745,-229.034 1079.4985,-218.1348 1063,-212.4002 881.851,-149.4359 820.8487,-215.0307 633,-176.4002 626.4018,-175.0433 619.5991,-173.3254 612.8607,-171.4122"/>
<polygon fill="#000000" stroke="#000000" points="613.6488,-167.9949 603.0655,-168.4887 611.6468,-174.7025 613.6488,-167.9949"/>
</g>
<!-- header_16 -->
<g id="node17" class="node">
<title>header_16</title>
<ellipse fill="none" stroke="#000000" cx="853" cy="-148.7002" rx="210.7615" ry="18"/>
<text text-anchor="middle" x="853" y="-144.5002" font-family="Helvetica,sans-Serif" font-size="14.00" fill="#000000">3 : Grammar / new(Grammar, g_func, meta_tables)</text>
</g>
<!-- section_13&#45;&gt;header_16 -->
<g id="edge16" class="edge">
<title>section_13&#45;&gt;header_16</title>
<path fill="none" stroke="#000000" stroke-dasharray="5,2" d="M1243.0464,-238.7148C1229.0461,-229.6451 1210.6958,-218.9864 1193,-212.4002 1130.2217,-189.0348 1057.6038,-173.9375 995.6384,-164.3391"/>
<polygon fill="#000000" stroke="#000000" points="995.8036,-160.8242 985.3922,-162.7867 994.755,-167.7452 995.8036,-160.8242"/>
</g>
<!-- block_17 -->
<g id="node18" class="node">
<title>block_17</title>
<ellipse fill="none" stroke="#000000" cx="1137" cy="-148.7002" rx="55.6542" ry="18"/>
<text text-anchor="middle" x="1137" y="-144.5002" font-family="Helvetica,sans-Serif" font-size="14.00" fill="#000000">block 14&#45;17</text>
</g>
<!-- section_13&#45;&gt;block_17 -->
<g id="edge17" class="edge">
<title>section_13&#45;&gt;block_17</title>
<path fill="none" stroke="#000000" stroke-dasharray="5,2" d="M1246.1133,-238.341C1224.1887,-220.3291 1189.5861,-191.9017 1165.2374,-171.8983"/>
<polygon fill="#000000" stroke="#000000" points="1167.355,-169.1083 1157.4063,-165.4647 1162.9114,-174.5171 1167.355,-169.1083"/>
</g>
<!-- block_18 -->
<g id="node19" class="node">
<title>block_18</title>
<ellipse fill="none" stroke="#000000" cx="1267" cy="-148.7002" rx="55.6542" ry="18"/>
<text text-anchor="middle" x="1267" y="-144.5002" font-family="Helvetica,sans-Serif" font-size="14.00" fill="#000000">block 18&#45;23</text>
</g>
<!-- section_13&#45;&gt;block_18 -->
<g id="edge18" class="edge">
<title>section_13&#45;&gt;block_18</title>
<path fill="none" stroke="#000000" stroke-dasharray="5,2" d="M1267,-237.3831C1267,-220.8892 1267,-196.2666 1267,-177.1485"/>
<polygon fill="#000000" stroke="#000000" points="1270.5001,-176.9062 1267,-166.9062 1263.5001,-176.9063 1270.5001,-176.9062"/>
</g>
<!-- block_19 -->
<g id="node20" class="node">
<title>block_19</title>
<ellipse fill="none" stroke="#000000" cx="1397" cy="-148.7002" rx="55.6542" ry="18"/>
<text text-anchor="middle" x="1397" y="-144.5002" font-family="Helvetica,sans-Serif" font-size="14.00" fill="#000000">block 24&#45;26</text>
</g>
<!-- section_13&#45;&gt;block_19 -->
<g id="edge19" class="edge">
<title>section_13&#45;&gt;block_19</title>
<path fill="none" stroke="#000000" stroke-dasharray="5,2" d="M1287.8867,-238.341C1309.8113,-220.3291 1344.4139,-191.9017 1368.7626,-171.8983"/>
<polygon fill="#000000" stroke="#000000" points="1371.0886,-174.5171 1376.5937,-165.4647 1366.645,-169.1083 1371.0886,-174.5171"/>
</g>
<!-- block_20 -->
<g id="node21" class="node">
<title>block_20</title>
<ellipse fill="none" stroke="#000000" cx="1527" cy="-148.7002" rx="55.6542" ry="18"/>
<text text-anchor="middle" x="1527" y="-144.5002" font-family="Helvetica,sans-Serif" font-size="14.00" fill="#000000">block 27&#45;30</text>
</g>
<!-- section_13&#45;&gt;block_20 -->
<g id="edge20" class="edge">
<title>section_13&#45;&gt;block_20</title>
<path fill="none" stroke="#000000" stroke-dasharray="5,2" d="M1304.4623,-240.5298C1343.7804,-224.765 1407.3529,-199.1258 1462,-176.4002 1469.0082,-173.4858 1476.4258,-170.362 1483.6456,-167.3003"/>
<polygon fill="#000000" stroke="#000000" points="1485.4787,-170.3241 1493.311,-163.1892 1482.7389,-163.8825 1485.4787,-170.3241"/>
</g>
<!-- leaf_21 -->
<g id="node22" class="node">
<title>leaf_21</title>
<polygon fill="none" stroke="#c0c0c0" points="486,-60.5001 432,-60.5001 432,-24.5001 486,-24.5001 486,-60.5001"/>
</g>
<!-- header_16&#45;&gt;leaf_21 -->
<g id="edge21" class="edge">
<title>header_16&#45;&gt;leaf_21</title>
<path fill="none" stroke="#000000" stroke-dasharray="5,2" d="M744.8175,-133.2401C647.5028,-118.7175 516.5802,-97.415 495,-85.0002 488.0851,-81.0221 481.8882,-75.1941 476.6648,-69.1218"/>
<polygon fill="#000000" stroke="#000000" points="479.0949,-66.5488 470.1693,-60.8406 473.5871,-70.869 479.0949,-66.5488"/>
</g>
<!-- leaf_22 -->
<g id="node23" class="node">
<title>leaf_22</title>
<polygon fill="none" stroke="#c0c0c0" points="968,-62.4022 504,-62.4022 504,-22.598 968,-22.598 968,-62.4022"/>
<text text-anchor="middle" x="736" y="-31.0001" font-family="Inconsolata" font-size="14.00" fill="#000000">This takes a function, building and returning a grammar over it.</text>
</g>
<!-- block_17&#45;&gt;leaf_22 -->
<g id="edge22" class="edge">
<title>block_17&#45;&gt;leaf_22</title>
<path fill="none" stroke="#000000" stroke-dasharray="5,2" d="M1105.5338,-133.7451C1095.3075,-129.2475 1083.8078,-124.5657 1073,-121.0002 1001.1011,-97.2803 918.3177,-77.8896 852.7926,-64.3144"/>
<polygon fill="#000000" stroke="#000000" points="853.3415,-60.8541 842.8417,-62.2699 851.9327,-67.7109 853.3415,-60.8541"/>
</g>
<!-- leaf_23 -->
<g id="node24" class="node">
<title>leaf_23</title>
<polygon fill="none" stroke="#c0c0c0" points="1548,-85.0002 986,-85.0002 986,.0001 1548,.0001 1548,-85.0002"/>
<text text-anchor="middle" x="1267" y="-69.8002" font-family="Inconsolata" font-size="14.00" fill="#000000"> &#160;&#45; #params</text>
<text text-anchor="middle" x="1267" y="-54.4001" font-family="Inconsolata" font-size="14.00" fill="#000000"> &#160;&#160;&#160;&#45; Grammar : &#160;The __call object</text>
<text text-anchor="middle" x="1267" y="-39.0001" font-family="Inconsolata" font-size="14.00" fill="#000000"> &#160;&#160;&#160;&#45; g_func &#160;: &#160;The function(_ENV) grammar</text>
<text text-anchor="middle" x="1267" y="-23.6001" font-family="Inconsolata" font-size="14.00" fill="#000000"> &#160;&#160;&#160;&#45; meta_tables : &#160;A map of rule ids to metatables. &#160;These should themsevles</text>
<text text-anchor="middle" x="1267" y="-8.2" font-family="Inconsolata" font-size="14.00" fill="#000000"> &#160;&#160;&#160;&#160;&#160;&#160;&#160;&#160;&#160;&#160;&#160;&#160;inherit from Node.</text>
</g>
<!-- block_18&#45;&gt;leaf_23 -->
<g id="edge23" class="edge">
<title>block_18&#45;&gt;leaf_23</title>
<path fill="none" stroke="#000000" stroke-dasharray="5,2" d="M1267,-130.6848C1267,-120.8787 1267,-108.1833 1267,-95.4957"/>
<polygon fill="#000000" stroke="#000000" points="1270.5001,-95.3776 1267,-85.3777 1263.5001,-95.3777 1270.5001,-95.3776"/>
</g>
<!-- leaf_24 -->
<g id="node25" class="node">
<title>leaf_24</title>
<polygon fill="none" stroke="#c0c0c0" points="2149.5,-61.8007 1566.5,-61.8007 1566.5,-23.1995 2149.5,-23.1995 2149.5,-61.8007"/>
<text text-anchor="middle" x="1858" y="-46.7001" font-family="Inconsolata" font-size="14.00" fill="#000000">The constructor handles building the metatable stack so that the table it returns</text>
<text text-anchor="middle" x="1858" y="-31.3001" font-family="Inconsolata" font-size="14.00" fill="#000000">works like a function over a string returning a Node. </text>
</g>
<!-- block_19&#45;&gt;leaf_24 -->
<g id="edge24" class="edge">
<title>block_19&#45;&gt;leaf_24</title>
<path fill="none" stroke="#000000" stroke-dasharray="5,2" d="M1428.577,-133.6895C1439.0426,-129.1362 1450.8646,-124.4358 1462,-121.0002 1544.2015,-95.6378 1638.6095,-76.5504 1714.6233,-63.551"/>
<polygon fill="#000000" stroke="#000000" points="1715.4724,-66.9572 1724.7479,-61.8369 1714.3039,-60.0554 1715.4724,-66.9572"/>
</g>
<!-- leaf_25 -->
<g id="node26" class="node">
<title>leaf_25</title>
<polygon fill="none" stroke="#c0c0c0" points="2736.5,-69.8005 2167.5,-69.8005 2167.5,-15.1997 2736.5,-15.1997 2736.5,-69.8005"/>
<text text-anchor="middle" x="2452" y="-54.7001" font-family="Inconsolata" font-size="14.00" fill="#000000">Also automated: If a string isn&#39;t provided in =meta_tables=, the Node metatable</text>
<text text-anchor="middle" x="2452" y="-39.3001" font-family="Inconsolata" font-size="14.00" fill="#000000">is assigned. I also have some notes on the [[Node class][./node]].</text>
</g>
<!-- block_20&#45;&gt;leaf_25 -->
<g id="edge25" class="edge">
<title>block_20&#45;&gt;leaf_25</title>
<path fill="none" stroke="#000000" stroke-dasharray="5,2" d="M1557.0242,-133.3902C1567.7869,-128.5847 1580.1846,-123.8063 1592,-121.0002 1837.242,-62.7543 1907.2861,-111.0525 2158,-85.0002 2193.9864,-81.2607 2232.3281,-76.3791 2269.0318,-71.2622"/>
<polygon fill="#000000" stroke="#000000" points="2269.922,-74.6715 2279.3374,-69.8135 2268.9475,-67.7397 2269.922,-74.6715"/>
</g>
<!-- leaf_28 -->
<g id="node29" class="node">
<title>leaf_28</title>
<polygon fill="none" stroke="#c0c0c0" points="1655,-166.7002 1601,-166.7002 1601,-130.7002 1655,-130.7002 1655,-166.7002"/>
</g>
<!-- header_26&#45;&gt;leaf_28 -->
<g id="edge28" class="edge">
<title>header_26&#45;&gt;leaf_28</title>
<path fill="none" stroke="#000000" stroke-dasharray="5,2" d="M1628,-237.3831C1628,-220.8892 1628,-196.2666 1628,-177.1485"/>
<polygon fill="#000000" stroke="#000000" points="1631.5001,-176.9062 1628,-166.9062 1624.5001,-176.9063 1631.5001,-176.9062"/>
</g>
<!-- leaf_29 -->
<g id="node30" class="node">
<title>leaf_29</title>
<polygon fill="none" stroke="#c0c0c0" points="1871,-176.6017 1673,-176.6017 1673,-120.7987 1871,-120.7987 1871,-176.6017"/>
<text text-anchor="middle" x="1772" y="-145.2002" font-family="Inconsolata" font-size="14.00" fill="#000000"> &#160;Covered [[here][./node]]</text>
</g>
<!-- block_27&#45;&gt;leaf_29 -->
<g id="edge29" class="edge">
<title>block_27&#45;&gt;leaf_29</title>
<path fill="none" stroke="#000000" stroke-dasharray="5,2" d="M1770.3393,-237.3831C1770.5977,-223.5835 1770.9627,-204.0941 1771.2847,-186.8988"/>
<polygon fill="#000000" stroke="#000000" points="1774.7903,-186.624 1771.4783,-176.5602 1767.7916,-186.4928 1774.7903,-186.624"/>
</g>
<!-- leaf_33 -->
<g id="node34" class="node">
<title>leaf_33</title>
<polygon fill="none" stroke="#c0c0c0" points="1943,-166.7002 1889,-166.7002 1889,-130.7002 1943,-130.7002 1943,-166.7002"/>
</g>
<!-- header_30&#45;&gt;leaf_33 -->
<g id="edge33" class="edge">
<title>header_30&#45;&gt;leaf_33</title>
<path fill="none" stroke="#000000" stroke-dasharray="5,2" d="M1952.536,-237.3831C1945.646,-220.659 1935.3129,-195.5779 1927.3919,-176.3515"/>
<polygon fill="#000000" stroke="#000000" points="1930.546,-174.819 1923.5006,-166.9062 1924.0738,-177.4855 1930.546,-174.819"/>
</g>
<!-- leaf_34 -->
<g id="node35" class="node">
<title>leaf_34</title>
<polygon fill="none" stroke="#c0c0c0" points="2509,-168.6023 1961,-168.6023 1961,-128.7981 2509,-128.7981 2509,-168.6023"/>
<text text-anchor="middle" x="2235" y="-137.2002" font-family="Inconsolata" font-size="14.00" fill="#000000"> &#160;This is just an array of Nodes offering a familiar =select= etc interface.</text>
</g>
<!-- block_31&#45;&gt;leaf_34 -->
<g id="edge34" class="edge">
<title>block_31&#45;&gt;leaf_34</title>
<path fill="none" stroke="#000000" stroke-dasharray="5,2" d="M2198.464,-237.3831C2205.1453,-221.1658 2215.064,-197.0903 2222.8815,-178.1151"/>
<polygon fill="#000000" stroke="#000000" points="2226.1766,-179.3051 2226.7498,-168.7258 2219.7043,-176.6386 2226.1766,-179.3051"/>
</g>
<!-- leaf_35 -->
<g id="node36" class="node">
<title>leaf_35</title>
<polygon fill="none" stroke="#c0c0c0" points="3040.5,-166.7002 2527.5,-166.7002 2527.5,-130.7002 3040.5,-130.7002 3040.5,-166.7002"/>
<text text-anchor="middle" x="2784" y="-145.2002" font-family="Inconsolata" font-size="14.00" fill="#000000">These are the only classes which should exist once this is cleaned up. </text>
</g>
<!-- block_32&#45;&gt;leaf_35 -->
<g id="edge35" class="edge">
<title>block_32&#45;&gt;leaf_35</title>
<path fill="none" stroke="#000000" stroke-dasharray="5,2" d="M2604.0879,-240.1984C2639.4405,-222.2191 2698.4337,-192.2168 2739.1775,-171.4956"/>
<polygon fill="#000000" stroke="#000000" points="2741.0197,-174.4854 2748.3466,-166.8325 2737.8465,-168.2459 2741.0197,-174.4854"/>
</g>
</g>
</svg>