<?xml version="1.0" encoding="UTF-8" standalone="no"?>
<!DOCTYPE svg PUBLIC "-//W3C//DTD SVG 1.1//EN"
 "http://www.w3.org/Graphics/SVG/1.1/DTD/svg11.dtd">
<!-- Generated by graphviz version 2.40.1 (20161225.0304)
 -->
<!-- Title: hierarchy Pages: 1 -->
<svg width="3126pt" height="643pt"
 viewBox="0.00 0.00 3125.50 642.60" xmlns="http://www.w3.org/2000/svg" xmlns:xlink="http://www.w3.org/1999/xlink">
<g id="graph0" class="graph" transform="scale(1 1) rotate(0) translate(4 638.6003)">
<title>hierarchy</title>
<polygon fill="#ffffff" stroke="transparent" points="-4,4 -4,-638.6003 3121.5,-638.6003 3121.5,4 -4,4"/>
<!-- doc_0 -->
<g id="node1" class="node">
<title>doc_0</title>
<ellipse fill="none" stroke="#000000" cx="899" cy="-616.6003" rx="42.1216" ry="18"/>
<text text-anchor="middle" x="899" y="-612.4003" font-family="Helvetica,sans-Serif" font-size="14.00" fill="#000000">doc &#45; 40</text>
</g>
<!-- section_1 -->
<g id="node2" class="node">
<title>section_1</title>
<ellipse fill="none" stroke="#000000" cx="899" cy="-544.6003" rx="60.9826" ry="18"/>
<text text-anchor="middle" x="899" y="-540.4003" font-family="Helvetica,sans-Serif" font-size="14.00" fill="#000000">section: 1&#45;35</text>
</g>
<!-- doc_0&#45;&gt;section_1 -->
<g id="edge1" class="edge">
<title>doc_0&#45;&gt;section_1</title>
<path fill="none" stroke="#000000" stroke-dasharray="5,2" d="M899,-598.4316C899,-590.7312 899,-581.5746 899,-573.0169"/>
<polygon fill="#000000" stroke="#000000" points="902.5001,-573.0135 899,-563.0135 895.5001,-573.0136 902.5001,-573.0135"/>
</g>
<!-- header_2 -->
<g id="node3" class="node">
<title>header_2</title>
<ellipse fill="none" stroke="#000000" cx="532" cy="-472.6003" rx="137.8451" ry="18"/>
<text text-anchor="middle" x="532" y="-468.4003" font-family="Helvetica,sans-Serif" font-size="14.00" fill="#000000">1 : Pegylator and the Node class</text>
</g>
<!-- section_1&#45;&gt;header_2 -->
<g id="edge2" class="edge">
<title>section_1&#45;&gt;header_2</title>
<path fill="none" stroke="#000000" stroke-dasharray="5,2" d="M847.9702,-534.589C788.622,-522.9457 689.6884,-503.5364 618.3201,-489.535"/>
<polygon fill="#000000" stroke="#000000" points="618.9265,-486.0873 608.4397,-487.5966 617.5788,-492.9564 618.9265,-486.0873"/>
</g>
<!-- prose_3 -->
<g id="node4" class="node">
<title>prose_3</title>
<ellipse fill="none" stroke="#000000" cx="746" cy="-472.6003" rx="32.4585" ry="18"/>
<text text-anchor="middle" x="746" y="-468.4003" font-family="Helvetica,sans-Serif" font-size="14.00" fill="#000000">prose</text>
</g>
<!-- section_1&#45;&gt;prose_3 -->
<g id="edge3" class="edge">
<title>section_1&#45;&gt;prose_3</title>
<path fill="none" stroke="#000000" stroke-dasharray="5,2" d="M866.5526,-529.3309C841.0842,-517.3458 805.7339,-500.7104 779.8995,-488.553"/>
<polygon fill="#000000" stroke="#000000" points="781.3865,-485.3846 770.848,-484.2934 778.4059,-491.7183 781.3865,-485.3846"/>
</g>
<!-- prose_4 -->
<g id="node5" class="node">
<title>prose_4</title>
<ellipse fill="none" stroke="#000000" cx="841" cy="-472.6003" rx="32.4585" ry="18"/>
<text text-anchor="middle" x="841" y="-468.4003" font-family="Helvetica,sans-Serif" font-size="14.00" fill="#000000">prose</text>
</g>
<!-- section_1&#45;&gt;prose_4 -->
<g id="edge4" class="edge">
<title>section_1&#45;&gt;prose_4</title>
<path fill="none" stroke="#000000" stroke-dasharray="5,2" d="M884.6629,-526.8025C877.4296,-517.8232 868.5447,-506.7937 860.6822,-497.0334"/>
<polygon fill="#000000" stroke="#000000" points="863.3759,-494.798 854.3769,-489.2061 857.9246,-499.1893 863.3759,-494.798"/>
</g>
<!-- section_5 -->
<g id="node6" class="node">
<title>section_5</title>
<ellipse fill="none" stroke="#000000" cx="963" cy="-472.6003" rx="65.8187" ry="18"/>
<text text-anchor="middle" x="963" y="-468.4003" font-family="Helvetica,sans-Serif" font-size="14.00" fill="#000000">section: 10&#45;13</text>
</g>
<!-- section_1&#45;&gt;section_5 -->
<g id="edge5" class="edge">
<title>section_1&#45;&gt;section_5</title>
<path fill="none" stroke="#000000" stroke-dasharray="5,2" d="M914.4926,-527.1711C922.3741,-518.3044 932.0953,-507.3681 940.7606,-497.6196"/>
<polygon fill="#000000" stroke="#000000" points="943.4005,-499.9179 947.4282,-490.1185 938.1686,-495.2674 943.4005,-499.9179"/>
</g>
<!-- section_6 -->
<g id="node7" class="node">
<title>section_6</title>
<ellipse fill="none" stroke="#000000" cx="1813" cy="-472.6003" rx="65.8187" ry="18"/>
<text text-anchor="middle" x="1813" y="-468.4003" font-family="Helvetica,sans-Serif" font-size="14.00" fill="#000000">section: 31&#45;35</text>
</g>
<!-- section_1&#45;&gt;section_6 -->
<g id="edge6" class="edge">
<title>section_1&#45;&gt;section_6</title>
<path fill="none" stroke="#000000" stroke-dasharray="5,2" d="M957.9151,-539.9593C1118.4575,-527.3126 1563.3808,-492.2639 1739.6811,-478.376"/>
<polygon fill="#000000" stroke="#000000" points="1740.1986,-481.8461 1749.8928,-477.5715 1739.6488,-474.8677 1740.1986,-481.8461"/>
</g>
<!-- section_7 -->
<g id="node8" class="node">
<title>section_7</title>
<ellipse fill="none" stroke="#000000" cx="2252" cy="-472.6003" rx="65.8187" ry="18"/>
<text text-anchor="middle" x="2252" y="-468.4003" font-family="Helvetica,sans-Serif" font-size="14.00" fill="#000000">section: 36&#45;40</text>
</g>
<!-- section_1&#45;&gt;section_7 -->
<g id="edge7" class="edge">
<title>section_1&#45;&gt;section_7</title>
<path fill="none" stroke="#000000" stroke-dasharray="5,2" d="M958.8825,-541.4136C1177.9473,-529.7561 1935.5529,-489.44 2177.2663,-476.5772"/>
<polygon fill="#000000" stroke="#000000" points="2177.5597,-480.0667 2187.3595,-476.0401 2177.1876,-473.0766 2177.5597,-480.0667"/>
</g>
<!-- leaf_8 -->
<g id="node9" class="node">
<title>leaf_8</title>
<polygon fill="none" stroke="#c0c0c0" points="638,-418.6003 412,-418.6003 412,-382.6003 638,-382.6003 638,-418.6003"/>
<text text-anchor="middle" x="525" y="-397.1003" font-family="Inconsolata" font-size="14.00" fill="#000000">* Pegylator and the Node class</text>
</g>
<!-- header_2&#45;&gt;leaf_8 -->
<g id="edge8" class="edge">
<title>header_2&#45;&gt;leaf_8</title>
<path fill="none" stroke="#000000" stroke-dasharray="5,2" d="M530.2336,-454.4316C529.485,-446.7312 528.5947,-437.5746 527.7627,-429.0169"/>
<polygon fill="#000000" stroke="#000000" points="531.2415,-428.6279 526.7902,-419.0135 524.2744,-429.3053 531.2415,-428.6279"/>
</g>
<!-- raw_9 -->
<g id="node10" class="node">
<title>raw_9</title>
<ellipse fill="none" stroke="#000000" cx="683" cy="-400.6003" rx="27" ry="18"/>
<text text-anchor="middle" x="683" y="-396.4003" font-family="Helvetica,sans-Serif" font-size="14.00" fill="#000000">raw</text>
</g>
<!-- prose_3&#45;&gt;raw_9 -->
<g id="edge9" class="edge">
<title>prose_3&#45;&gt;raw_9</title>
<path fill="none" stroke="#000000" stroke-dasharray="5,2" d="M731.7043,-456.2624C723.3726,-446.7403 712.7244,-434.571 703.5104,-424.0408"/>
<polygon fill="#000000" stroke="#000000" points="706.0252,-421.5997 696.8061,-416.3787 700.7572,-426.2093 706.0252,-421.5997"/>
</g>
<!-- raw_11 -->
<g id="node12" class="node">
<title>raw_11</title>
<ellipse fill="none" stroke="#000000" cx="755" cy="-400.6003" rx="27" ry="18"/>
<text text-anchor="middle" x="755" y="-396.4003" font-family="Helvetica,sans-Serif" font-size="14.00" fill="#000000">raw</text>
</g>
<!-- prose_4&#45;&gt;raw_11 -->
<g id="edge11" class="edge">
<title>prose_4&#45;&gt;raw_11</title>
<path fill="none" stroke="#000000" stroke-dasharray="5,2" d="M822.7616,-457.3309C810.2318,-446.8409 793.4469,-432.7884 779.7175,-421.294"/>
<polygon fill="#000000" stroke="#000000" points="781.9566,-418.6039 772.0422,-414.8682 777.463,-423.9712 781.9566,-418.6039"/>
</g>
<!-- header_13 -->
<g id="node14" class="node">
<title>header_13</title>
<ellipse fill="none" stroke="#000000" cx="882" cy="-400.6003" rx="82.1803" ry="18"/>
<text text-anchor="middle" x="882" y="-396.4003" font-family="Helvetica,sans-Serif" font-size="14.00" fill="#000000">2 : Grammar class</text>
</g>
<!-- section_5&#45;&gt;header_13 -->
<g id="edge13" class="edge">
<title>section_5&#45;&gt;header_13</title>
<path fill="none" stroke="#000000" stroke-dasharray="5,2" d="M943.3922,-455.1711C933.2196,-446.1288 920.6256,-434.9341 909.4969,-425.0419"/>
<polygon fill="#000000" stroke="#000000" points="911.5074,-422.1462 901.708,-418.1185 906.8569,-427.3781 911.5074,-422.1462"/>
</g>
<!-- prose_14 -->
<g id="node15" class="node">
<title>prose_14</title>
<ellipse fill="none" stroke="#000000" cx="1015" cy="-400.6003" rx="32.4585" ry="18"/>
<text text-anchor="middle" x="1015" y="-396.4003" font-family="Helvetica,sans-Serif" font-size="14.00" fill="#000000">prose</text>
</g>
<!-- section_5&#45;&gt;prose_14 -->
<g id="edge14" class="edge">
<title>section_5&#45;&gt;prose_14</title>
<path fill="none" stroke="#000000" stroke-dasharray="5,2" d="M975.8539,-454.8025C982.1172,-446.1304 989.7616,-435.5458 996.6274,-426.0392"/>
<polygon fill="#000000" stroke="#000000" points="999.6344,-427.8535 1002.652,-417.6975 993.9597,-423.7551 999.6344,-427.8535"/>
</g>
<!-- section_15 -->
<g id="node16" class="node">
<title>section_15</title>
<ellipse fill="none" stroke="#000000" cx="1549" cy="-400.6003" rx="65.8187" ry="18"/>
<text text-anchor="middle" x="1549" y="-396.4003" font-family="Helvetica,sans-Serif" font-size="14.00" fill="#000000">section: 14&#45;30</text>
</g>
<!-- section_5&#45;&gt;section_15 -->
<g id="edge15" class="edge">
<title>section_5&#45;&gt;section_15</title>
<path fill="none" stroke="#000000" stroke-dasharray="5,2" d="M1022.9584,-465.2334C1131.9736,-451.839 1362.112,-423.5626 1478.4703,-409.266"/>
<polygon fill="#000000" stroke="#000000" points="1479.1899,-412.704 1488.6884,-408.0106 1478.3362,-405.7563 1479.1899,-412.704"/>
</g>
<!-- header_33 -->
<g id="node34" class="node">
<title>header_33</title>
<ellipse fill="none" stroke="#000000" cx="1813" cy="-400.6003" rx="66.2859" ry="18"/>
<text text-anchor="middle" x="1813" y="-396.4003" font-family="Helvetica,sans-Serif" font-size="14.00" fill="#000000">2 : Node class</text>
</g>
<!-- section_6&#45;&gt;header_33 -->
<g id="edge33" class="edge">
<title>section_6&#45;&gt;header_33</title>
<path fill="none" stroke="#000000" stroke-dasharray="5,2" d="M1813,-454.4316C1813,-446.7312 1813,-437.5746 1813,-429.0169"/>
<polygon fill="#000000" stroke="#000000" points="1816.5001,-429.0135 1813,-419.0135 1809.5001,-429.0136 1816.5001,-429.0135"/>
</g>
<!-- prose_34 -->
<g id="node35" class="node">
<title>prose_34</title>
<ellipse fill="none" stroke="#000000" cx="1929" cy="-400.6003" rx="32.4585" ry="18"/>
<text text-anchor="middle" x="1929" y="-396.4003" font-family="Helvetica,sans-Serif" font-size="14.00" fill="#000000">prose</text>
</g>
<!-- section_6&#45;&gt;prose_34 -->
<g id="edge34" class="edge">
<title>section_6&#45;&gt;prose_34</title>
<path fill="none" stroke="#000000" stroke-dasharray="5,2" d="M1839.6127,-456.082C1857.2025,-445.1643 1880.3036,-430.8256 1898.6147,-419.4601"/>
<polygon fill="#000000" stroke="#000000" points="1900.5232,-422.395 1907.1738,-414.1476 1896.8316,-416.4475 1900.5232,-422.395"/>
</g>
<!-- header_38 -->
<g id="node39" class="node">
<title>header_38</title>
<ellipse fill="none" stroke="#000000" cx="2192" cy="-400.6003" rx="70.1273" ry="18"/>
<text text-anchor="middle" x="2192" y="-396.4003" font-family="Helvetica,sans-Serif" font-size="14.00" fill="#000000">2 : Forest class</text>
</g>
<!-- section_7&#45;&gt;header_38 -->
<g id="edge38" class="edge">
<title>section_7&#45;&gt;header_38</title>
<path fill="none" stroke="#000000" stroke-dasharray="5,2" d="M2237.1685,-454.8025C2230.029,-446.2351 2221.3341,-435.8012 2213.4866,-426.3842"/>
<polygon fill="#000000" stroke="#000000" points="2215.9594,-423.8844 2206.8688,-418.4428 2210.5819,-428.3657 2215.9594,-423.8844"/>
</g>
<!-- prose_39 -->
<g id="node40" class="node">
<title>prose_39</title>
<ellipse fill="none" stroke="#000000" cx="2312" cy="-400.6003" rx="32.4585" ry="18"/>
<text text-anchor="middle" x="2312" y="-396.4003" font-family="Helvetica,sans-Serif" font-size="14.00" fill="#000000">prose</text>
</g>
<!-- section_7&#45;&gt;prose_39 -->
<g id="edge39" class="edge">
<title>section_7&#45;&gt;prose_39</title>
<path fill="none" stroke="#000000" stroke-dasharray="5,2" d="M2266.8315,-454.8025C2274.3142,-445.8232 2283.5055,-434.7937 2291.6391,-425.0334"/>
<polygon fill="#000000" stroke="#000000" points="2294.4487,-427.129 2298.1618,-417.2061 2289.0711,-422.6477 2294.4487,-427.129"/>
</g>
<!-- prose_40 -->
<g id="node41" class="node">
<title>prose_40</title>
<ellipse fill="none" stroke="#000000" cx="2627" cy="-400.6003" rx="32.4585" ry="18"/>
<text text-anchor="middle" x="2627" y="-396.4003" font-family="Helvetica,sans-Serif" font-size="14.00" fill="#000000">prose</text>
</g>
<!-- section_7&#45;&gt;prose_40 -->
<g id="edge40" class="edge">
<title>section_7&#45;&gt;prose_40</title>
<path fill="none" stroke="#000000" stroke-dasharray="5,2" d="M2306.1277,-462.2078C2382.1407,-447.6133 2518.7879,-421.377 2586.5814,-408.3607"/>
<polygon fill="#000000" stroke="#000000" points="2587.2994,-411.7868 2596.46,-406.464 2585.9794,-404.9124 2587.2994,-411.7868"/>
</g>
<!-- leaf_10 -->
<g id="node11" class="node">
<title>leaf_10</title>
<polygon fill="none" stroke="#c0c0c0" points="534,-346.7005 0,-346.7005 0,-244.2999 534,-244.2999 534,-346.7005"/>
<text text-anchor="middle" x="267" y="-283.4003" font-family="Inconsolata" font-size="14.00" fill="#000000"> &#160;Current grym has a nodule of undigested code in the =/peg= directory.</text>
<text text-anchor="middle" x="267" y="-268.0002" font-family="Inconsolata" font-size="14.00" fill="#000000">This is early 2015 era stuff, and is built somewhat blindly upon epnf as I</text>
<text text-anchor="middle" x="267" y="-252.6002" font-family="Inconsolata" font-size="14.00" fill="#000000">found it on the internet.</text>
</g>
<!-- raw_9&#45;&gt;leaf_10 -->
<g id="edge10" class="edge">
<title>raw_9&#45;&gt;leaf_10</title>
<path fill="none" stroke="#000000" stroke-dasharray="5,2" d="M662.0485,-389.0776C657.2022,-386.7088 651.9987,-384.3937 647,-382.6003 612.204,-370.1158 574.9579,-358.9938 537.8912,-349.2211"/>
<polygon fill="#000000" stroke="#000000" points="538.5198,-345.7681 527.9604,-346.6335 536.7548,-352.5419 538.5198,-345.7681"/>
</g>
<!-- leaf_12 -->
<g id="node13" class="node">
<title>leaf_12</title>
<polygon fill="none" stroke="#c0c0c0" points="799.5,-315.4023 552.5,-315.4023 552.5,-275.5982 799.5,-275.5982 799.5,-315.4023"/>
<text text-anchor="middle" x="676" y="-284.0002" font-family="Inconsolata" font-size="14.00" fill="#000000">It needs a substantial refactor. </text>
</g>
<!-- raw_11&#45;&gt;leaf_12 -->
<g id="edge12" class="edge">
<title>raw_11&#45;&gt;leaf_12</title>
<path fill="none" stroke="#000000" stroke-dasharray="5,2" d="M742.6563,-384.1784C730.484,-367.9847 711.6434,-342.9195 697.0939,-323.5632"/>
<polygon fill="#000000" stroke="#000000" points="699.7585,-321.2829 690.9522,-315.3923 694.163,-325.4889 699.7585,-321.2829"/>
</g>
<!-- leaf_16 -->
<g id="node17" class="node">
<title>leaf_16</title>
<polygon fill="none" stroke="#c0c0c0" points="946,-313.5002 818,-313.5002 818,-277.5002 946,-277.5002 946,-313.5002"/>
<text text-anchor="middle" x="882" y="-292.0002" font-family="Inconsolata" font-size="14.00" fill="#000000">** Grammar class</text>
</g>
<!-- header_13&#45;&gt;leaf_16 -->
<g id="edge16" class="edge">
<title>header_13&#45;&gt;leaf_16</title>
<path fill="none" stroke="#000000" stroke-dasharray="5,2" d="M882,-382.2932C882,-366.1677 882,-342.4224 882,-323.8431"/>
<polygon fill="#000000" stroke="#000000" points="885.5001,-323.5974 882,-313.5975 878.5001,-323.5975 885.5001,-323.5974"/>
</g>
<!-- raw_17 -->
<g id="node18" class="node">
<title>raw_17</title>
<ellipse fill="none" stroke="#000000" cx="991" cy="-295.5002" rx="27" ry="18"/>
<text text-anchor="middle" x="991" y="-291.3002" font-family="Helvetica,sans-Serif" font-size="14.00" fill="#000000">raw</text>
</g>
<!-- prose_14&#45;&gt;raw_17 -->
<g id="edge17" class="edge">
<title>prose_14&#45;&gt;raw_17</title>
<path fill="none" stroke="#000000" stroke-dasharray="5,2" d="M1010.8195,-382.2932C1007.12,-366.0923 1001.6642,-342.2004 997.4128,-323.583"/>
<polygon fill="#000000" stroke="#000000" points="1000.771,-322.5673 995.1326,-313.5975 993.9467,-324.1257 1000.771,-322.5673"/>
</g>
<!-- header_19 -->
<g id="node20" class="node">
<title>header_19</title>
<ellipse fill="none" stroke="#000000" cx="1247" cy="-295.5002" rx="210.7615" ry="18"/>
<text text-anchor="middle" x="1247" y="-291.3002" font-family="Helvetica,sans-Serif" font-size="14.00" fill="#000000">3 : Grammar / new(Grammar, g_func, meta_tables)</text>
</g>
<!-- section_15&#45;&gt;header_19 -->
<g id="edge19" class="edge">
<title>section_15&#45;&gt;header_19</title>
<path fill="none" stroke="#000000" stroke-dasharray="5,2" d="M1508.2709,-386.426C1456.4932,-368.4067 1366.6806,-337.1507 1307.042,-316.3956"/>
<polygon fill="#000000" stroke="#000000" points="1307.9688,-313.0124 1297.374,-313.0311 1305.668,-319.6235 1307.9688,-313.0124"/>
</g>
<!-- prose_20 -->
<g id="node21" class="node">
<title>prose_20</title>
<ellipse fill="none" stroke="#000000" cx="1508" cy="-295.5002" rx="32.4585" ry="18"/>
<text text-anchor="middle" x="1508" y="-291.3002" font-family="Helvetica,sans-Serif" font-size="14.00" fill="#000000">prose</text>
</g>
<!-- section_15&#45;&gt;prose_20 -->
<g id="edge20" class="edge">
<title>section_15&#45;&gt;prose_20</title>
<path fill="none" stroke="#000000" stroke-dasharray="5,2" d="M1541.8583,-382.2932C1535.4406,-365.8419 1525.9291,-341.4599 1518.6199,-322.7235"/>
<polygon fill="#000000" stroke="#000000" points="1521.8182,-321.2915 1514.9232,-313.2473 1515.2969,-323.8355 1521.8182,-321.2915"/>
</g>
<!-- prose_21 -->
<g id="node22" class="node">
<title>prose_21</title>
<ellipse fill="none" stroke="#000000" cx="1590" cy="-295.5002" rx="32.4585" ry="18"/>
<text text-anchor="middle" x="1590" y="-291.3002" font-family="Helvetica,sans-Serif" font-size="14.00" fill="#000000">prose</text>
</g>
<!-- section_15&#45;&gt;prose_21 -->
<g id="edge21" class="edge">
<title>section_15&#45;&gt;prose_21</title>
<path fill="none" stroke="#000000" stroke-dasharray="5,2" d="M1556.1417,-382.2932C1562.5594,-365.8419 1572.0709,-341.4599 1579.3801,-322.7235"/>
<polygon fill="#000000" stroke="#000000" points="1582.7031,-323.8355 1583.0768,-313.2473 1576.1818,-321.2915 1582.7031,-323.8355"/>
</g>
<!-- prose_22 -->
<g id="node23" class="node">
<title>prose_22</title>
<ellipse fill="none" stroke="#000000" cx="1672" cy="-295.5002" rx="32.4585" ry="18"/>
<text text-anchor="middle" x="1672" y="-291.3002" font-family="Helvetica,sans-Serif" font-size="14.00" fill="#000000">prose</text>
</g>
<!-- section_15&#45;&gt;prose_22 -->
<g id="edge22" class="edge">
<title>section_15&#45;&gt;prose_22</title>
<path fill="none" stroke="#000000" stroke-dasharray="5,2" d="M1578.2858,-384.385C1594.6855,-374.5769 1614.9915,-361.1732 1631,-346.6003 1639.4136,-338.9411 1647.5121,-329.4655 1654.257,-320.7623"/>
<polygon fill="#000000" stroke="#000000" points="1657.0745,-322.839 1660.2752,-312.7392 1651.4748,-318.6386 1657.0745,-322.839"/>
</g>
<!-- prose_23 -->
<g id="node24" class="node">
<title>prose_23</title>
<ellipse fill="none" stroke="#000000" cx="1754" cy="-295.5002" rx="32.4585" ry="18"/>
<text text-anchor="middle" x="1754" y="-291.3002" font-family="Helvetica,sans-Serif" font-size="14.00" fill="#000000">prose</text>
</g>
<!-- section_15&#45;&gt;prose_23 -->
<g id="edge23" class="edge">
<title>section_15&#45;&gt;prose_23</title>
<path fill="none" stroke="#000000" stroke-dasharray="5,2" d="M1604.272,-390.7368C1637.8991,-382.8016 1680.4856,-369.1493 1713,-346.6003 1722.6327,-339.9199 1731.1545,-330.3363 1737.8987,-321.2697"/>
<polygon fill="#000000" stroke="#000000" points="1740.9279,-323.0458 1743.7983,-312.8472 1735.1945,-319.0298 1740.9279,-323.0458"/>
</g>
<!-- leaf_18 -->
<g id="node19" class="node">
<title>leaf_18</title>
<polygon fill="none" stroke="#c0c0c0" points="1060.5,-200.6017 911.5,-200.6017 911.5,-144.7987 1060.5,-144.7987 1060.5,-200.6017"/>
<text text-anchor="middle" x="986" y="-153.2002" font-family="Inconsolata" font-size="14.00" fill="#000000">This has the verbs:</text>
</g>
<!-- raw_17&#45;&gt;leaf_18 -->
<g id="edge18" class="edge">
<title>raw_17&#45;&gt;leaf_18</title>
<path fill="none" stroke="#000000" stroke-dasharray="5,2" d="M990.2622,-277.3807C989.5493,-259.8717 988.4474,-232.8092 987.5426,-210.587"/>
<polygon fill="#000000" stroke="#000000" points="991.0339,-210.2996 987.1299,-200.4503 984.0397,-210.5845 991.0339,-210.2996"/>
</g>
<!-- leaf_24 -->
<g id="node25" class="node">
<title>leaf_24</title>
<polygon fill="none" stroke="#c0c0c0" points="1423.5,-190.7002 1078.5,-190.7002 1078.5,-154.7002 1423.5,-154.7002 1423.5,-190.7002"/>
<text text-anchor="middle" x="1251" y="-169.2002" font-family="Inconsolata" font-size="14.00" fill="#000000">*** Grammar / new(Grammar, g_func, meta_tables)</text>
</g>
<!-- header_19&#45;&gt;leaf_24 -->
<g id="edge24" class="edge">
<title>header_19&#45;&gt;leaf_24</title>
<path fill="none" stroke="#000000" stroke-dasharray="5,2" d="M1247.5902,-277.3807C1248.246,-257.2468 1249.3134,-224.4802 1250.0792,-200.9674"/>
<polygon fill="#000000" stroke="#000000" points="1253.5799,-201.0028 1250.4074,-190.8941 1246.5836,-200.7748 1253.5799,-201.0028"/>
</g>
<!-- raw_25 -->
<g id="node26" class="node">
<title>raw_25</title>
<ellipse fill="none" stroke="#000000" cx="1490" cy="-172.7002" rx="27" ry="18"/>
<text text-anchor="middle" x="1490" y="-168.5002" font-family="Helvetica,sans-Serif" font-size="14.00" fill="#000000">raw</text>
</g>
<!-- prose_20&#45;&gt;raw_25 -->
<g id="edge25" class="edge">
<title>prose_20&#45;&gt;raw_25</title>
<path fill="none" stroke="#000000" stroke-dasharray="5,2" d="M1505.344,-277.3807C1502.3928,-257.2468 1497.5899,-224.4802 1494.1434,-200.9674"/>
<polygon fill="#000000" stroke="#000000" points="1497.5802,-200.2807 1492.6669,-190.8941 1490.6542,-201.296 1497.5802,-200.2807"/>
</g>
<!-- raw_27 -->
<g id="node28" class="node">
<title>raw_27</title>
<ellipse fill="none" stroke="#000000" cx="1574" cy="-172.7002" rx="27" ry="18"/>
<text text-anchor="middle" x="1574" y="-168.5002" font-family="Helvetica,sans-Serif" font-size="14.00" fill="#000000">raw</text>
</g>
<!-- prose_21&#45;&gt;raw_27 -->
<g id="edge27" class="edge">
<title>prose_21&#45;&gt;raw_27</title>
<path fill="none" stroke="#000000" stroke-dasharray="5,2" d="M1587.6391,-277.3807C1585.0158,-257.2468 1580.7466,-224.4802 1577.683,-200.9674"/>
<polygon fill="#000000" stroke="#000000" points="1581.1333,-200.358 1576.3705,-190.8941 1574.192,-201.2625 1581.1333,-200.358"/>
</g>
<!-- raw_29 -->
<g id="node30" class="node">
<title>raw_29</title>
<ellipse fill="none" stroke="#000000" cx="1677" cy="-172.7002" rx="27" ry="18"/>
<text text-anchor="middle" x="1677" y="-168.5002" font-family="Helvetica,sans-Serif" font-size="14.00" fill="#000000">raw</text>
</g>
<!-- prose_22&#45;&gt;raw_29 -->
<g id="edge29" class="edge">
<title>prose_22&#45;&gt;raw_29</title>
<path fill="none" stroke="#000000" stroke-dasharray="5,2" d="M1672.7378,-277.3807C1673.5575,-257.2468 1674.8917,-224.4802 1675.8491,-200.9674"/>
<polygon fill="#000000" stroke="#000000" points="1679.3494,-201.0282 1676.2592,-190.8941 1672.3552,-200.7434 1679.3494,-201.0282"/>
</g>
<!-- raw_31 -->
<g id="node32" class="node">
<title>raw_31</title>
<ellipse fill="none" stroke="#000000" cx="1762" cy="-172.7002" rx="27" ry="18"/>
<text text-anchor="middle" x="1762" y="-168.5002" font-family="Helvetica,sans-Serif" font-size="14.00" fill="#000000">raw</text>
</g>
<!-- prose_23&#45;&gt;raw_31 -->
<g id="edge31" class="edge">
<title>prose_23&#45;&gt;raw_31</title>
<path fill="none" stroke="#000000" stroke-dasharray="5,2" d="M1755.1804,-277.3807C1756.4921,-257.2468 1758.6267,-224.4802 1760.1585,-200.9674"/>
<polygon fill="#000000" stroke="#000000" points="1763.6571,-201.1005 1760.8147,-190.8941 1756.672,-200.6454 1763.6571,-201.1005"/>
</g>
<!-- leaf_26 -->
<g id="node27" class="node">
<title>leaf_26</title>
<polygon fill="none" stroke="#c0c0c0" points="1029,-78.4016 565,-78.4016 565,-22.5986 1029,-22.5986 1029,-78.4016"/>
<text text-anchor="middle" x="797" y="-31.0001" font-family="Inconsolata" font-size="14.00" fill="#000000">This takes a function, building and returning a grammar over it.</text>
</g>
<!-- raw_25&#45;&gt;leaf_26 -->
<g id="edge26" class="edge">
<title>raw_25&#45;&gt;leaf_26</title>
<path fill="none" stroke="#000000" stroke-dasharray="5,2" d="M1472.2785,-158.7977C1461.3128,-150.9866 1446.584,-141.8564 1432,-137.0002 1265.1654,-81.4472 1211.8965,-127.0751 1038,-101.0002 1001.3855,-95.51 961.9618,-87.9547 925.8203,-80.3599"/>
<polygon fill="#000000" stroke="#000000" points="926.2271,-76.8684 915.7186,-78.2184 924.7753,-83.7162 926.2271,-76.8684"/>
</g>
<!-- leaf_28 -->
<g id="node29" class="node">
<title>leaf_28</title>
<polygon fill="none" stroke="#c0c0c0" points="1609,-101.0002 1047,-101.0002 1047,.0001 1609,.0001 1609,-101.0002"/>
<text text-anchor="middle" x="1328" y="-69.8002" font-family="Inconsolata" font-size="14.00" fill="#000000"> &#160;&#45; #params</text>
<text text-anchor="middle" x="1328" y="-54.4001" font-family="Inconsolata" font-size="14.00" fill="#000000"> &#160;&#160;&#160;&#45; Grammar : &#160;The __call object</text>
<text text-anchor="middle" x="1328" y="-39.0001" font-family="Inconsolata" font-size="14.00" fill="#000000"> &#160;&#160;&#160;&#45; g_func &#160;: &#160;The function(_ENV) grammar</text>
<text text-anchor="middle" x="1328" y="-23.6001" font-family="Inconsolata" font-size="14.00" fill="#000000"> &#160;&#160;&#160;&#45; meta_tables : &#160;A map of rule ids to metatables. &#160;These should themsevles</text>
<text text-anchor="middle" x="1328" y="-8.2" font-family="Inconsolata" font-size="14.00" fill="#000000"> &#160;&#160;&#160;&#160;&#160;&#160;&#160;&#160;&#160;&#160;&#160;&#160;inherit from Node.</text>
</g>
<!-- raw_27&#45;&gt;leaf_28 -->
<g id="edge28" class="edge">
<title>raw_27&#45;&gt;leaf_28</title>
<path fill="none" stroke="#000000" stroke-dasharray="5,2" d="M1556.8801,-158.4739C1548.0005,-151.4891 1536.7799,-143.254 1526,-137.0002 1506.7094,-125.809 1485.6999,-115.1506 1464.8104,-105.381"/>
<polygon fill="#000000" stroke="#000000" points="1466.0964,-102.1197 1455.5504,-101.1034 1463.1608,-108.4745 1466.0964,-102.1197"/>
</g>
<!-- leaf_30 -->
<g id="node31" class="node">
<title>leaf_30</title>
<polygon fill="none" stroke="#c0c0c0" points="2210.5,-77.8005 1627.5,-77.8005 1627.5,-23.1997 2210.5,-23.1997 2210.5,-77.8005"/>
<text text-anchor="middle" x="1919" y="-46.7001" font-family="Inconsolata" font-size="14.00" fill="#000000">The constructor handles building the metatable stack so that the table it returns</text>
<text text-anchor="middle" x="1919" y="-31.3001" font-family="Inconsolata" font-size="14.00" fill="#000000">works like a function over a string returning a Node. </text>
</g>
<!-- raw_29&#45;&gt;leaf_30 -->
<g id="edge30" class="edge">
<title>raw_29&#45;&gt;leaf_30</title>
<path fill="none" stroke="#000000" stroke-dasharray="5,2" d="M1694.5429,-158.5434C1703.6243,-151.5763 1715.0738,-143.3361 1726,-137.0002 1761.8649,-116.2027 1803.6373,-96.9241 1839.1293,-81.8702"/>
<polygon fill="#000000" stroke="#000000" points="1840.6225,-85.0392 1848.485,-77.9376 1837.91,-78.5861 1840.6225,-85.0392"/>
</g>
<!-- leaf_32 -->
<g id="node33" class="node">
<title>leaf_32</title>
<polygon fill="none" stroke="#c0c0c0" points="2797.5,-85.8004 2228.5,-85.8004 2228.5,-15.1997 2797.5,-15.1997 2797.5,-85.8004"/>
<text text-anchor="middle" x="2513" y="-54.7001" font-family="Inconsolata" font-size="14.00" fill="#000000">Also automated: If a string isn&#39;t provided in =meta_tables=, the Node metatable</text>
<text text-anchor="middle" x="2513" y="-39.3001" font-family="Inconsolata" font-size="14.00" fill="#000000">is assigned. I also have some notes on the [[Node class][./node]].</text>
</g>
<!-- raw_31&#45;&gt;leaf_32 -->
<g id="edge32" class="edge">
<title>raw_31&#45;&gt;leaf_32</title>
<path fill="none" stroke="#000000" stroke-dasharray="5,2" d="M1778.1993,-158.0391C1787.6506,-150.3841 1800.2052,-141.663 1813,-137.0002 1983.6182,-74.8213 2039.9243,-124.4421 2220,-101.0002 2249.6755,-97.137 2280.9371,-92.4337 2311.5445,-87.4687"/>
<polygon fill="#000000" stroke="#000000" points="2312.1519,-90.916 2321.4562,-85.8483 2311.0224,-84.0077 2312.1519,-90.916"/>
</g>
<!-- leaf_35 -->
<g id="node36" class="node">
<title>leaf_35</title>
<polygon fill="none" stroke="#c0c0c0" points="1883.5,-322.8007 1804.5,-322.8007 1804.5,-268.1998 1883.5,-268.1998 1883.5,-322.8007"/>
<text text-anchor="middle" x="1844" y="-307.7003" font-family="Inconsolata" font-size="14.00" fill="#000000">ode class</text>
<text text-anchor="middle" x="1844" y="-276.3002" font-family="Inconsolata" font-size="14.00" fill="#000000"> &#160;C</text>
</g>
<!-- header_33&#45;&gt;leaf_35 -->
<g id="edge35" class="edge">
<title>header_33&#45;&gt;leaf_35</title>
<path fill="none" stroke="#000000" stroke-dasharray="5,2" d="M1818.3998,-382.2932C1822.3934,-368.7536 1827.9715,-349.8421 1832.9017,-333.1271"/>
<polygon fill="#000000" stroke="#000000" points="1836.3957,-333.6528 1835.8678,-323.0711 1829.6816,-331.6724 1836.3957,-333.6528"/>
</g>
<!-- raw_36 -->
<g id="node37" class="node">
<title>raw_36</title>
<ellipse fill="none" stroke="#000000" cx="1929" cy="-295.5002" rx="27" ry="18"/>
<text text-anchor="middle" x="1929" y="-291.3002" font-family="Helvetica,sans-Serif" font-size="14.00" fill="#000000">raw</text>
</g>
<!-- prose_34&#45;&gt;raw_36 -->
<g id="edge36" class="edge">
<title>prose_34&#45;&gt;raw_36</title>
<path fill="none" stroke="#000000" stroke-dasharray="5,2" d="M1929,-382.2932C1929,-366.1677 1929,-342.4224 1929,-323.8431"/>
<polygon fill="#000000" stroke="#000000" points="1932.5001,-323.5974 1929,-313.5975 1925.5001,-323.5975 1932.5001,-323.5974"/>
</g>
<!-- leaf_37 -->
<g id="node38" class="node">
<title>leaf_37</title>
<polygon fill="none" stroke="#c0c0c0" points="2020,-208.6013 1822,-208.6013 1822,-136.799 2020,-136.799 2020,-208.6013"/>
<text text-anchor="middle" x="1921" y="-161.2002" font-family="Inconsolata" font-size="14.00" fill="#000000"> &#160;Covered [[here][./node]]</text>
</g>
<!-- raw_36&#45;&gt;leaf_37 -->
<g id="edge37" class="edge">
<title>raw_36&#45;&gt;leaf_37</title>
<path fill="none" stroke="#000000" stroke-dasharray="5,2" d="M1927.8196,-277.3807C1926.8119,-261.9136 1925.3186,-238.9913 1923.9861,-218.5363"/>
<polygon fill="#000000" stroke="#000000" points="1927.4703,-218.1791 1923.3275,-208.4278 1920.4851,-218.6343 1927.4703,-218.1791"/>
</g>
<!-- leaf_41 -->
<g id="node42" class="node">
<title>leaf_41</title>
<polygon fill="none" stroke="#c0c0c0" points="2238.5,-322.8007 2145.5,-322.8007 2145.5,-268.1998 2238.5,-268.1998 2238.5,-322.8007"/>
<text text-anchor="middle" x="2192" y="-307.7003" font-family="Inconsolata" font-size="14.00" fill="#000000">orest class</text>
<text text-anchor="middle" x="2192" y="-276.3002" font-family="Inconsolata" font-size="14.00" fill="#000000"> &#160;T</text>
</g>
<!-- header_38&#45;&gt;leaf_41 -->
<g id="edge41" class="edge">
<title>header_38&#45;&gt;leaf_41</title>
<path fill="none" stroke="#000000" stroke-dasharray="5,2" d="M2192,-382.2932C2192,-368.7536 2192,-349.8421 2192,-333.1271"/>
<polygon fill="#000000" stroke="#000000" points="2195.5001,-333.0711 2192,-323.0711 2188.5001,-333.0711 2195.5001,-333.0711"/>
</g>
<!-- raw_42 -->
<g id="node43" class="node">
<title>raw_42</title>
<ellipse fill="none" stroke="#000000" cx="2312" cy="-295.5002" rx="27" ry="18"/>
<text text-anchor="middle" x="2312" y="-291.3002" font-family="Helvetica,sans-Serif" font-size="14.00" fill="#000000">raw</text>
</g>
<!-- prose_39&#45;&gt;raw_42 -->
<g id="edge42" class="edge">
<title>prose_39&#45;&gt;raw_42</title>
<path fill="none" stroke="#000000" stroke-dasharray="5,2" d="M2312,-382.2932C2312,-366.1677 2312,-342.4224 2312,-323.8431"/>
<polygon fill="#000000" stroke="#000000" points="2315.5001,-323.5974 2312,-313.5975 2308.5001,-323.5975 2315.5001,-323.5974"/>
</g>
<!-- raw_44 -->
<g id="node45" class="node">
<title>raw_44</title>
<ellipse fill="none" stroke="#000000" cx="2744" cy="-295.5002" rx="27" ry="18"/>
<text text-anchor="middle" x="2744" y="-291.3002" font-family="Helvetica,sans-Serif" font-size="14.00" fill="#000000">raw</text>
</g>
<!-- prose_40&#45;&gt;raw_44 -->
<g id="edge44" class="edge">
<title>prose_40&#45;&gt;raw_44</title>
<path fill="none" stroke="#000000" stroke-dasharray="5,2" d="M2644.2638,-385.0924C2664.3926,-367.0108 2697.7741,-337.0245 2720.3154,-316.7759"/>
<polygon fill="#000000" stroke="#000000" points="2722.6966,-319.3417 2727.797,-310.0553 2718.0187,-314.1342 2722.6966,-319.3417"/>
</g>
<!-- leaf_43 -->
<g id="node44" class="node">
<title>leaf_43</title>
<polygon fill="none" stroke="#c0c0c0" points="2586,-200.6017 2038,-200.6017 2038,-144.7987 2586,-144.7987 2586,-200.6017"/>
<text text-anchor="middle" x="2312" y="-153.2002" font-family="Inconsolata" font-size="14.00" fill="#000000"> &#160;This is just an array of Nodes offering a familiar =select= etc interface.</text>
</g>
<!-- raw_42&#45;&gt;leaf_43 -->
<g id="edge43" class="edge">
<title>raw_42&#45;&gt;leaf_43</title>
<path fill="none" stroke="#000000" stroke-dasharray="5,2" d="M2312,-277.3807C2312,-259.8717 2312,-232.8092 2312,-210.587"/>
<polygon fill="#000000" stroke="#000000" points="2315.5001,-210.4503 2312,-200.4503 2308.5001,-210.4504 2315.5001,-210.4503"/>
</g>
<!-- leaf_45 -->
<g id="node46" class="node">
<title>leaf_45</title>
<polygon fill="none" stroke="#c0c0c0" points="3117.5,-192.6023 2604.5,-192.6023 2604.5,-152.7981 3117.5,-152.7981 3117.5,-192.6023"/>
<text text-anchor="middle" x="2861" y="-161.2002" font-family="Inconsolata" font-size="14.00" fill="#000000">These are the only classes which should exist once this is cleaned up. </text>
</g>
<!-- raw_44&#45;&gt;leaf_45 -->
<g id="edge45" class="edge">
<title>raw_44&#45;&gt;leaf_45</title>
<path fill="none" stroke="#000000" stroke-dasharray="5,2" d="M2758.5816,-280.1958C2777.6786,-260.152 2811.4907,-224.6638 2835.0182,-199.97"/>
<polygon fill="#000000" stroke="#000000" points="2837.5979,-202.3364 2841.9619,-192.682 2832.5299,-197.5077 2837.5979,-202.3364"/>
</g>
</g>
</svg>