<?xml version="1.0" encoding="UTF-8" standalone="no"?>
<!DOCTYPE svg PUBLIC "-//W3C//DTD SVG 1.1//EN"
 "http://www.w3.org/Graphics/SVG/1.1/DTD/svg11.dtd">
<!-- Generated by graphviz version 2.40.1 (20161225.0304)
 -->
<!-- Title: hierarchy Pages: 1 -->
<svg width="1137pt" height="188pt"
 viewBox="0.00 0.00 1136.99 188.00" xmlns="http://www.w3.org/2000/svg" xmlns:xlink="http://www.w3.org/1999/xlink">
<g id="graph0" class="graph" transform="scale(1 1) rotate(0) translate(4 184)">
<title>hierarchy</title>
<polygon fill="#ffffff" stroke="transparent" points="-4,4 -4,-184 1132.9862,-184 1132.9862,4 -4,4"/>
<!-- doc_0 -->
<g id="node1" class="node">
<title>doc_0</title>
<ellipse fill="none" stroke="#000000" cx="137.9225" cy="-162" rx="42.1216" ry="18"/>
<text text-anchor="middle" x="137.9225" y="-157.8" font-family="Helvetica,sans-Serif" font-size="14.00" fill="#000000">doc &#45; 40</text>
</g>
<!-- section_1 -->
<g id="node2" class="node">
<title>section_1</title>
<ellipse fill="none" stroke="#000000" cx="137.9225" cy="-90" rx="60.9826" ry="18"/>
<text text-anchor="middle" x="137.9225" y="-85.8" font-family="Helvetica,sans-Serif" font-size="14.00" fill="#000000">section: 1&#45;35</text>
</g>
<!-- doc_0&#45;&gt;section_1 -->
<g id="edge1" class="edge">
<title>doc_0&#45;&gt;section_1</title>
<path fill="none" stroke="#000000" stroke-dasharray="5,2" d="M137.9225,-143.8314C137.9225,-136.131 137.9225,-126.9743 137.9225,-118.4166"/>
<polygon fill="#000000" stroke="#000000" points="141.4226,-118.4132 137.9225,-108.4133 134.4226,-118.4133 141.4226,-118.4132"/>
</g>
<!-- header_2 -->
<g id="node3" class="node">
<title>header_2</title>
<ellipse fill="none" stroke="#000000" cx="137.9225" cy="-18" rx="137.8451" ry="18"/>
<text text-anchor="middle" x="137.9225" y="-13.8" font-family="Helvetica,sans-Serif" font-size="14.00" fill="#000000">1 : Pegylator and the Node class</text>
</g>
<!-- section_1&#45;&gt;header_2 -->
<g id="edge2" class="edge">
<title>section_1&#45;&gt;header_2</title>
<path fill="none" stroke="#000000" stroke-dasharray="5,2" d="M137.9225,-71.8314C137.9225,-64.131 137.9225,-54.9743 137.9225,-46.4166"/>
<polygon fill="#000000" stroke="#000000" points="141.4226,-46.4132 137.9225,-36.4133 134.4226,-46.4133 141.4226,-46.4132"/>
</g>
<!-- section_3 -->
<g id="node4" class="node">
<title>section_3</title>
<ellipse fill="none" stroke="#000000" cx="298.9225" cy="-162" rx="47.9272" ry="18"/>
<text text-anchor="middle" x="298.9225" y="-157.8" font-family="Helvetica,sans-Serif" font-size="14.00" fill="#000000">section_3</text>
</g>
<!-- header_6 -->
<g id="node5" class="node">
<title>header_6</title>
<ellipse fill="none" stroke="#000000" cx="298.9225" cy="-90" rx="82.1803" ry="18"/>
<text text-anchor="middle" x="298.9225" y="-85.8" font-family="Helvetica,sans-Serif" font-size="14.00" fill="#000000">2 : Grammar class</text>
</g>
<!-- section_3&#45;&gt;header_6 -->
<g id="edge3" class="edge">
<title>section_3&#45;&gt;header_6</title>
<path fill="none" stroke="#000000" stroke-dasharray="5,2" d="M298.9225,-143.8314C298.9225,-136.131 298.9225,-126.9743 298.9225,-118.4166"/>
<polygon fill="#000000" stroke="#000000" points="302.4226,-118.4132 298.9225,-108.4133 295.4226,-118.4133 302.4226,-118.4132"/>
</g>
<!-- section_7 -->
<g id="node6" class="node">
<title>section_7</title>
<ellipse fill="none" stroke="#000000" cx="609.9225" cy="-162" rx="47.9272" ry="18"/>
<text text-anchor="middle" x="609.9225" y="-157.8" font-family="Helvetica,sans-Serif" font-size="14.00" fill="#000000">section_7</text>
</g>
<!-- header_8 -->
<g id="node7" class="node">
<title>header_8</title>
<ellipse fill="none" stroke="#000000" cx="609.9225" cy="-90" rx="210.7615" ry="18"/>
<text text-anchor="middle" x="609.9225" y="-85.8" font-family="Helvetica,sans-Serif" font-size="14.00" fill="#000000">3 : Grammar / new(Grammar, g_func, meta_tables)</text>
</g>
<!-- section_7&#45;&gt;header_8 -->
<g id="edge4" class="edge">
<title>section_7&#45;&gt;header_8</title>
<path fill="none" stroke="#000000" stroke-dasharray="5,2" d="M609.9225,-143.8314C609.9225,-136.131 609.9225,-126.9743 609.9225,-118.4166"/>
<polygon fill="#000000" stroke="#000000" points="613.4226,-118.4132 609.9225,-108.4133 606.4226,-118.4133 613.4226,-118.4132"/>
</g>
<!-- section_4 -->
<g id="node8" class="node">
<title>section_4</title>
<ellipse fill="none" stroke="#000000" cx="904.9225" cy="-162" rx="47.9272" ry="18"/>
<text text-anchor="middle" x="904.9225" y="-157.8" font-family="Helvetica,sans-Serif" font-size="14.00" fill="#000000">section_4</text>
</g>
<!-- header_9 -->
<g id="node9" class="node">
<title>header_9</title>
<ellipse fill="none" stroke="#000000" cx="904.9225" cy="-90" rx="66.2859" ry="18"/>
<text text-anchor="middle" x="904.9225" y="-85.8" font-family="Helvetica,sans-Serif" font-size="14.00" fill="#000000">2 : Node class</text>
</g>
<!-- section_4&#45;&gt;header_9 -->
<g id="edge5" class="edge">
<title>section_4&#45;&gt;header_9</title>
<path fill="none" stroke="#000000" stroke-dasharray="5,2" d="M904.9225,-143.8314C904.9225,-136.131 904.9225,-126.9743 904.9225,-118.4166"/>
<polygon fill="#000000" stroke="#000000" points="908.4226,-118.4132 904.9225,-108.4133 901.4226,-118.4133 908.4226,-118.4132"/>
</g>
<!-- section_5 -->
<g id="node10" class="node">
<title>section_5</title>
<ellipse fill="none" stroke="#000000" cx="1058.9225" cy="-162" rx="47.9272" ry="18"/>
<text text-anchor="middle" x="1058.9225" y="-157.8" font-family="Helvetica,sans-Serif" font-size="14.00" fill="#000000">section_5</text>
</g>
<!-- header_10 -->
<g id="node11" class="node">
<title>header_10</title>
<ellipse fill="none" stroke="#000000" cx="1058.9225" cy="-90" rx="70.1273" ry="18"/>
<text text-anchor="middle" x="1058.9225" y="-85.8" font-family="Helvetica,sans-Serif" font-size="14.00" fill="#000000">2 : Forest class</text>
</g>
<!-- section_5&#45;&gt;header_10 -->
<g id="edge6" class="edge">
<title>section_5&#45;&gt;header_10</title>
<path fill="none" stroke="#000000" stroke-dasharray="5,2" d="M1058.9225,-143.8314C1058.9225,-136.131 1058.9225,-126.9743 1058.9225,-118.4166"/>
<polygon fill="#000000" stroke="#000000" points="1062.4226,-118.4132 1058.9225,-108.4133 1055.4226,-118.4133 1062.4226,-118.4132"/>
</g>
</g>
</svg>