<?xml version="1.0" encoding="UTF-8" standalone="no"?>
<!DOCTYPE svg PUBLIC "-//W3C//DTD SVG 1.1//EN"
 "http://www.w3.org/Graphics/SVG/1.1/DTD/svg11.dtd">
<!-- Generated by graphviz version 2.40.1 (20161225.0304)
 -->
<!-- Title: hierarchy Pages: 1 -->
<svg width="866pt" height="387pt"
 viewBox="0.00 0.00 865.54 387.40" xmlns="http://www.w3.org/2000/svg" xmlns:xlink="http://www.w3.org/1999/xlink">
<g id="graph0" class="graph" transform="scale(1 1) rotate(0) translate(4 383.4)">
<title>hierarchy</title>
<polygon fill="#ffffff" stroke="transparent" points="-4,4 -4,-383.4 861.5432,-383.4 861.5432,4 -4,4"/>
<!-- doc_0 -->
<g id="node1" class="node">
<title>doc_0</title>
<ellipse fill="none" stroke="#000000" cx="319.3148" cy="-361.4" rx="42.1216" ry="18"/>
<text text-anchor="middle" x="319.3148" y="-357.2" font-family="Helvetica,sans-Serif" font-size="14.00" fill="#000000">doc &#45; 17</text>
</g>
<!-- section_1 -->
<g id="node2" class="node">
<title>section_1</title>
<ellipse fill="none" stroke="#000000" cx="163.3148" cy="-289.4" rx="55.6456" ry="18"/>
<text text-anchor="middle" x="163.3148" y="-285.2" font-family="Helvetica,sans-Serif" font-size="14.00" fill="#000000">section: 1&#45;5</text>
</g>
<!-- doc_0&#45;&gt;section_1 -->
<g id="edge1" class="edge">
<title>doc_0&#45;&gt;section_1</title>
<path fill="none" stroke="#000000" stroke-dasharray="5,2" d="M290.702,-348.1941C266.6248,-337.0816 231.8821,-321.0465 204.7597,-308.5284"/>
<polygon fill="#000000" stroke="#000000" points="206.0602,-305.2739 195.5139,-304.2612 203.1268,-311.6297 206.0602,-305.2739"/>
</g>
<!-- section_2 -->
<g id="node3" class="node">
<title>section_2</title>
<ellipse fill="none" stroke="#000000" cx="319.3148" cy="-289.4" rx="60.9826" ry="18"/>
<text text-anchor="middle" x="319.3148" y="-285.2" font-family="Helvetica,sans-Serif" font-size="14.00" fill="#000000">section: 6&#45;10</text>
</g>
<!-- doc_0&#45;&gt;section_2 -->
<g id="edge2" class="edge">
<title>doc_0&#45;&gt;section_2</title>
<path fill="none" stroke="#000000" stroke-dasharray="5,2" d="M319.3148,-343.2314C319.3148,-335.531 319.3148,-326.3744 319.3148,-317.8167"/>
<polygon fill="#000000" stroke="#000000" points="322.8149,-317.8133 319.3148,-307.8133 315.8149,-317.8133 322.8149,-317.8133"/>
</g>
<!-- section_3 -->
<g id="node4" class="node">
<title>section_3</title>
<ellipse fill="none" stroke="#000000" cx="537.3148" cy="-289.4" rx="65.0143" ry="18"/>
<text text-anchor="middle" x="537.3148" y="-285.2" font-family="Helvetica,sans-Serif" font-size="14.00" fill="#000000">section: 11&#45;14</text>
</g>
<!-- doc_0&#45;&gt;section_3 -->
<g id="edge3" class="edge">
<title>doc_0&#45;&gt;section_3</title>
<path fill="none" stroke="#000000" stroke-dasharray="5,2" d="M352.8995,-350.3078C388.3927,-338.5853 444.8114,-319.9516 485.9071,-306.3787"/>
<polygon fill="#000000" stroke="#000000" points="487.0789,-309.6777 495.4767,-303.2181 484.8835,-303.0309 487.0789,-309.6777"/>
</g>
<!-- header_4 -->
<g id="node5" class="node">
<title>header_4</title>
<ellipse fill="none" stroke="#000000" cx="56.3148" cy="-217.4" rx="56.1302" ry="18"/>
<text text-anchor="middle" x="56.3148" y="-213.2" font-family="Helvetica,sans-Serif" font-size="14.00" fill="#000000">1 : Sections</text>
</g>
<!-- section_1&#45;&gt;header_4 -->
<g id="edge4" class="edge">
<title>section_1&#45;&gt;header_4</title>
<path fill="none" stroke="#000000" stroke-dasharray="5,2" d="M139.0348,-273.0621C124.2598,-263.12 105.1956,-250.2918 89.0935,-239.4567"/>
<polygon fill="#000000" stroke="#000000" points="90.7492,-236.3523 80.4987,-233.6733 86.8413,-242.1599 90.7492,-236.3523"/>
</g>
<!-- prose_5 -->
<g id="node6" class="node">
<title>prose_5</title>
<ellipse fill="none" stroke="#000000" cx="163.3148" cy="-217.4" rx="32.4585" ry="18"/>
<text text-anchor="middle" x="163.3148" y="-213.2" font-family="Helvetica,sans-Serif" font-size="14.00" fill="#000000">prose</text>
</g>
<!-- section_1&#45;&gt;prose_5 -->
<g id="edge5" class="edge">
<title>section_1&#45;&gt;prose_5</title>
<path fill="none" stroke="#000000" stroke-dasharray="5,2" d="M163.3148,-271.2314C163.3148,-263.531 163.3148,-254.3744 163.3148,-245.8167"/>
<polygon fill="#000000" stroke="#000000" points="166.8149,-245.8133 163.3148,-235.8133 159.8149,-245.8133 166.8149,-245.8133"/>
</g>
<!-- header_7 -->
<g id="node8" class="node">
<title>header_7</title>
<ellipse fill="none" stroke="#000000" cx="270.3148" cy="-217.4" rx="56.1302" ry="18"/>
<text text-anchor="middle" x="270.3148" y="-213.2" font-family="Helvetica,sans-Serif" font-size="14.00" fill="#000000">1 : Sections</text>
</g>
<!-- section_2&#45;&gt;header_7 -->
<g id="edge7" class="edge">
<title>section_2&#45;&gt;header_7</title>
<path fill="none" stroke="#000000" stroke-dasharray="5,2" d="M307.2024,-271.6023C301.4467,-263.1448 294.4531,-252.8685 288.1093,-243.547"/>
<polygon fill="#000000" stroke="#000000" points="290.8076,-241.291 282.2878,-234.9931 285.0206,-245.2294 290.8076,-241.291"/>
</g>
<!-- prose_8 -->
<g id="node9" class="node">
<title>prose_8</title>
<ellipse fill="none" stroke="#000000" cx="377.3148" cy="-217.4" rx="32.4585" ry="18"/>
<text text-anchor="middle" x="377.3148" y="-213.2" font-family="Helvetica,sans-Serif" font-size="14.00" fill="#000000">prose</text>
</g>
<!-- section_2&#45;&gt;prose_8 -->
<g id="edge8" class="edge">
<title>section_2&#45;&gt;prose_8</title>
<path fill="none" stroke="#000000" stroke-dasharray="5,2" d="M333.6519,-271.6023C340.8852,-262.623 349.7701,-251.5934 357.6326,-241.8331"/>
<polygon fill="#000000" stroke="#000000" points="360.3902,-243.9891 363.9379,-234.0059 354.9389,-239.5978 360.3902,-243.9891"/>
</g>
<!-- header_10 -->
<g id="node11" class="node">
<title>header_10</title>
<ellipse fill="none" stroke="#000000" cx="484.3148" cy="-217.4" rx="56.1302" ry="18"/>
<text text-anchor="middle" x="484.3148" y="-213.2" font-family="Helvetica,sans-Serif" font-size="14.00" fill="#000000">1 : Sections</text>
</g>
<!-- section_3&#45;&gt;header_10 -->
<g id="edge10" class="edge">
<title>section_3&#45;&gt;header_10</title>
<path fill="none" stroke="#000000" stroke-dasharray="5,2" d="M524.2137,-271.6023C517.9239,-263.0576 510.2674,-252.6564 503.3499,-243.259"/>
<polygon fill="#000000" stroke="#000000" points="506.0121,-240.9716 497.2652,-234.9931 500.3747,-245.1213 506.0121,-240.9716"/>
</g>
<!-- prose_11 -->
<g id="node12" class="node">
<title>prose_11</title>
<ellipse fill="none" stroke="#000000" cx="591.3148" cy="-217.4" rx="32.4585" ry="18"/>
<text text-anchor="middle" x="591.3148" y="-213.2" font-family="Helvetica,sans-Serif" font-size="14.00" fill="#000000">prose</text>
</g>
<!-- section_3&#45;&gt;prose_11 -->
<g id="edge11" class="edge">
<title>section_3&#45;&gt;prose_11</title>
<path fill="none" stroke="#000000" stroke-dasharray="5,2" d="M550.6631,-271.6023C557.3302,-262.7128 565.5044,-251.8138 572.7701,-242.1263"/>
<polygon fill="#000000" stroke="#000000" points="575.6604,-244.1059 578.8604,-234.0059 570.0604,-239.9059 575.6604,-244.1059"/>
</g>
<!-- section_12 -->
<g id="node13" class="node">
<title>section_12</title>
<ellipse fill="none" stroke="#000000" cx="707.3148" cy="-217.4" rx="65.8187" ry="18"/>
<text text-anchor="middle" x="707.3148" y="-213.2" font-family="Helvetica,sans-Serif" font-size="14.00" fill="#000000">section: 15&#45;17</text>
</g>
<!-- section_3&#45;&gt;section_12 -->
<g id="edge12" class="edge">
<title>section_3&#45;&gt;section_12</title>
<path fill="none" stroke="#000000" stroke-dasharray="5,2" d="M572.9524,-274.3065C598.8191,-263.3511 634.0193,-248.4428 661.9018,-236.6337"/>
<polygon fill="#000000" stroke="#000000" points="663.5886,-239.7204 671.4318,-232.5975 660.8586,-233.2747 663.5886,-239.7204"/>
</g>
<!-- leaf_6 -->
<g id="node7" class="node">
<title>leaf_6</title>
<polygon fill="none" stroke="#c0c0c0" points="190.3148,-163.4 136.3148,-163.4 136.3148,-91.4 190.3148,-91.4 190.3148,-163.4"/>
</g>
<!-- prose_5&#45;&gt;leaf_6 -->
<g id="edge6" class="edge">
<title>prose_5&#45;&gt;leaf_6</title>
<path fill="none" stroke="#000000" stroke-dasharray="5,2" d="M163.3148,-199.1872C163.3148,-191.7234 163.3148,-182.7138 163.3148,-173.637"/>
<polygon fill="#000000" stroke="#000000" points="166.8149,-173.4393 163.3148,-163.4393 159.8149,-173.4394 166.8149,-173.4393"/>
</g>
<!-- leaf_9 -->
<g id="node10" class="node">
<title>leaf_9</title>
<polygon fill="none" stroke="#c0c0c0" points="404.3148,-163.4 350.3148,-163.4 350.3148,-91.4 404.3148,-91.4 404.3148,-163.4"/>
</g>
<!-- prose_8&#45;&gt;leaf_9 -->
<g id="edge9" class="edge">
<title>prose_8&#45;&gt;leaf_9</title>
<path fill="none" stroke="#000000" stroke-dasharray="5,2" d="M377.3148,-199.1872C377.3148,-191.7234 377.3148,-182.7138 377.3148,-173.637"/>
<polygon fill="#000000" stroke="#000000" points="380.8149,-173.4393 377.3148,-163.4393 373.8149,-173.4394 380.8149,-173.4393"/>
</g>
<!-- leaf_13 -->
<g id="node14" class="node">
<title>leaf_13</title>
<polygon fill="none" stroke="#c0c0c0" points="618.3148,-155.3015 564.3148,-155.3015 564.3148,-99.4985 618.3148,-99.4985 618.3148,-155.3015"/>
<text text-anchor="middle" x="591.3148" y="-107.9" font-family="Inconsolata" font-size="14.00" fill="#000000">asdf</text>
</g>
<!-- prose_11&#45;&gt;leaf_13 -->
<g id="edge13" class="edge">
<title>prose_11&#45;&gt;leaf_13</title>
<path fill="none" stroke="#000000" stroke-dasharray="5,2" d="M591.3148,-199.1872C591.3148,-189.4144 591.3148,-176.9915 591.3148,-165.2377"/>
<polygon fill="#000000" stroke="#000000" points="594.8149,-165.1642 591.3148,-155.1642 587.8149,-165.1643 594.8149,-165.1642"/>
</g>
<!-- header_14 -->
<g id="node15" class="node">
<title>header_14</title>
<ellipse fill="none" stroke="#000000" cx="706.3148" cy="-127.4" rx="69.1929" ry="18"/>
<text text-anchor="middle" x="706.3148" y="-123.2" font-family="Helvetica,sans-Serif" font-size="14.00" fill="#000000">2 : Sectionmnn</text>
</g>
<!-- section_12&#45;&gt;header_14 -->
<g id="edge14" class="edge">
<title>section_12&#45;&gt;header_14</title>
<path fill="none" stroke="#000000" stroke-dasharray="5,2" d="M707.1124,-199.1872C706.9742,-186.7443 706.7882,-170.0053 706.6306,-155.8211"/>
<polygon fill="#000000" stroke="#000000" points="710.1278,-155.5463 706.5169,-145.5858 703.1283,-155.6241 710.1278,-155.5463"/>
</g>
<!-- prose_15 -->
<g id="node16" class="node">
<title>prose_15</title>
<ellipse fill="none" stroke="#000000" cx="825.3148" cy="-127.4" rx="32.4585" ry="18"/>
<text text-anchor="middle" x="825.3148" y="-123.2" font-family="Helvetica,sans-Serif" font-size="14.00" fill="#000000">prose</text>
</g>
<!-- section_12&#45;&gt;prose_15 -->
<g id="edge15" class="edge">
<title>section_12&#45;&gt;prose_15</title>
<path fill="none" stroke="#000000" stroke-dasharray="5,2" d="M732.7838,-200.5646C748.0302,-190.236 767.6257,-176.5157 784.3148,-163.4 789.8192,-159.0742 795.5626,-154.2456 800.9482,-149.5651"/>
<polygon fill="#000000" stroke="#000000" points="803.3309,-152.1304 808.5132,-142.8894 798.6993,-146.8818 803.3309,-152.1304"/>
</g>
<!-- leaf_16 -->
<g id="node17" class="node">
<title>leaf_16</title>
<polygon fill="none" stroke="#c0c0c0" points="852.3148,-55.6015 798.3148,-55.6015 798.3148,.2015 852.3148,.2015 852.3148,-55.6015"/>
<text text-anchor="middle" x="825.3148" y="-8.2" font-family="Inconsolata" font-size="14.00" fill="#000000">qqqq</text>
</g>
<!-- prose_15&#45;&gt;leaf_16 -->
<g id="edge16" class="edge">
<title>prose_15&#45;&gt;leaf_16</title>
<path fill="none" stroke="#000000" stroke-dasharray="5,2" d="M825.3148,-109.1135C825.3148,-96.9638 825.3148,-80.5648 825.3148,-65.6687"/>
<polygon fill="#000000" stroke="#000000" points="828.8149,-65.6668 825.3148,-55.6668 821.8149,-65.6668 828.8149,-65.6668"/>
</g>
</g>
</svg>