<?xml version="1.0" encoding="UTF-8" standalone="no"?>
<!DOCTYPE svg PUBLIC "-//W3C//DTD SVG 1.1//EN"
 "http://www.w3.org/Graphics/SVG/1.1/DTD/svg11.dtd">
<!-- Generated by graphviz version 2.40.1 (20161225.0304)
 -->
<!-- Title: hierarchy Pages: 1 -->
<svg width="866pt" height="459pt"
 viewBox="0.00 0.00 865.54 459.40" xmlns="http://www.w3.org/2000/svg" xmlns:xlink="http://www.w3.org/1999/xlink">
<g id="graph0" class="graph" transform="scale(1 1) rotate(0) translate(4 455.4)">
<title>hierarchy</title>
<polygon fill="#ffffff" stroke="transparent" points="-4,4 -4,-455.4 861.5432,-455.4 861.5432,4 -4,4"/>
<!-- doc_0 -->
<g id="node1" class="node">
<title>doc_0</title>
<ellipse fill="none" stroke="#000000" cx="319.3148" cy="-433.4" rx="42.1216" ry="18"/>
<text text-anchor="middle" x="319.3148" y="-429.2" font-family="Helvetica,sans-Serif" font-size="14.00" fill="#000000">doc &#45; 17</text>
</g>
<!-- section_1 -->
<g id="node2" class="node">
<title>section_1</title>
<ellipse fill="none" stroke="#000000" cx="163.3148" cy="-361.4" rx="55.6456" ry="18"/>
<text text-anchor="middle" x="163.3148" y="-357.2" font-family="Helvetica,sans-Serif" font-size="14.00" fill="#000000">section: 1&#45;5</text>
</g>
<!-- doc_0&#45;&gt;section_1 -->
<g id="edge1" class="edge">
<title>doc_0&#45;&gt;section_1</title>
<path fill="none" stroke="#000000" stroke-dasharray="5,2" d="M290.702,-420.1941C266.6248,-409.0816 231.8821,-393.0465 204.7597,-380.5284"/>
<polygon fill="#000000" stroke="#000000" points="206.0602,-377.2739 195.5139,-376.2612 203.1268,-383.6297 206.0602,-377.2739"/>
</g>
<!-- section_2 -->
<g id="node3" class="node">
<title>section_2</title>
<ellipse fill="none" stroke="#000000" cx="319.3148" cy="-361.4" rx="60.9826" ry="18"/>
<text text-anchor="middle" x="319.3148" y="-357.2" font-family="Helvetica,sans-Serif" font-size="14.00" fill="#000000">section: 6&#45;10</text>
</g>
<!-- doc_0&#45;&gt;section_2 -->
<g id="edge2" class="edge">
<title>doc_0&#45;&gt;section_2</title>
<path fill="none" stroke="#000000" stroke-dasharray="5,2" d="M319.3148,-415.2314C319.3148,-407.531 319.3148,-398.3744 319.3148,-389.8167"/>
<polygon fill="#000000" stroke="#000000" points="322.8149,-389.8133 319.3148,-379.8133 315.8149,-389.8133 322.8149,-389.8133"/>
</g>
<!-- section_3 -->
<g id="node4" class="node">
<title>section_3</title>
<ellipse fill="none" stroke="#000000" cx="537.3148" cy="-361.4" rx="65.0143" ry="18"/>
<text text-anchor="middle" x="537.3148" y="-357.2" font-family="Helvetica,sans-Serif" font-size="14.00" fill="#000000">section: 11&#45;14</text>
</g>
<!-- doc_0&#45;&gt;section_3 -->
<g id="edge3" class="edge">
<title>doc_0&#45;&gt;section_3</title>
<path fill="none" stroke="#000000" stroke-dasharray="5,2" d="M352.8995,-422.3078C388.3927,-410.5853 444.8114,-391.9516 485.9071,-378.3787"/>
<polygon fill="#000000" stroke="#000000" points="487.0789,-381.6777 495.4767,-375.2181 484.8835,-375.0309 487.0789,-381.6777"/>
</g>
<!-- header_4 -->
<g id="node5" class="node">
<title>header_4</title>
<ellipse fill="none" stroke="#000000" cx="56.3148" cy="-289.4" rx="56.1302" ry="18"/>
<text text-anchor="middle" x="56.3148" y="-285.2" font-family="Helvetica,sans-Serif" font-size="14.00" fill="#000000">1 : Sections</text>
</g>
<!-- section_1&#45;&gt;header_4 -->
<g id="edge4" class="edge">
<title>section_1&#45;&gt;header_4</title>
<path fill="none" stroke="#000000" stroke-dasharray="5,2" d="M139.0348,-345.0621C124.2598,-335.12 105.1956,-322.2918 89.0935,-311.4567"/>
<polygon fill="#000000" stroke="#000000" points="90.7492,-308.3523 80.4987,-305.6733 86.8413,-314.1599 90.7492,-308.3523"/>
</g>
<!-- prose_5 -->
<g id="node6" class="node">
<title>prose_5</title>
<ellipse fill="none" stroke="#000000" cx="163.3148" cy="-289.4" rx="32.4585" ry="18"/>
<text text-anchor="middle" x="163.3148" y="-285.2" font-family="Helvetica,sans-Serif" font-size="14.00" fill="#000000">prose</text>
</g>
<!-- section_1&#45;&gt;prose_5 -->
<g id="edge5" class="edge">
<title>section_1&#45;&gt;prose_5</title>
<path fill="none" stroke="#000000" stroke-dasharray="5,2" d="M163.3148,-343.2314C163.3148,-335.531 163.3148,-326.3744 163.3148,-317.8167"/>
<polygon fill="#000000" stroke="#000000" points="166.8149,-317.8133 163.3148,-307.8133 159.8149,-317.8133 166.8149,-317.8133"/>
</g>
<!-- header_9 -->
<g id="node10" class="node">
<title>header_9</title>
<ellipse fill="none" stroke="#000000" cx="270.3148" cy="-289.4" rx="56.1302" ry="18"/>
<text text-anchor="middle" x="270.3148" y="-285.2" font-family="Helvetica,sans-Serif" font-size="14.00" fill="#000000">1 : Sections</text>
</g>
<!-- section_2&#45;&gt;header_9 -->
<g id="edge9" class="edge">
<title>section_2&#45;&gt;header_9</title>
<path fill="none" stroke="#000000" stroke-dasharray="5,2" d="M307.2024,-343.6023C301.4467,-335.1448 294.4531,-324.8685 288.1093,-315.547"/>
<polygon fill="#000000" stroke="#000000" points="290.8076,-313.291 282.2878,-306.9931 285.0206,-317.2294 290.8076,-313.291"/>
</g>
<!-- prose_10 -->
<g id="node11" class="node">
<title>prose_10</title>
<ellipse fill="none" stroke="#000000" cx="377.3148" cy="-289.4" rx="32.4585" ry="18"/>
<text text-anchor="middle" x="377.3148" y="-285.2" font-family="Helvetica,sans-Serif" font-size="14.00" fill="#000000">prose</text>
</g>
<!-- section_2&#45;&gt;prose_10 -->
<g id="edge10" class="edge">
<title>section_2&#45;&gt;prose_10</title>
<path fill="none" stroke="#000000" stroke-dasharray="5,2" d="M333.6519,-343.6023C340.8852,-334.623 349.7701,-323.5934 357.6326,-313.8331"/>
<polygon fill="#000000" stroke="#000000" points="360.3902,-315.9891 363.9379,-306.0059 354.9389,-311.5978 360.3902,-315.9891"/>
</g>
<!-- header_14 -->
<g id="node15" class="node">
<title>header_14</title>
<ellipse fill="none" stroke="#000000" cx="484.3148" cy="-289.4" rx="56.1302" ry="18"/>
<text text-anchor="middle" x="484.3148" y="-285.2" font-family="Helvetica,sans-Serif" font-size="14.00" fill="#000000">1 : Sections</text>
</g>
<!-- section_3&#45;&gt;header_14 -->
<g id="edge14" class="edge">
<title>section_3&#45;&gt;header_14</title>
<path fill="none" stroke="#000000" stroke-dasharray="5,2" d="M524.2137,-343.6023C517.9239,-335.0576 510.2674,-324.6564 503.3499,-315.259"/>
<polygon fill="#000000" stroke="#000000" points="506.0121,-312.9716 497.2652,-306.9931 500.3747,-317.1213 506.0121,-312.9716"/>
</g>
<!-- prose_15 -->
<g id="node16" class="node">
<title>prose_15</title>
<ellipse fill="none" stroke="#000000" cx="591.3148" cy="-289.4" rx="32.4585" ry="18"/>
<text text-anchor="middle" x="591.3148" y="-285.2" font-family="Helvetica,sans-Serif" font-size="14.00" fill="#000000">prose</text>
</g>
<!-- section_3&#45;&gt;prose_15 -->
<g id="edge15" class="edge">
<title>section_3&#45;&gt;prose_15</title>
<path fill="none" stroke="#000000" stroke-dasharray="5,2" d="M550.6631,-343.6023C557.3302,-334.7128 565.5044,-323.8138 572.7701,-314.1263"/>
<polygon fill="#000000" stroke="#000000" points="575.6604,-316.1059 578.8604,-306.0059 570.0604,-311.9059 575.6604,-316.1059"/>
</g>
<!-- section_16 -->
<g id="node17" class="node">
<title>section_16</title>
<ellipse fill="none" stroke="#000000" cx="707.3148" cy="-289.4" rx="65.8187" ry="18"/>
<text text-anchor="middle" x="707.3148" y="-285.2" font-family="Helvetica,sans-Serif" font-size="14.00" fill="#000000">section: 15&#45;17</text>
</g>
<!-- section_3&#45;&gt;section_16 -->
<g id="edge16" class="edge">
<title>section_3&#45;&gt;section_16</title>
<path fill="none" stroke="#000000" stroke-dasharray="5,2" d="M572.9524,-346.3065C598.8191,-335.3511 634.0193,-320.4428 661.9018,-308.6337"/>
<polygon fill="#000000" stroke="#000000" points="663.5886,-311.7204 671.4318,-304.5975 660.8586,-305.2747 663.5886,-311.7204"/>
</g>
<!-- leaf_6 -->
<g id="node7" class="node">
<title>leaf_6</title>
<polygon fill="none" stroke="#c0c0c0" points="83.3148,-235.4 29.3148,-235.4 29.3148,-199.4 83.3148,-199.4 83.3148,-235.4"/>
</g>
<!-- header_4&#45;&gt;leaf_6 -->
<g id="edge6" class="edge">
<title>header_4&#45;&gt;leaf_6</title>
<path fill="none" stroke="#000000" stroke-dasharray="5,2" d="M56.3148,-271.2314C56.3148,-263.531 56.3148,-254.3744 56.3148,-245.8167"/>
<polygon fill="#000000" stroke="#000000" points="59.8149,-245.8133 56.3148,-235.8133 52.8149,-245.8133 59.8149,-245.8133"/>
</g>
<!-- raw_7 -->
<g id="node8" class="node">
<title>raw_7</title>
<ellipse fill="none" stroke="#000000" cx="163.3148" cy="-217.4" rx="27" ry="18"/>
<text text-anchor="middle" x="163.3148" y="-213.2" font-family="Helvetica,sans-Serif" font-size="14.00" fill="#000000">raw</text>
</g>
<!-- prose_5&#45;&gt;raw_7 -->
<g id="edge7" class="edge">
<title>prose_5&#45;&gt;raw_7</title>
<path fill="none" stroke="#000000" stroke-dasharray="5,2" d="M163.3148,-271.2314C163.3148,-263.531 163.3148,-254.3744 163.3148,-245.8167"/>
<polygon fill="#000000" stroke="#000000" points="166.8149,-245.8133 163.3148,-235.8133 159.8149,-245.8133 166.8149,-245.8133"/>
</g>
<!-- leaf_8 -->
<g id="node9" class="node">
<title>leaf_8</title>
<polygon fill="none" stroke="#c0c0c0" points="190.3148,-163.4 136.3148,-163.4 136.3148,-91.4 190.3148,-91.4 190.3148,-163.4"/>
</g>
<!-- raw_7&#45;&gt;leaf_8 -->
<g id="edge8" class="edge">
<title>raw_7&#45;&gt;leaf_8</title>
<path fill="none" stroke="#000000" stroke-dasharray="5,2" d="M163.3148,-199.1872C163.3148,-191.7234 163.3148,-182.7138 163.3148,-173.637"/>
<polygon fill="#000000" stroke="#000000" points="166.8149,-173.4393 163.3148,-163.4393 159.8149,-173.4394 166.8149,-173.4393"/>
</g>
<!-- leaf_11 -->
<g id="node12" class="node">
<title>leaf_11</title>
<polygon fill="none" stroke="#c0c0c0" points="297.3148,-235.4 243.3148,-235.4 243.3148,-199.4 297.3148,-199.4 297.3148,-235.4"/>
</g>
<!-- header_9&#45;&gt;leaf_11 -->
<g id="edge11" class="edge">
<title>header_9&#45;&gt;leaf_11</title>
<path fill="none" stroke="#000000" stroke-dasharray="5,2" d="M270.3148,-271.2314C270.3148,-263.531 270.3148,-254.3744 270.3148,-245.8167"/>
<polygon fill="#000000" stroke="#000000" points="273.8149,-245.8133 270.3148,-235.8133 266.8149,-245.8133 273.8149,-245.8133"/>
</g>
<!-- raw_12 -->
<g id="node13" class="node">
<title>raw_12</title>
<ellipse fill="none" stroke="#000000" cx="377.3148" cy="-217.4" rx="27" ry="18"/>
<text text-anchor="middle" x="377.3148" y="-213.2" font-family="Helvetica,sans-Serif" font-size="14.00" fill="#000000">raw</text>
</g>
<!-- prose_10&#45;&gt;raw_12 -->
<g id="edge12" class="edge">
<title>prose_10&#45;&gt;raw_12</title>
<path fill="none" stroke="#000000" stroke-dasharray="5,2" d="M377.3148,-271.2314C377.3148,-263.531 377.3148,-254.3744 377.3148,-245.8167"/>
<polygon fill="#000000" stroke="#000000" points="380.8149,-245.8133 377.3148,-235.8133 373.8149,-245.8133 380.8149,-245.8133"/>
</g>
<!-- leaf_13 -->
<g id="node14" class="node">
<title>leaf_13</title>
<polygon fill="none" stroke="#c0c0c0" points="404.3148,-163.4 350.3148,-163.4 350.3148,-91.4 404.3148,-91.4 404.3148,-163.4"/>
</g>
<!-- raw_12&#45;&gt;leaf_13 -->
<g id="edge13" class="edge">
<title>raw_12&#45;&gt;leaf_13</title>
<path fill="none" stroke="#000000" stroke-dasharray="5,2" d="M377.3148,-199.1872C377.3148,-191.7234 377.3148,-182.7138 377.3148,-173.637"/>
<polygon fill="#000000" stroke="#000000" points="380.8149,-173.4393 377.3148,-163.4393 373.8149,-173.4394 380.8149,-173.4393"/>
</g>
<!-- leaf_17 -->
<g id="node18" class="node">
<title>leaf_17</title>
<polygon fill="none" stroke="#c0c0c0" points="511.3148,-235.4 457.3148,-235.4 457.3148,-199.4 511.3148,-199.4 511.3148,-235.4"/>
</g>
<!-- header_14&#45;&gt;leaf_17 -->
<g id="edge17" class="edge">
<title>header_14&#45;&gt;leaf_17</title>
<path fill="none" stroke="#000000" stroke-dasharray="5,2" d="M484.3148,-271.2314C484.3148,-263.531 484.3148,-254.3744 484.3148,-245.8167"/>
<polygon fill="#000000" stroke="#000000" points="487.8149,-245.8133 484.3148,-235.8133 480.8149,-245.8133 487.8149,-245.8133"/>
</g>
<!-- raw_18 -->
<g id="node19" class="node">
<title>raw_18</title>
<ellipse fill="none" stroke="#000000" cx="591.3148" cy="-217.4" rx="27" ry="18"/>
<text text-anchor="middle" x="591.3148" y="-213.2" font-family="Helvetica,sans-Serif" font-size="14.00" fill="#000000">raw</text>
</g>
<!-- prose_15&#45;&gt;raw_18 -->
<g id="edge18" class="edge">
<title>prose_15&#45;&gt;raw_18</title>
<path fill="none" stroke="#000000" stroke-dasharray="5,2" d="M591.3148,-271.2314C591.3148,-263.531 591.3148,-254.3744 591.3148,-245.8167"/>
<polygon fill="#000000" stroke="#000000" points="594.8149,-245.8133 591.3148,-235.8133 587.8149,-245.8133 594.8149,-245.8133"/>
</g>
<!-- header_20 -->
<g id="node21" class="node">
<title>header_20</title>
<ellipse fill="none" stroke="#000000" cx="706.3148" cy="-217.4" rx="69.1929" ry="18"/>
<text text-anchor="middle" x="706.3148" y="-213.2" font-family="Helvetica,sans-Serif" font-size="14.00" fill="#000000">2 : Sectionmnn</text>
</g>
<!-- section_16&#45;&gt;header_20 -->
<g id="edge20" class="edge">
<title>section_16&#45;&gt;header_20</title>
<path fill="none" stroke="#000000" stroke-dasharray="5,2" d="M707.0625,-271.2314C706.9555,-263.531 706.8283,-254.3744 706.7095,-245.8167"/>
<polygon fill="#000000" stroke="#000000" points="710.2092,-245.7637 706.5705,-235.8133 703.2098,-245.861 710.2092,-245.7637"/>
</g>
<!-- prose_21 -->
<g id="node22" class="node">
<title>prose_21</title>
<ellipse fill="none" stroke="#000000" cx="825.3148" cy="-217.4" rx="32.4585" ry="18"/>
<text text-anchor="middle" x="825.3148" y="-213.2" font-family="Helvetica,sans-Serif" font-size="14.00" fill="#000000">prose</text>
</g>
<!-- section_16&#45;&gt;prose_21 -->
<g id="edge21" class="edge">
<title>section_16&#45;&gt;prose_21</title>
<path fill="none" stroke="#000000" stroke-dasharray="5,2" d="M734.3864,-272.8818C752.3963,-261.8927 776.0863,-247.4378 794.7702,-236.0374"/>
<polygon fill="#000000" stroke="#000000" points="796.78,-238.9112 803.4934,-230.7148 793.1339,-232.9357 796.78,-238.9112"/>
</g>
<!-- leaf_19 -->
<g id="node20" class="node">
<title>leaf_19</title>
<polygon fill="none" stroke="#c0c0c0" points="618.3148,-155.3015 564.3148,-155.3015 564.3148,-99.4985 618.3148,-99.4985 618.3148,-155.3015"/>
<text text-anchor="middle" x="591.3148" y="-107.9" font-family="Inconsolata" font-size="14.00" fill="#000000">asdf</text>
</g>
<!-- raw_18&#45;&gt;leaf_19 -->
<g id="edge19" class="edge">
<title>raw_18&#45;&gt;leaf_19</title>
<path fill="none" stroke="#000000" stroke-dasharray="5,2" d="M591.3148,-199.1872C591.3148,-189.4144 591.3148,-176.9915 591.3148,-165.2377"/>
<polygon fill="#000000" stroke="#000000" points="594.8149,-165.1642 591.3148,-155.1642 587.8149,-165.1643 594.8149,-165.1642"/>
</g>
<!-- leaf_22 -->
<g id="node23" class="node">
<title>leaf_22</title>
<polygon fill="none" stroke="#c0c0c0" points="733.3148,-145.4 679.3148,-145.4 679.3148,-109.4 733.3148,-109.4 733.3148,-145.4"/>
</g>
<!-- header_20&#45;&gt;leaf_22 -->
<g id="edge22" class="edge">
<title>header_20&#45;&gt;leaf_22</title>
<path fill="none" stroke="#000000" stroke-dasharray="5,2" d="M706.3148,-199.1872C706.3148,-186.7443 706.3148,-170.0053 706.3148,-155.8211"/>
<polygon fill="#000000" stroke="#000000" points="709.8149,-155.5858 706.3148,-145.5858 702.8149,-155.5858 709.8149,-155.5858"/>
</g>
<!-- raw_23 -->
<g id="node24" class="node">
<title>raw_23</title>
<ellipse fill="none" stroke="#000000" cx="825.3148" cy="-127.4" rx="27" ry="18"/>
<text text-anchor="middle" x="825.3148" y="-123.2" font-family="Helvetica,sans-Serif" font-size="14.00" fill="#000000">raw</text>
</g>
<!-- prose_21&#45;&gt;raw_23 -->
<g id="edge23" class="edge">
<title>prose_21&#45;&gt;raw_23</title>
<path fill="none" stroke="#000000" stroke-dasharray="5,2" d="M825.3148,-199.1872C825.3148,-186.7443 825.3148,-170.0053 825.3148,-155.8211"/>
<polygon fill="#000000" stroke="#000000" points="828.8149,-155.5858 825.3148,-145.5858 821.8149,-155.5858 828.8149,-155.5858"/>
</g>
<!-- leaf_24 -->
<g id="node25" class="node">
<title>leaf_24</title>
<polygon fill="none" stroke="#c0c0c0" points="852.3148,-55.6015 798.3148,-55.6015 798.3148,.2015 852.3148,.2015 852.3148,-55.6015"/>
<text text-anchor="middle" x="825.3148" y="-8.2" font-family="Inconsolata" font-size="14.00" fill="#000000">qqqq</text>
</g>
<!-- raw_23&#45;&gt;leaf_24 -->
<g id="edge24" class="edge">
<title>raw_23&#45;&gt;leaf_24</title>
<path fill="none" stroke="#000000" stroke-dasharray="5,2" d="M825.3148,-109.1135C825.3148,-96.9638 825.3148,-80.5648 825.3148,-65.6687"/>
<polygon fill="#000000" stroke="#000000" points="828.8149,-65.6668 825.3148,-55.6668 821.8149,-65.6668 828.8149,-65.6668"/>
</g>
</g>
</svg>