<?xml version="1.0" encoding="UTF-8" standalone="no"?>
<!DOCTYPE svg PUBLIC "-//W3C//DTD SVG 1.1//EN"
 "http://www.w3.org/Graphics/SVG/1.1/DTD/svg11.dtd">
<!-- Generated by graphviz version 2.40.1 (20161225.0304)
 -->
<!-- Title: hierarchy Pages: 1 -->
<svg width="866pt" height="355pt"
 viewBox="0.00 0.00 865.54 355.40" xmlns="http://www.w3.org/2000/svg" xmlns:xlink="http://www.w3.org/1999/xlink">
<g id="graph0" class="graph" transform="scale(1 1) rotate(0) translate(4 351.4)">
<title>hierarchy</title>
<polygon fill="#ffffff" stroke="transparent" points="-4,4 -4,-351.4 861.5432,-351.4 861.5432,4 -4,4"/>
<!-- doc_0 -->
<g id="node1" class="node">
<title>doc_0</title>
<ellipse fill="none" stroke="#000000" cx="319.3148" cy="-329.4" rx="42.1216" ry="18"/>
<text text-anchor="middle" x="319.3148" y="-325.2" font-family="Helvetica,sans-Serif" font-size="14.00" fill="#000000">doc &#45; 17</text>
</g>
<!-- section_1 -->
<g id="node2" class="node">
<title>section_1</title>
<ellipse fill="none" stroke="#000000" cx="163.3148" cy="-257.4" rx="55.6456" ry="18"/>
<text text-anchor="middle" x="163.3148" y="-253.2" font-family="Helvetica,sans-Serif" font-size="14.00" fill="#000000">section: 1&#45;5</text>
</g>
<!-- doc_0&#45;&gt;section_1 -->
<g id="edge1" class="edge">
<title>doc_0&#45;&gt;section_1</title>
<path fill="none" stroke="#000000" stroke-dasharray="5,2" d="M290.702,-316.1941C266.6248,-305.0816 231.8821,-289.0465 204.7597,-276.5284"/>
<polygon fill="#000000" stroke="#000000" points="206.0602,-273.2739 195.5139,-272.2612 203.1268,-279.6297 206.0602,-273.2739"/>
</g>
<!-- section_2 -->
<g id="node3" class="node">
<title>section_2</title>
<ellipse fill="none" stroke="#000000" cx="319.3148" cy="-257.4" rx="60.9826" ry="18"/>
<text text-anchor="middle" x="319.3148" y="-253.2" font-family="Helvetica,sans-Serif" font-size="14.00" fill="#000000">section: 6&#45;10</text>
</g>
<!-- doc_0&#45;&gt;section_2 -->
<g id="edge2" class="edge">
<title>doc_0&#45;&gt;section_2</title>
<path fill="none" stroke="#000000" stroke-dasharray="5,2" d="M319.3148,-311.2314C319.3148,-303.531 319.3148,-294.3744 319.3148,-285.8167"/>
<polygon fill="#000000" stroke="#000000" points="322.8149,-285.8133 319.3148,-275.8133 315.8149,-285.8133 322.8149,-285.8133"/>
</g>
<!-- section_3 -->
<g id="node4" class="node">
<title>section_3</title>
<ellipse fill="none" stroke="#000000" cx="537.3148" cy="-257.4" rx="65.0143" ry="18"/>
<text text-anchor="middle" x="537.3148" y="-253.2" font-family="Helvetica,sans-Serif" font-size="14.00" fill="#000000">section: 11&#45;14</text>
</g>
<!-- doc_0&#45;&gt;section_3 -->
<g id="edge3" class="edge">
<title>doc_0&#45;&gt;section_3</title>
<path fill="none" stroke="#000000" stroke-dasharray="5,2" d="M352.8995,-318.3078C388.3927,-306.5853 444.8114,-287.9516 485.9071,-274.3787"/>
<polygon fill="#000000" stroke="#000000" points="487.0789,-277.6777 495.4767,-271.2181 484.8835,-271.0309 487.0789,-277.6777"/>
</g>
<!-- header_4 -->
<g id="node5" class="node">
<title>header_4</title>
<ellipse fill="none" stroke="#000000" cx="56.3148" cy="-185.4" rx="56.1302" ry="18"/>
<text text-anchor="middle" x="56.3148" y="-181.2" font-family="Helvetica,sans-Serif" font-size="14.00" fill="#000000">1 : Sections</text>
</g>
<!-- section_1&#45;&gt;header_4 -->
<g id="edge4" class="edge">
<title>section_1&#45;&gt;header_4</title>
<path fill="none" stroke="#000000" stroke-dasharray="5,2" d="M139.0348,-241.0621C124.2598,-231.12 105.1956,-218.2918 89.0935,-207.4567"/>
<polygon fill="#000000" stroke="#000000" points="90.7492,-204.3523 80.4987,-201.6733 86.8413,-210.1599 90.7492,-204.3523"/>
</g>
<!-- prose_5 -->
<g id="node6" class="node">
<title>prose_5</title>
<ellipse fill="none" stroke="#000000" cx="163.3148" cy="-185.4" rx="32.4585" ry="18"/>
<text text-anchor="middle" x="163.3148" y="-181.2" font-family="Helvetica,sans-Serif" font-size="14.00" fill="#000000">prose</text>
</g>
<!-- section_1&#45;&gt;prose_5 -->
<g id="edge5" class="edge">
<title>section_1&#45;&gt;prose_5</title>
<path fill="none" stroke="#000000" stroke-dasharray="5,2" d="M163.3148,-239.2314C163.3148,-231.531 163.3148,-222.3744 163.3148,-213.8167"/>
<polygon fill="#000000" stroke="#000000" points="166.8149,-213.8133 163.3148,-203.8133 159.8149,-213.8133 166.8149,-213.8133"/>
</g>
<!-- header_7 -->
<g id="node8" class="node">
<title>header_7</title>
<ellipse fill="none" stroke="#000000" cx="270.3148" cy="-185.4" rx="56.1302" ry="18"/>
<text text-anchor="middle" x="270.3148" y="-181.2" font-family="Helvetica,sans-Serif" font-size="14.00" fill="#000000">1 : Sections</text>
</g>
<!-- section_2&#45;&gt;header_7 -->
<g id="edge7" class="edge">
<title>section_2&#45;&gt;header_7</title>
<path fill="none" stroke="#000000" stroke-dasharray="5,2" d="M307.2024,-239.6023C301.4467,-231.1448 294.4531,-220.8685 288.1093,-211.547"/>
<polygon fill="#000000" stroke="#000000" points="290.8076,-209.291 282.2878,-202.9931 285.0206,-213.2294 290.8076,-209.291"/>
</g>
<!-- prose_8 -->
<g id="node9" class="node">
<title>prose_8</title>
<ellipse fill="none" stroke="#000000" cx="377.3148" cy="-185.4" rx="32.4585" ry="18"/>
<text text-anchor="middle" x="377.3148" y="-181.2" font-family="Helvetica,sans-Serif" font-size="14.00" fill="#000000">prose</text>
</g>
<!-- section_2&#45;&gt;prose_8 -->
<g id="edge8" class="edge">
<title>section_2&#45;&gt;prose_8</title>
<path fill="none" stroke="#000000" stroke-dasharray="5,2" d="M333.6519,-239.6023C340.8852,-230.623 349.7701,-219.5934 357.6326,-209.8331"/>
<polygon fill="#000000" stroke="#000000" points="360.3902,-211.9891 363.9379,-202.0059 354.9389,-207.5978 360.3902,-211.9891"/>
</g>
<!-- header_10 -->
<g id="node11" class="node">
<title>header_10</title>
<ellipse fill="none" stroke="#000000" cx="484.3148" cy="-185.4" rx="56.1302" ry="18"/>
<text text-anchor="middle" x="484.3148" y="-181.2" font-family="Helvetica,sans-Serif" font-size="14.00" fill="#000000">1 : Sections</text>
</g>
<!-- section_3&#45;&gt;header_10 -->
<g id="edge10" class="edge">
<title>section_3&#45;&gt;header_10</title>
<path fill="none" stroke="#000000" stroke-dasharray="5,2" d="M524.2137,-239.6023C517.9239,-231.0576 510.2674,-220.6564 503.3499,-211.259"/>
<polygon fill="#000000" stroke="#000000" points="506.0121,-208.9716 497.2652,-202.9931 500.3747,-213.1213 506.0121,-208.9716"/>
</g>
<!-- prose_11 -->
<g id="node12" class="node">
<title>prose_11</title>
<ellipse fill="none" stroke="#000000" cx="591.3148" cy="-185.4" rx="32.4585" ry="18"/>
<text text-anchor="middle" x="591.3148" y="-181.2" font-family="Helvetica,sans-Serif" font-size="14.00" fill="#000000">prose</text>
</g>
<!-- section_3&#45;&gt;prose_11 -->
<g id="edge11" class="edge">
<title>section_3&#45;&gt;prose_11</title>
<path fill="none" stroke="#000000" stroke-dasharray="5,2" d="M550.6631,-239.6023C557.3302,-230.7128 565.5044,-219.8138 572.7701,-210.1263"/>
<polygon fill="#000000" stroke="#000000" points="575.6604,-212.1059 578.8604,-202.0059 570.0604,-207.9059 575.6604,-212.1059"/>
</g>
<!-- section_12 -->
<g id="node13" class="node">
<title>section_12</title>
<ellipse fill="none" stroke="#000000" cx="707.3148" cy="-185.4" rx="65.8187" ry="18"/>
<text text-anchor="middle" x="707.3148" y="-181.2" font-family="Helvetica,sans-Serif" font-size="14.00" fill="#000000">section: 15&#45;17</text>
</g>
<!-- section_3&#45;&gt;section_12 -->
<g id="edge12" class="edge">
<title>section_3&#45;&gt;section_12</title>
<path fill="none" stroke="#000000" stroke-dasharray="5,2" d="M572.9524,-242.3065C598.8191,-231.3511 634.0193,-216.4428 661.9018,-204.6337"/>
<polygon fill="#000000" stroke="#000000" points="663.5886,-207.7204 671.4318,-200.5975 660.8586,-201.2747 663.5886,-207.7204"/>
</g>
<!-- leaf_6 -->
<g id="node7" class="node">
<title>leaf_6</title>
<polygon fill="none" stroke="#c0c0c0" points="190.3148,-131.4 136.3148,-131.4 136.3148,-75.4 190.3148,-75.4 190.3148,-131.4"/>
</g>
<!-- prose_5&#45;&gt;leaf_6 -->
<g id="edge6" class="edge">
<title>prose_5&#45;&gt;leaf_6</title>
<path fill="none" stroke="#000000" stroke-dasharray="5,2" d="M163.3148,-167.2016C163.3148,-159.6729 163.3148,-150.6402 163.3148,-141.7721"/>
<polygon fill="#000000" stroke="#000000" points="166.8149,-141.5373 163.3148,-131.5373 159.8149,-141.5373 166.8149,-141.5373"/>
</g>
<!-- leaf_9 -->
<g id="node10" class="node">
<title>leaf_9</title>
<polygon fill="none" stroke="#c0c0c0" points="404.3148,-131.4 350.3148,-131.4 350.3148,-75.4 404.3148,-75.4 404.3148,-131.4"/>
</g>
<!-- prose_8&#45;&gt;leaf_9 -->
<g id="edge9" class="edge">
<title>prose_8&#45;&gt;leaf_9</title>
<path fill="none" stroke="#000000" stroke-dasharray="5,2" d="M377.3148,-167.2016C377.3148,-159.6729 377.3148,-150.6402 377.3148,-141.7721"/>
<polygon fill="#000000" stroke="#000000" points="380.8149,-141.5373 377.3148,-131.5373 373.8149,-141.5373 380.8149,-141.5373"/>
</g>
<!-- leaf_13 -->
<g id="node14" class="node">
<title>leaf_13</title>
<polygon fill="none" stroke="#c0c0c0" points="618.3148,-123.3021 564.3148,-123.3021 564.3148,-83.4979 618.3148,-83.4979 618.3148,-123.3021"/>
<text text-anchor="middle" x="591.3148" y="-91.9" font-family="Inconsolata" font-size="14.00" fill="#000000">asdf</text>
</g>
<!-- prose_11&#45;&gt;leaf_13 -->
<g id="edge13" class="edge">
<title>prose_11&#45;&gt;leaf_13</title>
<path fill="none" stroke="#000000" stroke-dasharray="5,2" d="M591.3148,-167.2016C591.3148,-157.3329 591.3148,-144.8799 591.3148,-133.601"/>
<polygon fill="#000000" stroke="#000000" points="594.8149,-133.2695 591.3148,-123.2696 587.8149,-133.2696 594.8149,-133.2695"/>
</g>
<!-- header_14 -->
<g id="node15" class="node">
<title>header_14</title>
<ellipse fill="none" stroke="#000000" cx="706.3148" cy="-103.4" rx="69.1929" ry="18"/>
<text text-anchor="middle" x="706.3148" y="-99.2" font-family="Helvetica,sans-Serif" font-size="14.00" fill="#000000">2 : Sectionmnn</text>
</g>
<!-- section_12&#45;&gt;header_14 -->
<g id="edge14" class="edge">
<title>section_12&#45;&gt;header_14</title>
<path fill="none" stroke="#000000" stroke-dasharray="5,2" d="M707.0929,-167.2016C706.966,-156.7976 706.8041,-143.5215 706.6609,-131.7768"/>
<polygon fill="#000000" stroke="#000000" points="710.1579,-131.5042 706.5361,-121.5476 703.1584,-131.5896 710.1579,-131.5042"/>
</g>
<!-- prose_15 -->
<g id="node16" class="node">
<title>prose_15</title>
<ellipse fill="none" stroke="#000000" cx="825.3148" cy="-103.4" rx="32.4585" ry="18"/>
<text text-anchor="middle" x="825.3148" y="-99.2" font-family="Helvetica,sans-Serif" font-size="14.00" fill="#000000">prose</text>
</g>
<!-- section_12&#45;&gt;prose_15 -->
<g id="edge15" class="edge">
<title>section_12&#45;&gt;prose_15</title>
<path fill="none" stroke="#000000" stroke-dasharray="5,2" d="M731.4786,-168.6082C750.3913,-155.4655 776.7444,-137.1524 796.7095,-123.2783"/>
<polygon fill="#000000" stroke="#000000" points="798.8939,-126.0225 805.1085,-117.4417 794.8993,-120.2742 798.8939,-126.0225"/>
</g>
<!-- leaf_16 -->
<g id="node17" class="node">
<title>leaf_16</title>
<polygon fill="none" stroke="#c0c0c0" points="852.3148,-39.6021 798.3148,-39.6021 798.3148,.2021 852.3148,.2021 852.3148,-39.6021"/>
<text text-anchor="middle" x="825.3148" y="-8.2" font-family="Inconsolata" font-size="14.00" fill="#000000">qqqq</text>
</g>
<!-- prose_15&#45;&gt;leaf_16 -->
<g id="edge16" class="edge">
<title>prose_15&#45;&gt;leaf_16</title>
<path fill="none" stroke="#000000" stroke-dasharray="5,2" d="M825.3148,-85.2384C825.3148,-74.9313 825.3148,-61.7658 825.3148,-49.9425"/>
<polygon fill="#000000" stroke="#000000" points="828.8149,-49.5821 825.3148,-39.5822 821.8149,-49.5822 828.8149,-49.5821"/>
</g>
</g>
</svg>