<?xml version="1.0" encoding="UTF-8" standalone="no"?>
<!DOCTYPE svg PUBLIC "-//W3C//DTD SVG 1.1//EN"
 "http://www.w3.org/Graphics/SVG/1.1/DTD/svg11.dtd">
<!-- Generated by graphviz version 2.40.1 (20161225.0304)
 -->
<!-- Title: hierarchy Pages: 1 -->
<svg width="408pt" height="116pt"
 viewBox="0.00 0.00 407.83 116.00" xmlns="http://www.w3.org/2000/svg" xmlns:xlink="http://www.w3.org/1999/xlink">
<g id="graph0" class="graph" transform="scale(1 1) rotate(0) translate(4 112)">
<title>hierarchy</title>
<polygon fill="#ffffff" stroke="transparent" points="-4,4 -4,-112 403.8297,-112 403.8297,4 -4,4"/>
<!-- doc_0 -->
<g id="node1" class="node">
<title>doc_0</title>
<ellipse fill="none" stroke="#000000" cx="190.8225" cy="-90" rx="42.1216" ry="18"/>
<text text-anchor="middle" x="190.8225" y="-85.8" font-family="Helvetica,sans-Serif" font-size="14.00" fill="#000000">doc &#45; 17</text>
</g>
<!-- section_1 -->
<g id="node2" class="node">
<title>section_1</title>
<ellipse fill="none" stroke="#000000" cx="55.8225" cy="-18" rx="55.6456" ry="18"/>
<text text-anchor="middle" x="55.8225" y="-13.8" font-family="Helvetica,sans-Serif" font-size="14.00" fill="#000000">section: 1&#45;5</text>
</g>
<!-- doc_0&#45;&gt;section_1 -->
<g id="edge1" class="edge">
<title>doc_0&#45;&gt;section_1</title>
<path fill="none" stroke="#000000" stroke-dasharray="5,2" d="M164.4727,-75.9468C144.3752,-65.2281 116.4074,-50.3119 93.8807,-38.2977"/>
<polygon fill="#000000" stroke="#000000" points="95.3849,-35.1333 84.9143,-33.5156 92.0908,-41.3098 95.3849,-35.1333"/>
</g>
<!-- section_2 -->
<g id="node3" class="node">
<title>section_2</title>
<ellipse fill="none" stroke="#000000" cx="190.8225" cy="-18" rx="60.9826" ry="18"/>
<text text-anchor="middle" x="190.8225" y="-13.8" font-family="Helvetica,sans-Serif" font-size="14.00" fill="#000000">section: 6&#45;10</text>
</g>
<!-- doc_0&#45;&gt;section_2 -->
<g id="edge2" class="edge">
<title>doc_0&#45;&gt;section_2</title>
<path fill="none" stroke="#000000" stroke-dasharray="5,2" d="M190.8225,-71.8314C190.8225,-64.131 190.8225,-54.9743 190.8225,-46.4166"/>
<polygon fill="#000000" stroke="#000000" points="194.3226,-46.4132 190.8225,-36.4133 187.3226,-46.4133 194.3226,-46.4132"/>
</g>
<!-- section_3 -->
<g id="node4" class="node">
<title>section_3</title>
<ellipse fill="none" stroke="#000000" cx="334.8225" cy="-18" rx="65.0143" ry="18"/>
<text text-anchor="middle" x="334.8225" y="-13.8" font-family="Helvetica,sans-Serif" font-size="14.00" fill="#000000">section: 11&#45;14</text>
</g>
<!-- doc_0&#45;&gt;section_3 -->
<g id="edge3" class="edge">
<title>doc_0&#45;&gt;section_3</title>
<path fill="none" stroke="#000000" stroke-dasharray="5,2" d="M218.2468,-76.2879C239.7371,-65.5427 269.9624,-50.4301 294.251,-38.2858"/>
<polygon fill="#000000" stroke="#000000" points="295.8595,-41.3947 303.2385,-33.792 292.729,-35.1337 295.8595,-41.3947"/>
</g>
</g>
</svg>