<?xml version="1.0" encoding="UTF-8" standalone="no"?>
<!DOCTYPE svg PUBLIC "-//W3C//DTD SVG 1.1//EN"
 "http://www.w3.org/Graphics/SVG/1.1/DTD/svg11.dtd">
<!-- Generated by graphviz version 2.40.1 (20161225.0304)
 -->
<!-- Title: hierarchy Pages: 1 -->
<svg width="3570pt" height="458pt"
 viewBox="0.00 0.00 3569.50 457.60" xmlns="http://www.w3.org/2000/svg" xmlns:xlink="http://www.w3.org/1999/xlink">
<g id="graph0" class="graph" transform="scale(1 1) rotate(0) translate(4 453.6001)">
<title>hierarchy</title>
<polygon fill="#ffffff" stroke="transparent" points="-4,4 -4,-453.6001 3565.5,-453.6001 3565.5,4 -4,4"/>
<!-- doc_0 -->
<g id="node1" class="node">
<title>doc_0</title>
<ellipse fill="none" stroke="#000000" cx="1157.5" cy="-431.6001" rx="42.1216" ry="18"/>
<text text-anchor="middle" x="1157.5" y="-427.4001" font-family="Helvetica,sans-Serif" font-size="14.00" fill="#000000">doc &#45; 27</text>
</g>
<!-- section_1 -->
<g id="node2" class="node">
<title>section_1</title>
<ellipse fill="none" stroke="#000000" cx="1157.5" cy="-359.6001" rx="60.9826" ry="18"/>
<text text-anchor="middle" x="1157.5" y="-355.4001" font-family="Helvetica,sans-Serif" font-size="14.00" fill="#000000">section: 1&#45;13</text>
</g>
<!-- doc_0&#45;&gt;section_1 -->
<g id="edge1" class="edge">
<title>doc_0&#45;&gt;section_1</title>
<path fill="none" stroke="#000000" stroke-dasharray="5,2" d="M1157.5,-413.4315C1157.5,-405.7311 1157.5,-396.5745 1157.5,-388.0168"/>
<polygon fill="#000000" stroke="#000000" points="1161.0001,-388.0134 1157.5,-378.0134 1154.0001,-388.0134 1161.0001,-388.0134"/>
</g>
<!-- header_2 -->
<g id="node3" class="node">
<title>header_2</title>
<ellipse fill="none" stroke="#000000" cx="868.5" cy="-287.6001" rx="74.4966" ry="18"/>
<text text-anchor="middle" x="868.5" y="-283.4001" font-family="Helvetica,sans-Serif" font-size="14.00" fill="#000000">1 : Source maps</text>
</g>
<!-- section_1&#45;&gt;header_2 -->
<g id="edge2" class="edge">
<title>section_1&#45;&gt;header_2</title>
<path fill="none" stroke="#000000" stroke-dasharray="5,2" d="M1110.746,-347.9521C1061.7182,-335.7375 984.4286,-316.482 930.3734,-303.0149"/>
<polygon fill="#000000" stroke="#000000" points="931.1121,-299.5921 920.5625,-300.5707 929.4198,-306.3844 931.1121,-299.5921"/>
</g>
<!-- prose_3 -->
<g id="node4" class="node">
<title>prose_3</title>
<ellipse fill="none" stroke="#000000" cx="993.5" cy="-287.6001" rx="32.4585" ry="18"/>
<text text-anchor="middle" x="993.5" y="-283.4001" font-family="Helvetica,sans-Serif" font-size="14.00" fill="#000000">prose</text>
</g>
<!-- section_1&#45;&gt;prose_3 -->
<g id="edge3" class="edge">
<title>section_1&#45;&gt;prose_3</title>
<path fill="none" stroke="#000000" stroke-dasharray="5,2" d="M1123.1202,-344.5066C1095.3097,-332.2971 1056.3158,-315.1778 1028.3739,-302.9106"/>
<polygon fill="#000000" stroke="#000000" points="1029.5513,-299.6051 1018.9879,-298.7899 1026.7374,-306.0146 1029.5513,-299.6051"/>
</g>
<!-- prose_4 -->
<g id="node5" class="node">
<title>prose_4</title>
<ellipse fill="none" stroke="#000000" cx="1075.5" cy="-287.6001" rx="32.4585" ry="18"/>
<text text-anchor="middle" x="1075.5" y="-283.4001" font-family="Helvetica,sans-Serif" font-size="14.00" fill="#000000">prose</text>
</g>
<!-- section_1&#45;&gt;prose_4 -->
<g id="edge4" class="edge">
<title>section_1&#45;&gt;prose_4</title>
<path fill="none" stroke="#000000" stroke-dasharray="5,2" d="M1138.0671,-342.5371C1126.8006,-332.6445 1112.4965,-320.0849 1100.4098,-309.4721"/>
<polygon fill="#000000" stroke="#000000" points="1102.6653,-306.7948 1092.8415,-302.8268 1098.0466,-312.0549 1102.6653,-306.7948"/>
</g>
<!-- prose_5 -->
<g id="node6" class="node">
<title>prose_5</title>
<ellipse fill="none" stroke="#000000" cx="1157.5" cy="-287.6001" rx="32.4585" ry="18"/>
<text text-anchor="middle" x="1157.5" y="-283.4001" font-family="Helvetica,sans-Serif" font-size="14.00" fill="#000000">prose</text>
</g>
<!-- section_1&#45;&gt;prose_5 -->
<g id="edge5" class="edge">
<title>section_1&#45;&gt;prose_5</title>
<path fill="none" stroke="#000000" stroke-dasharray="5,2" d="M1157.5,-341.4315C1157.5,-333.7311 1157.5,-324.5745 1157.5,-316.0168"/>
<polygon fill="#000000" stroke="#000000" points="1161.0001,-316.0134 1157.5,-306.0134 1154.0001,-316.0134 1161.0001,-316.0134"/>
</g>
<!-- prose_6 -->
<g id="node7" class="node">
<title>prose_6</title>
<ellipse fill="none" stroke="#000000" cx="1274.5" cy="-287.6001" rx="32.4585" ry="18"/>
<text text-anchor="middle" x="1274.5" y="-283.4001" font-family="Helvetica,sans-Serif" font-size="14.00" fill="#000000">prose</text>
</g>
<!-- section_1&#45;&gt;prose_6 -->
<g id="edge6" class="edge">
<title>section_1&#45;&gt;prose_6</title>
<path fill="none" stroke="#000000" stroke-dasharray="5,2" d="M1184.0491,-343.2622C1201.8948,-332.2803 1225.4627,-317.7769 1244.0671,-306.3281"/>
<polygon fill="#000000" stroke="#000000" points="1246.0723,-309.2038 1252.7546,-300.9819 1242.4036,-303.2421 1246.0723,-309.2038"/>
</g>
<!-- prose_7 -->
<g id="node8" class="node">
<title>prose_7</title>
<ellipse fill="none" stroke="#000000" cx="1482.5" cy="-287.6001" rx="32.4585" ry="18"/>
<text text-anchor="middle" x="1482.5" y="-283.4001" font-family="Helvetica,sans-Serif" font-size="14.00" fill="#000000">prose</text>
</g>
<!-- section_1&#45;&gt;prose_7 -->
<g id="edge7" class="edge">
<title>section_1&#45;&gt;prose_7</title>
<path fill="none" stroke="#000000" stroke-dasharray="5,2" d="M1206.1558,-348.821C1270.6026,-334.5435 1383.0592,-309.6301 1442.7081,-296.4156"/>
<polygon fill="#000000" stroke="#000000" points="1443.5045,-299.8241 1452.5107,-294.2439 1441.9904,-292.9898 1443.5045,-299.8241"/>
</g>
<!-- section_8 -->
<g id="node9" class="node">
<title>section_8</title>
<ellipse fill="none" stroke="#000000" cx="2303.5" cy="-287.6001" rx="65.8187" ry="18"/>
<text text-anchor="middle" x="2303.5" y="-283.4001" font-family="Helvetica,sans-Serif" font-size="14.00" fill="#000000">section: 14&#45;27</text>
</g>
<!-- section_1&#45;&gt;section_8 -->
<g id="edge8" class="edge">
<title>section_1&#45;&gt;section_8</title>
<path fill="none" stroke="#000000" stroke-dasharray="5,2" d="M1217.1,-355.8556C1410.0076,-343.7358 2017.1338,-305.5917 2229.3738,-292.2573"/>
<polygon fill="#000000" stroke="#000000" points="2229.7194,-295.7426 2239.4802,-291.6223 2229.2804,-288.7563 2229.7194,-295.7426"/>
</g>
<!-- leaf_9 -->
<g id="node10" class="node">
<title>leaf_9</title>
<polygon fill="none" stroke="#c0c0c0" points="922,-233.6001 815,-233.6001 815,-197.6001 922,-197.6001 922,-233.6001"/>
<text text-anchor="middle" x="868.5" y="-212.1001" font-family="Inconsolata" font-size="14.00" fill="#000000">* Source maps</text>
</g>
<!-- header_2&#45;&gt;leaf_9 -->
<g id="edge9" class="edge">
<title>header_2&#45;&gt;leaf_9</title>
<path fill="none" stroke="#000000" stroke-dasharray="5,2" d="M868.5,-269.4315C868.5,-261.7311 868.5,-252.5745 868.5,-244.0168"/>
<polygon fill="#000000" stroke="#000000" points="872.0001,-244.0134 868.5,-234.0134 865.0001,-244.0134 872.0001,-244.0134"/>
</g>
<!-- raw_10 -->
<g id="node11" class="node">
<title>raw_10</title>
<ellipse fill="none" stroke="#000000" cx="980.5" cy="-215.6001" rx="27" ry="18"/>
<text text-anchor="middle" x="980.5" y="-211.4001" font-family="Helvetica,sans-Serif" font-size="14.00" fill="#000000">raw</text>
</g>
<!-- prose_3&#45;&gt;raw_10 -->
<g id="edge10" class="edge">
<title>prose_3&#45;&gt;raw_10</title>
<path fill="none" stroke="#000000" stroke-dasharray="5,2" d="M990.2196,-269.4315C988.8078,-261.6126 987.125,-252.2924 985.5595,-243.6222"/>
<polygon fill="#000000" stroke="#000000" points="988.9556,-242.7325 983.7344,-233.5135 982.067,-243.9763 988.9556,-242.7325"/>
</g>
<!-- raw_12 -->
<g id="node13" class="node">
<title>raw_12</title>
<ellipse fill="none" stroke="#000000" cx="1063.5" cy="-215.6001" rx="27" ry="18"/>
<text text-anchor="middle" x="1063.5" y="-211.4001" font-family="Helvetica,sans-Serif" font-size="14.00" fill="#000000">raw</text>
</g>
<!-- prose_4&#45;&gt;raw_12 -->
<g id="edge12" class="edge">
<title>prose_4&#45;&gt;raw_12</title>
<path fill="none" stroke="#000000" stroke-dasharray="5,2" d="M1072.4719,-269.4315C1071.1687,-261.6126 1069.6154,-252.2924 1068.1703,-243.6222"/>
<polygon fill="#000000" stroke="#000000" points="1071.582,-242.8021 1066.4856,-233.5135 1064.6773,-243.9529 1071.582,-242.8021"/>
</g>
<!-- raw_14 -->
<g id="node15" class="node">
<title>raw_14</title>
<ellipse fill="none" stroke="#000000" cx="1146.5" cy="-215.6001" rx="27" ry="18"/>
<text text-anchor="middle" x="1146.5" y="-211.4001" font-family="Helvetica,sans-Serif" font-size="14.00" fill="#000000">raw</text>
</g>
<!-- prose_5&#45;&gt;raw_14 -->
<g id="edge14" class="edge">
<title>prose_5&#45;&gt;raw_14</title>
<path fill="none" stroke="#000000" stroke-dasharray="5,2" d="M1154.7242,-269.4315C1153.5297,-261.6126 1152.1058,-252.2924 1150.7812,-243.6222"/>
<polygon fill="#000000" stroke="#000000" points="1154.207,-242.8702 1149.2368,-233.5135 1147.2873,-243.9275 1154.207,-242.8702"/>
</g>
<!-- raw_16 -->
<g id="node17" class="node">
<title>raw_16</title>
<ellipse fill="none" stroke="#000000" cx="1309.5" cy="-215.6001" rx="27" ry="18"/>
<text text-anchor="middle" x="1309.5" y="-211.4001" font-family="Helvetica,sans-Serif" font-size="14.00" fill="#000000">raw</text>
</g>
<!-- prose_6&#45;&gt;raw_16 -->
<g id="edge16" class="edge">
<title>prose_6&#45;&gt;raw_16</title>
<path fill="none" stroke="#000000" stroke-dasharray="5,2" d="M1282.9725,-270.1709C1287.0997,-261.6808 1292.1493,-251.293 1296.7311,-241.8675"/>
<polygon fill="#000000" stroke="#000000" points="1299.8813,-243.3927 1301.1055,-232.8688 1293.5857,-240.3323 1299.8813,-243.3927"/>
</g>
<!-- raw_18 -->
<g id="node19" class="node">
<title>raw_18</title>
<ellipse fill="none" stroke="#000000" cx="1608.5" cy="-215.6001" rx="27" ry="18"/>
<text text-anchor="middle" x="1608.5" y="-211.4001" font-family="Helvetica,sans-Serif" font-size="14.00" fill="#000000">raw</text>
</g>
<!-- prose_7&#45;&gt;raw_18 -->
<g id="edge18" class="edge">
<title>prose_7&#45;&gt;raw_18</title>
<path fill="none" stroke="#000000" stroke-dasharray="5,2" d="M1505.3176,-274.5615C1526.0111,-262.7366 1556.6316,-245.2392 1579.1426,-232.3758"/>
<polygon fill="#000000" stroke="#000000" points="1580.9922,-235.3501 1587.9381,-227.3498 1577.5192,-229.2723 1580.9922,-235.3501"/>
</g>
<!-- header_20 -->
<g id="node21" class="node">
<title>header_20</title>
<ellipse fill="none" stroke="#000000" cx="2110.5" cy="-215.6001" rx="60.9826" ry="18"/>
<text text-anchor="middle" x="2110.5" y="-211.4001" font-family="Helvetica,sans-Serif" font-size="14.00" fill="#000000">3 : Roadmap</text>
</g>
<!-- section_8&#45;&gt;header_20 -->
<g id="edge20" class="edge">
<title>section_8&#45;&gt;header_20</title>
<path fill="none" stroke="#000000" stroke-dasharray="5,2" d="M2264.4436,-273.0299C2233.6666,-261.5483 2190.6329,-245.4943 2157.8867,-233.2781"/>
<polygon fill="#000000" stroke="#000000" points="2159.1044,-229.9968 2148.5118,-229.7807 2156.6577,-236.5553 2159.1044,-229.9968"/>
</g>
<!-- prose_21 -->
<g id="node22" class="node">
<title>prose_21</title>
<ellipse fill="none" stroke="#000000" cx="2221.5" cy="-215.6001" rx="32.4585" ry="18"/>
<text text-anchor="middle" x="2221.5" y="-211.4001" font-family="Helvetica,sans-Serif" font-size="14.00" fill="#000000">prose</text>
</g>
<!-- section_8&#45;&gt;prose_21 -->
<g id="edge21" class="edge">
<title>section_8&#45;&gt;prose_21</title>
<path fill="none" stroke="#000000" stroke-dasharray="5,2" d="M2283.6501,-270.1709C2272.5588,-260.4322 2258.6239,-248.1967 2246.7613,-237.7808"/>
<polygon fill="#000000" stroke="#000000" points="2248.764,-234.8815 2238.9403,-230.9135 2244.1454,-240.1416 2248.764,-234.8815"/>
</g>
<!-- prose_22 -->
<g id="node23" class="node">
<title>prose_22</title>
<ellipse fill="none" stroke="#000000" cx="2303.5" cy="-215.6001" rx="32.4585" ry="18"/>
<text text-anchor="middle" x="2303.5" y="-211.4001" font-family="Helvetica,sans-Serif" font-size="14.00" fill="#000000">prose</text>
</g>
<!-- section_8&#45;&gt;prose_22 -->
<g id="edge22" class="edge">
<title>section_8&#45;&gt;prose_22</title>
<path fill="none" stroke="#000000" stroke-dasharray="5,2" d="M2303.5,-269.4315C2303.5,-261.7311 2303.5,-252.5745 2303.5,-244.0168"/>
<polygon fill="#000000" stroke="#000000" points="2307.0001,-244.0134 2303.5,-234.0134 2300.0001,-244.0134 2307.0001,-244.0134"/>
</g>
<!-- prose_23 -->
<g id="node24" class="node">
<title>prose_23</title>
<ellipse fill="none" stroke="#000000" cx="2385.5" cy="-215.6001" rx="32.4585" ry="18"/>
<text text-anchor="middle" x="2385.5" y="-211.4001" font-family="Helvetica,sans-Serif" font-size="14.00" fill="#000000">prose</text>
</g>
<!-- section_8&#45;&gt;prose_23 -->
<g id="edge23" class="edge">
<title>section_8&#45;&gt;prose_23</title>
<path fill="none" stroke="#000000" stroke-dasharray="5,2" d="M2323.3499,-270.1709C2334.4412,-260.4322 2348.3761,-248.1967 2360.2387,-237.7808"/>
<polygon fill="#000000" stroke="#000000" points="2362.8546,-240.1416 2368.0597,-230.9135 2358.236,-234.8815 2362.8546,-240.1416"/>
</g>
<!-- prose_24 -->
<g id="node25" class="node">
<title>prose_24</title>
<ellipse fill="none" stroke="#000000" cx="2704.5" cy="-215.6001" rx="32.4585" ry="18"/>
<text text-anchor="middle" x="2704.5" y="-211.4001" font-family="Helvetica,sans-Serif" font-size="14.00" fill="#000000">prose</text>
</g>
<!-- section_8&#45;&gt;prose_24 -->
<g id="edge24" class="edge">
<title>section_8&#45;&gt;prose_24</title>
<path fill="none" stroke="#000000" stroke-dasharray="5,2" d="M2358.8363,-277.6644C2440.4419,-263.0121 2591.1976,-235.9437 2663.598,-222.9441"/>
<polygon fill="#000000" stroke="#000000" points="2664.4699,-226.3436 2673.6939,-221.1314 2663.2327,-219.4538 2664.4699,-226.3436"/>
</g>
<!-- prose_25 -->
<g id="node26" class="node">
<title>prose_25</title>
<ellipse fill="none" stroke="#000000" cx="3089.5" cy="-215.6001" rx="32.4585" ry="18"/>
<text text-anchor="middle" x="3089.5" y="-211.4001" font-family="Helvetica,sans-Serif" font-size="14.00" fill="#000000">prose</text>
</g>
<!-- section_8&#45;&gt;prose_25 -->
<g id="edge25" class="edge">
<title>section_8&#45;&gt;prose_25</title>
<path fill="none" stroke="#000000" stroke-dasharray="5,2" d="M2365.8331,-281.8902C2520.1678,-267.7527 2916.9993,-231.4017 3047.3303,-219.463"/>
<polygon fill="#000000" stroke="#000000" points="3048.0399,-222.9127 3057.6789,-218.515 3047.4013,-215.9419 3048.0399,-222.9127"/>
</g>
<!-- leaf_11 -->
<g id="node12" class="node">
<title>leaf_11</title>
<polygon fill="none" stroke="#c0c0c0" points="93,-161.8016 0,-161.8016 0,-105.9986 93,-105.9986 93,-161.8016"/>
<text text-anchor="middle" x="46.5" y="-114.4001" font-family="Inconsolata" font-size="14.00" fill="#000000">Link mania:</text>
</g>
<!-- raw_10&#45;&gt;leaf_11 -->
<g id="edge11" class="edge">
<title>raw_10&#45;&gt;leaf_11</title>
<path fill="none" stroke="#000000" stroke-dasharray="5,2" d="M957.5118,-205.6803C949.1615,-202.5197 939.552,-199.3831 930.5,-197.6001 571.929,-126.9736 460.3816,-252.316 102.9251,-161.5298"/>
<polygon fill="#000000" stroke="#000000" points="103.6454,-158.1012 93.0881,-158.993 101.8973,-164.8794 103.6454,-158.1012"/>
</g>
<!-- leaf_13 -->
<g id="node14" class="node">
<title>leaf_13</title>
<polygon fill="none" stroke="#c0c0c0" points="820,-153.8022 111,-153.8022 111,-113.998 820,-113.998 820,-153.8022"/>
<text text-anchor="middle" x="465.5" y="-122.4001" font-family="Inconsolata" font-size="14.00" fill="#000000">https://blogs.msdn.microsoft.com/davidni/2016/03/14/source&#45;maps&#45;under&#45;the&#45;hood&#45;vlq&#45;base64&#45;and&#45;yoda/</text>
</g>
<!-- raw_12&#45;&gt;leaf_13 -->
<g id="edge13" class="edge">
<title>raw_12&#45;&gt;leaf_13</title>
<path fill="none" stroke="#000000" stroke-dasharray="5,2" d="M1040.9182,-205.6361C1033.293,-202.628 1024.6469,-199.5975 1016.5,-197.6001 935.9507,-177.8523 847.2364,-164.1821 764.9676,-154.7354"/>
<polygon fill="#000000" stroke="#000000" points="765.2978,-151.2505 754.9677,-153.6041 764.5109,-158.2061 765.2978,-151.2505"/>
</g>
<!-- leaf_15 -->
<g id="node16" class="node">
<title>leaf_15</title>
<polygon fill="none" stroke="#c0c0c0" points="1316.5,-153.8022 838.5,-153.8022 838.5,-113.998 1316.5,-113.998 1316.5,-153.8022"/>
<text text-anchor="middle" x="1077.5" y="-122.4001" font-family="Inconsolata" font-size="14.00" fill="#000000">https://www.html5rocks.com/en/tutorials/developertools/sourcemaps/</text>
</g>
<!-- raw_14&#45;&gt;leaf_15 -->
<g id="edge15" class="edge">
<title>raw_14&#45;&gt;leaf_15</title>
<path fill="none" stroke="#000000" stroke-dasharray="5,2" d="M1133.1961,-199.8475C1123.9859,-188.9421 1111.485,-174.1404 1100.6601,-161.323"/>
<polygon fill="#000000" stroke="#000000" points="1103.3073,-159.033 1094.181,-153.6514 1097.9593,-163.5496 1103.3073,-159.033"/>
</g>
<!-- leaf_17 -->
<g id="node18" class="node">
<title>leaf_17</title>
<polygon fill="none" stroke="#c0c0c0" points="1582,-153.8022 1335,-153.8022 1335,-113.998 1582,-113.998 1582,-153.8022"/>
<text text-anchor="middle" x="1458.5" y="-122.4001" font-family="Inconsolata" font-size="14.00" fill="#000000">http://murzwin.com/base64vlq.html</text>
</g>
<!-- raw_16&#45;&gt;leaf_17 -->
<g id="edge17" class="edge">
<title>raw_16&#45;&gt;leaf_17</title>
<path fill="none" stroke="#000000" stroke-dasharray="5,2" d="M1330.532,-204.0678C1351.9373,-192.3308 1385.7888,-173.7693 1413.2997,-158.6845"/>
<polygon fill="#000000" stroke="#000000" points="1415.2736,-161.5938 1422.3592,-153.7169 1411.9081,-155.4559 1415.2736,-161.5938"/>
</g>
<!-- leaf_19 -->
<g id="node20" class="node">
<title>leaf_19</title>
<polygon fill="none" stroke="#c0c0c0" points="2050.5,-161.8016 1600.5,-161.8016 1600.5,-105.9986 2050.5,-105.9986 2050.5,-161.8016"/>
<text text-anchor="middle" x="1825.5" y="-130.4001" font-family="Inconsolata" font-size="14.00" fill="#000000">http://sokra.github.io/source&#45;map&#45;visualization/#simple&#45;coffee</text>
</g>
<!-- raw_18&#45;&gt;leaf_19 -->
<g id="edge19" class="edge">
<title>raw_18&#45;&gt;leaf_19</title>
<path fill="none" stroke="#000000" stroke-dasharray="5,2" d="M1632.1359,-206.7013C1658.5764,-196.7465 1702.8928,-180.0614 1742.4337,-165.1744"/>
<polygon fill="#000000" stroke="#000000" points="1743.7143,-168.4322 1751.8398,-161.633 1741.2478,-161.8811 1743.7143,-168.4322"/>
</g>
<!-- leaf_26 -->
<g id="node27" class="node">
<title>leaf_26</title>
<polygon fill="none" stroke="#c0c0c0" points="2162,-151.9001 2069,-151.9001 2069,-115.9001 2162,-115.9001 2162,-151.9001"/>
<text text-anchor="middle" x="2115.5" y="-130.4001" font-family="Inconsolata" font-size="14.00" fill="#000000">*** Roadmap</text>
</g>
<!-- header_20&#45;&gt;leaf_26 -->
<g id="edge26" class="edge">
<title>header_20&#45;&gt;leaf_26</title>
<path fill="none" stroke="#000000" stroke-dasharray="5,2" d="M2111.6097,-197.4682C2112.244,-187.1024 2113.0536,-173.8748 2113.7697,-162.1731"/>
<polygon fill="#000000" stroke="#000000" points="2117.276,-162.1765 2114.3934,-151.9813 2110.289,-161.7488 2117.276,-162.1765"/>
</g>
<!-- raw_27 -->
<g id="node28" class="node">
<title>raw_27</title>
<ellipse fill="none" stroke="#000000" cx="2216.5" cy="-133.9001" rx="27" ry="18"/>
<text text-anchor="middle" x="2216.5" y="-129.7001" font-family="Helvetica,sans-Serif" font-size="14.00" fill="#000000">raw</text>
</g>
<!-- prose_21&#45;&gt;raw_27 -->
<g id="edge27" class="edge">
<title>prose_21&#45;&gt;raw_27</title>
<path fill="none" stroke="#000000" stroke-dasharray="5,2" d="M2220.3903,-197.4682C2219.756,-187.1024 2218.9464,-173.8748 2218.2303,-162.1731"/>
<polygon fill="#000000" stroke="#000000" points="2221.711,-161.7488 2217.6066,-151.9813 2214.724,-162.1765 2221.711,-161.7488"/>
</g>
<!-- raw_29 -->
<g id="node30" class="node">
<title>raw_29</title>
<ellipse fill="none" stroke="#000000" cx="2296.5" cy="-133.9001" rx="27" ry="18"/>
<text text-anchor="middle" x="2296.5" y="-129.7001" font-family="Helvetica,sans-Serif" font-size="14.00" fill="#000000">raw</text>
</g>
<!-- prose_22&#45;&gt;raw_29 -->
<g id="edge29" class="edge">
<title>prose_22&#45;&gt;raw_29</title>
<path fill="none" stroke="#000000" stroke-dasharray="5,2" d="M2301.9465,-197.4682C2301.0583,-187.1024 2299.925,-173.8748 2298.9224,-162.1731"/>
<polygon fill="#000000" stroke="#000000" points="2302.3902,-161.646 2298.0492,-151.9813 2295.4157,-162.2436 2302.3902,-161.646"/>
</g>
<!-- raw_31 -->
<g id="node32" class="node">
<title>raw_31</title>
<ellipse fill="none" stroke="#000000" cx="2385.5" cy="-133.9001" rx="27" ry="18"/>
<text text-anchor="middle" x="2385.5" y="-129.7001" font-family="Helvetica,sans-Serif" font-size="14.00" fill="#000000">raw</text>
</g>
<!-- prose_23&#45;&gt;raw_31 -->
<g id="edge31" class="edge">
<title>prose_23&#45;&gt;raw_31</title>
<path fill="none" stroke="#000000" stroke-dasharray="5,2" d="M2385.5,-197.4682C2385.5,-187.1024 2385.5,-173.8748 2385.5,-162.1731"/>
<polygon fill="#000000" stroke="#000000" points="2389.0001,-161.9813 2385.5,-151.9813 2382.0001,-161.9813 2389.0001,-161.9813"/>
</g>
<!-- raw_33 -->
<g id="node34" class="node">
<title>raw_33</title>
<ellipse fill="none" stroke="#000000" cx="2823.5" cy="-133.9001" rx="27" ry="18"/>
<text text-anchor="middle" x="2823.5" y="-129.7001" font-family="Helvetica,sans-Serif" font-size="14.00" fill="#000000">raw</text>
</g>
<!-- prose_24&#45;&gt;raw_33 -->
<g id="edge33" class="edge">
<title>prose_24&#45;&gt;raw_33</title>
<path fill="none" stroke="#000000" stroke-dasharray="5,2" d="M2724.9568,-201.5554C2744.5812,-188.0822 2774.3507,-167.6438 2796.0337,-152.7572"/>
<polygon fill="#000000" stroke="#000000" points="2798.2247,-155.4985 2804.4878,-146.953 2794.2627,-149.7276 2798.2247,-155.4985"/>
</g>
<!-- raw_35 -->
<g id="node36" class="node">
<title>raw_35</title>
<ellipse fill="none" stroke="#000000" cx="3241.5" cy="-133.9001" rx="27" ry="18"/>
<text text-anchor="middle" x="3241.5" y="-129.7001" font-family="Helvetica,sans-Serif" font-size="14.00" fill="#000000">raw</text>
</g>
<!-- prose_25&#45;&gt;raw_35 -->
<g id="edge35" class="edge">
<title>prose_25&#45;&gt;raw_35</title>
<path fill="none" stroke="#000000" stroke-dasharray="5,2" d="M3112.9169,-203.0135C3139.3674,-188.7964 3182.4851,-165.6206 3211.4113,-150.0728"/>
<polygon fill="#000000" stroke="#000000" points="3213.1139,-153.1313 3220.2651,-145.3139 3209.7998,-146.9655 3213.1139,-153.1313"/>
</g>
<!-- leaf_28 -->
<g id="node29" class="node">
<title>leaf_28</title>
<polygon fill="none" stroke="#c0c0c0" points="1492,-63.0015 937,-63.0015 937,-7.1986 1492,-7.1986 1492,-63.0015"/>
<text text-anchor="middle" x="1214.5" y="-15.6001" font-family="Inconsolata" font-size="14.00" fill="#000000">First we need to actually nail down lines and offsets in the various classes.</text>
</g>
<!-- raw_27&#45;&gt;leaf_28 -->
<g id="edge28" class="edge">
<title>raw_27&#45;&gt;leaf_28</title>
<path fill="none" stroke="#000000" stroke-dasharray="5,2" d="M2198.6844,-120.0831C2190.7956,-114.7455 2181.1326,-109.2082 2171.5,-106.2001 2028.963,-61.6879 1649.2496,-83.3027 1500.5,-70.2001 1479.9583,-68.3907 1458.6164,-66.2539 1437.2648,-63.9421"/>
<polygon fill="#000000" stroke="#000000" points="1437.4444,-60.4409 1427.1227,-62.8311 1436.6821,-67.3993 1437.4444,-60.4409"/>
</g>
<!-- leaf_30 -->
<g id="node31" class="node">
<title>leaf_30</title>
<polygon fill="none" stroke="#c0c0c0" points="2093,-62.4005 1510,-62.4005 1510,-7.7996 2093,-7.7996 2093,-62.4005"/>
<text text-anchor="middle" x="1801.5" y="-31.3001" font-family="Inconsolata" font-size="14.00" fill="#000000">That&#39;s going to be some exacting and chasey code. &#160;Good behavior now will pay off</text>
<text text-anchor="middle" x="1801.5" y="-15.9" font-family="Inconsolata" font-size="14.00" fill="#000000">later. </text>
</g>
<!-- raw_29&#45;&gt;leaf_30 -->
<g id="edge30" class="edge">
<title>raw_29&#45;&gt;leaf_30</title>
<path fill="none" stroke="#000000" stroke-dasharray="5,2" d="M2278.5371,-120.2657C2270.884,-115.0916 2261.6268,-109.6262 2252.5,-106.2001 2212.4403,-91.1621 2125.9548,-76.1623 2039.3272,-63.8432"/>
<polygon fill="#000000" stroke="#000000" points="2039.7043,-60.3618 2029.3135,-62.431 2038.7267,-67.2932 2039.7043,-60.3618"/>
</g>
<!-- leaf_32 -->
<g id="node33" class="node">
<title>leaf_32</title>
<polygon fill="none" stroke="#c0c0c0" points="2659.5,-70.3004 2111.5,-70.3004 2111.5,.1003 2659.5,.1003 2659.5,-70.3004"/>
<text text-anchor="middle" x="2385.5" y="-39.0001" font-family="Inconsolata" font-size="14.00" fill="#000000">Once the classes all behave as promised, pushing out an in&#45;memory source map</text>
<text text-anchor="middle" x="2385.5" y="-23.6001" font-family="Inconsolata" font-size="14.00" fill="#000000">is relatively straightforward. &#160;We traverse a doc building a string, so we </text>
<text text-anchor="middle" x="2385.5" y="-8.2" font-family="Inconsolata" font-size="14.00" fill="#000000">have the information readily at hand and just need to pass it along.</text>
</g>
<!-- raw_31&#45;&gt;leaf_32 -->
<g id="edge32" class="edge">
<title>raw_31&#45;&gt;leaf_32</title>
<path fill="none" stroke="#000000" stroke-dasharray="5,2" d="M2385.5,-115.7787C2385.5,-105.8556 2385.5,-93.0721 2385.5,-80.6195"/>
<polygon fill="#000000" stroke="#000000" points="2389.0001,-80.3071 2385.5,-70.3072 2382.0001,-80.3072 2389.0001,-80.3071"/>
</g>
<!-- leaf_34 -->
<g id="node35" class="node">
<title>leaf_34</title>
<polygon fill="none" stroke="#c0c0c0" points="3205,-55.0021 2678,-55.0021 2678,-15.198 3205,-15.198 3205,-55.0021"/>
<text text-anchor="middle" x="2941.5" y="-23.6001" font-family="Inconsolata" font-size="14.00" fill="#000000">Turning it into crazypants encoded offset format is the step after that. </text>
</g>
<!-- raw_33&#45;&gt;leaf_34 -->
<g id="edge34" class="edge">
<title>raw_33&#45;&gt;leaf_34</title>
<path fill="none" stroke="#000000" stroke-dasharray="5,2" d="M2840.4065,-119.7445C2858.4551,-104.6326 2887.4695,-80.3392 2909.7953,-61.646"/>
<polygon fill="#000000" stroke="#000000" points="2912.2649,-64.1431 2917.6853,-55.0398 2907.7711,-58.776 2912.2649,-64.1431"/>
</g>
<!-- leaf_36 -->
<g id="node37" class="node">
<title>leaf_36</title>
<polygon fill="none" stroke="#c0c0c0" points="3561.5,-55.0021 3223.5,-55.0021 3223.5,-15.198 3561.5,-15.198 3561.5,-55.0021"/>
<text text-anchor="middle" x="3392.5" y="-23.6001" font-family="Inconsolata" font-size="14.00" fill="#000000">We can make good use of the not wacky version.</text>
</g>
<!-- raw_35&#45;&gt;leaf_36 -->
<g id="edge36" class="edge">
<title>raw_35&#45;&gt;leaf_36</title>
<path fill="none" stroke="#000000" stroke-dasharray="5,2" d="M3260.9315,-121.186C3284.2756,-105.9118 3324.003,-79.918 3353.7095,-60.4809"/>
<polygon fill="#000000" stroke="#000000" points="3355.7367,-63.3372 3362.1883,-54.9331 3351.904,-57.4796 3355.7367,-63.3372"/>
</g>
</g>
</svg>