<?xml version="1.0" encoding="UTF-8" standalone="no"?>
<!DOCTYPE svg PUBLIC "-//W3C//DTD SVG 1.1//EN"
 "http://www.w3.org/Graphics/SVG/1.1/DTD/svg11.dtd">
<!-- Generated by graphviz version 2.40.1 (20161225.0304)
 -->
<!-- Title: lpegNode Pages: 1 -->
<svg width="6028pt" height="472pt"
 viewBox="0.00 0.00 6028.00 471.80" xmlns="http://www.w3.org/2000/svg" xmlns:xlink="http://www.w3.org/1999/xlink">
<g id="graph0" class="graph" transform="scale(1 1) rotate(0) translate(4 467.8002)">
<title>lpegNode</title>
<polygon fill="#ffffff" stroke="transparent" points="-4,4 -4,-467.8002 6024,-467.8002 6024,4 -4,4"/>
<!-- doc_0 -->
<g id="node1" class="node">
<title>doc_0</title>
<ellipse fill="none" stroke="#000000" cx="1978" cy="-445.8002" rx="42.1216" ry="18"/>
<text text-anchor="middle" x="1978" y="-441.6002" font-family="Helvetica,sans-Serif" font-size="14.00" fill="#000000">doc &#45; 49</text>
</g>
<!-- section_1 -->
<g id="node2" class="node">
<title>section_1</title>
<ellipse fill="none" stroke="#000000" cx="1978" cy="-373.8002" rx="60.9826" ry="18"/>
<text text-anchor="middle" x="1978" y="-369.6002" font-family="Helvetica,sans-Serif" font-size="14.00" fill="#000000">section: 1&#45;49</text>
</g>
<!-- doc_0&#45;&gt;section_1 -->
<g id="edge1" class="edge">
<title>doc_0&#45;&gt;section_1</title>
<path fill="none" stroke="#000000" stroke-dasharray="5,2" d="M1978,-427.6316C1978,-419.9312 1978,-410.7746 1978,-402.2169"/>
<polygon fill="#000000" stroke="#000000" points="1981.5001,-402.2135 1978,-392.2135 1974.5001,-402.2135 1981.5001,-402.2135"/>
</g>
<!-- header_2 -->
<g id="node3" class="node">
<title>header_2</title>
<ellipse fill="none" stroke="#000000" cx="1151" cy="-301.8002" rx="53.2314" ry="18"/>
<text text-anchor="middle" x="1151" y="-297.6002" font-family="Helvetica,sans-Serif" font-size="14.00" fill="#000000">1 : Splicing</text>
</g>
<!-- section_1&#45;&gt;header_2 -->
<g id="edge2" class="edge">
<title>section_1&#45;&gt;header_2</title>
<path fill="none" stroke="#000000" stroke-dasharray="5,2" d="M1917.8399,-371.09C1762.498,-363.843 1350.7042,-342.9856 1216,-319.8002 1210.8666,-318.9167 1205.5546,-317.7967 1200.281,-316.5491"/>
<polygon fill="#000000" stroke="#000000" points="1200.7961,-313.0695 1190.244,-314.0212 1199.0864,-319.8576 1200.7961,-313.0695"/>
</g>
<!-- prose_3 -->
<g id="node4" class="node">
<title>prose_3</title>
<ellipse fill="none" stroke="#000000" cx="1257" cy="-301.8002" rx="32.4585" ry="18"/>
<text text-anchor="middle" x="1257" y="-297.6002" font-family="Helvetica,sans-Serif" font-size="14.00" fill="#000000">prose</text>
</g>
<!-- section_1&#45;&gt;prose_3 -->
<g id="edge3" class="edge">
<title>section_1&#45;&gt;prose_3</title>
<path fill="none" stroke="#000000" stroke-dasharray="5,2" d="M1917.7245,-371.5155C1774.2042,-365.6716 1415.5268,-348.5791 1299,-319.8002 1296.3477,-319.1452 1293.649,-318.3407 1290.9643,-317.4387"/>
<polygon fill="#000000" stroke="#000000" points="1292.0034,-314.0901 1281.4116,-313.8388 1289.5349,-320.6404 1292.0034,-314.0901"/>
</g>
<!-- prose_4 -->
<g id="node5" class="node">
<title>prose_4</title>
<ellipse fill="none" stroke="#000000" cx="1340" cy="-301.8002" rx="32.4585" ry="18"/>
<text text-anchor="middle" x="1340" y="-297.6002" font-family="Helvetica,sans-Serif" font-size="14.00" fill="#000000">prose</text>
</g>
<!-- section_1&#45;&gt;prose_4 -->
<g id="edge4" class="edge">
<title>section_1&#45;&gt;prose_4</title>
<path fill="none" stroke="#000000" stroke-dasharray="5,2" d="M1917.9137,-370.7559C1787.5371,-363.7603 1482.3492,-345.1698 1382,-319.8002 1379.3514,-319.1306 1376.6553,-318.3154 1373.9725,-317.406"/>
<polygon fill="#000000" stroke="#000000" points="1375.0149,-314.0582 1364.4235,-313.7911 1372.5367,-320.6049 1375.0149,-314.0582"/>
</g>
<!-- prose_5 -->
<g id="node6" class="node">
<title>prose_5</title>
<ellipse fill="none" stroke="#000000" cx="1423" cy="-301.8002" rx="32.4585" ry="18"/>
<text text-anchor="middle" x="1423" y="-297.6002" font-family="Helvetica,sans-Serif" font-size="14.00" fill="#000000">prose</text>
</g>
<!-- section_1&#45;&gt;prose_5 -->
<g id="edge5" class="edge">
<title>section_1&#45;&gt;prose_5</title>
<path fill="none" stroke="#000000" stroke-dasharray="5,2" d="M1918.3124,-369.8514C1801.8789,-361.7667 1548.4537,-342.1927 1464,-319.8002 1461.5673,-319.1552 1459.0941,-318.3854 1456.6297,-317.5328"/>
<polygon fill="#000000" stroke="#000000" points="1457.8612,-314.2565 1447.2717,-313.9221 1455.3414,-320.7873 1457.8612,-314.2565"/>
</g>
<!-- structure_6 -->
<g id="node7" class="node">
<title>structure_6</title>
<ellipse fill="none" stroke="#000000" cx="1518" cy="-301.8002" rx="44.5182" ry="18"/>
<text text-anchor="middle" x="1518" y="-297.6002" font-family="Helvetica,sans-Serif" font-size="14.00" fill="#000000">structure</text>
</g>
<!-- section_1&#45;&gt;structure_6 -->
<g id="edge6" class="edge">
<title>section_1&#45;&gt;structure_6</title>
<path fill="none" stroke="#000000" stroke-dasharray="5,2" d="M1918.8802,-369.4705C1839.2792,-362.841 1693.5914,-347.8842 1572,-319.8002 1568.3682,-318.9614 1564.6343,-317.979 1560.9073,-316.9135"/>
<polygon fill="#000000" stroke="#000000" points="1561.7183,-313.5019 1551.1326,-313.9408 1559.6815,-320.1991 1561.7183,-313.5019"/>
</g>
<!-- codeblock_7 -->
<g id="node8" class="node">
<title>codeblock_7</title>
<ellipse fill="none" stroke="#000000" cx="1658" cy="-301.8002" rx="77.4211" ry="18"/>
<text text-anchor="middle" x="1658" y="-297.6002" font-family="Helvetica,sans-Serif" font-size="14.00" fill="#000000">code block 12&#45;16</text>
</g>
<!-- section_1&#45;&gt;codeblock_7 -->
<g id="edge7" class="edge">
<title>section_1&#45;&gt;codeblock_7</title>
<path fill="none" stroke="#000000" stroke-dasharray="5,2" d="M1929.3989,-362.865C1874.4953,-350.5117 1784.8494,-330.3413 1723.7298,-316.5894"/>
<polygon fill="#000000" stroke="#000000" points="1724.3228,-313.1354 1713.7983,-314.3548 1722.7861,-319.9647 1724.3228,-313.1354"/>
</g>
<!-- prose_8 -->
<g id="node9" class="node">
<title>prose_8</title>
<ellipse fill="none" stroke="#000000" cx="1801" cy="-301.8002" rx="32.4585" ry="18"/>
<text text-anchor="middle" x="1801" y="-297.6002" font-family="Helvetica,sans-Serif" font-size="14.00" fill="#000000">prose</text>
</g>
<!-- section_1&#45;&gt;prose_8 -->
<g id="edge8" class="edge">
<title>section_1&#45;&gt;prose_8</title>
<path fill="none" stroke="#000000" stroke-dasharray="5,2" d="M1940.9131,-359.4869C1913.4884,-348.8027 1875.2847,-333.7094 1842,-319.8002 1839.9603,-318.9478 1837.8677,-318.0627 1835.7594,-317.1626"/>
<polygon fill="#000000" stroke="#000000" points="1837.0966,-313.9277 1826.5285,-313.1759 1834.3211,-320.354 1837.0966,-313.9277"/>
</g>
<!-- prose_9 -->
<g id="node10" class="node">
<title>prose_9</title>
<ellipse fill="none" stroke="#000000" cx="1883" cy="-301.8002" rx="32.4585" ry="18"/>
<text text-anchor="middle" x="1883" y="-297.6002" font-family="Helvetica,sans-Serif" font-size="14.00" fill="#000000">prose</text>
</g>
<!-- section_1&#45;&gt;prose_9 -->
<g id="edge9" class="edge">
<title>section_1&#45;&gt;prose_9</title>
<path fill="none" stroke="#000000" stroke-dasharray="5,2" d="M1955.4863,-356.7372C1941.9097,-346.4476 1924.526,-333.2726 1910.1859,-322.4042"/>
<polygon fill="#000000" stroke="#000000" points="1912.2299,-319.5618 1902.1461,-316.3109 1908.0017,-325.1406 1912.2299,-319.5618"/>
</g>
<!-- structure_10 -->
<g id="node11" class="node">
<title>structure_10</title>
<ellipse fill="none" stroke="#000000" cx="1978" cy="-301.8002" rx="44.5182" ry="18"/>
<text text-anchor="middle" x="1978" y="-297.6002" font-family="Helvetica,sans-Serif" font-size="14.00" fill="#000000">structure</text>
</g>
<!-- section_1&#45;&gt;structure_10 -->
<g id="edge10" class="edge">
<title>section_1&#45;&gt;structure_10</title>
<path fill="none" stroke="#000000" stroke-dasharray="5,2" d="M1978,-355.6316C1978,-347.9312 1978,-338.7746 1978,-330.2169"/>
<polygon fill="#000000" stroke="#000000" points="1981.5001,-330.2135 1978,-320.2135 1974.5001,-330.2135 1981.5001,-330.2135"/>
</g>
<!-- structure_11 -->
<g id="node12" class="node">
<title>structure_11</title>
<ellipse fill="none" stroke="#000000" cx="2085" cy="-301.8002" rx="44.5182" ry="18"/>
<text text-anchor="middle" x="2085" y="-297.6002" font-family="Helvetica,sans-Serif" font-size="14.00" fill="#000000">structure</text>
</g>
<!-- section_1&#45;&gt;structure_11 -->
<g id="edge11" class="edge">
<title>section_1&#45;&gt;structure_11</title>
<path fill="none" stroke="#000000" stroke-dasharray="5,2" d="M2002.548,-357.282C2017.645,-347.1232 2037.1437,-334.0026 2053.3887,-323.0714"/>
<polygon fill="#000000" stroke="#000000" points="2055.6878,-325.743 2062.0304,-317.2564 2051.7799,-319.9354 2055.6878,-325.743"/>
</g>
<!-- prose_12 -->
<g id="node13" class="node">
<title>prose_12</title>
<ellipse fill="none" stroke="#000000" cx="2284" cy="-301.8002" rx="32.4585" ry="18"/>
<text text-anchor="middle" x="2284" y="-297.6002" font-family="Helvetica,sans-Serif" font-size="14.00" fill="#000000">prose</text>
</g>
<!-- section_1&#45;&gt;prose_12 -->
<g id="edge12" class="edge">
<title>section_1&#45;&gt;prose_12</title>
<path fill="none" stroke="#000000" stroke-dasharray="5,2" d="M2025.8125,-362.5502C2085.9444,-348.4015 2188.0904,-324.3672 2244.1847,-311.1685"/>
<polygon fill="#000000" stroke="#000000" points="2245.1698,-314.5324 2254.1023,-308.835 2243.5664,-307.7185 2245.1698,-314.5324"/>
</g>
<!-- prose_13 -->
<g id="node14" class="node">
<title>prose_13</title>
<ellipse fill="none" stroke="#000000" cx="2418" cy="-301.8002" rx="32.4585" ry="18"/>
<text text-anchor="middle" x="2418" y="-297.6002" font-family="Helvetica,sans-Serif" font-size="14.00" fill="#000000">prose</text>
</g>
<!-- section_1&#45;&gt;prose_13 -->
<g id="edge13" class="edge">
<title>section_1&#45;&gt;prose_13</title>
<path fill="none" stroke="#000000" stroke-dasharray="5,2" d="M2032.7934,-365.9097C2101.2696,-355.9025 2221.9965,-337.7767 2325,-319.8002 2342.1435,-316.8083 2361.0048,-313.2142 2377.2344,-310.0271"/>
<polygon fill="#000000" stroke="#000000" points="2378.3441,-313.3755 2387.475,-308.0018 2376.986,-306.5085 2378.3441,-313.3755"/>
</g>
<!-- prose_14 -->
<g id="node15" class="node">
<title>prose_14</title>
<ellipse fill="none" stroke="#000000" cx="2526" cy="-301.8002" rx="32.4585" ry="18"/>
<text text-anchor="middle" x="2526" y="-297.6002" font-family="Helvetica,sans-Serif" font-size="14.00" fill="#000000">prose</text>
</g>
<!-- section_1&#45;&gt;prose_14 -->
<g id="edge14" class="edge">
<title>section_1&#45;&gt;prose_14</title>
<path fill="none" stroke="#000000" stroke-dasharray="5,2" d="M2037.6698,-370.0047C2129.0137,-363.5425 2308.7325,-348.2525 2459,-319.8002 2468.386,-318.023 2478.3871,-315.6193 2487.7213,-313.1479"/>
<polygon fill="#000000" stroke="#000000" points="2488.8051,-316.4801 2497.5275,-310.4659 2486.9584,-309.7281 2488.8051,-316.4801"/>
</g>
<!-- prose_15 -->
<g id="node16" class="node">
<title>prose_15</title>
<ellipse fill="none" stroke="#000000" cx="3352" cy="-301.8002" rx="32.4585" ry="18"/>
<text text-anchor="middle" x="3352" y="-297.6002" font-family="Helvetica,sans-Serif" font-size="14.00" fill="#000000">prose</text>
</g>
<!-- section_1&#45;&gt;prose_15 -->
<g id="edge15" class="edge">
<title>section_1&#45;&gt;prose_15</title>
<path fill="none" stroke="#000000" stroke-dasharray="5,2" d="M2037.9226,-370.6602C2270.5817,-358.4684 3110.9509,-314.4316 3309.6687,-304.0185"/>
<polygon fill="#000000" stroke="#000000" points="3309.909,-307.5108 3319.7121,-303.4922 3309.5426,-300.5204 3309.909,-307.5108"/>
</g>
<!-- prose_16 -->
<g id="node17" class="node">
<title>prose_16</title>
<ellipse fill="none" stroke="#000000" cx="4048" cy="-301.8002" rx="32.4585" ry="18"/>
<text text-anchor="middle" x="4048" y="-297.6002" font-family="Helvetica,sans-Serif" font-size="14.00" fill="#000000">prose</text>
</g>
<!-- section_1&#45;&gt;prose_16 -->
<g id="edge16" class="edge">
<title>section_1&#45;&gt;prose_16</title>
<path fill="none" stroke="#000000" stroke-dasharray="5,2" d="M2038.5514,-371.6941C2347.396,-360.9517 3742.8297,-312.4148 4005.3474,-303.2838"/>
<polygon fill="#000000" stroke="#000000" points="4005.7328,-306.7726 4015.6051,-302.927 4005.4894,-299.7768 4005.7328,-306.7726"/>
</g>
<!-- prose_17 -->
<g id="node18" class="node">
<title>prose_17</title>
<ellipse fill="none" stroke="#000000" cx="4683" cy="-301.8002" rx="32.4585" ry="18"/>
<text text-anchor="middle" x="4683" y="-297.6002" font-family="Helvetica,sans-Serif" font-size="14.00" fill="#000000">prose</text>
</g>
<!-- section_1&#45;&gt;prose_17 -->
<g id="edge17" class="edge">
<title>section_1&#45;&gt;prose_17</title>
<path fill="none" stroke="#000000" stroke-dasharray="5,2" d="M2038.8837,-372.3479C2290.9685,-366.3126 3277.7272,-342.4684 4089,-319.8002 4295.9732,-314.0171 4543.4847,-306.2392 4640.7793,-303.1481"/>
<polygon fill="#000000" stroke="#000000" points="4640.9236,-306.6454 4650.8072,-302.8292 4640.701,-299.6489 4640.9236,-306.6454"/>
</g>
<!-- prose_18 -->
<g id="node19" class="node">
<title>prose_18</title>
<ellipse fill="none" stroke="#000000" cx="5269" cy="-301.8002" rx="32.4585" ry="18"/>
<text text-anchor="middle" x="5269" y="-297.6002" font-family="Helvetica,sans-Serif" font-size="14.00" fill="#000000">prose</text>
</g>
<!-- section_1&#45;&gt;prose_18 -->
<g id="edge18" class="edge">
<title>section_1&#45;&gt;prose_18</title>
<path fill="none" stroke="#000000" stroke-dasharray="5,2" d="M2038.8893,-372.9039C2334.3106,-368.4922 3647.9335,-348.1493 4724,-319.8002 4911.2993,-314.8658 5134.7344,-306.8027 5226.4861,-303.3977"/>
<polygon fill="#000000" stroke="#000000" points="5226.8919,-306.8851 5236.7548,-303.0156 5226.6315,-299.8899 5226.8919,-306.8851"/>
</g>
<!-- leaf_19 -->
<g id="node20" class="node">
<title>leaf_19</title>
<polygon fill="none" stroke="#c0c0c0" points="1179,-238.7002 1093,-238.7002 1093,-202.7002 1179,-202.7002 1179,-238.7002"/>
<text text-anchor="middle" x="1136" y="-217.2002" font-family="Inconsolata" font-size="14.00" fill="#000000">* Splicing</text>
</g>
<!-- header_2&#45;&gt;leaf_19 -->
<g id="edge19" class="edge">
<title>header_2&#45;&gt;leaf_19</title>
<path fill="none" stroke="#000000" stroke-dasharray="5,2" d="M1147.671,-283.8015C1145.7811,-273.5832 1143.373,-260.5636 1141.2357,-249.0077"/>
<polygon fill="#000000" stroke="#000000" points="1144.632,-248.1257 1139.3715,-238.929 1137.7487,-249.3988 1144.632,-248.1257"/>
</g>
<!-- raw_20 -->
<g id="node21" class="node">
<title>raw_20</title>
<ellipse fill="none" stroke="#000000" cx="1224" cy="-220.7002" rx="27" ry="18"/>
<text text-anchor="middle" x="1224" y="-216.5002" font-family="Helvetica,sans-Serif" font-size="14.00" fill="#000000">raw</text>
</g>
<!-- prose_3&#45;&gt;raw_20 -->
<g id="edge20" class="edge">
<title>prose_3&#45;&gt;raw_20</title>
<path fill="none" stroke="#000000" stroke-dasharray="5,2" d="M1249.8395,-284.2027C1245.5151,-273.5752 1239.9146,-259.8115 1235.0336,-247.816"/>
<polygon fill="#000000" stroke="#000000" points="1238.1575,-246.2067 1231.1465,-238.2633 1231.6737,-248.845 1238.1575,-246.2067"/>
</g>
<!-- raw_22 -->
<g id="node23" class="node">
<title>raw_22</title>
<ellipse fill="none" stroke="#000000" cx="1296" cy="-220.7002" rx="27" ry="18"/>
<text text-anchor="middle" x="1296" y="-216.5002" font-family="Helvetica,sans-Serif" font-size="14.00" fill="#000000">raw</text>
</g>
<!-- prose_4&#45;&gt;raw_22 -->
<g id="edge22" class="edge">
<title>prose_4&#45;&gt;raw_22</title>
<path fill="none" stroke="#000000" stroke-dasharray="5,2" d="M1330.4527,-284.2027C1324.4909,-273.2142 1316.7101,-258.8727 1310.0515,-246.5997"/>
<polygon fill="#000000" stroke="#000000" points="1313.0724,-244.8282 1305.2272,-237.7076 1306.9196,-248.1664 1313.0724,-244.8282"/>
</g>
<!-- raw_24 -->
<g id="node25" class="node">
<title>raw_24</title>
<ellipse fill="none" stroke="#000000" cx="1368" cy="-220.7002" rx="27" ry="18"/>
<text text-anchor="middle" x="1368" y="-216.5002" font-family="Helvetica,sans-Serif" font-size="14.00" fill="#000000">raw</text>
</g>
<!-- prose_5&#45;&gt;raw_24 -->
<g id="edge24" class="edge">
<title>prose_5&#45;&gt;raw_24</title>
<path fill="none" stroke="#000000" stroke-dasharray="5,2" d="M1411.3359,-284.601C1403.6498,-273.2675 1393.4601,-258.2422 1384.8926,-245.6091"/>
<polygon fill="#000000" stroke="#000000" points="1387.7806,-243.6318 1379.2711,-237.3199 1381.9872,-247.5607 1387.7806,-243.6318"/>
</g>
<!-- handleline_26 -->
<g id="node27" class="node">
<title>handleline_26</title>
<ellipse fill="none" stroke="#000000" cx="1463" cy="-220.7002" rx="50.3585" ry="18"/>
<text text-anchor="middle" x="1463" y="-216.5002" font-family="Helvetica,sans-Serif" font-size="14.00" fill="#000000">handleline</text>
</g>
<!-- structure_6&#45;&gt;handleline_26 -->
<g id="edge26" class="edge">
<title>structure_6&#45;&gt;handleline_26</title>
<path fill="none" stroke="#000000" stroke-dasharray="5,2" d="M1506.0658,-284.2027C1498.6423,-273.2564 1488.9623,-258.9828 1480.6604,-246.7413"/>
<polygon fill="#000000" stroke="#000000" points="1483.4204,-244.5751 1474.9109,-238.2633 1477.627,-248.5041 1483.4204,-244.5751"/>
</g>
<!-- leaf_29 -->
<g id="node30" class="node">
<title>leaf_29</title>
<polygon fill="none" stroke="#c0c0c0" points="1757,-247.9006 1531,-247.9006 1531,-193.4997 1757,-193.4997 1757,-247.9006"/>
<text text-anchor="middle" x="1644" y="-232.6002" font-family="Inconsolata" font-size="14.00" fill="#000000">/* Fancy C hashtable goes here</text>
<text text-anchor="middle" x="1644" y="-217.2002" font-family="Inconsolata" font-size="14.00" fill="#000000">...</text>
<text text-anchor="middle" x="1644" y="-201.8002" font-family="Inconsolata" font-size="14.00" fill="#000000">*/</text>
</g>
<!-- codeblock_7&#45;&gt;leaf_29 -->
<g id="edge29" class="edge">
<title>codeblock_7&#45;&gt;leaf_29</title>
<path fill="none" stroke="#000000" stroke-dasharray="5,2" d="M1654.8929,-283.8015C1653.5702,-276.1389 1651.9755,-266.9009 1650.4193,-257.8863"/>
<polygon fill="#000000" stroke="#000000" points="1653.8454,-257.158 1648.6953,-247.8992 1646.9475,-258.3488 1653.8454,-257.158"/>
</g>
<!-- raw_30 -->
<g id="node31" class="node">
<title>raw_30</title>
<ellipse fill="none" stroke="#000000" cx="1802" cy="-220.7002" rx="27" ry="18"/>
<text text-anchor="middle" x="1802" y="-216.5002" font-family="Helvetica,sans-Serif" font-size="14.00" fill="#000000">raw</text>
</g>
<!-- prose_8&#45;&gt;raw_30 -->
<g id="edge30" class="edge">
<title>prose_8&#45;&gt;raw_30</title>
<path fill="none" stroke="#000000" stroke-dasharray="5,2" d="M1801.2269,-283.3974C1801.3518,-273.2685 1801.5095,-260.4801 1801.6498,-249.0989"/>
<polygon fill="#000000" stroke="#000000" points="1805.1538,-248.7933 1801.7774,-238.7508 1798.1543,-248.7069 1805.1538,-248.7933"/>
</g>
<!-- raw_32 -->
<g id="node33" class="node">
<title>raw_32</title>
<ellipse fill="none" stroke="#000000" cx="1879" cy="-220.7002" rx="27" ry="18"/>
<text text-anchor="middle" x="1879" y="-216.5002" font-family="Helvetica,sans-Serif" font-size="14.00" fill="#000000">raw</text>
</g>
<!-- prose_9&#45;&gt;raw_32 -->
<g id="edge32" class="edge">
<title>prose_9&#45;&gt;raw_32</title>
<path fill="none" stroke="#000000" stroke-dasharray="5,2" d="M1882.1123,-283.8015C1881.6083,-273.5832 1880.9661,-260.5636 1880.3962,-249.0077"/>
<polygon fill="#000000" stroke="#000000" points="1883.8875,-248.7444 1879.8991,-238.929 1876.896,-249.0893 1883.8875,-248.7444"/>
</g>
<!-- hashline_34 -->
<g id="node35" class="node">
<title>hashline_34</title>
<ellipse fill="none" stroke="#000000" cx="1978" cy="-220.7002" rx="43.0992" ry="18"/>
<text text-anchor="middle" x="1978" y="-216.5002" font-family="Helvetica,sans-Serif" font-size="14.00" fill="#000000">hashline</text>
</g>
<!-- structure_10&#45;&gt;hashline_34 -->
<g id="edge34" class="edge">
<title>structure_10&#45;&gt;hashline_34</title>
<path fill="none" stroke="#000000" stroke-dasharray="5,2" d="M1978,-283.3974C1978,-273.2685 1978,-260.4801 1978,-249.0989"/>
<polygon fill="#000000" stroke="#000000" points="1981.5001,-248.7508 1978,-238.7508 1974.5001,-248.7509 1981.5001,-248.7508"/>
</g>
<!-- hashline_37 -->
<g id="node38" class="node">
<title>hashline_37</title>
<ellipse fill="none" stroke="#000000" cx="2083" cy="-220.7002" rx="43.0992" ry="18"/>
<text text-anchor="middle" x="2083" y="-216.5002" font-family="Helvetica,sans-Serif" font-size="14.00" fill="#000000">hashline</text>
</g>
<!-- structure_11&#45;&gt;hashline_37 -->
<g id="edge37" class="edge">
<title>structure_11&#45;&gt;hashline_37</title>
<path fill="none" stroke="#000000" stroke-dasharray="5,2" d="M2084.5462,-283.3974C2084.2964,-273.2685 2083.981,-260.4801 2083.7003,-249.0989"/>
<polygon fill="#000000" stroke="#000000" points="2087.1907,-248.6615 2083.4451,-238.7508 2080.1928,-248.8341 2087.1907,-248.6615"/>
</g>
<!-- raw_40 -->
<g id="node41" class="node">
<title>raw_40</title>
<ellipse fill="none" stroke="#000000" cx="2362" cy="-220.7002" rx="27" ry="18"/>
<text text-anchor="middle" x="2362" y="-216.5002" font-family="Helvetica,sans-Serif" font-size="14.00" fill="#000000">raw</text>
</g>
<!-- prose_12&#45;&gt;raw_40 -->
<g id="edge40" class="edge">
<title>prose_12&#45;&gt;raw_40</title>
<path fill="none" stroke="#000000" stroke-dasharray="5,2" d="M2299.4103,-285.7775C2311.064,-273.6606 2327.2189,-256.8636 2340.197,-243.3697"/>
<polygon fill="#000000" stroke="#000000" points="2343.0038,-245.5005 2347.4132,-235.8668 2337.9585,-240.6481 2343.0038,-245.5005"/>
</g>
<!-- raw_42 -->
<g id="node43" class="node">
<title>raw_42</title>
<ellipse fill="none" stroke="#000000" cx="2483" cy="-220.7002" rx="27" ry="18"/>
<text text-anchor="middle" x="2483" y="-216.5002" font-family="Helvetica,sans-Serif" font-size="14.00" fill="#000000">raw</text>
</g>
<!-- prose_13&#45;&gt;raw_42 -->
<g id="edge42" class="edge">
<title>prose_13&#45;&gt;raw_42</title>
<path fill="none" stroke="#000000" stroke-dasharray="5,2" d="M2431.468,-284.9962C2440.8021,-273.3501 2453.3701,-257.6692 2463.7575,-244.709"/>
<polygon fill="#000000" stroke="#000000" points="2466.6897,-246.6469 2470.2126,-236.6549 2461.2275,-242.269 2466.6897,-246.6469"/>
</g>
<!-- raw_44 -->
<g id="node45" class="node">
<title>raw_44</title>
<ellipse fill="none" stroke="#000000" cx="2573" cy="-220.7002" rx="27" ry="18"/>
<text text-anchor="middle" x="2573" y="-216.5002" font-family="Helvetica,sans-Serif" font-size="14.00" fill="#000000">raw</text>
</g>
<!-- prose_14&#45;&gt;raw_44 -->
<g id="edge44" class="edge">
<title>prose_14&#45;&gt;raw_44</title>
<path fill="none" stroke="#000000" stroke-dasharray="5,2" d="M2535.9675,-284.601C2542.3664,-273.5595 2550.7958,-259.0142 2557.9958,-246.5904"/>
<polygon fill="#000000" stroke="#000000" points="2561.2221,-248.0036 2563.208,-237.5965 2555.1656,-244.4936 2561.2221,-248.0036"/>
</g>
<!-- raw_46 -->
<g id="node47" class="node">
<title>raw_46</title>
<ellipse fill="none" stroke="#000000" cx="3664" cy="-220.7002" rx="27" ry="18"/>
<text text-anchor="middle" x="3664" y="-216.5002" font-family="Helvetica,sans-Serif" font-size="14.00" fill="#000000">raw</text>
</g>
<!-- prose_15&#45;&gt;raw_46 -->
<g id="edge46" class="edge">
<title>prose_15&#45;&gt;raw_46</title>
<path fill="none" stroke="#000000" stroke-dasharray="5,2" d="M3381.3522,-294.1705C3438.9743,-279.1925 3566.6709,-245.9995 3628.7491,-229.8632"/>
<polygon fill="#000000" stroke="#000000" points="3629.6854,-233.2362 3638.4832,-227.3329 3627.9243,-226.4613 3629.6854,-233.2362"/>
</g>
<!-- raw_48 -->
<g id="node49" class="node">
<title>raw_48</title>
<ellipse fill="none" stroke="#000000" cx="4329" cy="-220.7002" rx="27" ry="18"/>
<text text-anchor="middle" x="4329" y="-216.5002" font-family="Helvetica,sans-Serif" font-size="14.00" fill="#000000">raw</text>
</g>
<!-- prose_16&#45;&gt;raw_48 -->
<g id="edge48" class="edge">
<title>prose_16&#45;&gt;raw_48</title>
<path fill="none" stroke="#000000" stroke-dasharray="5,2" d="M4076.7514,-293.5022C4128.7657,-278.4902 4238.2829,-246.8822 4294.3399,-230.7035"/>
<polygon fill="#000000" stroke="#000000" points="4295.5217,-234.0054 4304.159,-227.8696 4293.5806,-227.2799 4295.5217,-234.0054"/>
</g>
<!-- raw_50 -->
<g id="node51" class="node">
<title>raw_50</title>
<ellipse fill="none" stroke="#000000" cx="4940" cy="-220.7002" rx="27" ry="18"/>
<text text-anchor="middle" x="4940" y="-216.5002" font-family="Helvetica,sans-Serif" font-size="14.00" fill="#000000">raw</text>
</g>
<!-- prose_17&#45;&gt;raw_50 -->
<g id="edge50" class="edge">
<title>prose_17&#45;&gt;raw_50</title>
<path fill="none" stroke="#000000" stroke-dasharray="5,2" d="M4711.4854,-292.8112C4759.1463,-277.7712 4854.8467,-247.5715 4905.971,-231.4385"/>
<polygon fill="#000000" stroke="#000000" points="4907.0909,-234.7553 4915.574,-228.4081 4904.9843,-228.0798 4907.0909,-234.7553"/>
</g>
<!-- raw_52 -->
<g id="node53" class="node">
<title>raw_52</title>
<ellipse fill="none" stroke="#000000" cx="5521" cy="-220.7002" rx="27" ry="18"/>
<text text-anchor="middle" x="5521" y="-216.5002" font-family="Helvetica,sans-Serif" font-size="14.00" fill="#000000">raw</text>
</g>
<!-- prose_18&#45;&gt;raw_52 -->
<g id="edge52" class="edge">
<title>prose_18&#45;&gt;raw_52</title>
<path fill="none" stroke="#000000" stroke-dasharray="5,2" d="M5296.9313,-292.8112C5343.3277,-277.8796 5436.1519,-248.0065 5486.5413,-231.7899"/>
<polygon fill="#000000" stroke="#000000" points="5487.8756,-235.0373 5496.3225,-228.642 5485.7311,-228.3739 5487.8756,-235.0373"/>
</g>
<!-- leaf_21 -->
<g id="node22" class="node">
<title>leaf_21</title>
<polygon fill="none" stroke="#c0c0c0" points="436,-150.7012 0,-150.7012 0,-78.8989 436,-78.8989 436,-150.7012"/>
<text text-anchor="middle" x="218" y="-87.3001" font-family="Inconsolata" font-size="14.00" fill="#000000">I&#39;ve been thinking about how to approach existing codebases.</text>
</g>
<!-- raw_20&#45;&gt;leaf_21 -->
<g id="edge21" class="edge">
<title>raw_20&#45;&gt;leaf_21</title>
<path fill="none" stroke="#000000" stroke-dasharray="5,2" d="M1208.3838,-205.7374C1202.4596,-200.9763 1195.3571,-196.2594 1188,-193.6001 1032.5392,-137.4075 609.1672,-176.9602 445,-157.6001 431.7797,-156.0411 418.1714,-154.1668 404.4979,-152.0852"/>
<polygon fill="#000000" stroke="#000000" points="404.954,-148.6141 394.5346,-150.5343 403.8773,-155.5308 404.954,-148.6141"/>
</g>
<!-- leaf_23 -->
<g id="node24" class="node">
<title>leaf_23</title>
<polygon fill="none" stroke="#c0c0c0" points="1009.5,-142.1005 454.5,-142.1005 454.5,-87.4996 1009.5,-87.4996 1009.5,-142.1005"/>
<text text-anchor="middle" x="732" y="-111.0001" font-family="Inconsolata" font-size="14.00" fill="#000000">The simplest approach is to have one page per file, and interiorize the whole</text>
<text text-anchor="middle" x="732" y="-95.6001" font-family="Inconsolata" font-size="14.00" fill="#000000">thing. &#160;But that gets messy if you&#39;re trying to upstream changes.</text>
</g>
<!-- raw_22&#45;&gt;leaf_23 -->
<g id="edge23" class="edge">
<title>raw_22&#45;&gt;leaf_23</title>
<path fill="none" stroke="#000000" stroke-dasharray="5,2" d="M1279.8683,-205.8588C1274.004,-201.228 1267.0711,-196.5624 1260,-193.6001 1260,-193.6001 1076.2281,-166.1735 925.5204,-143.6815"/>
<polygon fill="#000000" stroke="#000000" points="925.5941,-140.1538 915.187,-142.1394 924.5608,-147.0772 925.5941,-140.1538"/>
</g>
<!-- leaf_25 -->
<g id="node26" class="node">
<title>leaf_25</title>
<polygon fill="none" stroke="#c0c0c0" points="1268,-134.7021 1028,-134.7021 1028,-94.898 1268,-94.898 1268,-134.7021"/>
<text text-anchor="middle" x="1148" y="-103.3001" font-family="Inconsolata" font-size="14.00" fill="#000000">I want something more like this:</text>
</g>
<!-- raw_24&#45;&gt;leaf_25 -->
<g id="edge25" class="edge">
<title>raw_24&#45;&gt;leaf_25</title>
<path fill="none" stroke="#000000" stroke-dasharray="5,2" d="M1351.0064,-206.5855C1345.186,-202.1158 1338.4988,-197.3639 1332,-193.6001 1294.1818,-171.6974 1249.1151,-152.2973 1213.0486,-138.2269"/>
<polygon fill="#000000" stroke="#000000" points="1214.1965,-134.9183 1203.6069,-134.5845 1211.677,-141.4492 1214.1965,-134.9183"/>
</g>
<!-- handle_27 -->
<g id="node28" class="node">
<title>handle_27</title>
<ellipse fill="none" stroke="#000000" cx="1323" cy="-114.8001" rx="36.827" ry="18"/>
<text text-anchor="middle" x="1323" y="-110.6001" font-family="Helvetica,sans-Serif" font-size="14.00" fill="#000000">handle</text>
</g>
<!-- handleline_26&#45;&gt;handle_27 -->
<g id="edge27" class="edge">
<title>handleline_26&#45;&gt;handle_27</title>
<path fill="none" stroke="#000000" stroke-dasharray="5,2" d="M1437.5028,-205.1312C1418.1498,-192.9501 1391.1801,-175.1826 1369,-157.6001 1361.6271,-151.7555 1354.0008,-144.9909 1347.1287,-138.5896"/>
<polygon fill="#000000" stroke="#000000" points="1349.1309,-135.6645 1339.4683,-131.3189 1344.312,-140.7417 1349.1309,-135.6645"/>
</g>
<!-- leaf_28 -->
<g id="node29" class="node">
<title>leaf_28</title>
<polygon fill="none" stroke="#c0c0c0" points="1369.5,-36 1276.5,-36 1276.5,0 1369.5,0 1369.5,-36"/>
<text text-anchor="middle" x="1323" y="-14.5" font-family="Inconsolata" font-size="14.00" fill="#000000">fancy&#45;table</text>
</g>
<!-- handle_27&#45;&gt;leaf_28 -->
<g id="edge28" class="edge">
<title>handle_27&#45;&gt;leaf_28</title>
<path fill="none" stroke="#000000" stroke-dasharray="5,2" d="M1323,-96.5927C1323,-82.3961 1323,-62.4293 1323,-46.1739"/>
<polygon fill="#000000" stroke="#000000" points="1326.5001,-46.1257 1323,-36.1257 1319.5001,-46.1257 1326.5001,-46.1257"/>
</g>
<!-- leaf_31 -->
<g id="node32" class="node">
<title>leaf_31</title>
<polygon fill="none" stroke="#c0c0c0" points="1814,-134.7021 1378,-134.7021 1378,-94.898 1814,-94.898 1814,-134.7021"/>
<text text-anchor="middle" x="1596" y="-103.3001" font-family="Inconsolata" font-size="14.00" fill="#000000">Splice is a specialization, we&#39;d usually put it in a drawer:</text>
</g>
<!-- raw_30&#45;&gt;leaf_31 -->
<g id="edge31" class="edge">
<title>raw_30&#45;&gt;leaf_31</title>
<path fill="none" stroke="#000000" stroke-dasharray="5,2" d="M1784.9407,-206.697C1779.1159,-202.2348 1772.4427,-197.4591 1766,-193.6001 1730.6941,-172.4529 1688.7661,-152.9624 1655.3836,-138.6558"/>
<polygon fill="#000000" stroke="#000000" points="1656.335,-135.2575 1645.7622,-134.574 1653.6011,-141.7016 1656.335,-135.2575"/>
</g>
<!-- leaf_33 -->
<g id="node34" class="node">
<title>leaf_33</title>
<polygon fill="none" stroke="#c0c0c0" points="1918,-134.7021 1832,-134.7021 1832,-94.898 1918,-94.898 1918,-134.7021"/>
<text text-anchor="middle" x="1875" y="-103.3001" font-family="Inconsolata" font-size="14.00" fill="#000000">:[config]:</text>
</g>
<!-- raw_32&#45;&gt;leaf_33 -->
<g id="edge33" class="edge">
<title>raw_32&#45;&gt;leaf_33</title>
<path fill="none" stroke="#000000" stroke-dasharray="5,2" d="M1878.3033,-202.2538C1877.7082,-186.5008 1876.8406,-163.5312 1876.1439,-145.0851"/>
<polygon fill="#000000" stroke="#000000" points="1879.6318,-144.6965 1875.7568,-134.8358 1872.6368,-144.9608 1879.6318,-144.6965"/>
</g>
<!-- hashtag_35 -->
<g id="node36" class="node">
<title>hashtag_35</title>
<ellipse fill="none" stroke="#000000" cx="1978" cy="-114.8001" rx="41.6544" ry="18"/>
<text text-anchor="middle" x="1978" y="-110.6001" font-family="Helvetica,sans-Serif" font-size="14.00" fill="#000000">hashtag</text>
</g>
<!-- hashline_34&#45;&gt;hashtag_35 -->
<g id="edge35" class="edge">
<title>hashline_34&#45;&gt;hashtag_35</title>
<path fill="none" stroke="#000000" stroke-dasharray="5,2" d="M1978,-202.2538C1978,-185.9295 1978,-161.8557 1978,-143.0966"/>
<polygon fill="#000000" stroke="#000000" points="1981.5001,-143.035 1978,-133.0351 1974.5001,-143.0351 1981.5001,-143.035"/>
</g>
<!-- leaf_36 -->
<g id="node37" class="node">
<title>leaf_36</title>
<polygon fill="none" stroke="#c0c0c0" points="2007,-36 1949,-36 1949,0 2007,0 2007,-36"/>
<text text-anchor="middle" x="1978" y="-14.5" font-family="Inconsolata" font-size="14.00" fill="#000000">Splice</text>
</g>
<!-- hashtag_35&#45;&gt;leaf_36 -->
<g id="edge36" class="edge">
<title>hashtag_35&#45;&gt;leaf_36</title>
<path fill="none" stroke="#000000" stroke-dasharray="5,2" d="M1978,-96.5927C1978,-82.3961 1978,-62.4293 1978,-46.1739"/>
<polygon fill="#000000" stroke="#000000" points="1981.5001,-46.1257 1978,-36.1257 1974.5001,-46.1257 1981.5001,-46.1257"/>
</g>
<!-- hashtag_38 -->
<g id="node39" class="node">
<title>hashtag_38</title>
<ellipse fill="none" stroke="#000000" cx="2079" cy="-114.8001" rx="41.6544" ry="18"/>
<text text-anchor="middle" x="2079" y="-110.6001" font-family="Helvetica,sans-Serif" font-size="14.00" fill="#000000">hashtag</text>
</g>
<!-- hashline_37&#45;&gt;hashtag_38 -->
<g id="edge38" class="edge">
<title>hashline_37&#45;&gt;hashtag_38</title>
<path fill="none" stroke="#000000" stroke-dasharray="5,2" d="M2082.3033,-202.2538C2081.6867,-185.9295 2080.7774,-161.8557 2080.0688,-143.0966"/>
<polygon fill="#000000" stroke="#000000" points="2083.5638,-142.8958 2079.6888,-133.0351 2076.5688,-143.1601 2083.5638,-142.8958"/>
</g>
<!-- leaf_39 -->
<g id="node40" class="node">
<title>leaf_39</title>
<polygon fill="none" stroke="#c0c0c0" points="2115,-36 2043,-36 2043,0 2115,0 2115,-36"/>
<text text-anchor="middle" x="2079" y="-14.5" font-family="Inconsolata" font-size="14.00" fill="#000000">comments</text>
</g>
<!-- hashtag_38&#45;&gt;leaf_39 -->
<g id="edge39" class="edge">
<title>hashtag_38&#45;&gt;leaf_39</title>
<path fill="none" stroke="#000000" stroke-dasharray="5,2" d="M2079,-96.5927C2079,-82.3961 2079,-62.4293 2079,-46.1739"/>
<polygon fill="#000000" stroke="#000000" points="2082.5001,-46.1257 2079,-36.1257 2075.5001,-46.1257 2082.5001,-46.1257"/>
</g>
<!-- leaf_41 -->
<g id="node42" class="node">
<title>leaf_41</title>
<polygon fill="none" stroke="#c0c0c0" points="2679.5,-142.1005 2138.5,-142.1005 2138.5,-87.4996 2679.5,-87.4996 2679.5,-142.1005"/>
<text text-anchor="middle" x="2409" y="-111.0001" font-family="Inconsolata" font-size="14.00" fill="#000000">line references are to the original file, such that deletions and additions</text>
<text text-anchor="middle" x="2409" y="-95.6001" font-family="Inconsolata" font-size="14.00" fill="#000000">in a single pass don&#39;t affect one another&#39;s offset.</text>
</g>
<!-- raw_40&#45;&gt;leaf_41 -->
<g id="edge41" class="edge">
<title>raw_40&#45;&gt;leaf_41</title>
<path fill="none" stroke="#000000" stroke-dasharray="5,2" d="M2369.7611,-203.2129C2375.9648,-189.2347 2384.8768,-169.1543 2392.6401,-151.6621"/>
<polygon fill="#000000" stroke="#000000" points="2395.9528,-152.8258 2396.8104,-142.2657 2389.5546,-149.9861 2395.9528,-152.8258"/>
</g>
<!-- leaf_43 -->
<g id="node44" class="node">
<title>leaf_43</title>
<polygon fill="none" stroke="#c0c0c0" points="3246,-150.0004 2698,-150.0004 2698,-79.5997 3246,-79.5997 3246,-150.0004"/>
<text text-anchor="middle" x="2972" y="-118.7001" font-family="Inconsolata" font-size="14.00" fill="#000000">The subtle bit is turning a transclusion into a splice. &#160;Normally edits in a</text>
<text text-anchor="middle" x="2972" y="-103.3001" font-family="Inconsolata" font-size="14.00" fill="#000000">transclusion are either shared with source (the default) or are isolated in</text>
<text text-anchor="middle" x="2972" y="-87.9" font-family="Inconsolata" font-size="14.00" fill="#000000">the document, call that an exerpt maybe.</text>
</g>
<!-- raw_42&#45;&gt;leaf_43 -->
<g id="edge43" class="edge">
<title>raw_42&#45;&gt;leaf_43</title>
<path fill="none" stroke="#000000" stroke-dasharray="5,2" d="M2503.4304,-208.7068C2513.2889,-203.3781 2525.4584,-197.4527 2537,-193.6001 2574.9621,-180.9285 2654.1864,-165.5037 2734.7539,-151.6717"/>
<polygon fill="#000000" stroke="#000000" points="2735.8274,-155.0392 2745.0957,-149.9061 2734.6493,-148.139 2735.8274,-155.0392"/>
</g>
<!-- leaf_45 -->
<g id="node46" class="node">
<title>leaf_45</title>
<polygon fill="none" stroke="#c0c0c0" points="3812,-142.1005 3264,-142.1005 3264,-87.4996 3812,-87.4996 3812,-142.1005"/>
<text text-anchor="middle" x="3538" y="-111.0001" font-family="Inconsolata" font-size="14.00" fill="#000000">In a splice, edits to the transclusion are mirrored in the sorcery file, but</text>
<text text-anchor="middle" x="3538" y="-95.6001" font-family="Inconsolata" font-size="14.00" fill="#000000">in a way that the splicing document is blind to.</text>
</g>
<!-- raw_44&#45;&gt;leaf_45 -->
<g id="edge45" class="edge">
<title>raw_44&#45;&gt;leaf_45</title>
<path fill="none" stroke="#000000" stroke-dasharray="5,2" d="M2600.0272,-218.7646C2691.9538,-212.0606 3000.9264,-188.5402 3255,-157.6001 3288.3342,-153.5408 3323.7904,-148.6421 3357.9252,-143.63"/>
<polygon fill="#000000" stroke="#000000" points="3358.6107,-147.0669 3367.9919,-142.1432 3357.5878,-140.142 3358.6107,-147.0669"/>
</g>
<!-- leaf_47 -->
<g id="node48" class="node">
<title>leaf_47</title>
<polygon fill="none" stroke="#c0c0c0" points="4364,-142.1005 3830,-142.1005 3830,-87.4996 4364,-87.4996 4364,-142.1005"/>
<text text-anchor="middle" x="4097" y="-111.0001" font-family="Inconsolata" font-size="14.00" fill="#000000">Splices are slightly delicate and might need to be manually adjusted if an</text>
<text text-anchor="middle" x="4097" y="-95.6001" font-family="Inconsolata" font-size="14.00" fill="#000000">upstream pushes large changes. &#160;They&#39;ll be pretty useful in practice.</text>
</g>
<!-- raw_46&#45;&gt;leaf_47 -->
<g id="edge47" class="edge">
<title>raw_46&#45;&gt;leaf_47</title>
<path fill="none" stroke="#000000" stroke-dasharray="5,2" d="M3689.4696,-214.471C3744.2067,-201.0838 3876.1177,-168.8219 3975.141,-144.6035"/>
<polygon fill="#000000" stroke="#000000" points="3976.0376,-147.9874 3984.9198,-142.2118 3974.3746,-141.1878 3976.0376,-147.9874"/>
</g>
<!-- leaf_49 -->
<g id="node50" class="node">
<title>leaf_49</title>
<polygon fill="none" stroke="#c0c0c0" points="4944,-150.0004 4382,-150.0004 4382,-79.5997 4944,-79.5997 4944,-150.0004"/>
<text text-anchor="middle" x="4663" y="-118.7001" font-family="Inconsolata" font-size="14.00" fill="#000000">This lets me unleash the full might of Orb on codebases such as LuaJIT, where</text>
<text text-anchor="middle" x="4663" y="-103.3001" font-family="Inconsolata" font-size="14.00" fill="#000000">trying to hoover the whole thing into a literate translation would be a lot of</text>
<text text-anchor="middle" x="4663" y="-87.9" font-family="Inconsolata" font-size="14.00" fill="#000000">work, and hostile to the goal of getting change sets onto master.</text>
</g>
<!-- raw_48&#45;&gt;leaf_49 -->
<g id="edge49" class="edge">
<title>raw_48&#45;&gt;leaf_49</title>
<path fill="none" stroke="#000000" stroke-dasharray="5,2" d="M4353.5598,-212.9131C4393.1277,-200.3674 4473.5296,-174.8747 4542.459,-153.0195"/>
<polygon fill="#000000" stroke="#000000" points="4543.6292,-156.3203 4552.1036,-149.9615 4541.5135,-149.6477 4543.6292,-156.3203"/>
</g>
<!-- leaf_51 -->
<g id="node52" class="node">
<title>leaf_51</title>
<polygon fill="none" stroke="#c0c0c0" points="5510,-157.4011 4962,-157.4011 4962,-72.199 5510,-72.199 5510,-157.4011"/>
<text text-anchor="middle" x="5236" y="-126.4001" font-family="Inconsolata" font-size="14.00" fill="#000000">A splice can be turned back into an ordinary transclusion. The difference is</text>
<text text-anchor="middle" x="5236" y="-111.0001" font-family="Inconsolata" font-size="14.00" fill="#000000">that working on a file in splice mode is archaeological. Any of the changes</text>
<text text-anchor="middle" x="5236" y="-95.6001" font-family="Inconsolata" font-size="14.00" fill="#000000">can be unapplied, so we can go nuts on other people&#39;s code and still offer a</text>
<text text-anchor="middle" x="5236" y="-80.2" font-family="Inconsolata" font-size="14.00" fill="#000000">tasteful, minimal patch set, without getting involved in cherry&#45;picking.</text>
</g>
<!-- raw_50&#45;&gt;leaf_51 -->
<g id="edge51" class="edge">
<title>raw_50&#45;&gt;leaf_51</title>
<path fill="none" stroke="#000000" stroke-dasharray="5,2" d="M4963.9722,-212.1236C4995.3925,-200.8824 5052.8759,-180.3165 5106.9333,-160.9763"/>
<polygon fill="#000000" stroke="#000000" points="5108.3904,-164.1724 5116.6269,-157.5083 5106.0323,-157.5815 5108.3904,-164.1724"/>
</g>
<!-- leaf_53 -->
<g id="node54" class="node">
<title>leaf_53</title>
<polygon fill="none" stroke="#c0c0c0" points="6020,-142.1005 5528,-142.1005 5528,-87.4996 6020,-87.4996 6020,-142.1005"/>
<text text-anchor="middle" x="5774" y="-111.0001" font-family="Inconsolata" font-size="14.00" fill="#000000">Even within our own codebases, splices may work better than the more</text>
<text text-anchor="middle" x="5774" y="-95.6001" font-family="Inconsolata" font-size="14.00" fill="#000000">traditional literate macro for conditional compilation and the like.</text>
</g>
<!-- raw_52&#45;&gt;leaf_53 -->
<g id="edge53" class="edge">
<title>raw_52&#45;&gt;leaf_53</title>
<path fill="none" stroke="#000000" stroke-dasharray="5,2" d="M5543.8983,-211.1155C5578.6668,-196.5621 5646.331,-168.2395 5699.3246,-146.0575"/>
<polygon fill="#000000" stroke="#000000" points="5700.828,-149.2225 5708.701,-142.1327 5698.1251,-142.7654 5700.828,-149.2225"/>
</g>
</g>
</svg>
