<?xml version="1.0" encoding="UTF-8" standalone="no"?>
<!DOCTYPE svg PUBLIC "-//W3C//DTD SVG 1.1//EN"
 "http://www.w3.org/Graphics/SVG/1.1/DTD/svg11.dtd">
<!-- Generated by graphviz version 2.40.1 (20161225.0304)
 -->
<!-- Title: hierarchy Pages: 1 -->
<svg width="129pt" height="188pt"
 viewBox="0.00 0.00 129.48 188.00" xmlns="http://www.w3.org/2000/svg" xmlns:xlink="http://www.w3.org/1999/xlink">
<g id="graph0" class="graph" transform="scale(1 1) rotate(0) translate(4 184)">
<title>hierarchy</title>
<polygon fill="#ffffff" stroke="transparent" points="-4,4 -4,-184 125.4817,-184 125.4817,4 -4,4"/>
<!-- doc_0 -->
<g id="node1" class="node">
<title>doc_0</title>
<ellipse fill="none" stroke="#000000" cx="60.7408" cy="-162" rx="42.1216" ry="18"/>
<text text-anchor="middle" x="60.7408" y="-157.8" font-family="Helvetica,sans-Serif" font-size="14.00" fill="#000000">doc &#45; 25</text>
</g>
<!-- section_1 -->
<g id="node2" class="node">
<title>section_1</title>
<ellipse fill="none" stroke="#000000" cx="60.7408" cy="-90" rx="60.9826" ry="18"/>
<text text-anchor="middle" x="60.7408" y="-85.8" font-family="Helvetica,sans-Serif" font-size="14.00" fill="#000000">section: 1&#45;25</text>
</g>
<!-- doc_0&#45;&gt;section_1 -->
<g id="edge1" class="edge">
<title>doc_0&#45;&gt;section_1</title>
<path fill="none" stroke="#000000" stroke-dasharray="5,2" d="M60.7408,-143.8314C60.7408,-136.131 60.7408,-126.9743 60.7408,-118.4166"/>
<polygon fill="#000000" stroke="#000000" points="64.2409,-118.4132 60.7408,-108.4133 57.2409,-118.4133 64.2409,-118.4132"/>
</g>
<!-- header_2 -->
<g id="node3" class="node">
<title>header_2</title>
<ellipse fill="none" stroke="#000000" cx="60.7408" cy="-18" rx="52.9192" ry="18"/>
<text text-anchor="middle" x="60.7408" y="-13.8" font-family="Helvetica,sans-Serif" font-size="14.00" fill="#000000">1 : Weaver</text>
</g>
<!-- section_1&#45;&gt;header_2 -->
<g id="edge2" class="edge">
<title>section_1&#45;&gt;header_2</title>
<path fill="none" stroke="#000000" stroke-dasharray="5,2" d="M60.7408,-71.8314C60.7408,-64.131 60.7408,-54.9743 60.7408,-46.4166"/>
<polygon fill="#000000" stroke="#000000" points="64.2409,-46.4132 60.7408,-36.4133 57.2409,-46.4133 64.2409,-46.4132"/>
</g>
</g>
</svg>