<?xml version="1.0" encoding="UTF-8" standalone="no"?>
<!DOCTYPE svg PUBLIC "-//W3C//DTD SVG 1.1//EN"
 "http://www.w3.org/Graphics/SVG/1.1/DTD/svg11.dtd">
<!-- Generated by graphviz version 2.40.1 (20161225.0304)
 -->
<!-- Title: hierarchy Pages: 1 -->
<svg width="3339pt" height="294pt"
 viewBox="0.00 0.00 3338.50 294.20" xmlns="http://www.w3.org/2000/svg" xmlns:xlink="http://www.w3.org/1999/xlink">
<g id="graph0" class="graph" transform="scale(1 1) rotate(0) translate(4 290.2001)">
<title>hierarchy</title>
<polygon fill="#ffffff" stroke="transparent" points="-4,4 -4,-290.2001 3334.5,-290.2001 3334.5,4 -4,4"/>
<!-- doc_0 -->
<g id="node1" class="node">
<title>doc_0</title>
<ellipse fill="none" stroke="#000000" cx="1500" cy="-268.2001" rx="42.1216" ry="18"/>
<text text-anchor="middle" x="1500" y="-264.0001" font-family="Helvetica,sans-Serif" font-size="14.00" fill="#000000">doc &#45; 25</text>
</g>
<!-- section_1 -->
<g id="node2" class="node">
<title>section_1</title>
<ellipse fill="none" stroke="#000000" cx="1500" cy="-196.2001" rx="60.9826" ry="18"/>
<text text-anchor="middle" x="1500" y="-192.0001" font-family="Helvetica,sans-Serif" font-size="14.00" fill="#000000">section: 1&#45;25</text>
</g>
<!-- doc_0&#45;&gt;section_1 -->
<g id="edge1" class="edge">
<title>doc_0&#45;&gt;section_1</title>
<path fill="none" stroke="#000000" stroke-dasharray="5,2" d="M1500,-250.0315C1500,-242.331 1500,-233.1744 1500,-224.6167"/>
<polygon fill="#000000" stroke="#000000" points="1503.5001,-224.6133 1500,-214.6134 1496.5001,-224.6134 1503.5001,-224.6133"/>
</g>
<!-- header_2 -->
<g id="node3" class="node">
<title>header_2</title>
<ellipse fill="none" stroke="#000000" cx="1233" cy="-124.2001" rx="52.9192" ry="18"/>
<text text-anchor="middle" x="1233" y="-120.0001" font-family="Helvetica,sans-Serif" font-size="14.00" fill="#000000">1 : Weaver</text>
</g>
<!-- section_1&#45;&gt;header_2 -->
<g id="edge2" class="edge">
<title>section_1&#45;&gt;header_2</title>
<path fill="none" stroke="#000000" stroke-dasharray="5,2" d="M1453.9103,-184.4105C1412.3041,-173.6843 1349.447,-157.2722 1295,-142.2001 1290.9897,-141.09 1286.8387,-139.9233 1282.672,-138.7397"/>
<polygon fill="#000000" stroke="#000000" points="1283.5575,-135.3527 1272.9805,-135.9664 1281.6316,-142.0826 1283.5575,-135.3527"/>
</g>
<!-- prose_3 -->
<g id="node4" class="node">
<title>prose_3</title>
<ellipse fill="none" stroke="#000000" cx="1336" cy="-124.2001" rx="32.4585" ry="18"/>
<text text-anchor="middle" x="1336" y="-120.0001" font-family="Helvetica,sans-Serif" font-size="14.00" fill="#000000">prose</text>
</g>
<!-- section_1&#45;&gt;prose_3 -->
<g id="edge3" class="edge">
<title>section_1&#45;&gt;prose_3</title>
<path fill="none" stroke="#000000" stroke-dasharray="5,2" d="M1465.6202,-181.1065C1437.8097,-168.897 1398.8158,-151.7778 1370.8739,-139.5106"/>
<polygon fill="#000000" stroke="#000000" points="1372.0513,-136.2051 1361.4879,-135.3899 1369.2374,-142.6146 1372.0513,-136.2051"/>
</g>
<!-- prose_4 -->
<g id="node5" class="node">
<title>prose_4</title>
<ellipse fill="none" stroke="#000000" cx="1418" cy="-124.2001" rx="32.4585" ry="18"/>
<text text-anchor="middle" x="1418" y="-120.0001" font-family="Helvetica,sans-Serif" font-size="14.00" fill="#000000">prose</text>
</g>
<!-- section_1&#45;&gt;prose_4 -->
<g id="edge4" class="edge">
<title>section_1&#45;&gt;prose_4</title>
<path fill="none" stroke="#000000" stroke-dasharray="5,2" d="M1480.5671,-179.1371C1469.3006,-169.2445 1454.9965,-156.6848 1442.9098,-146.0721"/>
<polygon fill="#000000" stroke="#000000" points="1445.1653,-143.3948 1435.3415,-139.4268 1440.5466,-148.6549 1445.1653,-143.3948"/>
</g>
<!-- prose_5 -->
<g id="node6" class="node">
<title>prose_5</title>
<ellipse fill="none" stroke="#000000" cx="1500" cy="-124.2001" rx="32.4585" ry="18"/>
<text text-anchor="middle" x="1500" y="-120.0001" font-family="Helvetica,sans-Serif" font-size="14.00" fill="#000000">prose</text>
</g>
<!-- section_1&#45;&gt;prose_5 -->
<g id="edge5" class="edge">
<title>section_1&#45;&gt;prose_5</title>
<path fill="none" stroke="#000000" stroke-dasharray="5,2" d="M1500,-178.0315C1500,-170.331 1500,-161.1744 1500,-152.6167"/>
<polygon fill="#000000" stroke="#000000" points="1503.5001,-152.6133 1500,-142.6134 1496.5001,-152.6134 1503.5001,-152.6133"/>
</g>
<!-- prose_6 -->
<g id="node7" class="node">
<title>prose_6</title>
<ellipse fill="none" stroke="#000000" cx="1819" cy="-124.2001" rx="32.4585" ry="18"/>
<text text-anchor="middle" x="1819" y="-120.0001" font-family="Helvetica,sans-Serif" font-size="14.00" fill="#000000">prose</text>
</g>
<!-- section_1&#45;&gt;prose_6 -->
<g id="edge6" class="edge">
<title>section_1&#45;&gt;prose_6</title>
<path fill="none" stroke="#000000" stroke-dasharray="5,2" d="M1548.4492,-185.2648C1611.4233,-171.0513 1720.2476,-146.489 1778.8513,-133.2619"/>
<polygon fill="#000000" stroke="#000000" points="1779.8593,-136.6225 1788.8434,-131.0066 1778.3181,-129.7942 1779.8593,-136.6225"/>
</g>
<!-- prose_7 -->
<g id="node8" class="node">
<title>prose_7</title>
<ellipse fill="none" stroke="#000000" cx="2260" cy="-124.2001" rx="32.4585" ry="18"/>
<text text-anchor="middle" x="2260" y="-120.0001" font-family="Helvetica,sans-Serif" font-size="14.00" fill="#000000">prose</text>
</g>
<!-- section_1&#45;&gt;prose_7 -->
<g id="edge7" class="edge">
<title>section_1&#45;&gt;prose_7</title>
<path fill="none" stroke="#000000" stroke-dasharray="5,2" d="M1558.0603,-190.6996C1705.2128,-176.7589 2090.1604,-140.2902 2218.0294,-128.1763"/>
<polygon fill="#000000" stroke="#000000" points="2218.5677,-131.641 2228.193,-127.2134 2217.9074,-124.6722 2218.5677,-131.641"/>
</g>
<!-- prose_8 -->
<g id="node9" class="node">
<title>prose_8</title>
<ellipse fill="none" stroke="#000000" cx="2760" cy="-124.2001" rx="32.4585" ry="18"/>
<text text-anchor="middle" x="2760" y="-120.0001" font-family="Helvetica,sans-Serif" font-size="14.00" fill="#000000">prose</text>
</g>
<!-- section_1&#45;&gt;prose_8 -->
<g id="edge8" class="edge">
<title>section_1&#45;&gt;prose_8</title>
<path fill="none" stroke="#000000" stroke-dasharray="5,2" d="M1559.9248,-192.7758C1778.5723,-180.2817 2530.3816,-137.3211 2717.5454,-126.6261"/>
<polygon fill="#000000" stroke="#000000" points="2718.0151,-130.105 2727.7991,-126.0401 2717.6157,-123.1164 2718.0151,-130.105"/>
</g>
<!-- leaf_9 -->
<g id="node10" class="node">
<title>leaf_9</title>
<polygon fill="none" stroke="#c0c0c0" points="548,-70.3004 0,-70.3004 0,.1003 548,.1003 548,-70.3004"/>
<text text-anchor="middle" x="274" y="-39.0001" font-family="Inconsolata" font-size="14.00" fill="#000000"> &#160;Our weaver is responsible for creating presentation views from a document.</text>
<text text-anchor="middle" x="274" y="-23.6001" font-family="Inconsolata" font-size="14.00" fill="#000000">This is in keeping with Dr. Knuth&#39;s original method of literate programming,</text>
<text text-anchor="middle" x="274" y="-8.2" font-family="Inconsolata" font-size="14.00" fill="#000000">where the weave was properly typeset code printed on paper. </text>
</g>
<!-- prose_3&#45;&gt;leaf_9 -->
<g id="edge9" class="edge">
<title>prose_3&#45;&gt;leaf_9</title>
<path fill="none" stroke="#000000" stroke-dasharray="5,2" d="M1312.2245,-112.0255C1306.7007,-109.6905 1300.7509,-107.554 1295,-106.2001 1138.218,-69.2896 736.2848,-83.7347 558.1891,-70.2312"/>
<polygon fill="#000000" stroke="#000000" points="558.3235,-66.7307 548.0737,-69.4126 557.7588,-73.7079 558.3235,-66.7307"/>
</g>
<!-- leaf_10 -->
<g id="node11" class="node">
<title>leaf_10</title>
<polygon fill="none" stroke="#c0c0c0" points="1100,-69.7013 566,-69.7013 566,-.4988 1100,-.4988 1100,-69.7013"/>
<text text-anchor="middle" x="833" y="-54.7001" font-family="Inconsolata" font-size="14.00" fill="#000000">Grimoire intends to support (La)TeX output, and thereby physical printing.</text>
<text text-anchor="middle" x="833" y="-39.3001" font-family="Inconsolata" font-size="14.00" fill="#000000">We don&#39;t consider it especially important. &#160;Grimoire offers few advantages</text>
<text text-anchor="middle" x="833" y="-23.9" font-family="Inconsolata" font-size="14.00" fill="#000000">over Markdown for those exclusively concerned with prosaic contents, and </text>
<text text-anchor="middle" x="833" y="-8.5" font-family="Inconsolata" font-size="14.00" fill="#000000">authors who work only with prose have no special motive to adopt it. </text>
</g>
<!-- prose_4&#45;&gt;leaf_10 -->
<g id="edge10" class="edge">
<title>prose_4&#45;&gt;leaf_10</title>
<path fill="none" stroke="#000000" stroke-dasharray="5,2" d="M1393.6994,-112.1846C1388.305,-109.9002 1382.5414,-107.7446 1377,-106.2001 1369.8603,-104.2101 1240.9881,-87.3378 1110.4822,-70.5301"/>
<polygon fill="#000000" stroke="#000000" points="1110.6462,-67.0224 1100.2811,-69.2168 1109.7524,-73.9651 1110.6462,-67.0224"/>
</g>
<!-- leaf_11 -->
<g id="node12" class="node">
<title>leaf_11</title>
<polygon fill="none" stroke="#c0c0c0" points="1645.5,-62.3005 1118.5,-62.3005 1118.5,-7.8996 1645.5,-7.8996 1645.5,-62.3005"/>
<text text-anchor="middle" x="1382" y="-47.0001" font-family="Inconsolata" font-size="14.00" fill="#000000">The core use case for our weave is producing views of the Orb files of a </text>
<text text-anchor="middle" x="1382" y="-31.6001" font-family="Inconsolata" font-size="14.00" fill="#000000">full ingenium. &#160;Thus our weaves are themselves software, and this may in</text>
<text text-anchor="middle" x="1382" y="-16.2" font-family="Inconsolata" font-size="14.00" fill="#000000">turn interact with the original document if desired.</text>
</g>
<!-- prose_5&#45;&gt;leaf_11 -->
<g id="edge11" class="edge">
<title>prose_5&#45;&gt;leaf_11</title>
<path fill="none" stroke="#000000" stroke-dasharray="5,2" d="M1480.7786,-109.6863C1465.9878,-98.518 1444.954,-82.6356 1426.0945,-68.3951"/>
<polygon fill="#000000" stroke="#000000" points="1427.9816,-65.4344 1417.892,-62.2016 1423.7634,-71.0207 1427.9816,-65.4344"/>
</g>
<!-- leaf_12 -->
<g id="node13" class="node">
<title>leaf_12</title>
<polygon fill="none" stroke="#c0c0c0" points="2212,-62.3005 1664,-62.3005 1664,-7.8996 2212,-7.8996 2212,-62.3005"/>
<text text-anchor="middle" x="1938" y="-47.0001" font-family="Inconsolata" font-size="14.00" fill="#000000">We start by supporting a simple, static view of the original Grimoire</text>
<text text-anchor="middle" x="1938" y="-31.6001" font-family="Inconsolata" font-size="14.00" fill="#000000">documents. &#160;Thus the very first output we intend to support is just good ol&#39;</text>
<text text-anchor="middle" x="1938" y="-16.2" font-family="Inconsolata" font-size="14.00" fill="#000000">Git&#45;Flavored Markdown. </text>
</g>
<!-- prose_6&#45;&gt;leaf_12 -->
<g id="edge12" class="edge">
<title>prose_6&#45;&gt;leaf_12</title>
<path fill="none" stroke="#000000" stroke-dasharray="5,2" d="M1838.3843,-109.6863C1853.3673,-98.4679 1874.7029,-82.4931 1893.7876,-68.2037"/>
<polygon fill="#000000" stroke="#000000" points="1895.8967,-70.9969 1901.8038,-62.2016 1891.7012,-65.3935 1895.8967,-70.9969"/>
</g>
<!-- leaf_13 -->
<g id="node14" class="node">
<title>leaf_13</title>
<polygon fill="none" stroke="#c0c0c0" points="2771.5,-62.3005 2230.5,-62.3005 2230.5,-7.8996 2771.5,-7.8996 2771.5,-62.3005"/>
<text text-anchor="middle" x="2501" y="-47.0001" font-family="Inconsolata" font-size="14.00" fill="#000000">With this written we actually have a fairly capable system. It can invert a</text>
<text text-anchor="middle" x="2501" y="-31.6001" font-family="Inconsolata" font-size="14.00" fill="#000000">source tree into the =orb= directory, knit a sorcery directory from that,</text>
<text text-anchor="middle" x="2501" y="-16.2" font-family="Inconsolata" font-size="14.00" fill="#000000">and produce documentation which GitHub can display natively. </text>
</g>
<!-- prose_7&#45;&gt;leaf_13 -->
<g id="edge13" class="edge">
<title>prose_7&#45;&gt;leaf_13</title>
<path fill="none" stroke="#000000" stroke-dasharray="5,2" d="M2287.1773,-114.1524C2318.7245,-102.4891 2372.2602,-82.6964 2417.869,-65.8344"/>
<polygon fill="#000000" stroke="#000000" points="2419.3045,-69.0353 2427.4703,-62.2847 2416.8771,-62.4696 2419.3045,-69.0353"/>
</g>
<!-- leaf_14 -->
<g id="node15" class="node">
<title>leaf_14</title>
<polygon fill="none" stroke="#c0c0c0" points="3330.5,-54.4006 2789.5,-54.4006 2789.5,-15.7995 3330.5,-15.7995 3330.5,-54.4006"/>
<text text-anchor="middle" x="3060" y="-39.3001" font-family="Inconsolata" font-size="14.00" fill="#000000">Add a little shim to Sublime to display Grimoire documents and I&#39;m ready to</text>
<text text-anchor="middle" x="3060" y="-23.9" font-family="Inconsolata" font-size="14.00" fill="#000000">start working on the editor and the quipu, and then Lun and Clu. </text>
</g>
<!-- prose_8&#45;&gt;leaf_14 -->
<g id="edge14" class="edge">
<title>prose_8&#45;&gt;leaf_14</title>
<path fill="none" stroke="#000000" stroke-dasharray="5,2" d="M2788.4937,-115.7374C2833.2203,-102.4537 2921.3738,-76.2721 2985.1238,-57.3383"/>
<polygon fill="#000000" stroke="#000000" points="2986.1498,-60.6848 2994.7394,-54.4825 2984.1568,-53.9745 2986.1498,-60.6848"/>
</g>
</g>
</svg>