<?xml version="1.0" encoding="UTF-8" standalone="no"?>
<!DOCTYPE svg PUBLIC "-//W3C//DTD SVG 1.1//EN"
 "http://www.w3.org/Graphics/SVG/1.1/DTD/svg11.dtd">
<!-- Generated by graphviz version 2.40.1 (20161225.0304)
 -->
<!-- Title: hierarchy Pages: 1 -->
<svg width="3339pt" height="310pt"
 viewBox="0.00 0.00 3338.50 310.20" xmlns="http://www.w3.org/2000/svg" xmlns:xlink="http://www.w3.org/1999/xlink">
<g id="graph0" class="graph" transform="scale(1 1) rotate(0) translate(4 306.2001)">
<title>hierarchy</title>
<polygon fill="#ffffff" stroke="transparent" points="-4,4 -4,-306.2001 3334.5,-306.2001 3334.5,4 -4,4"/>
<!-- doc_0 -->
<g id="node1" class="node">
<title>doc_0</title>
<ellipse fill="none" stroke="#000000" cx="1500" cy="-284.2001" rx="42.1216" ry="18"/>
<text text-anchor="middle" x="1500" y="-280.0001" font-family="Helvetica,sans-Serif" font-size="14.00" fill="#000000">doc &#45; 25</text>
</g>
<!-- section_1 -->
<g id="node2" class="node">
<title>section_1</title>
<ellipse fill="none" stroke="#000000" cx="1500" cy="-212.2001" rx="60.9826" ry="18"/>
<text text-anchor="middle" x="1500" y="-208.0001" font-family="Helvetica,sans-Serif" font-size="14.00" fill="#000000">section: 1&#45;25</text>
</g>
<!-- doc_0&#45;&gt;section_1 -->
<g id="edge1" class="edge">
<title>doc_0&#45;&gt;section_1</title>
<path fill="none" stroke="#000000" stroke-dasharray="5,2" d="M1500,-266.0315C1500,-258.331 1500,-249.1744 1500,-240.6167"/>
<polygon fill="#000000" stroke="#000000" points="1503.5001,-240.6133 1500,-230.6134 1496.5001,-240.6134 1503.5001,-240.6133"/>
</g>
<!-- header_2 -->
<g id="node3" class="node">
<title>header_2</title>
<ellipse fill="none" stroke="#000000" cx="1233" cy="-140.2001" rx="52.9192" ry="18"/>
<text text-anchor="middle" x="1233" y="-136.0001" font-family="Helvetica,sans-Serif" font-size="14.00" fill="#000000">1 : Weaver</text>
</g>
<!-- section_1&#45;&gt;header_2 -->
<g id="edge2" class="edge">
<title>section_1&#45;&gt;header_2</title>
<path fill="none" stroke="#000000" stroke-dasharray="5,2" d="M1453.9103,-200.4105C1412.3041,-189.6843 1349.447,-173.2722 1295,-158.2001 1290.9897,-157.09 1286.8387,-155.9233 1282.672,-154.7397"/>
<polygon fill="#000000" stroke="#000000" points="1283.5575,-151.3527 1272.9805,-151.9664 1281.6316,-158.0826 1283.5575,-151.3527"/>
</g>
<!-- prose_3 -->
<g id="node4" class="node">
<title>prose_3</title>
<ellipse fill="none" stroke="#000000" cx="1336" cy="-140.2001" rx="32.4585" ry="18"/>
<text text-anchor="middle" x="1336" y="-136.0001" font-family="Helvetica,sans-Serif" font-size="14.00" fill="#000000">prose</text>
</g>
<!-- section_1&#45;&gt;prose_3 -->
<g id="edge3" class="edge">
<title>section_1&#45;&gt;prose_3</title>
<path fill="none" stroke="#000000" stroke-dasharray="5,2" d="M1465.6202,-197.1065C1437.8097,-184.897 1398.8158,-167.7778 1370.8739,-155.5106"/>
<polygon fill="#000000" stroke="#000000" points="1372.0513,-152.2051 1361.4879,-151.3899 1369.2374,-158.6146 1372.0513,-152.2051"/>
</g>
<!-- prose_4 -->
<g id="node5" class="node">
<title>prose_4</title>
<ellipse fill="none" stroke="#000000" cx="1418" cy="-140.2001" rx="32.4585" ry="18"/>
<text text-anchor="middle" x="1418" y="-136.0001" font-family="Helvetica,sans-Serif" font-size="14.00" fill="#000000">prose</text>
</g>
<!-- section_1&#45;&gt;prose_4 -->
<g id="edge4" class="edge">
<title>section_1&#45;&gt;prose_4</title>
<path fill="none" stroke="#000000" stroke-dasharray="5,2" d="M1480.5671,-195.1371C1469.3006,-185.2445 1454.9965,-172.6848 1442.9098,-162.0721"/>
<polygon fill="#000000" stroke="#000000" points="1445.1653,-159.3948 1435.3415,-155.4268 1440.5466,-164.6549 1445.1653,-159.3948"/>
</g>
<!-- prose_5 -->
<g id="node6" class="node">
<title>prose_5</title>
<ellipse fill="none" stroke="#000000" cx="1500" cy="-140.2001" rx="32.4585" ry="18"/>
<text text-anchor="middle" x="1500" y="-136.0001" font-family="Helvetica,sans-Serif" font-size="14.00" fill="#000000">prose</text>
</g>
<!-- section_1&#45;&gt;prose_5 -->
<g id="edge5" class="edge">
<title>section_1&#45;&gt;prose_5</title>
<path fill="none" stroke="#000000" stroke-dasharray="5,2" d="M1500,-194.0315C1500,-186.331 1500,-177.1744 1500,-168.6167"/>
<polygon fill="#000000" stroke="#000000" points="1503.5001,-168.6133 1500,-158.6134 1496.5001,-168.6134 1503.5001,-168.6133"/>
</g>
<!-- prose_6 -->
<g id="node7" class="node">
<title>prose_6</title>
<ellipse fill="none" stroke="#000000" cx="1819" cy="-140.2001" rx="32.4585" ry="18"/>
<text text-anchor="middle" x="1819" y="-136.0001" font-family="Helvetica,sans-Serif" font-size="14.00" fill="#000000">prose</text>
</g>
<!-- section_1&#45;&gt;prose_6 -->
<g id="edge6" class="edge">
<title>section_1&#45;&gt;prose_6</title>
<path fill="none" stroke="#000000" stroke-dasharray="5,2" d="M1548.4492,-201.2648C1611.4233,-187.0513 1720.2476,-162.489 1778.8513,-149.2619"/>
<polygon fill="#000000" stroke="#000000" points="1779.8593,-152.6225 1788.8434,-147.0066 1778.3181,-145.7942 1779.8593,-152.6225"/>
</g>
<!-- prose_7 -->
<g id="node8" class="node">
<title>prose_7</title>
<ellipse fill="none" stroke="#000000" cx="2260" cy="-140.2001" rx="32.4585" ry="18"/>
<text text-anchor="middle" x="2260" y="-136.0001" font-family="Helvetica,sans-Serif" font-size="14.00" fill="#000000">prose</text>
</g>
<!-- section_1&#45;&gt;prose_7 -->
<g id="edge7" class="edge">
<title>section_1&#45;&gt;prose_7</title>
<path fill="none" stroke="#000000" stroke-dasharray="5,2" d="M1558.0603,-206.6996C1705.2128,-192.7589 2090.1604,-156.2902 2218.0294,-144.1763"/>
<polygon fill="#000000" stroke="#000000" points="2218.5677,-147.641 2228.193,-143.2134 2217.9074,-140.6722 2218.5677,-147.641"/>
</g>
<!-- prose_8 -->
<g id="node9" class="node">
<title>prose_8</title>
<ellipse fill="none" stroke="#000000" cx="2760" cy="-140.2001" rx="32.4585" ry="18"/>
<text text-anchor="middle" x="2760" y="-136.0001" font-family="Helvetica,sans-Serif" font-size="14.00" fill="#000000">prose</text>
</g>
<!-- section_1&#45;&gt;prose_8 -->
<g id="edge8" class="edge">
<title>section_1&#45;&gt;prose_8</title>
<path fill="none" stroke="#000000" stroke-dasharray="5,2" d="M1559.9248,-208.7758C1778.5723,-196.2817 2530.3816,-153.3211 2717.5454,-142.6261"/>
<polygon fill="#000000" stroke="#000000" points="2718.0151,-146.105 2727.7991,-142.0401 2717.6157,-139.1164 2718.0151,-146.105"/>
</g>
<!-- leaf_9 -->
<g id="node10" class="node">
<title>leaf_9</title>
<polygon fill="none" stroke="#c0c0c0" points="548,-86.3004 0,-86.3004 0,.1003 548,.1003 548,-86.3004"/>
<text text-anchor="middle" x="274" y="-39.0001" font-family="Inconsolata" font-size="14.00" fill="#000000"> &#160;Our weaver is responsible for creating presentation views from a document.</text>
<text text-anchor="middle" x="274" y="-23.6001" font-family="Inconsolata" font-size="14.00" fill="#000000">This is in keeping with Dr. Knuth&#39;s original method of literate programming,</text>
<text text-anchor="middle" x="274" y="-8.2" font-family="Inconsolata" font-size="14.00" fill="#000000">where the weave was properly typeset code printed on paper. </text>
</g>
<!-- prose_3&#45;&gt;leaf_9 -->
<g id="edge9" class="edge">
<title>prose_3&#45;&gt;leaf_9</title>
<path fill="none" stroke="#000000" stroke-dasharray="5,2" d="M1312.2245,-128.0255C1306.7007,-125.6905 1300.7509,-123.554 1295,-122.2001 978.6266,-47.7176 885.6539,-117.5029 558.3024,-86.2821"/>
<polygon fill="#000000" stroke="#000000" points="558.3456,-82.7697 548.0522,-85.279 557.6637,-89.7364 558.3456,-82.7697"/>
</g>
<!-- leaf_10 -->
<g id="node11" class="node">
<title>leaf_10</title>
<polygon fill="none" stroke="#c0c0c0" points="1100,-85.7011 566,-85.7011 566,-.499 1100,-.499 1100,-85.7011"/>
<text text-anchor="middle" x="833" y="-54.7001" font-family="Inconsolata" font-size="14.00" fill="#000000">Grimoire intends to support (La)TeX output, and thereby physical printing.</text>
<text text-anchor="middle" x="833" y="-39.3001" font-family="Inconsolata" font-size="14.00" fill="#000000">We don&#39;t consider it especially important. &#160;Grimoire offers few advantages</text>
<text text-anchor="middle" x="833" y="-23.9" font-family="Inconsolata" font-size="14.00" fill="#000000">over Markdown for those exclusively concerned with prosaic contents, and </text>
<text text-anchor="middle" x="833" y="-8.5" font-family="Inconsolata" font-size="14.00" fill="#000000">authors who work only with prose have no special motive to adopt it. </text>
</g>
<!-- prose_4&#45;&gt;leaf_10 -->
<g id="edge10" class="edge">
<title>prose_4&#45;&gt;leaf_10</title>
<path fill="none" stroke="#000000" stroke-dasharray="5,2" d="M1393.6952,-128.1996C1388.3011,-125.9143 1382.5386,-123.7545 1377,-122.2001 1264.3405,-90.5825 1229.7496,-102.7797 1110.2151,-86.3342"/>
<polygon fill="#000000" stroke="#000000" points="1110.7052,-82.8688 1100.3136,-84.9337 1109.7248,-89.7998 1110.7052,-82.8688"/>
</g>
<!-- leaf_11 -->
<g id="node12" class="node">
<title>leaf_11</title>
<polygon fill="none" stroke="#c0c0c0" points="1645.5,-78.3004 1118.5,-78.3004 1118.5,-7.8997 1645.5,-7.8997 1645.5,-78.3004"/>
<text text-anchor="middle" x="1382" y="-47.0001" font-family="Inconsolata" font-size="14.00" fill="#000000">The core use case for our weave is producing views of the Orb files of a </text>
<text text-anchor="middle" x="1382" y="-31.6001" font-family="Inconsolata" font-size="14.00" fill="#000000">full ingenium. &#160;Thus our weaves are themselves software, and this may in</text>
<text text-anchor="middle" x="1382" y="-16.2" font-family="Inconsolata" font-size="14.00" fill="#000000">turn interact with the original document if desired.</text>
</g>
<!-- prose_5&#45;&gt;leaf_11 -->
<g id="edge11" class="edge">
<title>prose_5&#45;&gt;leaf_11</title>
<path fill="none" stroke="#000000" stroke-dasharray="5,2" d="M1481.8211,-125.241C1468.6465,-114.3999 1450.1454,-99.1757 1432.6453,-84.7751"/>
<polygon fill="#000000" stroke="#000000" points="1434.6435,-81.8868 1424.6978,-78.2353 1430.1956,-87.292 1434.6435,-81.8868"/>
</g>
<!-- leaf_12 -->
<g id="node13" class="node">
<title>leaf_12</title>
<polygon fill="none" stroke="#c0c0c0" points="2212,-78.3004 1664,-78.3004 1664,-7.8997 2212,-7.8997 2212,-78.3004"/>
<text text-anchor="middle" x="1938" y="-47.0001" font-family="Inconsolata" font-size="14.00" fill="#000000">We start by supporting a simple, static view of the original Grimoire</text>
<text text-anchor="middle" x="1938" y="-31.6001" font-family="Inconsolata" font-size="14.00" fill="#000000">documents. &#160;Thus the very first output we intend to support is just good ol&#39;</text>
<text text-anchor="middle" x="1938" y="-16.2" font-family="Inconsolata" font-size="14.00" fill="#000000">Git&#45;Flavored Markdown. </text>
</g>
<!-- prose_6&#45;&gt;leaf_12 -->
<g id="edge12" class="edge">
<title>prose_6&#45;&gt;leaf_12</title>
<path fill="none" stroke="#000000" stroke-dasharray="5,2" d="M1837.333,-125.241C1850.6192,-114.3999 1869.2771,-99.1757 1886.9255,-84.7751"/>
<polygon fill="#000000" stroke="#000000" points="1889.4051,-87.2692 1894.9404,-78.2353 1884.9796,-81.8456 1889.4051,-87.2692"/>
</g>
<!-- leaf_13 -->
<g id="node14" class="node">
<title>leaf_13</title>
<polygon fill="none" stroke="#c0c0c0" points="2771.5,-78.3004 2230.5,-78.3004 2230.5,-7.8997 2771.5,-7.8997 2771.5,-78.3004"/>
<text text-anchor="middle" x="2501" y="-47.0001" font-family="Inconsolata" font-size="14.00" fill="#000000">With this written we actually have a fairly capable system. It can invert a</text>
<text text-anchor="middle" x="2501" y="-31.6001" font-family="Inconsolata" font-size="14.00" fill="#000000">source tree into the =orb= directory, knit a sorcery directory from that,</text>
<text text-anchor="middle" x="2501" y="-16.2" font-family="Inconsolata" font-size="14.00" fill="#000000">and produce documentation which GitHub can display natively. </text>
</g>
<!-- prose_7&#45;&gt;leaf_13 -->
<g id="edge13" class="edge">
<title>prose_7&#45;&gt;leaf_13</title>
<path fill="none" stroke="#000000" stroke-dasharray="5,2" d="M2286.25,-129.6238C2314.6641,-118.1757 2361.6665,-99.2382 2404.4655,-81.9942"/>
<polygon fill="#000000" stroke="#000000" points="2405.8424,-85.213 2413.8098,-78.2294 2403.2263,-78.7202 2405.8424,-85.213"/>
</g>
<!-- leaf_14 -->
<g id="node15" class="node">
<title>leaf_14</title>
<polygon fill="none" stroke="#c0c0c0" points="3330.5,-70.4005 2789.5,-70.4005 2789.5,-15.7996 3330.5,-15.7996 3330.5,-70.4005"/>
<text text-anchor="middle" x="3060" y="-39.3001" font-family="Inconsolata" font-size="14.00" fill="#000000">Add a little shim to Sublime to display Grimoire documents and I&#39;m ready to</text>
<text text-anchor="middle" x="3060" y="-23.9" font-family="Inconsolata" font-size="14.00" fill="#000000">start working on the editor and the quipu, and then Lun and Clu. </text>
</g>
<!-- prose_8&#45;&gt;leaf_14 -->
<g id="edge14" class="edge">
<title>prose_8&#45;&gt;leaf_14</title>
<path fill="none" stroke="#000000" stroke-dasharray="5,2" d="M2787.9539,-131.1524C2828.133,-118.1477 2904.1401,-93.5467 2965.6225,-73.6469"/>
<polygon fill="#000000" stroke="#000000" points="2966.9214,-76.9053 2975.3577,-70.496 2964.7658,-70.2455 2966.9214,-76.9053"/>
</g>
</g>
</svg>