<?xml version="1.0" encoding="UTF-8" standalone="no"?>
<!DOCTYPE svg PUBLIC "-//W3C//DTD SVG 1.1//EN"
 "http://www.w3.org/Graphics/SVG/1.1/DTD/svg11.dtd">
<!-- Generated by graphviz version 2.40.1 (20161225.0304)
 -->
<!-- Title: hierarchy Pages: 1 -->
<svg width="3339pt" height="382pt"
 viewBox="0.00 0.00 3338.50 382.20" xmlns="http://www.w3.org/2000/svg" xmlns:xlink="http://www.w3.org/1999/xlink">
<g id="graph0" class="graph" transform="scale(1 1) rotate(0) translate(4 378.2001)">
<title>hierarchy</title>
<polygon fill="#ffffff" stroke="transparent" points="-4,4 -4,-378.2001 3334.5,-378.2001 3334.5,4 -4,4"/>
<!-- doc_0 -->
<g id="node1" class="node">
<title>doc_0</title>
<ellipse fill="none" stroke="#000000" cx="1506" cy="-356.2001" rx="42.1216" ry="18"/>
<text text-anchor="middle" x="1506" y="-352.0001" font-family="Helvetica,sans-Serif" font-size="14.00" fill="#000000">doc &#45; 25</text>
</g>
<!-- section_1 -->
<g id="node2" class="node">
<title>section_1</title>
<ellipse fill="none" stroke="#000000" cx="1506" cy="-284.2001" rx="60.9826" ry="18"/>
<text text-anchor="middle" x="1506" y="-280.0001" font-family="Helvetica,sans-Serif" font-size="14.00" fill="#000000">section: 1&#45;25</text>
</g>
<!-- doc_0&#45;&gt;section_1 -->
<g id="edge1" class="edge">
<title>doc_0&#45;&gt;section_1</title>
<path fill="none" stroke="#000000" stroke-dasharray="5,2" d="M1506,-338.0315C1506,-330.331 1506,-321.1744 1506,-312.6167"/>
<polygon fill="#000000" stroke="#000000" points="1509.5001,-312.6133 1506,-302.6134 1502.5001,-312.6134 1509.5001,-312.6133"/>
</g>
<!-- header_2 -->
<g id="node3" class="node">
<title>header_2</title>
<ellipse fill="none" stroke="#000000" cx="1239" cy="-212.2001" rx="52.9192" ry="18"/>
<text text-anchor="middle" x="1239" y="-208.0001" font-family="Helvetica,sans-Serif" font-size="14.00" fill="#000000">1 : Weaver</text>
</g>
<!-- section_1&#45;&gt;header_2 -->
<g id="edge2" class="edge">
<title>section_1&#45;&gt;header_2</title>
<path fill="none" stroke="#000000" stroke-dasharray="5,2" d="M1459.9103,-272.4105C1418.3041,-261.6843 1355.447,-245.2722 1301,-230.2001 1296.9897,-229.09 1292.8387,-227.9233 1288.672,-226.7397"/>
<polygon fill="#000000" stroke="#000000" points="1289.5575,-223.3527 1278.9805,-223.9664 1287.6316,-230.0826 1289.5575,-223.3527"/>
</g>
<!-- prose_3 -->
<g id="node4" class="node">
<title>prose_3</title>
<ellipse fill="none" stroke="#000000" cx="1342" cy="-212.2001" rx="32.4585" ry="18"/>
<text text-anchor="middle" x="1342" y="-208.0001" font-family="Helvetica,sans-Serif" font-size="14.00" fill="#000000">prose</text>
</g>
<!-- section_1&#45;&gt;prose_3 -->
<g id="edge3" class="edge">
<title>section_1&#45;&gt;prose_3</title>
<path fill="none" stroke="#000000" stroke-dasharray="5,2" d="M1471.6202,-269.1065C1443.8097,-256.897 1404.8158,-239.7778 1376.8739,-227.5106"/>
<polygon fill="#000000" stroke="#000000" points="1378.0513,-224.2051 1367.4879,-223.3899 1375.2374,-230.6146 1378.0513,-224.2051"/>
</g>
<!-- prose_4 -->
<g id="node5" class="node">
<title>prose_4</title>
<ellipse fill="none" stroke="#000000" cx="1424" cy="-212.2001" rx="32.4585" ry="18"/>
<text text-anchor="middle" x="1424" y="-208.0001" font-family="Helvetica,sans-Serif" font-size="14.00" fill="#000000">prose</text>
</g>
<!-- section_1&#45;&gt;prose_4 -->
<g id="edge4" class="edge">
<title>section_1&#45;&gt;prose_4</title>
<path fill="none" stroke="#000000" stroke-dasharray="5,2" d="M1486.5671,-267.1371C1475.3006,-257.2445 1460.9965,-244.6848 1448.9098,-234.0721"/>
<polygon fill="#000000" stroke="#000000" points="1451.1653,-231.3948 1441.3415,-227.4268 1446.5466,-236.6549 1451.1653,-231.3948"/>
</g>
<!-- prose_5 -->
<g id="node6" class="node">
<title>prose_5</title>
<ellipse fill="none" stroke="#000000" cx="1506" cy="-212.2001" rx="32.4585" ry="18"/>
<text text-anchor="middle" x="1506" y="-208.0001" font-family="Helvetica,sans-Serif" font-size="14.00" fill="#000000">prose</text>
</g>
<!-- section_1&#45;&gt;prose_5 -->
<g id="edge5" class="edge">
<title>section_1&#45;&gt;prose_5</title>
<path fill="none" stroke="#000000" stroke-dasharray="5,2" d="M1506,-266.0315C1506,-258.331 1506,-249.1744 1506,-240.6167"/>
<polygon fill="#000000" stroke="#000000" points="1509.5001,-240.6133 1506,-230.6134 1502.5001,-240.6134 1509.5001,-240.6133"/>
</g>
<!-- prose_6 -->
<g id="node7" class="node">
<title>prose_6</title>
<ellipse fill="none" stroke="#000000" cx="1825" cy="-212.2001" rx="32.4585" ry="18"/>
<text text-anchor="middle" x="1825" y="-208.0001" font-family="Helvetica,sans-Serif" font-size="14.00" fill="#000000">prose</text>
</g>
<!-- section_1&#45;&gt;prose_6 -->
<g id="edge6" class="edge">
<title>section_1&#45;&gt;prose_6</title>
<path fill="none" stroke="#000000" stroke-dasharray="5,2" d="M1554.4492,-273.2648C1617.4233,-259.0513 1726.2476,-234.489 1784.8513,-221.2619"/>
<polygon fill="#000000" stroke="#000000" points="1785.8593,-224.6225 1794.8434,-219.0066 1784.3181,-217.7942 1785.8593,-224.6225"/>
</g>
<!-- prose_7 -->
<g id="node8" class="node">
<title>prose_7</title>
<ellipse fill="none" stroke="#000000" cx="2266" cy="-212.2001" rx="32.4585" ry="18"/>
<text text-anchor="middle" x="2266" y="-208.0001" font-family="Helvetica,sans-Serif" font-size="14.00" fill="#000000">prose</text>
</g>
<!-- section_1&#45;&gt;prose_7 -->
<g id="edge7" class="edge">
<title>section_1&#45;&gt;prose_7</title>
<path fill="none" stroke="#000000" stroke-dasharray="5,2" d="M1564.0603,-278.6996C1711.2128,-264.7589 2096.1604,-228.2902 2224.0294,-216.1763"/>
<polygon fill="#000000" stroke="#000000" points="2224.5677,-219.641 2234.193,-215.2134 2223.9074,-212.6722 2224.5677,-219.641"/>
</g>
<!-- prose_8 -->
<g id="node9" class="node">
<title>prose_8</title>
<ellipse fill="none" stroke="#000000" cx="2766" cy="-212.2001" rx="32.4585" ry="18"/>
<text text-anchor="middle" x="2766" y="-208.0001" font-family="Helvetica,sans-Serif" font-size="14.00" fill="#000000">prose</text>
</g>
<!-- section_1&#45;&gt;prose_8 -->
<g id="edge8" class="edge">
<title>section_1&#45;&gt;prose_8</title>
<path fill="none" stroke="#000000" stroke-dasharray="5,2" d="M1565.9248,-280.7758C1784.5723,-268.2817 2536.3816,-225.3211 2723.5454,-214.6261"/>
<polygon fill="#000000" stroke="#000000" points="2724.0151,-218.105 2733.7991,-214.0401 2723.6157,-211.1164 2724.0151,-218.105"/>
</g>
<!-- leaf_9 -->
<g id="node10" class="node">
<title>leaf_9</title>
<polygon fill="none" stroke="#c0c0c0" points="1266,-158.2001 1212,-158.2001 1212,-122.2001 1266,-122.2001 1266,-158.2001"/>
</g>
<!-- header_2&#45;&gt;leaf_9 -->
<g id="edge9" class="edge">
<title>header_2&#45;&gt;leaf_9</title>
<path fill="none" stroke="#000000" stroke-dasharray="5,2" d="M1239,-194.0315C1239,-186.331 1239,-177.1744 1239,-168.6167"/>
<polygon fill="#000000" stroke="#000000" points="1242.5001,-168.6133 1239,-158.6134 1235.5001,-168.6134 1242.5001,-168.6133"/>
</g>
<!-- raw_10 -->
<g id="node11" class="node">
<title>raw_10</title>
<ellipse fill="none" stroke="#000000" cx="1326" cy="-140.2001" rx="27" ry="18"/>
<text text-anchor="middle" x="1326" y="-136.0001" font-family="Helvetica,sans-Serif" font-size="14.00" fill="#000000">raw</text>
</g>
<!-- prose_3&#45;&gt;raw_10 -->
<g id="edge10" class="edge">
<title>prose_3&#45;&gt;raw_10</title>
<path fill="none" stroke="#000000" stroke-dasharray="5,2" d="M1337.9625,-194.0315C1336.2059,-186.1267 1334.1083,-176.6873 1332.1637,-167.9366"/>
<polygon fill="#000000" stroke="#000000" points="1335.5668,-167.1161 1329.9808,-158.1135 1328.7335,-168.6347 1335.5668,-167.1161"/>
</g>
<!-- raw_12 -->
<g id="node13" class="node">
<title>raw_12</title>
<ellipse fill="none" stroke="#000000" cx="1411" cy="-140.2001" rx="27" ry="18"/>
<text text-anchor="middle" x="1411" y="-136.0001" font-family="Helvetica,sans-Serif" font-size="14.00" fill="#000000">raw</text>
</g>
<!-- prose_4&#45;&gt;raw_12 -->
<g id="edge12" class="edge">
<title>prose_4&#45;&gt;raw_12</title>
<path fill="none" stroke="#000000" stroke-dasharray="5,2" d="M1420.7196,-194.0315C1419.3078,-186.2126 1417.625,-176.8924 1416.0595,-168.2222"/>
<polygon fill="#000000" stroke="#000000" points="1419.4556,-167.3325 1414.2344,-158.1135 1412.567,-168.5763 1419.4556,-167.3325"/>
</g>
<!-- raw_14 -->
<g id="node15" class="node">
<title>raw_14</title>
<ellipse fill="none" stroke="#000000" cx="1495" cy="-140.2001" rx="27" ry="18"/>
<text text-anchor="middle" x="1495" y="-136.0001" font-family="Helvetica,sans-Serif" font-size="14.00" fill="#000000">raw</text>
</g>
<!-- prose_5&#45;&gt;raw_14 -->
<g id="edge14" class="edge">
<title>prose_5&#45;&gt;raw_14</title>
<path fill="none" stroke="#000000" stroke-dasharray="5,2" d="M1503.2242,-194.0315C1502.0297,-186.2126 1500.6058,-176.8924 1499.2812,-168.2222"/>
<polygon fill="#000000" stroke="#000000" points="1502.707,-167.4702 1497.7368,-158.1135 1495.7873,-168.5274 1502.707,-167.4702"/>
</g>
<!-- raw_16 -->
<g id="node17" class="node">
<title>raw_16</title>
<ellipse fill="none" stroke="#000000" cx="1881" cy="-140.2001" rx="27" ry="18"/>
<text text-anchor="middle" x="1881" y="-136.0001" font-family="Helvetica,sans-Serif" font-size="14.00" fill="#000000">raw</text>
</g>
<!-- prose_6&#45;&gt;raw_16 -->
<g id="edge16" class="edge">
<title>prose_6&#45;&gt;raw_16</title>
<path fill="none" stroke="#000000" stroke-dasharray="5,2" d="M1837.9883,-195.5009C1845.1572,-186.2837 1854.19,-174.67 1862.1251,-164.4678"/>
<polygon fill="#000000" stroke="#000000" points="1865.0907,-166.3558 1868.4674,-156.3135 1859.5652,-162.0582 1865.0907,-166.3558"/>
</g>
<!-- raw_18 -->
<g id="node19" class="node">
<title>raw_18</title>
<ellipse fill="none" stroke="#000000" cx="2383" cy="-140.2001" rx="27" ry="18"/>
<text text-anchor="middle" x="2383" y="-136.0001" font-family="Helvetica,sans-Serif" font-size="14.00" fill="#000000">raw</text>
</g>
<!-- prose_7&#45;&gt;raw_18 -->
<g id="edge18" class="edge">
<title>prose_7&#45;&gt;raw_18</title>
<path fill="none" stroke="#000000" stroke-dasharray="5,2" d="M2287.7326,-198.8262C2306.4992,-187.2775 2333.7552,-170.5046 2354.3103,-157.8553"/>
<polygon fill="#000000" stroke="#000000" points="2356.264,-160.7627 2362.9462,-152.5409 2352.5953,-154.8011 2356.264,-160.7627"/>
</g>
<!-- raw_20 -->
<g id="node21" class="node">
<title>raw_20</title>
<ellipse fill="none" stroke="#000000" cx="2913" cy="-140.2001" rx="27" ry="18"/>
<text text-anchor="middle" x="2913" y="-136.0001" font-family="Helvetica,sans-Serif" font-size="14.00" fill="#000000">raw</text>
</g>
<!-- prose_8&#45;&gt;raw_20 -->
<g id="edge20" class="edge">
<title>prose_8&#45;&gt;raw_20</title>
<path fill="none" stroke="#000000" stroke-dasharray="5,2" d="M2790.2741,-200.3108C2815.3676,-188.02 2854.6287,-168.7901 2881.9634,-155.4017"/>
<polygon fill="#000000" stroke="#000000" points="2883.6508,-158.4726 2891.0919,-150.9306 2880.5717,-152.1861 2883.6508,-158.4726"/>
</g>
<!-- leaf_11 -->
<g id="node12" class="node">
<title>leaf_11</title>
<polygon fill="none" stroke="#c0c0c0" points="548,-86.3004 0,-86.3004 0,.1003 548,.1003 548,-86.3004"/>
<text text-anchor="middle" x="274" y="-39.0001" font-family="Inconsolata" font-size="14.00" fill="#000000"> &#160;Our weaver is responsible for creating presentation views from a document.</text>
<text text-anchor="middle" x="274" y="-23.6001" font-family="Inconsolata" font-size="14.00" fill="#000000">This is in keeping with Dr. Knuth&#39;s original method of literate programming,</text>
<text text-anchor="middle" x="274" y="-8.2" font-family="Inconsolata" font-size="14.00" fill="#000000">where the weave was properly typeset code printed on paper. </text>
</g>
<!-- raw_10&#45;&gt;leaf_11 -->
<g id="edge11" class="edge">
<title>raw_10&#45;&gt;leaf_11</title>
<path fill="none" stroke="#000000" stroke-dasharray="5,2" d="M1303.0383,-130.5072C1294.4013,-127.2869 1284.3963,-124.053 1275,-122.2001 964.739,-61.0188 876.6964,-117.119 558.0318,-86.2606"/>
<polygon fill="#000000" stroke="#000000" points="558.3488,-82.7749 548.0528,-85.2732 557.6595,-89.7409 558.3488,-82.7749"/>
</g>
<!-- leaf_13 -->
<g id="node14" class="node">
<title>leaf_13</title>
<polygon fill="none" stroke="#c0c0c0" points="1100,-85.7011 566,-85.7011 566,-.499 1100,-.499 1100,-85.7011"/>
<text text-anchor="middle" x="833" y="-54.7001" font-family="Inconsolata" font-size="14.00" fill="#000000">Grimoire intends to support (La)TeX output, and thereby physical printing.</text>
<text text-anchor="middle" x="833" y="-39.3001" font-family="Inconsolata" font-size="14.00" fill="#000000">We don&#39;t consider it especially important. &#160;Grimoire offers few advantages</text>
<text text-anchor="middle" x="833" y="-23.9" font-family="Inconsolata" font-size="14.00" fill="#000000">over Markdown for those exclusively concerned with prosaic contents, and </text>
<text text-anchor="middle" x="833" y="-8.5" font-family="Inconsolata" font-size="14.00" fill="#000000">authors who work only with prose have no special motive to adopt it. </text>
</g>
<!-- raw_12&#45;&gt;leaf_13 -->
<g id="edge13" class="edge">
<title>raw_12&#45;&gt;leaf_13</title>
<path fill="none" stroke="#000000" stroke-dasharray="5,2" d="M1387.8866,-130.5725C1379.8119,-127.5151 1370.6126,-124.369 1362,-122.2001 1254.9806,-95.2501 1223.1263,-102.5101 1110.386,-86.3735"/>
<polygon fill="#000000" stroke="#000000" points="1110.7195,-82.8851 1100.3183,-84.9015 1109.7067,-89.8115 1110.7195,-82.8851"/>
</g>
<!-- leaf_15 -->
<g id="node16" class="node">
<title>leaf_15</title>
<polygon fill="none" stroke="#c0c0c0" points="1645.5,-78.3004 1118.5,-78.3004 1118.5,-7.8997 1645.5,-7.8997 1645.5,-78.3004"/>
<text text-anchor="middle" x="1382" y="-47.0001" font-family="Inconsolata" font-size="14.00" fill="#000000">The core use case for our weave is producing views of the Orb files of a </text>
<text text-anchor="middle" x="1382" y="-31.6001" font-family="Inconsolata" font-size="14.00" fill="#000000">full ingenium. &#160;Thus our weaves are themselves software, and this may in</text>
<text text-anchor="middle" x="1382" y="-16.2" font-family="Inconsolata" font-size="14.00" fill="#000000">turn interact with the original document if desired.</text>
</g>
<!-- raw_14&#45;&gt;leaf_15 -->
<g id="edge15" class="edge">
<title>raw_14&#45;&gt;leaf_15</title>
<path fill="none" stroke="#000000" stroke-dasharray="5,2" d="M1478.3265,-125.8726C1465.7621,-115.0762 1447.8516,-99.6859 1430.8763,-85.0991"/>
<polygon fill="#000000" stroke="#000000" points="1433.0308,-82.3358 1423.1652,-78.473 1428.4687,-87.645 1433.0308,-82.3358"/>
</g>
<!-- leaf_17 -->
<g id="node18" class="node">
<title>leaf_17</title>
<polygon fill="none" stroke="#c0c0c0" points="2212,-78.3004 1664,-78.3004 1664,-7.8997 2212,-7.8997 2212,-78.3004"/>
<text text-anchor="middle" x="1938" y="-47.0001" font-family="Inconsolata" font-size="14.00" fill="#000000">We start by supporting a simple, static view of the original Grimoire</text>
<text text-anchor="middle" x="1938" y="-31.6001" font-family="Inconsolata" font-size="14.00" fill="#000000">documents. &#160;Thus the very first output we intend to support is just good ol&#39;</text>
<text text-anchor="middle" x="1938" y="-16.2" font-family="Inconsolata" font-size="14.00" fill="#000000">Git&#45;Flavored Markdown. </text>
</g>
<!-- raw_16&#45;&gt;leaf_17 -->
<g id="edge17" class="edge">
<title>raw_16&#45;&gt;leaf_17</title>
<path fill="none" stroke="#000000" stroke-dasharray="5,2" d="M1890.9286,-123.2866C1896.8374,-113.2209 1904.6326,-99.9418 1912.1755,-87.0923"/>
<polygon fill="#000000" stroke="#000000" points="1915.2869,-88.7056 1917.331,-78.3098 1909.2502,-85.1619 1915.2869,-88.7056"/>
</g>
<!-- leaf_19 -->
<g id="node20" class="node">
<title>leaf_19</title>
<polygon fill="none" stroke="#c0c0c0" points="2771.5,-78.3004 2230.5,-78.3004 2230.5,-7.8997 2771.5,-7.8997 2771.5,-78.3004"/>
<text text-anchor="middle" x="2501" y="-47.0001" font-family="Inconsolata" font-size="14.00" fill="#000000">With this written we actually have a fairly capable system. It can invert a</text>
<text text-anchor="middle" x="2501" y="-31.6001" font-family="Inconsolata" font-size="14.00" fill="#000000">source tree into the =orb= directory, knit a sorcery directory from that,</text>
<text text-anchor="middle" x="2501" y="-16.2" font-family="Inconsolata" font-size="14.00" fill="#000000">and produce documentation which GitHub can display natively. </text>
</g>
<!-- raw_18&#45;&gt;leaf_19 -->
<g id="edge19" class="edge">
<title>raw_18&#45;&gt;leaf_19</title>
<path fill="none" stroke="#000000" stroke-dasharray="5,2" d="M2400.1582,-126.0809C2413.3507,-115.2251 2432.2935,-99.6374 2450.2069,-84.8967"/>
<polygon fill="#000000" stroke="#000000" points="2452.8428,-87.2604 2458.3407,-78.2036 2448.3949,-81.8552 2452.8428,-87.2604"/>
</g>
<!-- leaf_21 -->
<g id="node22" class="node">
<title>leaf_21</title>
<polygon fill="none" stroke="#c0c0c0" points="3330.5,-70.4005 2789.5,-70.4005 2789.5,-15.7996 3330.5,-15.7996 3330.5,-70.4005"/>
<text text-anchor="middle" x="3060" y="-39.3001" font-family="Inconsolata" font-size="14.00" fill="#000000">Add a little shim to Sublime to display Grimoire documents and I&#39;m ready to</text>
<text text-anchor="middle" x="3060" y="-23.9" font-family="Inconsolata" font-size="14.00" fill="#000000">start working on the editor and the quipu, and then Lun and Clu. </text>
</g>
<!-- raw_20&#45;&gt;leaf_21 -->
<g id="edge21" class="edge">
<title>raw_20&#45;&gt;leaf_21</title>
<path fill="none" stroke="#000000" stroke-dasharray="5,2" d="M2932.2177,-127.506C2951.8805,-114.5178 2983.2538,-93.7943 3009.992,-76.1325"/>
<polygon fill="#000000" stroke="#000000" points="3012.0747,-78.9515 3018.4896,-70.5195 3008.2166,-73.1107 3012.0747,-78.9515"/>
</g>
</g>
</svg>