<?xml version="1.0" encoding="UTF-8" standalone="no"?>
<!DOCTYPE svg PUBLIC "-//W3C//DTD SVG 1.1//EN"
 "http://www.w3.org/Graphics/SVG/1.1/DTD/svg11.dtd">
<!-- Generated by graphviz version 2.40.1 (20161225.0304)
 -->
<!-- Title: lpegNode Pages: 1 -->
<svg width="3945pt" height="382pt"
 viewBox="0.00 0.00 3944.50 382.20" xmlns="http://www.w3.org/2000/svg" xmlns:xlink="http://www.w3.org/1999/xlink">
<g id="graph0" class="graph" transform="scale(1 1) rotate(0) translate(4 378.2001)">
<title>lpegNode</title>
<polygon fill="#ffffff" stroke="transparent" points="-4,4 -4,-378.2001 3940.5,-378.2001 3940.5,4 -4,4"/>
<!-- doc_0 -->
<g id="node1" class="node">
<title>doc_0</title>
<ellipse fill="none" stroke="#000000" cx="1505" cy="-356.2001" rx="42.1216" ry="18"/>
<text text-anchor="middle" x="1505" y="-352.0001" font-family="Helvetica,sans-Serif" font-size="14.00" fill="#000000">doc &#45; 25</text>
</g>
<!-- section_1 -->
<g id="node2" class="node">
<title>section_1</title>
<ellipse fill="none" stroke="#000000" cx="1505" cy="-284.2001" rx="60.9826" ry="18"/>
<text text-anchor="middle" x="1505" y="-280.0001" font-family="Helvetica,sans-Serif" font-size="14.00" fill="#000000">section: 1&#45;25</text>
</g>
<!-- doc_0&#45;&gt;section_1 -->
<g id="edge1" class="edge">
<title>doc_0&#45;&gt;section_1</title>
<path fill="none" stroke="#000000" stroke-dasharray="5,2" d="M1505,-338.0315C1505,-330.331 1505,-321.1744 1505,-312.6167"/>
<polygon fill="#000000" stroke="#000000" points="1508.5001,-312.6133 1505,-302.6134 1501.5001,-312.6134 1508.5001,-312.6133"/>
</g>
<!-- header_2 -->
<g id="node3" class="node">
<title>header_2</title>
<ellipse fill="none" stroke="#000000" cx="1238" cy="-212.2001" rx="52.9192" ry="18"/>
<text text-anchor="middle" x="1238" y="-208.0001" font-family="Helvetica,sans-Serif" font-size="14.00" fill="#000000">1 : Weaver</text>
</g>
<!-- section_1&#45;&gt;header_2 -->
<g id="edge2" class="edge">
<title>section_1&#45;&gt;header_2</title>
<path fill="none" stroke="#000000" stroke-dasharray="5,2" d="M1458.9103,-272.4105C1417.3041,-261.6843 1354.447,-245.2722 1300,-230.2001 1295.9897,-229.09 1291.8387,-227.9233 1287.672,-226.7397"/>
<polygon fill="#000000" stroke="#000000" points="1288.5575,-223.3527 1277.9805,-223.9664 1286.6316,-230.0826 1288.5575,-223.3527"/>
</g>
<!-- prose_3 -->
<g id="node4" class="node">
<title>prose_3</title>
<ellipse fill="none" stroke="#000000" cx="1341" cy="-212.2001" rx="32.4585" ry="18"/>
<text text-anchor="middle" x="1341" y="-208.0001" font-family="Helvetica,sans-Serif" font-size="14.00" fill="#000000">prose</text>
</g>
<!-- section_1&#45;&gt;prose_3 -->
<g id="edge3" class="edge">
<title>section_1&#45;&gt;prose_3</title>
<path fill="none" stroke="#000000" stroke-dasharray="5,2" d="M1470.6202,-269.1065C1442.8097,-256.897 1403.8158,-239.7778 1375.8739,-227.5106"/>
<polygon fill="#000000" stroke="#000000" points="1377.0513,-224.2051 1366.4879,-223.3899 1374.2374,-230.6146 1377.0513,-224.2051"/>
</g>
<!-- prose_4 -->
<g id="node5" class="node">
<title>prose_4</title>
<ellipse fill="none" stroke="#000000" cx="1423" cy="-212.2001" rx="32.4585" ry="18"/>
<text text-anchor="middle" x="1423" y="-208.0001" font-family="Helvetica,sans-Serif" font-size="14.00" fill="#000000">prose</text>
</g>
<!-- section_1&#45;&gt;prose_4 -->
<g id="edge4" class="edge">
<title>section_1&#45;&gt;prose_4</title>
<path fill="none" stroke="#000000" stroke-dasharray="5,2" d="M1485.5671,-267.1371C1474.3006,-257.2445 1459.9965,-244.6848 1447.9098,-234.0721"/>
<polygon fill="#000000" stroke="#000000" points="1450.1653,-231.3948 1440.3415,-227.4268 1445.5466,-236.6549 1450.1653,-231.3948"/>
</g>
<!-- prose_5 -->
<g id="node6" class="node">
<title>prose_5</title>
<ellipse fill="none" stroke="#000000" cx="1505" cy="-212.2001" rx="32.4585" ry="18"/>
<text text-anchor="middle" x="1505" y="-208.0001" font-family="Helvetica,sans-Serif" font-size="14.00" fill="#000000">prose</text>
</g>
<!-- section_1&#45;&gt;prose_5 -->
<g id="edge5" class="edge">
<title>section_1&#45;&gt;prose_5</title>
<path fill="none" stroke="#000000" stroke-dasharray="5,2" d="M1505,-266.0315C1505,-258.331 1505,-249.1744 1505,-240.6167"/>
<polygon fill="#000000" stroke="#000000" points="1508.5001,-240.6133 1505,-230.6134 1501.5001,-240.6134 1508.5001,-240.6133"/>
</g>
<!-- prose_6 -->
<g id="node7" class="node">
<title>prose_6</title>
<ellipse fill="none" stroke="#000000" cx="1644" cy="-212.2001" rx="32.4585" ry="18"/>
<text text-anchor="middle" x="1644" y="-208.0001" font-family="Helvetica,sans-Serif" font-size="14.00" fill="#000000">prose</text>
</g>
<!-- section_1&#45;&gt;prose_6 -->
<g id="edge6" class="edge">
<title>section_1&#45;&gt;prose_6</title>
<path fill="none" stroke="#000000" stroke-dasharray="5,2" d="M1535.5041,-268.3994C1557.84,-256.8297 1588.1208,-241.1447 1611.0168,-229.2849"/>
<polygon fill="#000000" stroke="#000000" points="1612.7501,-232.3288 1620.0198,-224.6215 1609.5304,-226.1132 1612.7501,-232.3288"/>
</g>
<!-- prose_7 -->
<g id="node8" class="node">
<title>prose_7</title>
<ellipse fill="none" stroke="#000000" cx="2793" cy="-212.2001" rx="32.4585" ry="18"/>
<text text-anchor="middle" x="2793" y="-208.0001" font-family="Helvetica,sans-Serif" font-size="14.00" fill="#000000">prose</text>
</g>
<!-- section_1&#45;&gt;prose_7 -->
<g id="edge7" class="edge">
<title>section_1&#45;&gt;prose_7</title>
<path fill="none" stroke="#000000" stroke-dasharray="5,2" d="M1564.9669,-280.8479C1787.2119,-268.4243 2560.8402,-225.178 2750.6879,-214.5654"/>
<polygon fill="#000000" stroke="#000000" points="2751.0327,-218.0517 2760.8217,-213.9989 2750.6419,-211.0626 2751.0327,-218.0517"/>
</g>
<!-- prose_8 -->
<g id="node9" class="node">
<title>prose_8</title>
<ellipse fill="none" stroke="#000000" cx="2956" cy="-212.2001" rx="32.4585" ry="18"/>
<text text-anchor="middle" x="2956" y="-208.0001" font-family="Helvetica,sans-Serif" font-size="14.00" fill="#000000">prose</text>
</g>
<!-- section_1&#45;&gt;prose_8 -->
<g id="edge8" class="edge">
<title>section_1&#45;&gt;prose_8</title>
<path fill="none" stroke="#000000" stroke-dasharray="5,2" d="M1565.6404,-282.5909C1791.3466,-276.4684 2582.6797,-253.7792 2834,-230.2001 2861.2028,-227.6479 2891.6014,-223.1673 2915.2499,-219.315"/>
<polygon fill="#000000" stroke="#000000" points="2915.9794,-222.7419 2925.2728,-217.6544 2914.8352,-215.8361 2915.9794,-222.7419"/>
</g>
<!-- leaf_9 -->
<g id="node10" class="node">
<title>leaf_9</title>
<polygon fill="none" stroke="#c0c0c0" points="1274,-158.2001 1202,-158.2001 1202,-122.2001 1274,-122.2001 1274,-158.2001"/>
<text text-anchor="middle" x="1238" y="-136.7001" font-family="Inconsolata" font-size="14.00" fill="#000000">* Weaver</text>
</g>
<!-- header_2&#45;&gt;leaf_9 -->
<g id="edge9" class="edge">
<title>header_2&#45;&gt;leaf_9</title>
<path fill="none" stroke="#000000" stroke-dasharray="5,2" d="M1238,-194.0315C1238,-186.331 1238,-177.1744 1238,-168.6167"/>
<polygon fill="#000000" stroke="#000000" points="1241.5001,-168.6133 1238,-158.6134 1234.5001,-168.6134 1241.5001,-168.6133"/>
</g>
<!-- raw_10 -->
<g id="node11" class="node">
<title>raw_10</title>
<ellipse fill="none" stroke="#000000" cx="1330" cy="-140.2001" rx="27" ry="18"/>
<text text-anchor="middle" x="1330" y="-136.0001" font-family="Helvetica,sans-Serif" font-size="14.00" fill="#000000">raw</text>
</g>
<!-- prose_3&#45;&gt;raw_10 -->
<g id="edge10" class="edge">
<title>prose_3&#45;&gt;raw_10</title>
<path fill="none" stroke="#000000" stroke-dasharray="5,2" d="M1338.2242,-194.0315C1337.0297,-186.2126 1335.6058,-176.8924 1334.2812,-168.2222"/>
<polygon fill="#000000" stroke="#000000" points="1337.707,-167.4702 1332.7368,-158.1135 1330.7873,-168.5274 1337.707,-167.4702"/>
</g>
<!-- raw_12 -->
<g id="node13" class="node">
<title>raw_12</title>
<ellipse fill="none" stroke="#000000" cx="1412" cy="-140.2001" rx="27" ry="18"/>
<text text-anchor="middle" x="1412" y="-136.0001" font-family="Helvetica,sans-Serif" font-size="14.00" fill="#000000">raw</text>
</g>
<!-- prose_4&#45;&gt;raw_12 -->
<g id="edge12" class="edge">
<title>prose_4&#45;&gt;raw_12</title>
<path fill="none" stroke="#000000" stroke-dasharray="5,2" d="M1420.2242,-194.0315C1419.0297,-186.2126 1417.6058,-176.8924 1416.2812,-168.2222"/>
<polygon fill="#000000" stroke="#000000" points="1419.707,-167.4702 1414.7368,-158.1135 1412.7873,-168.5274 1419.707,-167.4702"/>
</g>
<!-- raw_14 -->
<g id="node15" class="node">
<title>raw_14</title>
<ellipse fill="none" stroke="#000000" cx="1495" cy="-140.2001" rx="27" ry="18"/>
<text text-anchor="middle" x="1495" y="-136.0001" font-family="Helvetica,sans-Serif" font-size="14.00" fill="#000000">raw</text>
</g>
<!-- prose_5&#45;&gt;raw_14 -->
<g id="edge14" class="edge">
<title>prose_5&#45;&gt;raw_14</title>
<path fill="none" stroke="#000000" stroke-dasharray="5,2" d="M1502.4766,-194.0315C1501.4071,-186.331 1500.1353,-177.1744 1498.9468,-168.6167"/>
<polygon fill="#000000" stroke="#000000" points="1502.3999,-168.0368 1497.5574,-158.6134 1495.4664,-168.9998 1502.3999,-168.0368"/>
</g>
<!-- raw_16 -->
<g id="node17" class="node">
<title>raw_16</title>
<ellipse fill="none" stroke="#000000" cx="1701" cy="-140.2001" rx="27" ry="18"/>
<text text-anchor="middle" x="1701" y="-136.0001" font-family="Helvetica,sans-Serif" font-size="14.00" fill="#000000">raw</text>
</g>
<!-- prose_6&#45;&gt;raw_16 -->
<g id="edge16" class="edge">
<title>prose_6&#45;&gt;raw_16</title>
<path fill="none" stroke="#000000" stroke-dasharray="5,2" d="M1657.2202,-195.5009C1664.5901,-186.1916 1673.8954,-174.4375 1682.03,-164.1622"/>
<polygon fill="#000000" stroke="#000000" points="1684.7807,-166.3264 1688.2436,-156.3135 1679.2923,-161.9815 1684.7807,-166.3264"/>
</g>
<!-- raw_18 -->
<g id="node19" class="node">
<title>raw_18</title>
<ellipse fill="none" stroke="#000000" cx="2601" cy="-140.2001" rx="27" ry="18"/>
<text text-anchor="middle" x="2601" y="-136.0001" font-family="Helvetica,sans-Serif" font-size="14.00" fill="#000000">raw</text>
</g>
<!-- prose_7&#45;&gt;raw_18 -->
<g id="edge18" class="edge">
<title>prose_7&#45;&gt;raw_18</title>
<path fill="none" stroke="#000000" stroke-dasharray="5,2" d="M2765.8983,-202.037C2731.2636,-189.049 2671.3412,-166.5781 2634.0607,-152.5978"/>
<polygon fill="#000000" stroke="#000000" points="2635.2352,-149.3003 2624.6429,-149.0662 2632.7773,-155.8546 2635.2352,-149.3003"/>
</g>
<!-- prespace_19 -->
<g id="node20" class="node">
<title>prespace_19</title>
<ellipse fill="none" stroke="#000000" cx="2793" cy="-140.2001" rx="46.4736" ry="18"/>
<text text-anchor="middle" x="2793" y="-136.0001" font-family="Helvetica,sans-Serif" font-size="14.00" fill="#000000">prespace</text>
</g>
<!-- prose_7&#45;&gt;prespace_19 -->
<g id="edge19" class="edge">
<title>prose_7&#45;&gt;prespace_19</title>
<path fill="none" stroke="#000000" stroke-dasharray="5,2" d="M2793,-194.0315C2793,-186.331 2793,-177.1744 2793,-168.6167"/>
<polygon fill="#000000" stroke="#000000" points="2796.5001,-168.6133 2793,-158.6134 2789.5001,-168.6134 2796.5001,-168.6133"/>
</g>
<!-- literal_20 -->
<g id="node21" class="node">
<title>literal_20</title>
<ellipse fill="none" stroke="#000000" cx="2889" cy="-140.2001" rx="31.481" ry="18"/>
<text text-anchor="middle" x="2889" y="-136.0001" font-family="Helvetica,sans-Serif" font-size="14.00" fill="#000000">literal</text>
</g>
<!-- prose_7&#45;&gt;literal_20 -->
<g id="edge20" class="edge">
<title>prose_7&#45;&gt;literal_20</title>
<path fill="none" stroke="#000000" stroke-dasharray="5,2" d="M2812.427,-197.6298C2826.5726,-187.0206 2845.9235,-172.5074 2861.6329,-160.7254"/>
<polygon fill="#000000" stroke="#000000" points="2864.0295,-163.303 2869.9295,-154.503 2859.8294,-157.703 2864.0295,-163.303"/>
</g>
<!-- raw_21 -->
<g id="node22" class="node">
<title>raw_21</title>
<ellipse fill="none" stroke="#000000" cx="3060" cy="-140.2001" rx="27" ry="18"/>
<text text-anchor="middle" x="3060" y="-136.0001" font-family="Helvetica,sans-Serif" font-size="14.00" fill="#000000">raw</text>
</g>
<!-- prose_7&#45;&gt;raw_21 -->
<g id="edge21" class="edge">
<title>prose_7&#45;&gt;raw_21</title>
<path fill="none" stroke="#000000" stroke-dasharray="5,2" d="M2822.0819,-204.3578C2871.6018,-191.0041 2972.0825,-163.9082 3025.2307,-149.5761"/>
<polygon fill="#000000" stroke="#000000" points="3026.1469,-152.9541 3034.8907,-146.9711 3024.3243,-146.1956 3026.1469,-152.9541"/>
</g>
<!-- raw_26 -->
<g id="node27" class="node">
<title>raw_26</title>
<ellipse fill="none" stroke="#000000" cx="3399" cy="-140.2001" rx="27" ry="18"/>
<text text-anchor="middle" x="3399" y="-136.0001" font-family="Helvetica,sans-Serif" font-size="14.00" fill="#000000">raw</text>
</g>
<!-- prose_8&#45;&gt;raw_26 -->
<g id="edge26" class="edge">
<title>prose_8&#45;&gt;raw_26</title>
<path fill="none" stroke="#000000" stroke-dasharray="5,2" d="M2987.1509,-207.1372C3066.8398,-194.1855 3277.793,-159.8996 3362.7702,-146.0885"/>
<polygon fill="#000000" stroke="#000000" points="3363.4181,-149.5292 3372.727,-144.4702 3362.295,-142.6198 3363.4181,-149.5292"/>
</g>
<!-- leaf_11 -->
<g id="node12" class="node">
<title>leaf_11</title>
<polygon fill="none" stroke="#c0c0c0" points="548,-86.3004 0,-86.3004 0,.1003 548,.1003 548,-86.3004"/>
<text text-anchor="middle" x="274" y="-39.0001" font-family="Inconsolata" font-size="14.00" fill="#000000"> &#160;Our weaver is responsible for creating presentation views from a document.</text>
<text text-anchor="middle" x="274" y="-23.6001" font-family="Inconsolata" font-size="14.00" fill="#000000">This is in keeping with Dr. Knuth&#39;s original method of literate programming,</text>
<text text-anchor="middle" x="274" y="-8.2" font-family="Inconsolata" font-size="14.00" fill="#000000">where the weave was properly typeset code printed on paper. </text>
</g>
<!-- raw_10&#45;&gt;leaf_11 -->
<g id="edge11" class="edge">
<title>raw_10&#45;&gt;leaf_11</title>
<path fill="none" stroke="#000000" stroke-dasharray="5,2" d="M1307.4898,-129.9219C1299.8693,-126.8929 1291.208,-123.9294 1283,-122.2001 970.1182,-56.2811 880.2758,-117.2845 558.1399,-86.2694"/>
<polygon fill="#000000" stroke="#000000" points="558.3475,-82.773 548.0525,-85.2756 557.6611,-89.7393 558.3475,-82.773"/>
</g>
<!-- leaf_13 -->
<g id="node14" class="node">
<title>leaf_13</title>
<polygon fill="none" stroke="#c0c0c0" points="1100,-85.7011 566,-85.7011 566,-.499 1100,-.499 1100,-85.7011"/>
<text text-anchor="middle" x="833" y="-54.7001" font-family="Inconsolata" font-size="14.00" fill="#000000">Grimoire intends to support (La)TeX output, and thereby physical printing.</text>
<text text-anchor="middle" x="833" y="-39.3001" font-family="Inconsolata" font-size="14.00" fill="#000000">We don&#39;t consider it especially important. &#160;Grimoire offers few advantages</text>
<text text-anchor="middle" x="833" y="-23.9" font-family="Inconsolata" font-size="14.00" fill="#000000">over Markdown for those exclusively concerned with prosaic contents, and </text>
<text text-anchor="middle" x="833" y="-8.5" font-family="Inconsolata" font-size="14.00" fill="#000000">authors who work only with prose have no special motive to adopt it. </text>
</g>
<!-- raw_12&#45;&gt;leaf_13 -->
<g id="edge13" class="edge">
<title>raw_12&#45;&gt;leaf_13</title>
<path fill="none" stroke="#000000" stroke-dasharray="5,2" d="M1389.42,-130.1515C1382.0718,-127.2112 1373.7983,-124.2419 1366,-122.2001 1257.5836,-93.8136 1224.9318,-102.5571 1110.532,-86.3892"/>
<polygon fill="#000000" stroke="#000000" points="1110.7153,-82.8793 1100.317,-84.9105 1109.7124,-89.8071 1110.7153,-82.8793"/>
</g>
<!-- leaf_15 -->
<g id="node16" class="node">
<title>leaf_15</title>
<polygon fill="none" stroke="#c0c0c0" points="1645.5,-78.3004 1118.5,-78.3004 1118.5,-7.8997 1645.5,-7.8997 1645.5,-78.3004"/>
<text text-anchor="middle" x="1382" y="-47.0001" font-family="Inconsolata" font-size="14.00" fill="#000000">The core use case for our weave is producing views of the Orb files of a </text>
<text text-anchor="middle" x="1382" y="-31.6001" font-family="Inconsolata" font-size="14.00" fill="#000000">full ingenium. &#160;Thus our weaves are themselves software, and this may in</text>
<text text-anchor="middle" x="1382" y="-16.2" font-family="Inconsolata" font-size="14.00" fill="#000000">turn interact with the original document if desired.</text>
</g>
<!-- raw_14&#45;&gt;leaf_15 -->
<g id="edge15" class="edge">
<title>raw_14&#45;&gt;leaf_15</title>
<path fill="none" stroke="#000000" stroke-dasharray="5,2" d="M1478.3265,-125.8726C1465.7621,-115.0762 1447.8516,-99.6859 1430.8763,-85.0991"/>
<polygon fill="#000000" stroke="#000000" points="1433.0308,-82.3358 1423.1652,-78.473 1428.4687,-87.645 1433.0308,-82.3358"/>
</g>
<!-- leaf_17 -->
<g id="node18" class="node">
<title>leaf_17</title>
<polygon fill="none" stroke="#c0c0c0" points="2212,-78.3004 1664,-78.3004 1664,-7.8997 2212,-7.8997 2212,-78.3004"/>
<text text-anchor="middle" x="1938" y="-47.0001" font-family="Inconsolata" font-size="14.00" fill="#000000">We start by supporting a simple, static view of the original Grimoire</text>
<text text-anchor="middle" x="1938" y="-31.6001" font-family="Inconsolata" font-size="14.00" fill="#000000">documents. &#160;Thus the very first output we intend to support is just good ol&#39;</text>
<text text-anchor="middle" x="1938" y="-16.2" font-family="Inconsolata" font-size="14.00" fill="#000000">Git&#45;Flavored Markdown. </text>
</g>
<!-- raw_16&#45;&gt;leaf_17 -->
<g id="edge17" class="edge">
<title>raw_16&#45;&gt;leaf_17</title>
<path fill="none" stroke="#000000" stroke-dasharray="5,2" d="M1724.1561,-130.7129C1751.6641,-119.4427 1799.2947,-99.9283 1842.6309,-82.1732"/>
<polygon fill="#000000" stroke="#000000" points="1844.1648,-85.3272 1852.0913,-78.2972 1841.5109,-78.8498 1844.1648,-85.3272"/>
</g>
<!-- leaf_22 -->
<g id="node23" class="node">
<title>leaf_22</title>
<polygon fill="none" stroke="#c0c0c0" points="2771.5,-70.4005 2230.5,-70.4005 2230.5,-15.7996 2771.5,-15.7996 2771.5,-70.4005"/>
<text text-anchor="middle" x="2501" y="-39.3001" font-family="Inconsolata" font-size="14.00" fill="#000000">With this written we actually have a fairly capable system. It can invert a</text>
<text text-anchor="middle" x="2501" y="-23.9" font-family="Inconsolata" font-size="14.00" fill="#000000">source tree into the</text>
</g>
<!-- raw_18&#45;&gt;leaf_22 -->
<g id="edge22" class="edge">
<title>raw_18&#45;&gt;leaf_22</title>
<path fill="none" stroke="#000000" stroke-dasharray="5,2" d="M2585.375,-125.0282C2572.418,-112.447 2553.4918,-94.0696 2536.8463,-77.9068"/>
<polygon fill="#000000" stroke="#000000" points="2539.0011,-75.1206 2529.3885,-70.6653 2534.1246,-80.1426 2539.0011,-75.1206"/>
</g>
<!-- leaf_23 -->
<g id="node24" class="node">
<title>leaf_23</title>
<polygon fill="none" stroke="#c0c0c0" points="2844,-61.1 2790,-61.1 2790,-25.1 2844,-25.1 2844,-61.1"/>
<text text-anchor="middle" x="2817" y="-39.6001" font-family="Inconsolata" font-size="14.00" fill="#000000"> </text>
</g>
<!-- prespace_19&#45;&gt;leaf_23 -->
<g id="edge23" class="edge">
<title>prespace_19&#45;&gt;leaf_23</title>
<path fill="none" stroke="#000000" stroke-dasharray="5,2" d="M2797.5142,-121.9363C2801.034,-107.6957 2805.9845,-87.667 2810.0147,-71.3612"/>
<polygon fill="#000000" stroke="#000000" points="2813.5042,-71.8296 2812.506,-61.2819 2806.7087,-70.15 2813.5042,-71.8296"/>
</g>
<!-- leaf_24 -->
<g id="node25" class="node">
<title>leaf_24</title>
<polygon fill="none" stroke="#c0c0c0" points="2916,-61.1 2862,-61.1 2862,-25.1 2916,-25.1 2916,-61.1"/>
<text text-anchor="middle" x="2889" y="-39.6001" font-family="Inconsolata" font-size="14.00" fill="#000000">orb</text>
</g>
<!-- literal_20&#45;&gt;leaf_24 -->
<g id="edge24" class="edge">
<title>literal_20&#45;&gt;leaf_24</title>
<path fill="none" stroke="#000000" stroke-dasharray="5,2" d="M2889,-121.9363C2889,-107.6957 2889,-87.667 2889,-71.3612"/>
<polygon fill="#000000" stroke="#000000" points="2892.5001,-71.2819 2889,-61.2819 2885.5001,-71.282 2892.5001,-71.2819"/>
</g>
<!-- leaf_25 -->
<g id="node26" class="node">
<title>leaf_25</title>
<polygon fill="none" stroke="#c0c0c0" points="3377.5,-62.4006 2934.5,-62.4006 2934.5,-23.7995 3377.5,-23.7995 3377.5,-62.4006"/>
<text text-anchor="middle" x="3156" y="-47.3001" font-family="Inconsolata" font-size="14.00" fill="#000000"> directory, knit a sorcery directory from that,</text>
<text text-anchor="middle" x="3156" y="-31.9" font-family="Inconsolata" font-size="14.00" fill="#000000">and produce documentation which GitHub can display natively. </text>
</g>
<!-- raw_21&#45;&gt;leaf_25 -->
<g id="edge25" class="edge">
<title>raw_21&#45;&gt;leaf_25</title>
<path fill="none" stroke="#000000" stroke-dasharray="5,2" d="M3075,-125.0282C3089.5811,-110.2801 3112.0364,-87.5674 3129.6088,-69.7936"/>
<polygon fill="#000000" stroke="#000000" points="3132.2619,-72.0883 3136.8037,-62.5163 3127.2841,-67.1668 3132.2619,-72.0883"/>
</g>
<!-- leaf_27 -->
<g id="node28" class="node">
<title>leaf_27</title>
<polygon fill="none" stroke="#c0c0c0" points="3936.5,-70.4005 3395.5,-70.4005 3395.5,-15.7996 3936.5,-15.7996 3936.5,-70.4005"/>
<text text-anchor="middle" x="3666" y="-39.3001" font-family="Inconsolata" font-size="14.00" fill="#000000">Add a little shim to Sublime to display Grimoire documents and I&#39;m ready to</text>
<text text-anchor="middle" x="3666" y="-23.9" font-family="Inconsolata" font-size="14.00" fill="#000000">start working on the editor and the quipu, and then Lun and Clu. </text>
</g>
<!-- raw_26&#45;&gt;leaf_27 -->
<g id="edge27" class="edge">
<title>raw_26&#45;&gt;leaf_27</title>
<path fill="none" stroke="#000000" stroke-dasharray="5,2" d="M3423.1654,-131.4119C3458.599,-118.5257 3526.4073,-93.8658 3581.3835,-73.8726"/>
<polygon fill="#000000" stroke="#000000" points="3582.5856,-77.1598 3590.7872,-70.4527 3580.1931,-70.5813 3582.5856,-77.1598"/>
</g>
</g>
</svg>