<?xml version="1.0" encoding="UTF-8" standalone="no"?>
<!DOCTYPE svg PUBLIC "-//W3C//DTD SVG 1.1//EN"
 "http://www.w3.org/Graphics/SVG/1.1/DTD/svg11.dtd">
<!-- Generated by graphviz version 2.40.1 (20161225.0304)
 -->
<!-- Title: hierarchy Pages: 1 -->
<svg width="3339pt" height="366pt"
 viewBox="0.00 0.00 3338.50 366.20" xmlns="http://www.w3.org/2000/svg" xmlns:xlink="http://www.w3.org/1999/xlink">
<g id="graph0" class="graph" transform="scale(1 1) rotate(0) translate(4 362.2001)">
<title>hierarchy</title>
<polygon fill="#ffffff" stroke="transparent" points="-4,4 -4,-362.2001 3334.5,-362.2001 3334.5,4 -4,4"/>
<!-- doc_0 -->
<g id="node1" class="node">
<title>doc_0</title>
<ellipse fill="none" stroke="#000000" cx="1648" cy="-340.2001" rx="42.1216" ry="18"/>
<text text-anchor="middle" x="1648" y="-336.0001" font-family="Helvetica,sans-Serif" font-size="14.00" fill="#000000">doc &#45; 25</text>
</g>
<!-- section_1 -->
<g id="node2" class="node">
<title>section_1</title>
<ellipse fill="none" stroke="#000000" cx="1648" cy="-268.2001" rx="60.9826" ry="18"/>
<text text-anchor="middle" x="1648" y="-264.0001" font-family="Helvetica,sans-Serif" font-size="14.00" fill="#000000">section: 1&#45;25</text>
</g>
<!-- doc_0&#45;&gt;section_1 -->
<g id="edge1" class="edge">
<title>doc_0&#45;&gt;section_1</title>
<path fill="none" stroke="#000000" stroke-dasharray="5,2" d="M1648,-322.0315C1648,-314.331 1648,-305.1744 1648,-296.6167"/>
<polygon fill="#000000" stroke="#000000" points="1651.5001,-296.6133 1648,-286.6134 1644.5001,-296.6134 1651.5001,-296.6133"/>
</g>
<!-- header_2 -->
<g id="node3" class="node">
<title>header_2</title>
<ellipse fill="none" stroke="#000000" cx="1293" cy="-196.2001" rx="52.9192" ry="18"/>
<text text-anchor="middle" x="1293" y="-192.0001" font-family="Helvetica,sans-Serif" font-size="14.00" fill="#000000">1 : Weaver</text>
</g>
<!-- section_1&#45;&gt;header_2 -->
<g id="edge2" class="edge">
<title>section_1&#45;&gt;header_2</title>
<path fill="none" stroke="#000000" stroke-dasharray="5,2" d="M1593.9283,-259.9034C1534.8745,-250.4552 1437.6738,-233.7675 1355,-214.2001 1350.8894,-213.2272 1346.6454,-212.1506 1342.3964,-211.022"/>
<polygon fill="#000000" stroke="#000000" points="1343.1027,-207.5866 1332.5332,-208.3184 1341.2521,-214.3376 1343.1027,-207.5866"/>
</g>
<!-- block_3 -->
<g id="node4" class="node">
<title>block_3</title>
<ellipse fill="none" stroke="#000000" cx="1410" cy="-196.2001" rx="45.9804" ry="18"/>
<text text-anchor="middle" x="1410" y="-192.0001" font-family="Helvetica,sans-Serif" font-size="14.00" fill="#000000">block 1&#45;6</text>
</g>
<!-- section_1&#45;&gt;block_3 -->
<g id="edge3" class="edge">
<title>section_1&#45;&gt;block_3</title>
<path fill="none" stroke="#000000" stroke-dasharray="5,2" d="M1604.2605,-255.6843C1567.1183,-244.9629 1512.4448,-228.9603 1465,-214.2001 1461.6858,-213.169 1458.2644,-212.0884 1454.8252,-210.9905"/>
<polygon fill="#000000" stroke="#000000" points="1455.7512,-207.6117 1445.1597,-207.8769 1453.6049,-214.2745 1455.7512,-207.6117"/>
</g>
<!-- block_4 -->
<g id="node5" class="node">
<title>block_4</title>
<ellipse fill="none" stroke="#000000" cx="1524" cy="-196.2001" rx="50.0142" ry="18"/>
<text text-anchor="middle" x="1524" y="-192.0001" font-family="Helvetica,sans-Serif" font-size="14.00" fill="#000000">block 7&#45;11</text>
</g>
<!-- section_1&#45;&gt;block_4 -->
<g id="edge4" class="edge">
<title>section_1&#45;&gt;block_4</title>
<path fill="none" stroke="#000000" stroke-dasharray="5,2" d="M1620.172,-252.0419C1602.1724,-241.5905 1578.5846,-227.8944 1559.2744,-216.682"/>
<polygon fill="#000000" stroke="#000000" points="1560.8663,-213.5591 1550.4609,-211.5645 1557.3513,-219.6127 1560.8663,-213.5591"/>
</g>
<!-- block_5 -->
<g id="node6" class="node">
<title>block_5</title>
<ellipse fill="none" stroke="#000000" cx="1648" cy="-196.2001" rx="55.6542" ry="18"/>
<text text-anchor="middle" x="1648" y="-192.0001" font-family="Helvetica,sans-Serif" font-size="14.00" fill="#000000">block 12&#45;15</text>
</g>
<!-- section_1&#45;&gt;block_5 -->
<g id="edge5" class="edge">
<title>section_1&#45;&gt;block_5</title>
<path fill="none" stroke="#000000" stroke-dasharray="5,2" d="M1648,-250.0315C1648,-242.331 1648,-233.1744 1648,-224.6167"/>
<polygon fill="#000000" stroke="#000000" points="1651.5001,-224.6133 1648,-214.6134 1644.5001,-224.6134 1651.5001,-224.6133"/>
</g>
<!-- block_6 -->
<g id="node7" class="node">
<title>block_6</title>
<ellipse fill="none" stroke="#000000" cx="1884" cy="-196.2001" rx="55.6542" ry="18"/>
<text text-anchor="middle" x="1884" y="-192.0001" font-family="Helvetica,sans-Serif" font-size="14.00" fill="#000000">block 16&#45;19</text>
</g>
<!-- section_1&#45;&gt;block_6 -->
<g id="edge6" class="edge">
<title>section_1&#45;&gt;block_6</title>
<path fill="none" stroke="#000000" stroke-dasharray="5,2" d="M1690.4646,-255.2448C1730.6007,-242.9999 1790.8505,-224.6186 1833.4466,-211.6232"/>
<polygon fill="#000000" stroke="#000000" points="1834.518,-214.9556 1843.0615,-208.6898 1832.4753,-208.2603 1834.518,-214.9556"/>
</g>
<!-- block_7 -->
<g id="node8" class="node">
<title>block_7</title>
<ellipse fill="none" stroke="#000000" cx="2284" cy="-196.2001" rx="55.6542" ry="18"/>
<text text-anchor="middle" x="2284" y="-192.0001" font-family="Helvetica,sans-Serif" font-size="14.00" fill="#000000">block 20&#45;23</text>
</g>
<!-- section_1&#45;&gt;block_7 -->
<g id="edge7" class="edge">
<title>section_1&#45;&gt;block_7</title>
<path fill="none" stroke="#000000" stroke-dasharray="5,2" d="M1705.0005,-261.7472C1823.7724,-248.3013 2096.9797,-217.3722 2220.8679,-203.3471"/>
<polygon fill="#000000" stroke="#000000" points="2221.4128,-206.8079 2230.9556,-202.2051 2220.6253,-199.8523 2221.4128,-206.8079"/>
</g>
<!-- block_8 -->
<g id="node9" class="node">
<title>block_8</title>
<ellipse fill="none" stroke="#000000" cx="2763" cy="-196.2001" rx="55.6542" ry="18"/>
<text text-anchor="middle" x="2763" y="-192.0001" font-family="Helvetica,sans-Serif" font-size="14.00" fill="#000000">block 24&#45;25</text>
</g>
<!-- section_1&#45;&gt;block_8 -->
<g id="edge8" class="edge">
<title>section_1&#45;&gt;block_8</title>
<path fill="none" stroke="#000000" stroke-dasharray="5,2" d="M1707.553,-264.3545C1899.1741,-251.9808 2498.8856,-213.255 2698.009,-200.3968"/>
<polygon fill="#000000" stroke="#000000" points="2698.2743,-203.8871 2708.0279,-199.7499 2697.8232,-196.9016 2698.2743,-203.8871"/>
</g>
<!-- prose_9 -->
<g id="node10" class="node">
<title>prose_9</title>
<ellipse fill="none" stroke="#000000" cx="746" cy="-124.2001" rx="32.4585" ry="18"/>
<text text-anchor="middle" x="746" y="-120.0001" font-family="Helvetica,sans-Serif" font-size="14.00" fill="#000000">prose</text>
</g>
<!-- block_3&#45;&gt;prose_9 -->
<g id="edge9" class="edge">
<title>block_3&#45;&gt;prose_9</title>
<path fill="none" stroke="#000000" stroke-dasharray="5,2" d="M1376.2928,-183.8319C1369.3301,-181.6568 1361.9878,-179.6338 1355,-178.2001 1246.1198,-155.8611 907.8066,-133.9324 788.3199,-126.6932"/>
<polygon fill="#000000" stroke="#000000" points="788.3039,-123.186 778.1115,-126.0783 787.8829,-130.1734 788.3039,-123.186"/>
</g>
<!-- prose_11 -->
<g id="node12" class="node">
<title>prose_11</title>
<ellipse fill="none" stroke="#000000" cx="1066" cy="-124.2001" rx="32.4585" ry="18"/>
<text text-anchor="middle" x="1066" y="-120.0001" font-family="Helvetica,sans-Serif" font-size="14.00" fill="#000000">prose</text>
</g>
<!-- block_4&#45;&gt;prose_11 -->
<g id="edge11" class="edge">
<title>block_4&#45;&gt;prose_11</title>
<path fill="none" stroke="#000000" stroke-dasharray="5,2" d="M1487.1033,-183.9454C1479.8322,-181.8142 1472.2187,-179.7789 1465,-178.2001 1336.6155,-150.1213 1181.6074,-134.1603 1108.3214,-127.6625"/>
<polygon fill="#000000" stroke="#000000" points="1108.3809,-124.1545 1098.1145,-126.7721 1107.7725,-131.128 1108.3809,-124.1545"/>
</g>
<!-- prose_13 -->
<g id="node14" class="node">
<title>prose_13</title>
<ellipse fill="none" stroke="#000000" cx="1435" cy="-124.2001" rx="32.4585" ry="18"/>
<text text-anchor="middle" x="1435" y="-120.0001" font-family="Helvetica,sans-Serif" font-size="14.00" fill="#000000">prose</text>
</g>
<!-- block_5&#45;&gt;prose_13 -->
<g id="edge13" class="edge">
<title>block_5&#45;&gt;prose_13</title>
<path fill="none" stroke="#000000" stroke-dasharray="5,2" d="M1609.4273,-183.1614C1570.5797,-170.0298 1511.0368,-149.9027 1472.5554,-136.8949"/>
<polygon fill="#000000" stroke="#000000" points="1473.3677,-133.475 1462.7735,-133.5883 1471.126,-140.1063 1473.3677,-133.475"/>
</g>
<!-- prose_15 -->
<g id="node16" class="node">
<title>prose_15</title>
<ellipse fill="none" stroke="#000000" cx="1911" cy="-124.2001" rx="32.4585" ry="18"/>
<text text-anchor="middle" x="1911" y="-120.0001" font-family="Helvetica,sans-Serif" font-size="14.00" fill="#000000">prose</text>
</g>
<!-- block_6&#45;&gt;prose_15 -->
<g id="edge15" class="edge">
<title>block_6&#45;&gt;prose_15</title>
<path fill="none" stroke="#000000" stroke-dasharray="5,2" d="M1890.8132,-178.0315C1893.8098,-170.0407 1897.3943,-160.4819 1900.7057,-151.6515"/>
<polygon fill="#000000" stroke="#000000" points="1904.0483,-152.7058 1904.2825,-142.1135 1897.494,-150.2478 1904.0483,-152.7058"/>
</g>
<!-- prose_17 -->
<g id="node18" class="node">
<title>prose_17</title>
<ellipse fill="none" stroke="#000000" cx="2392" cy="-124.2001" rx="32.4585" ry="18"/>
<text text-anchor="middle" x="2392" y="-120.0001" font-family="Helvetica,sans-Serif" font-size="14.00" fill="#000000">prose</text>
</g>
<!-- block_7&#45;&gt;prose_17 -->
<g id="edge17" class="edge">
<title>block_7&#45;&gt;prose_17</title>
<path fill="none" stroke="#000000" stroke-dasharray="5,2" d="M2308.5069,-179.8622C2324.6181,-169.1214 2345.7819,-155.0122 2362.7702,-143.6866"/>
<polygon fill="#000000" stroke="#000000" points="2364.8454,-146.5097 2371.2245,-138.0505 2360.9625,-140.6853 2364.8454,-146.5097"/>
</g>
<!-- prose_19 -->
<g id="node20" class="node">
<title>prose_19</title>
<ellipse fill="none" stroke="#000000" cx="2911" cy="-124.2001" rx="32.4585" ry="18"/>
<text text-anchor="middle" x="2911" y="-120.0001" font-family="Helvetica,sans-Serif" font-size="14.00" fill="#000000">prose</text>
</g>
<!-- block_8&#45;&gt;prose_19 -->
<g id="edge19" class="edge">
<title>block_8&#45;&gt;prose_19</title>
<path fill="none" stroke="#000000" stroke-dasharray="5,2" d="M2794.0256,-181.1065C2818.3776,-169.2596 2852.2314,-152.7902 2877.2561,-140.6161"/>
<polygon fill="#000000" stroke="#000000" points="2878.9153,-143.7011 2886.3765,-136.1791 2875.853,-137.4065 2878.9153,-143.7011"/>
</g>
<!-- leaf_10 -->
<g id="node11" class="node">
<title>leaf_10</title>
<polygon fill="none" stroke="#c0c0c0" points="548,-70.3004 0,-70.3004 0,.1003 548,.1003 548,-70.3004"/>
<text text-anchor="middle" x="274" y="-39.0001" font-family="Inconsolata" font-size="14.00" fill="#000000"> &#160;Our weaver is responsible for creating presentation views from a document.</text>
<text text-anchor="middle" x="274" y="-23.6001" font-family="Inconsolata" font-size="14.00" fill="#000000">This is in keeping with Dr. Knuth&#39;s original method of literate programming,</text>
<text text-anchor="middle" x="274" y="-8.2" font-family="Inconsolata" font-size="14.00" fill="#000000">where the weave was properly typeset code printed on paper. </text>
</g>
<!-- prose_9&#45;&gt;leaf_10 -->
<g id="edge10" class="edge">
<title>prose_9&#45;&gt;leaf_10</title>
<path fill="none" stroke="#000000" stroke-dasharray="5,2" d="M715.3944,-118.4226C665.6748,-109.037 563.4824,-89.746 469.94,-72.0879"/>
<polygon fill="#000000" stroke="#000000" points="470.5197,-68.6356 460.044,-70.2198 469.2212,-75.5141 470.5197,-68.6356"/>
</g>
<!-- leaf_12 -->
<g id="node13" class="node">
<title>leaf_12</title>
<polygon fill="none" stroke="#c0c0c0" points="1100,-69.7013 566,-69.7013 566,-.4988 1100,-.4988 1100,-69.7013"/>
<text text-anchor="middle" x="833" y="-54.7001" font-family="Inconsolata" font-size="14.00" fill="#000000">Grimoire intends to support (La)TeX output, and thereby physical printing.</text>
<text text-anchor="middle" x="833" y="-39.3001" font-family="Inconsolata" font-size="14.00" fill="#000000">We don&#39;t consider it especially important. &#160;Grimoire offers few advantages</text>
<text text-anchor="middle" x="833" y="-23.9" font-family="Inconsolata" font-size="14.00" fill="#000000">over Markdown for those exclusively concerned with prosaic contents, and </text>
<text text-anchor="middle" x="833" y="-8.5" font-family="Inconsolata" font-size="14.00" fill="#000000">authors who work only with prose have no special motive to adopt it. </text>
</g>
<!-- prose_11&#45;&gt;leaf_12 -->
<g id="edge12" class="edge">
<title>prose_11&#45;&gt;leaf_12</title>
<path fill="none" stroke="#000000" stroke-dasharray="5,2" d="M1039.2719,-113.9792C1013.2658,-104.0343 972.116,-88.2985 933.3882,-73.4889"/>
<polygon fill="#000000" stroke="#000000" points="934.1956,-70.0505 923.605,-69.7477 931.6953,-76.5887 934.1956,-70.0505"/>
</g>
<!-- leaf_14 -->
<g id="node15" class="node">
<title>leaf_14</title>
<polygon fill="none" stroke="#c0c0c0" points="1645.5,-62.3005 1118.5,-62.3005 1118.5,-7.8996 1645.5,-7.8996 1645.5,-62.3005"/>
<text text-anchor="middle" x="1382" y="-47.0001" font-family="Inconsolata" font-size="14.00" fill="#000000">The core use case for our weave is producing views of the Orb files of a </text>
<text text-anchor="middle" x="1382" y="-31.6001" font-family="Inconsolata" font-size="14.00" fill="#000000">full ingenium. &#160;Thus our weaves are themselves software, and this may in</text>
<text text-anchor="middle" x="1382" y="-16.2" font-family="Inconsolata" font-size="14.00" fill="#000000">turn interact with the original document if desired.</text>
</g>
<!-- prose_13&#45;&gt;leaf_14 -->
<g id="edge14" class="edge">
<title>prose_13&#45;&gt;leaf_14</title>
<path fill="none" stroke="#000000" stroke-dasharray="5,2" d="M1424.7811,-107.0207C1418.7297,-96.8476 1410.8291,-83.5656 1403.4666,-71.1883"/>
<polygon fill="#000000" stroke="#000000" points="1406.3552,-69.1981 1398.2348,-62.393 1400.3391,-72.7768 1406.3552,-69.1981"/>
</g>
<!-- leaf_16 -->
<g id="node17" class="node">
<title>leaf_16</title>
<polygon fill="none" stroke="#c0c0c0" points="2212,-62.3005 1664,-62.3005 1664,-7.8996 2212,-7.8996 2212,-62.3005"/>
<text text-anchor="middle" x="1938" y="-47.0001" font-family="Inconsolata" font-size="14.00" fill="#000000">We start by supporting a simple, static view of the original Grimoire</text>
<text text-anchor="middle" x="1938" y="-31.6001" font-family="Inconsolata" font-size="14.00" fill="#000000">documents. &#160;Thus the very first output we intend to support is just good ol&#39;</text>
<text text-anchor="middle" x="1938" y="-16.2" font-family="Inconsolata" font-size="14.00" fill="#000000">Git&#45;Flavored Markdown. </text>
</g>
<!-- prose_15&#45;&gt;leaf_16 -->
<g id="edge16" class="edge">
<title>prose_15&#45;&gt;leaf_16</title>
<path fill="none" stroke="#000000" stroke-dasharray="5,2" d="M1916.4639,-106.1694C1919.4494,-96.3171 1923.2593,-83.7443 1926.8422,-71.9207"/>
<polygon fill="#000000" stroke="#000000" points="1930.2248,-72.8266 1929.7754,-62.2413 1923.5256,-70.7965 1930.2248,-72.8266"/>
</g>
<!-- leaf_18 -->
<g id="node19" class="node">
<title>leaf_18</title>
<polygon fill="none" stroke="#c0c0c0" points="2771.5,-62.3005 2230.5,-62.3005 2230.5,-7.8996 2771.5,-7.8996 2771.5,-62.3005"/>
<text text-anchor="middle" x="2501" y="-47.0001" font-family="Inconsolata" font-size="14.00" fill="#000000">With this written we actually have a fairly capable system. It can invert a</text>
<text text-anchor="middle" x="2501" y="-31.6001" font-family="Inconsolata" font-size="14.00" fill="#000000">source tree into the =orb= directory, knit a sorcery directory from that,</text>
<text text-anchor="middle" x="2501" y="-16.2" font-family="Inconsolata" font-size="14.00" fill="#000000">and produce documentation which GitHub can display natively. </text>
</g>
<!-- prose_17&#45;&gt;leaf_18 -->
<g id="edge18" class="edge">
<title>prose_17&#45;&gt;leaf_18</title>
<path fill="none" stroke="#000000" stroke-dasharray="5,2" d="M2410.4904,-109.0855C2423.9573,-98.0772 2442.7337,-82.7288 2459.6957,-68.8635"/>
<polygon fill="#000000" stroke="#000000" points="2462.3182,-71.2404 2467.8455,-62.2016 2457.8879,-65.8207 2462.3182,-71.2404"/>
</g>
<!-- leaf_20 -->
<g id="node21" class="node">
<title>leaf_20</title>
<polygon fill="none" stroke="#c0c0c0" points="3330.5,-54.4006 2789.5,-54.4006 2789.5,-15.7995 3330.5,-15.7995 3330.5,-54.4006"/>
<text text-anchor="middle" x="3060" y="-39.3001" font-family="Inconsolata" font-size="14.00" fill="#000000">Add a little shim to Sublime to display Grimoire documents and I&#39;m ready to</text>
<text text-anchor="middle" x="3060" y="-23.9" font-family="Inconsolata" font-size="14.00" fill="#000000">start working on the editor and the quipu, and then Lun and Clu. </text>
</g>
<!-- prose_19&#45;&gt;leaf_20 -->
<g id="edge20" class="edge">
<title>prose_19&#45;&gt;leaf_20</title>
<path fill="none" stroke="#000000" stroke-dasharray="5,2" d="M2933.3068,-110.8609C2955.8695,-97.3687 2991.2675,-76.2012 3018.9183,-59.6664"/>
<polygon fill="#000000" stroke="#000000" points="3020.8112,-62.6125 3027.5975,-54.4763 3017.2186,-56.6047 3020.8112,-62.6125"/>
</g>
</g>
</svg>