<?xml version="1.0" encoding="UTF-8" standalone="no"?>
<!DOCTYPE svg PUBLIC "-//W3C//DTD SVG 1.1//EN"
 "http://www.w3.org/Graphics/SVG/1.1/DTD/svg11.dtd">
<!-- Generated by graphviz version 2.40.1 (20161225.0304)
 -->
<!-- Title: hierarchy Pages: 1 -->
<svg width="3339pt" height="294pt"
 viewBox="0.00 0.00 3338.50 294.20" xmlns="http://www.w3.org/2000/svg" xmlns:xlink="http://www.w3.org/1999/xlink">
<g id="graph0" class="graph" transform="scale(1 1) rotate(0) translate(4 290.2001)">
<title>hierarchy</title>
<polygon fill="#ffffff" stroke="transparent" points="-4,4 -4,-290.2001 3334.5,-290.2001 3334.5,4 -4,4"/>
<!-- doc_0 -->
<g id="node1" class="node">
<title>doc_0</title>
<ellipse fill="none" stroke="#000000" cx="1488" cy="-268.2001" rx="42.1216" ry="18"/>
<text text-anchor="middle" x="1488" y="-264.0001" font-family="Helvetica,sans-Serif" font-size="14.00" fill="#000000">doc &#45; 25</text>
</g>
<!-- section_1 -->
<g id="node2" class="node">
<title>section_1</title>
<ellipse fill="none" stroke="#000000" cx="1488" cy="-196.2001" rx="60.9826" ry="18"/>
<text text-anchor="middle" x="1488" y="-192.0001" font-family="Helvetica,sans-Serif" font-size="14.00" fill="#000000">section: 1&#45;25</text>
</g>
<!-- doc_0&#45;&gt;section_1 -->
<g id="edge1" class="edge">
<title>doc_0&#45;&gt;section_1</title>
<path fill="none" stroke="#000000" stroke-dasharray="5,2" d="M1488,-250.0315C1488,-242.331 1488,-233.1744 1488,-224.6167"/>
<polygon fill="#000000" stroke="#000000" points="1491.5001,-224.6133 1488,-214.6134 1484.5001,-224.6134 1491.5001,-224.6133"/>
</g>
<!-- header_2 -->
<g id="node3" class="node">
<title>header_2</title>
<ellipse fill="none" stroke="#000000" cx="1133" cy="-124.2001" rx="52.9192" ry="18"/>
<text text-anchor="middle" x="1133" y="-120.0001" font-family="Helvetica,sans-Serif" font-size="14.00" fill="#000000">1 : Weaver</text>
</g>
<!-- section_1&#45;&gt;header_2 -->
<g id="edge2" class="edge">
<title>section_1&#45;&gt;header_2</title>
<path fill="none" stroke="#000000" stroke-dasharray="5,2" d="M1433.9283,-187.9034C1374.8745,-178.4552 1277.6738,-161.7675 1195,-142.2001 1190.8894,-141.2272 1186.6454,-140.1506 1182.3964,-139.022"/>
<polygon fill="#000000" stroke="#000000" points="1183.1027,-135.5866 1172.5332,-136.3184 1181.2521,-142.3376 1183.1027,-135.5866"/>
</g>
<!-- block_3 -->
<g id="node4" class="node">
<title>block_3</title>
<ellipse fill="none" stroke="#000000" cx="1250" cy="-124.2001" rx="45.9804" ry="18"/>
<text text-anchor="middle" x="1250" y="-120.0001" font-family="Helvetica,sans-Serif" font-size="14.00" fill="#000000">block 1&#45;6</text>
</g>
<!-- section_1&#45;&gt;block_3 -->
<g id="edge3" class="edge">
<title>section_1&#45;&gt;block_3</title>
<path fill="none" stroke="#000000" stroke-dasharray="5,2" d="M1444.2605,-183.6843C1407.1183,-172.9629 1352.4448,-156.9603 1305,-142.2001 1301.6858,-141.169 1298.2644,-140.0884 1294.8252,-138.9905"/>
<polygon fill="#000000" stroke="#000000" points="1295.7512,-135.6117 1285.1597,-135.8769 1293.6049,-142.2745 1295.7512,-135.6117"/>
</g>
<!-- block_4 -->
<g id="node5" class="node">
<title>block_4</title>
<ellipse fill="none" stroke="#000000" cx="1364" cy="-124.2001" rx="50.0142" ry="18"/>
<text text-anchor="middle" x="1364" y="-120.0001" font-family="Helvetica,sans-Serif" font-size="14.00" fill="#000000">block 7&#45;11</text>
</g>
<!-- section_1&#45;&gt;block_4 -->
<g id="edge4" class="edge">
<title>section_1&#45;&gt;block_4</title>
<path fill="none" stroke="#000000" stroke-dasharray="5,2" d="M1460.172,-180.0419C1442.1724,-169.5905 1418.5846,-155.8944 1399.2744,-144.682"/>
<polygon fill="#000000" stroke="#000000" points="1400.8663,-141.5591 1390.4609,-139.5645 1397.3513,-147.6127 1400.8663,-141.5591"/>
</g>
<!-- block_5 -->
<g id="node6" class="node">
<title>block_5</title>
<ellipse fill="none" stroke="#000000" cx="1488" cy="-124.2001" rx="55.6542" ry="18"/>
<text text-anchor="middle" x="1488" y="-120.0001" font-family="Helvetica,sans-Serif" font-size="14.00" fill="#000000">block 12&#45;15</text>
</g>
<!-- section_1&#45;&gt;block_5 -->
<g id="edge5" class="edge">
<title>section_1&#45;&gt;block_5</title>
<path fill="none" stroke="#000000" stroke-dasharray="5,2" d="M1488,-178.0315C1488,-170.331 1488,-161.1744 1488,-152.6167"/>
<polygon fill="#000000" stroke="#000000" points="1491.5001,-152.6133 1488,-142.6134 1484.5001,-152.6134 1491.5001,-152.6133"/>
</g>
<!-- block_6 -->
<g id="node7" class="node">
<title>block_6</title>
<ellipse fill="none" stroke="#000000" cx="1831" cy="-124.2001" rx="55.6542" ry="18"/>
<text text-anchor="middle" x="1831" y="-120.0001" font-family="Helvetica,sans-Serif" font-size="14.00" fill="#000000">block 16&#45;19</text>
</g>
<!-- section_1&#45;&gt;block_6 -->
<g id="edge6" class="edge">
<title>section_1&#45;&gt;block_6</title>
<path fill="none" stroke="#000000" stroke-dasharray="5,2" d="M1537.8751,-185.7307C1600.7023,-172.5425 1708.3959,-149.9362 1774.29,-136.1042"/>
<polygon fill="#000000" stroke="#000000" points="1775.0282,-139.5256 1784.0958,-134.0459 1773.5901,-132.675 1775.0282,-139.5256"/>
</g>
<!-- block_7 -->
<g id="node8" class="node">
<title>block_7</title>
<ellipse fill="none" stroke="#000000" cx="2284" cy="-124.2001" rx="55.6542" ry="18"/>
<text text-anchor="middle" x="2284" y="-120.0001" font-family="Helvetica,sans-Serif" font-size="14.00" fill="#000000">block 20&#45;23</text>
</g>
<!-- section_1&#45;&gt;block_7 -->
<g id="edge7" class="edge">
<title>section_1&#45;&gt;block_7</title>
<path fill="none" stroke="#000000" stroke-dasharray="5,2" d="M1546.2093,-190.9349C1691.429,-177.7995 2068.8718,-143.6589 2220.0312,-129.9862"/>
<polygon fill="#000000" stroke="#000000" points="2220.4428,-133.4634 2230.0868,-129.0767 2219.8121,-126.4918 2220.4428,-133.4634"/>
</g>
<!-- block_8 -->
<g id="node9" class="node">
<title>block_8</title>
<ellipse fill="none" stroke="#000000" cx="2790" cy="-124.2001" rx="55.6542" ry="18"/>
<text text-anchor="middle" x="2790" y="-120.0001" font-family="Helvetica,sans-Serif" font-size="14.00" fill="#000000">block 24&#45;25</text>
</g>
<!-- section_1&#45;&gt;block_8 -->
<g id="edge8" class="edge">
<title>section_1&#45;&gt;block_8</title>
<path fill="none" stroke="#000000" stroke-dasharray="5,2" d="M1547.7565,-192.8956C1763.3099,-180.9756 2499.945,-140.24 2724.4948,-127.8225"/>
<polygon fill="#000000" stroke="#000000" points="2725.005,-131.2997 2734.7964,-127.2528 2724.6184,-124.3104 2725.005,-131.2997"/>
</g>
<!-- leaf_9 -->
<g id="node10" class="node">
<title>leaf_9</title>
<polygon fill="none" stroke="#c0c0c0" points="548,-70.3004 0,-70.3004 0,.1003 548,.1003 548,-70.3004"/>
<text text-anchor="middle" x="274" y="-39.0001" font-family="Inconsolata" font-size="14.00" fill="#000000"> &#160;Our weaver is responsible for creating presentation views from a document.</text>
<text text-anchor="middle" x="274" y="-23.6001" font-family="Inconsolata" font-size="14.00" fill="#000000">This is in keeping with Dr. Knuth&#39;s original method of literate programming,</text>
<text text-anchor="middle" x="274" y="-8.2" font-family="Inconsolata" font-size="14.00" fill="#000000">where the weave was properly typeset code printed on paper. </text>
</g>
<!-- block_3&#45;&gt;leaf_9 -->
<g id="edge9" class="edge">
<title>block_3&#45;&gt;leaf_9</title>
<path fill="none" stroke="#000000" stroke-dasharray="5,2" d="M1216.6215,-111.7475C1209.5692,-109.5503 1202.1086,-107.5402 1195,-106.2001 919.1797,-54.2044 841.6704,-94.7191 558.2464,-70.2774"/>
<polygon fill="#000000" stroke="#000000" points="558.3454,-66.7727 548.0765,-69.3803 557.7303,-73.7456 558.3454,-66.7727"/>
</g>
<!-- leaf_10 -->
<g id="node11" class="node">
<title>leaf_10</title>
<polygon fill="none" stroke="#c0c0c0" points="1100,-69.7013 566,-69.7013 566,-.4988 1100,-.4988 1100,-69.7013"/>
<text text-anchor="middle" x="833" y="-54.7001" font-family="Inconsolata" font-size="14.00" fill="#000000">Grimoire intends to support (La)TeX output, and thereby physical printing.</text>
<text text-anchor="middle" x="833" y="-39.3001" font-family="Inconsolata" font-size="14.00" fill="#000000">We don&#39;t consider it especially important. &#160;Grimoire offers few advantages</text>
<text text-anchor="middle" x="833" y="-23.9" font-family="Inconsolata" font-size="14.00" fill="#000000">over Markdown for those exclusively concerned with prosaic contents, and </text>
<text text-anchor="middle" x="833" y="-8.5" font-family="Inconsolata" font-size="14.00" fill="#000000">authors who work only with prose have no special motive to adopt it. </text>
</g>
<!-- block_4&#45;&gt;leaf_10 -->
<g id="edge10" class="edge">
<title>block_4&#45;&gt;leaf_10</title>
<path fill="none" stroke="#000000" stroke-dasharray="5,2" d="M1326.7678,-111.939C1319.5942,-109.8336 1312.1022,-107.8093 1305,-106.2001 1263.7966,-96.8644 1180.5386,-83.6863 1095.2624,-71.2076"/>
<polygon fill="#000000" stroke="#000000" points="1095.5267,-67.7092 1085.1261,-69.7289 1094.5161,-74.6358 1095.5267,-67.7092"/>
</g>
<!-- leaf_11 -->
<g id="node12" class="node">
<title>leaf_11</title>
<polygon fill="none" stroke="#c0c0c0" points="1645.5,-62.3005 1118.5,-62.3005 1118.5,-7.8996 1645.5,-7.8996 1645.5,-62.3005"/>
<text text-anchor="middle" x="1382" y="-47.0001" font-family="Inconsolata" font-size="14.00" fill="#000000">The core use case for our weave is producing views of the Orb files of a </text>
<text text-anchor="middle" x="1382" y="-31.6001" font-family="Inconsolata" font-size="14.00" fill="#000000">full ingenium. &#160;Thus our weaves are themselves software, and this may in</text>
<text text-anchor="middle" x="1382" y="-16.2" font-family="Inconsolata" font-size="14.00" fill="#000000">turn interact with the original document if desired.</text>
</g>
<!-- block_5&#45;&gt;leaf_11 -->
<g id="edge11" class="edge">
<title>block_5&#45;&gt;leaf_11</title>
<path fill="none" stroke="#000000" stroke-dasharray="5,2" d="M1467.5621,-107.0207C1454.7544,-96.255 1437.8047,-82.0076 1422.3719,-69.0353"/>
<polygon fill="#000000" stroke="#000000" points="1424.3767,-66.1483 1414.4697,-62.393 1419.8726,-71.5067 1424.3767,-66.1483"/>
</g>
<!-- leaf_12 -->
<g id="node13" class="node">
<title>leaf_12</title>
<polygon fill="none" stroke="#c0c0c0" points="2212,-62.3005 1664,-62.3005 1664,-7.8996 2212,-7.8996 2212,-62.3005"/>
<text text-anchor="middle" x="1938" y="-47.0001" font-family="Inconsolata" font-size="14.00" fill="#000000">We start by supporting a simple, static view of the original Grimoire</text>
<text text-anchor="middle" x="1938" y="-31.6001" font-family="Inconsolata" font-size="14.00" fill="#000000">documents. &#160;Thus the very first output we intend to support is just good ol&#39;</text>
<text text-anchor="middle" x="1938" y="-16.2" font-family="Inconsolata" font-size="14.00" fill="#000000">Git&#45;Flavored Markdown. </text>
</g>
<!-- block_6&#45;&gt;leaf_12 -->
<g id="edge12" class="edge">
<title>block_6&#45;&gt;leaf_12</title>
<path fill="none" stroke="#000000" stroke-dasharray="5,2" d="M1851.3777,-107.2313C1864.2863,-96.4822 1881.4363,-82.2012 1897.0688,-69.1839"/>
<polygon fill="#000000" stroke="#000000" points="1899.6298,-71.606 1905.0747,-62.5173 1895.1504,-66.2267 1899.6298,-71.606"/>
</g>
<!-- leaf_13 -->
<g id="node14" class="node">
<title>leaf_13</title>
<polygon fill="none" stroke="#c0c0c0" points="2771.5,-62.3005 2230.5,-62.3005 2230.5,-7.8996 2771.5,-7.8996 2771.5,-62.3005"/>
<text text-anchor="middle" x="2501" y="-47.0001" font-family="Inconsolata" font-size="14.00" fill="#000000">With this written we actually have a fairly capable system. It can invert a</text>
<text text-anchor="middle" x="2501" y="-31.6001" font-family="Inconsolata" font-size="14.00" fill="#000000">source tree into the =orb= directory, knit a sorcery directory from that,</text>
<text text-anchor="middle" x="2501" y="-16.2" font-family="Inconsolata" font-size="14.00" fill="#000000">and produce documentation which GitHub can display natively. </text>
</g>
<!-- block_7&#45;&gt;leaf_13 -->
<g id="edge13" class="edge">
<title>block_7&#45;&gt;leaf_13</title>
<path fill="none" stroke="#000000" stroke-dasharray="5,2" d="M2318.8648,-109.8846C2347.4592,-98.1438 2388.973,-81.0983 2425.1476,-66.245"/>
<polygon fill="#000000" stroke="#000000" points="2426.7833,-69.357 2434.7045,-62.3209 2424.1245,-62.8816 2426.7833,-69.357"/>
</g>
<!-- leaf_14 -->
<g id="node15" class="node">
<title>leaf_14</title>
<polygon fill="none" stroke="#c0c0c0" points="3330.5,-54.4006 2789.5,-54.4006 2789.5,-15.7995 3330.5,-15.7995 3330.5,-54.4006"/>
<text text-anchor="middle" x="3060" y="-39.3001" font-family="Inconsolata" font-size="14.00" fill="#000000">Add a little shim to Sublime to display Grimoire documents and I&#39;m ready to</text>
<text text-anchor="middle" x="3060" y="-23.9" font-family="Inconsolata" font-size="14.00" fill="#000000">start working on the editor and the quipu, and then Lun and Clu. </text>
</g>
<!-- block_8&#45;&gt;leaf_14 -->
<g id="edge14" class="edge">
<title>block_8&#45;&gt;leaf_14</title>
<path fill="none" stroke="#000000" stroke-dasharray="5,2" d="M2829.2603,-111.2442C2871.7863,-97.2106 2940.4258,-74.5596 2991.8048,-57.6045"/>
<polygon fill="#000000" stroke="#000000" points="2993.1127,-60.8586 3001.5121,-54.4011 2990.919,-54.2112 2993.1127,-60.8586"/>
</g>
</g>
</svg>