<?xml version="1.0" encoding="UTF-8" standalone="no"?>
<!DOCTYPE svg PUBLIC "-//W3C//DTD SVG 1.1//EN"
 "http://www.w3.org/Graphics/SVG/1.1/DTD/svg11.dtd">
<!-- Generated by graphviz version 2.40.1 (20161225.0304)
 -->
<!-- Title: lpegNode Pages: 1 -->
<svg width="785pt" height="351pt"
 viewBox="0.00 0.00 785.00 351.40" xmlns="http://www.w3.org/2000/svg" xmlns:xlink="http://www.w3.org/1999/xlink">
<g id="graph0" class="graph" transform="scale(1 1) rotate(0) translate(4 347.4)">
<title>lpegNode</title>
<polygon fill="#ffffff" stroke="transparent" points="-4,4 -4,-347.4 781,-347.4 781,4 -4,4"/>
<!-- doc_0 -->
<g id="node1" class="node">
<title>doc_0</title>
<ellipse fill="none" stroke="#000000" cx="431.5" cy="-325.4" rx="37.2854" ry="18"/>
<text text-anchor="middle" x="431.5" y="-321.2" font-family="Helvetica,sans-Serif" font-size="14.00" fill="#000000">doc &#45; 7</text>
</g>
<!-- section_1 -->
<g id="node2" class="node">
<title>section_1</title>
<ellipse fill="none" stroke="#000000" cx="431.5" cy="-253.4" rx="55.6456" ry="18"/>
<text text-anchor="middle" x="431.5" y="-249.2" font-family="Helvetica,sans-Serif" font-size="14.00" fill="#000000">section: 1&#45;7</text>
</g>
<!-- doc_0&#45;&gt;section_1 -->
<g id="edge1" class="edge">
<title>doc_0&#45;&gt;section_1</title>
<path fill="none" stroke="#000000" stroke-dasharray="5,2" d="M431.5,-307.2314C431.5,-299.531 431.5,-290.3744 431.5,-281.8167"/>
<polygon fill="#000000" stroke="#000000" points="435.0001,-281.8133 431.5,-271.8133 428.0001,-281.8133 435.0001,-281.8133"/>
</g>
<!-- header_2 -->
<g id="node3" class="node">
<title>header_2</title>
<ellipse fill="none" stroke="#000000" cx="277.5" cy="-181.4" rx="62.8945" ry="18"/>
<text text-anchor="middle" x="277.5" y="-177.2" font-family="Helvetica,sans-Serif" font-size="14.00" fill="#000000">1 : Orb Serve</text>
</g>
<!-- section_1&#45;&gt;header_2 -->
<g id="edge2" class="edge">
<title>section_1&#45;&gt;header_2</title>
<path fill="none" stroke="#000000" stroke-dasharray="5,2" d="M399.5911,-238.4816C376.4674,-227.6705 344.9669,-212.943 319.7549,-201.1556"/>
<polygon fill="#000000" stroke="#000000" points="320.9718,-197.8609 310.4306,-196.7961 318.007,-204.2021 320.9718,-197.8609"/>
</g>
<!-- prose_3 -->
<g id="node4" class="node">
<title>prose_3</title>
<ellipse fill="none" stroke="#000000" cx="390.5" cy="-181.4" rx="32.4585" ry="18"/>
<text text-anchor="middle" x="390.5" y="-177.2" font-family="Helvetica,sans-Serif" font-size="14.00" fill="#000000">prose</text>
</g>
<!-- section_1&#45;&gt;prose_3 -->
<g id="edge3" class="edge">
<title>section_1&#45;&gt;prose_3</title>
<path fill="none" stroke="#000000" stroke-dasharray="5,2" d="M421.3652,-235.6023C416.5632,-227.1695 410.7315,-216.9286 405.4358,-207.6288"/>
<polygon fill="#000000" stroke="#000000" points="408.3667,-205.7025 400.3768,-198.7446 402.2838,-209.1664 408.3667,-205.7025"/>
</g>
<!-- prose_4 -->
<g id="node5" class="node">
<title>prose_4</title>
<ellipse fill="none" stroke="#000000" cx="472.5" cy="-181.4" rx="32.4585" ry="18"/>
<text text-anchor="middle" x="472.5" y="-177.2" font-family="Helvetica,sans-Serif" font-size="14.00" fill="#000000">prose</text>
</g>
<!-- section_1&#45;&gt;prose_4 -->
<g id="edge4" class="edge">
<title>section_1&#45;&gt;prose_4</title>
<path fill="none" stroke="#000000" stroke-dasharray="5,2" d="M441.6348,-235.6023C446.4368,-227.1695 452.2685,-216.9286 457.5642,-207.6288"/>
<polygon fill="#000000" stroke="#000000" points="460.7162,-209.1664 462.6232,-198.7446 454.6333,-205.7025 460.7162,-209.1664"/>
</g>
<!-- prose_5 -->
<g id="node6" class="node">
<title>prose_5</title>
<ellipse fill="none" stroke="#000000" cx="635.5" cy="-181.4" rx="32.4585" ry="18"/>
<text text-anchor="middle" x="635.5" y="-177.2" font-family="Helvetica,sans-Serif" font-size="14.00" fill="#000000">prose</text>
</g>
<!-- section_1&#45;&gt;prose_5 -->
<g id="edge5" class="edge">
<title>section_1&#45;&gt;prose_5</title>
<path fill="none" stroke="#000000" stroke-dasharray="5,2" d="M469.3927,-240.0261C506.2558,-227.0156 561.9052,-207.3747 598.4712,-194.469"/>
<polygon fill="#000000" stroke="#000000" points="599.9822,-197.6474 608.2472,-191.0187 597.6524,-191.0465 599.9822,-197.6474"/>
</g>
<!-- leaf_6 -->
<g id="node7" class="node">
<title>leaf_6</title>
<polygon fill="none" stroke="#c0c0c0" points="324,-127.4 231,-127.4 231,-91.4 324,-91.4 324,-127.4"/>
<text text-anchor="middle" x="277.5" y="-105.9" font-family="Inconsolata" font-size="14.00" fill="#000000">* Orb Serve</text>
</g>
<!-- header_2&#45;&gt;leaf_6 -->
<g id="edge6" class="edge">
<title>header_2&#45;&gt;leaf_6</title>
<path fill="none" stroke="#000000" stroke-dasharray="5,2" d="M277.5,-163.2314C277.5,-155.531 277.5,-146.3744 277.5,-137.8167"/>
<polygon fill="#000000" stroke="#000000" points="281.0001,-137.8133 277.5,-127.8133 274.0001,-137.8133 281.0001,-137.8133"/>
</g>
<!-- raw_7 -->
<g id="node8" class="node">
<title>raw_7</title>
<ellipse fill="none" stroke="#000000" cx="379.5" cy="-109.4" rx="27" ry="18"/>
<text text-anchor="middle" x="379.5" y="-105.2" font-family="Helvetica,sans-Serif" font-size="14.00" fill="#000000">raw</text>
</g>
<!-- prose_3&#45;&gt;raw_7 -->
<g id="edge7" class="edge">
<title>prose_3&#45;&gt;raw_7</title>
<path fill="none" stroke="#000000" stroke-dasharray="5,2" d="M387.7242,-163.2314C386.5297,-155.4125 385.1058,-146.0923 383.7812,-137.4221"/>
<polygon fill="#000000" stroke="#000000" points="387.207,-136.6701 382.2368,-127.3134 380.2873,-137.7274 387.207,-136.6701"/>
</g>
<!-- raw_9 -->
<g id="node10" class="node">
<title>raw_9</title>
<ellipse fill="none" stroke="#000000" cx="472.5" cy="-109.4" rx="27" ry="18"/>
<text text-anchor="middle" x="472.5" y="-105.2" font-family="Helvetica,sans-Serif" font-size="14.00" fill="#000000">raw</text>
</g>
<!-- prose_4&#45;&gt;raw_9 -->
<g id="edge9" class="edge">
<title>prose_4&#45;&gt;raw_9</title>
<path fill="none" stroke="#000000" stroke-dasharray="5,2" d="M472.5,-163.2314C472.5,-155.531 472.5,-146.3744 472.5,-137.8167"/>
<polygon fill="#000000" stroke="#000000" points="476.0001,-137.8133 472.5,-127.8133 469.0001,-137.8133 476.0001,-137.8133"/>
</g>
<!-- raw_11 -->
<g id="node12" class="node">
<title>raw_11</title>
<ellipse fill="none" stroke="#000000" cx="675.5" cy="-109.4" rx="27" ry="18"/>
<text text-anchor="middle" x="675.5" y="-105.2" font-family="Helvetica,sans-Serif" font-size="14.00" fill="#000000">raw</text>
</g>
<!-- prose_5&#45;&gt;raw_11 -->
<g id="edge11" class="edge">
<title>prose_5&#45;&gt;raw_11</title>
<path fill="none" stroke="#000000" stroke-dasharray="5,2" d="M645.1829,-163.9708C649.8996,-155.4807 655.6706,-145.0929 660.907,-135.6674"/>
<polygon fill="#000000" stroke="#000000" points="664.1094,-137.1101 665.9063,-126.6687 657.9903,-133.7105 664.1094,-137.1101"/>
</g>
<!-- leaf_8 -->
<g id="node9" class="node">
<title>leaf_8</title>
<polygon fill="none" stroke="#c0c0c0" points="289,-55.6015 0,-55.6015 0,.2015 289,.2015 289,-55.6015"/>
<text text-anchor="middle" x="144.5" y="-8.2" font-family="Inconsolata" font-size="14.00" fill="#000000">This needs to be attached to the codex.</text>
</g>
<!-- raw_7&#45;&gt;leaf_8 -->
<g id="edge8" class="edge">
<title>raw_7&#45;&gt;leaf_8</title>
<path fill="none" stroke="#000000" stroke-dasharray="5,2" d="M356.1386,-100.2468C348.6151,-97.3544 340.226,-94.1872 332.5,-91.4 302.0789,-80.4257 268.698,-68.9373 238.6152,-58.7864"/>
<polygon fill="#000000" stroke="#000000" points="239.5659,-55.4136 228.9718,-55.5401 237.3325,-62.0477 239.5659,-55.4136"/>
</g>
<!-- leaf_10 -->
<g id="node11" class="node">
<title>leaf_10</title>
<polygon fill="none" stroke="#c0c0c0" points="638,-47.6021 307,-47.6021 307,-7.7979 638,-7.7979 638,-47.6021"/>
<text text-anchor="middle" x="472.5" y="-16.2" font-family="Inconsolata" font-size="14.00" fill="#000000">Arguably it should just be part of the codex.</text>
</g>
<!-- raw_9&#45;&gt;leaf_10 -->
<g id="edge10" class="edge">
<title>raw_9&#45;&gt;leaf_10</title>
<path fill="none" stroke="#000000" stroke-dasharray="5,2" d="M472.5,-91.2681C472.5,-81.4356 472.5,-69.0282 472.5,-57.7905"/>
<polygon fill="#000000" stroke="#000000" points="476.0001,-57.4968 472.5,-47.4969 469.0001,-57.4969 476.0001,-57.4968"/>
</g>
<!-- leaf_12 -->
<g id="node13" class="node">
<title>leaf_12</title>
<polygon fill="none" stroke="#c0c0c0" points="777,-47.6021 656,-47.6021 656,-7.7979 777,-7.7979 777,-47.6021"/>
<text text-anchor="middle" x="716.5" y="-16.2" font-family="Inconsolata" font-size="14.00" fill="#000000">Let&#39;s try that.</text>
</g>
<!-- raw_11&#45;&gt;leaf_12 -->
<g id="edge12" class="edge">
<title>raw_11&#45;&gt;leaf_12</title>
<path fill="none" stroke="#000000" stroke-dasharray="5,2" d="M684.195,-92.0736C689.3514,-81.7987 696.0192,-68.5118 701.9569,-56.6799"/>
<polygon fill="#000000" stroke="#000000" points="705.1623,-58.0957 706.5194,-47.5881 698.9059,-54.956 705.1623,-58.0957"/>
</g>
</g>
</svg>
