<?xml version="1.0" encoding="UTF-8" standalone="no"?>
<!DOCTYPE svg PUBLIC "-//W3C//DTD SVG 1.1//EN"
 "http://www.w3.org/Graphics/SVG/1.1/DTD/svg11.dtd">
<!-- Generated by graphviz version 2.40.1 (20161225.0304)
 -->
<!-- Title: lpegNode Pages: 1 -->
<svg width="3045pt" height="443pt"
 viewBox="0.00 0.00 3044.50 442.80" xmlns="http://www.w3.org/2000/svg" xmlns:xlink="http://www.w3.org/1999/xlink">
<g id="graph0" class="graph" transform="scale(1 1) rotate(0) translate(4 438.8001)">
<title>lpegNode</title>
<polygon fill="#ffffff" stroke="transparent" points="-4,4 -4,-438.8001 3040.5,-438.8001 3040.5,4 -4,4"/>
<!-- doc_0 -->
<g id="node1" class="node">
<title>doc_0</title>
<ellipse fill="none" stroke="#000000" cx="558.5" cy="-416.8001" rx="42.1216" ry="18"/>
<text text-anchor="middle" x="558.5" y="-412.6001" font-family="Helvetica,sans-Serif" font-size="14.00" fill="#000000">doc &#45; 17</text>
</g>
<!-- section_1 -->
<g id="node2" class="node">
<title>section_1</title>
<ellipse fill="none" stroke="#000000" cx="558.5" cy="-344.8001" rx="55.6456" ry="18"/>
<text text-anchor="middle" x="558.5" y="-340.6001" font-family="Helvetica,sans-Serif" font-size="14.00" fill="#000000">section: 1&#45;9</text>
</g>
<!-- doc_0&#45;&gt;section_1 -->
<g id="edge1" class="edge">
<title>doc_0&#45;&gt;section_1</title>
<path fill="none" stroke="#000000" stroke-dasharray="5,2" d="M558.5,-398.6314C558.5,-390.931 558.5,-381.7744 558.5,-373.2167"/>
<polygon fill="#000000" stroke="#000000" points="562.0001,-373.2133 558.5,-363.2133 555.0001,-373.2134 562.0001,-373.2133"/>
</g>
<!-- header_2 -->
<g id="node3" class="node">
<title>header_2</title>
<ellipse fill="none" stroke="#000000" cx="363.5" cy="-272.8001" rx="62.8945" ry="18"/>
<text text-anchor="middle" x="363.5" y="-268.6001" font-family="Helvetica,sans-Serif" font-size="14.00" fill="#000000">1 : Orb Serve</text>
</g>
<!-- section_1&#45;&gt;header_2 -->
<g id="edge2" class="edge">
<title>section_1&#45;&gt;header_2</title>
<path fill="none" stroke="#000000" stroke-dasharray="5,2" d="M521.363,-331.0879C490.2854,-319.6131 445.7183,-303.1576 411.8579,-290.6553"/>
<polygon fill="#000000" stroke="#000000" points="412.7601,-287.2575 402.1668,-287.077 410.3355,-293.8242 412.7601,-287.2575"/>
</g>
<!-- prose_3 -->
<g id="node4" class="node">
<title>prose_3</title>
<ellipse fill="none" stroke="#000000" cx="476.5" cy="-272.8001" rx="32.4585" ry="18"/>
<text text-anchor="middle" x="476.5" y="-268.6001" font-family="Helvetica,sans-Serif" font-size="14.00" fill="#000000">prose</text>
</g>
<!-- section_1&#45;&gt;prose_3 -->
<g id="edge3" class="edge">
<title>section_1&#45;&gt;prose_3</title>
<path fill="none" stroke="#000000" stroke-dasharray="5,2" d="M539.0671,-327.7371C527.8006,-317.8445 513.4965,-305.2848 501.4098,-294.6721"/>
<polygon fill="#000000" stroke="#000000" points="503.6653,-291.9948 493.8415,-288.0268 499.0466,-297.2549 503.6653,-291.9948"/>
</g>
<!-- prose_4 -->
<g id="node5" class="node">
<title>prose_4</title>
<ellipse fill="none" stroke="#000000" cx="558.5" cy="-272.8001" rx="32.4585" ry="18"/>
<text text-anchor="middle" x="558.5" y="-268.6001" font-family="Helvetica,sans-Serif" font-size="14.00" fill="#000000">prose</text>
</g>
<!-- section_1&#45;&gt;prose_4 -->
<g id="edge4" class="edge">
<title>section_1&#45;&gt;prose_4</title>
<path fill="none" stroke="#000000" stroke-dasharray="5,2" d="M558.5,-326.6314C558.5,-318.931 558.5,-309.7744 558.5,-301.2167"/>
<polygon fill="#000000" stroke="#000000" points="562.0001,-301.2133 558.5,-291.2133 555.0001,-301.2134 562.0001,-301.2133"/>
</g>
<!-- prose_5 -->
<g id="node6" class="node">
<title>prose_5</title>
<ellipse fill="none" stroke="#000000" cx="659.5" cy="-272.8001" rx="32.4585" ry="18"/>
<text text-anchor="middle" x="659.5" y="-268.6001" font-family="Helvetica,sans-Serif" font-size="14.00" fill="#000000">prose</text>
</g>
<!-- section_1&#45;&gt;prose_5 -->
<g id="edge5" class="edge">
<title>section_1&#45;&gt;prose_5</title>
<path fill="none" stroke="#000000" stroke-dasharray="5,2" d="M581.6714,-328.2818C596.4133,-317.7727 615.6015,-304.0941 631.2364,-292.9484"/>
<polygon fill="#000000" stroke="#000000" points="633.3949,-295.7079 639.5061,-287.0532 629.3316,-290.008 633.3949,-295.7079"/>
</g>
<!-- section_6 -->
<g id="node7" class="node">
<title>section_6</title>
<ellipse fill="none" stroke="#000000" cx="1328.5" cy="-272.8001" rx="65.8187" ry="18"/>
<text text-anchor="middle" x="1328.5" y="-268.6001" font-family="Helvetica,sans-Serif" font-size="14.00" fill="#000000">section: 10&#45;17</text>
</g>
<!-- section_1&#45;&gt;section_6 -->
<g id="edge6" class="edge">
<title>section_1&#45;&gt;section_6</title>
<path fill="none" stroke="#000000" stroke-dasharray="5,2" d="M612.3389,-339.7658C747.6977,-327.1088 1102.3265,-293.9488 1255.8827,-279.5903"/>
<polygon fill="#000000" stroke="#000000" points="1256.5132,-283.0467 1266.1439,-278.6308 1255.8614,-276.0771 1256.5132,-283.0467"/>
</g>
<!-- leaf_7 -->
<g id="node8" class="node">
<title>leaf_7</title>
<polygon fill="none" stroke="#c0c0c0" points="410,-218.8001 317,-218.8001 317,-182.8001 410,-182.8001 410,-218.8001"/>
<text text-anchor="middle" x="363.5" y="-197.3001" font-family="Inconsolata" font-size="14.00" fill="#000000">* Orb Serve</text>
</g>
<!-- header_2&#45;&gt;leaf_7 -->
<g id="edge7" class="edge">
<title>header_2&#45;&gt;leaf_7</title>
<path fill="none" stroke="#000000" stroke-dasharray="5,2" d="M363.5,-254.6314C363.5,-246.931 363.5,-237.7744 363.5,-229.2167"/>
<polygon fill="#000000" stroke="#000000" points="367.0001,-229.2133 363.5,-219.2133 360.0001,-229.2134 367.0001,-229.2133"/>
</g>
<!-- raw_8 -->
<g id="node9" class="node">
<title>raw_8</title>
<ellipse fill="none" stroke="#000000" cx="465.5" cy="-200.8001" rx="27" ry="18"/>
<text text-anchor="middle" x="465.5" y="-196.6001" font-family="Helvetica,sans-Serif" font-size="14.00" fill="#000000">raw</text>
</g>
<!-- prose_3&#45;&gt;raw_8 -->
<g id="edge8" class="edge">
<title>prose_3&#45;&gt;raw_8</title>
<path fill="none" stroke="#000000" stroke-dasharray="5,2" d="M473.7242,-254.6314C472.5297,-246.8125 471.1058,-237.4923 469.7812,-228.8222"/>
<polygon fill="#000000" stroke="#000000" points="473.207,-228.0702 468.2368,-218.7135 466.2873,-229.1274 473.207,-228.0702"/>
</g>
<!-- raw_10 -->
<g id="node11" class="node">
<title>raw_10</title>
<ellipse fill="none" stroke="#000000" cx="548.5" cy="-200.8001" rx="27" ry="18"/>
<text text-anchor="middle" x="548.5" y="-196.6001" font-family="Helvetica,sans-Serif" font-size="14.00" fill="#000000">raw</text>
</g>
<!-- prose_4&#45;&gt;raw_10 -->
<g id="edge10" class="edge">
<title>prose_4&#45;&gt;raw_10</title>
<path fill="none" stroke="#000000" stroke-dasharray="5,2" d="M555.9766,-254.6314C554.9071,-246.931 553.6353,-237.7744 552.4468,-229.2167"/>
<polygon fill="#000000" stroke="#000000" points="555.8999,-228.6367 551.0574,-219.2133 548.9664,-229.5998 555.8999,-228.6367"/>
</g>
<!-- raw_12 -->
<g id="node13" class="node">
<title>raw_12</title>
<ellipse fill="none" stroke="#000000" cx="697.5" cy="-200.8001" rx="27" ry="18"/>
<text text-anchor="middle" x="697.5" y="-196.6001" font-family="Helvetica,sans-Serif" font-size="14.00" fill="#000000">raw</text>
</g>
<!-- prose_5&#45;&gt;raw_12 -->
<g id="edge12" class="edge">
<title>prose_5&#45;&gt;raw_12</title>
<path fill="none" stroke="#000000" stroke-dasharray="5,2" d="M668.6987,-255.3709C673.1797,-246.8807 678.6621,-236.4929 683.6366,-227.0675"/>
<polygon fill="#000000" stroke="#000000" points="686.8137,-228.5463 688.386,-218.0687 680.623,-225.2789 686.8137,-228.5463"/>
</g>
<!-- header_14 -->
<g id="node15" class="node">
<title>header_14</title>
<ellipse fill="none" stroke="#000000" cx="1062.5" cy="-200.8001" rx="164.5539" ry="18"/>
<text text-anchor="middle" x="1062.5" y="-196.6001" font-family="Helvetica,sans-Serif" font-size="14.00" fill="#000000">2 : Remaining Tasks #Todo (Orb Serve)</text>
</g>
<!-- section_6&#45;&gt;header_14 -->
<g id="edge14" class="edge">
<title>section_6&#45;&gt;header_14</title>
<path fill="none" stroke="#000000" stroke-dasharray="5,2" d="M1281.5568,-260.0936C1240.7587,-249.0505 1181.0274,-232.8827 1134.2389,-220.2181"/>
<polygon fill="#000000" stroke="#000000" points="1135.0298,-216.8063 1124.4627,-217.5719 1133.2008,-223.5632 1135.0298,-216.8063"/>
</g>
<!-- prose_15 -->
<g id="node16" class="node">
<title>prose_15</title>
<ellipse fill="none" stroke="#000000" cx="1462.5" cy="-200.8001" rx="32.4585" ry="18"/>
<text text-anchor="middle" x="1462.5" y="-196.6001" font-family="Helvetica,sans-Serif" font-size="14.00" fill="#000000">prose</text>
</g>
<!-- section_6&#45;&gt;prose_15 -->
<g id="edge15" class="edge">
<title>section_6&#45;&gt;prose_15</title>
<path fill="none" stroke="#000000" stroke-dasharray="5,2" d="M1358.5722,-256.6419C1379.9079,-245.1779 1408.5091,-229.8101 1430.3061,-218.0983"/>
<polygon fill="#000000" stroke="#000000" points="1432.0378,-221.1411 1439.1901,-213.3248 1428.7245,-214.9749 1432.0378,-221.1411"/>
</g>
<!-- prose_16 -->
<g id="node17" class="node">
<title>prose_16</title>
<ellipse fill="none" stroke="#000000" cx="2828.5" cy="-200.8001" rx="32.4585" ry="18"/>
<text text-anchor="middle" x="2828.5" y="-196.6001" font-family="Helvetica,sans-Serif" font-size="14.00" fill="#000000">prose</text>
</g>
<!-- section_6&#45;&gt;prose_16 -->
<g id="edge16" class="edge">
<title>section_6&#45;&gt;prose_16</title>
<path fill="none" stroke="#000000" stroke-dasharray="5,2" d="M1393.4346,-269.6832C1648.2352,-257.4528 2576.0241,-212.9189 2786.0403,-202.8381"/>
<polygon fill="#000000" stroke="#000000" points="2786.516,-206.3194 2796.3366,-202.3439 2786.1803,-199.3275 2786.516,-206.3194"/>
</g>
<!-- leaf_9 -->
<g id="node10" class="node">
<title>leaf_9</title>
<polygon fill="none" stroke="#c0c0c0" points="289,-147.0015 0,-147.0015 0,-91.1986 289,-91.1986 289,-147.0015"/>
<text text-anchor="middle" x="144.5" y="-99.6001" font-family="Inconsolata" font-size="14.00" fill="#000000">This needs to be attached to the codex.</text>
</g>
<!-- raw_8&#45;&gt;leaf_9 -->
<g id="edge9" class="edge">
<title>raw_8&#45;&gt;leaf_9</title>
<path fill="none" stroke="#000000" stroke-dasharray="5,2" d="M442.2919,-191.1869C434.7766,-188.2699 426.3536,-185.2044 418.5,-182.8001 377.4289,-170.2263 332.2383,-158.7737 290.6063,-149.1558"/>
<polygon fill="#000000" stroke="#000000" points="291.1952,-145.7002 280.6661,-146.8784 289.6318,-152.5234 291.1952,-145.7002"/>
</g>
<!-- leaf_11 -->
<g id="node12" class="node">
<title>leaf_11</title>
<polygon fill="none" stroke="#c0c0c0" points="638,-139.0021 307,-139.0021 307,-99.198 638,-99.198 638,-139.0021"/>
<text text-anchor="middle" x="472.5" y="-107.6001" font-family="Inconsolata" font-size="14.00" fill="#000000">Arguably it should just be part of the codex.</text>
</g>
<!-- raw_10&#45;&gt;leaf_11 -->
<g id="edge11" class="edge">
<title>raw_10&#45;&gt;leaf_11</title>
<path fill="none" stroke="#000000" stroke-dasharray="5,2" d="M534.205,-185.4329C523.9968,-174.4591 509.9886,-159.4003 497.8992,-146.4042"/>
<polygon fill="#000000" stroke="#000000" points="500.4199,-143.9751 491.0461,-139.0371 495.2945,-148.7429 500.4199,-143.9751"/>
</g>
<!-- leaf_13 -->
<g id="node14" class="node">
<title>leaf_13</title>
<polygon fill="none" stroke="#c0c0c0" points="777,-147.0015 656,-147.0015 656,-91.1986 777,-91.1986 777,-147.0015"/>
<text text-anchor="middle" x="716.5" y="-115.6001" font-family="Inconsolata" font-size="14.00" fill="#000000">Let&#39;s try that.</text>
</g>
<!-- raw_12&#45;&gt;leaf_13 -->
<g id="edge13" class="edge">
<title>raw_12&#45;&gt;leaf_13</title>
<path fill="none" stroke="#000000" stroke-dasharray="5,2" d="M701.7167,-182.6682C703.496,-175.0172 705.6379,-165.8072 707.732,-156.8024"/>
<polygon fill="#000000" stroke="#000000" points="711.198,-157.3498 710.0542,-146.8169 704.38,-155.7642 711.198,-157.3498"/>
</g>
<!-- leaf_17 -->
<g id="node18" class="node">
<title>leaf_17</title>
<polygon fill="none" stroke="#c0c0c0" points="1063.5,-137.1 795.5,-137.1 795.5,-101.1 1063.5,-101.1 1063.5,-137.1"/>
<text text-anchor="middle" x="929.5" y="-115.6001" font-family="Inconsolata" font-size="14.00" fill="#000000">** Remaining Tasks #Todo (Orb Serve)</text>
</g>
<!-- header_14&#45;&gt;leaf_17 -->
<g id="edge17" class="edge">
<title>header_14&#45;&gt;leaf_17</title>
<path fill="none" stroke="#000000" stroke-dasharray="5,2" d="M1033.641,-183.0724C1014.3884,-171.2458 988.8596,-155.5638 967.8966,-142.6865"/>
<polygon fill="#000000" stroke="#000000" points="969.5764,-139.6108 959.2236,-137.3588 965.9124,-145.5753 969.5764,-139.6108"/>
</g>
<!-- raw_18 -->
<g id="node19" class="node">
<title>raw_18</title>
<ellipse fill="none" stroke="#000000" cx="1108.5" cy="-119.1" rx="27" ry="18"/>
<text text-anchor="middle" x="1108.5" y="-114.9" font-family="Helvetica,sans-Serif" font-size="14.00" fill="#000000">raw</text>
</g>
<!-- prose_15&#45;&gt;raw_18 -->
<g id="edge18" class="edge">
<title>prose_15&#45;&gt;raw_18</title>
<path fill="none" stroke="#000000" stroke-dasharray="5,2" d="M1430.6108,-197.3684C1360.6281,-189.5192 1195.7482,-169.1972 1144.5,-146.8001 1140.3224,-144.9743 1136.1957,-142.5605 1132.31,-139.9174"/>
<polygon fill="#000000" stroke="#000000" points="1134.3679,-137.0859 1124.2621,-133.904 1130.1779,-142.6935 1134.3679,-137.0859"/>
</g>
<!-- prespace_19 -->
<g id="node20" class="node">
<title>prespace_19</title>
<ellipse fill="none" stroke="#000000" cx="1199.5" cy="-119.1" rx="46.4736" ry="18"/>
<text text-anchor="middle" x="1199.5" y="-114.9" font-family="Helvetica,sans-Serif" font-size="14.00" fill="#000000">prespace</text>
</g>
<!-- prose_15&#45;&gt;prespace_19 -->
<g id="edge19" class="edge">
<title>prose_15&#45;&gt;prespace_19</title>
<path fill="none" stroke="#000000" stroke-dasharray="5,2" d="M1431.7319,-194.8295C1390.7639,-186.418 1316.3913,-169.53 1255.5,-146.8001 1249.014,-144.3789 1242.281,-141.4431 1235.8275,-138.3998"/>
<polygon fill="#000000" stroke="#000000" points="1237.1554,-135.1533 1226.6336,-133.9116 1234.0845,-141.4438 1237.1554,-135.1533"/>
</g>
<!-- literal_20 -->
<g id="node21" class="node">
<title>literal_20</title>
<ellipse fill="none" stroke="#000000" cx="1295.5" cy="-119.1" rx="31.481" ry="18"/>
<text text-anchor="middle" x="1295.5" y="-114.9" font-family="Helvetica,sans-Serif" font-size="14.00" fill="#000000">literal</text>
</g>
<!-- prose_15&#45;&gt;literal_20 -->
<g id="edge20" class="edge">
<title>prose_15&#45;&gt;literal_20</title>
<path fill="none" stroke="#000000" stroke-dasharray="5,2" d="M1434.9899,-190.9669C1408.7443,-181.1566 1368.441,-164.9611 1335.5,-146.8001 1331.2835,-144.4754 1326.9617,-141.8128 1322.7904,-139.0778"/>
<polygon fill="#000000" stroke="#000000" points="1324.7575,-136.1829 1314.5218,-133.4476 1320.8176,-141.9689 1324.7575,-136.1829"/>
</g>
<!-- raw_21 -->
<g id="node22" class="node">
<title>raw_21</title>
<ellipse fill="none" stroke="#000000" cx="1371.5" cy="-119.1" rx="27" ry="18"/>
<text text-anchor="middle" x="1371.5" y="-114.9" font-family="Helvetica,sans-Serif" font-size="14.00" fill="#000000">raw</text>
</g>
<!-- prose_15&#45;&gt;raw_21 -->
<g id="edge21" class="edge">
<title>prose_15&#45;&gt;raw_21</title>
<path fill="none" stroke="#000000" stroke-dasharray="5,2" d="M1445.3836,-185.4329C1431.2662,-172.7582 1411.0789,-154.6341 1395.3724,-140.5328"/>
<polygon fill="#000000" stroke="#000000" points="1397.4025,-137.6518 1387.6232,-133.5755 1392.7261,-142.8605 1397.4025,-137.6518"/>
</g>
<!-- prespace_22 -->
<g id="node23" class="node">
<title>prespace_22</title>
<ellipse fill="none" stroke="#000000" cx="1462.5" cy="-119.1" rx="46.4736" ry="18"/>
<text text-anchor="middle" x="1462.5" y="-114.9" font-family="Helvetica,sans-Serif" font-size="14.00" fill="#000000">prespace</text>
</g>
<!-- prose_15&#45;&gt;prespace_22 -->
<g id="edge22" class="edge">
<title>prose_15&#45;&gt;prespace_22</title>
<path fill="none" stroke="#000000" stroke-dasharray="5,2" d="M1462.5,-182.6682C1462.5,-172.3023 1462.5,-159.0748 1462.5,-147.373"/>
<polygon fill="#000000" stroke="#000000" points="1466.0001,-147.1812 1462.5,-137.1812 1459.0001,-147.1813 1466.0001,-147.1812"/>
</g>
<!-- literal_23 -->
<g id="node24" class="node">
<title>literal_23</title>
<ellipse fill="none" stroke="#000000" cx="1558.5" cy="-119.1" rx="31.481" ry="18"/>
<text text-anchor="middle" x="1558.5" y="-114.9" font-family="Helvetica,sans-Serif" font-size="14.00" fill="#000000">literal</text>
</g>
<!-- prose_15&#45;&gt;literal_23 -->
<g id="edge23" class="edge">
<title>prose_15&#45;&gt;literal_23</title>
<path fill="none" stroke="#000000" stroke-dasharray="5,2" d="M1480.5569,-185.4329C1495.3999,-172.8009 1516.6033,-154.7559 1533.1486,-140.6751"/>
<polygon fill="#000000" stroke="#000000" points="1535.5013,-143.2688 1540.8484,-134.1223 1530.9646,-137.938 1535.5013,-143.2688"/>
</g>
<!-- raw_24 -->
<g id="node25" class="node">
<title>raw_24</title>
<ellipse fill="none" stroke="#000000" cx="1707.5" cy="-119.1" rx="27" ry="18"/>
<text text-anchor="middle" x="1707.5" y="-114.9" font-family="Helvetica,sans-Serif" font-size="14.00" fill="#000000">raw</text>
</g>
<!-- prose_15&#45;&gt;raw_24 -->
<g id="edge24" class="edge">
<title>prose_15&#45;&gt;raw_24</title>
<path fill="none" stroke="#000000" stroke-dasharray="5,2" d="M1490.6046,-191.428C1535.782,-176.3627 1624.4213,-146.8043 1673.2355,-130.5262"/>
<polygon fill="#000000" stroke="#000000" points="1674.6383,-133.748 1683.0175,-127.2642 1672.4238,-127.1075 1674.6383,-133.748"/>
</g>
<!-- prespace_25 -->
<g id="node26" class="node">
<title>prespace_25</title>
<ellipse fill="none" stroke="#000000" cx="1863.5" cy="-119.1" rx="46.4736" ry="18"/>
<text text-anchor="middle" x="1863.5" y="-114.9" font-family="Helvetica,sans-Serif" font-size="14.00" fill="#000000">prespace</text>
</g>
<!-- prose_15&#45;&gt;prespace_25 -->
<g id="edge25" class="edge">
<title>prose_15&#45;&gt;prespace_25</title>
<path fill="none" stroke="#000000" stroke-dasharray="5,2" d="M1493.3445,-195.2586C1545.1464,-185.8656 1652.8555,-165.9647 1743.5,-146.8001 1766.7055,-141.8938 1792.3325,-136.0383 1813.9251,-130.9774"/>
<polygon fill="#000000" stroke="#000000" points="1814.923,-134.3383 1823.8548,-128.6397 1813.3188,-127.5246 1814.923,-134.3383"/>
</g>
<!-- literal_26 -->
<g id="node27" class="node">
<title>literal_26</title>
<ellipse fill="none" stroke="#000000" cx="2015.5" cy="-119.1" rx="31.481" ry="18"/>
<text text-anchor="middle" x="2015.5" y="-114.9" font-family="Helvetica,sans-Serif" font-size="14.00" fill="#000000">literal</text>
</g>
<!-- prose_15&#45;&gt;literal_26 -->
<g id="edge26" class="edge">
<title>prose_15&#45;&gt;literal_26</title>
<path fill="none" stroke="#000000" stroke-dasharray="5,2" d="M1494.5655,-198.7776C1569.4068,-193.6725 1761.199,-178.3621 1918.5,-146.8001 1938.5454,-142.778 1960.4796,-136.6641 1978.4117,-131.2025"/>
<polygon fill="#000000" stroke="#000000" points="1979.6791,-134.4739 1988.193,-128.1681 1977.605,-127.7882 1979.6791,-134.4739"/>
</g>
<!-- raw_27 -->
<g id="node28" class="node">
<title>raw_27</title>
<ellipse fill="none" stroke="#000000" cx="2255.5" cy="-119.1" rx="27" ry="18"/>
<text text-anchor="middle" x="2255.5" y="-114.9" font-family="Helvetica,sans-Serif" font-size="14.00" fill="#000000">raw</text>
</g>
<!-- prose_15&#45;&gt;raw_27 -->
<g id="edge27" class="edge">
<title>prose_15&#45;&gt;raw_27</title>
<path fill="none" stroke="#000000" stroke-dasharray="5,2" d="M1494.6945,-198.4013C1583.9184,-191.6384 1841.8761,-171.3065 2055.5,-146.8001 2112.7236,-140.2355 2178.8851,-130.686 2218.9355,-124.6879"/>
<polygon fill="#000000" stroke="#000000" points="2219.6542,-128.1192 2229.0218,-123.1697 2218.6122,-121.1972 2219.6542,-128.1192"/>
</g>
<!-- raw_38 -->
<g id="node39" class="node">
<title>raw_38</title>
<ellipse fill="none" stroke="#000000" cx="2737.5" cy="-119.1" rx="27" ry="18"/>
<text text-anchor="middle" x="2737.5" y="-114.9" font-family="Helvetica,sans-Serif" font-size="14.00" fill="#000000">raw</text>
</g>
<!-- prose_16&#45;&gt;raw_38 -->
<g id="edge38" class="edge">
<title>prose_16&#45;&gt;raw_38</title>
<path fill="none" stroke="#000000" stroke-dasharray="5,2" d="M2811.3836,-185.4329C2797.2662,-172.7582 2777.0789,-154.6341 2761.3724,-140.5328"/>
<polygon fill="#000000" stroke="#000000" points="2763.4025,-137.6518 2753.6232,-133.5755 2758.7261,-142.8605 2763.4025,-137.6518"/>
</g>
<!-- prespace_39 -->
<g id="node40" class="node">
<title>prespace_39</title>
<ellipse fill="none" stroke="#000000" cx="2828.5" cy="-119.1" rx="46.4736" ry="18"/>
<text text-anchor="middle" x="2828.5" y="-114.9" font-family="Helvetica,sans-Serif" font-size="14.00" fill="#000000">prespace</text>
</g>
<!-- prose_16&#45;&gt;prespace_39 -->
<g id="edge39" class="edge">
<title>prose_16&#45;&gt;prespace_39</title>
<path fill="none" stroke="#000000" stroke-dasharray="5,2" d="M2828.5,-182.6682C2828.5,-172.3023 2828.5,-159.0748 2828.5,-147.373"/>
<polygon fill="#000000" stroke="#000000" points="2832.0001,-147.1812 2828.5,-137.1812 2825.0001,-147.1813 2832.0001,-147.1812"/>
</g>
<!-- literal_40 -->
<g id="node41" class="node">
<title>literal_40</title>
<ellipse fill="none" stroke="#000000" cx="2924.5" cy="-119.1" rx="31.481" ry="18"/>
<text text-anchor="middle" x="2924.5" y="-114.9" font-family="Helvetica,sans-Serif" font-size="14.00" fill="#000000">literal</text>
</g>
<!-- prose_16&#45;&gt;literal_40 -->
<g id="edge40" class="edge">
<title>prose_16&#45;&gt;literal_40</title>
<path fill="none" stroke="#000000" stroke-dasharray="5,2" d="M2846.5569,-185.4329C2861.3999,-172.8009 2882.6033,-154.7559 2899.1486,-140.6751"/>
<polygon fill="#000000" stroke="#000000" points="2901.5013,-143.2688 2906.8484,-134.1223 2896.9646,-137.938 2901.5013,-143.2688"/>
</g>
<!-- raw_41 -->
<g id="node42" class="node">
<title>raw_41</title>
<ellipse fill="none" stroke="#000000" cx="3003.5" cy="-119.1" rx="27" ry="18"/>
<text text-anchor="middle" x="3003.5" y="-114.9" font-family="Helvetica,sans-Serif" font-size="14.00" fill="#000000">raw</text>
</g>
<!-- prose_16&#45;&gt;raw_41 -->
<g id="edge41" class="edge">
<title>prose_16&#45;&gt;raw_41</title>
<path fill="none" stroke="#000000" stroke-dasharray="5,2" d="M2856.7285,-191.8129C2884.8655,-182.348 2928.8974,-166.147 2964.5,-146.8001 2968.8326,-144.4457 2973.2534,-141.6933 2977.4884,-138.8543"/>
<polygon fill="#000000" stroke="#000000" points="2979.6534,-141.6109 2985.8327,-133.0047 2975.6352,-135.8791 2979.6534,-141.6109"/>
</g>
<!-- leaf_28 -->
<g id="node29" class="node">
<title>leaf_28</title>
<polygon fill="none" stroke="#c0c0c0" points="842.5,-55.6015 784.5,-55.6015 784.5,.2015 842.5,.2015 842.5,-55.6015"/>
<text text-anchor="middle" x="813.5" y="-8.2" font-family="Inconsolata" font-size="14.00" fill="#000000">&#45; [ ] </text>
</g>
<!-- raw_18&#45;&gt;leaf_28 -->
<g id="edge28" class="edge">
<title>raw_18&#45;&gt;leaf_28</title>
<path fill="none" stroke="#000000" stroke-dasharray="5,2" d="M1092.7497,-104.269C1086.8128,-99.4459 1079.7367,-94.5337 1072.5,-91.4 981.1777,-51.8546 943.3275,-93.7578 851.5,-55.4 851.4058,-55.3607 851.3117,-55.3211 851.2175,-55.2812"/>
<polygon fill="#000000" stroke="#000000" points="853.0727,-52.2977 842.5712,-50.8943 849.9054,-58.5402 853.0727,-52.2977"/>
</g>
<!-- leaf_29 -->
<g id="node30" class="node">
<title>leaf_29</title>
<polygon fill="none" stroke="#c0c0c0" points="914.5,-45.7 860.5,-45.7 860.5,-9.7 914.5,-9.7 914.5,-45.7"/>
<text text-anchor="middle" x="887.5" y="-24.2" font-family="Inconsolata" font-size="14.00" fill="#000000"> </text>
</g>
<!-- prespace_19&#45;&gt;leaf_29 -->
<g id="edge29" class="edge">
<title>prespace_19&#45;&gt;leaf_29</title>
<path fill="none" stroke="#000000" stroke-dasharray="5,2" d="M1173.6197,-104.024C1164.6485,-99.3559 1154.3634,-94.6033 1144.5,-91.4 1049.8494,-60.6613 1014.8223,-94.9455 923.5,-55.4 920.8541,-54.2543 918.2296,-52.8708 915.6745,-51.3408"/>
<polygon fill="#000000" stroke="#000000" points="917.5711,-48.3983 907.3236,-45.7074 913.6563,-54.2013 917.5711,-48.3983"/>
</g>
<!-- leaf_30 -->
<g id="node31" class="node">
<title>leaf_30</title>
<polygon fill="none" stroke="#c0c0c0" points="1012,-45.7 933,-45.7 933,-9.7 1012,-9.7 1012,-45.7"/>
<text text-anchor="middle" x="972.5" y="-24.2" font-family="Inconsolata" font-size="14.00" fill="#000000">orb serve</text>
</g>
<!-- literal_20&#45;&gt;leaf_30 -->
<g id="edge30" class="edge">
<title>literal_20&#45;&gt;leaf_30</title>
<path fill="none" stroke="#000000" stroke-dasharray="5,2" d="M1277.291,-104.2689C1270.5041,-99.4459 1262.4983,-94.5337 1254.5,-91.4 1156.5275,-53.0154 1119.7692,-90.2947 1020.5,-55.4 1016.5686,-54.0181 1012.5934,-52.3108 1008.7019,-50.4279"/>
<polygon fill="#000000" stroke="#000000" points="1010.3163,-47.3225 999.8335,-45.7861 1007.0702,-53.5243 1010.3163,-47.3225"/>
</g>
<!-- leaf_31 -->
<g id="node32" class="node">
<title>leaf_31</title>
<polygon fill="none" stroke="#c0c0c0" points="1417,-47.0006 1030,-47.0006 1030,-8.3994 1417,-8.3994 1417,-47.0006"/>
<text text-anchor="middle" x="1223.5" y="-31.9" font-family="Inconsolata" font-size="14.00" fill="#000000"> in present instantiation would be more fairly called</text>
<text text-anchor="middle" x="1223.5" y="-16.5" font-family="Inconsolata" font-size="14.00" fill="#000000"> &#160;&#160;&#160;&#160;&#160;</text>
</g>
<!-- raw_21&#45;&gt;leaf_31 -->
<g id="edge31" class="edge">
<title>raw_21&#45;&gt;leaf_31</title>
<path fill="none" stroke="#000000" stroke-dasharray="5,2" d="M1354.2799,-105.0744C1348.4444,-100.5326 1341.8055,-95.5898 1335.5,-91.4 1314.4015,-77.3808 1290.0532,-63.2999 1269.4588,-51.9551"/>
<polygon fill="#000000" stroke="#000000" points="1271.0391,-48.8302 1260.5853,-47.1075 1267.6831,-54.9733 1271.0391,-48.8302"/>
</g>
<!-- leaf_32 -->
<g id="node33" class="node">
<title>leaf_32</title>
<polygon fill="none" stroke="#c0c0c0" points="1489.5,-45.7 1435.5,-45.7 1435.5,-9.7 1489.5,-9.7 1489.5,-45.7"/>
<text text-anchor="middle" x="1462.5" y="-24.2" font-family="Inconsolata" font-size="14.00" fill="#000000"> </text>
</g>
<!-- prespace_22&#45;&gt;leaf_32 -->
<g id="edge32" class="edge">
<title>prespace_22&#45;&gt;leaf_32</title>
<path fill="none" stroke="#000000" stroke-dasharray="5,2" d="M1462.5,-101.0423C1462.5,-88.1483 1462.5,-70.5516 1462.5,-55.8265"/>
<polygon fill="#000000" stroke="#000000" points="1466.0001,-55.7202 1462.5,-45.7202 1459.0001,-55.7202 1466.0001,-55.7202"/>
</g>
<!-- leaf_33 -->
<g id="node34" class="node">
<title>leaf_33</title>
<polygon fill="none" stroke="#c0c0c0" points="1593.5,-45.7 1507.5,-45.7 1507.5,-9.7 1593.5,-9.7 1593.5,-45.7"/>
<text text-anchor="middle" x="1550.5" y="-24.2" font-family="Inconsolata" font-size="14.00" fill="#000000">orb listen</text>
</g>
<!-- literal_23&#45;&gt;leaf_33 -->
<g id="edge33" class="edge">
<title>literal_23&#45;&gt;leaf_33</title>
<path fill="none" stroke="#000000" stroke-dasharray="5,2" d="M1556.9195,-101.0423C1555.7909,-88.1483 1554.2507,-70.5516 1552.9618,-55.8265"/>
<polygon fill="#000000" stroke="#000000" points="1556.436,-55.3769 1552.0773,-45.7202 1549.4626,-55.9873 1556.436,-55.3769"/>
</g>
<!-- leaf_34 -->
<g id="node35" class="node">
<title>leaf_34</title>
<polygon fill="none" stroke="#c0c0c0" points="1949.5,-45.7 1611.5,-45.7 1611.5,-9.7 1949.5,-9.7 1949.5,-45.7"/>
<text text-anchor="middle" x="1780.5" y="-24.2" font-family="Inconsolata" font-size="14.00" fill="#000000">. &#160;Once the watchers are set, we want to run a</text>
</g>
<!-- raw_24&#45;&gt;leaf_34 -->
<g id="edge34" class="edge">
<title>raw_24&#45;&gt;leaf_34</title>
<path fill="none" stroke="#000000" stroke-dasharray="5,2" d="M1720.2156,-103.1794C1731.0689,-89.5905 1746.8915,-69.7798 1759.6035,-53.8636"/>
<polygon fill="#000000" stroke="#000000" points="1762.4188,-55.9471 1765.9247,-45.9491 1756.9492,-51.5786 1762.4188,-55.9471"/>
</g>
<!-- leaf_35 -->
<g id="node36" class="node">
<title>leaf_35</title>
<polygon fill="none" stroke="#c0c0c0" points="2021.5,-45.7 1967.5,-45.7 1967.5,-9.7 2021.5,-9.7 2021.5,-45.7"/>
<text text-anchor="middle" x="1994.5" y="-24.2" font-family="Inconsolata" font-size="14.00" fill="#000000"> </text>
</g>
<!-- prespace_25&#45;&gt;leaf_35 -->
<g id="edge35" class="edge">
<title>prespace_25&#45;&gt;leaf_35</title>
<path fill="none" stroke="#000000" stroke-dasharray="5,2" d="M1887.6105,-103.5559C1906.9919,-90.9125 1934.7976,-72.4379 1958.5,-55.4 1960.0848,-54.2608 1961.6997,-53.083 1963.324,-51.8846"/>
<polygon fill="#000000" stroke="#000000" points="1965.5289,-54.606 1971.4286,-45.8057 1961.3287,-49.0061 1965.5289,-54.606"/>
</g>
<!-- leaf_36 -->
<g id="node37" class="node">
<title>leaf_36</title>
<polygon fill="none" stroke="#c0c0c0" points="2119,-45.7 2040,-45.7 2040,-9.7 2119,-9.7 2119,-45.7"/>
<text text-anchor="middle" x="2079.5" y="-24.2" font-family="Inconsolata" font-size="14.00" fill="#000000">localhost</text>
</g>
<!-- literal_26&#45;&gt;leaf_36 -->
<g id="edge36" class="edge">
<title>literal_26&#45;&gt;leaf_36</title>
<path fill="none" stroke="#000000" stroke-dasharray="5,2" d="M2027.2386,-102.3359C2036.6774,-88.856 2050.1117,-69.6703 2060.9957,-54.1265"/>
<polygon fill="#000000" stroke="#000000" points="2063.8696,-56.1242 2066.7384,-45.9251 2058.1355,-52.1091 2063.8696,-56.1242"/>
</g>
<!-- leaf_37 -->
<g id="node38" class="node">
<title>leaf_37</title>
<polygon fill="none" stroke="#c0c0c0" points="2699.5,-55.0004 2137.5,-55.0004 2137.5,-.3996 2699.5,-.3996 2699.5,-55.0004"/>
<text text-anchor="middle" x="2418.5" y="-23.9" font-family="Inconsolata" font-size="14.00" fill="#000000"> &#160;&#160;&#160;&#160;&#160;&#160;instance on the event loop, that serves the existing link structure and</text>
<text text-anchor="middle" x="2418.5" y="-8.5" font-family="Inconsolata" font-size="14.00" fill="#000000"> &#160;&#160;&#160;&#160;&#160;&#160;its planned expansions.</text>
</g>
<!-- raw_27&#45;&gt;leaf_37 -->
<g id="edge37" class="edge">
<title>raw_27&#45;&gt;leaf_37</title>
<path fill="none" stroke="#000000" stroke-dasharray="5,2" d="M2276.4757,-107.3382C2297.6707,-95.4534 2331.377,-76.5531 2360.6348,-60.1471"/>
<polygon fill="#000000" stroke="#000000" points="2362.5427,-63.0901 2369.5532,-55.1463 2359.119,-56.9844 2362.5427,-63.0901"/>
</g>
<!-- leaf_42 -->
<g id="node43" class="node">
<title>leaf_42</title>
<polygon fill="none" stroke="#c0c0c0" points="2775.5,-47.6021 2717.5,-47.6021 2717.5,-7.7979 2775.5,-7.7979 2775.5,-47.6021"/>
<text text-anchor="middle" x="2746.5" y="-16.2" font-family="Inconsolata" font-size="14.00" fill="#000000">&#45; [ ] </text>
</g>
<!-- raw_38&#45;&gt;leaf_42 -->
<g id="edge42" class="edge">
<title>raw_38&#45;&gt;leaf_42</title>
<path fill="none" stroke="#000000" stroke-dasharray="5,2" d="M2739.2781,-101.0423C2740.4865,-88.771 2742.1142,-72.2402 2743.5185,-57.9791"/>
<polygon fill="#000000" stroke="#000000" points="2747.0412,-57.9189 2744.5381,-47.624 2740.0749,-57.2329 2747.0412,-57.9189"/>
</g>
<!-- leaf_43 -->
<g id="node44" class="node">
<title>leaf_43</title>
<polygon fill="none" stroke="#c0c0c0" points="2855.5,-45.7 2801.5,-45.7 2801.5,-9.7 2855.5,-9.7 2855.5,-45.7"/>
<text text-anchor="middle" x="2828.5" y="-24.2" font-family="Inconsolata" font-size="14.00" fill="#000000"> </text>
</g>
<!-- prespace_39&#45;&gt;leaf_43 -->
<g id="edge43" class="edge">
<title>prespace_39&#45;&gt;leaf_43</title>
<path fill="none" stroke="#000000" stroke-dasharray="5,2" d="M2828.5,-101.0423C2828.5,-88.1483 2828.5,-70.5516 2828.5,-55.8265"/>
<polygon fill="#000000" stroke="#000000" points="2832.0001,-55.7202 2828.5,-45.7202 2825.0001,-55.7202 2832.0001,-55.7202"/>
</g>
<!-- leaf_44 -->
<g id="node45" class="node">
<title>leaf_44</title>
<polygon fill="none" stroke="#c0c0c0" points="2964.5,-45.7 2878.5,-45.7 2878.5,-9.7 2964.5,-9.7 2964.5,-45.7"/>
<text text-anchor="middle" x="2921.5" y="-24.2" font-family="Inconsolata" font-size="14.00" fill="#000000">orb listen</text>
</g>
<!-- literal_40&#45;&gt;leaf_44 -->
<g id="edge44" class="edge">
<title>literal_40&#45;&gt;leaf_44</title>
<path fill="none" stroke="#000000" stroke-dasharray="5,2" d="M2923.9073,-101.0423C2923.4841,-88.1483 2922.9065,-70.5516 2922.4232,-55.8265"/>
<polygon fill="#000000" stroke="#000000" points="2925.9177,-55.6 2922.0915,-45.7202 2918.9215,-55.8297 2925.9177,-55.6"/>
</g>
<!-- leaf_45 -->
<g id="node46" class="node">
<title>leaf_45</title>
<polygon fill="none" stroke="#c0c0c0" points="3036.5,-45.7 2982.5,-45.7 2982.5,-9.7 3036.5,-9.7 3036.5,-45.7"/>
</g>
<!-- raw_41&#45;&gt;leaf_45 -->
<g id="edge45" class="edge">
<title>raw_41&#45;&gt;leaf_45</title>
<path fill="none" stroke="#000000" stroke-dasharray="5,2" d="M3004.6854,-101.0423C3005.5318,-88.1483 3006.687,-70.5516 3007.6536,-55.8265"/>
<polygon fill="#000000" stroke="#000000" points="3011.1544,-55.928 3008.3171,-45.7202 3004.1694,-55.4694 3011.1544,-55.928"/>
</g>
</g>
</svg>
