<?xml version="1.0" encoding="UTF-8" standalone="no"?>
<!DOCTYPE svg PUBLIC "-//W3C//DTD SVG 1.1//EN"
 "http://www.w3.org/Graphics/SVG/1.1/DTD/svg11.dtd">
<!-- Generated by graphviz version 2.40.1 (20161225.0304)
 -->
<!-- Title: lpegNode Pages: 1 -->
<svg width="2712pt" height="443pt"
 viewBox="0.00 0.00 2711.50 442.80" xmlns="http://www.w3.org/2000/svg" xmlns:xlink="http://www.w3.org/1999/xlink">
<g id="graph0" class="graph" transform="scale(1 1) rotate(0) translate(4 438.8001)">
<title>lpegNode</title>
<polygon fill="#ffffff" stroke="transparent" points="-4,4 -4,-438.8001 2707.5,-438.8001 2707.5,4 -4,4"/>
<!-- doc_0 -->
<g id="node1" class="node">
<title>doc_0</title>
<ellipse fill="none" stroke="#000000" cx="558.5" cy="-416.8001" rx="42.1216" ry="18"/>
<text text-anchor="middle" x="558.5" y="-412.6001" font-family="Helvetica,sans-Serif" font-size="14.00" fill="#000000">doc &#45; 15</text>
</g>
<!-- section_1 -->
<g id="node2" class="node">
<title>section_1</title>
<ellipse fill="none" stroke="#000000" cx="558.5" cy="-344.8001" rx="55.6456" ry="18"/>
<text text-anchor="middle" x="558.5" y="-340.6001" font-family="Helvetica,sans-Serif" font-size="14.00" fill="#000000">section: 1&#45;9</text>
</g>
<!-- doc_0&#45;&gt;section_1 -->
<g id="edge1" class="edge">
<title>doc_0&#45;&gt;section_1</title>
<path fill="none" stroke="#000000" stroke-dasharray="5,2" d="M558.5,-398.6314C558.5,-390.931 558.5,-381.7744 558.5,-373.2167"/>
<polygon fill="#000000" stroke="#000000" points="562.0001,-373.2133 558.5,-363.2133 555.0001,-373.2134 562.0001,-373.2133"/>
</g>
<!-- header_2 -->
<g id="node3" class="node">
<title>header_2</title>
<ellipse fill="none" stroke="#000000" cx="363.5" cy="-272.8001" rx="62.8945" ry="18"/>
<text text-anchor="middle" x="363.5" y="-268.6001" font-family="Helvetica,sans-Serif" font-size="14.00" fill="#000000">1 : Orb Serve</text>
</g>
<!-- section_1&#45;&gt;header_2 -->
<g id="edge2" class="edge">
<title>section_1&#45;&gt;header_2</title>
<path fill="none" stroke="#000000" stroke-dasharray="5,2" d="M521.363,-331.0879C490.2854,-319.6131 445.7183,-303.1576 411.8579,-290.6553"/>
<polygon fill="#000000" stroke="#000000" points="412.7601,-287.2575 402.1668,-287.077 410.3355,-293.8242 412.7601,-287.2575"/>
</g>
<!-- prose_3 -->
<g id="node4" class="node">
<title>prose_3</title>
<ellipse fill="none" stroke="#000000" cx="476.5" cy="-272.8001" rx="32.4585" ry="18"/>
<text text-anchor="middle" x="476.5" y="-268.6001" font-family="Helvetica,sans-Serif" font-size="14.00" fill="#000000">prose</text>
</g>
<!-- section_1&#45;&gt;prose_3 -->
<g id="edge3" class="edge">
<title>section_1&#45;&gt;prose_3</title>
<path fill="none" stroke="#000000" stroke-dasharray="5,2" d="M539.0671,-327.7371C527.8006,-317.8445 513.4965,-305.2848 501.4098,-294.6721"/>
<polygon fill="#000000" stroke="#000000" points="503.6653,-291.9948 493.8415,-288.0268 499.0466,-297.2549 503.6653,-291.9948"/>
</g>
<!-- prose_4 -->
<g id="node5" class="node">
<title>prose_4</title>
<ellipse fill="none" stroke="#000000" cx="558.5" cy="-272.8001" rx="32.4585" ry="18"/>
<text text-anchor="middle" x="558.5" y="-268.6001" font-family="Helvetica,sans-Serif" font-size="14.00" fill="#000000">prose</text>
</g>
<!-- section_1&#45;&gt;prose_4 -->
<g id="edge4" class="edge">
<title>section_1&#45;&gt;prose_4</title>
<path fill="none" stroke="#000000" stroke-dasharray="5,2" d="M558.5,-326.6314C558.5,-318.931 558.5,-309.7744 558.5,-301.2167"/>
<polygon fill="#000000" stroke="#000000" points="562.0001,-301.2133 558.5,-291.2133 555.0001,-301.2134 562.0001,-301.2133"/>
</g>
<!-- prose_5 -->
<g id="node6" class="node">
<title>prose_5</title>
<ellipse fill="none" stroke="#000000" cx="659.5" cy="-272.8001" rx="32.4585" ry="18"/>
<text text-anchor="middle" x="659.5" y="-268.6001" font-family="Helvetica,sans-Serif" font-size="14.00" fill="#000000">prose</text>
</g>
<!-- section_1&#45;&gt;prose_5 -->
<g id="edge5" class="edge">
<title>section_1&#45;&gt;prose_5</title>
<path fill="none" stroke="#000000" stroke-dasharray="5,2" d="M581.6714,-328.2818C596.4133,-317.7727 615.6015,-304.0941 631.2364,-292.9484"/>
<polygon fill="#000000" stroke="#000000" points="633.3949,-295.7079 639.5061,-287.0532 629.3316,-290.008 633.3949,-295.7079"/>
</g>
<!-- section_6 -->
<g id="node7" class="node">
<title>section_6</title>
<ellipse fill="none" stroke="#000000" cx="929.5" cy="-272.8001" rx="65.8187" ry="18"/>
<text text-anchor="middle" x="929.5" y="-268.6001" font-family="Helvetica,sans-Serif" font-size="14.00" fill="#000000">section: 10&#45;15</text>
</g>
<!-- section_1&#45;&gt;section_6 -->
<g id="edge6" class="edge">
<title>section_1&#45;&gt;section_6</title>
<path fill="none" stroke="#000000" stroke-dasharray="5,2" d="M606.6214,-335.4611C672.8158,-322.6148 792.1075,-299.4638 865.6872,-285.1842"/>
<polygon fill="#000000" stroke="#000000" points="866.6059,-288.5713 875.7559,-283.2302 865.2722,-281.6995 866.6059,-288.5713"/>
</g>
<!-- leaf_7 -->
<g id="node8" class="node">
<title>leaf_7</title>
<polygon fill="none" stroke="#c0c0c0" points="410,-218.8001 317,-218.8001 317,-182.8001 410,-182.8001 410,-218.8001"/>
<text text-anchor="middle" x="363.5" y="-197.3001" font-family="Inconsolata" font-size="14.00" fill="#000000">* Orb Serve</text>
</g>
<!-- header_2&#45;&gt;leaf_7 -->
<g id="edge7" class="edge">
<title>header_2&#45;&gt;leaf_7</title>
<path fill="none" stroke="#000000" stroke-dasharray="5,2" d="M363.5,-254.6314C363.5,-246.931 363.5,-237.7744 363.5,-229.2167"/>
<polygon fill="#000000" stroke="#000000" points="367.0001,-229.2133 363.5,-219.2133 360.0001,-229.2134 367.0001,-229.2133"/>
</g>
<!-- raw_8 -->
<g id="node9" class="node">
<title>raw_8</title>
<ellipse fill="none" stroke="#000000" cx="465.5" cy="-200.8001" rx="27" ry="18"/>
<text text-anchor="middle" x="465.5" y="-196.6001" font-family="Helvetica,sans-Serif" font-size="14.00" fill="#000000">raw</text>
</g>
<!-- prose_3&#45;&gt;raw_8 -->
<g id="edge8" class="edge">
<title>prose_3&#45;&gt;raw_8</title>
<path fill="none" stroke="#000000" stroke-dasharray="5,2" d="M473.7242,-254.6314C472.5297,-246.8125 471.1058,-237.4923 469.7812,-228.8222"/>
<polygon fill="#000000" stroke="#000000" points="473.207,-228.0702 468.2368,-218.7135 466.2873,-229.1274 473.207,-228.0702"/>
</g>
<!-- raw_10 -->
<g id="node11" class="node">
<title>raw_10</title>
<ellipse fill="none" stroke="#000000" cx="548.5" cy="-200.8001" rx="27" ry="18"/>
<text text-anchor="middle" x="548.5" y="-196.6001" font-family="Helvetica,sans-Serif" font-size="14.00" fill="#000000">raw</text>
</g>
<!-- prose_4&#45;&gt;raw_10 -->
<g id="edge10" class="edge">
<title>prose_4&#45;&gt;raw_10</title>
<path fill="none" stroke="#000000" stroke-dasharray="5,2" d="M555.9766,-254.6314C554.9071,-246.931 553.6353,-237.7744 552.4468,-229.2167"/>
<polygon fill="#000000" stroke="#000000" points="555.8999,-228.6367 551.0574,-219.2133 548.9664,-229.5998 555.8999,-228.6367"/>
</g>
<!-- raw_12 -->
<g id="node13" class="node">
<title>raw_12</title>
<ellipse fill="none" stroke="#000000" cx="697.5" cy="-200.8001" rx="27" ry="18"/>
<text text-anchor="middle" x="697.5" y="-196.6001" font-family="Helvetica,sans-Serif" font-size="14.00" fill="#000000">raw</text>
</g>
<!-- prose_5&#45;&gt;raw_12 -->
<g id="edge12" class="edge">
<title>prose_5&#45;&gt;raw_12</title>
<path fill="none" stroke="#000000" stroke-dasharray="5,2" d="M668.6987,-255.3709C673.1797,-246.8807 678.6621,-236.4929 683.6366,-227.0675"/>
<polygon fill="#000000" stroke="#000000" points="686.8137,-228.5463 688.386,-218.0687 680.623,-225.2789 686.8137,-228.5463"/>
</g>
<!-- header_14 -->
<g id="node15" class="node">
<title>header_14</title>
<ellipse fill="none" stroke="#000000" cx="929.5" cy="-200.8001" rx="164.5539" ry="18"/>
<text text-anchor="middle" x="929.5" y="-196.6001" font-family="Helvetica,sans-Serif" font-size="14.00" fill="#000000">2 : Remaining Tasks #Todo (Orb Serve)</text>
</g>
<!-- section_6&#45;&gt;header_14 -->
<g id="edge14" class="edge">
<title>section_6&#45;&gt;header_14</title>
<path fill="none" stroke="#000000" stroke-dasharray="5,2" d="M929.5,-254.6314C929.5,-246.931 929.5,-237.7744 929.5,-229.2167"/>
<polygon fill="#000000" stroke="#000000" points="933.0001,-229.2133 929.5,-219.2133 926.0001,-229.2134 933.0001,-229.2133"/>
</g>
<!-- prose_15 -->
<g id="node16" class="node">
<title>prose_15</title>
<ellipse fill="none" stroke="#000000" cx="1462.5" cy="-200.8001" rx="32.4585" ry="18"/>
<text text-anchor="middle" x="1462.5" y="-196.6001" font-family="Helvetica,sans-Serif" font-size="14.00" fill="#000000">prose</text>
</g>
<!-- section_6&#45;&gt;prose_15 -->
<g id="edge15" class="edge">
<title>section_6&#45;&gt;prose_15</title>
<path fill="none" stroke="#000000" stroke-dasharray="5,2" d="M988.5768,-264.8197C1097.3865,-250.1212 1326.9261,-219.114 1420.9763,-206.4093"/>
<polygon fill="#000000" stroke="#000000" points="1421.5272,-209.8667 1430.9686,-205.0595 1420.5901,-202.9297 1421.5272,-209.8667"/>
</g>
<!-- leaf_9 -->
<g id="node10" class="node">
<title>leaf_9</title>
<polygon fill="none" stroke="#c0c0c0" points="289,-147.0015 0,-147.0015 0,-91.1986 289,-91.1986 289,-147.0015"/>
<text text-anchor="middle" x="144.5" y="-99.6001" font-family="Inconsolata" font-size="14.00" fill="#000000">This needs to be attached to the codex.</text>
</g>
<!-- raw_8&#45;&gt;leaf_9 -->
<g id="edge9" class="edge">
<title>raw_8&#45;&gt;leaf_9</title>
<path fill="none" stroke="#000000" stroke-dasharray="5,2" d="M442.2919,-191.1869C434.7766,-188.2699 426.3536,-185.2044 418.5,-182.8001 377.4289,-170.2263 332.2383,-158.7737 290.6063,-149.1558"/>
<polygon fill="#000000" stroke="#000000" points="291.1952,-145.7002 280.6661,-146.8784 289.6318,-152.5234 291.1952,-145.7002"/>
</g>
<!-- leaf_11 -->
<g id="node12" class="node">
<title>leaf_11</title>
<polygon fill="none" stroke="#c0c0c0" points="638,-139.0021 307,-139.0021 307,-99.198 638,-99.198 638,-139.0021"/>
<text text-anchor="middle" x="472.5" y="-107.6001" font-family="Inconsolata" font-size="14.00" fill="#000000">Arguably it should just be part of the codex.</text>
</g>
<!-- raw_10&#45;&gt;leaf_11 -->
<g id="edge11" class="edge">
<title>raw_10&#45;&gt;leaf_11</title>
<path fill="none" stroke="#000000" stroke-dasharray="5,2" d="M534.205,-185.4329C523.9968,-174.4591 509.9886,-159.4003 497.8992,-146.4042"/>
<polygon fill="#000000" stroke="#000000" points="500.4199,-143.9751 491.0461,-139.0371 495.2945,-148.7429 500.4199,-143.9751"/>
</g>
<!-- leaf_13 -->
<g id="node14" class="node">
<title>leaf_13</title>
<polygon fill="none" stroke="#c0c0c0" points="777,-147.0015 656,-147.0015 656,-91.1986 777,-91.1986 777,-147.0015"/>
<text text-anchor="middle" x="716.5" y="-115.6001" font-family="Inconsolata" font-size="14.00" fill="#000000">Let&#39;s try that.</text>
</g>
<!-- raw_12&#45;&gt;leaf_13 -->
<g id="edge13" class="edge">
<title>raw_12&#45;&gt;leaf_13</title>
<path fill="none" stroke="#000000" stroke-dasharray="5,2" d="M701.7167,-182.6682C703.496,-175.0172 705.6379,-165.8072 707.732,-156.8024"/>
<polygon fill="#000000" stroke="#000000" points="711.198,-157.3498 710.0542,-146.8169 704.38,-155.7642 711.198,-157.3498"/>
</g>
<!-- leaf_16 -->
<g id="node17" class="node">
<title>leaf_16</title>
<polygon fill="none" stroke="#c0c0c0" points="1063.5,-137.1 795.5,-137.1 795.5,-101.1 1063.5,-101.1 1063.5,-137.1"/>
<text text-anchor="middle" x="929.5" y="-115.6001" font-family="Inconsolata" font-size="14.00" fill="#000000">** Remaining Tasks #Todo (Orb Serve)</text>
</g>
<!-- header_14&#45;&gt;leaf_16 -->
<g id="edge16" class="edge">
<title>header_14&#45;&gt;leaf_16</title>
<path fill="none" stroke="#000000" stroke-dasharray="5,2" d="M929.5,-182.6682C929.5,-172.3023 929.5,-159.0748 929.5,-147.373"/>
<polygon fill="#000000" stroke="#000000" points="933.0001,-147.1812 929.5,-137.1812 926.0001,-147.1813 933.0001,-147.1812"/>
</g>
<!-- raw_17 -->
<g id="node18" class="node">
<title>raw_17</title>
<ellipse fill="none" stroke="#000000" cx="1108.5" cy="-119.1" rx="27" ry="18"/>
<text text-anchor="middle" x="1108.5" y="-114.9" font-family="Helvetica,sans-Serif" font-size="14.00" fill="#000000">raw</text>
</g>
<!-- prose_15&#45;&gt;raw_17 -->
<g id="edge17" class="edge">
<title>prose_15&#45;&gt;raw_17</title>
<path fill="none" stroke="#000000" stroke-dasharray="5,2" d="M1430.6108,-197.3684C1360.6281,-189.5192 1195.7482,-169.1972 1144.5,-146.8001 1140.3224,-144.9743 1136.1957,-142.5605 1132.31,-139.9174"/>
<polygon fill="#000000" stroke="#000000" points="1134.3679,-137.0859 1124.2621,-133.904 1130.1779,-142.6935 1134.3679,-137.0859"/>
</g>
<!-- prespace_18 -->
<g id="node19" class="node">
<title>prespace_18</title>
<ellipse fill="none" stroke="#000000" cx="1199.5" cy="-119.1" rx="46.4736" ry="18"/>
<text text-anchor="middle" x="1199.5" y="-114.9" font-family="Helvetica,sans-Serif" font-size="14.00" fill="#000000">prespace</text>
</g>
<!-- prose_15&#45;&gt;prespace_18 -->
<g id="edge18" class="edge">
<title>prose_15&#45;&gt;prespace_18</title>
<path fill="none" stroke="#000000" stroke-dasharray="5,2" d="M1431.7319,-194.8295C1390.7639,-186.418 1316.3913,-169.53 1255.5,-146.8001 1249.014,-144.3789 1242.281,-141.4431 1235.8275,-138.3998"/>
<polygon fill="#000000" stroke="#000000" points="1237.1554,-135.1533 1226.6336,-133.9116 1234.0845,-141.4438 1237.1554,-135.1533"/>
</g>
<!-- literal_19 -->
<g id="node20" class="node">
<title>literal_19</title>
<ellipse fill="none" stroke="#000000" cx="1295.5" cy="-119.1" rx="31.481" ry="18"/>
<text text-anchor="middle" x="1295.5" y="-114.9" font-family="Helvetica,sans-Serif" font-size="14.00" fill="#000000">literal</text>
</g>
<!-- prose_15&#45;&gt;literal_19 -->
<g id="edge19" class="edge">
<title>prose_15&#45;&gt;literal_19</title>
<path fill="none" stroke="#000000" stroke-dasharray="5,2" d="M1434.9899,-190.9669C1408.7443,-181.1566 1368.441,-164.9611 1335.5,-146.8001 1331.2835,-144.4754 1326.9617,-141.8128 1322.7904,-139.0778"/>
<polygon fill="#000000" stroke="#000000" points="1324.7575,-136.1829 1314.5218,-133.4476 1320.8176,-141.9689 1324.7575,-136.1829"/>
</g>
<!-- raw_20 -->
<g id="node21" class="node">
<title>raw_20</title>
<ellipse fill="none" stroke="#000000" cx="1371.5" cy="-119.1" rx="27" ry="18"/>
<text text-anchor="middle" x="1371.5" y="-114.9" font-family="Helvetica,sans-Serif" font-size="14.00" fill="#000000">raw</text>
</g>
<!-- prose_15&#45;&gt;raw_20 -->
<g id="edge20" class="edge">
<title>prose_15&#45;&gt;raw_20</title>
<path fill="none" stroke="#000000" stroke-dasharray="5,2" d="M1445.3836,-185.4329C1431.2662,-172.7582 1411.0789,-154.6341 1395.3724,-140.5328"/>
<polygon fill="#000000" stroke="#000000" points="1397.4025,-137.6518 1387.6232,-133.5755 1392.7261,-142.8605 1397.4025,-137.6518"/>
</g>
<!-- prespace_21 -->
<g id="node22" class="node">
<title>prespace_21</title>
<ellipse fill="none" stroke="#000000" cx="1462.5" cy="-119.1" rx="46.4736" ry="18"/>
<text text-anchor="middle" x="1462.5" y="-114.9" font-family="Helvetica,sans-Serif" font-size="14.00" fill="#000000">prespace</text>
</g>
<!-- prose_15&#45;&gt;prespace_21 -->
<g id="edge21" class="edge">
<title>prose_15&#45;&gt;prespace_21</title>
<path fill="none" stroke="#000000" stroke-dasharray="5,2" d="M1462.5,-182.6682C1462.5,-172.3023 1462.5,-159.0748 1462.5,-147.373"/>
<polygon fill="#000000" stroke="#000000" points="1466.0001,-147.1812 1462.5,-137.1812 1459.0001,-147.1813 1466.0001,-147.1812"/>
</g>
<!-- literal_22 -->
<g id="node23" class="node">
<title>literal_22</title>
<ellipse fill="none" stroke="#000000" cx="1558.5" cy="-119.1" rx="31.481" ry="18"/>
<text text-anchor="middle" x="1558.5" y="-114.9" font-family="Helvetica,sans-Serif" font-size="14.00" fill="#000000">literal</text>
</g>
<!-- prose_15&#45;&gt;literal_22 -->
<g id="edge22" class="edge">
<title>prose_15&#45;&gt;literal_22</title>
<path fill="none" stroke="#000000" stroke-dasharray="5,2" d="M1480.5569,-185.4329C1495.3999,-172.8009 1516.6033,-154.7559 1533.1486,-140.6751"/>
<polygon fill="#000000" stroke="#000000" points="1535.5013,-143.2688 1540.8484,-134.1223 1530.9646,-137.938 1535.5013,-143.2688"/>
</g>
<!-- raw_23 -->
<g id="node24" class="node">
<title>raw_23</title>
<ellipse fill="none" stroke="#000000" cx="1709.5" cy="-119.1" rx="27" ry="18"/>
<text text-anchor="middle" x="1709.5" y="-114.9" font-family="Helvetica,sans-Serif" font-size="14.00" fill="#000000">raw</text>
</g>
<!-- prose_15&#45;&gt;raw_23 -->
<g id="edge23" class="edge">
<title>prose_15&#45;&gt;raw_23</title>
<path fill="none" stroke="#000000" stroke-dasharray="5,2" d="M1490.3539,-191.5868C1535.915,-176.5166 1626.2246,-146.645 1675.4939,-130.3482"/>
<polygon fill="#000000" stroke="#000000" points="1676.6696,-133.6459 1685.0645,-127.1825 1674.4713,-127 1676.6696,-133.6459"/>
</g>
<!-- prespace_24 -->
<g id="node25" class="node">
<title>prespace_24</title>
<ellipse fill="none" stroke="#000000" cx="1866.5" cy="-119.1" rx="46.4736" ry="18"/>
<text text-anchor="middle" x="1866.5" y="-114.9" font-family="Helvetica,sans-Serif" font-size="14.00" fill="#000000">prespace</text>
</g>
<!-- prose_15&#45;&gt;prespace_24 -->
<g id="edge24" class="edge">
<title>prose_15&#45;&gt;prespace_24</title>
<path fill="none" stroke="#000000" stroke-dasharray="5,2" d="M1493.5624,-195.2562C1545.7307,-185.8596 1654.2033,-165.9538 1745.5,-146.8001 1768.9879,-141.8724 1794.9383,-135.9901 1816.764,-130.9162"/>
<polygon fill="#000000" stroke="#000000" points="1817.855,-134.2557 1826.7971,-128.5733 1816.2632,-127.439 1817.855,-134.2557"/>
</g>
<!-- literal_25 -->
<g id="node26" class="node">
<title>literal_25</title>
<ellipse fill="none" stroke="#000000" cx="2018.5" cy="-119.1" rx="31.481" ry="18"/>
<text text-anchor="middle" x="2018.5" y="-114.9" font-family="Helvetica,sans-Serif" font-size="14.00" fill="#000000">literal</text>
</g>
<!-- prose_15&#45;&gt;literal_25 -->
<g id="edge25" class="edge">
<title>prose_15&#45;&gt;literal_25</title>
<path fill="none" stroke="#000000" stroke-dasharray="5,2" d="M1494.7767,-198.7975C1570.111,-193.7342 1763.1663,-178.5064 1921.5,-146.8001 1941.5469,-142.7857 1963.4813,-136.6724 1981.4131,-131.2093"/>
<polygon fill="#000000" stroke="#000000" points="1982.6809,-134.4805 1991.1942,-128.1738 1980.6061,-127.7951 1982.6809,-134.4805"/>
</g>
<!-- raw_26 -->
<g id="node27" class="node">
<title>raw_26</title>
<ellipse fill="none" stroke="#000000" cx="2291.5" cy="-119.1" rx="27" ry="18"/>
<text text-anchor="middle" x="2291.5" y="-114.9" font-family="Helvetica,sans-Serif" font-size="14.00" fill="#000000">raw</text>
</g>
<!-- prose_15&#45;&gt;raw_26 -->
<g id="edge26" class="edge">
<title>prose_15&#45;&gt;raw_26</title>
<path fill="none" stroke="#000000" stroke-dasharray="5,2" d="M1494.5113,-198.2168C1583.8257,-190.9409 1843.3132,-169.3352 2058.5,-146.8001 2128.0357,-139.518 2209.0623,-129.5496 2254.9171,-123.77"/>
<polygon fill="#000000" stroke="#000000" points="2255.4884,-127.2257 2264.9703,-122.4989 2254.6103,-120.281 2255.4884,-127.2257"/>
</g>
<!-- leaf_27 -->
<g id="node28" class="node">
<title>leaf_27</title>
<polygon fill="none" stroke="#c0c0c0" points="846.5,-55.6015 788.5,-55.6015 788.5,.2015 846.5,.2015 846.5,-55.6015"/>
<text text-anchor="middle" x="817.5" y="-8.2" font-family="Inconsolata" font-size="14.00" fill="#000000">&#45; [ ] </text>
</g>
<!-- raw_17&#45;&gt;leaf_27 -->
<g id="edge27" class="edge">
<title>raw_17&#45;&gt;leaf_27</title>
<path fill="none" stroke="#000000" stroke-dasharray="5,2" d="M1092.7446,-104.2808C1086.8072,-99.4588 1079.7321,-94.5443 1072.5,-91.4 982.8444,-52.4206 945.6536,-93.2135 855.5,-55.4 855.4059,-55.3606 855.3118,-55.3208 855.2177,-55.2808"/>
<polygon fill="#000000" stroke="#000000" points="857.0752,-52.2989 846.5751,-50.8849 853.9017,-58.5382 857.0752,-52.2989"/>
</g>
<!-- leaf_28 -->
<g id="node29" class="node">
<title>leaf_28</title>
<polygon fill="none" stroke="#c0c0c0" points="918.5,-45.7 864.5,-45.7 864.5,-9.7 918.5,-9.7 918.5,-45.7"/>
<text text-anchor="middle" x="891.5" y="-24.2" font-family="Inconsolata" font-size="14.00" fill="#000000"> </text>
</g>
<!-- prespace_18&#45;&gt;leaf_28 -->
<g id="edge28" class="edge">
<title>prespace_18&#45;&gt;leaf_28</title>
<path fill="none" stroke="#000000" stroke-dasharray="5,2" d="M1173.6143,-104.0407C1164.6427,-99.3739 1154.3587,-94.6177 1144.5,-91.4 1051.5621,-61.0672 1017.1556,-94.3795 927.5,-55.4 925.0953,-54.3546 922.708,-53.1134 920.3741,-51.745"/>
<polygon fill="#000000" stroke="#000000" points="921.9775,-48.6078 911.7134,-45.9813 918.0993,-54.4354 921.9775,-48.6078"/>
</g>
<!-- leaf_29 -->
<g id="node30" class="node">
<title>leaf_29</title>
<polygon fill="none" stroke="#c0c0c0" points="1016,-45.7 937,-45.7 937,-9.7 1016,-9.7 1016,-45.7"/>
<text text-anchor="middle" x="976.5" y="-24.2" font-family="Inconsolata" font-size="14.00" fill="#000000">orb serve</text>
</g>
<!-- literal_19&#45;&gt;leaf_29 -->
<g id="edge29" class="edge">
<title>literal_19&#45;&gt;leaf_29</title>
<path fill="none" stroke="#000000" stroke-dasharray="5,2" d="M1277.2864,-104.2806C1270.4991,-99.4586 1262.4942,-94.5442 1254.5,-91.4 1158.2126,-53.5304 1122.0669,-89.8396 1024.5,-55.4 1020.5704,-54.0129 1016.5964,-52.3023 1012.7057,-50.4173"/>
<polygon fill="#000000" stroke="#000000" points="1014.3206,-47.3121 1003.8382,-45.7727 1011.0726,-53.513 1014.3206,-47.3121"/>
</g>
<!-- leaf_30 -->
<g id="node31" class="node">
<title>leaf_30</title>
<polygon fill="none" stroke="#c0c0c0" points="1421,-47.0006 1034,-47.0006 1034,-8.3994 1421,-8.3994 1421,-47.0006"/>
<text text-anchor="middle" x="1227.5" y="-31.9" font-family="Inconsolata" font-size="14.00" fill="#000000"> in present instantiation would be more fairly called</text>
<text text-anchor="middle" x="1227.5" y="-16.5" font-family="Inconsolata" font-size="14.00" fill="#000000"> &#160;&#160;&#160;&#160;&#160;</text>
</g>
<!-- raw_20&#45;&gt;leaf_30 -->
<g id="edge30" class="edge">
<title>raw_20&#45;&gt;leaf_30</title>
<path fill="none" stroke="#000000" stroke-dasharray="5,2" d="M1354.2409,-105.1325C1348.4028,-100.5946 1341.7723,-95.6394 1335.5,-91.4 1315.0117,-77.5521 1291.4397,-63.4506 1271.5554,-52.0475"/>
<polygon fill="#000000" stroke="#000000" points="1273.1253,-48.9139 1262.7031,-47.0087 1269.6625,-54.9974 1273.1253,-48.9139"/>
</g>
<!-- leaf_31 -->
<g id="node32" class="node">
<title>leaf_31</title>
<polygon fill="none" stroke="#c0c0c0" points="1493.5,-45.7 1439.5,-45.7 1439.5,-9.7 1493.5,-9.7 1493.5,-45.7"/>
<text text-anchor="middle" x="1466.5" y="-24.2" font-family="Inconsolata" font-size="14.00" fill="#000000"> </text>
</g>
<!-- prespace_21&#45;&gt;leaf_31 -->
<g id="edge31" class="edge">
<title>prespace_21&#45;&gt;leaf_31</title>
<path fill="none" stroke="#000000" stroke-dasharray="5,2" d="M1463.2903,-101.0423C1463.8546,-88.1483 1464.6247,-70.5516 1465.2691,-55.8265"/>
<polygon fill="#000000" stroke="#000000" points="1468.7707,-55.8637 1465.7114,-45.7202 1461.7774,-55.5576 1468.7707,-55.8637"/>
</g>
<!-- leaf_32 -->
<g id="node33" class="node">
<title>leaf_32</title>
<polygon fill="none" stroke="#c0c0c0" points="1597.5,-45.7 1511.5,-45.7 1511.5,-9.7 1597.5,-9.7 1597.5,-45.7"/>
<text text-anchor="middle" x="1554.5" y="-24.2" font-family="Inconsolata" font-size="14.00" fill="#000000">orb listen</text>
</g>
<!-- literal_22&#45;&gt;leaf_32 -->
<g id="edge32" class="edge">
<title>literal_22&#45;&gt;leaf_32</title>
<path fill="none" stroke="#000000" stroke-dasharray="5,2" d="M1557.7097,-101.0423C1557.1454,-88.1483 1556.3753,-70.5516 1555.7309,-55.8265"/>
<polygon fill="#000000" stroke="#000000" points="1559.2226,-55.5576 1555.2886,-45.7202 1552.2293,-55.8637 1559.2226,-55.5576"/>
</g>
<!-- leaf_33 -->
<g id="node34" class="node">
<title>leaf_33</title>
<polygon fill="none" stroke="#c0c0c0" points="1953.5,-45.7 1615.5,-45.7 1615.5,-9.7 1953.5,-9.7 1953.5,-45.7"/>
<text text-anchor="middle" x="1784.5" y="-24.2" font-family="Inconsolata" font-size="14.00" fill="#000000">. &#160;Once the watchers are set, we want to run a</text>
</g>
<!-- raw_23&#45;&gt;leaf_33 -->
<g id="edge33" class="edge">
<title>raw_23&#45;&gt;leaf_33</title>
<path fill="none" stroke="#000000" stroke-dasharray="5,2" d="M1722.564,-103.1794C1733.7146,-89.5905 1749.9707,-69.7798 1763.031,-53.8636"/>
<polygon fill="#000000" stroke="#000000" points="1765.8876,-55.8999 1769.5254,-45.9491 1760.4762,-51.4594 1765.8876,-55.8999"/>
</g>
<!-- leaf_34 -->
<g id="node35" class="node">
<title>leaf_34</title>
<polygon fill="none" stroke="#c0c0c0" points="2025.5,-45.7 1971.5,-45.7 1971.5,-9.7 2025.5,-9.7 2025.5,-45.7"/>
<text text-anchor="middle" x="1998.5" y="-24.2" font-family="Inconsolata" font-size="14.00" fill="#000000"> </text>
</g>
<!-- prespace_24&#45;&gt;leaf_34 -->
<g id="edge34" class="edge">
<title>prespace_24&#45;&gt;leaf_34</title>
<path fill="none" stroke="#000000" stroke-dasharray="5,2" d="M1890.8837,-103.5919C1910.4801,-90.9688 1938.5838,-72.5041 1962.5,-55.4 1964.0876,-54.2646 1965.7047,-53.0899 1967.3307,-51.894"/>
<polygon fill="#000000" stroke="#000000" points="1969.533,-54.6175 1975.4407,-45.8226 1965.3379,-49.0138 1969.533,-54.6175"/>
</g>
<!-- leaf_35 -->
<g id="node36" class="node">
<title>leaf_35</title>
<polygon fill="none" stroke="#c0c0c0" points="2123,-45.7 2044,-45.7 2044,-9.7 2123,-9.7 2123,-45.7"/>
<text text-anchor="middle" x="2083.5" y="-24.2" font-family="Inconsolata" font-size="14.00" fill="#000000">localhost</text>
</g>
<!-- literal_25&#45;&gt;leaf_35 -->
<g id="edge35" class="edge">
<title>literal_25&#45;&gt;leaf_35</title>
<path fill="none" stroke="#000000" stroke-dasharray="5,2" d="M2030.422,-102.3359C2040.0083,-88.856 2053.6525,-69.6703 2064.7065,-54.1265"/>
<polygon fill="#000000" stroke="#000000" points="2067.5958,-56.103 2070.539,-45.9251 2061.8912,-52.0461 2067.5958,-56.103"/>
</g>
<!-- leaf_36 -->
<g id="node37" class="node">
<title>leaf_36</title>
<polygon fill="none" stroke="#c0c0c0" points="2703.5,-55.0004 2141.5,-55.0004 2141.5,-.3996 2703.5,-.3996 2703.5,-55.0004"/>
<text text-anchor="middle" x="2422.5" y="-23.9" font-family="Inconsolata" font-size="14.00" fill="#000000"> &#160;&#160;&#160;&#160;&#160;&#160;instance on the event loop, that serves the existing link structure and</text>
<text text-anchor="middle" x="2422.5" y="-8.5" font-family="Inconsolata" font-size="14.00" fill="#000000"> &#160;&#160;&#160;&#160;&#160;&#160;its planned expansions.</text>
</g>
<!-- raw_26&#45;&gt;leaf_36 -->
<g id="edge36" class="edge">
<title>raw_26&#45;&gt;leaf_36</title>
<path fill="none" stroke="#000000" stroke-dasharray="5,2" d="M2310.2691,-106.0047C2327.0816,-94.2744 2352.4649,-76.5642 2374.8411,-60.9521"/>
<polygon fill="#000000" stroke="#000000" points="2377.0472,-63.6807 2383.2456,-55.0882 2373.0417,-57.9399 2377.0472,-63.6807"/>
</g>
</g>
</svg>
