<?xml version="1.0" encoding="UTF-8" standalone="no"?>
<!DOCTYPE svg PUBLIC "-//W3C//DTD SVG 1.1//EN"
 "http://www.w3.org/Graphics/SVG/1.1/DTD/svg11.dtd">
<!-- Generated by graphviz version 2.40.1 (20161225.0304)
 -->
<!-- Title: lpegNode Pages: 1 -->
<svg width="1056pt" height="956pt"
 viewBox="0.00 0.00 1055.58 956.40" xmlns="http://www.w3.org/2000/svg" xmlns:xlink="http://www.w3.org/1999/xlink">
<g id="graph0" class="graph" transform="scale(1 1) rotate(0) translate(4 952.4008)">
<title>lpegNode</title>
<polygon fill="#ffffff" stroke="transparent" points="-4,4 -4,-952.4008 1051.5771,-952.4008 1051.5771,4 -4,4"/>
<!-- doc_0 -->
<g id="node1" class="node">
<title>doc_0</title>
<ellipse fill="none" stroke="#000000" cx="344" cy="-930.4008" rx="42.1216" ry="18"/>
<text text-anchor="middle" x="344" y="-926.2008" font-family="Helvetica,sans-Serif" font-size="14.00" fill="#000000">doc &#45; 48</text>
</g>
<!-- section_1 -->
<g id="node2" class="node">
<title>section_1</title>
<ellipse fill="none" stroke="#000000" cx="344" cy="-858.4008" rx="60.9826" ry="18"/>
<text text-anchor="middle" x="344" y="-854.2008" font-family="Helvetica,sans-Serif" font-size="14.00" fill="#000000">section: 1&#45;48</text>
</g>
<!-- doc_0&#45;&gt;section_1 -->
<g id="edge1" class="edge">
<title>doc_0&#45;&gt;section_1</title>
<path fill="none" stroke="#000000" stroke-dasharray="5,2" d="M344,-912.2322C344,-904.5318 344,-895.3752 344,-886.8174"/>
<polygon fill="#000000" stroke="#000000" points="347.5001,-886.814 344,-876.8141 340.5001,-886.8141 347.5001,-886.814"/>
</g>
<!-- header_2 -->
<g id="node3" class="node">
<title>header_2</title>
<ellipse fill="none" stroke="#000000" cx="104" cy="-786.4008" rx="62.8945" ry="18"/>
<text text-anchor="middle" x="104" y="-782.2008" font-family="Helvetica,sans-Serif" font-size="14.00" fill="#000000">1 : Orb Serve</text>
</g>
<!-- section_1&#45;&gt;header_2 -->
<g id="edge2" class="edge">
<title>section_1&#45;&gt;header_2</title>
<path fill="none" stroke="#000000" stroke-dasharray="5,2" d="M301.0928,-845.5287C260.9403,-833.4829 200.818,-815.4462 157.5407,-802.463"/>
<polygon fill="#000000" stroke="#000000" points="158.3355,-799.0474 147.7515,-799.5263 156.324,-805.7522 158.3355,-799.0474"/>
</g>
<!-- prose_3 -->
<g id="node4" class="node">
<title>prose_3</title>
<ellipse fill="none" stroke="#000000" cx="247" cy="-786.4008" rx="32.4585" ry="18"/>
<text text-anchor="middle" x="247" y="-782.2008" font-family="Helvetica,sans-Serif" font-size="14.00" fill="#000000">prose</text>
</g>
<!-- section_1&#45;&gt;prose_3 -->
<g id="edge3" class="edge">
<title>section_1&#45;&gt;prose_3</title>
<path fill="none" stroke="#000000" stroke-dasharray="5,2" d="M321.0124,-841.3378C307.15,-831.0482 289.4003,-817.8732 274.7582,-807.0048"/>
<polygon fill="#000000" stroke="#000000" points="276.665,-804.0614 266.5492,-800.9115 272.4928,-809.6822 276.665,-804.0614"/>
</g>
<!-- prose_4 -->
<g id="node5" class="node">
<title>prose_4</title>
<ellipse fill="none" stroke="#000000" cx="344" cy="-786.4008" rx="32.4585" ry="18"/>
<text text-anchor="middle" x="344" y="-782.2008" font-family="Helvetica,sans-Serif" font-size="14.00" fill="#000000">prose</text>
</g>
<!-- section_1&#45;&gt;prose_4 -->
<g id="edge4" class="edge">
<title>section_1&#45;&gt;prose_4</title>
<path fill="none" stroke="#000000" stroke-dasharray="5,2" d="M344,-840.2322C344,-832.5318 344,-823.3752 344,-814.8174"/>
<polygon fill="#000000" stroke="#000000" points="347.5001,-814.814 344,-804.8141 340.5001,-814.8141 347.5001,-814.814"/>
</g>
<!-- structure_5 -->
<g id="node6" class="node">
<title>structure_5</title>
<ellipse fill="none" stroke="#000000" cx="521" cy="-786.4008" rx="44.5182" ry="18"/>
<text text-anchor="middle" x="521" y="-782.2008" font-family="Helvetica,sans-Serif" font-size="14.00" fill="#000000">structure</text>
</g>
<!-- section_1&#45;&gt;structure_5 -->
<g id="edge5" class="edge">
<title>section_1&#45;&gt;structure_5</title>
<path fill="none" stroke="#000000" stroke-dasharray="5,2" d="M379.8186,-843.8305C408.8045,-832.0397 449.6448,-815.4267 479.9478,-803.1"/>
<polygon fill="#000000" stroke="#000000" points="481.4437,-806.2701 489.3878,-799.26 478.8061,-799.786 481.4437,-806.2701"/>
</g>
<!-- codeblock_6 -->
<g id="node7" class="node">
<title>codeblock_6</title>
<ellipse fill="none" stroke="#000000" cx="747" cy="-786.4008" rx="77.4211" ry="18"/>
<text text-anchor="middle" x="747" y="-782.2008" font-family="Helvetica,sans-Serif" font-size="14.00" fill="#000000">code block 12&#45;48</text>
</g>
<!-- section_1&#45;&gt;codeblock_6 -->
<g id="edge6" class="edge">
<title>section_1&#45;&gt;codeblock_6</title>
<path fill="none" stroke="#000000" stroke-dasharray="5,2" d="M396.2721,-849.0619C467.4488,-836.3454 595.1421,-813.5317 675.2433,-799.2209"/>
<polygon fill="#000000" stroke="#000000" points="676.0232,-802.637 685.2517,-797.4328 674.792,-795.7461 676.0232,-802.637"/>
</g>
<!-- leaf_7 -->
<g id="node8" class="node">
<title>leaf_7</title>
<polygon fill="none" stroke="#c0c0c0" points="94.5,-473.9004 1.5,-473.9004 1.5,-437.9004 94.5,-437.9004 94.5,-473.9004"/>
<text text-anchor="middle" x="48" y="-452.4004" font-family="Inconsolata" font-size="14.00" fill="#000000">* Orb Serve</text>
</g>
<!-- header_2&#45;&gt;leaf_7 -->
<g id="edge7" class="edge">
<title>header_2&#45;&gt;leaf_7</title>
<path fill="none" stroke="#000000" stroke-dasharray="5,2" d="M100.9094,-768.1609C91.6349,-713.4248 63.9931,-550.2882 52.7927,-484.1861"/>
<polygon fill="#000000" stroke="#000000" points="56.2025,-483.3587 51.081,-474.084 49.3009,-484.5282 56.2025,-483.3587"/>
</g>
<!-- raw_8 -->
<g id="node9" class="node">
<title>raw_8</title>
<ellipse fill="none" stroke="#000000" cx="140" cy="-455.9004" rx="27" ry="18"/>
<text text-anchor="middle" x="140" y="-451.7004" font-family="Helvetica,sans-Serif" font-size="14.00" fill="#000000">raw</text>
</g>
<!-- prose_3&#45;&gt;raw_8 -->
<g id="edge8" class="edge">
<title>prose_3&#45;&gt;raw_8</title>
<path fill="none" stroke="#000000" stroke-dasharray="5,2" d="M222.4794,-774.3456C206.5068,-765.1407 186.7119,-750.8937 176,-732.4008 129.4489,-652.0358 132.452,-536.8321 136.8799,-484.1442"/>
<polygon fill="#000000" stroke="#000000" points="140.3928,-484.1651 137.829,-473.8851 133.4226,-483.5202 140.3928,-484.1651"/>
</g>
<!-- raw_10 -->
<g id="node11" class="node">
<title>raw_10</title>
<ellipse fill="none" stroke="#000000" cx="212" cy="-455.9004" rx="27" ry="18"/>
<text text-anchor="middle" x="212" y="-451.7004" font-family="Helvetica,sans-Serif" font-size="14.00" fill="#000000">raw</text>
</g>
<!-- prose_4&#45;&gt;raw_10 -->
<g id="edge10" class="edge">
<title>prose_4&#45;&gt;raw_10</title>
<path fill="none" stroke="#000000" stroke-dasharray="5,2" d="M315.1647,-778.0383C293.0499,-770.0441 263.7312,-755.6968 248,-732.4008 195.7896,-655.0836 201.7869,-537.4743 207.9415,-484.0574"/>
<polygon fill="#000000" stroke="#000000" points="211.4356,-484.3209 209.1968,-473.9654 204.4891,-483.4568 211.4356,-484.3209"/>
</g>
<!-- prespace_11 -->
<g id="node12" class="node">
<title>prespace_11</title>
<ellipse fill="none" stroke="#000000" cx="303" cy="-455.9004" rx="46.4736" ry="18"/>
<text text-anchor="middle" x="303" y="-451.7004" font-family="Helvetica,sans-Serif" font-size="14.00" fill="#000000">prespace</text>
</g>
<!-- prose_4&#45;&gt;prespace_11 -->
<g id="edge11" class="edge">
<title>prose_4&#45;&gt;prespace_11</title>
<path fill="none" stroke="#000000" stroke-dasharray="5,2" d="M341.7373,-768.1609C334.947,-713.4248 314.7092,-550.2882 306.509,-484.1861"/>
<polygon fill="#000000" stroke="#000000" points="309.9603,-483.577 305.2557,-474.084 303.0136,-484.4388 309.9603,-483.577"/>
</g>
<!-- literal_12 -->
<g id="node13" class="node">
<title>literal_12</title>
<ellipse fill="none" stroke="#000000" cx="399" cy="-455.9004" rx="31.481" ry="18"/>
<text text-anchor="middle" x="399" y="-451.7004" font-family="Helvetica,sans-Serif" font-size="14.00" fill="#000000">literal</text>
</g>
<!-- prose_4&#45;&gt;literal_12 -->
<g id="edge12" class="edge">
<title>prose_4&#45;&gt;literal_12</title>
<path fill="none" stroke="#000000" stroke-dasharray="5,2" d="M349.1488,-768.5122C352.0318,-758.0493 355.5318,-744.5493 358,-732.4008 376.2733,-642.4599 389.9239,-534.5035 395.8089,-484.2368"/>
<polygon fill="#000000" stroke="#000000" points="399.3053,-484.4695 396.9777,-474.1335 392.3517,-483.665 399.3053,-484.4695"/>
</g>
<!-- raw_13 -->
<g id="node14" class="node">
<title>raw_13</title>
<ellipse fill="none" stroke="#000000" cx="475" cy="-455.9004" rx="27" ry="18"/>
<text text-anchor="middle" x="475" y="-451.7004" font-family="Helvetica,sans-Serif" font-size="14.00" fill="#000000">raw</text>
</g>
<!-- prose_4&#45;&gt;raw_13 -->
<g id="edge13" class="edge">
<title>prose_4&#45;&gt;raw_13</title>
<path fill="none" stroke="#000000" stroke-dasharray="5,2" d="M372.5416,-777.9572C394.4299,-769.917 423.445,-755.5476 439,-732.4008 491.0368,-654.9667 485.1273,-537.4165 479.0267,-484.036"/>
<polygon fill="#000000" stroke="#000000" points="482.4807,-483.447 477.782,-473.9511 475.5334,-484.3045 482.4807,-483.447"/>
</g>
<!-- hashline_18 -->
<g id="node19" class="node">
<title>hashline_18</title>
<ellipse fill="none" stroke="#000000" cx="563" cy="-455.9004" rx="43.0992" ry="18"/>
<text text-anchor="middle" x="563" y="-451.7004" font-family="Helvetica,sans-Serif" font-size="14.00" fill="#000000">hashline</text>
</g>
<!-- structure_5&#45;&gt;hashline_18 -->
<g id="edge18" class="edge">
<title>structure_5&#45;&gt;hashline_18</title>
<path fill="none" stroke="#000000" stroke-dasharray="5,2" d="M523.3179,-768.1609C530.2738,-713.4248 551.0052,-550.2882 559.4055,-484.1861"/>
<polygon fill="#000000" stroke="#000000" points="562.9006,-484.4454 560.6892,-474.084 555.9564,-483.5629 562.9006,-484.4454"/>
</g>
<!-- leaf_21 -->
<g id="node22" class="node">
<title>leaf_21</title>
<polygon fill="none" stroke="#c0c0c0" points="962,-732.4012 624,-732.4012 624,-179.3996 962,-179.3996 962,-732.4012"/>
<text text-anchor="middle" x="793" y="-717.2008" font-family="Inconsolata" font-size="14.00" fill="#000000">local uv = require &quot;luv&quot;</text>
<text text-anchor="middle" x="793" y="-701.8008" font-family="Inconsolata" font-size="14.00" fill="#000000">local Watcher = require &quot;femto/watcher&quot;</text>
<text text-anchor="middle" x="793" y="-670.4007" font-family="Inconsolata" font-size="14.00" fill="#000000">local Server = {}</text>
<text text-anchor="middle" x="793" y="-655.0007" font-family="Inconsolata" font-size="14.00" fill="#000000">Server.__index = Server</text>
<text text-anchor="middle" x="793" y="-607.6007" font-family="Inconsolata" font-size="14.00" fill="#000000">function Server.serve(server, pwd)</text>
<text text-anchor="middle" x="793" y="-592.2007" font-family="Inconsolata" font-size="14.00" fill="#000000"> &#160;&#160;print (&quot;serving &quot; .. pwd)</text>
<text text-anchor="middle" x="793" y="-576.8006" font-family="Inconsolata" font-size="14.00" fill="#000000">end</text>
<text text-anchor="middle" x="793" y="-545.4006" font-family="Inconsolata" font-size="14.00" fill="#000000">local function onchange(server, fname)</text>
<text text-anchor="middle" x="793" y="-530.0006" font-family="Inconsolata" font-size="14.00" fill="#000000"> &#160;&#160;if type(fname) == &#39;string&#39; then</text>
<text text-anchor="middle" x="793" y="-514.6005" font-family="Inconsolata" font-size="14.00" fill="#000000"> &#160;&#160;&#160;&#160;&#160;print (&quot;Changed &quot; .. fname)</text>
<text text-anchor="middle" x="793" y="-499.2005" font-family="Inconsolata" font-size="14.00" fill="#000000"> &#160;&#160;end</text>
<text text-anchor="middle" x="793" y="-483.8005" font-family="Inconsolata" font-size="14.00" fill="#000000">end</text>
<text text-anchor="middle" x="793" y="-436.4004" font-family="Inconsolata" font-size="14.00" fill="#000000">function Server.start(server)</text>
<text text-anchor="middle" x="793" y="-421.0004" font-family="Inconsolata" font-size="14.00" fill="#000000"> &#160;&#160;server(server.dir)</text>
<text text-anchor="middle" x="793" y="-405.6004" font-family="Inconsolata" font-size="14.00" fill="#000000"> &#160;&#160;uv.run(&quot;default&quot;)</text>
<text text-anchor="middle" x="793" y="-390.2003" font-family="Inconsolata" font-size="14.00" fill="#000000">end</text>
<text text-anchor="middle" x="793" y="-342.8003" font-family="Inconsolata" font-size="14.00" fill="#000000">function Server.stop(server)</text>
<text text-anchor="middle" x="793" y="-327.4003" font-family="Inconsolata" font-size="14.00" fill="#000000"> &#160;&#160;server:stop()</text>
<text text-anchor="middle" x="793" y="-312.0002" font-family="Inconsolata" font-size="14.00" fill="#000000"> &#160;&#160;uv.stop()</text>
<text text-anchor="middle" x="793" y="-296.6002" font-family="Inconsolata" font-size="14.00" fill="#000000">end</text>
<text text-anchor="middle" x="793" y="-265.2002" font-family="Inconsolata" font-size="14.00" fill="#000000">local function new(dir)</text>
<text text-anchor="middle" x="793" y="-249.8002" font-family="Inconsolata" font-size="14.00" fill="#000000"> &#160;&#160;local serve = Watcher {onchange = onchange}</text>
<text text-anchor="middle" x="793" y="-234.4001" font-family="Inconsolata" font-size="14.00" fill="#000000"> &#160;&#160;return serve</text>
<text text-anchor="middle" x="793" y="-219.0001" font-family="Inconsolata" font-size="14.00" fill="#000000">end</text>
<text text-anchor="middle" x="793" y="-187.6001" font-family="Inconsolata" font-size="14.00" fill="#000000">return new</text>
</g>
<!-- codeblock_6&#45;&gt;leaf_21 -->
<g id="edge21" class="edge">
<title>codeblock_6&#45;&gt;leaf_21</title>
<path fill="none" stroke="#000000" stroke-dasharray="5,2" d="M749.5387,-768.1609C750.5021,-761.2388 751.7069,-752.583 753.0951,-742.6091"/>
<polygon fill="#000000" stroke="#000000" points="756.5683,-743.0431 754.4803,-732.6561 749.6351,-742.0781 756.5683,-743.0431"/>
</g>
<!-- leaf_9 -->
<g id="node10" class="node">
<title>leaf_9</title>
<polygon fill="none" stroke="#c0c0c0" points="156,-143.6012 0,-143.6012 0,-71.7989 156,-71.7989 156,-143.6012"/>
<text text-anchor="middle" x="78" y="-80.2" font-family="Inconsolata" font-size="14.00" fill="#000000">This requires &quot;luv&quot;.</text>
</g>
<!-- raw_8&#45;&gt;leaf_9 -->
<g id="edge9" class="edge">
<title>raw_8&#45;&gt;leaf_9</title>
<path fill="none" stroke="#000000" stroke-dasharray="5,2" d="M138.8564,-437.8792C135.7637,-393.4409 125.8775,-275.266 103,-179.4 100.9545,-170.8288 98.2728,-161.8452 95.4266,-153.2491"/>
<polygon fill="#000000" stroke="#000000" points="98.7238,-152.0742 92.1683,-143.751 92.1026,-154.3456 98.7238,-152.0742"/>
</g>
<!-- leaf_14 -->
<g id="node15" class="node">
<title>leaf_14</title>
<polygon fill="none" stroke="#c0c0c0" points="253.5,-127.6021 174.5,-127.6021 174.5,-87.7979 253.5,-87.7979 253.5,-127.6021"/>
<text text-anchor="middle" x="214" y="-96.2" font-family="Inconsolata" font-size="14.00" fill="#000000">I suspect</text>
</g>
<!-- raw_10&#45;&gt;leaf_14 -->
<g id="edge14" class="edge">
<title>raw_10&#45;&gt;leaf_14</title>
<path fill="none" stroke="#000000" stroke-dasharray="5,2" d="M212.1047,-437.6699C212.4297,-381.0863 213.4235,-208.0605 213.827,-137.814"/>
<polygon fill="#000000" stroke="#000000" points="217.3289,-137.4759 213.8865,-127.4559 210.3291,-137.4356 217.3289,-137.4759"/>
</g>
<!-- leaf_15 -->
<g id="node16" class="node">
<title>leaf_15</title>
<polygon fill="none" stroke="#c0c0c0" points="329,-125.7 275,-125.7 275,-89.7 329,-89.7 329,-125.7"/>
<text text-anchor="middle" x="302" y="-104.2" font-family="Inconsolata" font-size="14.00" fill="#000000"> </text>
</g>
<!-- prespace_11&#45;&gt;leaf_15 -->
<g id="edge15" class="edge">
<title>prespace_11&#45;&gt;leaf_15</title>
<path fill="none" stroke="#000000" stroke-dasharray="5,2" d="M302.9476,-437.6699C302.7836,-380.555 302.2789,-204.8009 302.0809,-135.8626"/>
<polygon fill="#000000" stroke="#000000" points="305.5806,-135.7399 302.0518,-125.7501 298.5807,-135.7601 305.5806,-135.7399"/>
</g>
<!-- leaf_16 -->
<g id="node17" class="node">
<title>leaf_16</title>
<polygon fill="none" stroke="#c0c0c0" points="401,-125.7 347,-125.7 347,-89.7 401,-89.7 401,-125.7"/>
<text text-anchor="middle" x="374" y="-104.2" font-family="Inconsolata" font-size="14.00" fill="#000000">orb</text>
</g>
<!-- literal_12&#45;&gt;leaf_16 -->
<g id="edge16" class="edge">
<title>literal_12&#45;&gt;leaf_16</title>
<path fill="none" stroke="#000000" stroke-dasharray="5,2" d="M397.6911,-437.6699C393.5904,-380.555 380.9716,-204.8009 376.022,-135.8626"/>
<polygon fill="#000000" stroke="#000000" points="379.5032,-135.4737 375.296,-125.7501 372.5212,-135.9751 379.5032,-135.4737"/>
</g>
<!-- leaf_17 -->
<g id="node18" class="node">
<title>leaf_17</title>
<polygon fill="none" stroke="#c0c0c0" points="946.5,-127.0006 419.5,-127.0006 419.5,-88.3994 946.5,-88.3994 946.5,-127.0006"/>
<text text-anchor="middle" x="683" y="-111.9" font-family="Inconsolata" font-size="14.00" fill="#000000"> will accrete enough LuaJIT dependencies in the near future</text>
<text text-anchor="middle" x="683" y="-96.5" font-family="Inconsolata" font-size="14.00" fill="#000000">as to be incompatible with PUC Lua. I&#39;ll stave that off as long as I can.</text>
</g>
<!-- raw_13&#45;&gt;leaf_17 -->
<g id="edge17" class="edge">
<title>raw_13&#45;&gt;leaf_17</title>
<path fill="none" stroke="#000000" stroke-dasharray="5,2" d="M471.7082,-437.7929C464.099,-390.023 450.2921,-258.8188 511,-179.4 528.1483,-156.9664 553.597,-141.4954 579.6928,-130.8471"/>
<polygon fill="#000000" stroke="#000000" points="581.2485,-133.9986 589.3222,-127.1382 578.7325,-127.4664 581.2485,-133.9986"/>
</g>
<!-- hashtag_19 -->
<g id="node20" class="node">
<title>hashtag_19</title>
<ellipse fill="none" stroke="#000000" cx="1006" cy="-107.7" rx="41.6544" ry="18"/>
<text text-anchor="middle" x="1006" y="-103.5" font-family="Helvetica,sans-Serif" font-size="14.00" fill="#000000">hashtag</text>
</g>
<!-- hashline_18&#45;&gt;hashtag_19 -->
<g id="edge19" class="edge">
<title>hashline_18&#45;&gt;hashtag_19</title>
<path fill="none" stroke="#000000" stroke-dasharray="5,2" d="M559.9235,-437.6498C552.6707,-387.7691 540.3302,-248.2951 615,-179.4 670.8403,-127.8782 883.842,-170.0305 955,-143.4 963.4394,-140.2416 971.7913,-135.3538 979.2174,-130.1981"/>
<polygon fill="#000000" stroke="#000000" points="981.4953,-132.8668 987.4595,-124.1102 977.3363,-127.2362 981.4953,-132.8668"/>
</g>
<!-- leaf_20 -->
<g id="node21" class="node">
<title>leaf_20</title>
<polygon fill="none" stroke="#c0c0c0" points="1033,-36 979,-36 979,0 1033,0 1033,-36"/>
<text text-anchor="middle" x="1006" y="-14.5" font-family="Inconsolata" font-size="14.00" fill="#000000">todo</text>
</g>
<!-- hashtag_19&#45;&gt;leaf_20 -->
<g id="edge20" class="edge">
<title>hashtag_19&#45;&gt;leaf_20</title>
<path fill="none" stroke="#000000" stroke-dasharray="5,2" d="M1006,-89.5479C1006,-77.1465 1006,-60.4633 1006,-46.3263"/>
<polygon fill="#000000" stroke="#000000" points="1009.5001,-46.1251 1006,-36.1251 1002.5001,-46.1252 1009.5001,-46.1251"/>
</g>
</g>
</svg>
