<?xml version="1.0" encoding="UTF-8" standalone="no"?>
<!DOCTYPE svg PUBLIC "-//W3C//DTD SVG 1.1//EN"
 "http://www.w3.org/Graphics/SVG/1.1/DTD/svg11.dtd">
<!-- Generated by graphviz version 2.40.1 (20161225.0304)
 -->
<!-- Title: hierarchy Pages: 1 -->
<svg width="462pt" height="691pt"
 viewBox="0.00 0.00 461.50 691.40" xmlns="http://www.w3.org/2000/svg" xmlns:xlink="http://www.w3.org/1999/xlink">
<g id="graph0" class="graph" transform="scale(1 1) rotate(0) translate(4 687.4007)">
<title>hierarchy</title>
<polygon fill="#ffffff" stroke="transparent" points="-4,4 -4,-687.4007 457.5,-687.4007 457.5,4 -4,4"/>
<!-- doc_0 -->
<g id="node1" class="node">
<title>doc_0</title>
<ellipse fill="none" stroke="#000000" cx="118" cy="-665.4007" rx="42.1216" ry="18"/>
<text text-anchor="middle" x="118" y="-661.2007" font-family="Helvetica,sans-Serif" font-size="14.00" fill="#000000">doc &#45; 28</text>
</g>
<!-- section_1 -->
<g id="node2" class="node">
<title>section_1</title>
<ellipse fill="none" stroke="#000000" cx="118" cy="-593.4007" rx="60.9826" ry="18"/>
<text text-anchor="middle" x="118" y="-589.2007" font-family="Helvetica,sans-Serif" font-size="14.00" fill="#000000">section: 1&#45;28</text>
</g>
<!-- doc_0&#45;&gt;section_1 -->
<g id="edge1" class="edge">
<title>doc_0&#45;&gt;section_1</title>
<path fill="none" stroke="#000000" stroke-dasharray="5,2" d="M118,-647.232C118,-639.5316 118,-630.375 118,-621.8173"/>
<polygon fill="#000000" stroke="#000000" points="121.5001,-621.8139 118,-611.8139 114.5001,-621.814 121.5001,-621.8139"/>
</g>
<!-- header_2 -->
<g id="node3" class="node">
<title>header_2</title>
<ellipse fill="none" stroke="#000000" cx="27" cy="-521.4007" rx="27" ry="18"/>
<text text-anchor="middle" x="27" y="-517.2007" font-family="Helvetica,sans-Serif" font-size="14.00" fill="#000000">0 : </text>
</g>
<!-- section_1&#45;&gt;header_2 -->
<g id="edge2" class="edge">
<title>section_1&#45;&gt;header_2</title>
<path fill="none" stroke="#000000" stroke-dasharray="5,2" d="M96.4343,-576.3377C83.2897,-565.9376 66.4196,-552.5898 52.5998,-541.6555"/>
<polygon fill="#000000" stroke="#000000" points="54.4637,-538.6672 44.4498,-535.2071 50.1203,-544.1567 54.4637,-538.6672"/>
</g>
<!-- block_3 -->
<g id="node4" class="node">
<title>block_3</title>
<ellipse fill="none" stroke="#000000" cx="118" cy="-521.4007" rx="45.9804" ry="18"/>
<text text-anchor="middle" x="118" y="-517.2007" font-family="Helvetica,sans-Serif" font-size="14.00" fill="#000000">block 1&#45;1</text>
</g>
<!-- section_1&#45;&gt;block_3 -->
<g id="edge3" class="edge">
<title>section_1&#45;&gt;block_3</title>
<path fill="none" stroke="#000000" stroke-dasharray="5,2" d="M118,-575.232C118,-567.5316 118,-558.375 118,-549.8173"/>
<polygon fill="#000000" stroke="#000000" points="121.5001,-549.8139 118,-539.8139 114.5001,-549.814 121.5001,-549.8139"/>
</g>
<!-- block_4 -->
<g id="node5" class="node">
<title>block_4</title>
<ellipse fill="none" stroke="#000000" cx="249" cy="-521.4007" rx="50.8172" ry="18"/>
<text text-anchor="middle" x="249" y="-517.2007" font-family="Helvetica,sans-Serif" font-size="14.00" fill="#000000">block 2&#45;28</text>
</g>
<!-- section_1&#45;&gt;block_4 -->
<g id="edge4" class="edge">
<title>section_1&#45;&gt;block_4</title>
<path fill="none" stroke="#000000" stroke-dasharray="5,2" d="M147.0731,-577.4215C166.3776,-566.8114 191.8719,-552.7993 212.5338,-541.4432"/>
<polygon fill="#000000" stroke="#000000" points="214.2756,-544.4797 221.3534,-536.5958 210.9039,-538.3452 214.2756,-544.4797"/>
</g>
<!-- prose_5 -->
<g id="node6" class="node">
<title>prose_5</title>
<ellipse fill="none" stroke="#000000" cx="110" cy="-449.4007" rx="32.4585" ry="18"/>
<text text-anchor="middle" x="110" y="-445.2007" font-family="Helvetica,sans-Serif" font-size="14.00" fill="#000000">prose</text>
</g>
<!-- block_3&#45;&gt;prose_5 -->
<g id="edge5" class="edge">
<title>block_3&#45;&gt;prose_5</title>
<path fill="none" stroke="#000000" stroke-dasharray="5,2" d="M115.9813,-503.232C115.1257,-495.5316 114.1083,-486.375 113.1574,-477.8173"/>
<polygon fill="#000000" stroke="#000000" points="116.6289,-477.3662 112.0459,-467.8139 109.6717,-478.1393 116.6289,-477.3662"/>
</g>
<!-- codeblock_7 -->
<g id="node8" class="node">
<title>codeblock_7</title>
<ellipse fill="none" stroke="#000000" cx="257" cy="-449.4007" rx="72.5844" ry="18"/>
<text text-anchor="middle" x="257" y="-445.2007" font-family="Helvetica,sans-Serif" font-size="14.00" fill="#000000">code block 2&#45;28</text>
</g>
<!-- block_4&#45;&gt;codeblock_7 -->
<g id="edge7" class="edge">
<title>block_4&#45;&gt;codeblock_7</title>
<path fill="none" stroke="#000000" stroke-dasharray="5,2" d="M251.0187,-503.232C251.8743,-495.5316 252.8917,-486.375 253.8426,-477.8173"/>
<polygon fill="#000000" stroke="#000000" points="257.3283,-478.1393 254.9541,-467.8139 250.3711,-477.3662 257.3283,-478.1393"/>
</g>
<!-- leaf_6 -->
<g id="node7" class="node">
<title>leaf_6</title>
<polygon fill="none" stroke="#c0c0c0" points="90,-215.7003 36,-215.7003 36,-179.7003 90,-179.7003 90,-215.7003"/>
</g>
<!-- prose_5&#45;&gt;leaf_6 -->
<g id="edge6" class="edge">
<title>prose_5&#45;&gt;leaf_6</title>
<path fill="none" stroke="#000000" stroke-dasharray="5,2" d="M106.2395,-431.4193C104.0693,-420.9255 101.3193,-407.4255 99,-395.4007 87.344,-334.9682 74.6569,-263.9414 67.8951,-225.62"/>
<polygon fill="#000000" stroke="#000000" points="71.3321,-224.9562 66.1508,-215.7147 64.4382,-226.1702 71.3321,-224.9562"/>
</g>
<!-- leaf_8 -->
<g id="node9" class="node">
<title>leaf_8</title>
<polygon fill="none" stroke="#c0c0c0" points="453.5,-395.6012 108.5,-395.6012 108.5,.2005 453.5,.2005 453.5,-395.6012"/>
<text text-anchor="middle" x="281" y="-380.2007" font-family="Inconsolata" font-size="14.00" fill="#000000">local pl = require &quot;pl.file&quot;</text>
<text text-anchor="middle" x="281" y="-364.8006" font-family="Inconsolata" font-size="14.00" fill="#000000">local read = pl.read</text>
<text text-anchor="middle" x="281" y="-333.4006" font-family="Inconsolata" font-size="14.00" fill="#000000">local g = {}</text>
<text text-anchor="middle" x="281" y="-302.0006" font-family="Inconsolata" font-size="14.00" fill="#000000"> g.wtf = [[S: ``T`` (U V)]]</text>
<text text-anchor="middle" x="281" y="-286.6005" font-family="Inconsolata" font-size="14.00" fill="#000000"> g.grammar_s = [[ A &#160;: B &#160;&#160;&#160;&#160;&#160;C ( E / F ) / G H</text>
<text text-anchor="middle" x="281" y="-271.2005" font-family="Inconsolata" font-size="14.00" fill="#000000"> &#160;&#160;&#160;&#160;&#160;&#160;&#160;&#160;&#160;&#160;I : &quot;J&quot; </text>
<text text-anchor="middle" x="281" y="-255.8005" font-family="Inconsolata" font-size="14.00" fill="#000000"> &#160;&#160;&#160;&#160;&#160;&#160;&#160;&#160;&#160;&#160;K : L* M+ N?</text>
<text text-anchor="middle" x="281" y="-240.4004" font-family="Inconsolata" font-size="14.00" fill="#000000"> &#160;&#160;&#160;&#160;&#160;&#160;&#160;&#160;&#160;&#160;O : !P &amp;Q !R*</text>
<text text-anchor="middle" x="281" y="-225.0004" font-family="Inconsolata" font-size="14.00" fill="#000000"> &#160;&#160;&#160;&#160;&#160;&#160;&#160;&#160;&#160;&#160;`S` : ``T`` (U V)</text>
<text text-anchor="middle" x="281" y="-209.6004" font-family="Inconsolata" font-size="14.00" fill="#000000"> &#160;&#160;&#160;&#160;&#160;&#160;&#160;&#160;&#160;&#160;W : {XY} [a&#45;z] </text>
<text text-anchor="middle" x="281" y="-194.2003" font-family="Inconsolata" font-size="14.00" fill="#000000"> &#160;&#160;&#160;&#160;&#160;&#160;&#160;&#160;&#160;&#160;A : (B$2)* C$&#45;3 D$4..5* E$+4</text>
<text text-anchor="middle" x="281" y="-178.8003" font-family="Inconsolata" font-size="14.00" fill="#000000"> &#160;&#160;&#160;&#160;&#160;&#160;&#160;]]</text>
<text text-anchor="middle" x="281" y="-147.4003" font-family="Inconsolata" font-size="14.00" fill="#000000"> g.deco_s &#160;= [[ A: `&#45;(B C/ D)$2..5*` ]]</text>
<text text-anchor="middle" x="281" y="-132.0002" font-family="Inconsolata" font-size="14.00" fill="#000000"> g.rule_s &#160;= [[A:B C(D E)/(F G H)</text>
<text text-anchor="middle" x="281" y="-116.6002" font-family="Inconsolata" font-size="14.00" fill="#000000"> &#160;&#160;&#160;&#160;&#160;&#160;&#160;&#160;&#160;&#160;C : &quot;D&quot; </text>
<text text-anchor="middle" x="281" y="-101.2002" font-family="Inconsolata" font-size="14.00" fill="#000000"> &#160;&#160;&#160;&#160;&#160;&#160;&#160;&#160;&#160;&#160;D : E F G</text>
<text text-anchor="middle" x="281" y="-85.8002" font-family="Inconsolata" font-size="14.00" fill="#000000">]]</text>
<text text-anchor="middle" x="281" y="-54.4001" font-family="Inconsolata" font-size="14.00" fill="#000000"> g.peg_s = &#160;read &quot;peg/pegs/peg.peg&quot;</text>
<text text-anchor="middle" x="281" y="-39.0001" font-family="Inconsolata" font-size="14.00" fill="#000000"> g.lisp_s = read &quot;peg/pegs/lisp.peg&quot;</text>
<text text-anchor="middle" x="281" y="-23.6001" font-family="Inconsolata" font-size="14.00" fill="#000000"> g.clu_s = &#160;read &quot;peg/pegs/clu.peg&quot;</text>
<text text-anchor="middle" x="281" y="-8.2" font-family="Inconsolata" font-size="14.00" fill="#000000">return g</text>
</g>
<!-- codeblock_7&#45;&gt;leaf_8 -->
<g id="edge8" class="edge">
<title>codeblock_7&#45;&gt;leaf_8</title>
<path fill="none" stroke="#000000" stroke-dasharray="5,2" d="M258.726,-431.299C259.398,-424.2518 260.238,-415.4426 261.1949,-405.4067"/>
<polygon fill="#000000" stroke="#000000" points="264.6814,-405.7135 262.1465,-395.4263 257.713,-405.0489 264.6814,-405.7135"/>
</g>
</g>
</svg>