<?xml version="1.0" encoding="UTF-8" standalone="no"?>
<!DOCTYPE svg PUBLIC "-//W3C//DTD SVG 1.1//EN"
 "http://www.w3.org/Graphics/SVG/1.1/DTD/svg11.dtd">
<!-- Generated by graphviz version 2.40.1 (20161225.0304)
 -->
<!-- Title: hierarchy Pages: 1 -->
<svg width="479pt" height="691pt"
 viewBox="0.00 0.00 478.50 691.40" xmlns="http://www.w3.org/2000/svg" xmlns:xlink="http://www.w3.org/1999/xlink">
<g id="graph0" class="graph" transform="scale(1 1) rotate(0) translate(4 687.4007)">
<title>hierarchy</title>
<polygon fill="#ffffff" stroke="transparent" points="-4,4 -4,-687.4007 474.5,-687.4007 474.5,4 -4,4"/>
<!-- doc_0 -->
<g id="node1" class="node">
<title>doc_0</title>
<ellipse fill="none" stroke="#000000" cx="104" cy="-665.4007" rx="42.1216" ry="18"/>
<text text-anchor="middle" x="104" y="-661.2007" font-family="Helvetica,sans-Serif" font-size="14.00" fill="#000000">doc &#45; 28</text>
</g>
<!-- section_1 -->
<g id="node2" class="node">
<title>section_1</title>
<ellipse fill="none" stroke="#000000" cx="104" cy="-593.4007" rx="60.9826" ry="18"/>
<text text-anchor="middle" x="104" y="-589.2007" font-family="Helvetica,sans-Serif" font-size="14.00" fill="#000000">section: 1&#45;28</text>
</g>
<!-- doc_0&#45;&gt;section_1 -->
<g id="edge1" class="edge">
<title>doc_0&#45;&gt;section_1</title>
<path fill="none" stroke="#000000" stroke-dasharray="5,2" d="M104,-647.232C104,-639.5316 104,-630.375 104,-621.8173"/>
<polygon fill="#000000" stroke="#000000" points="107.5001,-621.8139 104,-611.8139 100.5001,-621.814 107.5001,-621.8139"/>
</g>
<!-- header_2 -->
<g id="node3" class="node">
<title>header_2</title>
<ellipse fill="none" stroke="#000000" cx="27" cy="-521.4007" rx="27" ry="18"/>
<text text-anchor="middle" x="27" y="-517.2007" font-family="Helvetica,sans-Serif" font-size="14.00" fill="#000000">0 : </text>
</g>
<!-- section_1&#45;&gt;header_2 -->
<g id="edge2" class="edge">
<title>section_1&#45;&gt;header_2</title>
<path fill="none" stroke="#000000" stroke-dasharray="5,2" d="M85.3604,-575.9715C74.8008,-566.0975 61.4962,-553.6569 50.258,-543.1484"/>
<polygon fill="#000000" stroke="#000000" points="52.5617,-540.5107 42.8669,-536.2373 47.7807,-545.6237 52.5617,-540.5107"/>
</g>
<!-- prose_3 -->
<g id="node4" class="node">
<title>prose_3</title>
<ellipse fill="none" stroke="#000000" cx="104" cy="-521.4007" rx="32.4585" ry="18"/>
<text text-anchor="middle" x="104" y="-517.2007" font-family="Helvetica,sans-Serif" font-size="14.00" fill="#000000">prose</text>
</g>
<!-- section_1&#45;&gt;prose_3 -->
<g id="edge3" class="edge">
<title>section_1&#45;&gt;prose_3</title>
<path fill="none" stroke="#000000" stroke-dasharray="5,2" d="M104,-575.232C104,-567.5316 104,-558.375 104,-549.8173"/>
<polygon fill="#000000" stroke="#000000" points="107.5001,-549.8139 104,-539.8139 100.5001,-549.814 107.5001,-549.8139"/>
</g>
<!-- codeblock_4 -->
<g id="node5" class="node">
<title>codeblock_4</title>
<ellipse fill="none" stroke="#000000" cx="274" cy="-521.4007" rx="72.5844" ry="18"/>
<text text-anchor="middle" x="274" y="-517.2007" font-family="Helvetica,sans-Serif" font-size="14.00" fill="#000000">code block 2&#45;28</text>
</g>
<!-- section_1&#45;&gt;codeblock_4 -->
<g id="edge4" class="edge">
<title>section_1&#45;&gt;codeblock_4</title>
<path fill="none" stroke="#000000" stroke-dasharray="5,2" d="M139.2241,-578.4822C164.8012,-567.6496 199.6623,-552.8849 227.5214,-541.0857"/>
<polygon fill="#000000" stroke="#000000" points="229.2137,-544.17 237.0569,-537.0472 226.4837,-537.7243 229.2137,-544.17"/>
</g>
<!-- raw_5 -->
<g id="node6" class="node">
<title>raw_5</title>
<ellipse fill="none" stroke="#000000" cx="80" cy="-269.7003" rx="27" ry="18"/>
<text text-anchor="middle" x="80" y="-265.5003" font-family="Helvetica,sans-Serif" font-size="14.00" fill="#000000">raw</text>
</g>
<!-- prose_3&#45;&gt;raw_5 -->
<g id="edge5" class="edge">
<title>prose_3&#45;&gt;raw_5</title>
<path fill="none" stroke="#000000" stroke-dasharray="5,2" d="M102.274,-503.299C98.1499,-460.0476 87.6972,-350.425 82.7178,-298.2038"/>
<polygon fill="#000000" stroke="#000000" points="86.1761,-297.5988 81.7426,-287.9762 79.2077,-298.2633 86.1761,-297.5988"/>
</g>
<!-- leaf_7 -->
<g id="node8" class="node">
<title>leaf_7</title>
<polygon fill="none" stroke="#c0c0c0" points="470.5,-467.6012 125.5,-467.6012 125.5,-71.7995 470.5,-71.7995 470.5,-467.6012"/>
<text text-anchor="middle" x="298" y="-452.2007" font-family="Inconsolata" font-size="14.00" fill="#000000">local pl = require &quot;pl.file&quot;</text>
<text text-anchor="middle" x="298" y="-436.8006" font-family="Inconsolata" font-size="14.00" fill="#000000">local read = pl.read</text>
<text text-anchor="middle" x="298" y="-405.4006" font-family="Inconsolata" font-size="14.00" fill="#000000">local g = {}</text>
<text text-anchor="middle" x="298" y="-374.0006" font-family="Inconsolata" font-size="14.00" fill="#000000"> g.wtf = [[S: ``T`` (U V)]]</text>
<text text-anchor="middle" x="298" y="-358.6005" font-family="Inconsolata" font-size="14.00" fill="#000000"> g.grammar_s = [[ A &#160;: B &#160;&#160;&#160;&#160;&#160;C ( E / F ) / G H</text>
<text text-anchor="middle" x="298" y="-343.2005" font-family="Inconsolata" font-size="14.00" fill="#000000"> &#160;&#160;&#160;&#160;&#160;&#160;&#160;&#160;&#160;&#160;I : &quot;J&quot; </text>
<text text-anchor="middle" x="298" y="-327.8005" font-family="Inconsolata" font-size="14.00" fill="#000000"> &#160;&#160;&#160;&#160;&#160;&#160;&#160;&#160;&#160;&#160;K : L* M+ N?</text>
<text text-anchor="middle" x="298" y="-312.4004" font-family="Inconsolata" font-size="14.00" fill="#000000"> &#160;&#160;&#160;&#160;&#160;&#160;&#160;&#160;&#160;&#160;O : !P &amp;Q !R*</text>
<text text-anchor="middle" x="298" y="-297.0004" font-family="Inconsolata" font-size="14.00" fill="#000000"> &#160;&#160;&#160;&#160;&#160;&#160;&#160;&#160;&#160;&#160;`S` : ``T`` (U V)</text>
<text text-anchor="middle" x="298" y="-281.6004" font-family="Inconsolata" font-size="14.00" fill="#000000"> &#160;&#160;&#160;&#160;&#160;&#160;&#160;&#160;&#160;&#160;W : {XY} [a&#45;z] </text>
<text text-anchor="middle" x="298" y="-266.2003" font-family="Inconsolata" font-size="14.00" fill="#000000"> &#160;&#160;&#160;&#160;&#160;&#160;&#160;&#160;&#160;&#160;A : (B$2)* C$&#45;3 D$4..5* E$+4</text>
<text text-anchor="middle" x="298" y="-250.8003" font-family="Inconsolata" font-size="14.00" fill="#000000"> &#160;&#160;&#160;&#160;&#160;&#160;&#160;]]</text>
<text text-anchor="middle" x="298" y="-219.4003" font-family="Inconsolata" font-size="14.00" fill="#000000"> g.deco_s &#160;= [[ A: `&#45;(B C/ D)$2..5*` ]]</text>
<text text-anchor="middle" x="298" y="-204.0002" font-family="Inconsolata" font-size="14.00" fill="#000000"> g.rule_s &#160;= [[A:B C(D E)/(F G H)</text>
<text text-anchor="middle" x="298" y="-188.6002" font-family="Inconsolata" font-size="14.00" fill="#000000"> &#160;&#160;&#160;&#160;&#160;&#160;&#160;&#160;&#160;&#160;C : &quot;D&quot; </text>
<text text-anchor="middle" x="298" y="-173.2002" font-family="Inconsolata" font-size="14.00" fill="#000000"> &#160;&#160;&#160;&#160;&#160;&#160;&#160;&#160;&#160;&#160;D : E F G</text>
<text text-anchor="middle" x="298" y="-157.8002" font-family="Inconsolata" font-size="14.00" fill="#000000">]]</text>
<text text-anchor="middle" x="298" y="-126.4001" font-family="Inconsolata" font-size="14.00" fill="#000000"> g.peg_s = &#160;read &quot;peg/pegs/peg.peg&quot;</text>
<text text-anchor="middle" x="298" y="-111.0001" font-family="Inconsolata" font-size="14.00" fill="#000000"> g.lisp_s = read &quot;peg/pegs/lisp.peg&quot;</text>
<text text-anchor="middle" x="298" y="-95.6001" font-family="Inconsolata" font-size="14.00" fill="#000000"> g.clu_s = &#160;read &quot;peg/pegs/clu.peg&quot;</text>
<text text-anchor="middle" x="298" y="-80.2" font-family="Inconsolata" font-size="14.00" fill="#000000">return g</text>
</g>
<!-- codeblock_4&#45;&gt;leaf_7 -->
<g id="edge7" class="edge">
<title>codeblock_4&#45;&gt;leaf_7</title>
<path fill="none" stroke="#000000" stroke-dasharray="5,2" d="M275.726,-503.299C276.398,-496.2518 277.238,-487.4426 278.1949,-477.4067"/>
<polygon fill="#000000" stroke="#000000" points="281.6814,-477.7135 279.1465,-467.4263 274.713,-477.0489 281.6814,-477.7135"/>
</g>
<!-- leaf_6 -->
<g id="node7" class="node">
<title>leaf_6</title>
<polygon fill="none" stroke="#c0c0c0" points="107,-36 53,-36 53,0 107,0 107,-36"/>
</g>
<!-- raw_5&#45;&gt;leaf_6 -->
<g id="edge6" class="edge">
<title>raw_5&#45;&gt;leaf_6</title>
<path fill="none" stroke="#000000" stroke-dasharray="5,2" d="M80,-251.5987C80,-208.3472 80,-98.7246 80,-46.5035"/>
<polygon fill="#000000" stroke="#000000" points="83.5001,-46.2758 80,-36.2758 76.5001,-46.2759 83.5001,-46.2758"/>
</g>
</g>
</svg>