<?xml version="1.0" encoding="UTF-8" standalone="no"?>
<!DOCTYPE svg PUBLIC "-//W3C//DTD SVG 1.1//EN"
 "http://www.w3.org/Graphics/SVG/1.1/DTD/svg11.dtd">
<!-- Generated by graphviz version 2.40.1 (20161225.0304)
 -->
<!-- Title: lpegNode Pages: 1 -->
<svg width="3903pt" height="455pt"
 viewBox="0.00 0.00 3902.50 454.80" xmlns="http://www.w3.org/2000/svg" xmlns:xlink="http://www.w3.org/1999/xlink">
<g id="graph0" class="graph" transform="scale(1 1) rotate(0) translate(4 450.8001)">
<title>lpegNode</title>
<polygon fill="#ffffff" stroke="transparent" points="-4,4 -4,-450.8001 3898.5,-450.8001 3898.5,4 -4,4"/>
<!-- doc_0 -->
<g id="node1" class="node">
<title>doc_0</title>
<ellipse fill="none" stroke="#000000" cx="1950" cy="-428.8001" rx="42.1216" ry="18"/>
<text text-anchor="middle" x="1950" y="-424.6001" font-family="Helvetica,sans-Serif" font-size="14.00" fill="#000000">doc &#45; 40</text>
</g>
<!-- section_1 -->
<g id="node2" class="node">
<title>section_1</title>
<ellipse fill="none" stroke="#000000" cx="1950" cy="-356.8001" rx="60.9826" ry="18"/>
<text text-anchor="middle" x="1950" y="-352.6001" font-family="Helvetica,sans-Serif" font-size="14.00" fill="#000000">section: 1&#45;31</text>
</g>
<!-- doc_0&#45;&gt;section_1 -->
<g id="edge1" class="edge">
<title>doc_0&#45;&gt;section_1</title>
<path fill="none" stroke="#000000" stroke-dasharray="5,2" d="M1950,-410.6314C1950,-402.931 1950,-393.7744 1950,-385.2167"/>
<polygon fill="#000000" stroke="#000000" points="1953.5001,-385.2133 1950,-375.2133 1946.5001,-385.2134 1953.5001,-385.2133"/>
</g>
<!-- header_2 -->
<g id="node3" class="node">
<title>header_2</title>
<ellipse fill="none" stroke="#000000" cx="501" cy="-284.8001" rx="49.8568" ry="18"/>
<text text-anchor="middle" x="501" y="-280.6001" font-family="Helvetica,sans-Serif" font-size="14.00" fill="#000000">1 : orb tag</text>
</g>
<!-- section_1&#45;&gt;header_2 -->
<g id="edge2" class="edge">
<title>section_1&#45;&gt;header_2</title>
<path fill="none" stroke="#000000" stroke-dasharray="5,2" d="M1889.1164,-356.0545C1702.7809,-353.3919 1123.8773,-342.289 646,-302.8001 616.746,-300.3827 584.3122,-296.4729 557.5504,-292.9139"/>
<polygon fill="#000000" stroke="#000000" points="557.9679,-289.4386 547.5899,-291.5709 557.0325,-296.3758 557.9679,-289.4386"/>
</g>
<!-- prose_3 -->
<g id="node4" class="node">
<title>prose_3</title>
<ellipse fill="none" stroke="#000000" cx="687" cy="-284.8001" rx="32.4585" ry="18"/>
<text text-anchor="middle" x="687" y="-280.6001" font-family="Helvetica,sans-Serif" font-size="14.00" fill="#000000">prose</text>
</g>
<!-- section_1&#45;&gt;prose_3 -->
<g id="edge3" class="edge">
<title>section_1&#45;&gt;prose_3</title>
<path fill="none" stroke="#000000" stroke-dasharray="5,2" d="M1890.2053,-353.5375C1738.841,-345.2597 1328.2128,-322.6855 986,-302.8001 894.6053,-297.4893 787.5158,-290.9706 729.5364,-287.4167"/>
<polygon fill="#000000" stroke="#000000" points="729.4923,-283.9076 719.2968,-286.7886 729.0637,-290.8944 729.4923,-283.9076"/>
</g>
<!-- prose_4 -->
<g id="node5" class="node">
<title>prose_4</title>
<ellipse fill="none" stroke="#000000" cx="1027" cy="-284.8001" rx="32.4585" ry="18"/>
<text text-anchor="middle" x="1027" y="-280.6001" font-family="Helvetica,sans-Serif" font-size="14.00" fill="#000000">prose</text>
</g>
<!-- section_1&#45;&gt;prose_4 -->
<g id="edge4" class="edge">
<title>section_1&#45;&gt;prose_4</title>
<path fill="none" stroke="#000000" stroke-dasharray="5,2" d="M1891.2105,-352.2141C1719.0385,-338.7836 1218.6871,-299.7529 1069.4799,-288.1138"/>
<polygon fill="#000000" stroke="#000000" points="1069.595,-284.6122 1059.3531,-287.3238 1069.0506,-291.591 1069.595,-284.6122"/>
</g>
<!-- prose_5 -->
<g id="node6" class="node">
<title>prose_5</title>
<ellipse fill="none" stroke="#000000" cx="1757" cy="-284.8001" rx="32.4585" ry="18"/>
<text text-anchor="middle" x="1757" y="-280.6001" font-family="Helvetica,sans-Serif" font-size="14.00" fill="#000000">prose</text>
</g>
<!-- section_1&#45;&gt;prose_5 -->
<g id="edge5" class="edge">
<title>section_1&#45;&gt;prose_5</title>
<path fill="none" stroke="#000000" stroke-dasharray="5,2" d="M1911.8694,-342.5752C1877.4743,-329.7438 1827.2324,-311.0007 1793.3866,-298.3743"/>
<polygon fill="#000000" stroke="#000000" points="1794.4665,-295.0416 1783.8739,-294.8256 1792.0198,-301.6001 1794.4665,-295.0416"/>
</g>
<!-- prose_6 -->
<g id="node7" class="node">
<title>prose_6</title>
<ellipse fill="none" stroke="#000000" cx="1950" cy="-284.8001" rx="32.4585" ry="18"/>
<text text-anchor="middle" x="1950" y="-280.6001" font-family="Helvetica,sans-Serif" font-size="14.00" fill="#000000">prose</text>
</g>
<!-- section_1&#45;&gt;prose_6 -->
<g id="edge6" class="edge">
<title>section_1&#45;&gt;prose_6</title>
<path fill="none" stroke="#000000" stroke-dasharray="5,2" d="M1950,-338.6314C1950,-330.931 1950,-321.7744 1950,-313.2167"/>
<polygon fill="#000000" stroke="#000000" points="1953.5001,-313.2133 1950,-303.2133 1946.5001,-313.2134 1953.5001,-313.2133"/>
</g>
<!-- prose_7 -->
<g id="node8" class="node">
<title>prose_7</title>
<ellipse fill="none" stroke="#000000" cx="2446" cy="-284.8001" rx="32.4585" ry="18"/>
<text text-anchor="middle" x="2446" y="-280.6001" font-family="Helvetica,sans-Serif" font-size="14.00" fill="#000000">prose</text>
</g>
<!-- section_1&#45;&gt;prose_7 -->
<g id="edge7" class="edge">
<title>section_1&#45;&gt;prose_7</title>
<path fill="none" stroke="#000000" stroke-dasharray="5,2" d="M2004.9758,-348.8197C2105.1777,-334.2743 2315.4012,-303.7579 2404.5841,-290.8121"/>
<polygon fill="#000000" stroke="#000000" points="2405.2003,-294.2594 2414.5937,-289.359 2404.1946,-287.332 2405.2003,-294.2594"/>
</g>
<!-- section_8 -->
<g id="node9" class="node">
<title>section_8</title>
<ellipse fill="none" stroke="#000000" cx="2744" cy="-284.8001" rx="65.8187" ry="18"/>
<text text-anchor="middle" x="2744" y="-280.6001" font-family="Helvetica,sans-Serif" font-size="14.00" fill="#000000">section: 16&#45;22</text>
</g>
<!-- section_1&#45;&gt;section_8 -->
<g id="edge8" class="edge">
<title>section_1&#45;&gt;section_8</title>
<path fill="none" stroke="#000000" stroke-dasharray="5,2" d="M2008.3847,-351.5057C2150.7508,-338.596 2515.4861,-305.5217 2671.4712,-291.377"/>
<polygon fill="#000000" stroke="#000000" points="2671.7962,-294.862 2681.4392,-290.4731 2671.1639,-287.8906 2671.7962,-294.862"/>
</g>
<!-- section_9 -->
<g id="node10" class="node">
<title>section_9</title>
<ellipse fill="none" stroke="#000000" cx="3125" cy="-284.8001" rx="65.8187" ry="18"/>
<text text-anchor="middle" x="3125" y="-280.6001" font-family="Helvetica,sans-Serif" font-size="14.00" fill="#000000">section: 23&#45;31</text>
</g>
<!-- section_1&#45;&gt;section_9 -->
<g id="edge9" class="edge">
<title>section_1&#45;&gt;section_9</title>
<path fill="none" stroke="#000000" stroke-dasharray="5,2" d="M2009.8838,-353.1306C2206.7999,-341.0642 2834.0213,-302.6302 3050.6048,-289.3587"/>
<polygon fill="#000000" stroke="#000000" points="3050.8374,-292.8512 3060.6046,-288.746 3050.4092,-285.8643 3050.8374,-292.8512"/>
</g>
<!-- section_10 -->
<g id="node11" class="node">
<title>section_10</title>
<ellipse fill="none" stroke="#000000" cx="3597" cy="-284.8001" rx="65.8187" ry="18"/>
<text text-anchor="middle" x="3597" y="-280.6001" font-family="Helvetica,sans-Serif" font-size="14.00" fill="#000000">section: 32&#45;40</text>
</g>
<!-- section_1&#45;&gt;section_10 -->
<g id="edge10" class="edge">
<title>section_1&#45;&gt;section_10</title>
<path fill="none" stroke="#000000" stroke-dasharray="5,2" d="M2010.1691,-354.2464C2190.5109,-346.5826 2742.3933,-323.0583 3200,-302.8001 3311.9759,-297.8429 3441.709,-291.9285 3521.5684,-288.2681"/>
<polygon fill="#000000" stroke="#000000" points="3522.188,-291.7435 3532.0172,-287.789 3521.8673,-284.7508 3522.188,-291.7435"/>
</g>
<!-- leaf_11 -->
<g id="node12" class="node">
<title>leaf_11</title>
<polygon fill="none" stroke="#c0c0c0" points="454.5,-230.8001 375.5,-230.8001 375.5,-194.8001 454.5,-194.8001 454.5,-230.8001"/>
<text text-anchor="middle" x="415" y="-209.3001" font-family="Inconsolata" font-size="14.00" fill="#000000">* orb tag</text>
</g>
<!-- header_2&#45;&gt;leaf_11 -->
<g id="edge11" class="edge">
<title>header_2&#45;&gt;leaf_11</title>
<path fill="none" stroke="#000000" stroke-dasharray="5,2" d="M481.0537,-268.1008C470.1451,-258.9681 456.4262,-247.4825 444.3215,-237.3483"/>
<polygon fill="#000000" stroke="#000000" points="446.5603,-234.658 436.6459,-230.9222 442.0667,-240.0253 446.5603,-234.658"/>
</g>
<!-- raw_12 -->
<g id="node13" class="node">
<title>raw_12</title>
<ellipse fill="none" stroke="#000000" cx="500" cy="-212.8001" rx="27" ry="18"/>
<text text-anchor="middle" x="500" y="-208.6001" font-family="Helvetica,sans-Serif" font-size="14.00" fill="#000000">raw</text>
</g>
<!-- prose_3&#45;&gt;raw_12 -->
<g id="edge12" class="edge">
<title>prose_3&#45;&gt;raw_12</title>
<path fill="none" stroke="#000000" stroke-dasharray="5,2" d="M658.7815,-275.8372C628.1521,-265.8486 577.9919,-248.7297 536,-230.8001 534.2167,-230.0386 532.3969,-229.2307 530.5697,-228.3955"/>
<polygon fill="#000000" stroke="#000000" points="532.0375,-225.2179 521.504,-224.0786 529.028,-231.5379 532.0375,-225.2179"/>
</g>
<!-- prespace_13 -->
<g id="node14" class="node">
<title>prespace_13</title>
<ellipse fill="none" stroke="#000000" cx="591" cy="-212.8001" rx="46.4736" ry="18"/>
<text text-anchor="middle" x="591" y="-208.6001" font-family="Helvetica,sans-Serif" font-size="14.00" fill="#000000">prespace</text>
</g>
<!-- prose_3&#45;&gt;prespace_13 -->
<g id="edge13" class="edge">
<title>prose_3&#45;&gt;prespace_13</title>
<path fill="none" stroke="#000000" stroke-dasharray="5,2" d="M667.573,-270.2298C654.0746,-260.106 635.8362,-246.4272 620.5453,-234.959"/>
<polygon fill="#000000" stroke="#000000" points="622.5024,-232.0519 612.4024,-228.8519 618.3024,-237.6519 622.5024,-232.0519"/>
</g>
<!-- literal_14 -->
<g id="node15" class="node">
<title>literal_14</title>
<ellipse fill="none" stroke="#000000" cx="687" cy="-212.8001" rx="31.481" ry="18"/>
<text text-anchor="middle" x="687" y="-208.6001" font-family="Helvetica,sans-Serif" font-size="14.00" fill="#000000">literal</text>
</g>
<!-- prose_3&#45;&gt;literal_14 -->
<g id="edge14" class="edge">
<title>prose_3&#45;&gt;literal_14</title>
<path fill="none" stroke="#000000" stroke-dasharray="5,2" d="M687,-266.6314C687,-258.931 687,-249.7744 687,-241.2167"/>
<polygon fill="#000000" stroke="#000000" points="690.5001,-241.2133 687,-231.2133 683.5001,-241.2134 690.5001,-241.2133"/>
</g>
<!-- raw_15 -->
<g id="node16" class="node">
<title>raw_15</title>
<ellipse fill="none" stroke="#000000" cx="763" cy="-212.8001" rx="27" ry="18"/>
<text text-anchor="middle" x="763" y="-208.6001" font-family="Helvetica,sans-Serif" font-size="14.00" fill="#000000">raw</text>
</g>
<!-- prose_3&#45;&gt;raw_15 -->
<g id="edge15" class="edge">
<title>prose_3&#45;&gt;raw_15</title>
<path fill="none" stroke="#000000" stroke-dasharray="5,2" d="M703.4909,-269.1771C714.1629,-259.0668 728.2097,-245.7593 739.976,-234.6123"/>
<polygon fill="#000000" stroke="#000000" points="742.468,-237.0727 747.3204,-227.6544 737.6538,-231.991 742.468,-237.0727"/>
</g>
<!-- prespace_20 -->
<g id="node21" class="node">
<title>prespace_20</title>
<ellipse fill="none" stroke="#000000" cx="863" cy="-212.8001" rx="46.4736" ry="18"/>
<text text-anchor="middle" x="863" y="-208.6001" font-family="Helvetica,sans-Serif" font-size="14.00" fill="#000000">prespace</text>
</g>
<!-- prose_4&#45;&gt;prespace_20 -->
<g id="edge20" class="edge">
<title>prose_4&#45;&gt;prespace_20</title>
<path fill="none" stroke="#000000" stroke-dasharray="5,2" d="M1001.375,-273.5501C975.1183,-262.0227 933.9148,-243.9334 903.29,-230.4883"/>
<polygon fill="#000000" stroke="#000000" points="904.3143,-227.1157 893.7509,-226.3005 901.5004,-233.5252 904.3143,-227.1157"/>
</g>
<!-- literal_21 -->
<g id="node22" class="node">
<title>literal_21</title>
<ellipse fill="none" stroke="#000000" cx="983" cy="-212.8001" rx="31.481" ry="18"/>
<text text-anchor="middle" x="983" y="-208.6001" font-family="Helvetica,sans-Serif" font-size="14.00" fill="#000000">literal</text>
</g>
<!-- prose_4&#45;&gt;literal_21 -->
<g id="edge21" class="edge">
<title>prose_4&#45;&gt;literal_21</title>
<path fill="none" stroke="#000000" stroke-dasharray="5,2" d="M1016.5726,-267.7371C1011.3344,-259.1654 1004.8725,-248.5914 999.0212,-239.0166"/>
<polygon fill="#000000" stroke="#000000" points="1001.8592,-236.9485 993.6582,-230.2407 995.8862,-240.5987 1001.8592,-236.9485"/>
</g>
<!-- raw_22 -->
<g id="node23" class="node">
<title>raw_22</title>
<ellipse fill="none" stroke="#000000" cx="1071" cy="-212.8001" rx="27" ry="18"/>
<text text-anchor="middle" x="1071" y="-208.6001" font-family="Helvetica,sans-Serif" font-size="14.00" fill="#000000">raw</text>
</g>
<!-- prose_4&#45;&gt;raw_22 -->
<g id="edge22" class="edge">
<title>prose_4&#45;&gt;raw_22</title>
<path fill="none" stroke="#000000" stroke-dasharray="5,2" d="M1037.4274,-267.7371C1042.7974,-258.9497 1049.4535,-248.0579 1055.4194,-238.2956"/>
<polygon fill="#000000" stroke="#000000" points="1058.4194,-240.0985 1060.6475,-229.7406 1052.4464,-236.4483 1058.4194,-240.0985"/>
</g>
<!-- raw_26 -->
<g id="node27" class="node">
<title>raw_26</title>
<ellipse fill="none" stroke="#000000" cx="1536" cy="-212.8001" rx="27" ry="18"/>
<text text-anchor="middle" x="1536" y="-208.6001" font-family="Helvetica,sans-Serif" font-size="14.00" fill="#000000">raw</text>
</g>
<!-- prose_5&#45;&gt;raw_26 -->
<g id="edge26" class="edge">
<title>prose_5&#45;&gt;raw_26</title>
<path fill="none" stroke="#000000" stroke-dasharray="5,2" d="M1729.0102,-275.6812C1688.4944,-262.4815 1613.595,-238.0799 1569.97,-223.8672"/>
<polygon fill="#000000" stroke="#000000" points="1570.9681,-220.5114 1560.3758,-220.7415 1568.7997,-227.1671 1570.9681,-220.5114"/>
</g>
<!-- raw_28 -->
<g id="node29" class="node">
<title>raw_28</title>
<ellipse fill="none" stroke="#000000" cx="1950" cy="-212.8001" rx="27" ry="18"/>
<text text-anchor="middle" x="1950" y="-208.6001" font-family="Helvetica,sans-Serif" font-size="14.00" fill="#000000">raw</text>
</g>
<!-- prose_6&#45;&gt;raw_28 -->
<g id="edge28" class="edge">
<title>prose_6&#45;&gt;raw_28</title>
<path fill="none" stroke="#000000" stroke-dasharray="5,2" d="M1950,-266.6314C1950,-258.931 1950,-249.7744 1950,-241.2167"/>
<polygon fill="#000000" stroke="#000000" points="1953.5001,-241.2133 1950,-231.2133 1946.5001,-241.2134 1953.5001,-241.2133"/>
</g>
<!-- raw_30 -->
<g id="node31" class="node">
<title>raw_30</title>
<ellipse fill="none" stroke="#000000" cx="2386" cy="-212.8001" rx="27" ry="18"/>
<text text-anchor="middle" x="2386" y="-208.6001" font-family="Helvetica,sans-Serif" font-size="14.00" fill="#000000">raw</text>
</g>
<!-- prose_7&#45;&gt;raw_30 -->
<g id="edge30" class="edge">
<title>prose_7&#45;&gt;raw_30</title>
<path fill="none" stroke="#000000" stroke-dasharray="5,2" d="M2432.3851,-268.4621C2424.5279,-259.0335 2414.5076,-247.0091 2405.7922,-236.5507"/>
<polygon fill="#000000" stroke="#000000" points="2408.2394,-234.0201 2399.1487,-228.5785 2402.8618,-238.5014 2408.2394,-234.0201"/>
</g>
<!-- link_31 -->
<g id="node32" class="node">
<title>link_31</title>
<ellipse fill="none" stroke="#000000" cx="2506" cy="-212.8001" rx="27" ry="18"/>
<text text-anchor="middle" x="2506" y="-208.6001" font-family="Helvetica,sans-Serif" font-size="14.00" fill="#000000">link</text>
</g>
<!-- prose_7&#45;&gt;link_31 -->
<g id="edge31" class="edge">
<title>prose_7&#45;&gt;link_31</title>
<path fill="none" stroke="#000000" stroke-dasharray="5,2" d="M2459.6149,-268.4621C2467.4721,-259.0335 2477.4924,-247.0091 2486.2078,-236.5507"/>
<polygon fill="#000000" stroke="#000000" points="2489.1382,-238.5014 2492.8513,-228.5785 2483.7606,-234.0201 2489.1382,-238.5014"/>
</g>
<!-- raw_32 -->
<g id="node33" class="node">
<title>raw_32</title>
<ellipse fill="none" stroke="#000000" cx="2588" cy="-212.8001" rx="27" ry="18"/>
<text text-anchor="middle" x="2588" y="-208.6001" font-family="Helvetica,sans-Serif" font-size="14.00" fill="#000000">raw</text>
</g>
<!-- prose_7&#45;&gt;raw_32 -->
<g id="edge32" class="edge">
<title>prose_7&#45;&gt;raw_32</title>
<path fill="none" stroke="#000000" stroke-dasharray="5,2" d="M2470.0884,-272.5862C2494.0491,-260.4371 2530.912,-241.7461 2557.0343,-228.501"/>
<polygon fill="#000000" stroke="#000000" points="2558.7924,-231.5338 2566.1285,-223.8898 2555.6267,-225.2905 2558.7924,-231.5338"/>
</g>
<!-- header_39 -->
<g id="node40" class="node">
<title>header_39</title>
<ellipse fill="none" stroke="#000000" cx="2694" cy="-212.8001" rx="50.8" ry="18"/>
<text text-anchor="middle" x="2694" y="-208.6001" font-family="Helvetica,sans-Serif" font-size="14.00" fill="#000000">4 : asserts</text>
</g>
<!-- section_8&#45;&gt;header_39 -->
<g id="edge39" class="edge">
<title>section_8&#45;&gt;header_39</title>
<path fill="none" stroke="#000000" stroke-dasharray="5,2" d="M2731.6404,-267.0023C2725.7067,-258.4577 2718.4836,-248.0565 2711.9577,-238.6591"/>
<polygon fill="#000000" stroke="#000000" points="2714.7962,-236.6104 2706.2174,-230.3931 2709.0466,-240.6032 2714.7962,-236.6104"/>
</g>
<!-- prose_40 -->
<g id="node41" class="node">
<title>prose_40</title>
<ellipse fill="none" stroke="#000000" cx="2795" cy="-212.8001" rx="32.4585" ry="18"/>
<text text-anchor="middle" x="2795" y="-208.6001" font-family="Helvetica,sans-Serif" font-size="14.00" fill="#000000">prose</text>
</g>
<!-- section_8&#45;&gt;prose_40 -->
<g id="edge40" class="edge">
<title>section_8&#45;&gt;prose_40</title>
<path fill="none" stroke="#000000" stroke-dasharray="5,2" d="M2756.6067,-267.0023C2762.7495,-258.3301 2770.2469,-247.7456 2776.9808,-238.239"/>
<polygon fill="#000000" stroke="#000000" points="2779.9653,-240.0806 2782.8895,-229.8973 2774.2532,-236.0345 2779.9653,-240.0806"/>
</g>
<!-- codeblock_41 -->
<g id="node42" class="node">
<title>codeblock_41</title>
<ellipse fill="none" stroke="#000000" cx="2923" cy="-212.8001" rx="77.4211" ry="18"/>
<text text-anchor="middle" x="2923" y="-208.6001" font-family="Helvetica,sans-Serif" font-size="14.00" fill="#000000">code block 18&#45;20</text>
</g>
<!-- section_8&#45;&gt;codeblock_41 -->
<g id="edge41" class="edge">
<title>section_8&#45;&gt;codeblock_41</title>
<path fill="none" stroke="#000000" stroke-dasharray="5,2" d="M2781.0889,-269.8816C2808.1376,-259.0017 2845.0475,-244.1553 2874.4447,-232.3307"/>
<polygon fill="#000000" stroke="#000000" points="2876.1296,-235.4256 2884.1011,-228.4466 2873.5173,-228.9312 2876.1296,-235.4256"/>
</g>
<!-- header_46 -->
<g id="node47" class="node">
<title>header_46</title>
<ellipse fill="none" stroke="#000000" cx="3073" cy="-212.8001" rx="54.1919" ry="18"/>
<text text-anchor="middle" x="3073" y="-208.6001" font-family="Helvetica,sans-Serif" font-size="14.00" fill="#000000">4 : requires</text>
</g>
<!-- section_9&#45;&gt;header_46 -->
<g id="edge46" class="edge">
<title>section_9&#45;&gt;header_46</title>
<path fill="none" stroke="#000000" stroke-dasharray="5,2" d="M3112.1461,-267.0023C3105.9749,-258.4577 3098.463,-248.0565 3091.676,-238.6591"/>
<polygon fill="#000000" stroke="#000000" points="3094.3984,-236.4507 3085.7061,-230.3931 3088.7236,-240.5491 3094.3984,-236.4507"/>
</g>
<!-- prose_47 -->
<g id="node48" class="node">
<title>prose_47</title>
<ellipse fill="none" stroke="#000000" cx="3178" cy="-212.8001" rx="32.4585" ry="18"/>
<text text-anchor="middle" x="3178" y="-208.6001" font-family="Helvetica,sans-Serif" font-size="14.00" fill="#000000">prose</text>
</g>
<!-- section_9&#45;&gt;prose_47 -->
<g id="edge47" class="edge">
<title>section_9&#45;&gt;prose_47</title>
<path fill="none" stroke="#000000" stroke-dasharray="5,2" d="M3138.1011,-267.0023C3144.4848,-258.3301 3152.2762,-247.7456 3159.2741,-238.239"/>
<polygon fill="#000000" stroke="#000000" points="3162.305,-240.0255 3165.4145,-229.8973 3156.6676,-235.8758 3162.305,-240.0255"/>
</g>
<!-- codeblock_48 -->
<g id="node49" class="node">
<title>codeblock_48</title>
<ellipse fill="none" stroke="#000000" cx="3328" cy="-212.8001" rx="77.4211" ry="18"/>
<text text-anchor="middle" x="3328" y="-208.6001" font-family="Helvetica,sans-Serif" font-size="14.00" fill="#000000">code block 25&#45;27</text>
</g>
<!-- section_9&#45;&gt;codeblock_48 -->
<g id="edge48" class="edge">
<title>section_9&#45;&gt;codeblock_48</title>
<path fill="none" stroke="#000000" stroke-dasharray="5,2" d="M3165.5922,-270.4028C3197.1849,-259.1975 3241.2704,-243.5613 3275.539,-231.4069"/>
<polygon fill="#000000" stroke="#000000" points="3277.1241,-234.5584 3285.3788,-227.9169 3274.7841,-227.9611 3277.1241,-234.5584"/>
</g>
<!-- header_53 -->
<g id="node54" class="node">
<title>header_53</title>
<ellipse fill="none" stroke="#000000" cx="3546" cy="-212.8001" rx="51.2932" ry="18"/>
<text text-anchor="middle" x="3546" y="-208.6001" font-family="Helvetica,sans-Serif" font-size="14.00" fill="#000000">2 : OrbTag</text>
</g>
<!-- section_10&#45;&gt;header_53 -->
<g id="edge53" class="edge">
<title>section_10&#45;&gt;header_53</title>
<path fill="none" stroke="#000000" stroke-dasharray="5,2" d="M3584.3933,-267.0023C3578.3408,-258.4577 3570.9733,-248.0565 3564.3168,-238.6591"/>
<polygon fill="#000000" stroke="#000000" points="3567.098,-236.5303 3558.4617,-230.3931 3561.3859,-240.5764 3567.098,-236.5303"/>
</g>
<!-- prose_54 -->
<g id="node55" class="node">
<title>prose_54</title>
<ellipse fill="none" stroke="#000000" cx="3648" cy="-212.8001" rx="32.4585" ry="18"/>
<text text-anchor="middle" x="3648" y="-208.6001" font-family="Helvetica,sans-Serif" font-size="14.00" fill="#000000">prose</text>
</g>
<!-- section_10&#45;&gt;prose_54 -->
<g id="edge54" class="edge">
<title>section_10&#45;&gt;prose_54</title>
<path fill="none" stroke="#000000" stroke-dasharray="5,2" d="M3609.6067,-267.0023C3615.7495,-258.3301 3623.2469,-247.7456 3629.9808,-238.239"/>
<polygon fill="#000000" stroke="#000000" points="3632.9653,-240.0806 3635.8895,-229.8973 3627.2532,-236.0345 3632.9653,-240.0806"/>
</g>
<!-- codeblock_55 -->
<g id="node56" class="node">
<title>codeblock_55</title>
<ellipse fill="none" stroke="#000000" cx="3786" cy="-212.8001" rx="77.4211" ry="18"/>
<text text-anchor="middle" x="3786" y="-208.6001" font-family="Helvetica,sans-Serif" font-size="14.00" fill="#000000">code block 34&#45;36</text>
</g>
<!-- section_10&#45;&gt;codeblock_55 -->
<g id="edge55" class="edge">
<title>section_10&#45;&gt;codeblock_55</title>
<path fill="none" stroke="#000000" stroke-dasharray="5,2" d="M3635.703,-270.056C3664.6732,-259.0198 3704.5432,-243.8312 3735.9393,-231.8708"/>
<polygon fill="#000000" stroke="#000000" points="3737.2906,-235.1015 3745.3895,-228.2707 3734.7986,-228.56 3737.2906,-235.1015"/>
</g>
<!-- leaf_16 -->
<g id="node17" class="node">
<title>leaf_16</title>
<polygon fill="none" stroke="#c0c0c0" points="548,-158.7003 0,-158.7003 0,-72.0997 548,-72.0997 548,-158.7003"/>
<text text-anchor="middle" x="274" y="-95.6001" font-family="Inconsolata" font-size="14.00" fill="#000000">This is an inner verb, in the sense that while one can call it from an outer</text>
<text text-anchor="middle" x="274" y="-80.2" font-family="Inconsolata" font-size="14.00" fill="#000000">context it is normally invoked as the next step after</text>
</g>
<!-- raw_12&#45;&gt;leaf_16 -->
<g id="edge16" class="edge">
<title>raw_12&#45;&gt;leaf_16</title>
<path fill="none" stroke="#000000" stroke-dasharray="5,2" d="M478.1816,-201.9392C473.2156,-199.5361 467.9455,-197.0398 463,-194.8001 439.4267,-184.1241 413.9974,-173.1074 389.6681,-162.8047"/>
<polygon fill="#000000" stroke="#000000" points="390.9776,-159.5584 380.4037,-158.8932 388.2549,-166.0072 390.9776,-159.5584"/>
</g>
<!-- leaf_17 -->
<g id="node18" class="node">
<title>leaf_17</title>
<polygon fill="none" stroke="#c0c0c0" points="620,-133.4 566,-133.4 566,-97.4 620,-97.4 620,-133.4"/>
<text text-anchor="middle" x="593" y="-111.9" font-family="Inconsolata" font-size="14.00" fill="#000000"> </text>
</g>
<!-- prespace_13&#45;&gt;leaf_17 -->
<g id="edge17" class="edge">
<title>prespace_13&#45;&gt;leaf_17</title>
<path fill="none" stroke="#000000" stroke-dasharray="5,2" d="M591.3762,-194.4799C591.6695,-180.1953 592.082,-160.1047 592.4179,-143.7485"/>
<polygon fill="#000000" stroke="#000000" points="595.9194,-143.7079 592.6255,-133.6381 588.9208,-143.5641 595.9194,-143.7079"/>
</g>
<!-- leaf_18 -->
<g id="node19" class="node">
<title>leaf_18</title>
<polygon fill="none" stroke="#c0c0c0" points="696,-133.4 642,-133.4 642,-97.4 696,-97.4 696,-133.4"/>
<text text-anchor="middle" x="669" y="-111.9" font-family="Inconsolata" font-size="14.00" fill="#000000">spin</text>
</g>
<!-- literal_14&#45;&gt;leaf_18 -->
<g id="edge18" class="edge">
<title>literal_14&#45;&gt;leaf_18</title>
<path fill="none" stroke="#000000" stroke-dasharray="5,2" d="M683.6143,-194.4799C680.9745,-180.1953 677.2616,-160.1047 674.2389,-143.7485"/>
<polygon fill="#000000" stroke="#000000" points="677.6296,-142.8355 672.3705,-133.6381 670.7461,-144.1076 677.6296,-142.8355"/>
</g>
<!-- leaf_19 -->
<g id="node20" class="node">
<title>leaf_19</title>
<polygon fill="none" stroke="#c0c0c0" points="807.5,-133.4 714.5,-133.4 714.5,-97.4 807.5,-97.4 807.5,-133.4"/>
<text text-anchor="middle" x="761" y="-111.9" font-family="Inconsolata" font-size="14.00" fill="#000000">ning a Doc.</text>
</g>
<!-- raw_15&#45;&gt;leaf_19 -->
<g id="edge19" class="edge">
<title>raw_15&#45;&gt;leaf_19</title>
<path fill="none" stroke="#000000" stroke-dasharray="5,2" d="M762.6238,-194.4799C762.3305,-180.1953 761.918,-160.1047 761.5821,-143.7485"/>
<polygon fill="#000000" stroke="#000000" points="765.0792,-143.5641 761.3745,-133.6381 758.0806,-143.7079 765.0792,-143.5641"/>
</g>
<!-- leaf_23 -->
<g id="node24" class="node">
<title>leaf_23</title>
<polygon fill="none" stroke="#c0c0c0" points="880,-133.4 826,-133.4 826,-97.4 880,-97.4 880,-133.4"/>
</g>
<!-- prespace_20&#45;&gt;leaf_23 -->
<g id="edge23" class="edge">
<title>prespace_20&#45;&gt;leaf_23</title>
<path fill="none" stroke="#000000" stroke-dasharray="5,2" d="M861.1191,-194.4799C859.6525,-180.1953 857.5898,-160.1047 855.9105,-143.7485"/>
<polygon fill="#000000" stroke="#000000" points="859.3756,-143.2283 854.8725,-133.6381 852.4122,-143.9433 859.3756,-143.2283"/>
</g>
<!-- leaf_24 -->
<g id="node25" class="node">
<title>leaf_24</title>
<polygon fill="none" stroke="#c0c0c0" points="963.5,-133.4 898.5,-133.4 898.5,-97.4 963.5,-97.4 963.5,-133.4"/>
<text text-anchor="middle" x="931" y="-111.9" font-family="Inconsolata" font-size="14.00" fill="#000000">orb tag</text>
</g>
<!-- literal_21&#45;&gt;leaf_24 -->
<g id="edge24" class="edge">
<title>literal_21&#45;&gt;leaf_24</title>
<path fill="none" stroke="#000000" stroke-dasharray="5,2" d="M973.7034,-195.3869C965.8652,-180.7053 954.5147,-159.445 945.4857,-142.533"/>
<polygon fill="#000000" stroke="#000000" points="948.5428,-140.8273 940.7455,-133.6541 942.3677,-144.1241 948.5428,-140.8273"/>
</g>
<!-- leaf_25 -->
<g id="node26" class="node">
<title>leaf_25</title>
<polygon fill="none" stroke="#c0c0c0" points="1172.5,-133.4 981.5,-133.4 981.5,-97.4 1172.5,-97.4 1172.5,-133.4"/>
<text text-anchor="middle" x="1077" y="-111.9" font-family="Inconsolata" font-size="14.00" fill="#000000"> operates the tag engine.</text>
</g>
<!-- raw_22&#45;&gt;leaf_25 -->
<g id="edge25" class="edge">
<title>raw_22&#45;&gt;leaf_25</title>
<path fill="none" stroke="#000000" stroke-dasharray="5,2" d="M1072.1286,-194.4799C1073.0085,-180.1953 1074.2461,-160.1047 1075.2537,-143.7485"/>
<polygon fill="#000000" stroke="#000000" points="1078.7549,-143.8344 1075.8765,-133.6381 1071.7682,-143.4039 1078.7549,-143.8344"/>
</g>
<!-- leaf_27 -->
<g id="node28" class="node">
<title>leaf_27</title>
<polygon fill="none" stroke="#c0c0c0" points="1661.5,-135.3021 1190.5,-135.3021 1190.5,-95.4979 1661.5,-95.4979 1661.5,-135.3021"/>
<text text-anchor="middle" x="1426" y="-103.9" font-family="Inconsolata" font-size="14.00" fill="#000000">This turns Hashtag and Hashline classes into metadata on the AST.</text>
</g>
<!-- raw_26&#45;&gt;leaf_27 -->
<g id="edge27" class="edge">
<title>raw_26&#45;&gt;leaf_27</title>
<path fill="none" stroke="#000000" stroke-dasharray="5,2" d="M1519.2934,-198.0071C1502.6329,-183.255 1476.666,-160.2625 1456.3535,-142.2767"/>
<polygon fill="#000000" stroke="#000000" points="1458.4055,-139.4187 1448.5983,-135.4098 1453.765,-144.6595 1458.4055,-139.4187"/>
</g>
<!-- leaf_29 -->
<g id="node30" class="node">
<title>leaf_29</title>
<polygon fill="none" stroke="#c0c0c0" points="2220.5,-135.3021 1679.5,-135.3021 1679.5,-95.4979 2220.5,-95.4979 2220.5,-135.3021"/>
<text text-anchor="middle" x="1950" y="-103.9" font-family="Inconsolata" font-size="14.00" fill="#000000">This metadata is in turn used to guide the realization of subsequent steps.</text>
</g>
<!-- raw_28&#45;&gt;leaf_29 -->
<g id="edge29" class="edge">
<title>raw_28&#45;&gt;leaf_29</title>
<path fill="none" stroke="#000000" stroke-dasharray="5,2" d="M1950,-194.4799C1950,-180.7791 1950,-161.7371 1950,-145.7719"/>
<polygon fill="#000000" stroke="#000000" points="1953.5001,-145.3141 1950,-135.3141 1946.5001,-145.3142 1953.5001,-145.3141"/>
</g>
<!-- leaf_33 -->
<g id="node34" class="node">
<title>leaf_33</title>
<polygon fill="none" stroke="#c0c0c0" points="2437,-135.3021 2239,-135.3021 2239,-95.4979 2437,-95.4979 2437,-135.3021"/>
<text text-anchor="middle" x="2338" y="-103.9" font-family="Inconsolata" font-size="14.00" fill="#000000">The design work is in the </text>
</g>
<!-- raw_30&#45;&gt;leaf_33 -->
<g id="edge33" class="edge">
<title>raw_30&#45;&gt;leaf_33</title>
<path fill="none" stroke="#000000" stroke-dasharray="5,2" d="M2377.4186,-195.3869C2370.4757,-181.2987 2360.5475,-161.1527 2352.3921,-144.604"/>
<polygon fill="#000000" stroke="#000000" points="2355.3912,-142.7718 2347.8312,-135.3491 2349.1122,-145.8662 2355.3912,-142.7718"/>
</g>
<!-- anchortext_34 -->
<g id="node35" class="node">
<title>anchortext_34</title>
<ellipse fill="none" stroke="#000000" cx="2506" cy="-115.4" rx="51.3018" ry="18"/>
<text text-anchor="middle" x="2506" y="-111.2" font-family="Helvetica,sans-Serif" font-size="14.00" fill="#000000">anchortext</text>
</g>
<!-- link_31&#45;&gt;anchortext_34 -->
<g id="edge34" class="edge">
<title>link_31&#45;&gt;anchortext_34</title>
<path fill="none" stroke="#000000" stroke-dasharray="5,2" d="M2506,-194.4799C2506,-180.1953 2506,-160.1047 2506,-143.7485"/>
<polygon fill="#000000" stroke="#000000" points="2509.5001,-143.638 2506,-133.6381 2502.5001,-143.6381 2509.5001,-143.638"/>
</g>
<!-- url_35 -->
<g id="node36" class="node">
<title>url_35</title>
<ellipse fill="none" stroke="#000000" cx="2602" cy="-115.4" rx="27" ry="18"/>
<text text-anchor="middle" x="2602" y="-111.2" font-family="Helvetica,sans-Serif" font-size="14.00" fill="#000000">url</text>
</g>
<!-- link_31&#45;&gt;url_35 -->
<g id="edge35" class="edge">
<title>link_31&#45;&gt;url_35</title>
<path fill="none" stroke="#000000" stroke-dasharray="5,2" d="M2522.897,-198.7505C2535.2622,-188.1974 2552.2152,-173.1526 2566,-158.8001 2571.817,-152.7435 2577.7777,-145.8729 2583.1328,-139.4137"/>
<polygon fill="#000000" stroke="#000000" points="2585.9391,-141.5103 2589.5354,-131.5445 2580.5093,-137.0924 2585.9391,-141.5103"/>
</g>
<!-- leaf_38 -->
<g id="node39" class="node">
<title>leaf_38</title>
<polygon fill="none" stroke="#c0c0c0" points="2701,-135.3021 2647,-135.3021 2647,-95.4979 2701,-95.4979 2701,-135.3021"/>
<text text-anchor="middle" x="2674" y="-119.9" font-family="Inconsolata" font-size="14.00" fill="#000000">.</text>
</g>
<!-- raw_32&#45;&gt;leaf_38 -->
<g id="edge38" class="edge">
<title>raw_32&#45;&gt;leaf_38</title>
<path fill="none" stroke="#000000" stroke-dasharray="5,2" d="M2602.6683,-197.4089C2612.7563,-186.715 2626.3777,-172.0591 2638,-158.8001 2642.3194,-153.8723 2646.8413,-148.5544 2651.1644,-143.3871"/>
<polygon fill="#000000" stroke="#000000" points="2654.043,-145.3991 2657.7367,-135.4689 2648.6567,-140.9283 2654.043,-145.3991"/>
</g>
<!-- leaf_36 -->
<g id="node37" class="node">
<title>leaf_36</title>
<polygon fill="none" stroke="#c0c0c0" points="2524,-36 2396,-36 2396,0 2524,0 2524,-36"/>
<text text-anchor="middle" x="2460" y="-14.5" font-family="Inconsolata" font-size="14.00" fill="#000000">tag engine notes</text>
</g>
<!-- anchortext_34&#45;&gt;leaf_36 -->
<g id="edge36" class="edge">
<title>anchortext_34&#45;&gt;leaf_36</title>
<path fill="none" stroke="#000000" stroke-dasharray="5,2" d="M2497.5629,-97.5354C2490.6681,-82.9363 2480.8072,-62.0569 2472.9187,-45.354"/>
<polygon fill="#000000" stroke="#000000" points="2475.9747,-43.6289 2468.5394,-36.0813 2469.6451,-46.6182 2475.9747,-43.6289"/>
</g>
<!-- leaf_37 -->
<g id="node38" class="node">
<title>leaf_37</title>
<polygon fill="none" stroke="#c0c0c0" points="2754,-36 2542,-36 2542,0 2754,0 2754,-36"/>
<text text-anchor="middle" x="2648" y="-14.5" font-family="Inconsolata" font-size="14.00" fill="#000000">hts://~/notes/tag&#45;engine.orb</text>
</g>
<!-- url_35&#45;&gt;leaf_37 -->
<g id="edge37" class="edge">
<title>url_35&#45;&gt;leaf_37</title>
<path fill="none" stroke="#000000" stroke-dasharray="5,2" d="M2610.2239,-97.9869C2617.0935,-83.4412 2627.0128,-62.4381 2634.9633,-45.6038"/>
<polygon fill="#000000" stroke="#000000" points="2638.2732,-46.7911 2639.379,-36.2541 2631.9436,-43.8017 2638.2732,-46.7911"/>
</g>
<!-- leaf_42 -->
<g id="node43" class="node">
<title>leaf_42</title>
<polygon fill="none" stroke="#c0c0c0" points="2819,-133.4 2719,-133.4 2719,-97.4 2819,-97.4 2819,-133.4"/>
<text text-anchor="middle" x="2769" y="-111.9" font-family="Inconsolata" font-size="14.00" fill="#000000">**** asserts</text>
</g>
<!-- header_39&#45;&gt;leaf_42 -->
<g id="edge42" class="edge">
<title>header_39&#45;&gt;leaf_42</title>
<path fill="none" stroke="#000000" stroke-dasharray="5,2" d="M2707.4085,-195.3869C2718.923,-180.4334 2735.6926,-158.6553 2748.8271,-141.5979"/>
<polygon fill="#000000" stroke="#000000" points="2751.616,-143.7128 2754.944,-133.6541 2746.0698,-139.442 2751.616,-143.7128"/>
</g>
<!-- raw_43 -->
<g id="node44" class="node">
<title>raw_43</title>
<ellipse fill="none" stroke="#000000" cx="2864" cy="-115.4" rx="27" ry="18"/>
<text text-anchor="middle" x="2864" y="-111.2" font-family="Helvetica,sans-Serif" font-size="14.00" fill="#000000">raw</text>
</g>
<!-- prose_40&#45;&gt;raw_43 -->
<g id="edge43" class="edge">
<title>prose_40&#45;&gt;raw_43</title>
<path fill="none" stroke="#000000" stroke-dasharray="5,2" d="M2807.0189,-195.8343C2817.8692,-180.518 2833.9743,-157.7841 2846.2973,-140.3891"/>
<polygon fill="#000000" stroke="#000000" points="2849.4241,-142.03 2852.3488,-131.8469 2843.7121,-137.9836 2849.4241,-142.03"/>
</g>
<!-- leaf_45 -->
<g id="node46" class="node">
<title>leaf_45</title>
<polygon fill="none" stroke="#c0c0c0" points="2963,-133.4 2909,-133.4 2909,-97.4 2963,-97.4 2963,-133.4"/>
</g>
<!-- codeblock_41&#45;&gt;leaf_45 -->
<g id="edge45" class="edge">
<title>codeblock_41&#45;&gt;leaf_45</title>
<path fill="none" stroke="#000000" stroke-dasharray="5,2" d="M2925.4452,-194.4799C2927.3518,-180.1953 2930.0333,-160.1047 2932.2163,-143.7485"/>
<polygon fill="#000000" stroke="#000000" points="2935.7119,-144.0133 2933.5658,-133.6381 2928.7735,-143.0871 2935.7119,-144.0133"/>
</g>
<!-- leaf_44 -->
<g id="node45" class="node">
<title>leaf_44</title>
<polygon fill="none" stroke="#c0c0c0" points="2891,-36 2837,-36 2837,0 2891,0 2891,-36"/>
</g>
<!-- raw_43&#45;&gt;leaf_44 -->
<g id="edge44" class="edge">
<title>raw_43&#45;&gt;leaf_44</title>
<path fill="none" stroke="#000000" stroke-dasharray="5,2" d="M2864,-97.0798C2864,-82.7953 2864,-62.7046 2864,-46.3485"/>
<polygon fill="#000000" stroke="#000000" points="2867.5001,-46.238 2864,-36.2381 2860.5001,-46.2381 2867.5001,-46.238"/>
</g>
<!-- leaf_49 -->
<g id="node50" class="node">
<title>leaf_49</title>
<polygon fill="none" stroke="#c0c0c0" points="3113.5,-133.4 3006.5,-133.4 3006.5,-97.4 3113.5,-97.4 3113.5,-133.4"/>
<text text-anchor="middle" x="3060" y="-111.9" font-family="Inconsolata" font-size="14.00" fill="#000000">**** requires</text>
</g>
<!-- header_46&#45;&gt;leaf_49 -->
<g id="edge49" class="edge">
<title>header_46&#45;&gt;leaf_49</title>
<path fill="none" stroke="#000000" stroke-dasharray="5,2" d="M3070.5548,-194.4799C3068.6482,-180.1953 3065.9667,-160.1047 3063.7837,-143.7485"/>
<polygon fill="#000000" stroke="#000000" points="3067.2265,-143.0871 3062.4342,-133.6381 3060.2881,-144.0133 3067.2265,-143.0871"/>
</g>
<!-- raw_50 -->
<g id="node51" class="node">
<title>raw_50</title>
<ellipse fill="none" stroke="#000000" cx="3159" cy="-115.4" rx="27" ry="18"/>
<text text-anchor="middle" x="3159" y="-111.2" font-family="Helvetica,sans-Serif" font-size="14.00" fill="#000000">raw</text>
</g>
<!-- prose_47&#45;&gt;raw_50 -->
<g id="edge50" class="edge">
<title>prose_47&#45;&gt;raw_50</title>
<path fill="none" stroke="#000000" stroke-dasharray="5,2" d="M3174.4262,-194.4799C3171.6221,-180.1049 3167.671,-159.8501 3164.4695,-143.4384"/>
<polygon fill="#000000" stroke="#000000" points="3167.8435,-142.4539 3162.4935,-133.309 3160.973,-143.7942 3167.8435,-142.4539"/>
</g>
<!-- leaf_52 -->
<g id="node53" class="node">
<title>leaf_52</title>
<polygon fill="none" stroke="#c0c0c0" points="3493.5,-133.4 3204.5,-133.4 3204.5,-97.4 3493.5,-97.4 3493.5,-133.4"/>
<text text-anchor="middle" x="3349" y="-111.9" font-family="Inconsolata" font-size="14.00" fill="#000000">local esp = require &quot;espalier:espalier&quot;</text>
</g>
<!-- codeblock_48&#45;&gt;leaf_52 -->
<g id="edge52" class="edge">
<title>codeblock_48&#45;&gt;leaf_52</title>
<path fill="none" stroke="#000000" stroke-dasharray="5,2" d="M3331.9499,-194.4799C3335.0298,-180.1953 3339.3614,-160.1047 3342.8879,-143.7485"/>
<polygon fill="#000000" stroke="#000000" points="3346.3815,-144.1512 3345.0678,-133.6381 3339.5387,-142.6758 3346.3815,-144.1512"/>
</g>
<!-- leaf_51 -->
<g id="node52" class="node">
<title>leaf_51</title>
<polygon fill="none" stroke="#c0c0c0" points="3186,-36 3132,-36 3132,0 3186,0 3186,-36"/>
</g>
<!-- raw_50&#45;&gt;leaf_51 -->
<g id="edge51" class="edge">
<title>raw_50&#45;&gt;leaf_51</title>
<path fill="none" stroke="#000000" stroke-dasharray="5,2" d="M3159,-97.0798C3159,-82.7953 3159,-62.7046 3159,-46.3485"/>
<polygon fill="#000000" stroke="#000000" points="3162.5001,-46.238 3159,-36.2381 3155.5001,-46.2381 3162.5001,-46.238"/>
</g>
<!-- leaf_56 -->
<g id="node57" class="node">
<title>leaf_56</title>
<polygon fill="none" stroke="#c0c0c0" points="3590.5,-133.4 3511.5,-133.4 3511.5,-97.4 3590.5,-97.4 3590.5,-133.4"/>
<text text-anchor="middle" x="3551" y="-111.9" font-family="Inconsolata" font-size="14.00" fill="#000000">** OrbTag</text>
</g>
<!-- header_53&#45;&gt;leaf_56 -->
<g id="edge56" class="edge">
<title>header_53&#45;&gt;leaf_56</title>
<path fill="none" stroke="#000000" stroke-dasharray="5,2" d="M3546.9405,-194.4799C3547.6738,-180.1953 3548.7051,-160.1047 3549.5447,-143.7485"/>
<polygon fill="#000000" stroke="#000000" points="3553.0464,-143.8044 3550.0638,-133.6381 3546.0556,-143.4455 3553.0464,-143.8044"/>
</g>
<!-- raw_57 -->
<g id="node58" class="node">
<title>raw_57</title>
<ellipse fill="none" stroke="#000000" cx="3644" cy="-115.4" rx="27" ry="18"/>
<text text-anchor="middle" x="3644" y="-111.2" font-family="Helvetica,sans-Serif" font-size="14.00" fill="#000000">raw</text>
</g>
<!-- prose_54&#45;&gt;raw_57 -->
<g id="edge57" class="edge">
<title>prose_54&#45;&gt;raw_57</title>
<path fill="none" stroke="#000000" stroke-dasharray="5,2" d="M3647.2476,-194.4799C3646.661,-180.1953 3645.8359,-160.1047 3645.1642,-143.7485"/>
<polygon fill="#000000" stroke="#000000" points="3648.6565,-143.486 3644.749,-133.6381 3641.6624,-143.7733 3648.6565,-143.486"/>
</g>
<!-- leaf_59 -->
<g id="node60" class="node">
<title>leaf_59</title>
<polygon fill="none" stroke="#c0c0c0" points="3894.5,-133.4 3689.5,-133.4 3689.5,-97.4 3894.5,-97.4 3894.5,-133.4"/>
<text text-anchor="middle" x="3792" y="-111.9" font-family="Inconsolata" font-size="14.00" fill="#000000">local OrbTag = esp.stator()</text>
</g>
<!-- codeblock_55&#45;&gt;leaf_59 -->
<g id="edge59" class="edge">
<title>codeblock_55&#45;&gt;leaf_59</title>
<path fill="none" stroke="#000000" stroke-dasharray="5,2" d="M3787.1286,-194.4799C3788.0085,-180.1953 3789.2461,-160.1047 3790.2537,-143.7485"/>
<polygon fill="#000000" stroke="#000000" points="3793.7549,-143.8344 3790.8765,-133.6381 3786.7682,-143.4039 3793.7549,-143.8344"/>
</g>
<!-- leaf_58 -->
<g id="node59" class="node">
<title>leaf_58</title>
<polygon fill="none" stroke="#c0c0c0" points="3671,-36 3617,-36 3617,0 3671,0 3671,-36"/>
</g>
<!-- raw_57&#45;&gt;leaf_58 -->
<g id="edge58" class="edge">
<title>raw_57&#45;&gt;leaf_58</title>
<path fill="none" stroke="#000000" stroke-dasharray="5,2" d="M3644,-97.0798C3644,-82.7953 3644,-62.7046 3644,-46.3485"/>
<polygon fill="#000000" stroke="#000000" points="3647.5001,-46.238 3644,-36.2381 3640.5001,-46.2381 3647.5001,-46.238"/>
</g>
</g>
</svg>
