<?xml version="1.0" encoding="UTF-8" standalone="no"?>
<!DOCTYPE svg PUBLIC "-//W3C//DTD SVG 1.1//EN"
 "http://www.w3.org/Graphics/SVG/1.1/DTD/svg11.dtd">
<!-- Generated by graphviz version 2.40.1 (20161225.0304)
 -->
<!-- Title: lpegNode Pages: 1 -->
<svg width="2229pt" height="383pt"
 viewBox="0.00 0.00 2228.50 382.80" xmlns="http://www.w3.org/2000/svg" xmlns:xlink="http://www.w3.org/1999/xlink">
<g id="graph0" class="graph" transform="scale(1 1) rotate(0) translate(4 378.8001)">
<title>lpegNode</title>
<polygon fill="#ffffff" stroke="transparent" points="-4,4 -4,-378.8001 2224.5,-378.8001 2224.5,4 -4,4"/>
<!-- doc_0 -->
<g id="node1" class="node">
<title>doc_0</title>
<ellipse fill="none" stroke="#000000" cx="949" cy="-356.8001" rx="42.1216" ry="18"/>
<text text-anchor="middle" x="949" y="-352.6001" font-family="Helvetica,sans-Serif" font-size="14.00" fill="#000000">doc &#45; 13</text>
</g>
<!-- section_1 -->
<g id="node2" class="node">
<title>section_1</title>
<ellipse fill="none" stroke="#000000" cx="949" cy="-284.8001" rx="60.9826" ry="18"/>
<text text-anchor="middle" x="949" y="-280.6001" font-family="Helvetica,sans-Serif" font-size="14.00" fill="#000000">section: 1&#45;13</text>
</g>
<!-- doc_0&#45;&gt;section_1 -->
<g id="edge1" class="edge">
<title>doc_0&#45;&gt;section_1</title>
<path fill="none" stroke="#000000" stroke-dasharray="5,2" d="M949,-338.6314C949,-330.931 949,-321.7744 949,-313.2167"/>
<polygon fill="#000000" stroke="#000000" points="952.5001,-313.2133 949,-303.2133 945.5001,-313.2134 952.5001,-313.2133"/>
</g>
<!-- header_2 -->
<g id="node3" class="node">
<title>header_2</title>
<ellipse fill="none" stroke="#000000" cx="499" cy="-212.8001" rx="49.8568" ry="18"/>
<text text-anchor="middle" x="499" y="-208.6001" font-family="Helvetica,sans-Serif" font-size="14.00" fill="#000000">1 : orb tag</text>
</g>
<!-- section_1&#45;&gt;header_2 -->
<g id="edge2" class="edge">
<title>section_1&#45;&gt;header_2</title>
<path fill="none" stroke="#000000" stroke-dasharray="5,2" d="M895.1665,-276.1867C809.2194,-262.4352 641.84,-235.6545 554.7187,-221.7151"/>
<polygon fill="#000000" stroke="#000000" points="555.1852,-218.2453 544.7578,-220.1213 554.0792,-225.1573 555.1852,-218.2453"/>
</g>
<!-- prose_3 -->
<g id="node4" class="node">
<title>prose_3</title>
<ellipse fill="none" stroke="#000000" cx="685" cy="-212.8001" rx="32.4585" ry="18"/>
<text text-anchor="middle" x="685" y="-208.6001" font-family="Helvetica,sans-Serif" font-size="14.00" fill="#000000">prose</text>
</g>
<!-- section_1&#45;&gt;prose_3 -->
<g id="edge3" class="edge">
<title>section_1&#45;&gt;prose_3</title>
<path fill="none" stroke="#000000" stroke-dasharray="5,2" d="M904.216,-272.5862C853.5371,-258.7647 771.813,-236.4763 723.7641,-223.3721"/>
<polygon fill="#000000" stroke="#000000" points="724.614,-219.9761 714.0454,-220.7215 722.7721,-226.7295 724.614,-219.9761"/>
</g>
<!-- prose_4 -->
<g id="node5" class="node">
<title>prose_4</title>
<ellipse fill="none" stroke="#000000" cx="949" cy="-212.8001" rx="32.4585" ry="18"/>
<text text-anchor="middle" x="949" y="-208.6001" font-family="Helvetica,sans-Serif" font-size="14.00" fill="#000000">prose</text>
</g>
<!-- section_1&#45;&gt;prose_4 -->
<g id="edge4" class="edge">
<title>section_1&#45;&gt;prose_4</title>
<path fill="none" stroke="#000000" stroke-dasharray="5,2" d="M949,-266.6314C949,-258.931 949,-249.7744 949,-241.2167"/>
<polygon fill="#000000" stroke="#000000" points="952.5001,-241.2133 949,-231.2133 945.5001,-241.2134 952.5001,-241.2133"/>
</g>
<!-- prose_5 -->
<g id="node6" class="node">
<title>prose_5</title>
<ellipse fill="none" stroke="#000000" cx="1059" cy="-212.8001" rx="32.4585" ry="18"/>
<text text-anchor="middle" x="1059" y="-208.6001" font-family="Helvetica,sans-Serif" font-size="14.00" fill="#000000">prose</text>
</g>
<!-- section_1&#45;&gt;prose_5 -->
<g id="edge5" class="edge">
<title>section_1&#45;&gt;prose_5</title>
<path fill="none" stroke="#000000" stroke-dasharray="5,2" d="M974.2362,-268.2818C990.6565,-257.534 1012.1416,-243.471 1029.3722,-232.1928"/>
<polygon fill="#000000" stroke="#000000" points="1031.4952,-234.9863 1037.9454,-226.5812 1027.6616,-229.1294 1031.4952,-234.9863"/>
</g>
<!-- prose_6 -->
<g id="node7" class="node">
<title>prose_6</title>
<ellipse fill="none" stroke="#000000" cx="1155" cy="-212.8001" rx="32.4585" ry="18"/>
<text text-anchor="middle" x="1155" y="-208.6001" font-family="Helvetica,sans-Serif" font-size="14.00" fill="#000000">prose</text>
</g>
<!-- section_1&#45;&gt;prose_6 -->
<g id="edge6" class="edge">
<title>section_1&#45;&gt;prose_6</title>
<path fill="none" stroke="#000000" stroke-dasharray="5,2" d="M988.7189,-270.9177C1026.0161,-257.8818 1081.3878,-238.5286 1117.8318,-225.7909"/>
<polygon fill="#000000" stroke="#000000" points="1119.2931,-228.9879 1127.5783,-222.3844 1116.9834,-222.3798 1119.2931,-228.9879"/>
</g>
<!-- leaf_7 -->
<g id="node8" class="node">
<title>leaf_7</title>
<polygon fill="none" stroke="#c0c0c0" points="452.5,-158.8001 373.5,-158.8001 373.5,-122.8001 452.5,-122.8001 452.5,-158.8001"/>
<text text-anchor="middle" x="413" y="-137.3001" font-family="Inconsolata" font-size="14.00" fill="#000000">* orb tag</text>
</g>
<!-- header_2&#45;&gt;leaf_7 -->
<g id="edge7" class="edge">
<title>header_2&#45;&gt;leaf_7</title>
<path fill="none" stroke="#000000" stroke-dasharray="5,2" d="M479.0537,-196.1008C468.1451,-186.9681 454.4262,-175.4825 442.3215,-165.3483"/>
<polygon fill="#000000" stroke="#000000" points="444.5603,-162.658 434.6459,-158.9222 440.0667,-168.0253 444.5603,-162.658"/>
</g>
<!-- raw_8 -->
<g id="node9" class="node">
<title>raw_8</title>
<ellipse fill="none" stroke="#000000" cx="498" cy="-140.8001" rx="27" ry="18"/>
<text text-anchor="middle" x="498" y="-136.6001" font-family="Helvetica,sans-Serif" font-size="14.00" fill="#000000">raw</text>
</g>
<!-- prose_3&#45;&gt;raw_8 -->
<g id="edge8" class="edge">
<title>prose_3&#45;&gt;raw_8</title>
<path fill="none" stroke="#000000" stroke-dasharray="5,2" d="M656.7815,-203.8372C626.1521,-193.8486 575.9919,-176.7297 534,-158.8001 532.2167,-158.0386 530.3969,-157.2307 528.5697,-156.3955"/>
<polygon fill="#000000" stroke="#000000" points="530.0375,-153.2179 519.504,-152.0786 527.028,-159.5379 530.0375,-153.2179"/>
</g>
<!-- prespace_9 -->
<g id="node10" class="node">
<title>prespace_9</title>
<ellipse fill="none" stroke="#000000" cx="589" cy="-140.8001" rx="46.4736" ry="18"/>
<text text-anchor="middle" x="589" y="-136.6001" font-family="Helvetica,sans-Serif" font-size="14.00" fill="#000000">prespace</text>
</g>
<!-- prose_3&#45;&gt;prespace_9 -->
<g id="edge9" class="edge">
<title>prose_3&#45;&gt;prespace_9</title>
<path fill="none" stroke="#000000" stroke-dasharray="5,2" d="M665.573,-198.2298C652.0746,-188.106 633.8362,-174.4272 618.5453,-162.959"/>
<polygon fill="#000000" stroke="#000000" points="620.5024,-160.0519 610.4024,-156.8519 616.3024,-165.6519 620.5024,-160.0519"/>
</g>
<!-- literal_10 -->
<g id="node11" class="node">
<title>literal_10</title>
<ellipse fill="none" stroke="#000000" cx="685" cy="-140.8001" rx="31.481" ry="18"/>
<text text-anchor="middle" x="685" y="-136.6001" font-family="Helvetica,sans-Serif" font-size="14.00" fill="#000000">literal</text>
</g>
<!-- prose_3&#45;&gt;literal_10 -->
<g id="edge10" class="edge">
<title>prose_3&#45;&gt;literal_10</title>
<path fill="none" stroke="#000000" stroke-dasharray="5,2" d="M685,-194.6314C685,-186.931 685,-177.7744 685,-169.2167"/>
<polygon fill="#000000" stroke="#000000" points="688.5001,-169.2133 685,-159.2133 681.5001,-169.2134 688.5001,-169.2133"/>
</g>
<!-- raw_11 -->
<g id="node12" class="node">
<title>raw_11</title>
<ellipse fill="none" stroke="#000000" cx="761" cy="-140.8001" rx="27" ry="18"/>
<text text-anchor="middle" x="761" y="-136.6001" font-family="Helvetica,sans-Serif" font-size="14.00" fill="#000000">raw</text>
</g>
<!-- prose_3&#45;&gt;raw_11 -->
<g id="edge11" class="edge">
<title>prose_3&#45;&gt;raw_11</title>
<path fill="none" stroke="#000000" stroke-dasharray="5,2" d="M701.4909,-197.1771C712.1629,-187.0668 726.2097,-173.7593 737.976,-162.6123"/>
<polygon fill="#000000" stroke="#000000" points="740.468,-165.0727 745.3204,-155.6544 735.6538,-159.991 740.468,-165.0727"/>
</g>
<!-- prespace_16 -->
<g id="node17" class="node">
<title>prespace_16</title>
<ellipse fill="none" stroke="#000000" cx="853" cy="-140.8001" rx="46.4736" ry="18"/>
<text text-anchor="middle" x="853" y="-136.6001" font-family="Helvetica,sans-Serif" font-size="14.00" fill="#000000">prespace</text>
</g>
<!-- prose_4&#45;&gt;prespace_16 -->
<g id="edge16" class="edge">
<title>prose_4&#45;&gt;prespace_16</title>
<path fill="none" stroke="#000000" stroke-dasharray="5,2" d="M929.573,-198.2298C916.0746,-188.106 897.8362,-174.4272 882.5453,-162.959"/>
<polygon fill="#000000" stroke="#000000" points="884.5024,-160.0519 874.4024,-156.8519 880.3024,-165.6519 884.5024,-160.0519"/>
</g>
<!-- literal_17 -->
<g id="node18" class="node">
<title>literal_17</title>
<ellipse fill="none" stroke="#000000" cx="949" cy="-140.8001" rx="31.481" ry="18"/>
<text text-anchor="middle" x="949" y="-136.6001" font-family="Helvetica,sans-Serif" font-size="14.00" fill="#000000">literal</text>
</g>
<!-- prose_4&#45;&gt;literal_17 -->
<g id="edge17" class="edge">
<title>prose_4&#45;&gt;literal_17</title>
<path fill="none" stroke="#000000" stroke-dasharray="5,2" d="M949,-194.6314C949,-186.931 949,-177.7744 949,-169.2167"/>
<polygon fill="#000000" stroke="#000000" points="952.5001,-169.2133 949,-159.2133 945.5001,-169.2134 952.5001,-169.2133"/>
</g>
<!-- raw_18 -->
<g id="node19" class="node">
<title>raw_18</title>
<ellipse fill="none" stroke="#000000" cx="1051" cy="-140.8001" rx="27" ry="18"/>
<text text-anchor="middle" x="1051" y="-136.6001" font-family="Helvetica,sans-Serif" font-size="14.00" fill="#000000">raw</text>
</g>
<!-- prose_4&#45;&gt;raw_18 -->
<g id="edge18" class="edge">
<title>prose_4&#45;&gt;raw_18</title>
<path fill="none" stroke="#000000" stroke-dasharray="5,2" d="M969.1519,-198.5752C984.7751,-187.5471 1006.5847,-172.152 1023.7624,-160.0266"/>
<polygon fill="#000000" stroke="#000000" points="1026.1144,-162.6506 1032.2656,-154.0243 1022.0775,-156.9318 1026.1144,-162.6506"/>
</g>
<!-- raw_22 -->
<g id="node23" class="node">
<title>raw_22</title>
<ellipse fill="none" stroke="#000000" cx="1274" cy="-140.8001" rx="27" ry="18"/>
<text text-anchor="middle" x="1274" y="-136.6001" font-family="Helvetica,sans-Serif" font-size="14.00" fill="#000000">raw</text>
</g>
<!-- prose_5&#45;&gt;raw_22 -->
<g id="edge22" class="edge">
<title>prose_5&#45;&gt;raw_22</title>
<path fill="none" stroke="#000000" stroke-dasharray="5,2" d="M1086.6673,-203.5347C1125.9361,-190.3842 1197.7645,-166.3301 1240.1569,-152.1336"/>
<polygon fill="#000000" stroke="#000000" points="1241.3821,-155.4144 1249.7531,-148.92 1239.1592,-148.7767 1241.3821,-155.4144"/>
</g>
<!-- raw_24 -->
<g id="node25" class="node">
<title>raw_24</title>
<ellipse fill="none" stroke="#000000" cx="1648" cy="-140.8001" rx="27" ry="18"/>
<text text-anchor="middle" x="1648" y="-136.6001" font-family="Helvetica,sans-Serif" font-size="14.00" fill="#000000">raw</text>
</g>
<!-- prose_6&#45;&gt;raw_24 -->
<g id="edge24" class="edge">
<title>prose_6&#45;&gt;raw_24</title>
<path fill="none" stroke="#000000" stroke-dasharray="5,2" d="M1186.2134,-208.2415C1273.2395,-195.5318 1518.2861,-159.7441 1611.4408,-146.1393"/>
<polygon fill="#000000" stroke="#000000" points="1612.1275,-149.5763 1621.5167,-144.6678 1611.1158,-142.6497 1612.1275,-149.5763"/>
</g>
<!-- leaf_12 -->
<g id="node13" class="node">
<title>leaf_12</title>
<polygon fill="none" stroke="#c0c0c0" points="548,-86.7003 0,-86.7003 0,-.0997 548,-.0997 548,-86.7003"/>
<text text-anchor="middle" x="274" y="-23.6001" font-family="Inconsolata" font-size="14.00" fill="#000000">This is an inner verb, in the sense that while one can call it from an outer</text>
<text text-anchor="middle" x="274" y="-8.2" font-family="Inconsolata" font-size="14.00" fill="#000000">context it is normally invoked as the next step after</text>
</g>
<!-- raw_8&#45;&gt;leaf_12 -->
<g id="edge12" class="edge">
<title>raw_8&#45;&gt;leaf_12</title>
<path fill="none" stroke="#000000" stroke-dasharray="5,2" d="M476.1753,-129.9532C471.2095,-127.5493 465.9412,-125.0492 461,-122.8001 437.5164,-112.1108 412.184,-101.0469 387.9771,-90.6955"/>
<polygon fill="#000000" stroke="#000000" points="389.3324,-87.4685 378.7609,-86.7653 386.5865,-93.9075 389.3324,-87.4685"/>
</g>
<!-- leaf_13 -->
<g id="node14" class="node">
<title>leaf_13</title>
<polygon fill="none" stroke="#c0c0c0" points="620,-61.4 566,-61.4 566,-25.4 620,-25.4 620,-61.4"/>
<text text-anchor="middle" x="593" y="-39.9" font-family="Inconsolata" font-size="14.00" fill="#000000"> </text>
</g>
<!-- prespace_9&#45;&gt;leaf_13 -->
<g id="edge13" class="edge">
<title>prespace_9&#45;&gt;leaf_13</title>
<path fill="none" stroke="#000000" stroke-dasharray="5,2" d="M589.7524,-122.4799C590.339,-108.1953 591.1641,-88.1047 591.8358,-71.7485"/>
<polygon fill="#000000" stroke="#000000" points="595.3376,-71.7733 592.251,-61.6381 588.3435,-71.486 595.3376,-71.7733"/>
</g>
<!-- leaf_14 -->
<g id="node15" class="node">
<title>leaf_14</title>
<polygon fill="none" stroke="#c0c0c0" points="696,-61.4 642,-61.4 642,-25.4 696,-25.4 696,-61.4"/>
<text text-anchor="middle" x="669" y="-39.9" font-family="Inconsolata" font-size="14.00" fill="#000000">spin</text>
</g>
<!-- literal_10&#45;&gt;leaf_14 -->
<g id="edge14" class="edge">
<title>literal_10&#45;&gt;leaf_14</title>
<path fill="none" stroke="#000000" stroke-dasharray="5,2" d="M681.9905,-122.4799C679.644,-108.1953 676.3437,-88.1047 673.6568,-71.7485"/>
<polygon fill="#000000" stroke="#000000" points="677.0708,-70.9385 671.996,-61.6381 670.1633,-72.0732 677.0708,-70.9385"/>
</g>
<!-- leaf_15 -->
<g id="node16" class="node">
<title>leaf_15</title>
<polygon fill="none" stroke="#c0c0c0" points="807.5,-61.4 714.5,-61.4 714.5,-25.4 807.5,-25.4 807.5,-61.4"/>
<text text-anchor="middle" x="761" y="-39.9" font-family="Inconsolata" font-size="14.00" fill="#000000">ning a Doc.</text>
</g>
<!-- raw_11&#45;&gt;leaf_15 -->
<g id="edge15" class="edge">
<title>raw_11&#45;&gt;leaf_15</title>
<path fill="none" stroke="#000000" stroke-dasharray="5,2" d="M761,-122.4799C761,-108.1953 761,-88.1047 761,-71.7485"/>
<polygon fill="#000000" stroke="#000000" points="764.5001,-71.638 761,-61.6381 757.5001,-71.6381 764.5001,-71.638"/>
</g>
<!-- leaf_19 -->
<g id="node20" class="node">
<title>leaf_19</title>
<polygon fill="none" stroke="#c0c0c0" points="880,-61.4 826,-61.4 826,-25.4 880,-25.4 880,-61.4"/>
</g>
<!-- prespace_16&#45;&gt;leaf_19 -->
<g id="edge19" class="edge">
<title>prespace_16&#45;&gt;leaf_19</title>
<path fill="none" stroke="#000000" stroke-dasharray="5,2" d="M853,-122.4799C853,-108.1953 853,-88.1047 853,-71.7485"/>
<polygon fill="#000000" stroke="#000000" points="856.5001,-71.638 853,-61.6381 849.5001,-71.6381 856.5001,-71.638"/>
</g>
<!-- leaf_20 -->
<g id="node21" class="node">
<title>leaf_20</title>
<polygon fill="none" stroke="#c0c0c0" points="963.5,-61.4 898.5,-61.4 898.5,-25.4 963.5,-25.4 963.5,-61.4"/>
<text text-anchor="middle" x="931" y="-39.9" font-family="Inconsolata" font-size="14.00" fill="#000000">orb tag</text>
</g>
<!-- literal_17&#45;&gt;leaf_20 -->
<g id="edge20" class="edge">
<title>literal_17&#45;&gt;leaf_20</title>
<path fill="none" stroke="#000000" stroke-dasharray="5,2" d="M945.6143,-122.4799C942.9745,-108.1953 939.2616,-88.1047 936.2389,-71.7485"/>
<polygon fill="#000000" stroke="#000000" points="939.6296,-70.8355 934.3705,-61.6381 932.7461,-72.1076 939.6296,-70.8355"/>
</g>
<!-- leaf_21 -->
<g id="node22" class="node">
<title>leaf_21</title>
<polygon fill="none" stroke="#c0c0c0" points="1172.5,-61.4 981.5,-61.4 981.5,-25.4 1172.5,-25.4 1172.5,-61.4"/>
<text text-anchor="middle" x="1077" y="-39.9" font-family="Inconsolata" font-size="14.00" fill="#000000"> operates the tag engine.</text>
</g>
<!-- raw_18&#45;&gt;leaf_21 -->
<g id="edge21" class="edge">
<title>raw_18&#45;&gt;leaf_21</title>
<path fill="none" stroke="#000000" stroke-dasharray="5,2" d="M1055.7688,-122.9354C1059.6295,-108.4728 1065.1354,-87.8467 1069.5728,-71.2234"/>
<polygon fill="#000000" stroke="#000000" points="1072.9758,-72.0457 1072.1734,-61.4813 1066.2126,-70.2403 1072.9758,-72.0457"/>
</g>
<!-- leaf_23 -->
<g id="node24" class="node">
<title>leaf_23</title>
<polygon fill="none" stroke="#c0c0c0" points="1661.5,-63.3021 1190.5,-63.3021 1190.5,-23.4979 1661.5,-23.4979 1661.5,-63.3021"/>
<text text-anchor="middle" x="1426" y="-31.9" font-family="Inconsolata" font-size="14.00" fill="#000000">This turns Hashtag and Hashline classes into metadata on the AST.</text>
</g>
<!-- raw_22&#45;&gt;leaf_23 -->
<g id="edge23" class="edge">
<title>raw_22&#45;&gt;leaf_23</title>
<path fill="none" stroke="#000000" stroke-dasharray="5,2" d="M1293.5602,-128.2661C1316.9859,-113.2551 1356.8012,-87.7419 1386.6737,-68.5999"/>
<polygon fill="#000000" stroke="#000000" points="1388.6727,-71.4759 1395.2041,-63.1338 1384.896,-65.5822 1388.6727,-71.4759"/>
</g>
<!-- leaf_25 -->
<g id="node26" class="node">
<title>leaf_25</title>
<polygon fill="none" stroke="#c0c0c0" points="2220.5,-71.3015 1679.5,-71.3015 1679.5,-15.4985 2220.5,-15.4985 2220.5,-71.3015"/>
<text text-anchor="middle" x="1950" y="-39.9" font-family="Inconsolata" font-size="14.00" fill="#000000">This metadata is in turn used to guide the realization of subsequent steps.</text>
</g>
<!-- raw_24&#45;&gt;leaf_25 -->
<g id="edge25" class="edge">
<title>raw_24&#45;&gt;leaf_25</title>
<path fill="none" stroke="#000000" stroke-dasharray="5,2" d="M1672.4581,-132.9119C1711.6594,-120.2688 1790.6247,-94.8012 1854.3366,-74.2531"/>
<polygon fill="#000000" stroke="#000000" points="1855.5775,-77.5305 1864.0204,-71.1299 1853.4288,-70.8684 1855.5775,-77.5305"/>
</g>
</g>
</svg>
