<?xml version="1.0" encoding="UTF-8" standalone="no"?>
<!DOCTYPE svg PUBLIC "-//W3C//DTD SVG 1.1//EN"
 "http://www.w3.org/Graphics/SVG/1.1/DTD/svg11.dtd">
<!-- Generated by graphviz version 2.40.1 (20161225.0304)
 -->
<!-- Title: lpegNode Pages: 1 -->
<svg width="746pt" height="459pt"
 viewBox="0.00 0.00 746.00 458.60" xmlns="http://www.w3.org/2000/svg" xmlns:xlink="http://www.w3.org/1999/xlink">
<g id="graph0" class="graph" transform="scale(1 1) rotate(0) translate(4 454.6003)">
<title>lpegNode</title>
<polygon fill="#ffffff" stroke="transparent" points="-4,4 -4,-454.6003 742,-454.6003 742,4 -4,4"/>
<!-- doc_0 -->
<g id="node1" class="node">
<title>doc_0</title>
<ellipse fill="none" stroke="#000000" cx="215" cy="-432.6003" rx="42.1216" ry="18"/>
<text text-anchor="middle" x="215" y="-428.4003" font-family="Helvetica,sans-Serif" font-size="14.00" fill="#000000">doc &#45; 20</text>
</g>
<!-- section_1 -->
<g id="node2" class="node">
<title>section_1</title>
<ellipse fill="none" stroke="#000000" cx="215" cy="-360.6003" rx="60.9826" ry="18"/>
<text text-anchor="middle" x="215" y="-356.4003" font-family="Helvetica,sans-Serif" font-size="14.00" fill="#000000">section: 1&#45;20</text>
</g>
<!-- doc_0&#45;&gt;section_1 -->
<g id="edge1" class="edge">
<title>doc_0&#45;&gt;section_1</title>
<path fill="none" stroke="#000000" stroke-dasharray="5,2" d="M215,-414.4316C215,-406.7312 215,-397.5746 215,-389.0169"/>
<polygon fill="#000000" stroke="#000000" points="218.5001,-389.0135 215,-379.0135 211.5001,-389.0136 218.5001,-389.0135"/>
</g>
<!-- header_2 -->
<g id="node3" class="node">
<title>header_2</title>
<ellipse fill="none" stroke="#000000" cx="52" cy="-288.6003" rx="42.6061" ry="18"/>
<text text-anchor="middle" x="52" y="-284.4003" font-family="Helvetica,sans-Serif" font-size="14.00" fill="#000000">1 : Spec</text>
</g>
<!-- section_1&#45;&gt;header_2 -->
<g id="edge2" class="edge">
<title>section_1&#45;&gt;header_2</title>
<path fill="none" stroke="#000000" stroke-dasharray="5,2" d="M180.8299,-345.5067C154.525,-333.8874 118.1536,-317.8215 90.7631,-305.7226"/>
<polygon fill="#000000" stroke="#000000" points="92.042,-302.4613 81.4804,-301.6223 89.2136,-308.8645 92.042,-302.4613"/>
</g>
<!-- prose_3 -->
<g id="node4" class="node">
<title>prose_3</title>
<ellipse fill="none" stroke="#000000" cx="156" cy="-288.6003" rx="32.4585" ry="18"/>
<text text-anchor="middle" x="156" y="-284.4003" font-family="Helvetica,sans-Serif" font-size="14.00" fill="#000000">prose</text>
</g>
<!-- section_1&#45;&gt;prose_3 -->
<g id="edge3" class="edge">
<title>section_1&#45;&gt;prose_3</title>
<path fill="none" stroke="#000000" stroke-dasharray="5,2" d="M200.4157,-342.8025C193.0577,-333.8232 184.0196,-322.7937 176.0216,-313.0334"/>
<polygon fill="#000000" stroke="#000000" points="178.653,-310.7225 169.6076,-305.2061 173.2386,-315.1593 178.653,-310.7225"/>
</g>
<!-- codeblock_4 -->
<g id="node5" class="node">
<title>codeblock_4</title>
<ellipse fill="none" stroke="#000000" cx="280" cy="-288.6003" rx="67.748" ry="18"/>
<text text-anchor="middle" x="280" y="-284.4003" font-family="Helvetica,sans-Serif" font-size="14.00" fill="#000000">code block 3&#45;5</text>
</g>
<!-- section_1&#45;&gt;codeblock_4 -->
<g id="edge4" class="edge">
<title>section_1&#45;&gt;codeblock_4</title>
<path fill="none" stroke="#000000" stroke-dasharray="5,2" d="M230.7347,-343.1711C238.7393,-334.3044 248.6124,-323.3681 257.4131,-313.6196"/>
<polygon fill="#000000" stroke="#000000" points="260.0818,-315.8866 264.1849,-306.1185 254.8859,-311.1959 260.0818,-315.8866"/>
</g>
<!-- codeblock_5 -->
<g id="node6" class="node">
<title>codeblock_5</title>
<ellipse fill="none" stroke="#000000" cx="514" cy="-288.6003" rx="72.5844" ry="18"/>
<text text-anchor="middle" x="514" y="-284.4003" font-family="Helvetica,sans-Serif" font-size="14.00" fill="#000000">code block 9&#45;20</text>
</g>
<!-- section_1&#45;&gt;codeblock_5 -->
<g id="edge5" class="edge">
<title>section_1&#45;&gt;codeblock_5</title>
<path fill="none" stroke="#000000" stroke-dasharray="5,2" d="M262.3774,-349.1917C313.6399,-336.8475 395.588,-317.1142 451.9551,-303.5409"/>
<polygon fill="#000000" stroke="#000000" points="452.9167,-306.9094 461.8194,-301.1655 451.2778,-300.104 452.9167,-306.9094"/>
</g>
<!-- leaf_6 -->
<g id="node7" class="node">
<title>leaf_6</title>
<polygon fill="none" stroke="#c0c0c0" points="58,-171.3001 0,-171.3001 0,-135.3001 58,-135.3001 58,-171.3001"/>
<text text-anchor="middle" x="29" y="-149.8002" font-family="Inconsolata" font-size="14.00" fill="#000000">* Spec</text>
</g>
<!-- header_2&#45;&gt;leaf_6 -->
<g id="edge6" class="edge">
<title>header_2&#45;&gt;leaf_6</title>
<path fill="none" stroke="#000000" stroke-dasharray="5,2" d="M48.9458,-270.6335C45.0622,-247.788 38.3148,-208.0953 33.7552,-181.2729"/>
<polygon fill="#000000" stroke="#000000" points="37.1933,-180.6132 32.0669,-171.3413 30.2923,-181.7864 37.1933,-180.6132"/>
</g>
<!-- raw_7 -->
<g id="node8" class="node">
<title>raw_7</title>
<ellipse fill="none" stroke="#000000" cx="103" cy="-153.3001" rx="27" ry="18"/>
<text text-anchor="middle" x="103" y="-149.1001" font-family="Helvetica,sans-Serif" font-size="14.00" fill="#000000">raw</text>
</g>
<!-- prose_3&#45;&gt;raw_7 -->
<g id="edge7" class="edge">
<title>prose_3&#45;&gt;raw_7</title>
<path fill="none" stroke="#000000" stroke-dasharray="5,2" d="M149.0712,-270.9122C140.0644,-247.9194 124.2427,-207.5292 113.6912,-180.5931"/>
<polygon fill="#000000" stroke="#000000" points="116.8368,-179.0271 109.9305,-170.9926 110.3191,-181.5803 116.8368,-179.0271"/>
</g>
<!-- leaf_9 -->
<g id="node10" class="node">
<title>leaf_9</title>
<polygon fill="none" stroke="#c0c0c0" points="423.5,-171.3001 148.5,-171.3001 148.5,-135.3001 423.5,-135.3001 423.5,-171.3001"/>
<text text-anchor="middle" x="286" y="-149.8002" font-family="Inconsolata" font-size="14.00" fill="#000000">local walk_spec = require &quot;walk_spec&quot;</text>
</g>
<!-- codeblock_4&#45;&gt;leaf_9 -->
<g id="edge9" class="edge">
<title>codeblock_4&#45;&gt;leaf_9</title>
<path fill="none" stroke="#000000" stroke-dasharray="5,2" d="M280.8092,-270.3531C281.8157,-247.6571 283.5455,-208.6494 284.7295,-181.9502"/>
<polygon fill="#000000" stroke="#000000" points="288.2379,-181.8356 285.1845,-171.6903 281.2448,-181.5254 288.2379,-181.8356"/>
</g>
<!-- leaf_10 -->
<g id="node11" class="node">
<title>leaf_10</title>
<polygon fill="none" stroke="#c0c0c0" points="738,-234.4009 442,-234.4009 442,-72.1994 738,-72.1994 738,-234.4009"/>
<text text-anchor="middle" x="590" y="-219.4003" font-family="Inconsolata" font-size="14.00" fill="#000000">local function Specify()</text>
<text text-anchor="middle" x="590" y="-204.0002" font-family="Inconsolata" font-size="14.00" fill="#000000"> &#160;local results = {}</text>
<text text-anchor="middle" x="590" y="-188.6002" font-family="Inconsolata" font-size="14.00" fill="#000000"> &#160;local folder = walk_spec.folder .. &quot;/&quot;</text>
<text text-anchor="middle" x="590" y="-173.2002" font-family="Inconsolata" font-size="14.00" fill="#000000"> &#160;for class, fn in pairs(walk_spec) do</text>
<text text-anchor="middle" x="590" y="-157.8002" font-family="Inconsolata" font-size="14.00" fill="#000000"> &#160;&#160;&#160;results[folder .. class] = fn()</text>
<text text-anchor="middle" x="590" y="-142.4001" font-family="Inconsolata" font-size="14.00" fill="#000000"> &#160;end</text>
<text text-anchor="middle" x="590" y="-127.0001" font-family="Inconsolata" font-size="14.00" fill="#000000"> &#160;return results</text>
<text text-anchor="middle" x="590" y="-111.6001" font-family="Inconsolata" font-size="14.00" fill="#000000">end</text>
<text text-anchor="middle" x="590" y="-80.2" font-family="Inconsolata" font-size="14.00" fill="#000000">return Specify</text>
</g>
<!-- codeblock_5&#45;&gt;leaf_10 -->
<g id="edge10" class="edge">
<title>codeblock_5&#45;&gt;leaf_10</title>
<path fill="none" stroke="#000000" stroke-dasharray="5,2" d="M524.0922,-270.6335C528.3508,-263.052 533.6516,-253.6152 539.3846,-243.4091"/>
<polygon fill="#000000" stroke="#000000" points="542.4425,-245.1116 544.2884,-234.6788 536.3394,-241.6834 542.4425,-245.1116"/>
</g>
<!-- leaf_8 -->
<g id="node9" class="node">
<title>leaf_8</title>
<polygon fill="none" stroke="#c0c0c0" points="130,-36 76,-36 76,0 130,0 130,-36"/>
</g>
<!-- raw_7&#45;&gt;leaf_8 -->
<g id="edge8" class="edge">
<title>raw_7&#45;&gt;leaf_8</title>
<path fill="none" stroke="#000000" stroke-dasharray="5,2" d="M103,-135.053C103,-112.357 103,-73.3493 103,-46.6501"/>
<polygon fill="#000000" stroke="#000000" points="106.5001,-46.3902 103,-36.3902 99.5001,-46.3902 106.5001,-46.3902"/>
</g>
</g>
</svg>