<?xml version="1.0" encoding="UTF-8" standalone="no"?>
<!DOCTYPE svg PUBLIC "-//W3C//DTD SVG 1.1//EN"
 "http://www.w3.org/Graphics/SVG/1.1/DTD/svg11.dtd">
<!-- Generated by graphviz version 2.40.1 (20161225.0304)
 -->
<!-- Title: lpegNode Pages: 1 -->
<svg width="760pt" height="738pt"
 viewBox="0.00 0.00 760.00 737.60" xmlns="http://www.w3.org/2000/svg" xmlns:xlink="http://www.w3.org/1999/xlink">
<g id="graph0" class="graph" transform="scale(1 1) rotate(0) translate(4 733.6007)">
<title>lpegNode</title>
<polygon fill="#ffffff" stroke="transparent" points="-4,4 -4,-733.6007 756,-733.6007 756,4 -4,4"/>
<!-- doc_0 -->
<g id="node1" class="node">
<title>doc_0</title>
<ellipse fill="none" stroke="#000000" cx="344.5" cy="-711.6007" rx="42.1216" ry="18"/>
<text text-anchor="middle" x="344.5" y="-707.4007" font-family="Helvetica,sans-Serif" font-size="14.00" fill="#000000">doc &#45; 43</text>
</g>
<!-- section_1 -->
<g id="node2" class="node">
<title>section_1</title>
<ellipse fill="none" stroke="#000000" cx="344.5" cy="-639.6007" rx="60.9826" ry="18"/>
<text text-anchor="middle" x="344.5" y="-635.4007" font-family="Helvetica,sans-Serif" font-size="14.00" fill="#000000">section: 1&#45;43</text>
</g>
<!-- doc_0&#45;&gt;section_1 -->
<g id="edge1" class="edge">
<title>doc_0&#45;&gt;section_1</title>
<path fill="none" stroke="#000000" stroke-dasharray="5,2" d="M344.5,-693.4321C344.5,-685.7317 344.5,-676.5751 344.5,-668.0174"/>
<polygon fill="#000000" stroke="#000000" points="348.0001,-668.014 344.5,-658.014 341.0001,-668.0141 348.0001,-668.014"/>
</g>
<!-- header_2 -->
<g id="node3" class="node">
<title>header_2</title>
<ellipse fill="none" stroke="#000000" cx="112.5" cy="-567.6007" rx="109.1208" ry="18"/>
<text text-anchor="middle" x="112.5" y="-563.4007" font-family="Helvetica,sans-Serif" font-size="14.00" fill="#000000">1 : Spec for Walk classes</text>
</g>
<!-- section_1&#45;&gt;header_2 -->
<g id="edge2" class="edge">
<title>section_1&#45;&gt;header_2</title>
<path fill="none" stroke="#000000" stroke-dasharray="5,2" d="M302.4866,-626.5621C266.5383,-615.4057 214.32,-599.2001 173.7217,-586.6006"/>
<polygon fill="#000000" stroke="#000000" points="174.5201,-583.1838 163.9321,-583.5624 172.4453,-589.8692 174.5201,-583.1838"/>
</g>
<!-- prose_3 -->
<g id="node4" class="node">
<title>prose_3</title>
<ellipse fill="none" stroke="#000000" cx="283.5" cy="-567.6007" rx="32.4585" ry="18"/>
<text text-anchor="middle" x="283.5" y="-563.4007" font-family="Helvetica,sans-Serif" font-size="14.00" fill="#000000">prose</text>
</g>
<!-- section_1&#45;&gt;prose_3 -->
<g id="edge3" class="edge">
<title>section_1&#45;&gt;prose_3</title>
<path fill="none" stroke="#000000" stroke-dasharray="5,2" d="M329.4213,-621.803C321.8139,-612.8237 312.4694,-601.7942 304.2003,-592.0339"/>
<polygon fill="#000000" stroke="#000000" points="306.7035,-589.574 297.5688,-584.2066 301.3626,-594.0989 306.7035,-589.574"/>
</g>
<!-- codeblock_4 -->
<g id="node5" class="node">
<title>codeblock_4</title>
<ellipse fill="none" stroke="#000000" cx="412.5" cy="-567.6007" rx="72.5844" ry="18"/>
<text text-anchor="middle" x="412.5" y="-563.4007" font-family="Helvetica,sans-Serif" font-size="14.00" fill="#000000">code block 3&#45;32</text>
</g>
<!-- section_1&#45;&gt;codeblock_4 -->
<g id="edge4" class="edge">
<title>section_1&#45;&gt;codeblock_4</title>
<path fill="none" stroke="#000000" stroke-dasharray="5,2" d="M360.9609,-622.1716C369.2729,-613.3706 379.5109,-602.5304 388.6658,-592.8369"/>
<polygon fill="#000000" stroke="#000000" points="391.3966,-595.043 395.7183,-585.3696 386.3075,-590.2366 391.3966,-595.043"/>
</g>
<!-- codeblock_5 -->
<g id="node6" class="node">
<title>codeblock_5</title>
<ellipse fill="none" stroke="#000000" cx="625.5" cy="-567.6007" rx="77.4211" ry="18"/>
<text text-anchor="middle" x="625.5" y="-563.4007" font-family="Helvetica,sans-Serif" font-size="14.00" fill="#000000">code block 34&#45;42</text>
</g>
<!-- section_1&#45;&gt;codeblock_5 -->
<g id="edge5" class="edge">
<title>section_1&#45;&gt;codeblock_5</title>
<path fill="none" stroke="#000000" stroke-dasharray="5,2" d="M390.5868,-627.792C437.687,-615.7237 511.1339,-596.9045 563.3532,-583.5245"/>
<polygon fill="#000000" stroke="#000000" points="564.354,-586.8812 573.1724,-581.0085 562.6165,-580.1002 564.354,-586.8812"/>
</g>
<!-- leaf_6 -->
<g id="node7" class="node">
<title>leaf_6</title>
<polygon fill="none" stroke="#c0c0c0" points="177,-310.8004 0,-310.8004 0,-274.8004 177,-274.8004 177,-310.8004"/>
<text text-anchor="middle" x="88.5" y="-289.3004" font-family="Inconsolata" font-size="14.00" fill="#000000">* Spec for Walk classes</text>
</g>
<!-- header_2&#45;&gt;leaf_6 -->
<g id="edge6" class="edge">
<title>header_2&#45;&gt;leaf_6</title>
<path fill="none" stroke="#000000" stroke-dasharray="5,2" d="M110.9253,-549.5703C106.8399,-502.7929 95.8777,-377.2747 90.9538,-320.8966"/>
<polygon fill="#000000" stroke="#000000" points="94.4374,-320.5547 90.0805,-310.8972 87.4639,-321.1638 94.4374,-320.5547"/>
</g>
<!-- raw_7 -->
<g id="node8" class="node">
<title>raw_7</title>
<ellipse fill="none" stroke="#000000" cx="222.5" cy="-292.8004" rx="27" ry="18"/>
<text text-anchor="middle" x="222.5" y="-288.6004" font-family="Helvetica,sans-Serif" font-size="14.00" fill="#000000">raw</text>
</g>
<!-- prose_3&#45;&gt;raw_7 -->
<g id="edge7" class="edge">
<title>prose_3&#45;&gt;raw_7</title>
<path fill="none" stroke="#000000" stroke-dasharray="5,2" d="M273.9082,-550.0825C268.6275,-539.7431 262.3775,-526.2431 258.5,-513.6007 237.8606,-446.3079 228.402,-363.6387 224.6373,-321.0861"/>
<polygon fill="#000000" stroke="#000000" points="228.1082,-320.5925 223.78,-310.9221 221.133,-321.181 228.1082,-320.5925"/>
</g>
<!-- leaf_9 -->
<g id="node10" class="node">
<title>leaf_9</title>
<polygon fill="none" stroke="#c0c0c0" points="571,-513.4013 268,-513.4013 268,-72.1994 571,-72.1994 571,-513.4013"/>
<text text-anchor="middle" x="419.5" y="-498.4007" font-family="Inconsolata" font-size="14.00" fill="#000000">local Path = require &quot;walk/path&quot;</text>
<text text-anchor="middle" x="419.5" y="-483.0007" font-family="Inconsolata" font-size="14.00" fill="#000000">local Dir &#160;= require &quot;walk/path&quot;</text>
<text text-anchor="middle" x="419.5" y="-451.6007" font-family="Inconsolata" font-size="14.00" fill="#000000">local Spec = {}</text>
<text text-anchor="middle" x="419.5" y="-420.2007" font-family="Inconsolata" font-size="14.00" fill="#000000">Spec.folder = &quot;walk&quot;</text>
<text text-anchor="middle" x="419.5" y="-388.8006" font-family="Inconsolata" font-size="14.00" fill="#000000">function Spec.path()</text>
<text text-anchor="middle" x="419.5" y="-373.4006" font-family="Inconsolata" font-size="14.00" fill="#000000"> &#160;local a = Path &quot;/core/build/&quot;</text>
<text text-anchor="middle" x="419.5" y="-358.0006" font-family="Inconsolata" font-size="14.00" fill="#000000"> &#160;local b = a .. &quot;codex.orb&quot;</text>
<text text-anchor="middle" x="419.5" y="-342.6005" font-family="Inconsolata" font-size="14.00" fill="#000000"> &#160;local c = a .. &quot;/bar/&quot;</text>
<text text-anchor="middle" x="419.5" y="-327.2005" font-family="Inconsolata" font-size="14.00" fill="#000000"> &#160;local a1, b1</text>
<text text-anchor="middle" x="419.5" y="-311.8005" font-family="Inconsolata" font-size="14.00" fill="#000000"> &#160;&#45;&#45; new way</text>
<text text-anchor="middle" x="419.5" y="-296.4004" font-family="Inconsolata" font-size="14.00" fill="#000000"> &#160;b, b1 = b: it(&quot;a file Path&quot;)</text>
<text text-anchor="middle" x="419.5" y="-281.0004" font-family="Inconsolata" font-size="14.00" fill="#000000"> &#160;&#160;&#160;&#160;: must(&quot;have some fields&quot;)</text>
<text text-anchor="middle" x="419.5" y="-265.6004" font-family="Inconsolata" font-size="14.00" fill="#000000"> &#160;&#160;&#160;&#160;&#160;&#160;&#160;: have &quot;str&quot;</text>
<text text-anchor="middle" x="419.5" y="-250.2003" font-family="Inconsolata" font-size="14.00" fill="#000000"> &#160;&#160;&#160;&#160;&#160;&#160;&#160;: equalTo &quot;/core/build/codex.orb&quot;</text>
<text text-anchor="middle" x="419.5" y="-234.8003" font-family="Inconsolata" font-size="14.00" fill="#000000"> &#160;&#160;&#160;&#160;&#160;&#160;&#160;: ofLen(#b.str)</text>
<text text-anchor="middle" x="419.5" y="-219.4003" font-family="Inconsolata" font-size="14.00" fill="#000000"> &#160;&#160;&#160;&#160;&#160;&#160;&#160;: have &quot;isPath&quot;</text>
<text text-anchor="middle" x="419.5" y="-204.0002" font-family="Inconsolata" font-size="14.00" fill="#000000"> &#160;&#160;&#160;&#160;&#160;&#160;&#160;: equalTo(Path)</text>
<text text-anchor="middle" x="419.5" y="-188.6002" font-family="Inconsolata" font-size="14.00" fill="#000000"> &#160;&#160;&#160;&#160;&#160;&#160;&#160;: report()</text>
<text text-anchor="middle" x="419.5" y="-157.2002" font-family="Inconsolata" font-size="14.00" fill="#000000"> &#160;a, a1 = a: it(): mustnt()</text>
<text text-anchor="middle" x="419.5" y="-141.8002" font-family="Inconsolata" font-size="14.00" fill="#000000"> &#160;&#160;&#160;&#160;: have &quot;brack&quot;</text>
<text text-anchor="middle" x="419.5" y="-126.4001" font-family="Inconsolata" font-size="14.00" fill="#000000"> &#160;&#160;&#160;&#160;: have &quot;broil&quot;</text>
<text text-anchor="middle" x="419.5" y="-111.0001" font-family="Inconsolata" font-size="14.00" fill="#000000"> &#160;&#160;&#160;&#160;: have &quot;badAttitude&quot;</text>
<text text-anchor="middle" x="419.5" y="-95.6001" font-family="Inconsolata" font-size="14.00" fill="#000000"> &#160;&#160;&#160;&#160;: report()</text>
<text text-anchor="middle" x="419.5" y="-80.2" font-family="Inconsolata" font-size="14.00" fill="#000000">end</text>
</g>
<!-- codeblock_4&#45;&gt;leaf_9 -->
<g id="edge9" class="edge">
<title>codeblock_4&#45;&gt;leaf_9</title>
<path fill="none" stroke="#000000" stroke-dasharray="5,2" d="M412.9593,-549.5703C413.1391,-542.5123 413.3645,-533.6617 413.6227,-523.5264"/>
<polygon fill="#000000" stroke="#000000" points="417.124,-523.518 413.8798,-513.4321 410.1262,-523.3397 417.124,-523.518"/>
</g>
<!-- leaf_10 -->
<g id="node11" class="node">
<title>leaf_10</title>
<polygon fill="none" stroke="#c0c0c0" points="752,-351.2013 589,-351.2013 589,-234.3995 752,-234.3995 752,-351.2013"/>
<text text-anchor="middle" x="670.5" y="-335.8005" font-family="Inconsolata" font-size="14.00" fill="#000000">function Spec.dir()</text>
<text text-anchor="middle" x="670.5" y="-320.4004" font-family="Inconsolata" font-size="14.00" fill="#000000">end</text>
<text text-anchor="middle" x="670.5" y="-289.0004" font-family="Inconsolata" font-size="14.00" fill="#000000">return function()</text>
<text text-anchor="middle" x="670.5" y="-273.6004" font-family="Inconsolata" font-size="14.00" fill="#000000"> &#160;&#160;&#160;&#160;&#160;&#160;&#160;&#160;&#160;Spec.path()</text>
<text text-anchor="middle" x="670.5" y="-258.2003" font-family="Inconsolata" font-size="14.00" fill="#000000"> &#160;&#160;&#160;&#160;&#160;&#160;&#160;&#160;&#160;Spec.dir()</text>
<text text-anchor="middle" x="670.5" y="-242.8003" font-family="Inconsolata" font-size="14.00" fill="#000000"> &#160;&#160;&#160;&#160;&#160;&#160;end</text>
</g>
<!-- codeblock_5&#45;&gt;leaf_10 -->
<g id="edge10" class="edge">
<title>codeblock_5&#45;&gt;leaf_10</title>
<path fill="none" stroke="#000000" stroke-dasharray="5,2" d="M628.4526,-549.5703C634.5927,-512.0747 649.0176,-423.9864 659.2553,-361.4684"/>
<polygon fill="#000000" stroke="#000000" points="662.7618,-361.7123 660.924,-351.2781 655.8539,-360.5811 662.7618,-361.7123"/>
</g>
<!-- leaf_8 -->
<g id="node9" class="node">
<title>leaf_8</title>
<polygon fill="none" stroke="#c0c0c0" points="249.5,-36 195.5,-36 195.5,0 249.5,0 249.5,-36"/>
</g>
<!-- raw_7&#45;&gt;leaf_8 -->
<g id="edge8" class="edge">
<title>raw_7&#45;&gt;leaf_8</title>
<path fill="none" stroke="#000000" stroke-dasharray="5,2" d="M222.5,-274.77C222.5,-228.0898 222.5,-102.9959 222.5,-46.4487"/>
<polygon fill="#000000" stroke="#000000" points="226.0001,-46.0968 222.5,-36.0968 219.0001,-46.0968 226.0001,-46.0968"/>
</g>
</g>
</svg>