<?xml version="1.0" encoding="UTF-8" standalone="no"?>
<!DOCTYPE svg PUBLIC "-//W3C//DTD SVG 1.1//EN"
 "http://www.w3.org/Graphics/SVG/1.1/DTD/svg11.dtd">
<!-- Generated by graphviz version 2.40.1 (20161225.0304)
 -->
<!-- Title: hierarchy Pages: 1 -->
<svg width="613pt" height="573pt"
 viewBox="0.00 0.00 612.50 572.80" xmlns="http://www.w3.org/2000/svg" xmlns:xlink="http://www.w3.org/1999/xlink">
<g id="graph0" class="graph" transform="scale(1 1) rotate(0) translate(4 568.8004)">
<title>hierarchy</title>
<polygon fill="#ffffff" stroke="transparent" points="-4,4 -4,-568.8004 608.5,-568.8004 608.5,4 -4,4"/>
<!-- doc_0 -->
<g id="node1" class="node">
<title>doc_0</title>
<ellipse fill="none" stroke="#000000" cx="256.5" cy="-546.8004" rx="42.1216" ry="18"/>
<text text-anchor="middle" x="256.5" y="-542.6004" font-family="Helvetica,sans-Serif" font-size="14.00" fill="#000000">doc &#45; 24</text>
</g>
<!-- section_1 -->
<g id="node2" class="node">
<title>section_1</title>
<ellipse fill="none" stroke="#000000" cx="256.5" cy="-474.8004" rx="60.9826" ry="18"/>
<text text-anchor="middle" x="256.5" y="-470.6004" font-family="Helvetica,sans-Serif" font-size="14.00" fill="#000000">section: 1&#45;24</text>
</g>
<!-- doc_0&#45;&gt;section_1 -->
<g id="edge1" class="edge">
<title>doc_0&#45;&gt;section_1</title>
<path fill="none" stroke="#000000" stroke-dasharray="5,2" d="M256.5,-528.6317C256.5,-520.9313 256.5,-511.7747 256.5,-503.217"/>
<polygon fill="#000000" stroke="#000000" points="260.0001,-503.2136 256.5,-493.2136 253.0001,-503.2137 260.0001,-503.2136"/>
</g>
<!-- header_2 -->
<g id="node3" class="node">
<title>header_2</title>
<ellipse fill="none" stroke="#000000" cx="96.5" cy="-402.8004" rx="95.7969" ry="18"/>
<text text-anchor="middle" x="96.5" y="-398.6004" font-family="Helvetica,sans-Serif" font-size="14.00" fill="#000000">1 : Handleline module</text>
</g>
<!-- section_1&#45;&gt;header_2 -->
<g id="edge2" class="edge">
<title>section_1&#45;&gt;header_2</title>
<path fill="none" stroke="#000000" stroke-dasharray="5,2" d="M222.9588,-459.7068C199.6992,-449.24 168.4213,-435.165 142.7921,-423.6318"/>
<polygon fill="#000000" stroke="#000000" points="144.1861,-420.4211 133.6306,-419.5092 141.3135,-426.8046 144.1861,-420.4211"/>
</g>
<!-- block_3 -->
<g id="node4" class="node">
<title>block_3</title>
<ellipse fill="none" stroke="#000000" cx="256.5" cy="-402.8004" rx="45.9804" ry="18"/>
<text text-anchor="middle" x="256.5" y="-398.6004" font-family="Helvetica,sans-Serif" font-size="14.00" fill="#000000">block 1&#45;4</text>
</g>
<!-- section_1&#45;&gt;block_3 -->
<g id="edge3" class="edge">
<title>section_1&#45;&gt;block_3</title>
<path fill="none" stroke="#000000" stroke-dasharray="5,2" d="M256.5,-456.6317C256.5,-448.9313 256.5,-439.7747 256.5,-431.217"/>
<polygon fill="#000000" stroke="#000000" points="260.0001,-431.2136 256.5,-421.2136 253.0001,-431.2137 260.0001,-431.2136"/>
</g>
<!-- block_4 -->
<g id="node5" class="node">
<title>block_4</title>
<ellipse fill="none" stroke="#000000" cx="449.5" cy="-402.8004" rx="50.8172" ry="18"/>
<text text-anchor="middle" x="449.5" y="-398.6004" font-family="Helvetica,sans-Serif" font-size="14.00" fill="#000000">block 5&#45;24</text>
</g>
<!-- section_1&#45;&gt;block_4 -->
<g id="edge4" class="edge">
<title>section_1&#45;&gt;block_4</title>
<path fill="none" stroke="#000000" stroke-dasharray="5,2" d="M294.6306,-460.5755C326.3261,-448.7513 371.4784,-431.9069 404.8565,-419.4549"/>
<polygon fill="#000000" stroke="#000000" points="406.2266,-422.6795 414.3725,-415.9049 403.7799,-416.121 406.2266,-422.6795"/>
</g>
<!-- leaf_5 -->
<g id="node6" class="node">
<title>leaf_5</title>
<polygon fill="none" stroke="#c0c0c0" points="359,-349.0024 0,-349.0024 0,-309.1983 359,-309.1983 359,-349.0024"/>
<text text-anchor="middle" x="179.5" y="-317.6004" font-family="Inconsolata" font-size="14.00" fill="#000000"> &#160;&#160;A minimalist Node container for a handle line.</text>
</g>
<!-- block_3&#45;&gt;leaf_5 -->
<g id="edge5" class="edge">
<title>block_3&#45;&gt;leaf_5</title>
<path fill="none" stroke="#000000" stroke-dasharray="5,2" d="M239.0275,-386.0767C229.7442,-377.1912 218.1079,-366.0536 207.5918,-355.9882"/>
<polygon fill="#000000" stroke="#000000" points="209.8264,-353.2822 200.182,-348.896 204.9861,-358.3391 209.8264,-353.2822"/>
</g>
<!-- codeblock_6 -->
<g id="node7" class="node">
<title>codeblock_6</title>
<ellipse fill="none" stroke="#000000" cx="449.5" cy="-329.1004" rx="72.5844" ry="18"/>
<text text-anchor="middle" x="449.5" y="-324.9004" font-family="Helvetica,sans-Serif" font-size="14.00" fill="#000000">code block 5&#45;23</text>
</g>
<!-- block_4&#45;&gt;codeblock_6 -->
<g id="edge6" class="edge">
<title>block_4&#45;&gt;codeblock_6</title>
<path fill="none" stroke="#000000" stroke-dasharray="5,2" d="M449.5,-384.5824C449.5,-376.3715 449.5,-366.4858 449.5,-357.3476"/>
<polygon fill="#000000" stroke="#000000" points="453.0001,-357.1087 449.5,-347.1088 446.0001,-357.1088 453.0001,-357.1087"/>
</g>
<!-- leaf_8 -->
<g id="node9" class="node">
<title>leaf_8</title>
<polygon fill="none" stroke="#c0c0c0" points="594.5,-347.1004 540.5,-347.1004 540.5,-311.1004 594.5,-311.1004 594.5,-347.1004"/>
</g>
<!-- block_4&#45;&gt;leaf_8 -->
<g id="edge8" class="edge">
<title>block_4&#45;&gt;leaf_8</title>
<path fill="none" stroke="#000000" stroke-dasharray="5,2" d="M474.814,-386.9899C491.3417,-376.667 513.1733,-363.0315 531.4966,-351.5872"/>
<polygon fill="#000000" stroke="#000000" points="533.5438,-354.4352 540.1713,-346.1692 529.8356,-348.4981 533.5438,-354.4352"/>
</g>
<!-- leaf_7 -->
<g id="node8" class="node">
<title>leaf_7</title>
<polygon fill="none" stroke="#c0c0c0" points="604.5,-273.6008 294.5,-273.6008 294.5,.2005 604.5,.2005 604.5,-273.6008"/>
<text text-anchor="middle" x="449.5" y="-258.2003" font-family="Inconsolata" font-size="14.00" fill="#000000">local Node = require &quot;peg/node&quot;</text>
<text text-anchor="middle" x="449.5" y="-242.8003" font-family="Inconsolata" font-size="14.00" fill="#000000">local u = require &quot;../lib/util&quot;</text>
<text text-anchor="middle" x="449.5" y="-211.4003" font-family="Inconsolata" font-size="14.00" fill="#000000">local Handle = require &quot;grym/handle&quot;</text>
<text text-anchor="middle" x="449.5" y="-180.0002" font-family="Inconsolata" font-size="14.00" fill="#000000">local H, h = u.inherit(Node)</text>
<text text-anchor="middle" x="449.5" y="-148.6002" font-family="Inconsolata" font-size="14.00" fill="#000000">local function new(Hashline, line)</text>
<text text-anchor="middle" x="449.5" y="-133.2002" font-family="Inconsolata" font-size="14.00" fill="#000000"> &#160;&#160;&#160;local handleline = setmetatable({}, H)</text>
<text text-anchor="middle" x="449.5" y="-117.8002" font-family="Inconsolata" font-size="14.00" fill="#000000"> &#160;&#160;&#160;handleline.id = &quot;handleline&quot;</text>
<text text-anchor="middle" x="449.5" y="-102.4001" font-family="Inconsolata" font-size="14.00" fill="#000000"> &#160;&#160;&#160;handleline[1] = Handle(line)</text>
<text text-anchor="middle" x="449.5" y="-71.0001" font-family="Inconsolata" font-size="14.00" fill="#000000"> &#160;&#160;&#160;return handleline</text>
<text text-anchor="middle" x="449.5" y="-55.6001" font-family="Inconsolata" font-size="14.00" fill="#000000">end</text>
<text text-anchor="middle" x="449.5" y="-8.2" font-family="Inconsolata" font-size="14.00" fill="#000000">return u.export(h, new)</text>
</g>
<!-- codeblock_6&#45;&gt;leaf_7 -->
<g id="edge7" class="edge">
<title>codeblock_6&#45;&gt;leaf_7</title>
<path fill="none" stroke="#000000" stroke-dasharray="5,2" d="M449.5,-310.9998C449.5,-303.6273 449.5,-294.3944 449.5,-284.0488"/>
<polygon fill="#000000" stroke="#000000" points="453.0001,-283.8131 449.5,-273.8132 446.0001,-283.8132 453.0001,-283.8131"/>
</g>
</g>
</svg>