<?xml version="1.0" encoding="UTF-8" standalone="no"?>
<!DOCTYPE svg PUBLIC "-//W3C//DTD SVG 1.1//EN"
 "http://www.w3.org/Graphics/SVG/1.1/DTD/svg11.dtd">
<!-- Generated by graphviz version 2.40.1 (20161225.0304)
 -->
<!-- Title: hierarchy Pages: 1 -->
<svg width="437pt" height="727pt"
 viewBox="0.00 0.00 437.00 727.40" xmlns="http://www.w3.org/2000/svg" xmlns:xlink="http://www.w3.org/1999/xlink">
<g id="graph0" class="graph" transform="scale(1 1) rotate(0) translate(4 723.4007)">
<title>hierarchy</title>
<polygon fill="#ffffff" stroke="transparent" points="-4,4 -4,-723.4007 433,-723.4007 433,4 -4,4"/>
<!-- doc_0 -->
<g id="node1" class="node">
<title>doc_0</title>
<ellipse fill="none" stroke="#000000" cx="142.5" cy="-701.4007" rx="27" ry="18"/>
<text text-anchor="middle" x="142.5" y="-697.2007" font-family="Helvetica,sans-Serif" font-size="14.00" fill="#000000">33 &#160;</text>
</g>
<!-- section_1 -->
<g id="node2" class="node">
<title>section_1</title>
<ellipse fill="none" stroke="#000000" cx="142.5" cy="-629.4007" rx="27" ry="18"/>
<text text-anchor="middle" x="142.5" y="-625.2007" font-family="Helvetica,sans-Serif" font-size="14.00" fill="#000000">33 &#160;</text>
</g>
<!-- doc_0&#45;&gt;section_1 -->
<g id="edge1" class="edge">
<title>doc_0&#45;&gt;section_1</title>
<path fill="none" stroke="#000000" stroke-dasharray="5,2" d="M142.5,-683.232C142.5,-675.5316 142.5,-666.375 142.5,-657.8173"/>
<polygon fill="#000000" stroke="#000000" points="146.0001,-657.8139 142.5,-647.8139 139.0001,-657.814 146.0001,-657.8139"/>
</g>
<!-- header_2 -->
<g id="node3" class="node">
<title>header_2</title>
<ellipse fill="none" stroke="#000000" cx="70.5" cy="-557.4007" rx="27" ry="18"/>
<text text-anchor="middle" x="70.5" y="-553.2007" font-family="Helvetica,sans-Serif" font-size="14.00" fill="#000000">le &#160;</text>
</g>
<!-- section_1&#45;&gt;header_2 -->
<g id="edge2" class="edge">
<title>section_1&#45;&gt;header_2</title>
<path fill="none" stroke="#000000" stroke-dasharray="5,2" d="M127.2307,-614.1313C117.303,-604.2037 104.1847,-591.0853 93.0637,-579.9643"/>
<polygon fill="#000000" stroke="#000000" points="95.2933,-577.2442 85.7473,-572.648 90.3436,-582.194 95.2933,-577.2442"/>
</g>
<!-- block_3 -->
<g id="node4" class="node">
<title>block_3</title>
<ellipse fill="none" stroke="#000000" cx="142.5" cy="-557.4007" rx="27" ry="18"/>
<text text-anchor="middle" x="142.5" y="-553.2007" font-family="Helvetica,sans-Serif" font-size="14.00" fill="#000000">&#45;3 &#160;</text>
</g>
<!-- section_1&#45;&gt;block_3 -->
<g id="edge3" class="edge">
<title>section_1&#45;&gt;block_3</title>
<path fill="none" stroke="#000000" stroke-dasharray="5,2" d="M142.5,-611.232C142.5,-603.5316 142.5,-594.375 142.5,-585.8173"/>
<polygon fill="#000000" stroke="#000000" points="146.0001,-585.8139 142.5,-575.8139 139.0001,-585.814 146.0001,-585.8139"/>
</g>
<!-- block_4 -->
<g id="node5" class="node">
<title>block_4</title>
<ellipse fill="none" stroke="#000000" cx="214.5" cy="-557.4007" rx="27" ry="18"/>
<text text-anchor="middle" x="214.5" y="-553.2007" font-family="Helvetica,sans-Serif" font-size="14.00" fill="#000000">33 &#160;</text>
</g>
<!-- section_1&#45;&gt;block_4 -->
<g id="edge4" class="edge">
<title>section_1&#45;&gt;block_4</title>
<path fill="none" stroke="#000000" stroke-dasharray="5,2" d="M157.7693,-614.1313C167.697,-604.2037 180.8153,-591.0853 191.9363,-579.9643"/>
<polygon fill="#000000" stroke="#000000" points="194.6564,-582.194 199.2527,-572.648 189.7067,-577.2442 194.6564,-582.194"/>
</g>
<!-- leaf_5 -->
<g id="node6" class="node">
<title>leaf_5</title>
<polygon fill="none" stroke="#c0c0c0" points="169.5,-503.4007 115.5,-503.4007 115.5,-463.4007 169.5,-463.4007 169.5,-503.4007"/>
</g>
<!-- block_3&#45;&gt;leaf_5 -->
<g id="edge5" class="edge">
<title>block_3&#45;&gt;leaf_5</title>
<path fill="none" stroke="#000000" stroke-dasharray="5,2" d="M142.5,-539.1085C142.5,-531.4407 142.5,-522.3181 142.5,-513.6978"/>
<polygon fill="#000000" stroke="#000000" points="146.0001,-513.5634 142.5,-503.5634 139.0001,-513.5635 146.0001,-513.5634"/>
</g>
<!-- codeblock_6 -->
<g id="node7" class="node">
<title>codeblock_6</title>
<ellipse fill="none" stroke="#000000" cx="214.5" cy="-483.4007" rx="27" ry="18"/>
<text text-anchor="middle" x="214.5" y="-479.2007" font-family="Helvetica,sans-Serif" font-size="14.00" fill="#000000">32 &#160;</text>
</g>
<!-- block_4&#45;&gt;codeblock_6 -->
<g id="edge6" class="edge">
<title>block_4&#45;&gt;codeblock_6</title>
<path fill="none" stroke="#000000" stroke-dasharray="5,2" d="M214.5,-539.1085C214.5,-530.8642 214.5,-520.9382 214.5,-511.7629"/>
<polygon fill="#000000" stroke="#000000" points="218.0001,-511.4823 214.5,-501.4824 211.0001,-511.4824 218.0001,-511.4823"/>
</g>
<!-- leaf_8 -->
<g id="node9" class="node">
<title>leaf_8</title>
<polygon fill="none" stroke="#c0c0c0" points="313.5,-501.4007 259.5,-501.4007 259.5,-465.4007 313.5,-465.4007 313.5,-501.4007"/>
</g>
<!-- block_4&#45;&gt;leaf_8 -->
<g id="edge8" class="edge">
<title>block_4&#45;&gt;leaf_8</title>
<path fill="none" stroke="#000000" stroke-dasharray="5,2" d="M229.4184,-542.0678C238.7222,-532.5056 250.9265,-519.9623 261.6613,-508.9293"/>
<polygon fill="#000000" stroke="#000000" points="264.3397,-511.1955 268.8047,-501.5875 259.3226,-506.314 264.3397,-511.1955"/>
</g>
<!-- leaf_7 -->
<g id="node8" class="node">
<title>leaf_7</title>
<polygon fill="none" stroke="#c0c0c0" points="429,-427.6012 0,-427.6012 0,.2005 429,.2005 429,-427.6012"/>
<text text-anchor="middle" x="214.5" y="-412.2007" font-family="Inconsolata" font-size="14.00" fill="#000000">local L = require &quot;lpeg&quot;</text>
<text text-anchor="middle" x="214.5" y="-380.8006" font-family="Inconsolata" font-size="14.00" fill="#000000">local Node = require &quot;peg/node&quot;</text>
<text text-anchor="middle" x="214.5" y="-365.4006" font-family="Inconsolata" font-size="14.00" fill="#000000">local u = require &quot;../lib/util&quot;</text>
<text text-anchor="middle" x="214.5" y="-334.0006" font-family="Inconsolata" font-size="14.00" fill="#000000">local m = require &quot;grym/morphemes&quot;</text>
<text text-anchor="middle" x="214.5" y="-302.6005" font-family="Inconsolata" font-size="14.00" fill="#000000">local H, h = u.inherit(Node)</text>
<text text-anchor="middle" x="214.5" y="-271.2005" font-family="Inconsolata" font-size="14.00" fill="#000000">function h.matchHandle(line)</text>
<text text-anchor="middle" x="214.5" y="-255.8005" font-family="Inconsolata" font-size="14.00" fill="#000000"> &#160;&#160;&#160;local handlen = L.match(L.C(m.handle), line)</text>
<text text-anchor="middle" x="214.5" y="-240.4004" font-family="Inconsolata" font-size="14.00" fill="#000000"> &#160;&#160;&#160;if handlen then</text>
<text text-anchor="middle" x="214.5" y="-225.0004" font-family="Inconsolata" font-size="14.00" fill="#000000"> &#160;&#160;&#160;&#160;&#160;&#160;&#160;return handlen</text>
<text text-anchor="middle" x="214.5" y="-209.6004" font-family="Inconsolata" font-size="14.00" fill="#000000"> &#160;&#160;&#160;else</text>
<text text-anchor="middle" x="214.5" y="-194.2003" font-family="Inconsolata" font-size="14.00" fill="#000000"> &#160;&#160;&#160;&#160;&#160;&#160;&#160;return &quot;&quot;</text>
<text text-anchor="middle" x="214.5" y="-178.8003" font-family="Inconsolata" font-size="14.00" fill="#000000"> &#160;&#160;&#160;&#160;&#160;&#160;&#160;&#45;&#45;u.freeze(&quot;h.matchHandle fails to match a handle&quot;)</text>
<text text-anchor="middle" x="214.5" y="-163.4003" font-family="Inconsolata" font-size="14.00" fill="#000000"> &#160;&#160;&#160;end</text>
<text text-anchor="middle" x="214.5" y="-148.0002" font-family="Inconsolata" font-size="14.00" fill="#000000">end</text>
<text text-anchor="middle" x="214.5" y="-116.6002" font-family="Inconsolata" font-size="14.00" fill="#000000">local function new(Handle, line)</text>
<text text-anchor="middle" x="214.5" y="-101.2002" font-family="Inconsolata" font-size="14.00" fill="#000000"> &#160;&#160;&#160;local handle = setmetatable({}, H)</text>
<text text-anchor="middle" x="214.5" y="-85.8002" font-family="Inconsolata" font-size="14.00" fill="#000000"> &#160;&#160;&#160;handle.id = &quot;handle&quot;</text>
<text text-anchor="middle" x="214.5" y="-70.4001" font-family="Inconsolata" font-size="14.00" fill="#000000"> &#160;&#160;&#160;handle.val = h.matchHandle(line):sub(2, &#45;1)</text>
<text text-anchor="middle" x="214.5" y="-55.0001" font-family="Inconsolata" font-size="14.00" fill="#000000"> &#160;&#160;&#160;return handle</text>
<text text-anchor="middle" x="214.5" y="-39.6001" font-family="Inconsolata" font-size="14.00" fill="#000000">end</text>
<text text-anchor="middle" x="214.5" y="-8.2" font-family="Inconsolata" font-size="14.00" fill="#000000">return u.export(h, new)</text>
</g>
<!-- codeblock_6&#45;&gt;leaf_7 -->
<g id="edge7" class="edge">
<title>codeblock_6&#45;&gt;leaf_7</title>
<path fill="none" stroke="#000000" stroke-dasharray="5,2" d="M214.5,-465.2861C214.5,-457.8712 214.5,-448.4921 214.5,-437.7418"/>
<polygon fill="#000000" stroke="#000000" points="218.0001,-437.5006 214.5,-427.5007 211.0001,-437.5007 218.0001,-437.5006"/>
</g>
</g>
</svg>