<?xml version="1.0" encoding="UTF-8" standalone="no"?>
<!DOCTYPE svg PUBLIC "-//W3C//DTD SVG 1.1//EN"
 "http://www.w3.org/Graphics/SVG/1.1/DTD/svg11.dtd">
<!-- Generated by graphviz version 2.40.1 (20161225.0304)
 -->
<!-- Title: hierarchy Pages: 1 -->
<svg width="666pt" height="727pt"
 viewBox="0.00 0.00 666.38 727.40" xmlns="http://www.w3.org/2000/svg" xmlns:xlink="http://www.w3.org/1999/xlink">
<g id="graph0" class="graph" transform="scale(1 1) rotate(0) translate(4 723.4007)">
<title>hierarchy</title>
<polygon fill="#ffffff" stroke="transparent" points="-4,4 -4,-723.4007 662.3823,-723.4007 662.3823,4 -4,4"/>
<!-- doc_0 -->
<g id="node1" class="node">
<title>doc_0</title>
<ellipse fill="none" stroke="#000000" cx="213.8823" cy="-701.4007" rx="42.1216" ry="18"/>
<text text-anchor="middle" x="213.8823" y="-697.2007" font-family="Helvetica,sans-Serif" font-size="14.00" fill="#000000">doc &#45; 33</text>
</g>
<!-- section_1 -->
<g id="node2" class="node">
<title>section_1</title>
<ellipse fill="none" stroke="#000000" cx="213.8823" cy="-629.4007" rx="60.9826" ry="18"/>
<text text-anchor="middle" x="213.8823" y="-625.2007" font-family="Helvetica,sans-Serif" font-size="14.00" fill="#000000">section: 1&#45;33</text>
</g>
<!-- doc_0&#45;&gt;section_1 -->
<g id="edge1" class="edge">
<title>doc_0&#45;&gt;section_1</title>
<path fill="none" stroke="#000000" stroke-dasharray="5,2" d="M213.8823,-683.232C213.8823,-675.5316 213.8823,-666.375 213.8823,-657.8173"/>
<polygon fill="#000000" stroke="#000000" points="217.3824,-657.8139 213.8823,-647.8139 210.3824,-657.814 217.3824,-657.8139"/>
</g>
<!-- header_2 -->
<g id="node3" class="node">
<title>header_2</title>
<ellipse fill="none" stroke="#000000" cx="81.8823" cy="-557.4007" rx="81.7647" ry="18"/>
<text text-anchor="middle" x="81.8823" y="-553.2007" font-family="Helvetica,sans-Serif" font-size="14.00" fill="#000000">1 : Handle Module</text>
</g>
<!-- section_1&#45;&gt;header_2 -->
<g id="edge2" class="edge">
<title>section_1&#45;&gt;header_2</title>
<path fill="none" stroke="#000000" stroke-dasharray="5,2" d="M184.5872,-613.4215C166.1447,-603.362 142.0956,-590.2443 121.9056,-579.2316"/>
<polygon fill="#000000" stroke="#000000" points="123.3896,-576.0543 112.9347,-574.3383 120.0376,-582.1995 123.3896,-576.0543"/>
</g>
<!-- prose_3 -->
<g id="node4" class="node">
<title>prose_3</title>
<ellipse fill="none" stroke="#000000" cx="213.8823" cy="-557.4007" rx="32.4585" ry="18"/>
<text text-anchor="middle" x="213.8823" y="-553.2007" font-family="Helvetica,sans-Serif" font-size="14.00" fill="#000000">prose</text>
</g>
<!-- section_1&#45;&gt;prose_3 -->
<g id="edge3" class="edge">
<title>section_1&#45;&gt;prose_3</title>
<path fill="none" stroke="#000000" stroke-dasharray="5,2" d="M213.8823,-611.232C213.8823,-603.5316 213.8823,-594.375 213.8823,-585.8173"/>
<polygon fill="#000000" stroke="#000000" points="217.3824,-585.8139 213.8823,-575.8139 210.3824,-585.814 217.3824,-585.8139"/>
</g>
<!-- codeblock_4 -->
<g id="node5" class="node">
<title>codeblock_4</title>
<ellipse fill="none" stroke="#000000" cx="374.8823" cy="-557.4007" rx="72.5844" ry="18"/>
<text text-anchor="middle" x="374.8823" y="-553.2007" font-family="Helvetica,sans-Serif" font-size="14.00" fill="#000000">code block 4&#45;32</text>
</g>
<!-- section_1&#45;&gt;codeblock_4 -->
<g id="edge4" class="edge">
<title>section_1&#45;&gt;codeblock_4</title>
<path fill="none" stroke="#000000" stroke-dasharray="5,2" d="M247.6331,-614.3071C271.6129,-603.5832 304.0623,-589.0717 330.1906,-577.387"/>
<polygon fill="#000000" stroke="#000000" points="331.8036,-580.4998 339.5034,-573.2222 328.9458,-574.1097 331.8036,-580.4998"/>
</g>
<!-- leaf_5 -->
<g id="node6" class="node">
<title>leaf_5</title>
<polygon fill="none" stroke="#c0c0c0" points="108.8823,-307.7003 54.8823,-307.7003 54.8823,-271.7003 108.8823,-271.7003 108.8823,-307.7003"/>
</g>
<!-- header_2&#45;&gt;leaf_5 -->
<g id="edge5" class="edge">
<title>header_2&#45;&gt;leaf_5</title>
<path fill="none" stroke="#000000" stroke-dasharray="5,2" d="M81.8823,-539.0005C81.8823,-493.0417 81.8823,-372.9767 81.8823,-317.9683"/>
<polygon fill="#000000" stroke="#000000" points="85.3824,-317.8752 81.8823,-307.8752 78.3824,-317.8753 85.3824,-317.8752"/>
</g>
<!-- raw_6 -->
<g id="node7" class="node">
<title>raw_6</title>
<ellipse fill="none" stroke="#000000" cx="183.8823" cy="-289.7003" rx="27" ry="18"/>
<text text-anchor="middle" x="183.8823" y="-285.5003" font-family="Helvetica,sans-Serif" font-size="14.00" fill="#000000">raw</text>
</g>
<!-- prose_3&#45;&gt;raw_6 -->
<g id="edge6" class="edge">
<title>prose_3&#45;&gt;raw_6</title>
<path fill="none" stroke="#000000" stroke-dasharray="5,2" d="M211.8673,-539.4204C206.756,-493.8106 193.2533,-373.3218 187.0637,-318.0896"/>
<polygon fill="#000000" stroke="#000000" points="190.52,-317.5028 185.928,-307.9548 183.5635,-318.2824 190.52,-317.5028"/>
</g>
<!-- leaf_8 -->
<g id="node9" class="node">
<title>leaf_8</title>
<polygon fill="none" stroke="#c0c0c0" points="658.3823,-503.6012 229.3823,-503.6012 229.3823,-75.7995 658.3823,-75.7995 658.3823,-503.6012"/>
<text text-anchor="middle" x="443.8823" y="-488.2007" font-family="Inconsolata" font-size="14.00" fill="#000000">local L = require &quot;lpeg&quot;</text>
<text text-anchor="middle" x="443.8823" y="-456.8006" font-family="Inconsolata" font-size="14.00" fill="#000000">local Node = require &quot;peg/node&quot;</text>
<text text-anchor="middle" x="443.8823" y="-441.4006" font-family="Inconsolata" font-size="14.00" fill="#000000">local u = require &quot;../lib/util&quot;</text>
<text text-anchor="middle" x="443.8823" y="-410.0006" font-family="Inconsolata" font-size="14.00" fill="#000000">local m = require &quot;grym/morphemes&quot;</text>
<text text-anchor="middle" x="443.8823" y="-378.6005" font-family="Inconsolata" font-size="14.00" fill="#000000">local H, h = u.inherit(Node)</text>
<text text-anchor="middle" x="443.8823" y="-347.2005" font-family="Inconsolata" font-size="14.00" fill="#000000">function h.matchHandle(line)</text>
<text text-anchor="middle" x="443.8823" y="-331.8005" font-family="Inconsolata" font-size="14.00" fill="#000000"> &#160;&#160;&#160;local handlen = L.match(L.C(m.handle), line)</text>
<text text-anchor="middle" x="443.8823" y="-316.4004" font-family="Inconsolata" font-size="14.00" fill="#000000"> &#160;&#160;&#160;if handlen then</text>
<text text-anchor="middle" x="443.8823" y="-301.0004" font-family="Inconsolata" font-size="14.00" fill="#000000"> &#160;&#160;&#160;&#160;&#160;&#160;&#160;return handlen</text>
<text text-anchor="middle" x="443.8823" y="-285.6004" font-family="Inconsolata" font-size="14.00" fill="#000000"> &#160;&#160;&#160;else</text>
<text text-anchor="middle" x="443.8823" y="-270.2003" font-family="Inconsolata" font-size="14.00" fill="#000000"> &#160;&#160;&#160;&#160;&#160;&#160;&#160;return &quot;&quot;</text>
<text text-anchor="middle" x="443.8823" y="-254.8003" font-family="Inconsolata" font-size="14.00" fill="#000000"> &#160;&#160;&#160;&#160;&#160;&#160;&#160;&#45;&#45;u.freeze(&quot;h.matchHandle fails to match a handle&quot;)</text>
<text text-anchor="middle" x="443.8823" y="-239.4003" font-family="Inconsolata" font-size="14.00" fill="#000000"> &#160;&#160;&#160;end</text>
<text text-anchor="middle" x="443.8823" y="-224.0002" font-family="Inconsolata" font-size="14.00" fill="#000000">end</text>
<text text-anchor="middle" x="443.8823" y="-192.6002" font-family="Inconsolata" font-size="14.00" fill="#000000">local function new(Handle, line)</text>
<text text-anchor="middle" x="443.8823" y="-177.2002" font-family="Inconsolata" font-size="14.00" fill="#000000"> &#160;&#160;&#160;local handle = setmetatable({}, H)</text>
<text text-anchor="middle" x="443.8823" y="-161.8002" font-family="Inconsolata" font-size="14.00" fill="#000000"> &#160;&#160;&#160;handle.id = &quot;handle&quot;</text>
<text text-anchor="middle" x="443.8823" y="-146.4001" font-family="Inconsolata" font-size="14.00" fill="#000000"> &#160;&#160;&#160;handle.val = h.matchHandle(line):sub(2, &#45;1)</text>
<text text-anchor="middle" x="443.8823" y="-131.0001" font-family="Inconsolata" font-size="14.00" fill="#000000"> &#160;&#160;&#160;return handle</text>
<text text-anchor="middle" x="443.8823" y="-115.6001" font-family="Inconsolata" font-size="14.00" fill="#000000">end</text>
<text text-anchor="middle" x="443.8823" y="-84.2" font-family="Inconsolata" font-size="14.00" fill="#000000">return u.export(h, new)</text>
</g>
<!-- codeblock_4&#45;&gt;leaf_8 -->
<g id="edge8" class="edge">
<title>codeblock_4&#45;&gt;leaf_8</title>
<path fill="none" stroke="#000000" stroke-dasharray="5,2" d="M379.5167,-539.4204C381.3443,-532.3298 383.6383,-523.4295 386.2631,-513.2461"/>
<polygon fill="#000000" stroke="#000000" points="389.656,-514.1054 388.7628,-503.5483 382.8775,-512.3582 389.656,-514.1054"/>
</g>
<!-- leaf_7 -->
<g id="node8" class="node">
<title>leaf_7</title>
<polygon fill="none" stroke="#c0c0c0" points="210.8823,-40 156.8823,-40 156.8823,0 210.8823,0 210.8823,-40"/>
</g>
<!-- raw_6&#45;&gt;leaf_7 -->
<g id="edge7" class="edge">
<title>raw_6&#45;&gt;leaf_7</title>
<path fill="none" stroke="#000000" stroke-dasharray="5,2" d="M183.8823,-271.5857C183.8823,-226.0943 183.8823,-106.664 183.8823,-50.2886"/>
<polygon fill="#000000" stroke="#000000" points="187.3824,-50.211 183.8823,-40.211 180.3824,-50.211 187.3824,-50.211"/>
</g>
</g>
</svg>