<?xml version="1.0" encoding="UTF-8" standalone="no"?>
<!DOCTYPE svg PUBLIC "-//W3C//DTD SVG 1.1//EN"
 "http://www.w3.org/Graphics/SVG/1.1/DTD/svg11.dtd">
<!-- Generated by graphviz version 2.40.1 (20161225.0304)
 -->
<!-- Title: hierarchy Pages: 1 -->
<svg width="567pt" height="723pt"
 viewBox="0.00 0.00 567.38 723.40" xmlns="http://www.w3.org/2000/svg" xmlns:xlink="http://www.w3.org/1999/xlink">
<g id="graph0" class="graph" transform="scale(1 1) rotate(0) translate(4 719.4007)">
<title>hierarchy</title>
<polygon fill="#ffffff" stroke="transparent" points="-4,4 -4,-719.4007 563.3823,-719.4007 563.3823,4 -4,4"/>
<!-- doc_0 -->
<g id="node1" class="node">
<title>doc_0</title>
<ellipse fill="none" stroke="#000000" cx="227.8823" cy="-697.4007" rx="42.1216" ry="18"/>
<text text-anchor="middle" x="227.8823" y="-693.2007" font-family="Helvetica,sans-Serif" font-size="14.00" fill="#000000">doc &#45; 33</text>
</g>
<!-- section_1 -->
<g id="node2" class="node">
<title>section_1</title>
<ellipse fill="none" stroke="#000000" cx="227.8823" cy="-625.4007" rx="60.9826" ry="18"/>
<text text-anchor="middle" x="227.8823" y="-621.2007" font-family="Helvetica,sans-Serif" font-size="14.00" fill="#000000">section: 1&#45;33</text>
</g>
<!-- doc_0&#45;&gt;section_1 -->
<g id="edge1" class="edge">
<title>doc_0&#45;&gt;section_1</title>
<path fill="none" stroke="#000000" stroke-dasharray="5,2" d="M227.8823,-679.232C227.8823,-671.5316 227.8823,-662.375 227.8823,-653.8173"/>
<polygon fill="#000000" stroke="#000000" points="231.3824,-653.8139 227.8823,-643.8139 224.3824,-653.814 231.3824,-653.8139"/>
</g>
<!-- header_2 -->
<g id="node3" class="node">
<title>header_2</title>
<ellipse fill="none" stroke="#000000" cx="81.8823" cy="-553.4007" rx="81.7647" ry="18"/>
<text text-anchor="middle" x="81.8823" y="-549.2007" font-family="Helvetica,sans-Serif" font-size="14.00" fill="#000000">1 : Handle Module</text>
</g>
<!-- section_1&#45;&gt;header_2 -->
<g id="edge2" class="edge">
<title>section_1&#45;&gt;header_2</title>
<path fill="none" stroke="#000000" stroke-dasharray="5,2" d="M196.5616,-609.9548C175.5736,-599.6046 147.6731,-585.8455 124.6473,-574.4903"/>
<polygon fill="#000000" stroke="#000000" points="125.9552,-571.2328 115.4384,-569.9489 122.8591,-577.5109 125.9552,-571.2328"/>
</g>
<!-- block_3 -->
<g id="node4" class="node">
<title>block_3</title>
<ellipse fill="none" stroke="#000000" cx="227.8823" cy="-553.4007" rx="45.9804" ry="18"/>
<text text-anchor="middle" x="227.8823" y="-549.2007" font-family="Helvetica,sans-Serif" font-size="14.00" fill="#000000">block 1&#45;3</text>
</g>
<!-- section_1&#45;&gt;block_3 -->
<g id="edge3" class="edge">
<title>section_1&#45;&gt;block_3</title>
<path fill="none" stroke="#000000" stroke-dasharray="5,2" d="M227.8823,-607.232C227.8823,-599.5316 227.8823,-590.375 227.8823,-581.8173"/>
<polygon fill="#000000" stroke="#000000" points="231.3824,-581.8139 227.8823,-571.8139 224.3824,-581.814 231.3824,-581.8139"/>
</g>
<!-- block_4 -->
<g id="node5" class="node">
<title>block_4</title>
<ellipse fill="none" stroke="#000000" cx="344.8823" cy="-553.4007" rx="50.8172" ry="18"/>
<text text-anchor="middle" x="344.8823" y="-549.2007" font-family="Helvetica,sans-Serif" font-size="14.00" fill="#000000">block 4&#45;33</text>
</g>
<!-- section_1&#45;&gt;block_4 -->
<g id="edge4" class="edge">
<title>section_1&#45;&gt;block_4</title>
<path fill="none" stroke="#000000" stroke-dasharray="5,2" d="M254.4314,-609.0627C270.9665,-598.8873 292.4144,-585.6886 310.2746,-574.6977"/>
<polygon fill="#000000" stroke="#000000" points="312.56,-577.4009 319.2423,-569.1791 308.8913,-571.4393 312.56,-577.4009"/>
</g>
<!-- leaf_5 -->
<g id="node6" class="node">
<title>leaf_5</title>
<polygon fill="none" stroke="#c0c0c0" points="253.8823,-499.4007 199.8823,-499.4007 199.8823,-463.4007 253.8823,-463.4007 253.8823,-499.4007"/>
</g>
<!-- block_3&#45;&gt;leaf_5 -->
<g id="edge5" class="edge">
<title>block_3&#45;&gt;leaf_5</title>
<path fill="none" stroke="#000000" stroke-dasharray="5,2" d="M227.6299,-535.232C227.523,-527.5316 227.3958,-518.375 227.2769,-509.8173"/>
<polygon fill="#000000" stroke="#000000" points="230.7766,-509.7643 227.138,-499.8139 223.7773,-509.8616 230.7766,-509.7643"/>
</g>
<!-- codeblock_6 -->
<g id="node7" class="node">
<title>codeblock_6</title>
<ellipse fill="none" stroke="#000000" cx="344.8823" cy="-481.4007" rx="72.5844" ry="18"/>
<text text-anchor="middle" x="344.8823" y="-477.2007" font-family="Helvetica,sans-Serif" font-size="14.00" fill="#000000">code block 4&#45;32</text>
</g>
<!-- block_4&#45;&gt;codeblock_6 -->
<g id="edge6" class="edge">
<title>block_4&#45;&gt;codeblock_6</title>
<path fill="none" stroke="#000000" stroke-dasharray="5,2" d="M344.8823,-535.232C344.8823,-527.5316 344.8823,-518.375 344.8823,-509.8173"/>
<polygon fill="#000000" stroke="#000000" points="348.3824,-509.8139 344.8823,-499.8139 341.3824,-509.814 348.3824,-509.8139"/>
</g>
<!-- leaf_8 -->
<g id="node9" class="node">
<title>leaf_8</title>
<polygon fill="none" stroke="#c0c0c0" points="489.8823,-499.4007 435.8823,-499.4007 435.8823,-463.4007 489.8823,-463.4007 489.8823,-499.4007"/>
</g>
<!-- block_4&#45;&gt;leaf_8 -->
<g id="edge8" class="edge">
<title>block_4&#45;&gt;leaf_8</title>
<path fill="none" stroke="#000000" stroke-dasharray="5,2" d="M370.4865,-537.7777C387.0297,-527.6836 408.7961,-514.4024 427.0469,-503.2663"/>
<polygon fill="#000000" stroke="#000000" points="428.9723,-506.1916 435.6857,-497.9952 425.3262,-500.2161 428.9723,-506.1916"/>
</g>
<!-- leaf_7 -->
<g id="node8" class="node">
<title>leaf_7</title>
<polygon fill="none" stroke="#c0c0c0" points="559.3823,-427.6012 130.3823,-427.6012 130.3823,.2005 559.3823,.2005 559.3823,-427.6012"/>
<text text-anchor="middle" x="344.8823" y="-412.2007" font-family="Inconsolata" font-size="14.00" fill="#000000">local L = require &quot;lpeg&quot;</text>
<text text-anchor="middle" x="344.8823" y="-380.8006" font-family="Inconsolata" font-size="14.00" fill="#000000">local Node = require &quot;peg/node&quot;</text>
<text text-anchor="middle" x="344.8823" y="-365.4006" font-family="Inconsolata" font-size="14.00" fill="#000000">local u = require &quot;../lib/util&quot;</text>
<text text-anchor="middle" x="344.8823" y="-334.0006" font-family="Inconsolata" font-size="14.00" fill="#000000">local m = require &quot;grym/morphemes&quot;</text>
<text text-anchor="middle" x="344.8823" y="-302.6005" font-family="Inconsolata" font-size="14.00" fill="#000000">local H, h = u.inherit(Node)</text>
<text text-anchor="middle" x="344.8823" y="-271.2005" font-family="Inconsolata" font-size="14.00" fill="#000000">function h.matchHandle(line)</text>
<text text-anchor="middle" x="344.8823" y="-255.8005" font-family="Inconsolata" font-size="14.00" fill="#000000"> &#160;&#160;&#160;local handlen = L.match(L.C(m.handle), line)</text>
<text text-anchor="middle" x="344.8823" y="-240.4004" font-family="Inconsolata" font-size="14.00" fill="#000000"> &#160;&#160;&#160;if handlen then</text>
<text text-anchor="middle" x="344.8823" y="-225.0004" font-family="Inconsolata" font-size="14.00" fill="#000000"> &#160;&#160;&#160;&#160;&#160;&#160;&#160;return handlen</text>
<text text-anchor="middle" x="344.8823" y="-209.6004" font-family="Inconsolata" font-size="14.00" fill="#000000"> &#160;&#160;&#160;else</text>
<text text-anchor="middle" x="344.8823" y="-194.2003" font-family="Inconsolata" font-size="14.00" fill="#000000"> &#160;&#160;&#160;&#160;&#160;&#160;&#160;return &quot;&quot;</text>
<text text-anchor="middle" x="344.8823" y="-178.8003" font-family="Inconsolata" font-size="14.00" fill="#000000"> &#160;&#160;&#160;&#160;&#160;&#160;&#160;&#45;&#45;u.freeze(&quot;h.matchHandle fails to match a handle&quot;)</text>
<text text-anchor="middle" x="344.8823" y="-163.4003" font-family="Inconsolata" font-size="14.00" fill="#000000"> &#160;&#160;&#160;end</text>
<text text-anchor="middle" x="344.8823" y="-148.0002" font-family="Inconsolata" font-size="14.00" fill="#000000">end</text>
<text text-anchor="middle" x="344.8823" y="-116.6002" font-family="Inconsolata" font-size="14.00" fill="#000000">local function new(Handle, line)</text>
<text text-anchor="middle" x="344.8823" y="-101.2002" font-family="Inconsolata" font-size="14.00" fill="#000000"> &#160;&#160;&#160;local handle = setmetatable({}, H)</text>
<text text-anchor="middle" x="344.8823" y="-85.8002" font-family="Inconsolata" font-size="14.00" fill="#000000"> &#160;&#160;&#160;handle.id = &quot;handle&quot;</text>
<text text-anchor="middle" x="344.8823" y="-70.4001" font-family="Inconsolata" font-size="14.00" fill="#000000"> &#160;&#160;&#160;handle.val = h.matchHandle(line):sub(2, &#45;1)</text>
<text text-anchor="middle" x="344.8823" y="-55.0001" font-family="Inconsolata" font-size="14.00" fill="#000000"> &#160;&#160;&#160;return handle</text>
<text text-anchor="middle" x="344.8823" y="-39.6001" font-family="Inconsolata" font-size="14.00" fill="#000000">end</text>
<text text-anchor="middle" x="344.8823" y="-8.2" font-family="Inconsolata" font-size="14.00" fill="#000000">return u.export(h, new)</text>
</g>
<!-- codeblock_6&#45;&gt;leaf_7 -->
<g id="edge7" class="edge">
<title>codeblock_6&#45;&gt;leaf_7</title>
<path fill="none" stroke="#000000" stroke-dasharray="5,2" d="M344.8823,-463.0005C344.8823,-456.0901 344.8823,-447.5042 344.8823,-437.716"/>
<polygon fill="#000000" stroke="#000000" points="348.3824,-437.5445 344.8823,-427.5445 341.3824,-437.5445 348.3824,-437.5445"/>
</g>
</g>
</svg>