<?xml version="1.0" encoding="UTF-8" standalone="no"?>
<!DOCTYPE svg PUBLIC "-//W3C//DTD SVG 1.1//EN"
 "http://www.w3.org/Graphics/SVG/1.1/DTD/svg11.dtd">
<!-- Generated by graphviz version 2.40.1 (20161225.0304)
 -->
<!-- Title: hierarchy Pages: 1 -->
<svg width="804pt" height="575pt"
 viewBox="0.00 0.00 803.65 575.00" xmlns="http://www.w3.org/2000/svg" xmlns:xlink="http://www.w3.org/1999/xlink">
<g id="graph0" class="graph" transform="scale(1 1) rotate(0) translate(4 571.0005)">
<title>hierarchy</title>
<polygon fill="#ffffff" stroke="transparent" points="-4,4 -4,-571.0005 799.6484,-571.0005 799.6484,4 -4,4"/>
<!-- doc_0 -->
<g id="node1" class="node">
<title>doc_0</title>
<ellipse fill="none" stroke="#000000" cx="287.6484" cy="-549.0005" rx="42.1216" ry="18"/>
<text text-anchor="middle" x="287.6484" y="-544.8005" font-family="Helvetica,sans-Serif" font-size="14.00" fill="#000000">doc &#45; 29</text>
</g>
<!-- section_1 -->
<g id="node2" class="node">
<title>section_1</title>
<ellipse fill="none" stroke="#000000" cx="287.6484" cy="-477.0005" rx="60.9826" ry="18"/>
<text text-anchor="middle" x="287.6484" y="-472.8005" font-family="Helvetica,sans-Serif" font-size="14.00" fill="#000000">section: 1&#45;29</text>
</g>
<!-- doc_0&#45;&gt;section_1 -->
<g id="edge1" class="edge">
<title>doc_0&#45;&gt;section_1</title>
<path fill="none" stroke="#000000" stroke-dasharray="5,2" d="M287.6484,-530.8318C287.6484,-523.1314 287.6484,-513.9748 287.6484,-505.4171"/>
<polygon fill="#000000" stroke="#000000" points="291.1485,-505.4137 287.6484,-495.4137 284.1485,-505.4138 291.1485,-505.4137"/>
</g>
<!-- header_2 -->
<g id="node3" class="node">
<title>header_2</title>
<ellipse fill="none" stroke="#000000" cx="95.6484" cy="-405.0005" rx="95.7969" ry="18"/>
<text text-anchor="middle" x="95.6484" y="-400.8005" font-family="Helvetica,sans-Serif" font-size="14.00" fill="#000000">1 : Handleline module</text>
</g>
<!-- section_1&#45;&gt;header_2 -->
<g id="edge2" class="edge">
<title>section_1&#45;&gt;header_2</title>
<path fill="none" stroke="#000000" stroke-dasharray="5,2" d="M249.7153,-462.7756C220.7954,-451.9306 180.6139,-436.8626 148.5372,-424.8338"/>
<polygon fill="#000000" stroke="#000000" points="149.4563,-421.4405 138.864,-421.2063 146.9984,-427.9948 149.4563,-421.4405"/>
</g>
<!-- block_3 -->
<g id="node4" class="node">
<title>block_3</title>
<ellipse fill="none" stroke="#000000" cx="287.6484" cy="-405.0005" rx="45.9804" ry="18"/>
<text text-anchor="middle" x="287.6484" y="-400.8005" font-family="Helvetica,sans-Serif" font-size="14.00" fill="#000000">block 1&#45;4</text>
</g>
<!-- section_1&#45;&gt;block_3 -->
<g id="edge3" class="edge">
<title>section_1&#45;&gt;block_3</title>
<path fill="none" stroke="#000000" stroke-dasharray="5,2" d="M287.6484,-458.8318C287.6484,-451.1314 287.6484,-441.9748 287.6484,-433.4171"/>
<polygon fill="#000000" stroke="#000000" points="291.1485,-433.4137 287.6484,-423.4137 284.1485,-433.4138 291.1485,-433.4137"/>
</g>
<!-- codeblock_4 -->
<g id="node5" class="node">
<title>codeblock_4</title>
<ellipse fill="none" stroke="#000000" cx="532.6484" cy="-405.0005" rx="72.5844" ry="18"/>
<text text-anchor="middle" x="532.6484" y="-400.8005" font-family="Helvetica,sans-Serif" font-size="14.00" fill="#000000">code block 5&#45;28</text>
</g>
<!-- section_1&#45;&gt;codeblock_4 -->
<g id="edge4" class="edge">
<title>section_1&#45;&gt;codeblock_4</title>
<path fill="none" stroke="#000000" stroke-dasharray="5,2" d="M330.8855,-464.2941C371.2429,-452.4339 431.7146,-434.6626 475.9306,-421.6686"/>
<polygon fill="#000000" stroke="#000000" points="477.0607,-424.9845 485.6681,-418.8069 475.087,-418.2685 477.0607,-424.9845"/>
</g>
<!-- leaf_5 -->
<g id="node6" class="node">
<title>leaf_5</title>
<polygon fill="none" stroke="#c0c0c0" points="89.6484,-193.5002 35.6484,-193.5002 35.6484,-157.5002 89.6484,-157.5002 89.6484,-193.5002"/>
</g>
<!-- header_2&#45;&gt;leaf_5 -->
<g id="edge5" class="edge">
<title>header_2&#45;&gt;leaf_5</title>
<path fill="none" stroke="#000000" stroke-dasharray="5,2" d="M93.0589,-386.992C87.3379,-347.2051 73.585,-251.5599 66.7075,-203.7296"/>
<polygon fill="#000000" stroke="#000000" points="70.1592,-203.1427 65.2714,-193.7426 63.2304,-204.139 70.1592,-203.1427"/>
</g>
<!-- leaf_6 -->
<g id="node7" class="node">
<title>leaf_6</title>
<polygon fill="none" stroke="#c0c0c0" points="467.1484,-195.4023 108.1484,-195.4023 108.1484,-155.5982 467.1484,-155.5982 467.1484,-195.4023"/>
<text text-anchor="middle" x="287.6484" y="-164.0002" font-family="Inconsolata" font-size="14.00" fill="#000000"> &#160;&#160;A minimalist Node container for a handle line.</text>
</g>
<!-- block_3&#45;&gt;leaf_6 -->
<g id="edge6" class="edge">
<title>block_3&#45;&gt;leaf_6</title>
<path fill="none" stroke="#000000" stroke-dasharray="5,2" d="M287.6484,-386.992C287.6484,-347.6963 287.6484,-253.913 287.6484,-205.5227"/>
<polygon fill="#000000" stroke="#000000" points="291.1485,-205.3655 287.6484,-195.3656 284.1485,-205.3656 291.1485,-205.3655"/>
</g>
<!-- leaf_7 -->
<g id="node8" class="node">
<title>leaf_7</title>
<polygon fill="none" stroke="#c0c0c0" points="795.6484,-351.0007 485.6484,-351.0007 485.6484,.0002 795.6484,.0002 795.6484,-351.0007"/>
<text text-anchor="middle" x="640.6484" y="-335.8005" font-family="Inconsolata" font-size="14.00" fill="#000000">local Node = require &quot;peg/node&quot;</text>
<text text-anchor="middle" x="640.6484" y="-320.4004" font-family="Inconsolata" font-size="14.00" fill="#000000">local u = require &quot;../lib/util&quot;</text>
<text text-anchor="middle" x="640.6484" y="-289.0004" font-family="Inconsolata" font-size="14.00" fill="#000000">local Handle = require &quot;grym/handle&quot;</text>
<text text-anchor="middle" x="640.6484" y="-257.6004" font-family="Inconsolata" font-size="14.00" fill="#000000">local H, h = u.inherit(Node)</text>
<text text-anchor="middle" x="640.6484" y="-226.2003" font-family="Inconsolata" font-size="14.00" fill="#000000">local function toMarkdown(handleline)</text>
<text text-anchor="middle" x="640.6484" y="-210.8003" font-family="Inconsolata" font-size="14.00" fill="#000000"> &#160;return handleline.__VALUE</text>
<text text-anchor="middle" x="640.6484" y="-195.4003" font-family="Inconsolata" font-size="14.00" fill="#000000">end</text>
<text text-anchor="middle" x="640.6484" y="-164.0002" font-family="Inconsolata" font-size="14.00" fill="#000000">local function new(Handleline, line)</text>
<text text-anchor="middle" x="640.6484" y="-148.6002" font-family="Inconsolata" font-size="14.00" fill="#000000"> &#160;&#160;&#160;local handleline = setmetatable({}, H)</text>
<text text-anchor="middle" x="640.6484" y="-133.2002" font-family="Inconsolata" font-size="14.00" fill="#000000"> &#160;&#160;&#160;handleline.__VALUE = line</text>
<text text-anchor="middle" x="640.6484" y="-117.8002" font-family="Inconsolata" font-size="14.00" fill="#000000"> &#160;&#160;&#160;handleline.id = &quot;handleline&quot;</text>
<text text-anchor="middle" x="640.6484" y="-102.4001" font-family="Inconsolata" font-size="14.00" fill="#000000"> &#160;&#160;&#160;handleline[1] = Handle(line)</text>
<text text-anchor="middle" x="640.6484" y="-71.0001" font-family="Inconsolata" font-size="14.00" fill="#000000"> &#160;&#160;&#160;return handleline</text>
<text text-anchor="middle" x="640.6484" y="-55.6001" font-family="Inconsolata" font-size="14.00" fill="#000000">end</text>
<text text-anchor="middle" x="640.6484" y="-8.2" font-family="Inconsolata" font-size="14.00" fill="#000000">return u.export(h, new)</text>
</g>
<!-- codeblock_4&#45;&gt;leaf_7 -->
<g id="edge7" class="edge">
<title>codeblock_4&#45;&gt;leaf_7</title>
<path fill="none" stroke="#000000" stroke-dasharray="5,2" d="M541.1229,-386.992C544.5074,-379.7999 548.7509,-370.7825 553.5651,-360.5523"/>
<polygon fill="#000000" stroke="#000000" points="556.8443,-361.8038 557.9355,-351.2653 550.5106,-358.8232 556.8443,-361.8038"/>
</g>
</g>
</svg>