<?xml version="1.0" encoding="UTF-8" standalone="no"?>
<!DOCTYPE svg PUBLIC "-//W3C//DTD SVG 1.1//EN"
 "http://www.w3.org/Graphics/SVG/1.1/DTD/svg11.dtd">
<!-- Generated by graphviz version 2.40.1 (20161225.0304)
 -->
<!-- Title: hierarchy Pages: 1 -->
<svg width="585pt" height="666pt"
 viewBox="0.00 0.00 584.65 666.40" xmlns="http://www.w3.org/2000/svg" xmlns:xlink="http://www.w3.org/1999/xlink">
<g id="graph0" class="graph" transform="scale(1 1) rotate(0) translate(4 662.4005)">
<title>hierarchy</title>
<polygon fill="#ffffff" stroke="transparent" points="-4,4 -4,-662.4005 580.6484,-662.4005 580.6484,4 -4,4"/>
<!-- doc_0 -->
<g id="node1" class="node">
<title>doc_0</title>
<ellipse fill="none" stroke="#000000" cx="241.6484" cy="-640.4005" rx="42.1216" ry="18"/>
<text text-anchor="middle" x="241.6484" y="-636.2005" font-family="Helvetica,sans-Serif" font-size="14.00" fill="#000000">doc &#45; 29</text>
</g>
<!-- section_1 -->
<g id="node2" class="node">
<title>section_1</title>
<ellipse fill="none" stroke="#000000" cx="241.6484" cy="-568.4005" rx="60.9826" ry="18"/>
<text text-anchor="middle" x="241.6484" y="-564.2005" font-family="Helvetica,sans-Serif" font-size="14.00" fill="#000000">section: 1&#45;29</text>
</g>
<!-- doc_0&#45;&gt;section_1 -->
<g id="edge1" class="edge">
<title>doc_0&#45;&gt;section_1</title>
<path fill="none" stroke="#000000" stroke-dasharray="5,2" d="M241.6484,-622.2319C241.6484,-614.5315 241.6484,-605.3748 241.6484,-596.8171"/>
<polygon fill="#000000" stroke="#000000" points="245.1485,-596.8137 241.6484,-586.8138 238.1485,-596.8138 245.1485,-596.8137"/>
</g>
<!-- header_2 -->
<g id="node3" class="node">
<title>header_2</title>
<ellipse fill="none" stroke="#000000" cx="95.6484" cy="-496.4005" rx="95.7969" ry="18"/>
<text text-anchor="middle" x="95.6484" y="-492.2005" font-family="Helvetica,sans-Serif" font-size="14.00" fill="#000000">1 : Handleline module</text>
</g>
<!-- section_1&#45;&gt;header_2 -->
<g id="edge2" class="edge">
<title>section_1&#45;&gt;header_2</title>
<path fill="none" stroke="#000000" stroke-dasharray="5,2" d="M210.3277,-552.9547C189.5606,-542.7134 162.0259,-529.1346 139.1422,-517.8495"/>
<polygon fill="#000000" stroke="#000000" points="140.4951,-514.6143 129.9783,-513.3303 137.399,-520.8924 140.4951,-514.6143"/>
</g>
<!-- prose_3 -->
<g id="node4" class="node">
<title>prose_3</title>
<ellipse fill="none" stroke="#000000" cx="241.6484" cy="-496.4005" rx="32.4585" ry="18"/>
<text text-anchor="middle" x="241.6484" y="-492.2005" font-family="Helvetica,sans-Serif" font-size="14.00" fill="#000000">prose</text>
</g>
<!-- section_1&#45;&gt;prose_3 -->
<g id="edge3" class="edge">
<title>section_1&#45;&gt;prose_3</title>
<path fill="none" stroke="#000000" stroke-dasharray="5,2" d="M241.6484,-550.2319C241.6484,-542.5315 241.6484,-533.3748 241.6484,-524.8171"/>
<polygon fill="#000000" stroke="#000000" points="245.1485,-524.8137 241.6484,-514.8138 238.1485,-524.8138 245.1485,-524.8137"/>
</g>
<!-- codeblock_4 -->
<g id="node5" class="node">
<title>codeblock_4</title>
<ellipse fill="none" stroke="#000000" cx="402.6484" cy="-496.4005" rx="72.5844" ry="18"/>
<text text-anchor="middle" x="402.6484" y="-492.2005" font-family="Helvetica,sans-Serif" font-size="14.00" fill="#000000">code block 5&#45;28</text>
</g>
<!-- section_1&#45;&gt;codeblock_4 -->
<g id="edge4" class="edge">
<title>section_1&#45;&gt;codeblock_4</title>
<path fill="none" stroke="#000000" stroke-dasharray="5,2" d="M275.3992,-553.3069C299.379,-542.5831 331.8284,-528.0715 357.9567,-516.3868"/>
<polygon fill="#000000" stroke="#000000" points="359.5697,-519.4996 367.2695,-512.2221 356.7119,-513.1095 359.5697,-519.4996"/>
</g>
<!-- raw_5 -->
<g id="node6" class="node">
<title>raw_5</title>
<ellipse fill="none" stroke="#000000" cx="221.6484" cy="-266.9003" rx="27" ry="18"/>
<text text-anchor="middle" x="221.6484" y="-262.7003" font-family="Helvetica,sans-Serif" font-size="14.00" fill="#000000">raw</text>
</g>
<!-- prose_3&#45;&gt;raw_5 -->
<g id="edge5" class="edge">
<title>prose_3&#45;&gt;raw_5</title>
<path fill="none" stroke="#000000" stroke-dasharray="5,2" d="M240.079,-478.392C236.6117,-438.6051 228.2766,-342.9599 224.1084,-295.1296"/>
<polygon fill="#000000" stroke="#000000" points="227.5932,-294.801 223.2381,-285.1427 220.6196,-295.4088 227.5932,-294.801"/>
</g>
<!-- leaf_7 -->
<g id="node8" class="node">
<title>leaf_7</title>
<polygon fill="none" stroke="#c0c0c0" points="576.6484,-442.4007 266.6484,-442.4007 266.6484,-91.3998 576.6484,-91.3998 576.6484,-442.4007"/>
<text text-anchor="middle" x="421.6484" y="-427.2005" font-family="Inconsolata" font-size="14.00" fill="#000000">local Node = require &quot;peg/node&quot;</text>
<text text-anchor="middle" x="421.6484" y="-411.8005" font-family="Inconsolata" font-size="14.00" fill="#000000">local u = require &quot;../lib/util&quot;</text>
<text text-anchor="middle" x="421.6484" y="-380.4004" font-family="Inconsolata" font-size="14.00" fill="#000000">local Handle = require &quot;grym/handle&quot;</text>
<text text-anchor="middle" x="421.6484" y="-349.0004" font-family="Inconsolata" font-size="14.00" fill="#000000">local H, h = u.inherit(Node)</text>
<text text-anchor="middle" x="421.6484" y="-317.6004" font-family="Inconsolata" font-size="14.00" fill="#000000">local function toMarkdown(handleline)</text>
<text text-anchor="middle" x="421.6484" y="-302.2003" font-family="Inconsolata" font-size="14.00" fill="#000000"> &#160;return handleline.__VALUE</text>
<text text-anchor="middle" x="421.6484" y="-286.8003" font-family="Inconsolata" font-size="14.00" fill="#000000">end</text>
<text text-anchor="middle" x="421.6484" y="-255.4003" font-family="Inconsolata" font-size="14.00" fill="#000000">local function new(Handleline, line)</text>
<text text-anchor="middle" x="421.6484" y="-240.0002" font-family="Inconsolata" font-size="14.00" fill="#000000"> &#160;&#160;&#160;local handleline = setmetatable({}, H)</text>
<text text-anchor="middle" x="421.6484" y="-224.6002" font-family="Inconsolata" font-size="14.00" fill="#000000"> &#160;&#160;&#160;handleline.__VALUE = line</text>
<text text-anchor="middle" x="421.6484" y="-209.2002" font-family="Inconsolata" font-size="14.00" fill="#000000"> &#160;&#160;&#160;handleline.id = &quot;handleline&quot;</text>
<text text-anchor="middle" x="421.6484" y="-193.8002" font-family="Inconsolata" font-size="14.00" fill="#000000"> &#160;&#160;&#160;handleline[1] = Handle(line)</text>
<text text-anchor="middle" x="421.6484" y="-162.4001" font-family="Inconsolata" font-size="14.00" fill="#000000"> &#160;&#160;&#160;return handleline</text>
<text text-anchor="middle" x="421.6484" y="-147.0001" font-family="Inconsolata" font-size="14.00" fill="#000000">end</text>
<text text-anchor="middle" x="421.6484" y="-99.6001" font-family="Inconsolata" font-size="14.00" fill="#000000">return u.export(h, new)</text>
</g>
<!-- codeblock_4&#45;&gt;leaf_7 -->
<g id="edge7" class="edge">
<title>codeblock_4&#45;&gt;leaf_7</title>
<path fill="none" stroke="#000000" stroke-dasharray="5,2" d="M404.1393,-478.392C404.7166,-471.4178 405.4361,-462.7274 406.2514,-452.879"/>
<polygon fill="#000000" stroke="#000000" points="409.7599,-452.9201 407.097,-442.6653 402.7838,-452.3424 409.7599,-452.9201"/>
</g>
<!-- leaf_6 -->
<g id="node7" class="node">
<title>leaf_6</title>
<polygon fill="none" stroke="#c0c0c0" points="401.1484,-55.6015 42.1484,-55.6015 42.1484,.2015 401.1484,.2015 401.1484,-55.6015"/>
<text text-anchor="middle" x="221.6484" y="-8.2" font-family="Inconsolata" font-size="14.00" fill="#000000"> &#160;&#160;A minimalist Node container for a handle line.</text>
</g>
<!-- raw_5&#45;&gt;leaf_6 -->
<g id="edge6" class="edge">
<title>raw_5&#45;&gt;leaf_6</title>
<path fill="none" stroke="#000000" stroke-dasharray="5,2" d="M221.6484,-248.5278C221.6484,-209.5337 221.6484,-117.8059 221.6484,-65.6676"/>
<polygon fill="#000000" stroke="#000000" points="225.1485,-65.4855 221.6484,-55.4856 218.1485,-65.4856 225.1485,-65.4855"/>
</g>
</g>
</svg>