<?xml version="1.0" encoding="UTF-8" standalone="no"?>
<!DOCTYPE svg PUBLIC "-//W3C//DTD SVG 1.1//EN"
 "http://www.w3.org/Graphics/SVG/1.1/DTD/svg11.dtd">
<!-- Generated by graphviz version 2.40.1 (20161225.0304)
 -->
<!-- Title: hierarchy Pages: 1 -->
<svg width="661pt" height="727pt"
 viewBox="0.00 0.00 661.38 727.40" xmlns="http://www.w3.org/2000/svg" xmlns:xlink="http://www.w3.org/1999/xlink">
<g id="graph0" class="graph" transform="scale(1 1) rotate(0) translate(4 723.4007)">
<title>hierarchy</title>
<polygon fill="#ffffff" stroke="transparent" points="-4,4 -4,-723.4007 657.3823,-723.4007 657.3823,4 -4,4"/>
<!-- doc_0 -->
<g id="node1" class="node">
<title>doc_0</title>
<ellipse fill="none" stroke="#000000" cx="213.8823" cy="-701.4007" rx="42.1216" ry="18"/>
<text text-anchor="middle" x="213.8823" y="-697.2007" font-family="Helvetica,sans-Serif" font-size="14.00" fill="#000000">doc &#45; 33</text>
</g>
<!-- section_1 -->
<g id="node2" class="node">
<title>section_1</title>
<ellipse fill="none" stroke="#000000" cx="213.8823" cy="-629.4007" rx="60.9826" ry="18"/>
<text text-anchor="middle" x="213.8823" y="-625.2007" font-family="Helvetica,sans-Serif" font-size="14.00" fill="#000000">section: 1&#45;33</text>
</g>
<!-- doc_0&#45;&gt;section_1 -->
<g id="edge1" class="edge">
<title>doc_0&#45;&gt;section_1</title>
<path fill="none" stroke="#000000" stroke-dasharray="5,2" d="M213.8823,-683.232C213.8823,-675.5316 213.8823,-666.375 213.8823,-657.8173"/>
<polygon fill="#000000" stroke="#000000" points="217.3824,-657.8139 213.8823,-647.8139 210.3824,-657.814 217.3824,-657.8139"/>
</g>
<!-- header_2 -->
<g id="node3" class="node">
<title>header_2</title>
<ellipse fill="none" stroke="#000000" cx="81.8823" cy="-557.4007" rx="81.7647" ry="18"/>
<text text-anchor="middle" x="81.8823" y="-553.2007" font-family="Helvetica,sans-Serif" font-size="14.00" fill="#000000">1 : Handle Module</text>
</g>
<!-- section_1&#45;&gt;header_2 -->
<g id="edge2" class="edge">
<title>section_1&#45;&gt;header_2</title>
<path fill="none" stroke="#000000" stroke-dasharray="5,2" d="M184.5872,-613.4215C166.1447,-603.362 142.0956,-590.2443 121.9056,-579.2316"/>
<polygon fill="#000000" stroke="#000000" points="123.3896,-576.0543 112.9347,-574.3383 120.0376,-582.1995 123.3896,-576.0543"/>
</g>
<!-- prose_3 -->
<g id="node4" class="node">
<title>prose_3</title>
<ellipse fill="none" stroke="#000000" cx="213.8823" cy="-557.4007" rx="32.4585" ry="18"/>
<text text-anchor="middle" x="213.8823" y="-553.2007" font-family="Helvetica,sans-Serif" font-size="14.00" fill="#000000">prose</text>
</g>
<!-- section_1&#45;&gt;prose_3 -->
<g id="edge3" class="edge">
<title>section_1&#45;&gt;prose_3</title>
<path fill="none" stroke="#000000" stroke-dasharray="5,2" d="M213.8823,-611.232C213.8823,-603.5316 213.8823,-594.375 213.8823,-585.8173"/>
<polygon fill="#000000" stroke="#000000" points="217.3824,-585.8139 213.8823,-575.8139 210.3824,-585.814 217.3824,-585.8139"/>
</g>
<!-- codeblock_4 -->
<g id="node5" class="node">
<title>codeblock_4</title>
<ellipse fill="none" stroke="#000000" cx="404.8823" cy="-557.4007" rx="72.5844" ry="18"/>
<text text-anchor="middle" x="404.8823" y="-553.2007" font-family="Helvetica,sans-Serif" font-size="14.00" fill="#000000">code block 4&#45;32</text>
</g>
<!-- section_1&#45;&gt;codeblock_4 -->
<g id="edge4" class="edge">
<title>section_1&#45;&gt;codeblock_4</title>
<path fill="none" stroke="#000000" stroke-dasharray="5,2" d="M251.6177,-615.1758C281.2737,-603.9965 322.8339,-588.3299 355.1959,-576.1306"/>
<polygon fill="#000000" stroke="#000000" points="356.7979,-579.2672 364.9206,-572.4648 354.3287,-572.7171 356.7979,-579.2672"/>
</g>
<!-- raw_5 -->
<g id="node6" class="node">
<title>raw_5</title>
<ellipse fill="none" stroke="#000000" cx="178.8823" cy="-289.7003" rx="27" ry="18"/>
<text text-anchor="middle" x="178.8823" y="-285.5003" font-family="Helvetica,sans-Serif" font-size="14.00" fill="#000000">raw</text>
</g>
<!-- prose_3&#45;&gt;raw_5 -->
<g id="edge5" class="edge">
<title>prose_3&#45;&gt;raw_5</title>
<path fill="none" stroke="#000000" stroke-dasharray="5,2" d="M211.5315,-539.4204C205.5683,-493.8106 189.8152,-373.3218 182.594,-318.0896"/>
<polygon fill="#000000" stroke="#000000" points="186.0359,-317.4167 181.2689,-307.9548 179.0949,-318.3242 186.0359,-317.4167"/>
</g>
<!-- leaf_7 -->
<g id="node8" class="node">
<title>leaf_7</title>
<polygon fill="none" stroke="#c0c0c0" points="653.3823,-503.6012 224.3823,-503.6012 224.3823,-75.7995 653.3823,-75.7995 653.3823,-503.6012"/>
<text text-anchor="middle" x="438.8823" y="-488.2007" font-family="Inconsolata" font-size="14.00" fill="#000000">local L = require &quot;lpeg&quot;</text>
<text text-anchor="middle" x="438.8823" y="-456.8006" font-family="Inconsolata" font-size="14.00" fill="#000000">local Node = require &quot;peg/node&quot;</text>
<text text-anchor="middle" x="438.8823" y="-441.4006" font-family="Inconsolata" font-size="14.00" fill="#000000">local u = require &quot;../lib/util&quot;</text>
<text text-anchor="middle" x="438.8823" y="-410.0006" font-family="Inconsolata" font-size="14.00" fill="#000000">local m = require &quot;grym/morphemes&quot;</text>
<text text-anchor="middle" x="438.8823" y="-378.6005" font-family="Inconsolata" font-size="14.00" fill="#000000">local H, h = u.inherit(Node)</text>
<text text-anchor="middle" x="438.8823" y="-347.2005" font-family="Inconsolata" font-size="14.00" fill="#000000">function h.matchHandle(line)</text>
<text text-anchor="middle" x="438.8823" y="-331.8005" font-family="Inconsolata" font-size="14.00" fill="#000000"> &#160;&#160;&#160;local handlen = L.match(L.C(m.handle), line)</text>
<text text-anchor="middle" x="438.8823" y="-316.4004" font-family="Inconsolata" font-size="14.00" fill="#000000"> &#160;&#160;&#160;if handlen then</text>
<text text-anchor="middle" x="438.8823" y="-301.0004" font-family="Inconsolata" font-size="14.00" fill="#000000"> &#160;&#160;&#160;&#160;&#160;&#160;&#160;return handlen</text>
<text text-anchor="middle" x="438.8823" y="-285.6004" font-family="Inconsolata" font-size="14.00" fill="#000000"> &#160;&#160;&#160;else</text>
<text text-anchor="middle" x="438.8823" y="-270.2003" font-family="Inconsolata" font-size="14.00" fill="#000000"> &#160;&#160;&#160;&#160;&#160;&#160;&#160;return &quot;&quot;</text>
<text text-anchor="middle" x="438.8823" y="-254.8003" font-family="Inconsolata" font-size="14.00" fill="#000000"> &#160;&#160;&#160;&#160;&#160;&#160;&#160;&#45;&#45;u.freeze(&quot;h.matchHandle fails to match a handle&quot;)</text>
<text text-anchor="middle" x="438.8823" y="-239.4003" font-family="Inconsolata" font-size="14.00" fill="#000000"> &#160;&#160;&#160;end</text>
<text text-anchor="middle" x="438.8823" y="-224.0002" font-family="Inconsolata" font-size="14.00" fill="#000000">end</text>
<text text-anchor="middle" x="438.8823" y="-192.6002" font-family="Inconsolata" font-size="14.00" fill="#000000">local function new(Handle, line)</text>
<text text-anchor="middle" x="438.8823" y="-177.2002" font-family="Inconsolata" font-size="14.00" fill="#000000"> &#160;&#160;&#160;local handle = setmetatable({}, H)</text>
<text text-anchor="middle" x="438.8823" y="-161.8002" font-family="Inconsolata" font-size="14.00" fill="#000000"> &#160;&#160;&#160;handle.id = &quot;handle&quot;</text>
<text text-anchor="middle" x="438.8823" y="-146.4001" font-family="Inconsolata" font-size="14.00" fill="#000000"> &#160;&#160;&#160;handle.val = h.matchHandle(line):sub(2, &#45;1)</text>
<text text-anchor="middle" x="438.8823" y="-131.0001" font-family="Inconsolata" font-size="14.00" fill="#000000"> &#160;&#160;&#160;return handle</text>
<text text-anchor="middle" x="438.8823" y="-115.6001" font-family="Inconsolata" font-size="14.00" fill="#000000">end</text>
<text text-anchor="middle" x="438.8823" y="-84.2" font-family="Inconsolata" font-size="14.00" fill="#000000">return u.export(h, new)</text>
</g>
<!-- codeblock_4&#45;&gt;leaf_7 -->
<g id="edge7" class="edge">
<title>codeblock_4&#45;&gt;leaf_7</title>
<path fill="none" stroke="#000000" stroke-dasharray="5,2" d="M407.2192,-539.0005C408.0969,-532.0901 409.1874,-523.5042 410.4305,-513.716"/>
<polygon fill="#000000" stroke="#000000" points="413.9345,-513.9058 411.7224,-503.5445 406.9903,-513.0238 413.9345,-513.9058"/>
</g>
<!-- leaf_6 -->
<g id="node7" class="node">
<title>leaf_6</title>
<polygon fill="none" stroke="#c0c0c0" points="205.8823,-40 151.8823,-40 151.8823,0 205.8823,0 205.8823,-40"/>
</g>
<!-- raw_5&#45;&gt;leaf_6 -->
<g id="edge6" class="edge">
<title>raw_5&#45;&gt;leaf_6</title>
<path fill="none" stroke="#000000" stroke-dasharray="5,2" d="M178.8823,-271.5857C178.8823,-226.0943 178.8823,-106.664 178.8823,-50.2886"/>
<polygon fill="#000000" stroke="#000000" points="182.3824,-50.211 178.8823,-40.211 175.3824,-50.211 182.3824,-50.211"/>
</g>
</g>
</svg>