<?xml version="1.0" encoding="UTF-8" standalone="no"?>
<!DOCTYPE svg PUBLIC "-//W3C//DTD SVG 1.1//EN"
 "http://www.w3.org/Graphics/SVG/1.1/DTD/svg11.dtd">
<!-- Generated by graphviz version 2.40.1 (20161225.0304)
 -->
<!-- Title: hierarchy Pages: 1 -->
<svg width="696pt" height="569pt"
 viewBox="0.00 0.00 695.50 569.40" xmlns="http://www.w3.org/2000/svg" xmlns:xlink="http://www.w3.org/1999/xlink">
<g id="graph0" class="graph" transform="scale(1 1) rotate(0) translate(4 565.4003)">
<title>hierarchy</title>
<polygon fill="#ffffff" stroke="transparent" points="-4,4 -4,-565.4003 691.5,-565.4003 691.5,4 -4,4"/>
<!-- doc_0 -->
<g id="node1" class="node">
<title>doc_0</title>
<ellipse fill="none" stroke="#000000" cx="310.5" cy="-543.4003" rx="42.1216" ry="18"/>
<text text-anchor="middle" x="310.5" y="-539.2003" font-family="Helvetica,sans-Serif" font-size="14.00" fill="#000000">doc &#45; 24</text>
</g>
<!-- section_1 -->
<g id="node2" class="node">
<title>section_1</title>
<ellipse fill="none" stroke="#000000" cx="310.5" cy="-471.4003" rx="60.9826" ry="18"/>
<text text-anchor="middle" x="310.5" y="-467.2003" font-family="Helvetica,sans-Serif" font-size="14.00" fill="#000000">section: 1&#45;24</text>
</g>
<!-- doc_0&#45;&gt;section_1 -->
<g id="edge1" class="edge">
<title>doc_0&#45;&gt;section_1</title>
<path fill="none" stroke="#000000" stroke-dasharray="5,2" d="M310.5,-525.2317C310.5,-517.5313 310.5,-508.3747 310.5,-499.817"/>
<polygon fill="#000000" stroke="#000000" points="314.0001,-499.8136 310.5,-489.8136 307.0001,-499.8136 314.0001,-499.8136"/>
</g>
<!-- header_2 -->
<g id="node3" class="node">
<title>header_2</title>
<ellipse fill="none" stroke="#000000" cx="150.5" cy="-399.4003" rx="95.7969" ry="18"/>
<text text-anchor="middle" x="150.5" y="-395.2003" font-family="Helvetica,sans-Serif" font-size="14.00" fill="#000000">1 : Handleline module</text>
</g>
<!-- section_1&#45;&gt;header_2 -->
<g id="edge2" class="edge">
<title>section_1&#45;&gt;header_2</title>
<path fill="none" stroke="#000000" stroke-dasharray="5,2" d="M276.9588,-456.3068C253.6992,-445.84 222.4213,-431.7649 196.7921,-420.2318"/>
<polygon fill="#000000" stroke="#000000" points="198.1861,-417.0211 187.6306,-416.1091 195.3135,-423.4046 198.1861,-417.0211"/>
</g>
<!-- block_3 -->
<g id="node4" class="node">
<title>block_3</title>
<ellipse fill="none" stroke="#000000" cx="310.5" cy="-399.4003" rx="45.9804" ry="18"/>
<text text-anchor="middle" x="310.5" y="-395.2003" font-family="Helvetica,sans-Serif" font-size="14.00" fill="#000000">block 1&#45;4</text>
</g>
<!-- section_1&#45;&gt;block_3 -->
<g id="edge3" class="edge">
<title>section_1&#45;&gt;block_3</title>
<path fill="none" stroke="#000000" stroke-dasharray="5,2" d="M310.5,-453.2317C310.5,-445.5313 310.5,-436.3747 310.5,-427.817"/>
<polygon fill="#000000" stroke="#000000" points="314.0001,-427.8136 310.5,-417.8136 307.0001,-427.8136 314.0001,-427.8136"/>
</g>
<!-- block_4 -->
<g id="node5" class="node">
<title>block_4</title>
<ellipse fill="none" stroke="#000000" cx="457.5" cy="-399.4003" rx="50.8172" ry="18"/>
<text text-anchor="middle" x="457.5" y="-395.2003" font-family="Helvetica,sans-Serif" font-size="14.00" fill="#000000">block 5&#45;24</text>
</g>
<!-- section_1&#45;&gt;block_4 -->
<g id="edge4" class="edge">
<title>section_1&#45;&gt;block_4</title>
<path fill="none" stroke="#000000" stroke-dasharray="5,2" d="M342.0352,-455.9545C364.378,-445.0111 394.5012,-430.2569 418.3773,-418.5625"/>
<polygon fill="#000000" stroke="#000000" points="420.0814,-421.6252 427.5225,-414.0832 417.0023,-415.3387 420.0814,-421.6252"/>
</g>
<!-- prose_5 -->
<g id="node6" class="node">
<title>prose_5</title>
<ellipse fill="none" stroke="#000000" cx="294.5" cy="-327.4003" rx="32.4585" ry="18"/>
<text text-anchor="middle" x="294.5" y="-323.2003" font-family="Helvetica,sans-Serif" font-size="14.00" fill="#000000">prose</text>
</g>
<!-- block_3&#45;&gt;prose_5 -->
<g id="edge5" class="edge">
<title>block_3&#45;&gt;prose_5</title>
<path fill="none" stroke="#000000" stroke-dasharray="5,2" d="M306.4625,-381.2317C304.7059,-373.3269 302.6083,-363.8876 300.6637,-355.1368"/>
<polygon fill="#000000" stroke="#000000" points="304.0668,-354.3163 298.4808,-345.3138 297.2335,-355.8349 304.0668,-354.3163"/>
</g>
<!-- codeblock_7 -->
<g id="node8" class="node">
<title>codeblock_7</title>
<ellipse fill="none" stroke="#000000" cx="474.5" cy="-327.4003" rx="72.5844" ry="18"/>
<text text-anchor="middle" x="474.5" y="-323.2003" font-family="Helvetica,sans-Serif" font-size="14.00" fill="#000000">code block 5&#45;23</text>
</g>
<!-- block_4&#45;&gt;codeblock_7 -->
<g id="edge7" class="edge">
<title>block_4&#45;&gt;codeblock_7</title>
<path fill="none" stroke="#000000" stroke-dasharray="5,2" d="M461.7898,-381.2317C463.608,-373.5313 465.7699,-364.3747 467.7905,-355.817"/>
<polygon fill="#000000" stroke="#000000" points="471.2608,-356.3503 470.1524,-345.8136 464.4481,-354.7417 471.2608,-356.3503"/>
</g>
<!-- leaf_6 -->
<g id="node7" class="node">
<title>leaf_6</title>
<polygon fill="none" stroke="#c0c0c0" points="359,-156.6023 0,-156.6023 0,-116.7981 359,-116.7981 359,-156.6023"/>
<text text-anchor="middle" x="179.5" y="-125.2002" font-family="Inconsolata" font-size="14.00" fill="#000000"> &#160;&#160;A minimalist Node container for a handle line.</text>
</g>
<!-- prose_5&#45;&gt;leaf_6 -->
<g id="edge6" class="edge">
<title>prose_5&#45;&gt;leaf_6</title>
<path fill="none" stroke="#000000" stroke-dasharray="5,2" d="M284.0917,-310.1406C264.2922,-277.3078 221.0235,-205.557 196.8013,-165.3902"/>
<polygon fill="#000000" stroke="#000000" points="199.6691,-163.3681 191.5077,-156.6121 193.6746,-166.983 199.6691,-163.3681"/>
</g>
<!-- leaf_8 -->
<g id="node9" class="node">
<title>leaf_8</title>
<polygon fill="none" stroke="#c0c0c0" points="687.5,-273.6008 377.5,-273.6008 377.5,.2005 687.5,.2005 687.5,-273.6008"/>
<text text-anchor="middle" x="532.5" y="-258.2003" font-family="Inconsolata" font-size="14.00" fill="#000000">local Node = require &quot;peg/node&quot;</text>
<text text-anchor="middle" x="532.5" y="-242.8003" font-family="Inconsolata" font-size="14.00" fill="#000000">local u = require &quot;../lib/util&quot;</text>
<text text-anchor="middle" x="532.5" y="-211.4003" font-family="Inconsolata" font-size="14.00" fill="#000000">local Handle = require &quot;grym/handle&quot;</text>
<text text-anchor="middle" x="532.5" y="-180.0002" font-family="Inconsolata" font-size="14.00" fill="#000000">local H, h = u.inherit(Node)</text>
<text text-anchor="middle" x="532.5" y="-148.6002" font-family="Inconsolata" font-size="14.00" fill="#000000">local function new(Hashline, line)</text>
<text text-anchor="middle" x="532.5" y="-133.2002" font-family="Inconsolata" font-size="14.00" fill="#000000"> &#160;&#160;&#160;local handleline = setmetatable({}, H)</text>
<text text-anchor="middle" x="532.5" y="-117.8002" font-family="Inconsolata" font-size="14.00" fill="#000000"> &#160;&#160;&#160;handleline.id = &quot;handleline&quot;</text>
<text text-anchor="middle" x="532.5" y="-102.4001" font-family="Inconsolata" font-size="14.00" fill="#000000"> &#160;&#160;&#160;handleline[1] = Handle(line)</text>
<text text-anchor="middle" x="532.5" y="-71.0001" font-family="Inconsolata" font-size="14.00" fill="#000000"> &#160;&#160;&#160;return handleline</text>
<text text-anchor="middle" x="532.5" y="-55.6001" font-family="Inconsolata" font-size="14.00" fill="#000000">end</text>
<text text-anchor="middle" x="532.5" y="-8.2" font-family="Inconsolata" font-size="14.00" fill="#000000">return u.export(h, new)</text>
</g>
<!-- codeblock_7&#45;&gt;leaf_8 -->
<g id="edge8" class="edge">
<title>codeblock_7&#45;&gt;leaf_8</title>
<path fill="none" stroke="#000000" stroke-dasharray="5,2" d="M480.0613,-309.1152C482.2314,-301.9799 484.9246,-293.1249 487.9359,-283.2238"/>
<polygon fill="#000000" stroke="#000000" points="491.3526,-284.0183 490.9139,-273.4325 484.6555,-281.9813 491.3526,-284.0183"/>
</g>
</g>
</svg>