<?xml version="1.0" encoding="UTF-8" standalone="no"?>
<!DOCTYPE svg PUBLIC "-//W3C//DTD SVG 1.1//EN"
 "http://www.w3.org/Graphics/SVG/1.1/DTD/svg11.dtd">
<!-- Generated by graphviz version 2.40.1 (20161225.0304)
 -->
<!-- Title: hierarchy Pages: 1 -->
<svg width="673pt" height="651pt"
 viewBox="0.00 0.00 673.38 651.40" xmlns="http://www.w3.org/2000/svg" xmlns:xlink="http://www.w3.org/1999/xlink">
<g id="graph0" class="graph" transform="scale(1 1) rotate(0) translate(4 647.4007)">
<title>hierarchy</title>
<polygon fill="#ffffff" stroke="transparent" points="-4,4 -4,-647.4007 669.3823,-647.4007 669.3823,4 -4,4"/>
<!-- doc_0 -->
<g id="node1" class="node">
<title>doc_0</title>
<ellipse fill="none" stroke="#000000" cx="227.8823" cy="-625.4007" rx="42.1216" ry="18"/>
<text text-anchor="middle" x="227.8823" y="-621.2007" font-family="Helvetica,sans-Serif" font-size="14.00" fill="#000000">doc &#45; 33</text>
</g>
<!-- section_1 -->
<g id="node2" class="node">
<title>section_1</title>
<ellipse fill="none" stroke="#000000" cx="227.8823" cy="-553.4007" rx="60.9826" ry="18"/>
<text text-anchor="middle" x="227.8823" y="-549.2007" font-family="Helvetica,sans-Serif" font-size="14.00" fill="#000000">section: 1&#45;33</text>
</g>
<!-- doc_0&#45;&gt;section_1 -->
<g id="edge1" class="edge">
<title>doc_0&#45;&gt;section_1</title>
<path fill="none" stroke="#000000" stroke-dasharray="5,2" d="M227.8823,-607.232C227.8823,-599.5316 227.8823,-590.375 227.8823,-581.8173"/>
<polygon fill="#000000" stroke="#000000" points="231.3824,-581.8139 227.8823,-571.8139 224.3824,-581.814 231.3824,-581.8139"/>
</g>
<!-- header_2 -->
<g id="node3" class="node">
<title>header_2</title>
<ellipse fill="none" stroke="#000000" cx="81.8823" cy="-481.4007" rx="81.7647" ry="18"/>
<text text-anchor="middle" x="81.8823" y="-477.2007" font-family="Helvetica,sans-Serif" font-size="14.00" fill="#000000">1 : Handle Module</text>
</g>
<!-- section_1&#45;&gt;header_2 -->
<g id="edge2" class="edge">
<title>section_1&#45;&gt;header_2</title>
<path fill="none" stroke="#000000" stroke-dasharray="5,2" d="M196.5616,-537.9548C175.5736,-527.6046 147.6731,-513.8455 124.6473,-502.4903"/>
<polygon fill="#000000" stroke="#000000" points="125.9552,-499.2328 115.4384,-497.9489 122.8591,-505.5109 125.9552,-499.2328"/>
</g>
<!-- block_3 -->
<g id="node4" class="node">
<title>block_3</title>
<ellipse fill="none" stroke="#000000" cx="227.8823" cy="-481.4007" rx="45.9804" ry="18"/>
<text text-anchor="middle" x="227.8823" y="-477.2007" font-family="Helvetica,sans-Serif" font-size="14.00" fill="#000000">block 1&#45;3</text>
</g>
<!-- section_1&#45;&gt;block_3 -->
<g id="edge3" class="edge">
<title>section_1&#45;&gt;block_3</title>
<path fill="none" stroke="#000000" stroke-dasharray="5,2" d="M227.8823,-535.232C227.8823,-527.5316 227.8823,-518.375 227.8823,-509.8173"/>
<polygon fill="#000000" stroke="#000000" points="231.3824,-509.8139 227.8823,-499.8139 224.3824,-509.814 231.3824,-509.8139"/>
</g>
<!-- codeblock_4 -->
<g id="node5" class="node">
<title>codeblock_4</title>
<ellipse fill="none" stroke="#000000" cx="388.8823" cy="-481.4007" rx="72.5844" ry="18"/>
<text text-anchor="middle" x="388.8823" y="-477.2007" font-family="Helvetica,sans-Serif" font-size="14.00" fill="#000000">code block 4&#45;32</text>
</g>
<!-- section_1&#45;&gt;codeblock_4 -->
<g id="edge4" class="edge">
<title>section_1&#45;&gt;codeblock_4</title>
<path fill="none" stroke="#000000" stroke-dasharray="5,2" d="M261.6331,-538.3071C285.6129,-527.5832 318.0623,-513.0717 344.1906,-501.387"/>
<polygon fill="#000000" stroke="#000000" points="345.8036,-504.4998 353.5034,-497.2222 342.9458,-498.1097 345.8036,-504.4998"/>
</g>
<!-- leaf_5 -->
<g id="node6" class="node">
<title>leaf_5</title>
<polygon fill="none" stroke="#c0c0c0" points="108.8823,-231.7003 54.8823,-231.7003 54.8823,-195.7003 108.8823,-195.7003 108.8823,-231.7003"/>
</g>
<!-- header_2&#45;&gt;leaf_5 -->
<g id="edge5" class="edge">
<title>header_2&#45;&gt;leaf_5</title>
<path fill="none" stroke="#000000" stroke-dasharray="5,2" d="M81.8823,-463.0005C81.8823,-417.0417 81.8823,-296.9767 81.8823,-241.9683"/>
<polygon fill="#000000" stroke="#000000" points="85.3824,-241.8752 81.8823,-231.8752 78.3824,-241.8753 85.3824,-241.8752"/>
</g>
<!-- leaf_6 -->
<g id="node7" class="node">
<title>leaf_6</title>
<polygon fill="none" stroke="#c0c0c0" points="217.8823,-231.7003 163.8823,-231.7003 163.8823,-195.7003 217.8823,-195.7003 217.8823,-231.7003"/>
</g>
<!-- block_3&#45;&gt;leaf_6 -->
<g id="edge6" class="edge">
<title>block_3&#45;&gt;leaf_6</title>
<path fill="none" stroke="#000000" stroke-dasharray="5,2" d="M225.3971,-463.4204C219.0932,-417.8106 202.4399,-297.3218 194.8061,-242.0896"/>
<polygon fill="#000000" stroke="#000000" points="198.2415,-241.3814 193.4053,-231.9548 191.3075,-242.3399 198.2415,-241.3814"/>
</g>
<!-- leaf_7 -->
<g id="node8" class="node">
<title>leaf_7</title>
<polygon fill="none" stroke="#c0c0c0" points="665.3823,-427.6012 236.3823,-427.6012 236.3823,.2005 665.3823,.2005 665.3823,-427.6012"/>
<text text-anchor="middle" x="450.8823" y="-412.2007" font-family="Inconsolata" font-size="14.00" fill="#000000">local L = require &quot;lpeg&quot;</text>
<text text-anchor="middle" x="450.8823" y="-380.8006" font-family="Inconsolata" font-size="14.00" fill="#000000">local Node = require &quot;peg/node&quot;</text>
<text text-anchor="middle" x="450.8823" y="-365.4006" font-family="Inconsolata" font-size="14.00" fill="#000000">local u = require &quot;../lib/util&quot;</text>
<text text-anchor="middle" x="450.8823" y="-334.0006" font-family="Inconsolata" font-size="14.00" fill="#000000">local m = require &quot;grym/morphemes&quot;</text>
<text text-anchor="middle" x="450.8823" y="-302.6005" font-family="Inconsolata" font-size="14.00" fill="#000000">local H, h = u.inherit(Node)</text>
<text text-anchor="middle" x="450.8823" y="-271.2005" font-family="Inconsolata" font-size="14.00" fill="#000000">function h.matchHandle(line)</text>
<text text-anchor="middle" x="450.8823" y="-255.8005" font-family="Inconsolata" font-size="14.00" fill="#000000"> &#160;&#160;&#160;local handlen = L.match(L.C(m.handle), line)</text>
<text text-anchor="middle" x="450.8823" y="-240.4004" font-family="Inconsolata" font-size="14.00" fill="#000000"> &#160;&#160;&#160;if handlen then</text>
<text text-anchor="middle" x="450.8823" y="-225.0004" font-family="Inconsolata" font-size="14.00" fill="#000000"> &#160;&#160;&#160;&#160;&#160;&#160;&#160;return handlen</text>
<text text-anchor="middle" x="450.8823" y="-209.6004" font-family="Inconsolata" font-size="14.00" fill="#000000"> &#160;&#160;&#160;else</text>
<text text-anchor="middle" x="450.8823" y="-194.2003" font-family="Inconsolata" font-size="14.00" fill="#000000"> &#160;&#160;&#160;&#160;&#160;&#160;&#160;return &quot;&quot;</text>
<text text-anchor="middle" x="450.8823" y="-178.8003" font-family="Inconsolata" font-size="14.00" fill="#000000"> &#160;&#160;&#160;&#160;&#160;&#160;&#160;&#45;&#45;u.freeze(&quot;h.matchHandle fails to match a handle&quot;)</text>
<text text-anchor="middle" x="450.8823" y="-163.4003" font-family="Inconsolata" font-size="14.00" fill="#000000"> &#160;&#160;&#160;end</text>
<text text-anchor="middle" x="450.8823" y="-148.0002" font-family="Inconsolata" font-size="14.00" fill="#000000">end</text>
<text text-anchor="middle" x="450.8823" y="-116.6002" font-family="Inconsolata" font-size="14.00" fill="#000000">local function new(Handle, line)</text>
<text text-anchor="middle" x="450.8823" y="-101.2002" font-family="Inconsolata" font-size="14.00" fill="#000000"> &#160;&#160;&#160;local handle = setmetatable({}, H)</text>
<text text-anchor="middle" x="450.8823" y="-85.8002" font-family="Inconsolata" font-size="14.00" fill="#000000"> &#160;&#160;&#160;handle.id = &quot;handle&quot;</text>
<text text-anchor="middle" x="450.8823" y="-70.4001" font-family="Inconsolata" font-size="14.00" fill="#000000"> &#160;&#160;&#160;handle.val = h.matchHandle(line):sub(2, &#45;1)</text>
<text text-anchor="middle" x="450.8823" y="-55.0001" font-family="Inconsolata" font-size="14.00" fill="#000000"> &#160;&#160;&#160;return handle</text>
<text text-anchor="middle" x="450.8823" y="-39.6001" font-family="Inconsolata" font-size="14.00" fill="#000000">end</text>
<text text-anchor="middle" x="450.8823" y="-8.2" font-family="Inconsolata" font-size="14.00" fill="#000000">return u.export(h, new)</text>
</g>
<!-- codeblock_4&#45;&gt;leaf_7 -->
<g id="edge7" class="edge">
<title>codeblock_4&#45;&gt;leaf_7</title>
<path fill="none" stroke="#000000" stroke-dasharray="5,2" d="M393.0465,-463.4204C394.672,-456.4022 396.708,-447.611 399.0365,-437.5574"/>
<polygon fill="#000000" stroke="#000000" points="402.508,-438.0801 401.3546,-427.5483 395.6885,-436.5007 402.508,-438.0801"/>
</g>
</g>
</svg>