<?xml version="1.0" encoding="UTF-8" standalone="no"?>
<!DOCTYPE svg PUBLIC "-//W3C//DTD SVG 1.1//EN"
 "http://www.w3.org/Graphics/SVG/1.1/DTD/svg11.dtd">
<!-- Generated by graphviz version 2.40.1 (20161225.0304)
 -->
<!-- Title: hierarchy Pages: 1 -->
<svg width="539pt" height="589pt"
 viewBox="0.00 0.00 539.00 588.80" xmlns="http://www.w3.org/2000/svg" xmlns:xlink="http://www.w3.org/1999/xlink">
<g id="graph0" class="graph" transform="scale(1 1) rotate(0) translate(4 584.8004)">
<title>hierarchy</title>
<polygon fill="#ffffff" stroke="transparent" points="-4,4 -4,-584.8004 535,-584.8004 535,4 -4,4"/>
<!-- doc_0 -->
<g id="node1" class="node">
<title>doc_0</title>
<ellipse fill="none" stroke="#000000" cx="240" cy="-562.8004" rx="27" ry="18"/>
<text text-anchor="middle" x="240" y="-558.6004" font-family="Helvetica,sans-Serif" font-size="14.00" fill="#000000">24 &#160;</text>
</g>
<!-- section_1 -->
<g id="node2" class="node">
<title>section_1</title>
<ellipse fill="none" stroke="#000000" cx="240" cy="-490.8004" rx="27" ry="18"/>
<text text-anchor="middle" x="240" y="-486.6004" font-family="Helvetica,sans-Serif" font-size="14.00" fill="#000000">24 &#160;</text>
</g>
<!-- doc_0&#45;&gt;section_1 -->
<g id="edge1" class="edge">
<title>doc_0&#45;&gt;section_1</title>
<path fill="none" stroke="#000000" stroke-dasharray="5,2" d="M240,-544.6317C240,-536.9313 240,-527.7747 240,-519.217"/>
<polygon fill="#000000" stroke="#000000" points="243.5001,-519.2136 240,-509.2136 236.5001,-519.2137 243.5001,-519.2136"/>
</g>
<!-- header_2 -->
<g id="node3" class="node">
<title>header_2</title>
<ellipse fill="none" stroke="#000000" cx="168" cy="-418.8004" rx="27" ry="18"/>
<text text-anchor="middle" x="168" y="-414.6004" font-family="Helvetica,sans-Serif" font-size="14.00" fill="#000000">le &#160;</text>
</g>
<!-- section_1&#45;&gt;header_2 -->
<g id="edge2" class="edge">
<title>section_1&#45;&gt;header_2</title>
<path fill="none" stroke="#000000" stroke-dasharray="5,2" d="M224.7307,-475.531C214.803,-465.6034 201.6847,-452.4851 190.5637,-441.364"/>
<polygon fill="#000000" stroke="#000000" points="192.7933,-438.6439 183.2473,-434.0477 187.8436,-443.5937 192.7933,-438.6439"/>
</g>
<!-- block_3 -->
<g id="node4" class="node">
<title>block_3</title>
<ellipse fill="none" stroke="#000000" cx="240" cy="-418.8004" rx="27" ry="18"/>
<text text-anchor="middle" x="240" y="-414.6004" font-family="Helvetica,sans-Serif" font-size="14.00" fill="#000000">&#45;4 &#160;</text>
</g>
<!-- section_1&#45;&gt;block_3 -->
<g id="edge3" class="edge">
<title>section_1&#45;&gt;block_3</title>
<path fill="none" stroke="#000000" stroke-dasharray="5,2" d="M240,-472.6317C240,-464.9313 240,-455.7747 240,-447.217"/>
<polygon fill="#000000" stroke="#000000" points="243.5001,-447.2136 240,-437.2136 236.5001,-447.2137 243.5001,-447.2136"/>
</g>
<!-- block_4 -->
<g id="node5" class="node">
<title>block_4</title>
<ellipse fill="none" stroke="#000000" cx="383" cy="-418.8004" rx="27" ry="18"/>
<text text-anchor="middle" x="383" y="-414.6004" font-family="Helvetica,sans-Serif" font-size="14.00" fill="#000000">24 &#160;</text>
</g>
<!-- section_1&#45;&gt;block_4 -->
<g id="edge4" class="edge">
<title>section_1&#45;&gt;block_4</title>
<path fill="none" stroke="#000000" stroke-dasharray="5,2" d="M261.7186,-479.8651C285.7614,-467.7597 324.713,-448.1477 351.968,-434.4249"/>
<polygon fill="#000000" stroke="#000000" points="353.7192,-437.4618 361.077,-429.8385 350.5712,-431.2096 353.7192,-437.4618"/>
</g>
<!-- leaf_5 -->
<g id="node6" class="node">
<title>leaf_5</title>
<polygon fill="none" stroke="#c0c0c0" points="338,-365.0018 0,-365.0018 0,-309.1989 338,-309.1989 338,-365.0018"/>
<text text-anchor="middle" x="169" y="-333.6004" font-family="Inconsolata" font-size="14.00" fill="#000000"> &#160;&#160;A minimalist Node container for a hashline.</text>
</g>
<!-- block_3&#45;&gt;leaf_5 -->
<g id="edge5" class="edge">
<title>block_3&#45;&gt;leaf_5</title>
<path fill="none" stroke="#000000" stroke-dasharray="5,2" d="M226.3105,-403.0478C218.7876,-394.3912 209.1314,-383.2797 199.8976,-372.6544"/>
<polygon fill="#000000" stroke="#000000" points="202.4866,-370.2977 193.2852,-365.0455 197.2029,-374.8894 202.4866,-370.2977"/>
</g>
<!-- codeblock_6 -->
<g id="node7" class="node">
<title>codeblock_6</title>
<ellipse fill="none" stroke="#000000" cx="383" cy="-337.1004" rx="27" ry="18"/>
<text text-anchor="middle" x="383" y="-332.9004" font-family="Helvetica,sans-Serif" font-size="14.00" fill="#000000">23 &#160;</text>
</g>
<!-- block_4&#45;&gt;codeblock_6 -->
<g id="edge6" class="edge">
<title>block_4&#45;&gt;codeblock_6</title>
<path fill="none" stroke="#000000" stroke-dasharray="5,2" d="M383,-400.6685C383,-390.3026 383,-377.0751 383,-365.3733"/>
<polygon fill="#000000" stroke="#000000" points="386.5001,-365.1815 383,-355.1816 379.5001,-365.1816 386.5001,-365.1815"/>
</g>
<!-- leaf_8 -->
<g id="node9" class="node">
<title>leaf_8</title>
<polygon fill="none" stroke="#c0c0c0" points="482,-355.1004 428,-355.1004 428,-319.1004 482,-319.1004 482,-355.1004"/>
</g>
<!-- block_4&#45;&gt;leaf_8 -->
<g id="edge8" class="edge">
<title>block_4&#45;&gt;leaf_8</title>
<path fill="none" stroke="#000000" stroke-dasharray="5,2" d="M396.8823,-403.0478C406.8314,-391.7583 420.4602,-376.2934 432.0194,-363.1769"/>
<polygon fill="#000000" stroke="#000000" points="434.912,-365.1884 438.8978,-355.3719 429.6603,-360.5602 434.912,-365.1884"/>
</g>
<!-- leaf_7 -->
<g id="node8" class="node">
<title>leaf_7</title>
<polygon fill="none" stroke="#c0c0c0" points="531,-273.6008 235,-273.6008 235,.2005 531,.2005 531,-273.6008"/>
<text text-anchor="middle" x="383" y="-258.2003" font-family="Inconsolata" font-size="14.00" fill="#000000">local Node = require &quot;peg/node&quot;</text>
<text text-anchor="middle" x="383" y="-242.8003" font-family="Inconsolata" font-size="14.00" fill="#000000">local u = require &quot;../lib/util&quot;</text>
<text text-anchor="middle" x="383" y="-211.4003" font-family="Inconsolata" font-size="14.00" fill="#000000">local Hashtag = require &quot;grym/hashtag&quot;</text>
<text text-anchor="middle" x="383" y="-180.0002" font-family="Inconsolata" font-size="14.00" fill="#000000">local H, h = u.inherit(Node)</text>
<text text-anchor="middle" x="383" y="-148.6002" font-family="Inconsolata" font-size="14.00" fill="#000000">local function new(Hashline, line)</text>
<text text-anchor="middle" x="383" y="-133.2002" font-family="Inconsolata" font-size="14.00" fill="#000000"> &#160;&#160;&#160;local hashline = setmetatable({}, H)</text>
<text text-anchor="middle" x="383" y="-117.8002" font-family="Inconsolata" font-size="14.00" fill="#000000"> &#160;&#160;&#160;hashline.id = &quot;hashline&quot;</text>
<text text-anchor="middle" x="383" y="-102.4001" font-family="Inconsolata" font-size="14.00" fill="#000000"> &#160;&#160;&#160;hashline[1] = Hashtag(line)</text>
<text text-anchor="middle" x="383" y="-71.0001" font-family="Inconsolata" font-size="14.00" fill="#000000"> &#160;&#160;&#160;return hashline </text>
<text text-anchor="middle" x="383" y="-55.6001" font-family="Inconsolata" font-size="14.00" fill="#000000">end</text>
<text text-anchor="middle" x="383" y="-8.2" font-family="Inconsolata" font-size="14.00" fill="#000000">return u.export(h, new)</text>
</g>
<!-- codeblock_6&#45;&gt;leaf_7 -->
<g id="edge7" class="edge">
<title>codeblock_6&#45;&gt;leaf_7</title>
<path fill="none" stroke="#000000" stroke-dasharray="5,2" d="M383,-318.9627C383,-309.7366 383,-297.5862 383,-283.928"/>
<polygon fill="#000000" stroke="#000000" points="386.5001,-283.7365 383,-273.7366 379.5001,-283.7366 386.5001,-283.7365"/>
</g>
</g>
</svg>