<?xml version="1.0" encoding="UTF-8" standalone="no"?>
<!DOCTYPE svg PUBLIC "-//W3C//DTD SVG 1.1//EN"
 "http://www.w3.org/Graphics/SVG/1.1/DTD/svg11.dtd">
<!-- Generated by graphviz version 2.40.1 (20161225.0304)
 -->
<!-- Title: hierarchy Pages: 1 -->
<svg width="664pt" height="497pt"
 viewBox="0.00 0.00 664.27 497.40" xmlns="http://www.w3.org/2000/svg" xmlns:xlink="http://www.w3.org/1999/xlink">
<g id="graph0" class="graph" transform="scale(1 1) rotate(0) translate(4 493.4003)">
<title>hierarchy</title>
<polygon fill="#ffffff" stroke="transparent" points="-4,4 -4,-493.4003 660.2687,-493.4003 660.2687,4 -4,4"/>
<!-- doc_0 -->
<g id="node1" class="node">
<title>doc_0</title>
<ellipse fill="none" stroke="#000000" cx="226.2687" cy="-471.4003" rx="42.1216" ry="18"/>
<text text-anchor="middle" x="226.2687" y="-467.2003" font-family="Helvetica,sans-Serif" font-size="14.00" fill="#000000">doc &#45; 24</text>
</g>
<!-- section_1 -->
<g id="node2" class="node">
<title>section_1</title>
<ellipse fill="none" stroke="#000000" cx="226.2687" cy="-399.4003" rx="60.9826" ry="18"/>
<text text-anchor="middle" x="226.2687" y="-395.2003" font-family="Helvetica,sans-Serif" font-size="14.00" fill="#000000">section: 1&#45;24</text>
</g>
<!-- doc_0&#45;&gt;section_1 -->
<g id="edge1" class="edge">
<title>doc_0&#45;&gt;section_1</title>
<path fill="none" stroke="#000000" stroke-dasharray="5,2" d="M226.2687,-453.2317C226.2687,-445.5313 226.2687,-436.3747 226.2687,-427.817"/>
<polygon fill="#000000" stroke="#000000" points="229.7688,-427.8136 226.2687,-417.8136 222.7688,-427.8136 229.7688,-427.8136"/>
</g>
<!-- header_2 -->
<g id="node3" class="node">
<title>header_2</title>
<ellipse fill="none" stroke="#000000" cx="88.2687" cy="-327.4003" rx="88.0381" ry="18"/>
<text text-anchor="middle" x="88.2687" y="-323.2003" font-family="Helvetica,sans-Serif" font-size="14.00" fill="#000000">1 : Hashline module</text>
</g>
<!-- section_1&#45;&gt;header_2 -->
<g id="edge2" class="edge">
<title>section_1&#45;&gt;header_2</title>
<path fill="none" stroke="#000000" stroke-dasharray="5,2" d="M195.984,-383.5996C176.4067,-373.3854 150.6813,-359.9634 129.2809,-348.798"/>
<polygon fill="#000000" stroke="#000000" points="130.8894,-345.6895 120.4046,-344.1669 127.6514,-351.8956 130.8894,-345.6895"/>
</g>
<!-- prose_3 -->
<g id="node4" class="node">
<title>prose_3</title>
<ellipse fill="none" stroke="#000000" cx="226.2687" cy="-327.4003" rx="32.4585" ry="18"/>
<text text-anchor="middle" x="226.2687" y="-323.2003" font-family="Helvetica,sans-Serif" font-size="14.00" fill="#000000">prose</text>
</g>
<!-- section_1&#45;&gt;prose_3 -->
<g id="edge3" class="edge">
<title>section_1&#45;&gt;prose_3</title>
<path fill="none" stroke="#000000" stroke-dasharray="5,2" d="M226.2687,-381.2317C226.2687,-373.5313 226.2687,-364.3747 226.2687,-355.817"/>
<polygon fill="#000000" stroke="#000000" points="229.7688,-355.8136 226.2687,-345.8136 222.7688,-355.8136 229.7688,-355.8136"/>
</g>
<!-- codeblock_4 -->
<g id="node5" class="node">
<title>codeblock_4</title>
<ellipse fill="none" stroke="#000000" cx="455.2687" cy="-327.4003" rx="72.5844" ry="18"/>
<text text-anchor="middle" x="455.2687" y="-323.2003" font-family="Helvetica,sans-Serif" font-size="14.00" fill="#000000">code block 5&#45;23</text>
</g>
<!-- section_1&#45;&gt;codeblock_4 -->
<g id="edge4" class="edge">
<title>section_1&#45;&gt;codeblock_4</title>
<path fill="none" stroke="#000000" stroke-dasharray="5,2" d="M268.0046,-386.2782C305.1888,-374.5871 359.8547,-357.3995 400.535,-344.6092"/>
<polygon fill="#000000" stroke="#000000" points="401.8049,-347.8789 410.2947,-341.5407 399.7053,-341.2012 401.8049,-347.8789"/>
</g>
<!-- leaf_5 -->
<g id="node6" class="node">
<title>leaf_5</title>
<polygon fill="none" stroke="#c0c0c0" points="342.2687,-156.6023 4.2687,-156.6023 4.2687,-116.7981 342.2687,-116.7981 342.2687,-156.6023"/>
<text text-anchor="middle" x="173.2687" y="-125.2002" font-family="Inconsolata" font-size="14.00" fill="#000000"> &#160;&#160;A minimalist Node container for a hashline.</text>
</g>
<!-- prose_3&#45;&gt;leaf_5 -->
<g id="edge5" class="edge">
<title>prose_3&#45;&gt;leaf_5</title>
<path fill="none" stroke="#000000" stroke-dasharray="5,2" d="M221.2826,-309.4597C212.1324,-276.5361 192.5799,-206.1841 181.455,-166.1555"/>
<polygon fill="#000000" stroke="#000000" points="184.8038,-165.1337 178.7538,-156.4362 178.0594,-167.0082 184.8038,-165.1337"/>
</g>
<!-- leaf_6 -->
<g id="node7" class="node">
<title>leaf_6</title>
<polygon fill="none" stroke="#c0c0c0" points="656.2687,-273.6008 360.2687,-273.6008 360.2687,.2005 656.2687,.2005 656.2687,-273.6008"/>
<text text-anchor="middle" x="508.2687" y="-258.2003" font-family="Inconsolata" font-size="14.00" fill="#000000">local Node = require &quot;peg/node&quot;</text>
<text text-anchor="middle" x="508.2687" y="-242.8003" font-family="Inconsolata" font-size="14.00" fill="#000000">local u = require &quot;../lib/util&quot;</text>
<text text-anchor="middle" x="508.2687" y="-211.4003" font-family="Inconsolata" font-size="14.00" fill="#000000">local Hashtag = require &quot;grym/hashtag&quot;</text>
<text text-anchor="middle" x="508.2687" y="-180.0002" font-family="Inconsolata" font-size="14.00" fill="#000000">local H, h = u.inherit(Node)</text>
<text text-anchor="middle" x="508.2687" y="-148.6002" font-family="Inconsolata" font-size="14.00" fill="#000000">local function new(Hashline, line)</text>
<text text-anchor="middle" x="508.2687" y="-133.2002" font-family="Inconsolata" font-size="14.00" fill="#000000"> &#160;&#160;&#160;local hashline = setmetatable({}, H)</text>
<text text-anchor="middle" x="508.2687" y="-117.8002" font-family="Inconsolata" font-size="14.00" fill="#000000"> &#160;&#160;&#160;hashline.id = &quot;hashline&quot;</text>
<text text-anchor="middle" x="508.2687" y="-102.4001" font-family="Inconsolata" font-size="14.00" fill="#000000"> &#160;&#160;&#160;hashline[1] = Hashtag(line)</text>
<text text-anchor="middle" x="508.2687" y="-71.0001" font-family="Inconsolata" font-size="14.00" fill="#000000"> &#160;&#160;&#160;return hashline </text>
<text text-anchor="middle" x="508.2687" y="-55.6001" font-family="Inconsolata" font-size="14.00" fill="#000000">end</text>
<text text-anchor="middle" x="508.2687" y="-8.2" font-family="Inconsolata" font-size="14.00" fill="#000000">return u.export(h, new)</text>
</g>
<!-- codeblock_4&#45;&gt;leaf_6 -->
<g id="edge6" class="edge">
<title>codeblock_4&#45;&gt;leaf_6</title>
<path fill="none" stroke="#000000" stroke-dasharray="5,2" d="M460.3506,-309.1152C462.3336,-301.9799 464.7947,-293.1249 467.5464,-283.2238"/>
<polygon fill="#000000" stroke="#000000" points="470.962,-284.0046 470.2676,-273.4325 464.2176,-282.1301 470.962,-284.0046"/>
</g>
</g>
</svg>