<?xml version="1.0" encoding="UTF-8" standalone="no"?>
<!DOCTYPE svg PUBLIC "-//W3C//DTD SVG 1.1//EN"
 "http://www.w3.org/Graphics/SVG/1.1/DTD/svg11.dtd">
<!-- Generated by graphviz version 2.40.1 (20161225.0304)
 -->
<!-- Title: hierarchy Pages: 1 -->
<svg width="619pt" height="755pt"
 viewBox="0.00 0.00 619.00 754.80" xmlns="http://www.w3.org/2000/svg" xmlns:xlink="http://www.w3.org/1999/xlink">
<g id="graph0" class="graph" transform="scale(1 1) rotate(0) translate(4 750.8007)">
<title>hierarchy</title>
<polygon fill="#ffffff" stroke="transparent" points="-4,4 -4,-750.8007 615,-750.8007 615,4 -4,4"/>
<!-- doc_0 -->
<g id="node1" class="node">
<title>doc_0</title>
<ellipse fill="none" stroke="#000000" cx="233.5" cy="-728.8007" rx="27" ry="18"/>
<text text-anchor="middle" x="233.5" y="-724.6007" font-family="Helvetica,sans-Serif" font-size="14.00" fill="#000000">34 &#160;</text>
</g>
<!-- section_1 -->
<g id="node2" class="node">
<title>section_1</title>
<ellipse fill="none" stroke="#000000" cx="233.5" cy="-656.8007" rx="27" ry="18"/>
<text text-anchor="middle" x="233.5" y="-652.6007" font-family="Helvetica,sans-Serif" font-size="14.00" fill="#000000">34 &#160;</text>
</g>
<!-- doc_0&#45;&gt;section_1 -->
<g id="edge1" class="edge">
<title>doc_0&#45;&gt;section_1</title>
<path fill="none" stroke="#000000" stroke-dasharray="5,2" d="M233.5,-710.632C233.5,-702.9316 233.5,-693.775 233.5,-685.2173"/>
<polygon fill="#000000" stroke="#000000" points="237.0001,-685.2139 233.5,-675.214 230.0001,-685.214 237.0001,-685.2139"/>
</g>
<!-- header_2 -->
<g id="node3" class="node">
<title>header_2</title>
<ellipse fill="none" stroke="#000000" cx="161.5" cy="-584.8007" rx="27" ry="18"/>
<text text-anchor="middle" x="161.5" y="-580.6007" font-family="Helvetica,sans-Serif" font-size="14.00" fill="#000000">le &#160;</text>
</g>
<!-- section_1&#45;&gt;header_2 -->
<g id="edge2" class="edge">
<title>section_1&#45;&gt;header_2</title>
<path fill="none" stroke="#000000" stroke-dasharray="5,2" d="M218.2307,-641.5313C208.303,-631.6037 195.1847,-618.4854 184.0637,-607.3643"/>
<polygon fill="#000000" stroke="#000000" points="186.2933,-604.6442 176.7473,-600.048 181.3436,-609.594 186.2933,-604.6442"/>
</g>
<!-- block_3 -->
<g id="node4" class="node">
<title>block_3</title>
<ellipse fill="none" stroke="#000000" cx="233.5" cy="-584.8007" rx="27" ry="18"/>
<text text-anchor="middle" x="233.5" y="-580.6007" font-family="Helvetica,sans-Serif" font-size="14.00" fill="#000000">&#45;2 &#160;</text>
</g>
<!-- section_1&#45;&gt;block_3 -->
<g id="edge3" class="edge">
<title>section_1&#45;&gt;block_3</title>
<path fill="none" stroke="#000000" stroke-dasharray="5,2" d="M233.5,-638.632C233.5,-630.9316 233.5,-621.775 233.5,-613.2173"/>
<polygon fill="#000000" stroke="#000000" points="237.0001,-613.2139 233.5,-603.214 230.0001,-613.214 237.0001,-613.2139"/>
</g>
<!-- block_4 -->
<g id="node5" class="node">
<title>block_4</title>
<ellipse fill="none" stroke="#000000" cx="305.5" cy="-584.8007" rx="27" ry="18"/>
<text text-anchor="middle" x="305.5" y="-580.6007" font-family="Helvetica,sans-Serif" font-size="14.00" fill="#000000">34 &#160;</text>
</g>
<!-- section_1&#45;&gt;block_4 -->
<g id="edge4" class="edge">
<title>section_1&#45;&gt;block_4</title>
<path fill="none" stroke="#000000" stroke-dasharray="5,2" d="M248.7693,-641.5313C258.697,-631.6037 271.8153,-618.4854 282.9363,-607.3643"/>
<polygon fill="#000000" stroke="#000000" points="285.6564,-609.594 290.2527,-600.048 280.7067,-604.6442 285.6564,-609.594"/>
</g>
<!-- leaf_5 -->
<g id="node6" class="node">
<title>leaf_5</title>
<polygon fill="none" stroke="#c0c0c0" points="260.5,-530.8007 206.5,-530.8007 206.5,-494.8007 260.5,-494.8007 260.5,-530.8007"/>
</g>
<!-- block_3&#45;&gt;leaf_5 -->
<g id="edge5" class="edge">
<title>block_3&#45;&gt;leaf_5</title>
<path fill="none" stroke="#000000" stroke-dasharray="5,2" d="M233.5,-566.632C233.5,-558.9316 233.5,-549.775 233.5,-541.2173"/>
<polygon fill="#000000" stroke="#000000" points="237.0001,-541.2139 233.5,-531.214 230.0001,-541.214 237.0001,-541.2139"/>
</g>
<!-- codeblock_6 -->
<g id="node7" class="node">
<title>codeblock_6</title>
<ellipse fill="none" stroke="#000000" cx="305.5" cy="-512.8007" rx="27" ry="18"/>
<text text-anchor="middle" x="305.5" y="-508.6007" font-family="Helvetica,sans-Serif" font-size="14.00" fill="#000000">33 &#160;</text>
</g>
<!-- block_4&#45;&gt;codeblock_6 -->
<g id="edge6" class="edge">
<title>block_4&#45;&gt;codeblock_6</title>
<path fill="none" stroke="#000000" stroke-dasharray="5,2" d="M305.5,-566.632C305.5,-558.9316 305.5,-549.775 305.5,-541.2173"/>
<polygon fill="#000000" stroke="#000000" points="309.0001,-541.2139 305.5,-531.214 302.0001,-541.214 309.0001,-541.2139"/>
</g>
<!-- leaf_8 -->
<g id="node9" class="node">
<title>leaf_8</title>
<polygon fill="none" stroke="#c0c0c0" points="404.5,-530.8007 350.5,-530.8007 350.5,-494.8007 404.5,-494.8007 404.5,-530.8007"/>
</g>
<!-- block_4&#45;&gt;leaf_8 -->
<g id="edge8" class="edge">
<title>block_4&#45;&gt;leaf_8</title>
<path fill="none" stroke="#000000" stroke-dasharray="5,2" d="M320.7693,-569.5313C329.8708,-560.4299 341.6539,-548.6468 352.1212,-538.1795"/>
<polygon fill="#000000" stroke="#000000" points="354.8571,-540.3934 359.4533,-530.8474 349.9073,-535.4436 354.8571,-540.3934"/>
</g>
<!-- leaf_7 -->
<g id="node8" class="node">
<title>leaf_7</title>
<polygon fill="none" stroke="#c0c0c0" points="611,-458.7011 0,-458.7011 0,-.0996 611,-.0996 611,-458.7011"/>
<text text-anchor="middle" x="305.5" y="-443.6007" font-family="Inconsolata" font-size="14.00" fill="#000000">local L = require &quot;lpeg&quot;</text>
<text text-anchor="middle" x="305.5" y="-412.2007" font-family="Inconsolata" font-size="14.00" fill="#000000">local Node = require &quot;peg/node&quot;</text>
<text text-anchor="middle" x="305.5" y="-396.8006" font-family="Inconsolata" font-size="14.00" fill="#000000">local u = require &quot;../lib/util&quot;</text>
<text text-anchor="middle" x="305.5" y="-365.4006" font-family="Inconsolata" font-size="14.00" fill="#000000">local m = require &quot;grym/morphemes&quot;</text>
<text text-anchor="middle" x="305.5" y="-334.0006" font-family="Inconsolata" font-size="14.00" fill="#000000">local H, h = u.inherit(Node)</text>
<text text-anchor="middle" x="305.5" y="-302.6005" font-family="Inconsolata" font-size="14.00" fill="#000000">function h.matchHashtag(line)</text>
<text text-anchor="middle" x="305.5" y="-287.2005" font-family="Inconsolata" font-size="14.00" fill="#000000"> &#160;&#160;&#160;local hashlen = L.match(L.C(m.hashtag), line)</text>
<text text-anchor="middle" x="305.5" y="-271.8005" font-family="Inconsolata" font-size="14.00" fill="#000000"> &#160;&#160;&#160;if hashlen then</text>
<text text-anchor="middle" x="305.5" y="-256.4004" font-family="Inconsolata" font-size="14.00" fill="#000000"> &#160;&#160;&#160;&#160;&#160;&#160;&#160;return hashlen</text>
<text text-anchor="middle" x="305.5" y="-241.0004" font-family="Inconsolata" font-size="14.00" fill="#000000"> &#160;&#160;&#160;else</text>
<text text-anchor="middle" x="305.5" y="-225.6004" font-family="Inconsolata" font-size="14.00" fill="#000000"> &#160;&#160;&#160;&#160;&#160;&#160;&#160;return &quot;&quot;</text>
<text text-anchor="middle" x="305.5" y="-210.2003" font-family="Inconsolata" font-size="14.00" fill="#000000"> &#160;&#160;&#160;&#160;&#160;&#160;&#160;&#45;&#45; This is what it /should/ do, but</text>
<text text-anchor="middle" x="305.5" y="-194.8003" font-family="Inconsolata" font-size="14.00" fill="#000000"> &#160;&#160;&#160;&#160;&#160;&#160;&#160;&#45;&#45; u.freeze(&quot;Hashtag constructor did not match m.hashtag rule on: &#160;&quot; .. line)</text>
<text text-anchor="middle" x="305.5" y="-179.4003" font-family="Inconsolata" font-size="14.00" fill="#000000"> &#160;&#160;&#160;end</text>
<text text-anchor="middle" x="305.5" y="-164.0002" font-family="Inconsolata" font-size="14.00" fill="#000000">end</text>
<text text-anchor="middle" x="305.5" y="-132.6002" font-family="Inconsolata" font-size="14.00" fill="#000000">local function new(Hashtag, line)</text>
<text text-anchor="middle" x="305.5" y="-117.2002" font-family="Inconsolata" font-size="14.00" fill="#000000"> &#160;&#160;&#160;local hashtag = setmetatable({}, H)</text>
<text text-anchor="middle" x="305.5" y="-101.8002" font-family="Inconsolata" font-size="14.00" fill="#000000"> &#160;&#160;&#160;hashtag.id = &quot;hashtag&quot;</text>
<text text-anchor="middle" x="305.5" y="-86.4001" font-family="Inconsolata" font-size="14.00" fill="#000000"> &#160;&#160;&#160;hashtag.val = h.matchHashtag(line):sub(2, &#45;1)</text>
<text text-anchor="middle" x="305.5" y="-55.0001" font-family="Inconsolata" font-size="14.00" fill="#000000"> &#160;&#160;&#160;return hashtag</text>
<text text-anchor="middle" x="305.5" y="-39.6001" font-family="Inconsolata" font-size="14.00" fill="#000000">end</text>
<text text-anchor="middle" x="305.5" y="-8.2" font-family="Inconsolata" font-size="14.00" fill="#000000">return u.export(h, new)</text>
</g>
<!-- codeblock_6&#45;&gt;leaf_7 -->
<g id="edge7" class="edge">
<title>codeblock_6&#45;&gt;leaf_7</title>
<path fill="none" stroke="#000000" stroke-dasharray="5,2" d="M305.5,-494.6416C305.5,-487.7239 305.5,-479.0921 305.5,-469.2099"/>
<polygon fill="#000000" stroke="#000000" points="309.0001,-468.928 305.5,-458.928 302.0001,-468.9281 309.0001,-468.928"/>
</g>
</g>
</svg>