<?xml version="1.0" encoding="UTF-8" standalone="no"?>
<!DOCTYPE svg PUBLIC "-//W3C//DTD SVG 1.1//EN"
 "http://www.w3.org/Graphics/SVG/1.1/DTD/svg11.dtd">
<!-- Generated by graphviz version 2.40.1 (20161225.0304)
 -->
<!-- Title: hierarchy Pages: 1 -->
<svg width="668pt" height="755pt"
 viewBox="0.00 0.00 668.30 754.80" xmlns="http://www.w3.org/2000/svg" xmlns:xlink="http://www.w3.org/1999/xlink">
<g id="graph0" class="graph" transform="scale(1 1) rotate(0) translate(4 750.8007)">
<title>hierarchy</title>
<polygon fill="#ffffff" stroke="transparent" points="-4,4 -4,-750.8007 664.2963,-750.8007 664.2963,4 -4,4"/>
<!-- doc_0 -->
<g id="node1" class="node">
<title>doc_0</title>
<ellipse fill="none" stroke="#000000" cx="237.7963" cy="-728.8007" rx="42.1216" ry="18"/>
<text text-anchor="middle" x="237.7963" y="-724.6007" font-family="Helvetica,sans-Serif" font-size="14.00" fill="#000000">doc &#45; 34</text>
</g>
<!-- section_1 -->
<g id="node2" class="node">
<title>section_1</title>
<ellipse fill="none" stroke="#000000" cx="237.7963" cy="-656.8007" rx="60.9826" ry="18"/>
<text text-anchor="middle" x="237.7963" y="-652.6007" font-family="Helvetica,sans-Serif" font-size="14.00" fill="#000000">section: 1&#45;34</text>
</g>
<!-- doc_0&#45;&gt;section_1 -->
<g id="edge1" class="edge">
<title>doc_0&#45;&gt;section_1</title>
<path fill="none" stroke="#000000" stroke-dasharray="5,2" d="M237.7963,-710.632C237.7963,-702.9316 237.7963,-693.775 237.7963,-685.2173"/>
<polygon fill="#000000" stroke="#000000" points="241.2964,-685.2139 237.7963,-675.214 234.2964,-685.214 241.2964,-685.2139"/>
</g>
<!-- header_2 -->
<g id="node3" class="node">
<title>header_2</title>
<ellipse fill="none" stroke="#000000" cx="86.7963" cy="-584.8007" rx="86.593" ry="18"/>
<text text-anchor="middle" x="86.7963" y="-580.6007" font-family="Helvetica,sans-Serif" font-size="14.00" fill="#000000">1 : Hashtag module</text>
</g>
<!-- section_1&#45;&gt;header_2 -->
<g id="edge2" class="edge">
<title>section_1&#45;&gt;header_2</title>
<path fill="none" stroke="#000000" stroke-dasharray="5,2" d="M205.403,-641.3549C183.5997,-630.9586 154.5836,-617.1231 130.7087,-605.7391"/>
<polygon fill="#000000" stroke="#000000" points="132.0344,-602.4937 121.5016,-601.3489 129.0216,-608.8122 132.0344,-602.4937"/>
</g>
<!-- block_3 -->
<g id="node4" class="node">
<title>block_3</title>
<ellipse fill="none" stroke="#000000" cx="237.7963" cy="-584.8007" rx="45.9804" ry="18"/>
<text text-anchor="middle" x="237.7963" y="-580.6007" font-family="Helvetica,sans-Serif" font-size="14.00" fill="#000000">block 1&#45;2</text>
</g>
<!-- section_1&#45;&gt;block_3 -->
<g id="edge3" class="edge">
<title>section_1&#45;&gt;block_3</title>
<path fill="none" stroke="#000000" stroke-dasharray="5,2" d="M237.7963,-638.632C237.7963,-630.9316 237.7963,-621.775 237.7963,-613.2173"/>
<polygon fill="#000000" stroke="#000000" points="241.2964,-613.2139 237.7963,-603.214 234.2964,-613.214 241.2964,-613.2139"/>
</g>
<!-- block_4 -->
<g id="node5" class="node">
<title>block_4</title>
<ellipse fill="none" stroke="#000000" cx="354.7963" cy="-584.8007" rx="50.8172" ry="18"/>
<text text-anchor="middle" x="354.7963" y="-580.6007" font-family="Helvetica,sans-Serif" font-size="14.00" fill="#000000">block 3&#45;34</text>
</g>
<!-- section_1&#45;&gt;block_4 -->
<g id="edge4" class="edge">
<title>section_1&#45;&gt;block_4</title>
<path fill="none" stroke="#000000" stroke-dasharray="5,2" d="M264.3454,-640.4628C280.8805,-630.2873 302.3284,-617.0886 320.1886,-606.0977"/>
<polygon fill="#000000" stroke="#000000" points="322.474,-608.801 329.1563,-600.5791 318.8053,-602.8393 322.474,-608.801"/>
</g>
<!-- leaf_5 -->
<g id="node6" class="node">
<title>leaf_5</title>
<polygon fill="none" stroke="#c0c0c0" points="263.7963,-530.8007 209.7963,-530.8007 209.7963,-494.8007 263.7963,-494.8007 263.7963,-530.8007"/>
</g>
<!-- block_3&#45;&gt;leaf_5 -->
<g id="edge5" class="edge">
<title>block_3&#45;&gt;leaf_5</title>
<path fill="none" stroke="#000000" stroke-dasharray="5,2" d="M237.5439,-566.632C237.437,-558.9316 237.3098,-549.775 237.1909,-541.2173"/>
<polygon fill="#000000" stroke="#000000" points="240.6906,-541.1643 237.052,-531.214 233.6913,-541.2616 240.6906,-541.1643"/>
</g>
<!-- codeblock_6 -->
<g id="node7" class="node">
<title>codeblock_6</title>
<ellipse fill="none" stroke="#000000" cx="354.7963" cy="-512.8007" rx="72.5844" ry="18"/>
<text text-anchor="middle" x="354.7963" y="-508.6007" font-family="Helvetica,sans-Serif" font-size="14.00" fill="#000000">code block 3&#45;33</text>
</g>
<!-- block_4&#45;&gt;codeblock_6 -->
<g id="edge6" class="edge">
<title>block_4&#45;&gt;codeblock_6</title>
<path fill="none" stroke="#000000" stroke-dasharray="5,2" d="M354.7963,-566.632C354.7963,-558.9316 354.7963,-549.775 354.7963,-541.2173"/>
<polygon fill="#000000" stroke="#000000" points="358.2964,-541.2139 354.7963,-531.214 351.2964,-541.214 358.2964,-541.2139"/>
</g>
<!-- leaf_8 -->
<g id="node9" class="node">
<title>leaf_8</title>
<polygon fill="none" stroke="#c0c0c0" points="499.7963,-530.8007 445.7963,-530.8007 445.7963,-494.8007 499.7963,-494.8007 499.7963,-530.8007"/>
</g>
<!-- block_4&#45;&gt;leaf_8 -->
<g id="edge8" class="edge">
<title>block_4&#45;&gt;leaf_8</title>
<path fill="none" stroke="#000000" stroke-dasharray="5,2" d="M380.4005,-569.1778C396.9437,-559.0836 418.7101,-545.8024 436.9609,-534.6663"/>
<polygon fill="#000000" stroke="#000000" points="438.8863,-537.5916 445.5997,-529.3952 435.2402,-531.6162 438.8863,-537.5916"/>
</g>
<!-- leaf_7 -->
<g id="node8" class="node">
<title>leaf_7</title>
<polygon fill="none" stroke="#c0c0c0" points="660.2963,-458.7011 49.2963,-458.7011 49.2963,-.0996 660.2963,-.0996 660.2963,-458.7011"/>
<text text-anchor="middle" x="354.7963" y="-443.6007" font-family="Inconsolata" font-size="14.00" fill="#000000">local L = require &quot;lpeg&quot;</text>
<text text-anchor="middle" x="354.7963" y="-412.2007" font-family="Inconsolata" font-size="14.00" fill="#000000">local Node = require &quot;peg/node&quot;</text>
<text text-anchor="middle" x="354.7963" y="-396.8006" font-family="Inconsolata" font-size="14.00" fill="#000000">local u = require &quot;../lib/util&quot;</text>
<text text-anchor="middle" x="354.7963" y="-365.4006" font-family="Inconsolata" font-size="14.00" fill="#000000">local m = require &quot;grym/morphemes&quot;</text>
<text text-anchor="middle" x="354.7963" y="-334.0006" font-family="Inconsolata" font-size="14.00" fill="#000000">local H, h = u.inherit(Node)</text>
<text text-anchor="middle" x="354.7963" y="-302.6005" font-family="Inconsolata" font-size="14.00" fill="#000000">function h.matchHashtag(line)</text>
<text text-anchor="middle" x="354.7963" y="-287.2005" font-family="Inconsolata" font-size="14.00" fill="#000000"> &#160;&#160;&#160;local hashlen = L.match(L.C(m.hashtag), line)</text>
<text text-anchor="middle" x="354.7963" y="-271.8005" font-family="Inconsolata" font-size="14.00" fill="#000000"> &#160;&#160;&#160;if hashlen then</text>
<text text-anchor="middle" x="354.7963" y="-256.4004" font-family="Inconsolata" font-size="14.00" fill="#000000"> &#160;&#160;&#160;&#160;&#160;&#160;&#160;return hashlen</text>
<text text-anchor="middle" x="354.7963" y="-241.0004" font-family="Inconsolata" font-size="14.00" fill="#000000"> &#160;&#160;&#160;else</text>
<text text-anchor="middle" x="354.7963" y="-225.6004" font-family="Inconsolata" font-size="14.00" fill="#000000"> &#160;&#160;&#160;&#160;&#160;&#160;&#160;return &quot;&quot;</text>
<text text-anchor="middle" x="354.7963" y="-210.2003" font-family="Inconsolata" font-size="14.00" fill="#000000"> &#160;&#160;&#160;&#160;&#160;&#160;&#160;&#45;&#45; This is what it /should/ do, but</text>
<text text-anchor="middle" x="354.7963" y="-194.8003" font-family="Inconsolata" font-size="14.00" fill="#000000"> &#160;&#160;&#160;&#160;&#160;&#160;&#160;&#45;&#45; u.freeze(&quot;Hashtag constructor did not match m.hashtag rule on: &#160;&quot; .. line)</text>
<text text-anchor="middle" x="354.7963" y="-179.4003" font-family="Inconsolata" font-size="14.00" fill="#000000"> &#160;&#160;&#160;end</text>
<text text-anchor="middle" x="354.7963" y="-164.0002" font-family="Inconsolata" font-size="14.00" fill="#000000">end</text>
<text text-anchor="middle" x="354.7963" y="-132.6002" font-family="Inconsolata" font-size="14.00" fill="#000000">local function new(Hashtag, line)</text>
<text text-anchor="middle" x="354.7963" y="-117.2002" font-family="Inconsolata" font-size="14.00" fill="#000000"> &#160;&#160;&#160;local hashtag = setmetatable({}, H)</text>
<text text-anchor="middle" x="354.7963" y="-101.8002" font-family="Inconsolata" font-size="14.00" fill="#000000"> &#160;&#160;&#160;hashtag.id = &quot;hashtag&quot;</text>
<text text-anchor="middle" x="354.7963" y="-86.4001" font-family="Inconsolata" font-size="14.00" fill="#000000"> &#160;&#160;&#160;hashtag.val = h.matchHashtag(line):sub(2, &#45;1)</text>
<text text-anchor="middle" x="354.7963" y="-55.0001" font-family="Inconsolata" font-size="14.00" fill="#000000"> &#160;&#160;&#160;return hashtag</text>
<text text-anchor="middle" x="354.7963" y="-39.6001" font-family="Inconsolata" font-size="14.00" fill="#000000">end</text>
<text text-anchor="middle" x="354.7963" y="-8.2" font-family="Inconsolata" font-size="14.00" fill="#000000">return u.export(h, new)</text>
</g>
<!-- codeblock_6&#45;&gt;leaf_7 -->
<g id="edge7" class="edge">
<title>codeblock_6&#45;&gt;leaf_7</title>
<path fill="none" stroke="#000000" stroke-dasharray="5,2" d="M354.7963,-494.6416C354.7963,-487.7239 354.7963,-479.0921 354.7963,-469.2099"/>
<polygon fill="#000000" stroke="#000000" points="358.2964,-468.928 354.7963,-458.928 351.2964,-468.9281 358.2964,-468.928"/>
</g>
</g>
</svg>