<?xml version="1.0" encoding="UTF-8" standalone="no"?>
<!DOCTYPE svg PUBLIC "-//W3C//DTD SVG 1.1//EN"
 "http://www.w3.org/Graphics/SVG/1.1/DTD/svg11.dtd">
<!-- Generated by graphviz version 2.40.1 (20161225.0304)
 -->
<!-- Title: lpegNode Pages: 1 -->
<svg width="876pt" height="755pt"
 viewBox="0.00 0.00 876.30 754.80" xmlns="http://www.w3.org/2000/svg" xmlns:xlink="http://www.w3.org/1999/xlink">
<g id="graph0" class="graph" transform="scale(1 1) rotate(0) translate(4 750.8007)">
<title>lpegNode</title>
<polygon fill="#ffffff" stroke="transparent" points="-4,4 -4,-750.8007 872.2963,-750.8007 872.2963,4 -4,4"/>
<!-- doc_0 -->
<g id="node1" class="node">
<title>doc_0</title>
<ellipse fill="none" stroke="#000000" cx="223.7963" cy="-728.8007" rx="42.1216" ry="18"/>
<text text-anchor="middle" x="223.7963" y="-724.6007" font-family="Helvetica,sans-Serif" font-size="14.00" fill="#000000">doc &#45; 34</text>
</g>
<!-- section_1 -->
<g id="node2" class="node">
<title>section_1</title>
<ellipse fill="none" stroke="#000000" cx="223.7963" cy="-656.8007" rx="60.9826" ry="18"/>
<text text-anchor="middle" x="223.7963" y="-652.6007" font-family="Helvetica,sans-Serif" font-size="14.00" fill="#000000">section: 1&#45;34</text>
</g>
<!-- doc_0&#45;&gt;section_1 -->
<g id="edge1" class="edge">
<title>doc_0&#45;&gt;section_1</title>
<path fill="none" stroke="#000000" stroke-dasharray="5,2" d="M223.7963,-710.632C223.7963,-702.9316 223.7963,-693.775 223.7963,-685.2173"/>
<polygon fill="#000000" stroke="#000000" points="227.2964,-685.2139 223.7963,-675.214 220.2964,-685.214 227.2964,-685.2139"/>
</g>
<!-- header_2 -->
<g id="node3" class="node">
<title>header_2</title>
<ellipse fill="none" stroke="#000000" cx="86.7963" cy="-584.8007" rx="86.593" ry="18"/>
<text text-anchor="middle" x="86.7963" y="-580.6007" font-family="Helvetica,sans-Serif" font-size="14.00" fill="#000000">1 : Hashtag module</text>
</g>
<!-- section_1&#45;&gt;header_2 -->
<g id="edge2" class="edge">
<title>section_1&#45;&gt;header_2</title>
<path fill="none" stroke="#000000" stroke-dasharray="5,2" d="M193.731,-641C174.3823,-630.8313 148.9845,-617.4836 127.796,-606.348"/>
<polygon fill="#000000" stroke="#000000" points="129.1795,-603.1212 118.6992,-601.5672 125.923,-609.3176 129.1795,-603.1212"/>
</g>
<!-- prose_3 -->
<g id="node4" class="node">
<title>prose_3</title>
<ellipse fill="none" stroke="#000000" cx="223.7963" cy="-584.8007" rx="32.4585" ry="18"/>
<text text-anchor="middle" x="223.7963" y="-580.6007" font-family="Helvetica,sans-Serif" font-size="14.00" fill="#000000">prose</text>
</g>
<!-- section_1&#45;&gt;prose_3 -->
<g id="edge3" class="edge">
<title>section_1&#45;&gt;prose_3</title>
<path fill="none" stroke="#000000" stroke-dasharray="5,2" d="M223.7963,-638.632C223.7963,-630.9316 223.7963,-621.775 223.7963,-613.2173"/>
<polygon fill="#000000" stroke="#000000" points="227.2964,-613.2139 223.7963,-603.214 220.2964,-613.214 227.2964,-613.2139"/>
</g>
<!-- codeblock_4 -->
<g id="node5" class="node">
<title>codeblock_4</title>
<ellipse fill="none" stroke="#000000" cx="448.7963" cy="-584.8007" rx="72.5844" ry="18"/>
<text text-anchor="middle" x="448.7963" y="-580.6007" font-family="Helvetica,sans-Serif" font-size="14.00" fill="#000000">code block 3&#45;33</text>
</g>
<!-- section_1&#45;&gt;codeblock_4 -->
<g id="edge4" class="edge">
<title>section_1&#45;&gt;codeblock_4</title>
<path fill="none" stroke="#000000" stroke-dasharray="5,2" d="M265.3269,-643.5109C301.6916,-631.8742 354.7775,-614.8867 394.5011,-602.1751"/>
<polygon fill="#000000" stroke="#000000" points="395.5802,-605.5047 404.0377,-599.1234 393.4467,-598.8378 395.5802,-605.5047"/>
</g>
<!-- leaf_5 -->
<g id="node6" class="node">
<title>leaf_5</title>
<polygon fill="none" stroke="#c0c0c0" points="154.2963,-319.4003 19.2963,-319.4003 19.2963,-283.4003 154.2963,-283.4003 154.2963,-319.4003"/>
<text text-anchor="middle" x="86.7963" y="-297.9004" font-family="Inconsolata" font-size="14.00" fill="#000000"> * Hashtag module</text>
</g>
<!-- header_2&#45;&gt;leaf_5 -->
<g id="edge5" class="edge">
<title>header_2&#45;&gt;leaf_5</title>
<path fill="none" stroke="#000000" stroke-dasharray="5,2" d="M86.7963,-566.6416C86.7963,-518.553 86.7963,-387.6305 86.7963,-329.6649"/>
<polygon fill="#000000" stroke="#000000" points="90.2964,-329.4082 86.7963,-319.4082 83.2964,-329.4082 90.2964,-329.4082"/>
</g>
<!-- raw_6 -->
<g id="node7" class="node">
<title>raw_6</title>
<ellipse fill="none" stroke="#000000" cx="211.7963" cy="-301.4003" rx="27" ry="18"/>
<text text-anchor="middle" x="211.7963" y="-297.2003" font-family="Helvetica,sans-Serif" font-size="14.00" fill="#000000">raw</text>
</g>
<!-- prose_3&#45;&gt;raw_6 -->
<g id="edge6" class="edge">
<title>prose_3&#45;&gt;raw_6</title>
<path fill="none" stroke="#000000" stroke-dasharray="5,2" d="M223.0273,-566.6416C220.9911,-518.553 215.4475,-387.6305 212.9931,-329.6649"/>
<polygon fill="#000000" stroke="#000000" points="216.4788,-329.2511 212.5588,-319.4082 209.485,-329.5473 216.4788,-329.2511"/>
</g>
<!-- leaf_8 -->
<g id="node9" class="node">
<title>leaf_8</title>
<polygon fill="none" stroke="#c0c0c0" points="868.2963,-530.7011 257.2963,-530.7011 257.2963,-72.0996 868.2963,-72.0996 868.2963,-530.7011"/>
<text text-anchor="middle" x="562.7963" y="-515.6007" font-family="Inconsolata" font-size="14.00" fill="#000000">local L = require &quot;lpeg&quot;</text>
<text text-anchor="middle" x="562.7963" y="-484.2007" font-family="Inconsolata" font-size="14.00" fill="#000000">local Node = require &quot;node/node&quot;</text>
<text text-anchor="middle" x="562.7963" y="-468.8006" font-family="Inconsolata" font-size="14.00" fill="#000000">local u = require &quot;../lib/util&quot;</text>
<text text-anchor="middle" x="562.7963" y="-437.4006" font-family="Inconsolata" font-size="14.00" fill="#000000">local m = require &quot;grym/morphemes&quot;</text>
<text text-anchor="middle" x="562.7963" y="-406.0006" font-family="Inconsolata" font-size="14.00" fill="#000000">local H, h = u.inherit(Node)</text>
<text text-anchor="middle" x="562.7963" y="-374.6005" font-family="Inconsolata" font-size="14.00" fill="#000000">function h.matchHashtag(line)</text>
<text text-anchor="middle" x="562.7963" y="-359.2005" font-family="Inconsolata" font-size="14.00" fill="#000000"> &#160;&#160;&#160;local hashlen = L.match(L.C(m.hashtag), line)</text>
<text text-anchor="middle" x="562.7963" y="-343.8005" font-family="Inconsolata" font-size="14.00" fill="#000000"> &#160;&#160;&#160;if hashlen then</text>
<text text-anchor="middle" x="562.7963" y="-328.4004" font-family="Inconsolata" font-size="14.00" fill="#000000"> &#160;&#160;&#160;&#160;&#160;&#160;&#160;return hashlen</text>
<text text-anchor="middle" x="562.7963" y="-313.0004" font-family="Inconsolata" font-size="14.00" fill="#000000"> &#160;&#160;&#160;else</text>
<text text-anchor="middle" x="562.7963" y="-297.6004" font-family="Inconsolata" font-size="14.00" fill="#000000"> &#160;&#160;&#160;&#160;&#160;&#160;&#160;return &quot;&quot;</text>
<text text-anchor="middle" x="562.7963" y="-282.2003" font-family="Inconsolata" font-size="14.00" fill="#000000"> &#160;&#160;&#160;&#160;&#160;&#160;&#160;&#45;&#45; This is what it /should/ do, but</text>
<text text-anchor="middle" x="562.7963" y="-266.8003" font-family="Inconsolata" font-size="14.00" fill="#000000"> &#160;&#160;&#160;&#160;&#160;&#160;&#160;&#45;&#45; u.freeze(&quot;Hashtag constructor did not match m.hashtag rule on: &#160;&quot; .. line)</text>
<text text-anchor="middle" x="562.7963" y="-251.4003" font-family="Inconsolata" font-size="14.00" fill="#000000"> &#160;&#160;&#160;end</text>
<text text-anchor="middle" x="562.7963" y="-236.0002" font-family="Inconsolata" font-size="14.00" fill="#000000">end</text>
<text text-anchor="middle" x="562.7963" y="-204.6002" font-family="Inconsolata" font-size="14.00" fill="#000000">local function new(Hashtag, line)</text>
<text text-anchor="middle" x="562.7963" y="-189.2002" font-family="Inconsolata" font-size="14.00" fill="#000000"> &#160;&#160;&#160;local hashtag = setmetatable({}, H)</text>
<text text-anchor="middle" x="562.7963" y="-173.8002" font-family="Inconsolata" font-size="14.00" fill="#000000"> &#160;&#160;&#160;hashtag.id = &quot;hashtag&quot;</text>
<text text-anchor="middle" x="562.7963" y="-158.4001" font-family="Inconsolata" font-size="14.00" fill="#000000"> &#160;&#160;&#160;hashtag.val = h.matchHashtag(line):sub(2, &#45;1)</text>
<text text-anchor="middle" x="562.7963" y="-127.0001" font-family="Inconsolata" font-size="14.00" fill="#000000"> &#160;&#160;&#160;return hashtag</text>
<text text-anchor="middle" x="562.7963" y="-111.6001" font-family="Inconsolata" font-size="14.00" fill="#000000">end</text>
<text text-anchor="middle" x="562.7963" y="-80.2" font-family="Inconsolata" font-size="14.00" fill="#000000">return u.export(h, new)</text>
</g>
<!-- codeblock_4&#45;&gt;leaf_8 -->
<g id="edge8" class="edge">
<title>codeblock_4&#45;&gt;leaf_8</title>
<path fill="none" stroke="#000000" stroke-dasharray="5,2" d="M456.1009,-566.6416C458.9705,-559.5077 462.5735,-550.5509 466.7051,-540.2798"/>
<polygon fill="#000000" stroke="#000000" points="469.9821,-541.5118 470.4669,-530.928 463.4878,-538.8994 469.9821,-541.5118"/>
</g>
<!-- leaf_7 -->
<g id="node8" class="node">
<title>leaf_7</title>
<polygon fill="none" stroke="#c0c0c0" points="238.7963,-36 184.7963,-36 184.7963,0 238.7963,0 238.7963,-36"/>
</g>
<!-- raw_6&#45;&gt;leaf_7 -->
<g id="edge7" class="edge">
<title>raw_6&#45;&gt;leaf_7</title>
<path fill="none" stroke="#000000" stroke-dasharray="5,2" d="M211.7963,-283.2413C211.7963,-235.1526 211.7963,-104.2301 211.7963,-46.2645"/>
<polygon fill="#000000" stroke="#000000" points="215.2964,-46.0078 211.7963,-36.0078 208.2964,-46.0079 215.2964,-46.0078"/>
</g>
</g>
</svg>