<?xml version="1.0" encoding="UTF-8" standalone="no"?>
<!DOCTYPE svg PUBLIC "-//W3C//DTD SVG 1.1//EN"
 "http://www.w3.org/Graphics/SVG/1.1/DTD/svg11.dtd">
<!-- Generated by graphviz version 2.40.1 (20161225.0304)
 -->
<!-- Title: hierarchy Pages: 1 -->
<svg width="660pt" height="569pt"
 viewBox="0.00 0.00 660.00 569.40" xmlns="http://www.w3.org/2000/svg" xmlns:xlink="http://www.w3.org/1999/xlink">
<g id="graph0" class="graph" transform="scale(1 1) rotate(0) translate(4 565.4003)">
<title>hierarchy</title>
<polygon fill="#ffffff" stroke="transparent" points="-4,4 -4,-565.4003 656,-565.4003 656,4 -4,4"/>
<!-- doc_0 -->
<g id="node1" class="node">
<title>doc_0</title>
<ellipse fill="none" stroke="#000000" cx="290" cy="-543.4003" rx="42.1216" ry="18"/>
<text text-anchor="middle" x="290" y="-539.2003" font-family="Helvetica,sans-Serif" font-size="14.00" fill="#000000">doc &#45; 24</text>
</g>
<!-- section_1 -->
<g id="node2" class="node">
<title>section_1</title>
<ellipse fill="none" stroke="#000000" cx="290" cy="-471.4003" rx="60.9826" ry="18"/>
<text text-anchor="middle" x="290" y="-467.2003" font-family="Helvetica,sans-Serif" font-size="14.00" fill="#000000">section: 1&#45;24</text>
</g>
<!-- doc_0&#45;&gt;section_1 -->
<g id="edge1" class="edge">
<title>doc_0&#45;&gt;section_1</title>
<path fill="none" stroke="#000000" stroke-dasharray="5,2" d="M290,-525.2317C290,-517.5313 290,-508.3747 290,-499.817"/>
<polygon fill="#000000" stroke="#000000" points="293.5001,-499.8136 290,-489.8136 286.5001,-499.8136 293.5001,-499.8136"/>
</g>
<!-- header_2 -->
<g id="node3" class="node">
<title>header_2</title>
<ellipse fill="none" stroke="#000000" cx="138" cy="-399.4003" rx="88.0381" ry="18"/>
<text text-anchor="middle" x="138" y="-395.2003" font-family="Helvetica,sans-Serif" font-size="14.00" fill="#000000">1 : Hashline module</text>
</g>
<!-- section_1&#45;&gt;header_2 -->
<g id="edge2" class="edge">
<title>section_1&#45;&gt;header_2</title>
<path fill="none" stroke="#000000" stroke-dasharray="5,2" d="M257.7647,-456.131C235.8389,-445.7451 206.541,-431.8671 182.4112,-420.4372"/>
<polygon fill="#000000" stroke="#000000" points="183.6402,-417.1466 173.1045,-416.0288 180.6436,-423.4728 183.6402,-417.1466"/>
</g>
<!-- block_3 -->
<g id="node4" class="node">
<title>block_3</title>
<ellipse fill="none" stroke="#000000" cx="290" cy="-399.4003" rx="45.9804" ry="18"/>
<text text-anchor="middle" x="290" y="-395.2003" font-family="Helvetica,sans-Serif" font-size="14.00" fill="#000000">block 1&#45;4</text>
</g>
<!-- section_1&#45;&gt;block_3 -->
<g id="edge3" class="edge">
<title>section_1&#45;&gt;block_3</title>
<path fill="none" stroke="#000000" stroke-dasharray="5,2" d="M290,-453.2317C290,-445.5313 290,-436.3747 290,-427.817"/>
<polygon fill="#000000" stroke="#000000" points="293.5001,-427.8136 290,-417.8136 286.5001,-427.8136 293.5001,-427.8136"/>
</g>
<!-- block_4 -->
<g id="node5" class="node">
<title>block_4</title>
<ellipse fill="none" stroke="#000000" cx="435" cy="-399.4003" rx="50.8172" ry="18"/>
<text text-anchor="middle" x="435" y="-395.2003" font-family="Helvetica,sans-Serif" font-size="14.00" fill="#000000">block 5&#45;24</text>
</g>
<!-- section_1&#45;&gt;block_4 -->
<g id="edge4" class="edge">
<title>section_1&#45;&gt;block_4</title>
<path fill="none" stroke="#000000" stroke-dasharray="5,2" d="M321.4628,-455.7774C343.3752,-444.8968 372.745,-430.3132 396.1233,-418.7046"/>
<polygon fill="#000000" stroke="#000000" points="397.6851,-421.8369 405.0851,-414.2547 394.5718,-415.5673 397.6851,-421.8369"/>
</g>
<!-- prose_5 -->
<g id="node6" class="node">
<title>prose_5</title>
<ellipse fill="none" stroke="#000000" cx="275" cy="-327.4003" rx="32.4585" ry="18"/>
<text text-anchor="middle" x="275" y="-323.2003" font-family="Helvetica,sans-Serif" font-size="14.00" fill="#000000">prose</text>
</g>
<!-- block_3&#45;&gt;prose_5 -->
<g id="edge5" class="edge">
<title>block_3&#45;&gt;prose_5</title>
<path fill="none" stroke="#000000" stroke-dasharray="5,2" d="M286.2149,-381.2317C284.568,-373.3269 282.6015,-363.8876 280.7784,-355.1368"/>
<polygon fill="#000000" stroke="#000000" points="284.198,-354.3897 278.732,-345.3138 277.3452,-355.8174 284.198,-354.3897"/>
</g>
<!-- codeblock_7 -->
<g id="node8" class="node">
<title>codeblock_7</title>
<ellipse fill="none" stroke="#000000" cx="451" cy="-327.4003" rx="72.5844" ry="18"/>
<text text-anchor="middle" x="451" y="-323.2003" font-family="Helvetica,sans-Serif" font-size="14.00" fill="#000000">code block 5&#45;23</text>
</g>
<!-- block_4&#45;&gt;codeblock_7 -->
<g id="edge7" class="edge">
<title>block_4&#45;&gt;codeblock_7</title>
<path fill="none" stroke="#000000" stroke-dasharray="5,2" d="M439.0375,-381.2317C440.7487,-373.5313 442.7835,-364.3747 444.6852,-355.817"/>
<polygon fill="#000000" stroke="#000000" points="448.1554,-356.3348 446.9082,-345.8136 441.3221,-354.8162 448.1554,-356.3348"/>
</g>
<!-- leaf_6 -->
<g id="node7" class="node">
<title>leaf_6</title>
<polygon fill="none" stroke="#c0c0c0" points="338,-156.6023 0,-156.6023 0,-116.7981 338,-116.7981 338,-156.6023"/>
<text text-anchor="middle" x="169" y="-125.2002" font-family="Inconsolata" font-size="14.00" fill="#000000"> &#160;&#160;A minimalist Node container for a hashline.</text>
</g>
<!-- prose_5&#45;&gt;leaf_6 -->
<g id="edge6" class="edge">
<title>prose_5&#45;&gt;leaf_6</title>
<path fill="none" stroke="#000000" stroke-dasharray="5,2" d="M265.4063,-310.1406C247.1563,-277.3078 207.2738,-205.557 184.9473,-165.3902"/>
<polygon fill="#000000" stroke="#000000" points="187.9856,-163.6522 180.068,-156.6121 181.8672,-167.0531 187.9856,-163.6522"/>
</g>
<!-- leaf_8 -->
<g id="node9" class="node">
<title>leaf_8</title>
<polygon fill="none" stroke="#c0c0c0" points="652,-273.6008 356,-273.6008 356,.2005 652,.2005 652,-273.6008"/>
<text text-anchor="middle" x="504" y="-258.2003" font-family="Inconsolata" font-size="14.00" fill="#000000">local Node = require &quot;peg/node&quot;</text>
<text text-anchor="middle" x="504" y="-242.8003" font-family="Inconsolata" font-size="14.00" fill="#000000">local u = require &quot;../lib/util&quot;</text>
<text text-anchor="middle" x="504" y="-211.4003" font-family="Inconsolata" font-size="14.00" fill="#000000">local Hashtag = require &quot;grym/hashtag&quot;</text>
<text text-anchor="middle" x="504" y="-180.0002" font-family="Inconsolata" font-size="14.00" fill="#000000">local H, h = u.inherit(Node)</text>
<text text-anchor="middle" x="504" y="-148.6002" font-family="Inconsolata" font-size="14.00" fill="#000000">local function new(Hashline, line)</text>
<text text-anchor="middle" x="504" y="-133.2002" font-family="Inconsolata" font-size="14.00" fill="#000000"> &#160;&#160;&#160;local hashline = setmetatable({}, H)</text>
<text text-anchor="middle" x="504" y="-117.8002" font-family="Inconsolata" font-size="14.00" fill="#000000"> &#160;&#160;&#160;hashline.id = &quot;hashline&quot;</text>
<text text-anchor="middle" x="504" y="-102.4001" font-family="Inconsolata" font-size="14.00" fill="#000000"> &#160;&#160;&#160;hashline[1] = Hashtag(line)</text>
<text text-anchor="middle" x="504" y="-71.0001" font-family="Inconsolata" font-size="14.00" fill="#000000"> &#160;&#160;&#160;return hashline </text>
<text text-anchor="middle" x="504" y="-55.6001" font-family="Inconsolata" font-size="14.00" fill="#000000">end</text>
<text text-anchor="middle" x="504" y="-8.2" font-family="Inconsolata" font-size="14.00" fill="#000000">return u.export(h, new)</text>
</g>
<!-- codeblock_7&#45;&gt;leaf_8 -->
<g id="edge8" class="edge">
<title>codeblock_7&#45;&gt;leaf_8</title>
<path fill="none" stroke="#000000" stroke-dasharray="5,2" d="M456.0819,-309.1152C458.0649,-301.9799 460.5259,-293.1249 463.2777,-283.2238"/>
<polygon fill="#000000" stroke="#000000" points="466.6933,-284.0046 465.9989,-273.4325 459.9489,-282.1301 466.6933,-284.0046"/>
</g>
</g>
</svg>