<?xml version="1.0" encoding="UTF-8" standalone="no"?>
<!DOCTYPE svg PUBLIC "-//W3C//DTD SVG 1.1//EN"
 "http://www.w3.org/Graphics/SVG/1.1/DTD/svg11.dtd">
<!-- Generated by graphviz version 2.40.1 (20161225.0304)
 -->
<!-- Title: hierarchy Pages: 1 -->
<svg width="4168pt" height="1213pt"
 viewBox="0.00 0.00 4167.50 1212.60" xmlns="http://www.w3.org/2000/svg" xmlns:xlink="http://www.w3.org/1999/xlink">
<g id="graph0" class="graph" transform="scale(1 1) rotate(0) translate(4 1208.6012)">
<title>hierarchy</title>
<polygon fill="#ffffff" stroke="transparent" points="-4,4 -4,-1208.6012 4163.5,-1208.6012 4163.5,4 -4,4"/>
<!-- doc_0 -->
<g id="node1" class="node">
<title>doc_0</title>
<ellipse fill="none" stroke="#000000" cx="1363.5" cy="-1186.6012" rx="46.1547" ry="18"/>
<text text-anchor="middle" x="1363.5" y="-1182.4012" font-family="Helvetica,sans-Serif" font-size="14.00" fill="#000000">doc &#45; 118</text>
</g>
<!-- section_1 -->
<g id="node2" class="node">
<title>section_1</title>
<ellipse fill="none" stroke="#000000" cx="1363.5" cy="-1114.6012" rx="60.9826" ry="18"/>
<text text-anchor="middle" x="1363.5" y="-1110.4012" font-family="Helvetica,sans-Serif" font-size="14.00" fill="#000000">section: 1&#45;48</text>
</g>
<!-- doc_0&#45;&gt;section_1 -->
<g id="edge1" class="edge">
<title>doc_0&#45;&gt;section_1</title>
<path fill="none" stroke="#000000" stroke-dasharray="5,2" d="M1363.5,-1168.4326C1363.5,-1160.7322 1363.5,-1151.5756 1363.5,-1143.0179"/>
<polygon fill="#000000" stroke="#000000" points="1367.0001,-1143.0144 1363.5,-1133.0145 1360.0001,-1143.0145 1367.0001,-1143.0144"/>
</g>
<!-- header_2 -->
<g id="node3" class="node">
<title>header_2</title>
<ellipse fill="none" stroke="#000000" cx="960.5" cy="-1042.6012" rx="92.89" ry="18"/>
<text text-anchor="middle" x="960.5" y="-1038.4012" font-family="Helvetica,sans-Serif" font-size="14.00" fill="#000000">1 : Header metatable</text>
</g>
<!-- section_1&#45;&gt;header_2 -->
<g id="edge2" class="edge">
<title>section_1&#45;&gt;header_2</title>
<path fill="none" stroke="#000000" stroke-dasharray="5,2" d="M1311.2279,-1105.2623C1241.9915,-1092.8925 1119.2776,-1070.9684 1038.9113,-1056.6102"/>
<polygon fill="#000000" stroke="#000000" points="1039.2991,-1053.1241 1028.8394,-1054.8107 1038.0679,-1060.015 1039.2991,-1053.1241"/>
</g>
<!-- prose_3 -->
<g id="node4" class="node">
<title>prose_3</title>
<ellipse fill="none" stroke="#000000" cx="1111.5" cy="-1042.6012" rx="32.4585" ry="18"/>
<text text-anchor="middle" x="1111.5" y="-1038.4012" font-family="Helvetica,sans-Serif" font-size="14.00" fill="#000000">prose</text>
</g>
<!-- section_1&#45;&gt;prose_3 -->
<g id="edge3" class="edge">
<title>section_1&#45;&gt;prose_3</title>
<path fill="none" stroke="#000000" stroke-dasharray="5,2" d="M1314.9013,-1103.7436C1272.6324,-1093.8695 1209.949,-1078.1859 1156.5,-1060.6012 1153.3828,-1059.5757 1150.171,-1058.4448 1146.9657,-1057.2646"/>
<polygon fill="#000000" stroke="#000000" points="1148.0612,-1053.9363 1137.4708,-1053.6315 1145.5596,-1060.4741 1148.0612,-1053.9363"/>
</g>
<!-- codeblock_4 -->
<g id="node5" class="node">
<title>codeblock_4</title>
<ellipse fill="none" stroke="#000000" cx="1238.5" cy="-1042.6012" rx="72.5844" ry="18"/>
<text text-anchor="middle" x="1238.5" y="-1038.4012" font-family="Helvetica,sans-Serif" font-size="14.00" fill="#000000">code block 6&#45;12</text>
</g>
<!-- section_1&#45;&gt;codeblock_4 -->
<g id="edge4" class="edge">
<title>section_1&#45;&gt;codeblock_4</title>
<path fill="none" stroke="#000000" stroke-dasharray="5,2" d="M1335.4476,-1098.443C1317.9242,-1088.3495 1295.1469,-1075.2298 1276.0736,-1064.2436"/>
<polygon fill="#000000" stroke="#000000" points="1277.7382,-1061.1633 1267.3259,-1059.2049 1274.2443,-1067.2291 1277.7382,-1061.1633"/>
</g>
<!-- prose_5 -->
<g id="node6" class="node">
<title>prose_5</title>
<ellipse fill="none" stroke="#000000" cx="1363.5" cy="-1042.6012" rx="32.4585" ry="18"/>
<text text-anchor="middle" x="1363.5" y="-1038.4012" font-family="Helvetica,sans-Serif" font-size="14.00" fill="#000000">prose</text>
</g>
<!-- section_1&#45;&gt;prose_5 -->
<g id="edge5" class="edge">
<title>section_1&#45;&gt;prose_5</title>
<path fill="none" stroke="#000000" stroke-dasharray="5,2" d="M1363.5,-1096.4326C1363.5,-1088.7322 1363.5,-1079.5756 1363.5,-1071.0179"/>
<polygon fill="#000000" stroke="#000000" points="1367.0001,-1071.0144 1363.5,-1061.0145 1360.0001,-1071.0145 1367.0001,-1071.0144"/>
</g>
<!-- prose_6 -->
<g id="node7" class="node">
<title>prose_6</title>
<ellipse fill="none" stroke="#000000" cx="1445.5" cy="-1042.6012" rx="32.4585" ry="18"/>
<text text-anchor="middle" x="1445.5" y="-1038.4012" font-family="Helvetica,sans-Serif" font-size="14.00" fill="#000000">prose</text>
</g>
<!-- section_1&#45;&gt;prose_6 -->
<g id="edge6" class="edge">
<title>section_1&#45;&gt;prose_6</title>
<path fill="none" stroke="#000000" stroke-dasharray="5,2" d="M1382.9329,-1097.5382C1394.1994,-1087.6456 1408.5035,-1075.0859 1420.5902,-1064.4732"/>
<polygon fill="#000000" stroke="#000000" points="1422.9534,-1067.056 1428.1585,-1057.8279 1418.3347,-1061.7959 1422.9534,-1067.056"/>
</g>
<!-- section_7 -->
<g id="node8" class="node">
<title>section_7</title>
<ellipse fill="none" stroke="#000000" cx="1847.5" cy="-1042.6012" rx="65.8187" ry="18"/>
<text text-anchor="middle" x="1847.5" y="-1038.4012" font-family="Helvetica,sans-Serif" font-size="14.00" fill="#000000">section: 25&#45;48</text>
</g>
<!-- section_1&#45;&gt;section_7 -->
<g id="edge7" class="edge">
<title>section_1&#45;&gt;section_7</title>
<path fill="none" stroke="#000000" stroke-dasharray="5,2" d="M1418.0801,-1106.4819C1507.0232,-1093.2507 1682.9958,-1067.0729 1779.7761,-1052.6758"/>
<polygon fill="#000000" stroke="#000000" points="1780.37,-1056.1261 1789.7461,-1051.1927 1779.34,-1049.2023 1780.37,-1056.1261"/>
</g>
<!-- section_8 -->
<g id="node9" class="node">
<title>section_8</title>
<ellipse fill="none" stroke="#000000" cx="2513.5" cy="-1042.6012" rx="65.8187" ry="18"/>
<text text-anchor="middle" x="2513.5" y="-1038.4012" font-family="Helvetica,sans-Serif" font-size="14.00" fill="#000000">section: 49&#45;55</text>
</g>
<!-- section_1&#45;&gt;section_8 -->
<g id="edge8" class="edge">
<title>section_1&#45;&gt;section_8</title>
<path fill="none" stroke="#000000" stroke-dasharray="5,2" d="M1423.308,-1110.8567C1616.8889,-1098.7369 2226.1343,-1060.5928 2439.1151,-1047.2584"/>
<polygon fill="#000000" stroke="#000000" points="2439.495,-1050.7415 2449.2568,-1046.6234 2439.0576,-1043.7552 2439.495,-1050.7415"/>
</g>
<!-- leaf_9 -->
<g id="node10" class="node">
<title>leaf_9</title>
<polygon fill="none" stroke="#c0c0c0" points="979.5,-963.5012 925.5,-963.5012 925.5,-927.5012 979.5,-927.5012 979.5,-963.5012"/>
</g>
<!-- header_2&#45;&gt;leaf_9 -->
<g id="edge9" class="edge">
<title>header_2&#45;&gt;leaf_9</title>
<path fill="none" stroke="#000000" stroke-dasharray="5,2" d="M958.9953,-1024.3374C957.822,-1010.0969 956.1718,-990.0681 954.8284,-973.7624"/>
<polygon fill="#000000" stroke="#000000" points="958.3074,-973.3619 953.998,-963.6831 951.331,-973.9367 958.3074,-973.3619"/>
</g>
<!-- raw_10 -->
<g id="node11" class="node">
<title>raw_10</title>
<ellipse fill="none" stroke="#000000" cx="1024.5" cy="-945.5012" rx="27" ry="18"/>
<text text-anchor="middle" x="1024.5" y="-941.3012" font-family="Helvetica,sans-Serif" font-size="14.00" fill="#000000">raw</text>
</g>
<!-- prose_3&#45;&gt;raw_10 -->
<g id="edge10" class="edge">
<title>prose_3&#45;&gt;raw_10</title>
<path fill="none" stroke="#000000" stroke-dasharray="5,2" d="M1096.0653,-1026.7717C1085.8131,-1016.133 1072.1475,-1001.7122 1060.5,-988.6012 1055.158,-982.588 1049.5203,-975.9744 1044.3323,-969.7718"/>
<polygon fill="#000000" stroke="#000000" points="1046.6848,-967.1256 1037.6065,-961.6634 1041.2971,-971.5947 1046.6848,-967.1256"/>
</g>
<!-- leaf_12 -->
<g id="node13" class="node">
<title>leaf_12</title>
<polygon fill="none" stroke="#c0c0c0" points="1323.5,-988.7015 1069.5,-988.7015 1069.5,-902.3008 1323.5,-902.3008 1323.5,-988.7015"/>
<text text-anchor="middle" x="1196.5" y="-973.4012" font-family="Inconsolata" font-size="14.00" fill="#000000">local L = require &quot;lpeg&quot;</text>
<text text-anchor="middle" x="1196.5" y="-942.0012" font-family="Inconsolata" font-size="14.00" fill="#000000">local Node = require &quot;peg/node&quot;</text>
<text text-anchor="middle" x="1196.5" y="-910.6012" font-family="Inconsolata" font-size="14.00" fill="#000000">local m = require &quot;grym/morphemes&quot;</text>
</g>
<!-- codeblock_4&#45;&gt;leaf_12 -->
<g id="edge12" class="edge">
<title>codeblock_4&#45;&gt;leaf_12</title>
<path fill="none" stroke="#000000" stroke-dasharray="5,2" d="M1230.6001,-1024.3374C1227.3209,-1016.7562 1223.3321,-1007.5345 1219.2545,-998.1074"/>
<polygon fill="#000000" stroke="#000000" points="1222.3526,-996.4537 1215.1702,-988.665 1215.9279,-999.2327 1222.3526,-996.4537"/>
</g>
<!-- raw_13 -->
<g id="node14" class="node">
<title>raw_13</title>
<ellipse fill="none" stroke="#000000" cx="1368.5" cy="-945.5012" rx="27" ry="18"/>
<text text-anchor="middle" x="1368.5" y="-941.3012" font-family="Helvetica,sans-Serif" font-size="14.00" fill="#000000">raw</text>
</g>
<!-- prose_5&#45;&gt;raw_13 -->
<g id="edge13" class="edge">
<title>prose_5&#45;&gt;raw_13</title>
<path fill="none" stroke="#000000" stroke-dasharray="5,2" d="M1364.4405,-1024.3374C1365.1738,-1010.0969 1366.2051,-990.0681 1367.0447,-973.7624"/>
<polygon fill="#000000" stroke="#000000" points="1370.5448,-973.8498 1367.5638,-963.6831 1363.554,-973.4898 1370.5448,-973.8498"/>
</g>
<!-- raw_15 -->
<g id="node16" class="node">
<title>raw_15</title>
<ellipse fill="none" stroke="#000000" cx="1445.5" cy="-945.5012" rx="27" ry="18"/>
<text text-anchor="middle" x="1445.5" y="-941.3012" font-family="Helvetica,sans-Serif" font-size="14.00" fill="#000000">raw</text>
</g>
<!-- prose_6&#45;&gt;raw_15 -->
<g id="edge15" class="edge">
<title>prose_6&#45;&gt;raw_15</title>
<path fill="none" stroke="#000000" stroke-dasharray="5,2" d="M1445.5,-1024.3374C1445.5,-1010.0969 1445.5,-990.0681 1445.5,-973.7624"/>
<polygon fill="#000000" stroke="#000000" points="1449.0001,-973.683 1445.5,-963.6831 1442.0001,-973.6831 1449.0001,-973.683"/>
</g>
<!-- header_17 -->
<g id="node18" class="node">
<title>header_17</title>
<ellipse fill="none" stroke="#000000" cx="1767.5" cy="-945.5012" rx="109.7876" ry="18"/>
<text text-anchor="middle" x="1767.5" y="-941.3012" font-family="Helvetica,sans-Serif" font-size="14.00" fill="#000000">2 : Metatable for Headers</text>
</g>
<!-- section_7&#45;&gt;header_17 -->
<g id="edge17" class="edge">
<title>section_7&#45;&gt;header_17</title>
<path fill="none" stroke="#000000" stroke-dasharray="5,2" d="M1832.8268,-1024.7916C1820.4996,-1009.8294 1802.7207,-988.2503 1788.8217,-971.3804"/>
<polygon fill="#000000" stroke="#000000" points="1791.4112,-969.0191 1782.3511,-963.5267 1786.0086,-973.4703 1791.4112,-969.0191"/>
</g>
<!-- prose_18 -->
<g id="node19" class="node">
<title>prose_18</title>
<ellipse fill="none" stroke="#000000" cx="1927.5" cy="-945.5012" rx="32.4585" ry="18"/>
<text text-anchor="middle" x="1927.5" y="-941.3012" font-family="Helvetica,sans-Serif" font-size="14.00" fill="#000000">prose</text>
</g>
<!-- section_7&#45;&gt;prose_18 -->
<g id="edge18" class="edge">
<title>section_7&#45;&gt;prose_18</title>
<path fill="none" stroke="#000000" stroke-dasharray="5,2" d="M1862.1732,-1024.7916C1874.8881,-1009.3589 1893.4029,-986.8866 1907.4777,-969.8032"/>
<polygon fill="#000000" stroke="#000000" points="1910.3282,-971.8477 1913.9857,-961.9042 1904.9256,-967.3966 1910.3282,-971.8477"/>
</g>
<!-- codeblock_19 -->
<g id="node20" class="node">
<title>codeblock_19</title>
<ellipse fill="none" stroke="#000000" cx="2117.5" cy="-945.5012" rx="77.4211" ry="18"/>
<text text-anchor="middle" x="2117.5" y="-941.3012" font-family="Helvetica,sans-Serif" font-size="14.00" fill="#000000">code block 27&#45;47</text>
</g>
<!-- section_7&#45;&gt;codeblock_19 -->
<g id="edge19" class="edge">
<title>section_7&#45;&gt;codeblock_19</title>
<path fill="none" stroke="#000000" stroke-dasharray="5,2" d="M1887.3394,-1028.2738C1934.6075,-1011.2747 2013.5436,-982.887 2065.5639,-964.1789"/>
<polygon fill="#000000" stroke="#000000" points="2067.0453,-967.3657 2075.2708,-960.6881 2064.6763,-960.7787 2067.0453,-967.3657"/>
</g>
<!-- header_24 -->
<g id="node25" class="node">
<title>header_24</title>
<ellipse fill="none" stroke="#000000" cx="2363.5" cy="-945.5012" rx="99.6298" ry="18"/>
<text text-anchor="middle" x="2363.5" y="-941.3012" font-family="Helvetica,sans-Serif" font-size="14.00" fill="#000000">2 : Constructor/module</text>
</g>
<!-- section_8&#45;&gt;header_24 -->
<g id="edge24" class="edge">
<title>section_8&#45;&gt;header_24</title>
<path fill="none" stroke="#000000" stroke-dasharray="5,2" d="M2487.7141,-1025.9091C2463.2249,-1010.0564 2426.2021,-986.0904 2398.9444,-968.4455"/>
<polygon fill="#000000" stroke="#000000" points="2400.7625,-965.4531 2390.4658,-962.9571 2396.9585,-971.3294 2400.7625,-965.4531"/>
</g>
<!-- prose_25 -->
<g id="node26" class="node">
<title>prose_25</title>
<ellipse fill="none" stroke="#000000" cx="2513.5" cy="-945.5012" rx="32.4585" ry="18"/>
<text text-anchor="middle" x="2513.5" y="-941.3012" font-family="Helvetica,sans-Serif" font-size="14.00" fill="#000000">prose</text>
</g>
<!-- section_8&#45;&gt;prose_25 -->
<g id="edge25" class="edge">
<title>section_8&#45;&gt;prose_25</title>
<path fill="none" stroke="#000000" stroke-dasharray="5,2" d="M2513.5,-1024.3374C2513.5,-1010.0969 2513.5,-990.0681 2513.5,-973.7624"/>
<polygon fill="#000000" stroke="#000000" points="2517.0001,-973.683 2513.5,-963.6831 2510.0001,-973.6831 2517.0001,-973.683"/>
</g>
<!-- codeblock_26 -->
<g id="node27" class="node">
<title>codeblock_26</title>
<ellipse fill="none" stroke="#000000" cx="2641.5" cy="-945.5012" rx="77.4211" ry="18"/>
<text text-anchor="middle" x="2641.5" y="-941.3012" font-family="Helvetica,sans-Serif" font-size="14.00" fill="#000000">code block 51&#45;53</text>
</g>
<!-- section_8&#45;&gt;codeblock_26 -->
<g id="edge26" class="edge">
<title>section_8&#45;&gt;codeblock_26</title>
<path fill="none" stroke="#000000" stroke-dasharray="5,2" d="M2536.0892,-1025.4652C2556.7993,-1009.7546 2587.6481,-986.3529 2610.6288,-968.9199"/>
<polygon fill="#000000" stroke="#000000" points="2612.8544,-971.6247 2618.7061,-962.7925 2608.6237,-966.0478 2612.8544,-971.6247"/>
</g>
<!-- section_27 -->
<g id="node28" class="node">
<title>section_27</title>
<ellipse fill="none" stroke="#000000" cx="3141.5" cy="-945.5012" rx="69.851" ry="18"/>
<text text-anchor="middle" x="3141.5" y="-941.3012" font-family="Helvetica,sans-Serif" font-size="14.00" fill="#000000">section: 56&#45;118</text>
</g>
<!-- section_8&#45;&gt;section_27 -->
<g id="edge27" class="edge">
<title>section_8&#45;&gt;section_27</title>
<path fill="none" stroke="#000000" stroke-dasharray="5,2" d="M2570.8956,-1033.7268C2686.197,-1015.8992 2945.6193,-975.7878 3071.0066,-956.4007"/>
<polygon fill="#000000" stroke="#000000" points="3071.9097,-959.8027 3081.2575,-954.8157 3070.8401,-952.8849 3071.9097,-959.8027"/>
</g>
<!-- leaf_11 -->
<g id="node12" class="node">
<title>leaf_11</title>
<polygon fill="none" stroke="#c0c0c0" points="457,-750.5012 0,-750.5012 0,-679.9005 457,-679.9005 457,-750.5012"/>
<text text-anchor="middle" x="228.5" y="-703.4009" font-family="Inconsolata" font-size="14.00" fill="#000000"> A specialized type of Node, used for first&#45;pass ownership and </text>
<text text-anchor="middle" x="228.5" y="-688.0009" font-family="Inconsolata" font-size="14.00" fill="#000000"> all subsequent operations. </text>
</g>
<!-- raw_10&#45;&gt;leaf_11 -->
<g id="edge11" class="edge">
<title>raw_10&#45;&gt;leaf_11</title>
<path fill="none" stroke="#000000" stroke-dasharray="5,2" d="M1014.8366,-928.2057C1008.6155,-918.8489 999.6155,-908.0738 988.5,-902.4011 884.932,-849.5459 576.9671,-902.6918 466.5,-866.4011 394.9869,-842.9076 323.5161,-793.0862 277.8377,-757.0409"/>
<polygon fill="#000000" stroke="#000000" points="279.8949,-754.2048 269.8944,-750.7059 275.5302,-759.6774 279.8949,-754.2048"/>
</g>
<!-- leaf_14 -->
<g id="node15" class="node">
<title>leaf_14</title>
<polygon fill="none" stroke="#c0c0c0" points="1093.5,-735.103 475.5,-735.103 475.5,-695.2988 1093.5,-695.2988 1093.5,-735.103"/>
<text text-anchor="middle" x="784.5" y="-703.7009" font-family="Inconsolata" font-size="14.00" fill="#000000"> A header contains a header line, that is, one which begins with `WS^0 * &#39;*&#39;^1 * &#39; &#39;`.</text>
</g>
<!-- raw_13&#45;&gt;leaf_14 -->
<g id="edge14" class="edge">
<title>raw_13&#45;&gt;leaf_14</title>
<path fill="none" stroke="#000000" stroke-dasharray="5,2" d="M1358.6451,-928.5618C1352.3601,-919.3236 1343.3601,-908.5486 1332.5,-902.4011 1242.4582,-851.432 1201.3594,-896.933 1102.5,-866.4011 998.8861,-834.4009 886.1751,-774.1474 826.7269,-740.1621"/>
<polygon fill="#000000" stroke="#000000" points="828.4146,-737.0952 818.0011,-735.1433 824.9245,-743.1631 828.4146,-737.0952"/>
</g>
<!-- leaf_16 -->
<g id="node17" class="node">
<title>leaf_16</title>
<polygon fill="none" stroke="#c0c0c0" points="1779,-781.6017 1112,-781.6017 1112,-648.8001 1779,-648.8001 1779,-781.6017"/>
<text text-anchor="middle" x="1445.5" y="-750.201" font-family="Inconsolata" font-size="14.00" fill="#000000"> In addition to the standard Node fields, a header has:</text>
<text text-anchor="middle" x="1445.5" y="-734.8009" font-family="Inconsolata" font-size="14.00" fill="#000000"> </text>
<text text-anchor="middle" x="1445.5" y="-719.4009" font-family="Inconsolata" font-size="14.00" fill="#000000"> &#160;&#45; `parent()`, a function that returns its parent, which is either a **block** or a **doc**.</text>
<text text-anchor="middle" x="1445.5" y="-704.0009" font-family="Inconsolata" font-size="14.00" fill="#000000"> &#160;&#45; `dent`, the level of indentation of the header. Must be non&#45;negative. </text>
<text text-anchor="middle" x="1445.5" y="-688.6008" font-family="Inconsolata" font-size="14.00" fill="#000000"> &#160;&#45; `level`, the level of ownership (number of tars).</text>
<text text-anchor="middle" x="1445.5" y="-673.2008" font-family="Inconsolata" font-size="14.00" fill="#000000"> &#160;&#45; `line`, the rest of the line (stripped of lead whitespace and tars)</text>
</g>
<!-- raw_15&#45;&gt;leaf_16 -->
<g id="edge16" class="edge">
<title>raw_15&#45;&gt;leaf_16</title>
<path fill="none" stroke="#000000" stroke-dasharray="5,2" d="M1445.5,-927.4299C1445.5,-898.4241 1445.5,-839.8337 1445.5,-791.5499"/>
<polygon fill="#000000" stroke="#000000" points="1449.0001,-791.4174 1445.5,-781.4175 1442.0001,-791.4175 1449.0001,-791.4174"/>
</g>
<!-- leaf_20 -->
<g id="node21" class="node">
<title>leaf_20</title>
<polygon fill="none" stroke="#c0c0c0" points="1851.5,-733.2009 1797.5,-733.2009 1797.5,-697.2009 1851.5,-697.2009 1851.5,-733.2009"/>
</g>
<!-- header_17&#45;&gt;leaf_20 -->
<g id="edge20" class="edge">
<title>header_17&#45;&gt;leaf_20</title>
<path fill="none" stroke="#000000" stroke-dasharray="5,2" d="M1772.147,-927.2891C1776.226,-911.2631 1782.3022,-887.2948 1787.5,-866.4011 1798.1799,-823.4706 1810.3305,-773.6187 1817.7039,-743.2513"/>
<polygon fill="#000000" stroke="#000000" points="1821.1457,-743.9092 1820.1025,-733.3659 1814.3431,-742.2586 1821.1457,-743.9092"/>
</g>
<!-- raw_21 -->
<g id="node22" class="node">
<title>raw_21</title>
<ellipse fill="none" stroke="#000000" cx="1896.5" cy="-715.2009" rx="27" ry="18"/>
<text text-anchor="middle" x="1896.5" y="-711.0009" font-family="Helvetica,sans-Serif" font-size="14.00" fill="#000000">raw</text>
</g>
<!-- prose_18&#45;&gt;raw_21 -->
<g id="edge21" class="edge">
<title>prose_18&#45;&gt;raw_21</title>
<path fill="none" stroke="#000000" stroke-dasharray="5,2" d="M1925.0675,-927.4299C1919.68,-887.4057 1906.71,-791.0513 1900.2654,-743.1739"/>
<polygon fill="#000000" stroke="#000000" points="1903.7241,-742.6319 1898.9212,-733.1882 1896.7866,-743.5658 1903.7241,-742.6319"/>
</g>
<!-- leaf_23 -->
<g id="node24" class="node">
<title>leaf_23</title>
<polygon fill="none" stroke="#c0c0c0" points="2357,-866.6016 1942,-866.6016 1942,-563.8001 2357,-563.8001 2357,-866.6016"/>
<text text-anchor="middle" x="2149.5" y="-851.2011" font-family="Inconsolata" font-size="14.00" fill="#000000">local H = setmetatable({}, { __index = Node })</text>
<text text-anchor="middle" x="2149.5" y="-835.8011" font-family="Inconsolata" font-size="14.00" fill="#000000">H.__index = H</text>
<text text-anchor="middle" x="2149.5" y="-804.4011" font-family="Inconsolata" font-size="14.00" fill="#000000">H.__tostring = function(header) </text>
<text text-anchor="middle" x="2149.5" y="-789.001" font-family="Inconsolata" font-size="14.00" fill="#000000"> &#160;&#160;&#160;return &quot;Lvl &quot; .. tostring(header.level) .. &quot; ^: &quot; </text>
<text text-anchor="middle" x="2149.5" y="-773.601" font-family="Inconsolata" font-size="14.00" fill="#000000"> &#160;&#160;&#160;&#160;&#160;&#160;&#160;&#160;&#160;&#160;.. tostring(header.line)</text>
<text text-anchor="middle" x="2149.5" y="-758.201" font-family="Inconsolata" font-size="14.00" fill="#000000">end</text>
<text text-anchor="middle" x="2149.5" y="-726.8009" font-family="Inconsolata" font-size="14.00" fill="#000000">function H.dotLabel(header)</text>
<text text-anchor="middle" x="2149.5" y="-711.4009" font-family="Inconsolata" font-size="14.00" fill="#000000"> &#160;&#160;&#160;return tostring(header.level) .. &quot; : &quot; .. header.line</text>
<text text-anchor="middle" x="2149.5" y="-696.0009" font-family="Inconsolata" font-size="14.00" fill="#000000">end</text>
<text text-anchor="middle" x="2149.5" y="-664.6008" font-family="Inconsolata" font-size="14.00" fill="#000000">function H.toMarkdown(header)</text>
<text text-anchor="middle" x="2149.5" y="-649.2008" font-family="Inconsolata" font-size="14.00" fill="#000000"> &#160;&#160;&#160;local haxen = &quot;&quot;</text>
<text text-anchor="middle" x="2149.5" y="-633.8008" font-family="Inconsolata" font-size="14.00" fill="#000000"> &#160;&#160;&#160;if header.level &gt; 0 then</text>
<text text-anchor="middle" x="2149.5" y="-618.4007" font-family="Inconsolata" font-size="14.00" fill="#000000"> &#160;&#160;&#160;&#160;&#160;&#160;&#160;haxen = (&quot;#&quot;):rep(header.level)</text>
<text text-anchor="middle" x="2149.5" y="-603.0007" font-family="Inconsolata" font-size="14.00" fill="#000000"> &#160;&#160;&#160;end</text>
<text text-anchor="middle" x="2149.5" y="-587.6007" font-family="Inconsolata" font-size="14.00" fill="#000000"> &#160;&#160;&#160;return haxen .. &quot; &quot; .. header.line</text>
<text text-anchor="middle" x="2149.5" y="-572.2007" font-family="Inconsolata" font-size="14.00" fill="#000000">end</text>
</g>
<!-- codeblock_19&#45;&gt;leaf_23 -->
<g id="edge23" class="edge">
<title>codeblock_19&#45;&gt;leaf_23</title>
<path fill="none" stroke="#000000" stroke-dasharray="5,2" d="M2120.011,-927.4299C2121.7457,-914.9456 2124.2418,-896.9809 2127.0576,-876.7162"/>
<polygon fill="#000000" stroke="#000000" points="2130.554,-876.9838 2128.4636,-866.5973 2123.6206,-876.0204 2130.554,-876.9838"/>
</g>
<!-- leaf_22 -->
<g id="node23" class="node">
<title>leaf_22</title>
<polygon fill="none" stroke="#c0c0c0" points="1923.5,-363.7003 1869.5,-363.7003 1869.5,-327.7003 1923.5,-327.7003 1923.5,-363.7003"/>
</g>
<!-- raw_21&#45;&gt;leaf_22 -->
<g id="edge22" class="edge">
<title>raw_21&#45;&gt;leaf_22</title>
<path fill="none" stroke="#000000" stroke-dasharray="5,2" d="M1896.5,-697.129C1896.5,-637.4543 1896.5,-446.385 1896.5,-373.9251"/>
<polygon fill="#000000" stroke="#000000" points="1900.0001,-373.7374 1896.5,-363.7375 1893.0001,-373.7375 1900.0001,-373.7374"/>
</g>
<!-- leaf_28 -->
<g id="node29" class="node">
<title>leaf_28</title>
<polygon fill="none" stroke="#c0c0c0" points="2429.5,-733.2009 2375.5,-733.2009 2375.5,-697.2009 2429.5,-697.2009 2429.5,-733.2009"/>
</g>
<!-- header_24&#45;&gt;leaf_28 -->
<g id="edge28" class="edge">
<title>header_24&#45;&gt;leaf_28</title>
<path fill="none" stroke="#000000" stroke-dasharray="5,2" d="M2366.5603,-927.4299C2373.3214,-887.5043 2389.5748,-791.5257 2397.7029,-743.5286"/>
<polygon fill="#000000" stroke="#000000" points="2401.1811,-743.9509 2399.4,-733.5069 2394.2794,-742.7821 2401.1811,-743.9509"/>
</g>
<!-- raw_29 -->
<g id="node30" class="node">
<title>raw_29</title>
<ellipse fill="none" stroke="#000000" cx="2513.5" cy="-715.2009" rx="27" ry="18"/>
<text text-anchor="middle" x="2513.5" y="-711.0009" font-family="Helvetica,sans-Serif" font-size="14.00" fill="#000000">raw</text>
</g>
<!-- prose_25&#45;&gt;raw_29 -->
<g id="edge29" class="edge">
<title>prose_25&#45;&gt;raw_29</title>
<path fill="none" stroke="#000000" stroke-dasharray="5,2" d="M2513.5,-927.4299C2513.5,-887.5043 2513.5,-791.5257 2513.5,-743.5286"/>
<polygon fill="#000000" stroke="#000000" points="2517.0001,-743.5068 2513.5,-733.5069 2510.0001,-743.5069 2517.0001,-743.5068"/>
</g>
<!-- leaf_31 -->
<g id="node32" class="node">
<title>leaf_31</title>
<polygon fill="none" stroke="#c0c0c0" points="2675.5,-733.2009 2575.5,-733.2009 2575.5,-697.2009 2675.5,-697.2009 2675.5,-733.2009"/>
<text text-anchor="middle" x="2625.5" y="-711.7009" font-family="Inconsolata" font-size="14.00" fill="#000000">local h = {}</text>
</g>
<!-- codeblock_26&#45;&gt;leaf_31 -->
<g id="edge31" class="edge">
<title>codeblock_26&#45;&gt;leaf_31</title>
<path fill="none" stroke="#000000" stroke-dasharray="5,2" d="M2640.2445,-927.4299C2637.4707,-887.5043 2630.8026,-791.5257 2627.4681,-743.5286"/>
<polygon fill="#000000" stroke="#000000" points="2630.9566,-743.2402 2626.7718,-733.5069 2623.9734,-743.7254 2630.9566,-743.2402"/>
</g>
<!-- header_32 -->
<g id="node33" class="node">
<title>header_32</title>
<ellipse fill="none" stroke="#000000" cx="2787.5" cy="-715.2009" rx="93.807" ry="18"/>
<text text-anchor="middle" x="2787.5" y="-711.0009" font-family="Helvetica,sans-Serif" font-size="14.00" fill="#000000">3 : Header:match(str)</text>
</g>
<!-- section_27&#45;&gt;header_32 -->
<g id="edge32" class="edge">
<title>section_27&#45;&gt;header_32</title>
<path fill="none" stroke="#000000" stroke-dasharray="5,2" d="M3078.7499,-937.4989C3024.5355,-928.0069 2946.3349,-907.8893 2890.5,-866.4011 2846.5286,-833.7281 2815.054,-776.4492 2799.1964,-742.5504"/>
<polygon fill="#000000" stroke="#000000" points="2802.2877,-740.8934 2794.9599,-733.2414 2795.9165,-743.7929 2802.2877,-740.8934"/>
</g>
<!-- prose_33 -->
<g id="node34" class="node">
<title>prose_33</title>
<ellipse fill="none" stroke="#000000" cx="2931.5" cy="-715.2009" rx="32.4585" ry="18"/>
<text text-anchor="middle" x="2931.5" y="-711.0009" font-family="Helvetica,sans-Serif" font-size="14.00" fill="#000000">prose</text>
</g>
<!-- section_27&#45;&gt;prose_33 -->
<g id="edge33" class="edge">
<title>section_27&#45;&gt;prose_33</title>
<path fill="none" stroke="#000000" stroke-dasharray="5,2" d="M3088.8115,-933.4826C3051.2006,-922.2464 3002.2007,-901.7407 2972.5,-866.4011 2942.9433,-831.2329 2934.5408,-776.651 2932.2445,-743.5829"/>
<polygon fill="#000000" stroke="#000000" points="2935.7204,-743.0458 2931.6782,-733.2524 2928.7309,-743.429 2935.7204,-743.0458"/>
</g>
<!-- prose_34 -->
<g id="node35" class="node">
<title>prose_34</title>
<ellipse fill="none" stroke="#000000" cx="3013.5" cy="-715.2009" rx="32.4585" ry="18"/>
<text text-anchor="middle" x="3013.5" y="-711.0009" font-family="Helvetica,sans-Serif" font-size="14.00" fill="#000000">prose</text>
</g>
<!-- section_27&#45;&gt;prose_34 -->
<g id="edge34" class="edge">
<title>section_27&#45;&gt;prose_34</title>
<path fill="none" stroke="#000000" stroke-dasharray="5,2" d="M3116.4679,-928.5269C3097.109,-914.1437 3071.0625,-891.838 3055.5,-866.4011 3031.7401,-827.5656 3021.1032,-775.0036 3016.5809,-743.1837"/>
<polygon fill="#000000" stroke="#000000" points="3020.0469,-742.6953 3015.2716,-733.2376 3013.1068,-743.609 3020.0469,-742.6953"/>
</g>
<!-- codeblock_35 -->
<g id="node36" class="node">
<title>codeblock_35</title>
<ellipse fill="none" stroke="#000000" cx="3141.5" cy="-715.2009" rx="77.4211" ry="18"/>
<text text-anchor="middle" x="3141.5" y="-711.0009" font-family="Helvetica,sans-Serif" font-size="14.00" fill="#000000">code block 68&#45;79</text>
</g>
<!-- section_27&#45;&gt;codeblock_35 -->
<g id="edge35" class="edge">
<title>section_27&#45;&gt;codeblock_35</title>
<path fill="none" stroke="#000000" stroke-dasharray="5,2" d="M3141.5,-927.4299C3141.5,-887.5043 3141.5,-791.5257 3141.5,-743.5286"/>
<polygon fill="#000000" stroke="#000000" points="3145.0001,-743.5068 3141.5,-733.5069 3138.0001,-743.5069 3145.0001,-743.5068"/>
</g>
<!-- prose_36 -->
<g id="node37" class="node">
<title>prose_36</title>
<ellipse fill="none" stroke="#000000" cx="3319.5" cy="-715.2009" rx="32.4585" ry="18"/>
<text text-anchor="middle" x="3319.5" y="-711.0009" font-family="Helvetica,sans-Serif" font-size="14.00" fill="#000000">prose</text>
</g>
<!-- section_27&#45;&gt;prose_36 -->
<g id="edge36" class="edge">
<title>section_27&#45;&gt;prose_36</title>
<path fill="none" stroke="#000000" stroke-dasharray="5,2" d="M3163.5985,-928.1486C3181.9949,-913.042 3208.2042,-889.929 3227.5,-866.4011 3260.3452,-826.3522 3289.8236,-773.4902 3306.1288,-742.0519"/>
<polygon fill="#000000" stroke="#000000" points="3309.3108,-743.5168 3310.7552,-733.0209 3303.0807,-740.3252 3309.3108,-743.5168"/>
</g>
<!-- structure_37 -->
<g id="node38" class="node">
<title>structure_37</title>
<ellipse fill="none" stroke="#000000" cx="3439.5" cy="-715.2009" rx="44.5182" ry="18"/>
<text text-anchor="middle" x="3439.5" y="-711.0009" font-family="Helvetica,sans-Serif" font-size="14.00" fill="#000000">structure</text>
</g>
<!-- section_27&#45;&gt;structure_37 -->
<g id="edge37" class="edge">
<title>section_27&#45;&gt;structure_37</title>
<path fill="none" stroke="#000000" stroke-dasharray="5,2" d="M3201.4857,-936.1602C3249.2847,-926.0474 3315.4402,-905.7597 3360.5,-866.4011 3398.706,-833.0292 3421.1517,-776.6284 3431.8235,-742.9535"/>
<polygon fill="#000000" stroke="#000000" points="3435.2034,-743.8686 3434.7619,-733.2829 3428.5057,-741.8335 3435.2034,-743.8686"/>
</g>
<!-- structure_38 -->
<g id="node39" class="node">
<title>structure_38</title>
<ellipse fill="none" stroke="#000000" cx="3564.5" cy="-715.2009" rx="44.5182" ry="18"/>
<text text-anchor="middle" x="3564.5" y="-711.0009" font-family="Helvetica,sans-Serif" font-size="14.00" fill="#000000">structure</text>
</g>
<!-- section_27&#45;&gt;structure_38 -->
<g id="edge38" class="edge">
<title>section_27&#45;&gt;structure_38</title>
<path fill="none" stroke="#000000" stroke-dasharray="5,2" d="M3205.2689,-937.9596C3294.2421,-926.3219 3449.6623,-901.5917 3493.5,-866.4011 3532.4401,-835.1421 3551.1178,-777.5301 3559.1739,-743.1571"/>
<polygon fill="#000000" stroke="#000000" points="3562.6141,-743.809 3561.3438,-733.2906 3555.7775,-742.3054 3562.6141,-743.809"/>
</g>
<!-- codeblock_39 -->
<g id="node40" class="node">
<title>codeblock_39</title>
<ellipse fill="none" stroke="#000000" cx="3802.5" cy="-715.2009" rx="81.9542" ry="18"/>
<text text-anchor="middle" x="3802.5" y="-711.0009" font-family="Helvetica,sans-Serif" font-size="14.00" fill="#000000">code block 93&#45;117</text>
</g>
<!-- section_27&#45;&gt;codeblock_39 -->
<g id="edge39" class="edge">
<title>section_27&#45;&gt;codeblock_39</title>
<path fill="none" stroke="#000000" stroke-dasharray="5,2" d="M3206.6778,-938.9164C3319.5024,-926.8227 3546.0752,-899.275 3618.5,-866.4011 3685.2474,-836.1042 3747.7914,-775.2554 3779.9422,-740.701"/>
<polygon fill="#000000" stroke="#000000" points="3782.8935,-742.6614 3787.0752,-732.9267 3777.7356,-737.9289 3782.8935,-742.6614"/>
</g>
<!-- leaf_30 -->
<g id="node31" class="node">
<title>leaf_30</title>
<polygon fill="none" stroke="#c0c0c0" points="2540.5,-363.7003 2486.5,-363.7003 2486.5,-327.7003 2540.5,-327.7003 2540.5,-363.7003"/>
</g>
<!-- raw_29&#45;&gt;leaf_30 -->
<g id="edge30" class="edge">
<title>raw_29&#45;&gt;leaf_30</title>
<path fill="none" stroke="#000000" stroke-dasharray="5,2" d="M2513.5,-697.129C2513.5,-637.4543 2513.5,-446.385 2513.5,-373.9251"/>
<polygon fill="#000000" stroke="#000000" points="2517.0001,-373.7374 2513.5,-363.7375 2510.0001,-373.7375 2517.0001,-373.7374"/>
</g>
<!-- leaf_40 -->
<g id="node41" class="node">
<title>leaf_40</title>
<polygon fill="none" stroke="#c0c0c0" points="2678.5,-363.7003 2624.5,-363.7003 2624.5,-327.7003 2678.5,-327.7003 2678.5,-363.7003"/>
</g>
<!-- header_32&#45;&gt;leaf_40 -->
<g id="edge40" class="edge">
<title>header_32&#45;&gt;leaf_40</title>
<path fill="none" stroke="#000000" stroke-dasharray="5,2" d="M2775.5132,-697.1802C2754.4877,-664.7416 2710.9693,-593.7622 2687.5,-528.0006 2668.7307,-475.4085 2658.8847,-410.5932 2654.4759,-374.1279"/>
<polygon fill="#000000" stroke="#000000" points="2657.9034,-373.2982 2653.2784,-363.7662 2650.9497,-374.1019 2657.9034,-373.2982"/>
</g>
<!-- raw_41 -->
<g id="node42" class="node">
<title>raw_41</title>
<ellipse fill="none" stroke="#000000" cx="2723.5" cy="-345.7003" rx="27" ry="18"/>
<text text-anchor="middle" x="2723.5" y="-341.5003" font-family="Helvetica,sans-Serif" font-size="14.00" fill="#000000">raw</text>
</g>
<!-- prose_33&#45;&gt;raw_41 -->
<g id="edge41" class="edge">
<title>prose_33&#45;&gt;raw_41</title>
<path fill="none" stroke="#000000" stroke-dasharray="5,2" d="M2932.0014,-697.0337C2931.8412,-665.472 2926.7866,-600.4105 2890.5,-564.0006 2847.8769,-521.2327 2800.6042,-572.2304 2759.5,-528.0006 2720.1713,-485.6814 2718.2496,-413.3611 2720.6454,-373.7223"/>
<polygon fill="#000000" stroke="#000000" points="2724.14,-373.9231 2721.3878,-363.692 2717.1591,-373.4064 2724.14,-373.9231"/>
</g>
<!-- raw_43 -->
<g id="node44" class="node">
<title>raw_43</title>
<ellipse fill="none" stroke="#000000" cx="2795.5" cy="-345.7003" rx="27" ry="18"/>
<text text-anchor="middle" x="2795.5" y="-341.5003" font-family="Helvetica,sans-Serif" font-size="14.00" fill="#000000">raw</text>
</g>
<!-- prose_34&#45;&gt;raw_43 -->
<g id="edge43" class="edge">
<title>prose_34&#45;&gt;raw_43</title>
<path fill="none" stroke="#000000" stroke-dasharray="5,2" d="M3014.0693,-696.9655C3014.0139,-665.2983 3009.1166,-600.0786 2972.5,-564.0006 2926.4289,-518.6072 2875.9585,-574.9746 2831.5,-528.0006 2791.7876,-486.0412 2790.019,-413.5774 2792.5415,-373.8198"/>
<polygon fill="#000000" stroke="#000000" points="2796.0381,-373.9974 2793.3176,-363.7579 2789.0588,-373.4591 2796.0381,-373.9974"/>
</g>
<!-- leaf_45 -->
<g id="node46" class="node">
<title>leaf_45</title>
<polygon fill="none" stroke="#c0c0c0" points="3340,-426.7006 2841,-426.7006 2841,-264.7 3340,-264.7 3340,-426.7006"/>
<text text-anchor="middle" x="3090.5" y="-411.5005" font-family="Inconsolata" font-size="14.00" fill="#000000">function h.match(str) </text>
<text text-anchor="middle" x="3090.5" y="-396.1005" font-family="Inconsolata" font-size="14.00" fill="#000000"> &#160;&#160;&#160;if str ~= &quot;&quot; and L.match(m.header, str) then</text>
<text text-anchor="middle" x="3090.5" y="-380.7004" font-family="Inconsolata" font-size="14.00" fill="#000000"> &#160;&#160;&#160;&#160;&#160;&#160;&#160;local trimmed = str:sub(L.match(m.WS, str))</text>
<text text-anchor="middle" x="3090.5" y="-365.3004" font-family="Inconsolata" font-size="14.00" fill="#000000"> &#160;&#160;&#160;&#160;&#160;&#160;&#160;local level = L.match(m.tars, trimmed) &#45; 1</text>
<text text-anchor="middle" x="3090.5" y="-349.9004" font-family="Inconsolata" font-size="14.00" fill="#000000"> &#160;&#160;&#160;&#160;&#160;&#160;&#160;local bareline = trimmed:sub(L.match(m.tars * m.WS, trimmed))</text>
<text text-anchor="middle" x="3090.5" y="-334.5003" font-family="Inconsolata" font-size="14.00" fill="#000000"> &#160;&#160;&#160;&#160;&#160;&#160;&#160;return true, level, bareline</text>
<text text-anchor="middle" x="3090.5" y="-319.1003" font-family="Inconsolata" font-size="14.00" fill="#000000"> &#160;&#160;&#160;else </text>
<text text-anchor="middle" x="3090.5" y="-303.7003" font-family="Inconsolata" font-size="14.00" fill="#000000"> &#160;&#160;&#160;&#160;&#160;&#160;&#160;return false, 0, &quot;&quot;</text>
<text text-anchor="middle" x="3090.5" y="-288.3002" font-family="Inconsolata" font-size="14.00" fill="#000000"> &#160;&#160;&#160;end</text>
<text text-anchor="middle" x="3090.5" y="-272.9002" font-family="Inconsolata" font-size="14.00" fill="#000000">end</text>
</g>
<!-- codeblock_35&#45;&gt;leaf_45 -->
<g id="edge45" class="edge">
<title>codeblock_35&#45;&gt;leaf_45</title>
<path fill="none" stroke="#000000" stroke-dasharray="5,2" d="M3139.0056,-697.129C3132.5933,-650.6706 3115.1888,-524.5731 3103.0748,-436.8061"/>
<polygon fill="#000000" stroke="#000000" points="3106.5332,-436.2636 3101.6987,-426.8361 3099.5989,-437.2208 3106.5332,-436.2636"/>
</g>
<!-- raw_46 -->
<g id="node47" class="node">
<title>raw_46</title>
<ellipse fill="none" stroke="#000000" cx="3385.5" cy="-345.7003" rx="27" ry="18"/>
<text text-anchor="middle" x="3385.5" y="-341.5003" font-family="Helvetica,sans-Serif" font-size="14.00" fill="#000000">raw</text>
</g>
<!-- prose_36&#45;&gt;raw_46 -->
<g id="edge46" class="edge">
<title>prose_36&#45;&gt;raw_46</title>
<path fill="none" stroke="#000000" stroke-dasharray="5,2" d="M3322.728,-697.129C3333.3871,-637.4543 3367.5158,-446.385 3380.4585,-373.9251"/>
<polygon fill="#000000" stroke="#000000" points="3383.9652,-374.1971 3382.2782,-363.7375 3377.0743,-372.9662 3383.9652,-374.1971"/>
</g>
<!-- handleline_48 -->
<g id="node49" class="node">
<title>handleline_48</title>
<ellipse fill="none" stroke="#000000" cx="3480.5" cy="-345.7003" rx="50.3585" ry="18"/>
<text text-anchor="middle" x="3480.5" y="-341.5003" font-family="Helvetica,sans-Serif" font-size="14.00" fill="#000000">handleline</text>
</g>
<!-- structure_37&#45;&gt;handleline_48 -->
<g id="edge48" class="edge">
<title>structure_37&#45;&gt;handleline_48</title>
<path fill="none" stroke="#000000" stroke-dasharray="5,2" d="M3441.5053,-697.129C3448.1268,-637.4543 3469.328,-446.385 3477.3682,-373.9251"/>
<polygon fill="#000000" stroke="#000000" points="3480.8743,-374.0625 3478.4986,-363.7375 3473.917,-373.2904 3480.8743,-374.0625"/>
</g>
<!-- handleline_51 -->
<g id="node52" class="node">
<title>handleline_51</title>
<ellipse fill="none" stroke="#000000" cx="3599.5" cy="-345.7003" rx="50.3585" ry="18"/>
<text text-anchor="middle" x="3599.5" y="-341.5003" font-family="Helvetica,sans-Serif" font-size="14.00" fill="#000000">handleline</text>
</g>
<!-- structure_38&#45;&gt;handleline_51 -->
<g id="edge51" class="edge">
<title>structure_38&#45;&gt;handleline_51</title>
<path fill="none" stroke="#000000" stroke-dasharray="5,2" d="M3566.2118,-697.129C3571.8643,-637.4543 3589.9629,-446.385 3596.8265,-373.9251"/>
<polygon fill="#000000" stroke="#000000" points="3600.3328,-374.023 3597.7915,-363.7375 3593.364,-373.3628 3600.3328,-374.023"/>
</g>
<!-- leaf_54 -->
<g id="node55" class="node">
<title>leaf_54</title>
<polygon fill="none" stroke="#c0c0c0" points="4159.5,-527.8011 3667.5,-527.8011 3667.5,-163.5995 4159.5,-163.5995 4159.5,-527.8011"/>
<text text-anchor="middle" x="3913.5" y="-512.8006" font-family="Inconsolata" font-size="14.00" fill="#000000">local function new(Header, line, level, first, last, parent)</text>
<text text-anchor="middle" x="3913.5" y="-497.4006" font-family="Inconsolata" font-size="14.00" fill="#000000"> &#160;&#160;&#160;local header = setmetatable({}, H)</text>
<text text-anchor="middle" x="3913.5" y="-482.0006" font-family="Inconsolata" font-size="14.00" fill="#000000"> &#160;&#160;&#160;header.line = line</text>
<text text-anchor="middle" x="3913.5" y="-466.6005" font-family="Inconsolata" font-size="14.00" fill="#000000"> &#160;&#160;&#160;header.level = level</text>
<text text-anchor="middle" x="3913.5" y="-451.2005" font-family="Inconsolata" font-size="14.00" fill="#000000"> &#160;&#160;&#160;header.first = first</text>
<text text-anchor="middle" x="3913.5" y="-435.8005" font-family="Inconsolata" font-size="14.00" fill="#000000"> &#160;&#160;&#160;header.last = last</text>
<text text-anchor="middle" x="3913.5" y="-420.4004" font-family="Inconsolata" font-size="14.00" fill="#000000"> &#160;&#160;&#160;header.parent = function() return parent end</text>
<text text-anchor="middle" x="3913.5" y="-405.0004" font-family="Inconsolata" font-size="14.00" fill="#000000"> &#160;&#160;&#160;header.id = &quot;header&quot;</text>
<text text-anchor="middle" x="3913.5" y="-389.6004" font-family="Inconsolata" font-size="14.00" fill="#000000"> &#160;&#160;&#160;&#45;&#45; for now lets set root to &#39;false&#39;</text>
<text text-anchor="middle" x="3913.5" y="-374.2003" font-family="Inconsolata" font-size="14.00" fill="#000000"> &#160;&#160;&#160;&#45;&#45; nodes classically return root but unclear that I actually use</text>
<text text-anchor="middle" x="3913.5" y="-358.8003" font-family="Inconsolata" font-size="14.00" fill="#000000"> &#160;&#160;&#160;header.root = false</text>
<text text-anchor="middle" x="3913.5" y="-343.4003" font-family="Inconsolata" font-size="14.00" fill="#000000"> &#160;&#160;&#160;return header</text>
<text text-anchor="middle" x="3913.5" y="-328.0002" font-family="Inconsolata" font-size="14.00" fill="#000000">end</text>
<text text-anchor="middle" x="3913.5" y="-296.6002" font-family="Inconsolata" font-size="14.00" fill="#000000">function H.howdy() </text>
<text text-anchor="middle" x="3913.5" y="-281.2002" font-family="Inconsolata" font-size="14.00" fill="#000000"> &#160;&#160;&#160;io.write(&quot;Why hello!\n&quot;)</text>
<text text-anchor="middle" x="3913.5" y="-265.8002" font-family="Inconsolata" font-size="14.00" fill="#000000">end</text>
<text text-anchor="middle" x="3913.5" y="-218.4001" font-family="Inconsolata" font-size="14.00" fill="#000000">h.__call = new</text>
<text text-anchor="middle" x="3913.5" y="-203.0001" font-family="Inconsolata" font-size="14.00" fill="#000000">h.__index = h</text>
<text text-anchor="middle" x="3913.5" y="-171.6001" font-family="Inconsolata" font-size="14.00" fill="#000000">return setmetatable({}, h)</text>
</g>
<!-- codeblock_39&#45;&gt;leaf_54 -->
<g id="edge54" class="edge">
<title>codeblock_39&#45;&gt;leaf_54</title>
<path fill="none" stroke="#000000" stroke-dasharray="5,2" d="M3807.9289,-697.129C3817.0143,-666.8851 3836.2384,-602.8914 3855.8243,-537.6932"/>
<polygon fill="#000000" stroke="#000000" points="3859.1904,-538.6531 3858.7155,-528.0689 3852.4863,-536.6391 3859.1904,-538.6531"/>
</g>
<!-- leaf_42 -->
<g id="node43" class="node">
<title>leaf_42</title>
<polygon fill="none" stroke="#c0c0c0" points="2724,-127.6015 2547,-127.6015 2547,-71.7985 2724,-71.7985 2724,-127.6015"/>
<text text-anchor="middle" x="2635.5" y="-80.2" font-family="Inconsolata" font-size="14.00" fill="#000000"> Matches a header line.</text>
</g>
<!-- raw_41&#45;&gt;leaf_42 -->
<g id="edge42" class="edge">
<title>raw_41&#45;&gt;leaf_42</title>
<path fill="none" stroke="#000000" stroke-dasharray="5,2" d="M2722.8048,-327.46C2720.8987,-293.579 2713.8025,-219.3001 2687.5,-163.4 2682.894,-153.611 2676.4583,-144.0356 2669.6797,-135.4051"/>
<polygon fill="#000000" stroke="#000000" points="2672.1828,-132.9387 2663.1242,-127.4439 2666.779,-137.3884 2672.1828,-132.9387"/>
</g>
<!-- leaf_44 -->
<g id="node45" class="node">
<title>leaf_44</title>
<polygon fill="none" stroke="#c0c0c0" points="3024.5,-127.0004 2742.5,-127.0004 2742.5,-72.3996 3024.5,-72.3996 3024.5,-127.0004"/>
<text text-anchor="middle" x="2883.5" y="-95.9" font-family="Inconsolata" font-size="14.00" fill="#000000"> &#45; str : &#160;The string to match against.</text>
<text text-anchor="middle" x="2883.5" y="-80.5" font-family="Inconsolata" font-size="14.00" fill="#000000"> </text>
</g>
<!-- raw_43&#45;&gt;leaf_44 -->
<g id="edge44" class="edge">
<title>raw_43&#45;&gt;leaf_44</title>
<path fill="none" stroke="#000000" stroke-dasharray="5,2" d="M2796.1952,-327.46C2798.1013,-293.579 2805.1975,-219.3001 2831.5,-163.4 2836.2,-153.4112 2842.8052,-143.6448 2849.7358,-134.8778"/>
<polygon fill="#000000" stroke="#000000" points="2852.4684,-137.0655 2856.1468,-127.1297 2847.0752,-132.603 2852.4684,-137.0655"/>
</g>
<!-- leaf_47 -->
<g id="node48" class="node">
<title>leaf_47</title>
<polygon fill="none" stroke="#c0c0c0" points="3440,-119.6021 3263,-119.6021 3263,-79.7979 3440,-79.7979 3440,-119.6021"/>
<text text-anchor="middle" x="3351.5" y="-88.2" font-family="Inconsolata" font-size="14.00" fill="#000000"> Creates a Header Node.</text>
</g>
<!-- raw_46&#45;&gt;leaf_47 -->
<g id="edge47" class="edge">
<title>raw_46&#45;&gt;leaf_47</title>
<path fill="none" stroke="#000000" stroke-dasharray="5,2" d="M3382.9999,-327.6113C3377.2014,-285.6573 3362.7882,-181.3738 3355.6463,-129.7001"/>
<polygon fill="#000000" stroke="#000000" points="3359.0746,-128.94 3354.2384,-119.5134 3352.1406,-129.8984 3359.0746,-128.94"/>
</g>
<!-- handle_49 -->
<g id="node50" class="node">
<title>handle_49</title>
<ellipse fill="none" stroke="#000000" cx="3494.5" cy="-99.7" rx="36.827" ry="18"/>
<text text-anchor="middle" x="3494.5" y="-95.5" font-family="Helvetica,sans-Serif" font-size="14.00" fill="#000000">handle</text>
</g>
<!-- handleline_48&#45;&gt;handle_49 -->
<g id="edge49" class="edge">
<title>handleline_48&#45;&gt;handle_49</title>
<path fill="none" stroke="#000000" stroke-dasharray="5,2" d="M3481.5295,-327.6113C3483.9466,-285.1394 3489.999,-178.7894 3492.9002,-127.8105"/>
<polygon fill="#000000" stroke="#000000" points="3496.3951,-127.9983 3493.469,-117.8155 3489.4064,-127.6005 3496.3951,-127.9983"/>
</g>
<!-- leaf_50 -->
<g id="node51" class="node">
<title>leaf_50</title>
<polygon fill="none" stroke="#c0c0c0" points="3521.5,-36 3467.5,-36 3467.5,0 3521.5,0 3521.5,-36"/>
</g>
<!-- handle_49&#45;&gt;leaf_50 -->
<g id="edge50" class="edge">
<title>handle_49&#45;&gt;leaf_50</title>
<path fill="none" stroke="#000000" stroke-dasharray="5,2" d="M3494.5,-81.5681C3494.5,-71.2023 3494.5,-57.9747 3494.5,-46.2729"/>
<polygon fill="#000000" stroke="#000000" points="3498.0001,-46.0812 3494.5,-36.0812 3491.0001,-46.0812 3498.0001,-46.0812"/>
</g>
<!-- handle_52 -->
<g id="node53" class="node">
<title>handle_52</title>
<ellipse fill="none" stroke="#000000" cx="3599.5" cy="-99.7" rx="36.827" ry="18"/>
<text text-anchor="middle" x="3599.5" y="-95.5" font-family="Helvetica,sans-Serif" font-size="14.00" fill="#000000">handle</text>
</g>
<!-- handleline_51&#45;&gt;handle_52 -->
<g id="edge52" class="edge">
<title>handleline_51&#45;&gt;handle_52</title>
<path fill="none" stroke="#000000" stroke-dasharray="5,2" d="M3599.5,-327.6113C3599.5,-285.2282 3599.5,-179.2341 3599.5,-128.1312"/>
<polygon fill="#000000" stroke="#000000" points="3603.0001,-127.8155 3599.5,-117.8155 3596.0001,-127.8156 3603.0001,-127.8155"/>
</g>
<!-- leaf_53 -->
<g id="node54" class="node">
<title>leaf_53</title>
<polygon fill="none" stroke="#c0c0c0" points="3626.5,-36 3572.5,-36 3572.5,0 3626.5,0 3626.5,-36"/>
</g>
<!-- handle_52&#45;&gt;leaf_53 -->
<g id="edge53" class="edge">
<title>handle_52&#45;&gt;leaf_53</title>
<path fill="none" stroke="#000000" stroke-dasharray="5,2" d="M3599.5,-81.5681C3599.5,-71.2023 3599.5,-57.9747 3599.5,-46.2729"/>
<polygon fill="#000000" stroke="#000000" points="3603.0001,-46.0812 3599.5,-36.0812 3596.0001,-46.0812 3603.0001,-46.0812"/>
</g>
</g>
</svg>