<?xml version="1.0" encoding="UTF-8" standalone="no"?>
<!DOCTYPE svg PUBLIC "-//W3C//DTD SVG 1.1//EN"
 "http://www.w3.org/Graphics/SVG/1.1/DTD/svg11.dtd">
<!-- Generated by graphviz version 2.40.1 (20161225.0304)
 -->
<!-- Title: hierarchy Pages: 1 -->
<svg width="3868pt" height="1213pt"
 viewBox="0.00 0.00 3867.50 1212.60" xmlns="http://www.w3.org/2000/svg" xmlns:xlink="http://www.w3.org/1999/xlink">
<g id="graph0" class="graph" transform="scale(1 1) rotate(0) translate(4 1208.6012)">
<title>hierarchy</title>
<polygon fill="#ffffff" stroke="transparent" points="-4,4 -4,-1208.6012 3863.5,-1208.6012 3863.5,4 -4,4"/>
<!-- doc_0 -->
<g id="node1" class="node">
<title>doc_0</title>
<ellipse fill="none" stroke="#000000" cx="1363.5" cy="-1186.6012" rx="46.1547" ry="18"/>
<text text-anchor="middle" x="1363.5" y="-1182.4012" font-family="Helvetica,sans-Serif" font-size="14.00" fill="#000000">doc &#45; 118</text>
</g>
<!-- section_1 -->
<g id="node2" class="node">
<title>section_1</title>
<ellipse fill="none" stroke="#000000" cx="1363.5" cy="-1114.6012" rx="60.9826" ry="18"/>
<text text-anchor="middle" x="1363.5" y="-1110.4012" font-family="Helvetica,sans-Serif" font-size="14.00" fill="#000000">section: 1&#45;48</text>
</g>
<!-- doc_0&#45;&gt;section_1 -->
<g id="edge1" class="edge">
<title>doc_0&#45;&gt;section_1</title>
<path fill="none" stroke="#000000" stroke-dasharray="5,2" d="M1363.5,-1168.4326C1363.5,-1160.7322 1363.5,-1151.5756 1363.5,-1143.0179"/>
<polygon fill="#000000" stroke="#000000" points="1367.0001,-1143.0144 1363.5,-1133.0145 1360.0001,-1143.0145 1367.0001,-1143.0144"/>
</g>
<!-- header_2 -->
<g id="node3" class="node">
<title>header_2</title>
<ellipse fill="none" stroke="#000000" cx="974.5" cy="-1042.6012" rx="92.89" ry="18"/>
<text text-anchor="middle" x="974.5" y="-1038.4012" font-family="Helvetica,sans-Serif" font-size="14.00" fill="#000000">1 : Header metatable</text>
</g>
<!-- section_1&#45;&gt;header_2 -->
<g id="edge2" class="edge">
<title>section_1&#45;&gt;header_2</title>
<path fill="none" stroke="#000000" stroke-dasharray="5,2" d="M1311.8438,-1105.0402C1245.2872,-1092.7212 1128.9958,-1071.1968 1051.8659,-1056.9209"/>
<polygon fill="#000000" stroke="#000000" points="1052.1919,-1053.4218 1041.7219,-1055.0433 1050.9178,-1060.3049 1052.1919,-1053.4218"/>
</g>
<!-- prose_3 -->
<g id="node4" class="node">
<title>prose_3</title>
<ellipse fill="none" stroke="#000000" cx="1117.5" cy="-1042.6012" rx="32.4585" ry="18"/>
<text text-anchor="middle" x="1117.5" y="-1038.4012" font-family="Helvetica,sans-Serif" font-size="14.00" fill="#000000">prose</text>
</g>
<!-- section_1&#45;&gt;prose_3 -->
<g id="edge3" class="edge">
<title>section_1&#45;&gt;prose_3</title>
<path fill="none" stroke="#000000" stroke-dasharray="5,2" d="M1314.395,-1103.9421C1272.4578,-1094.3011 1210.8,-1078.8447 1158.5,-1060.6012 1156.2705,-1059.8235 1153.9928,-1058.9769 1151.7098,-1058.0888"/>
<polygon fill="#000000" stroke="#000000" points="1152.9846,-1054.8288 1142.4043,-1054.2736 1150.3291,-1061.3055 1152.9846,-1054.8288"/>
</g>
<!-- codeblock_4 -->
<g id="node5" class="node">
<title>codeblock_4</title>
<ellipse fill="none" stroke="#000000" cx="1240.5" cy="-1042.6012" rx="72.5844" ry="18"/>
<text text-anchor="middle" x="1240.5" y="-1038.4012" font-family="Helvetica,sans-Serif" font-size="14.00" fill="#000000">code block 6&#45;12</text>
</g>
<!-- section_1&#45;&gt;codeblock_4 -->
<g id="edge4" class="edge">
<title>section_1&#45;&gt;codeblock_4</title>
<path fill="none" stroke="#000000" stroke-dasharray="5,2" d="M1335.8964,-1098.443C1318.7314,-1088.3952 1296.4432,-1075.3485 1277.7274,-1064.3929"/>
<polygon fill="#000000" stroke="#000000" points="1279.263,-1061.2362 1268.8647,-1059.2049 1275.7267,-1067.2773 1279.263,-1061.2362"/>
</g>
<!-- prose_5 -->
<g id="node6" class="node">
<title>prose_5</title>
<ellipse fill="none" stroke="#000000" cx="1363.5" cy="-1042.6012" rx="32.4585" ry="18"/>
<text text-anchor="middle" x="1363.5" y="-1038.4012" font-family="Helvetica,sans-Serif" font-size="14.00" fill="#000000">prose</text>
</g>
<!-- section_1&#45;&gt;prose_5 -->
<g id="edge5" class="edge">
<title>section_1&#45;&gt;prose_5</title>
<path fill="none" stroke="#000000" stroke-dasharray="5,2" d="M1363.5,-1096.4326C1363.5,-1088.7322 1363.5,-1079.5756 1363.5,-1071.0179"/>
<polygon fill="#000000" stroke="#000000" points="1367.0001,-1071.0144 1363.5,-1061.0145 1360.0001,-1071.0145 1367.0001,-1071.0144"/>
</g>
<!-- prose_6 -->
<g id="node7" class="node">
<title>prose_6</title>
<ellipse fill="none" stroke="#000000" cx="1445.5" cy="-1042.6012" rx="32.4585" ry="18"/>
<text text-anchor="middle" x="1445.5" y="-1038.4012" font-family="Helvetica,sans-Serif" font-size="14.00" fill="#000000">prose</text>
</g>
<!-- section_1&#45;&gt;prose_6 -->
<g id="edge6" class="edge">
<title>section_1&#45;&gt;prose_6</title>
<path fill="none" stroke="#000000" stroke-dasharray="5,2" d="M1382.9329,-1097.5382C1394.1994,-1087.6456 1408.5035,-1075.0859 1420.5902,-1064.4732"/>
<polygon fill="#000000" stroke="#000000" points="1422.9534,-1067.056 1428.1585,-1057.8279 1418.3347,-1061.7959 1422.9534,-1067.056"/>
</g>
<!-- section_7 -->
<g id="node8" class="node">
<title>section_7</title>
<ellipse fill="none" stroke="#000000" cx="1744.5" cy="-1042.6012" rx="65.8187" ry="18"/>
<text text-anchor="middle" x="1744.5" y="-1038.4012" font-family="Helvetica,sans-Serif" font-size="14.00" fill="#000000">section: 25&#45;48</text>
</g>
<!-- section_1&#45;&gt;section_7 -->
<g id="edge7" class="edge">
<title>section_1&#45;&gt;section_7</title>
<path fill="none" stroke="#000000" stroke-dasharray="5,2" d="M1414.8834,-1104.891C1483.5573,-1091.9132 1605.266,-1068.9132 1680.0209,-1054.7862"/>
<polygon fill="#000000" stroke="#000000" points="1681.071,-1058.1498 1690.2471,-1052.8537 1679.7711,-1051.2716 1681.071,-1058.1498"/>
</g>
<!-- section_8 -->
<g id="node9" class="node">
<title>section_8</title>
<ellipse fill="none" stroke="#000000" cx="2321.5" cy="-1042.6012" rx="65.8187" ry="18"/>
<text text-anchor="middle" x="2321.5" y="-1038.4012" font-family="Helvetica,sans-Serif" font-size="14.00" fill="#000000">section: 49&#45;55</text>
</g>
<!-- section_1&#45;&gt;section_8 -->
<g id="edge8" class="edge">
<title>section_1&#45;&gt;section_8</title>
<path fill="none" stroke="#000000" stroke-dasharray="5,2" d="M1422.7042,-1110.1516C1589.7592,-1097.5964 2064.5573,-1061.9122 2247.9529,-1048.1288"/>
<polygon fill="#000000" stroke="#000000" points="2248.3283,-1051.6105 2258.0379,-1047.3708 2247.8037,-1044.6302 2248.3283,-1051.6105"/>
</g>
<!-- raw_9 -->
<g id="node10" class="node">
<title>raw_9</title>
<ellipse fill="none" stroke="#000000" cx="624.5" cy="-945.5012" rx="27" ry="18"/>
<text text-anchor="middle" x="624.5" y="-941.3012" font-family="Helvetica,sans-Serif" font-size="14.00" fill="#000000">raw</text>
</g>
<!-- prose_3&#45;&gt;raw_9 -->
<g id="edge9" class="edge">
<title>prose_3&#45;&gt;raw_9</title>
<path fill="none" stroke="#000000" stroke-dasharray="5,2" d="M1093.1467,-1030.767C1087.7557,-1028.4714 1082.0067,-1026.2653 1076.5,-1024.6012 926.2817,-979.2063 739.6175,-956.8375 661.538,-948.9366"/>
<polygon fill="#000000" stroke="#000000" points="661.553,-945.4211 651.2564,-947.9169 660.8621,-952.3869 661.553,-945.4211"/>
</g>
<!-- leaf_11 -->
<g id="node12" class="node">
<title>leaf_11</title>
<polygon fill="none" stroke="#c0c0c0" points="1318.5,-988.7015 1064.5,-988.7015 1064.5,-902.3008 1318.5,-902.3008 1318.5,-988.7015"/>
<text text-anchor="middle" x="1191.5" y="-973.4012" font-family="Inconsolata" font-size="14.00" fill="#000000">local L = require &quot;lpeg&quot;</text>
<text text-anchor="middle" x="1191.5" y="-942.0012" font-family="Inconsolata" font-size="14.00" fill="#000000">local Node = require &quot;peg/node&quot;</text>
<text text-anchor="middle" x="1191.5" y="-910.6012" font-family="Inconsolata" font-size="14.00" fill="#000000">local m = require &quot;grym/morphemes&quot;</text>
</g>
<!-- codeblock_4&#45;&gt;leaf_11 -->
<g id="edge11" class="edge">
<title>codeblock_4&#45;&gt;leaf_11</title>
<path fill="none" stroke="#000000" stroke-dasharray="5,2" d="M1231.2835,-1024.3374C1227.4179,-1016.6772 1222.7071,-1007.3422 1217.8982,-997.8127"/>
<polygon fill="#000000" stroke="#000000" points="1220.9119,-996.0158 1213.2819,-988.665 1214.6625,-999.1695 1220.9119,-996.0158"/>
</g>
<!-- raw_12 -->
<g id="node13" class="node">
<title>raw_12</title>
<ellipse fill="none" stroke="#000000" cx="1363.5" cy="-945.5012" rx="27" ry="18"/>
<text text-anchor="middle" x="1363.5" y="-941.3012" font-family="Helvetica,sans-Serif" font-size="14.00" fill="#000000">raw</text>
</g>
<!-- prose_5&#45;&gt;raw_12 -->
<g id="edge12" class="edge">
<title>prose_5&#45;&gt;raw_12</title>
<path fill="none" stroke="#000000" stroke-dasharray="5,2" d="M1363.5,-1024.3374C1363.5,-1010.0969 1363.5,-990.0681 1363.5,-973.7624"/>
<polygon fill="#000000" stroke="#000000" points="1367.0001,-973.683 1363.5,-963.6831 1360.0001,-973.6831 1367.0001,-973.683"/>
</g>
<!-- raw_14 -->
<g id="node15" class="node">
<title>raw_14</title>
<ellipse fill="none" stroke="#000000" cx="1445.5" cy="-945.5012" rx="27" ry="18"/>
<text text-anchor="middle" x="1445.5" y="-941.3012" font-family="Helvetica,sans-Serif" font-size="14.00" fill="#000000">raw</text>
</g>
<!-- prose_6&#45;&gt;raw_14 -->
<g id="edge14" class="edge">
<title>prose_6&#45;&gt;raw_14</title>
<path fill="none" stroke="#000000" stroke-dasharray="5,2" d="M1445.5,-1024.3374C1445.5,-1010.0969 1445.5,-990.0681 1445.5,-973.7624"/>
<polygon fill="#000000" stroke="#000000" points="1449.0001,-973.683 1445.5,-963.6831 1442.0001,-973.6831 1449.0001,-973.683"/>
</g>
<!-- header_16 -->
<g id="node17" class="node">
<title>header_16</title>
<ellipse fill="none" stroke="#000000" cx="1664.5" cy="-945.5012" rx="109.7876" ry="18"/>
<text text-anchor="middle" x="1664.5" y="-941.3012" font-family="Helvetica,sans-Serif" font-size="14.00" fill="#000000">2 : Metatable for Headers</text>
</g>
<!-- section_7&#45;&gt;header_16 -->
<g id="edge16" class="edge">
<title>section_7&#45;&gt;header_16</title>
<path fill="none" stroke="#000000" stroke-dasharray="5,2" d="M1729.8268,-1024.7916C1717.4996,-1009.8294 1699.7207,-988.2503 1685.8217,-971.3804"/>
<polygon fill="#000000" stroke="#000000" points="1688.4112,-969.0191 1679.3511,-963.5267 1683.0086,-973.4703 1688.4112,-969.0191"/>
</g>
<!-- prose_17 -->
<g id="node18" class="node">
<title>prose_17</title>
<ellipse fill="none" stroke="#000000" cx="1824.5" cy="-945.5012" rx="32.4585" ry="18"/>
<text text-anchor="middle" x="1824.5" y="-941.3012" font-family="Helvetica,sans-Serif" font-size="14.00" fill="#000000">prose</text>
</g>
<!-- section_7&#45;&gt;prose_17 -->
<g id="edge17" class="edge">
<title>section_7&#45;&gt;prose_17</title>
<path fill="none" stroke="#000000" stroke-dasharray="5,2" d="M1759.1732,-1024.7916C1771.8881,-1009.3589 1790.4029,-986.8866 1804.4777,-969.8032"/>
<polygon fill="#000000" stroke="#000000" points="1807.3282,-971.8477 1810.9857,-961.9042 1801.9256,-967.3966 1807.3282,-971.8477"/>
</g>
<!-- codeblock_18 -->
<g id="node19" class="node">
<title>codeblock_18</title>
<ellipse fill="none" stroke="#000000" cx="1976.5" cy="-945.5012" rx="77.4211" ry="18"/>
<text text-anchor="middle" x="1976.5" y="-941.3012" font-family="Helvetica,sans-Serif" font-size="14.00" fill="#000000">code block 27&#45;47</text>
</g>
<!-- section_7&#45;&gt;codeblock_18 -->
<g id="edge18" class="edge">
<title>section_7&#45;&gt;codeblock_18</title>
<path fill="none" stroke="#000000" stroke-dasharray="5,2" d="M1780.4954,-1027.5359C1820.5735,-1010.7618 1885.4939,-983.5904 1929.5393,-965.1559"/>
<polygon fill="#000000" stroke="#000000" points="1931.0062,-968.3361 1938.8796,-961.2466 1928.3036,-961.8789 1931.0062,-968.3361"/>
</g>
<!-- header_22 -->
<g id="node23" class="node">
<title>header_22</title>
<ellipse fill="none" stroke="#000000" cx="2171.5" cy="-945.5012" rx="99.6298" ry="18"/>
<text text-anchor="middle" x="2171.5" y="-941.3012" font-family="Helvetica,sans-Serif" font-size="14.00" fill="#000000">2 : Constructor/module</text>
</g>
<!-- section_8&#45;&gt;header_22 -->
<g id="edge22" class="edge">
<title>section_8&#45;&gt;header_22</title>
<path fill="none" stroke="#000000" stroke-dasharray="5,2" d="M2295.7141,-1025.9091C2271.2249,-1010.0564 2234.2021,-986.0904 2206.9444,-968.4455"/>
<polygon fill="#000000" stroke="#000000" points="2208.7625,-965.4531 2198.4658,-962.9571 2204.9585,-971.3294 2208.7625,-965.4531"/>
</g>
<!-- prose_23 -->
<g id="node24" class="node">
<title>prose_23</title>
<ellipse fill="none" stroke="#000000" cx="2321.5" cy="-945.5012" rx="32.4585" ry="18"/>
<text text-anchor="middle" x="2321.5" y="-941.3012" font-family="Helvetica,sans-Serif" font-size="14.00" fill="#000000">prose</text>
</g>
<!-- section_8&#45;&gt;prose_23 -->
<g id="edge23" class="edge">
<title>section_8&#45;&gt;prose_23</title>
<path fill="none" stroke="#000000" stroke-dasharray="5,2" d="M2321.5,-1024.3374C2321.5,-1010.0969 2321.5,-990.0681 2321.5,-973.7624"/>
<polygon fill="#000000" stroke="#000000" points="2325.0001,-973.683 2321.5,-963.6831 2318.0001,-973.6831 2325.0001,-973.683"/>
</g>
<!-- codeblock_24 -->
<g id="node25" class="node">
<title>codeblock_24</title>
<ellipse fill="none" stroke="#000000" cx="2449.5" cy="-945.5012" rx="77.4211" ry="18"/>
<text text-anchor="middle" x="2449.5" y="-941.3012" font-family="Helvetica,sans-Serif" font-size="14.00" fill="#000000">code block 51&#45;53</text>
</g>
<!-- section_8&#45;&gt;codeblock_24 -->
<g id="edge24" class="edge">
<title>section_8&#45;&gt;codeblock_24</title>
<path fill="none" stroke="#000000" stroke-dasharray="5,2" d="M2344.0892,-1025.4652C2364.7993,-1009.7546 2395.6481,-986.3529 2418.6288,-968.9199"/>
<polygon fill="#000000" stroke="#000000" points="2420.8544,-971.6247 2426.7061,-962.7925 2416.6237,-966.0478 2420.8544,-971.6247"/>
</g>
<!-- section_25 -->
<g id="node26" class="node">
<title>section_25</title>
<ellipse fill="none" stroke="#000000" cx="2957.5" cy="-945.5012" rx="69.851" ry="18"/>
<text text-anchor="middle" x="2957.5" y="-941.3012" font-family="Helvetica,sans-Serif" font-size="14.00" fill="#000000">section: 56&#45;118</text>
</g>
<!-- section_8&#45;&gt;section_25 -->
<g id="edge25" class="edge">
<title>section_8&#45;&gt;section_25</title>
<path fill="none" stroke="#000000" stroke-dasharray="5,2" d="M2379.0625,-1033.813C2495.9149,-1015.9728 2760.5778,-975.5659 2887.3051,-956.218"/>
<polygon fill="#000000" stroke="#000000" points="2887.9346,-959.6626 2897.2918,-954.6933 2886.878,-952.7428 2887.9346,-959.6626"/>
</g>
<!-- leaf_10 -->
<g id="node11" class="node">
<title>leaf_10</title>
<polygon fill="none" stroke="#c0c0c0" points="457,-750.5012 0,-750.5012 0,-679.9005 457,-679.9005 457,-750.5012"/>
<text text-anchor="middle" x="228.5" y="-703.4009" font-family="Inconsolata" font-size="14.00" fill="#000000"> A specialized type of Node, used for first&#45;pass ownership and </text>
<text text-anchor="middle" x="228.5" y="-688.0009" font-family="Inconsolata" font-size="14.00" fill="#000000"> all subsequent operations. </text>
</g>
<!-- raw_9&#45;&gt;leaf_10 -->
<g id="edge10" class="edge">
<title>raw_9&#45;&gt;leaf_10</title>
<path fill="none" stroke="#000000" stroke-dasharray="5,2" d="M602.1469,-935.1932C571.1943,-920.7215 513.7523,-893.147 466.5,-866.4011 404.9381,-831.5557 337.042,-787.8717 289.5783,-756.4303"/>
<polygon fill="#000000" stroke="#000000" points="291.2264,-753.3233 280.9597,-750.7069 287.3539,-759.1547 291.2264,-753.3233"/>
</g>
<!-- leaf_13 -->
<g id="node14" class="node">
<title>leaf_13</title>
<polygon fill="none" stroke="#c0c0c0" points="1093.5,-735.103 475.5,-735.103 475.5,-695.2988 1093.5,-695.2988 1093.5,-735.103"/>
<text text-anchor="middle" x="784.5" y="-703.7009" font-family="Inconsolata" font-size="14.00" fill="#000000"> A header contains a header line, that is, one which begins with `WS^0 * &#39;*&#39;^1 * &#39; &#39;`.</text>
</g>
<!-- raw_12&#45;&gt;leaf_13 -->
<g id="edge13" class="edge">
<title>raw_12&#45;&gt;leaf_13</title>
<path fill="none" stroke="#000000" stroke-dasharray="5,2" d="M1353.6373,-928.5756C1347.3497,-919.342 1338.3497,-908.567 1327.5,-902.4011 1239.4531,-852.3638 1199.2114,-896.4494 1102.5,-866.4011 998.9406,-834.2252 886.2085,-774.0395 826.7423,-740.1124"/>
<polygon fill="#000000" stroke="#000000" points="828.429,-737.045 818.0138,-735.1024 824.9443,-743.116 828.429,-737.045"/>
</g>
<!-- leaf_15 -->
<g id="node16" class="node">
<title>leaf_15</title>
<polygon fill="none" stroke="#c0c0c0" points="1779,-781.6017 1112,-781.6017 1112,-648.8001 1779,-648.8001 1779,-781.6017"/>
<text text-anchor="middle" x="1445.5" y="-750.201" font-family="Inconsolata" font-size="14.00" fill="#000000"> In addition to the standard Node fields, a header has:</text>
<text text-anchor="middle" x="1445.5" y="-734.8009" font-family="Inconsolata" font-size="14.00" fill="#000000"> </text>
<text text-anchor="middle" x="1445.5" y="-719.4009" font-family="Inconsolata" font-size="14.00" fill="#000000"> &#160;&#45; `parent()`, a function that returns its parent, which is either a **block** or a **doc**.</text>
<text text-anchor="middle" x="1445.5" y="-704.0009" font-family="Inconsolata" font-size="14.00" fill="#000000"> &#160;&#45; `dent`, the level of indentation of the header. Must be non&#45;negative. </text>
<text text-anchor="middle" x="1445.5" y="-688.6008" font-family="Inconsolata" font-size="14.00" fill="#000000"> &#160;&#45; `level`, the level of ownership (number of tars).</text>
<text text-anchor="middle" x="1445.5" y="-673.2008" font-family="Inconsolata" font-size="14.00" fill="#000000"> &#160;&#45; `line`, the rest of the line (stripped of lead whitespace and tars)</text>
</g>
<!-- raw_14&#45;&gt;leaf_15 -->
<g id="edge15" class="edge">
<title>raw_14&#45;&gt;leaf_15</title>
<path fill="none" stroke="#000000" stroke-dasharray="5,2" d="M1445.5,-927.4299C1445.5,-898.4241 1445.5,-839.8337 1445.5,-791.5499"/>
<polygon fill="#000000" stroke="#000000" points="1449.0001,-791.4174 1445.5,-781.4175 1442.0001,-791.4175 1449.0001,-791.4174"/>
</g>
<!-- raw_19 -->
<g id="node20" class="node">
<title>raw_19</title>
<ellipse fill="none" stroke="#000000" cx="1824.5" cy="-715.2009" rx="27" ry="18"/>
<text text-anchor="middle" x="1824.5" y="-711.0009" font-family="Helvetica,sans-Serif" font-size="14.00" fill="#000000">raw</text>
</g>
<!-- prose_17&#45;&gt;raw_19 -->
<g id="edge19" class="edge">
<title>prose_17&#45;&gt;raw_19</title>
<path fill="none" stroke="#000000" stroke-dasharray="5,2" d="M1824.5,-927.4299C1824.5,-887.5043 1824.5,-791.5257 1824.5,-743.5286"/>
<polygon fill="#000000" stroke="#000000" points="1828.0001,-743.5068 1824.5,-733.5069 1821.0001,-743.5069 1828.0001,-743.5068"/>
</g>
<!-- leaf_21 -->
<g id="node22" class="node">
<title>leaf_21</title>
<polygon fill="none" stroke="#c0c0c0" points="2285,-866.6016 1870,-866.6016 1870,-563.8001 2285,-563.8001 2285,-866.6016"/>
<text text-anchor="middle" x="2077.5" y="-851.2011" font-family="Inconsolata" font-size="14.00" fill="#000000">local H = setmetatable({}, { __index = Node })</text>
<text text-anchor="middle" x="2077.5" y="-835.8011" font-family="Inconsolata" font-size="14.00" fill="#000000">H.__index = H</text>
<text text-anchor="middle" x="2077.5" y="-804.4011" font-family="Inconsolata" font-size="14.00" fill="#000000">H.__tostring = function(header) </text>
<text text-anchor="middle" x="2077.5" y="-789.001" font-family="Inconsolata" font-size="14.00" fill="#000000"> &#160;&#160;&#160;return &quot;Lvl &quot; .. tostring(header.level) .. &quot; ^: &quot; </text>
<text text-anchor="middle" x="2077.5" y="-773.601" font-family="Inconsolata" font-size="14.00" fill="#000000"> &#160;&#160;&#160;&#160;&#160;&#160;&#160;&#160;&#160;&#160;.. tostring(header.line)</text>
<text text-anchor="middle" x="2077.5" y="-758.201" font-family="Inconsolata" font-size="14.00" fill="#000000">end</text>
<text text-anchor="middle" x="2077.5" y="-726.8009" font-family="Inconsolata" font-size="14.00" fill="#000000">function H.dotLabel(header)</text>
<text text-anchor="middle" x="2077.5" y="-711.4009" font-family="Inconsolata" font-size="14.00" fill="#000000"> &#160;&#160;&#160;return tostring(header.level) .. &quot; : &quot; .. header.line</text>
<text text-anchor="middle" x="2077.5" y="-696.0009" font-family="Inconsolata" font-size="14.00" fill="#000000">end</text>
<text text-anchor="middle" x="2077.5" y="-664.6008" font-family="Inconsolata" font-size="14.00" fill="#000000">function H.toMarkdown(header)</text>
<text text-anchor="middle" x="2077.5" y="-649.2008" font-family="Inconsolata" font-size="14.00" fill="#000000"> &#160;&#160;&#160;local haxen = &quot;&quot;</text>
<text text-anchor="middle" x="2077.5" y="-633.8008" font-family="Inconsolata" font-size="14.00" fill="#000000"> &#160;&#160;&#160;if header.level &gt; 0 then</text>
<text text-anchor="middle" x="2077.5" y="-618.4007" font-family="Inconsolata" font-size="14.00" fill="#000000"> &#160;&#160;&#160;&#160;&#160;&#160;&#160;haxen = (&quot;#&quot;):rep(header.level)</text>
<text text-anchor="middle" x="2077.5" y="-603.0007" font-family="Inconsolata" font-size="14.00" fill="#000000"> &#160;&#160;&#160;end</text>
<text text-anchor="middle" x="2077.5" y="-587.6007" font-family="Inconsolata" font-size="14.00" fill="#000000"> &#160;&#160;&#160;return haxen .. &quot; &quot; .. header.line</text>
<text text-anchor="middle" x="2077.5" y="-572.2007" font-family="Inconsolata" font-size="14.00" fill="#000000">end</text>
</g>
<!-- codeblock_18&#45;&gt;leaf_21 -->
<g id="edge21" class="edge">
<title>codeblock_18&#45;&gt;leaf_21</title>
<path fill="none" stroke="#000000" stroke-dasharray="5,2" d="M1984.4253,-927.4299C1989.975,-914.7754 1997.9943,-896.4899 2007.0303,-875.8859"/>
<polygon fill="#000000" stroke="#000000" points="2010.2929,-877.161 2011.1039,-866.5973 2003.8822,-874.3496 2010.2929,-877.161"/>
</g>
<!-- leaf_20 -->
<g id="node21" class="node">
<title>leaf_20</title>
<polygon fill="none" stroke="#c0c0c0" points="1851.5,-363.7003 1797.5,-363.7003 1797.5,-327.7003 1851.5,-327.7003 1851.5,-363.7003"/>
</g>
<!-- raw_19&#45;&gt;leaf_20 -->
<g id="edge20" class="edge">
<title>raw_19&#45;&gt;leaf_20</title>
<path fill="none" stroke="#000000" stroke-dasharray="5,2" d="M1824.5,-697.129C1824.5,-637.4543 1824.5,-446.385 1824.5,-373.9251"/>
<polygon fill="#000000" stroke="#000000" points="1828.0001,-373.7374 1824.5,-363.7375 1821.0001,-373.7375 1828.0001,-373.7374"/>
</g>
<!-- raw_26 -->
<g id="node27" class="node">
<title>raw_26</title>
<ellipse fill="none" stroke="#000000" cx="2330.5" cy="-715.2009" rx="27" ry="18"/>
<text text-anchor="middle" x="2330.5" y="-711.0009" font-family="Helvetica,sans-Serif" font-size="14.00" fill="#000000">raw</text>
</g>
<!-- prose_23&#45;&gt;raw_26 -->
<g id="edge26" class="edge">
<title>prose_23&#45;&gt;raw_26</title>
<path fill="none" stroke="#000000" stroke-dasharray="5,2" d="M2322.2062,-927.4299C2323.7665,-887.5043 2327.5173,-791.5257 2329.393,-743.5286"/>
<polygon fill="#000000" stroke="#000000" points="2332.8914,-743.636 2329.7846,-733.5069 2325.8967,-743.3625 2332.8914,-743.636"/>
</g>
<!-- leaf_28 -->
<g id="node29" class="node">
<title>leaf_28</title>
<polygon fill="none" stroke="#c0c0c0" points="2491.5,-733.2009 2391.5,-733.2009 2391.5,-697.2009 2491.5,-697.2009 2491.5,-733.2009"/>
<text text-anchor="middle" x="2441.5" y="-711.7009" font-family="Inconsolata" font-size="14.00" fill="#000000">local h = {}</text>
</g>
<!-- codeblock_24&#45;&gt;leaf_28 -->
<g id="edge28" class="edge">
<title>codeblock_24&#45;&gt;leaf_28</title>
<path fill="none" stroke="#000000" stroke-dasharray="5,2" d="M2448.8723,-927.4299C2447.4853,-887.5043 2444.1513,-791.5257 2442.484,-743.5286"/>
<polygon fill="#000000" stroke="#000000" points="2445.981,-743.3793 2442.1359,-733.5069 2438.9853,-743.6224 2445.981,-743.3793"/>
</g>
<!-- header_29 -->
<g id="node30" class="node">
<title>header_29</title>
<ellipse fill="none" stroke="#000000" cx="2603.5" cy="-715.2009" rx="93.807" ry="18"/>
<text text-anchor="middle" x="2603.5" y="-711.0009" font-family="Helvetica,sans-Serif" font-size="14.00" fill="#000000">3 : Header:match(str)</text>
</g>
<!-- section_25&#45;&gt;header_29 -->
<g id="edge29" class="edge">
<title>section_25&#45;&gt;header_29</title>
<path fill="none" stroke="#000000" stroke-dasharray="5,2" d="M2894.7499,-937.4989C2840.5355,-928.0069 2762.3349,-907.8893 2706.5,-866.4011 2662.5286,-833.7281 2631.054,-776.4492 2615.1964,-742.5504"/>
<polygon fill="#000000" stroke="#000000" points="2618.2877,-740.8934 2610.9599,-733.2414 2611.9165,-743.7929 2618.2877,-740.8934"/>
</g>
<!-- prose_30 -->
<g id="node31" class="node">
<title>prose_30</title>
<ellipse fill="none" stroke="#000000" cx="2747.5" cy="-715.2009" rx="32.4585" ry="18"/>
<text text-anchor="middle" x="2747.5" y="-711.0009" font-family="Helvetica,sans-Serif" font-size="14.00" fill="#000000">prose</text>
</g>
<!-- section_25&#45;&gt;prose_30 -->
<g id="edge30" class="edge">
<title>section_25&#45;&gt;prose_30</title>
<path fill="none" stroke="#000000" stroke-dasharray="5,2" d="M2904.8115,-933.4826C2867.2006,-922.2464 2818.2007,-901.7407 2788.5,-866.4011 2758.9433,-831.2329 2750.5408,-776.651 2748.2445,-743.5829"/>
<polygon fill="#000000" stroke="#000000" points="2751.7204,-743.0458 2747.6782,-733.2524 2744.7309,-743.429 2751.7204,-743.0458"/>
</g>
<!-- prose_31 -->
<g id="node32" class="node">
<title>prose_31</title>
<ellipse fill="none" stroke="#000000" cx="2829.5" cy="-715.2009" rx="32.4585" ry="18"/>
<text text-anchor="middle" x="2829.5" y="-711.0009" font-family="Helvetica,sans-Serif" font-size="14.00" fill="#000000">prose</text>
</g>
<!-- section_25&#45;&gt;prose_31 -->
<g id="edge31" class="edge">
<title>section_25&#45;&gt;prose_31</title>
<path fill="none" stroke="#000000" stroke-dasharray="5,2" d="M2932.4679,-928.5269C2913.109,-914.1437 2887.0625,-891.838 2871.5,-866.4011 2847.7401,-827.5656 2837.1032,-775.0036 2832.5809,-743.1837"/>
<polygon fill="#000000" stroke="#000000" points="2836.0469,-742.6953 2831.2716,-733.2376 2829.1068,-743.609 2836.0469,-742.6953"/>
</g>
<!-- codeblock_32 -->
<g id="node33" class="node">
<title>codeblock_32</title>
<ellipse fill="none" stroke="#000000" cx="2957.5" cy="-715.2009" rx="77.4211" ry="18"/>
<text text-anchor="middle" x="2957.5" y="-711.0009" font-family="Helvetica,sans-Serif" font-size="14.00" fill="#000000">code block 68&#45;79</text>
</g>
<!-- section_25&#45;&gt;codeblock_32 -->
<g id="edge32" class="edge">
<title>section_25&#45;&gt;codeblock_32</title>
<path fill="none" stroke="#000000" stroke-dasharray="5,2" d="M2957.5,-927.4299C2957.5,-887.5043 2957.5,-791.5257 2957.5,-743.5286"/>
<polygon fill="#000000" stroke="#000000" points="2961.0001,-743.5068 2957.5,-733.5069 2954.0001,-743.5069 2961.0001,-743.5068"/>
</g>
<!-- prose_33 -->
<g id="node34" class="node">
<title>prose_33</title>
<ellipse fill="none" stroke="#000000" cx="3085.5" cy="-715.2009" rx="32.4585" ry="18"/>
<text text-anchor="middle" x="3085.5" y="-711.0009" font-family="Helvetica,sans-Serif" font-size="14.00" fill="#000000">prose</text>
</g>
<!-- section_25&#45;&gt;prose_33 -->
<g id="edge33" class="edge">
<title>section_25&#45;&gt;prose_33</title>
<path fill="none" stroke="#000000" stroke-dasharray="5,2" d="M2982.5321,-928.5269C3001.891,-914.1437 3027.9375,-891.838 3043.5,-866.4011 3067.2599,-827.5656 3077.8968,-775.0036 3082.4191,-743.1837"/>
<polygon fill="#000000" stroke="#000000" points="3085.8932,-743.609 3083.7284,-733.2376 3078.9531,-742.6953 3085.8932,-743.609"/>
</g>
<!-- structure_34 -->
<g id="node35" class="node">
<title>structure_34</title>
<ellipse fill="none" stroke="#000000" cx="3180.5" cy="-715.2009" rx="44.5182" ry="18"/>
<text text-anchor="middle" x="3180.5" y="-711.0009" font-family="Helvetica,sans-Serif" font-size="14.00" fill="#000000">structure</text>
</g>
<!-- section_25&#45;&gt;structure_34 -->
<g id="edge34" class="edge">
<title>section_25&#45;&gt;structure_34</title>
<path fill="none" stroke="#000000" stroke-dasharray="5,2" d="M3008.6054,-933.0245C3045.9078,-921.4816 3095.2222,-900.7919 3126.5,-866.4011 3158.3152,-831.4195 3171.6774,-776.4051 3177.0722,-743.2687"/>
<polygon fill="#000000" stroke="#000000" points="3180.5406,-743.7395 3178.5571,-733.332 3173.6175,-742.7049 3180.5406,-743.7395"/>
</g>
<!-- structure_35 -->
<g id="node36" class="node">
<title>structure_35</title>
<ellipse fill="none" stroke="#000000" cx="3293.5" cy="-715.2009" rx="44.5182" ry="18"/>
<text text-anchor="middle" x="3293.5" y="-711.0009" font-family="Helvetica,sans-Serif" font-size="14.00" fill="#000000">structure</text>
</g>
<!-- section_25&#45;&gt;structure_35 -->
<g id="edge35" class="edge">
<title>section_25&#45;&gt;structure_35</title>
<path fill="none" stroke="#000000" stroke-dasharray="5,2" d="M3015.2655,-935.2504C3086.588,-921.5573 3202.4157,-895.6063 3234.5,-866.4011 3270.1312,-833.9673 3284.4859,-777.4033 3290.0903,-743.4149"/>
<polygon fill="#000000" stroke="#000000" points="3293.5955,-743.6408 3291.6183,-733.2321 3286.673,-742.602 3293.5955,-743.6408"/>
</g>
<!-- codeblock_36 -->
<g id="node37" class="node">
<title>codeblock_36</title>
<ellipse fill="none" stroke="#000000" cx="3525.5" cy="-715.2009" rx="81.9542" ry="18"/>
<text text-anchor="middle" x="3525.5" y="-711.0009" font-family="Helvetica,sans-Serif" font-size="14.00" fill="#000000">code block 93&#45;117</text>
</g>
<!-- section_25&#45;&gt;codeblock_36 -->
<g id="edge36" class="edge">
<title>section_25&#45;&gt;codeblock_36</title>
<path fill="none" stroke="#000000" stroke-dasharray="5,2" d="M3026.34,-941.9204C3106.958,-935.4366 3242.7861,-917.26 3347.5,-866.4011 3411.9922,-835.0776 3472.315,-774.889 3503.4594,-740.6549"/>
<polygon fill="#000000" stroke="#000000" points="3506.2998,-742.7301 3510.3743,-732.95 3501.0902,-738.0545 3506.2998,-742.7301"/>
</g>
<!-- leaf_27 -->
<g id="node28" class="node">
<title>leaf_27</title>
<polygon fill="none" stroke="#c0c0c0" points="2357.5,-363.7003 2303.5,-363.7003 2303.5,-327.7003 2357.5,-327.7003 2357.5,-363.7003"/>
</g>
<!-- raw_26&#45;&gt;leaf_27 -->
<g id="edge27" class="edge">
<title>raw_26&#45;&gt;leaf_27</title>
<path fill="none" stroke="#000000" stroke-dasharray="5,2" d="M2330.5,-697.129C2330.5,-637.4543 2330.5,-446.385 2330.5,-373.9251"/>
<polygon fill="#000000" stroke="#000000" points="2334.0001,-373.7374 2330.5,-363.7375 2327.0001,-373.7375 2334.0001,-373.7374"/>
</g>
<!-- raw_37 -->
<g id="node38" class="node">
<title>raw_37</title>
<ellipse fill="none" stroke="#000000" cx="2421.5" cy="-345.7003" rx="27" ry="18"/>
<text text-anchor="middle" x="2421.5" y="-341.5003" font-family="Helvetica,sans-Serif" font-size="14.00" fill="#000000">raw</text>
</g>
<!-- prose_30&#45;&gt;raw_37 -->
<g id="edge37" class="edge">
<title>prose_30&#45;&gt;raw_37</title>
<path fill="none" stroke="#000000" stroke-dasharray="5,2" d="M2748.44,-697.0692C2749.0223,-664.965 2745.1671,-598.2831 2706.5,-564.0006 2623.4901,-490.4036 2540.2919,-604.0258 2459.5,-528.0006 2417.1383,-488.1382 2415.5516,-414.2597 2418.3497,-373.8698"/>
<polygon fill="#000000" stroke="#000000" points="2421.8386,-374.1478 2419.1789,-363.8923 2414.8626,-373.568 2421.8386,-374.1478"/>
</g>
<!-- raw_39 -->
<g id="node40" class="node">
<title>raw_39</title>
<ellipse fill="none" stroke="#000000" cx="2495.5" cy="-345.7003" rx="27" ry="18"/>
<text text-anchor="middle" x="2495.5" y="-341.5003" font-family="Helvetica,sans-Serif" font-size="14.00" fill="#000000">raw</text>
</g>
<!-- prose_31&#45;&gt;raw_39 -->
<g id="edge39" class="edge">
<title>prose_31&#45;&gt;raw_39</title>
<path fill="none" stroke="#000000" stroke-dasharray="5,2" d="M2830.4589,-697.0478C2831.0713,-664.9095 2827.2622,-598.1755 2788.5,-564.0006 2701.9857,-487.7249 2615.2991,-607.2498 2531.5,-528.0006 2489.3279,-488.1183 2488.6522,-414.2479 2491.975,-373.8645"/>
<polygon fill="#000000" stroke="#000000" points="2495.4609,-374.1779 2492.9349,-363.8887 2488.4931,-373.5075 2495.4609,-374.1779"/>
</g>
<!-- leaf_41 -->
<g id="node42" class="node">
<title>leaf_41</title>
<polygon fill="none" stroke="#c0c0c0" points="3040,-426.7006 2541,-426.7006 2541,-264.7 3040,-264.7 3040,-426.7006"/>
<text text-anchor="middle" x="2790.5" y="-411.5005" font-family="Inconsolata" font-size="14.00" fill="#000000">function h.match(str) </text>
<text text-anchor="middle" x="2790.5" y="-396.1005" font-family="Inconsolata" font-size="14.00" fill="#000000"> &#160;&#160;&#160;if str ~= &quot;&quot; and L.match(m.header, str) then</text>
<text text-anchor="middle" x="2790.5" y="-380.7004" font-family="Inconsolata" font-size="14.00" fill="#000000"> &#160;&#160;&#160;&#160;&#160;&#160;&#160;local trimmed = str:sub(L.match(m.WS, str))</text>
<text text-anchor="middle" x="2790.5" y="-365.3004" font-family="Inconsolata" font-size="14.00" fill="#000000"> &#160;&#160;&#160;&#160;&#160;&#160;&#160;local level = L.match(m.tars, trimmed) &#45; 1</text>
<text text-anchor="middle" x="2790.5" y="-349.9004" font-family="Inconsolata" font-size="14.00" fill="#000000"> &#160;&#160;&#160;&#160;&#160;&#160;&#160;local bareline = trimmed:sub(L.match(m.tars * m.WS, trimmed))</text>
<text text-anchor="middle" x="2790.5" y="-334.5003" font-family="Inconsolata" font-size="14.00" fill="#000000"> &#160;&#160;&#160;&#160;&#160;&#160;&#160;return true, level, bareline</text>
<text text-anchor="middle" x="2790.5" y="-319.1003" font-family="Inconsolata" font-size="14.00" fill="#000000"> &#160;&#160;&#160;else </text>
<text text-anchor="middle" x="2790.5" y="-303.7003" font-family="Inconsolata" font-size="14.00" fill="#000000"> &#160;&#160;&#160;&#160;&#160;&#160;&#160;return false, 0, &quot;&quot;</text>
<text text-anchor="middle" x="2790.5" y="-288.3002" font-family="Inconsolata" font-size="14.00" fill="#000000"> &#160;&#160;&#160;end</text>
<text text-anchor="middle" x="2790.5" y="-272.9002" font-family="Inconsolata" font-size="14.00" fill="#000000">end</text>
</g>
<!-- codeblock_32&#45;&gt;leaf_41 -->
<g id="edge41" class="edge">
<title>codeblock_32&#45;&gt;leaf_41</title>
<path fill="none" stroke="#000000" stroke-dasharray="5,2" d="M2949.3322,-697.129C2928.2709,-650.5292 2870.9965,-523.805 2831.3147,-436.006"/>
<polygon fill="#000000" stroke="#000000" points="2834.4782,-434.5071 2827.1702,-426.8361 2828.0994,-437.3901 2834.4782,-434.5071"/>
</g>
<!-- raw_42 -->
<g id="node43" class="node">
<title>raw_42</title>
<ellipse fill="none" stroke="#000000" cx="3085.5" cy="-345.7003" rx="27" ry="18"/>
<text text-anchor="middle" x="3085.5" y="-341.5003" font-family="Helvetica,sans-Serif" font-size="14.00" fill="#000000">raw</text>
</g>
<!-- prose_33&#45;&gt;raw_42 -->
<g id="edge42" class="edge">
<title>prose_33&#45;&gt;raw_42</title>
<path fill="none" stroke="#000000" stroke-dasharray="5,2" d="M3085.5,-697.129C3085.5,-637.4543 3085.5,-446.385 3085.5,-373.9251"/>
<polygon fill="#000000" stroke="#000000" points="3089.0001,-373.7374 3085.5,-363.7375 3082.0001,-373.7375 3089.0001,-373.7374"/>
</g>
<!-- handleline_44 -->
<g id="node45" class="node">
<title>handleline_44</title>
<ellipse fill="none" stroke="#000000" cx="3180.5" cy="-345.7003" rx="50.3585" ry="18"/>
<text text-anchor="middle" x="3180.5" y="-341.5003" font-family="Helvetica,sans-Serif" font-size="14.00" fill="#000000">handleline</text>
</g>
<!-- structure_34&#45;&gt;handleline_44 -->
<g id="edge44" class="edge">
<title>structure_34&#45;&gt;handleline_44</title>
<path fill="none" stroke="#000000" stroke-dasharray="5,2" d="M3180.5,-697.129C3180.5,-637.4543 3180.5,-446.385 3180.5,-373.9251"/>
<polygon fill="#000000" stroke="#000000" points="3184.0001,-373.7374 3180.5,-363.7375 3177.0001,-373.7375 3184.0001,-373.7374"/>
</g>
<!-- handleline_47 -->
<g id="node48" class="node">
<title>handleline_47</title>
<ellipse fill="none" stroke="#000000" cx="3299.5" cy="-345.7003" rx="50.3585" ry="18"/>
<text text-anchor="middle" x="3299.5" y="-341.5003" font-family="Helvetica,sans-Serif" font-size="14.00" fill="#000000">handleline</text>
</g>
<!-- structure_35&#45;&gt;handleline_47 -->
<g id="edge47" class="edge">
<title>structure_35&#45;&gt;handleline_47</title>
<path fill="none" stroke="#000000" stroke-dasharray="5,2" d="M3293.7935,-697.129C3294.7625,-637.4543 3297.8651,-446.385 3299.0417,-373.9251"/>
<polygon fill="#000000" stroke="#000000" points="3302.5442,-373.793 3299.2071,-363.7375 3295.5451,-373.6793 3302.5442,-373.793"/>
</g>
<!-- leaf_50 -->
<g id="node51" class="node">
<title>leaf_50</title>
<polygon fill="none" stroke="#c0c0c0" points="3859.5,-527.8011 3367.5,-527.8011 3367.5,-163.5995 3859.5,-163.5995 3859.5,-527.8011"/>
<text text-anchor="middle" x="3613.5" y="-512.8006" font-family="Inconsolata" font-size="14.00" fill="#000000">local function new(Header, line, level, first, last, parent)</text>
<text text-anchor="middle" x="3613.5" y="-497.4006" font-family="Inconsolata" font-size="14.00" fill="#000000"> &#160;&#160;&#160;local header = setmetatable({}, H)</text>
<text text-anchor="middle" x="3613.5" y="-482.0006" font-family="Inconsolata" font-size="14.00" fill="#000000"> &#160;&#160;&#160;header.line = line</text>
<text text-anchor="middle" x="3613.5" y="-466.6005" font-family="Inconsolata" font-size="14.00" fill="#000000"> &#160;&#160;&#160;header.level = level</text>
<text text-anchor="middle" x="3613.5" y="-451.2005" font-family="Inconsolata" font-size="14.00" fill="#000000"> &#160;&#160;&#160;header.first = first</text>
<text text-anchor="middle" x="3613.5" y="-435.8005" font-family="Inconsolata" font-size="14.00" fill="#000000"> &#160;&#160;&#160;header.last = last</text>
<text text-anchor="middle" x="3613.5" y="-420.4004" font-family="Inconsolata" font-size="14.00" fill="#000000"> &#160;&#160;&#160;header.parent = function() return parent end</text>
<text text-anchor="middle" x="3613.5" y="-405.0004" font-family="Inconsolata" font-size="14.00" fill="#000000"> &#160;&#160;&#160;header.id = &quot;header&quot;</text>
<text text-anchor="middle" x="3613.5" y="-389.6004" font-family="Inconsolata" font-size="14.00" fill="#000000"> &#160;&#160;&#160;&#45;&#45; for now lets set root to &#39;false&#39;</text>
<text text-anchor="middle" x="3613.5" y="-374.2003" font-family="Inconsolata" font-size="14.00" fill="#000000"> &#160;&#160;&#160;&#45;&#45; nodes classically return root but unclear that I actually use</text>
<text text-anchor="middle" x="3613.5" y="-358.8003" font-family="Inconsolata" font-size="14.00" fill="#000000"> &#160;&#160;&#160;header.root = false</text>
<text text-anchor="middle" x="3613.5" y="-343.4003" font-family="Inconsolata" font-size="14.00" fill="#000000"> &#160;&#160;&#160;return header</text>
<text text-anchor="middle" x="3613.5" y="-328.0002" font-family="Inconsolata" font-size="14.00" fill="#000000">end</text>
<text text-anchor="middle" x="3613.5" y="-296.6002" font-family="Inconsolata" font-size="14.00" fill="#000000">function H.howdy() </text>
<text text-anchor="middle" x="3613.5" y="-281.2002" font-family="Inconsolata" font-size="14.00" fill="#000000"> &#160;&#160;&#160;io.write(&quot;Why hello!\n&quot;)</text>
<text text-anchor="middle" x="3613.5" y="-265.8002" font-family="Inconsolata" font-size="14.00" fill="#000000">end</text>
<text text-anchor="middle" x="3613.5" y="-218.4001" font-family="Inconsolata" font-size="14.00" fill="#000000">h.__call = new</text>
<text text-anchor="middle" x="3613.5" y="-203.0001" font-family="Inconsolata" font-size="14.00" fill="#000000">h.__index = h</text>
<text text-anchor="middle" x="3613.5" y="-171.6001" font-family="Inconsolata" font-size="14.00" fill="#000000">return setmetatable({}, h)</text>
</g>
<!-- codeblock_36&#45;&gt;leaf_50 -->
<g id="edge50" class="edge">
<title>codeblock_36&#45;&gt;leaf_50</title>
<path fill="none" stroke="#000000" stroke-dasharray="5,2" d="M3529.804,-697.129C3536.9921,-666.9471 3552.1851,-603.1536 3567.6797,-538.094"/>
<polygon fill="#000000" stroke="#000000" points="3571.1551,-538.6077 3570.0672,-528.0689 3564.3456,-536.9859 3571.1551,-538.6077"/>
</g>
<!-- leaf_38 -->
<g id="node39" class="node">
<title>leaf_38</title>
<polygon fill="none" stroke="#c0c0c0" points="2423,-127.6015 2246,-127.6015 2246,-71.7985 2423,-71.7985 2423,-127.6015"/>
<text text-anchor="middle" x="2334.5" y="-80.2" font-family="Inconsolata" font-size="14.00" fill="#000000"> Matches a header line.</text>
</g>
<!-- raw_37&#45;&gt;leaf_38 -->
<g id="edge38" class="edge">
<title>raw_37&#45;&gt;leaf_38</title>
<path fill="none" stroke="#000000" stroke-dasharray="5,2" d="M2417.1847,-327.7547C2408.9876,-294.664 2389.8778,-222.0544 2366.5,-163.4 2362.9667,-154.5351 2358.6587,-145.2313 2354.3632,-136.5573"/>
<polygon fill="#000000" stroke="#000000" points="2357.3867,-134.7807 2349.7443,-127.4428 2351.1427,-137.9449 2357.3867,-134.7807"/>
</g>
<!-- leaf_40 -->
<g id="node41" class="node">
<title>leaf_40</title>
<polygon fill="none" stroke="#c0c0c0" points="2723.5,-127.0004 2441.5,-127.0004 2441.5,-72.3996 2723.5,-72.3996 2723.5,-127.0004"/>
<text text-anchor="middle" x="2582.5" y="-95.9" font-family="Inconsolata" font-size="14.00" fill="#000000"> &#45; str : &#160;The string to match against.</text>
<text text-anchor="middle" x="2582.5" y="-80.5" font-family="Inconsolata" font-size="14.00" fill="#000000"> </text>
</g>
<!-- raw_39&#45;&gt;leaf_40 -->
<g id="edge40" class="edge">
<title>raw_39&#45;&gt;leaf_40</title>
<path fill="none" stroke="#000000" stroke-dasharray="5,2" d="M2496.2458,-327.4836C2498.2352,-293.6416 2505.4631,-219.4244 2531.5,-163.4 2536.0699,-153.5669 2542.466,-143.9195 2549.1878,-135.2258"/>
<polygon fill="#000000" stroke="#000000" points="2552.1081,-137.1812 2555.6833,-127.2078 2546.669,-132.7748 2552.1081,-137.1812"/>
</g>
<!-- leaf_43 -->
<g id="node44" class="node">
<title>leaf_43</title>
<polygon fill="none" stroke="#c0c0c0" points="3140,-119.6021 2963,-119.6021 2963,-79.7979 3140,-79.7979 3140,-119.6021"/>
<text text-anchor="middle" x="3051.5" y="-88.2" font-family="Inconsolata" font-size="14.00" fill="#000000"> Creates a Header Node.</text>
</g>
<!-- raw_42&#45;&gt;leaf_43 -->
<g id="edge43" class="edge">
<title>raw_42&#45;&gt;leaf_43</title>
<path fill="none" stroke="#000000" stroke-dasharray="5,2" d="M3082.9999,-327.6113C3077.2014,-285.6573 3062.7882,-181.3738 3055.6463,-129.7001"/>
<polygon fill="#000000" stroke="#000000" points="3059.0746,-128.94 3054.2384,-119.5134 3052.1406,-129.8984 3059.0746,-128.94"/>
</g>
<!-- handle_45 -->
<g id="node46" class="node">
<title>handle_45</title>
<ellipse fill="none" stroke="#000000" cx="3194.5" cy="-99.7" rx="36.827" ry="18"/>
<text text-anchor="middle" x="3194.5" y="-95.5" font-family="Helvetica,sans-Serif" font-size="14.00" fill="#000000">handle</text>
</g>
<!-- handleline_44&#45;&gt;handle_45 -->
<g id="edge45" class="edge">
<title>handleline_44&#45;&gt;handle_45</title>
<path fill="none" stroke="#000000" stroke-dasharray="5,2" d="M3181.5295,-327.6113C3183.9466,-285.1394 3189.999,-178.7894 3192.9002,-127.8105"/>
<polygon fill="#000000" stroke="#000000" points="3196.3951,-127.9983 3193.469,-117.8155 3189.4064,-127.6005 3196.3951,-127.9983"/>
</g>
<!-- leaf_46 -->
<g id="node47" class="node">
<title>leaf_46</title>
<polygon fill="none" stroke="#c0c0c0" points="3221.5,-36 3167.5,-36 3167.5,0 3221.5,0 3221.5,-36"/>
</g>
<!-- handle_45&#45;&gt;leaf_46 -->
<g id="edge46" class="edge">
<title>handle_45&#45;&gt;leaf_46</title>
<path fill="none" stroke="#000000" stroke-dasharray="5,2" d="M3194.5,-81.5681C3194.5,-71.2023 3194.5,-57.9747 3194.5,-46.2729"/>
<polygon fill="#000000" stroke="#000000" points="3198.0001,-46.0812 3194.5,-36.0812 3191.0001,-46.0812 3198.0001,-46.0812"/>
</g>
<!-- handle_48 -->
<g id="node49" class="node">
<title>handle_48</title>
<ellipse fill="none" stroke="#000000" cx="3299.5" cy="-99.7" rx="36.827" ry="18"/>
<text text-anchor="middle" x="3299.5" y="-95.5" font-family="Helvetica,sans-Serif" font-size="14.00" fill="#000000">handle</text>
</g>
<!-- handleline_47&#45;&gt;handle_48 -->
<g id="edge48" class="edge">
<title>handleline_47&#45;&gt;handle_48</title>
<path fill="none" stroke="#000000" stroke-dasharray="5,2" d="M3299.5,-327.6113C3299.5,-285.2282 3299.5,-179.2341 3299.5,-128.1312"/>
<polygon fill="#000000" stroke="#000000" points="3303.0001,-127.8155 3299.5,-117.8155 3296.0001,-127.8156 3303.0001,-127.8155"/>
</g>
<!-- leaf_49 -->
<g id="node50" class="node">
<title>leaf_49</title>
<polygon fill="none" stroke="#c0c0c0" points="3326.5,-36 3272.5,-36 3272.5,0 3326.5,0 3326.5,-36"/>
</g>
<!-- handle_48&#45;&gt;leaf_49 -->
<g id="edge49" class="edge">
<title>handle_48&#45;&gt;leaf_49</title>
<path fill="none" stroke="#000000" stroke-dasharray="5,2" d="M3299.5,-81.5681C3299.5,-71.2023 3299.5,-57.9747 3299.5,-46.2729"/>
<polygon fill="#000000" stroke="#000000" points="3303.0001,-46.0812 3299.5,-36.0812 3296.0001,-46.0812 3303.0001,-46.0812"/>
</g>
</g>
</svg>