<?xml version="1.0" encoding="UTF-8" standalone="no"?>
<!DOCTYPE svg PUBLIC "-//W3C//DTD SVG 1.1//EN"
 "http://www.w3.org/Graphics/SVG/1.1/DTD/svg11.dtd">
<!-- Generated by graphviz version 2.40.1 (20161225.0304)
 -->
<!-- Title: hierarchy Pages: 1 -->
<svg width="4398pt" height="1166pt"
 viewBox="0.00 0.00 4398.00 1166.40" xmlns="http://www.w3.org/2000/svg" xmlns:xlink="http://www.w3.org/1999/xlink">
<g id="graph0" class="graph" transform="scale(1 1) rotate(0) translate(4 1162.4011)">
<title>hierarchy</title>
<polygon fill="#ffffff" stroke="transparent" points="-4,4 -4,-1162.4011 4394,-1162.4011 4394,4 -4,4"/>
<!-- doc_0 -->
<g id="node1" class="node">
<title>doc_0</title>
<ellipse fill="none" stroke="#000000" cx="1363.5" cy="-1140.4011" rx="46.1547" ry="18"/>
<text text-anchor="middle" x="1363.5" y="-1136.2011" font-family="Helvetica,sans-Serif" font-size="14.00" fill="#000000">doc &#45; 115</text>
</g>
<!-- section_1 -->
<g id="node2" class="node">
<title>section_1</title>
<ellipse fill="none" stroke="#000000" cx="1363.5" cy="-1068.4011" rx="60.9826" ry="18"/>
<text text-anchor="middle" x="1363.5" y="-1064.2011" font-family="Helvetica,sans-Serif" font-size="14.00" fill="#000000">section: 1&#45;49</text>
</g>
<!-- doc_0&#45;&gt;section_1 -->
<g id="edge1" class="edge">
<title>doc_0&#45;&gt;section_1</title>
<path fill="none" stroke="#000000" stroke-dasharray="5,2" d="M1363.5,-1122.2325C1363.5,-1114.5321 1363.5,-1105.3755 1363.5,-1096.8178"/>
<polygon fill="#000000" stroke="#000000" points="1367.0001,-1096.8144 1363.5,-1086.8144 1360.0001,-1096.8144 1367.0001,-1096.8144"/>
</g>
<!-- header_2 -->
<g id="node3" class="node">
<title>header_2</title>
<ellipse fill="none" stroke="#000000" cx="918.5" cy="-996.4011" rx="92.89" ry="18"/>
<text text-anchor="middle" x="918.5" y="-992.2011" font-family="Helvetica,sans-Serif" font-size="14.00" fill="#000000">1 : Header metatable</text>
</g>
<!-- section_1&#45;&gt;header_2 -->
<g id="edge2" class="edge">
<title>section_1&#45;&gt;header_2</title>
<path fill="none" stroke="#000000" stroke-dasharray="5,2" d="M1309.8226,-1059.7162C1232.7296,-1047.2428 1090.0396,-1024.1558 999.9161,-1009.5741"/>
<polygon fill="#000000" stroke="#000000" points="1000.4392,-1006.1133 990.0085,-1007.971 999.3211,-1013.0234 1000.4392,-1006.1133"/>
</g>
<!-- prose_3 -->
<g id="node4" class="node">
<title>prose_3</title>
<ellipse fill="none" stroke="#000000" cx="1093.5" cy="-996.4011" rx="32.4585" ry="18"/>
<text text-anchor="middle" x="1093.5" y="-992.2011" font-family="Helvetica,sans-Serif" font-size="14.00" fill="#000000">prose</text>
</g>
<!-- section_1&#45;&gt;prose_3 -->
<g id="edge3" class="edge">
<title>section_1&#45;&gt;prose_3</title>
<path fill="none" stroke="#000000" stroke-dasharray="5,2" d="M1315.9156,-1057.1685C1272.6102,-1046.7491 1207.0086,-1030.4722 1150.5,-1014.4011 1144.277,-1012.6313 1137.7045,-1010.656 1131.3218,-1008.6802"/>
<polygon fill="#000000" stroke="#000000" points="1132.1148,-1005.2608 1121.5255,-1005.6045 1130.0179,-1011.9393 1132.1148,-1005.2608"/>
</g>
<!-- codeblock_4 -->
<g id="node5" class="node">
<title>codeblock_4</title>
<ellipse fill="none" stroke="#000000" cx="1232.5" cy="-996.4011" rx="72.5844" ry="18"/>
<text text-anchor="middle" x="1232.5" y="-992.2011" font-family="Helvetica,sans-Serif" font-size="14.00" fill="#000000">code block 6&#45;12</text>
</g>
<!-- section_1&#45;&gt;codeblock_4 -->
<g id="edge4" class="edge">
<title>section_1&#45;&gt;codeblock_4</title>
<path fill="none" stroke="#000000" stroke-dasharray="5,2" d="M1334.4269,-1052.422C1315.8626,-1042.2187 1291.5742,-1028.8694 1271.3638,-1017.7614"/>
<polygon fill="#000000" stroke="#000000" points="1272.8495,-1014.5842 1262.4001,-1012.8348 1269.4778,-1020.7187 1272.8495,-1014.5842"/>
</g>
<!-- prose_5 -->
<g id="node6" class="node">
<title>prose_5</title>
<ellipse fill="none" stroke="#000000" cx="1363.5" cy="-996.4011" rx="32.4585" ry="18"/>
<text text-anchor="middle" x="1363.5" y="-992.2011" font-family="Helvetica,sans-Serif" font-size="14.00" fill="#000000">prose</text>
</g>
<!-- section_1&#45;&gt;prose_5 -->
<g id="edge5" class="edge">
<title>section_1&#45;&gt;prose_5</title>
<path fill="none" stroke="#000000" stroke-dasharray="5,2" d="M1363.5,-1050.2325C1363.5,-1042.5321 1363.5,-1033.3755 1363.5,-1024.8178"/>
<polygon fill="#000000" stroke="#000000" points="1367.0001,-1024.8144 1363.5,-1014.8144 1360.0001,-1024.8144 1367.0001,-1024.8144"/>
</g>
<!-- prose_6 -->
<g id="node7" class="node">
<title>prose_6</title>
<ellipse fill="none" stroke="#000000" cx="1445.5" cy="-996.4011" rx="32.4585" ry="18"/>
<text text-anchor="middle" x="1445.5" y="-992.2011" font-family="Helvetica,sans-Serif" font-size="14.00" fill="#000000">prose</text>
</g>
<!-- section_1&#45;&gt;prose_6 -->
<g id="edge6" class="edge">
<title>section_1&#45;&gt;prose_6</title>
<path fill="none" stroke="#000000" stroke-dasharray="5,2" d="M1382.9329,-1051.3381C1394.1994,-1041.4455 1408.5035,-1028.8858 1420.5902,-1018.2731"/>
<polygon fill="#000000" stroke="#000000" points="1422.9534,-1020.8559 1428.1585,-1011.6278 1418.3347,-1015.5958 1422.9534,-1020.8559"/>
</g>
<!-- section_7 -->
<g id="node8" class="node">
<title>section_7</title>
<ellipse fill="none" stroke="#000000" cx="1968.5" cy="-996.4011" rx="65.8187" ry="18"/>
<text text-anchor="middle" x="1968.5" y="-992.2011" font-family="Helvetica,sans-Serif" font-size="14.00" fill="#000000">section: 25&#45;49</text>
</g>
<!-- section_1&#45;&gt;section_7 -->
<g id="edge7" class="edge">
<title>section_1&#45;&gt;section_7</title>
<path fill="none" stroke="#000000" stroke-dasharray="5,2" d="M1419.8736,-1061.6922C1530.6097,-1048.5137 1776.2938,-1019.2752 1897.7342,-1004.8228"/>
<polygon fill="#000000" stroke="#000000" points="1898.5133,-1008.2549 1908.0296,-1003.5976 1897.686,-1001.304 1898.5133,-1008.2549"/>
</g>
<!-- section_8 -->
<g id="node9" class="node">
<title>section_8</title>
<ellipse fill="none" stroke="#000000" cx="2749.5" cy="-996.4011" rx="65.8187" ry="18"/>
<text text-anchor="middle" x="2749.5" y="-992.2011" font-family="Helvetica,sans-Serif" font-size="14.00" fill="#000000">section: 50&#45;56</text>
</g>
<!-- section_1&#45;&gt;section_8 -->
<g id="edge8" class="edge">
<title>section_1&#45;&gt;section_8</title>
<path fill="none" stroke="#000000" stroke-dasharray="5,2" d="M1423.4996,-1065.2843C1646.5752,-1053.6959 2427.9142,-1013.1069 2674.4064,-1000.3021"/>
<polygon fill="#000000" stroke="#000000" points="2674.8888,-1003.7818 2684.6937,-999.7677 2674.5255,-996.7913 2674.8888,-1003.7818"/>
</g>
<!-- leaf_9 -->
<g id="node10" class="node">
<title>leaf_9</title>
<polygon fill="none" stroke="#c0c0c0" points="979,-917.3011 830,-917.3011 830,-881.3011 979,-881.3011 979,-917.3011"/>
<text text-anchor="middle" x="904.5" y="-895.8011" font-family="Inconsolata" font-size="14.00" fill="#000000"> * Header metatable</text>
</g>
<!-- header_2&#45;&gt;leaf_9 -->
<g id="edge9" class="edge">
<title>header_2&#45;&gt;leaf_9</title>
<path fill="none" stroke="#000000" stroke-dasharray="5,2" d="M915.8667,-978.1373C913.8135,-963.8968 910.9257,-943.868 908.5747,-927.5623"/>
<polygon fill="#000000" stroke="#000000" points="912.0128,-926.8811 907.1215,-917.483 905.0844,-927.8801 912.0128,-926.8811"/>
</g>
<!-- raw_10 -->
<g id="node11" class="node">
<title>raw_10</title>
<ellipse fill="none" stroke="#000000" cx="1024.5" cy="-899.3011" rx="27" ry="18"/>
<text text-anchor="middle" x="1024.5" y="-895.1011" font-family="Helvetica,sans-Serif" font-size="14.00" fill="#000000">raw</text>
</g>
<!-- prose_3&#45;&gt;raw_10 -->
<g id="edge10" class="edge">
<title>prose_3&#45;&gt;raw_10</title>
<path fill="none" stroke="#000000" stroke-dasharray="5,2" d="M1081.4811,-979.4876C1070.6308,-964.2184 1054.5257,-941.5547 1042.2027,-924.2132"/>
<polygon fill="#000000" stroke="#000000" points="1044.7968,-921.8214 1036.1512,-915.6973 1039.0908,-925.8762 1044.7968,-921.8214"/>
</g>
<!-- leaf_12 -->
<g id="node13" class="node">
<title>leaf_12</title>
<polygon fill="none" stroke="#c0c0c0" points="1323.5,-942.5014 1069.5,-942.5014 1069.5,-856.1008 1323.5,-856.1008 1323.5,-942.5014"/>
<text text-anchor="middle" x="1196.5" y="-927.2011" font-family="Inconsolata" font-size="14.00" fill="#000000">local L = require &quot;lpeg&quot;</text>
<text text-anchor="middle" x="1196.5" y="-895.8011" font-family="Inconsolata" font-size="14.00" fill="#000000">local Node = require &quot;node/node&quot;</text>
<text text-anchor="middle" x="1196.5" y="-864.4011" font-family="Inconsolata" font-size="14.00" fill="#000000">local m = require &quot;grym/morphemes&quot;</text>
</g>
<!-- codeblock_4&#45;&gt;leaf_12 -->
<g id="edge12" class="edge">
<title>codeblock_4&#45;&gt;leaf_12</title>
<path fill="none" stroke="#000000" stroke-dasharray="5,2" d="M1225.7287,-978.1373C1222.9179,-970.5561 1219.499,-961.3344 1216.0038,-951.9073"/>
<polygon fill="#000000" stroke="#000000" points="1219.2611,-950.6245 1212.5031,-942.4649 1212.6977,-953.0579 1219.2611,-950.6245"/>
</g>
<!-- raw_13 -->
<g id="node14" class="node">
<title>raw_13</title>
<ellipse fill="none" stroke="#000000" cx="1368.5" cy="-899.3011" rx="27" ry="18"/>
<text text-anchor="middle" x="1368.5" y="-895.1011" font-family="Helvetica,sans-Serif" font-size="14.00" fill="#000000">raw</text>
</g>
<!-- prose_5&#45;&gt;raw_13 -->
<g id="edge13" class="edge">
<title>prose_5&#45;&gt;raw_13</title>
<path fill="none" stroke="#000000" stroke-dasharray="5,2" d="M1364.4405,-978.1373C1365.1738,-963.8968 1366.2051,-943.868 1367.0447,-927.5623"/>
<polygon fill="#000000" stroke="#000000" points="1370.5448,-927.6497 1367.5638,-917.483 1363.554,-927.2897 1370.5448,-927.6497"/>
</g>
<!-- raw_15 -->
<g id="node16" class="node">
<title>raw_15</title>
<ellipse fill="none" stroke="#000000" cx="1445.5" cy="-899.3011" rx="27" ry="18"/>
<text text-anchor="middle" x="1445.5" y="-895.1011" font-family="Helvetica,sans-Serif" font-size="14.00" fill="#000000">raw</text>
</g>
<!-- prose_6&#45;&gt;raw_15 -->
<g id="edge15" class="edge">
<title>prose_6&#45;&gt;raw_15</title>
<path fill="none" stroke="#000000" stroke-dasharray="5,2" d="M1445.5,-978.1373C1445.5,-963.8968 1445.5,-943.868 1445.5,-927.5623"/>
<polygon fill="#000000" stroke="#000000" points="1449.0001,-927.4829 1445.5,-917.483 1442.0001,-927.483 1449.0001,-927.4829"/>
</g>
<!-- header_17 -->
<g id="node18" class="node">
<title>header_17</title>
<ellipse fill="none" stroke="#000000" cx="1888.5" cy="-899.3011" rx="109.7876" ry="18"/>
<text text-anchor="middle" x="1888.5" y="-895.1011" font-family="Helvetica,sans-Serif" font-size="14.00" fill="#000000">2 : Metatable for Headers</text>
</g>
<!-- section_7&#45;&gt;header_17 -->
<g id="edge17" class="edge">
<title>section_7&#45;&gt;header_17</title>
<path fill="none" stroke="#000000" stroke-dasharray="5,2" d="M1953.8268,-978.5915C1941.4996,-963.6294 1923.7207,-942.0502 1909.8217,-925.1803"/>
<polygon fill="#000000" stroke="#000000" points="1912.4112,-922.819 1903.3511,-917.3266 1907.0086,-927.2702 1912.4112,-922.819"/>
</g>
<!-- prose_18 -->
<g id="node19" class="node">
<title>prose_18</title>
<ellipse fill="none" stroke="#000000" cx="2048.5" cy="-899.3011" rx="32.4585" ry="18"/>
<text text-anchor="middle" x="2048.5" y="-895.1011" font-family="Helvetica,sans-Serif" font-size="14.00" fill="#000000">prose</text>
</g>
<!-- section_7&#45;&gt;prose_18 -->
<g id="edge18" class="edge">
<title>section_7&#45;&gt;prose_18</title>
<path fill="none" stroke="#000000" stroke-dasharray="5,2" d="M1983.1732,-978.5915C1995.8881,-963.1588 2014.4029,-940.6865 2028.4777,-923.6031"/>
<polygon fill="#000000" stroke="#000000" points="2031.3282,-925.6476 2034.9857,-915.7041 2025.9256,-921.1965 2031.3282,-925.6476"/>
</g>
<!-- codeblock_19 -->
<g id="node20" class="node">
<title>codeblock_19</title>
<ellipse fill="none" stroke="#000000" cx="2238.5" cy="-899.3011" rx="77.4211" ry="18"/>
<text text-anchor="middle" x="2238.5" y="-895.1011" font-family="Helvetica,sans-Serif" font-size="14.00" fill="#000000">code block 27&#45;48</text>
</g>
<!-- section_7&#45;&gt;codeblock_19 -->
<g id="edge19" class="edge">
<title>section_7&#45;&gt;codeblock_19</title>
<path fill="none" stroke="#000000" stroke-dasharray="5,2" d="M2008.3394,-982.0737C2055.6075,-965.0747 2134.5436,-936.6869 2186.5639,-917.9789"/>
<polygon fill="#000000" stroke="#000000" points="2188.0453,-921.1656 2196.2708,-914.488 2185.6763,-914.5786 2188.0453,-921.1656"/>
</g>
<!-- header_24 -->
<g id="node25" class="node">
<title>header_24</title>
<ellipse fill="none" stroke="#000000" cx="2599.5" cy="-899.3011" rx="99.6298" ry="18"/>
<text text-anchor="middle" x="2599.5" y="-895.1011" font-family="Helvetica,sans-Serif" font-size="14.00" fill="#000000">2 : Constructor/module</text>
</g>
<!-- section_8&#45;&gt;header_24 -->
<g id="edge24" class="edge">
<title>section_8&#45;&gt;header_24</title>
<path fill="none" stroke="#000000" stroke-dasharray="5,2" d="M2723.7141,-979.709C2699.2249,-963.8563 2662.2021,-939.8903 2634.9444,-922.2454"/>
<polygon fill="#000000" stroke="#000000" points="2636.7625,-919.253 2626.4658,-916.757 2632.9585,-925.1293 2636.7625,-919.253"/>
</g>
<!-- prose_25 -->
<g id="node26" class="node">
<title>prose_25</title>
<ellipse fill="none" stroke="#000000" cx="2749.5" cy="-899.3011" rx="32.4585" ry="18"/>
<text text-anchor="middle" x="2749.5" y="-895.1011" font-family="Helvetica,sans-Serif" font-size="14.00" fill="#000000">prose</text>
</g>
<!-- section_8&#45;&gt;prose_25 -->
<g id="edge25" class="edge">
<title>section_8&#45;&gt;prose_25</title>
<path fill="none" stroke="#000000" stroke-dasharray="5,2" d="M2749.5,-978.1373C2749.5,-963.8968 2749.5,-943.868 2749.5,-927.5623"/>
<polygon fill="#000000" stroke="#000000" points="2753.0001,-927.4829 2749.5,-917.483 2746.0001,-927.483 2753.0001,-927.4829"/>
</g>
<!-- codeblock_26 -->
<g id="node27" class="node">
<title>codeblock_26</title>
<ellipse fill="none" stroke="#000000" cx="2877.5" cy="-899.3011" rx="77.4211" ry="18"/>
<text text-anchor="middle" x="2877.5" y="-895.1011" font-family="Helvetica,sans-Serif" font-size="14.00" fill="#000000">code block 52&#45;54</text>
</g>
<!-- section_8&#45;&gt;codeblock_26 -->
<g id="edge26" class="edge">
<title>section_8&#45;&gt;codeblock_26</title>
<path fill="none" stroke="#000000" stroke-dasharray="5,2" d="M2772.0892,-979.2651C2792.7993,-963.5545 2823.6481,-940.1528 2846.6288,-922.7198"/>
<polygon fill="#000000" stroke="#000000" points="2848.8544,-925.4246 2854.7061,-916.5924 2844.6237,-919.8477 2848.8544,-925.4246"/>
</g>
<!-- section_27 -->
<g id="node28" class="node">
<title>section_27</title>
<ellipse fill="none" stroke="#000000" cx="3397.5" cy="-899.3011" rx="69.851" ry="18"/>
<text text-anchor="middle" x="3397.5" y="-895.1011" font-family="Helvetica,sans-Serif" font-size="14.00" fill="#000000">section: 57&#45;115</text>
</g>
<!-- section_8&#45;&gt;section_27 -->
<g id="edge27" class="edge">
<title>section_8&#45;&gt;section_27</title>
<path fill="none" stroke="#000000" stroke-dasharray="5,2" d="M2807.2905,-987.7415C2926.1351,-969.9331 3197.6,-929.2552 3326.731,-909.9055"/>
<polygon fill="#000000" stroke="#000000" points="3327.5322,-913.3246 3336.9031,-908.3813 3326.4948,-906.4019 3327.5322,-913.3246"/>
</g>
<!-- leaf_11 -->
<g id="node12" class="node">
<title>leaf_11</title>
<polygon fill="none" stroke="#c0c0c0" points="457,-696.6011 0,-696.6011 0,-626.0004 457,-626.0004 457,-696.6011"/>
<text text-anchor="middle" x="228.5" y="-649.5008" font-family="Inconsolata" font-size="14.00" fill="#000000"> A specialized type of Node, used for first&#45;pass ownership and </text>
<text text-anchor="middle" x="228.5" y="-634.1008" font-family="Inconsolata" font-size="14.00" fill="#000000"> all subsequent operations. </text>
</g>
<!-- raw_10&#45;&gt;leaf_11 -->
<g id="edge11" class="edge">
<title>raw_10&#45;&gt;leaf_11</title>
<path fill="none" stroke="#000000" stroke-dasharray="5,2" d="M1014.7605,-882.4357C1008.3201,-872.9767 998.9578,-861.9522 987.5,-856.201 883.7789,-804.1394 576.3356,-857.6795 466.5,-820.201 393.0891,-795.1515 320.6988,-741.5547 275.3885,-703.5476"/>
<polygon fill="#000000" stroke="#000000" points="277.4161,-700.678 267.5255,-696.8798 272.8887,-706.0169 277.4161,-700.678"/>
</g>
<!-- leaf_14 -->
<g id="node15" class="node">
<title>leaf_14</title>
<polygon fill="none" stroke="#c0c0c0" points="1093.5,-681.2028 475.5,-681.2028 475.5,-641.3987 1093.5,-641.3987 1093.5,-681.2028"/>
<text text-anchor="middle" x="784.5" y="-649.8008" font-family="Inconsolata" font-size="14.00" fill="#000000"> A header contains a header line, that is, one which begins with `WS^0 * &#39;*&#39;^1 * &#39; &#39;`.</text>
</g>
<!-- raw_13&#45;&gt;leaf_14 -->
<g id="edge14" class="edge">
<title>raw_13&#45;&gt;leaf_14</title>
<path fill="none" stroke="#000000" stroke-dasharray="5,2" d="M1358.6451,-882.3617C1352.3601,-873.1235 1343.3601,-862.3485 1332.5,-856.201 1242.4582,-805.2319 1201.0561,-851.6984 1102.5,-820.201 997.0958,-786.5151 883.3496,-722.0702 824.6499,-686.4757"/>
<polygon fill="#000000" stroke="#000000" points="826.413,-683.4515 816.0536,-681.2302 822.7667,-689.4269 826.413,-683.4515"/>
</g>
<!-- leaf_16 -->
<g id="node17" class="node">
<title>leaf_16</title>
<polygon fill="none" stroke="#c0c0c0" points="1779,-727.7016 1112,-727.7016 1112,-594.9 1779,-594.9 1779,-727.7016"/>
<text text-anchor="middle" x="1445.5" y="-696.3009" font-family="Inconsolata" font-size="14.00" fill="#000000"> In addition to the standard Node fields, a header has:</text>
<text text-anchor="middle" x="1445.5" y="-680.9008" font-family="Inconsolata" font-size="14.00" fill="#000000"> </text>
<text text-anchor="middle" x="1445.5" y="-665.5008" font-family="Inconsolata" font-size="14.00" fill="#000000"> &#160;&#45; `parent()`, a function that returns its parent, which is either a **block** or a **doc**.</text>
<text text-anchor="middle" x="1445.5" y="-650.1008" font-family="Inconsolata" font-size="14.00" fill="#000000"> &#160;&#45; `dent`, the level of indentation of the header. Must be non&#45;negative. </text>
<text text-anchor="middle" x="1445.5" y="-634.7007" font-family="Inconsolata" font-size="14.00" fill="#000000"> &#160;&#45; `level`, the level of ownership (number of tars).</text>
<text text-anchor="middle" x="1445.5" y="-619.3007" font-family="Inconsolata" font-size="14.00" fill="#000000"> &#160;&#45; `line`, the rest of the line (stripped of lead whitespace and tars)</text>
</g>
<!-- raw_15&#45;&gt;leaf_16 -->
<g id="edge16" class="edge">
<title>raw_15&#45;&gt;leaf_16</title>
<path fill="none" stroke="#000000" stroke-dasharray="5,2" d="M1445.5,-881.0208C1445.5,-850.7253 1445.5,-788.4389 1445.5,-737.8948"/>
<polygon fill="#000000" stroke="#000000" points="1449.0001,-737.6298 1445.5,-727.6299 1442.0001,-737.6299 1449.0001,-737.6298"/>
</g>
<!-- leaf_20 -->
<g id="node21" class="node">
<title>leaf_20</title>
<polygon fill="none" stroke="#c0c0c0" points="1995.5,-679.3008 1797.5,-679.3008 1797.5,-643.3008 1995.5,-643.3008 1995.5,-679.3008"/>
<text text-anchor="middle" x="1896.5" y="-657.8008" font-family="Inconsolata" font-size="14.00" fill="#000000"> &#160;** Metatable for Headers</text>
</g>
<!-- header_17&#45;&gt;leaf_20 -->
<g id="edge20" class="edge">
<title>header_17&#45;&gt;leaf_20</title>
<path fill="none" stroke="#000000" stroke-dasharray="5,2" d="M1889.1145,-881.0208C1890.5023,-839.733 1893.8873,-739.0273 1895.5486,-689.6035"/>
<polygon fill="#000000" stroke="#000000" points="1899.0564,-689.4295 1895.8944,-679.3176 1892.0603,-689.1943 1899.0564,-689.4295"/>
</g>
<!-- raw_21 -->
<g id="node22" class="node">
<title>raw_21</title>
<ellipse fill="none" stroke="#000000" cx="2040.5" cy="-661.3008" rx="27" ry="18"/>
<text text-anchor="middle" x="2040.5" y="-657.1008" font-family="Helvetica,sans-Serif" font-size="14.00" fill="#000000">raw</text>
</g>
<!-- prose_18&#45;&gt;raw_21 -->
<g id="edge21" class="edge">
<title>prose_18&#45;&gt;raw_21</title>
<path fill="none" stroke="#000000" stroke-dasharray="5,2" d="M2047.8855,-881.0208C2046.4977,-839.733 2043.1127,-739.0273 2041.4514,-689.6035"/>
<polygon fill="#000000" stroke="#000000" points="2044.9397,-689.1943 2041.1056,-679.3176 2037.9436,-689.4295 2044.9397,-689.1943"/>
</g>
<!-- leaf_23 -->
<g id="node24" class="node">
<title>leaf_23</title>
<polygon fill="none" stroke="#c0c0c0" points="2501,-820.1014 2086,-820.1014 2086,-502.5002 2501,-502.5002 2501,-820.1014"/>
<text text-anchor="middle" x="2293.5" y="-805.001" font-family="Inconsolata" font-size="14.00" fill="#000000">local H = setmetatable({}, { __index = Node })</text>
<text text-anchor="middle" x="2293.5" y="-789.601" font-family="Inconsolata" font-size="14.00" fill="#000000">H.id = &quot;header&quot;</text>
<text text-anchor="middle" x="2293.5" y="-774.201" font-family="Inconsolata" font-size="14.00" fill="#000000">H.__index = H</text>
<text text-anchor="middle" x="2293.5" y="-742.8009" font-family="Inconsolata" font-size="14.00" fill="#000000">H.__tostring = function(header) </text>
<text text-anchor="middle" x="2293.5" y="-727.4009" font-family="Inconsolata" font-size="14.00" fill="#000000"> &#160;&#160;&#160;return &quot;Lvl &quot; .. tostring(header.level) .. &quot; ^: &quot; </text>
<text text-anchor="middle" x="2293.5" y="-712.0009" font-family="Inconsolata" font-size="14.00" fill="#000000"> &#160;&#160;&#160;&#160;&#160;&#160;&#160;&#160;&#160;&#160;.. tostring(header.line)</text>
<text text-anchor="middle" x="2293.5" y="-696.6008" font-family="Inconsolata" font-size="14.00" fill="#000000">end</text>
<text text-anchor="middle" x="2293.5" y="-665.2008" font-family="Inconsolata" font-size="14.00" fill="#000000">function H.dotLabel(header)</text>
<text text-anchor="middle" x="2293.5" y="-649.8008" font-family="Inconsolata" font-size="14.00" fill="#000000"> &#160;&#160;&#160;return tostring(header.level) .. &quot; : &quot; .. header.line</text>
<text text-anchor="middle" x="2293.5" y="-634.4007" font-family="Inconsolata" font-size="14.00" fill="#000000">end</text>
<text text-anchor="middle" x="2293.5" y="-603.0007" font-family="Inconsolata" font-size="14.00" fill="#000000">function H.toMarkdown(header)</text>
<text text-anchor="middle" x="2293.5" y="-587.6007" font-family="Inconsolata" font-size="14.00" fill="#000000"> &#160;&#160;&#160;local haxen = &quot;&quot;</text>
<text text-anchor="middle" x="2293.5" y="-572.2007" font-family="Inconsolata" font-size="14.00" fill="#000000"> &#160;&#160;&#160;if header.level &gt; 0 then</text>
<text text-anchor="middle" x="2293.5" y="-556.8006" font-family="Inconsolata" font-size="14.00" fill="#000000"> &#160;&#160;&#160;&#160;&#160;&#160;&#160;haxen = (&quot;#&quot;):rep(header.level)</text>
<text text-anchor="middle" x="2293.5" y="-541.4006" font-family="Inconsolata" font-size="14.00" fill="#000000"> &#160;&#160;&#160;end</text>
<text text-anchor="middle" x="2293.5" y="-526.0006" font-family="Inconsolata" font-size="14.00" fill="#000000"> &#160;&#160;&#160;return haxen .. &quot; &quot; .. header.line</text>
<text text-anchor="middle" x="2293.5" y="-510.6005" font-family="Inconsolata" font-size="14.00" fill="#000000">end</text>
</g>
<!-- codeblock_19&#45;&gt;leaf_23 -->
<g id="edge23" class="edge">
<title>codeblock_19&#45;&gt;leaf_23</title>
<path fill="none" stroke="#000000" stroke-dasharray="5,2" d="M2242.7244,-881.0208C2245.6234,-868.4761 2249.7899,-850.4463 2254.5065,-830.0363"/>
<polygon fill="#000000" stroke="#000000" points="2257.9445,-830.7038 2256.786,-820.1725 2251.1242,-829.1276 2257.9445,-830.7038"/>
</g>
<!-- leaf_22 -->
<g id="node23" class="node">
<title>leaf_22</title>
<polygon fill="none" stroke="#c0c0c0" points="2067.5,-332.9003 2013.5,-332.9003 2013.5,-296.9003 2067.5,-296.9003 2067.5,-332.9003"/>
</g>
<!-- raw_21&#45;&gt;leaf_22 -->
<g id="edge22" class="edge">
<title>raw_21&#45;&gt;leaf_22</title>
<path fill="none" stroke="#000000" stroke-dasharray="5,2" d="M2040.5,-643.1645C2040.5,-586.4769 2040.5,-412.3118 2040.5,-343.3975"/>
<polygon fill="#000000" stroke="#000000" points="2044.0001,-343.2749 2040.5,-333.2749 2037.0001,-343.275 2044.0001,-343.2749"/>
</g>
<!-- leaf_28 -->
<g id="node29" class="node">
<title>leaf_28</title>
<polygon fill="none" stroke="#c0c0c0" points="2696,-679.3008 2519,-679.3008 2519,-643.3008 2696,-643.3008 2696,-679.3008"/>
<text text-anchor="middle" x="2607.5" y="-657.8008" font-family="Inconsolata" font-size="14.00" fill="#000000"> &#160;** Constructor/module</text>
</g>
<!-- header_24&#45;&gt;leaf_28 -->
<g id="edge28" class="edge">
<title>header_24&#45;&gt;leaf_28</title>
<path fill="none" stroke="#000000" stroke-dasharray="5,2" d="M2600.1145,-881.0208C2601.5023,-839.733 2604.8873,-739.0273 2606.5486,-689.6035"/>
<polygon fill="#000000" stroke="#000000" points="2610.0564,-689.4295 2606.8944,-679.3176 2603.0603,-689.1943 2610.0564,-689.4295"/>
</g>
<!-- raw_29 -->
<g id="node30" class="node">
<title>raw_29</title>
<ellipse fill="none" stroke="#000000" cx="2749.5" cy="-661.3008" rx="27" ry="18"/>
<text text-anchor="middle" x="2749.5" y="-657.1008" font-family="Helvetica,sans-Serif" font-size="14.00" fill="#000000">raw</text>
</g>
<!-- prose_25&#45;&gt;raw_29 -->
<g id="edge29" class="edge">
<title>prose_25&#45;&gt;raw_29</title>
<path fill="none" stroke="#000000" stroke-dasharray="5,2" d="M2749.5,-881.0208C2749.5,-839.733 2749.5,-739.0273 2749.5,-689.6035"/>
<polygon fill="#000000" stroke="#000000" points="2753.0001,-689.3175 2749.5,-679.3176 2746.0001,-689.3176 2753.0001,-689.3175"/>
</g>
<!-- leaf_31 -->
<g id="node32" class="node">
<title>leaf_31</title>
<polygon fill="none" stroke="#c0c0c0" points="2927.5,-679.3008 2827.5,-679.3008 2827.5,-643.3008 2927.5,-643.3008 2927.5,-679.3008"/>
<text text-anchor="middle" x="2877.5" y="-657.8008" font-family="Inconsolata" font-size="14.00" fill="#000000">local h = {}</text>
</g>
<!-- codeblock_26&#45;&gt;leaf_31 -->
<g id="edge31" class="edge">
<title>codeblock_26&#45;&gt;leaf_31</title>
<path fill="none" stroke="#000000" stroke-dasharray="5,2" d="M2877.5,-881.0208C2877.5,-839.733 2877.5,-739.0273 2877.5,-689.6035"/>
<polygon fill="#000000" stroke="#000000" points="2881.0001,-689.3175 2877.5,-679.3176 2874.0001,-689.3176 2881.0001,-689.3175"/>
</g>
<!-- header_32 -->
<g id="node33" class="node">
<title>header_32</title>
<ellipse fill="none" stroke="#000000" cx="3041.5" cy="-661.3008" rx="93.807" ry="18"/>
<text text-anchor="middle" x="3041.5" y="-657.1008" font-family="Helvetica,sans-Serif" font-size="14.00" fill="#000000">3 : Header:match(str)</text>
</g>
<!-- section_27&#45;&gt;header_32 -->
<g id="edge32" class="edge">
<title>section_27&#45;&gt;header_32</title>
<path fill="none" stroke="#000000" stroke-dasharray="5,2" d="M3334.0422,-891.5656C3279.5009,-882.2554 3201.0828,-862.2546 3145.5,-820.201 3099.5965,-785.4708 3067.9337,-724.2078 3052.4372,-688.7541"/>
<polygon fill="#000000" stroke="#000000" points="3055.6294,-687.3166 3048.4968,-679.4823 3049.187,-690.0547 3055.6294,-687.3166"/>
</g>
<!-- prose_33 -->
<g id="node34" class="node">
<title>prose_33</title>
<ellipse fill="none" stroke="#000000" cx="3186.5" cy="-661.3008" rx="32.4585" ry="18"/>
<text text-anchor="middle" x="3186.5" y="-657.1008" font-family="Helvetica,sans-Serif" font-size="14.00" fill="#000000">prose</text>
</g>
<!-- section_27&#45;&gt;prose_33 -->
<g id="edge33" class="edge">
<title>section_27&#45;&gt;prose_33</title>
<path fill="none" stroke="#000000" stroke-dasharray="5,2" d="M3344.7449,-887.3384C3307.1003,-876.1303 3258.0876,-855.6353 3228.5,-820.201 3197.2274,-782.7488 3188.9932,-724.4351 3186.973,-689.8379"/>
<polygon fill="#000000" stroke="#000000" points="3190.454,-689.33 3186.5141,-679.4949 3183.4608,-689.6403 3190.454,-689.33"/>
</g>
<!-- prose_34 -->
<g id="node35" class="node">
<title>prose_34</title>
<ellipse fill="none" stroke="#000000" cx="3269.5" cy="-661.3008" rx="32.4585" ry="18"/>
<text text-anchor="middle" x="3269.5" y="-657.1008" font-family="Helvetica,sans-Serif" font-size="14.00" fill="#000000">prose</text>
</g>
<!-- section_27&#45;&gt;prose_34 -->
<g id="edge34" class="edge">
<title>section_27&#45;&gt;prose_34</title>
<path fill="none" stroke="#000000" stroke-dasharray="5,2" d="M3372.3809,-882.3796C3352.9729,-868.0262 3326.9027,-845.735 3311.5,-820.201 3286.5638,-778.8628 3276.2432,-722.7601 3272.1111,-689.4643"/>
<polygon fill="#000000" stroke="#000000" points="3275.5858,-689.0425 3270.9763,-679.503 3268.6307,-689.8349 3275.5858,-689.0425"/>
</g>
<!-- codeblock_35 -->
<g id="node36" class="node">
<title>codeblock_35</title>
<ellipse fill="none" stroke="#000000" cx="3397.5" cy="-661.3008" rx="77.4211" ry="18"/>
<text text-anchor="middle" x="3397.5" y="-657.1008" font-family="Helvetica,sans-Serif" font-size="14.00" fill="#000000">code block 69&#45;80</text>
</g>
<!-- section_27&#45;&gt;codeblock_35 -->
<g id="edge35" class="edge">
<title>section_27&#45;&gt;codeblock_35</title>
<path fill="none" stroke="#000000" stroke-dasharray="5,2" d="M3397.5,-881.0208C3397.5,-839.733 3397.5,-739.0273 3397.5,-689.6035"/>
<polygon fill="#000000" stroke="#000000" points="3401.0001,-689.3175 3397.5,-679.3176 3394.0001,-689.3176 3401.0001,-689.3175"/>
</g>
<!-- prose_36 -->
<g id="node37" class="node">
<title>prose_36</title>
<ellipse fill="none" stroke="#000000" cx="3608.5" cy="-661.3008" rx="32.4585" ry="18"/>
<text text-anchor="middle" x="3608.5" y="-657.1008" font-family="Helvetica,sans-Serif" font-size="14.00" fill="#000000">prose</text>
</g>
<!-- section_27&#45;&gt;prose_36 -->
<g id="edge36" class="edge">
<title>section_27&#45;&gt;prose_36</title>
<path fill="none" stroke="#000000" stroke-dasharray="5,2" d="M3418.1769,-881.9471C3436.1624,-866.4713 3462.5532,-842.828 3483.5,-820.201 3524.6932,-775.7037 3567.2145,-718.8995 3590.5119,-686.6629"/>
<polygon fill="#000000" stroke="#000000" points="3593.5623,-688.4157 3596.5561,-678.2526 3587.878,-684.3305 3593.5623,-688.4157"/>
</g>
<!-- structure_37 -->
<g id="node38" class="node">
<title>structure_37</title>
<ellipse fill="none" stroke="#000000" cx="3745.5" cy="-661.3008" rx="44.5182" ry="18"/>
<text text-anchor="middle" x="3745.5" y="-657.1008" font-family="Helvetica,sans-Serif" font-size="14.00" fill="#000000">structure</text>
</g>
<!-- section_27&#45;&gt;structure_37 -->
<g id="edge37" class="edge">
<title>section_27&#45;&gt;structure_37</title>
<path fill="none" stroke="#000000" stroke-dasharray="5,2" d="M3461.6082,-892.014C3516.3809,-882.9989 3594.7746,-863.1792 3649.5,-820.201 3693.6804,-785.5042 3722.2014,-724.3963 3735.9065,-688.9242"/>
<polygon fill="#000000" stroke="#000000" points="3739.3113,-689.8115 3739.5328,-679.219 3732.754,-687.3614 3739.3113,-689.8115"/>
</g>
<!-- structure_38 -->
<g id="node39" class="node">
<title>structure_38</title>
<ellipse fill="none" stroke="#000000" cx="3879.5" cy="-661.3008" rx="44.5182" ry="18"/>
<text text-anchor="middle" x="3879.5" y="-657.1008" font-family="Helvetica,sans-Serif" font-size="14.00" fill="#000000">structure</text>
</g>
<!-- section_27&#45;&gt;structure_38 -->
<g id="edge38" class="edge">
<title>section_27&#45;&gt;structure_38</title>
<path fill="none" stroke="#000000" stroke-dasharray="5,2" d="M3463.8663,-893.3152C3564.0126,-883.1292 3747.5908,-859.6082 3799.5,-820.201 3842.4888,-787.5659 3864.0651,-725.4432 3873.4307,-689.2973"/>
<polygon fill="#000000" stroke="#000000" points="3876.8738,-689.9516 3875.8561,-679.4058 3870.0752,-688.2846 3876.8738,-689.9516"/>
</g>
<!-- codeblock_39 -->
<g id="node40" class="node">
<title>codeblock_39</title>
<ellipse fill="none" stroke="#000000" cx="4102.5" cy="-661.3008" rx="81.9542" ry="18"/>
<text text-anchor="middle" x="4102.5" y="-657.1008" font-family="Helvetica,sans-Serif" font-size="14.00" fill="#000000">code block 94&#45;114</text>
</g>
<!-- section_27&#45;&gt;codeblock_39 -->
<g id="edge39" class="edge">
<title>section_27&#45;&gt;codeblock_39</title>
<path fill="none" stroke="#000000" stroke-dasharray="5,2" d="M3465.0318,-894.3923C3589.9956,-884.4858 3851.9992,-859.6269 3933.5,-820.201 3998.2763,-788.8656 4054.9573,-723.8652 4083.2883,-687.4575"/>
<polygon fill="#000000" stroke="#000000" points="4086.2454,-689.3526 4089.545,-679.2847 4080.6871,-685.0975 4086.2454,-689.3526"/>
</g>
<!-- leaf_30 -->
<g id="node31" class="node">
<title>leaf_30</title>
<polygon fill="none" stroke="#c0c0c0" points="2775.5,-332.9003 2721.5,-332.9003 2721.5,-296.9003 2775.5,-296.9003 2775.5,-332.9003"/>
</g>
<!-- raw_29&#45;&gt;leaf_30 -->
<g id="edge30" class="edge">
<title>raw_29&#45;&gt;leaf_30</title>
<path fill="none" stroke="#000000" stroke-dasharray="5,2" d="M2749.4476,-643.1645C2749.284,-586.4769 2748.7812,-412.3118 2748.5823,-343.3975"/>
<polygon fill="#000000" stroke="#000000" points="2752.082,-343.2647 2748.553,-333.2749 2745.082,-343.285 2752.082,-343.2647"/>
</g>
<!-- leaf_40 -->
<g id="node41" class="node">
<title>leaf_40</title>
<polygon fill="none" stroke="#c0c0c0" points="2985,-332.9003 2794,-332.9003 2794,-296.9003 2985,-296.9003 2985,-332.9003"/>
<text text-anchor="middle" x="2889.5" y="-311.4003" font-family="Inconsolata" font-size="14.00" fill="#000000"> &#160;&#160;&#160;*** Header:match(str)</text>
</g>
<!-- header_32&#45;&gt;leaf_40 -->
<g id="edge40" class="edge">
<title>header_32&#45;&gt;leaf_40</title>
<path fill="none" stroke="#000000" stroke-dasharray="5,2" d="M3033.5418,-643.1645C3008.5651,-586.2436 2931.6142,-410.8764 2901.6336,-342.552"/>
<polygon fill="#000000" stroke="#000000" points="2904.786,-341.0258 2897.5628,-333.2749 2898.376,-343.8385 2904.786,-341.0258"/>
</g>
<!-- raw_41 -->
<g id="node42" class="node">
<title>raw_41</title>
<ellipse fill="none" stroke="#000000" cx="3030.5" cy="-314.9003" rx="27" ry="18"/>
<text text-anchor="middle" x="3030.5" y="-310.7003" font-family="Helvetica,sans-Serif" font-size="14.00" fill="#000000">raw</text>
</g>
<!-- prose_33&#45;&gt;raw_41 -->
<g id="edge41" class="edge">
<title>prose_33&#45;&gt;raw_41</title>
<path fill="none" stroke="#000000" stroke-dasharray="5,2" d="M3186.5084,-643.0878C3185.5769,-610.9845 3179.2681,-543.8131 3144.5,-502.4005 3119.95,-473.1588 3090.6809,-495.9481 3066.5,-466.4005 3037.5805,-431.0626 3031.151,-376.4044 3030.1234,-343.3039"/>
<polygon fill="#000000" stroke="#000000" points="3033.6176,-342.9065 3029.9573,-332.9641 3026.6185,-343.019 3033.6176,-342.9065"/>
</g>
<!-- raw_43 -->
<g id="node44" class="node">
<title>raw_43</title>
<ellipse fill="none" stroke="#000000" cx="3102.5" cy="-314.9003" rx="27" ry="18"/>
<text text-anchor="middle" x="3102.5" y="-310.7003" font-family="Helvetica,sans-Serif" font-size="14.00" fill="#000000">raw</text>
</g>
<!-- prose_34&#45;&gt;raw_43 -->
<g id="edge43" class="edge">
<title>prose_34&#45;&gt;raw_43</title>
<path fill="none" stroke="#000000" stroke-dasharray="5,2" d="M3269.7125,-643.1718C3269.1189,-610.9014 3263.3469,-543.0733 3227.5,-502.4005 3199.2874,-470.3897 3166.3085,-498.7629 3138.5,-466.4005 3108.7402,-431.7673 3102.5792,-376.8838 3101.8316,-343.5486"/>
<polygon fill="#000000" stroke="#000000" points="3105.3288,-343.1055 3101.7594,-333.1301 3098.3289,-343.1541 3105.3288,-343.1055"/>
</g>
<!-- leaf_45 -->
<g id="node46" class="node">
<title>leaf_45</title>
<polygon fill="none" stroke="#c0c0c0" points="3647,-395.9006 3148,-395.9006 3148,-233.9 3647,-233.9 3647,-395.9006"/>
<text text-anchor="middle" x="3397.5" y="-380.7004" font-family="Inconsolata" font-size="14.00" fill="#000000">function h.match(str) </text>
<text text-anchor="middle" x="3397.5" y="-365.3004" font-family="Inconsolata" font-size="14.00" fill="#000000"> &#160;&#160;&#160;if str ~= &quot;&quot; and L.match(m.header, str) then</text>
<text text-anchor="middle" x="3397.5" y="-349.9004" font-family="Inconsolata" font-size="14.00" fill="#000000"> &#160;&#160;&#160;&#160;&#160;&#160;&#160;local trimmed = str:sub(L.match(m.WS, str))</text>
<text text-anchor="middle" x="3397.5" y="-334.5003" font-family="Inconsolata" font-size="14.00" fill="#000000"> &#160;&#160;&#160;&#160;&#160;&#160;&#160;local level = L.match(m.tars, trimmed) &#45; 1</text>
<text text-anchor="middle" x="3397.5" y="-319.1003" font-family="Inconsolata" font-size="14.00" fill="#000000"> &#160;&#160;&#160;&#160;&#160;&#160;&#160;local bareline = trimmed:sub(L.match(m.tars * m.WS, trimmed))</text>
<text text-anchor="middle" x="3397.5" y="-303.7003" font-family="Inconsolata" font-size="14.00" fill="#000000"> &#160;&#160;&#160;&#160;&#160;&#160;&#160;return true, level, bareline</text>
<text text-anchor="middle" x="3397.5" y="-288.3002" font-family="Inconsolata" font-size="14.00" fill="#000000"> &#160;&#160;&#160;else </text>
<text text-anchor="middle" x="3397.5" y="-272.9002" font-family="Inconsolata" font-size="14.00" fill="#000000"> &#160;&#160;&#160;&#160;&#160;&#160;&#160;return false, 0, &quot;&quot;</text>
<text text-anchor="middle" x="3397.5" y="-257.5002" font-family="Inconsolata" font-size="14.00" fill="#000000"> &#160;&#160;&#160;end</text>
<text text-anchor="middle" x="3397.5" y="-242.1001" font-family="Inconsolata" font-size="14.00" fill="#000000">end</text>
</g>
<!-- codeblock_35&#45;&gt;leaf_45 -->
<g id="edge45" class="edge">
<title>codeblock_35&#45;&gt;leaf_45</title>
<path fill="none" stroke="#000000" stroke-dasharray="5,2" d="M3397.5,-643.1645C3397.5,-599.7775 3397.5,-487.5733 3397.5,-406.4113"/>
<polygon fill="#000000" stroke="#000000" points="3401.0001,-406.1756 3397.5,-396.1756 3394.0001,-406.1757 3401.0001,-406.1756"/>
</g>
<!-- raw_46 -->
<g id="node47" class="node">
<title>raw_46</title>
<ellipse fill="none" stroke="#000000" cx="3692.5" cy="-314.9003" rx="27" ry="18"/>
<text text-anchor="middle" x="3692.5" y="-310.7003" font-family="Helvetica,sans-Serif" font-size="14.00" fill="#000000">raw</text>
</g>
<!-- prose_36&#45;&gt;raw_46 -->
<g id="edge46" class="edge">
<title>prose_36&#45;&gt;raw_46</title>
<path fill="none" stroke="#000000" stroke-dasharray="5,2" d="M3612.8979,-643.1645C3626.6764,-586.3448 3669.0753,-411.4992 3685.7061,-342.9173"/>
<polygon fill="#000000" stroke="#000000" points="3689.1903,-343.4002 3688.1456,-332.857 3682.3875,-341.7505 3689.1903,-343.4002"/>
</g>
<!-- handleline_48 -->
<g id="node49" class="node">
<title>handleline_48</title>
<ellipse fill="none" stroke="#000000" cx="3787.5" cy="-314.9003" rx="50.3585" ry="18"/>
<text text-anchor="middle" x="3787.5" y="-310.7003" font-family="Helvetica,sans-Serif" font-size="14.00" fill="#000000">handleline</text>
</g>
<!-- structure_37&#45;&gt;handleline_48 -->
<g id="edge48" class="edge">
<title>structure_37&#45;&gt;handleline_48</title>
<path fill="none" stroke="#000000" stroke-dasharray="5,2" d="M3747.699,-643.1645C3754.5722,-586.4769 3775.6891,-412.3118 3784.0448,-343.3975"/>
<polygon fill="#000000" stroke="#000000" points="3787.5429,-343.6235 3785.2721,-333.2749 3780.5938,-342.7809 3787.5429,-343.6235"/>
</g>
<!-- handleline_51 -->
<g id="node52" class="node">
<title>handleline_51</title>
<ellipse fill="none" stroke="#000000" cx="3906.5" cy="-314.9003" rx="50.3585" ry="18"/>
<text text-anchor="middle" x="3906.5" y="-310.7003" font-family="Helvetica,sans-Serif" font-size="14.00" fill="#000000">handleline</text>
</g>
<!-- structure_38&#45;&gt;handleline_51 -->
<g id="edge51" class="edge">
<title>structure_38&#45;&gt;handleline_51</title>
<path fill="none" stroke="#000000" stroke-dasharray="5,2" d="M3880.9136,-643.1645C3885.3321,-586.4769 3898.9073,-412.3118 3904.2788,-343.3975"/>
<polygon fill="#000000" stroke="#000000" points="3907.78,-343.5167 3905.0678,-333.2749 3900.8012,-342.9727 3907.78,-343.5167"/>
</g>
<!-- leaf_54 -->
<g id="node55" class="node">
<title>leaf_54</title>
<polygon fill="none" stroke="#c0c0c0" points="4390,-466.4007 3975,-466.4007 3975,-163.3998 4390,-163.3998 4390,-466.4007"/>
<text text-anchor="middle" x="4182.5" y="-451.2005" font-family="Inconsolata" font-size="14.00" fill="#000000">local function new(Header, line, level, first, last, str)</text>
<text text-anchor="middle" x="4182.5" y="-435.8005" font-family="Inconsolata" font-size="14.00" fill="#000000"> &#160;&#160;&#160;local header = setmetatable({}, H)</text>
<text text-anchor="middle" x="4182.5" y="-420.4004" font-family="Inconsolata" font-size="14.00" fill="#000000"> &#160;&#160;&#160;header.line = line</text>
<text text-anchor="middle" x="4182.5" y="-405.0004" font-family="Inconsolata" font-size="14.00" fill="#000000"> &#160;&#160;&#160;header.level = level</text>
<text text-anchor="middle" x="4182.5" y="-389.6004" font-family="Inconsolata" font-size="14.00" fill="#000000"> &#160;&#160;&#160;header.first = first</text>
<text text-anchor="middle" x="4182.5" y="-374.2003" font-family="Inconsolata" font-size="14.00" fill="#000000"> &#160;&#160;&#160;header.last = last</text>
<text text-anchor="middle" x="4182.5" y="-358.8003" font-family="Inconsolata" font-size="14.00" fill="#000000"> &#160;&#160;&#160;header.str = str</text>
<text text-anchor="middle" x="4182.5" y="-343.4003" font-family="Inconsolata" font-size="14.00" fill="#000000"> &#160;&#160;&#160;return header</text>
<text text-anchor="middle" x="4182.5" y="-328.0002" font-family="Inconsolata" font-size="14.00" fill="#000000">end</text>
<text text-anchor="middle" x="4182.5" y="-296.6002" font-family="Inconsolata" font-size="14.00" fill="#000000">function H.howdy() </text>
<text text-anchor="middle" x="4182.5" y="-281.2002" font-family="Inconsolata" font-size="14.00" fill="#000000"> &#160;&#160;&#160;io.write(&quot;Why hello!\n&quot;)</text>
<text text-anchor="middle" x="4182.5" y="-265.8002" font-family="Inconsolata" font-size="14.00" fill="#000000">end</text>
<text text-anchor="middle" x="4182.5" y="-218.4001" font-family="Inconsolata" font-size="14.00" fill="#000000">h.__call = new</text>
<text text-anchor="middle" x="4182.5" y="-203.0001" font-family="Inconsolata" font-size="14.00" fill="#000000">h.__index = h</text>
<text text-anchor="middle" x="4182.5" y="-171.6001" font-family="Inconsolata" font-size="14.00" fill="#000000">return setmetatable({}, h)</text>
</g>
<!-- codeblock_39&#45;&gt;leaf_54 -->
<g id="edge54" class="edge">
<title>codeblock_39&#45;&gt;leaf_54</title>
<path fill="none" stroke="#000000" stroke-dasharray="5,2" d="M4106.6885,-643.1645C4114.0274,-611.387 4129.892,-542.6932 4145.2212,-476.3178"/>
<polygon fill="#000000" stroke="#000000" points="4148.6378,-477.0773 4147.4779,-466.5462 4141.8173,-475.5021 4148.6378,-477.0773"/>
</g>
<!-- leaf_42 -->
<g id="node43" class="node">
<title>leaf_42</title>
<polygon fill="none" stroke="#c0c0c0" points="3031,-127.6015 2854,-127.6015 2854,-71.7985 3031,-71.7985 3031,-127.6015"/>
<text text-anchor="middle" x="2942.5" y="-80.2" font-family="Inconsolata" font-size="14.00" fill="#000000"> Matches a header line.</text>
</g>
<!-- raw_41&#45;&gt;leaf_42 -->
<g id="edge42" class="edge">
<title>raw_41&#45;&gt;leaf_42</title>
<path fill="none" stroke="#000000" stroke-dasharray="5,2" d="M3028.6443,-296.7749C3025.0906,-267.4469 3015.617,-208.3417 2993.5,-163.4 2988.7596,-153.7675 2982.3566,-144.2559 2975.6909,-135.6378"/>
<polygon fill="#000000" stroke="#000000" points="2978.2685,-133.2587 2969.2651,-127.6739 2972.8207,-137.6543 2978.2685,-133.2587"/>
</g>
<!-- leaf_44 -->
<g id="node45" class="node">
<title>leaf_44</title>
<polygon fill="none" stroke="#c0c0c0" points="3331.5,-127.0004 3049.5,-127.0004 3049.5,-72.3996 3331.5,-72.3996 3331.5,-127.0004"/>
<text text-anchor="middle" x="3190.5" y="-95.9" font-family="Inconsolata" font-size="14.00" fill="#000000"> &#45; str : &#160;The string to match against.</text>
<text text-anchor="middle" x="3190.5" y="-80.5" font-family="Inconsolata" font-size="14.00" fill="#000000"> </text>
</g>
<!-- raw_43&#45;&gt;leaf_44 -->
<g id="edge44" class="edge">
<title>raw_43&#45;&gt;leaf_44</title>
<path fill="none" stroke="#000000" stroke-dasharray="5,2" d="M3104.1585,-296.751C3107.4096,-267.3895 3116.3432,-208.2382 3138.5,-163.4 3143.3906,-153.5031 3150.0712,-143.773 3157.0143,-135.0121"/>
<polygon fill="#000000" stroke="#000000" points="3159.7471,-137.1994 3163.4205,-127.2617 3154.3517,-132.7397 3159.7471,-137.1994"/>
</g>
<!-- leaf_47 -->
<g id="node48" class="node">
<title>leaf_47</title>
<polygon fill="none" stroke="#c0c0c0" points="3747,-119.6021 3570,-119.6021 3570,-79.7979 3747,-79.7979 3747,-119.6021"/>
<text text-anchor="middle" x="3658.5" y="-88.2" font-family="Inconsolata" font-size="14.00" fill="#000000"> Creates a Header Node.</text>
</g>
<!-- raw_46&#45;&gt;leaf_47 -->
<g id="edge47" class="edge">
<title>raw_46&#45;&gt;leaf_47</title>
<path fill="none" stroke="#000000" stroke-dasharray="5,2" d="M3689.6597,-296.9226C3683.8233,-259.982 3670.4288,-175.2024 3663.2498,-129.7635"/>
<polygon fill="#000000" stroke="#000000" points="3666.6679,-128.9699 3661.6502,-119.6387 3659.7537,-130.0624 3666.6679,-128.9699"/>
</g>
<!-- handle_49 -->
<g id="node50" class="node">
<title>handle_49</title>
<ellipse fill="none" stroke="#000000" cx="3801.5" cy="-99.7" rx="36.827" ry="18"/>
<text text-anchor="middle" x="3801.5" y="-95.5" font-family="Helvetica,sans-Serif" font-size="14.00" fill="#000000">handle</text>
</g>
<!-- handleline_48&#45;&gt;handle_49 -->
<g id="edge49" class="edge">
<title>handleline_48&#45;&gt;handle_49</title>
<path fill="none" stroke="#000000" stroke-dasharray="5,2" d="M3788.6936,-296.5524C3791.1433,-258.8981 3796.7524,-172.6773 3799.6666,-127.8828"/>
<polygon fill="#000000" stroke="#000000" points="3803.1725,-127.904 3800.3291,-117.6979 3796.1872,-127.4495 3803.1725,-127.904"/>
</g>
<!-- leaf_50 -->
<g id="node51" class="node">
<title>leaf_50</title>
<polygon fill="none" stroke="#c0c0c0" points="3828.5,-36 3774.5,-36 3774.5,0 3828.5,0 3828.5,-36"/>
</g>
<!-- handle_49&#45;&gt;leaf_50 -->
<g id="edge50" class="edge">
<title>handle_49&#45;&gt;leaf_50</title>
<path fill="none" stroke="#000000" stroke-dasharray="5,2" d="M3801.5,-81.5681C3801.5,-71.2023 3801.5,-57.9747 3801.5,-46.2729"/>
<polygon fill="#000000" stroke="#000000" points="3805.0001,-46.0812 3801.5,-36.0812 3798.0001,-46.0812 3805.0001,-46.0812"/>
</g>
<!-- handle_52 -->
<g id="node53" class="node">
<title>handle_52</title>
<ellipse fill="none" stroke="#000000" cx="3906.5" cy="-99.7" rx="36.827" ry="18"/>
<text text-anchor="middle" x="3906.5" y="-95.5" font-family="Helvetica,sans-Serif" font-size="14.00" fill="#000000">handle</text>
</g>
<!-- handleline_51&#45;&gt;handle_52 -->
<g id="edge52" class="edge">
<title>handleline_51&#45;&gt;handle_52</title>
<path fill="none" stroke="#000000" stroke-dasharray="5,2" d="M3906.5,-296.5524C3906.5,-258.992 3906.5,-173.107 3906.5,-128.2187"/>
<polygon fill="#000000" stroke="#000000" points="3910.0001,-128.0014 3906.5,-118.0014 3903.0001,-128.0015 3910.0001,-128.0014"/>
</g>
<!-- leaf_53 -->
<g id="node54" class="node">
<title>leaf_53</title>
<polygon fill="none" stroke="#c0c0c0" points="3933.5,-36 3879.5,-36 3879.5,0 3933.5,0 3933.5,-36"/>
</g>
<!-- handle_52&#45;&gt;leaf_53 -->
<g id="edge53" class="edge">
<title>handle_52&#45;&gt;leaf_53</title>
<path fill="none" stroke="#000000" stroke-dasharray="5,2" d="M3906.5,-81.5681C3906.5,-71.2023 3906.5,-57.9747 3906.5,-46.2729"/>
<polygon fill="#000000" stroke="#000000" points="3910.0001,-46.0812 3906.5,-36.0812 3903.0001,-46.0812 3910.0001,-46.0812"/>
</g>
</g>
</svg>