<?xml version="1.0" encoding="UTF-8" standalone="no"?>
<!DOCTYPE svg PUBLIC "-//W3C//DTD SVG 1.1//EN"
 "http://www.w3.org/Graphics/SVG/1.1/DTD/svg11.dtd">
<!-- Generated by graphviz version 2.40.1 (20161225.0304)
 -->
<!-- Title: hierarchy Pages: 1 -->
<svg width="4864pt" height="1223pt"
 viewBox="0.00 0.00 4864.00 1223.40" xmlns="http://www.w3.org/2000/svg" xmlns:xlink="http://www.w3.org/1999/xlink">
<g id="graph0" class="graph" transform="scale(1 1) rotate(0) translate(4 1219.4013)">
<title>hierarchy</title>
<polygon fill="#ffffff" stroke="transparent" points="-4,4 -4,-1219.4013 4860,-1219.4013 4860,4 -4,4"/>
<!-- doc_0 -->
<g id="node1" class="node">
<title>doc_0</title>
<ellipse fill="none" stroke="#000000" cx="1129" cy="-1197.4013" rx="46.1547" ry="18"/>
<text text-anchor="middle" x="1129" y="-1193.2013" font-family="Helvetica,sans-Serif" font-size="14.00" fill="#000000">doc &#45; 118</text>
</g>
<!-- section_1 -->
<g id="node2" class="node">
<title>section_1</title>
<ellipse fill="none" stroke="#000000" cx="1129" cy="-1125.4013" rx="60.9826" ry="18"/>
<text text-anchor="middle" x="1129" y="-1121.2013" font-family="Helvetica,sans-Serif" font-size="14.00" fill="#000000">section: 1&#45;48</text>
</g>
<!-- doc_0&#45;&gt;section_1 -->
<g id="edge1" class="edge">
<title>doc_0&#45;&gt;section_1</title>
<path fill="none" stroke="#000000" stroke-dasharray="5,2" d="M1129,-1179.2326C1129,-1171.5322 1129,-1162.3756 1129,-1153.8179"/>
<polygon fill="#000000" stroke="#000000" points="1132.5001,-1153.8145 1129,-1143.8145 1125.5001,-1153.8146 1132.5001,-1153.8145"/>
</g>
<!-- header_2 -->
<g id="node3" class="node">
<title>header_2</title>
<ellipse fill="none" stroke="#000000" cx="110" cy="-1053.4013" rx="92.89" ry="18"/>
<text text-anchor="middle" x="110" y="-1049.2013" font-family="Helvetica,sans-Serif" font-size="14.00" fill="#000000">1 : Header metatable</text>
</g>
<!-- section_1&#45;&gt;header_2 -->
<g id="edge2" class="edge">
<title>section_1&#45;&gt;header_2</title>
<path fill="none" stroke="#000000" stroke-dasharray="5,2" d="M1069.8098,-1121.219C900.9699,-1109.2892 415.794,-1075.0079 207.2184,-1060.2705"/>
<polygon fill="#000000" stroke="#000000" points="207.4177,-1056.7759 197.1959,-1059.5623 206.9243,-1063.7585 207.4177,-1056.7759"/>
</g>
<!-- block_3 -->
<g id="node4" class="node">
<title>block_3</title>
<ellipse fill="none" stroke="#000000" cx="598" cy="-1053.4013" rx="45.9804" ry="18"/>
<text text-anchor="middle" x="598" y="-1049.2013" font-family="Helvetica,sans-Serif" font-size="14.00" fill="#000000">block 1&#45;5</text>
</g>
<!-- section_1&#45;&gt;block_3 -->
<g id="edge3" class="edge">
<title>section_1&#45;&gt;block_3</title>
<path fill="none" stroke="#000000" stroke-dasharray="5,2" d="M1073.6764,-1117.8998C971.2093,-1104.0059 753.129,-1074.4357 651.8115,-1060.6977"/>
<polygon fill="#000000" stroke="#000000" points="652.1749,-1057.2151 641.7952,-1059.3396 651.2343,-1064.1516 652.1749,-1057.2151"/>
</g>
<!-- codeblock_4 -->
<g id="node5" class="node">
<title>codeblock_4</title>
<ellipse fill="none" stroke="#000000" cx="900" cy="-1053.4013" rx="72.5844" ry="18"/>
<text text-anchor="middle" x="900" y="-1049.2013" font-family="Helvetica,sans-Serif" font-size="14.00" fill="#000000">code block 6&#45;12</text>
</g>
<!-- section_1&#45;&gt;codeblock_4 -->
<g id="edge4" class="edge">
<title>section_1&#45;&gt;codeblock_4</title>
<path fill="none" stroke="#000000" stroke-dasharray="5,2" d="M1087.2641,-1112.2791C1050.08,-1100.588 995.414,-1083.4004 954.7337,-1070.6101"/>
<polygon fill="#000000" stroke="#000000" points="955.5635,-1067.2022 944.9741,-1067.5416 953.4639,-1073.8799 955.5635,-1067.2022"/>
</g>
<!-- block_5 -->
<g id="node6" class="node">
<title>block_5</title>
<ellipse fill="none" stroke="#000000" cx="1129" cy="-1053.4013" rx="55.6542" ry="18"/>
<text text-anchor="middle" x="1129" y="-1049.2013" font-family="Helvetica,sans-Serif" font-size="14.00" fill="#000000">block 15&#45;16</text>
</g>
<!-- section_1&#45;&gt;block_5 -->
<g id="edge5" class="edge">
<title>section_1&#45;&gt;block_5</title>
<path fill="none" stroke="#000000" stroke-dasharray="5,2" d="M1129,-1107.2326C1129,-1099.5322 1129,-1090.3756 1129,-1081.8179"/>
<polygon fill="#000000" stroke="#000000" points="1132.5001,-1081.8145 1129,-1071.8145 1125.5001,-1081.8146 1132.5001,-1081.8145"/>
</g>
<!-- block_6 -->
<g id="node7" class="node">
<title>block_6</title>
<ellipse fill="none" stroke="#000000" cx="1525" cy="-1053.4013" rx="55.6542" ry="18"/>
<text text-anchor="middle" x="1525" y="-1049.2013" font-family="Helvetica,sans-Serif" font-size="14.00" fill="#000000">block 17&#45;48</text>
</g>
<!-- section_1&#45;&gt;block_6 -->
<g id="edge6" class="edge">
<title>section_1&#45;&gt;block_6</title>
<path fill="none" stroke="#000000" stroke-dasharray="5,2" d="M1181.1773,-1115.9145C1254.8428,-1102.5208 1388.937,-1078.14 1466.093,-1064.1116"/>
<polygon fill="#000000" stroke="#000000" points="1466.9179,-1067.5191 1476.1305,-1062.2866 1465.6657,-1060.632 1466.9179,-1067.5191"/>
</g>
<!-- section_7 -->
<g id="node8" class="node">
<title>section_7</title>
<ellipse fill="none" stroke="#000000" cx="2343" cy="-1053.4013" rx="65.8187" ry="18"/>
<text text-anchor="middle" x="2343" y="-1049.2013" font-family="Helvetica,sans-Serif" font-size="14.00" fill="#000000">section: 25&#45;48</text>
</g>
<!-- section_1&#45;&gt;section_7 -->
<g id="edge7" class="edge">
<title>section_1&#45;&gt;section_7</title>
<path fill="none" stroke="#000000" stroke-dasharray="5,2" d="M1188.7884,-1121.8553C1390.5612,-1109.8886 2046.1353,-1071.0077 2268.4642,-1057.8219"/>
<polygon fill="#000000" stroke="#000000" points="2268.9451,-1061.2996 2278.7203,-1057.2136 2268.5306,-1054.3119 2268.9451,-1061.2996"/>
</g>
<!-- section_8 -->
<g id="node9" class="node">
<title>section_8</title>
<ellipse fill="none" stroke="#000000" cx="2983" cy="-1053.4013" rx="65.8187" ry="18"/>
<text text-anchor="middle" x="2983" y="-1049.2013" font-family="Helvetica,sans-Serif" font-size="14.00" fill="#000000">section: 49&#45;55</text>
</g>
<!-- section_1&#45;&gt;section_8 -->
<g id="edge8" class="edge">
<title>section_1&#45;&gt;section_8</title>
<path fill="none" stroke="#000000" stroke-dasharray="5,2" d="M1189.3696,-1123.0568C1464.8803,-1112.3574 2602.5456,-1068.1762 2907.5,-1056.3333"/>
<polygon fill="#000000" stroke="#000000" points="2907.7096,-1059.8279 2917.5662,-1055.9424 2907.4379,-1052.8332 2907.7096,-1059.8279"/>
</g>
<!-- leaf_9 -->
<g id="node10" class="node">
<title>leaf_9</title>
<polygon fill="none" stroke="#c0c0c0" points="54,-959.2012 0,-959.2012 0,-923.2012 54,-923.2012 54,-959.2012"/>
</g>
<!-- header_2&#45;&gt;leaf_9 -->
<g id="edge9" class="edge">
<title>header_2&#45;&gt;leaf_9</title>
<path fill="none" stroke="#000000" stroke-dasharray="5,2" d="M93.1364,-1035.5214C83.821,-1025.2865 72.2902,-1012.0081 63,-999.4013 55.715,-989.5155 48.4441,-978.1251 42.3636,-968.0566"/>
<polygon fill="#000000" stroke="#000000" points="45.2595,-966.0781 37.1478,-959.2627 39.2388,-969.6491 45.2595,-966.0781"/>
</g>
<!-- leaf_10 -->
<g id="node11" class="node">
<title>leaf_10</title>
<polygon fill="none" stroke="#c0c0c0" points="529.5,-968.5016 72.5,-968.5016 72.5,-913.9008 529.5,-913.9008 529.5,-968.5016"/>
<text text-anchor="middle" x="301" y="-937.4012" font-family="Inconsolata" font-size="14.00" fill="#000000"> A specialized type of Node, used for first&#45;pass ownership and </text>
<text text-anchor="middle" x="301" y="-922.0012" font-family="Inconsolata" font-size="14.00" fill="#000000"> all subsequent operations. </text>
</g>
<!-- block_3&#45;&gt;leaf_10 -->
<g id="edge10" class="edge">
<title>block_3&#45;&gt;leaf_10</title>
<path fill="none" stroke="#000000" stroke-dasharray="5,2" d="M564.7948,-1040.8571C521.1153,-1024.3559 442.8785,-994.7998 382.9119,-972.1457"/>
<polygon fill="#000000" stroke="#000000" points="384.0442,-968.8321 373.4525,-968.5722 381.5703,-975.3804 384.0442,-968.8321"/>
</g>
<!-- leaf_11 -->
<g id="node12" class="node">
<title>leaf_11</title>
<polygon fill="none" stroke="#c0c0c0" points="802,-984.4015 548,-984.4015 548,-898.0009 802,-898.0009 802,-984.4015"/>
<text text-anchor="middle" x="675" y="-969.1012" font-family="Inconsolata" font-size="14.00" fill="#000000">local L = require &quot;lpeg&quot;</text>
<text text-anchor="middle" x="675" y="-937.7012" font-family="Inconsolata" font-size="14.00" fill="#000000">local Node = require &quot;peg/node&quot;</text>
<text text-anchor="middle" x="675" y="-906.3012" font-family="Inconsolata" font-size="14.00" fill="#000000">local m = require &quot;grym/morphemes&quot;</text>
</g>
<!-- codeblock_4&#45;&gt;leaf_11 -->
<g id="edge11" class="edge">
<title>codeblock_4&#45;&gt;leaf_11</title>
<path fill="none" stroke="#000000" stroke-dasharray="5,2" d="M867.2831,-1037.0864C841.8856,-1024.4215 805.3112,-1006.1831 770.8646,-989.0057"/>
<polygon fill="#000000" stroke="#000000" points="772.2014,-985.7613 761.6904,-984.4308 769.0775,-992.0256 772.2014,-985.7613"/>
</g>
<!-- leaf_12 -->
<g id="node13" class="node">
<title>leaf_12</title>
<polygon fill="none" stroke="#c0c0c0" points="1438,-959.2012 820,-959.2012 820,-923.2012 1438,-923.2012 1438,-959.2012"/>
<text text-anchor="middle" x="1129" y="-937.7012" font-family="Inconsolata" font-size="14.00" fill="#000000"> A header contains a header line, that is, one which begins with `WS^0 * &#39;*&#39;^1 * &#39; &#39;`.</text>
</g>
<!-- block_5&#45;&gt;leaf_12 -->
<g id="edge12" class="edge">
<title>block_5&#45;&gt;leaf_12</title>
<path fill="none" stroke="#000000" stroke-dasharray="5,2" d="M1129,-1035.3744C1129,-1017.6501 1129,-990.3255 1129,-969.666"/>
<polygon fill="#000000" stroke="#000000" points="1132.5001,-969.556 1129,-959.5561 1125.5001,-969.5561 1132.5001,-969.556"/>
</g>
<!-- leaf_13 -->
<g id="node14" class="node">
<title>leaf_13</title>
<polygon fill="none" stroke="#c0c0c0" points="2123.5,-999.6021 1456.5,-999.6021 1456.5,-882.8003 2123.5,-882.8003 2123.5,-999.6021"/>
<text text-anchor="middle" x="1790" y="-984.2013" font-family="Inconsolata" font-size="14.00" fill="#000000"> In addition to the standard Node fields, a header has:</text>
<text text-anchor="middle" x="1790" y="-968.8012" font-family="Inconsolata" font-size="14.00" fill="#000000"> </text>
<text text-anchor="middle" x="1790" y="-953.4012" font-family="Inconsolata" font-size="14.00" fill="#000000"> &#160;&#45; `parent()`, a function that returns its parent, which is either a **block** or a **doc**.</text>
<text text-anchor="middle" x="1790" y="-938.0012" font-family="Inconsolata" font-size="14.00" fill="#000000"> &#160;&#45; `dent`, the level of indentation of the header. Must be non&#45;negative. </text>
<text text-anchor="middle" x="1790" y="-922.6012" font-family="Inconsolata" font-size="14.00" fill="#000000"> &#160;&#45; `level`, the level of ownership (number of tars).</text>
<text text-anchor="middle" x="1790" y="-907.2011" font-family="Inconsolata" font-size="14.00" fill="#000000"> &#160;&#45; `line`, the rest of the line (stripped of lead whitespace and tars)</text>
</g>
<!-- block_6&#45;&gt;leaf_13 -->
<g id="edge13" class="edge">
<title>block_6&#45;&gt;leaf_13</title>
<path fill="none" stroke="#000000" stroke-dasharray="5,2" d="M1558.8316,-1039.0771C1580.929,-1029.7211 1611.4731,-1016.7889 1643.1244,-1003.3878"/>
<polygon fill="#000000" stroke="#000000" points="1644.6789,-1006.5305 1652.5229,-999.4085 1641.9496,-1000.0845 1644.6789,-1006.5305"/>
</g>
<!-- header_14 -->
<g id="node15" class="node">
<title>header_14</title>
<ellipse fill="none" stroke="#000000" cx="2251" cy="-941.2012" rx="109.7876" ry="18"/>
<text text-anchor="middle" x="2251" y="-937.0012" font-family="Helvetica,sans-Serif" font-size="14.00" fill="#000000">2 : Metatable for Headers</text>
</g>
<!-- section_7&#45;&gt;header_14 -->
<g id="edge14" class="edge">
<title>section_7&#45;&gt;header_14</title>
<path fill="none" stroke="#000000" stroke-dasharray="5,2" d="M2328.4223,-1035.6228C2313.3038,-1017.1848 2289.5108,-988.1677 2272.2892,-967.1648"/>
<polygon fill="#000000" stroke="#000000" points="2274.8613,-964.7816 2265.8141,-959.268 2269.4483,-969.2201 2274.8613,-964.7816"/>
</g>
<!-- block_15 -->
<g id="node16" class="node">
<title>block_15</title>
<ellipse fill="none" stroke="#000000" cx="2435" cy="-941.2012" rx="55.6542" ry="18"/>
<text text-anchor="middle" x="2435" y="-937.0012" font-family="Helvetica,sans-Serif" font-size="14.00" fill="#000000">block 25&#45;26</text>
</g>
<!-- section_7&#45;&gt;block_15 -->
<g id="edge15" class="edge">
<title>section_7&#45;&gt;block_15</title>
<path fill="none" stroke="#000000" stroke-dasharray="5,2" d="M2357.5777,-1035.6228C2372.7857,-1017.0757 2396.7711,-987.8239 2414.0158,-966.7928"/>
<polygon fill="#000000" stroke="#000000" points="2416.8564,-968.8485 2420.4905,-958.8964 2411.4434,-964.4101 2416.8564,-968.8485"/>
</g>
<!-- codeblock_16 -->
<g id="node17" class="node">
<title>codeblock_16</title>
<ellipse fill="none" stroke="#000000" cx="2586" cy="-941.2012" rx="77.4211" ry="18"/>
<text text-anchor="middle" x="2586" y="-937.0012" font-family="Helvetica,sans-Serif" font-size="14.00" fill="#000000">code block 27&#45;47</text>
</g>
<!-- section_7&#45;&gt;codeblock_16 -->
<g id="edge16" class="edge">
<title>section_7&#45;&gt;codeblock_16</title>
<path fill="none" stroke="#000000" stroke-dasharray="5,2" d="M2389.9839,-1040.7828C2421.8808,-1031.371 2464.5415,-1017.1068 2500,-999.4013 2519.4609,-989.6839 2539.6812,-976.198 2555.622,-964.6545"/>
<polygon fill="#000000" stroke="#000000" points="2558.0311,-967.227 2564.0058,-958.4775 2553.8789,-961.5914 2558.0311,-967.227"/>
</g>
<!-- header_20 -->
<g id="node21" class="node">
<title>header_20</title>
<ellipse fill="none" stroke="#000000" cx="2810" cy="-941.2012" rx="99.6298" ry="18"/>
<text text-anchor="middle" x="2810" y="-937.0012" font-family="Helvetica,sans-Serif" font-size="14.00" fill="#000000">2 : Constructor/module</text>
</g>
<!-- section_8&#45;&gt;header_20 -->
<g id="edge20" class="edge">
<title>section_8&#45;&gt;header_20</title>
<path fill="none" stroke="#000000" stroke-dasharray="5,2" d="M2957.1002,-1036.6038C2927.4211,-1017.3553 2878.6143,-985.7014 2845.4298,-964.1794"/>
<polygon fill="#000000" stroke="#000000" points="2847.2271,-961.1734 2836.9326,-958.6685 2843.4181,-967.0464 2847.2271,-961.1734"/>
</g>
<!-- block_21 -->
<g id="node22" class="node">
<title>block_21</title>
<ellipse fill="none" stroke="#000000" cx="2983" cy="-941.2012" rx="55.6542" ry="18"/>
<text text-anchor="middle" x="2983" y="-937.0012" font-family="Helvetica,sans-Serif" font-size="14.00" fill="#000000">block 49&#45;50</text>
</g>
<!-- section_8&#45;&gt;block_21 -->
<g id="edge21" class="edge">
<title>section_8&#45;&gt;block_21</title>
<path fill="none" stroke="#000000" stroke-dasharray="5,2" d="M2983,-1035.3744C2983,-1017.6501 2983,-990.3255 2983,-969.666"/>
<polygon fill="#000000" stroke="#000000" points="2986.5001,-969.556 2983,-959.5561 2979.5001,-969.5561 2986.5001,-969.556"/>
</g>
<!-- codeblock_22 -->
<g id="node23" class="node">
<title>codeblock_22</title>
<ellipse fill="none" stroke="#000000" cx="3134" cy="-941.2012" rx="77.4211" ry="18"/>
<text text-anchor="middle" x="3134" y="-937.0012" font-family="Helvetica,sans-Serif" font-size="14.00" fill="#000000">code block 51&#45;53</text>
</g>
<!-- section_8&#45;&gt;codeblock_22 -->
<g id="edge22" class="edge">
<title>section_8&#45;&gt;codeblock_22</title>
<path fill="none" stroke="#000000" stroke-dasharray="5,2" d="M3005.9336,-1036.3605C3031.765,-1017.1666 3073.8939,-985.8628 3102.7286,-964.4373"/>
<polygon fill="#000000" stroke="#000000" points="3104.9113,-967.176 3110.8505,-958.4023 3100.7363,-961.5572 3104.9113,-967.176"/>
</g>
<!-- section_23 -->
<g id="node24" class="node">
<title>section_23</title>
<ellipse fill="none" stroke="#000000" cx="3716" cy="-941.2012" rx="69.851" ry="18"/>
<text text-anchor="middle" x="3716" y="-937.0012" font-family="Helvetica,sans-Serif" font-size="14.00" fill="#000000">section: 56&#45;118</text>
</g>
<!-- section_8&#45;&gt;section_23 -->
<g id="edge23" class="edge">
<title>section_8&#45;&gt;section_23</title>
<path fill="none" stroke="#000000" stroke-dasharray="5,2" d="M3040.5173,-1044.5971C3173.3404,-1024.2659 3501.074,-974.0998 3645.6005,-951.9772"/>
<polygon fill="#000000" stroke="#000000" points="3646.3293,-955.4065 3655.6846,-950.4337 3645.2701,-948.4871 3646.3293,-955.4065"/>
</g>
<!-- leaf_17 -->
<g id="node18" class="node">
<title>leaf_17</title>
<polygon fill="none" stroke="#c0c0c0" points="2278,-713.8008 2224,-713.8008 2224,-677.8008 2278,-677.8008 2278,-713.8008"/>
</g>
<!-- header_14&#45;&gt;leaf_17 -->
<g id="edge17" class="edge">
<title>header_14&#45;&gt;leaf_17</title>
<path fill="none" stroke="#000000" stroke-dasharray="5,2" d="M2251,-923.1563C2251,-880.8766 2251,-775.141 2251,-724.1627"/>
<polygon fill="#000000" stroke="#000000" points="2254.5001,-723.8721 2251,-713.8722 2247.5001,-723.8722 2254.5001,-723.8721"/>
</g>
<!-- leaf_18 -->
<g id="node19" class="node">
<title>leaf_18</title>
<polygon fill="none" stroke="#c0c0c0" points="2360,-713.8008 2306,-713.8008 2306,-677.8008 2360,-677.8008 2360,-713.8008"/>
</g>
<!-- block_15&#45;&gt;leaf_18 -->
<g id="edge18" class="edge">
<title>block_15&#45;&gt;leaf_18</title>
<path fill="none" stroke="#000000" stroke-dasharray="5,2" d="M2419.6435,-923.6897C2404.6058,-905.654 2382.0993,-876.1424 2369,-847.0011 2350.7906,-806.4919 2341.1149,-755.5702 2336.5268,-724.371"/>
<polygon fill="#000000" stroke="#000000" points="2339.9573,-723.6285 2335.1105,-714.2073 2333.0243,-724.5947 2339.9573,-723.6285"/>
</g>
<!-- leaf_19 -->
<g id="node20" class="node">
<title>leaf_19</title>
<polygon fill="none" stroke="#c0c0c0" points="2793.5,-847.2016 2378.5,-847.2016 2378.5,-544.4001 2793.5,-544.4001 2793.5,-847.2016"/>
<text text-anchor="middle" x="2586" y="-831.8011" font-family="Inconsolata" font-size="14.00" fill="#000000">local H = setmetatable({}, { __index = Node })</text>
<text text-anchor="middle" x="2586" y="-816.4011" font-family="Inconsolata" font-size="14.00" fill="#000000">H.__index = H</text>
<text text-anchor="middle" x="2586" y="-785.001" font-family="Inconsolata" font-size="14.00" fill="#000000">H.__tostring = function(header) </text>
<text text-anchor="middle" x="2586" y="-769.601" font-family="Inconsolata" font-size="14.00" fill="#000000"> &#160;&#160;&#160;return &quot;Lvl &quot; .. tostring(header.level) .. &quot; ^: &quot; </text>
<text text-anchor="middle" x="2586" y="-754.201" font-family="Inconsolata" font-size="14.00" fill="#000000"> &#160;&#160;&#160;&#160;&#160;&#160;&#160;&#160;&#160;&#160;.. tostring(header.line)</text>
<text text-anchor="middle" x="2586" y="-738.8009" font-family="Inconsolata" font-size="14.00" fill="#000000">end</text>
<text text-anchor="middle" x="2586" y="-707.4009" font-family="Inconsolata" font-size="14.00" fill="#000000">function H.dotLabel(header)</text>
<text text-anchor="middle" x="2586" y="-692.0009" font-family="Inconsolata" font-size="14.00" fill="#000000"> &#160;&#160;&#160;return tostring(header.level) .. &quot; : &quot; .. header.line</text>
<text text-anchor="middle" x="2586" y="-676.6008" font-family="Inconsolata" font-size="14.00" fill="#000000">end</text>
<text text-anchor="middle" x="2586" y="-645.2008" font-family="Inconsolata" font-size="14.00" fill="#000000">function H.toMarkdown(header)</text>
<text text-anchor="middle" x="2586" y="-629.8008" font-family="Inconsolata" font-size="14.00" fill="#000000"> &#160;&#160;&#160;local haxen = &quot;&quot;</text>
<text text-anchor="middle" x="2586" y="-614.4007" font-family="Inconsolata" font-size="14.00" fill="#000000"> &#160;&#160;&#160;if header.level &gt; 0 then</text>
<text text-anchor="middle" x="2586" y="-599.0007" font-family="Inconsolata" font-size="14.00" fill="#000000"> &#160;&#160;&#160;&#160;&#160;&#160;&#160;haxen = (&quot;#&quot;):rep(header.level)</text>
<text text-anchor="middle" x="2586" y="-583.6007" font-family="Inconsolata" font-size="14.00" fill="#000000"> &#160;&#160;&#160;end</text>
<text text-anchor="middle" x="2586" y="-568.2007" font-family="Inconsolata" font-size="14.00" fill="#000000"> &#160;&#160;&#160;return haxen .. &quot; &quot; .. header.line</text>
<text text-anchor="middle" x="2586" y="-552.8006" font-family="Inconsolata" font-size="14.00" fill="#000000">end</text>
</g>
<!-- codeblock_16&#45;&gt;leaf_19 -->
<g id="edge19" class="edge">
<title>codeblock_16&#45;&gt;leaf_19</title>
<path fill="none" stroke="#000000" stroke-dasharray="5,2" d="M2586,-923.1563C2586,-907.7469 2586,-883.9085 2586,-857.364"/>
<polygon fill="#000000" stroke="#000000" points="2589.5001,-857.07 2586,-847.07 2582.5001,-857.0701 2589.5001,-857.07"/>
</g>
<!-- leaf_24 -->
<g id="node25" class="node">
<title>leaf_24</title>
<polygon fill="none" stroke="#c0c0c0" points="2866,-713.8008 2812,-713.8008 2812,-677.8008 2866,-677.8008 2866,-713.8008"/>
</g>
<!-- header_20&#45;&gt;leaf_24 -->
<g id="edge24" class="edge">
<title>header_20&#45;&gt;leaf_24</title>
<path fill="none" stroke="#000000" stroke-dasharray="5,2" d="M2812.1324,-923.1563C2817.1393,-880.7879 2829.6765,-774.6974 2835.6862,-723.8428"/>
<polygon fill="#000000" stroke="#000000" points="2839.1666,-724.2138 2836.8644,-713.8722 2832.215,-723.3923 2839.1666,-724.2138"/>
</g>
<!-- leaf_25 -->
<g id="node26" class="node">
<title>leaf_25</title>
<polygon fill="none" stroke="#c0c0c0" points="3010,-713.8008 2956,-713.8008 2956,-677.8008 3010,-677.8008 3010,-713.8008"/>
</g>
<!-- block_21&#45;&gt;leaf_25 -->
<g id="edge25" class="edge">
<title>block_21&#45;&gt;leaf_25</title>
<path fill="none" stroke="#000000" stroke-dasharray="5,2" d="M2983,-923.1563C2983,-880.8766 2983,-775.141 2983,-724.1627"/>
<polygon fill="#000000" stroke="#000000" points="2986.5001,-723.8721 2983,-713.8722 2979.5001,-723.8722 2986.5001,-723.8721"/>
</g>
<!-- leaf_26 -->
<g id="node27" class="node">
<title>leaf_26</title>
<polygon fill="none" stroke="#c0c0c0" points="3156,-713.8008 3056,-713.8008 3056,-677.8008 3156,-677.8008 3156,-713.8008"/>
<text text-anchor="middle" x="3106" y="-692.3009" font-family="Inconsolata" font-size="14.00" fill="#000000">local h = {}</text>
</g>
<!-- codeblock_22&#45;&gt;leaf_26 -->
<g id="edge26" class="edge">
<title>codeblock_22&#45;&gt;leaf_26</title>
<path fill="none" stroke="#000000" stroke-dasharray="5,2" d="M3131.9411,-923.1563C3127.1069,-880.7879 3115.002,-774.6974 3109.1996,-723.8428"/>
<polygon fill="#000000" stroke="#000000" points="3112.6731,-723.4109 3108.0619,-713.8722 3105.7182,-724.2045 3112.6731,-723.4109"/>
</g>
<!-- header_27 -->
<g id="node28" class="node">
<title>header_27</title>
<ellipse fill="none" stroke="#000000" cx="3268" cy="-695.8008" rx="93.807" ry="18"/>
<text text-anchor="middle" x="3268" y="-691.6008" font-family="Helvetica,sans-Serif" font-size="14.00" fill="#000000">3 : Header:match(str)</text>
</g>
<!-- section_23&#45;&gt;header_27 -->
<g id="edge27" class="edge">
<title>section_23&#45;&gt;header_27</title>
<path fill="none" stroke="#000000" stroke-dasharray="5,2" d="M3648.2547,-936.7014C3573.8309,-928.7913 3453.7629,-906.9984 3370,-847.0011 3325.4839,-815.1153 3294.5661,-757.3136 3279.1882,-723.1585"/>
<polygon fill="#000000" stroke="#000000" points="3282.3024,-721.5441 3275.0904,-713.7828 3275.8883,-724.3475 3282.3024,-721.5441"/>
</g>
<!-- block_28 -->
<g id="node29" class="node">
<title>block_28</title>
<ellipse fill="none" stroke="#000000" cx="3435" cy="-695.8008" rx="55.6542" ry="18"/>
<text text-anchor="middle" x="3435" y="-691.6008" font-family="Helvetica,sans-Serif" font-size="14.00" fill="#000000">block 56&#45;59</text>
</g>
<!-- section_23&#45;&gt;block_28 -->
<g id="edge28" class="edge">
<title>section_23&#45;&gt;block_28</title>
<path fill="none" stroke="#000000" stroke-dasharray="5,2" d="M3662.0825,-929.6519C3614.0223,-916.8457 3544.5773,-891.8124 3500,-847.0011 3465.8155,-812.6371 3448.3938,-757.4218 3440.5298,-724.0796"/>
<polygon fill="#000000" stroke="#000000" points="3443.8924,-723.0775 3438.3032,-714.0769 3437.0597,-724.5985 3443.8924,-723.0775"/>
</g>
<!-- block_29 -->
<g id="node30" class="node">
<title>block_29</title>
<ellipse fill="none" stroke="#000000" cx="3565" cy="-695.8008" rx="55.6542" ry="18"/>
<text text-anchor="middle" x="3565" y="-691.6008" font-family="Helvetica,sans-Serif" font-size="14.00" fill="#000000">block 60&#45;61</text>
</g>
<!-- section_23&#45;&gt;block_29 -->
<g id="edge29" class="edge">
<title>section_23&#45;&gt;block_29</title>
<path fill="none" stroke="#000000" stroke-dasharray="5,2" d="M3696.5371,-923.6204C3677.6404,-905.7606 3649.0882,-876.5878 3630,-847.0011 3604.2537,-807.0943 3584.5394,-755.2704 3573.8776,-723.8263"/>
<polygon fill="#000000" stroke="#000000" points="3577.085,-722.3791 3570.6132,-713.9906 3570.4414,-724.5841 3577.085,-722.3791"/>
</g>
<!-- codeblock_30 -->
<g id="node31" class="node">
<title>codeblock_30</title>
<ellipse fill="none" stroke="#000000" cx="3716" cy="-695.8008" rx="77.4211" ry="18"/>
<text text-anchor="middle" x="3716" y="-691.6008" font-family="Helvetica,sans-Serif" font-size="14.00" fill="#000000">code block 68&#45;79</text>
</g>
<!-- section_23&#45;&gt;codeblock_30 -->
<g id="edge30" class="edge">
<title>section_23&#45;&gt;codeblock_30</title>
<path fill="none" stroke="#000000" stroke-dasharray="5,2" d="M3716,-923.1563C3716,-880.8766 3716,-775.141 3716,-724.1627"/>
<polygon fill="#000000" stroke="#000000" points="3719.5001,-723.8721 3716,-713.8722 3712.5001,-723.8722 3719.5001,-723.8721"/>
</g>
<!-- block_31 -->
<g id="node32" class="node">
<title>block_31</title>
<ellipse fill="none" stroke="#000000" cx="3969" cy="-695.8008" rx="55.6542" ry="18"/>
<text text-anchor="middle" x="3969" y="-691.6008" font-family="Helvetica,sans-Serif" font-size="14.00" fill="#000000">block 82&#45;83</text>
</g>
<!-- section_23&#45;&gt;block_31 -->
<g id="edge31" class="edge">
<title>section_23&#45;&gt;block_31</title>
<path fill="none" stroke="#000000" stroke-dasharray="5,2" d="M3734.1951,-923.5526C3778.704,-880.3807 3893.1382,-769.3838 3943.9954,-720.0543"/>
<polygon fill="#000000" stroke="#000000" points="3946.5657,-722.4372 3951.3069,-712.9624 3941.692,-717.4126 3946.5657,-722.4372"/>
</g>
<!-- structure_32 -->
<g id="node33" class="node">
<title>structure_32</title>
<ellipse fill="none" stroke="#000000" cx="4132" cy="-695.8008" rx="44.5182" ry="18"/>
<text text-anchor="middle" x="4132" y="-691.6008" font-family="Helvetica,sans-Serif" font-size="14.00" fill="#000000">structure</text>
</g>
<!-- section_23&#45;&gt;structure_32 -->
<g id="edge32" class="edge">
<title>section_23&#45;&gt;structure_32</title>
<path fill="none" stroke="#000000" stroke-dasharray="5,2" d="M3781.9636,-935.1423C3850.7914,-925.9459 3958.939,-903.1044 4034,-847.0011 4077.3294,-814.6152 4106.8385,-756.989 4121.4271,-723.0005"/>
<polygon fill="#000000" stroke="#000000" points="4124.6979,-724.2503 4125.3101,-713.6732 4118.2355,-721.56 4124.6979,-724.2503"/>
</g>
<!-- structure_33 -->
<g id="node34" class="node">
<title>structure_33</title>
<ellipse fill="none" stroke="#000000" cx="4268" cy="-695.8008" rx="44.5182" ry="18"/>
<text text-anchor="middle" x="4268" y="-691.6008" font-family="Helvetica,sans-Serif" font-size="14.00" fill="#000000">structure</text>
</g>
<!-- section_23&#45;&gt;structure_33 -->
<g id="edge33" class="edge">
<title>section_23&#45;&gt;structure_33</title>
<path fill="none" stroke="#000000" stroke-dasharray="5,2" d="M3781.8247,-934.9133C3895.505,-922.9451 4122.5584,-893.8266 4186,-847.0011 4227.4789,-816.386 4250.3053,-758.2996 4260.7729,-723.7172"/>
<polygon fill="#000000" stroke="#000000" points="4264.226,-724.3739 4263.6316,-713.7957 4257.4996,-722.4357 4264.226,-724.3739"/>
</g>
<!-- codeblock_34 -->
<g id="node35" class="node">
<title>codeblock_34</title>
<ellipse fill="none" stroke="#000000" cx="4525" cy="-695.8008" rx="81.9542" ry="18"/>
<text text-anchor="middle" x="4525" y="-691.6008" font-family="Helvetica,sans-Serif" font-size="14.00" fill="#000000">code block 93&#45;117</text>
</g>
<!-- section_23&#45;&gt;codeblock_34 -->
<g id="edge34" class="edge">
<title>section_23&#45;&gt;codeblock_34</title>
<path fill="none" stroke="#000000" stroke-dasharray="5,2" d="M3781.7995,-935.0128C3917.7838,-921.5703 4225.1671,-887.6219 4322,-847.0011 4394.1462,-816.7362 4464.1253,-755.4387 4500.058,-720.9094"/>
<polygon fill="#000000" stroke="#000000" points="4502.8859,-723.0413 4507.6128,-713.5594 4498.0046,-718.024 4502.8859,-723.0413"/>
</g>
<!-- leaf_35 -->
<g id="node36" class="node">
<title>leaf_35</title>
<polygon fill="none" stroke="#c0c0c0" points="2900,-344.3003 2846,-344.3003 2846,-308.3003 2900,-308.3003 2900,-344.3003"/>
</g>
<!-- header_27&#45;&gt;leaf_35 -->
<g id="edge35" class="edge">
<title>header_27&#45;&gt;leaf_35</title>
<path fill="none" stroke="#000000" stroke-dasharray="5,2" d="M3261.4154,-677.703C3248.4979,-645.0332 3216.5197,-576.6323 3165,-544.6006 3067.4244,-483.9343 2992.4581,-587.5698 2909,-508.6006 2866.8386,-468.7069 2866.1585,-394.8411 2869.4779,-354.4614"/>
<polygon fill="#000000" stroke="#000000" points="2872.9637,-354.7757 2870.4368,-344.4866 2865.9958,-354.1058 2872.9637,-354.7757"/>
</g>
<!-- leaf_36 -->
<g id="node37" class="node">
<title>leaf_36</title>
<polygon fill="none" stroke="#c0c0c0" points="3095.5,-346.2024 2918.5,-346.2024 2918.5,-306.3982 3095.5,-306.3982 3095.5,-346.2024"/>
<text text-anchor="middle" x="3007" y="-314.8003" font-family="Inconsolata" font-size="14.00" fill="#000000"> Matches a header line.</text>
</g>
<!-- block_28&#45;&gt;leaf_36 -->
<g id="edge36" class="edge">
<title>block_28&#45;&gt;leaf_36</title>
<path fill="none" stroke="#000000" stroke-dasharray="5,2" d="M3433.0488,-677.6461C3428.5193,-645.1976 3414.1479,-577.5691 3371,-544.6006 3276.2045,-472.1692 3203.0544,-576.5551 3105,-508.6006 3052.1811,-471.9956 3025.3324,-397.5634 3013.9463,-356.022"/>
<polygon fill="#000000" stroke="#000000" points="3017.2968,-354.9999 3011.3783,-346.2123 3010.525,-356.7727 3017.2968,-354.9999"/>
</g>
<!-- leaf_37 -->
<g id="node38" class="node">
<title>leaf_37</title>
<polygon fill="none" stroke="#c0c0c0" points="3396,-345.6009 3114,-345.6009 3114,-306.9997 3396,-306.9997 3396,-345.6009"/>
<text text-anchor="middle" x="3255" y="-330.5003" font-family="Inconsolata" font-size="14.00" fill="#000000"> &#45; str : &#160;The string to match against.</text>
<text text-anchor="middle" x="3255" y="-315.1003" font-family="Inconsolata" font-size="14.00" fill="#000000"> </text>
</g>
<!-- block_29&#45;&gt;leaf_37 -->
<g id="edge37" class="edge">
<title>block_29&#45;&gt;leaf_37</title>
<path fill="none" stroke="#000000" stroke-dasharray="5,2" d="M3561.9903,-677.8249C3555.8494,-646.5592 3539.0124,-581.9413 3500,-544.6006 3467.3814,-513.3797 3441.6889,-534.9186 3405,-508.6006 3345.4944,-465.9155 3295.9823,-394.0095 3271.5012,-354.4656"/>
<polygon fill="#000000" stroke="#000000" points="3274.2971,-352.3278 3266.1037,-345.6108 3268.32,-355.9712 3274.2971,-352.3278"/>
</g>
<!-- leaf_38 -->
<g id="node39" class="node">
<title>leaf_38</title>
<polygon fill="none" stroke="#c0c0c0" points="3913.5,-407.3006 3414.5,-407.3006 3414.5,-245.3 3913.5,-245.3 3913.5,-407.3006"/>
<text text-anchor="middle" x="3664" y="-392.1005" font-family="Inconsolata" font-size="14.00" fill="#000000">function h.match(str) </text>
<text text-anchor="middle" x="3664" y="-376.7004" font-family="Inconsolata" font-size="14.00" fill="#000000"> &#160;&#160;&#160;if str ~= &quot;&quot; and L.match(m.header, str) then</text>
<text text-anchor="middle" x="3664" y="-361.3004" font-family="Inconsolata" font-size="14.00" fill="#000000"> &#160;&#160;&#160;&#160;&#160;&#160;&#160;local trimmed = str:sub(L.match(m.WS, str))</text>
<text text-anchor="middle" x="3664" y="-345.9004" font-family="Inconsolata" font-size="14.00" fill="#000000"> &#160;&#160;&#160;&#160;&#160;&#160;&#160;local level = L.match(m.tars, trimmed) &#45; 1</text>
<text text-anchor="middle" x="3664" y="-330.5003" font-family="Inconsolata" font-size="14.00" fill="#000000"> &#160;&#160;&#160;&#160;&#160;&#160;&#160;local bareline = trimmed:sub(L.match(m.tars * m.WS, trimmed))</text>
<text text-anchor="middle" x="3664" y="-315.1003" font-family="Inconsolata" font-size="14.00" fill="#000000"> &#160;&#160;&#160;&#160;&#160;&#160;&#160;return true, level, bareline</text>
<text text-anchor="middle" x="3664" y="-299.7003" font-family="Inconsolata" font-size="14.00" fill="#000000"> &#160;&#160;&#160;else </text>
<text text-anchor="middle" x="3664" y="-284.3002" font-family="Inconsolata" font-size="14.00" fill="#000000"> &#160;&#160;&#160;&#160;&#160;&#160;&#160;return false, 0, &quot;&quot;</text>
<text text-anchor="middle" x="3664" y="-268.9002" font-family="Inconsolata" font-size="14.00" fill="#000000"> &#160;&#160;&#160;end</text>
<text text-anchor="middle" x="3664" y="-253.5002" font-family="Inconsolata" font-size="14.00" fill="#000000">end</text>
</g>
<!-- codeblock_30&#45;&gt;leaf_38 -->
<g id="edge38" class="edge">
<title>codeblock_30&#45;&gt;leaf_38</title>
<path fill="none" stroke="#000000" stroke-dasharray="5,2" d="M3713.4567,-677.7289C3706.9186,-631.2705 3689.1729,-505.1731 3676.8214,-417.406"/>
<polygon fill="#000000" stroke="#000000" points="3680.2778,-416.8507 3675.4183,-407.4361 3673.3461,-417.8263 3680.2778,-416.8507"/>
</g>
<!-- leaf_39 -->
<g id="node40" class="node">
<title>leaf_39</title>
<polygon fill="none" stroke="#c0c0c0" points="4108.5,-344.3003 3931.5,-344.3003 3931.5,-308.3003 4108.5,-308.3003 4108.5,-344.3003"/>
<text text-anchor="middle" x="4020" y="-322.8003" font-family="Inconsolata" font-size="14.00" fill="#000000"> Creates a Header Node.</text>
</g>
<!-- block_31&#45;&gt;leaf_39 -->
<g id="edge39" class="edge">
<title>block_31&#45;&gt;leaf_39</title>
<path fill="none" stroke="#000000" stroke-dasharray="5,2" d="M3971.4944,-677.7289C3979.7309,-618.0543 4006.1031,-426.985 4016.1043,-354.525"/>
<polygon fill="#000000" stroke="#000000" points="4019.6102,-354.7221 4017.5104,-344.3374 4012.6759,-353.7649 4019.6102,-354.7221"/>
</g>
<!-- handleline_40 -->
<g id="node41" class="node">
<title>handleline_40</title>
<ellipse fill="none" stroke="#000000" cx="4177" cy="-326.3003" rx="50.3585" ry="18"/>
<text text-anchor="middle" x="4177" y="-322.1003" font-family="Helvetica,sans-Serif" font-size="14.00" fill="#000000">handleline</text>
</g>
<!-- structure_32&#45;&gt;handleline_40 -->
<g id="edge40" class="edge">
<title>structure_32&#45;&gt;handleline_40</title>
<path fill="none" stroke="#000000" stroke-dasharray="5,2" d="M4134.2009,-677.7289C4141.4684,-618.0543 4164.738,-426.985 4173.5626,-354.525"/>
<polygon fill="#000000" stroke="#000000" points="4177.0686,-354.6872 4174.8033,-344.3374 4170.12,-353.8409 4177.0686,-354.6872"/>
</g>
<!-- handleline_43 -->
<g id="node44" class="node">
<title>handleline_43</title>
<ellipse fill="none" stroke="#000000" cx="4296" cy="-326.3003" rx="50.3585" ry="18"/>
<text text-anchor="middle" x="4296" y="-322.1003" font-family="Helvetica,sans-Serif" font-size="14.00" fill="#000000">handleline</text>
</g>
<!-- structure_33&#45;&gt;handleline_43 -->
<g id="edge43" class="edge">
<title>structure_33&#45;&gt;handleline_43</title>
<path fill="none" stroke="#000000" stroke-dasharray="5,2" d="M4269.3695,-677.7289C4273.8915,-618.0543 4288.3703,-426.985 4293.8612,-354.525"/>
<polygon fill="#000000" stroke="#000000" points="4297.3675,-354.5733 4294.6332,-344.3374 4290.3875,-354.0443 4297.3675,-354.5733"/>
</g>
<!-- leaf_46 -->
<g id="node47" class="node">
<title>leaf_46</title>
<polygon fill="none" stroke="#c0c0c0" points="4856,-508.4011 4364,-508.4011 4364,-144.1995 4856,-144.1995 4856,-508.4011"/>
<text text-anchor="middle" x="4610" y="-493.4006" font-family="Inconsolata" font-size="14.00" fill="#000000">local function new(Header, line, level, first, last, parent)</text>
<text text-anchor="middle" x="4610" y="-478.0006" font-family="Inconsolata" font-size="14.00" fill="#000000"> &#160;&#160;&#160;local header = setmetatable({}, H)</text>
<text text-anchor="middle" x="4610" y="-462.6005" font-family="Inconsolata" font-size="14.00" fill="#000000"> &#160;&#160;&#160;header.line = line</text>
<text text-anchor="middle" x="4610" y="-447.2005" font-family="Inconsolata" font-size="14.00" fill="#000000"> &#160;&#160;&#160;header.level = level</text>
<text text-anchor="middle" x="4610" y="-431.8005" font-family="Inconsolata" font-size="14.00" fill="#000000"> &#160;&#160;&#160;header.first = first</text>
<text text-anchor="middle" x="4610" y="-416.4004" font-family="Inconsolata" font-size="14.00" fill="#000000"> &#160;&#160;&#160;header.last = last</text>
<text text-anchor="middle" x="4610" y="-401.0004" font-family="Inconsolata" font-size="14.00" fill="#000000"> &#160;&#160;&#160;header.parent = function() return parent end</text>
<text text-anchor="middle" x="4610" y="-385.6004" font-family="Inconsolata" font-size="14.00" fill="#000000"> &#160;&#160;&#160;header.id = &quot;header&quot;</text>
<text text-anchor="middle" x="4610" y="-370.2003" font-family="Inconsolata" font-size="14.00" fill="#000000"> &#160;&#160;&#160;&#45;&#45; for now lets set root to &#39;false&#39;</text>
<text text-anchor="middle" x="4610" y="-354.8003" font-family="Inconsolata" font-size="14.00" fill="#000000"> &#160;&#160;&#160;&#45;&#45; nodes classically return root but unclear that I actually use</text>
<text text-anchor="middle" x="4610" y="-339.4003" font-family="Inconsolata" font-size="14.00" fill="#000000"> &#160;&#160;&#160;header.root = false</text>
<text text-anchor="middle" x="4610" y="-324.0002" font-family="Inconsolata" font-size="14.00" fill="#000000"> &#160;&#160;&#160;return header</text>
<text text-anchor="middle" x="4610" y="-308.6002" font-family="Inconsolata" font-size="14.00" fill="#000000">end</text>
<text text-anchor="middle" x="4610" y="-277.2002" font-family="Inconsolata" font-size="14.00" fill="#000000">function H.howdy() </text>
<text text-anchor="middle" x="4610" y="-261.8002" font-family="Inconsolata" font-size="14.00" fill="#000000"> &#160;&#160;&#160;io.write(&quot;Why hello!\n&quot;)</text>
<text text-anchor="middle" x="4610" y="-246.4001" font-family="Inconsolata" font-size="14.00" fill="#000000">end</text>
<text text-anchor="middle" x="4610" y="-199.0001" font-family="Inconsolata" font-size="14.00" fill="#000000">h.__call = new</text>
<text text-anchor="middle" x="4610" y="-183.6001" font-family="Inconsolata" font-size="14.00" fill="#000000">h.__index = h</text>
<text text-anchor="middle" x="4610" y="-152.2" font-family="Inconsolata" font-size="14.00" fill="#000000">return setmetatable({}, h)</text>
</g>
<!-- codeblock_34&#45;&gt;leaf_46 -->
<g id="edge46" class="edge">
<title>codeblock_34&#45;&gt;leaf_46</title>
<path fill="none" stroke="#000000" stroke-dasharray="5,2" d="M4529.1573,-677.7289C4536.1003,-647.5471 4550.7754,-583.7535 4565.7417,-518.6939"/>
<polygon fill="#000000" stroke="#000000" points="4569.2169,-519.199 4568.0479,-508.6689 4562.395,-517.6297 4569.2169,-519.199"/>
</g>
<!-- handle_41 -->
<g id="node42" class="node">
<title>handle_41</title>
<ellipse fill="none" stroke="#000000" cx="4177" cy="-90" rx="36.827" ry="18"/>
<text text-anchor="middle" x="4177" y="-85.8" font-family="Helvetica,sans-Serif" font-size="14.00" fill="#000000">handle</text>
</g>
<!-- handleline_40&#45;&gt;handle_41 -->
<g id="edge41" class="edge">
<title>handleline_40&#45;&gt;handle_41</title>
<path fill="none" stroke="#000000" stroke-dasharray="5,2" d="M4177,-308.1506C4177,-267.2581 4177,-167.6612 4177,-118.4623"/>
<polygon fill="#000000" stroke="#000000" points="4180.5001,-118.2115 4177,-108.2116 4173.5001,-118.2116 4180.5001,-118.2115"/>
</g>
<!-- leaf_42 -->
<g id="node43" class="node">
<title>leaf_42</title>
<polygon fill="none" stroke="#c0c0c0" points="4204,-36 4150,-36 4150,0 4204,0 4204,-36"/>
</g>
<!-- handle_41&#45;&gt;leaf_42 -->
<g id="edge42" class="edge">
<title>handle_41&#45;&gt;leaf_42</title>
<path fill="none" stroke="#000000" stroke-dasharray="5,2" d="M4177,-71.8314C4177,-64.131 4177,-54.9743 4177,-46.4166"/>
<polygon fill="#000000" stroke="#000000" points="4180.5001,-46.4132 4177,-36.4133 4173.5001,-46.4133 4180.5001,-46.4132"/>
</g>
<!-- handle_44 -->
<g id="node45" class="node">
<title>handle_44</title>
<ellipse fill="none" stroke="#000000" cx="4296" cy="-90" rx="36.827" ry="18"/>
<text text-anchor="middle" x="4296" y="-85.8" font-family="Helvetica,sans-Serif" font-size="14.00" fill="#000000">handle</text>
</g>
<!-- handleline_43&#45;&gt;handle_44 -->
<g id="edge44" class="edge">
<title>handleline_43&#45;&gt;handle_44</title>
<path fill="none" stroke="#000000" stroke-dasharray="5,2" d="M4296,-308.1506C4296,-267.2581 4296,-167.6612 4296,-118.4623"/>
<polygon fill="#000000" stroke="#000000" points="4299.5001,-118.2115 4296,-108.2116 4292.5001,-118.2116 4299.5001,-118.2115"/>
</g>
<!-- leaf_45 -->
<g id="node46" class="node">
<title>leaf_45</title>
<polygon fill="none" stroke="#c0c0c0" points="4323,-36 4269,-36 4269,0 4323,0 4323,-36"/>
</g>
<!-- handle_44&#45;&gt;leaf_45 -->
<g id="edge45" class="edge">
<title>handle_44&#45;&gt;leaf_45</title>
<path fill="none" stroke="#000000" stroke-dasharray="5,2" d="M4296,-71.8314C4296,-64.131 4296,-54.9743 4296,-46.4166"/>
<polygon fill="#000000" stroke="#000000" points="4299.5001,-46.4132 4296,-36.4133 4292.5001,-46.4133 4299.5001,-46.4132"/>
</g>
</g>
</svg>