<?xml version="1.0" encoding="UTF-8" standalone="no"?>
<!DOCTYPE svg PUBLIC "-//W3C//DTD SVG 1.1//EN"
 "http://www.w3.org/Graphics/SVG/1.1/DTD/svg11.dtd">
<!-- Generated by graphviz version 2.40.1 (20161225.0304)
 -->
<!-- Title: hierarchy Pages: 1 -->
<svg width="2934pt" height="714pt"
 viewBox="0.00 0.00 2933.54 713.80" xmlns="http://www.w3.org/2000/svg" xmlns:xlink="http://www.w3.org/1999/xlink">
<g id="graph0" class="graph" transform="scale(1 1) rotate(0) translate(4 709.8005)">
<title>hierarchy</title>
<polygon fill="#ffffff" stroke="transparent" points="-4,4 -4,-709.8005 2929.5414,-709.8005 2929.5414,4 -4,4"/>
<!-- doc_0 -->
<g id="node1" class="node">
<title>doc_0</title>
<ellipse fill="none" stroke="#000000" cx="312.0809" cy="-687.8005" rx="42.1216" ry="18"/>
<text text-anchor="middle" x="312.0809" y="-683.6005" font-family="Helvetica,sans-Serif" font-size="14.00" fill="#000000">doc &#45; 80</text>
</g>
<!-- section_1 -->
<g id="node2" class="node">
<title>section_1</title>
<ellipse fill="none" stroke="#000000" cx="312.0809" cy="-615.8005" rx="60.9826" ry="18"/>
<text text-anchor="middle" x="312.0809" y="-611.6005" font-family="Helvetica,sans-Serif" font-size="14.00" fill="#000000">section: 1&#45;18</text>
</g>
<!-- doc_0&#45;&gt;section_1 -->
<g id="edge1" class="edge">
<title>doc_0&#45;&gt;section_1</title>
<path fill="none" stroke="#000000" stroke-dasharray="5,2" d="M312.0809,-669.6319C312.0809,-661.9315 312.0809,-652.7749 312.0809,-644.2172"/>
<polygon fill="#000000" stroke="#000000" points="315.581,-644.2138 312.0809,-634.2138 308.581,-644.2138 315.581,-644.2138"/>
</g>
<!-- header_2 -->
<g id="node3" class="node">
<title>header_2</title>
<ellipse fill="none" stroke="#000000" cx="70.0809" cy="-543.8005" rx="70.1619" ry="18"/>
<text text-anchor="middle" x="70.0809" y="-539.6005" font-family="Helvetica,sans-Serif" font-size="14.00" fill="#000000">1 : Link module</text>
</g>
<!-- section_1&#45;&gt;header_2 -->
<g id="edge2" class="edge">
<title>section_1&#45;&gt;header_2</title>
<path fill="none" stroke="#000000" stroke-dasharray="5,2" d="M269.095,-603.0113C229.0666,-591.1021 169.1814,-573.285 125.5612,-560.3071"/>
<polygon fill="#000000" stroke="#000000" points="126.5418,-556.9472 115.9589,-557.4502 124.5455,-563.6566 126.5418,-556.9472"/>
</g>
<!-- prose_3 -->
<g id="node4" class="node">
<title>prose_3</title>
<ellipse fill="none" stroke="#000000" cx="190.0809" cy="-543.8005" rx="32.4585" ry="18"/>
<text text-anchor="middle" x="190.0809" y="-539.6005" font-family="Helvetica,sans-Serif" font-size="14.00" fill="#000000">prose</text>
</g>
<!-- section_1&#45;&gt;prose_3 -->
<g id="edge3" class="edge">
<title>section_1&#45;&gt;prose_3</title>
<path fill="none" stroke="#000000" stroke-dasharray="5,2" d="M284.7017,-599.6423C265.9007,-588.5467 240.9031,-573.7939 221.3231,-562.2386"/>
<polygon fill="#000000" stroke="#000000" points="222.8652,-559.0846 212.4742,-557.0163 219.3074,-565.1131 222.8652,-559.0846"/>
</g>
<!-- codeblock_4 -->
<g id="node5" class="node">
<title>codeblock_4</title>
<ellipse fill="none" stroke="#000000" cx="312.0809" cy="-543.8005" rx="71.7805" ry="18"/>
<text text-anchor="middle" x="312.0809" y="-539.6005" font-family="Helvetica,sans-Serif" font-size="14.00" fill="#000000">code block 3&#45;11</text>
</g>
<!-- section_1&#45;&gt;codeblock_4 -->
<g id="edge4" class="edge">
<title>section_1&#45;&gt;codeblock_4</title>
<path fill="none" stroke="#000000" stroke-dasharray="5,2" d="M312.0809,-597.6319C312.0809,-589.9315 312.0809,-580.7749 312.0809,-572.2172"/>
<polygon fill="#000000" stroke="#000000" points="315.581,-572.2138 312.0809,-562.2138 308.581,-572.2138 315.581,-572.2138"/>
</g>
<!-- codeblock_5 -->
<g id="node6" class="node">
<title>codeblock_5</title>
<ellipse fill="none" stroke="#000000" cx="502.0809" cy="-543.8005" rx="77.4211" ry="18"/>
<text text-anchor="middle" x="502.0809" y="-539.6005" font-family="Helvetica,sans-Serif" font-size="14.00" fill="#000000">code block 14&#45;17</text>
</g>
<!-- section_1&#45;&gt;codeblock_5 -->
<g id="edge5" class="edge">
<title>section_1&#45;&gt;codeblock_5</title>
<path fill="none" stroke="#000000" stroke-dasharray="5,2" d="M349.6188,-601.5756C378.8255,-590.5078 419.6392,-575.0416 451.6894,-562.8963"/>
<polygon fill="#000000" stroke="#000000" points="453.2212,-566.0587 461.3321,-559.2422 450.7407,-559.5129 453.2212,-566.0587"/>
</g>
<!-- section_6 -->
<g id="node7" class="node">
<title>section_6</title>
<ellipse fill="none" stroke="#000000" cx="935.0809" cy="-543.8005" rx="65.8187" ry="18"/>
<text text-anchor="middle" x="935.0809" y="-539.6005" font-family="Helvetica,sans-Serif" font-size="14.00" fill="#000000">section: 19&#45;75</text>
</g>
<!-- section_1&#45;&gt;section_6 -->
<g id="edge6" class="edge">
<title>section_1&#45;&gt;section_6</title>
<path fill="none" stroke="#000000" stroke-dasharray="5,2" d="M368.7429,-609.2521C482.672,-596.0853 739.2379,-566.4341 864.1148,-552.0021"/>
<polygon fill="#000000" stroke="#000000" points="864.7962,-555.4467 874.3283,-550.8217 863.9925,-548.493 864.7962,-555.4467"/>
</g>
<!-- raw_7 -->
<g id="node8" class="node">
<title>raw_7</title>
<ellipse fill="none" stroke="#000000" cx="117.0809" cy="-431.3005" rx="27" ry="18"/>
<text text-anchor="middle" x="117.0809" y="-427.1005" font-family="Helvetica,sans-Serif" font-size="14.00" fill="#000000">raw</text>
</g>
<!-- prose_3&#45;&gt;raw_7 -->
<g id="edge7" class="edge">
<title>prose_3&#45;&gt;raw_7</title>
<path fill="none" stroke="#000000" stroke-dasharray="5,2" d="M178.2005,-526.9197C170.8357,-516.3436 161.254,-502.3798 153.0809,-489.8005 146.0959,-479.0498 138.6286,-467.0116 132.3161,-456.6633"/>
<polygon fill="#000000" stroke="#000000" points="135.2871,-454.8125 127.1071,-448.0791 129.3027,-458.444 135.2871,-454.8125"/>
</g>
<!-- leaf_9 -->
<g id="node10" class="node">
<title>leaf_9</title>
<polygon fill="none" stroke="#c0c0c0" points="416.0809,-489.8006 162.0809,-489.8006 162.0809,-372.8003 416.0809,-372.8003 416.0809,-489.8006"/>
<text text-anchor="middle" x="289.0809" y="-474.6005" font-family="Inconsolata" font-size="14.00" fill="#000000">local L = require &quot;lpeg&quot;</text>
<text text-anchor="middle" x="289.0809" y="-443.2005" font-family="Inconsolata" font-size="14.00" fill="#000000">local m = require &quot;grym/morphemes&quot;</text>
<text text-anchor="middle" x="289.0809" y="-427.8005" font-family="Inconsolata" font-size="14.00" fill="#000000">local u = require &quot;util&quot;</text>
<text text-anchor="middle" x="289.0809" y="-412.4004" font-family="Inconsolata" font-size="14.00" fill="#000000">local s = require &quot;status&quot; ()</text>
<text text-anchor="middle" x="289.0809" y="-381.0004" font-family="Inconsolata" font-size="14.00" fill="#000000">local Node = require &quot;node/node&quot;</text>
</g>
<!-- codeblock_4&#45;&gt;leaf_9 -->
<g id="edge9" class="edge">
<title>codeblock_4&#45;&gt;leaf_9</title>
<path fill="none" stroke="#000000" stroke-dasharray="5,2" d="M308.3855,-525.7254C306.8965,-518.4419 305.0768,-509.5415 303.1562,-500.1469"/>
<polygon fill="#000000" stroke="#000000" points="306.5598,-499.3212 301.1277,-490.2249 299.7017,-500.7234 306.5598,-499.3212"/>
</g>
<!-- leaf_10 -->
<g id="node11" class="node">
<title>leaf_10</title>
<polygon fill="none" stroke="#c0c0c0" points="660.0809,-450.601 434.0809,-450.601 434.0809,-411.9999 660.0809,-411.9999 660.0809,-450.601"/>
<text text-anchor="middle" x="547.0809" y="-435.5005" font-family="Inconsolata" font-size="14.00" fill="#000000">local Li, li = u.inherit(Node)</text>
<text text-anchor="middle" x="547.0809" y="-420.1005" font-family="Inconsolata" font-size="14.00" fill="#000000">Li.id = &quot;link&quot;</text>
</g>
<!-- codeblock_5&#45;&gt;leaf_10 -->
<g id="edge10" class="edge">
<title>codeblock_5&#45;&gt;leaf_10</title>
<path fill="none" stroke="#000000" stroke-dasharray="5,2" d="M509.3109,-525.7254C516.3567,-508.111 527.185,-481.0401 535.444,-460.3927"/>
<polygon fill="#000000" stroke="#000000" points="538.7999,-461.4269 539.2642,-450.8423 532.3005,-458.8271 538.7999,-461.4269"/>
</g>
<!-- header_11 -->
<g id="node12" class="node">
<title>header_11</title>
<ellipse fill="none" stroke="#000000" cx="752.0809" cy="-431.3005" rx="74.488" ry="18"/>
<text text-anchor="middle" x="752.0809" y="-427.1005" font-family="Helvetica,sans-Serif" font-size="14.00" fill="#000000">2 : Transformers</text>
</g>
<!-- section_6&#45;&gt;header_11 -->
<g id="edge11" class="edge">
<title>section_6&#45;&gt;header_11</title>
<path fill="none" stroke="#000000" stroke-dasharray="5,2" d="M903.8173,-527.8664C884.0835,-517.5361 858.2273,-503.4958 836.0809,-489.8005 818.354,-478.8383 799.2394,-465.6422 783.7291,-454.5597"/>
<polygon fill="#000000" stroke="#000000" points="785.6759,-451.6486 775.5149,-448.6479 781.5868,-457.3302 785.6759,-451.6486"/>
</g>
<!-- prose_12 -->
<g id="node13" class="node">
<title>prose_12</title>
<ellipse fill="none" stroke="#000000" cx="877.0809" cy="-431.3005" rx="32.4585" ry="18"/>
<text text-anchor="middle" x="877.0809" y="-427.1005" font-family="Helvetica,sans-Serif" font-size="14.00" fill="#000000">prose</text>
</g>
<!-- section_6&#45;&gt;prose_12 -->
<g id="edge12" class="edge">
<title>section_6&#45;&gt;prose_12</title>
<path fill="none" stroke="#000000" stroke-dasharray="5,2" d="M925.8906,-525.9746C916.4172,-507.5995 901.5415,-478.7456 890.7007,-457.7181"/>
<polygon fill="#000000" stroke="#000000" points="893.7309,-455.9578 886.0376,-448.6734 887.5091,-459.1655 893.7309,-455.9578"/>
</g>
<!-- section_13 -->
<g id="node14" class="node">
<title>section_13</title>
<ellipse fill="none" stroke="#000000" cx="993.0809" cy="-431.3005" rx="65.8187" ry="18"/>
<text text-anchor="middle" x="993.0809" y="-427.1005" font-family="Helvetica,sans-Serif" font-size="14.00" fill="#000000">section: 21&#45;31</text>
</g>
<!-- section_6&#45;&gt;section_13 -->
<g id="edge13" class="edge">
<title>section_6&#45;&gt;section_13</title>
<path fill="none" stroke="#000000" stroke-dasharray="5,2" d="M944.2712,-525.9746C953.6337,-507.8144 968.2731,-479.4191 979.0791,-458.4591"/>
<polygon fill="#000000" stroke="#000000" points="982.27,-459.9077 983.7416,-449.4156 976.0482,-456.7 982.27,-459.9077"/>
</g>
<!-- section_14 -->
<g id="node15" class="node">
<title>section_14</title>
<ellipse fill="none" stroke="#000000" cx="1476.0809" cy="-431.3005" rx="65.8187" ry="18"/>
<text text-anchor="middle" x="1476.0809" y="-427.1005" font-family="Helvetica,sans-Serif" font-size="14.00" fill="#000000">section: 32&#45;75</text>
</g>
<!-- section_6&#45;&gt;section_14 -->
<g id="edge14" class="edge">
<title>section_6&#45;&gt;section_14</title>
<path fill="none" stroke="#000000" stroke-dasharray="5,2" d="M987.4458,-532.9113C1087.6327,-512.0776 1306.0317,-466.6619 1413.6281,-444.2874"/>
<polygon fill="#000000" stroke="#000000" points="1414.6092,-447.6584 1423.6871,-442.1957 1413.184,-440.805 1414.6092,-447.6584"/>
</g>
<!-- section_15 -->
<g id="node16" class="node">
<title>section_15</title>
<ellipse fill="none" stroke="#000000" cx="2671.0809" cy="-431.3005" rx="65.8187" ry="18"/>
<text text-anchor="middle" x="2671.0809" y="-427.1005" font-family="Helvetica,sans-Serif" font-size="14.00" fill="#000000">section: 76&#45;80</text>
</g>
<!-- section_6&#45;&gt;section_15 -->
<g id="edge15" class="edge">
<title>section_6&#45;&gt;section_15</title>
<path fill="none" stroke="#000000" stroke-dasharray="5,2" d="M999.1844,-539.6464C1268.6464,-522.1841 2308.8644,-454.7736 2596.822,-436.1127"/>
<polygon fill="#000000" stroke="#000000" points="2597.3975,-439.5829 2607.1501,-435.4434 2596.9447,-432.5975 2597.3975,-439.5829"/>
</g>
<!-- leaf_8 -->
<g id="node9" class="node">
<title>leaf_8</title>
<polygon fill="none" stroke="#c0c0c0" points="144.0809,-336.8004 90.0809,-336.8004 90.0809,-300.8004 144.0809,-300.8004 144.0809,-336.8004"/>
</g>
<!-- raw_7&#45;&gt;leaf_8 -->
<g id="edge8" class="edge">
<title>raw_7&#45;&gt;leaf_8</title>
<path fill="none" stroke="#000000" stroke-dasharray="5,2" d="M117.0809,-413.2254C117.0809,-395.3479 117.0809,-367.7296 117.0809,-346.9721"/>
<polygon fill="#000000" stroke="#000000" points="120.581,-346.8306 117.0809,-336.8306 113.581,-346.8306 120.581,-346.8306"/>
</g>
<!-- raw_16 -->
<g id="node17" class="node">
<title>raw_16</title>
<ellipse fill="none" stroke="#000000" cx="692.0809" cy="-318.8004" rx="27" ry="18"/>
<text text-anchor="middle" x="692.0809" y="-314.6004" font-family="Helvetica,sans-Serif" font-size="14.00" fill="#000000">raw</text>
</g>
<!-- prose_12&#45;&gt;raw_16 -->
<g id="edge16" class="edge">
<title>prose_12&#45;&gt;raw_16</title>
<path fill="none" stroke="#000000" stroke-dasharray="5,2" d="M868.4636,-413.9195C861.1994,-400.9105 849.6616,-383.5736 835.0809,-372.8004 794.7263,-342.9836 774.4096,-356.0664 728.0809,-336.8004 726.2904,-336.0558 724.4652,-335.2612 722.6336,-334.436"/>
<polygon fill="#000000" stroke="#000000" points="724.093,-331.2546 713.5562,-330.1472 721.1026,-337.5837 724.093,-331.2546"/>
</g>
<!-- header_18 -->
<g id="node19" class="node">
<title>header_18</title>
<ellipse fill="none" stroke="#000000" cx="808.0809" cy="-318.8004" rx="70.6291" ry="18"/>
<text text-anchor="middle" x="808.0809" y="-314.6004" font-family="Helvetica,sans-Serif" font-size="14.00" fill="#000000">3 : toMarkdown</text>
</g>
<!-- section_13&#45;&gt;header_18 -->
<g id="edge18" class="edge">
<title>section_13&#45;&gt;header_18</title>
<path fill="none" stroke="#000000" stroke-dasharray="5,2" d="M973.2215,-413.9714C958.5635,-401.648 937.8158,-385.1564 918.0809,-372.8004 897.6889,-360.033 873.8471,-348.0077 853.5829,-338.5604"/>
<polygon fill="#000000" stroke="#000000" points="854.8003,-335.2681 844.2523,-334.2732 851.8776,-341.6287 854.8003,-335.2681"/>
</g>
<!-- prose_19 -->
<g id="node20" class="node">
<title>prose_19</title>
<ellipse fill="none" stroke="#000000" cx="929.0809" cy="-318.8004" rx="32.4585" ry="18"/>
<text text-anchor="middle" x="929.0809" y="-314.6004" font-family="Helvetica,sans-Serif" font-size="14.00" fill="#000000">prose</text>
</g>
<!-- section_13&#45;&gt;prose_19 -->
<g id="edge19" class="edge">
<title>section_13&#45;&gt;prose_19</title>
<path fill="none" stroke="#000000" stroke-dasharray="5,2" d="M982.9399,-413.4745C972.4394,-395.0166 955.9239,-365.9853 943.9482,-344.9344"/>
<polygon fill="#000000" stroke="#000000" points="946.9511,-343.1346 938.9641,-336.1733 940.8668,-346.5959 946.9511,-343.1346"/>
</g>
<!-- codeblock_20 -->
<g id="node21" class="node">
<title>codeblock_20</title>
<ellipse fill="none" stroke="#000000" cx="1057.0809" cy="-318.8004" rx="77.4211" ry="18"/>
<text text-anchor="middle" x="1057.0809" y="-314.6004" font-family="Helvetica,sans-Serif" font-size="14.00" fill="#000000">code block 23&#45;30</text>
</g>
<!-- section_13&#45;&gt;codeblock_20 -->
<g id="edge20" class="edge">
<title>section_13&#45;&gt;codeblock_20</title>
<path fill="none" stroke="#000000" stroke-dasharray="5,2" d="M1003.2219,-413.4745C1013.5995,-395.2325 1029.8524,-366.663 1041.7915,-345.6763"/>
<polygon fill="#000000" stroke="#000000" points="1044.8728,-347.3381 1046.7754,-336.9155 1038.7885,-343.8767 1044.8728,-347.3381"/>
</g>
<!-- header_24 -->
<g id="node25" class="node">
<title>header_24</title>
<ellipse fill="none" stroke="#000000" cx="1241.0809" cy="-318.8004" rx="56.156" ry="18"/>
<text text-anchor="middle" x="1241.0809" y="-314.6004" font-family="Helvetica,sans-Serif" font-size="14.00" fill="#000000">3 : dotLabel</text>
</g>
<!-- section_14&#45;&gt;header_24 -->
<g id="edge24" class="edge">
<title>section_14&#45;&gt;header_24</title>
<path fill="none" stroke="#000000" stroke-dasharray="5,2" d="M1443.4051,-415.6578C1401.0475,-395.3802 1327.1995,-360.0274 1281.402,-338.103"/>
<polygon fill="#000000" stroke="#000000" points="1282.8864,-334.9333 1272.3554,-333.7722 1279.8638,-341.2471 1282.8864,-334.9333"/>
</g>
<!-- prose_25 -->
<g id="node26" class="node">
<title>prose_25</title>
<ellipse fill="none" stroke="#000000" cx="1348.0809" cy="-318.8004" rx="32.4585" ry="18"/>
<text text-anchor="middle" x="1348.0809" y="-314.6004" font-family="Helvetica,sans-Serif" font-size="14.00" fill="#000000">prose</text>
</g>
<!-- section_14&#45;&gt;prose_25 -->
<g id="edge25" class="edge">
<title>section_14&#45;&gt;prose_25</title>
<path fill="none" stroke="#000000" stroke-dasharray="5,2" d="M1456.3614,-413.9689C1434.0577,-394.366 1397.6812,-362.3944 1373.3218,-340.9848"/>
<polygon fill="#000000" stroke="#000000" points="1375.381,-338.1349 1365.5592,-334.1621 1370.7598,-343.3928 1375.381,-338.1349"/>
</g>
<!-- codeblock_26 -->
<g id="node27" class="node">
<title>codeblock_26</title>
<ellipse fill="none" stroke="#000000" cx="1476.0809" cy="-318.8004" rx="77.4211" ry="18"/>
<text text-anchor="middle" x="1476.0809" y="-314.6004" font-family="Helvetica,sans-Serif" font-size="14.00" fill="#000000">code block 34&#45;38</text>
</g>
<!-- section_14&#45;&gt;codeblock_26 -->
<g id="edge26" class="edge">
<title>section_14&#45;&gt;codeblock_26</title>
<path fill="none" stroke="#000000" stroke-dasharray="5,2" d="M1476.0809,-413.2254C1476.0809,-395.3479 1476.0809,-367.7296 1476.0809,-346.9721"/>
<polygon fill="#000000" stroke="#000000" points="1479.581,-346.8306 1476.0809,-336.8306 1472.581,-346.8306 1479.581,-346.8306"/>
</g>
<!-- codeblock_27 -->
<g id="node28" class="node">
<title>codeblock_27</title>
<ellipse fill="none" stroke="#000000" cx="1680.0809" cy="-318.8004" rx="77.4211" ry="18"/>
<text text-anchor="middle" x="1680.0809" y="-314.6004" font-family="Helvetica,sans-Serif" font-size="14.00" fill="#000000">code block 40&#45;53</text>
</g>
<!-- section_14&#45;&gt;codeblock_27 -->
<g id="edge27" class="edge">
<title>section_14&#45;&gt;codeblock_27</title>
<path fill="none" stroke="#000000" stroke-dasharray="5,2" d="M1505.3091,-415.1819C1540.9804,-395.5103 1601.4283,-362.175 1641.0511,-340.3242"/>
<polygon fill="#000000" stroke="#000000" points="1642.8432,-343.3329 1649.9097,-335.4389 1639.4628,-337.2032 1642.8432,-343.3329"/>
</g>
<!-- codeblock_28 -->
<g id="node29" class="node">
<title>codeblock_28</title>
<ellipse fill="none" stroke="#000000" cx="1997.0809" cy="-318.8004" rx="77.4211" ry="18"/>
<text text-anchor="middle" x="1997.0809" y="-314.6004" font-family="Helvetica,sans-Serif" font-size="14.00" fill="#000000">code block 57&#45;65</text>
</g>
<!-- section_14&#45;&gt;codeblock_28 -->
<g id="edge28" class="edge">
<title>section_14&#45;&gt;codeblock_28</title>
<path fill="none" stroke="#000000" stroke-dasharray="5,2" d="M1527.9411,-420.1022C1623.0648,-399.5621 1825.3032,-355.8925 1930.4552,-333.1869"/>
<polygon fill="#000000" stroke="#000000" points="1931.2853,-336.5884 1940.3213,-331.0565 1929.8078,-329.7461 1931.2853,-336.5884"/>
</g>
<!-- codeblock_29 -->
<g id="node30" class="node">
<title>codeblock_29</title>
<ellipse fill="none" stroke="#000000" cx="2326.0809" cy="-318.8004" rx="77.4211" ry="18"/>
<text text-anchor="middle" x="2326.0809" y="-314.6004" font-family="Helvetica,sans-Serif" font-size="14.00" fill="#000000">code block 68&#45;74</text>
</g>
<!-- section_14&#45;&gt;codeblock_29 -->
<g id="edge29" class="edge">
<title>section_14&#45;&gt;codeblock_29</title>
<path fill="none" stroke="#000000" stroke-dasharray="5,2" d="M1535.5134,-423.4344C1685.7707,-403.5474 2080.7928,-351.265 2248.7405,-329.0366"/>
<polygon fill="#000000" stroke="#000000" points="2249.2907,-332.4944 2258.745,-327.7125 2248.3722,-325.5549 2249.2907,-332.4944"/>
</g>
<!-- header_36 -->
<g id="node37" class="node">
<title>header_36</title>
<ellipse fill="none" stroke="#000000" cx="2623.0809" cy="-318.8004" rx="46.9495" ry="18"/>
<text text-anchor="middle" x="2623.0809" y="-314.6004" font-family="Helvetica,sans-Serif" font-size="14.00" fill="#000000">3 : export</text>
</g>
<!-- section_15&#45;&gt;header_36 -->
<g id="edge36" class="edge">
<title>section_15&#45;&gt;header_36</title>
<path fill="none" stroke="#000000" stroke-dasharray="5,2" d="M2663.3689,-413.2254C2655.6362,-395.1019 2643.6322,-366.9676 2634.7369,-346.1191"/>
<polygon fill="#000000" stroke="#000000" points="2637.9175,-344.6548 2630.7738,-336.8306 2631.479,-347.4019 2637.9175,-344.6548"/>
</g>
<!-- prose_37 -->
<g id="node38" class="node">
<title>prose_37</title>
<ellipse fill="none" stroke="#000000" cx="2720.0809" cy="-318.8004" rx="32.4585" ry="18"/>
<text text-anchor="middle" x="2720.0809" y="-314.6004" font-family="Helvetica,sans-Serif" font-size="14.00" fill="#000000">prose</text>
</g>
<!-- section_15&#45;&gt;prose_37 -->
<g id="edge37" class="edge">
<title>section_15&#45;&gt;prose_37</title>
<path fill="none" stroke="#000000" stroke-dasharray="5,2" d="M2678.9536,-413.2254C2686.8941,-394.9946 2699.2466,-366.6343 2708.3429,-345.7498"/>
<polygon fill="#000000" stroke="#000000" points="2711.6048,-347.0255 2712.3893,-336.4597 2705.1872,-344.2302 2711.6048,-347.0255"/>
</g>
<!-- codeblock_38 -->
<g id="node39" class="node">
<title>codeblock_38</title>
<ellipse fill="none" stroke="#000000" cx="2848.0809" cy="-318.8004" rx="77.4211" ry="18"/>
<text text-anchor="middle" x="2848.0809" y="-314.6004" font-family="Helvetica,sans-Serif" font-size="14.00" fill="#000000">code block 78&#45;80</text>
</g>
<!-- section_15&#45;&gt;codeblock_38 -->
<g id="edge38" class="edge">
<title>section_15&#45;&gt;codeblock_38</title>
<path fill="none" stroke="#000000" stroke-dasharray="5,2" d="M2697.1979,-414.7007C2727.7409,-395.2877 2778.4536,-363.055 2812.5578,-341.3786"/>
<polygon fill="#000000" stroke="#000000" points="2814.7144,-344.1551 2821.2765,-335.8371 2810.9595,-338.2474 2814.7144,-344.1551"/>
</g>
<!-- leaf_17 -->
<g id="node18" class="node">
<title>leaf_17</title>
<polygon fill="none" stroke="#c0c0c0" points="719.0809,-186.4002 665.0809,-186.4002 665.0809,-150.4002 719.0809,-150.4002 719.0809,-186.4002"/>
</g>
<!-- raw_16&#45;&gt;leaf_17 -->
<g id="edge17" class="edge">
<title>raw_16&#45;&gt;leaf_17</title>
<path fill="none" stroke="#000000" stroke-dasharray="5,2" d="M692.0809,-300.6586C692.0809,-274.7998 692.0809,-227.1048 692.0809,-196.611"/>
<polygon fill="#000000" stroke="#000000" points="695.581,-196.6063 692.0809,-186.6063 688.581,-196.6063 695.581,-196.6063"/>
</g>
<!-- raw_21 -->
<g id="node22" class="node">
<title>raw_21</title>
<ellipse fill="none" stroke="#000000" cx="835.0809" cy="-168.4002" rx="27" ry="18"/>
<text text-anchor="middle" x="835.0809" y="-164.2002" font-family="Helvetica,sans-Serif" font-size="14.00" fill="#000000">raw</text>
</g>
<!-- prose_19&#45;&gt;raw_21 -->
<g id="edge21" class="edge">
<title>prose_19&#45;&gt;raw_21</title>
<path fill="none" stroke="#000000" stroke-dasharray="5,2" d="M909.3753,-304.3618C896.9677,-294.414 881.4028,-280.2415 871.0809,-264.8004 856.9617,-243.6788 847.4199,-216.2754 841.727,-196.0873"/>
<polygon fill="#000000" stroke="#000000" points="845.0632,-195.0147 839.097,-186.2595 838.3012,-196.8244 845.0632,-195.0147"/>
</g>
<!-- leaf_23 -->
<g id="node24" class="node">
<title>leaf_23</title>
<polygon fill="none" stroke="#c0c0c0" points="1092.0809,-218.8012 880.0809,-218.8012 880.0809,-117.9992 1092.0809,-117.9992 1092.0809,-218.8012"/>
<text text-anchor="middle" x="986.0809" y="-203.4003" font-family="Inconsolata" font-size="14.00" fill="#000000">function Li.toMarkdown(link)</text>
<text text-anchor="middle" x="986.0809" y="-188.0002" font-family="Inconsolata" font-size="14.00" fill="#000000"> &#160;url = link.url or &quot;&quot;</text>
<text text-anchor="middle" x="986.0809" y="-172.6002" font-family="Inconsolata" font-size="14.00" fill="#000000"> &#160;prose = link.prose or &quot;&quot;</text>
<text text-anchor="middle" x="986.0809" y="-157.2002" font-family="Inconsolata" font-size="14.00" fill="#000000"> &#160;return &quot;[&quot; .. prose .. &quot;]&quot;</text>
<text text-anchor="middle" x="986.0809" y="-141.8002" font-family="Inconsolata" font-size="14.00" fill="#000000"> &#160;&#160;&#160;&#160;&#160;.. &quot;(&quot; .. url .. &quot;)&quot;</text>
<text text-anchor="middle" x="986.0809" y="-126.4001" font-family="Inconsolata" font-size="14.00" fill="#000000">end</text>
</g>
<!-- codeblock_20&#45;&gt;leaf_23 -->
<g id="edge23" class="edge">
<title>codeblock_20&#45;&gt;leaf_23</title>
<path fill="none" stroke="#000000" stroke-dasharray="5,2" d="M1048.5166,-300.6586C1040.0046,-282.6274 1026.4803,-253.9788 1014.192,-227.9483"/>
<polygon fill="#000000" stroke="#000000" points="1017.3413,-226.4207 1009.9073,-218.8719 1011.0112,-229.409 1017.3413,-226.4207"/>
</g>
<!-- leaf_22 -->
<g id="node23" class="node">
<title>leaf_22</title>
<polygon fill="none" stroke="#c0c0c0" points="862.0809,-36 808.0809,-36 808.0809,0 862.0809,0 862.0809,-36"/>
</g>
<!-- raw_21&#45;&gt;leaf_22 -->
<g id="edge22" class="edge">
<title>raw_21&#45;&gt;leaf_22</title>
<path fill="none" stroke="#000000" stroke-dasharray="5,2" d="M835.0809,-150.2584C835.0809,-124.3997 835.0809,-76.7046 835.0809,-46.2108"/>
<polygon fill="#000000" stroke="#000000" points="838.581,-46.2061 835.0809,-36.2061 831.581,-46.2062 838.581,-46.2061"/>
</g>
<!-- raw_30 -->
<g id="node31" class="node">
<title>raw_30</title>
<ellipse fill="none" stroke="#000000" cx="1137.0809" cy="-168.4002" rx="27" ry="18"/>
<text text-anchor="middle" x="1137.0809" y="-164.2002" font-family="Helvetica,sans-Serif" font-size="14.00" fill="#000000">raw</text>
</g>
<!-- prose_25&#45;&gt;raw_30 -->
<g id="edge30" class="edge">
<title>prose_25&#45;&gt;raw_30</title>
<path fill="none" stroke="#000000" stroke-dasharray="5,2" d="M1322.9879,-307.3662C1317.4744,-305.0457 1311.6258,-302.7283 1306.0809,-300.8004 1248.2392,-280.6893 1218.3502,-306.0413 1173.0809,-264.8004 1153.6736,-247.1201 1144.6847,-217.9725 1140.5481,-196.3489"/>
<polygon fill="#000000" stroke="#000000" points="1143.989,-195.7045 1138.8828,-186.4213 1137.0854,-196.8625 1143.989,-195.7045"/>
</g>
<!-- leaf_32 -->
<g id="node33" class="node">
<title>leaf_32</title>
<polygon fill="none" stroke="#c0c0c0" points="1471.5809,-195.6007 1182.5809,-195.6007 1182.5809,-141.1997 1471.5809,-141.1997 1471.5809,-195.6007"/>
<text text-anchor="middle" x="1327.0809" y="-180.3002" font-family="Inconsolata" font-size="14.00" fill="#000000">function Li.dotLabel(link)</text>
<text text-anchor="middle" x="1327.0809" y="-164.9002" font-family="Inconsolata" font-size="14.00" fill="#000000"> &#160;return &quot;link: &quot; .. (link.prose or &quot;&quot;)</text>
<text text-anchor="middle" x="1327.0809" y="-149.5002" font-family="Inconsolata" font-size="14.00" fill="#000000">end</text>
</g>
<!-- codeblock_26&#45;&gt;leaf_32 -->
<g id="edge32" class="edge">
<title>codeblock_26&#45;&gt;leaf_32</title>
<path fill="none" stroke="#000000" stroke-dasharray="5,2" d="M1458.6971,-301.2532C1434.8889,-277.2213 1391.6316,-233.5575 1361.2228,-202.863"/>
<polygon fill="#000000" stroke="#000000" points="1363.6981,-200.3884 1354.1737,-195.7476 1358.7252,-205.315 1363.6981,-200.3884"/>
</g>
<!-- leaf_33 -->
<g id="node34" class="node">
<title>leaf_33</title>
<polygon fill="none" stroke="#c0c0c0" points="1996.0809,-264.7007 1490.0809,-264.7007 1490.0809,-72.0997 1996.0809,-72.0997 1996.0809,-264.7007"/>
<text text-anchor="middle" x="1743.0809" y="-249.6004" font-family="Inconsolata" font-size="14.00" fill="#000000">function Li.parse(link, line)</text>
<text text-anchor="middle" x="1743.0809" y="-234.2003" font-family="Inconsolata" font-size="14.00" fill="#000000"> &#160;&#45;&#45; This only parses double links, expand</text>
<text text-anchor="middle" x="1743.0809" y="-218.8003" font-family="Inconsolata" font-size="14.00" fill="#000000"> &#160;local WS, sel, ser = m.WS, m.sel, m.ser</text>
<text text-anchor="middle" x="1743.0809" y="-203.4003" font-family="Inconsolata" font-size="14.00" fill="#000000"> &#160;local link_content = L.match(L.Ct(sel * WS * sel * L.C(m.link_prose)</text>
<text text-anchor="middle" x="1743.0809" y="-188.0002" font-family="Inconsolata" font-size="14.00" fill="#000000"> &#160;&#160;&#160;&#160;&#160;&#160;&#160;&#160;&#160;&#160;&#160;&#160;&#160;&#160;&#160;* ser * WS * sel * L.C(m.url) * WS * ser * WS * ser),</text>
<text text-anchor="middle" x="1743.0809" y="-172.6002" font-family="Inconsolata" font-size="14.00" fill="#000000"> &#160;&#160;&#160;&#160;&#160;&#160;&#160;&#160;&#160;&#160;&#160;&#160;&#160;&#160;&#160;line)</text>
<text text-anchor="middle" x="1743.0809" y="-157.2002" font-family="Inconsolata" font-size="14.00" fill="#000000"> &#160;if link_content then</text>
<text text-anchor="middle" x="1743.0809" y="-141.8002" font-family="Inconsolata" font-size="14.00" fill="#000000"> &#160;&#160;&#160;link.prose = link_content[1] or &quot;&quot;</text>
<text text-anchor="middle" x="1743.0809" y="-126.4001" font-family="Inconsolata" font-size="14.00" fill="#000000"> &#160;&#160;&#160;link.url &#160;&#160;= link_content[2] or &quot;&quot;</text>
<text text-anchor="middle" x="1743.0809" y="-111.0001" font-family="Inconsolata" font-size="14.00" fill="#000000"> &#160;end</text>
<text text-anchor="middle" x="1743.0809" y="-95.6001" font-family="Inconsolata" font-size="14.00" fill="#000000"> &#160;return link</text>
<text text-anchor="middle" x="1743.0809" y="-80.2" font-family="Inconsolata" font-size="14.00" fill="#000000">end</text>
</g>
<!-- codeblock_27&#45;&gt;leaf_33 -->
<g id="edge33" class="edge">
<title>codeblock_27&#45;&gt;leaf_33</title>
<path fill="none" stroke="#000000" stroke-dasharray="5,2" d="M1687.6802,-300.6586C1690.7621,-293.3011 1694.5845,-284.1758 1698.7708,-274.1819"/>
<polygon fill="#000000" stroke="#000000" points="1702.0714,-275.3612 1702.7068,-264.7855 1695.6149,-272.6567 1702.0714,-275.3612"/>
</g>
<!-- leaf_34 -->
<g id="node35" class="node">
<title>leaf_34</title>
<polygon fill="none" stroke="#c0c0c0" points="2268.0809,-226.2006 2014.0809,-226.2006 2014.0809,-110.5998 2268.0809,-110.5998 2268.0809,-226.2006"/>
<text text-anchor="middle" x="2141.0809" y="-211.1003" font-family="Inconsolata" font-size="14.00" fill="#000000">local function new(Link, line)</text>
<text text-anchor="middle" x="2141.0809" y="-195.7003" font-family="Inconsolata" font-size="14.00" fill="#000000"> &#160;local link = setmetatable({},Li)</text>
<text text-anchor="middle" x="2141.0809" y="-180.3002" font-family="Inconsolata" font-size="14.00" fill="#000000"> &#160;link.id = &quot;link&quot;</text>
<text text-anchor="middle" x="2141.0809" y="-164.9002" font-family="Inconsolata" font-size="14.00" fill="#000000"> &#160;link.val = line &#45;&#45; refine this</text>
<text text-anchor="middle" x="2141.0809" y="-149.5002" font-family="Inconsolata" font-size="14.00" fill="#000000"> &#160;link:parse(line)</text>
<text text-anchor="middle" x="2141.0809" y="-134.1001" font-family="Inconsolata" font-size="14.00" fill="#000000"> &#160;return link</text>
<text text-anchor="middle" x="2141.0809" y="-118.7001" font-family="Inconsolata" font-size="14.00" fill="#000000">end</text>
</g>
<!-- codeblock_28&#45;&gt;leaf_34 -->
<g id="edge34" class="edge">
<title>codeblock_28&#45;&gt;leaf_34</title>
<path fill="none" stroke="#000000" stroke-dasharray="5,2" d="M2014.1651,-300.9569C2030.1675,-284.2432 2055.0804,-258.223 2078.6111,-233.6465"/>
<polygon fill="#000000" stroke="#000000" points="2081.1414,-236.0647 2085.529,-226.4211 2076.0852,-231.2237 2081.1414,-236.0647"/>
</g>
<!-- leaf_35 -->
<g id="node36" class="node">
<title>leaf_35</title>
<polygon fill="none" stroke="#c0c0c0" points="2687.5809,-210.9003 2286.5809,-210.9003 2286.5809,-125.9 2687.5809,-125.9 2687.5809,-210.9003"/>
<text text-anchor="middle" x="2487.0809" y="-195.7003" font-family="Inconsolata" font-size="14.00" fill="#000000">local function linkbuild(link, str)</text>
<text text-anchor="middle" x="2487.0809" y="-180.3002" font-family="Inconsolata" font-size="14.00" fill="#000000"> &#160;s:verb(&quot; &#160;&#160;~~ built a link&quot;)</text>
<text text-anchor="middle" x="2487.0809" y="-164.9002" font-family="Inconsolata" font-size="14.00" fill="#000000"> &#160;setmetatable(link, Li)</text>
<text text-anchor="middle" x="2487.0809" y="-149.5002" font-family="Inconsolata" font-size="14.00" fill="#000000"> &#160;return Li.parse(link, str:sub(link.first, link.last))</text>
<text text-anchor="middle" x="2487.0809" y="-134.1001" font-family="Inconsolata" font-size="14.00" fill="#000000">end</text>
</g>
<!-- codeblock_29&#45;&gt;leaf_35 -->
<g id="edge35" class="edge">
<title>codeblock_29&#45;&gt;leaf_35</title>
<path fill="none" stroke="#000000" stroke-dasharray="5,2" d="M2344.8647,-301.2532C2366.5054,-281.0373 2403.0175,-246.9291 2433.6265,-218.3352"/>
<polygon fill="#000000" stroke="#000000" points="2436.3504,-220.5803 2441.2687,-211.1962 2431.5719,-215.465 2436.3504,-220.5803"/>
</g>
<!-- leaf_31 -->
<g id="node32" class="node">
<title>leaf_31</title>
<polygon fill="none" stroke="#c0c0c0" points="1164.0809,-36 1110.0809,-36 1110.0809,0 1164.0809,0 1164.0809,-36"/>
</g>
<!-- raw_30&#45;&gt;leaf_31 -->
<g id="edge31" class="edge">
<title>raw_30&#45;&gt;leaf_31</title>
<path fill="none" stroke="#000000" stroke-dasharray="5,2" d="M1137.0809,-150.2584C1137.0809,-124.3997 1137.0809,-76.7046 1137.0809,-46.2108"/>
<polygon fill="#000000" stroke="#000000" points="1140.581,-46.2061 1137.0809,-36.2061 1133.581,-46.2062 1140.581,-46.2061"/>
</g>
<!-- raw_39 -->
<g id="node40" class="node">
<title>raw_39</title>
<ellipse fill="none" stroke="#000000" cx="2733.0809" cy="-168.4002" rx="27" ry="18"/>
<text text-anchor="middle" x="2733.0809" y="-164.2002" font-family="Helvetica,sans-Serif" font-size="14.00" fill="#000000">raw</text>
</g>
<!-- prose_37&#45;&gt;raw_39 -->
<g id="edge39" class="edge">
<title>prose_37&#45;&gt;raw_39</title>
<path fill="none" stroke="#000000" stroke-dasharray="5,2" d="M2721.649,-300.6586C2723.8841,-274.7998 2728.0067,-227.1048 2730.6425,-196.611"/>
<polygon fill="#000000" stroke="#000000" points="2734.133,-196.8706 2731.5072,-186.6063 2727.159,-196.2677 2734.133,-196.8706"/>
</g>
<!-- leaf_41 -->
<g id="node42" class="node">
<title>leaf_41</title>
<polygon fill="none" stroke="#c0c0c0" points="2912.0809,-186.4002 2784.0809,-186.4002 2784.0809,-150.4002 2912.0809,-150.4002 2912.0809,-186.4002"/>
<text text-anchor="middle" x="2848.0809" y="-164.9002" font-family="Inconsolata" font-size="14.00" fill="#000000">return linkbuild</text>
</g>
<!-- codeblock_38&#45;&gt;leaf_41 -->
<g id="edge41" class="edge">
<title>codeblock_38&#45;&gt;leaf_41</title>
<path fill="none" stroke="#000000" stroke-dasharray="5,2" d="M2848.0809,-300.6586C2848.0809,-274.7998 2848.0809,-227.1048 2848.0809,-196.611"/>
<polygon fill="#000000" stroke="#000000" points="2851.581,-196.6063 2848.0809,-186.6063 2844.581,-196.6063 2851.581,-196.6063"/>
</g>
<!-- leaf_40 -->
<g id="node41" class="node">
<title>leaf_40</title>
<polygon fill="none" stroke="#c0c0c0" points="2760.0809,-36 2706.0809,-36 2706.0809,0 2760.0809,0 2760.0809,-36"/>
</g>
<!-- raw_39&#45;&gt;leaf_40 -->
<g id="edge40" class="edge">
<title>raw_39&#45;&gt;leaf_40</title>
<path fill="none" stroke="#000000" stroke-dasharray="5,2" d="M2733.0809,-150.2584C2733.0809,-124.3997 2733.0809,-76.7046 2733.0809,-46.2108"/>
<polygon fill="#000000" stroke="#000000" points="2736.581,-46.2061 2733.0809,-36.2061 2729.581,-46.2062 2736.581,-46.2061"/>
</g>
</g>
</svg>