<?xml version="1.0" encoding="UTF-8" standalone="no"?>
<!DOCTYPE svg PUBLIC "-//W3C//DTD SVG 1.1//EN"
 "http://www.w3.org/Graphics/SVG/1.1/DTD/svg11.dtd">
<!-- Generated by graphviz version 2.40.1 (20161225.0304)
 -->
<!-- Title: hierarchy Pages: 1 -->
<svg width="3324pt" height="626pt"
 viewBox="0.00 0.00 3323.54 626.40" xmlns="http://www.w3.org/2000/svg" xmlns:xlink="http://www.w3.org/1999/xlink">
<g id="graph0" class="graph" transform="scale(1 1) rotate(0) translate(4 622.4005)">
<title>hierarchy</title>
<polygon fill="#ffffff" stroke="transparent" points="-4,4 -4,-622.4005 3319.5414,-622.4005 3319.5414,4 -4,4"/>
<!-- doc_0 -->
<g id="node1" class="node">
<title>doc_0</title>
<ellipse fill="none" stroke="#000000" cx="341.0809" cy="-600.4005" rx="42.1216" ry="18"/>
<text text-anchor="middle" x="341.0809" y="-596.2005" font-family="Helvetica,sans-Serif" font-size="14.00" fill="#000000">doc &#45; 79</text>
</g>
<!-- section_1 -->
<g id="node2" class="node">
<title>section_1</title>
<ellipse fill="none" stroke="#000000" cx="341.0809" cy="-528.4005" rx="60.9826" ry="18"/>
<text text-anchor="middle" x="341.0809" y="-524.2005" font-family="Helvetica,sans-Serif" font-size="14.00" fill="#000000">section: 1&#45;17</text>
</g>
<!-- doc_0&#45;&gt;section_1 -->
<g id="edge1" class="edge">
<title>doc_0&#45;&gt;section_1</title>
<path fill="none" stroke="#000000" stroke-dasharray="5,2" d="M341.0809,-582.2319C341.0809,-574.5315 341.0809,-565.3748 341.0809,-556.8171"/>
<polygon fill="#000000" stroke="#000000" points="344.581,-556.8137 341.0809,-546.8138 337.581,-556.8138 344.581,-556.8137"/>
</g>
<!-- header_2 -->
<g id="node3" class="node">
<title>header_2</title>
<ellipse fill="none" stroke="#000000" cx="70.0809" cy="-456.4005" rx="70.1619" ry="18"/>
<text text-anchor="middle" x="70.0809" y="-452.2005" font-family="Helvetica,sans-Serif" font-size="14.00" fill="#000000">1 : Link module</text>
</g>
<!-- section_1&#45;&gt;header_2 -->
<g id="edge2" class="edge">
<title>section_1&#45;&gt;header_2</title>
<path fill="none" stroke="#000000" stroke-dasharray="5,2" d="M295.7216,-516.3493C249.8119,-504.1519 178.6359,-485.2417 128.5234,-471.9277"/>
<polygon fill="#000000" stroke="#000000" points="129.359,-468.5283 118.7955,-469.3431 127.5615,-475.2936 129.359,-468.5283"/>
</g>
<!-- block_3 -->
<g id="node4" class="node">
<title>block_3</title>
<ellipse fill="none" stroke="#000000" cx="204.0809" cy="-456.4005" rx="45.9804" ry="18"/>
<text text-anchor="middle" x="204.0809" y="-452.2005" font-family="Helvetica,sans-Serif" font-size="14.00" fill="#000000">block 1&#45;2</text>
</g>
<!-- section_1&#45;&gt;block_3 -->
<g id="edge3" class="edge">
<title>section_1&#45;&gt;block_3</title>
<path fill="none" stroke="#000000" stroke-dasharray="5,2" d="M311.0157,-512.5998C290.3396,-501.7335 262.7561,-487.2371 240.7828,-475.6891"/>
<polygon fill="#000000" stroke="#000000" points="242.2259,-472.4936 231.7456,-470.9396 238.9694,-478.69 242.2259,-472.4936"/>
</g>
<!-- codeblock_4 -->
<g id="node5" class="node">
<title>codeblock_4</title>
<ellipse fill="none" stroke="#000000" cx="341.0809" cy="-456.4005" rx="72.5844" ry="18"/>
<text text-anchor="middle" x="341.0809" y="-452.2005" font-family="Helvetica,sans-Serif" font-size="14.00" fill="#000000">code block 3&#45;10</text>
</g>
<!-- section_1&#45;&gt;codeblock_4 -->
<g id="edge4" class="edge">
<title>section_1&#45;&gt;codeblock_4</title>
<path fill="none" stroke="#000000" stroke-dasharray="5,2" d="M341.0809,-510.2319C341.0809,-502.5315 341.0809,-493.3748 341.0809,-484.8171"/>
<polygon fill="#000000" stroke="#000000" points="344.581,-484.8137 341.0809,-474.8138 337.581,-484.8138 344.581,-484.8137"/>
</g>
<!-- codeblock_5 -->
<g id="node6" class="node">
<title>codeblock_5</title>
<ellipse fill="none" stroke="#000000" cx="554.0809" cy="-456.4005" rx="77.4211" ry="18"/>
<text text-anchor="middle" x="554.0809" y="-452.2005" font-family="Helvetica,sans-Serif" font-size="14.00" fill="#000000">code block 13&#45;16</text>
</g>
<!-- section_1&#45;&gt;codeblock_5 -->
<g id="edge5" class="edge">
<title>section_1&#45;&gt;codeblock_5</title>
<path fill="none" stroke="#000000" stroke-dasharray="5,2" d="M381.1446,-514.8579C414.8849,-503.4527 463.4376,-487.0405 500.5133,-474.5079"/>
<polygon fill="#000000" stroke="#000000" points="501.8065,-477.7654 510.1591,-471.2473 499.5648,-471.134 501.8065,-477.7654"/>
</g>
<!-- section_6 -->
<g id="node7" class="node">
<title>section_6</title>
<ellipse fill="none" stroke="#000000" cx="1007.0809" cy="-456.4005" rx="65.8187" ry="18"/>
<text text-anchor="middle" x="1007.0809" y="-452.2005" font-family="Helvetica,sans-Serif" font-size="14.00" fill="#000000">section: 18&#45;74</text>
</g>
<!-- section_1&#45;&gt;section_6 -->
<g id="edge6" class="edge">
<title>section_1&#45;&gt;section_6</title>
<path fill="none" stroke="#000000" stroke-dasharray="5,2" d="M398.1516,-522.2307C519.4346,-509.119 802.5898,-478.5076 935.6281,-464.1251"/>
<polygon fill="#000000" stroke="#000000" points="936.1489,-467.5893 945.7147,-463.0347 935.3965,-460.6299 936.1489,-467.5893"/>
</g>
<!-- leaf_7 -->
<g id="node8" class="node">
<title>leaf_7</title>
<polygon fill="none" stroke="#c0c0c0" points="97.0809,-369.6004 43.0809,-369.6004 43.0809,-333.6004 97.0809,-333.6004 97.0809,-369.6004"/>
</g>
<!-- header_2&#45;&gt;leaf_7 -->
<g id="edge7" class="edge">
<title>header_2&#45;&gt;leaf_7</title>
<path fill="none" stroke="#000000" stroke-dasharray="5,2" d="M70.0809,-438.1457C70.0809,-422.0662 70.0809,-398.3887 70.0809,-379.8624"/>
<polygon fill="#000000" stroke="#000000" points="73.581,-379.646 70.0809,-369.646 66.581,-379.6461 73.581,-379.646"/>
</g>
<!-- leaf_8 -->
<g id="node9" class="node">
<title>leaf_8</title>
<polygon fill="none" stroke="#c0c0c0" points="182.0809,-369.6004 128.0809,-369.6004 128.0809,-333.6004 182.0809,-333.6004 182.0809,-369.6004"/>
</g>
<!-- block_3&#45;&gt;leaf_8 -->
<g id="edge8" class="edge">
<title>block_3&#45;&gt;leaf_8</title>
<path fill="none" stroke="#000000" stroke-dasharray="5,2" d="M195.7687,-438.6226C188.1422,-422.3112 176.7278,-397.8983 167.928,-379.0776"/>
<polygon fill="#000000" stroke="#000000" points="171.0046,-377.3941 163.5985,-369.8178 164.6635,-380.359 171.0046,-377.3941"/>
</g>
<!-- leaf_9 -->
<g id="node10" class="node">
<title>leaf_9</title>
<polygon fill="none" stroke="#c0c0c0" points="454.0809,-402.2013 200.0809,-402.2013 200.0809,-300.9995 454.0809,-300.9995 454.0809,-402.2013"/>
<text text-anchor="middle" x="327.0809" y="-387.2005" font-family="Inconsolata" font-size="14.00" fill="#000000">local L = require &quot;lpeg&quot;</text>
<text text-anchor="middle" x="327.0809" y="-355.8005" font-family="Inconsolata" font-size="14.00" fill="#000000">local m = require &quot;grym/morphemes&quot;</text>
<text text-anchor="middle" x="327.0809" y="-340.4004" font-family="Inconsolata" font-size="14.00" fill="#000000">local u = require &quot;util&quot;</text>
<text text-anchor="middle" x="327.0809" y="-309.0004" font-family="Inconsolata" font-size="14.00" fill="#000000">local Node = require &quot;node/node&quot;</text>
</g>
<!-- codeblock_4&#45;&gt;leaf_9 -->
<g id="edge9" class="edge">
<title>codeblock_4&#45;&gt;leaf_9</title>
<path fill="none" stroke="#000000" stroke-dasharray="5,2" d="M338.6423,-438.1457C337.6642,-430.8243 336.4758,-421.9278 335.2376,-412.6595"/>
<polygon fill="#000000" stroke="#000000" points="338.6756,-411.9619 333.8822,-402.5135 331.7373,-412.8889 338.6756,-411.9619"/>
</g>
<!-- leaf_10 -->
<g id="node11" class="node">
<title>leaf_10</title>
<polygon fill="none" stroke="#c0c0c0" points="698.0809,-370.901 472.0809,-370.901 472.0809,-332.2999 698.0809,-332.2999 698.0809,-370.901"/>
<text text-anchor="middle" x="585.0809" y="-355.8005" font-family="Inconsolata" font-size="14.00" fill="#000000">local Li, li = u.inherit(Node)</text>
<text text-anchor="middle" x="585.0809" y="-340.4004" font-family="Inconsolata" font-size="14.00" fill="#000000">Li.id = &quot;link&quot;</text>
</g>
<!-- codeblock_5&#45;&gt;leaf_10 -->
<g id="edge10" class="edge">
<title>codeblock_5&#45;&gt;leaf_10</title>
<path fill="none" stroke="#000000" stroke-dasharray="5,2" d="M559.4807,-438.1457C564.1644,-422.3117 571.0275,-399.1102 576.4688,-380.7148"/>
<polygon fill="#000000" stroke="#000000" points="579.8423,-381.649 579.3227,-371.0669 573.1298,-379.6634 579.8423,-381.649"/>
</g>
<!-- header_11 -->
<g id="node12" class="node">
<title>header_11</title>
<ellipse fill="none" stroke="#000000" cx="790.0809" cy="-351.6004" rx="74.488" ry="18"/>
<text text-anchor="middle" x="790.0809" y="-347.4004" font-family="Helvetica,sans-Serif" font-size="14.00" fill="#000000">2 : Transformers</text>
</g>
<!-- section_6&#45;&gt;header_11 -->
<g id="edge11" class="edge">
<title>section_6&#45;&gt;header_11</title>
<path fill="none" stroke="#000000" stroke-dasharray="5,2" d="M966.7375,-442.145C939.7307,-432.119 903.6647,-417.7883 873.0809,-402.4005 856.5836,-394.1001 839.0416,-383.6258 824.3551,-374.3477"/>
<polygon fill="#000000" stroke="#000000" points="825.9242,-371.1966 815.6145,-368.7554 822.1516,-377.093 825.9242,-371.1966"/>
</g>
<!-- block_12 -->
<g id="node13" class="node">
<title>block_12</title>
<ellipse fill="none" stroke="#000000" cx="938.0809" cy="-351.6004" rx="55.6542" ry="18"/>
<text text-anchor="middle" x="938.0809" y="-347.4004" font-family="Helvetica,sans-Serif" font-size="14.00" fill="#000000">block 18&#45;74</text>
</g>
<!-- section_6&#45;&gt;block_12 -->
<g id="edge12" class="edge">
<title>section_6&#45;&gt;block_12</title>
<path fill="none" stroke="#000000" stroke-dasharray="5,2" d="M995.376,-438.6226C984.4225,-421.9859 967.9201,-396.9214 955.4348,-377.9583"/>
<polygon fill="#000000" stroke="#000000" points="958.2656,-375.8931 949.8432,-369.4655 952.4191,-379.7425 958.2656,-375.8931"/>
</g>
<!-- section_13 -->
<g id="node14" class="node">
<title>section_13</title>
<ellipse fill="none" stroke="#000000" cx="1077.0809" cy="-351.6004" rx="65.8187" ry="18"/>
<text text-anchor="middle" x="1077.0809" y="-347.4004" font-family="Helvetica,sans-Serif" font-size="14.00" fill="#000000">section: 20&#45;30</text>
</g>
<!-- section_6&#45;&gt;section_13 -->
<g id="edge13" class="edge">
<title>section_6&#45;&gt;section_13</title>
<path fill="none" stroke="#000000" stroke-dasharray="5,2" d="M1018.9554,-438.6226C1030.0677,-421.9859 1046.8093,-396.9214 1059.4754,-377.9583"/>
<polygon fill="#000000" stroke="#000000" points="1062.5042,-379.7252 1065.1481,-369.4655 1056.6833,-375.8372 1062.5042,-379.7252"/>
</g>
<!-- section_14 -->
<g id="node15" class="node">
<title>section_14</title>
<ellipse fill="none" stroke="#000000" cx="1661.0809" cy="-351.6004" rx="65.8187" ry="18"/>
<text text-anchor="middle" x="1661.0809" y="-347.4004" font-family="Helvetica,sans-Serif" font-size="14.00" fill="#000000">section: 31&#45;74</text>
</g>
<!-- section_6&#45;&gt;section_14 -->
<g id="edge14" class="edge">
<title>section_6&#45;&gt;section_14</title>
<path fill="none" stroke="#000000" stroke-dasharray="5,2" d="M1063.975,-447.2835C1184.5515,-427.9618 1465.2756,-382.9772 1594.1861,-362.32"/>
<polygon fill="#000000" stroke="#000000" points="1594.9989,-365.7345 1604.3191,-360.6962 1593.8912,-358.8227 1594.9989,-365.7345"/>
</g>
<!-- section_15 -->
<g id="node16" class="node">
<title>section_15</title>
<ellipse fill="none" stroke="#000000" cx="3026.0809" cy="-351.6004" rx="65.8187" ry="18"/>
<text text-anchor="middle" x="3026.0809" y="-347.4004" font-family="Helvetica,sans-Serif" font-size="14.00" fill="#000000">section: 75&#45;79</text>
</g>
<!-- section_6&#45;&gt;section_15 -->
<g id="edge15" class="edge">
<title>section_6&#45;&gt;section_15</title>
<path fill="none" stroke="#000000" stroke-dasharray="5,2" d="M1071.6866,-453.047C1371.9727,-437.4601 2630.2491,-372.1468 2951.2752,-355.4834"/>
<polygon fill="#000000" stroke="#000000" points="2951.594,-358.9716 2961.3991,-354.9579 2951.2311,-351.981 2951.594,-358.9716"/>
</g>
<!-- leaf_16 -->
<g id="node17" class="node">
<title>leaf_16</title>
<polygon fill="none" stroke="#c0c0c0" points="772.0809,-264.8004 718.0809,-264.8004 718.0809,-228.8004 772.0809,-228.8004 772.0809,-264.8004"/>
</g>
<!-- header_11&#45;&gt;leaf_16 -->
<g id="edge16" class="edge">
<title>header_11&#45;&gt;leaf_16</title>
<path fill="none" stroke="#000000" stroke-dasharray="5,2" d="M782.2425,-333.3457C775.2413,-317.0407 764.8856,-292.9233 756.883,-274.2863"/>
<polygon fill="#000000" stroke="#000000" points="759.9911,-272.6537 752.8295,-264.846 753.559,-275.4157 759.9911,-272.6537"/>
</g>
<!-- leaf_17 -->
<g id="node18" class="node">
<title>leaf_17</title>
<polygon fill="none" stroke="#c0c0c0" points="844.0809,-264.8004 790.0809,-264.8004 790.0809,-228.8004 844.0809,-228.8004 844.0809,-264.8004"/>
</g>
<!-- block_12&#45;&gt;leaf_17 -->
<g id="edge17" class="edge">
<title>block_12&#45;&gt;leaf_17</title>
<path fill="none" stroke="#000000" stroke-dasharray="5,2" d="M918.3709,-334.5293C898.689,-317.4825 868.2266,-291.0985 845.8459,-271.7142"/>
<polygon fill="#000000" stroke="#000000" points="847.8514,-268.821 838.001,-264.9196 843.2686,-274.1122 847.8514,-268.821"/>
</g>
<!-- header_18 -->
<g id="node19" class="node">
<title>header_18</title>
<ellipse fill="none" stroke="#000000" cx="933.0809" cy="-246.8004" rx="70.6291" ry="18"/>
<text text-anchor="middle" x="933.0809" y="-242.6004" font-family="Helvetica,sans-Serif" font-size="14.00" fill="#000000">3 : toMarkdown</text>
</g>
<!-- section_13&#45;&gt;header_18 -->
<g id="edge18" class="edge">
<title>section_13&#45;&gt;header_18</title>
<path fill="none" stroke="#000000" stroke-dasharray="5,2" d="M1053.6243,-334.5293C1029.4616,-316.9442 991.646,-289.4228 964.8198,-269.8993"/>
<polygon fill="#000000" stroke="#000000" points="966.6724,-266.9188 956.5274,-263.8643 962.5533,-272.5786 966.6724,-266.9188"/>
</g>
<!-- block_19 -->
<g id="node20" class="node">
<title>block_19</title>
<ellipse fill="none" stroke="#000000" cx="1077.0809" cy="-246.8004" rx="55.6542" ry="18"/>
<text text-anchor="middle" x="1077.0809" y="-242.6004" font-family="Helvetica,sans-Serif" font-size="14.00" fill="#000000">block 20&#45;21</text>
</g>
<!-- section_13&#45;&gt;block_19 -->
<g id="edge19" class="edge">
<title>section_13&#45;&gt;block_19</title>
<path fill="none" stroke="#000000" stroke-dasharray="5,2" d="M1077.0809,-333.3457C1077.0809,-317.2661 1077.0809,-293.5886 1077.0809,-275.0623"/>
<polygon fill="#000000" stroke="#000000" points="1080.581,-274.8459 1077.0809,-264.846 1073.581,-274.846 1080.581,-274.8459"/>
</g>
<!-- codeblock_20 -->
<g id="node21" class="node">
<title>codeblock_20</title>
<ellipse fill="none" stroke="#000000" cx="1228.0809" cy="-246.8004" rx="77.4211" ry="18"/>
<text text-anchor="middle" x="1228.0809" y="-242.6004" font-family="Helvetica,sans-Serif" font-size="14.00" fill="#000000">code block 22&#45;29</text>
</g>
<!-- section_13&#45;&gt;codeblock_20 -->
<g id="edge20" class="edge">
<title>section_13&#45;&gt;codeblock_20</title>
<path fill="none" stroke="#000000" stroke-dasharray="5,2" d="M1101.3417,-334.7625C1126.7271,-317.144 1166.7454,-289.3697 1195.0126,-269.7511"/>
<polygon fill="#000000" stroke="#000000" points="1197.159,-272.5218 1203.3787,-263.9447 1193.1678,-266.7711 1197.159,-272.5218"/>
</g>
<!-- header_24 -->
<g id="node25" class="node">
<title>header_24</title>
<ellipse fill="none" stroke="#000000" cx="1380.0809" cy="-246.8004" rx="56.156" ry="18"/>
<text text-anchor="middle" x="1380.0809" y="-242.6004" font-family="Helvetica,sans-Serif" font-size="14.00" fill="#000000">3 : dotLabel</text>
</g>
<!-- section_14&#45;&gt;header_24 -->
<g id="edge24" class="edge">
<title>section_14&#45;&gt;header_24</title>
<path fill="none" stroke="#000000" stroke-dasharray="5,2" d="M1622.009,-337.0284C1570.7949,-317.9279 1481.0812,-284.4688 1426.4739,-264.1028"/>
<polygon fill="#000000" stroke="#000000" points="1427.626,-260.7971 1417.0334,-260.5819 1425.1799,-267.3558 1427.626,-260.7971"/>
</g>
<!-- block_25 -->
<g id="node26" class="node">
<title>block_25</title>
<ellipse fill="none" stroke="#000000" cx="1510.0809" cy="-246.8004" rx="55.6542" ry="18"/>
<text text-anchor="middle" x="1510.0809" y="-242.6004" font-family="Helvetica,sans-Serif" font-size="14.00" fill="#000000">block 31&#45;32</text>
</g>
<!-- section_14&#45;&gt;block_25 -->
<g id="edge25" class="edge">
<title>section_14&#45;&gt;block_25</title>
<path fill="none" stroke="#000000" stroke-dasharray="5,2" d="M1636.8201,-334.7625C1611.1325,-316.9342 1570.4615,-288.707 1542.1447,-269.0539"/>
<polygon fill="#000000" stroke="#000000" points="1543.9945,-266.0774 1533.7836,-263.251 1540.0033,-271.8281 1543.9945,-266.0774"/>
</g>
<!-- codeblock_26 -->
<g id="node27" class="node">
<title>codeblock_26</title>
<ellipse fill="none" stroke="#000000" cx="1661.0809" cy="-246.8004" rx="77.4211" ry="18"/>
<text text-anchor="middle" x="1661.0809" y="-242.6004" font-family="Helvetica,sans-Serif" font-size="14.00" fill="#000000">code block 33&#45;37</text>
</g>
<!-- section_14&#45;&gt;codeblock_26 -->
<g id="edge26" class="edge">
<title>section_14&#45;&gt;codeblock_26</title>
<path fill="none" stroke="#000000" stroke-dasharray="5,2" d="M1661.0809,-333.3457C1661.0809,-317.2661 1661.0809,-293.5886 1661.0809,-275.0623"/>
<polygon fill="#000000" stroke="#000000" points="1664.581,-274.8459 1661.0809,-264.846 1657.581,-274.846 1664.581,-274.8459"/>
</g>
<!-- codeblock_27 -->
<g id="node28" class="node">
<title>codeblock_27</title>
<ellipse fill="none" stroke="#000000" cx="1918.0809" cy="-246.8004" rx="77.4211" ry="18"/>
<text text-anchor="middle" x="1918.0809" y="-242.6004" font-family="Helvetica,sans-Serif" font-size="14.00" fill="#000000">code block 39&#45;52</text>
</g>
<!-- section_14&#45;&gt;codeblock_27 -->
<g id="edge27" class="edge">
<title>section_14&#45;&gt;codeblock_27</title>
<path fill="none" stroke="#000000" stroke-dasharray="5,2" d="M1697.9027,-336.5851C1743.2788,-318.0816 1820.4789,-286.6007 1870.3606,-266.2599"/>
<polygon fill="#000000" stroke="#000000" points="1871.7107,-269.4892 1879.6488,-262.4723 1869.0675,-263.0074 1871.7107,-269.4892"/>
</g>
<!-- codeblock_28 -->
<g id="node29" class="node">
<title>codeblock_28</title>
<ellipse fill="none" stroke="#000000" cx="2245.0809" cy="-246.8004" rx="77.4211" ry="18"/>
<text text-anchor="middle" x="2245.0809" y="-242.6004" font-family="Helvetica,sans-Serif" font-size="14.00" fill="#000000">code block 56&#45;64</text>
</g>
<!-- section_14&#45;&gt;codeblock_28 -->
<g id="edge28" class="edge">
<title>section_14&#45;&gt;codeblock_28</title>
<path fill="none" stroke="#000000" stroke-dasharray="5,2" d="M1716.0222,-341.7411C1822.2443,-322.6793 2055.686,-280.7877 2173.7315,-259.6042"/>
<polygon fill="#000000" stroke="#000000" points="2174.5285,-263.0172 2183.753,-257.8058 2173.292,-256.1272 2174.5285,-263.0172"/>
</g>
<!-- codeblock_29 -->
<g id="node30" class="node">
<title>codeblock_29</title>
<ellipse fill="none" stroke="#000000" cx="2582.0809" cy="-246.8004" rx="77.4211" ry="18"/>
<text text-anchor="middle" x="2582.0809" y="-242.6004" font-family="Helvetica,sans-Serif" font-size="14.00" fill="#000000">code block 67&#45;73</text>
</g>
<!-- section_14&#45;&gt;codeblock_29 -->
<g id="edge29" class="edge">
<title>section_14&#45;&gt;codeblock_29</title>
<path fill="none" stroke="#000000" stroke-dasharray="5,2" d="M1721.8665,-344.6837C1883.0199,-326.3461 2321.2116,-276.4845 2502.2134,-255.8885"/>
<polygon fill="#000000" stroke="#000000" points="2502.6596,-259.3604 2512.1998,-254.7521 2501.8681,-252.4052 2502.6596,-259.3604"/>
</g>
<!-- header_36 -->
<g id="node37" class="node">
<title>header_36</title>
<ellipse fill="none" stroke="#000000" cx="2966.0809" cy="-246.8004" rx="46.9495" ry="18"/>
<text text-anchor="middle" x="2966.0809" y="-242.6004" font-family="Helvetica,sans-Serif" font-size="14.00" fill="#000000">3 : export</text>
</g>
<!-- section_15&#45;&gt;header_36 -->
<g id="edge36" class="edge">
<title>section_15&#45;&gt;header_36</title>
<path fill="none" stroke="#000000" stroke-dasharray="5,2" d="M3015.6297,-333.3457C3006.1513,-316.7901 2992.0616,-292.1801 2981.3273,-273.4308"/>
<polygon fill="#000000" stroke="#000000" points="2984.2184,-271.4361 2976.2124,-264.4968 2978.1436,-274.9141 2984.2184,-271.4361"/>
</g>
<!-- block_37 -->
<g id="node38" class="node">
<title>block_37</title>
<ellipse fill="none" stroke="#000000" cx="3087.0809" cy="-246.8004" rx="55.6542" ry="18"/>
<text text-anchor="middle" x="3087.0809" y="-242.6004" font-family="Helvetica,sans-Serif" font-size="14.00" fill="#000000">block 75&#45;76</text>
</g>
<!-- section_15&#45;&gt;block_37 -->
<g id="edge37" class="edge">
<title>section_15&#45;&gt;block_37</title>
<path fill="none" stroke="#000000" stroke-dasharray="5,2" d="M3036.4287,-333.8225C3046.0684,-317.2611 3060.5694,-292.348 3071.5889,-273.4161"/>
<polygon fill="#000000" stroke="#000000" points="3074.6767,-275.0688 3076.6823,-264.6655 3068.6269,-271.5474 3074.6767,-275.0688"/>
</g>
<!-- codeblock_38 -->
<g id="node39" class="node">
<title>codeblock_38</title>
<ellipse fill="none" stroke="#000000" cx="3238.0809" cy="-246.8004" rx="77.4211" ry="18"/>
<text text-anchor="middle" x="3238.0809" y="-242.6004" font-family="Helvetica,sans-Serif" font-size="14.00" fill="#000000">code block 77&#45;79</text>
</g>
<!-- section_15&#45;&gt;codeblock_38 -->
<g id="edge38" class="edge">
<title>section_15&#45;&gt;codeblock_38</title>
<path fill="none" stroke="#000000" stroke-dasharray="5,2" d="M3058.2791,-335.6836C3095.0311,-317.5156 3155.2813,-287.7315 3195.7924,-267.7053"/>
<polygon fill="#000000" stroke="#000000" points="3197.466,-270.7823 3204.8794,-263.2132 3194.3639,-264.5072 3197.466,-270.7823"/>
</g>
<!-- leaf_21 -->
<g id="node22" class="node">
<title>leaf_21</title>
<polygon fill="none" stroke="#c0c0c0" points="960.0809,-114.4002 906.0809,-114.4002 906.0809,-78.4002 960.0809,-78.4002 960.0809,-114.4002"/>
</g>
<!-- header_18&#45;&gt;leaf_21 -->
<g id="edge21" class="edge">
<title>header_18&#45;&gt;leaf_21</title>
<path fill="none" stroke="#000000" stroke-dasharray="5,2" d="M933.0809,-228.6586C933.0809,-202.7998 933.0809,-155.1048 933.0809,-124.611"/>
<polygon fill="#000000" stroke="#000000" points="936.581,-124.6063 933.0809,-114.6063 929.581,-124.6063 936.581,-124.6063"/>
</g>
<!-- leaf_22 -->
<g id="node23" class="node">
<title>leaf_22</title>
<polygon fill="none" stroke="#c0c0c0" points="1104.0809,-114.4002 1050.0809,-114.4002 1050.0809,-78.4002 1104.0809,-78.4002 1104.0809,-114.4002"/>
</g>
<!-- block_19&#45;&gt;leaf_22 -->
<g id="edge22" class="edge">
<title>block_19&#45;&gt;leaf_22</title>
<path fill="none" stroke="#000000" stroke-dasharray="5,2" d="M1077.0809,-228.6586C1077.0809,-202.7998 1077.0809,-155.1048 1077.0809,-124.611"/>
<polygon fill="#000000" stroke="#000000" points="1080.581,-124.6063 1077.0809,-114.6063 1073.581,-124.6063 1080.581,-124.6063"/>
</g>
<!-- leaf_23 -->
<g id="node24" class="node">
<title>leaf_23</title>
<polygon fill="none" stroke="#c0c0c0" points="1334.0809,-146.8012 1122.0809,-146.8012 1122.0809,-45.9992 1334.0809,-45.9992 1334.0809,-146.8012"/>
<text text-anchor="middle" x="1228.0809" y="-131.4003" font-family="Inconsolata" font-size="14.00" fill="#000000">function Li.toMarkdown(link)</text>
<text text-anchor="middle" x="1228.0809" y="-116.0002" font-family="Inconsolata" font-size="14.00" fill="#000000"> &#160;url = link.url or &quot;&quot;</text>
<text text-anchor="middle" x="1228.0809" y="-100.6002" font-family="Inconsolata" font-size="14.00" fill="#000000"> &#160;prose = link.prose or &quot;&quot;</text>
<text text-anchor="middle" x="1228.0809" y="-85.2002" font-family="Inconsolata" font-size="14.00" fill="#000000"> &#160;return &quot;[&quot; .. prose .. &quot;]&quot;</text>
<text text-anchor="middle" x="1228.0809" y="-69.8002" font-family="Inconsolata" font-size="14.00" fill="#000000"> &#160;&#160;&#160;&#160;&#160;.. &quot;(&quot; .. url .. &quot;)&quot;</text>
<text text-anchor="middle" x="1228.0809" y="-54.4001" font-family="Inconsolata" font-size="14.00" fill="#000000">end</text>
</g>
<!-- codeblock_20&#45;&gt;leaf_23 -->
<g id="edge23" class="edge">
<title>codeblock_20&#45;&gt;leaf_23</title>
<path fill="none" stroke="#000000" stroke-dasharray="5,2" d="M1228.0809,-228.6586C1228.0809,-210.8636 1228.0809,-182.7276 1228.0809,-156.9726"/>
<polygon fill="#000000" stroke="#000000" points="1231.581,-156.8718 1228.0809,-146.8719 1224.581,-156.8719 1231.581,-156.8718"/>
</g>
<!-- leaf_30 -->
<g id="node31" class="node">
<title>leaf_30</title>
<polygon fill="none" stroke="#c0c0c0" points="1406.0809,-114.4002 1352.0809,-114.4002 1352.0809,-78.4002 1406.0809,-78.4002 1406.0809,-114.4002"/>
</g>
<!-- header_24&#45;&gt;leaf_30 -->
<g id="edge30" class="edge">
<title>header_24&#45;&gt;leaf_30</title>
<path fill="none" stroke="#000000" stroke-dasharray="5,2" d="M1379.9603,-228.6586C1379.7883,-202.7998 1379.4712,-155.1048 1379.2685,-124.611"/>
<polygon fill="#000000" stroke="#000000" points="1382.7685,-124.5828 1379.2019,-114.6063 1375.7686,-124.6294 1382.7685,-124.5828"/>
</g>
<!-- leaf_31 -->
<g id="node32" class="node">
<title>leaf_31</title>
<polygon fill="none" stroke="#c0c0c0" points="1478.0809,-114.4002 1424.0809,-114.4002 1424.0809,-78.4002 1478.0809,-78.4002 1478.0809,-114.4002"/>
</g>
<!-- block_25&#45;&gt;leaf_31 -->
<g id="edge31" class="edge">
<title>block_25&#45;&gt;leaf_31</title>
<path fill="none" stroke="#000000" stroke-dasharray="5,2" d="M1502.2096,-228.8848C1497.6692,-218.4129 1491.9192,-204.9129 1487.0809,-192.8004 1477.8823,-169.772 1468.0752,-143.3755 1461.0238,-124.0333"/>
<polygon fill="#000000" stroke="#000000" points="1464.3077,-122.8222 1457.6053,-114.6168 1457.7279,-125.2109 1464.3077,-122.8222"/>
</g>
<!-- leaf_32 -->
<g id="node33" class="node">
<title>leaf_32</title>
<polygon fill="none" stroke="#c0c0c0" points="1729.5809,-123.6007 1496.5809,-123.6007 1496.5809,-69.1997 1729.5809,-69.1997 1729.5809,-123.6007"/>
<text text-anchor="middle" x="1613.0809" y="-108.3002" font-family="Inconsolata" font-size="14.00" fill="#000000">function Li.dotLabel(link)</text>
<text text-anchor="middle" x="1613.0809" y="-92.9002" font-family="Inconsolata" font-size="14.00" fill="#000000"> &#160;return &quot;link: &quot; .. link.prose</text>
<text text-anchor="middle" x="1613.0809" y="-77.5002" font-family="Inconsolata" font-size="14.00" fill="#000000">end</text>
</g>
<!-- codeblock_26&#45;&gt;leaf_32 -->
<g id="edge32" class="edge">
<title>codeblock_26&#45;&gt;leaf_32</title>
<path fill="none" stroke="#000000" stroke-dasharray="5,2" d="M1655.291,-228.6586C1647.7862,-205.1437 1634.5186,-163.5716 1624.8567,-133.2978"/>
<polygon fill="#000000" stroke="#000000" points="1628.1066,-131.969 1621.7319,-123.5066 1621.438,-134.0974 1628.1066,-131.969"/>
</g>
<!-- leaf_33 -->
<g id="node34" class="node">
<title>leaf_33</title>
<polygon fill="none" stroke="#c0c0c0" points="2254.0809,-192.7007 1748.0809,-192.7007 1748.0809,-.0997 2254.0809,-.0997 2254.0809,-192.7007"/>
<text text-anchor="middle" x="2001.0809" y="-177.6004" font-family="Inconsolata" font-size="14.00" fill="#000000">function Li.parse(link, line)</text>
<text text-anchor="middle" x="2001.0809" y="-162.2003" font-family="Inconsolata" font-size="14.00" fill="#000000"> &#160;&#45;&#45; This only parses double links, expand</text>
<text text-anchor="middle" x="2001.0809" y="-146.8003" font-family="Inconsolata" font-size="14.00" fill="#000000"> &#160;local WS, sel, ser = m.WS, m.sel, m.ser</text>
<text text-anchor="middle" x="2001.0809" y="-131.4003" font-family="Inconsolata" font-size="14.00" fill="#000000"> &#160;local link_content = L.match(L.Ct(sel * WS * sel * L.C(m.link_prose)</text>
<text text-anchor="middle" x="2001.0809" y="-116.0002" font-family="Inconsolata" font-size="14.00" fill="#000000"> &#160;&#160;&#160;&#160;&#160;&#160;&#160;&#160;&#160;&#160;&#160;&#160;&#160;&#160;&#160;* ser * WS * sel * L.C(m.url) * WS * ser * WS * ser),</text>
<text text-anchor="middle" x="2001.0809" y="-100.6002" font-family="Inconsolata" font-size="14.00" fill="#000000"> &#160;&#160;&#160;&#160;&#160;&#160;&#160;&#160;&#160;&#160;&#160;&#160;&#160;&#160;&#160;line)</text>
<text text-anchor="middle" x="2001.0809" y="-85.2002" font-family="Inconsolata" font-size="14.00" fill="#000000"> &#160;if link_content then</text>
<text text-anchor="middle" x="2001.0809" y="-69.8002" font-family="Inconsolata" font-size="14.00" fill="#000000"> &#160;&#160;&#160;link.prose = link_content[1] or &quot;&quot;</text>
<text text-anchor="middle" x="2001.0809" y="-54.4001" font-family="Inconsolata" font-size="14.00" fill="#000000"> &#160;&#160;&#160;link.url &#160;&#160;= link_content[2] or &quot;&quot;</text>
<text text-anchor="middle" x="2001.0809" y="-39.0001" font-family="Inconsolata" font-size="14.00" fill="#000000"> &#160;end</text>
<text text-anchor="middle" x="2001.0809" y="-23.6001" font-family="Inconsolata" font-size="14.00" fill="#000000"> &#160;return link</text>
<text text-anchor="middle" x="2001.0809" y="-8.2" font-family="Inconsolata" font-size="14.00" fill="#000000">end</text>
</g>
<!-- codeblock_27&#45;&gt;leaf_33 -->
<g id="edge33" class="edge">
<title>codeblock_27&#45;&gt;leaf_33</title>
<path fill="none" stroke="#000000" stroke-dasharray="5,2" d="M1928.0926,-228.6586C1932.2358,-221.1509 1937.3948,-211.8026 1943.0424,-201.569"/>
<polygon fill="#000000" stroke="#000000" points="1946.1222,-203.2319 1947.8896,-192.7855 1939.9935,-199.8496 1946.1222,-203.2319"/>
</g>
<!-- leaf_34 -->
<g id="node35" class="node">
<title>leaf_34</title>
<polygon fill="none" stroke="#c0c0c0" points="2526.0809,-154.2006 2272.0809,-154.2006 2272.0809,-38.5998 2526.0809,-38.5998 2526.0809,-154.2006"/>
<text text-anchor="middle" x="2399.0809" y="-139.1003" font-family="Inconsolata" font-size="14.00" fill="#000000">local function new(Link, line)</text>
<text text-anchor="middle" x="2399.0809" y="-123.7003" font-family="Inconsolata" font-size="14.00" fill="#000000"> &#160;local link = setmetatable({},Li)</text>
<text text-anchor="middle" x="2399.0809" y="-108.3002" font-family="Inconsolata" font-size="14.00" fill="#000000"> &#160;link.id = &quot;link&quot;</text>
<text text-anchor="middle" x="2399.0809" y="-92.9002" font-family="Inconsolata" font-size="14.00" fill="#000000"> &#160;link.val = line &#45;&#45; refine this</text>
<text text-anchor="middle" x="2399.0809" y="-77.5002" font-family="Inconsolata" font-size="14.00" fill="#000000"> &#160;link:parse(line)</text>
<text text-anchor="middle" x="2399.0809" y="-62.1001" font-family="Inconsolata" font-size="14.00" fill="#000000"> &#160;return link</text>
<text text-anchor="middle" x="2399.0809" y="-46.7001" font-family="Inconsolata" font-size="14.00" fill="#000000">end</text>
</g>
<!-- codeblock_28&#45;&gt;leaf_34 -->
<g id="edge34" class="edge">
<title>codeblock_28&#45;&gt;leaf_34</title>
<path fill="none" stroke="#000000" stroke-dasharray="5,2" d="M2263.048,-229.2532C2280.1628,-212.5385 2307.0019,-186.3268 2332.3337,-161.5871"/>
<polygon fill="#000000" stroke="#000000" points="2335.0718,-163.8053 2339.7805,-154.3144 2330.1809,-158.7974 2335.0718,-163.8053"/>
</g>
<!-- leaf_35 -->
<g id="node36" class="node">
<title>leaf_35</title>
<polygon fill="none" stroke="#c0c0c0" points="2945.5809,-138.9003 2544.5809,-138.9003 2544.5809,-53.9 2945.5809,-53.9 2945.5809,-138.9003"/>
<text text-anchor="middle" x="2745.0809" y="-123.7003" font-family="Inconsolata" font-size="14.00" fill="#000000">local function linkbuild(link, str)</text>
<text text-anchor="middle" x="2745.0809" y="-108.3002" font-family="Inconsolata" font-size="14.00" fill="#000000"> &#160;io.write(&quot; &#160;&#160;~~ built a link\n&quot;)</text>
<text text-anchor="middle" x="2745.0809" y="-92.9002" font-family="Inconsolata" font-size="14.00" fill="#000000"> &#160;setmetatable(link, Li)</text>
<text text-anchor="middle" x="2745.0809" y="-77.5002" font-family="Inconsolata" font-size="14.00" fill="#000000"> &#160;return Li.parse(link, str:sub(link.first, link.last))</text>
<text text-anchor="middle" x="2745.0809" y="-62.1001" font-family="Inconsolata" font-size="14.00" fill="#000000">end</text>
</g>
<!-- codeblock_29&#45;&gt;leaf_35 -->
<g id="edge35" class="edge">
<title>codeblock_29&#45;&gt;leaf_35</title>
<path fill="none" stroke="#000000" stroke-dasharray="5,2" d="M2601.0981,-229.2532C2623.0076,-209.0373 2659.9732,-174.9291 2690.9625,-146.3352"/>
<polygon fill="#000000" stroke="#000000" points="2693.7236,-148.5499 2698.6996,-139.1962 2688.9767,-143.4053 2693.7236,-148.5499"/>
</g>
<!-- leaf_39 -->
<g id="node40" class="node">
<title>leaf_39</title>
<polygon fill="none" stroke="#c0c0c0" points="3018.0809,-114.4002 2964.0809,-114.4002 2964.0809,-78.4002 3018.0809,-78.4002 3018.0809,-114.4002"/>
</g>
<!-- header_36&#45;&gt;leaf_39 -->
<g id="edge39" class="edge">
<title>header_36&#45;&gt;leaf_39</title>
<path fill="none" stroke="#000000" stroke-dasharray="5,2" d="M2969.0965,-228.6586C2973.3948,-202.7998 2981.3228,-155.1048 2986.3916,-124.611"/>
<polygon fill="#000000" stroke="#000000" points="2989.8674,-125.0449 2988.0546,-114.6063 2982.9622,-123.897 2989.8674,-125.0449"/>
</g>
<!-- leaf_40 -->
<g id="node41" class="node">
<title>leaf_40</title>
<polygon fill="none" stroke="#c0c0c0" points="3114.0809,-114.4002 3060.0809,-114.4002 3060.0809,-78.4002 3114.0809,-78.4002 3114.0809,-114.4002"/>
</g>
<!-- block_37&#45;&gt;leaf_40 -->
<g id="edge40" class="edge">
<title>block_37&#45;&gt;leaf_40</title>
<path fill="none" stroke="#000000" stroke-dasharray="5,2" d="M3087.0809,-228.6586C3087.0809,-202.7998 3087.0809,-155.1048 3087.0809,-124.611"/>
<polygon fill="#000000" stroke="#000000" points="3090.581,-124.6063 3087.0809,-114.6063 3083.581,-124.6063 3090.581,-124.6063"/>
</g>
<!-- leaf_41 -->
<g id="node42" class="node">
<title>leaf_41</title>
<polygon fill="none" stroke="#c0c0c0" points="3302.0809,-114.4002 3174.0809,-114.4002 3174.0809,-78.4002 3302.0809,-78.4002 3302.0809,-114.4002"/>
<text text-anchor="middle" x="3238.0809" y="-92.9002" font-family="Inconsolata" font-size="14.00" fill="#000000">return linkbuild</text>
</g>
<!-- codeblock_38&#45;&gt;leaf_41 -->
<g id="edge41" class="edge">
<title>codeblock_38&#45;&gt;leaf_41</title>
<path fill="none" stroke="#000000" stroke-dasharray="5,2" d="M3238.0809,-228.6586C3238.0809,-202.7998 3238.0809,-155.1048 3238.0809,-124.611"/>
<polygon fill="#000000" stroke="#000000" points="3241.581,-124.6063 3238.0809,-114.6063 3234.581,-124.6063 3241.581,-124.6063"/>
</g>
</g>
</svg>