<?xml version="1.0" encoding="UTF-8" standalone="no"?>
<!DOCTYPE svg PUBLIC "-//W3C//DTD SVG 1.1//EN"
 "http://www.w3.org/Graphics/SVG/1.1/DTD/svg11.dtd">
<!-- Generated by graphviz version 2.40.1 (20161225.0304)
 -->
<!-- Title: hierarchy Pages: 1 -->
<svg width="3020pt" height="714pt"
 viewBox="0.00 0.00 3019.54 713.80" xmlns="http://www.w3.org/2000/svg" xmlns:xlink="http://www.w3.org/1999/xlink">
<g id="graph0" class="graph" transform="scale(1 1) rotate(0) translate(4 709.8005)">
<title>hierarchy</title>
<polygon fill="#ffffff" stroke="transparent" points="-4,4 -4,-709.8005 3015.5414,-709.8005 3015.5414,4 -4,4"/>
<!-- doc_0 -->
<g id="node1" class="node">
<title>doc_0</title>
<ellipse fill="none" stroke="#000000" cx="333.0809" cy="-687.8005" rx="42.1216" ry="18"/>
<text text-anchor="middle" x="333.0809" y="-683.6005" font-family="Helvetica,sans-Serif" font-size="14.00" fill="#000000">doc &#45; 68</text>
</g>
<!-- section_1 -->
<g id="node2" class="node">
<title>section_1</title>
<ellipse fill="none" stroke="#000000" cx="333.0809" cy="-615.8005" rx="60.9826" ry="18"/>
<text text-anchor="middle" x="333.0809" y="-611.6005" font-family="Helvetica,sans-Serif" font-size="14.00" fill="#000000">section: 1&#45;18</text>
</g>
<!-- doc_0&#45;&gt;section_1 -->
<g id="edge1" class="edge">
<title>doc_0&#45;&gt;section_1</title>
<path fill="none" stroke="#000000" stroke-dasharray="5,2" d="M333.0809,-669.6319C333.0809,-661.9315 333.0809,-652.7749 333.0809,-644.2172"/>
<polygon fill="#000000" stroke="#000000" points="336.581,-644.2138 333.0809,-634.2138 329.581,-644.2138 336.581,-644.2138"/>
</g>
<!-- header_2 -->
<g id="node3" class="node">
<title>header_2</title>
<ellipse fill="none" stroke="#000000" cx="70.0809" cy="-543.8005" rx="70.1619" ry="18"/>
<text text-anchor="middle" x="70.0809" y="-539.6005" font-family="Helvetica,sans-Serif" font-size="14.00" fill="#000000">1 : Link module</text>
</g>
<!-- section_1&#45;&gt;header_2 -->
<g id="edge2" class="edge">
<title>section_1&#45;&gt;header_2</title>
<path fill="none" stroke="#000000" stroke-dasharray="5,2" d="M288.1684,-603.5051C243.9724,-591.4058 176.286,-572.8757 128.0512,-559.6707"/>
<polygon fill="#000000" stroke="#000000" points="128.9423,-556.2859 118.373,-557.0212 127.0939,-563.0375 128.9423,-556.2859"/>
</g>
<!-- prose_3 -->
<g id="node4" class="node">
<title>prose_3</title>
<ellipse fill="none" stroke="#000000" cx="204.0809" cy="-543.8005" rx="32.4585" ry="18"/>
<text text-anchor="middle" x="204.0809" y="-539.6005" font-family="Helvetica,sans-Serif" font-size="14.00" fill="#000000">prose</text>
</g>
<!-- section_1&#45;&gt;prose_3 -->
<g id="edge3" class="edge">
<title>section_1&#45;&gt;prose_3</title>
<path fill="none" stroke="#000000" stroke-dasharray="5,2" d="M304.4516,-599.8214C284.1487,-588.4895 256.8929,-573.277 235.9075,-561.5642"/>
<polygon fill="#000000" stroke="#000000" points="237.4837,-558.4357 227.0459,-556.6182 234.0721,-564.5481 237.4837,-558.4357"/>
</g>
<!-- codeblock_4 -->
<g id="node5" class="node">
<title>codeblock_4</title>
<ellipse fill="none" stroke="#000000" cx="333.0809" cy="-543.8005" rx="71.7805" ry="18"/>
<text text-anchor="middle" x="333.0809" y="-539.6005" font-family="Helvetica,sans-Serif" font-size="14.00" fill="#000000">code block 3&#45;11</text>
</g>
<!-- section_1&#45;&gt;codeblock_4 -->
<g id="edge4" class="edge">
<title>section_1&#45;&gt;codeblock_4</title>
<path fill="none" stroke="#000000" stroke-dasharray="5,2" d="M333.0809,-597.6319C333.0809,-589.9315 333.0809,-580.7749 333.0809,-572.2172"/>
<polygon fill="#000000" stroke="#000000" points="336.581,-572.2138 333.0809,-562.2138 329.581,-572.2138 336.581,-572.2138"/>
</g>
<!-- codeblock_5 -->
<g id="node6" class="node">
<title>codeblock_5</title>
<ellipse fill="none" stroke="#000000" cx="546.0809" cy="-543.8005" rx="77.4211" ry="18"/>
<text text-anchor="middle" x="546.0809" y="-539.6005" font-family="Helvetica,sans-Serif" font-size="14.00" fill="#000000">code block 14&#45;17</text>
</g>
<!-- section_1&#45;&gt;codeblock_5 -->
<g id="edge5" class="edge">
<title>section_1&#45;&gt;codeblock_5</title>
<path fill="none" stroke="#000000" stroke-dasharray="5,2" d="M373.1446,-602.2579C406.8849,-590.8527 455.4376,-574.4405 492.5133,-561.9079"/>
<polygon fill="#000000" stroke="#000000" points="493.8065,-565.1654 502.1591,-558.6474 491.5648,-558.534 493.8065,-565.1654"/>
</g>
<!-- section_6 -->
<g id="node7" class="node">
<title>section_6</title>
<ellipse fill="none" stroke="#000000" cx="979.0809" cy="-543.8005" rx="65.8187" ry="18"/>
<text text-anchor="middle" x="979.0809" y="-539.6005" font-family="Helvetica,sans-Serif" font-size="14.00" fill="#000000">section: 19&#45;63</text>
</g>
<!-- section_1&#45;&gt;section_6 -->
<g id="edge6" class="edge">
<title>section_1&#45;&gt;section_6</title>
<path fill="none" stroke="#000000" stroke-dasharray="5,2" d="M390.1257,-609.4426C508.1071,-596.293 778.6851,-566.1357 907.8824,-551.736"/>
<polygon fill="#000000" stroke="#000000" points="908.5112,-555.1876 918.0619,-550.6014 907.7357,-548.2307 908.5112,-555.1876"/>
</g>
<!-- leaf_7 -->
<g id="node8" class="node">
<title>leaf_7</title>
<polygon fill="none" stroke="#c0c0c0" points="115.5809,-449.3005 8.5809,-449.3005 8.5809,-413.3005 115.5809,-413.3005 115.5809,-449.3005"/>
<text text-anchor="middle" x="62.0809" y="-427.8005" font-family="Inconsolata" font-size="14.00" fill="#000000">* Link module</text>
</g>
<!-- header_2&#45;&gt;leaf_7 -->
<g id="edge7" class="edge">
<title>header_2&#45;&gt;leaf_7</title>
<path fill="none" stroke="#000000" stroke-dasharray="5,2" d="M68.7956,-525.7254C67.5243,-507.848 65.5603,-480.2296 64.0842,-459.4722"/>
<polygon fill="#000000" stroke="#000000" points="67.5636,-459.0572 63.363,-449.3307 60.5813,-459.5538 67.5636,-459.0572"/>
</g>
<!-- raw_8 -->
<g id="node9" class="node">
<title>raw_8</title>
<ellipse fill="none" stroke="#000000" cx="161.0809" cy="-431.3005" rx="27" ry="18"/>
<text text-anchor="middle" x="161.0809" y="-427.1005" font-family="Helvetica,sans-Serif" font-size="14.00" fill="#000000">raw</text>
</g>
<!-- prose_3&#45;&gt;raw_8 -->
<g id="edge8" class="edge">
<title>prose_3&#45;&gt;raw_8</title>
<path fill="none" stroke="#000000" stroke-dasharray="5,2" d="M197.2674,-525.9746C190.348,-507.8715 179.5411,-479.5976 171.5372,-458.6571"/>
<polygon fill="#000000" stroke="#000000" points="174.7022,-457.1343 167.8625,-449.043 168.1635,-459.6336 174.7022,-457.1343"/>
</g>
<!-- leaf_10 -->
<g id="node11" class="node">
<title>leaf_10</title>
<polygon fill="none" stroke="#c0c0c0" points="460.0809,-489.8006 206.0809,-489.8006 206.0809,-372.8003 460.0809,-372.8003 460.0809,-489.8006"/>
<text text-anchor="middle" x="333.0809" y="-474.6005" font-family="Inconsolata" font-size="14.00" fill="#000000">local L = require &quot;lpeg&quot;</text>
<text text-anchor="middle" x="333.0809" y="-443.2005" font-family="Inconsolata" font-size="14.00" fill="#000000">local m = require &quot;grym/morphemes&quot;</text>
<text text-anchor="middle" x="333.0809" y="-427.8005" font-family="Inconsolata" font-size="14.00" fill="#000000">local u = require &quot;util&quot;</text>
<text text-anchor="middle" x="333.0809" y="-412.4004" font-family="Inconsolata" font-size="14.00" fill="#000000">local s = require &quot;status&quot; ()</text>
<text text-anchor="middle" x="333.0809" y="-381.0004" font-family="Inconsolata" font-size="14.00" fill="#000000">local Node = require &quot;node/node&quot;</text>
</g>
<!-- codeblock_4&#45;&gt;leaf_10 -->
<g id="edge10" class="edge">
<title>codeblock_4&#45;&gt;leaf_10</title>
<path fill="none" stroke="#000000" stroke-dasharray="5,2" d="M333.0809,-525.7254C333.0809,-518.5186 333.0809,-509.7287 333.0809,-500.4434"/>
<polygon fill="#000000" stroke="#000000" points="336.581,-500.2249 333.0809,-490.2249 329.581,-500.225 336.581,-500.2249"/>
</g>
<!-- leaf_11 -->
<g id="node12" class="node">
<title>leaf_11</title>
<polygon fill="none" stroke="#c0c0c0" points="704.0809,-450.601 478.0809,-450.601 478.0809,-411.9999 704.0809,-411.9999 704.0809,-450.601"/>
<text text-anchor="middle" x="591.0809" y="-435.5005" font-family="Inconsolata" font-size="14.00" fill="#000000">local Li, li = u.inherit(Node)</text>
<text text-anchor="middle" x="591.0809" y="-420.1005" font-family="Inconsolata" font-size="14.00" fill="#000000">Li.id = &quot;link&quot;</text>
</g>
<!-- codeblock_5&#45;&gt;leaf_11 -->
<g id="edge11" class="edge">
<title>codeblock_5&#45;&gt;leaf_11</title>
<path fill="none" stroke="#000000" stroke-dasharray="5,2" d="M553.3109,-525.7254C560.3567,-508.111 571.185,-481.0401 579.444,-460.3927"/>
<polygon fill="#000000" stroke="#000000" points="582.7999,-461.4269 583.2642,-450.8423 576.3005,-458.8271 582.7999,-461.4269"/>
</g>
<!-- header_12 -->
<g id="node13" class="node">
<title>header_12</title>
<ellipse fill="none" stroke="#000000" cx="796.0809" cy="-431.3005" rx="74.488" ry="18"/>
<text text-anchor="middle" x="796.0809" y="-427.1005" font-family="Helvetica,sans-Serif" font-size="14.00" fill="#000000">2 : Transformers</text>
</g>
<!-- section_6&#45;&gt;header_12 -->
<g id="edge12" class="edge">
<title>section_6&#45;&gt;header_12</title>
<path fill="none" stroke="#000000" stroke-dasharray="5,2" d="M947.8173,-527.8664C928.0835,-517.5361 902.2273,-503.4958 880.0809,-489.8005 862.354,-478.8383 843.2394,-465.6422 827.7291,-454.5597"/>
<polygon fill="#000000" stroke="#000000" points="829.6759,-451.6486 819.5149,-448.6479 825.5868,-457.3302 829.6759,-451.6486"/>
</g>
<!-- prose_13 -->
<g id="node14" class="node">
<title>prose_13</title>
<ellipse fill="none" stroke="#000000" cx="921.0809" cy="-431.3005" rx="32.4585" ry="18"/>
<text text-anchor="middle" x="921.0809" y="-427.1005" font-family="Helvetica,sans-Serif" font-size="14.00" fill="#000000">prose</text>
</g>
<!-- section_6&#45;&gt;prose_13 -->
<g id="edge13" class="edge">
<title>section_6&#45;&gt;prose_13</title>
<path fill="none" stroke="#000000" stroke-dasharray="5,2" d="M969.8906,-525.9746C960.4172,-507.5995 945.5415,-478.7456 934.7007,-457.7181"/>
<polygon fill="#000000" stroke="#000000" points="937.7309,-455.9578 930.0376,-448.6734 931.5091,-459.1655 937.7309,-455.9578"/>
</g>
<!-- section_14 -->
<g id="node15" class="node">
<title>section_14</title>
<ellipse fill="none" stroke="#000000" cx="1037.0809" cy="-431.3005" rx="65.8187" ry="18"/>
<text text-anchor="middle" x="1037.0809" y="-427.1005" font-family="Helvetica,sans-Serif" font-size="14.00" fill="#000000">section: 21&#45;31</text>
</g>
<!-- section_6&#45;&gt;section_14 -->
<g id="edge14" class="edge">
<title>section_6&#45;&gt;section_14</title>
<path fill="none" stroke="#000000" stroke-dasharray="5,2" d="M988.2712,-525.9746C997.6337,-507.8144 1012.2731,-479.4191 1023.0791,-458.4591"/>
<polygon fill="#000000" stroke="#000000" points="1026.27,-459.9077 1027.7416,-449.4156 1020.0482,-456.7 1026.27,-459.9077"/>
</g>
<!-- section_15 -->
<g id="node16" class="node">
<title>section_15</title>
<ellipse fill="none" stroke="#000000" cx="1502.0809" cy="-431.3005" rx="65.8187" ry="18"/>
<text text-anchor="middle" x="1502.0809" y="-427.1005" font-family="Helvetica,sans-Serif" font-size="14.00" fill="#000000">section: 32&#45;63</text>
</g>
<!-- section_6&#45;&gt;section_15 -->
<g id="edge15" class="edge">
<title>section_6&#45;&gt;section_15</title>
<path fill="none" stroke="#000000" stroke-dasharray="5,2" d="M1031.1402,-532.6023C1128.158,-511.7332 1336.173,-466.9881 1440.1944,-444.6126"/>
<polygon fill="#000000" stroke="#000000" points="1441.1918,-447.9782 1450.2321,-442.4534 1439.7197,-441.1347 1441.1918,-447.9782"/>
</g>
<!-- section_16 -->
<g id="node17" class="node">
<title>section_16</title>
<ellipse fill="none" stroke="#000000" cx="2757.0809" cy="-431.3005" rx="65.8187" ry="18"/>
<text text-anchor="middle" x="2757.0809" y="-427.1005" font-family="Helvetica,sans-Serif" font-size="14.00" fill="#000000">section: 64&#45;68</text>
</g>
<!-- section_6&#45;&gt;section_16 -->
<g id="edge16" class="edge">
<title>section_6&#45;&gt;section_16</title>
<path fill="none" stroke="#000000" stroke-dasharray="5,2" d="M1043.1479,-539.7468C1317.1275,-522.4112 2389.6139,-454.5513 2682.7081,-436.0063"/>
<polygon fill="#000000" stroke="#000000" points="2683.044,-439.4921 2692.803,-435.3675 2682.6019,-432.5061 2683.044,-439.4921"/>
</g>
<!-- leaf_9 -->
<g id="node10" class="node">
<title>leaf_9</title>
<polygon fill="none" stroke="#c0c0c0" points="188.0809,-336.8004 134.0809,-336.8004 134.0809,-300.8004 188.0809,-300.8004 188.0809,-336.8004"/>
</g>
<!-- raw_8&#45;&gt;leaf_9 -->
<g id="edge9" class="edge">
<title>raw_8&#45;&gt;leaf_9</title>
<path fill="none" stroke="#000000" stroke-dasharray="5,2" d="M161.0809,-413.2254C161.0809,-395.3479 161.0809,-367.7296 161.0809,-346.9721"/>
<polygon fill="#000000" stroke="#000000" points="164.581,-346.8306 161.0809,-336.8306 157.581,-346.8306 164.581,-346.8306"/>
</g>
<!-- leaf_17 -->
<g id="node18" class="node">
<title>leaf_17</title>
<polygon fill="none" stroke="#c0c0c0" points="754.5809,-336.8004 633.5809,-336.8004 633.5809,-300.8004 754.5809,-300.8004 754.5809,-336.8004"/>
<text text-anchor="middle" x="694.0809" y="-315.3004" font-family="Inconsolata" font-size="14.00" fill="#000000">** Transformers</text>
</g>
<!-- header_12&#45;&gt;leaf_17 -->
<g id="edge17" class="edge">
<title>header_12&#45;&gt;leaf_17</title>
<path fill="none" stroke="#000000" stroke-dasharray="5,2" d="M779.9187,-413.4745C763.0826,-394.9053 736.544,-365.6347 717.4311,-344.5543"/>
<polygon fill="#000000" stroke="#000000" points="719.8151,-341.9729 710.5052,-336.9155 714.6292,-346.6748 719.8151,-341.9729"/>
</g>
<!-- raw_18 -->
<g id="node19" class="node">
<title>raw_18</title>
<ellipse fill="none" stroke="#000000" cx="800.0809" cy="-318.8004" rx="27" ry="18"/>
<text text-anchor="middle" x="800.0809" y="-314.6004" font-family="Helvetica,sans-Serif" font-size="14.00" fill="#000000">raw</text>
</g>
<!-- prose_13&#45;&gt;raw_18 -->
<g id="edge18" class="edge">
<title>prose_13&#45;&gt;raw_18</title>
<path fill="none" stroke="#000000" stroke-dasharray="5,2" d="M910.9022,-413.9501C903.1499,-401.6165 891.6893,-385.1212 879.0809,-372.8004 864.3805,-358.4354 845.4379,-345.3429 829.7868,-335.648"/>
<polygon fill="#000000" stroke="#000000" points="831.3787,-332.5207 821.0089,-330.3484 827.7607,-338.5132 831.3787,-332.5207"/>
</g>
<!-- header_20 -->
<g id="node21" class="node">
<title>header_20</title>
<ellipse fill="none" stroke="#000000" cx="916.0809" cy="-318.8004" rx="70.6291" ry="18"/>
<text text-anchor="middle" x="916.0809" y="-314.6004" font-family="Helvetica,sans-Serif" font-size="14.00" fill="#000000">3 : toMarkdown</text>
</g>
<!-- section_14&#45;&gt;header_20 -->
<g id="edge20" class="edge">
<title>section_14&#45;&gt;header_20</title>
<path fill="none" stroke="#000000" stroke-dasharray="5,2" d="M1018.4398,-413.9689C998.0706,-395.0305 965.2847,-364.5477 942.3214,-343.1975"/>
<polygon fill="#000000" stroke="#000000" points="944.6494,-340.5829 934.9425,-336.337 939.8829,-345.7095 944.6494,-340.5829"/>
</g>
<!-- prose_21 -->
<g id="node22" class="node">
<title>prose_21</title>
<ellipse fill="none" stroke="#000000" cx="1037.0809" cy="-318.8004" rx="32.4585" ry="18"/>
<text text-anchor="middle" x="1037.0809" y="-314.6004" font-family="Helvetica,sans-Serif" font-size="14.00" fill="#000000">prose</text>
</g>
<!-- section_14&#45;&gt;prose_21 -->
<g id="edge21" class="edge">
<title>section_14&#45;&gt;prose_21</title>
<path fill="none" stroke="#000000" stroke-dasharray="5,2" d="M1037.0809,-413.2254C1037.0809,-395.3479 1037.0809,-367.7296 1037.0809,-346.9721"/>
<polygon fill="#000000" stroke="#000000" points="1040.581,-346.8306 1037.0809,-336.8306 1033.581,-346.8306 1040.581,-346.8306"/>
</g>
<!-- codeblock_22 -->
<g id="node23" class="node">
<title>codeblock_22</title>
<ellipse fill="none" stroke="#000000" cx="1165.0809" cy="-318.8004" rx="77.4211" ry="18"/>
<text text-anchor="middle" x="1165.0809" y="-314.6004" font-family="Helvetica,sans-Serif" font-size="14.00" fill="#000000">code block 23&#45;30</text>
</g>
<!-- section_14&#45;&gt;codeblock_22 -->
<g id="edge22" class="edge">
<title>section_14&#45;&gt;codeblock_22</title>
<path fill="none" stroke="#000000" stroke-dasharray="5,2" d="M1056.8004,-413.9689C1078.348,-395.0305 1113.0306,-364.5477 1137.3224,-343.1975"/>
<polygon fill="#000000" stroke="#000000" points="1139.9275,-345.5676 1145.1281,-336.337 1135.3063,-340.3098 1139.9275,-345.5676"/>
</g>
<!-- header_27 -->
<g id="node28" class="node">
<title>header_27</title>
<ellipse fill="none" stroke="#000000" cx="1322.0809" cy="-318.8004" rx="56.156" ry="18"/>
<text text-anchor="middle" x="1322.0809" y="-314.6004" font-family="Helvetica,sans-Serif" font-size="14.00" fill="#000000">3 : dotLabel</text>
</g>
<!-- section_15&#45;&gt;header_27 -->
<g id="edge27" class="edge">
<title>section_15&#45;&gt;header_27</title>
<path fill="none" stroke="#000000" stroke-dasharray="5,2" d="M1475.5213,-414.7007C1444.0117,-395.0072 1391.3935,-362.1208 1356.7132,-340.4456"/>
<polygon fill="#000000" stroke="#000000" points="1358.2085,-337.2528 1347.8735,-334.9208 1354.4985,-343.1888 1358.2085,-337.2528"/>
</g>
<!-- prose_28 -->
<g id="node29" class="node">
<title>prose_28</title>
<ellipse fill="none" stroke="#000000" cx="1436.0809" cy="-318.8004" rx="32.4585" ry="18"/>
<text text-anchor="middle" x="1436.0809" y="-314.6004" font-family="Helvetica,sans-Serif" font-size="14.00" fill="#000000">prose</text>
</g>
<!-- section_15&#45;&gt;prose_28 -->
<g id="edge28" class="edge">
<title>section_15&#45;&gt;prose_28</title>
<path fill="none" stroke="#000000" stroke-dasharray="5,2" d="M1491.623,-413.4745C1480.7944,-395.0166 1463.7627,-365.9853 1451.4128,-344.9344"/>
<polygon fill="#000000" stroke="#000000" points="1454.352,-343.0275 1446.273,-336.1733 1448.3143,-346.5696 1454.352,-343.0275"/>
</g>
<!-- codeblock_29 -->
<g id="node30" class="node">
<title>codeblock_29</title>
<ellipse fill="none" stroke="#000000" cx="1568.0809" cy="-318.8004" rx="77.4211" ry="18"/>
<text text-anchor="middle" x="1568.0809" y="-314.6004" font-family="Helvetica,sans-Serif" font-size="14.00" fill="#000000">code block 34&#45;38</text>
</g>
<!-- section_15&#45;&gt;codeblock_29 -->
<g id="edge29" class="edge">
<title>section_15&#45;&gt;codeblock_29</title>
<path fill="none" stroke="#000000" stroke-dasharray="5,2" d="M1512.5388,-413.4745C1523.2407,-395.2325 1540.0015,-366.663 1552.3137,-345.6763"/>
<polygon fill="#000000" stroke="#000000" points="1555.412,-347.3118 1557.4534,-336.9155 1549.3743,-343.7697 1555.412,-347.3118"/>
</g>
<!-- codeblock_30 -->
<g id="node31" class="node">
<title>codeblock_30</title>
<ellipse fill="none" stroke="#000000" cx="1871.0809" cy="-318.8004" rx="77.4211" ry="18"/>
<text text-anchor="middle" x="1871.0809" y="-314.6004" font-family="Helvetica,sans-Serif" font-size="14.00" fill="#000000">code block 40&#45;53</text>
</g>
<!-- section_15&#45;&gt;codeblock_30 -->
<g id="edge30" class="edge">
<title>section_15&#45;&gt;codeblock_30</title>
<path fill="none" stroke="#000000" stroke-dasharray="5,2" d="M1546.2244,-417.8421C1613.2309,-397.4132 1740.5983,-358.5817 1814.3763,-336.0884"/>
<polygon fill="#000000" stroke="#000000" points="1815.4347,-339.4248 1823.9793,-333.1606 1813.3933,-332.7291 1815.4347,-339.4248"/>
</g>
<!-- codeblock_31 -->
<g id="node32" class="node">
<title>codeblock_31</title>
<ellipse fill="none" stroke="#000000" cx="2260.0809" cy="-318.8004" rx="77.4211" ry="18"/>
<text text-anchor="middle" x="2260.0809" y="-314.6004" font-family="Helvetica,sans-Serif" font-size="14.00" fill="#000000">code block 56&#45;62</text>
</g>
<!-- section_15&#45;&gt;codeblock_31 -->
<g id="edge31" class="edge">
<title>section_15&#45;&gt;codeblock_31</title>
<path fill="none" stroke="#000000" stroke-dasharray="5,2" d="M1559.9884,-422.706C1695.4805,-402.5967 2033.107,-352.4872 2184.5186,-330.0151"/>
<polygon fill="#000000" stroke="#000000" points="2185.2781,-333.4408 2194.6559,-328.5106 2184.2504,-326.5166 2185.2781,-333.4408"/>
</g>
<!-- header_38 -->
<g id="node39" class="node">
<title>header_38</title>
<ellipse fill="none" stroke="#000000" cx="2709.0809" cy="-318.8004" rx="46.9495" ry="18"/>
<text text-anchor="middle" x="2709.0809" y="-314.6004" font-family="Helvetica,sans-Serif" font-size="14.00" fill="#000000">3 : export</text>
</g>
<!-- section_16&#45;&gt;header_38 -->
<g id="edge38" class="edge">
<title>section_16&#45;&gt;header_38</title>
<path fill="none" stroke="#000000" stroke-dasharray="5,2" d="M2749.3689,-413.2254C2741.6362,-395.1019 2729.6322,-366.9676 2720.7369,-346.1191"/>
<polygon fill="#000000" stroke="#000000" points="2723.9175,-344.6548 2716.7738,-336.8306 2717.479,-347.4019 2723.9175,-344.6548"/>
</g>
<!-- prose_39 -->
<g id="node40" class="node">
<title>prose_39</title>
<ellipse fill="none" stroke="#000000" cx="2806.0809" cy="-318.8004" rx="32.4585" ry="18"/>
<text text-anchor="middle" x="2806.0809" y="-314.6004" font-family="Helvetica,sans-Serif" font-size="14.00" fill="#000000">prose</text>
</g>
<!-- section_16&#45;&gt;prose_39 -->
<g id="edge39" class="edge">
<title>section_16&#45;&gt;prose_39</title>
<path fill="none" stroke="#000000" stroke-dasharray="5,2" d="M2764.9536,-413.2254C2772.8941,-394.9946 2785.2466,-366.6343 2794.3429,-345.7498"/>
<polygon fill="#000000" stroke="#000000" points="2797.6048,-347.0255 2798.3893,-336.4597 2791.1872,-344.2302 2797.6048,-347.0255"/>
</g>
<!-- codeblock_40 -->
<g id="node41" class="node">
<title>codeblock_40</title>
<ellipse fill="none" stroke="#000000" cx="2934.0809" cy="-318.8004" rx="77.4211" ry="18"/>
<text text-anchor="middle" x="2934.0809" y="-314.6004" font-family="Helvetica,sans-Serif" font-size="14.00" fill="#000000">code block 66&#45;68</text>
</g>
<!-- section_16&#45;&gt;codeblock_40 -->
<g id="edge40" class="edge">
<title>section_16&#45;&gt;codeblock_40</title>
<path fill="none" stroke="#000000" stroke-dasharray="5,2" d="M2783.1979,-414.7007C2813.7409,-395.2877 2864.4536,-363.055 2898.5578,-341.3786"/>
<polygon fill="#000000" stroke="#000000" points="2900.7144,-344.1551 2907.2765,-335.8371 2896.9595,-338.2474 2900.7144,-344.1551"/>
</g>
<!-- leaf_19 -->
<g id="node20" class="node">
<title>leaf_19</title>
<polygon fill="none" stroke="#c0c0c0" points="827.0809,-186.4002 773.0809,-186.4002 773.0809,-150.4002 827.0809,-150.4002 827.0809,-186.4002"/>
</g>
<!-- raw_18&#45;&gt;leaf_19 -->
<g id="edge19" class="edge">
<title>raw_18&#45;&gt;leaf_19</title>
<path fill="none" stroke="#000000" stroke-dasharray="5,2" d="M800.0809,-300.6586C800.0809,-274.7998 800.0809,-227.1048 800.0809,-196.611"/>
<polygon fill="#000000" stroke="#000000" points="803.581,-196.6063 800.0809,-186.6063 796.581,-196.6063 803.581,-196.6063"/>
</g>
<!-- leaf_23 -->
<g id="node24" class="node">
<title>leaf_23</title>
<polygon fill="none" stroke="#c0c0c0" points="969.0809,-186.4002 855.0809,-186.4002 855.0809,-150.4002 969.0809,-150.4002 969.0809,-186.4002"/>
<text text-anchor="middle" x="912.0809" y="-164.9002" font-family="Inconsolata" font-size="14.00" fill="#000000">*** toMarkdown</text>
</g>
<!-- header_20&#45;&gt;leaf_23 -->
<g id="edge23" class="edge">
<title>header_20&#45;&gt;leaf_23</title>
<path fill="none" stroke="#000000" stroke-dasharray="5,2" d="M915.5984,-300.6586C914.9107,-274.7998 913.6422,-227.1048 912.8312,-196.611"/>
<polygon fill="#000000" stroke="#000000" points="916.3298,-196.5097 912.5651,-186.6063 909.3323,-196.6959 916.3298,-196.5097"/>
</g>
<!-- raw_24 -->
<g id="node25" class="node">
<title>raw_24</title>
<ellipse fill="none" stroke="#000000" cx="1014.0809" cy="-168.4002" rx="27" ry="18"/>
<text text-anchor="middle" x="1014.0809" y="-164.2002" font-family="Helvetica,sans-Serif" font-size="14.00" fill="#000000">raw</text>
</g>
<!-- prose_21&#45;&gt;raw_24 -->
<g id="edge24" class="edge">
<title>prose_21&#45;&gt;raw_24</title>
<path fill="none" stroke="#000000" stroke-dasharray="5,2" d="M1034.3066,-300.6586C1030.3521,-274.7998 1023.0583,-227.1048 1018.395,-196.611"/>
<polygon fill="#000000" stroke="#000000" points="1021.8366,-195.9623 1016.8651,-186.6063 1014.9171,-197.0205 1021.8366,-195.9623"/>
</g>
<!-- leaf_26 -->
<g id="node27" class="node">
<title>leaf_26</title>
<polygon fill="none" stroke="#c0c0c0" points="1271.0809,-218.8012 1059.0809,-218.8012 1059.0809,-117.9992 1271.0809,-117.9992 1271.0809,-218.8012"/>
<text text-anchor="middle" x="1165.0809" y="-203.4003" font-family="Inconsolata" font-size="14.00" fill="#000000">function Li.toMarkdown(link)</text>
<text text-anchor="middle" x="1165.0809" y="-188.0002" font-family="Inconsolata" font-size="14.00" fill="#000000"> &#160;url = link.url or &quot;&quot;</text>
<text text-anchor="middle" x="1165.0809" y="-172.6002" font-family="Inconsolata" font-size="14.00" fill="#000000"> &#160;prose = link.prose or &quot;&quot;</text>
<text text-anchor="middle" x="1165.0809" y="-157.2002" font-family="Inconsolata" font-size="14.00" fill="#000000"> &#160;return &quot;[&quot; .. prose .. &quot;]&quot;</text>
<text text-anchor="middle" x="1165.0809" y="-141.8002" font-family="Inconsolata" font-size="14.00" fill="#000000"> &#160;&#160;&#160;&#160;&#160;.. &quot;(&quot; .. url .. &quot;)&quot;</text>
<text text-anchor="middle" x="1165.0809" y="-126.4001" font-family="Inconsolata" font-size="14.00" fill="#000000">end</text>
</g>
<!-- codeblock_22&#45;&gt;leaf_26 -->
<g id="edge26" class="edge">
<title>codeblock_22&#45;&gt;leaf_26</title>
<path fill="none" stroke="#000000" stroke-dasharray="5,2" d="M1165.0809,-300.6586C1165.0809,-282.8636 1165.0809,-254.7276 1165.0809,-228.9726"/>
<polygon fill="#000000" stroke="#000000" points="1168.581,-228.8718 1165.0809,-218.8719 1161.581,-228.8719 1168.581,-228.8718"/>
</g>
<!-- leaf_25 -->
<g id="node26" class="node">
<title>leaf_25</title>
<polygon fill="none" stroke="#c0c0c0" points="1041.0809,-36 987.0809,-36 987.0809,0 1041.0809,0 1041.0809,-36"/>
</g>
<!-- raw_24&#45;&gt;leaf_25 -->
<g id="edge25" class="edge">
<title>raw_24&#45;&gt;leaf_25</title>
<path fill="none" stroke="#000000" stroke-dasharray="5,2" d="M1014.0809,-150.2584C1014.0809,-124.3997 1014.0809,-76.7046 1014.0809,-46.2108"/>
<polygon fill="#000000" stroke="#000000" points="1017.581,-46.2061 1014.0809,-36.2061 1010.581,-46.2062 1017.581,-46.2061"/>
</g>
<!-- leaf_32 -->
<g id="node33" class="node">
<title>leaf_32</title>
<polygon fill="none" stroke="#c0c0c0" points="1347.0809,-195.7006 1289.0809,-195.7006 1289.0809,-141.0998 1347.0809,-141.0998 1347.0809,-195.7006"/>
<text text-anchor="middle" x="1318.0809" y="-180.6002" font-family="Inconsolata" font-size="14.00" fill="#000000">tLabel</text>
<text text-anchor="middle" x="1318.0809" y="-149.2002" font-family="Inconsolata" font-size="14.00" fill="#000000">#!lua</text>
</g>
<!-- header_27&#45;&gt;leaf_32 -->
<g id="edge32" class="edge">
<title>header_27&#45;&gt;leaf_32</title>
<path fill="none" stroke="#000000" stroke-dasharray="5,2" d="M1321.5984,-300.6586C1320.9776,-277.3158 1319.8835,-236.1793 1319.0799,-205.9644"/>
<polygon fill="#000000" stroke="#000000" points="1322.5738,-205.683 1318.8091,-195.7796 1315.5763,-205.8692 1322.5738,-205.683"/>
</g>
<!-- raw_33 -->
<g id="node34" class="node">
<title>raw_33</title>
<ellipse fill="none" stroke="#000000" cx="1392.0809" cy="-168.4002" rx="27" ry="18"/>
<text text-anchor="middle" x="1392.0809" y="-164.2002" font-family="Helvetica,sans-Serif" font-size="14.00" fill="#000000">raw</text>
</g>
<!-- prose_28&#45;&gt;raw_33 -->
<g id="edge33" class="edge">
<title>prose_28&#45;&gt;raw_33</title>
<path fill="none" stroke="#000000" stroke-dasharray="5,2" d="M1430.8607,-300.9569C1423.2526,-274.9509 1409.0527,-226.4131 1400.1088,-195.8411"/>
<polygon fill="#000000" stroke="#000000" points="1403.4614,-194.8354 1397.2943,-186.2205 1396.743,-196.8009 1403.4614,-194.8354"/>
</g>
<!-- leaf_35 -->
<g id="node36" class="node">
<title>leaf_35</title>
<polygon fill="none" stroke="#c0c0c0" points="1726.5809,-195.6007 1437.5809,-195.6007 1437.5809,-141.1997 1726.5809,-141.1997 1726.5809,-195.6007"/>
<text text-anchor="middle" x="1582.0809" y="-180.3002" font-family="Inconsolata" font-size="14.00" fill="#000000">function Li.dotLabel(link)</text>
<text text-anchor="middle" x="1582.0809" y="-164.9002" font-family="Inconsolata" font-size="14.00" fill="#000000"> &#160;return &quot;link: &quot; .. (link.prose or &quot;&quot;)</text>
<text text-anchor="middle" x="1582.0809" y="-149.5002" font-family="Inconsolata" font-size="14.00" fill="#000000">end</text>
</g>
<!-- codeblock_29&#45;&gt;leaf_35 -->
<g id="edge35" class="edge">
<title>codeblock_29&#45;&gt;leaf_35</title>
<path fill="none" stroke="#000000" stroke-dasharray="5,2" d="M1569.7696,-300.6586C1571.949,-277.2459 1575.7946,-235.9328 1578.6095,-205.6933"/>
<polygon fill="#000000" stroke="#000000" points="1582.1157,-205.788 1579.5577,-195.5066 1575.1458,-205.1391 1582.1157,-205.788"/>
</g>
<!-- leaf_36 -->
<g id="node37" class="node">
<title>leaf_36</title>
<polygon fill="none" stroke="#c0c0c0" points="2257.5809,-264.7007 1744.5809,-264.7007 1744.5809,-72.0997 2257.5809,-72.0997 2257.5809,-264.7007"/>
<text text-anchor="middle" x="2001.0809" y="-249.6004" font-family="Inconsolata" font-size="14.00" fill="#000000">function Li.parse(link, line)</text>
<text text-anchor="middle" x="2001.0809" y="-234.2003" font-family="Inconsolata" font-size="14.00" fill="#000000"> &#160;&#45;&#45; This only parses double links, expand</text>
<text text-anchor="middle" x="2001.0809" y="-218.8003" font-family="Inconsolata" font-size="14.00" fill="#000000"> &#160;local WS, sel, ser = m.WS, m.sel, m.ser</text>
<text text-anchor="middle" x="2001.0809" y="-203.4003" font-family="Inconsolata" font-size="14.00" fill="#000000"> &#160;local link_content = L.match(L.Ct(sel * WS * sel * L.C(m.anchor_text)</text>
<text text-anchor="middle" x="2001.0809" y="-188.0002" font-family="Inconsolata" font-size="14.00" fill="#000000"> &#160;&#160;&#160;&#160;&#160;&#160;&#160;&#160;&#160;&#160;&#160;&#160;&#160;&#160;&#160;* ser * WS * sel * L.C(m.url) * WS * ser * WS * ser),</text>
<text text-anchor="middle" x="2001.0809" y="-172.6002" font-family="Inconsolata" font-size="14.00" fill="#000000"> &#160;&#160;&#160;&#160;&#160;&#160;&#160;&#160;&#160;&#160;&#160;&#160;&#160;&#160;&#160;line)</text>
<text text-anchor="middle" x="2001.0809" y="-157.2002" font-family="Inconsolata" font-size="14.00" fill="#000000"> &#160;if link_content then</text>
<text text-anchor="middle" x="2001.0809" y="-141.8002" font-family="Inconsolata" font-size="14.00" fill="#000000"> &#160;&#160;&#160;link.prose = link_content[1] or &quot;&quot;</text>
<text text-anchor="middle" x="2001.0809" y="-126.4001" font-family="Inconsolata" font-size="14.00" fill="#000000"> &#160;&#160;&#160;link.url &#160;&#160;= link_content[2] or &quot;&quot;</text>
<text text-anchor="middle" x="2001.0809" y="-111.0001" font-family="Inconsolata" font-size="14.00" fill="#000000"> &#160;end</text>
<text text-anchor="middle" x="2001.0809" y="-95.6001" font-family="Inconsolata" font-size="14.00" fill="#000000"> &#160;return link</text>
<text text-anchor="middle" x="2001.0809" y="-80.2" font-family="Inconsolata" font-size="14.00" fill="#000000">end</text>
</g>
<!-- codeblock_30&#45;&gt;leaf_36 -->
<g id="edge36" class="edge">
<title>codeblock_30&#45;&gt;leaf_36</title>
<path fill="none" stroke="#000000" stroke-dasharray="5,2" d="M1886.5041,-300.9569C1893.2803,-293.1174 1901.8262,-283.2304 1911.183,-272.4052"/>
<polygon fill="#000000" stroke="#000000" points="1913.8871,-274.629 1917.7786,-264.7747 1908.5913,-270.0514 1913.8871,-274.629"/>
</g>
<!-- leaf_37 -->
<g id="node38" class="node">
<title>leaf_37</title>
<polygon fill="none" stroke="#c0c0c0" points="2676.5809,-210.9003 2275.5809,-210.9003 2275.5809,-125.9 2676.5809,-125.9 2676.5809,-210.9003"/>
<text text-anchor="middle" x="2476.0809" y="-195.7003" font-family="Inconsolata" font-size="14.00" fill="#000000">local function linkbuild(link, str)</text>
<text text-anchor="middle" x="2476.0809" y="-180.3002" font-family="Inconsolata" font-size="14.00" fill="#000000"> &#160;s:verb(&quot; &#160;&#160;~~ built a link&quot;)</text>
<text text-anchor="middle" x="2476.0809" y="-164.9002" font-family="Inconsolata" font-size="14.00" fill="#000000"> &#160;setmetatable(link, Li)</text>
<text text-anchor="middle" x="2476.0809" y="-149.5002" font-family="Inconsolata" font-size="14.00" fill="#000000"> &#160;return Li.parse(link, str:sub(link.first, link.last))</text>
<text text-anchor="middle" x="2476.0809" y="-134.1001" font-family="Inconsolata" font-size="14.00" fill="#000000">end</text>
</g>
<!-- codeblock_31&#45;&gt;leaf_37 -->
<g id="edge37" class="edge">
<title>codeblock_31&#45;&gt;leaf_37</title>
<path fill="none" stroke="#000000" stroke-dasharray="5,2" d="M2284.8588,-301.5476C2314.3628,-281.0041 2364.8918,-245.8208 2406.6005,-216.7792"/>
<polygon fill="#000000" stroke="#000000" points="2408.6092,-219.6454 2414.8158,-211.0589 2404.6092,-213.9008 2408.6092,-219.6454"/>
</g>
<!-- leaf_34 -->
<g id="node35" class="node">
<title>leaf_34</title>
<polygon fill="none" stroke="#c0c0c0" points="1419.0809,-36 1365.0809,-36 1365.0809,0 1419.0809,0 1419.0809,-36"/>
</g>
<!-- raw_33&#45;&gt;leaf_34 -->
<g id="edge34" class="edge">
<title>raw_33&#45;&gt;leaf_34</title>
<path fill="none" stroke="#000000" stroke-dasharray="5,2" d="M1392.0809,-150.2584C1392.0809,-124.3997 1392.0809,-76.7046 1392.0809,-46.2108"/>
<polygon fill="#000000" stroke="#000000" points="1395.581,-46.2061 1392.0809,-36.2061 1388.581,-46.2062 1395.581,-46.2061"/>
</g>
<!-- leaf_41 -->
<g id="node42" class="node">
<title>leaf_41</title>
<polygon fill="none" stroke="#c0c0c0" points="2749.0809,-186.4002 2695.0809,-186.4002 2695.0809,-150.4002 2749.0809,-150.4002 2749.0809,-186.4002"/>
<text text-anchor="middle" x="2722.0809" y="-164.9002" font-family="Inconsolata" font-size="14.00" fill="#000000">/lua</text>
</g>
<!-- header_38&#45;&gt;leaf_41 -->
<g id="edge41" class="edge">
<title>header_38&#45;&gt;leaf_41</title>
<path fill="none" stroke="#000000" stroke-dasharray="5,2" d="M2710.649,-300.6586C2712.8841,-274.7998 2717.0067,-227.1048 2719.6425,-196.611"/>
<polygon fill="#000000" stroke="#000000" points="2723.133,-196.8706 2720.5072,-186.6063 2716.159,-196.2677 2723.133,-196.8706"/>
</g>
<!-- raw_42 -->
<g id="node43" class="node">
<title>raw_42</title>
<ellipse fill="none" stroke="#000000" cx="2806.0809" cy="-168.4002" rx="27" ry="18"/>
<text text-anchor="middle" x="2806.0809" y="-164.2002" font-family="Helvetica,sans-Serif" font-size="14.00" fill="#000000">raw</text>
</g>
<!-- prose_39&#45;&gt;raw_42 -->
<g id="edge42" class="edge">
<title>prose_39&#45;&gt;raw_42</title>
<path fill="none" stroke="#000000" stroke-dasharray="5,2" d="M2806.0809,-300.6586C2806.0809,-274.7998 2806.0809,-227.1048 2806.0809,-196.611"/>
<polygon fill="#000000" stroke="#000000" points="2809.581,-196.6063 2806.0809,-186.6063 2802.581,-196.6063 2809.581,-196.6063"/>
</g>
<!-- leaf_44 -->
<g id="node45" class="node">
<title>leaf_44</title>
<polygon fill="none" stroke="#c0c0c0" points="2998.0809,-186.4002 2870.0809,-186.4002 2870.0809,-150.4002 2998.0809,-150.4002 2998.0809,-186.4002"/>
<text text-anchor="middle" x="2934.0809" y="-164.9002" font-family="Inconsolata" font-size="14.00" fill="#000000">return linkbuild</text>
</g>
<!-- codeblock_40&#45;&gt;leaf_44 -->
<g id="edge44" class="edge">
<title>codeblock_40&#45;&gt;leaf_44</title>
<path fill="none" stroke="#000000" stroke-dasharray="5,2" d="M2934.0809,-300.6586C2934.0809,-274.7998 2934.0809,-227.1048 2934.0809,-196.611"/>
<polygon fill="#000000" stroke="#000000" points="2937.581,-196.6063 2934.0809,-186.6063 2930.581,-196.6063 2937.581,-196.6063"/>
</g>
<!-- leaf_43 -->
<g id="node44" class="node">
<title>leaf_43</title>
<polygon fill="none" stroke="#c0c0c0" points="2833.0809,-36 2779.0809,-36 2779.0809,0 2833.0809,0 2833.0809,-36"/>
</g>
<!-- raw_42&#45;&gt;leaf_43 -->
<g id="edge43" class="edge">
<title>raw_42&#45;&gt;leaf_43</title>
<path fill="none" stroke="#000000" stroke-dasharray="5,2" d="M2806.0809,-150.2584C2806.0809,-124.3997 2806.0809,-76.7046 2806.0809,-46.2108"/>
<polygon fill="#000000" stroke="#000000" points="2809.581,-46.2061 2806.0809,-36.2061 2802.581,-46.2062 2809.581,-46.2061"/>
</g>
</g>
</svg>