<?xml version="1.0" encoding="UTF-8" standalone="no"?>
<!DOCTYPE svg PUBLIC "-//W3C//DTD SVG 1.1//EN"
 "http://www.w3.org/Graphics/SVG/1.1/DTD/svg11.dtd">
<!-- Generated by graphviz version 2.40.1 (20161225.0304)
 -->
<!-- Title: hierarchy Pages: 1 -->
<svg width="3258pt" height="714pt"
 viewBox="0.00 0.00 3257.54 713.80" xmlns="http://www.w3.org/2000/svg" xmlns:xlink="http://www.w3.org/1999/xlink">
<g id="graph0" class="graph" transform="scale(1 1) rotate(0) translate(4 709.8005)">
<title>hierarchy</title>
<polygon fill="#ffffff" stroke="transparent" points="-4,4 -4,-709.8005 3253.5414,-709.8005 3253.5414,4 -4,4"/>
<!-- doc_0 -->
<g id="node1" class="node">
<title>doc_0</title>
<ellipse fill="none" stroke="#000000" cx="313.0809" cy="-687.8005" rx="42.1216" ry="18"/>
<text text-anchor="middle" x="313.0809" y="-683.6005" font-family="Helvetica,sans-Serif" font-size="14.00" fill="#000000">doc &#45; 80</text>
</g>
<!-- section_1 -->
<g id="node2" class="node">
<title>section_1</title>
<ellipse fill="none" stroke="#000000" cx="313.0809" cy="-615.8005" rx="60.9826" ry="18"/>
<text text-anchor="middle" x="313.0809" y="-611.6005" font-family="Helvetica,sans-Serif" font-size="14.00" fill="#000000">section: 1&#45;18</text>
</g>
<!-- doc_0&#45;&gt;section_1 -->
<g id="edge1" class="edge">
<title>doc_0&#45;&gt;section_1</title>
<path fill="none" stroke="#000000" stroke-dasharray="5,2" d="M313.0809,-669.6319C313.0809,-661.9315 313.0809,-652.7749 313.0809,-644.2172"/>
<polygon fill="#000000" stroke="#000000" points="316.581,-644.2138 313.0809,-634.2138 309.581,-644.2138 316.581,-644.2138"/>
</g>
<!-- header_2 -->
<g id="node3" class="node">
<title>header_2</title>
<ellipse fill="none" stroke="#000000" cx="70.0809" cy="-543.8005" rx="70.1619" ry="18"/>
<text text-anchor="middle" x="70.0809" y="-539.6005" font-family="Helvetica,sans-Serif" font-size="14.00" fill="#000000">1 : Link module</text>
</g>
<!-- section_1&#45;&gt;header_2 -->
<g id="edge2" class="edge">
<title>section_1&#45;&gt;header_2</title>
<path fill="none" stroke="#000000" stroke-dasharray="5,2" d="M269.9174,-603.0113C229.7236,-591.1021 169.5909,-573.285 125.7904,-560.3071"/>
<polygon fill="#000000" stroke="#000000" points="126.7308,-556.9353 116.1484,-557.4502 124.7421,-563.6469 126.7308,-556.9353"/>
</g>
<!-- prose_3 -->
<g id="node4" class="node">
<title>prose_3</title>
<ellipse fill="none" stroke="#000000" cx="191.0809" cy="-543.8005" rx="32.4585" ry="18"/>
<text text-anchor="middle" x="191.0809" y="-539.6005" font-family="Helvetica,sans-Serif" font-size="14.00" fill="#000000">prose</text>
</g>
<!-- section_1&#45;&gt;prose_3 -->
<g id="edge3" class="edge">
<title>section_1&#45;&gt;prose_3</title>
<path fill="none" stroke="#000000" stroke-dasharray="5,2" d="M285.7017,-599.6423C266.9007,-588.5467 241.9031,-573.7939 222.3231,-562.2386"/>
<polygon fill="#000000" stroke="#000000" points="223.8652,-559.0846 213.4742,-557.0163 220.3074,-565.1131 223.8652,-559.0846"/>
</g>
<!-- codeblock_4 -->
<g id="node5" class="node">
<title>codeblock_4</title>
<ellipse fill="none" stroke="#000000" cx="313.0809" cy="-543.8005" rx="71.7805" ry="18"/>
<text text-anchor="middle" x="313.0809" y="-539.6005" font-family="Helvetica,sans-Serif" font-size="14.00" fill="#000000">code block 3&#45;11</text>
</g>
<!-- section_1&#45;&gt;codeblock_4 -->
<g id="edge4" class="edge">
<title>section_1&#45;&gt;codeblock_4</title>
<path fill="none" stroke="#000000" stroke-dasharray="5,2" d="M313.0809,-597.6319C313.0809,-589.9315 313.0809,-580.7749 313.0809,-572.2172"/>
<polygon fill="#000000" stroke="#000000" points="316.581,-572.2138 313.0809,-562.2138 309.581,-572.2138 316.581,-572.2138"/>
</g>
<!-- codeblock_5 -->
<g id="node6" class="node">
<title>codeblock_5</title>
<ellipse fill="none" stroke="#000000" cx="526.0809" cy="-543.8005" rx="77.4211" ry="18"/>
<text text-anchor="middle" x="526.0809" y="-539.6005" font-family="Helvetica,sans-Serif" font-size="14.00" fill="#000000">code block 14&#45;17</text>
</g>
<!-- section_1&#45;&gt;codeblock_5 -->
<g id="edge5" class="edge">
<title>section_1&#45;&gt;codeblock_5</title>
<path fill="none" stroke="#000000" stroke-dasharray="5,2" d="M353.1446,-602.2579C386.8849,-590.8527 435.4376,-574.4405 472.5133,-561.9079"/>
<polygon fill="#000000" stroke="#000000" points="473.8065,-565.1654 482.1591,-558.6474 471.5648,-558.534 473.8065,-565.1654"/>
</g>
<!-- section_6 -->
<g id="node7" class="node">
<title>section_6</title>
<ellipse fill="none" stroke="#000000" cx="959.0809" cy="-543.8005" rx="65.8187" ry="18"/>
<text text-anchor="middle" x="959.0809" y="-539.6005" font-family="Helvetica,sans-Serif" font-size="14.00" fill="#000000">section: 19&#45;75</text>
</g>
<!-- section_1&#45;&gt;section_6 -->
<g id="edge6" class="edge">
<title>section_1&#45;&gt;section_6</title>
<path fill="none" stroke="#000000" stroke-dasharray="5,2" d="M370.1257,-609.4426C488.1071,-596.293 758.6851,-566.1357 887.8824,-551.736"/>
<polygon fill="#000000" stroke="#000000" points="888.5112,-555.1876 898.0619,-550.6014 887.7357,-548.2307 888.5112,-555.1876"/>
</g>
<!-- leaf_7 -->
<g id="node8" class="node">
<title>leaf_7</title>
<polygon fill="none" stroke="#c0c0c0" points="96.0809,-449.3005 42.0809,-449.3005 42.0809,-413.3005 96.0809,-413.3005 96.0809,-449.3005"/>
</g>
<!-- header_2&#45;&gt;leaf_7 -->
<g id="edge7" class="edge">
<title>header_2&#45;&gt;leaf_7</title>
<path fill="none" stroke="#000000" stroke-dasharray="5,2" d="M69.9202,-525.7254C69.7613,-507.848 69.5158,-480.2296 69.3313,-459.4722"/>
<polygon fill="#000000" stroke="#000000" points="72.83,-459.2991 69.2412,-449.3307 65.8303,-459.3614 72.83,-459.2991"/>
</g>
<!-- raw_8 -->
<g id="node9" class="node">
<title>raw_8</title>
<ellipse fill="none" stroke="#000000" cx="141.0809" cy="-431.3005" rx="27" ry="18"/>
<text text-anchor="middle" x="141.0809" y="-427.1005" font-family="Helvetica,sans-Serif" font-size="14.00" fill="#000000">raw</text>
</g>
<!-- prose_3&#45;&gt;raw_8 -->
<g id="edge8" class="edge">
<title>prose_3&#45;&gt;raw_8</title>
<path fill="none" stroke="#000000" stroke-dasharray="5,2" d="M183.2684,-526.2224C175.1593,-507.977 162.3742,-479.2104 153.0023,-458.1236"/>
<polygon fill="#000000" stroke="#000000" points="156.0983,-456.4718 148.8385,-448.7552 149.7016,-459.3148 156.0983,-456.4718"/>
</g>
<!-- leaf_10 -->
<g id="node11" class="node">
<title>leaf_10</title>
<polygon fill="none" stroke="#c0c0c0" points="440.0809,-489.8006 186.0809,-489.8006 186.0809,-372.8003 440.0809,-372.8003 440.0809,-489.8006"/>
<text text-anchor="middle" x="313.0809" y="-474.6005" font-family="Inconsolata" font-size="14.00" fill="#000000">local L = require &quot;lpeg&quot;</text>
<text text-anchor="middle" x="313.0809" y="-443.2005" font-family="Inconsolata" font-size="14.00" fill="#000000">local m = require &quot;grym/morphemes&quot;</text>
<text text-anchor="middle" x="313.0809" y="-427.8005" font-family="Inconsolata" font-size="14.00" fill="#000000">local u = require &quot;util&quot;</text>
<text text-anchor="middle" x="313.0809" y="-412.4004" font-family="Inconsolata" font-size="14.00" fill="#000000">local s = require &quot;status&quot; ()</text>
<text text-anchor="middle" x="313.0809" y="-381.0004" font-family="Inconsolata" font-size="14.00" fill="#000000">local Node = require &quot;node/node&quot;</text>
</g>
<!-- codeblock_4&#45;&gt;leaf_10 -->
<g id="edge10" class="edge">
<title>codeblock_4&#45;&gt;leaf_10</title>
<path fill="none" stroke="#000000" stroke-dasharray="5,2" d="M313.0809,-525.7254C313.0809,-518.5186 313.0809,-509.7287 313.0809,-500.4434"/>
<polygon fill="#000000" stroke="#000000" points="316.581,-500.2249 313.0809,-490.2249 309.581,-500.225 316.581,-500.2249"/>
</g>
<!-- leaf_11 -->
<g id="node12" class="node">
<title>leaf_11</title>
<polygon fill="none" stroke="#c0c0c0" points="684.0809,-450.601 458.0809,-450.601 458.0809,-411.9999 684.0809,-411.9999 684.0809,-450.601"/>
<text text-anchor="middle" x="571.0809" y="-435.5005" font-family="Inconsolata" font-size="14.00" fill="#000000">local Li, li = u.inherit(Node)</text>
<text text-anchor="middle" x="571.0809" y="-420.1005" font-family="Inconsolata" font-size="14.00" fill="#000000">Li.id = &quot;link&quot;</text>
</g>
<!-- codeblock_5&#45;&gt;leaf_11 -->
<g id="edge11" class="edge">
<title>codeblock_5&#45;&gt;leaf_11</title>
<path fill="none" stroke="#000000" stroke-dasharray="5,2" d="M533.3109,-525.7254C540.3567,-508.111 551.185,-481.0401 559.444,-460.3927"/>
<polygon fill="#000000" stroke="#000000" points="562.7999,-461.4269 563.2642,-450.8423 556.3005,-458.8271 562.7999,-461.4269"/>
</g>
<!-- header_12 -->
<g id="node13" class="node">
<title>header_12</title>
<ellipse fill="none" stroke="#000000" cx="776.0809" cy="-431.3005" rx="74.488" ry="18"/>
<text text-anchor="middle" x="776.0809" y="-427.1005" font-family="Helvetica,sans-Serif" font-size="14.00" fill="#000000">2 : Transformers</text>
</g>
<!-- section_6&#45;&gt;header_12 -->
<g id="edge12" class="edge">
<title>section_6&#45;&gt;header_12</title>
<path fill="none" stroke="#000000" stroke-dasharray="5,2" d="M927.8173,-527.8664C908.0835,-517.5361 882.2273,-503.4958 860.0809,-489.8005 842.354,-478.8383 823.2394,-465.6422 807.7291,-454.5597"/>
<polygon fill="#000000" stroke="#000000" points="809.6759,-451.6486 799.5149,-448.6479 805.5868,-457.3302 809.6759,-451.6486"/>
</g>
<!-- prose_13 -->
<g id="node14" class="node">
<title>prose_13</title>
<ellipse fill="none" stroke="#000000" cx="901.0809" cy="-431.3005" rx="32.4585" ry="18"/>
<text text-anchor="middle" x="901.0809" y="-427.1005" font-family="Helvetica,sans-Serif" font-size="14.00" fill="#000000">prose</text>
</g>
<!-- section_6&#45;&gt;prose_13 -->
<g id="edge13" class="edge">
<title>section_6&#45;&gt;prose_13</title>
<path fill="none" stroke="#000000" stroke-dasharray="5,2" d="M949.8906,-525.9746C940.4172,-507.5995 925.5415,-478.7456 914.7007,-457.7181"/>
<polygon fill="#000000" stroke="#000000" points="917.7309,-455.9578 910.0376,-448.6734 911.5091,-459.1655 917.7309,-455.9578"/>
</g>
<!-- section_14 -->
<g id="node15" class="node">
<title>section_14</title>
<ellipse fill="none" stroke="#000000" cx="1017.0809" cy="-431.3005" rx="65.8187" ry="18"/>
<text text-anchor="middle" x="1017.0809" y="-427.1005" font-family="Helvetica,sans-Serif" font-size="14.00" fill="#000000">section: 21&#45;31</text>
</g>
<!-- section_6&#45;&gt;section_14 -->
<g id="edge14" class="edge">
<title>section_6&#45;&gt;section_14</title>
<path fill="none" stroke="#000000" stroke-dasharray="5,2" d="M968.2712,-525.9746C977.6337,-507.8144 992.2731,-479.4191 1003.0791,-458.4591"/>
<polygon fill="#000000" stroke="#000000" points="1006.27,-459.9077 1007.7416,-449.4156 1000.0482,-456.7 1006.27,-459.9077"/>
</g>
<!-- section_15 -->
<g id="node16" class="node">
<title>section_15</title>
<ellipse fill="none" stroke="#000000" cx="1554.0809" cy="-431.3005" rx="65.8187" ry="18"/>
<text text-anchor="middle" x="1554.0809" y="-427.1005" font-family="Helvetica,sans-Serif" font-size="14.00" fill="#000000">section: 32&#45;75</text>
</g>
<!-- section_6&#45;&gt;section_15 -->
<g id="edge15" class="edge">
<title>section_6&#45;&gt;section_15</title>
<path fill="none" stroke="#000000" stroke-dasharray="5,2" d="M1013.1963,-533.5686C1123.1484,-512.7793 1372.2045,-465.6889 1490.022,-443.4124"/>
<polygon fill="#000000" stroke="#000000" points="1490.8069,-446.8261 1499.9825,-441.5291 1489.5063,-439.948 1490.8069,-446.8261"/>
</g>
<!-- section_16 -->
<g id="node17" class="node">
<title>section_16</title>
<ellipse fill="none" stroke="#000000" cx="2995.0809" cy="-431.3005" rx="65.8187" ry="18"/>
<text text-anchor="middle" x="2995.0809" y="-427.1005" font-family="Helvetica,sans-Serif" font-size="14.00" fill="#000000">section: 76&#45;80</text>
</g>
<!-- section_6&#45;&gt;section_16 -->
<g id="edge16" class="edge">
<title>section_6&#45;&gt;section_16</title>
<path fill="none" stroke="#000000" stroke-dasharray="5,2" d="M1023.661,-540.2321C1325.6769,-523.5441 2597.6212,-453.2623 2920.3735,-435.4284"/>
<polygon fill="#000000" stroke="#000000" points="2920.7578,-438.9126 2930.5494,-434.8662 2920.3715,-431.9233 2920.7578,-438.9126"/>
</g>
<!-- leaf_9 -->
<g id="node10" class="node">
<title>leaf_9</title>
<polygon fill="none" stroke="#c0c0c0" points="168.0809,-336.8004 114.0809,-336.8004 114.0809,-300.8004 168.0809,-300.8004 168.0809,-336.8004"/>
</g>
<!-- raw_8&#45;&gt;leaf_9 -->
<g id="edge9" class="edge">
<title>raw_8&#45;&gt;leaf_9</title>
<path fill="none" stroke="#000000" stroke-dasharray="5,2" d="M141.0809,-413.2254C141.0809,-395.3479 141.0809,-367.7296 141.0809,-346.9721"/>
<polygon fill="#000000" stroke="#000000" points="144.581,-346.8306 141.0809,-336.8306 137.581,-346.8306 144.581,-346.8306"/>
</g>
<!-- leaf_17 -->
<g id="node18" class="node">
<title>leaf_17</title>
<polygon fill="none" stroke="#c0c0c0" points="735.0809,-336.8004 681.0809,-336.8004 681.0809,-300.8004 735.0809,-300.8004 735.0809,-336.8004"/>
</g>
<!-- header_12&#45;&gt;leaf_17 -->
<g id="edge17" class="edge">
<title>header_12&#45;&gt;leaf_17</title>
<path fill="none" stroke="#000000" stroke-dasharray="5,2" d="M765.3061,-413.4745C754.2798,-395.2325 737.0112,-366.663 724.3259,-345.6763"/>
<polygon fill="#000000" stroke="#000000" points="727.1987,-343.6631 719.0305,-336.9155 721.2081,-347.2841 727.1987,-343.6631"/>
</g>
<!-- raw_18 -->
<g id="node19" class="node">
<title>raw_18</title>
<ellipse fill="none" stroke="#000000" cx="780.0809" cy="-318.8004" rx="27" ry="18"/>
<text text-anchor="middle" x="780.0809" y="-314.6004" font-family="Helvetica,sans-Serif" font-size="14.00" fill="#000000">raw</text>
</g>
<!-- prose_13&#45;&gt;raw_18 -->
<g id="edge18" class="edge">
<title>prose_13&#45;&gt;raw_18</title>
<path fill="none" stroke="#000000" stroke-dasharray="5,2" d="M890.9022,-413.9501C883.1499,-401.6165 871.6893,-385.1212 859.0809,-372.8004 844.3805,-358.4354 825.4379,-345.3429 809.7868,-335.648"/>
<polygon fill="#000000" stroke="#000000" points="811.3787,-332.5207 801.0089,-330.3484 807.7607,-338.5132 811.3787,-332.5207"/>
</g>
<!-- header_20 -->
<g id="node21" class="node">
<title>header_20</title>
<ellipse fill="none" stroke="#000000" cx="896.0809" cy="-318.8004" rx="70.6291" ry="18"/>
<text text-anchor="middle" x="896.0809" y="-314.6004" font-family="Helvetica,sans-Serif" font-size="14.00" fill="#000000">3 : toMarkdown</text>
</g>
<!-- section_14&#45;&gt;header_20 -->
<g id="edge20" class="edge">
<title>section_14&#45;&gt;header_20</title>
<path fill="none" stroke="#000000" stroke-dasharray="5,2" d="M998.4398,-413.9689C978.0706,-395.0305 945.2847,-364.5477 922.3214,-343.1975"/>
<polygon fill="#000000" stroke="#000000" points="924.6494,-340.5829 914.9425,-336.337 919.8829,-345.7095 924.6494,-340.5829"/>
</g>
<!-- prose_21 -->
<g id="node22" class="node">
<title>prose_21</title>
<ellipse fill="none" stroke="#000000" cx="1017.0809" cy="-318.8004" rx="32.4585" ry="18"/>
<text text-anchor="middle" x="1017.0809" y="-314.6004" font-family="Helvetica,sans-Serif" font-size="14.00" fill="#000000">prose</text>
</g>
<!-- section_14&#45;&gt;prose_21 -->
<g id="edge21" class="edge">
<title>section_14&#45;&gt;prose_21</title>
<path fill="none" stroke="#000000" stroke-dasharray="5,2" d="M1017.0809,-413.2254C1017.0809,-395.3479 1017.0809,-367.7296 1017.0809,-346.9721"/>
<polygon fill="#000000" stroke="#000000" points="1020.581,-346.8306 1017.0809,-336.8306 1013.581,-346.8306 1020.581,-346.8306"/>
</g>
<!-- codeblock_22 -->
<g id="node23" class="node">
<title>codeblock_22</title>
<ellipse fill="none" stroke="#000000" cx="1145.0809" cy="-318.8004" rx="77.4211" ry="18"/>
<text text-anchor="middle" x="1145.0809" y="-314.6004" font-family="Helvetica,sans-Serif" font-size="14.00" fill="#000000">code block 23&#45;30</text>
</g>
<!-- section_14&#45;&gt;codeblock_22 -->
<g id="edge22" class="edge">
<title>section_14&#45;&gt;codeblock_22</title>
<path fill="none" stroke="#000000" stroke-dasharray="5,2" d="M1036.8004,-413.9689C1058.348,-395.0305 1093.0306,-364.5477 1117.3224,-343.1975"/>
<polygon fill="#000000" stroke="#000000" points="1119.9275,-345.5676 1125.1281,-336.337 1115.3063,-340.3098 1119.9275,-345.5676"/>
</g>
<!-- header_27 -->
<g id="node28" class="node">
<title>header_27</title>
<ellipse fill="none" stroke="#000000" cx="1310.0809" cy="-318.8004" rx="56.156" ry="18"/>
<text text-anchor="middle" x="1310.0809" y="-314.6004" font-family="Helvetica,sans-Serif" font-size="14.00" fill="#000000">3 : dotLabel</text>
</g>
<!-- section_15&#45;&gt;header_27 -->
<g id="edge27" class="edge">
<title>section_15&#45;&gt;header_27</title>
<path fill="none" stroke="#000000" stroke-dasharray="5,2" d="M1520.4099,-415.7759C1476.2873,-395.4325 1398.9424,-359.7714 1351.3463,-337.8264"/>
<polygon fill="#000000" stroke="#000000" points="1352.789,-334.6376 1342.2423,-333.6289 1349.8581,-340.9944 1352.789,-334.6376"/>
</g>
<!-- prose_28 -->
<g id="node29" class="node">
<title>prose_28</title>
<ellipse fill="none" stroke="#000000" cx="1423.0809" cy="-318.8004" rx="32.4585" ry="18"/>
<text text-anchor="middle" x="1423.0809" y="-314.6004" font-family="Helvetica,sans-Serif" font-size="14.00" fill="#000000">prose</text>
</g>
<!-- section_15&#45;&gt;prose_28 -->
<g id="edge28" class="edge">
<title>section_15&#45;&gt;prose_28</title>
<path fill="none" stroke="#000000" stroke-dasharray="5,2" d="M1533.8992,-413.9689C1510.9736,-394.2808 1473.5197,-362.1161 1448.5889,-340.7061"/>
<polygon fill="#000000" stroke="#000000" points="1450.8356,-338.022 1440.9688,-334.1621 1446.275,-343.3325 1450.8356,-338.022"/>
</g>
<!-- codeblock_29 -->
<g id="node30" class="node">
<title>codeblock_29</title>
<ellipse fill="none" stroke="#000000" cx="1554.0809" cy="-318.8004" rx="77.4211" ry="18"/>
<text text-anchor="middle" x="1554.0809" y="-314.6004" font-family="Helvetica,sans-Serif" font-size="14.00" fill="#000000">code block 34&#45;38</text>
</g>
<!-- section_15&#45;&gt;codeblock_29 -->
<g id="edge29" class="edge">
<title>section_15&#45;&gt;codeblock_29</title>
<path fill="none" stroke="#000000" stroke-dasharray="5,2" d="M1554.0809,-413.2254C1554.0809,-395.3479 1554.0809,-367.7296 1554.0809,-346.9721"/>
<polygon fill="#000000" stroke="#000000" points="1557.581,-346.8306 1554.0809,-336.8306 1550.581,-346.8306 1557.581,-346.8306"/>
</g>
<!-- codeblock_30 -->
<g id="node31" class="node">
<title>codeblock_30</title>
<ellipse fill="none" stroke="#000000" cx="1849.0809" cy="-318.8004" rx="77.4211" ry="18"/>
<text text-anchor="middle" x="1849.0809" y="-314.6004" font-family="Helvetica,sans-Serif" font-size="14.00" fill="#000000">code block 40&#45;53</text>
</g>
<!-- section_15&#45;&gt;codeblock_30 -->
<g id="edge30" class="edge">
<title>section_15&#45;&gt;codeblock_30</title>
<path fill="none" stroke="#000000" stroke-dasharray="5,2" d="M1592.647,-416.593C1645.6103,-396.3951 1740.9117,-360.0514 1799.2311,-337.8109"/>
<polygon fill="#000000" stroke="#000000" points="1800.517,-341.0665 1808.6135,-334.2329 1798.0227,-334.5259 1800.517,-341.0665"/>
</g>
<!-- codeblock_31 -->
<g id="node32" class="node">
<title>codeblock_31</title>
<ellipse fill="none" stroke="#000000" cx="2195.0809" cy="-318.8004" rx="77.4211" ry="18"/>
<text text-anchor="middle" x="2195.0809" y="-314.6004" font-family="Helvetica,sans-Serif" font-size="14.00" fill="#000000">code block 57&#45;65</text>
</g>
<!-- section_15&#45;&gt;codeblock_31 -->
<g id="edge31" class="edge">
<title>section_15&#45;&gt;codeblock_31</title>
<path fill="none" stroke="#000000" stroke-dasharray="5,2" d="M1609.5653,-421.5626C1725.4951,-401.216 1993.3367,-354.2079 2122.6421,-331.5139"/>
<polygon fill="#000000" stroke="#000000" points="2123.5924,-334.9007 2132.8368,-329.7247 2122.3823,-328.0061 2123.5924,-334.9007"/>
</g>
<!-- codeblock_32 -->
<g id="node33" class="node">
<title>codeblock_32</title>
<ellipse fill="none" stroke="#000000" cx="2541.0809" cy="-318.8004" rx="77.4211" ry="18"/>
<text text-anchor="middle" x="2541.0809" y="-314.6004" font-family="Helvetica,sans-Serif" font-size="14.00" fill="#000000">code block 68&#45;74</text>
</g>
<!-- section_15&#45;&gt;codeblock_32 -->
<g id="edge32" class="edge">
<title>section_15&#45;&gt;codeblock_32</title>
<path fill="none" stroke="#000000" stroke-dasharray="5,2" d="M1615.0773,-424.348C1786.0186,-404.8638 2269.7203,-349.7306 2461.4103,-327.8814"/>
<polygon fill="#000000" stroke="#000000" points="2461.8767,-331.351 2471.4159,-326.7409 2461.0839,-324.396 2461.8767,-331.351"/>
</g>
<!-- header_40 -->
<g id="node41" class="node">
<title>header_40</title>
<ellipse fill="none" stroke="#000000" cx="2947.0809" cy="-318.8004" rx="46.9495" ry="18"/>
<text text-anchor="middle" x="2947.0809" y="-314.6004" font-family="Helvetica,sans-Serif" font-size="14.00" fill="#000000">3 : export</text>
</g>
<!-- section_16&#45;&gt;header_40 -->
<g id="edge40" class="edge">
<title>section_16&#45;&gt;header_40</title>
<path fill="none" stroke="#000000" stroke-dasharray="5,2" d="M2987.3689,-413.2254C2979.6362,-395.1019 2967.6322,-366.9676 2958.7369,-346.1191"/>
<polygon fill="#000000" stroke="#000000" points="2961.9175,-344.6548 2954.7738,-336.8306 2955.479,-347.4019 2961.9175,-344.6548"/>
</g>
<!-- prose_41 -->
<g id="node42" class="node">
<title>prose_41</title>
<ellipse fill="none" stroke="#000000" cx="3044.0809" cy="-318.8004" rx="32.4585" ry="18"/>
<text text-anchor="middle" x="3044.0809" y="-314.6004" font-family="Helvetica,sans-Serif" font-size="14.00" fill="#000000">prose</text>
</g>
<!-- section_16&#45;&gt;prose_41 -->
<g id="edge41" class="edge">
<title>section_16&#45;&gt;prose_41</title>
<path fill="none" stroke="#000000" stroke-dasharray="5,2" d="M3002.9536,-413.2254C3010.8941,-394.9946 3023.2466,-366.6343 3032.3429,-345.7498"/>
<polygon fill="#000000" stroke="#000000" points="3035.6048,-347.0255 3036.3893,-336.4597 3029.1872,-344.2302 3035.6048,-347.0255"/>
</g>
<!-- codeblock_42 -->
<g id="node43" class="node">
<title>codeblock_42</title>
<ellipse fill="none" stroke="#000000" cx="3172.0809" cy="-318.8004" rx="77.4211" ry="18"/>
<text text-anchor="middle" x="3172.0809" y="-314.6004" font-family="Helvetica,sans-Serif" font-size="14.00" fill="#000000">code block 78&#45;80</text>
</g>
<!-- section_16&#45;&gt;codeblock_42 -->
<g id="edge42" class="edge">
<title>section_16&#45;&gt;codeblock_42</title>
<path fill="none" stroke="#000000" stroke-dasharray="5,2" d="M3021.1979,-414.7007C3051.7409,-395.2877 3102.4536,-363.055 3136.5578,-341.3786"/>
<polygon fill="#000000" stroke="#000000" points="3138.7144,-344.1551 3145.2765,-335.8371 3134.9595,-338.2474 3138.7144,-344.1551"/>
</g>
<!-- leaf_19 -->
<g id="node20" class="node">
<title>leaf_19</title>
<polygon fill="none" stroke="#c0c0c0" points="807.0809,-186.4002 753.0809,-186.4002 753.0809,-150.4002 807.0809,-150.4002 807.0809,-186.4002"/>
</g>
<!-- raw_18&#45;&gt;leaf_19 -->
<g id="edge19" class="edge">
<title>raw_18&#45;&gt;leaf_19</title>
<path fill="none" stroke="#000000" stroke-dasharray="5,2" d="M780.0809,-300.6586C780.0809,-274.7998 780.0809,-227.1048 780.0809,-196.611"/>
<polygon fill="#000000" stroke="#000000" points="783.581,-196.6063 780.0809,-186.6063 776.581,-196.6063 783.581,-196.6063"/>
</g>
<!-- leaf_23 -->
<g id="node24" class="node">
<title>leaf_23</title>
<polygon fill="none" stroke="#c0c0c0" points="923.0809,-186.4002 869.0809,-186.4002 869.0809,-150.4002 923.0809,-150.4002 923.0809,-186.4002"/>
</g>
<!-- header_20&#45;&gt;leaf_23 -->
<g id="edge23" class="edge">
<title>header_20&#45;&gt;leaf_23</title>
<path fill="none" stroke="#000000" stroke-dasharray="5,2" d="M896.0809,-300.6586C896.0809,-274.7998 896.0809,-227.1048 896.0809,-196.611"/>
<polygon fill="#000000" stroke="#000000" points="899.581,-196.6063 896.0809,-186.6063 892.581,-196.6063 899.581,-196.6063"/>
</g>
<!-- raw_24 -->
<g id="node25" class="node">
<title>raw_24</title>
<ellipse fill="none" stroke="#000000" cx="990.0809" cy="-168.4002" rx="27" ry="18"/>
<text text-anchor="middle" x="990.0809" y="-164.2002" font-family="Helvetica,sans-Serif" font-size="14.00" fill="#000000">raw</text>
</g>
<!-- prose_21&#45;&gt;raw_24 -->
<g id="edge24" class="edge">
<title>prose_21&#45;&gt;raw_24</title>
<path fill="none" stroke="#000000" stroke-dasharray="5,2" d="M1013.8241,-300.6586C1009.1819,-274.7998 1000.6196,-227.1048 995.1453,-196.611"/>
<polygon fill="#000000" stroke="#000000" points="998.5612,-195.8305 993.3493,-186.6063 991.6714,-197.0674 998.5612,-195.8305"/>
</g>
<!-- leaf_26 -->
<g id="node27" class="node">
<title>leaf_26</title>
<polygon fill="none" stroke="#c0c0c0" points="1247.0809,-218.8012 1035.0809,-218.8012 1035.0809,-117.9992 1247.0809,-117.9992 1247.0809,-218.8012"/>
<text text-anchor="middle" x="1141.0809" y="-203.4003" font-family="Inconsolata" font-size="14.00" fill="#000000">function Li.toMarkdown(link)</text>
<text text-anchor="middle" x="1141.0809" y="-188.0002" font-family="Inconsolata" font-size="14.00" fill="#000000"> &#160;url = link.url or &quot;&quot;</text>
<text text-anchor="middle" x="1141.0809" y="-172.6002" font-family="Inconsolata" font-size="14.00" fill="#000000"> &#160;prose = link.prose or &quot;&quot;</text>
<text text-anchor="middle" x="1141.0809" y="-157.2002" font-family="Inconsolata" font-size="14.00" fill="#000000"> &#160;return &quot;[&quot; .. prose .. &quot;]&quot;</text>
<text text-anchor="middle" x="1141.0809" y="-141.8002" font-family="Inconsolata" font-size="14.00" fill="#000000"> &#160;&#160;&#160;&#160;&#160;.. &quot;(&quot; .. url .. &quot;)&quot;</text>
<text text-anchor="middle" x="1141.0809" y="-126.4001" font-family="Inconsolata" font-size="14.00" fill="#000000">end</text>
</g>
<!-- codeblock_22&#45;&gt;leaf_26 -->
<g id="edge26" class="edge">
<title>codeblock_22&#45;&gt;leaf_26</title>
<path fill="none" stroke="#000000" stroke-dasharray="5,2" d="M1144.5984,-300.6586C1144.1251,-282.8636 1143.3768,-254.7276 1142.6919,-228.9726"/>
<polygon fill="#000000" stroke="#000000" points="1146.1879,-228.7752 1142.4232,-218.8719 1139.1904,-228.9614 1146.1879,-228.7752"/>
</g>
<!-- leaf_25 -->
<g id="node26" class="node">
<title>leaf_25</title>
<polygon fill="none" stroke="#c0c0c0" points="1017.0809,-36 963.0809,-36 963.0809,0 1017.0809,0 1017.0809,-36"/>
</g>
<!-- raw_24&#45;&gt;leaf_25 -->
<g id="edge25" class="edge">
<title>raw_24&#45;&gt;leaf_25</title>
<path fill="none" stroke="#000000" stroke-dasharray="5,2" d="M990.0809,-150.2584C990.0809,-124.3997 990.0809,-76.7046 990.0809,-46.2108"/>
<polygon fill="#000000" stroke="#000000" points="993.581,-46.2061 990.0809,-36.2061 986.581,-46.2062 993.581,-46.2061"/>
</g>
<!-- leaf_33 -->
<g id="node34" class="node">
<title>leaf_33</title>
<polygon fill="none" stroke="#c0c0c0" points="1319.0809,-186.4002 1265.0809,-186.4002 1265.0809,-150.4002 1319.0809,-150.4002 1319.0809,-186.4002"/>
</g>
<!-- header_27&#45;&gt;leaf_33 -->
<g id="edge33" class="edge">
<title>header_27&#45;&gt;leaf_33</title>
<path fill="none" stroke="#000000" stroke-dasharray="5,2" d="M1307.9097,-300.6586C1304.8149,-274.7998 1299.1067,-227.1048 1295.4572,-196.611"/>
<polygon fill="#000000" stroke="#000000" points="1298.9234,-196.1195 1294.2598,-186.6063 1291.973,-196.9514 1298.9234,-196.1195"/>
</g>
<!-- raw_34 -->
<g id="node35" class="node">
<title>raw_34</title>
<ellipse fill="none" stroke="#000000" cx="1364.0809" cy="-168.4002" rx="27" ry="18"/>
<text text-anchor="middle" x="1364.0809" y="-164.2002" font-family="Helvetica,sans-Serif" font-size="14.00" fill="#000000">raw</text>
</g>
<!-- prose_28&#45;&gt;raw_34 -->
<g id="edge34" class="edge">
<title>prose_28&#45;&gt;raw_34</title>
<path fill="none" stroke="#000000" stroke-dasharray="5,2" d="M1415.2096,-300.8848C1410.6692,-290.4129 1404.9192,-276.9129 1400.0809,-264.8004 1390.8258,-241.6307 1380.9549,-215.0515 1373.8943,-195.6781"/>
<polygon fill="#000000" stroke="#000000" points="1377.1779,-194.4662 1370.4764,-186.2601 1370.5979,-196.8543 1377.1779,-194.4662"/>
</g>
<!-- leaf_36 -->
<g id="node37" class="node">
<title>leaf_36</title>
<polygon fill="none" stroke="#c0c0c0" points="1698.5809,-195.6007 1409.5809,-195.6007 1409.5809,-141.1997 1698.5809,-141.1997 1698.5809,-195.6007"/>
<text text-anchor="middle" x="1554.0809" y="-180.3002" font-family="Inconsolata" font-size="14.00" fill="#000000">function Li.dotLabel(link)</text>
<text text-anchor="middle" x="1554.0809" y="-164.9002" font-family="Inconsolata" font-size="14.00" fill="#000000"> &#160;return &quot;link: &quot; .. (link.prose or &quot;&quot;)</text>
<text text-anchor="middle" x="1554.0809" y="-149.5002" font-family="Inconsolata" font-size="14.00" fill="#000000">end</text>
</g>
<!-- codeblock_29&#45;&gt;leaf_36 -->
<g id="edge36" class="edge">
<title>codeblock_29&#45;&gt;leaf_36</title>
<path fill="none" stroke="#000000" stroke-dasharray="5,2" d="M1554.0809,-300.6586C1554.0809,-277.2459 1554.0809,-235.9328 1554.0809,-205.6933"/>
<polygon fill="#000000" stroke="#000000" points="1557.581,-205.5066 1554.0809,-195.5066 1550.581,-205.5066 1557.581,-205.5066"/>
</g>
<!-- leaf_37 -->
<g id="node38" class="node">
<title>leaf_37</title>
<polygon fill="none" stroke="#c0c0c0" points="2223.0809,-264.7007 1717.0809,-264.7007 1717.0809,-72.0997 2223.0809,-72.0997 2223.0809,-264.7007"/>
<text text-anchor="middle" x="1970.0809" y="-249.6004" font-family="Inconsolata" font-size="14.00" fill="#000000">function Li.parse(link, line)</text>
<text text-anchor="middle" x="1970.0809" y="-234.2003" font-family="Inconsolata" font-size="14.00" fill="#000000"> &#160;&#45;&#45; This only parses double links, expand</text>
<text text-anchor="middle" x="1970.0809" y="-218.8003" font-family="Inconsolata" font-size="14.00" fill="#000000"> &#160;local WS, sel, ser = m.WS, m.sel, m.ser</text>
<text text-anchor="middle" x="1970.0809" y="-203.4003" font-family="Inconsolata" font-size="14.00" fill="#000000"> &#160;local link_content = L.match(L.Ct(sel * WS * sel * L.C(m.link_prose)</text>
<text text-anchor="middle" x="1970.0809" y="-188.0002" font-family="Inconsolata" font-size="14.00" fill="#000000"> &#160;&#160;&#160;&#160;&#160;&#160;&#160;&#160;&#160;&#160;&#160;&#160;&#160;&#160;&#160;* ser * WS * sel * L.C(m.url) * WS * ser * WS * ser),</text>
<text text-anchor="middle" x="1970.0809" y="-172.6002" font-family="Inconsolata" font-size="14.00" fill="#000000"> &#160;&#160;&#160;&#160;&#160;&#160;&#160;&#160;&#160;&#160;&#160;&#160;&#160;&#160;&#160;line)</text>
<text text-anchor="middle" x="1970.0809" y="-157.2002" font-family="Inconsolata" font-size="14.00" fill="#000000"> &#160;if link_content then</text>
<text text-anchor="middle" x="1970.0809" y="-141.8002" font-family="Inconsolata" font-size="14.00" fill="#000000"> &#160;&#160;&#160;link.prose = link_content[1] or &quot;&quot;</text>
<text text-anchor="middle" x="1970.0809" y="-126.4001" font-family="Inconsolata" font-size="14.00" fill="#000000"> &#160;&#160;&#160;link.url &#160;&#160;= link_content[2] or &quot;&quot;</text>
<text text-anchor="middle" x="1970.0809" y="-111.0001" font-family="Inconsolata" font-size="14.00" fill="#000000"> &#160;end</text>
<text text-anchor="middle" x="1970.0809" y="-95.6001" font-family="Inconsolata" font-size="14.00" fill="#000000"> &#160;return link</text>
<text text-anchor="middle" x="1970.0809" y="-80.2" font-family="Inconsolata" font-size="14.00" fill="#000000">end</text>
</g>
<!-- codeblock_30&#45;&gt;leaf_37 -->
<g id="edge37" class="edge">
<title>codeblock_30&#45;&gt;leaf_37</title>
<path fill="none" stroke="#000000" stroke-dasharray="5,2" d="M1863.4363,-300.9569C1869.6827,-293.1928 1877.5449,-283.4203 1886.1557,-272.7173"/>
<polygon fill="#000000" stroke="#000000" points="1889.0043,-274.7601 1892.5457,-264.7747 1883.5502,-270.3722 1889.0043,-274.7601"/>
</g>
<!-- leaf_38 -->
<g id="node39" class="node">
<title>leaf_38</title>
<polygon fill="none" stroke="#c0c0c0" points="2495.0809,-226.2006 2241.0809,-226.2006 2241.0809,-110.5998 2495.0809,-110.5998 2495.0809,-226.2006"/>
<text text-anchor="middle" x="2368.0809" y="-211.1003" font-family="Inconsolata" font-size="14.00" fill="#000000">local function new(Link, line)</text>
<text text-anchor="middle" x="2368.0809" y="-195.7003" font-family="Inconsolata" font-size="14.00" fill="#000000"> &#160;local link = setmetatable({},Li)</text>
<text text-anchor="middle" x="2368.0809" y="-180.3002" font-family="Inconsolata" font-size="14.00" fill="#000000"> &#160;link.id = &quot;link&quot;</text>
<text text-anchor="middle" x="2368.0809" y="-164.9002" font-family="Inconsolata" font-size="14.00" fill="#000000"> &#160;link.val = line &#45;&#45; refine this</text>
<text text-anchor="middle" x="2368.0809" y="-149.5002" font-family="Inconsolata" font-size="14.00" fill="#000000"> &#160;link:parse(line)</text>
<text text-anchor="middle" x="2368.0809" y="-134.1001" font-family="Inconsolata" font-size="14.00" fill="#000000"> &#160;return link</text>
<text text-anchor="middle" x="2368.0809" y="-118.7001" font-family="Inconsolata" font-size="14.00" fill="#000000">end</text>
</g>
<!-- codeblock_31&#45;&gt;leaf_38 -->
<g id="edge38" class="edge">
<title>codeblock_31&#45;&gt;leaf_38</title>
<path fill="none" stroke="#000000" stroke-dasharray="5,2" d="M2215.2648,-301.2532C2234.6562,-284.395 2265.1599,-257.8761 2293.8311,-232.9504"/>
<polygon fill="#000000" stroke="#000000" points="2296.2138,-235.5167 2301.4643,-226.3144 2291.6211,-230.2339 2296.2138,-235.5167"/>
</g>
<!-- leaf_39 -->
<g id="node40" class="node">
<title>leaf_39</title>
<polygon fill="none" stroke="#c0c0c0" points="2914.5809,-210.9003 2513.5809,-210.9003 2513.5809,-125.9 2914.5809,-125.9 2914.5809,-210.9003"/>
<text text-anchor="middle" x="2714.0809" y="-195.7003" font-family="Inconsolata" font-size="14.00" fill="#000000">local function linkbuild(link, str)</text>
<text text-anchor="middle" x="2714.0809" y="-180.3002" font-family="Inconsolata" font-size="14.00" fill="#000000"> &#160;s:verb(&quot; &#160;&#160;~~ built a link&quot;)</text>
<text text-anchor="middle" x="2714.0809" y="-164.9002" font-family="Inconsolata" font-size="14.00" fill="#000000"> &#160;setmetatable(link, Li)</text>
<text text-anchor="middle" x="2714.0809" y="-149.5002" font-family="Inconsolata" font-size="14.00" fill="#000000"> &#160;return Li.parse(link, str:sub(link.first, link.last))</text>
<text text-anchor="middle" x="2714.0809" y="-134.1001" font-family="Inconsolata" font-size="14.00" fill="#000000">end</text>
</g>
<!-- codeblock_32&#45;&gt;leaf_39 -->
<g id="edge39" class="edge">
<title>codeblock_32&#45;&gt;leaf_39</title>
<path fill="none" stroke="#000000" stroke-dasharray="5,2" d="M2561.2648,-301.2532C2584.617,-280.9516 2624.0846,-246.6398 2657.0601,-217.9721"/>
<polygon fill="#000000" stroke="#000000" points="2659.6036,-220.3986 2664.8541,-211.1962 2655.0109,-215.1158 2659.6036,-220.3986"/>
</g>
<!-- leaf_35 -->
<g id="node36" class="node">
<title>leaf_35</title>
<polygon fill="none" stroke="#c0c0c0" points="1391.0809,-36 1337.0809,-36 1337.0809,0 1391.0809,0 1391.0809,-36"/>
</g>
<!-- raw_34&#45;&gt;leaf_35 -->
<g id="edge35" class="edge">
<title>raw_34&#45;&gt;leaf_35</title>
<path fill="none" stroke="#000000" stroke-dasharray="5,2" d="M1364.0809,-150.2584C1364.0809,-124.3997 1364.0809,-76.7046 1364.0809,-46.2108"/>
<polygon fill="#000000" stroke="#000000" points="1367.581,-46.2061 1364.0809,-36.2061 1360.581,-46.2062 1367.581,-46.2061"/>
</g>
<!-- leaf_43 -->
<g id="node44" class="node">
<title>leaf_43</title>
<polygon fill="none" stroke="#c0c0c0" points="2987.0809,-186.4002 2933.0809,-186.4002 2933.0809,-150.4002 2987.0809,-150.4002 2987.0809,-186.4002"/>
</g>
<!-- header_40&#45;&gt;leaf_43 -->
<g id="edge43" class="edge">
<title>header_40&#45;&gt;leaf_43</title>
<path fill="none" stroke="#000000" stroke-dasharray="5,2" d="M2948.649,-300.6586C2950.8841,-274.7998 2955.0067,-227.1048 2957.6425,-196.611"/>
<polygon fill="#000000" stroke="#000000" points="2961.133,-196.8706 2958.5072,-186.6063 2954.159,-196.2677 2961.133,-196.8706"/>
</g>
<!-- raw_44 -->
<g id="node45" class="node">
<title>raw_44</title>
<ellipse fill="none" stroke="#000000" cx="3044.0809" cy="-168.4002" rx="27" ry="18"/>
<text text-anchor="middle" x="3044.0809" y="-164.2002" font-family="Helvetica,sans-Serif" font-size="14.00" fill="#000000">raw</text>
</g>
<!-- prose_41&#45;&gt;raw_44 -->
<g id="edge44" class="edge">
<title>prose_41&#45;&gt;raw_44</title>
<path fill="none" stroke="#000000" stroke-dasharray="5,2" d="M3044.0809,-300.6586C3044.0809,-274.7998 3044.0809,-227.1048 3044.0809,-196.611"/>
<polygon fill="#000000" stroke="#000000" points="3047.581,-196.6063 3044.0809,-186.6063 3040.581,-196.6063 3047.581,-196.6063"/>
</g>
<!-- leaf_46 -->
<g id="node47" class="node">
<title>leaf_46</title>
<polygon fill="none" stroke="#c0c0c0" points="3236.0809,-186.4002 3108.0809,-186.4002 3108.0809,-150.4002 3236.0809,-150.4002 3236.0809,-186.4002"/>
<text text-anchor="middle" x="3172.0809" y="-164.9002" font-family="Inconsolata" font-size="14.00" fill="#000000">return linkbuild</text>
</g>
<!-- codeblock_42&#45;&gt;leaf_46 -->
<g id="edge46" class="edge">
<title>codeblock_42&#45;&gt;leaf_46</title>
<path fill="none" stroke="#000000" stroke-dasharray="5,2" d="M3172.0809,-300.6586C3172.0809,-274.7998 3172.0809,-227.1048 3172.0809,-196.611"/>
<polygon fill="#000000" stroke="#000000" points="3175.581,-196.6063 3172.0809,-186.6063 3168.581,-196.6063 3175.581,-196.6063"/>
</g>
<!-- leaf_45 -->
<g id="node46" class="node">
<title>leaf_45</title>
<polygon fill="none" stroke="#c0c0c0" points="3071.0809,-36 3017.0809,-36 3017.0809,0 3071.0809,0 3071.0809,-36"/>
</g>
<!-- raw_44&#45;&gt;leaf_45 -->
<g id="edge45" class="edge">
<title>raw_44&#45;&gt;leaf_45</title>
<path fill="none" stroke="#000000" stroke-dasharray="5,2" d="M3044.0809,-150.2584C3044.0809,-124.3997 3044.0809,-76.7046 3044.0809,-46.2108"/>
<polygon fill="#000000" stroke="#000000" points="3047.581,-46.2061 3044.0809,-36.2061 3040.581,-46.2062 3047.581,-46.2061"/>
</g>
</g>
</svg>