<?xml version="1.0" encoding="UTF-8" standalone="no"?>
<!DOCTYPE svg PUBLIC "-//W3C//DTD SVG 1.1//EN"
 "http://www.w3.org/Graphics/SVG/1.1/DTD/svg11.dtd">
<!-- Generated by graphviz version 2.40.1 (20161225.0304)
 -->
<!-- Title: hierarchy Pages: 1 -->
<svg width="1584pt" height="371pt"
 viewBox="0.00 0.00 1583.50 370.60" xmlns="http://www.w3.org/2000/svg" xmlns:xlink="http://www.w3.org/1999/xlink">
<g id="graph0" class="graph" transform="scale(1 1) rotate(0) translate(4 366.6003)">
<title>hierarchy</title>
<polygon fill="#ffffff" stroke="transparent" points="-4,4 -4,-366.6003 1579.5,-366.6003 1579.5,4 -4,4"/>
<!-- doc_0 -->
<g id="node1" class="node">
<title>doc_0</title>
<ellipse fill="none" stroke="#000000" cx="510" cy="-344.6003" rx="42.1216" ry="18"/>
<text text-anchor="middle" x="510" y="-340.4003" font-family="Helvetica,sans-Serif" font-size="14.00" fill="#000000">doc &#45; 47</text>
</g>
<!-- section_1 -->
<g id="node2" class="node">
<title>section_1</title>
<ellipse fill="none" stroke="#000000" cx="510" cy="-272.6003" rx="60.9826" ry="18"/>
<text text-anchor="middle" x="510" y="-268.4003" font-family="Helvetica,sans-Serif" font-size="14.00" fill="#000000">section: 1&#45;47</text>
</g>
<!-- doc_0&#45;&gt;section_1 -->
<g id="edge1" class="edge">
<title>doc_0&#45;&gt;section_1</title>
<path fill="none" stroke="#000000" stroke-dasharray="5,2" d="M510,-326.4316C510,-318.7312 510,-309.5746 510,-301.0169"/>
<polygon fill="#000000" stroke="#000000" points="513.5001,-301.0135 510,-291.0135 506.5001,-301.0136 513.5001,-301.0135"/>
</g>
<!-- header_2 -->
<g id="node3" class="node">
<title>header_2</title>
<ellipse fill="none" stroke="#000000" cx="99" cy="-200.6003" rx="70.1619" ry="18"/>
<text text-anchor="middle" x="99" y="-196.4003" font-family="Helvetica,sans-Serif" font-size="14.00" fill="#000000">1 : Link module</text>
</g>
<!-- section_1&#45;&gt;header_2 -->
<g id="edge2" class="edge">
<title>section_1&#45;&gt;header_2</title>
<path fill="none" stroke="#000000" stroke-dasharray="5,2" d="M455.1769,-264.7614C389.1979,-255.0788 275.151,-237.5496 178,-218.6003 172.3393,-217.4962 166.4654,-216.284 160.5919,-215.0267"/>
<polygon fill="#000000" stroke="#000000" points="161.2613,-211.5905 150.7451,-212.8794 159.7697,-218.4298 161.2613,-211.5905"/>
</g>
<!-- prose_3 -->
<g id="node4" class="node">
<title>prose_3</title>
<ellipse fill="none" stroke="#000000" cx="219" cy="-200.6003" rx="32.4585" ry="18"/>
<text text-anchor="middle" x="219" y="-196.4003" font-family="Helvetica,sans-Serif" font-size="14.00" fill="#000000">prose</text>
</g>
<!-- section_1&#45;&gt;prose_3 -->
<g id="edge3" class="edge">
<title>section_1&#45;&gt;prose_3</title>
<path fill="none" stroke="#000000" stroke-dasharray="5,2" d="M456.0195,-264.1725C404.8215,-255.4253 326.111,-240.0117 260,-218.6003 257.7536,-217.8727 255.463,-217.0644 253.1705,-216.2048"/>
<polygon fill="#000000" stroke="#000000" points="254.4263,-212.9374 243.8423,-212.457 251.8166,-219.4328 254.4263,-212.9374"/>
</g>
<!-- codeblock_4 -->
<g id="node5" class="node">
<title>codeblock_4</title>
<ellipse fill="none" stroke="#000000" cx="342" cy="-200.6003" rx="72.5844" ry="18"/>
<text text-anchor="middle" x="342" y="-196.4003" font-family="Helvetica,sans-Serif" font-size="14.00" fill="#000000">code block 3&#45;10</text>
</g>
<!-- section_1&#45;&gt;codeblock_4 -->
<g id="edge4" class="edge">
<title>section_1&#45;&gt;codeblock_4</title>
<path fill="none" stroke="#000000" stroke-dasharray="5,2" d="M475.1903,-257.6818C449.9142,-246.8492 415.4632,-232.0845 387.9317,-220.2853"/>
<polygon fill="#000000" stroke="#000000" points="389.0787,-216.969 378.5085,-216.2468 386.3212,-223.403 389.0787,-216.969"/>
</g>
<!-- codeblock_5 -->
<g id="node6" class="node">
<title>codeblock_5</title>
<ellipse fill="none" stroke="#000000" cx="510" cy="-200.6003" rx="77.4211" ry="18"/>
<text text-anchor="middle" x="510" y="-196.4003" font-family="Helvetica,sans-Serif" font-size="14.00" fill="#000000">code block 13&#45;15</text>
</g>
<!-- section_1&#45;&gt;codeblock_5 -->
<g id="edge5" class="edge">
<title>section_1&#45;&gt;codeblock_5</title>
<path fill="none" stroke="#000000" stroke-dasharray="5,2" d="M510,-254.4316C510,-246.7312 510,-237.5746 510,-229.0169"/>
<polygon fill="#000000" stroke="#000000" points="513.5001,-229.0135 510,-219.0135 506.5001,-229.0136 513.5001,-229.0135"/>
</g>
<!-- codeblock_6 -->
<g id="node7" class="node">
<title>codeblock_6</title>
<ellipse fill="none" stroke="#000000" cx="788" cy="-200.6003" rx="77.4211" ry="18"/>
<text text-anchor="middle" x="788" y="-196.4003" font-family="Helvetica,sans-Serif" font-size="14.00" fill="#000000">code block 18&#45;28</text>
</g>
<!-- section_1&#45;&gt;codeblock_6 -->
<g id="edge6" class="edge">
<title>section_1&#45;&gt;codeblock_6</title>
<path fill="none" stroke="#000000" stroke-dasharray="5,2" d="M555.906,-260.7109C602.4128,-248.666 674.6516,-229.9567 726.1767,-216.6121"/>
<polygon fill="#000000" stroke="#000000" points="727.0653,-219.9975 735.8684,-214.102 725.3102,-213.2211 727.0653,-219.9975"/>
</g>
<!-- codeblock_7 -->
<g id="node8" class="node">
<title>codeblock_7</title>
<ellipse fill="none" stroke="#000000" cx="1126" cy="-200.6003" rx="77.4211" ry="18"/>
<text text-anchor="middle" x="1126" y="-196.4003" font-family="Helvetica,sans-Serif" font-size="14.00" fill="#000000">code block 32&#45;40</text>
</g>
<!-- section_1&#45;&gt;codeblock_7 -->
<g id="edge7" class="edge">
<title>section_1&#45;&gt;codeblock_7</title>
<path fill="none" stroke="#000000" stroke-dasharray="5,2" d="M566.573,-265.9879C676.7594,-253.1089 920.38,-224.6338 1046.6488,-209.8751"/>
<polygon fill="#000000" stroke="#000000" points="1047.1182,-213.3442 1056.6442,-208.7068 1046.3055,-206.3915 1047.1182,-213.3442"/>
</g>
<!-- codeblock_8 -->
<g id="node9" class="node">
<title>codeblock_8</title>
<ellipse fill="none" stroke="#000000" cx="1416" cy="-200.6003" rx="77.4211" ry="18"/>
<text text-anchor="middle" x="1416" y="-196.4003" font-family="Helvetica,sans-Serif" font-size="14.00" fill="#000000">code block 45&#45;47</text>
</g>
<!-- section_1&#45;&gt;codeblock_8 -->
<g id="edge8" class="edge">
<title>section_1&#45;&gt;codeblock_8</title>
<path fill="none" stroke="#000000" stroke-dasharray="5,2" d="M569.1863,-268.2731C690.03,-259.3882 973.8411,-238.2666 1212,-218.6003 1251.9999,-215.2972 1296.3904,-211.4071 1333.5213,-208.09"/>
<polygon fill="#000000" stroke="#000000" points="1334.1439,-211.5484 1343.792,-207.1706 1333.5197,-204.5763 1334.1439,-211.5484"/>
</g>
<!-- leaf_9 -->
<g id="node10" class="node">
<title>leaf_9</title>
<polygon fill="none" stroke="#c0c0c0" points="54,-91.3001 0,-91.3001 0,-55.3001 54,-55.3001 54,-91.3001"/>
</g>
<!-- prose_3&#45;&gt;leaf_9 -->
<g id="edge9" class="edge">
<title>prose_3&#45;&gt;leaf_9</title>
<path fill="none" stroke="#000000" stroke-dasharray="5,2" d="M194.0281,-189.1148C188.7774,-186.8474 183.2412,-184.5643 178,-182.6003 127.8486,-163.807 103.6566,-181.4627 63,-146.6003 49.2272,-134.7903 40.2282,-116.4713 34.6719,-101.1018"/>
<polygon fill="#000000" stroke="#000000" points="37.9674,-99.9194 31.5022,-91.5258 31.322,-102.1191 37.9674,-99.9194"/>
</g>
<!-- leaf_10 -->
<g id="node11" class="node">
<title>leaf_10</title>
<polygon fill="none" stroke="#c0c0c0" points="326,-123.901 72,-123.901 72,-22.6992 326,-22.6992 326,-123.901"/>
<text text-anchor="middle" x="199" y="-108.9002" font-family="Inconsolata" font-size="14.00" fill="#000000">local L = require &quot;lpeg&quot;</text>
<text text-anchor="middle" x="199" y="-77.5002" font-family="Inconsolata" font-size="14.00" fill="#000000">local m = require &quot;grym/morphemes&quot;</text>
<text text-anchor="middle" x="199" y="-62.1001" font-family="Inconsolata" font-size="14.00" fill="#000000">local u = require &quot;util&quot;</text>
<text text-anchor="middle" x="199" y="-30.7001" font-family="Inconsolata" font-size="14.00" fill="#000000">local Node = require &quot;peg/node&quot;</text>
</g>
<!-- codeblock_4&#45;&gt;leaf_10 -->
<g id="edge10" class="edge">
<title>codeblock_4&#45;&gt;leaf_10</title>
<path fill="none" stroke="#000000" stroke-dasharray="5,2" d="M322.4163,-183.1667C307.0891,-169.5223 284.8563,-149.7303 263.4704,-130.6924"/>
<polygon fill="#000000" stroke="#000000" points="265.7504,-128.0361 255.954,-124.0012 261.096,-133.2646 265.7504,-128.0361"/>
</g>
<!-- leaf_11 -->
<g id="node12" class="node">
<title>leaf_11</title>
<polygon fill="none" stroke="#c0c0c0" points="570,-91.3001 344,-91.3001 344,-55.3001 570,-55.3001 570,-91.3001"/>
<text text-anchor="middle" x="457" y="-69.8002" font-family="Inconsolata" font-size="14.00" fill="#000000">local Li, li = u.inherit(Node)</text>
</g>
<!-- codeblock_5&#45;&gt;leaf_11 -->
<g id="edge11" class="edge">
<title>codeblock_5&#45;&gt;leaf_11</title>
<path fill="none" stroke="#000000" stroke-dasharray="5,2" d="M502.5188,-182.6313C493.6518,-161.3338 478.7805,-125.6145 468.4596,-100.8248"/>
<polygon fill="#000000" stroke="#000000" points="471.6895,-99.4765 464.6148,-91.5899 465.2272,-102.1671 471.6895,-99.4765"/>
</g>
<!-- leaf_12 -->
<g id="node13" class="node">
<title>leaf_12</title>
<polygon fill="none" stroke="#c0c0c0" points="1094,-146.401 588,-146.401 588,-.1993 1094,-.1993 1094,-146.401"/>
<text text-anchor="middle" x="841" y="-131.4003" font-family="Inconsolata" font-size="14.00" fill="#000000">function Li.parse(link, line)</text>
<text text-anchor="middle" x="841" y="-116.0002" font-family="Inconsolata" font-size="14.00" fill="#000000"> &#160;&#45;&#45; This only parses double links, expand</text>
<text text-anchor="middle" x="841" y="-100.6002" font-family="Inconsolata" font-size="14.00" fill="#000000"> &#160;local WS, sel, ser = m.WS, m.sel, m.ser</text>
<text text-anchor="middle" x="841" y="-85.2002" font-family="Inconsolata" font-size="14.00" fill="#000000"> &#160;local link_content = L.match(L.Ct(sel * WS * sel * L.C(m.link_prose)</text>
<text text-anchor="middle" x="841" y="-69.8002" font-family="Inconsolata" font-size="14.00" fill="#000000"> &#160;&#160;&#160;&#160;&#160;&#160;&#160;&#160;&#160;&#160;&#160;&#160;&#160;&#160;&#160;* ser * WS * sel * L.C(m.url) * WS * ser * WS * ser))</text>
<text text-anchor="middle" x="841" y="-54.4001" font-family="Inconsolata" font-size="14.00" fill="#000000"> &#160;link.prose = link_content[1] or &quot;&quot;</text>
<text text-anchor="middle" x="841" y="-39.0001" font-family="Inconsolata" font-size="14.00" fill="#000000"> &#160;link.url &#160;&#160;= link_content[2] or &quot;&quot;</text>
<text text-anchor="middle" x="841" y="-23.6001" font-family="Inconsolata" font-size="14.00" fill="#000000"> &#160;return link</text>
<text text-anchor="middle" x="841" y="-8.2" font-family="Inconsolata" font-size="14.00" fill="#000000">end</text>
</g>
<!-- codeblock_6&#45;&gt;leaf_12 -->
<g id="edge12" class="edge">
<title>codeblock_6&#45;&gt;leaf_12</title>
<path fill="none" stroke="#000000" stroke-dasharray="5,2" d="M795.4812,-182.6313C798.6052,-175.1277 802.4746,-165.8339 806.6277,-155.8586"/>
<polygon fill="#000000" stroke="#000000" points="809.8958,-157.115 810.5083,-146.5379 803.4335,-154.4244 809.8958,-157.115"/>
</g>
<!-- leaf_13 -->
<g id="node14" class="node">
<title>leaf_13</title>
<polygon fill="none" stroke="#c0c0c0" points="1366,-131.1005 1112,-131.1005 1112,-15.4997 1366,-15.4997 1366,-131.1005"/>
<text text-anchor="middle" x="1239" y="-116.0002" font-family="Inconsolata" font-size="14.00" fill="#000000">local function new(Link, line)</text>
<text text-anchor="middle" x="1239" y="-100.6002" font-family="Inconsolata" font-size="14.00" fill="#000000"> &#160;local link = setmetatable({},Li)</text>
<text text-anchor="middle" x="1239" y="-85.2002" font-family="Inconsolata" font-size="14.00" fill="#000000"> &#160;link.id = &quot;link&quot;</text>
<text text-anchor="middle" x="1239" y="-69.8002" font-family="Inconsolata" font-size="14.00" fill="#000000"> &#160;link.val = line &#45;&#45; refine this</text>
<text text-anchor="middle" x="1239" y="-54.4001" font-family="Inconsolata" font-size="14.00" fill="#000000"> &#160;link:parse(line)</text>
<text text-anchor="middle" x="1239" y="-39.0001" font-family="Inconsolata" font-size="14.00" fill="#000000"> &#160;return link</text>
<text text-anchor="middle" x="1239" y="-23.6001" font-family="Inconsolata" font-size="14.00" fill="#000000">end</text>
</g>
<!-- codeblock_7&#45;&gt;leaf_13 -->
<g id="edge13" class="edge">
<title>codeblock_7&#45;&gt;leaf_13</title>
<path fill="none" stroke="#000000" stroke-dasharray="5,2" d="M1141.7122,-182.8997C1152.1248,-171.1694 1166.495,-154.9807 1180.9972,-138.6431"/>
<polygon fill="#000000" stroke="#000000" points="1183.635,-140.9439 1187.656,-131.1417 1178.3999,-136.2969 1183.635,-140.9439"/>
</g>
<!-- leaf_14 -->
<g id="node15" class="node">
<title>leaf_14</title>
<polygon fill="none" stroke="#c0c0c0" points="1575.5,-91.3001 1384.5,-91.3001 1384.5,-55.3001 1575.5,-55.3001 1575.5,-91.3001"/>
<text text-anchor="middle" x="1480" y="-69.8002" font-family="Inconsolata" font-size="14.00" fill="#000000">return u.publish(li, new)</text>
</g>
<!-- codeblock_8&#45;&gt;leaf_14 -->
<g id="edge14" class="edge">
<title>codeblock_8&#45;&gt;leaf_14</title>
<path fill="none" stroke="#000000" stroke-dasharray="5,2" d="M1425.0339,-182.6313C1435.7412,-161.3338 1453.699,-125.6145 1466.162,-100.8248"/>
<polygon fill="#000000" stroke="#000000" points="1469.44,-102.0965 1470.8048,-91.5899 1463.1859,-98.9522 1469.44,-102.0965"/>
</g>
</g>
</svg>