<?xml version="1.0" encoding="UTF-8" standalone="no"?>
<!DOCTYPE svg PUBLIC "-//W3C//DTD SVG 1.1//EN"
 "http://www.w3.org/Graphics/SVG/1.1/DTD/svg11.dtd">
<!-- Generated by graphviz version 2.40.1 (20161225.0304)
 -->
<!-- Title: hierarchy Pages: 1 -->
<svg width="3073pt" height="345pt"
 viewBox="0.00 0.00 3072.76 344.80" xmlns="http://www.w3.org/2000/svg" xmlns:xlink="http://www.w3.org/1999/xlink">
<g id="graph0" class="graph" transform="scale(1 1) rotate(0) translate(4 340.8004)">
<title>hierarchy</title>
<polygon fill="#ffffff" stroke="transparent" points="-4,4 -4,-340.8004 3068.7642,-340.8004 3068.7642,4 -4,4"/>
<!-- doc_0 -->
<g id="node1" class="node">
<title>doc_0</title>
<ellipse fill="none" stroke="#000000" cx="70.0809" cy="-318.8004" rx="42.1216" ry="18"/>
<text text-anchor="middle" x="70.0809" y="-314.6004" font-family="Helvetica,sans-Serif" font-size="14.00" fill="#000000">doc &#45; 79</text>
</g>
<!-- section_1 -->
<g id="node2" class="node">
<title>section_1</title>
<ellipse fill="none" stroke="#000000" cx="70.0809" cy="-168.4002" rx="60.9826" ry="18"/>
<text text-anchor="middle" x="70.0809" y="-164.2002" font-family="Helvetica,sans-Serif" font-size="14.00" fill="#000000">section: 1&#45;17</text>
</g>
<!-- doc_0&#45;&gt;section_1 -->
<g id="edge1" class="edge">
<title>doc_0&#45;&gt;section_1</title>
<path fill="none" stroke="#000000" stroke-dasharray="5,2" d="M70.0809,-300.6586C70.0809,-274.7998 70.0809,-227.1048 70.0809,-196.611"/>
<polygon fill="#000000" stroke="#000000" points="73.581,-196.6063 70.0809,-186.6063 66.581,-196.6063 73.581,-196.6063"/>
</g>
<!-- header_2 -->
<g id="node3" class="node">
<title>header_2</title>
<ellipse fill="none" stroke="#000000" cx="70.0809" cy="-18" rx="70.1619" ry="18"/>
<text text-anchor="middle" x="70.0809" y="-13.8" font-family="Helvetica,sans-Serif" font-size="14.00" fill="#000000">1 : Link module</text>
</g>
<!-- section_1&#45;&gt;header_2 -->
<g id="edge2" class="edge">
<title>section_1&#45;&gt;header_2</title>
<path fill="none" stroke="#000000" stroke-dasharray="5,2" d="M70.0809,-150.2584C70.0809,-124.3997 70.0809,-76.7046 70.0809,-46.2108"/>
<polygon fill="#000000" stroke="#000000" points="73.581,-46.2061 70.0809,-36.2061 66.581,-46.2062 73.581,-46.2061"/>
</g>
<!-- codeblock_3 -->
<g id="node4" class="node">
<title>codeblock_3</title>
<ellipse fill="none" stroke="#000000" cx="276.0809" cy="-318.8004" rx="59.5308" ry="18"/>
<text text-anchor="middle" x="276.0809" y="-314.6004" font-family="Helvetica,sans-Serif" font-size="14.00" fill="#000000">codeblock_3</text>
</g>
<!-- leaf_6 -->
<g id="node5" class="node">
<title>leaf_6</title>
<polygon fill="none" stroke="#c0c0c0" points="403.0809,-219.0011 149.0809,-219.0011 149.0809,-117.7993 403.0809,-117.7993 403.0809,-219.0011"/>
<text text-anchor="middle" x="276.0809" y="-204.0002" font-family="Inconsolata" font-size="14.00" fill="#000000">local L = require &quot;lpeg&quot;</text>
<text text-anchor="middle" x="276.0809" y="-172.6002" font-family="Inconsolata" font-size="14.00" fill="#000000">local m = require &quot;grym/morphemes&quot;</text>
<text text-anchor="middle" x="276.0809" y="-157.2002" font-family="Inconsolata" font-size="14.00" fill="#000000">local u = require &quot;util&quot;</text>
<text text-anchor="middle" x="276.0809" y="-125.8002" font-family="Inconsolata" font-size="14.00" fill="#000000">local Node = require &quot;node/node&quot;</text>
</g>
<!-- codeblock_3&#45;&gt;leaf_6 -->
<g id="edge3" class="edge">
<title>codeblock_3&#45;&gt;leaf_6</title>
<path fill="none" stroke="#000000" stroke-dasharray="5,2" d="M276.0809,-300.6586C276.0809,-282.9326 276.0809,-254.9455 276.0809,-229.2722"/>
<polygon fill="#000000" stroke="#000000" points="279.581,-229.2 276.0809,-219.2 272.581,-229.2001 279.581,-229.2"/>
</g>
<!-- codeblock_4 -->
<g id="node6" class="node">
<title>codeblock_4</title>
<ellipse fill="none" stroke="#000000" cx="534.0809" cy="-318.8004" rx="59.5308" ry="18"/>
<text text-anchor="middle" x="534.0809" y="-314.6004" font-family="Helvetica,sans-Serif" font-size="14.00" fill="#000000">codeblock_4</text>
</g>
<!-- leaf_7 -->
<g id="node7" class="node">
<title>leaf_7</title>
<polygon fill="none" stroke="#c0c0c0" points="647.0809,-187.7008 421.0809,-187.7008 421.0809,-149.0996 647.0809,-149.0996 647.0809,-187.7008"/>
<text text-anchor="middle" x="534.0809" y="-172.6002" font-family="Inconsolata" font-size="14.00" fill="#000000">local Li, li = u.inherit(Node)</text>
<text text-anchor="middle" x="534.0809" y="-157.2002" font-family="Inconsolata" font-size="14.00" fill="#000000">Li.id = &quot;link&quot;</text>
</g>
<!-- codeblock_4&#45;&gt;leaf_7 -->
<g id="edge4" class="edge">
<title>codeblock_4&#45;&gt;leaf_7</title>
<path fill="none" stroke="#000000" stroke-dasharray="5,2" d="M534.0809,-300.6586C534.0809,-275.2192 534.0809,-228.6459 534.0809,-198.1079"/>
<polygon fill="#000000" stroke="#000000" points="537.581,-198.0358 534.0809,-188.0359 530.581,-198.0359 537.581,-198.0358"/>
</g>
<!-- section_5 -->
<g id="node8" class="node">
<title>section_5</title>
<ellipse fill="none" stroke="#000000" cx="739.0809" cy="-318.8004" rx="47.9272" ry="18"/>
<text text-anchor="middle" x="739.0809" y="-314.6004" font-family="Helvetica,sans-Serif" font-size="14.00" fill="#000000">section_5</text>
</g>
<!-- header_8 -->
<g id="node9" class="node">
<title>header_8</title>
<ellipse fill="none" stroke="#000000" cx="739.0809" cy="-168.4002" rx="74.488" ry="18"/>
<text text-anchor="middle" x="739.0809" y="-164.2002" font-family="Helvetica,sans-Serif" font-size="14.00" fill="#000000">2 : Transformers</text>
</g>
<!-- section_5&#45;&gt;header_8 -->
<g id="edge5" class="edge">
<title>section_5&#45;&gt;header_8</title>
<path fill="none" stroke="#000000" stroke-dasharray="5,2" d="M739.0809,-300.6586C739.0809,-274.7998 739.0809,-227.1048 739.0809,-196.611"/>
<polygon fill="#000000" stroke="#000000" points="742.581,-196.6063 739.0809,-186.6063 735.581,-196.6063 742.581,-196.6063"/>
</g>
<!-- section_9 -->
<g id="node10" class="node">
<title>section_9</title>
<ellipse fill="none" stroke="#000000" cx="902.0809" cy="-318.8004" rx="47.9272" ry="18"/>
<text text-anchor="middle" x="902.0809" y="-314.6004" font-family="Helvetica,sans-Serif" font-size="14.00" fill="#000000">section_9</text>
</g>
<!-- header_12 -->
<g id="node11" class="node">
<title>header_12</title>
<ellipse fill="none" stroke="#000000" cx="902.0809" cy="-168.4002" rx="70.6291" ry="18"/>
<text text-anchor="middle" x="902.0809" y="-164.2002" font-family="Helvetica,sans-Serif" font-size="14.00" fill="#000000">3 : toMarkdown</text>
</g>
<!-- section_9&#45;&gt;header_12 -->
<g id="edge6" class="edge">
<title>section_9&#45;&gt;header_12</title>
<path fill="none" stroke="#000000" stroke-dasharray="5,2" d="M902.0809,-300.6586C902.0809,-274.7998 902.0809,-227.1048 902.0809,-196.611"/>
<polygon fill="#000000" stroke="#000000" points="905.581,-196.6063 902.0809,-186.6063 898.581,-196.6063 905.581,-196.6063"/>
</g>
<!-- codeblock_13 -->
<g id="node12" class="node">
<title>codeblock_13</title>
<ellipse fill="none" stroke="#000000" cx="1097.0809" cy="-318.8004" rx="64.8671" ry="18"/>
<text text-anchor="middle" x="1097.0809" y="-314.6004" font-family="Helvetica,sans-Serif" font-size="14.00" fill="#000000">codeblock_13</text>
</g>
<!-- leaf_14 -->
<g id="node13" class="node">
<title>leaf_14</title>
<polygon fill="none" stroke="#c0c0c0" points="1203.0809,-218.8012 991.0809,-218.8012 991.0809,-117.9992 1203.0809,-117.9992 1203.0809,-218.8012"/>
<text text-anchor="middle" x="1097.0809" y="-203.4003" font-family="Inconsolata" font-size="14.00" fill="#000000">function Li.toMarkdown(link)</text>
<text text-anchor="middle" x="1097.0809" y="-188.0002" font-family="Inconsolata" font-size="14.00" fill="#000000"> &#160;url = link.url or &quot;&quot;</text>
<text text-anchor="middle" x="1097.0809" y="-172.6002" font-family="Inconsolata" font-size="14.00" fill="#000000"> &#160;prose = link.prose or &quot;&quot;</text>
<text text-anchor="middle" x="1097.0809" y="-157.2002" font-family="Inconsolata" font-size="14.00" fill="#000000"> &#160;return &quot;[&quot; .. prose .. &quot;]&quot;</text>
<text text-anchor="middle" x="1097.0809" y="-141.8002" font-family="Inconsolata" font-size="14.00" fill="#000000"> &#160;&#160;&#160;&#160;&#160;.. &quot;(&quot; .. url .. &quot;)&quot;</text>
<text text-anchor="middle" x="1097.0809" y="-126.4001" font-family="Inconsolata" font-size="14.00" fill="#000000">end</text>
</g>
<!-- codeblock_13&#45;&gt;leaf_14 -->
<g id="edge7" class="edge">
<title>codeblock_13&#45;&gt;leaf_14</title>
<path fill="none" stroke="#000000" stroke-dasharray="5,2" d="M1097.0809,-300.6586C1097.0809,-282.8636 1097.0809,-254.7276 1097.0809,-228.9726"/>
<polygon fill="#000000" stroke="#000000" points="1100.581,-228.8718 1097.0809,-218.8719 1093.581,-228.8719 1100.581,-228.8718"/>
</g>
<!-- section_10 -->
<g id="node14" class="node">
<title>section_10</title>
<ellipse fill="none" stroke="#000000" cx="1277.0809" cy="-318.8004" rx="52.7641" ry="18"/>
<text text-anchor="middle" x="1277.0809" y="-314.6004" font-family="Helvetica,sans-Serif" font-size="14.00" fill="#000000">section_10</text>
</g>
<!-- header_15 -->
<g id="node15" class="node">
<title>header_15</title>
<ellipse fill="none" stroke="#000000" cx="1277.0809" cy="-168.4002" rx="56.156" ry="18"/>
<text text-anchor="middle" x="1277.0809" y="-164.2002" font-family="Helvetica,sans-Serif" font-size="14.00" fill="#000000">3 : dotLabel</text>
</g>
<!-- section_10&#45;&gt;header_15 -->
<g id="edge8" class="edge">
<title>section_10&#45;&gt;header_15</title>
<path fill="none" stroke="#000000" stroke-dasharray="5,2" d="M1277.0809,-300.6586C1277.0809,-274.7998 1277.0809,-227.1048 1277.0809,-196.611"/>
<polygon fill="#000000" stroke="#000000" points="1280.581,-196.6063 1277.0809,-186.6063 1273.581,-196.6063 1280.581,-196.6063"/>
</g>
<!-- codeblock_16 -->
<g id="node16" class="node">
<title>codeblock_16</title>
<ellipse fill="none" stroke="#000000" cx="1468.0809" cy="-318.8004" rx="64.8671" ry="18"/>
<text text-anchor="middle" x="1468.0809" y="-314.6004" font-family="Helvetica,sans-Serif" font-size="14.00" fill="#000000">codeblock_16</text>
</g>
<!-- leaf_20 -->
<g id="node17" class="node">
<title>leaf_20</title>
<polygon fill="none" stroke="#c0c0c0" points="1584.5809,-195.6007 1351.5809,-195.6007 1351.5809,-141.1997 1584.5809,-141.1997 1584.5809,-195.6007"/>
<text text-anchor="middle" x="1468.0809" y="-180.3002" font-family="Inconsolata" font-size="14.00" fill="#000000">function Li.dotLabel(link)</text>
<text text-anchor="middle" x="1468.0809" y="-164.9002" font-family="Inconsolata" font-size="14.00" fill="#000000"> &#160;return &quot;link: &quot; .. link.prose</text>
<text text-anchor="middle" x="1468.0809" y="-149.5002" font-family="Inconsolata" font-size="14.00" fill="#000000">end</text>
</g>
<!-- codeblock_16&#45;&gt;leaf_20 -->
<g id="edge9" class="edge">
<title>codeblock_16&#45;&gt;leaf_20</title>
<path fill="none" stroke="#000000" stroke-dasharray="5,2" d="M1468.0809,-300.6586C1468.0809,-277.2459 1468.0809,-235.9328 1468.0809,-205.6933"/>
<polygon fill="#000000" stroke="#000000" points="1471.581,-205.5066 1468.0809,-195.5066 1464.581,-205.5066 1471.581,-205.5066"/>
</g>
<!-- codeblock_17 -->
<g id="node18" class="node">
<title>codeblock_17</title>
<ellipse fill="none" stroke="#000000" cx="1856.0809" cy="-318.8004" rx="64.8671" ry="18"/>
<text text-anchor="middle" x="1856.0809" y="-314.6004" font-family="Helvetica,sans-Serif" font-size="14.00" fill="#000000">codeblock_17</text>
</g>
<!-- leaf_21 -->
<g id="node19" class="node">
<title>leaf_21</title>
<polygon fill="none" stroke="#c0c0c0" points="2109.0809,-264.7007 1603.0809,-264.7007 1603.0809,-72.0997 2109.0809,-72.0997 2109.0809,-264.7007"/>
<text text-anchor="middle" x="1856.0809" y="-249.6004" font-family="Inconsolata" font-size="14.00" fill="#000000">function Li.parse(link, line)</text>
<text text-anchor="middle" x="1856.0809" y="-234.2003" font-family="Inconsolata" font-size="14.00" fill="#000000"> &#160;&#45;&#45; This only parses double links, expand</text>
<text text-anchor="middle" x="1856.0809" y="-218.8003" font-family="Inconsolata" font-size="14.00" fill="#000000"> &#160;local WS, sel, ser = m.WS, m.sel, m.ser</text>
<text text-anchor="middle" x="1856.0809" y="-203.4003" font-family="Inconsolata" font-size="14.00" fill="#000000"> &#160;local link_content = L.match(L.Ct(sel * WS * sel * L.C(m.link_prose)</text>
<text text-anchor="middle" x="1856.0809" y="-188.0002" font-family="Inconsolata" font-size="14.00" fill="#000000"> &#160;&#160;&#160;&#160;&#160;&#160;&#160;&#160;&#160;&#160;&#160;&#160;&#160;&#160;&#160;* ser * WS * sel * L.C(m.url) * WS * ser * WS * ser),</text>
<text text-anchor="middle" x="1856.0809" y="-172.6002" font-family="Inconsolata" font-size="14.00" fill="#000000"> &#160;&#160;&#160;&#160;&#160;&#160;&#160;&#160;&#160;&#160;&#160;&#160;&#160;&#160;&#160;line)</text>
<text text-anchor="middle" x="1856.0809" y="-157.2002" font-family="Inconsolata" font-size="14.00" fill="#000000"> &#160;if link_content then</text>
<text text-anchor="middle" x="1856.0809" y="-141.8002" font-family="Inconsolata" font-size="14.00" fill="#000000"> &#160;&#160;&#160;link.prose = link_content[1] or &quot;&quot;</text>
<text text-anchor="middle" x="1856.0809" y="-126.4001" font-family="Inconsolata" font-size="14.00" fill="#000000"> &#160;&#160;&#160;link.url &#160;&#160;= link_content[2] or &quot;&quot;</text>
<text text-anchor="middle" x="1856.0809" y="-111.0001" font-family="Inconsolata" font-size="14.00" fill="#000000"> &#160;end</text>
<text text-anchor="middle" x="1856.0809" y="-95.6001" font-family="Inconsolata" font-size="14.00" fill="#000000"> &#160;return link</text>
<text text-anchor="middle" x="1856.0809" y="-80.2" font-family="Inconsolata" font-size="14.00" fill="#000000">end</text>
</g>
<!-- codeblock_17&#45;&gt;leaf_21 -->
<g id="edge10" class="edge">
<title>codeblock_17&#45;&gt;leaf_21</title>
<path fill="none" stroke="#000000" stroke-dasharray="5,2" d="M1856.0809,-300.6586C1856.0809,-293.4512 1856.0809,-284.5475 1856.0809,-274.7927"/>
<polygon fill="#000000" stroke="#000000" points="1859.581,-274.7854 1856.0809,-264.7855 1852.581,-274.7855 1859.581,-274.7854"/>
</g>
<!-- codeblock_18 -->
<g id="node20" class="node">
<title>codeblock_18</title>
<ellipse fill="none" stroke="#000000" cx="2254.0809" cy="-318.8004" rx="64.8671" ry="18"/>
<text text-anchor="middle" x="2254.0809" y="-314.6004" font-family="Helvetica,sans-Serif" font-size="14.00" fill="#000000">codeblock_18</text>
</g>
<!-- leaf_22 -->
<g id="node21" class="node">
<title>leaf_22</title>
<polygon fill="none" stroke="#c0c0c0" points="2381.0809,-226.2006 2127.0809,-226.2006 2127.0809,-110.5998 2381.0809,-110.5998 2381.0809,-226.2006"/>
<text text-anchor="middle" x="2254.0809" y="-211.1003" font-family="Inconsolata" font-size="14.00" fill="#000000">local function new(Link, line)</text>
<text text-anchor="middle" x="2254.0809" y="-195.7003" font-family="Inconsolata" font-size="14.00" fill="#000000"> &#160;local link = setmetatable({},Li)</text>
<text text-anchor="middle" x="2254.0809" y="-180.3002" font-family="Inconsolata" font-size="14.00" fill="#000000"> &#160;link.id = &quot;link&quot;</text>
<text text-anchor="middle" x="2254.0809" y="-164.9002" font-family="Inconsolata" font-size="14.00" fill="#000000"> &#160;link.val = line &#45;&#45; refine this</text>
<text text-anchor="middle" x="2254.0809" y="-149.5002" font-family="Inconsolata" font-size="14.00" fill="#000000"> &#160;link:parse(line)</text>
<text text-anchor="middle" x="2254.0809" y="-134.1001" font-family="Inconsolata" font-size="14.00" fill="#000000"> &#160;return link</text>
<text text-anchor="middle" x="2254.0809" y="-118.7001" font-family="Inconsolata" font-size="14.00" fill="#000000">end</text>
</g>
<!-- codeblock_18&#45;&gt;leaf_22 -->
<g id="edge11" class="edge">
<title>codeblock_18&#45;&gt;leaf_22</title>
<path fill="none" stroke="#000000" stroke-dasharray="5,2" d="M2254.0809,-300.6586C2254.0809,-284.5934 2254.0809,-260.1 2254.0809,-236.5392"/>
<polygon fill="#000000" stroke="#000000" points="2257.581,-236.5261 2254.0809,-226.5261 2250.581,-236.5262 2257.581,-236.5261"/>
</g>
<!-- codeblock_19 -->
<g id="node22" class="node">
<title>codeblock_19</title>
<ellipse fill="none" stroke="#000000" cx="2600.0809" cy="-318.8004" rx="64.8671" ry="18"/>
<text text-anchor="middle" x="2600.0809" y="-314.6004" font-family="Helvetica,sans-Serif" font-size="14.00" fill="#000000">codeblock_19</text>
</g>
<!-- leaf_23 -->
<g id="node23" class="node">
<title>leaf_23</title>
<polygon fill="none" stroke="#c0c0c0" points="2800.5809,-210.9003 2399.5809,-210.9003 2399.5809,-125.9 2800.5809,-125.9 2800.5809,-210.9003"/>
<text text-anchor="middle" x="2600.0809" y="-195.7003" font-family="Inconsolata" font-size="14.00" fill="#000000">local function linkbuild(link, str)</text>
<text text-anchor="middle" x="2600.0809" y="-180.3002" font-family="Inconsolata" font-size="14.00" fill="#000000"> &#160;io.write(&quot; &#160;&#160;~~ built a link\n&quot;)</text>
<text text-anchor="middle" x="2600.0809" y="-164.9002" font-family="Inconsolata" font-size="14.00" fill="#000000"> &#160;setmetatable(link, Li)</text>
<text text-anchor="middle" x="2600.0809" y="-149.5002" font-family="Inconsolata" font-size="14.00" fill="#000000"> &#160;return Li.parse(link, str:sub(link.first, link.last))</text>
<text text-anchor="middle" x="2600.0809" y="-134.1001" font-family="Inconsolata" font-size="14.00" fill="#000000">end</text>
</g>
<!-- codeblock_19&#45;&gt;leaf_23 -->
<g id="edge12" class="edge">
<title>codeblock_19&#45;&gt;leaf_23</title>
<path fill="none" stroke="#000000" stroke-dasharray="5,2" d="M2600.0809,-300.6586C2600.0809,-281.1222 2600.0809,-249.1218 2600.0809,-221.4918"/>
<polygon fill="#000000" stroke="#000000" points="2603.581,-221.1515 2600.0809,-211.1515 2596.581,-221.1515 2603.581,-221.1515"/>
</g>
<!-- section_11 -->
<g id="node24" class="node">
<title>section_11</title>
<ellipse fill="none" stroke="#000000" cx="2865.0809" cy="-318.8004" rx="52.4608" ry="18"/>
<text text-anchor="middle" x="2865.0809" y="-314.6004" font-family="Helvetica,sans-Serif" font-size="14.00" fill="#000000">section_11</text>
</g>
<!-- header_24 -->
<g id="node25" class="node">
<title>header_24</title>
<ellipse fill="none" stroke="#000000" cx="2865.0809" cy="-168.4002" rx="46.9495" ry="18"/>
<text text-anchor="middle" x="2865.0809" y="-164.2002" font-family="Helvetica,sans-Serif" font-size="14.00" fill="#000000">3 : export</text>
</g>
<!-- section_11&#45;&gt;header_24 -->
<g id="edge13" class="edge">
<title>section_11&#45;&gt;header_24</title>
<path fill="none" stroke="#000000" stroke-dasharray="5,2" d="M2865.0809,-300.6586C2865.0809,-274.7998 2865.0809,-227.1048 2865.0809,-196.611"/>
<polygon fill="#000000" stroke="#000000" points="2868.581,-196.6063 2865.0809,-186.6063 2861.581,-196.6063 2868.581,-196.6063"/>
</g>
<!-- codeblock_25 -->
<g id="node26" class="node">
<title>codeblock_25</title>
<ellipse fill="none" stroke="#000000" cx="3000.0809" cy="-318.8004" rx="64.8671" ry="18"/>
<text text-anchor="middle" x="3000.0809" y="-314.6004" font-family="Helvetica,sans-Serif" font-size="14.00" fill="#000000">codeblock_25</text>
</g>
<!-- leaf_26 -->
<g id="node27" class="node">
<title>leaf_26</title>
<polygon fill="none" stroke="#c0c0c0" points="3064.0809,-186.4002 2936.0809,-186.4002 2936.0809,-150.4002 3064.0809,-150.4002 3064.0809,-186.4002"/>
<text text-anchor="middle" x="3000.0809" y="-164.9002" font-family="Inconsolata" font-size="14.00" fill="#000000">return linkbuild</text>
</g>
<!-- codeblock_25&#45;&gt;leaf_26 -->
<g id="edge14" class="edge">
<title>codeblock_25&#45;&gt;leaf_26</title>
<path fill="none" stroke="#000000" stroke-dasharray="5,2" d="M3000.0809,-300.6586C3000.0809,-274.7998 3000.0809,-227.1048 3000.0809,-196.611"/>
<polygon fill="#000000" stroke="#000000" points="3003.581,-196.6063 3000.0809,-186.6063 2996.581,-196.6063 3003.581,-196.6063"/>
</g>
</g>
</svg>