<?xml version="1.0" encoding="UTF-8" standalone="no"?>
<!DOCTYPE svg PUBLIC "-//W3C//DTD SVG 1.1//EN"
 "http://www.w3.org/Graphics/SVG/1.1/DTD/svg11.dtd">
<!-- Generated by graphviz version 2.40.1 (20161225.0304)
 -->
<!-- Title: hierarchy Pages: 1 -->
<svg width="271pt" height="425pt"
 viewBox="0.00 0.00 271.38 425.40" xmlns="http://www.w3.org/2000/svg" xmlns:xlink="http://www.w3.org/1999/xlink">
<g id="graph0" class="graph" transform="scale(1 1) rotate(0) translate(4 421.4003)">
<title>hierarchy</title>
<polygon fill="#ffffff" stroke="transparent" points="-4,4 -4,-421.4003 267.3845,-421.4003 267.3845,4 -4,4"/>
<!-- doc_0 -->
<g id="node1" class="node">
<title>doc_0</title>
<ellipse fill="none" stroke="#000000" cx="67.6196" cy="-399.4003" rx="42.1216" ry="18"/>
<text text-anchor="middle" x="67.6196" y="-395.2003" font-family="Helvetica,sans-Serif" font-size="14.00" fill="#000000">doc &#45; 27</text>
</g>
<!-- section_1 -->
<g id="node2" class="node">
<title>section_1</title>
<ellipse fill="none" stroke="#000000" cx="67.6196" cy="-208.7002" rx="60.9826" ry="18"/>
<text text-anchor="middle" x="67.6196" y="-204.5002" font-family="Helvetica,sans-Serif" font-size="14.00" fill="#000000">section: 1&#45;27</text>
</g>
<!-- doc_0&#45;&gt;section_1 -->
<g id="edge1" class="edge">
<title>doc_0&#45;&gt;section_1</title>
<path fill="none" stroke="#000000" stroke-dasharray="5,2" d="M67.6196,-381.1152C67.6196,-347.7259 67.6196,-276.6793 67.6196,-236.9997"/>
<polygon fill="#000000" stroke="#000000" points="71.1197,-236.9299 67.6196,-226.9299 64.1197,-236.93 71.1197,-236.9299"/>
</g>
<!-- header_2 -->
<g id="node3" class="node">
<title>header_2</title>
<ellipse fill="none" stroke="#000000" cx="67.6196" cy="-18" rx="67.7394" ry="18"/>
<text text-anchor="middle" x="67.6196" y="-13.8" font-family="Helvetica,sans-Serif" font-size="14.00" fill="#000000">1 : List module</text>
</g>
<!-- section_1&#45;&gt;header_2 -->
<g id="edge2" class="edge">
<title>section_1&#45;&gt;header_2</title>
<path fill="none" stroke="#000000" stroke-dasharray="5,2" d="M67.6196,-190.415C67.6196,-157.0257 67.6196,-85.9792 67.6196,-46.2996"/>
<polygon fill="#000000" stroke="#000000" points="71.1197,-46.2297 67.6196,-36.2298 64.1197,-46.2298 71.1197,-46.2297"/>
</g>
<!-- codeblock_3 -->
<g id="node4" class="node">
<title>codeblock_3</title>
<ellipse fill="none" stroke="#000000" cx="203.6196" cy="-399.4003" rx="59.5308" ry="18"/>
<text text-anchor="middle" x="203.6196" y="-395.2003" font-family="Helvetica,sans-Serif" font-size="14.00" fill="#000000">codeblock_3</text>
</g>
<!-- leaf_4 -->
<g id="node5" class="node">
<title>leaf_4</title>
<polygon fill="none" stroke="#c0c0c0" points="260.6196,-345.6008 146.6196,-345.6008 146.6196,-71.7995 260.6196,-71.7995 260.6196,-345.6008"/>
<text text-anchor="middle" x="203.6196" y="-330.2003" font-family="Inconsolata" font-size="14.00" fill="#000000">&#45; List</text>
<text text-anchor="middle" x="203.6196" y="-314.8003" font-family="Inconsolata" font-size="14.00" fill="#000000">&#45; Same list</text>
<text text-anchor="middle" x="203.6196" y="-283.4003" font-family="Inconsolata" font-size="14.00" fill="#000000">&#45; New list</text>
<text text-anchor="middle" x="203.6196" y="-268.0002" font-family="Inconsolata" font-size="14.00" fill="#000000"> &#160;</text>
<text text-anchor="middle" x="203.6196" y="-252.6002" font-family="Inconsolata" font-size="14.00" fill="#000000"> &#160;&#45; Same list!</text>
<text text-anchor="middle" x="203.6196" y="-221.2002" font-family="Inconsolata" font-size="14.00" fill="#000000"> &#160;&#45; Still same</text>
<text text-anchor="middle" x="203.6196" y="-205.8002" font-family="Inconsolata" font-size="14.00" fill="#000000">&#45; Same</text>
<text text-anchor="middle" x="203.6196" y="-174.4001" font-family="Inconsolata" font-size="14.00" fill="#000000">&#45; New</text>
<text text-anchor="middle" x="203.6196" y="-143.0001" font-family="Inconsolata" font-size="14.00" fill="#000000">Prose break</text>
<text text-anchor="middle" x="203.6196" y="-111.6001" font-family="Inconsolata" font-size="14.00" fill="#000000"> &#160;&#160;&#45; New</text>
<text text-anchor="middle" x="203.6196" y="-80.2" font-family="Inconsolata" font-size="14.00" fill="#000000"> &#160;&#160;&#160;&#160;&#160;&#45; Same</text>
</g>
<!-- codeblock_3&#45;&gt;leaf_4 -->
<g id="edge3" class="edge">
<title>codeblock_3&#45;&gt;leaf_4</title>
<path fill="none" stroke="#000000" stroke-dasharray="5,2" d="M203.6196,-381.1152C203.6196,-374.0535 203.6196,-365.3073 203.6196,-355.5297"/>
<polygon fill="#000000" stroke="#000000" points="207.1197,-355.4325 203.6196,-345.4325 200.1197,-355.4325 207.1197,-355.4325"/>
</g>
</g>
</svg>