<?xml version="1.0" encoding="UTF-8" standalone="no"?>
<!DOCTYPE svg PUBLIC "-//W3C//DTD SVG 1.1//EN"
 "http://www.w3.org/Graphics/SVG/1.1/DTD/svg11.dtd">
<!-- Generated by graphviz version 2.40.1 (20161225.0304)
 -->
<!-- Title: hierarchy Pages: 1 -->
<svg width="1438pt" height="982pt"
 viewBox="0.00 0.00 1438.00 982.00" xmlns="http://www.w3.org/2000/svg" xmlns:xlink="http://www.w3.org/1999/xlink">
<g id="graph0" class="graph" transform="scale(1 1) rotate(0) translate(4 978.0009)">
<title>hierarchy</title>
<polygon fill="#ffffff" stroke="transparent" points="-4,4 -4,-978.0009 1434,-978.0009 1434,4 -4,4"/>
<!-- doc_0 -->
<g id="node1" class="node">
<title>doc_0</title>
<ellipse fill="none" stroke="#000000" cx="690.5" cy="-956.0009" rx="42.1216" ry="18"/>
<text text-anchor="middle" x="690.5" y="-951.8009" font-family="Helvetica,sans-Serif" font-size="14.00" fill="#000000">doc &#45; 27</text>
</g>
<!-- section_1 -->
<g id="node2" class="node">
<title>section_1</title>
<ellipse fill="none" stroke="#000000" cx="690.5" cy="-884.0009" rx="60.9826" ry="18"/>
<text text-anchor="middle" x="690.5" y="-879.8009" font-family="Helvetica,sans-Serif" font-size="14.00" fill="#000000">section: 1&#45;27</text>
</g>
<!-- doc_0&#45;&gt;section_1 -->
<g id="edge1" class="edge">
<title>doc_0&#45;&gt;section_1</title>
<path fill="none" stroke="#000000" stroke-dasharray="5,2" d="M690.5,-937.8323C690.5,-930.1319 690.5,-920.9753 690.5,-912.4176"/>
<polygon fill="#000000" stroke="#000000" points="694.0001,-912.4142 690.5,-902.4142 687.0001,-912.4142 694.0001,-912.4142"/>
</g>
<!-- header_2 -->
<g id="node3" class="node">
<title>header_2</title>
<ellipse fill="none" stroke="#000000" cx="443.5" cy="-615.1007" rx="67.7394" ry="18"/>
<text text-anchor="middle" x="443.5" y="-610.9007" font-family="Helvetica,sans-Serif" font-size="14.00" fill="#000000">1 : List module</text>
</g>
<!-- section_1&#45;&gt;header_2 -->
<g id="edge2" class="edge">
<title>section_1&#45;&gt;header_2</title>
<path fill="none" stroke="#000000" stroke-dasharray="5,2" d="M640.9055,-873.3935C597.2122,-863.151 537.8884,-846.7662 520.5,-830.0009 467.5421,-778.9409 450.8996,-688.9453 445.7515,-643.3205"/>
<polygon fill="#000000" stroke="#000000" points="449.2205,-642.8383 444.7222,-633.2459 442.2568,-643.5499 449.2205,-642.8383"/>
</g>
<!-- block_3 -->
<g id="node4" class="node">
<title>block_3</title>
<ellipse fill="none" stroke="#000000" cx="575.5" cy="-615.1007" rx="45.9804" ry="18"/>
<text text-anchor="middle" x="575.5" y="-610.9007" font-family="Helvetica,sans-Serif" font-size="14.00" fill="#000000">block 1&#45;5</text>
</g>
<!-- section_1&#45;&gt;block_3 -->
<g id="edge3" class="edge">
<title>section_1&#45;&gt;block_3</title>
<path fill="none" stroke="#000000" stroke-dasharray="5,2" d="M665.9703,-867.3607C653.6251,-857.7897 639.4254,-844.7477 630.5,-830.0009 594.1015,-769.8625 581.6469,-686.2305 577.4961,-643.1809"/>
<polygon fill="#000000" stroke="#000000" points="580.9764,-642.8028 576.6102,-633.1495 574.0036,-643.4186 580.9764,-642.8028"/>
</g>
<!-- block_4 -->
<g id="node5" class="node">
<title>block_4</title>
<ellipse fill="none" stroke="#000000" cx="690.5" cy="-615.1007" rx="50.8172" ry="18"/>
<text text-anchor="middle" x="690.5" y="-610.9007" font-family="Helvetica,sans-Serif" font-size="14.00" fill="#000000">block 6&#45;26</text>
</g>
<!-- section_1&#45;&gt;block_4 -->
<g id="edge4" class="edge">
<title>section_1&#45;&gt;block_4</title>
<path fill="none" stroke="#000000" stroke-dasharray="5,2" d="M690.5,-865.9401C690.5,-820.1259 690.5,-699.0969 690.5,-643.6172"/>
<polygon fill="#000000" stroke="#000000" points="694.0001,-643.437 690.5,-633.437 687.0001,-643.437 694.0001,-643.437"/>
</g>
<!-- block_5 -->
<g id="node6" class="node">
<title>block_5</title>
<ellipse fill="none" stroke="#000000" cx="815.5" cy="-615.1007" rx="55.6542" ry="18"/>
<text text-anchor="middle" x="815.5" y="-610.9007" font-family="Helvetica,sans-Serif" font-size="14.00" fill="#000000">block 27&#45;27</text>
</g>
<!-- section_1&#45;&gt;block_5 -->
<g id="edge5" class="edge">
<title>section_1&#45;&gt;block_5</title>
<path fill="none" stroke="#000000" stroke-dasharray="5,2" d="M714.4747,-867.4358C726.815,-857.7978 741.1833,-844.6699 750.5,-830.0009 788.6446,-769.9428 805.4392,-686.2766 811.9372,-643.2008"/>
<polygon fill="#000000" stroke="#000000" points="815.4217,-643.558 813.3741,-633.1629 808.4923,-642.566 815.4217,-643.558"/>
</g>
<!-- leaf_11 -->
<g id="node12" class="node">
<title>leaf_11</title>
<polygon fill="none" stroke="#c0c0c0" points="1430,-829.9012 889,-829.9012 889,-400.3001 1430,-400.3001 1430,-829.9012"/>
<text text-anchor="middle" x="1159.5" y="-814.8009" font-family="Inconsolata" font-size="14.00" fill="#000000">* List module</text>
<text text-anchor="middle" x="1159.5" y="-783.4009" font-family="Inconsolata" font-size="14.00" fill="#000000"> &#160;List collection requires paying attention to indentation, so we parse all</text>
<text text-anchor="middle" x="1159.5" y="-768.0009" font-family="Inconsolata" font-size="14.00" fill="#000000">of the following correctly:</text>
<text text-anchor="middle" x="1159.5" y="-736.6008" font-family="Inconsolata" font-size="14.00" fill="#000000">#!orb</text>
<text text-anchor="middle" x="1159.5" y="-721.2008" font-family="Inconsolata" font-size="14.00" fill="#000000">&#45; List</text>
<text text-anchor="middle" x="1159.5" y="-705.8008" font-family="Inconsolata" font-size="14.00" fill="#000000">&#45; Same list</text>
<text text-anchor="middle" x="1159.5" y="-674.4007" font-family="Inconsolata" font-size="14.00" fill="#000000">&#45; New list</text>
<text text-anchor="middle" x="1159.5" y="-659.0007" font-family="Inconsolata" font-size="14.00" fill="#000000">	</text>
<text text-anchor="middle" x="1159.5" y="-643.6007" font-family="Inconsolata" font-size="14.00" fill="#000000">	&#45; Same list!</text>
<text text-anchor="middle" x="1159.5" y="-612.2007" font-family="Inconsolata" font-size="14.00" fill="#000000">	&#45; Still same</text>
<text text-anchor="middle" x="1159.5" y="-596.8006" font-family="Inconsolata" font-size="14.00" fill="#000000">&#45; Same</text>
<text text-anchor="middle" x="1159.5" y="-565.4006" font-family="Inconsolata" font-size="14.00" fill="#000000">&#45; New</text>
<text text-anchor="middle" x="1159.5" y="-534.0006" font-family="Inconsolata" font-size="14.00" fill="#000000">Prose break</text>
<text text-anchor="middle" x="1159.5" y="-502.6005" font-family="Inconsolata" font-size="14.00" fill="#000000"> &#160;&#160;&#45; New</text>
<text text-anchor="middle" x="1159.5" y="-471.2005" font-family="Inconsolata" font-size="14.00" fill="#000000"> &#160;&#160;&#160;&#160;&#160;&#45; Same</text>
<text text-anchor="middle" x="1159.5" y="-439.8005" font-family="Inconsolata" font-size="14.00" fill="#000000">#/orb</text>
<text text-anchor="middle" x="1159.5" y="-408.4004" font-family="Inconsolata" font-size="14.00" fill="#000000">Which means we&#39;ll need to work it into the =own= state machine. </text>
</g>
<!-- section_1&#45;&gt;leaf_11 -->
<g id="edge11" class="edge">
<title>section_1&#45;&gt;leaf_11</title>
<path fill="none" stroke="#000000" stroke-dasharray="5,2" d="M742.8664,-874.7071C779.8696,-866.911 830.2304,-853.7926 879.5045,-830.3003"/>
<polygon fill="#000000" stroke="#000000" points="881.2544,-833.3403 888.6889,-825.792 878.1698,-827.0566 881.2544,-833.3403"/>
</g>
<!-- leaf_6 -->
<g id="node7" class="node">
<title>leaf_6</title>
<polygon fill="none" stroke="#c0c0c0" points="541,-364.1008 0,-364.1008 0,-309.4999 541,-309.4999 541,-364.1008"/>
<text text-anchor="middle" x="270.5" y="-333.0004" font-family="Inconsolata" font-size="14.00" fill="#000000"> &#160;List collection requires paying attention to indentation, so we parse all</text>
<text text-anchor="middle" x="270.5" y="-317.6004" font-family="Inconsolata" font-size="14.00" fill="#000000">of the following correctly:</text>
</g>
<!-- block_3&#45;&gt;leaf_6 -->
<g id="edge6" class="edge">
<title>block_3&#45;&gt;leaf_6</title>
<path fill="none" stroke="#000000" stroke-dasharray="5,2" d="M576.5729,-596.869C577.9374,-555.6699 575.1595,-454.7404 520.5,-400.2004 507.4261,-387.1551 476.818,-375.9338 441.3339,-366.7156"/>
<polygon fill="#000000" stroke="#000000" points="441.7585,-363.2135 431.2068,-364.1689 440.0512,-370.0021 441.7585,-363.2135"/>
</g>
<!-- codeblock_7 -->
<g id="node8" class="node">
<title>codeblock_7</title>
<ellipse fill="none" stroke="#000000" cx="631.5" cy="-336.8004" rx="72.5844" ry="18"/>
<text text-anchor="middle" x="631.5" y="-332.6004" font-family="Helvetica,sans-Serif" font-size="14.00" fill="#000000">code block 6&#45;25</text>
</g>
<!-- block_4&#45;&gt;codeblock_7 -->
<g id="edge7" class="edge">
<title>block_4&#45;&gt;codeblock_7</title>
<path fill="none" stroke="#000000" stroke-dasharray="5,2" d="M686.6288,-596.8406C676.5857,-549.4674 649.6367,-422.3506 637.5323,-365.2544"/>
<polygon fill="#000000" stroke="#000000" points="640.8833,-364.1844 635.3854,-355.1277 634.0355,-365.6361 640.8833,-364.1844"/>
</g>
<!-- leaf_9 -->
<g id="node10" class="node">
<title>leaf_9</title>
<polygon fill="none" stroke="#c0c0c0" points="776.5,-354.8004 722.5,-354.8004 722.5,-318.8004 776.5,-318.8004 776.5,-354.8004"/>
</g>
<!-- block_4&#45;&gt;leaf_9 -->
<g id="edge9" class="edge">
<title>block_4&#45;&gt;leaf_9</title>
<path fill="none" stroke="#000000" stroke-dasharray="5,2" d="M694.3712,-596.8406C704.4143,-549.4674 731.3633,-422.3506 743.4677,-365.2544"/>
<polygon fill="#000000" stroke="#000000" points="746.9645,-365.6361 745.6146,-355.1277 740.1167,-364.1844 746.9645,-365.6361"/>
</g>
<!-- leaf_10 -->
<g id="node11" class="node">
<title>leaf_10</title>
<polygon fill="none" stroke="#c0c0c0" points="1258.5,-354.8004 794.5,-354.8004 794.5,-318.8004 1258.5,-318.8004 1258.5,-354.8004"/>
<text text-anchor="middle" x="1026.5" y="-333.3004" font-family="Inconsolata" font-size="14.00" fill="#000000">Which means we&#39;ll need to work it into the =own= state machine. </text>
</g>
<!-- block_5&#45;&gt;leaf_10 -->
<g id="edge10" class="edge">
<title>block_5&#45;&gt;leaf_10</title>
<path fill="none" stroke="#000000" stroke-dasharray="5,2" d="M815.9375,-596.8009C817.8607,-556.3344 827.9106,-458.2518 879.5,-400.2004 896.1325,-381.4846 919.2629,-368.0899 942.2583,-358.5889"/>
<polygon fill="#000000" stroke="#000000" points="943.7008,-361.783 951.7381,-354.8799 941.1502,-355.2642 943.7008,-361.783"/>
</g>
<!-- leaf_8 -->
<g id="node9" class="node">
<title>leaf_8</title>
<polygon fill="none" stroke="#c0c0c0" points="688.5,-273.6008 574.5,-273.6008 574.5,.2005 688.5,.2005 688.5,-273.6008"/>
<text text-anchor="middle" x="631.5" y="-258.2003" font-family="Inconsolata" font-size="14.00" fill="#000000">&#45; List</text>
<text text-anchor="middle" x="631.5" y="-242.8003" font-family="Inconsolata" font-size="14.00" fill="#000000">&#45; Same list</text>
<text text-anchor="middle" x="631.5" y="-211.4003" font-family="Inconsolata" font-size="14.00" fill="#000000">&#45; New list</text>
<text text-anchor="middle" x="631.5" y="-196.0002" font-family="Inconsolata" font-size="14.00" fill="#000000"> &#160;</text>
<text text-anchor="middle" x="631.5" y="-180.6002" font-family="Inconsolata" font-size="14.00" fill="#000000"> &#160;&#45; Same list!</text>
<text text-anchor="middle" x="631.5" y="-149.2002" font-family="Inconsolata" font-size="14.00" fill="#000000"> &#160;&#45; Still same</text>
<text text-anchor="middle" x="631.5" y="-133.8002" font-family="Inconsolata" font-size="14.00" fill="#000000">&#45; Same</text>
<text text-anchor="middle" x="631.5" y="-102.4001" font-family="Inconsolata" font-size="14.00" fill="#000000">&#45; New</text>
<text text-anchor="middle" x="631.5" y="-71.0001" font-family="Inconsolata" font-size="14.00" fill="#000000">Prose break</text>
<text text-anchor="middle" x="631.5" y="-39.6001" font-family="Inconsolata" font-size="14.00" fill="#000000"> &#160;&#160;&#45; New</text>
<text text-anchor="middle" x="631.5" y="-8.2" font-family="Inconsolata" font-size="14.00" fill="#000000"> &#160;&#160;&#160;&#160;&#160;&#45; Same</text>
</g>
<!-- codeblock_7&#45;&gt;leaf_8 -->
<g id="edge8" class="edge">
<title>codeblock_7&#45;&gt;leaf_8</title>
<path fill="none" stroke="#000000" stroke-dasharray="5,2" d="M631.5,-318.6899C631.5,-309.4776 631.5,-297.3454 631.5,-283.7077"/>
<polygon fill="#000000" stroke="#000000" points="635.0001,-283.5314 631.5,-273.5314 628.0001,-283.5315 635.0001,-283.5314"/>
</g>
</g>
</svg>