<?xml version="1.0" encoding="UTF-8" standalone="no"?>
<!DOCTYPE svg PUBLIC "-//W3C//DTD SVG 1.1//EN"
 "http://www.w3.org/Graphics/SVG/1.1/DTD/svg11.dtd">
<!-- Generated by graphviz version 2.40.1 (20161225.0304)
 -->
<!-- Title: hierarchy Pages: 1 -->
<svg width="1103pt" height="604pt"
 viewBox="0.00 0.00 1102.50 604.20" xmlns="http://www.w3.org/2000/svg" xmlns:xlink="http://www.w3.org/1999/xlink">
<g id="graph0" class="graph" transform="scale(1 1) rotate(0) translate(4 600.2004)">
<title>hierarchy</title>
<polygon fill="#ffffff" stroke="transparent" points="-4,4 -4,-600.2004 1098.5,-600.2004 1098.5,4 -4,4"/>
<!-- doc_0 -->
<g id="node1" class="node">
<title>doc_0</title>
<ellipse fill="none" stroke="#000000" cx="447.5" cy="-578.2004" rx="42.1216" ry="18"/>
<text text-anchor="middle" x="447.5" y="-574.0004" font-family="Helvetica,sans-Serif" font-size="14.00" fill="#000000">doc &#45; 27</text>
</g>
<!-- section_1 -->
<g id="node2" class="node">
<title>section_1</title>
<ellipse fill="none" stroke="#000000" cx="447.5" cy="-506.2004" rx="60.9826" ry="18"/>
<text text-anchor="middle" x="447.5" y="-502.0004" font-family="Helvetica,sans-Serif" font-size="14.00" fill="#000000">section: 1&#45;27</text>
</g>
<!-- doc_0&#45;&gt;section_1 -->
<g id="edge1" class="edge">
<title>doc_0&#45;&gt;section_1</title>
<path fill="none" stroke="#000000" stroke-dasharray="5,2" d="M447.5,-560.0318C447.5,-552.3314 447.5,-543.1748 447.5,-534.617"/>
<polygon fill="#000000" stroke="#000000" points="451.0001,-534.6136 447.5,-524.6137 444.0001,-534.6137 451.0001,-534.6136"/>
</g>
<!-- header_2 -->
<g id="node3" class="node">
<title>header_2</title>
<ellipse fill="none" stroke="#000000" cx="268.5" cy="-434.2004" rx="67.7394" ry="18"/>
<text text-anchor="middle" x="268.5" y="-430.0004" font-family="Helvetica,sans-Serif" font-size="14.00" fill="#000000">1 : List module</text>
</g>
<!-- section_1&#45;&gt;header_2 -->
<g id="edge2" class="edge">
<title>section_1&#45;&gt;header_2</title>
<path fill="none" stroke="#000000" stroke-dasharray="5,2" d="M411.2767,-491.6301C383.6225,-480.5067 345.2987,-465.0915 315.3183,-453.0323"/>
<polygon fill="#000000" stroke="#000000" points="316.4854,-449.7293 305.9017,-449.2446 313.8731,-456.2236 316.4854,-449.7293"/>
</g>
<!-- prose_3 -->
<g id="node4" class="node">
<title>prose_3</title>
<ellipse fill="none" stroke="#000000" cx="386.5" cy="-434.2004" rx="32.4585" ry="18"/>
<text text-anchor="middle" x="386.5" y="-430.0004" font-family="Helvetica,sans-Serif" font-size="14.00" fill="#000000">prose</text>
</g>
<!-- section_1&#45;&gt;prose_3 -->
<g id="edge3" class="edge">
<title>section_1&#45;&gt;prose_3</title>
<path fill="none" stroke="#000000" stroke-dasharray="5,2" d="M432.4213,-488.4026C424.8139,-479.4234 415.4694,-468.3938 407.2003,-458.6335"/>
<polygon fill="#000000" stroke="#000000" points="409.7035,-456.1736 400.5688,-450.8062 404.3626,-460.6986 409.7035,-456.1736"/>
</g>
<!-- codeblock_4 -->
<g id="node5" class="node">
<title>codeblock_4</title>
<ellipse fill="none" stroke="#000000" cx="509.5" cy="-434.2004" rx="72.5844" ry="18"/>
<text text-anchor="middle" x="509.5" y="-430.0004" font-family="Helvetica,sans-Serif" font-size="14.00" fill="#000000">code block 6&#45;25</text>
</g>
<!-- section_1&#45;&gt;codeblock_4 -->
<g id="edge4" class="edge">
<title>section_1&#45;&gt;codeblock_4</title>
<path fill="none" stroke="#000000" stroke-dasharray="5,2" d="M462.8258,-488.4026C470.2779,-479.7487 479.3698,-469.1904 487.5427,-459.6993"/>
<polygon fill="#000000" stroke="#000000" points="490.2625,-461.9045 494.1356,-452.043 484.9581,-457.3368 490.2625,-461.9045"/>
</g>
<!-- prose_5 -->
<g id="node6" class="node">
<title>prose_5</title>
<ellipse fill="none" stroke="#000000" cx="779.5" cy="-434.2004" rx="32.4585" ry="18"/>
<text text-anchor="middle" x="779.5" y="-430.0004" font-family="Helvetica,sans-Serif" font-size="14.00" fill="#000000">prose</text>
</g>
<!-- section_1&#45;&gt;prose_5 -->
<g id="edge5" class="edge">
<title>section_1&#45;&gt;prose_5</title>
<path fill="none" stroke="#000000" stroke-dasharray="5,2" d="M496.8453,-495.499C562.7571,-481.2049 678.284,-456.1509 739.2297,-442.9337"/>
<polygon fill="#000000" stroke="#000000" points="740.2079,-446.303 749.2389,-440.7631 738.7243,-439.462 740.2079,-446.303"/>
</g>
<!-- leaf_6 -->
<g id="node7" class="node">
<title>leaf_6</title>
<polygon fill="none" stroke="#c0c0c0" points="322,-261.5002 215,-261.5002 215,-225.5002 322,-225.5002 322,-261.5002"/>
<text text-anchor="middle" x="268.5" y="-240.0002" font-family="Inconsolata" font-size="14.00" fill="#000000">* List module</text>
</g>
<!-- header_2&#45;&gt;leaf_6 -->
<g id="edge6" class="edge">
<title>header_2&#45;&gt;leaf_6</title>
<path fill="none" stroke="#000000" stroke-dasharray="5,2" d="M268.5,-415.9153C268.5,-382.5259 268.5,-311.4794 268.5,-271.7998"/>
<polygon fill="#000000" stroke="#000000" points="272.0001,-271.73 268.5,-261.73 265.0001,-271.73 272.0001,-271.73"/>
</g>
<!-- raw_7 -->
<g id="node8" class="node">
<title>raw_7</title>
<ellipse fill="none" stroke="#000000" cx="376.5" cy="-243.5002" rx="27" ry="18"/>
<text text-anchor="middle" x="376.5" y="-239.3002" font-family="Helvetica,sans-Serif" font-size="14.00" fill="#000000">raw</text>
</g>
<!-- prose_3&#45;&gt;raw_7 -->
<g id="edge7" class="edge">
<title>prose_3&#45;&gt;raw_7</title>
<path fill="none" stroke="#000000" stroke-dasharray="5,2" d="M385.5412,-415.9153C383.7903,-382.5259 380.0647,-311.4794 377.984,-271.7998"/>
<polygon fill="#000000" stroke="#000000" points="381.4749,-271.533 377.4559,-261.73 374.4845,-271.8996 381.4749,-271.533"/>
</g>
<!-- leaf_9 -->
<g id="node10" class="node">
<title>leaf_9</title>
<polygon fill="none" stroke="#c0c0c0" points="566.5,-380.4009 452.5,-380.4009 452.5,-106.5996 566.5,-106.5996 566.5,-380.4009"/>
<text text-anchor="middle" x="509.5" y="-365.0004" font-family="Inconsolata" font-size="14.00" fill="#000000">&#45; List</text>
<text text-anchor="middle" x="509.5" y="-349.6004" font-family="Inconsolata" font-size="14.00" fill="#000000">&#45; Same list</text>
<text text-anchor="middle" x="509.5" y="-318.2003" font-family="Inconsolata" font-size="14.00" fill="#000000">&#45; New list</text>
<text text-anchor="middle" x="509.5" y="-302.8003" font-family="Inconsolata" font-size="14.00" fill="#000000"> &#160;</text>
<text text-anchor="middle" x="509.5" y="-287.4003" font-family="Inconsolata" font-size="14.00" fill="#000000"> &#160;&#45; Same list!</text>
<text text-anchor="middle" x="509.5" y="-256.0002" font-family="Inconsolata" font-size="14.00" fill="#000000"> &#160;&#45; Still same</text>
<text text-anchor="middle" x="509.5" y="-240.6002" font-family="Inconsolata" font-size="14.00" fill="#000000">&#45; Same</text>
<text text-anchor="middle" x="509.5" y="-209.2002" font-family="Inconsolata" font-size="14.00" fill="#000000">&#45; New</text>
<text text-anchor="middle" x="509.5" y="-177.8002" font-family="Inconsolata" font-size="14.00" fill="#000000">Prose break</text>
<text text-anchor="middle" x="509.5" y="-146.4001" font-family="Inconsolata" font-size="14.00" fill="#000000"> &#160;&#160;&#45; New</text>
<text text-anchor="middle" x="509.5" y="-115.0001" font-family="Inconsolata" font-size="14.00" fill="#000000"> &#160;&#160;&#160;&#160;&#160;&#45; Same</text>
</g>
<!-- codeblock_4&#45;&gt;leaf_9 -->
<g id="edge9" class="edge">
<title>codeblock_4&#45;&gt;leaf_9</title>
<path fill="none" stroke="#000000" stroke-dasharray="5,2" d="M509.5,-415.9153C509.5,-408.8535 509.5,-400.1074 509.5,-390.3298"/>
<polygon fill="#000000" stroke="#000000" points="513.0001,-390.2325 509.5,-380.2326 506.0001,-390.2326 513.0001,-390.2325"/>
</g>
<!-- raw_10 -->
<g id="node11" class="node">
<title>raw_10</title>
<ellipse fill="none" stroke="#000000" cx="741.5" cy="-243.5002" rx="27" ry="18"/>
<text text-anchor="middle" x="741.5" y="-239.3002" font-family="Helvetica,sans-Serif" font-size="14.00" fill="#000000">raw</text>
</g>
<!-- prose_5&#45;&gt;raw_10 -->
<g id="edge10" class="edge">
<title>prose_5&#45;&gt;raw_10</title>
<path fill="none" stroke="#000000" stroke-dasharray="5,2" d="M775.9251,-416.2598C769.2767,-382.8954 754.9691,-311.0938 747.0524,-271.3643"/>
<polygon fill="#000000" stroke="#000000" points="750.48,-270.6553 745.0931,-261.5321 743.6149,-272.0233 750.48,-270.6553"/>
</g>
<!-- literal_11 -->
<g id="node12" class="node">
<title>literal_11</title>
<ellipse fill="none" stroke="#000000" cx="881.5" cy="-243.5002" rx="31.481" ry="18"/>
<text text-anchor="middle" x="881.5" y="-239.3002" font-family="Helvetica,sans-Serif" font-size="14.00" fill="#000000">literal</text>
</g>
<!-- prose_5&#45;&gt;literal_11 -->
<g id="edge11" class="edge">
<title>prose_5&#45;&gt;literal_11</title>
<path fill="none" stroke="#000000" stroke-dasharray="5,2" d="M788.7317,-416.9407C806.6647,-383.4131 846.3041,-309.3029 867.4954,-269.6834"/>
<polygon fill="#000000" stroke="#000000" points="870.5854,-271.327 872.2157,-260.8583 864.4129,-268.0255 870.5854,-271.327"/>
</g>
<!-- raw_12 -->
<g id="node13" class="node">
<title>raw_12</title>
<ellipse fill="none" stroke="#000000" cx="1005.5" cy="-243.5002" rx="27" ry="18"/>
<text text-anchor="middle" x="1005.5" y="-239.3002" font-family="Helvetica,sans-Serif" font-size="14.00" fill="#000000">raw</text>
</g>
<!-- prose_5&#45;&gt;raw_12 -->
<g id="edge12" class="edge">
<title>prose_5&#45;&gt;raw_12</title>
<path fill="none" stroke="#000000" stroke-dasharray="5,2" d="M810.139,-428.599C841.0609,-421.6587 888.7929,-407.2825 921.5,-380.2004 957.3532,-350.5132 982.1918,-301.3346 995.1184,-270.7614"/>
<polygon fill="#000000" stroke="#000000" points="998.4986,-271.7422 999.0442,-261.1614 992.0194,-269.0926 998.4986,-271.7422"/>
</g>
<!-- leaf_8 -->
<g id="node9" class="node">
<title>leaf_8</title>
<polygon fill="none" stroke="#c0c0c0" points="541,-70.7004 0,-70.7004 0,-.0997 541,-.0997 541,-70.7004"/>
<text text-anchor="middle" x="270.5" y="-23.6001" font-family="Inconsolata" font-size="14.00" fill="#000000"> &#160;List collection requires paying attention to indentation, so we parse all</text>
<text text-anchor="middle" x="270.5" y="-8.2" font-family="Inconsolata" font-size="14.00" fill="#000000">of the following correctly:</text>
</g>
<!-- raw_7&#45;&gt;leaf_8 -->
<g id="edge8" class="edge">
<title>raw_7&#45;&gt;leaf_8</title>
<path fill="none" stroke="#000000" stroke-dasharray="5,2" d="M372.6835,-225.3512C366.4994,-198.2901 352.694,-146.3171 330.5,-106.8001 325.0973,-97.1804 318.3198,-87.6232 311.2822,-78.7767"/>
<polygon fill="#000000" stroke="#000000" points="313.834,-76.3695 304.7778,-70.8707 308.4283,-80.8168 313.834,-76.3695"/>
</g>
<!-- leaf_13 -->
<g id="node14" class="node">
<title>leaf_13</title>
<polygon fill="none" stroke="#c0c0c0" points="876,-55.3021 559,-55.3021 559,-15.4979 876,-15.4979 876,-55.3021"/>
<text text-anchor="middle" x="717.5" y="-23.9" font-family="Inconsolata" font-size="14.00" fill="#000000">Which means we&#39;ll need to work it into the </text>
</g>
<!-- raw_10&#45;&gt;leaf_13 -->
<g id="edge13" class="edge">
<title>raw_10&#45;&gt;leaf_13</title>
<path fill="none" stroke="#000000" stroke-dasharray="5,2" d="M739.4121,-225.3967C735.2716,-189.4948 725.985,-108.9723 720.9326,-65.1639"/>
<polygon fill="#000000" stroke="#000000" points="724.3972,-64.655 719.7745,-55.1219 717.4433,-65.4571 724.3972,-64.655"/>
</g>
<!-- leaf_14 -->
<g id="node15" class="node">
<title>leaf_14</title>
<polygon fill="none" stroke="#c0c0c0" points="948.5,-53.4 894.5,-53.4 894.5,-17.4 948.5,-17.4 948.5,-53.4"/>
<text text-anchor="middle" x="921.5" y="-31.9" font-family="Inconsolata" font-size="14.00" fill="#000000">own</text>
</g>
<!-- literal_11&#45;&gt;leaf_14 -->
<g id="edge14" class="edge">
<title>literal_11&#45;&gt;leaf_14</title>
<path fill="none" stroke="#000000" stroke-dasharray="5,2" d="M884.9798,-225.3967C891.9684,-189.0381 907.7535,-106.9162 916.0969,-63.5098"/>
<polygon fill="#000000" stroke="#000000" points="919.5492,-64.0908 917.9998,-53.6099 912.675,-62.7694 919.5492,-64.0908"/>
</g>
<!-- leaf_15 -->
<g id="node16" class="node">
<title>leaf_15</title>
<polygon fill="none" stroke="#c0c0c0" points="1094.5,-53.4 966.5,-53.4 966.5,-17.4 1094.5,-17.4 1094.5,-53.4"/>
<text text-anchor="middle" x="1030.5" y="-31.9" font-family="Inconsolata" font-size="14.00" fill="#000000"> state machine. </text>
</g>
<!-- raw_12&#45;&gt;leaf_15 -->
<g id="edge15" class="edge">
<title>raw_12&#45;&gt;leaf_15</title>
<path fill="none" stroke="#000000" stroke-dasharray="5,2" d="M1007.6749,-225.3967C1012.0335,-189.115 1021.8668,-107.2632 1027.0899,-63.7856"/>
<polygon fill="#000000" stroke="#000000" points="1030.5945,-63.956 1028.3124,-53.6099 1023.6445,-63.121 1030.5945,-63.956"/>
</g>
</g>
</svg>