<?xml version="1.0" encoding="UTF-8" standalone="no"?>
<!DOCTYPE svg PUBLIC "-//W3C//DTD SVG 1.1//EN"
 "http://www.w3.org/Graphics/SVG/1.1/DTD/svg11.dtd">
<!-- Generated by graphviz version 2.40.1 (20161225.0304)
 -->
<!-- Title: hierarchy Pages: 1 -->
<svg width="1236pt" height="497pt"
 viewBox="0.00 0.00 1236.00 497.40" xmlns="http://www.w3.org/2000/svg" xmlns:xlink="http://www.w3.org/1999/xlink">
<g id="graph0" class="graph" transform="scale(1 1) rotate(0) translate(4 493.4003)">
<title>hierarchy</title>
<polygon fill="#ffffff" stroke="transparent" points="-4,4 -4,-493.4003 1232,-493.4003 1232,4 -4,4"/>
<!-- doc_0 -->
<g id="node1" class="node">
<title>doc_0</title>
<ellipse fill="none" stroke="#000000" cx="463" cy="-471.4003" rx="42.1216" ry="18"/>
<text text-anchor="middle" x="463" y="-467.2003" font-family="Helvetica,sans-Serif" font-size="14.00" fill="#000000">doc &#45; 27</text>
</g>
<!-- section_1 -->
<g id="node2" class="node">
<title>section_1</title>
<ellipse fill="none" stroke="#000000" cx="463" cy="-399.4003" rx="60.9826" ry="18"/>
<text text-anchor="middle" x="463" y="-395.2003" font-family="Helvetica,sans-Serif" font-size="14.00" fill="#000000">section: 1&#45;27</text>
</g>
<!-- doc_0&#45;&gt;section_1 -->
<g id="edge1" class="edge">
<title>doc_0&#45;&gt;section_1</title>
<path fill="none" stroke="#000000" stroke-dasharray="5,2" d="M463,-453.2317C463,-445.5313 463,-436.3747 463,-427.817"/>
<polygon fill="#000000" stroke="#000000" points="466.5001,-427.8136 463,-417.8136 459.5001,-427.8136 466.5001,-427.8136"/>
</g>
<!-- header_2 -->
<g id="node3" class="node">
<title>header_2</title>
<ellipse fill="none" stroke="#000000" cx="171" cy="-327.4003" rx="67.7394" ry="18"/>
<text text-anchor="middle" x="171" y="-323.2003" font-family="Helvetica,sans-Serif" font-size="14.00" fill="#000000">1 : List module</text>
</g>
<!-- section_1&#45;&gt;header_2 -->
<g id="edge2" class="edge">
<title>section_1&#45;&gt;header_2</title>
<path fill="none" stroke="#000000" stroke-dasharray="5,2" d="M416.0851,-387.8323C365.6982,-375.4081 285.4992,-355.633 230.6616,-342.1114"/>
<polygon fill="#000000" stroke="#000000" points="231.2774,-338.6585 220.7302,-339.6626 229.6015,-345.4549 231.2774,-338.6585"/>
</g>
<!-- block_3 -->
<g id="node4" class="node">
<title>block_3</title>
<ellipse fill="none" stroke="#000000" cx="395" cy="-327.4003" rx="45.9804" ry="18"/>
<text text-anchor="middle" x="395" y="-323.2003" font-family="Helvetica,sans-Serif" font-size="14.00" fill="#000000">block 1&#45;5</text>
</g>
<!-- section_1&#45;&gt;block_3 -->
<g id="edge3" class="edge">
<title>section_1&#45;&gt;block_3</title>
<path fill="none" stroke="#000000" stroke-dasharray="5,2" d="M446.5391,-381.9712C438.103,-373.0388 427.6831,-362.006 418.425,-352.2033"/>
<polygon fill="#000000" stroke="#000000" points="420.7201,-349.536 411.3093,-344.669 415.631,-354.3424 420.7201,-349.536"/>
</g>
<!-- codeblock_4 -->
<g id="node5" class="node">
<title>codeblock_4</title>
<ellipse fill="none" stroke="#000000" cx="636" cy="-327.4003" rx="72.5844" ry="18"/>
<text text-anchor="middle" x="636" y="-323.2003" font-family="Helvetica,sans-Serif" font-size="14.00" fill="#000000">code block 6&#45;25</text>
</g>
<!-- section_1&#45;&gt;codeblock_4 -->
<g id="edge4" class="edge">
<title>section_1&#45;&gt;codeblock_4</title>
<path fill="none" stroke="#000000" stroke-dasharray="5,2" d="M498.4266,-384.6563C524.7157,-373.7152 560.8105,-358.6931 589.4323,-346.7811"/>
<polygon fill="#000000" stroke="#000000" points="590.9399,-349.9448 598.8274,-342.871 588.2502,-343.4821 590.9399,-349.9448"/>
</g>
<!-- block_5 -->
<g id="node6" class="node">
<title>block_5</title>
<ellipse fill="none" stroke="#000000" cx="915" cy="-327.4003" rx="55.6542" ry="18"/>
<text text-anchor="middle" x="915" y="-323.2003" font-family="Helvetica,sans-Serif" font-size="14.00" fill="#000000">block 27&#45;27</text>
</g>
<!-- section_1&#45;&gt;block_5 -->
<g id="edge5" class="edge">
<title>section_1&#45;&gt;block_5</title>
<path fill="none" stroke="#000000" stroke-dasharray="5,2" d="M516.6253,-390.8583C601.5144,-377.3361 766.2875,-351.0891 854.996,-336.9585"/>
<polygon fill="#000000" stroke="#000000" points="855.5796,-340.4098 864.9045,-335.3802 854.4784,-333.4969 855.5796,-340.4098"/>
</g>
<!-- leaf_6 -->
<g id="node7" class="node">
<title>leaf_6</title>
<polygon fill="none" stroke="#c0c0c0" points="54,-154.7002 0,-154.7002 0,-118.7002 54,-118.7002 54,-154.7002"/>
</g>
<!-- header_2&#45;&gt;leaf_6 -->
<g id="edge6" class="edge">
<title>header_2&#45;&gt;leaf_6</title>
<path fill="none" stroke="#000000" stroke-dasharray="5,2" d="M124.8298,-314.1918C103.1737,-305.7909 78.731,-292.7612 63,-273.4003 37.6386,-242.1869 29.9948,-194.9189 27.7777,-164.941"/>
<polygon fill="#000000" stroke="#000000" points="31.2592,-164.5202 27.1837,-154.7406 24.2711,-164.9272 31.2592,-164.5202"/>
</g>
<!-- leaf_7 -->
<g id="node8" class="node">
<title>leaf_7</title>
<polygon fill="none" stroke="#c0c0c0" points="613.5,-164.0006 72.5,-164.0006 72.5,-109.3997 613.5,-109.3997 613.5,-164.0006"/>
<text text-anchor="middle" x="343" y="-132.9002" font-family="Inconsolata" font-size="14.00" fill="#000000"> &#160;List collection requires paying attention to indentation, so we parse all</text>
<text text-anchor="middle" x="343" y="-117.5002" font-family="Inconsolata" font-size="14.00" fill="#000000">of the following correctly:</text>
</g>
<!-- block_3&#45;&gt;leaf_7 -->
<g id="edge7" class="edge">
<title>block_3&#45;&gt;leaf_7</title>
<path fill="none" stroke="#000000" stroke-dasharray="5,2" d="M390.108,-309.4597C381.694,-278.6031 364.3153,-214.8702 353.1808,-174.0364"/>
<polygon fill="#000000" stroke="#000000" points="356.5013,-172.9092 350.4938,-164.1823 349.7479,-174.7508 356.5013,-172.9092"/>
</g>
<!-- leaf_8 -->
<g id="node9" class="node">
<title>leaf_8</title>
<polygon fill="none" stroke="#c0c0c0" points="746,-273.6008 632,-273.6008 632,.2005 746,.2005 746,-273.6008"/>
<text text-anchor="middle" x="689" y="-258.2003" font-family="Inconsolata" font-size="14.00" fill="#000000">&#45; List</text>
<text text-anchor="middle" x="689" y="-242.8003" font-family="Inconsolata" font-size="14.00" fill="#000000">&#45; Same list</text>
<text text-anchor="middle" x="689" y="-211.4003" font-family="Inconsolata" font-size="14.00" fill="#000000">&#45; New list</text>
<text text-anchor="middle" x="689" y="-196.0002" font-family="Inconsolata" font-size="14.00" fill="#000000"> &#160;</text>
<text text-anchor="middle" x="689" y="-180.6002" font-family="Inconsolata" font-size="14.00" fill="#000000"> &#160;&#45; Same list!</text>
<text text-anchor="middle" x="689" y="-149.2002" font-family="Inconsolata" font-size="14.00" fill="#000000"> &#160;&#45; Still same</text>
<text text-anchor="middle" x="689" y="-133.8002" font-family="Inconsolata" font-size="14.00" fill="#000000">&#45; Same</text>
<text text-anchor="middle" x="689" y="-102.4001" font-family="Inconsolata" font-size="14.00" fill="#000000">&#45; New</text>
<text text-anchor="middle" x="689" y="-71.0001" font-family="Inconsolata" font-size="14.00" fill="#000000">Prose break</text>
<text text-anchor="middle" x="689" y="-39.6001" font-family="Inconsolata" font-size="14.00" fill="#000000"> &#160;&#160;&#45; New</text>
<text text-anchor="middle" x="689" y="-8.2" font-family="Inconsolata" font-size="14.00" fill="#000000"> &#160;&#160;&#160;&#160;&#160;&#45; Same</text>
</g>
<!-- codeblock_4&#45;&gt;leaf_8 -->
<g id="edge8" class="edge">
<title>codeblock_4&#45;&gt;leaf_8</title>
<path fill="none" stroke="#000000" stroke-dasharray="5,2" d="M641.0819,-309.1152C643.0649,-301.9799 645.5259,-293.1249 648.2777,-283.2238"/>
<polygon fill="#000000" stroke="#000000" points="651.6933,-284.0046 650.9989,-273.4325 644.9489,-282.1301 651.6933,-284.0046"/>
</g>
<!-- leaf_9 -->
<g id="node10" class="node">
<title>leaf_9</title>
<polygon fill="none" stroke="#c0c0c0" points="1228,-154.7002 764,-154.7002 764,-118.7002 1228,-118.7002 1228,-154.7002"/>
<text text-anchor="middle" x="996" y="-133.2002" font-family="Inconsolata" font-size="14.00" fill="#000000">Which means we&#39;ll need to work it into the =own= state machine. </text>
</g>
<!-- block_5&#45;&gt;leaf_9 -->
<g id="edge9" class="edge">
<title>block_5&#45;&gt;leaf_9</title>
<path fill="none" stroke="#000000" stroke-dasharray="5,2" d="M922.6203,-309.4597C936.8521,-275.9534 967.5495,-203.6819 984.3794,-164.0588"/>
<polygon fill="#000000" stroke="#000000" points="987.6529,-165.3045 988.341,-154.732 981.21,-162.5678 987.6529,-165.3045"/>
</g>
</g>
</svg>