<?xml version="1.0" encoding="UTF-8" standalone="no"?>
<!DOCTYPE svg PUBLIC "-//W3C//DTD SVG 1.1//EN"
 "http://www.w3.org/Graphics/SVG/1.1/DTD/svg11.dtd">
<!-- Generated by graphviz version 2.40.1 (20161225.0304)
 -->
<!-- Title: hierarchy Pages: 1 -->
<svg width="1032pt" height="604pt"
 viewBox="0.00 0.00 1031.50 604.20" xmlns="http://www.w3.org/2000/svg" xmlns:xlink="http://www.w3.org/1999/xlink">
<g id="graph0" class="graph" transform="scale(1 1) rotate(0) translate(4 600.2004)">
<title>hierarchy</title>
<polygon fill="#ffffff" stroke="transparent" points="-4,4 -4,-600.2004 1027.5,-600.2004 1027.5,4 -4,4"/>
<!-- doc_0 -->
<g id="node1" class="node">
<title>doc_0</title>
<ellipse fill="none" stroke="#000000" cx="411.5" cy="-578.2004" rx="42.1216" ry="18"/>
<text text-anchor="middle" x="411.5" y="-574.0004" font-family="Helvetica,sans-Serif" font-size="14.00" fill="#000000">doc &#45; 27</text>
</g>
<!-- section_1 -->
<g id="node2" class="node">
<title>section_1</title>
<ellipse fill="none" stroke="#000000" cx="411.5" cy="-506.2004" rx="60.9826" ry="18"/>
<text text-anchor="middle" x="411.5" y="-502.0004" font-family="Helvetica,sans-Serif" font-size="14.00" fill="#000000">section: 1&#45;27</text>
</g>
<!-- doc_0&#45;&gt;section_1 -->
<g id="edge1" class="edge">
<title>doc_0&#45;&gt;section_1</title>
<path fill="none" stroke="#000000" stroke-dasharray="5,2" d="M411.5,-560.0318C411.5,-552.3314 411.5,-543.1748 411.5,-534.617"/>
<polygon fill="#000000" stroke="#000000" points="415.0001,-534.6136 411.5,-524.6137 408.0001,-534.6137 415.0001,-534.6136"/>
</g>
<!-- header_2 -->
<g id="node3" class="node">
<title>header_2</title>
<ellipse fill="none" stroke="#000000" cx="232.5" cy="-434.2004" rx="67.7394" ry="18"/>
<text text-anchor="middle" x="232.5" y="-430.0004" font-family="Helvetica,sans-Serif" font-size="14.00" fill="#000000">1 : List module</text>
</g>
<!-- section_1&#45;&gt;header_2 -->
<g id="edge2" class="edge">
<title>section_1&#45;&gt;header_2</title>
<path fill="none" stroke="#000000" stroke-dasharray="5,2" d="M375.2767,-491.6301C347.6225,-480.5067 309.2987,-465.0915 279.3183,-453.0323"/>
<polygon fill="#000000" stroke="#000000" points="280.4854,-449.7293 269.9017,-449.2446 277.8731,-456.2236 280.4854,-449.7293"/>
</g>
<!-- prose_3 -->
<g id="node4" class="node">
<title>prose_3</title>
<ellipse fill="none" stroke="#000000" cx="350.5" cy="-434.2004" rx="32.4585" ry="18"/>
<text text-anchor="middle" x="350.5" y="-430.0004" font-family="Helvetica,sans-Serif" font-size="14.00" fill="#000000">prose</text>
</g>
<!-- section_1&#45;&gt;prose_3 -->
<g id="edge3" class="edge">
<title>section_1&#45;&gt;prose_3</title>
<path fill="none" stroke="#000000" stroke-dasharray="5,2" d="M396.4213,-488.4026C388.8139,-479.4234 379.4694,-468.3938 371.2003,-458.6335"/>
<polygon fill="#000000" stroke="#000000" points="373.7035,-456.1736 364.5688,-450.8062 368.3626,-460.6986 373.7035,-456.1736"/>
</g>
<!-- codeblock_4 -->
<g id="node5" class="node">
<title>codeblock_4</title>
<ellipse fill="none" stroke="#000000" cx="473.5" cy="-434.2004" rx="72.5844" ry="18"/>
<text text-anchor="middle" x="473.5" y="-430.0004" font-family="Helvetica,sans-Serif" font-size="14.00" fill="#000000">code block 6&#45;25</text>
</g>
<!-- section_1&#45;&gt;codeblock_4 -->
<g id="edge4" class="edge">
<title>section_1&#45;&gt;codeblock_4</title>
<path fill="none" stroke="#000000" stroke-dasharray="5,2" d="M426.8258,-488.4026C434.2779,-479.7487 443.3698,-469.1904 451.5427,-459.6993"/>
<polygon fill="#000000" stroke="#000000" points="454.2625,-461.9045 458.1356,-452.043 448.9581,-457.3368 454.2625,-461.9045"/>
</g>
<!-- prose_5 -->
<g id="node6" class="node">
<title>prose_5</title>
<ellipse fill="none" stroke="#000000" cx="733.5" cy="-434.2004" rx="32.4585" ry="18"/>
<text text-anchor="middle" x="733.5" y="-430.0004" font-family="Helvetica,sans-Serif" font-size="14.00" fill="#000000">prose</text>
</g>
<!-- section_1&#45;&gt;prose_5 -->
<g id="edge5" class="edge">
<title>section_1&#45;&gt;prose_5</title>
<path fill="none" stroke="#000000" stroke-dasharray="5,2" d="M460.0553,-495.3433C523.6992,-481.1124 634.1665,-456.4116 693.3412,-443.18"/>
<polygon fill="#000000" stroke="#000000" points="694.4288,-446.5233 703.424,-440.9255 692.9012,-439.692 694.4288,-446.5233"/>
</g>
<!-- leaf_6 -->
<g id="node7" class="node">
<title>leaf_6</title>
<polygon fill="none" stroke="#c0c0c0" points="259.5,-261.5002 205.5,-261.5002 205.5,-225.5002 259.5,-225.5002 259.5,-261.5002"/>
</g>
<!-- header_2&#45;&gt;leaf_6 -->
<g id="edge6" class="edge">
<title>header_2&#45;&gt;leaf_6</title>
<path fill="none" stroke="#000000" stroke-dasharray="5,2" d="M232.5,-415.9153C232.5,-382.5259 232.5,-311.4794 232.5,-271.7998"/>
<polygon fill="#000000" stroke="#000000" points="236.0001,-271.73 232.5,-261.73 229.0001,-271.73 236.0001,-271.73"/>
</g>
<!-- raw_7 -->
<g id="node8" class="node">
<title>raw_7</title>
<ellipse fill="none" stroke="#000000" cx="327.5" cy="-243.5002" rx="27" ry="18"/>
<text text-anchor="middle" x="327.5" y="-239.3002" font-family="Helvetica,sans-Serif" font-size="14.00" fill="#000000">raw</text>
</g>
<!-- prose_3&#45;&gt;raw_7 -->
<g id="edge7" class="edge">
<title>prose_3&#45;&gt;raw_7</title>
<path fill="none" stroke="#000000" stroke-dasharray="5,2" d="M348.2947,-415.9153C344.2573,-382.4406 335.655,-311.1157 330.8765,-271.496"/>
<polygon fill="#000000" stroke="#000000" points="334.3374,-270.9605 329.6651,-261.4516 327.3878,-271.7987 334.3374,-270.9605"/>
</g>
<!-- leaf_9 -->
<g id="node10" class="node">
<title>leaf_9</title>
<polygon fill="none" stroke="#c0c0c0" points="530.5,-380.4009 416.5,-380.4009 416.5,-106.5996 530.5,-106.5996 530.5,-380.4009"/>
<text text-anchor="middle" x="473.5" y="-365.0004" font-family="Inconsolata" font-size="14.00" fill="#000000">&#45; List</text>
<text text-anchor="middle" x="473.5" y="-349.6004" font-family="Inconsolata" font-size="14.00" fill="#000000">&#45; Same list</text>
<text text-anchor="middle" x="473.5" y="-318.2003" font-family="Inconsolata" font-size="14.00" fill="#000000">&#45; New list</text>
<text text-anchor="middle" x="473.5" y="-302.8003" font-family="Inconsolata" font-size="14.00" fill="#000000"> &#160;</text>
<text text-anchor="middle" x="473.5" y="-287.4003" font-family="Inconsolata" font-size="14.00" fill="#000000"> &#160;&#45; Same list!</text>
<text text-anchor="middle" x="473.5" y="-256.0002" font-family="Inconsolata" font-size="14.00" fill="#000000"> &#160;&#45; Still same</text>
<text text-anchor="middle" x="473.5" y="-240.6002" font-family="Inconsolata" font-size="14.00" fill="#000000">&#45; Same</text>
<text text-anchor="middle" x="473.5" y="-209.2002" font-family="Inconsolata" font-size="14.00" fill="#000000">&#45; New</text>
<text text-anchor="middle" x="473.5" y="-177.8002" font-family="Inconsolata" font-size="14.00" fill="#000000">Prose break</text>
<text text-anchor="middle" x="473.5" y="-146.4001" font-family="Inconsolata" font-size="14.00" fill="#000000"> &#160;&#160;&#45; New</text>
<text text-anchor="middle" x="473.5" y="-115.0001" font-family="Inconsolata" font-size="14.00" fill="#000000"> &#160;&#160;&#160;&#160;&#160;&#45; Same</text>
</g>
<!-- codeblock_4&#45;&gt;leaf_9 -->
<g id="edge9" class="edge">
<title>codeblock_4&#45;&gt;leaf_9</title>
<path fill="none" stroke="#000000" stroke-dasharray="5,2" d="M473.5,-415.9153C473.5,-408.8535 473.5,-400.1074 473.5,-390.3298"/>
<polygon fill="#000000" stroke="#000000" points="477.0001,-390.2325 473.5,-380.2326 470.0001,-390.2326 477.0001,-390.2325"/>
</g>
<!-- raw_10 -->
<g id="node11" class="node">
<title>raw_10</title>
<ellipse fill="none" stroke="#000000" cx="762.5" cy="-243.5002" rx="27" ry="18"/>
<text text-anchor="middle" x="762.5" y="-239.3002" font-family="Helvetica,sans-Serif" font-size="14.00" fill="#000000">raw</text>
</g>
<!-- prose_5&#45;&gt;raw_10 -->
<g id="edge10" class="edge">
<title>prose_5&#45;&gt;raw_10</title>
<path fill="none" stroke="#000000" stroke-dasharray="5,2" d="M736.2282,-416.2598C741.2912,-382.9664 752.1745,-311.3991 758.224,-271.6183"/>
<polygon fill="#000000" stroke="#000000" points="761.7146,-271.9447 759.7579,-261.5321 754.7941,-270.8922 761.7146,-271.9447"/>
</g>
<!-- leaf_8 -->
<g id="node9" class="node">
<title>leaf_8</title>
<polygon fill="none" stroke="#c0c0c0" points="541,-70.7004 0,-70.7004 0,-.0997 541,-.0997 541,-70.7004"/>
<text text-anchor="middle" x="270.5" y="-23.6001" font-family="Inconsolata" font-size="14.00" fill="#000000"> &#160;List collection requires paying attention to indentation, so we parse all</text>
<text text-anchor="middle" x="270.5" y="-8.2" font-family="Inconsolata" font-size="14.00" fill="#000000">of the following correctly:</text>
</g>
<!-- raw_7&#45;&gt;leaf_8 -->
<g id="edge8" class="edge">
<title>raw_7&#45;&gt;leaf_8</title>
<path fill="none" stroke="#000000" stroke-dasharray="5,2" d="M322.6402,-225.7577C313.93,-193.9579 295.4085,-126.3378 282.953,-80.8644"/>
<polygon fill="#000000" stroke="#000000" points="286.2554,-79.6722 280.2379,-70.952 279.5041,-81.5214 286.2554,-79.6722"/>
</g>
<!-- leaf_11 -->
<g id="node12" class="node">
<title>leaf_11</title>
<polygon fill="none" stroke="#c0c0c0" points="1023.5,-55.3021 559.5,-55.3021 559.5,-15.4979 1023.5,-15.4979 1023.5,-55.3021"/>
<text text-anchor="middle" x="791.5" y="-23.9" font-family="Inconsolata" font-size="14.00" fill="#000000">Which means we&#39;ll need to work it into the =own= state machine. </text>
</g>
<!-- raw_10&#45;&gt;leaf_11 -->
<g id="edge11" class="edge">
<title>raw_10&#45;&gt;leaf_11</title>
<path fill="none" stroke="#000000" stroke-dasharray="5,2" d="M765.0228,-225.3967C770.026,-189.4948 781.2473,-108.9723 787.3522,-65.1639"/>
<polygon fill="#000000" stroke="#000000" points="790.8378,-65.5093 788.7516,-55.1219 783.9048,-64.5431 790.8378,-65.5093"/>
</g>
</g>
</svg>