<?xml version="1.0" encoding="UTF-8" standalone="no"?>
<!DOCTYPE svg PUBLIC "-//W3C//DTD SVG 1.1//EN"
 "http://www.w3.org/Graphics/SVG/1.1/DTD/svg11.dtd">
<!-- Generated by graphviz version 2.40.1 (20161225.0304)
 -->
<!-- Title: hierarchy Pages: 1 -->
<svg width="1267pt" height="588pt"
 viewBox="0.00 0.00 1266.50 588.20" xmlns="http://www.w3.org/2000/svg" xmlns:xlink="http://www.w3.org/1999/xlink">
<g id="graph0" class="graph" transform="scale(1 1) rotate(0) translate(4 584.2004)">
<title>hierarchy</title>
<polygon fill="#ffffff" stroke="transparent" points="-4,4 -4,-584.2004 1262.5,-584.2004 1262.5,4 -4,4"/>
<!-- doc_0 -->
<g id="node1" class="node">
<title>doc_0</title>
<ellipse fill="none" stroke="#000000" cx="632.5" cy="-562.2004" rx="42.1216" ry="18"/>
<text text-anchor="middle" x="632.5" y="-558.0004" font-family="Helvetica,sans-Serif" font-size="14.00" fill="#000000">doc &#45; 27</text>
</g>
<!-- section_1 -->
<g id="node2" class="node">
<title>section_1</title>
<ellipse fill="none" stroke="#000000" cx="632.5" cy="-490.2004" rx="60.9826" ry="18"/>
<text text-anchor="middle" x="632.5" y="-486.0004" font-family="Helvetica,sans-Serif" font-size="14.00" fill="#000000">section: 1&#45;27</text>
</g>
<!-- doc_0&#45;&gt;section_1 -->
<g id="edge1" class="edge">
<title>doc_0&#45;&gt;section_1</title>
<path fill="none" stroke="#000000" stroke-dasharray="5,2" d="M632.5,-544.0318C632.5,-536.3314 632.5,-527.1748 632.5,-518.617"/>
<polygon fill="#000000" stroke="#000000" points="636.0001,-518.6136 632.5,-508.6137 629.0001,-518.6137 636.0001,-518.6136"/>
</g>
<!-- header_2 -->
<g id="node3" class="node">
<title>header_2</title>
<ellipse fill="none" stroke="#000000" cx="443.5" cy="-418.2004" rx="67.7394" ry="18"/>
<text text-anchor="middle" x="443.5" y="-414.0004" font-family="Helvetica,sans-Serif" font-size="14.00" fill="#000000">1 : List module</text>
</g>
<!-- section_1&#45;&gt;header_2 -->
<g id="edge2" class="edge">
<title>section_1&#45;&gt;header_2</title>
<path fill="none" stroke="#000000" stroke-dasharray="5,2" d="M595.1597,-475.9755C565.6192,-464.722 524.1422,-448.9212 492.029,-436.6876"/>
<polygon fill="#000000" stroke="#000000" points="492.9779,-433.3038 482.3871,-433.0145 490.4859,-439.8452 492.9779,-433.3038"/>
</g>
<!-- block_3 -->
<g id="node4" class="node">
<title>block_3</title>
<ellipse fill="none" stroke="#000000" cx="575.5" cy="-418.2004" rx="45.9804" ry="18"/>
<text text-anchor="middle" x="575.5" y="-414.0004" font-family="Helvetica,sans-Serif" font-size="14.00" fill="#000000">block 1&#45;5</text>
</g>
<!-- section_1&#45;&gt;block_3 -->
<g id="edge3" class="edge">
<title>section_1&#45;&gt;block_3</title>
<path fill="none" stroke="#000000" stroke-dasharray="5,2" d="M618.4101,-472.4026C611.5256,-463.7064 603.1187,-453.0871 595.5765,-443.5602"/>
<polygon fill="#000000" stroke="#000000" points="598.1824,-441.213 589.2311,-435.545 592.694,-445.5579 598.1824,-441.213"/>
</g>
<!-- block_4 -->
<g id="node5" class="node">
<title>block_4</title>
<ellipse fill="none" stroke="#000000" cx="690.5" cy="-418.2004" rx="50.8172" ry="18"/>
<text text-anchor="middle" x="690.5" y="-414.0004" font-family="Helvetica,sans-Serif" font-size="14.00" fill="#000000">block 6&#45;26</text>
</g>
<!-- section_1&#45;&gt;block_4 -->
<g id="edge4" class="edge">
<title>section_1&#45;&gt;block_4</title>
<path fill="none" stroke="#000000" stroke-dasharray="5,2" d="M646.8371,-472.4026C653.8424,-463.7064 662.3968,-453.0871 670.0713,-443.5602"/>
<polygon fill="#000000" stroke="#000000" points="672.9803,-445.5282 676.528,-435.545 667.529,-441.1369 672.9803,-445.5282"/>
</g>
<!-- block_5 -->
<g id="node6" class="node">
<title>block_5</title>
<ellipse fill="none" stroke="#000000" cx="950.5" cy="-418.2004" rx="55.6542" ry="18"/>
<text text-anchor="middle" x="950.5" y="-414.0004" font-family="Helvetica,sans-Serif" font-size="14.00" fill="#000000">block 27&#45;27</text>
</g>
<!-- section_1&#45;&gt;block_5 -->
<g id="edge5" class="edge">
<title>section_1&#45;&gt;block_5</title>
<path fill="none" stroke="#000000" stroke-dasharray="5,2" d="M680.7974,-479.2652C738.3203,-466.2411 834.2196,-444.528 894.8141,-430.8085"/>
<polygon fill="#000000" stroke="#000000" points="895.6128,-434.2164 904.5931,-428.5944 894.067,-427.3892 895.6128,-434.2164"/>
</g>
<!-- leaf_6 -->
<g id="node7" class="node">
<title>leaf_6</title>
<polygon fill="none" stroke="#c0c0c0" points="541,-364.1008 0,-364.1008 0,-309.4999 541,-309.4999 541,-364.1008"/>
<text text-anchor="middle" x="270.5" y="-333.0004" font-family="Inconsolata" font-size="14.00" fill="#000000"> &#160;List collection requires paying attention to indentation, so we parse all</text>
<text text-anchor="middle" x="270.5" y="-317.6004" font-family="Inconsolata" font-size="14.00" fill="#000000">of the following correctly:</text>
</g>
<!-- block_3&#45;&gt;leaf_6 -->
<g id="edge6" class="edge">
<title>block_3&#45;&gt;leaf_6</title>
<path fill="none" stroke="#000000" stroke-dasharray="5,2" d="M540.6962,-406.4152C534.0178,-404.2659 527.0615,-402.1037 520.5,-400.2004 479.8778,-388.417 435.1956,-376.6973 394.9804,-366.5988"/>
<polygon fill="#000000" stroke="#000000" points="395.6792,-363.1658 385.1288,-364.1348 393.9807,-369.9566 395.6792,-363.1658"/>
</g>
<!-- codeblock_7 -->
<g id="node8" class="node">
<title>codeblock_7</title>
<ellipse fill="none" stroke="#000000" cx="631.5" cy="-336.8004" rx="72.5844" ry="18"/>
<text text-anchor="middle" x="631.5" y="-332.6004" font-family="Helvetica,sans-Serif" font-size="14.00" fill="#000000">code block 6&#45;25</text>
</g>
<!-- block_4&#45;&gt;codeblock_7 -->
<g id="edge7" class="edge">
<title>block_4&#45;&gt;codeblock_7</title>
<path fill="none" stroke="#000000" stroke-dasharray="5,2" d="M677.6979,-400.5378C669.7122,-389.5203 659.2925,-375.1446 650.3702,-362.8349"/>
<polygon fill="#000000" stroke="#000000" points="653.1835,-360.7524 644.4809,-354.7096 647.5157,-364.8605 653.1835,-360.7524"/>
</g>
<!-- leaf_9 -->
<g id="node10" class="node">
<title>leaf_9</title>
<polygon fill="none" stroke="#c0c0c0" points="776.5,-354.8004 722.5,-354.8004 722.5,-318.8004 776.5,-318.8004 776.5,-354.8004"/>
</g>
<!-- block_4&#45;&gt;leaf_9 -->
<g id="edge9" class="edge">
<title>block_4&#45;&gt;leaf_9</title>
<path fill="none" stroke="#000000" stroke-dasharray="5,2" d="M703.3021,-400.5378C711.2327,-389.5963 721.5639,-375.3427 730.445,-363.0899"/>
<polygon fill="#000000" stroke="#000000" points="733.2795,-365.143 736.3143,-354.9921 727.6117,-361.0349 733.2795,-365.143"/>
</g>
<!-- leaf_10 -->
<g id="node11" class="node">
<title>leaf_10</title>
<polygon fill="none" stroke="#c0c0c0" points="1258.5,-354.8004 794.5,-354.8004 794.5,-318.8004 1258.5,-318.8004 1258.5,-354.8004"/>
<text text-anchor="middle" x="1026.5" y="-333.3004" font-family="Inconsolata" font-size="14.00" fill="#000000">Which means we&#39;ll need to work it into the =own= state machine. </text>
</g>
<!-- block_5&#45;&gt;leaf_10 -->
<g id="edge10" class="edge">
<title>block_5&#45;&gt;leaf_10</title>
<path fill="none" stroke="#000000" stroke-dasharray="5,2" d="M966.6176,-400.9376C977.0818,-389.7298 990.9044,-374.9252 1002.6325,-362.3638"/>
<polygon fill="#000000" stroke="#000000" points="1005.3492,-364.5826 1009.6154,-354.8846 1000.2327,-359.8054 1005.3492,-364.5826"/>
</g>
<!-- leaf_8 -->
<g id="node9" class="node">
<title>leaf_8</title>
<polygon fill="none" stroke="#c0c0c0" points="688.5,-273.6008 574.5,-273.6008 574.5,.2005 688.5,.2005 688.5,-273.6008"/>
<text text-anchor="middle" x="631.5" y="-258.2003" font-family="Inconsolata" font-size="14.00" fill="#000000">&#45; List</text>
<text text-anchor="middle" x="631.5" y="-242.8003" font-family="Inconsolata" font-size="14.00" fill="#000000">&#45; Same list</text>
<text text-anchor="middle" x="631.5" y="-211.4003" font-family="Inconsolata" font-size="14.00" fill="#000000">&#45; New list</text>
<text text-anchor="middle" x="631.5" y="-196.0002" font-family="Inconsolata" font-size="14.00" fill="#000000"> &#160;</text>
<text text-anchor="middle" x="631.5" y="-180.6002" font-family="Inconsolata" font-size="14.00" fill="#000000"> &#160;&#45; Same list!</text>
<text text-anchor="middle" x="631.5" y="-149.2002" font-family="Inconsolata" font-size="14.00" fill="#000000"> &#160;&#45; Still same</text>
<text text-anchor="middle" x="631.5" y="-133.8002" font-family="Inconsolata" font-size="14.00" fill="#000000">&#45; Same</text>
<text text-anchor="middle" x="631.5" y="-102.4001" font-family="Inconsolata" font-size="14.00" fill="#000000">&#45; New</text>
<text text-anchor="middle" x="631.5" y="-71.0001" font-family="Inconsolata" font-size="14.00" fill="#000000">Prose break</text>
<text text-anchor="middle" x="631.5" y="-39.6001" font-family="Inconsolata" font-size="14.00" fill="#000000"> &#160;&#160;&#45; New</text>
<text text-anchor="middle" x="631.5" y="-8.2" font-family="Inconsolata" font-size="14.00" fill="#000000"> &#160;&#160;&#160;&#160;&#160;&#45; Same</text>
</g>
<!-- codeblock_7&#45;&gt;leaf_8 -->
<g id="edge8" class="edge">
<title>codeblock_7&#45;&gt;leaf_8</title>
<path fill="none" stroke="#000000" stroke-dasharray="5,2" d="M631.5,-318.6899C631.5,-309.4776 631.5,-297.3454 631.5,-283.7077"/>
<polygon fill="#000000" stroke="#000000" points="635.0001,-283.5314 631.5,-273.5314 628.0001,-283.5315 635.0001,-283.5314"/>
</g>
</g>
</svg>