<?xml version="1.0" encoding="UTF-8" standalone="no"?>
<!DOCTYPE svg PUBLIC "-//W3C//DTD SVG 1.1//EN"
 "http://www.w3.org/Graphics/SVG/1.1/DTD/svg11.dtd">
<!-- Generated by graphviz version 2.40.1 (20161225.0304)
 -->
<!-- Title: hierarchy Pages: 1 -->
<svg width="5868pt" height="499pt"
 viewBox="0.00 0.00 5867.77 499.40" xmlns="http://www.w3.org/2000/svg" xmlns:xlink="http://www.w3.org/1999/xlink">
<g id="graph0" class="graph" transform="scale(1 1) rotate(0) translate(4 495.4007)">
<title>hierarchy</title>
<polygon fill="#ffffff" stroke="transparent" points="-4,4 -4,-495.4007 5863.771,-495.4007 5863.771,4 -4,4"/>
<!-- doc_0 -->
<g id="node1" class="node">
<title>doc_0</title>
<ellipse fill="none" stroke="#000000" cx="69.0877" cy="-473.4007" rx="46.9581" ry="18"/>
<text text-anchor="middle" x="69.0877" y="-469.2007" font-family="Helvetica,sans-Serif" font-size="14.00" fill="#000000">doc &#45; 175</text>
</g>
<!-- section_1 -->
<g id="node2" class="node">
<title>section_1</title>
<ellipse fill="none" stroke="#000000" cx="69.0877" cy="-245.7003" rx="65.8187" ry="18"/>
<text text-anchor="middle" x="69.0877" y="-241.5003" font-family="Helvetica,sans-Serif" font-size="14.00" fill="#000000">section: 1&#45;149</text>
</g>
<!-- doc_0&#45;&gt;section_1 -->
<g id="edge1" class="edge">
<title>doc_0&#45;&gt;section_1</title>
<path fill="none" stroke="#000000" stroke-dasharray="5,2" d="M69.0877,-455.1519C69.0877,-415.5001 69.0877,-321.2475 69.0877,-273.886"/>
<polygon fill="#000000" stroke="#000000" points="72.5878,-273.7199 69.0877,-263.7199 65.5878,-273.72 72.5878,-273.7199"/>
</g>
<!-- header_2 -->
<g id="node3" class="node">
<title>header_2</title>
<ellipse fill="none" stroke="#000000" cx="69.0877" cy="-18" rx="69.1756" ry="18"/>
<text text-anchor="middle" x="69.0877" y="-13.8" font-family="Helvetica,sans-Serif" font-size="14.00" fill="#000000">1 : Morphemes</text>
</g>
<!-- section_1&#45;&gt;header_2 -->
<g id="edge2" class="edge">
<title>section_1&#45;&gt;header_2</title>
<path fill="none" stroke="#000000" stroke-dasharray="5,2" d="M69.0877,-227.4516C69.0877,-187.7997 69.0877,-93.5472 69.0877,-46.1857"/>
<polygon fill="#000000" stroke="#000000" points="72.5878,-46.0196 69.0877,-36.0196 65.5878,-46.0196 72.5878,-46.0196"/>
</g>
<!-- section_3 -->
<g id="node4" class="node">
<title>section_3</title>
<ellipse fill="none" stroke="#000000" cx="208.0877" cy="-473.4007" rx="47.9272" ry="18"/>
<text text-anchor="middle" x="208.0877" y="-469.2007" font-family="Helvetica,sans-Serif" font-size="14.00" fill="#000000">section_3</text>
</g>
<!-- header_7 -->
<g id="node5" class="node">
<title>header_7</title>
<ellipse fill="none" stroke="#000000" cx="208.0877" cy="-245.7003" rx="55.1697" ry="18"/>
<text text-anchor="middle" x="208.0877" y="-241.5003" font-family="Helvetica,sans-Serif" font-size="14.00" fill="#000000">3 : Includes</text>
</g>
<!-- section_3&#45;&gt;header_7 -->
<g id="edge3" class="edge">
<title>section_3&#45;&gt;header_7</title>
<path fill="none" stroke="#000000" stroke-dasharray="5,2" d="M208.0877,-455.1519C208.0877,-415.5001 208.0877,-321.2475 208.0877,-273.886"/>
<polygon fill="#000000" stroke="#000000" points="211.5878,-273.7199 208.0877,-263.7199 204.5878,-273.72 211.5878,-273.7199"/>
</g>
<!-- codeblock_8 -->
<g id="node6" class="node">
<title>codeblock_8</title>
<ellipse fill="none" stroke="#000000" cx="545.0877" cy="-473.4007" rx="59.5308" ry="18"/>
<text text-anchor="middle" x="545.0877" y="-469.2007" font-family="Helvetica,sans-Serif" font-size="14.00" fill="#000000">codeblock_8</text>
</g>
<!-- leaf_9 -->
<g id="node7" class="node">
<title>leaf_9</title>
<polygon fill="none" stroke="#c0c0c0" points="808.5877,-373.2008 281.5877,-373.2008 281.5877,-118.1999 808.5877,-118.1999 808.5877,-373.2008"/>
<text text-anchor="middle" x="545.0877" y="-358.0006" font-family="Inconsolata" font-size="14.00" fill="#000000">local lpeg = require &quot;lpeg&quot;</text>
<text text-anchor="middle" x="545.0877" y="-342.6005" font-family="Inconsolata" font-size="14.00" fill="#000000">local epeg = require &quot;../peg/epeg&quot;</text>
<text text-anchor="middle" x="545.0877" y="-327.2005" font-family="Inconsolata" font-size="14.00" fill="#000000">local epnf = require &quot;../peg/epnf&quot;</text>
<text text-anchor="middle" x="545.0877" y="-295.8005" font-family="Inconsolata" font-size="14.00" fill="#000000">local match = lpeg.match &#45;&#45; match a pattern against a string</text>
<text text-anchor="middle" x="545.0877" y="-280.4004" font-family="Inconsolata" font-size="14.00" fill="#000000">local P = lpeg.P &#45;&#45; match a string literally</text>
<text text-anchor="middle" x="545.0877" y="-265.0004" font-family="Inconsolata" font-size="14.00" fill="#000000">local S = lpeg.S &#160;&#45;&#45; match anything in a set</text>
<text text-anchor="middle" x="545.0877" y="-249.6004" font-family="Inconsolata" font-size="14.00" fill="#000000">local R = epeg.R &#160;&#45;&#45; match anything in a range</text>
<text text-anchor="middle" x="545.0877" y="-234.2003" font-family="Inconsolata" font-size="14.00" fill="#000000">local B = lpeg.B &#160;&#45;&#45; match iff the pattern precedes the use of B</text>
<text text-anchor="middle" x="545.0877" y="-218.8003" font-family="Inconsolata" font-size="14.00" fill="#000000">local C = lpeg.C &#160;&#45;&#45; captures a match</text>
<text text-anchor="middle" x="545.0877" y="-203.4003" font-family="Inconsolata" font-size="14.00" fill="#000000">local Csp = epeg.Csp &#45;&#45; captures start and end position of match</text>
<text text-anchor="middle" x="545.0877" y="-188.0002" font-family="Inconsolata" font-size="14.00" fill="#000000">local Cg = lpeg.Cg &#45;&#45; named capture group (for **balanced highlighting**)</text>
<text text-anchor="middle" x="545.0877" y="-172.6002" font-family="Inconsolata" font-size="14.00" fill="#000000">local Cb = lpeg.Cb &#45;&#45; Mysterious! TODO make not mysterious</text>
<text text-anchor="middle" x="545.0877" y="-157.2002" font-family="Inconsolata" font-size="14.00" fill="#000000">local Cmt = lpeg.Cmt &#45;&#45; match&#45;time capture</text>
<text text-anchor="middle" x="545.0877" y="-141.8002" font-family="Inconsolata" font-size="14.00" fill="#000000">local Ct = lpeg.Ct &#45;&#45; a table with all captures from the pattern</text>
<text text-anchor="middle" x="545.0877" y="-126.4001" font-family="Inconsolata" font-size="14.00" fill="#000000">local V = lpeg.V &#45;&#45; create a variable within a grammar</text>
</g>
<!-- codeblock_8&#45;&gt;leaf_9 -->
<g id="edge4" class="edge">
<title>codeblock_8&#45;&gt;leaf_9</title>
<path fill="none" stroke="#000000" stroke-dasharray="5,2" d="M545.0877,-455.1519C545.0877,-438.4428 545.0877,-412.038 545.0877,-383.532"/>
<polygon fill="#000000" stroke="#000000" points="548.5878,-383.3739 545.0877,-373.374 541.5878,-383.374 548.5878,-383.3739"/>
</g>
<!-- section_4 -->
<g id="node8" class="node">
<title>section_4</title>
<ellipse fill="none" stroke="#000000" cx="923.0877" cy="-473.4007" rx="47.9272" ry="18"/>
<text text-anchor="middle" x="923.0877" y="-469.2007" font-family="Helvetica,sans-Serif" font-size="14.00" fill="#000000">section_4</text>
</g>
<!-- header_10 -->
<g id="node9" class="node">
<title>header_10</title>
<ellipse fill="none" stroke="#000000" cx="923.0877" cy="-245.7003" rx="96.2555" ry="18"/>
<text text-anchor="middle" x="923.0877" y="-241.5003" font-family="Helvetica,sans-Serif" font-size="14.00" fill="#000000">2 : Morpheme module</text>
</g>
<!-- section_4&#45;&gt;header_10 -->
<g id="edge5" class="edge">
<title>section_4&#45;&gt;header_10</title>
<path fill="none" stroke="#000000" stroke-dasharray="5,2" d="M923.0877,-455.1519C923.0877,-415.5001 923.0877,-321.2475 923.0877,-273.886"/>
<polygon fill="#000000" stroke="#000000" points="926.5878,-273.7199 923.0877,-263.7199 919.5878,-273.72 926.5878,-273.7199"/>
</g>
<!-- codeblock_11 -->
<g id="node10" class="node">
<title>codeblock_11</title>
<ellipse fill="none" stroke="#000000" cx="1087.0877" cy="-473.4007" rx="64.0625" ry="18"/>
<text text-anchor="middle" x="1087.0877" y="-469.2007" font-family="Helvetica,sans-Serif" font-size="14.00" fill="#000000">codeblock_11</text>
</g>
<!-- leaf_15 -->
<g id="node11" class="node">
<title>leaf_15</title>
<polygon fill="none" stroke="#c0c0c0" points="1137.0877,-263.7003 1037.0877,-263.7003 1037.0877,-227.7003 1137.0877,-227.7003 1137.0877,-263.7003"/>
<text text-anchor="middle" x="1087.0877" y="-242.2003" font-family="Inconsolata" font-size="14.00" fill="#000000">local m = {}</text>
</g>
<!-- codeblock_11&#45;&gt;leaf_15 -->
<g id="edge6" class="edge">
<title>codeblock_11&#45;&gt;leaf_15</title>
<path fill="none" stroke="#000000" stroke-dasharray="5,2" d="M1087.0877,-455.1519C1087.0877,-415.5001 1087.0877,-321.2475 1087.0877,-273.886"/>
<polygon fill="#000000" stroke="#000000" points="1090.5878,-273.7199 1087.0877,-263.7199 1083.5878,-273.72 1090.5878,-273.7199"/>
</g>
<!-- section_12 -->
<g id="node12" class="node">
<title>section_12</title>
<ellipse fill="none" stroke="#000000" cx="1233.0877" cy="-473.4007" rx="52.7641" ry="18"/>
<text text-anchor="middle" x="1233.0877" y="-469.2007" font-family="Helvetica,sans-Serif" font-size="14.00" fill="#000000">section_12</text>
</g>
<!-- header_16 -->
<g id="node13" class="node">
<title>header_16</title>
<ellipse fill="none" stroke="#000000" cx="1233.0877" cy="-245.7003" rx="78.3729" ry="18"/>
<text text-anchor="middle" x="1233.0877" y="-241.5003" font-family="Helvetica,sans-Serif" font-size="14.00" fill="#000000">3 : Fundamentals</text>
</g>
<!-- section_12&#45;&gt;header_16 -->
<g id="edge7" class="edge">
<title>section_12&#45;&gt;header_16</title>
<path fill="none" stroke="#000000" stroke-dasharray="5,2" d="M1233.0877,-455.1519C1233.0877,-415.5001 1233.0877,-321.2475 1233.0877,-273.886"/>
<polygon fill="#000000" stroke="#000000" points="1236.5878,-273.7199 1233.0877,-263.7199 1229.5878,-273.72 1236.5878,-273.7199"/>
</g>
<!-- codeblock_17 -->
<g id="node14" class="node">
<title>codeblock_17</title>
<ellipse fill="none" stroke="#000000" cx="1537.0877" cy="-473.4007" rx="64.8671" ry="18"/>
<text text-anchor="middle" x="1537.0877" y="-469.2007" font-family="Helvetica,sans-Serif" font-size="14.00" fill="#000000">codeblock_17</text>
</g>
<!-- leaf_18 -->
<g id="node15" class="node">
<title>leaf_18</title>
<polygon fill="none" stroke="#c0c0c0" points="1744.5877,-351.5006 1329.5877,-351.5006 1329.5877,-139.9 1744.5877,-139.9 1744.5877,-351.5006"/>
<text text-anchor="middle" x="1537.0877" y="-336.4004" font-family="Inconsolata" font-size="14.00" fill="#000000">m.letter = R&quot;AZ&quot; + R&quot;az&quot;</text>
<text text-anchor="middle" x="1537.0877" y="-305.0004" font-family="Inconsolata" font-size="14.00" fill="#000000">m.digit = R&quot;09&quot;</text>
<text text-anchor="middle" x="1537.0877" y="-273.6004" font-family="Inconsolata" font-size="14.00" fill="#000000">m.number = m.digit^1 &#45;&#45; We will improve this</text>
<text text-anchor="middle" x="1537.0877" y="-242.2003" font-family="Inconsolata" font-size="14.00" fill="#000000">m._ = P&quot; &quot;</text>
<text text-anchor="middle" x="1537.0877" y="-210.8003" font-family="Inconsolata" font-size="14.00" fill="#000000">m.WS = m._^0</text>
<text text-anchor="middle" x="1537.0877" y="-179.4003" font-family="Inconsolata" font-size="14.00" fill="#000000">m.NL = P&quot;\n&quot;</text>
<text text-anchor="middle" x="1537.0877" y="-148.0002" font-family="Inconsolata" font-size="14.00" fill="#000000">m.__TAB__ = P&quot;\t&quot; &#45;&#45; First thing we do is eliminate these</text>
</g>
<!-- codeblock_17&#45;&gt;leaf_18 -->
<g id="edge8" class="edge">
<title>codeblock_17&#45;&gt;leaf_18</title>
<path fill="none" stroke="#000000" stroke-dasharray="5,2" d="M1537.0877,-455.1519C1537.0877,-434.2677 1537.0877,-398.2371 1537.0877,-361.8886"/>
<polygon fill="#000000" stroke="#000000" points="1540.5878,-361.6403 1537.0877,-351.6403 1533.5878,-361.6404 1540.5878,-361.6403"/>
</g>
<!-- section_13 -->
<g id="node16" class="node">
<title>section_13</title>
<ellipse fill="none" stroke="#000000" cx="1828.0877" cy="-473.4007" rx="52.7641" ry="18"/>
<text text-anchor="middle" x="1828.0877" y="-469.2007" font-family="Helvetica,sans-Serif" font-size="14.00" fill="#000000">section_13</text>
</g>
<!-- header_19 -->
<g id="node17" class="node">
<title>header_19</title>
<ellipse fill="none" stroke="#000000" cx="1828.0877" cy="-245.7003" rx="65.3256" ry="18"/>
<text text-anchor="middle" x="1828.0877" y="-241.5003" font-family="Helvetica,sans-Serif" font-size="14.00" fill="#000000">3 : Hoon layer</text>
</g>
<!-- section_13&#45;&gt;header_19 -->
<g id="edge9" class="edge">
<title>section_13&#45;&gt;header_19</title>
<path fill="none" stroke="#000000" stroke-dasharray="5,2" d="M1828.0877,-455.1519C1828.0877,-415.5001 1828.0877,-321.2475 1828.0877,-273.886"/>
<polygon fill="#000000" stroke="#000000" points="1831.5878,-273.7199 1828.0877,-263.7199 1824.5878,-273.72 1831.5878,-273.7199"/>
</g>
<!-- codeblock_20 -->
<g id="node18" class="node">
<title>codeblock_20</title>
<ellipse fill="none" stroke="#000000" cx="1972.0877" cy="-473.4007" rx="64.8671" ry="18"/>
<text text-anchor="middle" x="1972.0877" y="-469.2007" font-family="Helvetica,sans-Serif" font-size="14.00" fill="#000000">codeblock_20</text>
</g>
<!-- leaf_21 -->
<g id="node19" class="node">
<title>leaf_21</title>
<polygon fill="none" stroke="#c0c0c0" points="2032.5877,-419.6012 1911.5877,-419.6012 1911.5877,-71.7994 2032.5877,-71.7994 2032.5877,-419.6012"/>
<text text-anchor="middle" x="1972.0877" y="-404.2007" font-family="Inconsolata" font-size="14.00" fill="#000000">m.tar = P&quot;*&quot;</text>
<text text-anchor="middle" x="1972.0877" y="-388.8006" font-family="Inconsolata" font-size="14.00" fill="#000000">m.tars = P&quot;*&quot;^1</text>
<text text-anchor="middle" x="1972.0877" y="-373.4006" font-family="Inconsolata" font-size="14.00" fill="#000000">m.hax = P&quot;#&quot;</text>
<text text-anchor="middle" x="1972.0877" y="-358.0006" font-family="Inconsolata" font-size="14.00" fill="#000000">m.pat = P&quot;@&quot;</text>
<text text-anchor="middle" x="1972.0877" y="-342.6005" font-family="Inconsolata" font-size="14.00" fill="#000000">m.hep = P&quot;&#45;&quot;</text>
<text text-anchor="middle" x="1972.0877" y="-327.2005" font-family="Inconsolata" font-size="14.00" fill="#000000">m.bar = P&quot;|&quot;</text>
<text text-anchor="middle" x="1972.0877" y="-311.8005" font-family="Inconsolata" font-size="14.00" fill="#000000">m.zap = P&quot;!&quot;</text>
<text text-anchor="middle" x="1972.0877" y="-296.4004" font-family="Inconsolata" font-size="14.00" fill="#000000">m.wut = P&quot;?&quot;</text>
<text text-anchor="middle" x="1972.0877" y="-281.0004" font-family="Inconsolata" font-size="14.00" fill="#000000">m.zaps = P&quot;!&quot;^1</text>
<text text-anchor="middle" x="1972.0877" y="-265.6004" font-family="Inconsolata" font-size="14.00" fill="#000000">m.fas = P&quot;/&quot;</text>
<text text-anchor="middle" x="1972.0877" y="-250.2003" font-family="Inconsolata" font-size="14.00" fill="#000000">m.fass = P&quot;/&quot;^1</text>
<text text-anchor="middle" x="1972.0877" y="-234.8003" font-family="Inconsolata" font-size="14.00" fill="#000000">m.dot = P&quot;.&quot;</text>
<text text-anchor="middle" x="1972.0877" y="-219.4003" font-family="Inconsolata" font-size="14.00" fill="#000000">m.col = P&quot;:&quot;</text>
<text text-anchor="middle" x="1972.0877" y="-188.0002" font-family="Inconsolata" font-size="14.00" fill="#000000">m.sel = P&quot;[&quot;</text>
<text text-anchor="middle" x="1972.0877" y="-172.6002" font-family="Inconsolata" font-size="14.00" fill="#000000">m.ser = P&quot;]&quot;</text>
<text text-anchor="middle" x="1972.0877" y="-157.2002" font-family="Inconsolata" font-size="14.00" fill="#000000">m.pal = P&quot;(&quot;</text>
<text text-anchor="middle" x="1972.0877" y="-141.8002" font-family="Inconsolata" font-size="14.00" fill="#000000">m.par = P&quot;)&quot;</text>
<text text-anchor="middle" x="1972.0877" y="-126.4001" font-family="Inconsolata" font-size="14.00" fill="#000000">m.kel = P&quot;{&quot;</text>
<text text-anchor="middle" x="1972.0877" y="-111.0001" font-family="Inconsolata" font-size="14.00" fill="#000000">m.ker = P&quot;}&quot;</text>
<text text-anchor="middle" x="1972.0877" y="-95.6001" font-family="Inconsolata" font-size="14.00" fill="#000000">m.gal = P&quot;&lt;&quot;</text>
<text text-anchor="middle" x="1972.0877" y="-80.2" font-family="Inconsolata" font-size="14.00" fill="#000000">m.gar = P&quot;&gt;&quot;</text>
</g>
<!-- codeblock_20&#45;&gt;leaf_21 -->
<g id="edge10" class="edge">
<title>codeblock_20&#45;&gt;leaf_21</title>
<path fill="none" stroke="#000000" stroke-dasharray="5,2" d="M1972.0877,-455.1519C1972.0877,-448.1868 1972.0877,-439.5369 1972.0877,-429.7524"/>
<polygon fill="#000000" stroke="#000000" points="1975.5878,-429.6101 1972.0877,-419.6101 1968.5878,-429.6101 1975.5878,-429.6101"/>
</g>
<!-- section_14 -->
<g id="node20" class="node">
<title>section_14</title>
<ellipse fill="none" stroke="#000000" cx="2121.0877" cy="-473.4007" rx="52.7641" ry="18"/>
<text text-anchor="middle" x="2121.0877" y="-469.2007" font-family="Helvetica,sans-Serif" font-size="14.00" fill="#000000">section_14</text>
</g>
<!-- header_22 -->
<g id="node21" class="node">
<title>header_22</title>
<ellipse fill="none" stroke="#000000" cx="2121.0877" cy="-245.7003" rx="70.1619" ry="18"/>
<text text-anchor="middle" x="2121.0877" y="-241.5003" font-family="Helvetica,sans-Serif" font-size="14.00" fill="#000000">3 : Compounds</text>
</g>
<!-- section_14&#45;&gt;header_22 -->
<g id="edge11" class="edge">
<title>section_14&#45;&gt;header_22</title>
<path fill="none" stroke="#000000" stroke-dasharray="5,2" d="M2121.0877,-455.1519C2121.0877,-415.5001 2121.0877,-321.2475 2121.0877,-273.886"/>
<polygon fill="#000000" stroke="#000000" points="2124.5878,-273.7199 2121.0877,-263.7199 2117.5878,-273.72 2124.5878,-273.7199"/>
</g>
<!-- codeblock_23 -->
<g id="node22" class="node">
<title>codeblock_23</title>
<ellipse fill="none" stroke="#000000" cx="2455.0877" cy="-473.4007" rx="64.8671" ry="18"/>
<text text-anchor="middle" x="2455.0877" y="-469.2007" font-family="Helvetica,sans-Serif" font-size="14.00" fill="#000000">codeblock_23</text>
</g>
<!-- leaf_24 -->
<g id="node23" class="node">
<title>leaf_24</title>
<polygon fill="none" stroke="#c0c0c0" points="2701.0877,-280.9007 2209.0877,-280.9007 2209.0877,-210.4999 2701.0877,-210.4999 2701.0877,-280.9007"/>
<text text-anchor="middle" x="2455.0877" y="-265.6004" font-family="Inconsolata" font-size="14.00" fill="#000000">m.symbol = m.letter * (m.letter + m.digit + m.hep + m.zap + m.wut)^0</text>
<text text-anchor="middle" x="2455.0877" y="-234.2003" font-family="Inconsolata" font-size="14.00" fill="#000000">m.hashtag = m.hax * m.symbol</text>
<text text-anchor="middle" x="2455.0877" y="-218.8003" font-family="Inconsolata" font-size="14.00" fill="#000000">m.handle = m.pat * m.symbol</text>
</g>
<!-- codeblock_23&#45;&gt;leaf_24 -->
<g id="edge12" class="edge">
<title>codeblock_23&#45;&gt;leaf_24</title>
<path fill="none" stroke="#000000" stroke-dasharray="5,2" d="M2455.0877,-455.1519C2455.0877,-419.8803 2455.0877,-341.4047 2455.0877,-291.1614"/>
<polygon fill="#000000" stroke="#000000" points="2458.5878,-290.8942 2455.0877,-280.8943 2451.5878,-290.8943 2458.5878,-290.8942"/>
</g>
<!-- section_5 -->
<g id="node24" class="node">
<title>section_5</title>
<ellipse fill="none" stroke="#000000" cx="2763.0877" cy="-473.4007" rx="47.9272" ry="18"/>
<text text-anchor="middle" x="2763.0877" y="-469.2007" font-family="Helvetica,sans-Serif" font-size="14.00" fill="#000000">section_5</text>
</g>
<!-- header_25 -->
<g id="node25" class="node">
<title>header_25</title>
<ellipse fill="none" stroke="#000000" cx="2763.0877" cy="-245.7003" rx="43.5751" ry="18"/>
<text text-anchor="middle" x="2763.0877" y="-241.5003" font-family="Helvetica,sans-Serif" font-size="14.00" fill="#000000">2 : Lines</text>
</g>
<!-- section_5&#45;&gt;header_25 -->
<g id="edge13" class="edge">
<title>section_5&#45;&gt;header_25</title>
<path fill="none" stroke="#000000" stroke-dasharray="5,2" d="M2763.0877,-455.1519C2763.0877,-415.5001 2763.0877,-321.2475 2763.0877,-273.886"/>
<polygon fill="#000000" stroke="#000000" points="2766.5878,-273.7199 2763.0877,-263.7199 2759.5878,-273.72 2766.5878,-273.7199"/>
</g>
<!-- section_26 -->
<g id="node26" class="node">
<title>section_26</title>
<ellipse fill="none" stroke="#000000" cx="2882.0877" cy="-473.4007" rx="52.7641" ry="18"/>
<text text-anchor="middle" x="2882.0877" y="-469.2007" font-family="Helvetica,sans-Serif" font-size="14.00" fill="#000000">section_26</text>
</g>
<!-- header_29 -->
<g id="node27" class="node">
<title>header_29</title>
<ellipse fill="none" stroke="#000000" cx="2882.0877" cy="-245.7003" rx="50.0314" ry="18"/>
<text text-anchor="middle" x="2882.0877" y="-241.5003" font-family="Helvetica,sans-Serif" font-size="14.00" fill="#000000">3 : Tagline</text>
</g>
<!-- section_26&#45;&gt;header_29 -->
<g id="edge14" class="edge">
<title>section_26&#45;&gt;header_29</title>
<path fill="none" stroke="#000000" stroke-dasharray="5,2" d="M2882.0877,-455.1519C2882.0877,-415.5001 2882.0877,-321.2475 2882.0877,-273.886"/>
<polygon fill="#000000" stroke="#000000" points="2885.5878,-273.7199 2882.0877,-263.7199 2878.5878,-273.72 2885.5878,-273.7199"/>
</g>
<!-- codeblock_30 -->
<g id="node28" class="node">
<title>codeblock_30</title>
<ellipse fill="none" stroke="#000000" cx="3140.0877" cy="-473.4007" rx="64.8671" ry="18"/>
<text text-anchor="middle" x="3140.0877" y="-469.2007" font-family="Helvetica,sans-Serif" font-size="14.00" fill="#000000">codeblock_30</text>
</g>
<!-- leaf_31 -->
<g id="node29" class="node">
<title>leaf_31</title>
<polygon fill="none" stroke="#c0c0c0" points="3330.0877,-272.9008 2950.0877,-272.9008 2950.0877,-218.4999 3330.0877,-218.4999 3330.0877,-272.9008"/>
<text text-anchor="middle" x="3140.0877" y="-257.6004" font-family="Inconsolata" font-size="14.00" fill="#000000">m.tagline_hash_p = #(m.WS * m.hax &#45; (m.hax * m._))</text>
<text text-anchor="middle" x="3140.0877" y="-242.2003" font-family="Inconsolata" font-size="14.00" fill="#000000">m.tagline_handle_p = #(m.WS * m.pat &#45; (m.pat * m._))</text>
<text text-anchor="middle" x="3140.0877" y="-226.8003" font-family="Inconsolata" font-size="14.00" fill="#000000">m.tagline_p = m.tagline_hash_p + m.tagline_hash_p</text>
</g>
<!-- codeblock_30&#45;&gt;leaf_31 -->
<g id="edge15" class="edge">
<title>codeblock_30&#45;&gt;leaf_31</title>
<path fill="none" stroke="#000000" stroke-dasharray="5,2" d="M3140.0877,-455.1519C3140.0877,-417.9877 3140.0877,-332.8588 3140.0877,-283.3286"/>
<polygon fill="#000000" stroke="#000000" points="3143.5878,-283.0337 3140.0877,-273.0337 3136.5878,-283.0337 3143.5878,-283.0337"/>
</g>
<!-- section_27 -->
<g id="node30" class="node">
<title>section_27</title>
<ellipse fill="none" stroke="#000000" cx="3400.0877" cy="-473.4007" rx="52.7641" ry="18"/>
<text text-anchor="middle" x="3400.0877" y="-469.2007" font-family="Helvetica,sans-Serif" font-size="14.00" fill="#000000">section_27</text>
</g>
<!-- header_32 -->
<g id="node31" class="node">
<title>header_32</title>
<ellipse fill="none" stroke="#000000" cx="3400.0877" cy="-245.7003" rx="52.2623" ry="18"/>
<text text-anchor="middle" x="3400.0877" y="-241.5003" font-family="Helvetica,sans-Serif" font-size="14.00" fill="#000000">3 : Listline </text>
</g>
<!-- section_27&#45;&gt;header_32 -->
<g id="edge16" class="edge">
<title>section_27&#45;&gt;header_32</title>
<path fill="none" stroke="#000000" stroke-dasharray="5,2" d="M3400.0877,-455.1519C3400.0877,-415.5001 3400.0877,-321.2475 3400.0877,-273.886"/>
<polygon fill="#000000" stroke="#000000" points="3403.5878,-273.7199 3400.0877,-263.7199 3396.5878,-273.72 3403.5878,-273.7199"/>
</g>
<!-- codeblock_33 -->
<g id="node32" class="node">
<title>codeblock_33</title>
<ellipse fill="none" stroke="#000000" cx="3657.0877" cy="-473.4007" rx="64.8671" ry="18"/>
<text text-anchor="middle" x="3657.0877" y="-469.2007" font-family="Helvetica,sans-Serif" font-size="14.00" fill="#000000">codeblock_33</text>
</g>
<!-- leaf_34 -->
<g id="node33" class="node">
<title>leaf_34</title>
<polygon fill="none" stroke="#c0c0c0" points="3843.5877,-272.9008 3470.5877,-272.9008 3470.5877,-218.4999 3843.5877,-218.4999 3843.5877,-272.9008"/>
<text text-anchor="middle" x="3657.0877" y="-257.6004" font-family="Inconsolata" font-size="14.00" fill="#000000">m.listline_base_p = #(m.WS * m.hep * m._)</text>
<text text-anchor="middle" x="3657.0877" y="-242.2003" font-family="Inconsolata" font-size="14.00" fill="#000000">m.listline_num_p = #(m.WS * m.digit^1 * m.dot)</text>
<text text-anchor="middle" x="3657.0877" y="-226.8003" font-family="Inconsolata" font-size="14.00" fill="#000000">m.listline_p = m.listline_base_p + m.listline_num_p</text>
</g>
<!-- codeblock_33&#45;&gt;leaf_34 -->
<g id="edge17" class="edge">
<title>codeblock_33&#45;&gt;leaf_34</title>
<path fill="none" stroke="#000000" stroke-dasharray="5,2" d="M3657.0877,-455.1519C3657.0877,-417.9877 3657.0877,-332.8588 3657.0877,-283.3286"/>
<polygon fill="#000000" stroke="#000000" points="3660.5878,-283.0337 3657.0877,-273.0337 3653.5878,-283.0337 3660.5878,-283.0337"/>
</g>
<!-- section_28 -->
<g id="node34" class="node">
<title>section_28</title>
<ellipse fill="none" stroke="#000000" cx="3919.0877" cy="-473.4007" rx="52.7641" ry="18"/>
<text text-anchor="middle" x="3919.0877" y="-469.2007" font-family="Helvetica,sans-Serif" font-size="14.00" fill="#000000">section_28</text>
</g>
<!-- header_35 -->
<g id="node35" class="node">
<title>header_35</title>
<ellipse fill="none" stroke="#000000" cx="3919.0877" cy="-245.7003" rx="57.2968" ry="18"/>
<text text-anchor="middle" x="3919.0877" y="-241.5003" font-family="Helvetica,sans-Serif" font-size="14.00" fill="#000000">3 : Tableline</text>
</g>
<!-- section_28&#45;&gt;header_35 -->
<g id="edge18" class="edge">
<title>section_28&#45;&gt;header_35</title>
<path fill="none" stroke="#000000" stroke-dasharray="5,2" d="M3919.0877,-455.1519C3919.0877,-415.5001 3919.0877,-321.2475 3919.0877,-273.886"/>
<polygon fill="#000000" stroke="#000000" points="3922.5878,-273.7199 3919.0877,-263.7199 3915.5878,-273.72 3922.5878,-273.7199"/>
</g>
<!-- codeblock_36 -->
<g id="node36" class="node">
<title>codeblock_36</title>
<ellipse fill="none" stroke="#000000" cx="4160.0877" cy="-473.4007" rx="64.8671" ry="18"/>
<text text-anchor="middle" x="4160.0877" y="-469.2007" font-family="Helvetica,sans-Serif" font-size="14.00" fill="#000000">codeblock_36</text>
</g>
<!-- leaf_37 -->
<g id="node37" class="node">
<title>leaf_37</title>
<polygon fill="none" stroke="#c0c0c0" points="4325.5877,-320.1011 3994.5877,-320.1011 3994.5877,-171.2996 4325.5877,-171.2996 4325.5877,-320.1011"/>
<text text-anchor="middle" x="4160.0877" y="-304.7004" font-family="Inconsolata" font-size="14.00" fill="#000000">m.tableline_p = #(m.WS * m.bar)</text>
<text text-anchor="middle" x="4160.0877" y="-273.3004" font-family="Inconsolata" font-size="14.00" fill="#000000">m.codestart_p = #(m.WS * m.hax * m.zaps)</text>
<text text-anchor="middle" x="4160.0877" y="-257.9004" font-family="Inconsolata" font-size="14.00" fill="#000000">m.codefinish_p = #(m.WS * m.hax * m.fass)</text>
<text text-anchor="middle" x="4160.0877" y="-226.5003" font-family="Inconsolata" font-size="14.00" fill="#000000">m.codestart = m.WS * m.hax * m.zaps * P(1)^1</text>
<text text-anchor="middle" x="4160.0877" y="-211.1003" font-family="Inconsolata" font-size="14.00" fill="#000000">m.codefinish = m.WS * m.hax * m.fass * P(1)^1</text>
<text text-anchor="middle" x="4160.0877" y="-179.7003" font-family="Inconsolata" font-size="14.00" fill="#000000">m.header = m.WS * m.tars * m._ * P(1)^1 </text>
</g>
<!-- codeblock_36&#45;&gt;leaf_37 -->
<g id="edge19" class="edge">
<title>codeblock_36&#45;&gt;leaf_37</title>
<path fill="none" stroke="#000000" stroke-dasharray="5,2" d="M4160.0877,-455.1519C4160.0877,-428.1711 4160.0877,-375.9102 4160.0877,-330.3435"/>
<polygon fill="#000000" stroke="#000000" points="4163.5878,-330.1336 4160.0877,-320.1336 4156.5878,-330.1336 4163.5878,-330.1336"/>
</g>
<!-- section_6 -->
<g id="node38" class="node">
<title>section_6</title>
<ellipse fill="none" stroke="#000000" cx="4406.0877" cy="-473.4007" rx="47.9272" ry="18"/>
<text text-anchor="middle" x="4406.0877" y="-469.2007" font-family="Helvetica,sans-Serif" font-size="14.00" fill="#000000">section_6</text>
</g>
<!-- header_38 -->
<g id="node39" class="node">
<title>header_38</title>
<ellipse fill="none" stroke="#000000" cx="4406.0877" cy="-245.7003" rx="62.8945" ry="18"/>
<text text-anchor="middle" x="4406.0877" y="-241.5003" font-family="Helvetica,sans-Serif" font-size="14.00" fill="#000000">2 : Structures</text>
</g>
<!-- section_6&#45;&gt;header_38 -->
<g id="edge20" class="edge">
<title>section_6&#45;&gt;header_38</title>
<path fill="none" stroke="#000000" stroke-dasharray="5,2" d="M4406.0877,-455.1519C4406.0877,-415.5001 4406.0877,-321.2475 4406.0877,-273.886"/>
<polygon fill="#000000" stroke="#000000" points="4409.5878,-273.7199 4406.0877,-263.7199 4402.5878,-273.72 4409.5878,-273.7199"/>
</g>
<!-- codeblock_39 -->
<g id="node40" class="node">
<title>codeblock_39</title>
<ellipse fill="none" stroke="#000000" cx="4852.0877" cy="-473.4007" rx="64.8671" ry="18"/>
<text text-anchor="middle" x="4852.0877" y="-469.2007" font-family="Helvetica,sans-Serif" font-size="14.00" fill="#000000">codeblock_39</text>
</g>
<!-- leaf_41 -->
<g id="node41" class="node">
<title>leaf_41</title>
<polygon fill="none" stroke="#c0c0c0" points="5217.0877,-280.9007 4487.0877,-280.9007 4487.0877,-210.4999 5217.0877,-210.4999 5217.0877,-280.9007"/>
<text text-anchor="middle" x="4852.0877" y="-265.6004" font-family="Inconsolata" font-size="14.00" fill="#000000">m.url = m.letter * (m.symbol + m.dot + m.fas + m.col)^0 &#45; m.ser &#45;&#45; This is definitely not right at all</text>
<text text-anchor="middle" x="4852.0877" y="-234.2003" font-family="Inconsolata" font-size="14.00" fill="#000000">m.prose = (m.symbol + m._)^1 &#45;&#45; Or this</text>
<text text-anchor="middle" x="4852.0877" y="-218.8003" font-family="Inconsolata" font-size="14.00" fill="#000000">m.link_prose = m.prose &#45; m.ser &#45;&#45; accurate</text>
</g>
<!-- codeblock_39&#45;&gt;leaf_41 -->
<g id="edge21" class="edge">
<title>codeblock_39&#45;&gt;leaf_41</title>
<path fill="none" stroke="#000000" stroke-dasharray="5,2" d="M4852.0877,-455.1519C4852.0877,-419.8803 4852.0877,-341.4047 4852.0877,-291.1614"/>
<polygon fill="#000000" stroke="#000000" points="4855.5878,-290.8942 4852.0877,-280.8943 4848.5878,-290.8943 4855.5878,-290.8942"/>
</g>
<!-- section_40 -->
<g id="node42" class="node">
<title>section_40</title>
<ellipse fill="none" stroke="#000000" cx="5278.0877" cy="-473.4007" rx="52.7641" ry="18"/>
<text text-anchor="middle" x="5278.0877" y="-469.2007" font-family="Helvetica,sans-Serif" font-size="14.00" fill="#000000">section_40</text>
</g>
<!-- header_42 -->
<g id="node43" class="node">
<title>header_42</title>
<ellipse fill="none" stroke="#000000" cx="5278.0877" cy="-245.7003" rx="43.082" ry="18"/>
<text text-anchor="middle" x="5278.0877" y="-241.5003" font-family="Helvetica,sans-Serif" font-size="14.00" fill="#000000">3 : Links</text>
</g>
<!-- section_40&#45;&gt;header_42 -->
<g id="edge22" class="edge">
<title>section_40&#45;&gt;header_42</title>
<path fill="none" stroke="#000000" stroke-dasharray="5,2" d="M5278.0877,-455.1519C5278.0877,-415.5001 5278.0877,-321.2475 5278.0877,-273.886"/>
<polygon fill="#000000" stroke="#000000" points="5281.5878,-273.7199 5278.0877,-263.7199 5274.5878,-273.72 5281.5878,-273.7199"/>
</g>
<!-- codeblock_43 -->
<g id="node44" class="node">
<title>codeblock_43</title>
<ellipse fill="none" stroke="#000000" cx="5540.0877" cy="-473.4007" rx="64.8671" ry="18"/>
<text text-anchor="middle" x="5540.0877" y="-469.2007" font-family="Helvetica,sans-Serif" font-size="14.00" fill="#000000">codeblock_43</text>
</g>
<!-- leaf_45 -->
<g id="node45" class="node">
<title>leaf_45</title>
<polygon fill="none" stroke="#c0c0c0" points="5740.5877,-272.9008 5339.5877,-272.9008 5339.5877,-218.4999 5740.5877,-218.4999 5740.5877,-272.9008"/>
<text text-anchor="middle" x="5540.0877" y="-257.6004" font-family="Inconsolata" font-size="14.00" fill="#000000">m.inner_link = m.sel * m.url * m.ser</text>
<text text-anchor="middle" x="5540.0877" y="-242.2003" font-family="Inconsolata" font-size="14.00" fill="#000000">m.text_link = m.sel * m.link_prose * m.ser</text>
<text text-anchor="middle" x="5540.0877" y="-226.8003" font-family="Inconsolata" font-size="14.00" fill="#000000">m.link = m.sel * m.text_link * m.inner_link^&#45;1 * m.ser </text>
</g>
<!-- codeblock_43&#45;&gt;leaf_45 -->
<g id="edge23" class="edge">
<title>codeblock_43&#45;&gt;leaf_45</title>
<path fill="none" stroke="#000000" stroke-dasharray="5,2" d="M5540.0877,-455.1519C5540.0877,-417.9877 5540.0877,-332.8588 5540.0877,-283.3286"/>
<polygon fill="#000000" stroke="#000000" points="5543.5878,-283.0337 5540.0877,-273.0337 5536.5878,-283.0337 5543.5878,-283.0337"/>
</g>
<!-- codeblock_44 -->
<g id="node46" class="node">
<title>codeblock_44</title>
<ellipse fill="none" stroke="#000000" cx="5795.0877" cy="-473.4007" rx="64.8671" ry="18"/>
<text text-anchor="middle" x="5795.0877" y="-469.2007" font-family="Helvetica,sans-Serif" font-size="14.00" fill="#000000">codeblock_44</text>
</g>
<!-- leaf_46 -->
<g id="node47" class="node">
<title>leaf_46</title>
<polygon fill="none" stroke="#c0c0c0" points="5831.0877,-263.7003 5759.0877,-263.7003 5759.0877,-227.7003 5831.0877,-227.7003 5831.0877,-263.7003"/>
<text text-anchor="middle" x="5795.0877" y="-242.2003" font-family="Inconsolata" font-size="14.00" fill="#000000">return m</text>
</g>
<!-- codeblock_44&#45;&gt;leaf_46 -->
<g id="edge24" class="edge">
<title>codeblock_44&#45;&gt;leaf_46</title>
<path fill="none" stroke="#000000" stroke-dasharray="5,2" d="M5795.0877,-455.1519C5795.0877,-415.5001 5795.0877,-321.2475 5795.0877,-273.886"/>
<polygon fill="#000000" stroke="#000000" points="5798.5878,-273.7199 5795.0877,-263.7199 5791.5878,-273.72 5798.5878,-273.7199"/>
</g>
</g>
</svg>