<?xml version="1.0" encoding="UTF-8" standalone="no"?>
<!DOCTYPE svg PUBLIC "-//W3C//DTD SVG 1.1//EN"
 "http://www.w3.org/Graphics/SVG/1.1/DTD/svg11.dtd">
<!-- Generated by graphviz version 2.40.1 (20161225.0304)
 -->
<!-- Title: hierarchy Pages: 1 -->
<svg width="2910pt" height="571pt"
 viewBox="0.00 0.00 2909.50 571.00" xmlns="http://www.w3.org/2000/svg" xmlns:xlink="http://www.w3.org/1999/xlink">
<g id="graph0" class="graph" transform="scale(1 1) rotate(0) translate(4 567.0005)">
<title>hierarchy</title>
<polygon fill="#ffffff" stroke="transparent" points="-4,4 -4,-567.0005 2905.5,-567.0005 2905.5,4 -4,4"/>
<!-- doc_0 -->
<g id="node1" class="node">
<title>doc_0</title>
<ellipse fill="none" stroke="#000000" cx="1308.5" cy="-545.0005" rx="42.1216" ry="18"/>
<text text-anchor="middle" x="1308.5" y="-540.8005" font-family="Helvetica,sans-Serif" font-size="14.00" fill="#000000">doc &#45; 54</text>
</g>
<!-- section_1 -->
<g id="node2" class="node">
<title>section_1</title>
<ellipse fill="none" stroke="#000000" cx="1308.5" cy="-473.0005" rx="60.9826" ry="18"/>
<text text-anchor="middle" x="1308.5" y="-468.8005" font-family="Helvetica,sans-Serif" font-size="14.00" fill="#000000">section: 1&#45;34</text>
</g>
<!-- doc_0&#45;&gt;section_1 -->
<g id="edge1" class="edge">
<title>doc_0&#45;&gt;section_1</title>
<path fill="none" stroke="#000000" stroke-dasharray="5,2" d="M1308.5,-526.8318C1308.5,-519.1314 1308.5,-509.9748 1308.5,-501.4171"/>
<polygon fill="#000000" stroke="#000000" points="1312.0001,-501.4137 1308.5,-491.4137 1305.0001,-501.4138 1312.0001,-501.4137"/>
</g>
<!-- header_2 -->
<g id="node3" class="node">
<title>header_2</title>
<ellipse fill="none" stroke="#000000" cx="1004.5" cy="-401.0005" rx="89.9744" ry="18"/>
<text text-anchor="middle" x="1004.5" y="-396.8005" font-family="Helvetica,sans-Serif" font-size="14.00" fill="#000000">1 : Structure Module</text>
</g>
<!-- section_1&#45;&gt;header_2 -->
<g id="edge2" class="edge">
<title>section_1&#45;&gt;header_2</title>
<path fill="none" stroke="#000000" stroke-dasharray="5,2" d="M1261,-461.7505C1210.4317,-449.7738 1129.9552,-430.7135 1072.6374,-417.1383"/>
<polygon fill="#000000" stroke="#000000" points="1073.1125,-413.654 1062.575,-414.7551 1071.4991,-420.4656 1073.1125,-413.654"/>
</g>
<!-- prose_3 -->
<g id="node4" class="node">
<title>prose_3</title>
<ellipse fill="none" stroke="#000000" cx="1144.5" cy="-401.0005" rx="32.4585" ry="18"/>
<text text-anchor="middle" x="1144.5" y="-396.8005" font-family="Helvetica,sans-Serif" font-size="14.00" fill="#000000">prose</text>
</g>
<!-- section_1&#45;&gt;prose_3 -->
<g id="edge3" class="edge">
<title>section_1&#45;&gt;prose_3</title>
<path fill="none" stroke="#000000" stroke-dasharray="5,2" d="M1274.1202,-457.9069C1246.3097,-445.6974 1207.3158,-428.5781 1179.3739,-416.311"/>
<polygon fill="#000000" stroke="#000000" points="1180.5513,-413.0055 1169.9879,-412.1903 1177.7374,-419.415 1180.5513,-413.0055"/>
</g>
<!-- prose_4 -->
<g id="node5" class="node">
<title>prose_4</title>
<ellipse fill="none" stroke="#000000" cx="1226.5" cy="-401.0005" rx="32.4585" ry="18"/>
<text text-anchor="middle" x="1226.5" y="-396.8005" font-family="Helvetica,sans-Serif" font-size="14.00" fill="#000000">prose</text>
</g>
<!-- section_1&#45;&gt;prose_4 -->
<g id="edge4" class="edge">
<title>section_1&#45;&gt;prose_4</title>
<path fill="none" stroke="#000000" stroke-dasharray="5,2" d="M1289.0671,-455.9375C1277.8006,-446.0449 1263.4965,-433.4852 1251.4098,-422.8725"/>
<polygon fill="#000000" stroke="#000000" points="1253.6653,-420.1952 1243.8415,-416.2272 1249.0466,-425.4553 1253.6653,-420.1952"/>
</g>
<!-- prose_5 -->
<g id="node6" class="node">
<title>prose_5</title>
<ellipse fill="none" stroke="#000000" cx="1308.5" cy="-401.0005" rx="32.4585" ry="18"/>
<text text-anchor="middle" x="1308.5" y="-396.8005" font-family="Helvetica,sans-Serif" font-size="14.00" fill="#000000">prose</text>
</g>
<!-- section_1&#45;&gt;prose_5 -->
<g id="edge5" class="edge">
<title>section_1&#45;&gt;prose_5</title>
<path fill="none" stroke="#000000" stroke-dasharray="5,2" d="M1308.5,-454.8318C1308.5,-447.1314 1308.5,-437.9748 1308.5,-429.4171"/>
<polygon fill="#000000" stroke="#000000" points="1312.0001,-429.4137 1308.5,-419.4137 1305.0001,-429.4138 1312.0001,-429.4137"/>
</g>
<!-- codeblock_6 -->
<g id="node7" class="node">
<title>codeblock_6</title>
<ellipse fill="none" stroke="#000000" cx="1496.5" cy="-401.0005" rx="77.4211" ry="18"/>
<text text-anchor="middle" x="1496.5" y="-396.8005" font-family="Helvetica,sans-Serif" font-size="14.00" fill="#000000">code block 12&#45;18</text>
</g>
<!-- section_1&#45;&gt;codeblock_6 -->
<g id="edge6" class="edge">
<title>section_1&#45;&gt;codeblock_6</title>
<path fill="none" stroke="#000000" stroke-dasharray="5,2" d="M1346.0928,-458.6032C1374.9341,-447.5576 1415.0179,-432.2064 1446.5534,-420.129"/>
<polygon fill="#000000" stroke="#000000" points="1447.9571,-423.3393 1456.0439,-416.4943 1445.4535,-416.8023 1447.9571,-423.3393"/>
</g>
<!-- section_7 -->
<g id="node8" class="node">
<title>section_7</title>
<ellipse fill="none" stroke="#000000" cx="1995.5" cy="-401.0005" rx="65.8187" ry="18"/>
<text text-anchor="middle" x="1995.5" y="-396.8005" font-family="Helvetica,sans-Serif" font-size="14.00" fill="#000000">section: 20&#45;34</text>
</g>
<!-- section_1&#45;&gt;section_7 -->
<g id="edge7" class="edge">
<title>section_1&#45;&gt;section_7</title>
<path fill="none" stroke="#000000" stroke-dasharray="5,2" d="M1365.8916,-466.9856C1490.7933,-453.8955 1787.0108,-422.8509 1923.8841,-408.5061"/>
<polygon fill="#000000" stroke="#000000" points="1924.2747,-411.9844 1933.8554,-407.461 1923.545,-405.0225 1924.2747,-411.9844"/>
</g>
<!-- section_8 -->
<g id="node9" class="node">
<title>section_8</title>
<ellipse fill="none" stroke="#000000" cx="2477.5" cy="-401.0005" rx="65.8187" ry="18"/>
<text text-anchor="middle" x="2477.5" y="-396.8005" font-family="Helvetica,sans-Serif" font-size="14.00" fill="#000000">section: 35&#45;54</text>
</g>
<!-- section_1&#45;&gt;section_8 -->
<g id="edge8" class="edge">
<title>section_1&#45;&gt;section_8</title>
<path fill="none" stroke="#000000" stroke-dasharray="5,2" d="M1368.078,-469.331C1563.8914,-457.2706 2187.3882,-418.8688 2403.1638,-405.5789"/>
<polygon fill="#000000" stroke="#000000" points="2403.6675,-409.0546 2413.4334,-404.9464 2403.2371,-402.0679 2403.6675,-409.0546"/>
</g>
<!-- leaf_9 -->
<g id="node10" class="node">
<title>leaf_9</title>
<polygon fill="none" stroke="#c0c0c0" points="471,-339.4008 0,-339.4008 0,-269 471,-269 471,-339.4008"/>
<text text-anchor="middle" x="235.5" y="-308.1005" font-family="Inconsolata" font-size="14.00" fill="#000000"> &#160;&#160;Structure is our holding block for anything which is neither</text>
<text text-anchor="middle" x="235.5" y="-292.7004" font-family="Inconsolata" font-size="14.00" fill="#000000"> prose nor code. &#160;This includes taglines, lists, tables, and some</text>
<text text-anchor="middle" x="235.5" y="-277.3004" font-family="Inconsolata" font-size="14.00" fill="#000000"> more advanced forms such as drawers.</text>
</g>
<!-- prose_3&#45;&gt;leaf_9 -->
<g id="edge9" class="edge">
<title>prose_3&#45;&gt;leaf_9</title>
<path fill="none" stroke="#000000" stroke-dasharray="5,2" d="M1120.2786,-388.6796C1114.8793,-386.4143 1109.0936,-384.3436 1103.5,-383.0005 833.3835,-318.14 755.4393,-379.052 479.5,-347.0005 464.3433,-345.24 448.7013,-343.1454 432.9996,-340.8431"/>
<polygon fill="#000000" stroke="#000000" points="433.0845,-337.3171 422.6772,-339.3017 432.0506,-344.2403 433.0845,-337.3171"/>
</g>
<!-- leaf_10 -->
<g id="node11" class="node">
<title>leaf_10</title>
<polygon fill="none" stroke="#c0c0c0" points="1044,-323.501 489,-323.501 489,-284.8998 1044,-284.8998 1044,-323.501"/>
<text text-anchor="middle" x="766.5" y="-308.4004" font-family="Inconsolata" font-size="14.00" fill="#000000"> For now we need them as containers for taglines, which are part of the short</text>
<text text-anchor="middle" x="766.5" y="-293.0004" font-family="Inconsolata" font-size="14.00" fill="#000000"> path for knitting source code.</text>
</g>
<!-- prose_4&#45;&gt;leaf_10 -->
<g id="edge10" class="edge">
<title>prose_4&#45;&gt;leaf_10</title>
<path fill="none" stroke="#000000" stroke-dasharray="5,2" d="M1202.1306,-389.219C1196.7405,-386.9201 1190.996,-384.6993 1185.5,-383.0005 1100.7295,-356.7971 1003.4765,-337.8556 924.0179,-325.1205"/>
<polygon fill="#000000" stroke="#000000" points="924.3473,-321.6291 913.9227,-323.5204 923.2515,-328.5428 924.3473,-321.6291"/>
</g>
<!-- leaf_11 -->
<g id="node12" class="node">
<title>leaf_11</title>
<polygon fill="none" stroke="#c0c0c0" points="1435,-322.2004 1062,-322.2004 1062,-286.2004 1435,-286.2004 1435,-322.2004"/>
<text text-anchor="middle" x="1248.5" y="-300.7004" font-family="Inconsolata" font-size="14.00" fill="#000000"> Note that structures do not have a =.lines= field.</text>
</g>
<!-- prose_5&#45;&gt;leaf_11 -->
<g id="edge11" class="edge">
<title>prose_5&#45;&gt;leaf_11</title>
<path fill="none" stroke="#000000" stroke-dasharray="5,2" d="M1297.7732,-383.6946C1288.7291,-369.1034 1275.6324,-347.974 1265.2143,-331.1662"/>
<polygon fill="#000000" stroke="#000000" points="1267.9881,-328.9978 1259.7448,-322.3421 1262.0384,-332.6857 1267.9881,-328.9978"/>
</g>
<!-- leaf_12 -->
<g id="node13" class="node">
<title>leaf_12</title>
<polygon fill="none" stroke="#c0c0c0" points="1777.5,-346.8015 1453.5,-346.8015 1453.5,-261.5994 1777.5,-261.5994 1777.5,-346.8015"/>
<text text-anchor="middle" x="1615.5" y="-331.8005" font-family="Inconsolata" font-size="14.00" fill="#000000">local Node = require &quot;peg/node&quot;</text>
<text text-anchor="middle" x="1615.5" y="-316.4004" font-family="Inconsolata" font-size="14.00" fill="#000000">local u = require &quot;../lib/util&quot;</text>
<text text-anchor="middle" x="1615.5" y="-285.0004" font-family="Inconsolata" font-size="14.00" fill="#000000">local Hashline = require &quot;grym/hashline&quot;</text>
<text text-anchor="middle" x="1615.5" y="-269.6004" font-family="Inconsolata" font-size="14.00" fill="#000000">local Handleline = require &quot;grym/handleline&quot;</text>
</g>
<!-- codeblock_6&#45;&gt;leaf_12 -->
<g id="edge12" class="edge">
<title>codeblock_6&#45;&gt;leaf_12</title>
<path fill="none" stroke="#000000" stroke-dasharray="5,2" d="M1518.05,-383.4707C1528.576,-374.9084 1541.8214,-364.1339 1555.1252,-353.312"/>
<polygon fill="#000000" stroke="#000000" points="1557.396,-355.9766 1562.9449,-346.9511 1552.9787,-350.5463 1557.396,-355.9766"/>
</g>
<!-- header_13 -->
<g id="node14" class="node">
<title>header_13</title>
<ellipse fill="none" stroke="#000000" cx="1912.5" cy="-304.2004" rx="116.5368" ry="18"/>
<text text-anchor="middle" x="1912.5" y="-300.0004" font-family="Helvetica,sans-Serif" font-size="14.00" fill="#000000">2 : Metatable for Structures</text>
</g>
<!-- section_7&#45;&gt;header_13 -->
<g id="edge13" class="edge">
<title>section_7&#45;&gt;header_13</title>
<path fill="none" stroke="#000000" stroke-dasharray="5,2" d="M1980.2765,-383.2458C1967.4871,-368.3299 1949.0415,-346.8175 1934.6213,-329.9997"/>
<polygon fill="#000000" stroke="#000000" points="1937.0743,-327.4835 1927.908,-322.1703 1931.7603,-332.04 1937.0743,-327.4835"/>
</g>
<!-- prose_14 -->
<g id="node15" class="node">
<title>prose_14</title>
<ellipse fill="none" stroke="#000000" cx="2079.5" cy="-304.2004" rx="32.4585" ry="18"/>
<text text-anchor="middle" x="2079.5" y="-300.0004" font-family="Helvetica,sans-Serif" font-size="14.00" fill="#000000">prose</text>
</g>
<!-- section_7&#45;&gt;prose_14 -->
<g id="edge14" class="edge">
<title>section_7&#45;&gt;prose_14</title>
<path fill="none" stroke="#000000" stroke-dasharray="5,2" d="M2010.9069,-383.2458C2024.2575,-367.8609 2043.698,-345.4579 2058.4766,-328.4274"/>
<polygon fill="#000000" stroke="#000000" points="2061.3993,-330.3995 2065.3099,-320.5528 2056.1124,-325.8116 2061.3993,-330.3995"/>
</g>
<!-- codeblock_15 -->
<g id="node16" class="node">
<title>codeblock_15</title>
<ellipse fill="none" stroke="#000000" cx="2207.5" cy="-304.2004" rx="77.4211" ry="18"/>
<text text-anchor="middle" x="2207.5" y="-300.0004" font-family="Helvetica,sans-Serif" font-size="14.00" fill="#000000">code block 22&#45;33</text>
</g>
<!-- section_7&#45;&gt;codeblock_15 -->
<g id="edge15" class="edge">
<title>section_7&#45;&gt;codeblock_15</title>
<path fill="none" stroke="#000000" stroke-dasharray="5,2" d="M2031.8117,-385.8733C2056.8712,-375.2973 2090.8808,-360.6737 2120.5,-347.0005 2135.4189,-340.1134 2151.6102,-332.2554 2165.9343,-325.1683"/>
<polygon fill="#000000" stroke="#000000" points="2167.6479,-328.2251 2175.0454,-320.6404 2164.5326,-321.9565 2167.6479,-328.2251"/>
</g>
<!-- header_18 -->
<g id="node19" class="node">
<title>header_18</title>
<ellipse fill="none" stroke="#000000" cx="2402.5" cy="-304.2004" rx="99.6298" ry="18"/>
<text text-anchor="middle" x="2402.5" y="-300.0004" font-family="Helvetica,sans-Serif" font-size="14.00" fill="#000000">2 : Constructor module</text>
</g>
<!-- section_8&#45;&gt;header_18 -->
<g id="edge18" class="edge">
<title>section_8&#45;&gt;header_18</title>
<path fill="none" stroke="#000000" stroke-dasharray="5,2" d="M2463.7438,-383.2458C2452.2922,-368.4655 2435.822,-347.208 2422.8454,-330.4595"/>
<polygon fill="#000000" stroke="#000000" points="2425.3144,-327.9316 2416.4229,-322.1703 2419.7809,-332.2189 2425.3144,-327.9316"/>
</g>
<!-- prose_19 -->
<g id="node20" class="node">
<title>prose_19</title>
<ellipse fill="none" stroke="#000000" cx="2552.5" cy="-304.2004" rx="32.4585" ry="18"/>
<text text-anchor="middle" x="2552.5" y="-300.0004" font-family="Helvetica,sans-Serif" font-size="14.00" fill="#000000">prose</text>
</g>
<!-- section_8&#45;&gt;prose_19 -->
<g id="edge19" class="edge">
<title>section_8&#45;&gt;prose_19</title>
<path fill="none" stroke="#000000" stroke-dasharray="5,2" d="M2491.2562,-383.2458C2502.9959,-368.0937 2520.0099,-346.1344 2533.1272,-329.2042"/>
<polygon fill="#000000" stroke="#000000" points="2536.225,-330.9205 2539.583,-320.8719 2530.6916,-326.6332 2536.225,-330.9205"/>
</g>
<!-- codeblock_20 -->
<g id="node21" class="node">
<title>codeblock_20</title>
<ellipse fill="none" stroke="#000000" cx="2719.5" cy="-304.2004" rx="77.4211" ry="18"/>
<text text-anchor="middle" x="2719.5" y="-300.0004" font-family="Helvetica,sans-Serif" font-size="14.00" fill="#000000">code block 38&#45;53</text>
</g>
<!-- section_8&#45;&gt;codeblock_20 -->
<g id="edge20" class="edge">
<title>section_8&#45;&gt;codeblock_20</title>
<path fill="none" stroke="#000000" stroke-dasharray="5,2" d="M2514.7822,-386.0876C2556.7434,-369.3031 2625.0511,-341.98 2671.1002,-323.5603"/>
<polygon fill="#000000" stroke="#000000" points="2672.5864,-326.7355 2680.5713,-319.7719 2669.9866,-320.2362 2672.5864,-326.7355"/>
</g>
<!-- leaf_16 -->
<g id="node17" class="node">
<title>leaf_16</title>
<polygon fill="none" stroke="#c0c0c0" points="2078.5,-130.7002 2024.5,-130.7002 2024.5,-94.7002 2078.5,-94.7002 2078.5,-130.7002"/>
</g>
<!-- prose_14&#45;&gt;leaf_16 -->
<g id="edge16" class="edge">
<title>prose_14&#45;&gt;leaf_16</title>
<path fill="none" stroke="#000000" stroke-dasharray="5,2" d="M2076.8658,-286.1845C2071.9774,-252.7515 2061.4694,-180.8839 2055.6285,-140.9362"/>
<polygon fill="#000000" stroke="#000000" points="2059.0576,-140.1961 2054.1476,-130.8077 2052.1312,-141.2089 2059.0576,-140.1961"/>
</g>
<!-- leaf_17 -->
<g id="node18" class="node">
<title>leaf_17</title>
<polygon fill="none" stroke="#c0c0c0" points="2372,-193.8009 2097,-193.8009 2097,-31.5994 2372,-31.5994 2372,-193.8009"/>
<text text-anchor="middle" x="2234.5" y="-178.8003" font-family="Inconsolata" font-size="14.00" fill="#000000">local S, s = u.inherit(Node)</text>
<text text-anchor="middle" x="2234.5" y="-147.4003" font-family="Inconsolata" font-size="14.00" fill="#000000">function S.dotLabel(structure)</text>
<text text-anchor="middle" x="2234.5" y="-132.0002" font-family="Inconsolata" font-size="14.00" fill="#000000"> &#160;&#160;&#160;&#45;&#45; This is a shim and will break.</text>
<text text-anchor="middle" x="2234.5" y="-116.6002" font-family="Inconsolata" font-size="14.00" fill="#000000"> &#160;&#160;&#160;if structure.temp_id then </text>
<text text-anchor="middle" x="2234.5" y="-101.2002" font-family="Inconsolata" font-size="14.00" fill="#000000"> &#160;&#160;&#160;&#160;&#160;&#160;&#160;return structure.temp_id</text>
<text text-anchor="middle" x="2234.5" y="-85.8002" font-family="Inconsolata" font-size="14.00" fill="#000000"> &#160;&#160;&#160;else</text>
<text text-anchor="middle" x="2234.5" y="-70.4001" font-family="Inconsolata" font-size="14.00" fill="#000000"> &#160;&#160;&#160;&#160;&#160;&#160;&#160;return &quot;structure&quot;</text>
<text text-anchor="middle" x="2234.5" y="-55.0001" font-family="Inconsolata" font-size="14.00" fill="#000000"> &#160;&#160;&#160;end</text>
<text text-anchor="middle" x="2234.5" y="-39.6001" font-family="Inconsolata" font-size="14.00" fill="#000000">end</text>
</g>
<!-- codeblock_15&#45;&gt;leaf_17 -->
<g id="edge17" class="edge">
<title>codeblock_15&#45;&gt;leaf_17</title>
<path fill="none" stroke="#000000" stroke-dasharray="5,2" d="M2210.0401,-286.1845C2212.7409,-267.029 2217.2205,-235.2564 2221.6134,-204.0995"/>
<polygon fill="#000000" stroke="#000000" points="2225.1038,-204.4127 2223.0343,-194.022 2218.1724,-203.4354 2225.1038,-204.4127"/>
</g>
<!-- leaf_21 -->
<g id="node22" class="node">
<title>leaf_21</title>
<polygon fill="none" stroke="#c0c0c0" points="2559.5,-130.7002 2505.5,-130.7002 2505.5,-94.7002 2559.5,-94.7002 2559.5,-130.7002"/>
</g>
<!-- prose_19&#45;&gt;leaf_21 -->
<g id="edge21" class="edge">
<title>prose_19&#45;&gt;leaf_21</title>
<path fill="none" stroke="#000000" stroke-dasharray="5,2" d="M2550.6184,-286.1845C2547.1267,-252.7515 2539.621,-180.8839 2535.4489,-140.9362"/>
<polygon fill="#000000" stroke="#000000" points="2538.911,-140.39 2534.3911,-130.8077 2531.9489,-141.1172 2538.911,-140.39"/>
</g>
<!-- leaf_22 -->
<g id="node23" class="node">
<title>leaf_22</title>
<polygon fill="none" stroke="#c0c0c0" points="2901.5,-225.6009 2577.5,-225.6009 2577.5,.2005 2901.5,.2005 2901.5,-225.6009"/>
<text text-anchor="middle" x="2739.5" y="-210.2003" font-family="Inconsolata" font-size="14.00" fill="#000000">local function new(Structure, line, line_id)</text>
<text text-anchor="middle" x="2739.5" y="-194.8003" font-family="Inconsolata" font-size="14.00" fill="#000000"> &#160;&#160;&#160;local structure = setmetatable({}, S)</text>
<text text-anchor="middle" x="2739.5" y="-179.4003" font-family="Inconsolata" font-size="14.00" fill="#000000"> &#160;&#160;&#160;structure.id = &quot;structure&quot;</text>
<text text-anchor="middle" x="2739.5" y="-164.0002" font-family="Inconsolata" font-size="14.00" fill="#000000"> &#160;&#160;&#160;if line_id == &quot;hashline&quot; then</text>
<text text-anchor="middle" x="2739.5" y="-148.6002" font-family="Inconsolata" font-size="14.00" fill="#000000"> &#160;&#160;&#160;&#160;&#160;&#160;&#160;structure[1] = Hashline(line)</text>
<text text-anchor="middle" x="2739.5" y="-133.2002" font-family="Inconsolata" font-size="14.00" fill="#000000"> &#160;&#160;&#160;elseif line_id == &quot;handleline&quot; then</text>
<text text-anchor="middle" x="2739.5" y="-117.8002" font-family="Inconsolata" font-size="14.00" fill="#000000"> &#160;&#160;&#160;&#160;&#160;&#160;&#160;structure[1] = Handleline(line)</text>
<text text-anchor="middle" x="2739.5" y="-102.4001" font-family="Inconsolata" font-size="14.00" fill="#000000"> &#160;&#160;&#160;end</text>
<text text-anchor="middle" x="2739.5" y="-71.0001" font-family="Inconsolata" font-size="14.00" fill="#000000"> &#160;&#160;&#160;return structure</text>
<text text-anchor="middle" x="2739.5" y="-55.6001" font-family="Inconsolata" font-size="14.00" fill="#000000">end</text>
<text text-anchor="middle" x="2739.5" y="-8.2" font-family="Inconsolata" font-size="14.00" fill="#000000">return u.export(s, new)</text>
</g>
<!-- codeblock_20&#45;&gt;leaf_22 -->
<g id="edge22" class="edge">
<title>codeblock_20&#45;&gt;leaf_22</title>
<path fill="none" stroke="#000000" stroke-dasharray="5,2" d="M2721.3816,-286.1845C2722.6959,-273.5997 2724.579,-255.5689 2726.639,-235.8448"/>
<polygon fill="#000000" stroke="#000000" points="2730.1385,-236.0302 2727.6963,-225.7207 2723.1764,-235.303 2730.1385,-236.0302"/>
</g>
</g>
</svg>