<?xml version="1.0" encoding="UTF-8" standalone="no"?>
<!DOCTYPE svg PUBLIC "-//W3C//DTD SVG 1.1//EN"
 "http://www.w3.org/Graphics/SVG/1.1/DTD/svg11.dtd">
<!-- Generated by graphviz version 2.40.1 (20161225.0304)
 -->
<!-- Title: hierarchy Pages: 1 -->
<svg width="3078pt" height="632pt"
 viewBox="0.00 0.00 3078.00 632.00" xmlns="http://www.w3.org/2000/svg" xmlns:xlink="http://www.w3.org/1999/xlink">
<g id="graph0" class="graph" transform="scale(1 1) rotate(0) translate(4 628.0006)">
<title>hierarchy</title>
<polygon fill="#ffffff" stroke="transparent" points="-4,4 -4,-628.0006 3074,-628.0006 3074,4 -4,4"/>
<!-- doc_0 -->
<g id="node1" class="node">
<title>doc_0</title>
<ellipse fill="none" stroke="#000000" cx="1321" cy="-606.0006" rx="42.1216" ry="18"/>
<text text-anchor="middle" x="1321" y="-601.8006" font-family="Helvetica,sans-Serif" font-size="14.00" fill="#000000">doc &#45; 63</text>
</g>
<!-- section_1 -->
<g id="node2" class="node">
<title>section_1</title>
<ellipse fill="none" stroke="#000000" cx="1321" cy="-534.0006" rx="60.9826" ry="18"/>
<text text-anchor="middle" x="1321" y="-529.8006" font-family="Helvetica,sans-Serif" font-size="14.00" fill="#000000">section: 1&#45;42</text>
</g>
<!-- doc_0&#45;&gt;section_1 -->
<g id="edge1" class="edge">
<title>doc_0&#45;&gt;section_1</title>
<path fill="none" stroke="#000000" stroke-dasharray="5,2" d="M1321,-587.832C1321,-580.1316 1321,-570.975 1321,-562.4173"/>
<polygon fill="#000000" stroke="#000000" points="1324.5001,-562.4139 1321,-552.4139 1317.5001,-562.4139 1324.5001,-562.4139"/>
</g>
<!-- header_2 -->
<g id="node3" class="node">
<title>header_2</title>
<ellipse fill="none" stroke="#000000" cx="141" cy="-462.0006" rx="89.9744" ry="18"/>
<text text-anchor="middle" x="141" y="-457.8006" font-family="Helvetica,sans-Serif" font-size="14.00" fill="#000000">1 : Structure Module</text>
</g>
<!-- section_1&#45;&gt;header_2 -->
<g id="edge2" class="edge">
<title>section_1&#45;&gt;header_2</title>
<path fill="none" stroke="#000000" stroke-dasharray="5,2" d="M1261.2688,-530.356C1070.1499,-518.6945 472.4217,-482.223 237.3395,-467.879"/>
<polygon fill="#000000" stroke="#000000" points="237.2927,-464.3697 227.0981,-467.2541 236.8663,-471.3567 237.2927,-464.3697"/>
</g>
<!-- block_3 -->
<g id="node4" class="node">
<title>block_3</title>
<ellipse fill="none" stroke="#000000" cx="750" cy="-462.0006" rx="45.9804" ry="18"/>
<text text-anchor="middle" x="750" y="-457.8006" font-family="Helvetica,sans-Serif" font-size="14.00" fill="#000000">block 1&#45;6</text>
</g>
<!-- section_1&#45;&gt;block_3 -->
<g id="edge3" class="edge">
<title>section_1&#45;&gt;block_3</title>
<path fill="none" stroke="#000000" stroke-dasharray="5,2" d="M1264.9493,-526.9329C1154.9768,-513.066 912.2392,-482.4581 803.9673,-468.8056"/>
<polygon fill="#000000" stroke="#000000" points="804.2775,-465.3171 793.9181,-467.5385 803.4017,-472.2621 804.2775,-465.3171"/>
</g>
<!-- block_4 -->
<g id="node5" class="node">
<title>block_4</title>
<ellipse fill="none" stroke="#000000" cx="1088" cy="-462.0006" rx="45.9804" ry="18"/>
<text text-anchor="middle" x="1088" y="-457.8006" font-family="Helvetica,sans-Serif" font-size="14.00" fill="#000000">block 7&#45;9</text>
</g>
<!-- section_1&#45;&gt;block_4 -->
<g id="edge4" class="edge">
<title>section_1&#45;&gt;block_4</title>
<path fill="none" stroke="#000000" stroke-dasharray="5,2" d="M1278.8055,-520.962C1237.891,-508.3189 1175.9912,-489.191 1133.8729,-476.1759"/>
<polygon fill="#000000" stroke="#000000" points="1134.7332,-472.7786 1124.1456,-473.1701 1132.6665,-479.4665 1134.7332,-472.7786"/>
</g>
<!-- block_5 -->
<g id="node6" class="node">
<title>block_5</title>
<ellipse fill="none" stroke="#000000" cx="1321" cy="-462.0006" rx="55.3502" ry="18"/>
<text text-anchor="middle" x="1321" y="-457.8006" font-family="Helvetica,sans-Serif" font-size="14.00" fill="#000000">block 10&#45;11</text>
</g>
<!-- section_1&#45;&gt;block_5 -->
<g id="edge5" class="edge">
<title>section_1&#45;&gt;block_5</title>
<path fill="none" stroke="#000000" stroke-dasharray="5,2" d="M1321,-515.832C1321,-508.1316 1321,-498.975 1321,-490.4173"/>
<polygon fill="#000000" stroke="#000000" points="1324.5001,-490.4139 1321,-480.4139 1317.5001,-490.4139 1324.5001,-490.4139"/>
</g>
<!-- codeblock_6 -->
<g id="node7" class="node">
<title>codeblock_6</title>
<ellipse fill="none" stroke="#000000" cx="1580" cy="-462.0006" rx="77.4211" ry="18"/>
<text text-anchor="middle" x="1580" y="-457.8006" font-family="Helvetica,sans-Serif" font-size="14.00" fill="#000000">code block 12&#45;18</text>
</g>
<!-- section_1&#45;&gt;codeblock_6 -->
<g id="edge6" class="edge">
<title>section_1&#45;&gt;codeblock_6</title>
<path fill="none" stroke="#000000" stroke-dasharray="5,2" d="M1365.5237,-521.6234C1408.3276,-509.7242 1473.3075,-491.6603 1520.5254,-478.5341"/>
<polygon fill="#000000" stroke="#000000" points="1521.62,-481.8626 1530.3172,-475.8121 1519.7451,-475.1184 1521.62,-481.8626"/>
</g>
<!-- section_7 -->
<g id="node8" class="node">
<title>section_7</title>
<ellipse fill="none" stroke="#000000" cx="2080" cy="-462.0006" rx="65.8187" ry="18"/>
<text text-anchor="middle" x="2080" y="-457.8006" font-family="Helvetica,sans-Serif" font-size="14.00" fill="#000000">section: 20&#45;42</text>
</g>
<!-- section_1&#45;&gt;section_7 -->
<g id="edge7" class="edge">
<title>section_1&#45;&gt;section_7</title>
<path fill="none" stroke="#000000" stroke-dasharray="5,2" d="M1378.9839,-528.5002C1515.6711,-515.5338 1857.8028,-483.0786 2007.7135,-468.8578"/>
<polygon fill="#000000" stroke="#000000" points="2008.113,-472.3358 2017.7377,-467.9069 2007.4518,-465.367 2008.113,-472.3358"/>
</g>
<!-- section_8 -->
<g id="node9" class="node">
<title>section_8</title>
<ellipse fill="none" stroke="#000000" cx="2628" cy="-462.0006" rx="65.8187" ry="18"/>
<text text-anchor="middle" x="2628" y="-457.8006" font-family="Helvetica,sans-Serif" font-size="14.00" fill="#000000">section: 43&#45;63</text>
</g>
<!-- section_1&#45;&gt;section_8 -->
<g id="edge8" class="edge">
<title>section_1&#45;&gt;section_8</title>
<path fill="none" stroke="#000000" stroke-dasharray="5,2" d="M1380.986,-530.6961C1594.6215,-518.9274 2318.1493,-479.0697 2553.4163,-466.1093"/>
<polygon fill="#000000" stroke="#000000" points="2553.7896,-469.5941 2563.5819,-465.5493 2553.4045,-462.6047 2553.7896,-469.5941"/>
</g>
<!-- leaf_9 -->
<g id="node10" class="node">
<title>leaf_9</title>
<polygon fill="none" stroke="#c0c0c0" points="54,-383.2006 0,-383.2006 0,-347.2006 54,-347.2006 54,-383.2006"/>
</g>
<!-- header_2&#45;&gt;leaf_9 -->
<g id="edge9" class="edge">
<title>header_2&#45;&gt;leaf_9</title>
<path fill="none" stroke="#000000" stroke-dasharray="5,2" d="M112.2181,-444.7014C96.8745,-434.8483 78.1022,-421.7492 63,-408.0006 57.3727,-402.8777 51.8168,-396.88 46.816,-391.0233"/>
<polygon fill="#000000" stroke="#000000" points="49.4464,-388.7117 40.3862,-383.2196 44.044,-393.163 49.4464,-388.7117"/>
</g>
<!-- leaf_10 -->
<g id="node11" class="node">
<title>leaf_10</title>
<polygon fill="none" stroke="#c0c0c0" points="543.5,-400.4009 72.5,-400.4009 72.5,-330.0002 543.5,-330.0002 543.5,-400.4009"/>
<text text-anchor="middle" x="308" y="-369.1006" font-family="Inconsolata" font-size="14.00" fill="#000000"> &#160;&#160;Structure is our holding block for anything which is neither</text>
<text text-anchor="middle" x="308" y="-353.7006" font-family="Inconsolata" font-size="14.00" fill="#000000"> prose nor code. &#160;This includes taglines, lists, tables, and some</text>
<text text-anchor="middle" x="308" y="-338.3005" font-family="Inconsolata" font-size="14.00" fill="#000000"> more advanced forms such as drawers.</text>
</g>
<!-- block_3&#45;&gt;leaf_10 -->
<g id="edge10" class="edge">
<title>block_3&#45;&gt;leaf_10</title>
<path fill="none" stroke="#000000" stroke-dasharray="5,2" d="M709.6037,-453.1536C657.2276,-441.683 562.5981,-420.9587 478.3483,-402.5076"/>
<polygon fill="#000000" stroke="#000000" points="478.9104,-399.0478 468.3931,-400.3274 477.4128,-405.8858 478.9104,-399.0478"/>
</g>
<!-- leaf_11 -->
<g id="node12" class="node">
<title>leaf_11</title>
<polygon fill="none" stroke="#c0c0c0" points="1116.5,-384.5011 561.5,-384.5011 561.5,-345.9 1116.5,-345.9 1116.5,-384.5011"/>
<text text-anchor="middle" x="839" y="-369.4006" font-family="Inconsolata" font-size="14.00" fill="#000000"> For now we need them as containers for taglines, which are part of the short</text>
<text text-anchor="middle" x="839" y="-354.0006" font-family="Inconsolata" font-size="14.00" fill="#000000"> path for knitting source code.</text>
</g>
<!-- block_4&#45;&gt;leaf_11 -->
<g id="edge11" class="edge">
<title>block_4&#45;&gt;leaf_11</title>
<path fill="none" stroke="#000000" stroke-dasharray="5,2" d="M1055.1915,-449.2462C1015.3262,-433.7483 947.3159,-407.3089 898.2074,-388.2177"/>
<polygon fill="#000000" stroke="#000000" points="899.2403,-384.8642 888.6517,-384.5029 896.7039,-391.3885 899.2403,-384.8642"/>
</g>
<!-- leaf_12 -->
<g id="node13" class="node">
<title>leaf_12</title>
<polygon fill="none" stroke="#c0c0c0" points="1507.5,-383.2006 1134.5,-383.2006 1134.5,-347.2006 1507.5,-347.2006 1507.5,-383.2006"/>
<text text-anchor="middle" x="1321" y="-361.7006" font-family="Inconsolata" font-size="14.00" fill="#000000"> Note that structures do not have a =.lines= field.</text>
</g>
<!-- block_5&#45;&gt;leaf_12 -->
<g id="edge12" class="edge">
<title>block_5&#45;&gt;leaf_12</title>
<path fill="none" stroke="#000000" stroke-dasharray="5,2" d="M1321,-443.7933C1321,-429.5967 1321,-409.6298 1321,-393.3745"/>
<polygon fill="#000000" stroke="#000000" points="1324.5001,-393.3262 1321,-383.3263 1317.5001,-393.3263 1324.5001,-393.3262"/>
</g>
<!-- leaf_13 -->
<g id="node14" class="node">
<title>leaf_13</title>
<polygon fill="none" stroke="#c0c0c0" points="1850,-407.8016 1526,-407.8016 1526,-322.5995 1850,-322.5995 1850,-407.8016"/>
<text text-anchor="middle" x="1688" y="-392.8006" font-family="Inconsolata" font-size="14.00" fill="#000000">local Node = require &quot;peg/node&quot;</text>
<text text-anchor="middle" x="1688" y="-377.4006" font-family="Inconsolata" font-size="14.00" fill="#000000">local u = require &quot;../lib/util&quot;</text>
<text text-anchor="middle" x="1688" y="-346.0006" font-family="Inconsolata" font-size="14.00" fill="#000000">local Hashline = require &quot;grym/hashline&quot;</text>
<text text-anchor="middle" x="1688" y="-330.6005" font-family="Inconsolata" font-size="14.00" fill="#000000">local Handleline = require &quot;grym/handleline&quot;</text>
</g>
<!-- codeblock_6&#45;&gt;leaf_13 -->
<g id="edge13" class="edge">
<title>codeblock_6&#45;&gt;leaf_13</title>
<path fill="none" stroke="#000000" stroke-dasharray="5,2" d="M1599.558,-444.4709C1608.9324,-436.0686 1620.6835,-425.5361 1632.5291,-414.9189"/>
<polygon fill="#000000" stroke="#000000" points="1635.1924,-417.232 1640.303,-407.9513 1630.5203,-412.0194 1635.1924,-417.232"/>
</g>
<!-- header_14 -->
<g id="node15" class="node">
<title>header_14</title>
<ellipse fill="none" stroke="#000000" cx="1985" cy="-365.2006" rx="116.5368" ry="18"/>
<text text-anchor="middle" x="1985" y="-361.0006" font-family="Helvetica,sans-Serif" font-size="14.00" fill="#000000">2 : Metatable for Structures</text>
</g>
<!-- section_7&#45;&gt;header_14 -->
<g id="edge14" class="edge">
<title>section_7&#45;&gt;header_14</title>
<path fill="none" stroke="#000000" stroke-dasharray="5,2" d="M2062.5755,-444.246C2047.8039,-429.1945 2026.4402,-407.4259 2009.8705,-390.5423"/>
<polygon fill="#000000" stroke="#000000" points="2012.1381,-387.856 2002.6357,-383.1704 2007.1421,-392.7591 2012.1381,-387.856"/>
</g>
<!-- block_15 -->
<g id="node16" class="node">
<title>block_15</title>
<ellipse fill="none" stroke="#000000" cx="2176" cy="-365.2006" rx="55.6542" ry="18"/>
<text text-anchor="middle" x="2176" y="-361.0006" font-family="Helvetica,sans-Serif" font-size="14.00" fill="#000000">block 20&#45;21</text>
</g>
<!-- section_7&#45;&gt;block_15 -->
<g id="edge15" class="edge">
<title>section_7&#45;&gt;block_15</title>
<path fill="none" stroke="#000000" stroke-dasharray="5,2" d="M2097.6079,-444.246C2112.7227,-429.0052 2134.6678,-406.8772 2151.4972,-389.9076"/>
<polygon fill="#000000" stroke="#000000" points="2154.2702,-392.0819 2158.8267,-382.5169 2149.2999,-387.1527 2154.2702,-392.0819"/>
</g>
<!-- codeblock_16 -->
<g id="node17" class="node">
<title>codeblock_16</title>
<ellipse fill="none" stroke="#000000" cx="2327" cy="-365.2006" rx="77.4211" ry="18"/>
<text text-anchor="middle" x="2327" y="-361.0006" font-family="Helvetica,sans-Serif" font-size="14.00" fill="#000000">code block 22&#45;41</text>
</g>
<!-- section_7&#45;&gt;codeblock_16 -->
<g id="edge16" class="edge">
<title>section_7&#45;&gt;codeblock_16</title>
<path fill="none" stroke="#000000" stroke-dasharray="5,2" d="M2125.0284,-448.7303C2157.6546,-438.6743 2202.5951,-423.9085 2241,-408.0006 2256.2935,-401.6658 2272.6562,-393.8092 2286.9598,-386.5631"/>
<polygon fill="#000000" stroke="#000000" points="2288.7289,-389.5893 2296.03,-381.9117 2285.5347,-383.3606 2288.7289,-389.5893"/>
</g>
<!-- header_20 -->
<g id="node21" class="node">
<title>header_20</title>
<ellipse fill="none" stroke="#000000" cx="2542" cy="-365.2006" rx="99.6298" ry="18"/>
<text text-anchor="middle" x="2542" y="-361.0006" font-family="Helvetica,sans-Serif" font-size="14.00" fill="#000000">2 : Constructor module</text>
</g>
<!-- section_8&#45;&gt;header_20 -->
<g id="edge20" class="edge">
<title>section_8&#45;&gt;header_20</title>
<path fill="none" stroke="#000000" stroke-dasharray="5,2" d="M2612.2263,-444.246C2598.9746,-429.3301 2579.8622,-407.8176 2564.9208,-390.9998"/>
<polygon fill="#000000" stroke="#000000" points="2567.2233,-388.3217 2557.965,-383.1704 2561.9902,-392.9709 2567.2233,-388.3217"/>
</g>
<!-- block_21 -->
<g id="node22" class="node">
<title>block_21</title>
<ellipse fill="none" stroke="#000000" cx="2715" cy="-365.2006" rx="55.6542" ry="18"/>
<text text-anchor="middle" x="2715" y="-361.0006" font-family="Helvetica,sans-Serif" font-size="14.00" fill="#000000">block 43&#45;45</text>
</g>
<!-- section_8&#45;&gt;block_21 -->
<g id="edge21" class="edge">
<title>section_8&#45;&gt;block_21</title>
<path fill="none" stroke="#000000" stroke-dasharray="5,2" d="M2643.9571,-444.246C2657.5316,-429.1425 2677.1849,-407.2754 2692.381,-390.3675"/>
<polygon fill="#000000" stroke="#000000" points="2695.3553,-392.2941 2699.4367,-382.5169 2690.149,-387.6149 2695.3553,-392.2941"/>
</g>
<!-- codeblock_22 -->
<g id="node23" class="node">
<title>codeblock_22</title>
<ellipse fill="none" stroke="#000000" cx="2894" cy="-365.2006" rx="77.4211" ry="18"/>
<text text-anchor="middle" x="2894" y="-361.0006" font-family="Helvetica,sans-Serif" font-size="14.00" fill="#000000">code block 46&#45;62</text>
</g>
<!-- section_8&#45;&gt;codeblock_22 -->
<g id="edge22" class="edge">
<title>section_8&#45;&gt;codeblock_22</title>
<path fill="none" stroke="#000000" stroke-dasharray="5,2" d="M2668.7149,-447.7572C2699.3646,-436.9813 2742.3847,-421.7422 2780,-408.0006 2800.9895,-400.3328 2824.0814,-391.7002 2843.9612,-384.2068"/>
<polygon fill="#000000" stroke="#000000" points="2845.3195,-387.4351 2853.439,-380.6289 2842.8473,-380.8862 2845.3195,-387.4351"/>
</g>
<!-- leaf_17 -->
<g id="node18" class="node">
<title>leaf_17</title>
<polygon fill="none" stroke="#c0c0c0" points="2012,-161.2002 1958,-161.2002 1958,-125.2002 2012,-125.2002 2012,-161.2002"/>
</g>
<!-- header_14&#45;&gt;leaf_17 -->
<g id="edge17" class="edge">
<title>header_14&#45;&gt;leaf_17</title>
<path fill="none" stroke="#000000" stroke-dasharray="5,2" d="M1985,-347.0333C1985,-308.398 1985,-217.8356 1985,-171.5388"/>
<polygon fill="#000000" stroke="#000000" points="1988.5001,-171.3071 1985,-161.3071 1981.5001,-171.3072 1988.5001,-171.3071"/>
</g>
<!-- leaf_18 -->
<g id="node19" class="node">
<title>leaf_18</title>
<polygon fill="none" stroke="#c0c0c0" points="2119,-161.2002 2065,-161.2002 2065,-125.2002 2119,-125.2002 2119,-161.2002"/>
</g>
<!-- block_15&#45;&gt;leaf_18 -->
<g id="edge18" class="edge">
<title>block_15&#45;&gt;leaf_18</title>
<path fill="none" stroke="#000000" stroke-dasharray="5,2" d="M2163.1158,-347.5653C2152.3665,-332.1174 2137.3459,-308.7104 2128,-286.4005 2111.9451,-248.0751 2101.7885,-200.8722 2096.4975,-171.3991"/>
<polygon fill="#000000" stroke="#000000" points="2099.9198,-170.6491 2094.7664,-161.3921 2093.0223,-171.8423 2099.9198,-170.6491"/>
</g>
<!-- leaf_19 -->
<g id="node20" class="node">
<title>leaf_19</title>
<polygon fill="none" stroke="#c0c0c0" points="2517,-286.601 2137,-286.601 2137,.2005 2517,.2005 2517,-286.601"/>
<text text-anchor="middle" x="2327" y="-271.2005" font-family="Inconsolata" font-size="14.00" fill="#000000">local S, s = u.inherit(Node)</text>
<text text-anchor="middle" x="2327" y="-239.8005" font-family="Inconsolata" font-size="14.00" fill="#000000">function S.dotLabel(structure)</text>
<text text-anchor="middle" x="2327" y="-224.4004" font-family="Inconsolata" font-size="14.00" fill="#000000"> &#160;&#160;&#160;&#45;&#45; This is a shim and will break.</text>
<text text-anchor="middle" x="2327" y="-209.0004" font-family="Inconsolata" font-size="14.00" fill="#000000"> &#160;&#160;&#160;if structure.temp_id then </text>
<text text-anchor="middle" x="2327" y="-193.6004" font-family="Inconsolata" font-size="14.00" fill="#000000"> &#160;&#160;&#160;&#160;&#160;&#160;&#160;return structure.temp_id</text>
<text text-anchor="middle" x="2327" y="-178.2003" font-family="Inconsolata" font-size="14.00" fill="#000000"> &#160;&#160;&#160;else</text>
<text text-anchor="middle" x="2327" y="-162.8003" font-family="Inconsolata" font-size="14.00" fill="#000000"> &#160;&#160;&#160;&#160;&#160;&#160;&#160;return &quot;structure&quot;</text>
<text text-anchor="middle" x="2327" y="-147.4003" font-family="Inconsolata" font-size="14.00" fill="#000000"> &#160;&#160;&#160;end</text>
<text text-anchor="middle" x="2327" y="-132.0002" font-family="Inconsolata" font-size="14.00" fill="#000000">end</text>
<text text-anchor="middle" x="2327" y="-100.6002" font-family="Inconsolata" font-size="14.00" fill="#000000">function S.toMarkdown(structure)</text>
<text text-anchor="middle" x="2327" y="-85.2002" font-family="Inconsolata" font-size="14.00" fill="#000000"> &#160;&#160;&#160;if structure[1] and structure[1].toMarkdown then</text>
<text text-anchor="middle" x="2327" y="-69.8002" font-family="Inconsolata" font-size="14.00" fill="#000000"> &#160;&#160;&#160;&#160;&#160;&#160;&#160;return structure[1]:toMarkdown()</text>
<text text-anchor="middle" x="2327" y="-54.4001" font-family="Inconsolata" font-size="14.00" fill="#000000"> &#160;&#160;&#160;else</text>
<text text-anchor="middle" x="2327" y="-39.0001" font-family="Inconsolata" font-size="14.00" fill="#000000"> &#160;&#160;&#160;&#160;&#160;&#160;&#160;return structure.__VALUE</text>
<text text-anchor="middle" x="2327" y="-23.6001" font-family="Inconsolata" font-size="14.00" fill="#000000"> &#160;&#160;&#160;end</text>
<text text-anchor="middle" x="2327" y="-8.2" font-family="Inconsolata" font-size="14.00" fill="#000000">end</text>
</g>
<!-- codeblock_16&#45;&gt;leaf_19 -->
<g id="edge19" class="edge">
<title>codeblock_16&#45;&gt;leaf_19</title>
<path fill="none" stroke="#000000" stroke-dasharray="5,2" d="M2327,-347.0333C2327,-334.5299 2327,-316.5879 2327,-296.4677"/>
<polygon fill="#000000" stroke="#000000" points="2330.5001,-296.4298 2327,-286.4299 2323.5001,-296.4299 2330.5001,-296.4298"/>
</g>
<!-- leaf_23 -->
<g id="node24" class="node">
<title>leaf_23</title>
<polygon fill="none" stroke="#c0c0c0" points="2589,-161.2002 2535,-161.2002 2535,-125.2002 2589,-125.2002 2589,-161.2002"/>
</g>
<!-- header_20&#45;&gt;leaf_23 -->
<g id="edge23" class="edge">
<title>header_20&#45;&gt;leaf_23</title>
<path fill="none" stroke="#000000" stroke-dasharray="5,2" d="M2543.6367,-347.0333C2547.1173,-308.398 2555.2761,-217.8356 2559.447,-171.5388"/>
<polygon fill="#000000" stroke="#000000" points="2562.9573,-171.5809 2560.3688,-161.3071 2555.9855,-170.9527 2562.9573,-171.5809"/>
</g>
<!-- leaf_24 -->
<g id="node25" class="node">
<title>leaf_24</title>
<polygon fill="none" stroke="#c0c0c0" points="2728,-161.2002 2674,-161.2002 2674,-125.2002 2728,-125.2002 2728,-161.2002"/>
</g>
<!-- block_21&#45;&gt;leaf_24 -->
<g id="edge24" class="edge">
<title>block_21&#45;&gt;leaf_24</title>
<path fill="none" stroke="#000000" stroke-dasharray="5,2" d="M2713.8543,-347.0333C2711.4179,-308.398 2705.7067,-217.8356 2702.7871,-171.5388"/>
<polygon fill="#000000" stroke="#000000" points="2706.2644,-171.067 2702.1419,-161.3071 2699.2783,-171.5076 2706.2644,-171.067"/>
</g>
<!-- leaf_25 -->
<g id="node26" class="node">
<title>leaf_25</title>
<polygon fill="none" stroke="#c0c0c0" points="3070,-263.5007 2746,-263.5007 2746,-22.8998 3070,-22.8998 3070,-263.5007"/>
<text text-anchor="middle" x="2908" y="-248.4004" font-family="Inconsolata" font-size="14.00" fill="#000000">local function new(Structure, line, line_id)</text>
<text text-anchor="middle" x="2908" y="-233.0004" font-family="Inconsolata" font-size="14.00" fill="#000000"> &#160;&#160;&#160;local structure = setmetatable({}, S)</text>
<text text-anchor="middle" x="2908" y="-217.6004" font-family="Inconsolata" font-size="14.00" fill="#000000"> &#160;&#160;&#160;structure.__VALUE = line</text>
<text text-anchor="middle" x="2908" y="-202.2003" font-family="Inconsolata" font-size="14.00" fill="#000000"> &#160;&#160;&#160;structure.id = &quot;structure&quot;</text>
<text text-anchor="middle" x="2908" y="-186.8003" font-family="Inconsolata" font-size="14.00" fill="#000000"> &#160;&#160;&#160;if line_id == &quot;hashline&quot; then</text>
<text text-anchor="middle" x="2908" y="-171.4003" font-family="Inconsolata" font-size="14.00" fill="#000000"> &#160;&#160;&#160;&#160;&#160;&#160;&#160;structure[1] = Hashline(line)</text>
<text text-anchor="middle" x="2908" y="-156.0002" font-family="Inconsolata" font-size="14.00" fill="#000000"> &#160;&#160;&#160;elseif line_id == &quot;handleline&quot; then</text>
<text text-anchor="middle" x="2908" y="-140.6002" font-family="Inconsolata" font-size="14.00" fill="#000000"> &#160;&#160;&#160;&#160;&#160;&#160;&#160;structure[1] = Handleline(line)</text>
<text text-anchor="middle" x="2908" y="-125.2002" font-family="Inconsolata" font-size="14.00" fill="#000000"> &#160;&#160;&#160;end</text>
<text text-anchor="middle" x="2908" y="-93.8002" font-family="Inconsolata" font-size="14.00" fill="#000000"> &#160;&#160;&#160;return structure</text>
<text text-anchor="middle" x="2908" y="-78.4001" font-family="Inconsolata" font-size="14.00" fill="#000000">end</text>
<text text-anchor="middle" x="2908" y="-31.0001" font-family="Inconsolata" font-size="14.00" fill="#000000">return u.export(s, new)</text>
</g>
<!-- codeblock_22&#45;&gt;leaf_25 -->
<g id="edge25" class="edge">
<title>codeblock_22&#45;&gt;leaf_25</title>
<path fill="none" stroke="#000000" stroke-dasharray="5,2" d="M2895.1457,-347.0333C2896.2206,-329.9888 2897.9328,-302.838 2899.7615,-273.8401"/>
<polygon fill="#000000" stroke="#000000" points="2903.2759,-273.7202 2900.4123,-263.5197 2896.2898,-273.2796 2903.2759,-273.7202"/>
</g>
</g>
</svg>