<?xml version="1.0" encoding="UTF-8" standalone="no"?>
<!DOCTYPE svg PUBLIC "-//W3C//DTD SVG 1.1//EN"
 "http://www.w3.org/Graphics/SVG/1.1/DTD/svg11.dtd">
<!-- Generated by graphviz version 2.40.1 (20161225.0304)
 -->
<!-- Title: hierarchy Pages: 1 -->
<svg width="2240pt" height="693pt"
 viewBox="0.00 0.00 2239.50 693.20" xmlns="http://www.w3.org/2000/svg" xmlns:xlink="http://www.w3.org/1999/xlink">
<g id="graph0" class="graph" transform="scale(1 1) rotate(0) translate(4 689.2006)">
<title>hierarchy</title>
<polygon fill="#ffffff" stroke="transparent" points="-4,4 -4,-689.2006 2235.5,-689.2006 2235.5,4 -4,4"/>
<!-- doc_0 -->
<g id="node1" class="node">
<title>doc_0</title>
<ellipse fill="none" stroke="#000000" cx="1328.5" cy="-667.2006" rx="27" ry="18"/>
<text text-anchor="middle" x="1328.5" y="-663.0006" font-family="Helvetica,sans-Serif" font-size="14.00" fill="#000000">54 &#160;</text>
</g>
<!-- section_1 -->
<g id="node2" class="node">
<title>section_1</title>
<ellipse fill="none" stroke="#000000" cx="1328.5" cy="-595.2006" rx="27" ry="18"/>
<text text-anchor="middle" x="1328.5" y="-591.0006" font-family="Helvetica,sans-Serif" font-size="14.00" fill="#000000">34 &#160;</text>
</g>
<!-- doc_0&#45;&gt;section_1 -->
<g id="edge1" class="edge">
<title>doc_0&#45;&gt;section_1</title>
<path fill="none" stroke="#000000" stroke-dasharray="5,2" d="M1328.5,-649.0319C1328.5,-641.3315 1328.5,-632.1749 1328.5,-623.6172"/>
<polygon fill="#000000" stroke="#000000" points="1332.0001,-623.6138 1328.5,-613.6138 1325.0001,-623.6139 1332.0001,-623.6138"/>
</g>
<!-- header_2 -->
<g id="node3" class="node">
<title>header_2</title>
<ellipse fill="none" stroke="#000000" cx="1112.5" cy="-523.2006" rx="27" ry="18"/>
<text text-anchor="middle" x="1112.5" y="-519.0006" font-family="Helvetica,sans-Serif" font-size="14.00" fill="#000000">le &#160;</text>
</g>
<!-- section_1&#45;&gt;header_2 -->
<g id="edge2" class="edge">
<title>section_1&#45;&gt;header_2</title>
<path fill="none" stroke="#000000" stroke-dasharray="5,2" d="M1302.9913,-589.0291C1267.6788,-580.1539 1202.1807,-562.4891 1148.5,-541.2006 1146.6488,-540.4664 1144.7635,-539.6726 1142.8748,-538.8416"/>
<polygon fill="#000000" stroke="#000000" points="1144.0848,-535.5437 1133.5435,-534.4796 1141.1204,-541.8851 1144.0848,-535.5437"/>
</g>
<!-- block_3 -->
<g id="node4" class="node">
<title>block_3</title>
<ellipse fill="none" stroke="#000000" cx="1184.5" cy="-523.2006" rx="27" ry="18"/>
<text text-anchor="middle" x="1184.5" y="-519.0006" font-family="Helvetica,sans-Serif" font-size="14.00" fill="#000000">&#45;6 &#160;</text>
</g>
<!-- section_1&#45;&gt;block_3 -->
<g id="edge3" class="edge">
<title>section_1&#45;&gt;block_3</title>
<path fill="none" stroke="#000000" stroke-dasharray="5,2" d="M1306.6295,-584.2653C1282.2778,-572.0895 1242.738,-552.3195 1215.2715,-538.5863"/>
<polygon fill="#000000" stroke="#000000" points="1216.614,-535.3445 1206.1045,-534.0028 1213.4835,-541.6055 1216.614,-535.3445"/>
</g>
<!-- block_4 -->
<g id="node5" class="node">
<title>block_4</title>
<ellipse fill="none" stroke="#000000" cx="1256.5" cy="-523.2006" rx="27" ry="18"/>
<text text-anchor="middle" x="1256.5" y="-519.0006" font-family="Helvetica,sans-Serif" font-size="14.00" fill="#000000">&#45;9 &#160;</text>
</g>
<!-- section_1&#45;&gt;block_4 -->
<g id="edge4" class="edge">
<title>section_1&#45;&gt;block_4</title>
<path fill="none" stroke="#000000" stroke-dasharray="5,2" d="M1313.2307,-579.9312C1303.303,-570.0036 1290.1847,-556.8853 1279.0637,-545.7642"/>
<polygon fill="#000000" stroke="#000000" points="1281.2933,-543.0441 1271.7473,-538.4479 1276.3436,-547.9939 1281.2933,-543.0441"/>
</g>
<!-- block_5 -->
<g id="node6" class="node">
<title>block_5</title>
<ellipse fill="none" stroke="#000000" cx="1328.5" cy="-523.2006" rx="27" ry="18"/>
<text text-anchor="middle" x="1328.5" y="-519.0006" font-family="Helvetica,sans-Serif" font-size="14.00" fill="#000000">11 &#160;</text>
</g>
<!-- section_1&#45;&gt;block_5 -->
<g id="edge5" class="edge">
<title>section_1&#45;&gt;block_5</title>
<path fill="none" stroke="#000000" stroke-dasharray="5,2" d="M1328.5,-577.0319C1328.5,-569.3315 1328.5,-560.1749 1328.5,-551.6172"/>
<polygon fill="#000000" stroke="#000000" points="1332.0001,-551.6138 1328.5,-541.6138 1325.0001,-551.6139 1332.0001,-551.6138"/>
</g>
<!-- block_6 -->
<g id="node7" class="node">
<title>block_6</title>
<ellipse fill="none" stroke="#000000" cx="1480.5" cy="-523.2006" rx="27" ry="18"/>
<text text-anchor="middle" x="1480.5" y="-519.0006" font-family="Helvetica,sans-Serif" font-size="14.00" fill="#000000">34 &#160;</text>
</g>
<!-- section_1&#45;&gt;block_6 -->
<g id="edge6" class="edge">
<title>section_1&#45;&gt;block_6</title>
<path fill="none" stroke="#000000" stroke-dasharray="5,2" d="M1350.6021,-584.7311C1376.4934,-572.4668 1419.5791,-552.0578 1448.9725,-538.1346"/>
<polygon fill="#000000" stroke="#000000" points="1450.8322,-541.1266 1458.3712,-533.6826 1447.8355,-534.8004 1450.8322,-541.1266"/>
</g>
<!-- section_7 -->
<g id="node8" class="node">
<title>section_7</title>
<ellipse fill="none" stroke="#000000" cx="1660.5" cy="-523.2006" rx="27" ry="18"/>
<text text-anchor="middle" x="1660.5" y="-519.0006" font-family="Helvetica,sans-Serif" font-size="14.00" fill="#000000">34 &#160;</text>
</g>
<!-- section_1&#45;&gt;section_7 -->
<g id="edge7" class="edge">
<title>section_1&#45;&gt;section_7</title>
<path fill="none" stroke="#000000" stroke-dasharray="5,2" d="M1354.2752,-589.6108C1412.9895,-576.8775 1556.8095,-545.6877 1624.3518,-531.0399"/>
<polygon fill="#000000" stroke="#000000" points="1625.4813,-534.3764 1634.5123,-528.8364 1623.9977,-527.5354 1625.4813,-534.3764"/>
</g>
<!-- section_8 -->
<g id="node9" class="node">
<title>section_8</title>
<ellipse fill="none" stroke="#000000" cx="1925.5" cy="-523.2006" rx="27" ry="18"/>
<text text-anchor="middle" x="1925.5" y="-519.0006" font-family="Helvetica,sans-Serif" font-size="14.00" fill="#000000">54 &#160;</text>
</g>
<!-- section_1&#45;&gt;section_8 -->
<g id="edge8" class="edge">
<title>section_1&#45;&gt;section_8</title>
<path fill="none" stroke="#000000" stroke-dasharray="5,2" d="M1355.3116,-591.967C1451.3626,-580.383 1778.3959,-540.9418 1888.7721,-527.6301"/>
<polygon fill="#000000" stroke="#000000" points="1889.2533,-531.0975 1898.7622,-526.4252 1888.4151,-524.1478 1889.2533,-531.0975"/>
</g>
<!-- leaf_9 -->
<g id="node10" class="node">
<title>leaf_9</title>
<polygon fill="none" stroke="#c0c0c0" points="471,-469.3008 0,-469.3008 0,-382.9002 471,-382.9002 471,-469.3008"/>
<text text-anchor="middle" x="235.5" y="-438.0006" font-family="Inconsolata" font-size="14.00" fill="#000000"> &#160;&#160;Structure is our holding block for anything which is neither</text>
<text text-anchor="middle" x="235.5" y="-422.6005" font-family="Inconsolata" font-size="14.00" fill="#000000"> prose nor code. &#160;This includes taglines, lists, tables, and some</text>
<text text-anchor="middle" x="235.5" y="-407.2005" font-family="Inconsolata" font-size="14.00" fill="#000000"> more advanced forms such as drawers.</text>
</g>
<!-- block_3&#45;&gt;leaf_9 -->
<g id="edge9" class="edge">
<title>block_3&#45;&gt;leaf_9</title>
<path fill="none" stroke="#000000" stroke-dasharray="5,2" d="M1164.1317,-511.2177C1159.1693,-508.8106 1153.769,-506.5949 1148.5,-505.2006 863.8781,-429.8799 777.2627,-501.5141 481.287,-469.3465"/>
<polygon fill="#000000" stroke="#000000" points="481.4473,-465.8427 471.1203,-468.2099 480.6695,-472.7994 481.4473,-465.8427"/>
</g>
<!-- leaf_10 -->
<g id="node11" class="node">
<title>leaf_10</title>
<polygon fill="none" stroke="#c0c0c0" points="1044,-453.4009 489,-453.4009 489,-398.8001 1044,-398.8001 1044,-453.4009"/>
<text text-anchor="middle" x="766.5" y="-438.3005" font-family="Inconsolata" font-size="14.00" fill="#000000"> For now we need them as containers for taglines, which are part of the short</text>
<text text-anchor="middle" x="766.5" y="-422.9005" font-family="Inconsolata" font-size="14.00" fill="#000000"> path for knitting source code.</text>
</g>
<!-- block_4&#45;&gt;leaf_10 -->
<g id="edge10" class="edge">
<title>block_4&#45;&gt;leaf_10</title>
<path fill="none" stroke="#000000" stroke-dasharray="5,2" d="M1235.6161,-511.4812C1230.7664,-509.1225 1225.5443,-506.8614 1220.5,-505.2006 1173.2493,-489.6432 1064.7769,-470.5355 965.7102,-454.9976"/>
<polygon fill="#000000" stroke="#000000" points="965.9597,-451.4943 955.5394,-453.4097 964.8798,-458.4105 965.9597,-451.4943"/>
</g>
<!-- leaf_11 -->
<g id="node12" class="node">
<title>leaf_11</title>
<polygon fill="none" stroke="#c0c0c0" points="1435,-446.0026 1062,-446.0026 1062,-406.1984 1435,-406.1984 1435,-446.0026"/>
<text text-anchor="middle" x="1248.5" y="-430.6005" font-family="Inconsolata" font-size="14.00" fill="#000000"> Note that structures do not have a =.lines= field.</text>
</g>
<!-- block_5&#45;&gt;leaf_11 -->
<g id="edge11" class="edge">
<title>block_5&#45;&gt;leaf_11</title>
<path fill="none" stroke="#000000" stroke-dasharray="5,2" d="M1315.2896,-507.1665C1303.3904,-492.7238 1285.6374,-471.1761 1271.425,-453.9257"/>
<polygon fill="#000000" stroke="#000000" points="1273.8336,-451.3449 1264.7736,-445.8526 1268.4311,-455.7961 1273.8336,-451.3449"/>
</g>
<!-- codeblock_12 -->
<g id="node13" class="node">
<title>codeblock_12</title>
<ellipse fill="none" stroke="#000000" cx="1480.5" cy="-426.1005" rx="27" ry="18"/>
<text text-anchor="middle" x="1480.5" y="-421.9005" font-family="Helvetica,sans-Serif" font-size="14.00" fill="#000000">18 &#160;</text>
</g>
<!-- block_6&#45;&gt;codeblock_12 -->
<g id="edge12" class="edge">
<title>block_6&#45;&gt;codeblock_12</title>
<path fill="none" stroke="#000000" stroke-dasharray="5,2" d="M1480.5,-504.9368C1480.5,-490.6962 1480.5,-470.6675 1480.5,-454.3617"/>
<polygon fill="#000000" stroke="#000000" points="1484.0001,-454.2824 1480.5,-444.2824 1477.0001,-454.2824 1484.0001,-454.2824"/>
</g>
<!-- leaf_14 -->
<g id="node15" class="node">
<title>leaf_14</title>
<polygon fill="none" stroke="#c0c0c0" points="1579.5,-444.1005 1525.5,-444.1005 1525.5,-408.1005 1579.5,-408.1005 1579.5,-444.1005"/>
</g>
<!-- block_6&#45;&gt;leaf_14 -->
<g id="edge14" class="edge">
<title>block_6&#45;&gt;leaf_14</title>
<path fill="none" stroke="#000000" stroke-dasharray="5,2" d="M1492.7138,-506.7289C1503.7471,-491.8493 1520.1757,-469.6934 1533.021,-452.3702"/>
<polygon fill="#000000" stroke="#000000" points="1535.8548,-454.4247 1538.9996,-444.3073 1530.2319,-450.2553 1535.8548,-454.4247"/>
</g>
<!-- header_15 -->
<g id="node16" class="node">
<title>header_15</title>
<ellipse fill="none" stroke="#000000" cx="1624.5" cy="-426.1005" rx="27" ry="18"/>
<text text-anchor="middle" x="1624.5" y="-421.9005" font-family="Helvetica,sans-Serif" font-size="14.00" fill="#000000">es &#160;</text>
</g>
<!-- section_7&#45;&gt;header_15 -->
<g id="edge15" class="edge">
<title>section_7&#45;&gt;header_15</title>
<path fill="none" stroke="#000000" stroke-dasharray="5,2" d="M1653.897,-505.3909C1648.5179,-490.8822 1640.8319,-470.1514 1634.6681,-453.526"/>
<polygon fill="#000000" stroke="#000000" points="1637.8192,-451.9569 1631.0611,-443.7973 1631.2557,-454.3903 1637.8192,-451.9569"/>
</g>
<!-- block_16 -->
<g id="node17" class="node">
<title>block_16</title>
<ellipse fill="none" stroke="#000000" cx="1696.5" cy="-426.1005" rx="27" ry="18"/>
<text text-anchor="middle" x="1696.5" y="-421.9005" font-family="Helvetica,sans-Serif" font-size="14.00" fill="#000000">21 &#160;</text>
</g>
<!-- section_7&#45;&gt;block_16 -->
<g id="edge16" class="edge">
<title>section_7&#45;&gt;block_16</title>
<path fill="none" stroke="#000000" stroke-dasharray="5,2" d="M1667.103,-505.3909C1672.4821,-490.8822 1680.1681,-470.1514 1686.3319,-453.526"/>
<polygon fill="#000000" stroke="#000000" points="1689.7443,-454.3903 1689.9389,-443.7973 1683.1808,-451.9569 1689.7443,-454.3903"/>
</g>
<!-- block_17 -->
<g id="node18" class="node">
<title>block_17</title>
<ellipse fill="none" stroke="#000000" cx="1768.5" cy="-426.1005" rx="27" ry="18"/>
<text text-anchor="middle" x="1768.5" y="-421.9005" font-family="Helvetica,sans-Serif" font-size="14.00" fill="#000000">34 &#160;</text>
</g>
<!-- section_7&#45;&gt;block_17 -->
<g id="edge17" class="edge">
<title>section_7&#45;&gt;block_17</title>
<path fill="none" stroke="#000000" stroke-dasharray="5,2" d="M1679.7906,-510.5561C1694.8608,-500.2591 1715.9523,-484.9035 1732.5,-469.2006 1738.5665,-463.4437 1744.6096,-456.7056 1749.9637,-450.2903"/>
<polygon fill="#000000" stroke="#000000" points="1752.7522,-452.4084 1756.3271,-442.4349 1747.3129,-448.0022 1752.7522,-452.4084"/>
</g>
<!-- header_22 -->
<g id="node23" class="node">
<title>header_22</title>
<ellipse fill="none" stroke="#000000" cx="1889.5" cy="-426.1005" rx="27" ry="18"/>
<text text-anchor="middle" x="1889.5" y="-421.9005" font-family="Helvetica,sans-Serif" font-size="14.00" fill="#000000">le &#160;</text>
</g>
<!-- section_8&#45;&gt;header_22 -->
<g id="edge22" class="edge">
<title>section_8&#45;&gt;header_22</title>
<path fill="none" stroke="#000000" stroke-dasharray="5,2" d="M1918.897,-505.3909C1913.5179,-490.8822 1905.8319,-470.1514 1899.6681,-453.526"/>
<polygon fill="#000000" stroke="#000000" points="1902.8192,-451.9569 1896.0611,-443.7973 1896.2557,-454.3903 1902.8192,-451.9569"/>
</g>
<!-- block_23 -->
<g id="node24" class="node">
<title>block_23</title>
<ellipse fill="none" stroke="#000000" cx="1961.5" cy="-426.1005" rx="27" ry="18"/>
<text text-anchor="middle" x="1961.5" y="-421.9005" font-family="Helvetica,sans-Serif" font-size="14.00" fill="#000000">37 &#160;</text>
</g>
<!-- section_8&#45;&gt;block_23 -->
<g id="edge23" class="edge">
<title>section_8&#45;&gt;block_23</title>
<path fill="none" stroke="#000000" stroke-dasharray="5,2" d="M1932.103,-505.3909C1937.4821,-490.8822 1945.1681,-470.1514 1951.3319,-453.526"/>
<polygon fill="#000000" stroke="#000000" points="1954.7443,-454.3903 1954.9389,-443.7973 1948.1808,-451.9569 1954.7443,-454.3903"/>
</g>
<!-- block_24 -->
<g id="node25" class="node">
<title>block_24</title>
<ellipse fill="none" stroke="#000000" cx="2057.5" cy="-426.1005" rx="27" ry="18"/>
<text text-anchor="middle" x="2057.5" y="-421.9005" font-family="Helvetica,sans-Serif" font-size="14.00" fill="#000000">54 &#160;</text>
</g>
<!-- section_8&#45;&gt;block_24 -->
<g id="edge24" class="edge">
<title>section_8&#45;&gt;block_24</title>
<path fill="none" stroke="#000000" stroke-dasharray="5,2" d="M1943.854,-509.6992C1966.5117,-493.0321 2005.2107,-464.5648 2031.0672,-445.5447"/>
<polygon fill="#000000" stroke="#000000" points="2033.3205,-448.2321 2039.3018,-439.4872 2029.1726,-442.5934 2033.3205,-448.2321"/>
</g>
<!-- leaf_13 -->
<g id="node14" class="node">
<title>leaf_13</title>
<polygon fill="none" stroke="#c0c0c0" points="1642.5,-346.8015 1318.5,-346.8015 1318.5,-261.5994 1642.5,-261.5994 1642.5,-346.8015"/>
<text text-anchor="middle" x="1480.5" y="-331.8005" font-family="Inconsolata" font-size="14.00" fill="#000000">local Node = require &quot;peg/node&quot;</text>
<text text-anchor="middle" x="1480.5" y="-316.4004" font-family="Inconsolata" font-size="14.00" fill="#000000">local u = require &quot;../lib/util&quot;</text>
<text text-anchor="middle" x="1480.5" y="-285.0004" font-family="Inconsolata" font-size="14.00" fill="#000000">local Hashline = require &quot;grym/hashline&quot;</text>
<text text-anchor="middle" x="1480.5" y="-269.6004" font-family="Inconsolata" font-size="14.00" fill="#000000">local Handleline = require &quot;grym/handleline&quot;</text>
</g>
<!-- codeblock_12&#45;&gt;leaf_13 -->
<g id="edge13" class="edge">
<title>codeblock_12&#45;&gt;leaf_13</title>
<path fill="none" stroke="#000000" stroke-dasharray="5,2" d="M1480.5,-407.8508C1480.5,-394.3519 1480.5,-375.2372 1480.5,-357.0923"/>
<polygon fill="#000000" stroke="#000000" points="1484.0001,-356.8632 1480.5,-346.8632 1477.0001,-356.8633 1484.0001,-356.8632"/>
</g>
<!-- leaf_18 -->
<g id="node19" class="node">
<title>leaf_18</title>
<polygon fill="none" stroke="#c0c0c0" points="1719.5,-322.2004 1665.5,-322.2004 1665.5,-286.2004 1719.5,-286.2004 1719.5,-322.2004"/>
</g>
<!-- block_16&#45;&gt;leaf_18 -->
<g id="edge18" class="edge">
<title>block_16&#45;&gt;leaf_18</title>
<path fill="none" stroke="#000000" stroke-dasharray="5,2" d="M1695.9012,-407.8508C1695.2502,-388.0121 1694.2012,-356.044 1693.4401,-332.8509"/>
<polygon fill="#000000" stroke="#000000" points="1696.9291,-332.4546 1693.1029,-322.5748 1689.9329,-332.6843 1696.9291,-332.4546"/>
</g>
<!-- codeblock_19 -->
<g id="node20" class="node">
<title>codeblock_19</title>
<ellipse fill="none" stroke="#000000" cx="1764.5" cy="-304.2004" rx="27" ry="18"/>
<text text-anchor="middle" x="1764.5" y="-300.0004" font-family="Helvetica,sans-Serif" font-size="14.00" fill="#000000">33 &#160;</text>
</g>
<!-- block_17&#45;&gt;codeblock_19 -->
<g id="edge19" class="edge">
<title>block_17&#45;&gt;codeblock_19</title>
<path fill="none" stroke="#000000" stroke-dasharray="5,2" d="M1767.9012,-407.8508C1767.2502,-388.0121 1766.2012,-356.044 1765.4401,-332.8509"/>
<polygon fill="#000000" stroke="#000000" points="1768.9291,-332.4546 1765.1029,-322.5748 1761.9329,-332.6843 1768.9291,-332.4546"/>
</g>
<!-- leaf_21 -->
<g id="node22" class="node">
<title>leaf_21</title>
<polygon fill="none" stroke="#c0c0c0" points="1863.5,-322.2004 1809.5,-322.2004 1809.5,-286.2004 1863.5,-286.2004 1863.5,-322.2004"/>
</g>
<!-- block_17&#45;&gt;leaf_21 -->
<g id="edge21" class="edge">
<title>block_17&#45;&gt;leaf_21</title>
<path fill="none" stroke="#000000" stroke-dasharray="5,2" d="M1777.9551,-409.1508C1789.1665,-389.0527 1808.0021,-355.287 1821.2758,-331.4921"/>
<polygon fill="#000000" stroke="#000000" points="1824.4218,-333.0368 1826.2369,-322.5986 1818.3086,-329.6266 1824.4218,-333.0368"/>
</g>
<!-- leaf_20 -->
<g id="node21" class="node">
<title>leaf_20</title>
<polygon fill="none" stroke="#c0c0c0" points="1889,-193.8009 1614,-193.8009 1614,-31.5994 1889,-31.5994 1889,-193.8009"/>
<text text-anchor="middle" x="1751.5" y="-178.8003" font-family="Inconsolata" font-size="14.00" fill="#000000">local S, s = u.inherit(Node)</text>
<text text-anchor="middle" x="1751.5" y="-147.4003" font-family="Inconsolata" font-size="14.00" fill="#000000">function S.dotLabel(structure)</text>
<text text-anchor="middle" x="1751.5" y="-132.0002" font-family="Inconsolata" font-size="14.00" fill="#000000"> &#160;&#160;&#160;&#45;&#45; This is a shim and will break.</text>
<text text-anchor="middle" x="1751.5" y="-116.6002" font-family="Inconsolata" font-size="14.00" fill="#000000"> &#160;&#160;&#160;if structure.temp_id then </text>
<text text-anchor="middle" x="1751.5" y="-101.2002" font-family="Inconsolata" font-size="14.00" fill="#000000"> &#160;&#160;&#160;&#160;&#160;&#160;&#160;return structure.temp_id</text>
<text text-anchor="middle" x="1751.5" y="-85.8002" font-family="Inconsolata" font-size="14.00" fill="#000000"> &#160;&#160;&#160;else</text>
<text text-anchor="middle" x="1751.5" y="-70.4001" font-family="Inconsolata" font-size="14.00" fill="#000000"> &#160;&#160;&#160;&#160;&#160;&#160;&#160;return &quot;structure&quot;</text>
<text text-anchor="middle" x="1751.5" y="-55.0001" font-family="Inconsolata" font-size="14.00" fill="#000000"> &#160;&#160;&#160;end</text>
<text text-anchor="middle" x="1751.5" y="-39.6001" font-family="Inconsolata" font-size="14.00" fill="#000000">end</text>
</g>
<!-- codeblock_19&#45;&gt;leaf_20 -->
<g id="edge20" class="edge">
<title>codeblock_19&#45;&gt;leaf_20</title>
<path fill="none" stroke="#000000" stroke-dasharray="5,2" d="M1763.277,-286.1845C1761.9766,-267.029 1759.8197,-235.2564 1757.7046,-204.0995"/>
<polygon fill="#000000" stroke="#000000" points="1761.1899,-203.7619 1757.0205,-194.022 1754.206,-204.2361 1761.1899,-203.7619"/>
</g>
<!-- leaf_25 -->
<g id="node26" class="node">
<title>leaf_25</title>
<polygon fill="none" stroke="#c0c0c0" points="1988.5,-324.2004 1934.5,-324.2004 1934.5,-284.2004 1988.5,-284.2004 1988.5,-324.2004"/>
</g>
<!-- block_23&#45;&gt;leaf_25 -->
<g id="edge25" class="edge">
<title>block_23&#45;&gt;leaf_25</title>
<path fill="none" stroke="#000000" stroke-dasharray="5,2" d="M1961.5,-407.8508C1961.5,-388.5854 1961.5,-357.8818 1961.5,-334.8834"/>
<polygon fill="#000000" stroke="#000000" points="1965.0001,-334.6123 1961.5,-324.6123 1958.0001,-334.6124 1965.0001,-334.6123"/>
</g>
<!-- codeblock_26 -->
<g id="node27" class="node">
<title>codeblock_26</title>
<ellipse fill="none" stroke="#000000" cx="2057.5" cy="-304.2004" rx="27" ry="18"/>
<text text-anchor="middle" x="2057.5" y="-300.0004" font-family="Helvetica,sans-Serif" font-size="14.00" fill="#000000">53 &#160;</text>
</g>
<!-- block_24&#45;&gt;codeblock_26 -->
<g id="edge26" class="edge">
<title>block_24&#45;&gt;codeblock_26</title>
<path fill="none" stroke="#000000" stroke-dasharray="5,2" d="M2057.5,-407.8508C2057.5,-388.0121 2057.5,-356.044 2057.5,-332.8509"/>
<polygon fill="#000000" stroke="#000000" points="2061.0001,-332.5748 2057.5,-322.5748 2054.0001,-332.5749 2061.0001,-332.5748"/>
</g>
<!-- leaf_28 -->
<g id="node29" class="node">
<title>leaf_28</title>
<polygon fill="none" stroke="#c0c0c0" points="2156.5,-322.2004 2102.5,-322.2004 2102.5,-286.2004 2156.5,-286.2004 2156.5,-322.2004"/>
</g>
<!-- block_24&#45;&gt;leaf_28 -->
<g id="edge28" class="edge">
<title>block_24&#45;&gt;leaf_28</title>
<path fill="none" stroke="#000000" stroke-dasharray="5,2" d="M2067.5113,-409.1508C2079.3822,-389.0527 2099.3258,-355.287 2113.3802,-331.4921"/>
<polygon fill="#000000" stroke="#000000" points="2116.5611,-332.9888 2118.6332,-322.5986 2110.5339,-329.4289 2116.5611,-332.9888"/>
</g>
<!-- leaf_27 -->
<g id="node28" class="node">
<title>leaf_27</title>
<polygon fill="none" stroke="#c0c0c0" points="2231.5,-225.6009 1907.5,-225.6009 1907.5,.2005 2231.5,.2005 2231.5,-225.6009"/>
<text text-anchor="middle" x="2069.5" y="-210.2003" font-family="Inconsolata" font-size="14.00" fill="#000000">local function new(Structure, line, line_id)</text>
<text text-anchor="middle" x="2069.5" y="-194.8003" font-family="Inconsolata" font-size="14.00" fill="#000000"> &#160;&#160;&#160;local structure = setmetatable({}, S)</text>
<text text-anchor="middle" x="2069.5" y="-179.4003" font-family="Inconsolata" font-size="14.00" fill="#000000"> &#160;&#160;&#160;structure.id = &quot;structure&quot;</text>
<text text-anchor="middle" x="2069.5" y="-164.0002" font-family="Inconsolata" font-size="14.00" fill="#000000"> &#160;&#160;&#160;if line_id == &quot;hashline&quot; then</text>
<text text-anchor="middle" x="2069.5" y="-148.6002" font-family="Inconsolata" font-size="14.00" fill="#000000"> &#160;&#160;&#160;&#160;&#160;&#160;&#160;structure[1] = Hashline(line)</text>
<text text-anchor="middle" x="2069.5" y="-133.2002" font-family="Inconsolata" font-size="14.00" fill="#000000"> &#160;&#160;&#160;elseif line_id == &quot;handleline&quot; then</text>
<text text-anchor="middle" x="2069.5" y="-117.8002" font-family="Inconsolata" font-size="14.00" fill="#000000"> &#160;&#160;&#160;&#160;&#160;&#160;&#160;structure[1] = Handleline(line)</text>
<text text-anchor="middle" x="2069.5" y="-102.4001" font-family="Inconsolata" font-size="14.00" fill="#000000"> &#160;&#160;&#160;end</text>
<text text-anchor="middle" x="2069.5" y="-71.0001" font-family="Inconsolata" font-size="14.00" fill="#000000"> &#160;&#160;&#160;return structure</text>
<text text-anchor="middle" x="2069.5" y="-55.6001" font-family="Inconsolata" font-size="14.00" fill="#000000">end</text>
<text text-anchor="middle" x="2069.5" y="-8.2" font-family="Inconsolata" font-size="14.00" fill="#000000">return u.export(s, new)</text>
</g>
<!-- codeblock_26&#45;&gt;leaf_27 -->
<g id="edge27" class="edge">
<title>codeblock_26&#45;&gt;leaf_27</title>
<path fill="none" stroke="#000000" stroke-dasharray="5,2" d="M2058.6289,-286.1845C2059.4175,-273.5997 2060.5474,-255.5689 2061.7834,-235.8448"/>
<polygon fill="#000000" stroke="#000000" points="2065.2854,-235.92 2062.4178,-225.7207 2058.2991,-235.4822 2065.2854,-235.92"/>
</g>
</g>
</svg>