<?xml version="1.0" encoding="UTF-8" standalone="no"?>
<!DOCTYPE svg PUBLIC "-//W3C//DTD SVG 1.1//EN"
 "http://www.w3.org/Graphics/SVG/1.1/DTD/svg11.dtd">
<!-- Generated by graphviz version 2.40.1 (20161225.0304)
 -->
<!-- Title: hierarchy Pages: 1 -->
<svg width="2344pt" height="708pt"
 viewBox="0.00 0.00 2343.50 708.00" xmlns="http://www.w3.org/2000/svg" xmlns:xlink="http://www.w3.org/1999/xlink">
<g id="graph0" class="graph" transform="scale(1 1) rotate(0) translate(4 704.0006)">
<title>hierarchy</title>
<polygon fill="#ffffff" stroke="transparent" points="-4,4 -4,-704.0006 2339.5,-704.0006 2339.5,4 -4,4"/>
<!-- doc_0 -->
<g id="node1" class="node">
<title>doc_0</title>
<ellipse fill="none" stroke="#000000" cx="869.5" cy="-682.0006" rx="42.1216" ry="18"/>
<text text-anchor="middle" x="869.5" y="-677.8006" font-family="Helvetica,sans-Serif" font-size="14.00" fill="#000000">doc &#45; 63</text>
</g>
<!-- section_1 -->
<g id="node2" class="node">
<title>section_1</title>
<ellipse fill="none" stroke="#000000" cx="869.5" cy="-610.0006" rx="60.9826" ry="18"/>
<text text-anchor="middle" x="869.5" y="-605.8006" font-family="Helvetica,sans-Serif" font-size="14.00" fill="#000000">section: 1&#45;42</text>
</g>
<!-- doc_0&#45;&gt;section_1 -->
<g id="edge1" class="edge">
<title>doc_0&#45;&gt;section_1</title>
<path fill="none" stroke="#000000" stroke-dasharray="5,2" d="M869.5,-663.832C869.5,-656.1316 869.5,-646.975 869.5,-638.4173"/>
<polygon fill="#000000" stroke="#000000" points="873.0001,-638.4139 869.5,-628.4139 866.0001,-638.4139 873.0001,-638.4139"/>
</g>
<!-- header_2 -->
<g id="node3" class="node">
<title>header_2</title>
<ellipse fill="none" stroke="#000000" cx="565.5" cy="-538.0006" rx="89.9744" ry="18"/>
<text text-anchor="middle" x="565.5" y="-533.8006" font-family="Helvetica,sans-Serif" font-size="14.00" fill="#000000">1 : Structure Module</text>
</g>
<!-- section_1&#45;&gt;header_2 -->
<g id="edge2" class="edge">
<title>section_1&#45;&gt;header_2</title>
<path fill="none" stroke="#000000" stroke-dasharray="5,2" d="M822,-598.7506C771.4317,-586.7739 690.9552,-567.7137 633.6374,-554.1384"/>
<polygon fill="#000000" stroke="#000000" points="634.1125,-550.6542 623.575,-551.7552 632.4991,-557.4657 634.1125,-550.6542"/>
</g>
<!-- prose_3 -->
<g id="node4" class="node">
<title>prose_3</title>
<ellipse fill="none" stroke="#000000" cx="705.5" cy="-538.0006" rx="32.4585" ry="18"/>
<text text-anchor="middle" x="705.5" y="-533.8006" font-family="Helvetica,sans-Serif" font-size="14.00" fill="#000000">prose</text>
</g>
<!-- section_1&#45;&gt;prose_3 -->
<g id="edge3" class="edge">
<title>section_1&#45;&gt;prose_3</title>
<path fill="none" stroke="#000000" stroke-dasharray="5,2" d="M835.1202,-594.9071C807.3097,-582.6976 768.3158,-565.5783 740.3739,-553.3111"/>
<polygon fill="#000000" stroke="#000000" points="741.5513,-550.0056 730.9879,-549.1904 738.7374,-556.4151 741.5513,-550.0056"/>
</g>
<!-- prose_4 -->
<g id="node5" class="node">
<title>prose_4</title>
<ellipse fill="none" stroke="#000000" cx="787.5" cy="-538.0006" rx="32.4585" ry="18"/>
<text text-anchor="middle" x="787.5" y="-533.8006" font-family="Helvetica,sans-Serif" font-size="14.00" fill="#000000">prose</text>
</g>
<!-- section_1&#45;&gt;prose_4 -->
<g id="edge4" class="edge">
<title>section_1&#45;&gt;prose_4</title>
<path fill="none" stroke="#000000" stroke-dasharray="5,2" d="M850.0671,-592.9376C838.8006,-583.045 824.4965,-570.4853 812.4098,-559.8726"/>
<polygon fill="#000000" stroke="#000000" points="814.6653,-557.1953 804.8415,-553.2273 810.0466,-562.4554 814.6653,-557.1953"/>
</g>
<!-- prose_5 -->
<g id="node6" class="node">
<title>prose_5</title>
<ellipse fill="none" stroke="#000000" cx="869.5" cy="-538.0006" rx="32.4585" ry="18"/>
<text text-anchor="middle" x="869.5" y="-533.8006" font-family="Helvetica,sans-Serif" font-size="14.00" fill="#000000">prose</text>
</g>
<!-- section_1&#45;&gt;prose_5 -->
<g id="edge5" class="edge">
<title>section_1&#45;&gt;prose_5</title>
<path fill="none" stroke="#000000" stroke-dasharray="5,2" d="M869.5,-591.832C869.5,-584.1316 869.5,-574.975 869.5,-566.4173"/>
<polygon fill="#000000" stroke="#000000" points="873.0001,-566.4139 869.5,-556.4139 866.0001,-566.4139 873.0001,-566.4139"/>
</g>
<!-- codeblock_6 -->
<g id="node7" class="node">
<title>codeblock_6</title>
<ellipse fill="none" stroke="#000000" cx="1013.5" cy="-538.0006" rx="77.4211" ry="18"/>
<text text-anchor="middle" x="1013.5" y="-533.8006" font-family="Helvetica,sans-Serif" font-size="14.00" fill="#000000">code block 12&#45;18</text>
</g>
<!-- section_1&#45;&gt;codeblock_6 -->
<g id="edge6" class="edge">
<title>section_1&#45;&gt;codeblock_6</title>
<path fill="none" stroke="#000000" stroke-dasharray="5,2" d="M900.7459,-594.3777C921.5384,-583.9814 949.0922,-570.2045 971.7567,-558.8723"/>
<polygon fill="#000000" stroke="#000000" points="973.4367,-561.9454 980.8157,-554.3428 970.3062,-555.6844 973.4367,-561.9454"/>
</g>
<!-- section_7 -->
<g id="node8" class="node">
<title>section_7</title>
<ellipse fill="none" stroke="#000000" cx="1425.5" cy="-538.0006" rx="65.8187" ry="18"/>
<text text-anchor="middle" x="1425.5" y="-533.8006" font-family="Helvetica,sans-Serif" font-size="14.00" fill="#000000">section: 20&#45;42</text>
</g>
<!-- section_1&#45;&gt;section_7 -->
<g id="edge7" class="edge">
<title>section_1&#45;&gt;section_7</title>
<path fill="none" stroke="#000000" stroke-dasharray="5,2" d="M925.3571,-602.7673C1027.5007,-589.5401 1244.1394,-561.4862 1355.7719,-547.0302"/>
<polygon fill="#000000" stroke="#000000" points="1356.4456,-550.4722 1365.9133,-545.7169 1355.5466,-543.5302 1356.4456,-550.4722"/>
</g>
<!-- section_8 -->
<g id="node9" class="node">
<title>section_8</title>
<ellipse fill="none" stroke="#000000" cx="1907.5" cy="-538.0006" rx="65.8187" ry="18"/>
<text text-anchor="middle" x="1907.5" y="-533.8006" font-family="Helvetica,sans-Serif" font-size="14.00" fill="#000000">section: 43&#45;63</text>
</g>
<!-- section_1&#45;&gt;section_8 -->
<g id="edge8" class="edge">
<title>section_1&#45;&gt;section_8</title>
<path fill="none" stroke="#000000" stroke-dasharray="5,2" d="M928.658,-605.8972C1106.6465,-593.5512 1637.0021,-556.7635 1833.332,-543.1452"/>
<polygon fill="#000000" stroke="#000000" points="1833.812,-546.6204 1843.5458,-542.4368 1833.3276,-539.6372 1833.812,-546.6204"/>
</g>
<!-- raw_9 -->
<g id="node10" class="node">
<title>raw_9</title>
<ellipse fill="none" stroke="#000000" cx="689.5" cy="-441.2006" rx="27" ry="18"/>
<text text-anchor="middle" x="689.5" y="-437.0006" font-family="Helvetica,sans-Serif" font-size="14.00" fill="#000000">raw</text>
</g>
<!-- prose_3&#45;&gt;raw_9 -->
<g id="edge9" class="edge">
<title>prose_3&#45;&gt;raw_9</title>
<path fill="none" stroke="#000000" stroke-dasharray="5,2" d="M702.4905,-519.7933C700.144,-505.5967 696.8437,-485.6298 694.1568,-469.3745"/>
<polygon fill="#000000" stroke="#000000" points="697.58,-468.6216 692.496,-459.3263 690.6737,-469.7632 697.58,-468.6216"/>
</g>
<!-- raw_11 -->
<g id="node12" class="node">
<title>raw_11</title>
<ellipse fill="none" stroke="#000000" cx="766.5" cy="-441.2006" rx="27" ry="18"/>
<text text-anchor="middle" x="766.5" y="-437.0006" font-family="Helvetica,sans-Serif" font-size="14.00" fill="#000000">raw</text>
</g>
<!-- prose_4&#45;&gt;raw_11 -->
<g id="edge11" class="edge">
<title>prose_4&#45;&gt;raw_11</title>
<path fill="none" stroke="#000000" stroke-dasharray="5,2" d="M783.5501,-519.7933C780.4702,-505.5967 776.1386,-485.6298 772.6121,-469.3745"/>
<polygon fill="#000000" stroke="#000000" points="775.9728,-468.3569 770.4322,-459.3263 769.132,-469.841 775.9728,-468.3569"/>
</g>
<!-- raw_13 -->
<g id="node14" class="node">
<title>raw_13</title>
<ellipse fill="none" stroke="#000000" cx="838.5" cy="-441.2006" rx="27" ry="18"/>
<text text-anchor="middle" x="838.5" y="-437.0006" font-family="Helvetica,sans-Serif" font-size="14.00" fill="#000000">raw</text>
</g>
<!-- prose_5&#45;&gt;raw_13 -->
<g id="edge13" class="edge">
<title>prose_5&#45;&gt;raw_13</title>
<path fill="none" stroke="#000000" stroke-dasharray="5,2" d="M863.8141,-520.246C859.1821,-505.7821 852.5636,-485.1153 847.2558,-468.5413"/>
<polygon fill="#000000" stroke="#000000" points="850.533,-467.2987 844.1498,-458.8426 843.8666,-469.4337 850.533,-467.2987"/>
</g>
<!-- leaf_15 -->
<g id="node16" class="node">
<title>leaf_15</title>
<polygon fill="none" stroke="#c0c0c0" points="1207.5,-483.8016 883.5,-483.8016 883.5,-398.5995 1207.5,-398.5995 1207.5,-483.8016"/>
<text text-anchor="middle" x="1045.5" y="-468.8006" font-family="Inconsolata" font-size="14.00" fill="#000000">local Node = require &quot;peg/node&quot;</text>
<text text-anchor="middle" x="1045.5" y="-453.4006" font-family="Inconsolata" font-size="14.00" fill="#000000">local u = require &quot;../lib/util&quot;</text>
<text text-anchor="middle" x="1045.5" y="-422.0006" font-family="Inconsolata" font-size="14.00" fill="#000000">local Hashline = require &quot;grym/hashline&quot;</text>
<text text-anchor="middle" x="1045.5" y="-406.6005" font-family="Inconsolata" font-size="14.00" fill="#000000">local Handleline = require &quot;grym/handleline&quot;</text>
</g>
<!-- codeblock_6&#45;&gt;leaf_15 -->
<g id="edge15" class="edge">
<title>codeblock_6&#45;&gt;leaf_15</title>
<path fill="none" stroke="#000000" stroke-dasharray="5,2" d="M1019.519,-519.7933C1022.0446,-512.1533 1025.1226,-502.8422 1028.2646,-493.3377"/>
<polygon fill="#000000" stroke="#000000" points="1031.5941,-494.4168 1031.4098,-483.8236 1024.9478,-492.2196 1031.5941,-494.4168"/>
</g>
<!-- header_16 -->
<g id="node17" class="node">
<title>header_16</title>
<ellipse fill="none" stroke="#000000" cx="1342.5" cy="-441.2006" rx="116.5368" ry="18"/>
<text text-anchor="middle" x="1342.5" y="-437.0006" font-family="Helvetica,sans-Serif" font-size="14.00" fill="#000000">2 : Metatable for Structures</text>
</g>
<!-- section_7&#45;&gt;header_16 -->
<g id="edge16" class="edge">
<title>section_7&#45;&gt;header_16</title>
<path fill="none" stroke="#000000" stroke-dasharray="5,2" d="M1410.2765,-520.246C1397.4871,-505.3301 1379.0415,-483.8176 1364.6213,-466.9998"/>
<polygon fill="#000000" stroke="#000000" points="1367.0743,-464.4837 1357.908,-459.1704 1361.7603,-469.0402 1367.0743,-464.4837"/>
</g>
<!-- prose_17 -->
<g id="node18" class="node">
<title>prose_17</title>
<ellipse fill="none" stroke="#000000" cx="1509.5" cy="-441.2006" rx="32.4585" ry="18"/>
<text text-anchor="middle" x="1509.5" y="-437.0006" font-family="Helvetica,sans-Serif" font-size="14.00" fill="#000000">prose</text>
</g>
<!-- section_7&#45;&gt;prose_17 -->
<g id="edge17" class="edge">
<title>section_7&#45;&gt;prose_17</title>
<path fill="none" stroke="#000000" stroke-dasharray="5,2" d="M1440.9069,-520.246C1454.2575,-504.861 1473.698,-482.4581 1488.4766,-465.4275"/>
<polygon fill="#000000" stroke="#000000" points="1491.3993,-467.3997 1495.3099,-457.5529 1486.1124,-462.8118 1491.3993,-467.3997"/>
</g>
<!-- codeblock_18 -->
<g id="node19" class="node">
<title>codeblock_18</title>
<ellipse fill="none" stroke="#000000" cx="1637.5" cy="-441.2006" rx="77.4211" ry="18"/>
<text text-anchor="middle" x="1637.5" y="-437.0006" font-family="Helvetica,sans-Serif" font-size="14.00" fill="#000000">code block 22&#45;41</text>
</g>
<!-- section_7&#45;&gt;codeblock_18 -->
<g id="edge18" class="edge">
<title>section_7&#45;&gt;codeblock_18</title>
<path fill="none" stroke="#000000" stroke-dasharray="5,2" d="M1461.8117,-522.8735C1486.8712,-512.2975 1520.8808,-497.6739 1550.5,-484.0006 1565.4189,-477.1135 1581.6102,-469.2555 1595.9343,-462.1684"/>
<polygon fill="#000000" stroke="#000000" points="1597.6479,-465.2252 1605.0454,-457.6405 1594.5326,-458.9567 1597.6479,-465.2252"/>
</g>
<!-- header_22 -->
<g id="node23" class="node">
<title>header_22</title>
<ellipse fill="none" stroke="#000000" cx="1832.5" cy="-441.2006" rx="99.6298" ry="18"/>
<text text-anchor="middle" x="1832.5" y="-437.0006" font-family="Helvetica,sans-Serif" font-size="14.00" fill="#000000">2 : Constructor module</text>
</g>
<!-- section_8&#45;&gt;header_22 -->
<g id="edge22" class="edge">
<title>section_8&#45;&gt;header_22</title>
<path fill="none" stroke="#000000" stroke-dasharray="5,2" d="M1893.7438,-520.246C1882.2922,-505.4657 1865.822,-484.2082 1852.8454,-467.4597"/>
<polygon fill="#000000" stroke="#000000" points="1855.3144,-464.9317 1846.4229,-459.1704 1849.7809,-469.2191 1855.3144,-464.9317"/>
</g>
<!-- prose_23 -->
<g id="node24" class="node">
<title>prose_23</title>
<ellipse fill="none" stroke="#000000" cx="1982.5" cy="-441.2006" rx="32.4585" ry="18"/>
<text text-anchor="middle" x="1982.5" y="-437.0006" font-family="Helvetica,sans-Serif" font-size="14.00" fill="#000000">prose</text>
</g>
<!-- section_8&#45;&gt;prose_23 -->
<g id="edge23" class="edge">
<title>section_8&#45;&gt;prose_23</title>
<path fill="none" stroke="#000000" stroke-dasharray="5,2" d="M1921.2562,-520.246C1932.9959,-505.0939 1950.0099,-483.1345 1963.1272,-466.2044"/>
<polygon fill="#000000" stroke="#000000" points="1966.225,-467.9207 1969.583,-457.8721 1960.6916,-463.6334 1966.225,-467.9207"/>
</g>
<!-- codeblock_24 -->
<g id="node25" class="node">
<title>codeblock_24</title>
<ellipse fill="none" stroke="#000000" cx="2148.5" cy="-441.2006" rx="77.4211" ry="18"/>
<text text-anchor="middle" x="2148.5" y="-437.0006" font-family="Helvetica,sans-Serif" font-size="14.00" fill="#000000">code block 46&#45;62</text>
</g>
<!-- section_8&#45;&gt;codeblock_24 -->
<g id="edge24" class="edge">
<title>section_8&#45;&gt;codeblock_24</title>
<path fill="none" stroke="#000000" stroke-dasharray="5,2" d="M1944.6281,-523.0878C1986.2927,-506.3528 2054.0403,-479.1413 2099.8938,-460.7237"/>
<polygon fill="#000000" stroke="#000000" points="2101.354,-463.9091 2109.3289,-456.934 2098.7449,-457.4135 2101.354,-463.9091"/>
</g>
<!-- leaf_10 -->
<g id="node11" class="node">
<title>leaf_10</title>
<polygon fill="none" stroke="#c0c0c0" points="471,-262.4006 0,-262.4006 0,-175.9999 471,-175.9999 471,-262.4006"/>
<text text-anchor="middle" x="235.5" y="-215.1003" font-family="Inconsolata" font-size="14.00" fill="#000000"> &#160;&#160;Structure is our holding block for anything which is neither</text>
<text text-anchor="middle" x="235.5" y="-199.7003" font-family="Inconsolata" font-size="14.00" fill="#000000"> prose nor code. &#160;This includes taglines, lists, tables, and some</text>
<text text-anchor="middle" x="235.5" y="-184.3002" font-family="Inconsolata" font-size="14.00" fill="#000000"> more advanced forms such as drawers.</text>
</g>
<!-- raw_9&#45;&gt;leaf_10 -->
<g id="edge10" class="edge">
<title>raw_9&#45;&gt;leaf_10</title>
<path fill="none" stroke="#000000" stroke-dasharray="5,2" d="M665.0066,-433.5325C625.2394,-420.748 544.5288,-393.401 479.5,-362.4005 420.9605,-334.4936 357.9009,-297.2816 310.5551,-267.7859"/>
<polygon fill="#000000" stroke="#000000" points="312.236,-264.709 301.9021,-262.3722 308.5232,-270.6433 312.236,-264.709"/>
</g>
<!-- leaf_12 -->
<g id="node13" class="node">
<title>leaf_12</title>
<polygon fill="none" stroke="#c0c0c0" points="1044,-246.5007 489,-246.5007 489,-191.8998 1044,-191.8998 1044,-246.5007"/>
<text text-anchor="middle" x="766.5" y="-215.4003" font-family="Inconsolata" font-size="14.00" fill="#000000"> For now we need them as containers for taglines, which are part of the short</text>
<text text-anchor="middle" x="766.5" y="-200.0002" font-family="Inconsolata" font-size="14.00" fill="#000000"> path for knitting source code.</text>
</g>
<!-- raw_11&#45;&gt;leaf_12 -->
<g id="edge12" class="edge">
<title>raw_11&#45;&gt;leaf_12</title>
<path fill="none" stroke="#000000" stroke-dasharray="5,2" d="M766.5,-423.0333C766.5,-386.8548 766.5,-305.1433 766.5,-256.883"/>
<polygon fill="#000000" stroke="#000000" points="770.0001,-256.8311 766.5,-246.8312 763.0001,-256.8312 770.0001,-256.8311"/>
</g>
<!-- leaf_14 -->
<g id="node15" class="node">
<title>leaf_14</title>
<polygon fill="none" stroke="#c0c0c0" points="1435,-239.1023 1062,-239.1023 1062,-199.2982 1435,-199.2982 1435,-239.1023"/>
<text text-anchor="middle" x="1248.5" y="-207.7003" font-family="Inconsolata" font-size="14.00" fill="#000000"> Note that structures do not have a =.lines= field.</text>
</g>
<!-- raw_13&#45;&gt;leaf_14 -->
<g id="edge14" class="edge">
<title>raw_13&#45;&gt;leaf_14</title>
<path fill="none" stroke="#000000" stroke-dasharray="5,2" d="M848.7823,-424.1286C855.0933,-415.1092 863.9787,-404.6434 874.5,-398.4005 943.9134,-357.2138 978.647,-394.9628 1052.5,-362.4005 1118.6418,-333.2381 1184.1417,-278.8669 1220.1663,-246.1602"/>
<polygon fill="#000000" stroke="#000000" points="1222.8227,-248.4728 1227.8217,-239.1315 1218.0885,-243.3165 1222.8227,-248.4728"/>
</g>
<!-- raw_19 -->
<g id="node20" class="node">
<title>raw_19</title>
<ellipse fill="none" stroke="#000000" cx="1495.5" cy="-219.2002" rx="27" ry="18"/>
<text text-anchor="middle" x="1495.5" y="-215.0002" font-family="Helvetica,sans-Serif" font-size="14.00" fill="#000000">raw</text>
</g>
<!-- prose_17&#45;&gt;raw_19 -->
<g id="edge19" class="edge">
<title>prose_17&#45;&gt;raw_19</title>
<path fill="none" stroke="#000000" stroke-dasharray="5,2" d="M1508.3543,-423.0333C1505.9179,-384.398 1500.2067,-293.8356 1497.2871,-247.5388"/>
<polygon fill="#000000" stroke="#000000" points="1500.7644,-247.067 1496.6419,-237.3071 1493.7783,-247.5076 1500.7644,-247.067"/>
</g>
<!-- leaf_21 -->
<g id="node22" class="node">
<title>leaf_21</title>
<polygon fill="none" stroke="#c0c0c0" points="1920.5,-362.601 1540.5,-362.601 1540.5,-75.7995 1920.5,-75.7995 1920.5,-362.601"/>
<text text-anchor="middle" x="1730.5" y="-347.2005" font-family="Inconsolata" font-size="14.00" fill="#000000">local S, s = u.inherit(Node)</text>
<text text-anchor="middle" x="1730.5" y="-315.8005" font-family="Inconsolata" font-size="14.00" fill="#000000">function S.dotLabel(structure)</text>
<text text-anchor="middle" x="1730.5" y="-300.4004" font-family="Inconsolata" font-size="14.00" fill="#000000"> &#160;&#160;&#160;&#45;&#45; This is a shim and will break.</text>
<text text-anchor="middle" x="1730.5" y="-285.0004" font-family="Inconsolata" font-size="14.00" fill="#000000"> &#160;&#160;&#160;if structure.temp_id then </text>
<text text-anchor="middle" x="1730.5" y="-269.6004" font-family="Inconsolata" font-size="14.00" fill="#000000"> &#160;&#160;&#160;&#160;&#160;&#160;&#160;return structure.temp_id</text>
<text text-anchor="middle" x="1730.5" y="-254.2003" font-family="Inconsolata" font-size="14.00" fill="#000000"> &#160;&#160;&#160;else</text>
<text text-anchor="middle" x="1730.5" y="-238.8003" font-family="Inconsolata" font-size="14.00" fill="#000000"> &#160;&#160;&#160;&#160;&#160;&#160;&#160;return &quot;structure&quot;</text>
<text text-anchor="middle" x="1730.5" y="-223.4003" font-family="Inconsolata" font-size="14.00" fill="#000000"> &#160;&#160;&#160;end</text>
<text text-anchor="middle" x="1730.5" y="-208.0002" font-family="Inconsolata" font-size="14.00" fill="#000000">end</text>
<text text-anchor="middle" x="1730.5" y="-176.6002" font-family="Inconsolata" font-size="14.00" fill="#000000">function S.toMarkdown(structure)</text>
<text text-anchor="middle" x="1730.5" y="-161.2002" font-family="Inconsolata" font-size="14.00" fill="#000000"> &#160;&#160;&#160;if structure[1] and structure[1].toMarkdown then</text>
<text text-anchor="middle" x="1730.5" y="-145.8002" font-family="Inconsolata" font-size="14.00" fill="#000000"> &#160;&#160;&#160;&#160;&#160;&#160;&#160;return structure[1]:toMarkdown()</text>
<text text-anchor="middle" x="1730.5" y="-130.4001" font-family="Inconsolata" font-size="14.00" fill="#000000"> &#160;&#160;&#160;else</text>
<text text-anchor="middle" x="1730.5" y="-115.0001" font-family="Inconsolata" font-size="14.00" fill="#000000"> &#160;&#160;&#160;&#160;&#160;&#160;&#160;return structure.__VALUE</text>
<text text-anchor="middle" x="1730.5" y="-99.6001" font-family="Inconsolata" font-size="14.00" fill="#000000"> &#160;&#160;&#160;end</text>
<text text-anchor="middle" x="1730.5" y="-84.2" font-family="Inconsolata" font-size="14.00" fill="#000000">end</text>
</g>
<!-- codeblock_18&#45;&gt;leaf_21 -->
<g id="edge21" class="edge">
<title>codeblock_18&#45;&gt;leaf_21</title>
<path fill="none" stroke="#000000" stroke-dasharray="5,2" d="M1645.1106,-423.0333C1650.3961,-410.4162 1658.0016,-392.2612 1666.5236,-371.9184"/>
<polygon fill="#000000" stroke="#000000" points="1669.8628,-373.0056 1670.4985,-362.4299 1663.4064,-370.3009 1669.8628,-373.0056"/>
</g>
<!-- leaf_20 -->
<g id="node21" class="node">
<title>leaf_20</title>
<polygon fill="none" stroke="#c0c0c0" points="1522.5,-38 1468.5,-38 1468.5,-2 1522.5,-2 1522.5,-38"/>
</g>
<!-- raw_19&#45;&gt;leaf_20 -->
<g id="edge20" class="edge">
<title>raw_19&#45;&gt;leaf_20</title>
<path fill="none" stroke="#000000" stroke-dasharray="5,2" d="M1495.5,-201.1712C1495.5,-166.3709 1495.5,-89.7139 1495.5,-48.1403"/>
<polygon fill="#000000" stroke="#000000" points="1499.0001,-48.1318 1495.5,-38.1318 1492.0001,-48.1318 1499.0001,-48.1318"/>
</g>
<!-- raw_25 -->
<g id="node26" class="node">
<title>raw_25</title>
<ellipse fill="none" stroke="#000000" cx="1966.5" cy="-219.2002" rx="27" ry="18"/>
<text text-anchor="middle" x="1966.5" y="-215.0002" font-family="Helvetica,sans-Serif" font-size="14.00" fill="#000000">raw</text>
</g>
<!-- prose_23&#45;&gt;raw_25 -->
<g id="edge25" class="edge">
<title>prose_23&#45;&gt;raw_25</title>
<path fill="none" stroke="#000000" stroke-dasharray="5,2" d="M1981.1907,-423.0333C1978.4061,-384.398 1971.8791,-293.8356 1968.5424,-247.5388"/>
<polygon fill="#000000" stroke="#000000" points="1972.0149,-247.0296 1967.805,-237.3071 1965.033,-247.5329 1972.0149,-247.0296"/>
</g>
<!-- leaf_27 -->
<g id="node28" class="node">
<title>leaf_27</title>
<polygon fill="none" stroke="#c0c0c0" points="2335.5,-339.5007 2011.5,-339.5007 2011.5,-98.8998 2335.5,-98.8998 2335.5,-339.5007"/>
<text text-anchor="middle" x="2173.5" y="-324.4004" font-family="Inconsolata" font-size="14.00" fill="#000000">local function new(Structure, line, line_id)</text>
<text text-anchor="middle" x="2173.5" y="-309.0004" font-family="Inconsolata" font-size="14.00" fill="#000000"> &#160;&#160;&#160;local structure = setmetatable({}, S)</text>
<text text-anchor="middle" x="2173.5" y="-293.6004" font-family="Inconsolata" font-size="14.00" fill="#000000"> &#160;&#160;&#160;structure.__VALUE = line</text>
<text text-anchor="middle" x="2173.5" y="-278.2003" font-family="Inconsolata" font-size="14.00" fill="#000000"> &#160;&#160;&#160;structure.id = &quot;structure&quot;</text>
<text text-anchor="middle" x="2173.5" y="-262.8003" font-family="Inconsolata" font-size="14.00" fill="#000000"> &#160;&#160;&#160;if line_id == &quot;hashline&quot; then</text>
<text text-anchor="middle" x="2173.5" y="-247.4003" font-family="Inconsolata" font-size="14.00" fill="#000000"> &#160;&#160;&#160;&#160;&#160;&#160;&#160;structure[1] = Hashline(line)</text>
<text text-anchor="middle" x="2173.5" y="-232.0002" font-family="Inconsolata" font-size="14.00" fill="#000000"> &#160;&#160;&#160;elseif line_id == &quot;handleline&quot; then</text>
<text text-anchor="middle" x="2173.5" y="-216.6002" font-family="Inconsolata" font-size="14.00" fill="#000000"> &#160;&#160;&#160;&#160;&#160;&#160;&#160;structure[1] = Handleline(line)</text>
<text text-anchor="middle" x="2173.5" y="-201.2002" font-family="Inconsolata" font-size="14.00" fill="#000000"> &#160;&#160;&#160;end</text>
<text text-anchor="middle" x="2173.5" y="-169.8002" font-family="Inconsolata" font-size="14.00" fill="#000000"> &#160;&#160;&#160;return structure</text>
<text text-anchor="middle" x="2173.5" y="-154.4001" font-family="Inconsolata" font-size="14.00" fill="#000000">end</text>
<text text-anchor="middle" x="2173.5" y="-107.0001" font-family="Inconsolata" font-size="14.00" fill="#000000">return u.export(s, new)</text>
</g>
<!-- codeblock_24&#45;&gt;leaf_27 -->
<g id="edge27" class="edge">
<title>codeblock_24&#45;&gt;leaf_27</title>
<path fill="none" stroke="#000000" stroke-dasharray="5,2" d="M2150.5459,-423.0333C2152.4737,-405.9144 2155.5495,-378.6007 2158.8311,-349.4601"/>
<polygon fill="#000000" stroke="#000000" points="2162.3094,-349.8486 2159.9505,-339.5197 2155.3534,-349.0652 2162.3094,-349.8486"/>
</g>
<!-- leaf_26 -->
<g id="node27" class="node">
<title>leaf_26</title>
<polygon fill="none" stroke="#c0c0c0" points="1993.5,-40 1939.5,-40 1939.5,0 1993.5,0 1993.5,-40"/>
</g>
<!-- raw_25&#45;&gt;leaf_26 -->
<g id="edge26" class="edge">
<title>raw_25&#45;&gt;leaf_26</title>
<path fill="none" stroke="#000000" stroke-dasharray="5,2" d="M1966.5,-201.1712C1966.5,-166.9876 1966.5,-92.4177 1966.5,-50.3832"/>
<polygon fill="#000000" stroke="#000000" points="1970.0001,-50.1937 1966.5,-40.1937 1963.0001,-50.1938 1970.0001,-50.1937"/>
</g>
</g>
</svg>