<?xml version="1.0" encoding="UTF-8" standalone="no"?>
<!DOCTYPE svg PUBLIC "-//W3C//DTD SVG 1.1//EN"
 "http://www.w3.org/Graphics/SVG/1.1/DTD/svg11.dtd">
<!-- Generated by graphviz version 2.40.1 (20161225.0304)
 -->
<!-- Title: hierarchy Pages: 1 -->
<svg width="3061pt" height="770pt"
 viewBox="0.00 0.00 3061.00 770.20" xmlns="http://www.w3.org/2000/svg" xmlns:xlink="http://www.w3.org/1999/xlink">
<g id="graph0" class="graph" transform="scale(1 1) rotate(0) translate(4 766.2007)">
<title>hierarchy</title>
<polygon fill="#ffffff" stroke="transparent" points="-4,4 -4,-766.2007 3057,-766.2007 3057,4 -4,4"/>
<!-- doc_0 -->
<g id="node1" class="node">
<title>doc_0</title>
<ellipse fill="none" stroke="#000000" cx="1272.5" cy="-744.2007" rx="42.1216" ry="18"/>
<text text-anchor="middle" x="1272.5" y="-740.0007" font-family="Helvetica,sans-Serif" font-size="14.00" fill="#000000">doc &#45; 67</text>
</g>
<!-- section_1 -->
<g id="node2" class="node">
<title>section_1</title>
<ellipse fill="none" stroke="#000000" cx="1272.5" cy="-672.2007" rx="60.9826" ry="18"/>
<text text-anchor="middle" x="1272.5" y="-668.0007" font-family="Helvetica,sans-Serif" font-size="14.00" fill="#000000">section: 1&#45;46</text>
</g>
<!-- doc_0&#45;&gt;section_1 -->
<g id="edge1" class="edge">
<title>doc_0&#45;&gt;section_1</title>
<path fill="none" stroke="#000000" stroke-dasharray="5,2" d="M1272.5,-726.0321C1272.5,-718.3317 1272.5,-709.1751 1272.5,-700.6174"/>
<polygon fill="#000000" stroke="#000000" points="1276.0001,-700.6139 1272.5,-690.614 1269.0001,-700.614 1276.0001,-700.6139"/>
</g>
<!-- header_2 -->
<g id="node3" class="node">
<title>header_2</title>
<ellipse fill="none" stroke="#000000" cx="937.5" cy="-600.2007" rx="89.9744" ry="18"/>
<text text-anchor="middle" x="937.5" y="-596.0007" font-family="Helvetica,sans-Serif" font-size="14.00" fill="#000000">1 : Structure Module</text>
</g>
<!-- section_1&#45;&gt;header_2 -->
<g id="edge2" class="edge">
<title>section_1&#45;&gt;header_2</title>
<path fill="none" stroke="#000000" stroke-dasharray="5,2" d="M1223.0696,-661.5769C1166.4903,-649.4165 1073.3416,-629.3965 1008.8889,-615.544"/>
<polygon fill="#000000" stroke="#000000" points="1009.3132,-612.0554 998.801,-613.3759 1007.8423,-618.8991 1009.3132,-612.0554"/>
</g>
<!-- prose_3 -->
<g id="node4" class="node">
<title>prose_3</title>
<ellipse fill="none" stroke="#000000" cx="1095.5" cy="-600.2007" rx="32.4585" ry="18"/>
<text text-anchor="middle" x="1095.5" y="-596.0007" font-family="Helvetica,sans-Serif" font-size="14.00" fill="#000000">prose</text>
</g>
<!-- section_1&#45;&gt;prose_3 -->
<g id="edge3" class="edge">
<title>section_1&#45;&gt;prose_3</title>
<path fill="none" stroke="#000000" stroke-dasharray="5,2" d="M1236.6814,-657.6304C1205.9636,-645.1351 1161.9326,-627.2242 1131.2381,-614.7383"/>
<polygon fill="#000000" stroke="#000000" points="1132.3565,-611.4148 1121.7748,-610.8888 1129.7189,-617.8988 1132.3565,-611.4148"/>
</g>
<!-- prose_4 -->
<g id="node5" class="node">
<title>prose_4</title>
<ellipse fill="none" stroke="#000000" cx="1186.5" cy="-600.2007" rx="32.4585" ry="18"/>
<text text-anchor="middle" x="1186.5" y="-596.0007" font-family="Helvetica,sans-Serif" font-size="14.00" fill="#000000">prose</text>
</g>
<!-- section_1&#45;&gt;prose_4 -->
<g id="edge4" class="edge">
<title>section_1&#45;&gt;prose_4</title>
<path fill="none" stroke="#000000" stroke-dasharray="5,2" d="M1252.1192,-655.1377C1240.2215,-645.1769 1225.0941,-632.5121 1212.363,-621.8534"/>
<polygon fill="#000000" stroke="#000000" points="1214.3153,-618.9232 1204.4009,-615.1875 1209.8217,-624.2905 1214.3153,-618.9232"/>
</g>
<!-- prose_5 -->
<g id="node6" class="node">
<title>prose_5</title>
<ellipse fill="none" stroke="#000000" cx="1272.5" cy="-600.2007" rx="32.4585" ry="18"/>
<text text-anchor="middle" x="1272.5" y="-596.0007" font-family="Helvetica,sans-Serif" font-size="14.00" fill="#000000">prose</text>
</g>
<!-- section_1&#45;&gt;prose_5 -->
<g id="edge5" class="edge">
<title>section_1&#45;&gt;prose_5</title>
<path fill="none" stroke="#000000" stroke-dasharray="5,2" d="M1272.5,-654.0321C1272.5,-646.3317 1272.5,-637.1751 1272.5,-628.6174"/>
<polygon fill="#000000" stroke="#000000" points="1276.0001,-628.6139 1272.5,-618.614 1269.0001,-628.614 1276.0001,-628.6139"/>
</g>
<!-- codeblock_6 -->
<g id="node7" class="node">
<title>codeblock_6</title>
<ellipse fill="none" stroke="#000000" cx="1478.5" cy="-600.2007" rx="77.4211" ry="18"/>
<text text-anchor="middle" x="1478.5" y="-596.0007" font-family="Helvetica,sans-Serif" font-size="14.00" fill="#000000">code block 12&#45;18</text>
</g>
<!-- section_1&#45;&gt;codeblock_6 -->
<g id="edge6" class="edge">
<title>section_1&#45;&gt;codeblock_6</title>
<path fill="none" stroke="#000000" stroke-dasharray="5,2" d="M1312.2189,-658.3184C1344.4933,-647.038 1390.3017,-631.0273 1425.6686,-618.6661"/>
<polygon fill="#000000" stroke="#000000" points="1427.0618,-621.8868 1435.347,-615.2833 1424.7522,-615.2788 1427.0618,-621.8868"/>
</g>
<!-- section_7 -->
<g id="node8" class="node">
<title>section_7</title>
<ellipse fill="none" stroke="#000000" cx="1935.5" cy="-600.2007" rx="65.8187" ry="18"/>
<text text-anchor="middle" x="1935.5" y="-596.0007" font-family="Helvetica,sans-Serif" font-size="14.00" fill="#000000">section: 20&#45;46</text>
</g>
<!-- section_1&#45;&gt;section_7 -->
<g id="edge7" class="edge">
<title>section_1&#45;&gt;section_7</title>
<path fill="none" stroke="#000000" stroke-dasharray="5,2" d="M1329.6008,-665.9997C1450.3675,-652.8848 1731.433,-622.3618 1863.944,-607.9715"/>
<polygon fill="#000000" stroke="#000000" points="1864.429,-611.4395 1873.9927,-606.8802 1863.6732,-604.4804 1864.429,-611.4395"/>
</g>
<!-- section_8 -->
<g id="node9" class="node">
<title>section_8</title>
<ellipse fill="none" stroke="#000000" cx="2578.5" cy="-600.2007" rx="65.8187" ry="18"/>
<text text-anchor="middle" x="2578.5" y="-596.0007" font-family="Helvetica,sans-Serif" font-size="14.00" fill="#000000">section: 47&#45;67</text>
</g>
<!-- section_1&#45;&gt;section_8 -->
<g id="edge8" class="edge">
<title>section_1&#45;&gt;section_8</title>
<path fill="none" stroke="#000000" stroke-dasharray="5,2" d="M1332.4401,-668.8962C1545.7889,-657.1343 2268.0517,-617.3158 2503.5657,-604.3319"/>
<polygon fill="#000000" stroke="#000000" points="2503.9512,-607.816 2513.7433,-603.7708 2503.5658,-600.8266 2503.9512,-607.816"/>
</g>
<!-- leaf_9 -->
<g id="node10" class="node">
<title>leaf_9</title>
<polygon fill="none" stroke="#c0c0c0" points="1007,-521.4007 858,-521.4007 858,-485.4007 1007,-485.4007 1007,-521.4007"/>
<text text-anchor="middle" x="932.5" y="-499.9007" font-family="Inconsolata" font-size="14.00" fill="#000000"> * Structure Module</text>
</g>
<!-- header_2&#45;&gt;leaf_9 -->
<g id="edge9" class="edge">
<title>header_2&#45;&gt;leaf_9</title>
<path fill="none" stroke="#000000" stroke-dasharray="5,2" d="M936.5595,-581.9934C935.8262,-567.7968 934.7949,-547.8299 933.9553,-531.5745"/>
<polygon fill="#000000" stroke="#000000" points="937.4475,-531.3325 933.4362,-521.5264 930.4568,-531.6936 937.4475,-531.3325"/>
</g>
<!-- raw_10 -->
<g id="node11" class="node">
<title>raw_10</title>
<ellipse fill="none" stroke="#000000" cx="1052.5" cy="-503.4007" rx="27" ry="18"/>
<text text-anchor="middle" x="1052.5" y="-499.2007" font-family="Helvetica,sans-Serif" font-size="14.00" fill="#000000">raw</text>
</g>
<!-- prose_3&#45;&gt;raw_10 -->
<g id="edge10" class="edge">
<title>prose_3&#45;&gt;raw_10</title>
<path fill="none" stroke="#000000" stroke-dasharray="5,2" d="M1087.6131,-582.4461C1081.0869,-567.7545 1071.7178,-546.6632 1064.2988,-529.9617"/>
<polygon fill="#000000" stroke="#000000" points="1067.4505,-528.435 1060.1922,-520.717 1061.0533,-531.2768 1067.4505,-528.435"/>
</g>
<!-- raw_12 -->
<g id="node13" class="node">
<title>raw_12</title>
<ellipse fill="none" stroke="#000000" cx="1124.5" cy="-503.4007" rx="27" ry="18"/>
<text text-anchor="middle" x="1124.5" y="-499.2007" font-family="Helvetica,sans-Serif" font-size="14.00" fill="#000000">raw</text>
</g>
<!-- prose_4&#45;&gt;raw_12 -->
<g id="edge12" class="edge">
<title>prose_4&#45;&gt;raw_12</title>
<path fill="none" stroke="#000000" stroke-dasharray="5,2" d="M1175.4156,-582.8948C1165.835,-567.9366 1151.8532,-546.107 1140.9643,-529.1063"/>
<polygon fill="#000000" stroke="#000000" points="1143.6216,-526.7657 1135.2808,-520.2326 1137.727,-530.5411 1143.6216,-526.7657"/>
</g>
<!-- raw_14 -->
<g id="node15" class="node">
<title>raw_14</title>
<ellipse fill="none" stroke="#000000" cx="1196.5" cy="-503.4007" rx="27" ry="18"/>
<text text-anchor="middle" x="1196.5" y="-499.2007" font-family="Helvetica,sans-Serif" font-size="14.00" fill="#000000">raw</text>
</g>
<!-- prose_5&#45;&gt;raw_14 -->
<g id="edge14" class="edge">
<title>prose_5&#45;&gt;raw_14</title>
<path fill="none" stroke="#000000" stroke-dasharray="5,2" d="M1259.2618,-583.3394C1247.1279,-567.8847 1229.028,-544.831 1215.379,-527.4466"/>
<polygon fill="#000000" stroke="#000000" points="1218.0101,-525.13 1209.0818,-519.4259 1212.5043,-529.4528 1218.0101,-525.13"/>
</g>
<!-- literal_15 -->
<g id="node16" class="node">
<title>literal_15</title>
<ellipse fill="none" stroke="#000000" cx="1272.5" cy="-503.4007" rx="31.481" ry="18"/>
<text text-anchor="middle" x="1272.5" y="-499.2007" font-family="Helvetica,sans-Serif" font-size="14.00" fill="#000000">literal</text>
</g>
<!-- prose_5&#45;&gt;literal_15 -->
<g id="edge15" class="edge">
<title>prose_5&#45;&gt;literal_15</title>
<path fill="none" stroke="#000000" stroke-dasharray="5,2" d="M1272.5,-581.9934C1272.5,-567.7968 1272.5,-547.8299 1272.5,-531.5745"/>
<polygon fill="#000000" stroke="#000000" points="1276.0001,-531.5263 1272.5,-521.5264 1269.0001,-531.5264 1276.0001,-531.5263"/>
</g>
<!-- raw_16 -->
<g id="node17" class="node">
<title>raw_16</title>
<ellipse fill="none" stroke="#000000" cx="1348.5" cy="-503.4007" rx="27" ry="18"/>
<text text-anchor="middle" x="1348.5" y="-499.2007" font-family="Helvetica,sans-Serif" font-size="14.00" fill="#000000">raw</text>
</g>
<!-- prose_5&#45;&gt;raw_16 -->
<g id="edge16" class="edge">
<title>prose_5&#45;&gt;raw_16</title>
<path fill="none" stroke="#000000" stroke-dasharray="5,2" d="M1285.7382,-583.3394C1297.8721,-567.8847 1315.972,-544.831 1329.621,-527.4466"/>
<polygon fill="#000000" stroke="#000000" points="1332.4957,-529.4528 1335.9182,-519.4259 1326.9899,-525.13 1332.4957,-529.4528"/>
</g>
<!-- leaf_20 -->
<g id="node21" class="node">
<title>leaf_20</title>
<polygon fill="none" stroke="#c0c0c0" points="1717.5,-546.0017 1393.5,-546.0017 1393.5,-460.7996 1717.5,-460.7996 1717.5,-546.0017"/>
<text text-anchor="middle" x="1555.5" y="-531.0007" font-family="Inconsolata" font-size="14.00" fill="#000000">local Node = require &quot;node/node&quot;</text>
<text text-anchor="middle" x="1555.5" y="-515.6007" font-family="Inconsolata" font-size="14.00" fill="#000000">local u = require &quot;../lib/util&quot;</text>
<text text-anchor="middle" x="1555.5" y="-484.2007" font-family="Inconsolata" font-size="14.00" fill="#000000">local Hashline = require &quot;grym/hashline&quot;</text>
<text text-anchor="middle" x="1555.5" y="-468.8006" font-family="Inconsolata" font-size="14.00" fill="#000000">local Handleline = require &quot;grym/handleline&quot;</text>
</g>
<!-- codeblock_6&#45;&gt;leaf_20 -->
<g id="edge20" class="edge">
<title>codeblock_6&#45;&gt;leaf_20</title>
<path fill="none" stroke="#000000" stroke-dasharray="5,2" d="M1492.623,-582.4461C1498.995,-574.4355 1506.8805,-564.5223 1514.8882,-554.4555"/>
<polygon fill="#000000" stroke="#000000" points="1517.8237,-556.3875 1521.3098,-546.3826 1512.3454,-552.0298 1517.8237,-556.3875"/>
</g>
<!-- header_21 -->
<g id="node22" class="node">
<title>header_21</title>
<ellipse fill="none" stroke="#000000" cx="1852.5" cy="-503.4007" rx="116.5368" ry="18"/>
<text text-anchor="middle" x="1852.5" y="-499.2007" font-family="Helvetica,sans-Serif" font-size="14.00" fill="#000000">2 : Metatable for Structures</text>
</g>
<!-- section_7&#45;&gt;header_21 -->
<g id="edge21" class="edge">
<title>section_7&#45;&gt;header_21</title>
<path fill="none" stroke="#000000" stroke-dasharray="5,2" d="M1920.2765,-582.4461C1907.4871,-567.5302 1889.0415,-546.0177 1874.6213,-529.1999"/>
<polygon fill="#000000" stroke="#000000" points="1877.0743,-526.6838 1867.908,-521.3705 1871.7603,-531.2403 1877.0743,-526.6838"/>
</g>
<!-- prose_22 -->
<g id="node23" class="node">
<title>prose_22</title>
<ellipse fill="none" stroke="#000000" cx="2019.5" cy="-503.4007" rx="32.4585" ry="18"/>
<text text-anchor="middle" x="2019.5" y="-499.2007" font-family="Helvetica,sans-Serif" font-size="14.00" fill="#000000">prose</text>
</g>
<!-- section_7&#45;&gt;prose_22 -->
<g id="edge22" class="edge">
<title>section_7&#45;&gt;prose_22</title>
<path fill="none" stroke="#000000" stroke-dasharray="5,2" d="M1950.9069,-582.4461C1964.2575,-567.0611 1983.698,-544.6582 1998.4766,-527.6276"/>
<polygon fill="#000000" stroke="#000000" points="2001.3993,-529.5997 2005.3099,-519.753 1996.1124,-525.0119 2001.3993,-529.5997"/>
</g>
<!-- codeblock_23 -->
<g id="node24" class="node">
<title>codeblock_23</title>
<ellipse fill="none" stroke="#000000" cx="2192.5" cy="-503.4007" rx="77.4211" ry="18"/>
<text text-anchor="middle" x="2192.5" y="-499.2007" font-family="Helvetica,sans-Serif" font-size="14.00" fill="#000000">code block 22&#45;45</text>
</g>
<!-- section_7&#45;&gt;codeblock_23 -->
<g id="edge23" class="edge">
<title>section_7&#45;&gt;codeblock_23</title>
<path fill="none" stroke="#000000" stroke-dasharray="5,2" d="M1974.2538,-585.604C2019.082,-568.7192 2093.0157,-540.8718 2142.2317,-522.3344"/>
<polygon fill="#000000" stroke="#000000" points="2143.6049,-525.5573 2151.7293,-518.7571 2141.1374,-519.0066 2143.6049,-525.5573"/>
</g>
<!-- header_28 -->
<g id="node29" class="node">
<title>header_28</title>
<ellipse fill="none" stroke="#000000" cx="2503.5" cy="-503.4007" rx="99.6298" ry="18"/>
<text text-anchor="middle" x="2503.5" y="-499.2007" font-family="Helvetica,sans-Serif" font-size="14.00" fill="#000000">2 : Constructor module</text>
</g>
<!-- section_8&#45;&gt;header_28 -->
<g id="edge28" class="edge">
<title>section_8&#45;&gt;header_28</title>
<path fill="none" stroke="#000000" stroke-dasharray="5,2" d="M2564.7438,-582.4461C2553.2922,-567.6658 2536.822,-546.4083 2523.8454,-529.6598"/>
<polygon fill="#000000" stroke="#000000" points="2526.3144,-527.1318 2517.4229,-521.3705 2520.7809,-531.4192 2526.3144,-527.1318"/>
</g>
<!-- prose_29 -->
<g id="node30" class="node">
<title>prose_29</title>
<ellipse fill="none" stroke="#000000" cx="2653.5" cy="-503.4007" rx="32.4585" ry="18"/>
<text text-anchor="middle" x="2653.5" y="-499.2007" font-family="Helvetica,sans-Serif" font-size="14.00" fill="#000000">prose</text>
</g>
<!-- section_8&#45;&gt;prose_29 -->
<g id="edge29" class="edge">
<title>section_8&#45;&gt;prose_29</title>
<path fill="none" stroke="#000000" stroke-dasharray="5,2" d="M2592.2562,-582.4461C2603.9959,-567.294 2621.0099,-545.3346 2634.1272,-528.4044"/>
<polygon fill="#000000" stroke="#000000" points="2637.225,-530.1208 2640.583,-520.0722 2631.6916,-525.8335 2637.225,-530.1208"/>
</g>
<!-- codeblock_30 -->
<g id="node31" class="node">
<title>codeblock_30</title>
<ellipse fill="none" stroke="#000000" cx="2829.5" cy="-503.4007" rx="77.4211" ry="18"/>
<text text-anchor="middle" x="2829.5" y="-499.2007" font-family="Helvetica,sans-Serif" font-size="14.00" fill="#000000">code block 50&#45;66</text>
</g>
<!-- section_8&#45;&gt;codeblock_30 -->
<g id="edge30" class="edge">
<title>section_8&#45;&gt;codeblock_30</title>
<path fill="none" stroke="#000000" stroke-dasharray="5,2" d="M2616.6215,-585.4989C2660.2443,-568.6754 2731.8286,-541.0684 2779.7947,-522.5699"/>
<polygon fill="#000000" stroke="#000000" points="2781.2844,-525.7467 2789.3552,-518.8828 2778.7656,-519.2156 2781.2844,-525.7467"/>
</g>
<!-- leaf_11 -->
<g id="node12" class="node">
<title>leaf_11</title>
<polygon fill="none" stroke="#c0c0c0" points="471,-293.5006 0,-293.5006 0,-207.1 471,-207.1 471,-293.5006"/>
<text text-anchor="middle" x="235.5" y="-246.2003" font-family="Inconsolata" font-size="14.00" fill="#000000"> &#160;&#160;Structure is our holding block for anything which is neither</text>
<text text-anchor="middle" x="235.5" y="-230.8003" font-family="Inconsolata" font-size="14.00" fill="#000000"> prose nor code. &#160;This includes taglines, lists, tables, and some</text>
<text text-anchor="middle" x="235.5" y="-215.4003" font-family="Inconsolata" font-size="14.00" fill="#000000"> more advanced forms such as drawers.</text>
</g>
<!-- raw_10&#45;&gt;leaf_11 -->
<g id="edge11" class="edge">
<title>raw_10&#45;&gt;leaf_11</title>
<path fill="none" stroke="#000000" stroke-dasharray="5,2" d="M1042.4387,-486.2079C1036.0015,-476.9104 1026.7515,-466.2103 1015.5,-460.6006 908.663,-407.3342 591.8984,-464.8256 479.5,-424.6006 405.2118,-398.0144 333.3619,-341.814 287.102,-300.3839"/>
<polygon fill="#000000" stroke="#000000" points="289.3807,-297.7256 279.6181,-293.6096 284.6831,-302.9153 289.3807,-297.7256"/>
</g>
<!-- leaf_13 -->
<g id="node14" class="node">
<title>leaf_13</title>
<polygon fill="none" stroke="#c0c0c0" points="1044,-277.6007 489,-277.6007 489,-222.9999 1044,-222.9999 1044,-277.6007"/>
<text text-anchor="middle" x="766.5" y="-246.5003" font-family="Inconsolata" font-size="14.00" fill="#000000"> For now we need them as containers for taglines, which are part of the short</text>
<text text-anchor="middle" x="766.5" y="-231.1003" font-family="Inconsolata" font-size="14.00" fill="#000000"> path for knitting source code.</text>
</g>
<!-- raw_12&#45;&gt;leaf_13 -->
<g id="edge13" class="edge">
<title>raw_12&#45;&gt;leaf_13</title>
<path fill="none" stroke="#000000" stroke-dasharray="5,2" d="M1112.5231,-486.9539C1105.958,-478.5447 1097.3663,-468.456 1088.5,-460.6006 1005.3979,-386.9733 894.3976,-320.2667 826.8034,-282.5543"/>
<polygon fill="#000000" stroke="#000000" points="828.4101,-279.4432 817.9678,-277.652 825.014,-285.5642 828.4101,-279.4432"/>
</g>
<!-- leaf_17 -->
<g id="node18" class="node">
<title>leaf_17</title>
<polygon fill="none" stroke="#c0c0c0" points="1330.5,-270.2024 1062.5,-270.2024 1062.5,-230.3982 1330.5,-230.3982 1330.5,-270.2024"/>
<text text-anchor="middle" x="1196.5" y="-238.8003" font-family="Inconsolata" font-size="14.00" fill="#000000"> Note that structures do not have a </text>
</g>
<!-- raw_14&#45;&gt;leaf_17 -->
<g id="edge17" class="edge">
<title>raw_14&#45;&gt;leaf_17</title>
<path fill="none" stroke="#000000" stroke-dasharray="5,2" d="M1196.5,-485.1983C1196.5,-442.0395 1196.5,-333.1589 1196.5,-280.1792"/>
<polygon fill="#000000" stroke="#000000" points="1200.0001,-280.0651 1196.5,-270.0651 1193.0001,-280.0651 1200.0001,-280.0651"/>
</g>
<!-- leaf_18 -->
<g id="node19" class="node">
<title>leaf_18</title>
<polygon fill="none" stroke="#c0c0c0" points="1406.5,-268.3003 1348.5,-268.3003 1348.5,-232.3003 1406.5,-232.3003 1406.5,-268.3003"/>
<text text-anchor="middle" x="1377.5" y="-246.8003" font-family="Inconsolata" font-size="14.00" fill="#000000">.lines</text>
</g>
<!-- literal_15&#45;&gt;leaf_18 -->
<g id="edge18" class="edge">
<title>literal_15&#45;&gt;leaf_18</title>
<path fill="none" stroke="#000000" stroke-dasharray="5,2" d="M1287.8109,-487.3282C1305.4048,-468.5406 1332.7286,-438.28 1339.5,-424.6006 1363.2206,-376.6812 1372.2298,-314.1242 1375.5818,-278.4651"/>
<polygon fill="#000000" stroke="#000000" points="1379.0855,-278.57 1376.4505,-268.308 1372.111,-277.9734 1379.0855,-278.57"/>
</g>
<!-- leaf_19 -->
<g id="node20" class="node">
<title>leaf_19</title>
<polygon fill="none" stroke="#c0c0c0" points="1490,-268.3003 1425,-268.3003 1425,-232.3003 1490,-232.3003 1490,-268.3003"/>
<text text-anchor="middle" x="1457.5" y="-246.8003" font-family="Inconsolata" font-size="14.00" fill="#000000"> field.</text>
</g>
<!-- raw_16&#45;&gt;leaf_19 -->
<g id="edge19" class="edge">
<title>raw_16&#45;&gt;leaf_19</title>
<path fill="none" stroke="#000000" stroke-dasharray="5,2" d="M1361.7916,-487.5096C1368.5663,-479.4325 1376.9484,-469.4736 1384.5,-460.6006 1398.1848,-444.521 1405.8682,-443.3904 1415.5,-424.6006 1440.0131,-376.7802 1450.565,-314.1887 1454.8377,-278.4966"/>
<polygon fill="#000000" stroke="#000000" points="1458.3416,-278.6556 1455.9707,-268.3295 1451.3847,-277.8803 1458.3416,-278.6556"/>
</g>
<!-- leaf_24 -->
<g id="node25" class="node">
<title>leaf_24</title>
<polygon fill="none" stroke="#c0c0c0" points="1935.5,-268.3003 1723.5,-268.3003 1723.5,-232.3003 1935.5,-232.3003 1935.5,-268.3003"/>
<text text-anchor="middle" x="1829.5" y="-246.8003" font-family="Inconsolata" font-size="14.00" fill="#000000"> ** Metatable for Structures</text>
</g>
<!-- header_21&#45;&gt;leaf_24 -->
<g id="edge24" class="edge">
<title>header_21&#45;&gt;leaf_24</title>
<path fill="none" stroke="#000000" stroke-dasharray="5,2" d="M1850.8459,-485.1983C1846.884,-441.6005 1836.8277,-330.9371 1832.0699,-278.58"/>
<polygon fill="#000000" stroke="#000000" points="1835.5298,-277.9799 1831.1391,-268.3377 1828.5586,-278.6135 1835.5298,-277.9799"/>
</g>
<!-- raw_25 -->
<g id="node26" class="node">
<title>raw_25</title>
<ellipse fill="none" stroke="#000000" cx="1980.5" cy="-250.3003" rx="27" ry="18"/>
<text text-anchor="middle" x="1980.5" y="-246.1003" font-family="Helvetica,sans-Serif" font-size="14.00" fill="#000000">raw</text>
</g>
<!-- prose_22&#45;&gt;raw_25 -->
<g id="edge25" class="edge">
<title>prose_22&#45;&gt;raw_25</title>
<path fill="none" stroke="#000000" stroke-dasharray="5,2" d="M2016.6952,-485.1983C2009.9632,-441.5093 1992.8539,-330.4738 1984.8071,-278.2522"/>
<polygon fill="#000000" stroke="#000000" points="1988.2615,-277.688 1983.2794,-268.3377 1981.3432,-278.7541 1988.2615,-277.688"/>
</g>
<!-- leaf_27 -->
<g id="node28" class="node">
<title>leaf_27</title>
<polygon fill="none" stroke="#c0c0c0" points="2405.5,-424.4011 2025.5,-424.4011 2025.5,-76.1995 2405.5,-76.1995 2405.5,-424.4011"/>
<text text-anchor="middle" x="2215.5" y="-409.4006" font-family="Inconsolata" font-size="14.00" fill="#000000">local S, s = u.inherit(Node)</text>
<text text-anchor="middle" x="2215.5" y="-378.0006" font-family="Inconsolata" font-size="14.00" fill="#000000">function S.dotLabel(structure)</text>
<text text-anchor="middle" x="2215.5" y="-362.6005" font-family="Inconsolata" font-size="14.00" fill="#000000"> &#160;&#160;&#160;&#45;&#45; This is a shim and will break.</text>
<text text-anchor="middle" x="2215.5" y="-347.2005" font-family="Inconsolata" font-size="14.00" fill="#000000"> &#160;&#160;&#160;if structure.temp_id then </text>
<text text-anchor="middle" x="2215.5" y="-331.8005" font-family="Inconsolata" font-size="14.00" fill="#000000"> &#160;&#160;&#160;&#160;&#160;&#160;&#160;return structure.temp_id</text>
<text text-anchor="middle" x="2215.5" y="-316.4004" font-family="Inconsolata" font-size="14.00" fill="#000000"> &#160;&#160;&#160;else</text>
<text text-anchor="middle" x="2215.5" y="-301.0004" font-family="Inconsolata" font-size="14.00" fill="#000000"> &#160;&#160;&#160;&#160;&#160;&#160;&#160;return &quot;structure&quot;</text>
<text text-anchor="middle" x="2215.5" y="-285.6004" font-family="Inconsolata" font-size="14.00" fill="#000000"> &#160;&#160;&#160;end</text>
<text text-anchor="middle" x="2215.5" y="-270.2003" font-family="Inconsolata" font-size="14.00" fill="#000000">end</text>
<text text-anchor="middle" x="2215.5" y="-238.8003" font-family="Inconsolata" font-size="14.00" fill="#000000">function S.toMarkdown(structure)</text>
<text text-anchor="middle" x="2215.5" y="-223.4003" font-family="Inconsolata" font-size="14.00" fill="#000000"> &#160;&#160;&#160;if structure[1] and structure[1].toMarkdown then</text>
<text text-anchor="middle" x="2215.5" y="-208.0002" font-family="Inconsolata" font-size="14.00" fill="#000000"> &#160;&#160;&#160;&#160;&#160;&#160;&#160;return structure[1]:toMarkdown()</text>
<text text-anchor="middle" x="2215.5" y="-192.6002" font-family="Inconsolata" font-size="14.00" fill="#000000"> &#160;&#160;&#160;else</text>
<text text-anchor="middle" x="2215.5" y="-177.2002" font-family="Inconsolata" font-size="14.00" fill="#000000"> &#160;&#160;&#160;&#160;&#160;&#160;&#160;return structure.__VALUE</text>
<text text-anchor="middle" x="2215.5" y="-161.8002" font-family="Inconsolata" font-size="14.00" fill="#000000"> &#160;&#160;&#160;end</text>
<text text-anchor="middle" x="2215.5" y="-146.4001" font-family="Inconsolata" font-size="14.00" fill="#000000">end</text>
<text text-anchor="middle" x="2215.5" y="-115.0001" font-family="Inconsolata" font-size="14.00" fill="#000000">function S.toValue(structure)</text>
<text text-anchor="middle" x="2215.5" y="-99.6001" font-family="Inconsolata" font-size="14.00" fill="#000000"> &#160;&#160;&#160;return structure.__VALUE</text>
<text text-anchor="middle" x="2215.5" y="-84.2" font-family="Inconsolata" font-size="14.00" fill="#000000">end</text>
</g>
<!-- codeblock_23&#45;&gt;leaf_27 -->
<g id="edge27" class="edge">
<title>codeblock_23&#45;&gt;leaf_27</title>
<path fill="none" stroke="#000000" stroke-dasharray="5,2" d="M2194.1541,-485.1983C2195.2783,-472.8275 2196.8931,-455.0572 2198.7384,-434.7514"/>
<polygon fill="#000000" stroke="#000000" points="2202.2421,-434.8677 2199.6616,-424.5919 2195.2709,-434.2341 2202.2421,-434.8677"/>
</g>
<!-- leaf_26 -->
<g id="node27" class="node">
<title>leaf_26</title>
<polygon fill="none" stroke="#c0c0c0" points="2007.5,-38 1953.5,-38 1953.5,-2 2007.5,-2 2007.5,-38"/>
</g>
<!-- raw_25&#45;&gt;leaf_26 -->
<g id="edge26" class="edge">
<title>raw_25&#45;&gt;leaf_26</title>
<path fill="none" stroke="#000000" stroke-dasharray="5,2" d="M1980.5,-232.229C1980.5,-192.3035 1980.5,-96.3248 1980.5,-48.3277"/>
<polygon fill="#000000" stroke="#000000" points="1984.0001,-48.306 1980.5,-38.306 1977.0001,-48.306 1984.0001,-48.306"/>
</g>
<!-- leaf_31 -->
<g id="node32" class="node">
<title>leaf_31</title>
<polygon fill="none" stroke="#c0c0c0" points="2593.5,-268.3003 2423.5,-268.3003 2423.5,-232.3003 2593.5,-232.3003 2593.5,-268.3003"/>
<text text-anchor="middle" x="2508.5" y="-246.8003" font-family="Inconsolata" font-size="14.00" fill="#000000"> ** Constructor module</text>
</g>
<!-- header_28&#45;&gt;leaf_31 -->
<g id="edge31" class="edge">
<title>header_28&#45;&gt;leaf_31</title>
<path fill="none" stroke="#000000" stroke-dasharray="5,2" d="M2503.8596,-485.1983C2504.7209,-441.6005 2506.907,-330.9371 2507.9413,-278.58"/>
<polygon fill="#000000" stroke="#000000" points="2511.4454,-278.4049 2508.1437,-268.3377 2504.4467,-278.2666 2511.4454,-278.4049"/>
</g>
<!-- raw_32 -->
<g id="node33" class="node">
<title>raw_32</title>
<ellipse fill="none" stroke="#000000" cx="2648.5" cy="-250.3003" rx="27" ry="18"/>
<text text-anchor="middle" x="2648.5" y="-246.1003" font-family="Helvetica,sans-Serif" font-size="14.00" fill="#000000">raw</text>
</g>
<!-- prose_29&#45;&gt;raw_32 -->
<g id="edge32" class="edge">
<title>prose_29&#45;&gt;raw_32</title>
<path fill="none" stroke="#000000" stroke-dasharray="5,2" d="M2653.1404,-485.1983C2652.2791,-441.6005 2650.093,-330.9371 2649.0587,-278.58"/>
<polygon fill="#000000" stroke="#000000" points="2652.5533,-278.2666 2648.8563,-268.3377 2645.5546,-278.4049 2652.5533,-278.2666"/>
</g>
<!-- leaf_34 -->
<g id="node35" class="node">
<title>leaf_34</title>
<polygon fill="none" stroke="#c0c0c0" points="3053,-370.5008 2694,-370.5008 2694,-130.0998 3053,-130.0998 3053,-370.5008"/>
<text text-anchor="middle" x="2873.5" y="-355.2005" font-family="Inconsolata" font-size="14.00" fill="#000000">local function new(Structure, line, line_id, str)</text>
<text text-anchor="middle" x="2873.5" y="-339.8005" font-family="Inconsolata" font-size="14.00" fill="#000000"> &#160;&#160;&#160;local structure = setmetatable({}, S)</text>
<text text-anchor="middle" x="2873.5" y="-324.4004" font-family="Inconsolata" font-size="14.00" fill="#000000"> &#160;&#160;&#160;structure.__VALUE = line</text>
<text text-anchor="middle" x="2873.5" y="-309.0004" font-family="Inconsolata" font-size="14.00" fill="#000000"> &#160;&#160;&#160;structure.id = &quot;structure&quot;</text>
<text text-anchor="middle" x="2873.5" y="-293.6004" font-family="Inconsolata" font-size="14.00" fill="#000000"> &#160;&#160;&#160;if line_id == &quot;hashline&quot; then</text>
<text text-anchor="middle" x="2873.5" y="-278.2003" font-family="Inconsolata" font-size="14.00" fill="#000000"> &#160;&#160;&#160;&#160;&#160;&#160;&#160;structure[1] = Hashline(line)</text>
<text text-anchor="middle" x="2873.5" y="-262.8003" font-family="Inconsolata" font-size="14.00" fill="#000000"> &#160;&#160;&#160;elseif line_id == &quot;handleline&quot; then</text>
<text text-anchor="middle" x="2873.5" y="-247.4003" font-family="Inconsolata" font-size="14.00" fill="#000000"> &#160;&#160;&#160;&#160;&#160;&#160;&#160;structure[1] = Handleline(line)</text>
<text text-anchor="middle" x="2873.5" y="-232.0002" font-family="Inconsolata" font-size="14.00" fill="#000000"> &#160;&#160;&#160;end</text>
<text text-anchor="middle" x="2873.5" y="-216.6002" font-family="Inconsolata" font-size="14.00" fill="#000000"> &#160;&#160;&#160;structure.str = str</text>
<text text-anchor="middle" x="2873.5" y="-201.2002" font-family="Inconsolata" font-size="14.00" fill="#000000"> &#160;&#160;&#160;return structure</text>
<text text-anchor="middle" x="2873.5" y="-185.8002" font-family="Inconsolata" font-size="14.00" fill="#000000">end</text>
<text text-anchor="middle" x="2873.5" y="-138.4001" font-family="Inconsolata" font-size="14.00" fill="#000000">return u.export(s, new)</text>
</g>
<!-- codeblock_30&#45;&gt;leaf_34 -->
<g id="edge34" class="edge">
<title>codeblock_30&#45;&gt;leaf_34</title>
<path fill="none" stroke="#000000" stroke-dasharray="5,2" d="M2832.6644,-485.1983C2836.6047,-462.5325 2843.6962,-421.7401 2850.8763,-380.4379"/>
<polygon fill="#000000" stroke="#000000" points="2854.3388,-380.9554 2852.6033,-370.5037 2847.4422,-379.7564 2854.3388,-380.9554"/>
</g>
<!-- leaf_33 -->
<g id="node34" class="node">
<title>leaf_33</title>
<polygon fill="none" stroke="#c0c0c0" points="2675.5,-40 2621.5,-40 2621.5,0 2675.5,0 2675.5,-40"/>
</g>
<!-- raw_32&#45;&gt;leaf_33 -->
<g id="edge33" class="edge">
<title>raw_32&#45;&gt;leaf_33</title>
<path fill="none" stroke="#000000" stroke-dasharray="5,2" d="M2648.5,-232.229C2648.5,-192.8949 2648.5,-99.1563 2648.5,-50.4922"/>
<polygon fill="#000000" stroke="#000000" points="2652.0001,-50.2672 2648.5,-40.2673 2645.0001,-50.2673 2652.0001,-50.2672"/>
</g>
</g>
</svg>