<?xml version="1.0" encoding="UTF-8" standalone="no"?>
<!DOCTYPE svg PUBLIC "-//W3C//DTD SVG 1.1//EN"
 "http://www.w3.org/Graphics/SVG/1.1/DTD/svg11.dtd">
<!-- Generated by graphviz version 2.40.1 (20161225.0304)
 -->
<!-- Title: hierarchy Pages: 1 -->
<svg width="2507pt" height="708pt"
 viewBox="0.00 0.00 2506.50 708.00" xmlns="http://www.w3.org/2000/svg" xmlns:xlink="http://www.w3.org/1999/xlink">
<g id="graph0" class="graph" transform="scale(1 1) rotate(0) translate(4 704.0006)">
<title>hierarchy</title>
<polygon fill="#ffffff" stroke="transparent" points="-4,4 -4,-704.0006 2502.5,-704.0006 2502.5,4 -4,4"/>
<!-- doc_0 -->
<g id="node1" class="node">
<title>doc_0</title>
<ellipse fill="none" stroke="#000000" cx="1002.5" cy="-682.0006" rx="42.1216" ry="18"/>
<text text-anchor="middle" x="1002.5" y="-677.8006" font-family="Helvetica,sans-Serif" font-size="14.00" fill="#000000">doc &#45; 63</text>
</g>
<!-- section_1 -->
<g id="node2" class="node">
<title>section_1</title>
<ellipse fill="none" stroke="#000000" cx="1002.5" cy="-610.0006" rx="60.9826" ry="18"/>
<text text-anchor="middle" x="1002.5" y="-605.8006" font-family="Helvetica,sans-Serif" font-size="14.00" fill="#000000">section: 1&#45;42</text>
</g>
<!-- doc_0&#45;&gt;section_1 -->
<g id="edge1" class="edge">
<title>doc_0&#45;&gt;section_1</title>
<path fill="none" stroke="#000000" stroke-dasharray="5,2" d="M1002.5,-663.832C1002.5,-656.1316 1002.5,-646.975 1002.5,-638.4173"/>
<polygon fill="#000000" stroke="#000000" points="1006.0001,-638.4139 1002.5,-628.4139 999.0001,-638.4139 1006.0001,-638.4139"/>
</g>
<!-- header_2 -->
<g id="node3" class="node">
<title>header_2</title>
<ellipse fill="none" stroke="#000000" cx="698.5" cy="-538.0006" rx="89.9744" ry="18"/>
<text text-anchor="middle" x="698.5" y="-533.8006" font-family="Helvetica,sans-Serif" font-size="14.00" fill="#000000">1 : Structure Module</text>
</g>
<!-- section_1&#45;&gt;header_2 -->
<g id="edge2" class="edge">
<title>section_1&#45;&gt;header_2</title>
<path fill="none" stroke="#000000" stroke-dasharray="5,2" d="M955,-598.7506C904.4317,-586.7739 823.9552,-567.7137 766.6374,-554.1384"/>
<polygon fill="#000000" stroke="#000000" points="767.1125,-550.6542 756.575,-551.7552 765.4991,-557.4657 767.1125,-550.6542"/>
</g>
<!-- prose_3 -->
<g id="node4" class="node">
<title>prose_3</title>
<ellipse fill="none" stroke="#000000" cx="838.5" cy="-538.0006" rx="32.4585" ry="18"/>
<text text-anchor="middle" x="838.5" y="-533.8006" font-family="Helvetica,sans-Serif" font-size="14.00" fill="#000000">prose</text>
</g>
<!-- section_1&#45;&gt;prose_3 -->
<g id="edge3" class="edge">
<title>section_1&#45;&gt;prose_3</title>
<path fill="none" stroke="#000000" stroke-dasharray="5,2" d="M968.1202,-594.9071C940.3097,-582.6976 901.3158,-565.5783 873.3739,-553.3111"/>
<polygon fill="#000000" stroke="#000000" points="874.5513,-550.0056 863.9879,-549.1904 871.7374,-556.4151 874.5513,-550.0056"/>
</g>
<!-- prose_4 -->
<g id="node5" class="node">
<title>prose_4</title>
<ellipse fill="none" stroke="#000000" cx="920.5" cy="-538.0006" rx="32.4585" ry="18"/>
<text text-anchor="middle" x="920.5" y="-533.8006" font-family="Helvetica,sans-Serif" font-size="14.00" fill="#000000">prose</text>
</g>
<!-- section_1&#45;&gt;prose_4 -->
<g id="edge4" class="edge">
<title>section_1&#45;&gt;prose_4</title>
<path fill="none" stroke="#000000" stroke-dasharray="5,2" d="M983.0671,-592.9376C971.8006,-583.045 957.4965,-570.4853 945.4098,-559.8726"/>
<polygon fill="#000000" stroke="#000000" points="947.6653,-557.1953 937.8415,-553.2273 943.0466,-562.4554 947.6653,-557.1953"/>
</g>
<!-- prose_5 -->
<g id="node6" class="node">
<title>prose_5</title>
<ellipse fill="none" stroke="#000000" cx="1002.5" cy="-538.0006" rx="32.4585" ry="18"/>
<text text-anchor="middle" x="1002.5" y="-533.8006" font-family="Helvetica,sans-Serif" font-size="14.00" fill="#000000">prose</text>
</g>
<!-- section_1&#45;&gt;prose_5 -->
<g id="edge5" class="edge">
<title>section_1&#45;&gt;prose_5</title>
<path fill="none" stroke="#000000" stroke-dasharray="5,2" d="M1002.5,-591.832C1002.5,-584.1316 1002.5,-574.975 1002.5,-566.4173"/>
<polygon fill="#000000" stroke="#000000" points="1006.0001,-566.4139 1002.5,-556.4139 999.0001,-566.4139 1006.0001,-566.4139"/>
</g>
<!-- codeblock_6 -->
<g id="node7" class="node">
<title>codeblock_6</title>
<ellipse fill="none" stroke="#000000" cx="1159.5" cy="-538.0006" rx="77.4211" ry="18"/>
<text text-anchor="middle" x="1159.5" y="-533.8006" font-family="Helvetica,sans-Serif" font-size="14.00" fill="#000000">code block 12&#45;18</text>
</g>
<!-- section_1&#45;&gt;codeblock_6 -->
<g id="edge6" class="edge">
<title>section_1&#45;&gt;codeblock_6</title>
<path fill="none" stroke="#000000" stroke-dasharray="5,2" d="M1035.7957,-594.7313C1058.8622,-584.153 1089.828,-569.9521 1115.0072,-558.405"/>
<polygon fill="#000000" stroke="#000000" points="1116.7148,-561.4724 1124.3456,-554.1224 1113.7968,-555.1096 1116.7148,-561.4724"/>
</g>
<!-- section_7 -->
<g id="node8" class="node">
<title>section_7</title>
<ellipse fill="none" stroke="#000000" cx="1563.5" cy="-538.0006" rx="65.8187" ry="18"/>
<text text-anchor="middle" x="1563.5" y="-533.8006" font-family="Helvetica,sans-Serif" font-size="14.00" fill="#000000">section: 20&#45;42</text>
</g>
<!-- section_1&#45;&gt;section_7 -->
<g id="edge7" class="edge">
<title>section_1&#45;&gt;section_7</title>
<path fill="none" stroke="#000000" stroke-dasharray="5,2" d="M1058.3418,-602.8338C1161.275,-589.6231 1380.6901,-561.4629 1493.4308,-546.9935"/>
<polygon fill="#000000" stroke="#000000" points="1494.1978,-550.4238 1503.6709,-545.6792 1493.3066,-543.4808 1494.1978,-550.4238"/>
</g>
<!-- section_8 -->
<g id="node9" class="node">
<title>section_8</title>
<ellipse fill="none" stroke="#000000" cx="2074.5" cy="-538.0006" rx="65.8187" ry="18"/>
<text text-anchor="middle" x="2074.5" y="-533.8006" font-family="Helvetica,sans-Serif" font-size="14.00" fill="#000000">section: 43&#45;63</text>
</g>
<!-- section_1&#45;&gt;section_8 -->
<g id="edge8" class="edge">
<title>section_1&#45;&gt;section_8</title>
<path fill="none" stroke="#000000" stroke-dasharray="5,2" d="M1062.0468,-606.0012C1245.0664,-593.7088 1799.0983,-556.4978 2000.392,-542.978"/>
<polygon fill="#000000" stroke="#000000" points="2000.825,-546.4569 2010.5679,-542.2946 2000.3558,-539.4727 2000.825,-546.4569"/>
</g>
<!-- leaf_9 -->
<g id="node10" class="node">
<title>leaf_9</title>
<polygon fill="none" stroke="#c0c0c0" points="725.5,-459.2006 671.5,-459.2006 671.5,-423.2006 725.5,-423.2006 725.5,-459.2006"/>
</g>
<!-- header_2&#45;&gt;leaf_9 -->
<g id="edge9" class="edge">
<title>header_2&#45;&gt;leaf_9</title>
<path fill="none" stroke="#000000" stroke-dasharray="5,2" d="M698.5,-519.7933C698.5,-505.5967 698.5,-485.6298 698.5,-469.3745"/>
<polygon fill="#000000" stroke="#000000" points="702.0001,-469.3262 698.5,-459.3263 695.0001,-469.3263 702.0001,-469.3262"/>
</g>
<!-- raw_10 -->
<g id="node11" class="node">
<title>raw_10</title>
<ellipse fill="none" stroke="#000000" cx="804.5" cy="-441.2006" rx="27" ry="18"/>
<text text-anchor="middle" x="804.5" y="-437.0006" font-family="Helvetica,sans-Serif" font-size="14.00" fill="#000000">raw</text>
</g>
<!-- prose_3&#45;&gt;raw_10 -->
<g id="edge10" class="edge">
<title>prose_3&#45;&gt;raw_10</title>
<path fill="none" stroke="#000000" stroke-dasharray="5,2" d="M832.2639,-520.246C827.1836,-505.7821 819.9246,-485.1153 814.1032,-468.5413"/>
<polygon fill="#000000" stroke="#000000" points="817.3128,-467.1177 810.6966,-458.8426 810.7083,-469.4375 817.3128,-467.1177"/>
</g>
<!-- raw_12 -->
<g id="node13" class="node">
<title>raw_12</title>
<ellipse fill="none" stroke="#000000" cx="895.5" cy="-441.2006" rx="27" ry="18"/>
<text text-anchor="middle" x="895.5" y="-437.0006" font-family="Helvetica,sans-Serif" font-size="14.00" fill="#000000">raw</text>
</g>
<!-- prose_4&#45;&gt;raw_12 -->
<g id="edge12" class="edge">
<title>prose_4&#45;&gt;raw_12</title>
<path fill="none" stroke="#000000" stroke-dasharray="5,2" d="M915.7977,-519.7933C912.108,-505.5068 906.9092,-485.3768 902.6967,-469.0663"/>
<polygon fill="#000000" stroke="#000000" points="905.9862,-467.8063 900.0968,-458.9992 899.2086,-469.5568 905.9862,-467.8063"/>
</g>
<!-- raw_14 -->
<g id="node15" class="node">
<title>raw_14</title>
<ellipse fill="none" stroke="#000000" cx="976.5" cy="-441.2006" rx="27" ry="18"/>
<text text-anchor="middle" x="976.5" y="-437.0006" font-family="Helvetica,sans-Serif" font-size="14.00" fill="#000000">raw</text>
</g>
<!-- prose_5&#45;&gt;raw_14 -->
<g id="edge14" class="edge">
<title>prose_5&#45;&gt;raw_14</title>
<path fill="none" stroke="#000000" stroke-dasharray="5,2" d="M997.6096,-519.7933C993.7723,-505.5068 988.3655,-485.3768 983.9846,-469.0663"/>
<polygon fill="#000000" stroke="#000000" points="987.2549,-467.749 981.2806,-458.9992 980.4945,-469.5648 987.2549,-467.749"/>
</g>
<!-- leaf_16 -->
<g id="node17" class="node">
<title>leaf_16</title>
<polygon fill="none" stroke="#c0c0c0" points="1345.5,-483.8016 1021.5,-483.8016 1021.5,-398.5995 1345.5,-398.5995 1345.5,-483.8016"/>
<text text-anchor="middle" x="1183.5" y="-468.8006" font-family="Inconsolata" font-size="14.00" fill="#000000">local Node = require &quot;peg/node&quot;</text>
<text text-anchor="middle" x="1183.5" y="-453.4006" font-family="Inconsolata" font-size="14.00" fill="#000000">local u = require &quot;../lib/util&quot;</text>
<text text-anchor="middle" x="1183.5" y="-422.0006" font-family="Inconsolata" font-size="14.00" fill="#000000">local Hashline = require &quot;grym/hashline&quot;</text>
<text text-anchor="middle" x="1183.5" y="-406.6005" font-family="Inconsolata" font-size="14.00" fill="#000000">local Handleline = require &quot;grym/handleline&quot;</text>
</g>
<!-- codeblock_6&#45;&gt;leaf_16 -->
<g id="edge16" class="edge">
<title>codeblock_6&#45;&gt;leaf_16</title>
<path fill="none" stroke="#000000" stroke-dasharray="5,2" d="M1164.0142,-519.7933C1165.8887,-512.2329 1168.1689,-503.036 1170.4998,-493.6347"/>
<polygon fill="#000000" stroke="#000000" points="1173.9229,-494.372 1172.9323,-483.8236 1167.1286,-492.6874 1173.9229,-494.372"/>
</g>
<!-- header_17 -->
<g id="node18" class="node">
<title>header_17</title>
<ellipse fill="none" stroke="#000000" cx="1480.5" cy="-441.2006" rx="116.5368" ry="18"/>
<text text-anchor="middle" x="1480.5" y="-437.0006" font-family="Helvetica,sans-Serif" font-size="14.00" fill="#000000">2 : Metatable for Structures</text>
</g>
<!-- section_7&#45;&gt;header_17 -->
<g id="edge17" class="edge">
<title>section_7&#45;&gt;header_17</title>
<path fill="none" stroke="#000000" stroke-dasharray="5,2" d="M1548.2765,-520.246C1535.4871,-505.3301 1517.0415,-483.8176 1502.6213,-466.9998"/>
<polygon fill="#000000" stroke="#000000" points="1505.0743,-464.4837 1495.908,-459.1704 1499.7603,-469.0402 1505.0743,-464.4837"/>
</g>
<!-- prose_18 -->
<g id="node19" class="node">
<title>prose_18</title>
<ellipse fill="none" stroke="#000000" cx="1647.5" cy="-441.2006" rx="32.4585" ry="18"/>
<text text-anchor="middle" x="1647.5" y="-437.0006" font-family="Helvetica,sans-Serif" font-size="14.00" fill="#000000">prose</text>
</g>
<!-- section_7&#45;&gt;prose_18 -->
<g id="edge18" class="edge">
<title>section_7&#45;&gt;prose_18</title>
<path fill="none" stroke="#000000" stroke-dasharray="5,2" d="M1578.9069,-520.246C1592.2575,-504.861 1611.698,-482.4581 1626.4766,-465.4275"/>
<polygon fill="#000000" stroke="#000000" points="1629.3993,-467.3997 1633.3099,-457.5529 1624.1124,-462.8118 1629.3993,-467.3997"/>
</g>
<!-- codeblock_19 -->
<g id="node20" class="node">
<title>codeblock_19</title>
<ellipse fill="none" stroke="#000000" cx="1781.5" cy="-441.2006" rx="77.4211" ry="18"/>
<text text-anchor="middle" x="1781.5" y="-437.0006" font-family="Helvetica,sans-Serif" font-size="14.00" fill="#000000">code block 22&#45;41</text>
</g>
<!-- section_7&#45;&gt;codeblock_19 -->
<g id="edge19" class="edge">
<title>section_7&#45;&gt;codeblock_19</title>
<path fill="none" stroke="#000000" stroke-dasharray="5,2" d="M1599.1582,-522.8602C1624.2175,-512.1556 1658.4905,-497.3859 1688.5,-484.0006 1704.4963,-476.8657 1721.9583,-468.8816 1737.3872,-461.7594"/>
<polygon fill="#000000" stroke="#000000" points="1739.0933,-464.8266 1746.6999,-457.4515 1736.1544,-458.4734 1739.0933,-464.8266"/>
</g>
<!-- header_24 -->
<g id="node25" class="node">
<title>header_24</title>
<ellipse fill="none" stroke="#000000" cx="1999.5" cy="-441.2006" rx="99.6298" ry="18"/>
<text text-anchor="middle" x="1999.5" y="-437.0006" font-family="Helvetica,sans-Serif" font-size="14.00" fill="#000000">2 : Constructor module</text>
</g>
<!-- section_8&#45;&gt;header_24 -->
<g id="edge24" class="edge">
<title>section_8&#45;&gt;header_24</title>
<path fill="none" stroke="#000000" stroke-dasharray="5,2" d="M2060.7438,-520.246C2049.2922,-505.4657 2032.822,-484.2082 2019.8454,-467.4597"/>
<polygon fill="#000000" stroke="#000000" points="2022.3144,-464.9317 2013.4229,-459.1704 2016.7809,-469.2191 2022.3144,-464.9317"/>
</g>
<!-- prose_25 -->
<g id="node26" class="node">
<title>prose_25</title>
<ellipse fill="none" stroke="#000000" cx="2149.5" cy="-441.2006" rx="32.4585" ry="18"/>
<text text-anchor="middle" x="2149.5" y="-437.0006" font-family="Helvetica,sans-Serif" font-size="14.00" fill="#000000">prose</text>
</g>
<!-- section_8&#45;&gt;prose_25 -->
<g id="edge25" class="edge">
<title>section_8&#45;&gt;prose_25</title>
<path fill="none" stroke="#000000" stroke-dasharray="5,2" d="M2088.2562,-520.246C2099.9959,-505.0939 2117.0099,-483.1345 2130.1272,-466.2044"/>
<polygon fill="#000000" stroke="#000000" points="2133.225,-467.9207 2136.583,-457.8721 2127.6916,-463.6334 2133.225,-467.9207"/>
</g>
<!-- codeblock_26 -->
<g id="node27" class="node">
<title>codeblock_26</title>
<ellipse fill="none" stroke="#000000" cx="2316.5" cy="-441.2006" rx="77.4211" ry="18"/>
<text text-anchor="middle" x="2316.5" y="-437.0006" font-family="Helvetica,sans-Serif" font-size="14.00" fill="#000000">code block 46&#45;62</text>
</g>
<!-- section_8&#45;&gt;codeblock_26 -->
<g id="edge26" class="edge">
<title>section_8&#45;&gt;codeblock_26</title>
<path fill="none" stroke="#000000" stroke-dasharray="5,2" d="M2111.7822,-523.0878C2153.7434,-506.3032 2222.0511,-478.9802 2268.1002,-460.5605"/>
<polygon fill="#000000" stroke="#000000" points="2269.5864,-463.7357 2277.5713,-456.7721 2266.9866,-457.2364 2269.5864,-463.7357"/>
</g>
<!-- leaf_11 -->
<g id="node12" class="node">
<title>leaf_11</title>
<polygon fill="none" stroke="#c0c0c0" points="471,-262.4006 0,-262.4006 0,-175.9999 471,-175.9999 471,-262.4006"/>
<text text-anchor="middle" x="235.5" y="-215.1003" font-family="Inconsolata" font-size="14.00" fill="#000000"> &#160;&#160;Structure is our holding block for anything which is neither</text>
<text text-anchor="middle" x="235.5" y="-199.7003" font-family="Inconsolata" font-size="14.00" fill="#000000"> prose nor code. &#160;This includes taglines, lists, tables, and some</text>
<text text-anchor="middle" x="235.5" y="-184.3002" font-family="Inconsolata" font-size="14.00" fill="#000000"> more advanced forms such as drawers.</text>
</g>
<!-- raw_10&#45;&gt;leaf_11 -->
<g id="edge11" class="edge">
<title>raw_10&#45;&gt;leaf_11</title>
<path fill="none" stroke="#000000" stroke-dasharray="5,2" d="M786.8309,-427.5663C773.2677,-417.8287 753.6726,-405.2801 734.5,-398.4005 626.7684,-359.7437 587.5763,-400.083 479.5,-362.4005 415.4028,-340.052 349.4001,-300.0989 302.2299,-268.0623"/>
<polygon fill="#000000" stroke="#000000" points="304.1691,-265.1483 293.9416,-262.3829 300.2123,-270.9227 304.1691,-265.1483"/>
</g>
<!-- leaf_13 -->
<g id="node14" class="node">
<title>leaf_13</title>
<polygon fill="none" stroke="#c0c0c0" points="1044,-246.5007 489,-246.5007 489,-191.8998 1044,-191.8998 1044,-246.5007"/>
<text text-anchor="middle" x="766.5" y="-215.4003" font-family="Inconsolata" font-size="14.00" fill="#000000"> For now we need them as containers for taglines, which are part of the short</text>
<text text-anchor="middle" x="766.5" y="-200.0002" font-family="Inconsolata" font-size="14.00" fill="#000000"> path for knitting source code.</text>
</g>
<!-- raw_12&#45;&gt;leaf_13 -->
<g id="edge13" class="edge">
<title>raw_12&#45;&gt;leaf_13</title>
<path fill="none" stroke="#000000" stroke-dasharray="5,2" d="M885.5918,-424.1492C864.7517,-388.2848 815.9822,-304.3559 787.7404,-255.7535"/>
<polygon fill="#000000" stroke="#000000" points="790.5991,-253.7067 782.5487,-246.819 784.5467,-257.2237 790.5991,-253.7067"/>
</g>
<!-- leaf_15 -->
<g id="node16" class="node">
<title>leaf_15</title>
<polygon fill="none" stroke="#c0c0c0" points="1435,-239.1023 1062,-239.1023 1062,-199.2982 1435,-199.2982 1435,-239.1023"/>
<text text-anchor="middle" x="1248.5" y="-207.7003" font-family="Inconsolata" font-size="14.00" fill="#000000"> Note that structures do not have a =.lines= field.</text>
</g>
<!-- raw_14&#45;&gt;leaf_15 -->
<g id="edge15" class="edge">
<title>raw_14&#45;&gt;leaf_15</title>
<path fill="none" stroke="#000000" stroke-dasharray="5,2" d="M988.7103,-425.008C995.3393,-416.6683 1003.9176,-406.5652 1012.5,-398.4005 1076.6706,-337.3532 1161.2665,-277.3686 1209.7926,-244.6274"/>
<polygon fill="#000000" stroke="#000000" points="1211.7788,-247.5097 1218.131,-239.0303 1207.8774,-241.6976 1211.7788,-247.5097"/>
</g>
<!-- leaf_20 -->
<g id="node21" class="node">
<title>leaf_20</title>
<polygon fill="none" stroke="#c0c0c0" points="1507.5,-237.2002 1453.5,-237.2002 1453.5,-201.2002 1507.5,-201.2002 1507.5,-237.2002"/>
</g>
<!-- header_17&#45;&gt;leaf_20 -->
<g id="edge20" class="edge">
<title>header_17&#45;&gt;leaf_20</title>
<path fill="none" stroke="#000000" stroke-dasharray="5,2" d="M1480.5,-423.0333C1480.5,-384.398 1480.5,-293.8356 1480.5,-247.5388"/>
<polygon fill="#000000" stroke="#000000" points="1484.0001,-247.3071 1480.5,-237.3071 1477.0001,-247.3072 1484.0001,-247.3071"/>
</g>
<!-- raw_21 -->
<g id="node22" class="node">
<title>raw_21</title>
<ellipse fill="none" stroke="#000000" cx="1552.5" cy="-219.2002" rx="27" ry="18"/>
<text text-anchor="middle" x="1552.5" y="-215.0002" font-family="Helvetica,sans-Serif" font-size="14.00" fill="#000000">raw</text>
</g>
<!-- prose_18&#45;&gt;raw_21 -->
<g id="edge21" class="edge">
<title>prose_18&#45;&gt;raw_21</title>
<path fill="none" stroke="#000000" stroke-dasharray="5,2" d="M1632.5146,-425.2499C1619.1169,-410.1592 1599.8906,-386.3164 1588.5,-362.4005 1570.5344,-324.6797 1560.8527,-276.9456 1556.1889,-247.2378"/>
<polygon fill="#000000" stroke="#000000" points="1559.6234,-246.5373 1554.6917,-237.1603 1552.6994,-247.5661 1559.6234,-246.5373"/>
</g>
<!-- leaf_23 -->
<g id="node24" class="node">
<title>leaf_23</title>
<polygon fill="none" stroke="#c0c0c0" points="1977.5,-362.601 1597.5,-362.601 1597.5,-75.7995 1977.5,-75.7995 1977.5,-362.601"/>
<text text-anchor="middle" x="1787.5" y="-347.2005" font-family="Inconsolata" font-size="14.00" fill="#000000">local S, s = u.inherit(Node)</text>
<text text-anchor="middle" x="1787.5" y="-315.8005" font-family="Inconsolata" font-size="14.00" fill="#000000">function S.dotLabel(structure)</text>
<text text-anchor="middle" x="1787.5" y="-300.4004" font-family="Inconsolata" font-size="14.00" fill="#000000"> &#160;&#160;&#160;&#45;&#45; This is a shim and will break.</text>
<text text-anchor="middle" x="1787.5" y="-285.0004" font-family="Inconsolata" font-size="14.00" fill="#000000"> &#160;&#160;&#160;if structure.temp_id then </text>
<text text-anchor="middle" x="1787.5" y="-269.6004" font-family="Inconsolata" font-size="14.00" fill="#000000"> &#160;&#160;&#160;&#160;&#160;&#160;&#160;return structure.temp_id</text>
<text text-anchor="middle" x="1787.5" y="-254.2003" font-family="Inconsolata" font-size="14.00" fill="#000000"> &#160;&#160;&#160;else</text>
<text text-anchor="middle" x="1787.5" y="-238.8003" font-family="Inconsolata" font-size="14.00" fill="#000000"> &#160;&#160;&#160;&#160;&#160;&#160;&#160;return &quot;structure&quot;</text>
<text text-anchor="middle" x="1787.5" y="-223.4003" font-family="Inconsolata" font-size="14.00" fill="#000000"> &#160;&#160;&#160;end</text>
<text text-anchor="middle" x="1787.5" y="-208.0002" font-family="Inconsolata" font-size="14.00" fill="#000000">end</text>
<text text-anchor="middle" x="1787.5" y="-176.6002" font-family="Inconsolata" font-size="14.00" fill="#000000">function S.toMarkdown(structure)</text>
<text text-anchor="middle" x="1787.5" y="-161.2002" font-family="Inconsolata" font-size="14.00" fill="#000000"> &#160;&#160;&#160;if structure[1] and structure[1].toMarkdown then</text>
<text text-anchor="middle" x="1787.5" y="-145.8002" font-family="Inconsolata" font-size="14.00" fill="#000000"> &#160;&#160;&#160;&#160;&#160;&#160;&#160;return structure[1]:toMarkdown()</text>
<text text-anchor="middle" x="1787.5" y="-130.4001" font-family="Inconsolata" font-size="14.00" fill="#000000"> &#160;&#160;&#160;else</text>
<text text-anchor="middle" x="1787.5" y="-115.0001" font-family="Inconsolata" font-size="14.00" fill="#000000"> &#160;&#160;&#160;&#160;&#160;&#160;&#160;return structure.__VALUE</text>
<text text-anchor="middle" x="1787.5" y="-99.6001" font-family="Inconsolata" font-size="14.00" fill="#000000"> &#160;&#160;&#160;end</text>
<text text-anchor="middle" x="1787.5" y="-84.2" font-family="Inconsolata" font-size="14.00" fill="#000000">end</text>
</g>
<!-- codeblock_19&#45;&gt;leaf_23 -->
<g id="edge23" class="edge">
<title>codeblock_19&#45;&gt;leaf_23</title>
<path fill="none" stroke="#000000" stroke-dasharray="5,2" d="M1781.991,-423.0333C1782.3289,-410.5299 1782.8139,-392.5879 1783.3576,-372.4677"/>
<polygon fill="#000000" stroke="#000000" points="1786.8574,-372.5208 1783.6289,-362.4299 1779.8599,-372.3316 1786.8574,-372.5208"/>
</g>
<!-- leaf_22 -->
<g id="node23" class="node">
<title>leaf_22</title>
<polygon fill="none" stroke="#c0c0c0" points="1579.5,-38 1525.5,-38 1525.5,-2 1579.5,-2 1579.5,-38"/>
</g>
<!-- raw_21&#45;&gt;leaf_22 -->
<g id="edge22" class="edge">
<title>raw_21&#45;&gt;leaf_22</title>
<path fill="none" stroke="#000000" stroke-dasharray="5,2" d="M1552.5,-201.1712C1552.5,-166.3709 1552.5,-89.7139 1552.5,-48.1403"/>
<polygon fill="#000000" stroke="#000000" points="1556.0001,-48.1318 1552.5,-38.1318 1549.0001,-48.1318 1556.0001,-48.1318"/>
</g>
<!-- leaf_27 -->
<g id="node28" class="node">
<title>leaf_27</title>
<polygon fill="none" stroke="#c0c0c0" points="2049.5,-237.2002 1995.5,-237.2002 1995.5,-201.2002 2049.5,-201.2002 2049.5,-237.2002"/>
</g>
<!-- header_24&#45;&gt;leaf_27 -->
<g id="edge27" class="edge">
<title>header_24&#45;&gt;leaf_27</title>
<path fill="none" stroke="#000000" stroke-dasharray="5,2" d="M2001.3822,-423.0333C2005.3849,-384.398 2014.7675,-293.8356 2019.564,-247.5388"/>
<polygon fill="#000000" stroke="#000000" points="2023.0748,-247.6146 2020.6241,-237.3071 2016.1121,-246.8932 2023.0748,-247.6146"/>
</g>
<!-- raw_28 -->
<g id="node29" class="node">
<title>raw_28</title>
<ellipse fill="none" stroke="#000000" cx="2129.5" cy="-219.2002" rx="27" ry="18"/>
<text text-anchor="middle" x="2129.5" y="-215.0002" font-family="Helvetica,sans-Serif" font-size="14.00" fill="#000000">raw</text>
</g>
<!-- prose_25&#45;&gt;raw_28 -->
<g id="edge28" class="edge">
<title>prose_25&#45;&gt;raw_28</title>
<path fill="none" stroke="#000000" stroke-dasharray="5,2" d="M2147.8633,-423.0333C2144.3827,-384.398 2136.2239,-293.8356 2132.053,-247.5388"/>
<polygon fill="#000000" stroke="#000000" points="2135.5145,-246.9527 2131.1312,-237.3071 2128.5427,-247.5809 2135.5145,-246.9527"/>
</g>
<!-- leaf_30 -->
<g id="node31" class="node">
<title>leaf_30</title>
<polygon fill="none" stroke="#c0c0c0" points="2498.5,-339.5007 2174.5,-339.5007 2174.5,-98.8998 2498.5,-98.8998 2498.5,-339.5007"/>
<text text-anchor="middle" x="2336.5" y="-324.4004" font-family="Inconsolata" font-size="14.00" fill="#000000">local function new(Structure, line, line_id)</text>
<text text-anchor="middle" x="2336.5" y="-309.0004" font-family="Inconsolata" font-size="14.00" fill="#000000"> &#160;&#160;&#160;local structure = setmetatable({}, S)</text>
<text text-anchor="middle" x="2336.5" y="-293.6004" font-family="Inconsolata" font-size="14.00" fill="#000000"> &#160;&#160;&#160;structure.__VALUE = line</text>
<text text-anchor="middle" x="2336.5" y="-278.2003" font-family="Inconsolata" font-size="14.00" fill="#000000"> &#160;&#160;&#160;structure.id = &quot;structure&quot;</text>
<text text-anchor="middle" x="2336.5" y="-262.8003" font-family="Inconsolata" font-size="14.00" fill="#000000"> &#160;&#160;&#160;if line_id == &quot;hashline&quot; then</text>
<text text-anchor="middle" x="2336.5" y="-247.4003" font-family="Inconsolata" font-size="14.00" fill="#000000"> &#160;&#160;&#160;&#160;&#160;&#160;&#160;structure[1] = Hashline(line)</text>
<text text-anchor="middle" x="2336.5" y="-232.0002" font-family="Inconsolata" font-size="14.00" fill="#000000"> &#160;&#160;&#160;elseif line_id == &quot;handleline&quot; then</text>
<text text-anchor="middle" x="2336.5" y="-216.6002" font-family="Inconsolata" font-size="14.00" fill="#000000"> &#160;&#160;&#160;&#160;&#160;&#160;&#160;structure[1] = Handleline(line)</text>
<text text-anchor="middle" x="2336.5" y="-201.2002" font-family="Inconsolata" font-size="14.00" fill="#000000"> &#160;&#160;&#160;end</text>
<text text-anchor="middle" x="2336.5" y="-169.8002" font-family="Inconsolata" font-size="14.00" fill="#000000"> &#160;&#160;&#160;return structure</text>
<text text-anchor="middle" x="2336.5" y="-154.4001" font-family="Inconsolata" font-size="14.00" fill="#000000">end</text>
<text text-anchor="middle" x="2336.5" y="-107.0001" font-family="Inconsolata" font-size="14.00" fill="#000000">return u.export(s, new)</text>
</g>
<!-- codeblock_26&#45;&gt;leaf_30 -->
<g id="edge30" class="edge">
<title>codeblock_26&#45;&gt;leaf_30</title>
<path fill="none" stroke="#000000" stroke-dasharray="5,2" d="M2318.1367,-423.0333C2319.6722,-405.9888 2322.1182,-378.838 2324.7307,-349.8401"/>
<polygon fill="#000000" stroke="#000000" points="2328.249,-349.7934 2325.6604,-339.5197 2321.2772,-349.1653 2328.249,-349.7934"/>
</g>
<!-- leaf_29 -->
<g id="node30" class="node">
<title>leaf_29</title>
<polygon fill="none" stroke="#c0c0c0" points="2156.5,-40 2102.5,-40 2102.5,0 2156.5,0 2156.5,-40"/>
</g>
<!-- raw_28&#45;&gt;leaf_29 -->
<g id="edge29" class="edge">
<title>raw_28&#45;&gt;leaf_29</title>
<path fill="none" stroke="#000000" stroke-dasharray="5,2" d="M2129.5,-201.1712C2129.5,-166.9876 2129.5,-92.4177 2129.5,-50.3832"/>
<polygon fill="#000000" stroke="#000000" points="2133.0001,-50.1937 2129.5,-40.1937 2126.0001,-50.1938 2133.0001,-50.1937"/>
</g>
</g>
</svg>