<?xml version="1.0" encoding="UTF-8" standalone="no"?>
<!DOCTYPE svg PUBLIC "-//W3C//DTD SVG 1.1//EN"
 "http://www.w3.org/Graphics/SVG/1.1/DTD/svg11.dtd">
<!-- Generated by graphviz version 2.40.1 (20161225.0304)
 -->
<!-- Title: hierarchy Pages: 1 -->
<svg width="2778pt" height="677pt"
 viewBox="0.00 0.00 2777.50 677.20" xmlns="http://www.w3.org/2000/svg" xmlns:xlink="http://www.w3.org/1999/xlink">
<g id="graph0" class="graph" transform="scale(1 1) rotate(0) translate(4 673.2006)">
<title>hierarchy</title>
<polygon fill="#ffffff" stroke="transparent" points="-4,4 -4,-673.2006 2773.5,-673.2006 2773.5,4 -4,4"/>
<!-- doc_0 -->
<g id="node1" class="node">
<title>doc_0</title>
<ellipse fill="none" stroke="#000000" cx="1324.5" cy="-651.2006" rx="42.1216" ry="18"/>
<text text-anchor="middle" x="1324.5" y="-647.0006" font-family="Helvetica,sans-Serif" font-size="14.00" fill="#000000">doc &#45; 54</text>
</g>
<!-- section_1 -->
<g id="node2" class="node">
<title>section_1</title>
<ellipse fill="none" stroke="#000000" cx="1324.5" cy="-579.2006" rx="60.9826" ry="18"/>
<text text-anchor="middle" x="1324.5" y="-575.0006" font-family="Helvetica,sans-Serif" font-size="14.00" fill="#000000">section: 1&#45;34</text>
</g>
<!-- doc_0&#45;&gt;section_1 -->
<g id="edge1" class="edge">
<title>doc_0&#45;&gt;section_1</title>
<path fill="none" stroke="#000000" stroke-dasharray="5,2" d="M1324.5,-633.0319C1324.5,-625.3315 1324.5,-616.1749 1324.5,-607.6172"/>
<polygon fill="#000000" stroke="#000000" points="1328.0001,-607.6138 1324.5,-597.6138 1321.0001,-607.6139 1328.0001,-607.6138"/>
</g>
<!-- header_2 -->
<g id="node3" class="node">
<title>header_2</title>
<ellipse fill="none" stroke="#000000" cx="941.5" cy="-507.2006" rx="89.9744" ry="18"/>
<text text-anchor="middle" x="941.5" y="-503.0006" font-family="Helvetica,sans-Serif" font-size="14.00" fill="#000000">1 : Structure Module</text>
</g>
<!-- section_1&#45;&gt;header_2 -->
<g id="edge2" class="edge">
<title>section_1&#45;&gt;header_2</title>
<path fill="none" stroke="#000000" stroke-dasharray="5,2" d="M1272.8469,-569.4903C1206.9933,-557.1105 1092.6263,-535.6107 1016.9958,-521.393"/>
<polygon fill="#000000" stroke="#000000" points="1017.5255,-517.9313 1007.0509,-519.5235 1016.2321,-524.8108 1017.5255,-517.9313"/>
</g>
<!-- block_3 -->
<g id="node4" class="node">
<title>block_3</title>
<ellipse fill="none" stroke="#000000" cx="1095.5" cy="-507.2006" rx="45.9804" ry="18"/>
<text text-anchor="middle" x="1095.5" y="-503.0006" font-family="Helvetica,sans-Serif" font-size="14.00" fill="#000000">block 1&#45;6</text>
</g>
<!-- section_1&#45;&gt;block_3 -->
<g id="edge3" class="edge">
<title>section_1&#45;&gt;block_3</title>
<path fill="none" stroke="#000000" stroke-dasharray="5,2" d="M1281.8952,-566.1783C1246.6333,-555.3524 1195.2511,-539.4667 1150.5,-525.2006 1147.1931,-524.1463 1143.777,-523.0489 1140.3416,-521.939"/>
<polygon fill="#000000" stroke="#000000" points="1141.2749,-518.5622 1130.6828,-518.8039 1139.1138,-525.2203 1141.2749,-518.5622"/>
</g>
<!-- block_4 -->
<g id="node5" class="node">
<title>block_4</title>
<ellipse fill="none" stroke="#000000" cx="1205.5" cy="-507.2006" rx="45.9804" ry="18"/>
<text text-anchor="middle" x="1205.5" y="-503.0006" font-family="Helvetica,sans-Serif" font-size="14.00" fill="#000000">block 7&#45;9</text>
</g>
<!-- section_1&#45;&gt;block_4 -->
<g id="edge4" class="edge">
<title>section_1&#45;&gt;block_4</title>
<path fill="none" stroke="#000000" stroke-dasharray="5,2" d="M1297.4971,-562.8626C1280.2892,-552.4512 1257.8503,-538.8747 1239.4414,-527.7366"/>
<polygon fill="#000000" stroke="#000000" points="1241.1364,-524.6713 1230.7687,-522.4892 1237.5127,-530.6604 1241.1364,-524.6713"/>
</g>
<!-- block_5 -->
<g id="node6" class="node">
<title>block_5</title>
<ellipse fill="none" stroke="#000000" cx="1324.5" cy="-507.2006" rx="55.3502" ry="18"/>
<text text-anchor="middle" x="1324.5" y="-503.0006" font-family="Helvetica,sans-Serif" font-size="14.00" fill="#000000">block 10&#45;11</text>
</g>
<!-- section_1&#45;&gt;block_5 -->
<g id="edge5" class="edge">
<title>section_1&#45;&gt;block_5</title>
<path fill="none" stroke="#000000" stroke-dasharray="5,2" d="M1324.5,-561.0319C1324.5,-553.3315 1324.5,-544.1749 1324.5,-535.6172"/>
<polygon fill="#000000" stroke="#000000" points="1328.0001,-535.6138 1324.5,-525.6138 1321.0001,-535.6139 1328.0001,-535.6138"/>
</g>
<!-- block_6 -->
<g id="node7" class="node">
<title>block_6</title>
<ellipse fill="none" stroke="#000000" cx="1530.5" cy="-507.2006" rx="55.6542" ry="18"/>
<text text-anchor="middle" x="1530.5" y="-503.0006" font-family="Helvetica,sans-Serif" font-size="14.00" fill="#000000">block 12&#45;34</text>
</g>
<!-- section_1&#45;&gt;block_6 -->
<g id="edge6" class="edge">
<title>section_1&#45;&gt;block_6</title>
<path fill="none" stroke="#000000" stroke-dasharray="5,2" d="M1364.2189,-565.3182C1398.0963,-553.4776 1446.8856,-536.425 1482.8582,-523.852"/>
<polygon fill="#000000" stroke="#000000" points="1484.3563,-527.0362 1492.6415,-520.4327 1482.0466,-520.4282 1484.3563,-527.0362"/>
</g>
<!-- section_7 -->
<g id="node8" class="node">
<title>section_7</title>
<ellipse fill="none" stroke="#000000" cx="1909.5" cy="-507.2006" rx="65.8187" ry="18"/>
<text text-anchor="middle" x="1909.5" y="-503.0006" font-family="Helvetica,sans-Serif" font-size="14.00" fill="#000000">section: 20&#45;34</text>
</g>
<!-- section_1&#45;&gt;section_7 -->
<g id="edge7" class="edge">
<title>section_1&#45;&gt;section_7</title>
<path fill="none" stroke="#000000" stroke-dasharray="5,2" d="M1380.8578,-572.2642C1488.2629,-559.0451 1721.9968,-530.2779 1839.3362,-515.8361"/>
<polygon fill="#000000" stroke="#000000" points="1839.7959,-519.306 1849.2934,-514.6106 1838.9407,-512.3585 1839.7959,-519.306"/>
</g>
<!-- section_8 -->
<g id="node9" class="node">
<title>section_8</title>
<ellipse fill="none" stroke="#000000" cx="2394.5" cy="-507.2006" rx="65.8187" ry="18"/>
<text text-anchor="middle" x="2394.5" y="-503.0006" font-family="Helvetica,sans-Serif" font-size="14.00" fill="#000000">section: 35&#45;54</text>
</g>
<!-- section_1&#45;&gt;section_8 -->
<g id="edge8" class="edge">
<title>section_1&#45;&gt;section_8</title>
<path fill="none" stroke="#000000" stroke-dasharray="5,2" d="M1383.9357,-575.2011C1566.6139,-562.9088 2119.6121,-525.6977 2320.5302,-512.178"/>
<polygon fill="#000000" stroke="#000000" points="2320.9448,-515.6581 2330.6872,-511.4945 2320.4747,-508.6739 2320.9448,-515.6581"/>
</g>
<!-- leaf_9 -->
<g id="node10" class="node">
<title>leaf_9</title>
<polygon fill="none" stroke="#c0c0c0" points="471,-453.3009 0,-453.3009 0,-382.9001 471,-382.9001 471,-453.3009"/>
<text text-anchor="middle" x="235.5" y="-422.0006" font-family="Inconsolata" font-size="14.00" fill="#000000"> &#160;&#160;Structure is our holding block for anything which is neither</text>
<text text-anchor="middle" x="235.5" y="-406.6005" font-family="Inconsolata" font-size="14.00" fill="#000000"> prose nor code. &#160;This includes taglines, lists, tables, and some</text>
<text text-anchor="middle" x="235.5" y="-391.2005" font-family="Inconsolata" font-size="14.00" fill="#000000"> more advanced forms such as drawers.</text>
</g>
<!-- block_3&#45;&gt;leaf_9 -->
<g id="edge9" class="edge">
<title>block_3&#45;&gt;leaf_9</title>
<path fill="none" stroke="#000000" stroke-dasharray="5,2" d="M1062.1134,-494.7905C1055.0617,-492.5901 1047.6034,-490.568 1040.5,-489.2006 798.3932,-442.5923 729.8112,-478.046 481.2123,-453.3379"/>
<polygon fill="#000000" stroke="#000000" points="481.4542,-449.8445 471.1514,-452.315 480.7461,-456.8086 481.4542,-449.8445"/>
</g>
<!-- leaf_10 -->
<g id="node11" class="node">
<title>leaf_10</title>
<polygon fill="none" stroke="#c0c0c0" points="1044,-437.4011 489,-437.4011 489,-398.7999 1044,-398.7999 1044,-437.4011"/>
<text text-anchor="middle" x="766.5" y="-422.3005" font-family="Inconsolata" font-size="14.00" fill="#000000"> For now we need them as containers for taglines, which are part of the short</text>
<text text-anchor="middle" x="766.5" y="-406.9005" font-family="Inconsolata" font-size="14.00" fill="#000000"> path for knitting source code.</text>
</g>
<!-- block_4&#45;&gt;leaf_10 -->
<g id="edge10" class="edge">
<title>block_4&#45;&gt;leaf_10</title>
<path fill="none" stroke="#000000" stroke-dasharray="5,2" d="M1171.0859,-495.1607C1164.3093,-493.0108 1157.2174,-490.9135 1150.5,-489.2006 1069.8713,-468.6398 978.2959,-451.452 904.8004,-439.1287"/>
<polygon fill="#000000" stroke="#000000" points="904.992,-435.6124 894.5529,-437.4222 903.8421,-442.5174 904.992,-435.6124"/>
</g>
<!-- leaf_11 -->
<g id="node12" class="node">
<title>leaf_11</title>
<polygon fill="none" stroke="#c0c0c0" points="1435,-436.1005 1062,-436.1005 1062,-400.1005 1435,-400.1005 1435,-436.1005"/>
<text text-anchor="middle" x="1248.5" y="-414.6005" font-family="Inconsolata" font-size="14.00" fill="#000000"> Note that structures do not have a =.lines= field.</text>
</g>
<!-- block_5&#45;&gt;leaf_11 -->
<g id="edge11" class="edge">
<title>block_5&#45;&gt;leaf_11</title>
<path fill="none" stroke="#000000" stroke-dasharray="5,2" d="M1309.4848,-489.5973C1298.3889,-476.5887 1283.1047,-458.67 1270.6136,-444.0258"/>
<polygon fill="#000000" stroke="#000000" points="1273.1583,-441.6158 1264.0057,-436.279 1267.8325,-446.1586 1273.1583,-441.6158"/>
</g>
<!-- codeblock_12 -->
<g id="node13" class="node">
<title>codeblock_12</title>
<ellipse fill="none" stroke="#000000" cx="1530.5" cy="-418.1005" rx="77.4211" ry="18"/>
<text text-anchor="middle" x="1530.5" y="-413.9005" font-family="Helvetica,sans-Serif" font-size="14.00" fill="#000000">code block 12&#45;18</text>
</g>
<!-- block_6&#45;&gt;codeblock_12 -->
<g id="edge12" class="edge">
<title>block_6&#45;&gt;codeblock_12</title>
<path fill="none" stroke="#000000" stroke-dasharray="5,2" d="M1530.5,-489.1698C1530.5,-476.8514 1530.5,-460.2798 1530.5,-446.2374"/>
<polygon fill="#000000" stroke="#000000" points="1534.0001,-446.1044 1530.5,-436.1044 1527.0001,-446.1045 1534.0001,-446.1044"/>
</g>
<!-- leaf_14 -->
<g id="node15" class="node">
<title>leaf_14</title>
<polygon fill="none" stroke="#c0c0c0" points="1679.5,-436.1005 1625.5,-436.1005 1625.5,-400.1005 1679.5,-400.1005 1679.5,-436.1005"/>
</g>
<!-- block_6&#45;&gt;leaf_14 -->
<g id="edge14" class="edge">
<title>block_6&#45;&gt;leaf_14</title>
<path fill="none" stroke="#000000" stroke-dasharray="5,2" d="M1558.6129,-491.5951C1575.9187,-481.499 1598.212,-467.5918 1616.5,-453.2006 1620.3286,-450.1877 1624.199,-446.8203 1627.9109,-443.3959"/>
<polygon fill="#000000" stroke="#000000" points="1630.4359,-445.8241 1635.2434,-436.3827 1625.5975,-440.7654 1630.4359,-445.8241"/>
</g>
<!-- header_15 -->
<g id="node16" class="node">
<title>header_15</title>
<ellipse fill="none" stroke="#000000" cx="1814.5" cy="-418.1005" rx="116.5368" ry="18"/>
<text text-anchor="middle" x="1814.5" y="-413.9005" font-family="Helvetica,sans-Serif" font-size="14.00" fill="#000000">2 : Metatable for Structures</text>
</g>
<!-- section_7&#45;&gt;header_15 -->
<g id="edge15" class="edge">
<title>section_7&#45;&gt;header_15</title>
<path fill="none" stroke="#000000" stroke-dasharray="5,2" d="M1890.7311,-489.5973C1876.5113,-476.2606 1856.7889,-457.7631 1840.9675,-442.9242"/>
<polygon fill="#000000" stroke="#000000" points="1843.2434,-440.2603 1833.5551,-435.9722 1838.4547,-445.3661 1843.2434,-440.2603"/>
</g>
<!-- block_16 -->
<g id="node17" class="node">
<title>block_16</title>
<ellipse fill="none" stroke="#000000" cx="2005.5" cy="-418.1005" rx="55.6542" ry="18"/>
<text text-anchor="middle" x="2005.5" y="-413.9005" font-family="Helvetica,sans-Serif" font-size="14.00" fill="#000000">block 20&#45;21</text>
</g>
<!-- section_7&#45;&gt;block_16 -->
<g id="edge16" class="edge">
<title>section_7&#45;&gt;block_16</title>
<path fill="none" stroke="#000000" stroke-dasharray="5,2" d="M1928.4665,-489.5973C1943.0238,-476.0863 1963.2879,-457.2786 1979.3789,-442.3442"/>
<polygon fill="#000000" stroke="#000000" points="1981.9509,-444.7322 1986.8995,-435.3641 1977.189,-439.6015 1981.9509,-444.7322"/>
</g>
<!-- block_17 -->
<g id="node18" class="node">
<title>block_17</title>
<ellipse fill="none" stroke="#000000" cx="2135.5" cy="-418.1005" rx="55.6542" ry="18"/>
<text text-anchor="middle" x="2135.5" y="-413.9005" font-family="Helvetica,sans-Serif" font-size="14.00" fill="#000000">block 22&#45;34</text>
</g>
<!-- section_7&#45;&gt;block_17 -->
<g id="edge17" class="edge">
<title>section_7&#45;&gt;block_17</title>
<path fill="none" stroke="#000000" stroke-dasharray="5,2" d="M1955.0406,-494.2113C1987.7165,-484.3432 2032.5009,-469.6879 2070.5,-453.2006 2080.1181,-449.0274 2090.2217,-443.9402 2099.5201,-438.9483"/>
<polygon fill="#000000" stroke="#000000" points="2101.415,-441.901 2108.5022,-434.0255 2098.0507,-435.7624 2101.415,-441.901"/>
</g>
<!-- header_22 -->
<g id="node23" class="node">
<title>header_22</title>
<ellipse fill="none" stroke="#000000" cx="2308.5" cy="-418.1005" rx="99.6298" ry="18"/>
<text text-anchor="middle" x="2308.5" y="-413.9005" font-family="Helvetica,sans-Serif" font-size="14.00" fill="#000000">2 : Constructor module</text>
</g>
<!-- section_8&#45;&gt;header_22 -->
<g id="edge22" class="edge">
<title>section_8&#45;&gt;header_22</title>
<path fill="none" stroke="#000000" stroke-dasharray="5,2" d="M2377.5092,-489.5973C2364.7535,-476.3818 2347.1068,-458.099 2332.8515,-443.3298"/>
<polygon fill="#000000" stroke="#000000" points="2335.213,-440.7367 2325.7499,-435.9722 2330.1764,-445.5981 2335.213,-440.7367"/>
</g>
<!-- block_23 -->
<g id="node24" class="node">
<title>block_23</title>
<ellipse fill="none" stroke="#000000" cx="2481.5" cy="-418.1005" rx="55.6542" ry="18"/>
<text text-anchor="middle" x="2481.5" y="-413.9005" font-family="Helvetica,sans-Serif" font-size="14.00" fill="#000000">block 35&#45;37</text>
</g>
<!-- section_8&#45;&gt;block_23 -->
<g id="edge23" class="edge">
<title>section_8&#45;&gt;block_23</title>
<path fill="none" stroke="#000000" stroke-dasharray="5,2" d="M2411.6884,-489.5973C2424.761,-476.2091 2442.9119,-457.6201 2457.4291,-442.7524"/>
<polygon fill="#000000" stroke="#000000" points="2460.1613,-444.9642 2464.6433,-435.3641 2455.1528,-440.0738 2460.1613,-444.9642"/>
</g>
<!-- block_24 -->
<g id="node25" class="node">
<title>block_24</title>
<ellipse fill="none" stroke="#000000" cx="2611.5" cy="-418.1005" rx="55.6542" ry="18"/>
<text text-anchor="middle" x="2611.5" y="-413.9005" font-family="Helvetica,sans-Serif" font-size="14.00" fill="#000000">block 38&#45;54</text>
</g>
<!-- section_8&#45;&gt;block_24 -->
<g id="edge24" class="edge">
<title>section_8&#45;&gt;block_24</title>
<path fill="none" stroke="#000000" stroke-dasharray="5,2" d="M2438.1059,-493.6875C2468.8733,-483.6769 2510.8008,-469.0677 2546.5,-453.2006 2556.0807,-448.9423 2566.1708,-443.8243 2575.4681,-438.8299"/>
<polygon fill="#000000" stroke="#000000" points="2577.3606,-441.7841 2584.4528,-433.9131 2574.0002,-435.6434 2577.3606,-441.7841"/>
</g>
<!-- leaf_13 -->
<g id="node14" class="node">
<title>leaf_13</title>
<polygon fill="none" stroke="#c0c0c0" points="1692.5,-346.8015 1368.5,-346.8015 1368.5,-261.5994 1692.5,-261.5994 1692.5,-346.8015"/>
<text text-anchor="middle" x="1530.5" y="-331.8005" font-family="Inconsolata" font-size="14.00" fill="#000000">local Node = require &quot;peg/node&quot;</text>
<text text-anchor="middle" x="1530.5" y="-316.4004" font-family="Inconsolata" font-size="14.00" fill="#000000">local u = require &quot;../lib/util&quot;</text>
<text text-anchor="middle" x="1530.5" y="-285.0004" font-family="Inconsolata" font-size="14.00" fill="#000000">local Hashline = require &quot;grym/hashline&quot;</text>
<text text-anchor="middle" x="1530.5" y="-269.6004" font-family="Inconsolata" font-size="14.00" fill="#000000">local Handleline = require &quot;grym/handleline&quot;</text>
</g>
<!-- codeblock_12&#45;&gt;leaf_13 -->
<g id="edge13" class="edge">
<title>codeblock_12&#45;&gt;leaf_13</title>
<path fill="none" stroke="#000000" stroke-dasharray="5,2" d="M1530.5,-400.0527C1530.5,-388.4235 1530.5,-372.6488 1530.5,-357.2554"/>
<polygon fill="#000000" stroke="#000000" points="1534.0001,-357.2421 1530.5,-347.2421 1527.0001,-357.2422 1534.0001,-357.2421"/>
</g>
<!-- leaf_18 -->
<g id="node19" class="node">
<title>leaf_18</title>
<polygon fill="none" stroke="#c0c0c0" points="2032.5,-322.2004 1978.5,-322.2004 1978.5,-286.2004 2032.5,-286.2004 2032.5,-322.2004"/>
</g>
<!-- block_16&#45;&gt;leaf_18 -->
<g id="edge18" class="edge">
<title>block_16&#45;&gt;leaf_18</title>
<path fill="none" stroke="#000000" stroke-dasharray="5,2" d="M2005.5,-400.0527C2005.5,-381.915 2005.5,-353.693 2005.5,-332.5614"/>
<polygon fill="#000000" stroke="#000000" points="2009.0001,-332.5409 2005.5,-322.5409 2002.0001,-332.541 2009.0001,-332.5409"/>
</g>
<!-- codeblock_19 -->
<g id="node20" class="node">
<title>codeblock_19</title>
<ellipse fill="none" stroke="#000000" cx="2131.5" cy="-304.2004" rx="77.4211" ry="18"/>
<text text-anchor="middle" x="2131.5" y="-300.0004" font-family="Helvetica,sans-Serif" font-size="14.00" fill="#000000">code block 22&#45;33</text>
</g>
<!-- block_17&#45;&gt;codeblock_19 -->
<g id="edge19" class="edge">
<title>block_17&#45;&gt;codeblock_19</title>
<path fill="none" stroke="#000000" stroke-dasharray="5,2" d="M2134.8662,-400.0527C2134.2292,-381.915 2133.2381,-353.693 2132.496,-332.5614"/>
<polygon fill="#000000" stroke="#000000" points="2135.993,-332.4119 2132.1441,-322.5409 2128.9973,-332.6577 2135.993,-332.4119"/>
</g>
<!-- leaf_21 -->
<g id="node22" class="node">
<title>leaf_21</title>
<polygon fill="none" stroke="#c0c0c0" points="2280.5,-322.2004 2226.5,-322.2004 2226.5,-286.2004 2280.5,-286.2004 2280.5,-322.2004"/>
</g>
<!-- block_17&#45;&gt;leaf_21 -->
<g id="edge21" class="edge">
<title>block_17&#45;&gt;leaf_21</title>
<path fill="none" stroke="#000000" stroke-dasharray="5,2" d="M2156.5195,-401.422C2173.5808,-387.5263 2197.9296,-366.8668 2217.5,-347.0005 2222.6275,-341.7954 2227.8512,-335.9523 2232.6714,-330.2959"/>
<polygon fill="#000000" stroke="#000000" points="2235.6731,-332.1611 2239.3867,-322.2384 2230.2958,-327.6795 2235.6731,-332.1611"/>
</g>
<!-- leaf_20 -->
<g id="node21" class="node">
<title>leaf_20</title>
<polygon fill="none" stroke="#c0c0c0" points="2269,-193.8009 1994,-193.8009 1994,-31.5994 2269,-31.5994 2269,-193.8009"/>
<text text-anchor="middle" x="2131.5" y="-178.8003" font-family="Inconsolata" font-size="14.00" fill="#000000">local S, s = u.inherit(Node)</text>
<text text-anchor="middle" x="2131.5" y="-147.4003" font-family="Inconsolata" font-size="14.00" fill="#000000">function S.dotLabel(structure)</text>
<text text-anchor="middle" x="2131.5" y="-132.0002" font-family="Inconsolata" font-size="14.00" fill="#000000"> &#160;&#160;&#160;&#45;&#45; This is a shim and will break.</text>
<text text-anchor="middle" x="2131.5" y="-116.6002" font-family="Inconsolata" font-size="14.00" fill="#000000"> &#160;&#160;&#160;if structure.temp_id then </text>
<text text-anchor="middle" x="2131.5" y="-101.2002" font-family="Inconsolata" font-size="14.00" fill="#000000"> &#160;&#160;&#160;&#160;&#160;&#160;&#160;return structure.temp_id</text>
<text text-anchor="middle" x="2131.5" y="-85.8002" font-family="Inconsolata" font-size="14.00" fill="#000000"> &#160;&#160;&#160;else</text>
<text text-anchor="middle" x="2131.5" y="-70.4001" font-family="Inconsolata" font-size="14.00" fill="#000000"> &#160;&#160;&#160;&#160;&#160;&#160;&#160;return &quot;structure&quot;</text>
<text text-anchor="middle" x="2131.5" y="-55.0001" font-family="Inconsolata" font-size="14.00" fill="#000000"> &#160;&#160;&#160;end</text>
<text text-anchor="middle" x="2131.5" y="-39.6001" font-family="Inconsolata" font-size="14.00" fill="#000000">end</text>
</g>
<!-- codeblock_19&#45;&gt;leaf_20 -->
<g id="edge20" class="edge">
<title>codeblock_19&#45;&gt;leaf_20</title>
<path fill="none" stroke="#000000" stroke-dasharray="5,2" d="M2131.5,-286.1845C2131.5,-267.029 2131.5,-235.2564 2131.5,-204.0995"/>
<polygon fill="#000000" stroke="#000000" points="2135.0001,-204.0219 2131.5,-194.022 2128.0001,-204.022 2135.0001,-204.0219"/>
</g>
<!-- leaf_25 -->
<g id="node26" class="node">
<title>leaf_25</title>
<polygon fill="none" stroke="#c0c0c0" points="2508.5,-322.2004 2454.5,-322.2004 2454.5,-286.2004 2508.5,-286.2004 2508.5,-322.2004"/>
</g>
<!-- block_23&#45;&gt;leaf_25 -->
<g id="edge25" class="edge">
<title>block_23&#45;&gt;leaf_25</title>
<path fill="none" stroke="#000000" stroke-dasharray="5,2" d="M2481.5,-400.0527C2481.5,-381.915 2481.5,-353.693 2481.5,-332.5614"/>
<polygon fill="#000000" stroke="#000000" points="2485.0001,-332.5409 2481.5,-322.5409 2478.0001,-332.541 2485.0001,-332.5409"/>
</g>
<!-- codeblock_26 -->
<g id="node27" class="node">
<title>codeblock_26</title>
<ellipse fill="none" stroke="#000000" cx="2607.5" cy="-304.2004" rx="77.4211" ry="18"/>
<text text-anchor="middle" x="2607.5" y="-300.0004" font-family="Helvetica,sans-Serif" font-size="14.00" fill="#000000">code block 38&#45;53</text>
</g>
<!-- block_24&#45;&gt;codeblock_26 -->
<g id="edge26" class="edge">
<title>block_24&#45;&gt;codeblock_26</title>
<path fill="none" stroke="#000000" stroke-dasharray="5,2" d="M2610.8662,-400.0527C2610.2292,-381.915 2609.2381,-353.693 2608.496,-332.5614"/>
<polygon fill="#000000" stroke="#000000" points="2611.993,-332.4119 2608.1441,-322.5409 2604.9973,-332.6577 2611.993,-332.4119"/>
</g>
<!-- leaf_28 -->
<g id="node29" class="node">
<title>leaf_28</title>
<polygon fill="none" stroke="#c0c0c0" points="2756.5,-322.2004 2702.5,-322.2004 2702.5,-286.2004 2756.5,-286.2004 2756.5,-322.2004"/>
</g>
<!-- block_24&#45;&gt;leaf_28 -->
<g id="edge28" class="edge">
<title>block_24&#45;&gt;leaf_28</title>
<path fill="none" stroke="#000000" stroke-dasharray="5,2" d="M2632.5195,-401.422C2649.5808,-387.5263 2673.9296,-366.8668 2693.5,-347.0005 2698.6275,-341.7954 2703.8512,-335.9523 2708.6714,-330.2959"/>
<polygon fill="#000000" stroke="#000000" points="2711.6731,-332.1611 2715.3867,-322.2384 2706.2958,-327.6795 2711.6731,-332.1611"/>
</g>
<!-- leaf_27 -->
<g id="node28" class="node">
<title>leaf_27</title>
<polygon fill="none" stroke="#c0c0c0" points="2769.5,-225.6009 2445.5,-225.6009 2445.5,.2005 2769.5,.2005 2769.5,-225.6009"/>
<text text-anchor="middle" x="2607.5" y="-210.2003" font-family="Inconsolata" font-size="14.00" fill="#000000">local function new(Structure, line, line_id)</text>
<text text-anchor="middle" x="2607.5" y="-194.8003" font-family="Inconsolata" font-size="14.00" fill="#000000"> &#160;&#160;&#160;local structure = setmetatable({}, S)</text>
<text text-anchor="middle" x="2607.5" y="-179.4003" font-family="Inconsolata" font-size="14.00" fill="#000000"> &#160;&#160;&#160;structure.id = &quot;structure&quot;</text>
<text text-anchor="middle" x="2607.5" y="-164.0002" font-family="Inconsolata" font-size="14.00" fill="#000000"> &#160;&#160;&#160;if line_id == &quot;hashline&quot; then</text>
<text text-anchor="middle" x="2607.5" y="-148.6002" font-family="Inconsolata" font-size="14.00" fill="#000000"> &#160;&#160;&#160;&#160;&#160;&#160;&#160;structure[1] = Hashline(line)</text>
<text text-anchor="middle" x="2607.5" y="-133.2002" font-family="Inconsolata" font-size="14.00" fill="#000000"> &#160;&#160;&#160;elseif line_id == &quot;handleline&quot; then</text>
<text text-anchor="middle" x="2607.5" y="-117.8002" font-family="Inconsolata" font-size="14.00" fill="#000000"> &#160;&#160;&#160;&#160;&#160;&#160;&#160;structure[1] = Handleline(line)</text>
<text text-anchor="middle" x="2607.5" y="-102.4001" font-family="Inconsolata" font-size="14.00" fill="#000000"> &#160;&#160;&#160;end</text>
<text text-anchor="middle" x="2607.5" y="-71.0001" font-family="Inconsolata" font-size="14.00" fill="#000000"> &#160;&#160;&#160;return structure</text>
<text text-anchor="middle" x="2607.5" y="-55.6001" font-family="Inconsolata" font-size="14.00" fill="#000000">end</text>
<text text-anchor="middle" x="2607.5" y="-8.2" font-family="Inconsolata" font-size="14.00" fill="#000000">return u.export(s, new)</text>
</g>
<!-- codeblock_26&#45;&gt;leaf_27 -->
<g id="edge27" class="edge">
<title>codeblock_26&#45;&gt;leaf_27</title>
<path fill="none" stroke="#000000" stroke-dasharray="5,2" d="M2607.5,-286.1845C2607.5,-273.5997 2607.5,-255.5689 2607.5,-235.8448"/>
<polygon fill="#000000" stroke="#000000" points="2611.0001,-235.7206 2607.5,-225.7207 2604.0001,-235.7207 2611.0001,-235.7206"/>
</g>
</g>
</svg>