<?xml version="1.0" encoding="UTF-8" standalone="no"?>
<!DOCTYPE svg PUBLIC "-//W3C//DTD SVG 1.1//EN"
 "http://www.w3.org/Graphics/SVG/1.1/DTD/svg11.dtd">
<!-- Generated by graphviz version 2.40.1 (20161225.0304)
 -->
<!-- Title: lpegNode Pages: 1 -->
<svg width="5019pt" height="656pt"
 viewBox="0.00 0.00 5018.50 656.00" xmlns="http://www.w3.org/2000/svg" xmlns:xlink="http://www.w3.org/1999/xlink">
<g id="graph0" class="graph" transform="scale(1 1) rotate(0) translate(4 652.0006)">
<title>lpegNode</title>
<polygon fill="#ffffff" stroke="transparent" points="-4,4 -4,-652.0006 5014.5,-652.0006 5014.5,4 -4,4"/>
<!-- doc_0 -->
<g id="node1" class="node">
<title>doc_0</title>
<ellipse fill="none" stroke="#000000" cx="2021.5" cy="-630.0006" rx="42.1216" ry="18"/>
<text text-anchor="middle" x="2021.5" y="-625.8006" font-family="Helvetica,sans-Serif" font-size="14.00" fill="#000000">doc &#45; 77</text>
</g>
<!-- section_1 -->
<g id="node2" class="node">
<title>section_1</title>
<ellipse fill="none" stroke="#000000" cx="2021.5" cy="-558.0006" rx="60.9826" ry="18"/>
<text text-anchor="middle" x="2021.5" y="-553.8006" font-family="Helvetica,sans-Serif" font-size="14.00" fill="#000000">section: 1&#45;26</text>
</g>
<!-- doc_0&#45;&gt;section_1 -->
<g id="edge1" class="edge">
<title>doc_0&#45;&gt;section_1</title>
<path fill="none" stroke="#000000" stroke-dasharray="5,2" d="M2021.5,-611.832C2021.5,-604.1316 2021.5,-594.975 2021.5,-586.4173"/>
<polygon fill="#000000" stroke="#000000" points="2025.0001,-586.4139 2021.5,-576.4139 2018.0001,-586.4139 2025.0001,-586.4139"/>
</g>
<!-- header_2 -->
<g id="node3" class="node">
<title>header_2</title>
<ellipse fill="none" stroke="#000000" cx="132.5" cy="-486.0006" rx="57.5495" ry="18"/>
<text text-anchor="middle" x="132.5" y="-481.8006" font-family="Helvetica,sans-Serif" font-size="14.00" fill="#000000">1 : Directory</text>
</g>
<!-- section_1&#45;&gt;header_2 -->
<g id="edge2" class="edge">
<title>section_1&#45;&gt;header_2</title>
<path fill="none" stroke="#000000" stroke-dasharray="5,2" d="M1960.8789,-556.8236C1693.8297,-551.5297 620.7243,-529.0874 284.5,-504.0006 255.2454,-501.8178 222.9554,-498.1703 195.6883,-494.7272"/>
<polygon fill="#000000" stroke="#000000" points="195.8646,-491.2212 185.5007,-493.4211 194.9744,-498.1644 195.8646,-491.2212"/>
</g>
<!-- prose_3 -->
<g id="node4" class="node">
<title>prose_3</title>
<ellipse fill="none" stroke="#000000" cx="325.5" cy="-486.0006" rx="32.4585" ry="18"/>
<text text-anchor="middle" x="325.5" y="-481.8006" font-family="Helvetica,sans-Serif" font-size="14.00" fill="#000000">prose</text>
</g>
<!-- section_1&#45;&gt;prose_3 -->
<g id="edge3" class="edge">
<title>section_1&#45;&gt;prose_3</title>
<path fill="none" stroke="#000000" stroke-dasharray="5,2" d="M1961.1385,-555.4381C1691.1808,-543.9776 597.7624,-497.5589 367.9939,-487.8046"/>
<polygon fill="#000000" stroke="#000000" points="367.8516,-484.2955 357.7121,-487.3681 367.5546,-491.2892 367.8516,-484.2955"/>
</g>
<!-- prose_4 -->
<g id="node5" class="node">
<title>prose_4</title>
<ellipse fill="none" stroke="#000000" cx="937.5" cy="-486.0006" rx="32.4585" ry="18"/>
<text text-anchor="middle" x="937.5" y="-481.8006" font-family="Helvetica,sans-Serif" font-size="14.00" fill="#000000">prose</text>
</g>
<!-- section_1&#45;&gt;prose_4 -->
<g id="edge4" class="edge">
<title>section_1&#45;&gt;prose_4</title>
<path fill="none" stroke="#000000" stroke-dasharray="5,2" d="M1962.0631,-554.0528C1766.7572,-541.0804 1147.6763,-499.9607 979.8292,-488.8122"/>
<polygon fill="#000000" stroke="#000000" points="979.8713,-485.3073 969.6613,-488.1368 979.4074,-492.2919 979.8713,-485.3073"/>
</g>
<!-- prose_5 -->
<g id="node6" class="node">
<title>prose_5</title>
<ellipse fill="none" stroke="#000000" cx="1805.5" cy="-486.0006" rx="32.4585" ry="18"/>
<text text-anchor="middle" x="1805.5" y="-481.8006" font-family="Helvetica,sans-Serif" font-size="14.00" fill="#000000">prose</text>
</g>
<!-- section_1&#45;&gt;prose_5 -->
<g id="edge5" class="edge">
<title>section_1&#45;&gt;prose_5</title>
<path fill="none" stroke="#000000" stroke-dasharray="5,2" d="M1981.1254,-544.5424C1941.5579,-531.3532 1881.7265,-511.4095 1843.1302,-498.544"/>
<polygon fill="#000000" stroke="#000000" points="1843.9151,-495.1164 1833.3214,-495.2744 1841.7014,-501.7572 1843.9151,-495.1164"/>
</g>
<!-- prose_6 -->
<g id="node7" class="node">
<title>prose_6</title>
<ellipse fill="none" stroke="#000000" cx="2075.5" cy="-486.0006" rx="32.4585" ry="18"/>
<text text-anchor="middle" x="2075.5" y="-481.8006" font-family="Helvetica,sans-Serif" font-size="14.00" fill="#000000">prose</text>
</g>
<!-- section_1&#45;&gt;prose_6 -->
<g id="edge6" class="edge">
<title>section_1&#45;&gt;prose_6</title>
<path fill="none" stroke="#000000" stroke-dasharray="5,2" d="M2034.8483,-540.2029C2041.5154,-531.3134 2049.6896,-520.4144 2056.9553,-510.7269"/>
<polygon fill="#000000" stroke="#000000" points="2059.8456,-512.7065 2063.0456,-502.6065 2054.2456,-508.5065 2059.8456,-512.7065"/>
</g>
<!-- codeblock_7 -->
<g id="node8" class="node">
<title>codeblock_7</title>
<ellipse fill="none" stroke="#000000" cx="2331.5" cy="-486.0006" rx="77.4211" ry="18"/>
<text text-anchor="middle" x="2331.5" y="-481.8006" font-family="Helvetica,sans-Serif" font-size="14.00" fill="#000000">code block 13&#45;16</text>
</g>
<!-- section_1&#45;&gt;codeblock_7 -->
<g id="edge7" class="edge">
<title>section_1&#45;&gt;codeblock_7</title>
<path fill="none" stroke="#000000" stroke-dasharray="5,2" d="M2069.5974,-546.8296C2122.4889,-534.5451 2207.7607,-514.7401 2266.5588,-501.0837"/>
<polygon fill="#000000" stroke="#000000" points="2267.5374,-504.4497 2276.4863,-498.778 2265.9537,-497.6312 2267.5374,-504.4497"/>
</g>
<!-- codeblock_8 -->
<g id="node9" class="node">
<title>codeblock_8</title>
<ellipse fill="none" stroke="#000000" cx="2673.5" cy="-486.0006" rx="77.4211" ry="18"/>
<text text-anchor="middle" x="2673.5" y="-481.8006" font-family="Helvetica,sans-Serif" font-size="14.00" fill="#000000">code block 18&#45;25</text>
</g>
<!-- section_1&#45;&gt;codeblock_8 -->
<g id="edge8" class="edge">
<title>section_1&#45;&gt;codeblock_8</title>
<path fill="none" stroke="#000000" stroke-dasharray="5,2" d="M2078.5044,-551.7057C2194.7785,-538.8656 2459.582,-509.6235 2593.208,-494.8672"/>
<polygon fill="#000000" stroke="#000000" points="2593.8243,-498.3205 2603.3797,-493.744 2593.0559,-491.3628 2593.8243,-498.3205"/>
</g>
<!-- section_9 -->
<g id="node10" class="node">
<title>section_9</title>
<ellipse fill="none" stroke="#000000" cx="3454.5" cy="-486.0006" rx="65.8187" ry="18"/>
<text text-anchor="middle" x="3454.5" y="-481.8006" font-family="Helvetica,sans-Serif" font-size="14.00" fill="#000000">section: 27&#45;77</text>
</g>
<!-- section_1&#45;&gt;section_9 -->
<g id="edge9" class="edge">
<title>section_1&#45;&gt;section_9</title>
<path fill="none" stroke="#000000" stroke-dasharray="5,2" d="M2081.7036,-554.9757C2310.6684,-543.4716 3127.0351,-502.4539 3379.5307,-489.7674"/>
<polygon fill="#000000" stroke="#000000" points="3379.8907,-493.2538 3389.7024,-489.2563 3379.5393,-486.2626 3379.8907,-493.2538"/>
</g>
<!-- leaf_10 -->
<g id="node11" class="node">
<title>leaf_10</title>
<polygon fill="none" stroke="#c0c0c0" points="93,-399.8005 0,-399.8005 0,-363.8005 93,-363.8005 93,-399.8005"/>
<text text-anchor="middle" x="46.5" y="-378.3005" font-family="Inconsolata" font-size="14.00" fill="#000000">* Directory</text>
</g>
<!-- header_2&#45;&gt;leaf_10 -->
<g id="edge10" class="edge">
<title>header_2&#45;&gt;leaf_10</title>
<path fill="none" stroke="#000000" stroke-dasharray="5,2" d="M117.9113,-468.3245C104.219,-451.7345 83.5701,-426.7157 67.9927,-407.8417"/>
<polygon fill="#000000" stroke="#000000" points="70.5141,-405.3982 61.4494,-399.9136 65.1154,-409.854 70.5141,-405.3982"/>
</g>
<!-- raw_11 -->
<g id="node12" class="node">
<title>raw_11</title>
<ellipse fill="none" stroke="#000000" cx="138.5" cy="-381.8005" rx="27" ry="18"/>
<text text-anchor="middle" x="138.5" y="-377.6005" font-family="Helvetica,sans-Serif" font-size="14.00" fill="#000000">raw</text>
</g>
<!-- prose_3&#45;&gt;raw_11 -->
<g id="edge11" class="edge">
<title>prose_3&#45;&gt;raw_11</title>
<path fill="none" stroke="#000000" stroke-dasharray="5,2" d="M294.5413,-480.6159C262.0442,-473.7434 210.7353,-459.3219 174.5,-432.0006 165.9835,-425.5792 158.6509,-416.5707 152.8677,-407.9544"/>
<polygon fill="#000000" stroke="#000000" points="155.6881,-405.8634 147.4171,-399.2421 149.7537,-409.5761 155.6881,-405.8634"/>
</g>
<!-- prespace_12 -->
<g id="node13" class="node">
<title>prespace_12</title>
<ellipse fill="none" stroke="#000000" cx="229.5" cy="-381.8005" rx="46.4736" ry="18"/>
<text text-anchor="middle" x="229.5" y="-377.6005" font-family="Helvetica,sans-Serif" font-size="14.00" fill="#000000">prespace</text>
</g>
<!-- prose_3&#45;&gt;prespace_12 -->
<g id="edge12" class="edge">
<title>prose_3&#45;&gt;prespace_12</title>
<path fill="none" stroke="#000000" stroke-dasharray="5,2" d="M310.5,-469.7194C294.8577,-452.7409 270.153,-425.926 252.1367,-406.3708"/>
<polygon fill="#000000" stroke="#000000" points="254.7023,-403.9901 245.3524,-399.0071 249.5541,-408.7331 254.7023,-403.9901"/>
</g>
<!-- literal_13 -->
<g id="node14" class="node">
<title>literal_13</title>
<ellipse fill="none" stroke="#000000" cx="325.5" cy="-381.8005" rx="31.481" ry="18"/>
<text text-anchor="middle" x="325.5" y="-377.6005" font-family="Helvetica,sans-Serif" font-size="14.00" fill="#000000">literal</text>
</g>
<!-- prose_3&#45;&gt;literal_13 -->
<g id="edge13" class="edge">
<title>prose_3&#45;&gt;literal_13</title>
<path fill="none" stroke="#000000" stroke-dasharray="5,2" d="M325.5,-467.8504C325.5,-451.9603 325.5,-428.6078 325.5,-410.2382"/>
<polygon fill="#000000" stroke="#000000" points="329.0001,-410.0924 325.5,-400.0924 322.0001,-410.0925 329.0001,-410.0924"/>
</g>
<!-- raw_14 -->
<g id="node15" class="node">
<title>raw_14</title>
<ellipse fill="none" stroke="#000000" cx="468.5" cy="-381.8005" rx="27" ry="18"/>
<text text-anchor="middle" x="468.5" y="-377.6005" font-family="Helvetica,sans-Serif" font-size="14.00" fill="#000000">raw</text>
</g>
<!-- prose_3&#45;&gt;raw_14 -->
<g id="edge14" class="edge">
<title>prose_3&#45;&gt;raw_14</title>
<path fill="none" stroke="#000000" stroke-dasharray="5,2" d="M345.3835,-471.512C370.5601,-453.1666 414.0193,-421.4991 441.9957,-401.1135"/>
<polygon fill="#000000" stroke="#000000" points="444.1228,-403.8942 450.1436,-395.1763 440.0004,-398.2368 444.1228,-403.8942"/>
</g>
<!-- raw_19 -->
<g id="node20" class="node">
<title>raw_19</title>
<ellipse fill="none" stroke="#000000" cx="750.5" cy="-381.8005" rx="27" ry="18"/>
<text text-anchor="middle" x="750.5" y="-377.6005" font-family="Helvetica,sans-Serif" font-size="14.00" fill="#000000">raw</text>
</g>
<!-- prose_4&#45;&gt;raw_19 -->
<g id="edge19" class="edge">
<title>prose_4&#45;&gt;raw_19</title>
<path fill="none" stroke="#000000" stroke-dasharray="5,2" d="M906.5413,-480.6159C874.0442,-473.7434 822.7353,-459.3219 786.5,-432.0006 777.9835,-425.5792 770.6509,-416.5707 764.8677,-407.9544"/>
<polygon fill="#000000" stroke="#000000" points="767.6881,-405.8634 759.4171,-399.2421 761.7537,-409.5761 767.6881,-405.8634"/>
</g>
<!-- prespace_20 -->
<g id="node21" class="node">
<title>prespace_20</title>
<ellipse fill="none" stroke="#000000" cx="841.5" cy="-381.8005" rx="46.4736" ry="18"/>
<text text-anchor="middle" x="841.5" y="-377.6005" font-family="Helvetica,sans-Serif" font-size="14.00" fill="#000000">prespace</text>
</g>
<!-- prose_4&#45;&gt;prespace_20 -->
<g id="edge20" class="edge">
<title>prose_4&#45;&gt;prespace_20</title>
<path fill="none" stroke="#000000" stroke-dasharray="5,2" d="M922.5,-469.7194C906.8577,-452.7409 882.153,-425.926 864.1367,-406.3708"/>
<polygon fill="#000000" stroke="#000000" points="866.7023,-403.9901 857.3524,-399.0071 861.5541,-408.7331 866.7023,-403.9901"/>
</g>
<!-- literal_21 -->
<g id="node22" class="node">
<title>literal_21</title>
<ellipse fill="none" stroke="#000000" cx="937.5" cy="-381.8005" rx="31.481" ry="18"/>
<text text-anchor="middle" x="937.5" y="-377.6005" font-family="Helvetica,sans-Serif" font-size="14.00" fill="#000000">literal</text>
</g>
<!-- prose_4&#45;&gt;literal_21 -->
<g id="edge21" class="edge">
<title>prose_4&#45;&gt;literal_21</title>
<path fill="none" stroke="#000000" stroke-dasharray="5,2" d="M937.5,-467.8504C937.5,-451.9603 937.5,-428.6078 937.5,-410.2382"/>
<polygon fill="#000000" stroke="#000000" points="941.0001,-410.0924 937.5,-400.0924 934.0001,-410.0925 941.0001,-410.0924"/>
</g>
<!-- raw_22 -->
<g id="node23" class="node">
<title>raw_22</title>
<ellipse fill="none" stroke="#000000" cx="1084.5" cy="-381.8005" rx="27" ry="18"/>
<text text-anchor="middle" x="1084.5" y="-377.6005" font-family="Helvetica,sans-Serif" font-size="14.00" fill="#000000">raw</text>
</g>
<!-- prose_4&#45;&gt;raw_22 -->
<g id="edge22" class="edge">
<title>prose_4&#45;&gt;raw_22</title>
<path fill="none" stroke="#000000" stroke-dasharray="5,2" d="M957.6315,-471.7305C983.5702,-453.344 1028.7488,-421.3194 1057.608,-400.8628"/>
<polygon fill="#000000" stroke="#000000" points="1059.8667,-403.5518 1066.001,-394.9134 1055.8187,-397.841 1059.8667,-403.5518"/>
</g>
<!-- raw_27 -->
<g id="node28" class="node">
<title>raw_27</title>
<ellipse fill="none" stroke="#000000" cx="1697.5" cy="-381.8005" rx="27" ry="18"/>
<text text-anchor="middle" x="1697.5" y="-377.6005" font-family="Helvetica,sans-Serif" font-size="14.00" fill="#000000">raw</text>
</g>
<!-- prose_5&#45;&gt;raw_27 -->
<g id="edge27" class="edge">
<title>prose_5&#45;&gt;raw_27</title>
<path fill="none" stroke="#000000" stroke-dasharray="5,2" d="M1789.0971,-470.1749C1770.7836,-452.5057 1741.0167,-423.7861 1720.4104,-403.9048"/>
<polygon fill="#000000" stroke="#000000" points="1722.631,-401.1839 1713.0043,-396.7593 1717.7707,-406.2215 1722.631,-401.1839"/>
</g>
<!-- raw_29 -->
<g id="node30" class="node">
<title>raw_29</title>
<ellipse fill="none" stroke="#000000" cx="1984.5" cy="-381.8005" rx="27" ry="18"/>
<text text-anchor="middle" x="1984.5" y="-377.6005" font-family="Helvetica,sans-Serif" font-size="14.00" fill="#000000">raw</text>
</g>
<!-- prose_6&#45;&gt;raw_29 -->
<g id="edge29" class="edge">
<title>prose_6&#45;&gt;raw_29</title>
<path fill="none" stroke="#000000" stroke-dasharray="5,2" d="M2058.3794,-470.6391C2047.1224,-460.198 2032.3399,-445.8215 2020.5,-432.0006 2013.8389,-424.225 2007.1393,-415.2673 2001.3564,-407.0906"/>
<polygon fill="#000000" stroke="#000000" points="2004.0581,-404.8444 1995.4862,-398.6175 1998.304,-408.8307 2004.0581,-404.8444"/>
</g>
<!-- prespace_30 -->
<g id="node31" class="node">
<title>prespace_30</title>
<ellipse fill="none" stroke="#000000" cx="2075.5" cy="-381.8005" rx="46.4736" ry="18"/>
<text text-anchor="middle" x="2075.5" y="-377.6005" font-family="Helvetica,sans-Serif" font-size="14.00" fill="#000000">prespace</text>
</g>
<!-- prose_6&#45;&gt;prespace_30 -->
<g id="edge30" class="edge">
<title>prose_6&#45;&gt;prespace_30</title>
<path fill="none" stroke="#000000" stroke-dasharray="5,2" d="M2075.5,-467.8504C2075.5,-451.9603 2075.5,-428.6078 2075.5,-410.2382"/>
<polygon fill="#000000" stroke="#000000" points="2079.0001,-410.0924 2075.5,-400.0924 2072.0001,-410.0925 2079.0001,-410.0924"/>
</g>
<!-- literal_31 -->
<g id="node32" class="node">
<title>literal_31</title>
<ellipse fill="none" stroke="#000000" cx="2171.5" cy="-381.8005" rx="31.481" ry="18"/>
<text text-anchor="middle" x="2171.5" y="-377.6005" font-family="Helvetica,sans-Serif" font-size="14.00" fill="#000000">literal</text>
</g>
<!-- prose_6&#45;&gt;literal_31 -->
<g id="edge31" class="edge">
<title>prose_6&#45;&gt;literal_31</title>
<path fill="none" stroke="#000000" stroke-dasharray="5,2" d="M2092.3387,-470.3898C2103.4767,-459.8435 2118.2325,-445.4435 2130.5,-432.0006 2137.8956,-423.8965 2145.605,-414.6837 2152.3165,-406.3823"/>
<polygon fill="#000000" stroke="#000000" points="2155.1389,-408.4568 2158.6467,-398.4595 2149.6701,-404.0873 2155.1389,-408.4568"/>
</g>
<!-- raw_32 -->
<g id="node33" class="node">
<title>raw_32</title>
<ellipse fill="none" stroke="#000000" cx="2247.5" cy="-381.8005" rx="27" ry="18"/>
<text text-anchor="middle" x="2247.5" y="-377.6005" font-family="Helvetica,sans-Serif" font-size="14.00" fill="#000000">raw</text>
</g>
<!-- prose_6&#45;&gt;raw_32 -->
<g id="edge32" class="edge">
<title>prose_6&#45;&gt;raw_32</title>
<path fill="none" stroke="#000000" stroke-dasharray="5,2" d="M2105.5714,-479.3297C2134.9176,-471.6792 2179.6724,-456.8718 2211.5,-432.0006 2219.9043,-425.4332 2227.2119,-416.3921 2233.0065,-407.7906"/>
<polygon fill="#000000" stroke="#000000" points="2236.1079,-409.434 2238.48,-399.108 2230.1864,-405.701 2236.1079,-409.434"/>
</g>
<!-- leaf_37 -->
<g id="node38" class="node">
<title>leaf_37</title>
<polygon fill="none" stroke="#c0c0c0" points="2624,-401.1011 2293,-401.1011 2293,-362.5 2624,-362.5 2624,-401.1011"/>
<text text-anchor="middle" x="2458.5" y="-386.0006" font-family="Inconsolata" font-size="14.00" fill="#000000">local Dir = setmetatable({}, {__index = Dir})</text>
<text text-anchor="middle" x="2458.5" y="-370.6005" font-family="Inconsolata" font-size="14.00" fill="#000000">Dir.isDir = Dir</text>
</g>
<!-- codeblock_7&#45;&gt;leaf_37 -->
<g id="edge37" class="edge">
<title>codeblock_7&#45;&gt;leaf_37</title>
<path fill="none" stroke="#000000" stroke-dasharray="5,2" d="M2352.7569,-468.5599C2372.9699,-451.9757 2403.6338,-426.8167 2426.7448,-407.8548"/>
<polygon fill="#000000" stroke="#000000" points="2429.0641,-410.4792 2434.575,-401.4304 2424.624,-405.0676 2429.0641,-410.4792"/>
</g>
<!-- leaf_38 -->
<g id="node39" class="node">
<title>leaf_38</title>
<polygon fill="none" stroke="#c0c0c0" points="3043,-432.2015 2642,-432.2015 2642,-331.3995 3043,-331.3995 3043,-432.2015"/>
<text text-anchor="middle" x="2842.5" y="-416.8006" font-family="Inconsolata" font-size="14.00" fill="#000000">local pl_path = require &quot;pl.path&quot; &#45;&#45; Favor lfs directly</text>
<text text-anchor="middle" x="2842.5" y="-401.4006" font-family="Inconsolata" font-size="14.00" fill="#000000">local lfs = require &quot;lfs&quot;</text>
<text text-anchor="middle" x="2842.5" y="-386.0006" font-family="Inconsolata" font-size="14.00" fill="#000000">local attributes = lfs.attributes</text>
<text text-anchor="middle" x="2842.5" y="-370.6005" font-family="Inconsolata" font-size="14.00" fill="#000000">local Path = require &quot;walk/path&quot;</text>
<text text-anchor="middle" x="2842.5" y="-355.2005" font-family="Inconsolata" font-size="14.00" fill="#000000">local isdir &#160;= pl_path.isdir</text>
<text text-anchor="middle" x="2842.5" y="-339.8005" font-family="Inconsolata" font-size="14.00" fill="#000000">local mkdir = lfs.mkdir</text>
</g>
<!-- codeblock_8&#45;&gt;leaf_38 -->
<g id="edge38" class="edge">
<title>codeblock_8&#45;&gt;leaf_38</title>
<path fill="none" stroke="#000000" stroke-dasharray="5,2" d="M2701.0289,-469.0272C2715.3042,-460.2255 2733.6399,-448.9203 2752.3468,-437.3862"/>
<polygon fill="#000000" stroke="#000000" points="2754.2795,-440.3064 2760.9547,-432.0788 2750.6057,-434.3479 2754.2795,-440.3064"/>
</g>
<!-- header_39 -->
<g id="node40" class="node">
<title>header_39</title>
<ellipse fill="none" stroke="#000000" cx="3125.5" cy="-381.8005" rx="64.7891" ry="18"/>
<text text-anchor="middle" x="3125.5" y="-377.6005" font-family="Helvetica,sans-Serif" font-size="14.00" fill="#000000">3 : Dir:exists()</text>
</g>
<!-- section_9&#45;&gt;header_39 -->
<g id="edge39" class="edge">
<title>section_9&#45;&gt;header_39</title>
<path fill="none" stroke="#000000" stroke-dasharray="5,2" d="M3392.7269,-479.7044C3339.7948,-472.7387 3262.374,-458.7595 3199.5,-432.0006 3183.5638,-425.2183 3167.4637,-414.8136 3154.369,-405.2318"/>
<polygon fill="#000000" stroke="#000000" points="3156.3231,-402.3219 3146.2299,-399.1004 3152.1112,-407.913 3156.3231,-402.3219"/>
</g>
<!-- prose_40 -->
<g id="node41" class="node">
<title>prose_40</title>
<ellipse fill="none" stroke="#000000" cx="3240.5" cy="-381.8005" rx="32.4585" ry="18"/>
<text text-anchor="middle" x="3240.5" y="-377.6005" font-family="Helvetica,sans-Serif" font-size="14.00" fill="#000000">prose</text>
</g>
<!-- section_9&#45;&gt;prose_40 -->
<g id="edge40" class="edge">
<title>section_9&#45;&gt;prose_40</title>
<path fill="none" stroke="#000000" stroke-dasharray="5,2" d="M3397.9028,-476.6884C3362.5209,-468.9052 3317.2389,-455.2178 3282.5,-432.0006 3272.7631,-425.4931 3264.0589,-416.089 3257.134,-407.1753"/>
<polygon fill="#000000" stroke="#000000" points="3259.7974,-404.8885 3251.0642,-398.89 3254.1506,-409.0253 3259.7974,-404.8885"/>
</g>
<!-- codeblock_41 -->
<g id="node42" class="node">
<title>codeblock_41</title>
<ellipse fill="none" stroke="#000000" cx="3368.5" cy="-381.8005" rx="77.4211" ry="18"/>
<text text-anchor="middle" x="3368.5" y="-377.6005" font-family="Helvetica,sans-Serif" font-size="14.00" fill="#000000">code block 29&#45;33</text>
</g>
<!-- section_9&#45;&gt;codeblock_41 -->
<g id="edge41" class="edge">
<title>section_9&#45;&gt;codeblock_41</title>
<path fill="none" stroke="#000000" stroke-dasharray="5,2" d="M3439.9113,-468.3245C3426.1355,-451.6334 3405.318,-426.4103 3389.7083,-407.4971"/>
<polygon fill="#000000" stroke="#000000" points="3392.2251,-405.048 3383.1603,-399.5634 3386.8263,-409.5037 3392.2251,-405.048"/>
</g>
<!-- codeblock_42 -->
<g id="node43" class="node">
<title>codeblock_42</title>
<ellipse fill="none" stroke="#000000" cx="3541.5" cy="-381.8005" rx="77.4211" ry="18"/>
<text text-anchor="middle" x="3541.5" y="-377.6005" font-family="Helvetica,sans-Serif" font-size="14.00" fill="#000000">code block 35&#45;50</text>
</g>
<!-- section_9&#45;&gt;codeblock_42 -->
<g id="edge42" class="edge">
<title>section_9&#45;&gt;codeblock_42</title>
<path fill="none" stroke="#000000" stroke-dasharray="5,2" d="M3469.2584,-468.3245C3483.2568,-451.5585 3504.4429,-426.1839 3520.2572,-407.2431"/>
<polygon fill="#000000" stroke="#000000" points="3522.9468,-409.4828 3526.6692,-399.5634 3517.5734,-404.9964 3522.9468,-409.4828"/>
</g>
<!-- codeblock_43 -->
<g id="node44" class="node">
<title>codeblock_43</title>
<ellipse fill="none" stroke="#000000" cx="3797.5" cy="-381.8005" rx="77.4211" ry="18"/>
<text text-anchor="middle" x="3797.5" y="-377.6005" font-family="Helvetica,sans-Serif" font-size="14.00" fill="#000000">code block 52&#45;56</text>
</g>
<!-- section_9&#45;&gt;codeblock_43 -->
<g id="edge43" class="edge">
<title>section_9&#45;&gt;codeblock_43</title>
<path fill="none" stroke="#000000" stroke-dasharray="5,2" d="M3498.6391,-472.5916C3560.3776,-453.836 3672.5636,-419.755 3740.5355,-399.1058"/>
<polygon fill="#000000" stroke="#000000" points="3741.6812,-402.4158 3750.232,-396.1601 3739.6464,-395.718 3741.6812,-402.4158"/>
</g>
<!-- codeblock_44 -->
<g id="node45" class="node">
<title>codeblock_44</title>
<ellipse fill="none" stroke="#000000" cx="4140.5" cy="-381.8005" rx="77.4211" ry="18"/>
<text text-anchor="middle" x="4140.5" y="-377.6005" font-family="Helvetica,sans-Serif" font-size="14.00" fill="#000000">code block 59&#45;73</text>
</g>
<!-- section_9&#45;&gt;codeblock_44 -->
<g id="edge44" class="edge">
<title>section_9&#45;&gt;codeblock_44</title>
<path fill="none" stroke="#000000" stroke-dasharray="5,2" d="M3516.1376,-479.5685C3599.6363,-470.5526 3753.2353,-452.8969 3883.5,-432.0006 3948.3062,-421.6048 4021.756,-406.9683 4073.4881,-396.1807"/>
<polygon fill="#000000" stroke="#000000" points="4074.4655,-399.5521 4083.5359,-394.0769 4073.0309,-392.7006 4074.4655,-399.5521"/>
</g>
<!-- codeblock_45 -->
<g id="node46" class="node">
<title>codeblock_45</title>
<ellipse fill="none" stroke="#000000" cx="4563.5" cy="-381.8005" rx="77.4211" ry="18"/>
<text text-anchor="middle" x="4563.5" y="-377.6005" font-family="Helvetica,sans-Serif" font-size="14.00" fill="#000000">code block 75&#45;77</text>
</g>
<!-- section_9&#45;&gt;codeblock_45 -->
<g id="edge45" class="edge">
<title>section_9&#45;&gt;codeblock_45</title>
<path fill="none" stroke="#000000" stroke-dasharray="5,2" d="M3519.4665,-483.1714C3652.4588,-477.0018 3965.2232,-460.5546 4226.5,-432.0006 4318.0873,-421.9914 4422.9755,-405.5791 4491.0767,-394.2604"/>
<polygon fill="#000000" stroke="#000000" points="4491.9799,-397.6581 4501.267,-392.5591 4490.8271,-390.7537 4491.9799,-397.6581"/>
</g>
<!-- leaf_15 -->
<g id="node16" class="node">
<title>leaf_15</title>
<polygon fill="none" stroke="#c0c0c0" points="131.5,-201.8002 77.5,-201.8002 77.5,-165.8002 131.5,-165.8002 131.5,-201.8002"/>
</g>
<!-- raw_11&#45;&gt;leaf_15 -->
<g id="edge15" class="edge">
<title>raw_11&#45;&gt;leaf_15</title>
<path fill="none" stroke="#000000" stroke-dasharray="5,2" d="M135.4228,-363.8801C129.4829,-329.2894 116.3989,-253.0942 109.3031,-211.771"/>
<polygon fill="#000000" stroke="#000000" points="112.7368,-211.0862 107.5948,-201.8228 105.8378,-212.2709 112.7368,-211.0862"/>
</g>
<!-- leaf_16 -->
<g id="node17" class="node">
<title>leaf_16</title>
<polygon fill="none" stroke="#c0c0c0" points="203.5,-201.8002 149.5,-201.8002 149.5,-165.8002 203.5,-165.8002 203.5,-201.8002"/>
</g>
<!-- prespace_12&#45;&gt;leaf_16 -->
<g id="edge16" class="edge">
<title>prespace_12&#45;&gt;leaf_16</title>
<path fill="none" stroke="#000000" stroke-dasharray="5,2" d="M224.7031,-363.8801C215.4243,-329.2159 194.9617,-252.7704 183.9168,-211.5083"/>
<polygon fill="#000000" stroke="#000000" points="187.291,-210.5777 181.3242,-201.8228 180.5291,-212.3878 187.291,-210.5777"/>
</g>
<!-- leaf_17 -->
<g id="node18" class="node">
<title>leaf_17</title>
<polygon fill="none" stroke="#c0c0c0" points="279.5,-201.8002 221.5,-201.8002 221.5,-165.8002 279.5,-165.8002 279.5,-201.8002"/>
<text text-anchor="middle" x="250.5" y="-180.3002" font-family="Inconsolata" font-size="14.00" fill="#000000">bridge</text>
</g>
<!-- literal_13&#45;&gt;leaf_17 -->
<g id="edge17" class="edge">
<title>literal_13&#45;&gt;leaf_17</title>
<path fill="none" stroke="#000000" stroke-dasharray="5,2" d="M317.4391,-364.1364C309.6546,-346.8277 297.7219,-319.6225 288.5,-295.6004 277.6687,-267.3861 266.7105,-234.5917 259.3635,-211.8488"/>
<polygon fill="#000000" stroke="#000000" points="262.6426,-210.6122 256.2553,-202.1592 255.9771,-212.7503 262.6426,-210.6122"/>
</g>
<!-- leaf_18 -->
<g id="node19" class="node">
<title>leaf_18</title>
<polygon fill="none" stroke="#c0c0c0" points="705.5,-201.8002 297.5,-201.8002 297.5,-165.8002 705.5,-165.8002 705.5,-201.8002"/>
<text text-anchor="middle" x="501.5" y="-180.3002" font-family="Inconsolata" font-size="14.00" fill="#000000"> is going to have a certain attitude toward directories.</text>
</g>
<!-- raw_14&#45;&gt;leaf_18 -->
<g id="edge18" class="edge">
<title>raw_14&#45;&gt;leaf_18</title>
<path fill="none" stroke="#000000" stroke-dasharray="5,2" d="M471.4867,-363.8801C477.2518,-329.2894 489.951,-253.0942 496.8382,-211.771"/>
<polygon fill="#000000" stroke="#000000" points="500.3045,-212.2622 498.4962,-201.8228 493.3998,-211.1113 500.3045,-212.2622"/>
</g>
<!-- leaf_23 -->
<g id="node24" class="node">
<title>leaf_23</title>
<polygon fill="none" stroke="#c0c0c0" points="777.5,-203.7023 723.5,-203.7023 723.5,-163.8981 777.5,-163.8981 777.5,-203.7023"/>
<text text-anchor="middle" x="750.5" y="-172.3002" font-family="Inconsolata" font-size="14.00" fill="#000000">The</text>
</g>
<!-- raw_19&#45;&gt;leaf_23 -->
<g id="edge23" class="edge">
<title>raw_19&#45;&gt;leaf_23</title>
<path fill="none" stroke="#000000" stroke-dasharray="5,2" d="M750.5,-363.528C750.5,-329.3571 750.5,-255.4837 750.5,-213.8699"/>
<polygon fill="#000000" stroke="#000000" points="754.0001,-213.7834 750.5,-203.7834 747.0001,-213.7834 754.0001,-213.7834"/>
</g>
<!-- leaf_24 -->
<g id="node25" class="node">
<title>leaf_24</title>
<polygon fill="none" stroke="#c0c0c0" points="849.5,-201.8002 795.5,-201.8002 795.5,-165.8002 849.5,-165.8002 849.5,-201.8002"/>
<text text-anchor="middle" x="822.5" y="-180.3002" font-family="Inconsolata" font-size="14.00" fill="#000000"> </text>
</g>
<!-- prespace_20&#45;&gt;leaf_24 -->
<g id="edge24" class="edge">
<title>prespace_20&#45;&gt;leaf_24</title>
<path fill="none" stroke="#000000" stroke-dasharray="5,2" d="M839.7466,-363.528C836.4239,-328.9024 829.1894,-253.5105 825.2277,-212.2258"/>
<polygon fill="#000000" stroke="#000000" points="828.6885,-211.6485 824.2492,-202.0285 821.7205,-212.3172 828.6885,-211.6485"/>
</g>
<!-- leaf_25 -->
<g id="node26" class="node">
<title>leaf_25</title>
<polygon fill="none" stroke="#c0c0c0" points="921.5,-201.8002 867.5,-201.8002 867.5,-165.8002 921.5,-165.8002 921.5,-201.8002"/>
<text text-anchor="middle" x="894.5" y="-180.3002" font-family="Inconsolata" font-size="14.00" fill="#000000">orb</text>
</g>
<!-- literal_21&#45;&gt;leaf_25 -->
<g id="edge25" class="edge">
<title>literal_21&#45;&gt;leaf_25</title>
<path fill="none" stroke="#000000" stroke-dasharray="5,2" d="M933.6082,-363.8801C926.0961,-329.2894 909.5487,-253.0942 900.5745,-211.771"/>
<polygon fill="#000000" stroke="#000000" points="903.9566,-210.8522 898.414,-201.8228 897.116,-212.3378 903.9566,-210.8522"/>
</g>
<!-- leaf_26 -->
<g id="node27" class="node">
<title>leaf_26</title>
<polygon fill="none" stroke="#c0c0c0" points="1369,-201.8002 940,-201.8002 940,-165.8002 1369,-165.8002 1369,-201.8002"/>
<text text-anchor="middle" x="1154.5" y="-180.3002" font-family="Inconsolata" font-size="14.00" fill="#000000"> directory module will emulate and prototype that attitude.</text>
</g>
<!-- raw_22&#45;&gt;leaf_26 -->
<g id="edge26" class="edge">
<title>raw_22&#45;&gt;leaf_26</title>
<path fill="none" stroke="#000000" stroke-dasharray="5,2" d="M1090.712,-364.2293C1102.9221,-329.6923 1130.1297,-252.7334 1144.7545,-211.3661"/>
<polygon fill="#000000" stroke="#000000" points="1148.0666,-212.498 1148.1,-201.9032 1141.4669,-210.1647 1148.0666,-212.498"/>
</g>
<!-- leaf_28 -->
<g id="node29" class="node">
<title>leaf_28</title>
<polygon fill="none" stroke="#c0c0c0" points="1900,-203.7023 1387,-203.7023 1387,-163.8981 1900,-163.8981 1900,-203.7023"/>
<text text-anchor="middle" x="1643.5" y="-172.3002" font-family="Inconsolata" font-size="14.00" fill="#000000">&#45; [ ] #todo &#160;Add and use raw &quot;lfs&quot; dependency, since we already need it</text>
</g>
<!-- raw_27&#45;&gt;leaf_28 -->
<g id="edge28" class="edge">
<title>raw_27&#45;&gt;leaf_28</title>
<path fill="none" stroke="#000000" stroke-dasharray="5,2" d="M1692.6126,-363.8801C1683.3024,-329.7425 1662.9408,-255.0832 1651.5761,-213.4127"/>
<polygon fill="#000000" stroke="#000000" points="1654.9008,-212.3007 1648.8928,-203.574 1648.1474,-214.1426 1654.9008,-212.3007"/>
</g>
<!-- leaf_33 -->
<g id="node34" class="node">
<title>leaf_33</title>
<polygon fill="none" stroke="#c0c0c0" points="2459,-211.1006 1918,-211.1006 1918,-156.4998 2459,-156.4998 2459,-211.1006"/>
<text text-anchor="middle" x="2188.5" y="-180.0002" font-family="Inconsolata" font-size="14.00" fill="#000000">&#45; [ ] #todo &#160;And this is the wrong place to put it but, phase out penlight.</text>
<text text-anchor="middle" x="2188.5" y="-164.6002" font-family="Inconsolata" font-size="14.00" fill="#000000"> &#160;&#160;&#160;&#160;&#160;&#160;&#160;&#160;&#160;&#160;&#160;&#160;All I use is strict and wrappers around</text>
</g>
<!-- raw_29&#45;&gt;leaf_33 -->
<g id="edge33" class="edge">
<title>raw_29&#45;&gt;leaf_33</title>
<path fill="none" stroke="#000000" stroke-dasharray="5,2" d="M1995.2783,-364.8004C2002.0061,-354.7203 2011.1433,-341.9365 2020.5,-331.6004 2059.1174,-288.9406 2109.291,-246.1654 2144.7188,-217.6905"/>
<polygon fill="#000000" stroke="#000000" points="2147.3106,-220.0999 2152.9415,-211.1252 2142.943,-214.6296 2147.3106,-220.0999"/>
</g>
<!-- leaf_34 -->
<g id="node35" class="node">
<title>leaf_34</title>
<polygon fill="none" stroke="#c0c0c0" points="2531.5,-201.8002 2477.5,-201.8002 2477.5,-165.8002 2531.5,-165.8002 2531.5,-201.8002"/>
<text text-anchor="middle" x="2504.5" y="-180.3002" font-family="Inconsolata" font-size="14.00" fill="#000000"> </text>
</g>
<!-- prespace_30&#45;&gt;leaf_34 -->
<g id="edge34" class="edge">
<title>prespace_30&#45;&gt;leaf_34</title>
<path fill="none" stroke="#000000" stroke-dasharray="5,2" d="M2089.7332,-364.3062C2100.0519,-352.9428 2115.0388,-338.9276 2131.5,-331.6004 2200.1046,-301.0632 2409.0601,-342.7586 2467.5,-295.6004 2492.5316,-275.4012 2500.7707,-237.8053 2503.4033,-211.8235"/>
<polygon fill="#000000" stroke="#000000" points="2506.8948,-212.0684 2504.2014,-201.8216 2499.9169,-211.5115 2506.8948,-212.0684"/>
</g>
<!-- leaf_35 -->
<g id="node36" class="node">
<title>leaf_35</title>
<polygon fill="none" stroke="#c0c0c0" points="2603.5,-201.8002 2549.5,-201.8002 2549.5,-165.8002 2603.5,-165.8002 2603.5,-201.8002"/>
<text text-anchor="middle" x="2576.5" y="-180.3002" font-family="Inconsolata" font-size="14.00" fill="#000000">lfs</text>
</g>
<!-- literal_31&#45;&gt;leaf_35 -->
<g id="edge35" class="edge">
<title>literal_31&#45;&gt;leaf_35</title>
<path fill="none" stroke="#000000" stroke-dasharray="5,2" d="M2180.5755,-364.3653C2187.4589,-353.0282 2198.0301,-339.0203 2211.5,-331.6004 2340.3407,-260.6285 2426.5062,-388.5647 2540.5,-295.6004 2565.2223,-275.4389 2573.1729,-238.1664 2575.6178,-212.2259"/>
<polygon fill="#000000" stroke="#000000" points="2579.1106,-212.4509 2576.3443,-202.2236 2572.129,-211.9438 2579.1106,-212.4509"/>
</g>
<!-- leaf_36 -->
<g id="node37" class="node">
<title>leaf_36</title>
<polygon fill="none" stroke="#c0c0c0" points="2675.5,-201.8002 2621.5,-201.8002 2621.5,-165.8002 2675.5,-165.8002 2675.5,-201.8002"/>
<text text-anchor="middle" x="2648.5" y="-180.3002" font-family="Inconsolata" font-size="14.00" fill="#000000">.</text>
</g>
<!-- raw_32&#45;&gt;leaf_36 -->
<g id="edge36" class="edge">
<title>raw_32&#45;&gt;leaf_36</title>
<path fill="none" stroke="#000000" stroke-dasharray="5,2" d="M2255.2501,-364.3953C2261.2588,-353.0716 2270.7216,-339.0674 2283.5,-331.6004 2410.5017,-257.3879 2498.5062,-388.5647 2612.5,-295.6004 2637.2223,-275.4389 2645.1729,-238.1664 2647.6178,-212.2259"/>
<polygon fill="#000000" stroke="#000000" points="2651.1106,-212.4509 2648.3443,-202.2236 2644.129,-211.9438 2651.1106,-212.4509"/>
</g>
<!-- leaf_46 -->
<g id="node47" class="node">
<title>leaf_46</title>
<polygon fill="none" stroke="#c0c0c0" points="3024.5,-201.8002 2896.5,-201.8002 2896.5,-165.8002 3024.5,-165.8002 3024.5,-201.8002"/>
<text text-anchor="middle" x="2960.5" y="-180.3002" font-family="Inconsolata" font-size="14.00" fill="#000000">*** Dir:exists()</text>
</g>
<!-- header_39&#45;&gt;leaf_46 -->
<g id="edge46" class="edge">
<title>header_39&#45;&gt;leaf_46</title>
<path fill="none" stroke="#000000" stroke-dasharray="5,2" d="M3104.4006,-364.59C3084.8111,-348.0435 3055.4494,-321.7556 3033.5,-295.6004 3010.873,-268.6378 2989.4055,-234.3274 2975.6825,-210.8716"/>
<polygon fill="#000000" stroke="#000000" points="2978.6753,-209.0554 2970.6424,-202.1472 2972.614,-212.557 2978.6753,-209.0554"/>
</g>
<!-- raw_47 -->
<g id="node48" class="node">
<title>raw_47</title>
<ellipse fill="none" stroke="#000000" cx="3069.5" cy="-183.8002" rx="27" ry="18"/>
<text text-anchor="middle" x="3069.5" y="-179.6002" font-family="Helvetica,sans-Serif" font-size="14.00" fill="#000000">raw</text>
</g>
<!-- prose_40&#45;&gt;raw_47 -->
<g id="edge47" class="edge">
<title>prose_40&#45;&gt;raw_47</title>
<path fill="none" stroke="#000000" stroke-dasharray="5,2" d="M3229.7668,-364.4821C3222.3814,-353.7733 3211.7208,-340.4332 3199.5,-331.6004 3163.2421,-305.3945 3136.2645,-328.0801 3105.5,-295.6004 3083.9053,-272.8017 3075.2641,-236.9747 3071.8064,-212.0445"/>
<polygon fill="#000000" stroke="#000000" points="3075.2797,-211.6117 3070.6192,-202.0969 3068.329,-212.4413 3075.2797,-211.6117"/>
</g>
<!-- leaf_49 -->
<g id="node50" class="node">
<title>leaf_49</title>
<polygon fill="none" stroke="#c0c0c0" points="3326.5,-211.0007 3114.5,-211.0007 3114.5,-156.5998 3326.5,-156.5998 3326.5,-211.0007"/>
<text text-anchor="middle" x="3220.5" y="-195.7003" font-family="Inconsolata" font-size="14.00" fill="#000000">function Dir.exists(dir)</text>
<text text-anchor="middle" x="3220.5" y="-180.3002" font-family="Inconsolata" font-size="14.00" fill="#000000"> &#160;return isdir(dir.path.str)</text>
<text text-anchor="middle" x="3220.5" y="-164.9002" font-family="Inconsolata" font-size="14.00" fill="#000000">end</text>
</g>
<!-- codeblock_41&#45;&gt;leaf_49 -->
<g id="edge49" class="edge">
<title>codeblock_41&#45;&gt;leaf_49</title>
<path fill="none" stroke="#000000" stroke-dasharray="5,2" d="M3355.105,-363.8801C3330.7565,-331.3057 3278.8297,-261.836 3247.0634,-219.3378"/>
<polygon fill="#000000" stroke="#000000" points="3249.7836,-217.131 3240.9931,-211.2167 3244.1768,-221.3219 3249.7836,-217.131"/>
</g>
<!-- leaf_50 -->
<g id="node51" class="node">
<title>leaf_50</title>
<polygon fill="none" stroke="#c0c0c0" points="3738.5,-295.401 3344.5,-295.401 3344.5,-72.1994 3738.5,-72.1994 3738.5,-295.401"/>
<text text-anchor="middle" x="3541.5" y="-280.4004" font-family="Inconsolata" font-size="14.00" fill="#000000">function Dir.mkdir(dir)</text>
<text text-anchor="middle" x="3541.5" y="-265.0004" font-family="Inconsolata" font-size="14.00" fill="#000000"> &#160;if dir:exists() then</text>
<text text-anchor="middle" x="3541.5" y="-249.6004" font-family="Inconsolata" font-size="14.00" fill="#000000"> &#160;&#160;&#160;return false</text>
<text text-anchor="middle" x="3541.5" y="-234.2003" font-family="Inconsolata" font-size="14.00" fill="#000000"> &#160;else</text>
<text text-anchor="middle" x="3541.5" y="-218.8003" font-family="Inconsolata" font-size="14.00" fill="#000000"> &#160;&#160;&#160;local success, msg, code = mkdir(dir.path.str)</text>
<text text-anchor="middle" x="3541.5" y="-203.4003" font-family="Inconsolata" font-size="14.00" fill="#000000"> &#160;&#160;&#160;if success then</text>
<text text-anchor="middle" x="3541.5" y="-188.0002" font-family="Inconsolata" font-size="14.00" fill="#000000"> &#160;&#160;&#160;&#160;&#160;return success</text>
<text text-anchor="middle" x="3541.5" y="-172.6002" font-family="Inconsolata" font-size="14.00" fill="#000000"> &#160;&#160;&#160;else</text>
<text text-anchor="middle" x="3541.5" y="-157.2002" font-family="Inconsolata" font-size="14.00" fill="#000000"> &#160;&#160;&#160;&#160;&#160;code = tostring(code)</text>
<text text-anchor="middle" x="3541.5" y="-141.8002" font-family="Inconsolata" font-size="14.00" fill="#000000"> &#160;&#160;&#160;&#160;&#160;s:complain(&quot;mkdir failure # &quot; .. code, msg, dir)</text>
<text text-anchor="middle" x="3541.5" y="-126.4001" font-family="Inconsolata" font-size="14.00" fill="#000000"> &#160;&#160;&#160;&#160;&#160;return false</text>
<text text-anchor="middle" x="3541.5" y="-111.0001" font-family="Inconsolata" font-size="14.00" fill="#000000"> &#160;&#160;&#160;end</text>
<text text-anchor="middle" x="3541.5" y="-95.6001" font-family="Inconsolata" font-size="14.00" fill="#000000"> &#160;end</text>
<text text-anchor="middle" x="3541.5" y="-80.2" font-family="Inconsolata" font-size="14.00" fill="#000000">end</text>
</g>
<!-- codeblock_42&#45;&gt;leaf_50 -->
<g id="edge50" class="edge">
<title>codeblock_42&#45;&gt;leaf_50</title>
<path fill="none" stroke="#000000" stroke-dasharray="5,2" d="M3541.5,-363.528C3541.5,-349.3509 3541.5,-328.3397 3541.5,-305.6337"/>
<polygon fill="#000000" stroke="#000000" points="3545.0001,-305.4587 3541.5,-295.4587 3538.0001,-305.4588 3545.0001,-305.4587"/>
</g>
<!-- leaf_51 -->
<g id="node52" class="node">
<title>leaf_51</title>
<polygon fill="none" stroke="#c0c0c0" points="4004,-211.0007 3757,-211.0007 3757,-156.5998 4004,-156.5998 4004,-211.0007"/>
<text text-anchor="middle" x="3880.5" y="-195.7003" font-family="Inconsolata" font-size="14.00" fill="#000000">function Dir.attributes(dir)</text>
<text text-anchor="middle" x="3880.5" y="-180.3002" font-family="Inconsolata" font-size="14.00" fill="#000000"> &#160;return attributes(dir.path.str)</text>
<text text-anchor="middle" x="3880.5" y="-164.9002" font-family="Inconsolata" font-size="14.00" fill="#000000">end</text>
</g>
<!-- codeblock_43&#45;&gt;leaf_51 -->
<g id="edge51" class="edge">
<title>codeblock_43&#45;&gt;leaf_51</title>
<path fill="none" stroke="#000000" stroke-dasharray="5,2" d="M3805.0121,-363.8801C3818.5247,-331.6451 3847.1831,-263.2793 3865.0426,-220.6746"/>
<polygon fill="#000000" stroke="#000000" points="3868.3691,-221.7923 3869.0072,-211.2167 3861.9133,-219.0861 3868.3691,-221.7923"/>
</g>
<!-- leaf_52 -->
<g id="node53" class="node">
<title>leaf_52</title>
<polygon fill="none" stroke="#c0c0c0" points="4598.5,-288.0007 4022.5,-288.0007 4022.5,-79.5997 4598.5,-79.5997 4598.5,-288.0007"/>
<text text-anchor="middle" x="4310.5" y="-272.7004" font-family="Inconsolata" font-size="14.00" fill="#000000">function new(Dir, path)</text>
<text text-anchor="middle" x="4310.5" y="-257.3004" font-family="Inconsolata" font-size="14.00" fill="#000000"> &#160;local dir = setmetatable({}, {__index = Dir})</text>
<text text-anchor="middle" x="4310.5" y="-241.9004" font-family="Inconsolata" font-size="14.00" fill="#000000"> &#160;local path_str = &quot;&quot;</text>
<text text-anchor="middle" x="4310.5" y="-226.5003" font-family="Inconsolata" font-size="14.00" fill="#000000"> &#160;if path.isPath then</text>
<text text-anchor="middle" x="4310.5" y="-211.1003" font-family="Inconsolata" font-size="14.00" fill="#000000"> &#160;&#160;&#160;assert(path.isDir, &quot;fatal: &quot; .. tostring(path) .. &quot; is not a directory&quot;)</text>
<text text-anchor="middle" x="4310.5" y="-195.7003" font-family="Inconsolata" font-size="14.00" fill="#000000"> &#160;&#160;&#160;dir.path = path</text>
<text text-anchor="middle" x="4310.5" y="-180.3002" font-family="Inconsolata" font-size="14.00" fill="#000000"> &#160;else</text>
<text text-anchor="middle" x="4310.5" y="-164.9002" font-family="Inconsolata" font-size="14.00" fill="#000000"> &#160;&#160;&#160;local new_path = Path(path)</text>
<text text-anchor="middle" x="4310.5" y="-149.5002" font-family="Inconsolata" font-size="14.00" fill="#000000"> &#160;&#160;&#160;assert(new_path.isDir, &quot;fatal: &quot; .. tostring(path) .. &quot; is not a directory&quot;)</text>
<text text-anchor="middle" x="4310.5" y="-134.1001" font-family="Inconsolata" font-size="14.00" fill="#000000"> &#160;&#160;&#160;dir.path = new_path</text>
<text text-anchor="middle" x="4310.5" y="-118.7001" font-family="Inconsolata" font-size="14.00" fill="#000000"> &#160;end</text>
<text text-anchor="middle" x="4310.5" y="-103.3001" font-family="Inconsolata" font-size="14.00" fill="#000000"> &#160;return dir</text>
<text text-anchor="middle" x="4310.5" y="-87.9" font-family="Inconsolata" font-size="14.00" fill="#000000">end</text>
</g>
<!-- codeblock_44&#45;&gt;leaf_52 -->
<g id="edge52" class="edge">
<title>codeblock_44&#45;&gt;leaf_52</title>
<path fill="none" stroke="#000000" stroke-dasharray="5,2" d="M4155.8862,-363.8801C4169.7226,-347.7647 4191.3123,-322.619 4214.0155,-296.1765"/>
<polygon fill="#000000" stroke="#000000" points="4216.9062,-298.1826 4220.7649,-288.3154 4211.5951,-293.6226 4216.9062,-298.1826"/>
</g>
<!-- leaf_53 -->
<g id="node54" class="node">
<title>leaf_53</title>
<polygon fill="none" stroke="#c0c0c0" points="5010.5,-201.8002 4616.5,-201.8002 4616.5,-165.8002 5010.5,-165.8002 5010.5,-201.8002"/>
<text text-anchor="middle" x="4813.5" y="-180.3002" font-family="Inconsolata" font-size="14.00" fill="#000000">return setmetatable({}, {__call = new, __index = Dir})</text>
</g>
<!-- codeblock_45&#45;&gt;leaf_53 -->
<g id="edge53" class="edge">
<title>codeblock_45&#45;&gt;leaf_53</title>
<path fill="none" stroke="#000000" stroke-dasharray="5,2" d="M4585.6858,-364.2293C4630.3994,-328.8161 4731.4282,-248.8012 4782.5816,-208.2876"/>
<polygon fill="#000000" stroke="#000000" points="4784.9766,-210.8556 4790.6427,-201.9032 4780.6305,-205.3682 4784.9766,-210.8556"/>
</g>
<!-- leaf_48 -->
<g id="node49" class="node">
<title>leaf_48</title>
<polygon fill="none" stroke="#c0c0c0" points="3096.5,-36 3042.5,-36 3042.5,0 3096.5,0 3096.5,-36"/>
</g>
<!-- raw_47&#45;&gt;leaf_48 -->
<g id="edge48" class="edge">
<title>raw_47&#45;&gt;leaf_48</title>
<path fill="none" stroke="#000000" stroke-dasharray="5,2" d="M3069.5,-165.7411C3069.5,-136.9625 3069.5,-80.4672 3069.5,-46.2869"/>
<polygon fill="#000000" stroke="#000000" points="3073.0001,-46.0369 3069.5,-36.0369 3066.0001,-46.0369 3073.0001,-46.0369"/>
</g>
</g>
</svg>