<?xml version="1.0" encoding="UTF-8" standalone="no"?>
<!DOCTYPE svg PUBLIC "-//W3C//DTD SVG 1.1//EN"
 "http://www.w3.org/Graphics/SVG/1.1/DTD/svg11.dtd">
<!-- Generated by graphviz version 2.40.1 (20161225.0304)
 -->
<!-- Title: lpegNode Pages: 1 -->
<svg width="3884pt" height="431pt"
 viewBox="0.00 0.00 3883.50 430.60" xmlns="http://www.w3.org/2000/svg" xmlns:xlink="http://www.w3.org/1999/xlink">
<g id="graph0" class="graph" transform="scale(1 1) rotate(0) translate(4 426.6003)">
<title>lpegNode</title>
<polygon fill="#ffffff" stroke="transparent" points="-4,4 -4,-426.6003 3879.5,-426.6003 3879.5,4 -4,4"/>
<!-- doc_0 -->
<g id="node1" class="node">
<title>doc_0</title>
<ellipse fill="none" stroke="#000000" cx="2208.5" cy="-404.6003" rx="42.1216" ry="18"/>
<text text-anchor="middle" x="2208.5" y="-400.4003" font-family="Helvetica,sans-Serif" font-size="14.00" fill="#000000">doc &#45; 43</text>
</g>
<!-- section_1 -->
<g id="node2" class="node">
<title>section_1</title>
<ellipse fill="none" stroke="#000000" cx="2208.5" cy="-332.6003" rx="60.9826" ry="18"/>
<text text-anchor="middle" x="2208.5" y="-328.4003" font-family="Helvetica,sans-Serif" font-size="14.00" fill="#000000">section: 1&#45;43</text>
</g>
<!-- doc_0&#45;&gt;section_1 -->
<g id="edge1" class="edge">
<title>doc_0&#45;&gt;section_1</title>
<path fill="none" stroke="#000000" stroke-dasharray="5,2" d="M2208.5,-386.4316C2208.5,-378.7312 2208.5,-369.5746 2208.5,-361.0169"/>
<polygon fill="#000000" stroke="#000000" points="2212.0001,-361.0135 2208.5,-351.0135 2205.0001,-361.0136 2212.0001,-361.0135"/>
</g>
<!-- header_2 -->
<g id="node3" class="node">
<title>header_2</title>
<ellipse fill="none" stroke="#000000" cx="132.5" cy="-260.6003" rx="57.5495" ry="18"/>
<text text-anchor="middle" x="132.5" y="-256.4003" font-family="Helvetica,sans-Serif" font-size="14.00" fill="#000000">1 : Directory</text>
</g>
<!-- section_1&#45;&gt;header_2 -->
<g id="edge2" class="edge">
<title>section_1&#45;&gt;header_2</title>
<path fill="none" stroke="#000000" stroke-dasharray="5,2" d="M2147.6627,-331.6299C1862.8832,-326.9746 659.6372,-306.0211 284.5,-278.6003 255.1246,-276.4531 222.6923,-272.7909 195.3569,-269.3282"/>
<polygon fill="#000000" stroke="#000000" points="195.5119,-265.8193 185.1469,-268.0144 194.6184,-272.7621 195.5119,-265.8193"/>
</g>
<!-- prose_3 -->
<g id="node4" class="node">
<title>prose_3</title>
<ellipse fill="none" stroke="#000000" cx="325.5" cy="-260.6003" rx="32.4585" ry="18"/>
<text text-anchor="middle" x="325.5" y="-256.4003" font-family="Helvetica,sans-Serif" font-size="14.00" fill="#000000">prose</text>
</g>
<!-- section_1&#45;&gt;prose_3 -->
<g id="edge3" class="edge">
<title>section_1&#45;&gt;prose_3</title>
<path fill="none" stroke="#000000" stroke-dasharray="5,2" d="M2148.2461,-330.2964C1858.7666,-319.2276 614.7075,-271.6587 368.0873,-262.2287"/>
<polygon fill="#000000" stroke="#000000" points="367.8826,-258.7184 357.7562,-261.8337 367.6151,-265.7133 367.8826,-258.7184"/>
</g>
<!-- prose_4 -->
<g id="node5" class="node">
<title>prose_4</title>
<ellipse fill="none" stroke="#000000" cx="937.5" cy="-260.6003" rx="32.4585" ry="18"/>
<text text-anchor="middle" x="937.5" y="-256.4003" font-family="Helvetica,sans-Serif" font-size="14.00" fill="#000000">prose</text>
</g>
<!-- section_1&#45;&gt;prose_4 -->
<g id="edge4" class="edge">
<title>section_1&#45;&gt;prose_4</title>
<path fill="none" stroke="#000000" stroke-dasharray="5,2" d="M2148.4776,-329.2001C1928.2606,-316.7252 1167.779,-273.6452 979.7799,-262.9954"/>
<polygon fill="#000000" stroke="#000000" points="979.9207,-259.4978 969.7387,-262.4265 979.5247,-266.4866 979.9207,-259.4978"/>
</g>
<!-- prose_5 -->
<g id="node6" class="node">
<title>prose_5</title>
<ellipse fill="none" stroke="#000000" cx="2086.5" cy="-260.6003" rx="32.4585" ry="18"/>
<text text-anchor="middle" x="2086.5" y="-256.4003" font-family="Helvetica,sans-Serif" font-size="14.00" fill="#000000">prose</text>
</g>
<!-- section_1&#45;&gt;prose_5 -->
<g id="edge5" class="edge">
<title>section_1&#45;&gt;prose_5</title>
<path fill="none" stroke="#000000" stroke-dasharray="5,2" d="M2181.1208,-316.4421C2162.3198,-305.3464 2137.3222,-290.5937 2117.7422,-279.0383"/>
<polygon fill="#000000" stroke="#000000" points="2119.2843,-275.8844 2108.8933,-273.816 2115.7265,-281.9128 2119.2843,-275.8844"/>
</g>
<!-- prose_6 -->
<g id="node7" class="node">
<title>prose_6</title>
<ellipse fill="none" stroke="#000000" cx="2208.5" cy="-260.6003" rx="32.4585" ry="18"/>
<text text-anchor="middle" x="2208.5" y="-256.4003" font-family="Helvetica,sans-Serif" font-size="14.00" fill="#000000">prose</text>
</g>
<!-- section_1&#45;&gt;prose_6 -->
<g id="edge6" class="edge">
<title>section_1&#45;&gt;prose_6</title>
<path fill="none" stroke="#000000" stroke-dasharray="5,2" d="M2208.5,-314.4316C2208.5,-306.7312 2208.5,-297.5746 2208.5,-289.0169"/>
<polygon fill="#000000" stroke="#000000" points="2212.0001,-289.0135 2208.5,-279.0135 2205.0001,-289.0136 2212.0001,-289.0135"/>
</g>
<!-- codeblock_7 -->
<g id="node8" class="node">
<title>codeblock_7</title>
<ellipse fill="none" stroke="#000000" cx="2461.5" cy="-260.6003" rx="77.4211" ry="18"/>
<text text-anchor="middle" x="2461.5" y="-256.4003" font-family="Helvetica,sans-Serif" font-size="14.00" fill="#000000">code block 13&#45;21</text>
</g>
<!-- section_1&#45;&gt;codeblock_7 -->
<g id="edge7" class="edge">
<title>section_1&#45;&gt;codeblock_7</title>
<path fill="none" stroke="#000000" stroke-dasharray="5,2" d="M2252.5692,-320.0588C2294.1167,-308.2351 2356.6765,-290.4315 2402.5114,-277.3875"/>
<polygon fill="#000000" stroke="#000000" points="2403.6557,-280.7009 2412.3158,-274.5974 2401.7397,-273.9683 2403.6557,-280.7009"/>
</g>
<!-- codeblock_8 -->
<g id="node9" class="node">
<title>codeblock_8</title>
<ellipse fill="none" stroke="#000000" cx="2773.5" cy="-260.6003" rx="77.4211" ry="18"/>
<text text-anchor="middle" x="2773.5" y="-256.4003" font-family="Helvetica,sans-Serif" font-size="14.00" fill="#000000">code block 25&#45;29</text>
</g>
<!-- section_1&#45;&gt;codeblock_8 -->
<g id="edge8" class="edge">
<title>section_1&#45;&gt;codeblock_8</title>
<path fill="none" stroke="#000000" stroke-dasharray="5,2" d="M2264.4801,-325.4665C2365.6825,-312.5699 2579.29,-285.3492 2695.0145,-270.602"/>
<polygon fill="#000000" stroke="#000000" points="2695.742,-274.0377 2705.2193,-269.3015 2694.857,-267.0938 2695.742,-274.0377"/>
</g>
<!-- codeblock_9 -->
<g id="node10" class="node">
<title>codeblock_9</title>
<ellipse fill="none" stroke="#000000" cx="3119.5" cy="-260.6003" rx="77.4211" ry="18"/>
<text text-anchor="middle" x="3119.5" y="-256.4003" font-family="Helvetica,sans-Serif" font-size="14.00" fill="#000000">code block 32&#45;39</text>
</g>
<!-- section_1&#45;&gt;codeblock_9 -->
<g id="edge9" class="edge">
<title>section_1&#45;&gt;codeblock_9</title>
<path fill="none" stroke="#000000" stroke-dasharray="5,2" d="M2267.2217,-327.9593C2424.1139,-315.5594 2853.4965,-281.6236 3035.8302,-267.213"/>
<polygon fill="#000000" stroke="#000000" points="3036.21,-270.694 3045.9032,-266.4169 3035.6585,-263.7158 3036.21,-270.694"/>
</g>
<!-- codeblock_10 -->
<g id="node11" class="node">
<title>codeblock_10</title>
<ellipse fill="none" stroke="#000000" cx="3509.5" cy="-260.6003" rx="77.4211" ry="18"/>
<text text-anchor="middle" x="3509.5" y="-256.4003" font-family="Helvetica,sans-Serif" font-size="14.00" fill="#000000">code block 41&#45;43</text>
</g>
<!-- section_1&#45;&gt;codeblock_10 -->
<g id="edge10" class="edge">
<title>section_1&#45;&gt;codeblock_10</title>
<path fill="none" stroke="#000000" stroke-dasharray="5,2" d="M2268.3478,-329.464C2423.2548,-321.3234 2850.0654,-298.7485 3205.5,-278.6003 3279.3502,-274.414 3363.2771,-269.4273 3424.2097,-265.7654"/>
<polygon fill="#000000" stroke="#000000" points="3424.7757,-269.2378 3434.5475,-265.1436 3424.3553,-262.2504 3424.7757,-269.2378"/>
</g>
<!-- leaf_11 -->
<g id="node12" class="node">
<title>leaf_11</title>
<polygon fill="none" stroke="#c0c0c0" points="93,-166.7002 0,-166.7002 0,-130.7002 93,-130.7002 93,-166.7002"/>
<text text-anchor="middle" x="46.5" y="-145.2002" font-family="Inconsolata" font-size="14.00" fill="#000000">* Directory</text>
</g>
<!-- header_2&#45;&gt;leaf_11 -->
<g id="edge11" class="edge">
<title>header_2&#45;&gt;leaf_11</title>
<path fill="none" stroke="#000000" stroke-dasharray="5,2" d="M118.6826,-242.6216C104.6609,-224.3771 82.8006,-195.9332 66.8087,-175.1252"/>
<polygon fill="#000000" stroke="#000000" points="69.4376,-172.8021 60.5688,-167.006 63.8874,-177.0677 69.4376,-172.8021"/>
</g>
<!-- raw_12 -->
<g id="node13" class="node">
<title>raw_12</title>
<ellipse fill="none" stroke="#000000" cx="138.5" cy="-148.7002" rx="27" ry="18"/>
<text text-anchor="middle" x="138.5" y="-144.5002" font-family="Helvetica,sans-Serif" font-size="14.00" fill="#000000">raw</text>
</g>
<!-- prose_3&#45;&gt;raw_12 -->
<g id="edge12" class="edge">
<title>prose_3&#45;&gt;raw_12</title>
<path fill="none" stroke="#000000" stroke-dasharray="5,2" d="M294.1773,-255.682C261.3763,-249.1992 209.816,-235.0998 174.5,-206.6003 164.2408,-198.3212 156.0943,-186.2868 150.1642,-175.3317"/>
<polygon fill="#000000" stroke="#000000" points="153.1441,-173.4668 145.5259,-166.1038 146.8897,-176.6105 153.1441,-173.4668"/>
</g>
<!-- prespace_13 -->
<g id="node14" class="node">
<title>prespace_13</title>
<ellipse fill="none" stroke="#000000" cx="229.5" cy="-148.7002" rx="46.4736" ry="18"/>
<text text-anchor="middle" x="229.5" y="-144.5002" font-family="Helvetica,sans-Serif" font-size="14.00" fill="#000000">prespace</text>
</g>
<!-- prose_3&#45;&gt;prespace_13 -->
<g id="edge13" class="edge">
<title>prose_3&#45;&gt;prespace_13</title>
<path fill="none" stroke="#000000" stroke-dasharray="5,2" d="M311.3349,-244.089C295.4256,-225.5447 269.4266,-195.2397 251.0069,-173.7691"/>
<polygon fill="#000000" stroke="#000000" points="253.5229,-171.3266 244.3552,-166.0158 248.2101,-175.8845 253.5229,-171.3266"/>
</g>
<!-- literal_14 -->
<g id="node15" class="node">
<title>literal_14</title>
<ellipse fill="none" stroke="#000000" cx="325.5" cy="-148.7002" rx="31.481" ry="18"/>
<text text-anchor="middle" x="325.5" y="-144.5002" font-family="Helvetica,sans-Serif" font-size="14.00" fill="#000000">literal</text>
</g>
<!-- prose_3&#45;&gt;literal_14 -->
<g id="edge14" class="edge">
<title>prose_3&#45;&gt;literal_14</title>
<path fill="none" stroke="#000000" stroke-dasharray="5,2" d="M325.5,-242.1223C325.5,-224.4423 325.5,-197.5235 325.5,-177.1155"/>
<polygon fill="#000000" stroke="#000000" points="329.0001,-176.8343 325.5,-166.8344 322.0001,-176.8344 329.0001,-176.8343"/>
</g>
<!-- raw_15 -->
<g id="node16" class="node">
<title>raw_15</title>
<ellipse fill="none" stroke="#000000" cx="468.5" cy="-148.7002" rx="27" ry="18"/>
<text text-anchor="middle" x="468.5" y="-144.5002" font-family="Helvetica,sans-Serif" font-size="14.00" fill="#000000">raw</text>
</g>
<!-- prose_3&#45;&gt;raw_15 -->
<g id="edge15" class="edge">
<title>prose_3&#45;&gt;raw_15</title>
<path fill="none" stroke="#000000" stroke-dasharray="5,2" d="M344.4893,-245.7408C369.689,-226.0216 414.2834,-191.1256 442.5679,-168.9925"/>
<polygon fill="#000000" stroke="#000000" points="445.0642,-171.4834 450.7827,-162.5643 440.7503,-165.9706 445.0642,-171.4834"/>
</g>
<!-- raw_20 -->
<g id="node21" class="node">
<title>raw_20</title>
<ellipse fill="none" stroke="#000000" cx="750.5" cy="-148.7002" rx="27" ry="18"/>
<text text-anchor="middle" x="750.5" y="-144.5002" font-family="Helvetica,sans-Serif" font-size="14.00" fill="#000000">raw</text>
</g>
<!-- prose_4&#45;&gt;raw_20 -->
<g id="edge20" class="edge">
<title>prose_4&#45;&gt;raw_20</title>
<path fill="none" stroke="#000000" stroke-dasharray="5,2" d="M906.1773,-255.682C873.3763,-249.1992 821.816,-235.0998 786.5,-206.6003 776.2408,-198.3212 768.0943,-186.2868 762.1642,-175.3317"/>
<polygon fill="#000000" stroke="#000000" points="765.1441,-173.4668 757.5259,-166.1038 758.8897,-176.6105 765.1441,-173.4668"/>
</g>
<!-- prespace_21 -->
<g id="node22" class="node">
<title>prespace_21</title>
<ellipse fill="none" stroke="#000000" cx="841.5" cy="-148.7002" rx="46.4736" ry="18"/>
<text text-anchor="middle" x="841.5" y="-144.5002" font-family="Helvetica,sans-Serif" font-size="14.00" fill="#000000">prespace</text>
</g>
<!-- prose_4&#45;&gt;prespace_21 -->
<g id="edge21" class="edge">
<title>prose_4&#45;&gt;prespace_21</title>
<path fill="none" stroke="#000000" stroke-dasharray="5,2" d="M923.3349,-244.089C907.4256,-225.5447 881.4266,-195.2397 863.0069,-173.7691"/>
<polygon fill="#000000" stroke="#000000" points="865.5229,-171.3266 856.3552,-166.0158 860.2101,-175.8845 865.5229,-171.3266"/>
</g>
<!-- literal_22 -->
<g id="node23" class="node">
<title>literal_22</title>
<ellipse fill="none" stroke="#000000" cx="937.5" cy="-148.7002" rx="31.481" ry="18"/>
<text text-anchor="middle" x="937.5" y="-144.5002" font-family="Helvetica,sans-Serif" font-size="14.00" fill="#000000">literal</text>
</g>
<!-- prose_4&#45;&gt;literal_22 -->
<g id="edge22" class="edge">
<title>prose_4&#45;&gt;literal_22</title>
<path fill="none" stroke="#000000" stroke-dasharray="5,2" d="M937.5,-242.1223C937.5,-224.4423 937.5,-197.5235 937.5,-177.1155"/>
<polygon fill="#000000" stroke="#000000" points="941.0001,-176.8343 937.5,-166.8344 934.0001,-176.8344 941.0001,-176.8343"/>
</g>
<!-- raw_23 -->
<g id="node24" class="node">
<title>raw_23</title>
<ellipse fill="none" stroke="#000000" cx="1084.5" cy="-148.7002" rx="27" ry="18"/>
<text text-anchor="middle" x="1084.5" y="-144.5002" font-family="Helvetica,sans-Serif" font-size="14.00" fill="#000000">raw</text>
</g>
<!-- prose_4&#45;&gt;raw_23 -->
<g id="edge23" class="edge">
<title>prose_4&#45;&gt;raw_23</title>
<path fill="none" stroke="#000000" stroke-dasharray="5,2" d="M956.7177,-245.9713C982.784,-226.129 1029.4302,-190.6207 1058.5757,-168.4344"/>
<polygon fill="#000000" stroke="#000000" points="1060.8216,-171.1235 1066.6585,-162.2815 1056.5816,-165.5537 1060.8216,-171.1235"/>
</g>
<!-- raw_28 -->
<g id="node29" class="node">
<title>raw_28</title>
<ellipse fill="none" stroke="#000000" cx="1761.5" cy="-148.7002" rx="27" ry="18"/>
<text text-anchor="middle" x="1761.5" y="-144.5002" font-family="Helvetica,sans-Serif" font-size="14.00" fill="#000000">raw</text>
</g>
<!-- prose_5&#45;&gt;raw_28 -->
<g id="edge28" class="edge">
<title>prose_5&#45;&gt;raw_28</title>
<path fill="none" stroke="#000000" stroke-dasharray="5,2" d="M2058.7907,-251.0597C1999.3414,-230.5909 1859.732,-182.5222 1795.2442,-160.3186"/>
<polygon fill="#000000" stroke="#000000" points="1796.1578,-156.9315 1785.5631,-156.9853 1793.8788,-163.5502 1796.1578,-156.9315"/>
</g>
<!-- raw_30 -->
<g id="node31" class="node">
<title>raw_30</title>
<ellipse fill="none" stroke="#000000" cx="2069.5" cy="-148.7002" rx="27" ry="18"/>
<text text-anchor="middle" x="2069.5" y="-144.5002" font-family="Helvetica,sans-Serif" font-size="14.00" fill="#000000">raw</text>
</g>
<!-- prose_6&#45;&gt;raw_30 -->
<g id="edge30" class="edge">
<title>prose_6&#45;&gt;raw_30</title>
<path fill="none" stroke="#000000" stroke-dasharray="5,2" d="M2181.1104,-250.9174C2158.8152,-242.0114 2127.5385,-227.078 2105.5,-206.6003 2095.9765,-197.7513 2087.9986,-185.8382 2081.9928,-175.1189"/>
<polygon fill="#000000" stroke="#000000" points="2085.0004,-173.3191 2077.2334,-166.1131 2078.8115,-176.5898 2085.0004,-173.3191"/>
</g>
<!-- prespace_31 -->
<g id="node32" class="node">
<title>prespace_31</title>
<ellipse fill="none" stroke="#000000" cx="2160.5" cy="-148.7002" rx="46.4736" ry="18"/>
<text text-anchor="middle" x="2160.5" y="-144.5002" font-family="Helvetica,sans-Serif" font-size="14.00" fill="#000000">prespace</text>
</g>
<!-- prose_6&#45;&gt;prespace_31 -->
<g id="edge31" class="edge">
<title>prose_6&#45;&gt;prespace_31</title>
<path fill="none" stroke="#000000" stroke-dasharray="5,2" d="M2200.788,-242.6216C2193.0553,-224.5947 2181.0513,-196.6105 2172.156,-175.8732"/>
<polygon fill="#000000" stroke="#000000" points="2175.3517,-174.4446 2168.1929,-166.6342 2168.9186,-177.2042 2175.3517,-174.4446"/>
</g>
<!-- literal_32 -->
<g id="node33" class="node">
<title>literal_32</title>
<ellipse fill="none" stroke="#000000" cx="2256.5" cy="-148.7002" rx="31.481" ry="18"/>
<text text-anchor="middle" x="2256.5" y="-144.5002" font-family="Helvetica,sans-Serif" font-size="14.00" fill="#000000">literal</text>
</g>
<!-- prose_6&#45;&gt;literal_32 -->
<g id="edge32" class="edge">
<title>prose_6&#45;&gt;literal_32</title>
<path fill="none" stroke="#000000" stroke-dasharray="5,2" d="M2216.212,-242.6216C2223.9905,-224.4881 2236.0909,-196.279 2245.0016,-175.5058"/>
<polygon fill="#000000" stroke="#000000" points="2248.2397,-176.8353 2248.9654,-166.2653 2241.8066,-174.0757 2248.2397,-176.8353"/>
</g>
<!-- raw_33 -->
<g id="node34" class="node">
<title>raw_33</title>
<ellipse fill="none" stroke="#000000" cx="2332.5" cy="-148.7002" rx="27" ry="18"/>
<text text-anchor="middle" x="2332.5" y="-144.5002" font-family="Helvetica,sans-Serif" font-size="14.00" fill="#000000">raw</text>
</g>
<!-- prose_6&#45;&gt;raw_33 -->
<g id="edge33" class="edge">
<title>prose_6&#45;&gt;raw_33</title>
<path fill="none" stroke="#000000" stroke-dasharray="5,2" d="M2233.7817,-249.086C2252.6391,-239.6094 2278.1947,-224.7983 2296.5,-206.6003 2305.6545,-197.4995 2313.5424,-185.6453 2319.5816,-175.035"/>
<polygon fill="#000000" stroke="#000000" points="2322.7184,-176.5924 2324.3982,-166.1316 2316.5616,-173.2616 2322.7184,-176.5924"/>
</g>
<!-- leaf_38 -->
<g id="node39" class="node">
<title>leaf_38</title>
<polygon fill="none" stroke="#c0c0c0" points="2701.5,-206.5006 2377.5,-206.5006 2377.5,-90.8998 2701.5,-90.8998 2701.5,-206.5006"/>
<text text-anchor="middle" x="2539.5" y="-191.4003" font-family="Inconsolata" font-size="14.00" fill="#000000">local Dir = setmetatable({}, {__index = Dir,</text>
<text text-anchor="middle" x="2539.5" y="-176.0002" font-family="Inconsolata" font-size="14.00" fill="#000000"> &#160;&#160;&#160;&#160;&#160;&#160;&#160;&#160;&#160;&#160;&#160;&#160;&#160;&#160;&#160;isDir &#160;&#160;= Dir})</text>
<text text-anchor="middle" x="2539.5" y="-160.6002" font-family="Inconsolata" font-size="14.00" fill="#000000">local pl_path = require &quot;pl.path&quot;</text>
<text text-anchor="middle" x="2539.5" y="-145.2002" font-family="Inconsolata" font-size="14.00" fill="#000000">local lfs = require &quot;lfs&quot;</text>
<text text-anchor="middle" x="2539.5" y="-129.8002" font-family="Inconsolata" font-size="14.00" fill="#000000">local attributes = lfs.attributes</text>
<text text-anchor="middle" x="2539.5" y="-114.4001" font-family="Inconsolata" font-size="14.00" fill="#000000">local path = require &quot;walk/path&quot;</text>
<text text-anchor="middle" x="2539.5" y="-99.0001" font-family="Inconsolata" font-size="14.00" fill="#000000">local isdir &#160;= pl_dir.isdir</text>
</g>
<!-- codeblock_7&#45;&gt;leaf_38 -->
<g id="edge38" class="edge">
<title>codeblock_7&#45;&gt;leaf_38</title>
<path fill="none" stroke="#000000" stroke-dasharray="5,2" d="M2474.032,-242.6216C2479.4151,-234.899 2486.0718,-225.3491 2493.0596,-215.3244"/>
<polygon fill="#000000" stroke="#000000" points="2496.1393,-217.0268 2498.9864,-206.8216 2490.3967,-213.0239 2496.1393,-217.0268"/>
</g>
<!-- leaf_39 -->
<g id="node40" class="node">
<title>leaf_39</title>
<polygon fill="none" stroke="#c0c0c0" points="3009,-175.9006 2720,-175.9006 2720,-121.4997 3009,-121.4997 3009,-175.9006"/>
<text text-anchor="middle" x="2864.5" y="-160.6002" font-family="Inconsolata" font-size="14.00" fill="#000000">function Dir.attributes(dir)</text>
<text text-anchor="middle" x="2864.5" y="-145.2002" font-family="Inconsolata" font-size="14.00" fill="#000000"> &#160;return attributes(tostring(dir.path))</text>
<text text-anchor="middle" x="2864.5" y="-129.8002" font-family="Inconsolata" font-size="14.00" fill="#000000">end</text>
</g>
<!-- codeblock_8&#45;&gt;leaf_39 -->
<g id="edge39" class="edge">
<title>codeblock_8&#45;&gt;leaf_39</title>
<path fill="none" stroke="#000000" stroke-dasharray="5,2" d="M2788.1207,-242.6216C2801.0147,-226.7662 2820.1729,-203.2079 2836.0759,-183.6525"/>
<polygon fill="#000000" stroke="#000000" points="2838.8449,-185.7949 2842.4388,-175.8282 2833.414,-181.3784 2838.8449,-185.7949"/>
</g>
<!-- leaf_40 -->
<g id="node41" class="node">
<title>leaf_40</title>
<polygon fill="none" stroke="#c0c0c0" points="3463.5,-199.1012 3027.5,-199.1012 3027.5,-98.2992 3463.5,-98.2992 3463.5,-199.1012"/>
<text text-anchor="middle" x="3245.5" y="-183.7003" font-family="Inconsolata" font-size="14.00" fill="#000000">function new(Dir, path)</text>
<text text-anchor="middle" x="3245.5" y="-168.3002" font-family="Inconsolata" font-size="14.00" fill="#000000"> &#160;assert(isdir(path), &quot;fatal: &quot; .. path .. &quot; is not a path&quot;)</text>
<text text-anchor="middle" x="3245.5" y="-152.9002" font-family="Inconsolata" font-size="14.00" fill="#000000"> &#160;local dir = setmetatable({}, Dir)</text>
<text text-anchor="middle" x="3245.5" y="-137.5002" font-family="Inconsolata" font-size="14.00" fill="#000000"> &#160;dir.path = Path(str)</text>
<text text-anchor="middle" x="3245.5" y="-122.1001" font-family="Inconsolata" font-size="14.00" fill="#000000"> &#160;return dir</text>
<text text-anchor="middle" x="3245.5" y="-106.7001" font-family="Inconsolata" font-size="14.00" fill="#000000">end</text>
</g>
<!-- codeblock_9&#45;&gt;leaf_40 -->
<g id="edge40" class="edge">
<title>codeblock_9&#45;&gt;leaf_40</title>
<path fill="none" stroke="#000000" stroke-dasharray="5,2" d="M3139.1875,-243.1159C3150.7267,-232.8679 3166.0234,-219.283 3181.407,-205.6209"/>
<polygon fill="#000000" stroke="#000000" points="3183.797,-208.1794 3188.9499,-198.9221 3179.1487,-202.9455 3183.797,-208.1794"/>
</g>
<!-- leaf_41 -->
<g id="node42" class="node">
<title>leaf_41</title>
<polygon fill="none" stroke="#c0c0c0" points="3875.5,-166.7002 3481.5,-166.7002 3481.5,-130.7002 3875.5,-130.7002 3875.5,-166.7002"/>
<text text-anchor="middle" x="3678.5" y="-145.2002" font-family="Inconsolata" font-size="14.00" fill="#000000">return setmetatable({}, {__call = new, __index = Dir})</text>
</g>
<!-- codeblock_10&#45;&gt;leaf_41 -->
<g id="edge41" class="edge">
<title>codeblock_10&#45;&gt;leaf_41</title>
<path fill="none" stroke="#000000" stroke-dasharray="5,2" d="M3535.1675,-243.6051C3563.7801,-224.6598 3610.2591,-193.8846 3642.4984,-172.5379"/>
<polygon fill="#000000" stroke="#000000" points="3644.7817,-175.2239 3651.1873,-166.7847 3640.9171,-169.3873 3644.7817,-175.2239"/>
</g>
<!-- leaf_16 -->
<g id="node17" class="node">
<title>leaf_16</title>
<polygon fill="none" stroke="#c0c0c0" points="131.5,-45.4 77.5,-45.4 77.5,-9.4 131.5,-9.4 131.5,-45.4"/>
</g>
<!-- raw_12&#45;&gt;leaf_16 -->
<g id="edge16" class="edge">
<title>raw_12&#45;&gt;leaf_16</title>
<path fill="none" stroke="#000000" stroke-dasharray="5,2" d="M133.4832,-130.8019C127.9157,-110.9392 118.8595,-78.6297 112.3512,-55.4105"/>
<polygon fill="#000000" stroke="#000000" points="115.718,-54.4536 109.6489,-45.7694 108.9778,-56.3429 115.718,-54.4536"/>
</g>
<!-- leaf_17 -->
<g id="node18" class="node">
<title>leaf_17</title>
<polygon fill="none" stroke="#c0c0c0" points="203.5,-45.4 149.5,-45.4 149.5,-9.4 203.5,-9.4 203.5,-45.4"/>
</g>
<!-- prespace_13&#45;&gt;leaf_17 -->
<g id="edge17" class="edge">
<title>prespace_13&#45;&gt;leaf_17</title>
<path fill="none" stroke="#000000" stroke-dasharray="5,2" d="M221.6797,-130.8019C212.9621,-110.8502 198.7572,-78.3397 188.6024,-55.0986"/>
<polygon fill="#000000" stroke="#000000" points="191.7373,-53.5315 184.5262,-45.7694 185.3228,-56.3342 191.7373,-53.5315"/>
</g>
<!-- leaf_18 -->
<g id="node19" class="node">
<title>leaf_18</title>
<polygon fill="none" stroke="#c0c0c0" points="279.5,-45.4 221.5,-45.4 221.5,-9.4 279.5,-9.4 279.5,-45.4"/>
<text text-anchor="middle" x="250.5" y="-23.9" font-family="Inconsolata" font-size="14.00" fill="#000000">bridge</text>
</g>
<!-- literal_14&#45;&gt;leaf_18 -->
<g id="edge18" class="edge">
<title>literal_14&#45;&gt;leaf_18</title>
<path fill="none" stroke="#000000" stroke-dasharray="5,2" d="M314.9134,-131.5781C302.5084,-111.515 281.7986,-78.0204 267.2168,-54.4367"/>
<polygon fill="#000000" stroke="#000000" points="270.0035,-52.2883 261.7676,-45.6235 264.0496,-55.9696 270.0035,-52.2883"/>
</g>
<!-- leaf_19 -->
<g id="node20" class="node">
<title>leaf_19</title>
<polygon fill="none" stroke="#c0c0c0" points="705.5,-45.4 297.5,-45.4 297.5,-9.4 705.5,-9.4 705.5,-45.4"/>
<text text-anchor="middle" x="501.5" y="-23.9" font-family="Inconsolata" font-size="14.00" fill="#000000"> is going to have a certain attitude toward directories.</text>
</g>
<!-- raw_15&#45;&gt;leaf_19 -->
<g id="edge19" class="edge">
<title>raw_15&#45;&gt;leaf_19</title>
<path fill="none" stroke="#000000" stroke-dasharray="5,2" d="M473.3693,-130.8019C478.7487,-111.0283 487.4841,-78.9192 493.7946,-55.7234"/>
<polygon fill="#000000" stroke="#000000" points="497.2546,-56.3375 496.5026,-45.7694 490.5001,-54.4998 497.2546,-56.3375"/>
</g>
<!-- leaf_24 -->
<g id="node25" class="node">
<title>leaf_24</title>
<polygon fill="none" stroke="#c0c0c0" points="777.5,-47.3021 723.5,-47.3021 723.5,-7.4979 777.5,-7.4979 777.5,-47.3021"/>
<text text-anchor="middle" x="750.5" y="-15.9" font-family="Inconsolata" font-size="14.00" fill="#000000">The</text>
</g>
<!-- raw_20&#45;&gt;leaf_24 -->
<g id="edge24" class="edge">
<title>raw_20&#45;&gt;leaf_24</title>
<path fill="none" stroke="#000000" stroke-dasharray="5,2" d="M750.5,-130.5403C750.5,-111.2556 750.5,-80.4531 750.5,-57.5241"/>
<polygon fill="#000000" stroke="#000000" points="754.0001,-57.2997 750.5,-47.2998 747.0001,-57.2998 754.0001,-57.2997"/>
</g>
<!-- leaf_25 -->
<g id="node26" class="node">
<title>leaf_25</title>
<polygon fill="none" stroke="#c0c0c0" points="849.5,-45.4 795.5,-45.4 795.5,-9.4 849.5,-9.4 849.5,-45.4"/>
<text text-anchor="middle" x="822.5" y="-23.9" font-family="Inconsolata" font-size="14.00" fill="#000000"> </text>
</g>
<!-- prespace_21&#45;&gt;leaf_25 -->
<g id="edge25" class="edge">
<title>prespace_21&#45;&gt;leaf_25</title>
<path fill="none" stroke="#000000" stroke-dasharray="5,2" d="M838.6555,-130.5403C835.5493,-110.7099 830.5355,-78.7004 826.9166,-55.5968"/>
<polygon fill="#000000" stroke="#000000" points="830.3694,-55.0219 825.3639,-45.684 823.4537,-56.1052 830.3694,-55.0219"/>
</g>
<!-- leaf_26 -->
<g id="node27" class="node">
<title>leaf_26</title>
<polygon fill="none" stroke="#c0c0c0" points="921.5,-45.4 867.5,-45.4 867.5,-9.4 921.5,-9.4 921.5,-45.4"/>
<text text-anchor="middle" x="894.5" y="-23.9" font-family="Inconsolata" font-size="14.00" fill="#000000">orb</text>
</g>
<!-- literal_22&#45;&gt;leaf_26 -->
<g id="edge26" class="edge">
<title>literal_22&#45;&gt;leaf_26</title>
<path fill="none" stroke="#000000" stroke-dasharray="5,2" d="M931.2474,-131.0621C924.1864,-111.1434 912.6049,-78.4727 904.331,-55.1327"/>
<polygon fill="#000000" stroke="#000000" points="907.5406,-53.7114 900.9005,-45.4555 900.9429,-56.0502 907.5406,-53.7114"/>
</g>
<!-- leaf_27 -->
<g id="node28" class="node">
<title>leaf_27</title>
<polygon fill="none" stroke="#c0c0c0" points="1369,-45.4 940,-45.4 940,-9.4 1369,-9.4 1369,-45.4"/>
<text text-anchor="middle" x="1154.5" y="-23.9" font-family="Inconsolata" font-size="14.00" fill="#000000"> directory module will emulate and prototype that attitude.</text>
</g>
<!-- raw_23&#45;&gt;leaf_27 -->
<g id="edge27" class="edge">
<title>raw_23&#45;&gt;leaf_27</title>
<path fill="none" stroke="#000000" stroke-dasharray="5,2" d="M1094.2332,-131.8339C1105.7744,-111.8347 1125.164,-78.2352 1138.828,-54.5574"/>
<polygon fill="#000000" stroke="#000000" points="1141.9682,-56.1183 1143.935,-45.7077 1135.9053,-52.6195 1141.9682,-56.1183"/>
</g>
<!-- leaf_29 -->
<g id="node30" class="node">
<title>leaf_29</title>
<polygon fill="none" stroke="#c0c0c0" points="1900,-47.3021 1387,-47.3021 1387,-7.4979 1900,-7.4979 1900,-47.3021"/>
<text text-anchor="middle" x="1643.5" y="-15.9" font-family="Inconsolata" font-size="14.00" fill="#000000">&#45; [ ] #todo &#160;Add and use raw &quot;lfs&quot; dependency, since we already need it</text>
</g>
<!-- raw_28&#45;&gt;leaf_29 -->
<g id="edge29" class="edge">
<title>raw_28&#45;&gt;leaf_29</title>
<path fill="none" stroke="#000000" stroke-dasharray="5,2" d="M1746.5552,-133.3374C1727.3342,-113.5788 1693.6199,-78.9216 1670.0027,-54.6439"/>
<polygon fill="#000000" stroke="#000000" points="1672.5063,-52.1981 1663.0246,-47.4707 1667.4887,-57.0791 1672.5063,-52.1981"/>
</g>
<!-- leaf_34 -->
<g id="node35" class="node">
<title>leaf_34</title>
<polygon fill="none" stroke="#c0c0c0" points="2459,-54.7005 1918,-54.7005 1918,-.0996 2459,-.0996 2459,-54.7005"/>
<text text-anchor="middle" x="2188.5" y="-23.6001" font-family="Inconsolata" font-size="14.00" fill="#000000">&#45; [ ] #todo &#160;And this is the wrong place to put it but, phase out penlight.</text>
<text text-anchor="middle" x="2188.5" y="-8.2" font-family="Inconsolata" font-size="14.00" fill="#000000"> &#160;&#160;&#160;&#160;&#160;&#160;&#160;&#160;&#160;&#160;&#160;&#160;All I use is strict and wrappers around</text>
</g>
<!-- raw_30&#45;&gt;leaf_34 -->
<g id="edge34" class="edge">
<title>raw_30&#45;&gt;leaf_34</title>
<path fill="none" stroke="#000000" stroke-dasharray="5,2" d="M2078.1132,-131.3652C2084.6362,-119.2331 2094.3583,-103.0668 2105.5,-90.8001 2115.1141,-80.2152 2126.681,-70.1355 2138.0854,-61.254"/>
<polygon fill="#000000" stroke="#000000" points="2140.4725,-63.8367 2146.3306,-55.0087 2136.2459,-58.2567 2140.4725,-63.8367"/>
</g>
<!-- leaf_35 -->
<g id="node36" class="node">
<title>leaf_35</title>
<polygon fill="none" stroke="#c0c0c0" points="2531.5,-45.4 2477.5,-45.4 2477.5,-9.4 2531.5,-9.4 2531.5,-45.4"/>
<text text-anchor="middle" x="2504.5" y="-23.9" font-family="Inconsolata" font-size="14.00" fill="#000000"> </text>
</g>
<!-- prespace_31&#45;&gt;leaf_35 -->
<g id="edge35" class="edge">
<title>prespace_31&#45;&gt;leaf_35</title>
<path fill="none" stroke="#000000" stroke-dasharray="5,2" d="M2172.3548,-131.2347C2182.4457,-117.8548 2198.193,-100.1517 2216.5,-90.8001 2316.8612,-39.5334 2363.2627,-97.6397 2467.5,-54.8001 2470.046,-53.7537 2472.5766,-52.493 2475.0498,-51.0946"/>
<polygon fill="#000000" stroke="#000000" points="2477.149,-53.9065 2483.6803,-45.5643 2473.3723,-48.0127 2477.149,-53.9065"/>
</g>
<!-- leaf_36 -->
<g id="node37" class="node">
<title>leaf_36</title>
<polygon fill="none" stroke="#c0c0c0" points="2603.5,-45.4 2549.5,-45.4 2549.5,-9.4 2603.5,-9.4 2603.5,-45.4"/>
<text text-anchor="middle" x="2576.5" y="-23.9" font-family="Inconsolata" font-size="14.00" fill="#000000">lfs</text>
</g>
<!-- literal_32&#45;&gt;leaf_36 -->
<g id="edge36" class="edge">
<title>literal_32&#45;&gt;leaf_36</title>
<path fill="none" stroke="#000000" stroke-dasharray="5,2" d="M2263.919,-131.0343C2270.4724,-117.7279 2281.3525,-100.2202 2296.5,-90.8001 2389.5859,-32.9105 2439.4721,-97.339 2540.5,-54.8001 2542.9069,-53.7866 2545.2959,-52.5742 2547.631,-51.2316"/>
<polygon fill="#000000" stroke="#000000" points="2549.8492,-53.9626 2556.2943,-45.5535 2546.012,-48.108 2549.8492,-53.9626"/>
</g>
<!-- leaf_37 -->
<g id="node38" class="node">
<title>leaf_37</title>
<polygon fill="none" stroke="#c0c0c0" points="2675.5,-45.4 2621.5,-45.4 2621.5,-9.4 2675.5,-9.4 2675.5,-45.4"/>
<text text-anchor="middle" x="2648.5" y="-23.9" font-family="Inconsolata" font-size="14.00" fill="#000000">.</text>
</g>
<!-- raw_33&#45;&gt;leaf_37 -->
<g id="edge37" class="edge">
<title>raw_33&#45;&gt;leaf_37</title>
<path fill="none" stroke="#000000" stroke-dasharray="5,2" d="M2338.7241,-131.0663C2344.3723,-117.7776 2354.0494,-100.2781 2368.5,-90.8001 2460.1612,-30.6801 2511.4721,-97.339 2612.5,-54.8001 2614.9069,-53.7866 2617.2959,-52.5742 2619.631,-51.2316"/>
<polygon fill="#000000" stroke="#000000" points="2621.8492,-53.9626 2628.2943,-45.5535 2618.012,-48.108 2621.8492,-53.9626"/>
</g>
</g>
</svg>