<?xml version="1.0" encoding="UTF-8" standalone="no"?>
<!DOCTYPE svg PUBLIC "-//W3C//DTD SVG 1.1//EN"
 "http://www.w3.org/Graphics/SVG/1.1/DTD/svg11.dtd">
<!-- Generated by graphviz version 2.40.1 (20161225.0304)
 -->
<!-- Title: lpegNode Pages: 1 -->
<svg width="2065pt" height="384pt"
 viewBox="0.00 0.00 2064.50 384.40" xmlns="http://www.w3.org/2000/svg" xmlns:xlink="http://www.w3.org/1999/xlink">
<g id="graph0" class="graph" transform="scale(1 1) rotate(0) translate(4 380.4002)">
<title>lpegNode</title>
<polygon fill="#ffffff" stroke="transparent" points="-4,4 -4,-380.4002 2060.5,-380.4002 2060.5,4 -4,4"/>
<!-- doc_0 -->
<g id="node1" class="node">
<title>doc_0</title>
<ellipse fill="none" stroke="#000000" cx="980.5" cy="-358.4002" rx="42.1216" ry="18"/>
<text text-anchor="middle" x="980.5" y="-354.2002" font-family="Helvetica,sans-Serif" font-size="14.00" fill="#000000">doc &#45; 23</text>
</g>
<!-- section_1 -->
<g id="node2" class="node">
<title>section_1</title>
<ellipse fill="none" stroke="#000000" cx="980.5" cy="-286.4002" rx="60.9826" ry="18"/>
<text text-anchor="middle" x="980.5" y="-282.2002" font-family="Helvetica,sans-Serif" font-size="14.00" fill="#000000">section: 1&#45;23</text>
</g>
<!-- doc_0&#45;&gt;section_1 -->
<g id="edge1" class="edge">
<title>doc_0&#45;&gt;section_1</title>
<path fill="none" stroke="#000000" stroke-dasharray="5,2" d="M980.5,-340.2315C980.5,-332.5311 980.5,-323.3745 980.5,-314.8168"/>
<polygon fill="#000000" stroke="#000000" points="984.0001,-314.8134 980.5,-304.8135 977.0001,-314.8135 984.0001,-314.8134"/>
</g>
<!-- header_2 -->
<g id="node3" class="node">
<title>header_2</title>
<ellipse fill="none" stroke="#000000" cx="132.5" cy="-214.4002" rx="57.5495" ry="18"/>
<text text-anchor="middle" x="132.5" y="-210.2002" font-family="Helvetica,sans-Serif" font-size="14.00" fill="#000000">1 : Directory</text>
</g>
<!-- section_1&#45;&gt;header_2 -->
<g id="edge2" class="edge">
<title>section_1&#45;&gt;header_2</title>
<path fill="none" stroke="#000000" stroke-dasharray="5,2" d="M920.8439,-282.5881C800.4209,-274.7126 519.7072,-255.4418 284.5,-232.4002 255.5383,-229.563 223.5403,-225.8594 196.4033,-222.5497"/>
<polygon fill="#000000" stroke="#000000" points="196.6095,-219.0488 186.2573,-221.3032 195.7558,-225.9966 196.6095,-219.0488"/>
</g>
<!-- prose_3 -->
<g id="node4" class="node">
<title>prose_3</title>
<ellipse fill="none" stroke="#000000" cx="325.5" cy="-214.4002" rx="32.4585" ry="18"/>
<text text-anchor="middle" x="325.5" y="-210.2002" font-family="Helvetica,sans-Serif" font-size="14.00" fill="#000000">prose</text>
</g>
<!-- section_1&#45;&gt;prose_3 -->
<g id="edge3" class="edge">
<title>section_1&#45;&gt;prose_3</title>
<path fill="none" stroke="#000000" stroke-dasharray="5,2" d="M923.5189,-280.1366C794.1879,-265.9201 480.891,-231.4813 367.4184,-219.008"/>
<polygon fill="#000000" stroke="#000000" points="367.7096,-215.519 357.387,-217.9053 366.9447,-222.4771 367.7096,-215.519"/>
</g>
<!-- prose_4 -->
<g id="node5" class="node">
<title>prose_4</title>
<ellipse fill="none" stroke="#000000" cx="919.5" cy="-214.4002" rx="32.4585" ry="18"/>
<text text-anchor="middle" x="919.5" y="-210.2002" font-family="Helvetica,sans-Serif" font-size="14.00" fill="#000000">prose</text>
</g>
<!-- section_1&#45;&gt;prose_4 -->
<g id="edge4" class="edge">
<title>section_1&#45;&gt;prose_4</title>
<path fill="none" stroke="#000000" stroke-dasharray="5,2" d="M965.4213,-268.6024C957.8139,-259.6231 948.4694,-248.5936 940.2003,-238.8333"/>
<polygon fill="#000000" stroke="#000000" points="942.7035,-236.3734 933.5688,-231.006 937.3626,-240.8984 942.7035,-236.3734"/>
</g>
<!-- codeblock_5 -->
<g id="node6" class="node">
<title>codeblock_5</title>
<ellipse fill="none" stroke="#000000" cx="1121.5" cy="-214.4002" rx="71.7805" ry="18"/>
<text text-anchor="middle" x="1121.5" y="-210.2002" font-family="Helvetica,sans-Serif" font-size="14.00" fill="#000000">code block 8&#45;11</text>
</g>
<!-- section_1&#45;&gt;codeblock_5 -->
<g id="edge5" class="edge">
<title>section_1&#45;&gt;codeblock_5</title>
<path fill="none" stroke="#000000" stroke-dasharray="5,2" d="M1011.0949,-270.7773C1031.3638,-260.4272 1058.1944,-246.7265 1080.3301,-235.4231"/>
<polygon fill="#000000" stroke="#000000" points="1082.1823,-238.4073 1089.4967,-230.7423 1078.9989,-232.173 1082.1823,-238.4073"/>
</g>
<!-- codeblock_6 -->
<g id="node7" class="node">
<title>codeblock_6</title>
<ellipse fill="none" stroke="#000000" cx="1400.5" cy="-214.4002" rx="77.4211" ry="18"/>
<text text-anchor="middle" x="1400.5" y="-210.2002" font-family="Helvetica,sans-Serif" font-size="14.00" fill="#000000">code block 13&#45;19</text>
</g>
<!-- section_1&#45;&gt;codeblock_6 -->
<g id="edge6" class="edge">
<title>section_1&#45;&gt;codeblock_6</title>
<path fill="none" stroke="#000000" stroke-dasharray="5,2" d="M1033.268,-277.3542C1107.7909,-264.5789 1244.1264,-241.2071 1328.0765,-226.8156"/>
<polygon fill="#000000" stroke="#000000" points="1328.7821,-230.2458 1338.047,-225.1064 1327.5993,-223.3465 1328.7821,-230.2458"/>
</g>
<!-- codeblock_7 -->
<g id="node8" class="node">
<title>codeblock_7</title>
<ellipse fill="none" stroke="#000000" cx="1716.5" cy="-214.4002" rx="77.4211" ry="18"/>
<text text-anchor="middle" x="1716.5" y="-210.2002" font-family="Helvetica,sans-Serif" font-size="14.00" fill="#000000">code block 21&#45;23</text>
</g>
<!-- section_1&#45;&gt;codeblock_7 -->
<g id="edge7" class="edge">
<title>section_1&#45;&gt;codeblock_7</title>
<path fill="none" stroke="#000000" stroke-dasharray="5,2" d="M1038.2527,-280.7505C1168.3573,-268.0228 1484.7133,-237.075 1634.8391,-222.3888"/>
<polygon fill="#000000" stroke="#000000" points="1635.3082,-225.8597 1644.9199,-221.4026 1634.6266,-218.8929 1635.3082,-225.8597"/>
</g>
<!-- leaf_8 -->
<g id="node9" class="node">
<title>leaf_8</title>
<polygon fill="none" stroke="#c0c0c0" points="93,-135.9001 0,-135.9001 0,-99.9001 93,-99.9001 93,-135.9001"/>
<text text-anchor="middle" x="46.5" y="-114.4001" font-family="Inconsolata" font-size="14.00" fill="#000000">* Directory</text>
</g>
<!-- header_2&#45;&gt;leaf_8 -->
<g id="edge8" class="edge">
<title>header_2&#45;&gt;leaf_8</title>
<path fill="none" stroke="#000000" stroke-dasharray="5,2" d="M116.7263,-196.7006C103.5579,-181.9244 84.6024,-160.6546 69.7032,-143.9363"/>
<polygon fill="#000000" stroke="#000000" points="72.0243,-141.2801 62.7581,-136.1432 66.7984,-145.9374 72.0243,-141.2801"/>
</g>
<!-- raw_9 -->
<g id="node10" class="node">
<title>raw_9</title>
<ellipse fill="none" stroke="#000000" cx="138.5" cy="-117.9001" rx="27" ry="18"/>
<text text-anchor="middle" x="138.5" y="-113.7001" font-family="Helvetica,sans-Serif" font-size="14.00" fill="#000000">raw</text>
</g>
<!-- prose_3&#45;&gt;raw_9 -->
<g id="edge9" class="edge">
<title>prose_3&#45;&gt;raw_9</title>
<path fill="none" stroke="#000000" stroke-dasharray="5,2" d="M294.9657,-208.4283C262.8231,-201.0655 211.8073,-186.2384 174.5,-160.4002 167.5691,-155.6 161.1835,-149.1398 155.7757,-142.7071"/>
<polygon fill="#000000" stroke="#000000" points="158.4133,-140.399 149.4813,-134.7007 152.9102,-144.7253 158.4133,-140.399"/>
</g>
<!-- prespace_10 -->
<g id="node11" class="node">
<title>prespace_10</title>
<ellipse fill="none" stroke="#000000" cx="229.5" cy="-117.9001" rx="46.4736" ry="18"/>
<text text-anchor="middle" x="229.5" y="-113.7001" font-family="Helvetica,sans-Serif" font-size="14.00" fill="#000000">prespace</text>
</g>
<!-- prose_3&#45;&gt;prespace_10 -->
<g id="edge10" class="edge">
<title>prose_3&#45;&gt;prespace_10</title>
<path fill="none" stroke="#000000" stroke-dasharray="5,2" d="M309.6476,-198.4652C294.3633,-183.1013 271.0307,-159.6472 253.4753,-142.0003"/>
<polygon fill="#000000" stroke="#000000" points="255.8795,-139.4544 246.3455,-134.8334 250.9169,-144.3913 255.8795,-139.4544"/>
</g>
<!-- literal_11 -->
<g id="node12" class="node">
<title>literal_11</title>
<ellipse fill="none" stroke="#000000" cx="325.5" cy="-117.9001" rx="31.481" ry="18"/>
<text text-anchor="middle" x="325.5" y="-113.7001" font-family="Helvetica,sans-Serif" font-size="14.00" fill="#000000">literal</text>
</g>
<!-- prose_3&#45;&gt;literal_11 -->
<g id="edge11" class="edge">
<title>prose_3&#45;&gt;literal_11</title>
<path fill="none" stroke="#000000" stroke-dasharray="5,2" d="M325.5,-196.2493C325.5,-182.0967 325.5,-162.1917 325.5,-145.9867"/>
<polygon fill="#000000" stroke="#000000" points="329.0001,-145.9696 325.5,-135.9696 322.0001,-145.9697 329.0001,-145.9696"/>
</g>
<!-- raw_12 -->
<g id="node13" class="node">
<title>raw_12</title>
<ellipse fill="none" stroke="#000000" cx="470.5" cy="-117.9001" rx="27" ry="18"/>
<text text-anchor="middle" x="470.5" y="-113.7001" font-family="Helvetica,sans-Serif" font-size="14.00" fill="#000000">raw</text>
</g>
<!-- prose_3&#45;&gt;raw_12 -->
<g id="edge12" class="edge">
<title>prose_3&#45;&gt;raw_12</title>
<path fill="none" stroke="#000000" stroke-dasharray="5,2" d="M346.275,-200.5741C371.5716,-183.7387 414.3986,-155.2366 442.5648,-136.4915"/>
<polygon fill="#000000" stroke="#000000" points="444.768,-139.2295 451.1538,-130.7754 440.8897,-133.4021 444.768,-139.2295"/>
</g>
<!-- raw_17 -->
<g id="node18" class="node">
<title>raw_17</title>
<ellipse fill="none" stroke="#000000" cx="732.5" cy="-117.9001" rx="27" ry="18"/>
<text text-anchor="middle" x="732.5" y="-113.7001" font-family="Helvetica,sans-Serif" font-size="14.00" fill="#000000">raw</text>
</g>
<!-- prose_4&#45;&gt;raw_17 -->
<g id="edge17" class="edge">
<title>prose_4&#45;&gt;raw_17</title>
<path fill="none" stroke="#000000" stroke-dasharray="5,2" d="M888.9657,-208.4283C856.8231,-201.0655 805.8073,-186.2384 768.5,-160.4002 761.5691,-155.6 755.1835,-149.1398 749.7757,-142.7071"/>
<polygon fill="#000000" stroke="#000000" points="752.4133,-140.399 743.4813,-134.7007 746.9102,-144.7253 752.4133,-140.399"/>
</g>
<!-- prespace_18 -->
<g id="node19" class="node">
<title>prespace_18</title>
<ellipse fill="none" stroke="#000000" cx="823.5" cy="-117.9001" rx="46.4736" ry="18"/>
<text text-anchor="middle" x="823.5" y="-113.7001" font-family="Helvetica,sans-Serif" font-size="14.00" fill="#000000">prespace</text>
</g>
<!-- prose_4&#45;&gt;prespace_18 -->
<g id="edge18" class="edge">
<title>prose_4&#45;&gt;prespace_18</title>
<path fill="none" stroke="#000000" stroke-dasharray="5,2" d="M903.6476,-198.4652C888.3633,-183.1013 865.0307,-159.6472 847.4753,-142.0003"/>
<polygon fill="#000000" stroke="#000000" points="849.8795,-139.4544 840.3455,-134.8334 844.9169,-144.3913 849.8795,-139.4544"/>
</g>
<!-- literal_19 -->
<g id="node20" class="node">
<title>literal_19</title>
<ellipse fill="none" stroke="#000000" cx="919.5" cy="-117.9001" rx="31.481" ry="18"/>
<text text-anchor="middle" x="919.5" y="-113.7001" font-family="Helvetica,sans-Serif" font-size="14.00" fill="#000000">literal</text>
</g>
<!-- prose_4&#45;&gt;literal_19 -->
<g id="edge19" class="edge">
<title>prose_4&#45;&gt;literal_19</title>
<path fill="none" stroke="#000000" stroke-dasharray="5,2" d="M919.5,-196.2493C919.5,-182.0967 919.5,-162.1917 919.5,-145.9867"/>
<polygon fill="#000000" stroke="#000000" points="923.0001,-145.9696 919.5,-135.9696 916.0001,-145.9697 923.0001,-145.9696"/>
</g>
<!-- raw_20 -->
<g id="node21" class="node">
<title>raw_20</title>
<ellipse fill="none" stroke="#000000" cx="995.5" cy="-117.9001" rx="27" ry="18"/>
<text text-anchor="middle" x="995.5" y="-113.7001" font-family="Helvetica,sans-Serif" font-size="14.00" fill="#000000">raw</text>
</g>
<!-- prose_4&#45;&gt;raw_20 -->
<g id="edge20" class="edge">
<title>prose_4&#45;&gt;raw_20</title>
<path fill="none" stroke="#000000" stroke-dasharray="5,2" d="M932.7382,-197.5912C944.8721,-182.1843 962.972,-159.2021 976.621,-141.8715"/>
<polygon fill="#000000" stroke="#000000" points="979.4806,-143.8974 982.9182,-133.8757 973.9813,-139.5663 979.4806,-143.8974"/>
</g>
<!-- leaf_25 -->
<g id="node26" class="node">
<title>leaf_25</title>
<polygon fill="none" stroke="#c0c0c0" points="1364.5,-137.2007 1040.5,-137.2007 1040.5,-98.5995 1364.5,-98.5995 1364.5,-137.2007"/>
<text text-anchor="middle" x="1202.5" y="-122.1001" font-family="Inconsolata" font-size="14.00" fill="#000000">local Dir = setmetatable({}, {__index = Dir,</text>
<text text-anchor="middle" x="1202.5" y="-106.7001" font-family="Inconsolata" font-size="14.00" fill="#000000"> &#160;&#160;&#160;&#160;&#160;&#160;&#160;&#160;&#160;&#160;&#160;&#160;&#160;&#160;&#160;isDir &#160;&#160;= Dir})</text>
</g>
<!-- codeblock_5&#45;&gt;leaf_25 -->
<g id="edge25" class="edge">
<title>codeblock_5&#45;&gt;leaf_25</title>
<path fill="none" stroke="#000000" stroke-dasharray="5,2" d="M1136.3566,-196.7006C1148.4454,-182.2985 1165.7124,-161.7274 1179.5728,-145.2146"/>
<polygon fill="#000000" stroke="#000000" points="1182.3174,-147.3888 1186.0658,-137.4792 1176.9558,-142.8884 1182.3174,-147.3888"/>
</g>
<!-- leaf_26 -->
<g id="node27" class="node">
<title>leaf_26</title>
<polygon fill="none" stroke="#c0c0c0" points="1644,-160.4003 1383,-160.4003 1383,-75.4 1644,-75.4 1644,-160.4003"/>
<text text-anchor="middle" x="1513.5" y="-145.2002" font-family="Inconsolata" font-size="14.00" fill="#000000">function new(Dir, path)</text>
<text text-anchor="middle" x="1513.5" y="-129.8002" font-family="Inconsolata" font-size="14.00" fill="#000000"> &#160;local dir = setmetatable({}, Dir)</text>
<text text-anchor="middle" x="1513.5" y="-114.4001" font-family="Inconsolata" font-size="14.00" fill="#000000"> &#160;dir.path = path</text>
<text text-anchor="middle" x="1513.5" y="-99.0001" font-family="Inconsolata" font-size="14.00" fill="#000000"> &#160;return dir</text>
<text text-anchor="middle" x="1513.5" y="-83.6001" font-family="Inconsolata" font-size="14.00" fill="#000000">end</text>
</g>
<!-- codeblock_6&#45;&gt;leaf_26 -->
<g id="edge26" class="edge">
<title>codeblock_6&#45;&gt;leaf_26</title>
<path fill="none" stroke="#000000" stroke-dasharray="5,2" d="M1420.9634,-196.9248C1430.8653,-188.4688 1443.3014,-177.8485 1455.8152,-167.162"/>
<polygon fill="#000000" stroke="#000000" points="1458.2632,-169.674 1463.5948,-160.5183 1453.7174,-164.3509 1458.2632,-169.674"/>
</g>
<!-- leaf_27 -->
<g id="node28" class="node">
<title>leaf_27</title>
<polygon fill="none" stroke="#c0c0c0" points="2056.5,-135.9001 1662.5,-135.9001 1662.5,-99.9001 2056.5,-99.9001 2056.5,-135.9001"/>
<text text-anchor="middle" x="1859.5" y="-114.4001" font-family="Inconsolata" font-size="14.00" fill="#000000">return setmetatable({}, {__call = new, __index = Dir})</text>
</g>
<!-- codeblock_7&#45;&gt;leaf_27 -->
<g id="edge27" class="edge">
<title>codeblock_7&#45;&gt;leaf_27</title>
<path fill="none" stroke="#000000" stroke-dasharray="5,2" d="M1741.7364,-197.37C1764.6442,-181.9112 1798.6554,-158.9596 1824.2453,-141.6909"/>
<polygon fill="#000000" stroke="#000000" points="1826.2413,-144.5664 1832.5726,-136.0714 1822.3256,-138.764 1826.2413,-144.5664"/>
</g>
<!-- leaf_13 -->
<g id="node14" class="node">
<title>leaf_13</title>
<polygon fill="none" stroke="#c0c0c0" points="130.5,-37.7 76.5,-37.7 76.5,-1.7 130.5,-1.7 130.5,-37.7"/>
</g>
<!-- raw_9&#45;&gt;leaf_13 -->
<g id="edge13" class="edge">
<title>raw_9&#45;&gt;leaf_13</title>
<path fill="none" stroke="#000000" stroke-dasharray="5,2" d="M132.2427,-100.3439C126.983,-85.5866 119.3735,-64.2365 113.3053,-47.2108"/>
<polygon fill="#000000" stroke="#000000" points="116.5941,-46.0131 109.9399,-37.7686 110.0004,-48.3633 116.5941,-46.0131"/>
</g>
<!-- leaf_14 -->
<g id="node15" class="node">
<title>leaf_14</title>
<polygon fill="none" stroke="#c0c0c0" points="202.5,-37.7 148.5,-37.7 148.5,-1.7 202.5,-1.7 202.5,-37.7"/>
</g>
<!-- prespace_10&#45;&gt;leaf_14 -->
<g id="edge14" class="edge">
<title>prespace_10&#45;&gt;leaf_14</title>
<path fill="none" stroke="#000000" stroke-dasharray="5,2" d="M219.5956,-99.8887C211.426,-85.0322 199.7091,-63.7248 190.4064,-46.8077"/>
<polygon fill="#000000" stroke="#000000" points="193.41,-45.0059 185.5245,-37.9298 187.2762,-48.3788 193.41,-45.0059"/>
</g>
<!-- leaf_15 -->
<g id="node16" class="node">
<title>leaf_15</title>
<polygon fill="none" stroke="#c0c0c0" points="278.5,-37.7 220.5,-37.7 220.5,-1.7 278.5,-1.7 278.5,-37.7"/>
<text text-anchor="middle" x="249.5" y="-16.2" font-family="Inconsolata" font-size="14.00" fill="#000000">bridge</text>
</g>
<!-- literal_11&#45;&gt;leaf_15 -->
<g id="edge15" class="edge">
<title>literal_11&#45;&gt;leaf_15</title>
<path fill="none" stroke="#000000" stroke-dasharray="5,2" d="M312.6076,-101.2418C300.8886,-86.0996 283.4031,-63.5064 269.8074,-45.9394"/>
<polygon fill="#000000" stroke="#000000" points="272.3763,-43.5401 263.488,-37.774 266.8406,-47.8244 272.3763,-43.5401"/>
</g>
<!-- leaf_16 -->
<g id="node17" class="node">
<title>leaf_16</title>
<polygon fill="none" stroke="#c0c0c0" points="712,-37.7 297,-37.7 297,-1.7 712,-1.7 712,-37.7"/>
<text text-anchor="middle" x="504.5" y="-16.2" font-family="Inconsolata" font-size="14.00" fill="#000000"> is going to have a certain attitude toward directories. </text>
</g>
<!-- raw_12&#45;&gt;leaf_16 -->
<g id="edge16" class="edge">
<title>raw_12&#45;&gt;leaf_16</title>
<path fill="none" stroke="#000000" stroke-dasharray="5,2" d="M476.5785,-100.3439C481.6402,-85.7245 488.9421,-64.635 494.8092,-47.6893"/>
<polygon fill="#000000" stroke="#000000" points="498.2796,-48.3634 498.2441,-37.7686 491.6649,-46.0731 498.2796,-48.3634"/>
</g>
<!-- leaf_21 -->
<g id="node22" class="node">
<title>leaf_21</title>
<polygon fill="none" stroke="#c0c0c0" points="784.5,-39.6021 730.5,-39.6021 730.5,.2021 784.5,.2021 784.5,-39.6021"/>
<text text-anchor="middle" x="757.5" y="-8.2" font-family="Inconsolata" font-size="14.00" fill="#000000">The</text>
</g>
<!-- raw_17&#45;&gt;leaf_21 -->
<g id="edge21" class="edge">
<title>raw_17&#45;&gt;leaf_21</title>
<path fill="none" stroke="#000000" stroke-dasharray="5,2" d="M737.0854,-99.8887C740.6808,-85.7658 745.7603,-65.8135 749.953,-49.3447"/>
<polygon fill="#000000" stroke="#000000" points="753.3523,-50.1784 752.4277,-39.624 746.5687,-48.4514 753.3523,-50.1784"/>
</g>
<!-- leaf_22 -->
<g id="node23" class="node">
<title>leaf_22</title>
<polygon fill="none" stroke="#c0c0c0" points="856.5,-37.7 802.5,-37.7 802.5,-1.7 856.5,-1.7 856.5,-37.7"/>
<text text-anchor="middle" x="829.5" y="-16.2" font-family="Inconsolata" font-size="14.00" fill="#000000"> </text>
</g>
<!-- prespace_18&#45;&gt;leaf_22 -->
<g id="edge22" class="edge">
<title>prespace_18&#45;&gt;leaf_22</title>
<path fill="none" stroke="#000000" stroke-dasharray="5,2" d="M824.6005,-99.8887C825.483,-85.4449 826.7381,-64.9036 827.757,-48.2274"/>
<polygon fill="#000000" stroke="#000000" points="831.2697,-48.1247 828.3862,-37.9298 824.2827,-47.6977 831.2697,-48.1247"/>
</g>
<!-- leaf_23 -->
<g id="node24" class="node">
<title>leaf_23</title>
<polygon fill="none" stroke="#c0c0c0" points="940.5,-37.7 886.5,-37.7 886.5,-1.7 940.5,-1.7 940.5,-37.7"/>
<text text-anchor="middle" x="913.5" y="-16.2" font-family="Inconsolata" font-size="14.00" fill="#000000">orb</text>
</g>
<!-- literal_19&#45;&gt;leaf_23 -->
<g id="edge23" class="edge">
<title>literal_19&#45;&gt;leaf_23</title>
<path fill="none" stroke="#000000" stroke-dasharray="5,2" d="M918.3995,-99.8887C917.517,-85.4449 916.2619,-64.9036 915.243,-48.2274"/>
<polygon fill="#000000" stroke="#000000" points="918.7173,-47.6977 914.6138,-37.9298 911.7303,-48.1247 918.7173,-47.6977"/>
</g>
<!-- leaf_24 -->
<g id="node25" class="node">
<title>leaf_24</title>
<polygon fill="none" stroke="#c0c0c0" points="1394.5,-37.7 958.5,-37.7 958.5,-1.7 1394.5,-1.7 1394.5,-37.7"/>
<text text-anchor="middle" x="1176.5" y="-16.2" font-family="Inconsolata" font-size="14.00" fill="#000000"> directory module will emulate and prototype that attitude. </text>
</g>
<!-- raw_20&#45;&gt;leaf_24 -->
<g id="edge24" class="edge">
<title>raw_20&#45;&gt;leaf_24</title>
<path fill="none" stroke="#000000" stroke-dasharray="5,2" d="M1006.5453,-101.1908C1012.9712,-92.5297 1021.723,-82.3414 1031.5,-75.4 1051.889,-60.9244 1076.531,-49.6277 1099.6701,-41.1061"/>
<polygon fill="#000000" stroke="#000000" points="1100.8843,-44.3891 1109.1336,-37.7408 1098.5389,-37.7937 1100.8843,-44.3891"/>
</g>
</g>
</svg>