<?xml version="1.0" encoding="UTF-8" standalone="no"?>
<!DOCTYPE svg PUBLIC "-//W3C//DTD SVG 1.1//EN"
 "http://www.w3.org/Graphics/SVG/1.1/DTD/svg11.dtd">
<!-- Generated by graphviz version 2.40.1 (20161225.0304)
 -->
<!-- Title: lpegNode Pages: 1 -->
<svg width="3786pt" height="367pt"
 viewBox="0.00 0.00 3785.50 367.40" xmlns="http://www.w3.org/2000/svg" xmlns:xlink="http://www.w3.org/1999/xlink">
<g id="graph0" class="graph" transform="scale(1 1) rotate(0) translate(4 363.4)">
<title>lpegNode</title>
<polygon fill="#ffffff" stroke="transparent" points="-4,4 -4,-363.4 3781.5,-363.4 3781.5,4 -4,4"/>
<!-- doc_0 -->
<g id="node1" class="node">
<title>doc_0</title>
<ellipse fill="none" stroke="#000000" cx="1295.5" cy="-341.4" rx="42.1216" ry="18"/>
<text text-anchor="middle" x="1295.5" y="-337.2" font-family="Helvetica,sans-Serif" font-size="14.00" fill="#000000">doc &#45; 25</text>
</g>
<!-- section_1 -->
<g id="node2" class="node">
<title>section_1</title>
<ellipse fill="none" stroke="#000000" cx="1295.5" cy="-269.4" rx="60.9826" ry="18"/>
<text text-anchor="middle" x="1295.5" y="-265.2" font-family="Helvetica,sans-Serif" font-size="14.00" fill="#000000">section: 1&#45;25</text>
</g>
<!-- doc_0&#45;&gt;section_1 -->
<g id="edge1" class="edge">
<title>doc_0&#45;&gt;section_1</title>
<path fill="none" stroke="#000000" stroke-dasharray="5,2" d="M1295.5,-323.2314C1295.5,-315.531 1295.5,-306.3744 1295.5,-297.8167"/>
<polygon fill="#000000" stroke="#000000" points="1299.0001,-297.8133 1295.5,-287.8133 1292.0001,-297.8133 1299.0001,-297.8133"/>
</g>
<!-- header_2 -->
<g id="node3" class="node">
<title>header_2</title>
<ellipse fill="none" stroke="#000000" cx="786.5" cy="-197.4" rx="36.7923" ry="18"/>
<text text-anchor="middle" x="786.5" y="-193.2" font-family="Helvetica,sans-Serif" font-size="14.00" fill="#000000">1 : File</text>
</g>
<!-- section_1&#45;&gt;header_2 -->
<g id="edge2" class="edge">
<title>section_1&#45;&gt;header_2</title>
<path fill="none" stroke="#000000" stroke-dasharray="5,2" d="M1240.1035,-262.0003C1164.3019,-251.8175 1024.0222,-232.7687 904.5,-215.4 880.4227,-211.9012 853.611,-207.8256 831.6371,-204.4383"/>
<polygon fill="#000000" stroke="#000000" points="832.0084,-200.9542 821.5911,-202.8857 830.9392,-207.8721 832.0084,-200.9542"/>
</g>
<!-- prose_3 -->
<g id="node4" class="node">
<title>prose_3</title>
<ellipse fill="none" stroke="#000000" cx="945.5" cy="-197.4" rx="32.4585" ry="18"/>
<text text-anchor="middle" x="945.5" y="-193.2" font-family="Helvetica,sans-Serif" font-size="14.00" fill="#000000">prose</text>
</g>
<!-- section_1&#45;&gt;prose_3 -->
<g id="edge3" class="edge">
<title>section_1&#45;&gt;prose_3</title>
<path fill="none" stroke="#000000" stroke-dasharray="5,2" d="M1244.0694,-259.773C1189.1089,-249.3577 1099.4813,-232.0062 1022.5,-215.4 1010.46,-212.8028 997.4016,-209.8152 985.5175,-207.0298"/>
<polygon fill="#000000" stroke="#000000" points="985.9679,-203.54 975.4313,-204.649 984.3598,-210.3528 985.9679,-203.54"/>
</g>
<!-- prose_4 -->
<g id="node5" class="node">
<title>prose_4</title>
<ellipse fill="none" stroke="#000000" cx="1063.5" cy="-197.4" rx="32.4585" ry="18"/>
<text text-anchor="middle" x="1063.5" y="-193.2" font-family="Helvetica,sans-Serif" font-size="14.00" fill="#000000">prose</text>
</g>
<!-- section_1&#45;&gt;prose_4 -->
<g id="edge4" class="edge">
<title>section_1&#45;&gt;prose_4</title>
<path fill="none" stroke="#000000" stroke-dasharray="5,2" d="M1253.4866,-256.3614C1210.1797,-242.9213 1143.2604,-222.1532 1101.4905,-209.1902"/>
<polygon fill="#000000" stroke="#000000" points="1102.2867,-205.7727 1091.6986,-206.1513 1100.2119,-212.4581 1102.2867,-205.7727"/>
</g>
<!-- prose_5 -->
<g id="node6" class="node">
<title>prose_5</title>
<ellipse fill="none" stroke="#000000" cx="1163.5" cy="-197.4" rx="32.4585" ry="18"/>
<text text-anchor="middle" x="1163.5" y="-193.2" font-family="Helvetica,sans-Serif" font-size="14.00" fill="#000000">prose</text>
</g>
<!-- section_1&#45;&gt;prose_5 -->
<g id="edge5" class="edge">
<title>section_1&#45;&gt;prose_5</title>
<path fill="none" stroke="#000000" stroke-dasharray="5,2" d="M1266.2049,-253.4209C1245.2037,-241.9657 1216.9324,-226.545 1195.368,-214.7826"/>
<polygon fill="#000000" stroke="#000000" points="1197.0325,-211.7037 1186.5776,-209.9878 1193.6805,-217.849 1197.0325,-211.7037"/>
</g>
<!-- prose_6 -->
<g id="node7" class="node">
<title>prose_6</title>
<ellipse fill="none" stroke="#000000" cx="1254.5" cy="-197.4" rx="32.4585" ry="18"/>
<text text-anchor="middle" x="1254.5" y="-193.2" font-family="Helvetica,sans-Serif" font-size="14.00" fill="#000000">prose</text>
</g>
<!-- section_1&#45;&gt;prose_6 -->
<g id="edge6" class="edge">
<title>section_1&#45;&gt;prose_6</title>
<path fill="none" stroke="#000000" stroke-dasharray="5,2" d="M1285.3652,-251.6023C1280.5632,-243.1695 1274.7315,-232.9286 1269.4358,-223.6288"/>
<polygon fill="#000000" stroke="#000000" points="1272.3667,-221.7025 1264.3768,-214.7446 1266.2838,-225.1664 1272.3667,-221.7025"/>
</g>
<!-- prose_7 -->
<g id="node8" class="node">
<title>prose_7</title>
<ellipse fill="none" stroke="#000000" cx="1343.5" cy="-197.4" rx="32.4585" ry="18"/>
<text text-anchor="middle" x="1343.5" y="-193.2" font-family="Helvetica,sans-Serif" font-size="14.00" fill="#000000">prose</text>
</g>
<!-- section_1&#45;&gt;prose_7 -->
<g id="edge7" class="edge">
<title>section_1&#45;&gt;prose_7</title>
<path fill="none" stroke="#000000" stroke-dasharray="5,2" d="M1307.3652,-251.6023C1313.1466,-242.9301 1320.203,-232.3455 1326.5407,-222.8389"/>
<polygon fill="#000000" stroke="#000000" points="1329.467,-224.7592 1332.1019,-214.4973 1323.6426,-220.8763 1329.467,-224.7592"/>
</g>
<!-- prose_8 -->
<g id="node9" class="node">
<title>prose_8</title>
<ellipse fill="none" stroke="#000000" cx="1428.5" cy="-197.4" rx="32.4585" ry="18"/>
<text text-anchor="middle" x="1428.5" y="-193.2" font-family="Helvetica,sans-Serif" font-size="14.00" fill="#000000">prose</text>
</g>
<!-- section_1&#45;&gt;prose_8 -->
<g id="edge8" class="edge">
<title>section_1&#45;&gt;prose_8</title>
<path fill="none" stroke="#000000" stroke-dasharray="5,2" d="M1324.6874,-253.5993C1345.8303,-242.1535 1374.4134,-226.68 1396.2345,-214.8671"/>
<polygon fill="#000000" stroke="#000000" points="1398.0031,-217.8896 1405.131,-210.0509 1394.6706,-211.7338 1398.0031,-217.8896"/>
</g>
<!-- prose_9 -->
<g id="node10" class="node">
<title>prose_9</title>
<ellipse fill="none" stroke="#000000" cx="1512.5" cy="-197.4" rx="32.4585" ry="18"/>
<text text-anchor="middle" x="1512.5" y="-193.2" font-family="Helvetica,sans-Serif" font-size="14.00" fill="#000000">prose</text>
</g>
<!-- section_1&#45;&gt;prose_9 -->
<g id="edge9" class="edge">
<title>section_1&#45;&gt;prose_9</title>
<path fill="none" stroke="#000000" stroke-dasharray="5,2" d="M1339.8672,-256.9023C1375.2623,-246.6278 1425.951,-231.2316 1469.5,-215.4 1472.0504,-214.4729 1474.6704,-213.4798 1477.298,-212.454"/>
<polygon fill="#000000" stroke="#000000" points="1478.7663,-215.6359 1486.736,-208.6549 1476.1524,-209.1422 1478.7663,-215.6359"/>
</g>
<!-- prose_10 -->
<g id="node11" class="node">
<title>prose_10</title>
<ellipse fill="none" stroke="#000000" cx="1595.5" cy="-197.4" rx="32.4585" ry="18"/>
<text text-anchor="middle" x="1595.5" y="-193.2" font-family="Helvetica,sans-Serif" font-size="14.00" fill="#000000">prose</text>
</g>
<!-- section_1&#45;&gt;prose_10 -->
<g id="edge10" class="edge">
<title>section_1&#45;&gt;prose_10</title>
<path fill="none" stroke="#000000" stroke-dasharray="5,2" d="M1349.9148,-261.2413C1402.6894,-252.5765 1484.655,-237.12 1553.5,-215.4 1555.9493,-214.6273 1558.4509,-213.7621 1560.9523,-212.8402"/>
<polygon fill="#000000" stroke="#000000" points="1562.4698,-216.0042 1570.4883,-209.0793 1559.9015,-209.4923 1562.4698,-216.0042"/>
</g>
<!-- codeblock_11 -->
<g id="node12" class="node">
<title>codeblock_11</title>
<ellipse fill="none" stroke="#000000" cx="1723.5" cy="-197.4" rx="77.4211" ry="18"/>
<text text-anchor="middle" x="1723.5" y="-193.2" font-family="Helvetica,sans-Serif" font-size="14.00" fill="#000000">code block 23&#45;25</text>
</g>
<!-- section_1&#45;&gt;codeblock_11 -->
<g id="edge11" class="edge">
<title>section_1&#45;&gt;codeblock_11</title>
<path fill="none" stroke="#000000" stroke-dasharray="5,2" d="M1350.2641,-261.5371C1417.7402,-251.6628 1535.8174,-233.7769 1636.5,-215.4 1643.0246,-214.2091 1649.8118,-212.9105 1656.5895,-211.5738"/>
<polygon fill="#000000" stroke="#000000" points="1657.3611,-214.9889 1666.481,-209.5965 1655.9889,-208.1247 1657.3611,-214.9889"/>
</g>
<!-- leaf_12 -->
<g id="node13" class="node">
<title>leaf_12</title>
<polygon fill="none" stroke="#c0c0c0" points="806.5,-143.4 748.5,-143.4 748.5,-107.4 806.5,-107.4 806.5,-143.4"/>
<text text-anchor="middle" x="777.5" y="-121.9" font-family="Inconsolata" font-size="14.00" fill="#000000">* File</text>
</g>
<!-- header_2&#45;&gt;leaf_12 -->
<g id="edge12" class="edge">
<title>header_2&#45;&gt;leaf_12</title>
<path fill="none" stroke="#000000" stroke-dasharray="5,2" d="M784.2289,-179.2314C783.2664,-171.531 782.1218,-162.3744 781.0521,-153.8167"/>
<polygon fill="#000000" stroke="#000000" points="784.5151,-153.3019 779.8017,-143.8133 777.5691,-154.1702 784.5151,-153.3019"/>
</g>
<!-- raw_13 -->
<g id="node14" class="node">
<title>raw_13</title>
<ellipse fill="none" stroke="#000000" cx="851.5" cy="-125.4" rx="27" ry="18"/>
<text text-anchor="middle" x="851.5" y="-121.2" font-family="Helvetica,sans-Serif" font-size="14.00" fill="#000000">raw</text>
</g>
<!-- prose_3&#45;&gt;raw_13 -->
<g id="edge13" class="edge">
<title>prose_3&#45;&gt;raw_13</title>
<path fill="none" stroke="#000000" stroke-dasharray="5,2" d="M926.4777,-182.8298C912.4457,-172.0819 893.1828,-157.3273 877.6956,-145.4647"/>
<polygon fill="#000000" stroke="#000000" points="879.6043,-142.518 869.5372,-139.2158 875.3478,-148.0752 879.6043,-142.518"/>
</g>
<!-- raw_15 -->
<g id="node16" class="node">
<title>raw_15</title>
<ellipse fill="none" stroke="#000000" cx="923.5" cy="-125.4" rx="27" ry="18"/>
<text text-anchor="middle" x="923.5" y="-121.2" font-family="Helvetica,sans-Serif" font-size="14.00" fill="#000000">raw</text>
</g>
<!-- prose_4&#45;&gt;raw_15 -->
<g id="edge15" class="edge">
<title>prose_4&#45;&gt;raw_15</title>
<path fill="none" stroke="#000000" stroke-dasharray="5,2" d="M1039.7509,-185.1862C1016.1276,-173.0371 979.784,-154.3461 954.0296,-141.101"/>
<polygon fill="#000000" stroke="#000000" points="955.557,-137.9508 945.0634,-136.4898 952.3556,-144.1758 955.557,-137.9508"/>
</g>
<!-- raw_17 -->
<g id="node18" class="node">
<title>raw_17</title>
<ellipse fill="none" stroke="#000000" cx="995.5" cy="-125.4" rx="27" ry="18"/>
<text text-anchor="middle" x="995.5" y="-121.2" font-family="Helvetica,sans-Serif" font-size="14.00" fill="#000000">raw</text>
</g>
<!-- prose_5&#45;&gt;raw_17 -->
<g id="edge17" class="edge">
<title>prose_5&#45;&gt;raw_17</title>
<path fill="none" stroke="#000000" stroke-dasharray="5,2" d="M1136.7018,-187.1221C1109.8535,-176.6651 1067.4631,-159.7189 1031.5,-143.4 1029.7342,-142.5988 1027.9282,-141.7597 1026.1115,-140.9005"/>
<polygon fill="#000000" stroke="#000000" points="1027.5999,-137.7325 1017.0749,-136.5176 1024.5451,-144.0307 1027.5999,-137.7325"/>
</g>
<!-- raw_19 -->
<g id="node20" class="node">
<title>raw_19</title>
<ellipse fill="none" stroke="#000000" cx="1067.5" cy="-125.4" rx="27" ry="18"/>
<text text-anchor="middle" x="1067.5" y="-121.2" font-family="Helvetica,sans-Serif" font-size="14.00" fill="#000000">raw</text>
</g>
<!-- prose_6&#45;&gt;raw_19 -->
<g id="edge19" class="edge">
<title>prose_6&#45;&gt;raw_19</title>
<path fill="none" stroke="#000000" stroke-dasharray="5,2" d="M1227.2583,-187.5754C1219.875,-184.9174 1211.8827,-182.0446 1204.5,-179.4 1159.6364,-163.3291 1147.337,-162.0904 1103.5,-143.4 1101.7163,-142.6395 1099.8962,-141.8324 1098.0687,-140.9977"/>
<polygon fill="#000000" stroke="#000000" points="1099.536,-137.8199 1089.0024,-136.6824 1096.5276,-144.1404 1099.536,-137.8199"/>
</g>
<!-- prespace_20 -->
<g id="node21" class="node">
<title>prespace_20</title>
<ellipse fill="none" stroke="#000000" cx="1158.5" cy="-125.4" rx="46.4736" ry="18"/>
<text text-anchor="middle" x="1158.5" y="-121.2" font-family="Helvetica,sans-Serif" font-size="14.00" fill="#000000">prespace</text>
</g>
<!-- prose_6&#45;&gt;prespace_20 -->
<g id="edge20" class="edge">
<title>prose_6&#45;&gt;prespace_20</title>
<path fill="none" stroke="#000000" stroke-dasharray="5,2" d="M1235.073,-182.8298C1221.5746,-172.706 1203.3362,-159.0272 1188.0453,-147.559"/>
<polygon fill="#000000" stroke="#000000" points="1190.0024,-144.6519 1179.9024,-141.4518 1185.8024,-150.2519 1190.0024,-144.6519"/>
</g>
<!-- literal_21 -->
<g id="node22" class="node">
<title>literal_21</title>
<ellipse fill="none" stroke="#000000" cx="1254.5" cy="-125.4" rx="31.481" ry="18"/>
<text text-anchor="middle" x="1254.5" y="-121.2" font-family="Helvetica,sans-Serif" font-size="14.00" fill="#000000">literal</text>
</g>
<!-- prose_6&#45;&gt;literal_21 -->
<g id="edge21" class="edge">
<title>prose_6&#45;&gt;literal_21</title>
<path fill="none" stroke="#000000" stroke-dasharray="5,2" d="M1254.5,-179.2314C1254.5,-171.531 1254.5,-162.3744 1254.5,-153.8167"/>
<polygon fill="#000000" stroke="#000000" points="1258.0001,-153.8133 1254.5,-143.8133 1251.0001,-153.8133 1258.0001,-153.8133"/>
</g>
<!-- raw_22 -->
<g id="node23" class="node">
<title>raw_22</title>
<ellipse fill="none" stroke="#000000" cx="1330.5" cy="-125.4" rx="27" ry="18"/>
<text text-anchor="middle" x="1330.5" y="-121.2" font-family="Helvetica,sans-Serif" font-size="14.00" fill="#000000">raw</text>
</g>
<!-- prose_6&#45;&gt;raw_22 -->
<g id="edge22" class="edge">
<title>prose_6&#45;&gt;raw_22</title>
<path fill="none" stroke="#000000" stroke-dasharray="5,2" d="M1270.9909,-181.7771C1281.6629,-171.6668 1295.7097,-158.3593 1307.476,-147.2122"/>
<polygon fill="#000000" stroke="#000000" points="1309.968,-149.6727 1314.8204,-140.2543 1305.1538,-144.591 1309.968,-149.6727"/>
</g>
<!-- raw_27 -->
<g id="node28" class="node">
<title>raw_27</title>
<ellipse fill="none" stroke="#000000" cx="1402.5" cy="-125.4" rx="27" ry="18"/>
<text text-anchor="middle" x="1402.5" y="-121.2" font-family="Helvetica,sans-Serif" font-size="14.00" fill="#000000">raw</text>
</g>
<!-- prose_7&#45;&gt;raw_27 -->
<g id="edge27" class="edge">
<title>prose_7&#45;&gt;raw_27</title>
<path fill="none" stroke="#000000" stroke-dasharray="5,2" d="M1357.1841,-180.7008C1364.8125,-171.3915 1374.4443,-159.6375 1382.8644,-149.3621"/>
<polygon fill="#000000" stroke="#000000" points="1385.6649,-151.4666 1389.296,-141.5134 1380.2505,-147.0298 1385.6649,-151.4666"/>
</g>
<!-- raw_29 -->
<g id="node30" class="node">
<title>raw_29</title>
<ellipse fill="none" stroke="#000000" cx="1474.5" cy="-125.4" rx="27" ry="18"/>
<text text-anchor="middle" x="1474.5" y="-121.2" font-family="Helvetica,sans-Serif" font-size="14.00" fill="#000000">raw</text>
</g>
<!-- prose_8&#45;&gt;raw_29 -->
<g id="edge29" class="edge">
<title>prose_8&#45;&gt;raw_29</title>
<path fill="none" stroke="#000000" stroke-dasharray="5,2" d="M1439.4014,-180.337C1445.0155,-171.5497 1451.9741,-160.6579 1458.2112,-150.8956"/>
<polygon fill="#000000" stroke="#000000" points="1461.2424,-152.6519 1463.6769,-142.3405 1455.3435,-148.8831 1461.2424,-152.6519"/>
</g>
<!-- raw_31 -->
<g id="node32" class="node">
<title>raw_31</title>
<ellipse fill="none" stroke="#000000" cx="1546.5" cy="-125.4" rx="27" ry="18"/>
<text text-anchor="middle" x="1546.5" y="-121.2" font-family="Helvetica,sans-Serif" font-size="14.00" fill="#000000">raw</text>
</g>
<!-- prose_9&#45;&gt;raw_31 -->
<g id="edge31" class="edge">
<title>prose_9&#45;&gt;raw_31</title>
<path fill="none" stroke="#000000" stroke-dasharray="5,2" d="M1520.7305,-179.9708C1524.6979,-171.5691 1529.5429,-161.3091 1533.9567,-151.9623"/>
<polygon fill="#000000" stroke="#000000" points="1537.2401,-153.2058 1538.3453,-142.6687 1530.9104,-150.2167 1537.2401,-153.2058"/>
</g>
<!-- raw_33 -->
<g id="node34" class="node">
<title>raw_33</title>
<ellipse fill="none" stroke="#000000" cx="1618.5" cy="-125.4" rx="27" ry="18"/>
<text text-anchor="middle" x="1618.5" y="-121.2" font-family="Helvetica,sans-Serif" font-size="14.00" fill="#000000">raw</text>
</g>
<!-- prose_10&#45;&gt;raw_33 -->
<g id="edge33" class="edge">
<title>prose_10&#45;&gt;raw_33</title>
<path fill="none" stroke="#000000" stroke-dasharray="5,2" d="M1601.1854,-179.6023C1603.7563,-171.5541 1606.8534,-161.8588 1609.7132,-152.9067"/>
<polygon fill="#000000" stroke="#000000" points="1613.0913,-153.8334 1612.8003,-143.2426 1606.4232,-151.7033 1613.0913,-153.8334"/>
</g>
<!-- leaf_35 -->
<g id="node36" class="node">
<title>leaf_35</title>
<polygon fill="none" stroke="#c0c0c0" points="1785,-143.4 1664,-143.4 1664,-107.4 1785,-107.4 1785,-143.4"/>
<text text-anchor="middle" x="1724.5" y="-121.9" font-family="Inconsolata" font-size="14.00" fill="#000000">local File = {}</text>
</g>
<!-- codeblock_11&#45;&gt;leaf_35 -->
<g id="edge35" class="edge">
<title>codeblock_11&#45;&gt;leaf_35</title>
<path fill="none" stroke="#000000" stroke-dasharray="5,2" d="M1723.7523,-179.2314C1723.8593,-171.531 1723.9865,-162.3744 1724.1053,-153.8167"/>
<polygon fill="#000000" stroke="#000000" points="1727.6049,-153.861 1724.2443,-143.8133 1720.6056,-153.7637 1727.6049,-153.861"/>
</g>
<!-- leaf_14 -->
<g id="node15" class="node">
<title>leaf_14</title>
<polygon fill="none" stroke="#c0c0c0" points="373,-71.6012 0,-71.6012 0,.2011 373,.2011 373,-71.6012"/>
<text text-anchor="middle" x="186.5" y="-8.2" font-family="Inconsolata" font-size="14.00" fill="#000000">File is going to mutate a few times fairly rapidly.</text>
</g>
<!-- raw_13&#45;&gt;leaf_14 -->
<g id="edge14" class="edge">
<title>raw_13&#45;&gt;leaf_14</title>
<path fill="none" stroke="#000000" stroke-dasharray="5,2" d="M831.1013,-113.5285C826.1402,-111.1168 820.7481,-108.8711 815.5,-107.4 632.7364,-56.169 575.8788,-95.3424 383.3393,-71.4354"/>
<polygon fill="#000000" stroke="#000000" points="383.5361,-67.932 373.1718,-70.1303 382.6449,-74.875 383.5361,-67.932"/>
</g>
<!-- leaf_16 -->
<g id="node17" class="node">
<title>leaf_16</title>
<polygon fill="none" stroke="#c0c0c0" points="757.5,-55.6021 391.5,-55.6021 391.5,-15.7979 757.5,-15.7979 757.5,-55.6021"/>
<text text-anchor="middle" x="574.5" y="-24.2" font-family="Inconsolata" font-size="14.00" fill="#000000">Right now a File has a Path and isn&#39;t a Directory.</text>
</g>
<!-- raw_15&#45;&gt;leaf_16 -->
<g id="edge16" class="edge">
<title>raw_15&#45;&gt;leaf_16</title>
<path fill="none" stroke="#000000" stroke-dasharray="5,2" d="M902.5486,-113.8769C897.7024,-111.5081 892.4988,-109.1932 887.5,-107.4 827.3549,-85.8251 758.3225,-69.1965 700.418,-57.4099"/>
<polygon fill="#000000" stroke="#000000" points="700.9777,-53.9525 690.484,-55.4129 699.5981,-60.8152 700.9777,-53.9525"/>
</g>
<!-- leaf_18 -->
<g id="node19" class="node">
<title>leaf_18</title>
<polygon fill="none" stroke="#c0c0c0" points="959.5,-55.6021 775.5,-55.6021 775.5,-15.7979 959.5,-15.7979 959.5,-55.6021"/>
<text text-anchor="middle" x="867.5" y="-24.2" font-family="Inconsolata" font-size="14.00" fill="#000000">It has a Directory also.</text>
</g>
<!-- raw_17&#45;&gt;leaf_18 -->
<g id="edge18" class="edge">
<title>raw_17&#45;&gt;leaf_18</title>
<path fill="none" stroke="#000000" stroke-dasharray="5,2" d="M976.8877,-112.3569C957.9912,-99.1146 928.2186,-78.2505 904.5023,-61.6306"/>
<polygon fill="#000000" stroke="#000000" points="906.2681,-58.5941 896.0701,-55.7214 902.2508,-64.3266 906.2681,-58.5941"/>
</g>
<!-- leaf_23 -->
<g id="node24" class="node">
<title>leaf_23</title>
<polygon fill="none" stroke="#c0c0c0" points="1113,-55.6021 978,-55.6021 978,-15.7979 1113,-15.7979 1113,-55.6021"/>
<text text-anchor="middle" x="1045.5" y="-24.2" font-family="Inconsolata" font-size="14.00" fill="#000000">It can tell if it</text>
</g>
<!-- raw_19&#45;&gt;leaf_23 -->
<g id="edge23" class="edge">
<title>raw_19&#45;&gt;leaf_23</title>
<path fill="none" stroke="#000000" stroke-dasharray="5,2" d="M1063.048,-107.2479C1060.1264,-95.336 1056.236,-79.4737 1052.8608,-65.7119"/>
<polygon fill="#000000" stroke="#000000" points="1056.1861,-64.5763 1050.4047,-55.6979 1049.3876,-66.2438 1056.1861,-64.5763"/>
</g>
<!-- leaf_24 -->
<g id="node25" class="node">
<title>leaf_24</title>
<polygon fill="none" stroke="#c0c0c0" points="1185.5,-53.7 1131.5,-53.7 1131.5,-17.7 1185.5,-17.7 1185.5,-53.7"/>
<text text-anchor="middle" x="1158.5" y="-32.2" font-family="Inconsolata" font-size="14.00" fill="#000000"> </text>
</g>
<!-- prespace_20&#45;&gt;leaf_24 -->
<g id="edge24" class="edge">
<title>prespace_20&#45;&gt;leaf_24</title>
<path fill="none" stroke="#000000" stroke-dasharray="5,2" d="M1158.5,-107.2479C1158.5,-94.8465 1158.5,-78.1633 1158.5,-64.0263"/>
<polygon fill="#000000" stroke="#000000" points="1162.0001,-63.8251 1158.5,-53.8252 1155.0001,-63.8252 1162.0001,-63.8251"/>
</g>
<!-- leaf_25 -->
<g id="node26" class="node">
<title>leaf_25</title>
<polygon fill="none" stroke="#c0c0c0" points="1275.5,-53.7 1203.5,-53.7 1203.5,-17.7 1275.5,-17.7 1275.5,-53.7"/>
<text text-anchor="middle" x="1239.5" y="-32.2" font-family="Inconsolata" font-size="14.00" fill="#000000">exists()</text>
</g>
<!-- literal_21&#45;&gt;leaf_25 -->
<g id="edge25" class="edge">
<title>literal_21&#45;&gt;leaf_25</title>
<path fill="none" stroke="#000000" stroke-dasharray="5,2" d="M1251.4645,-107.2479C1249.3907,-94.8465 1246.6009,-78.1633 1244.2368,-64.0263"/>
<polygon fill="#000000" stroke="#000000" points="1247.6324,-63.1109 1242.531,-53.8252 1240.7283,-64.2655 1247.6324,-63.1109"/>
</g>
<!-- leaf_26 -->
<g id="node27" class="node">
<title>leaf_26</title>
<polygon fill="none" stroke="#c0c0c0" points="1575.5,-55.6021 1293.5,-55.6021 1293.5,-15.7979 1575.5,-15.7979 1575.5,-55.6021"/>
<text text-anchor="middle" x="1434.5" y="-40.2" font-family="Inconsolata" font-size="14.00" fill="#000000">, like the others, it doesn&#39;t have to.</text>
</g>
<!-- raw_22&#45;&gt;leaf_26 -->
<g id="edge26" class="edge">
<title>raw_22&#45;&gt;leaf_26</title>
<path fill="none" stroke="#000000" stroke-dasharray="5,2" d="M1347.2094,-110.9882C1362.4828,-97.8149 1385.447,-78.0082 1403.9883,-62.0163"/>
<polygon fill="#000000" stroke="#000000" points="1406.342,-64.6084 1411.6285,-55.4267 1401.77,-59.3076 1406.342,-64.6084"/>
</g>
<!-- leaf_28 -->
<g id="node29" class="node">
<title>leaf_28</title>
<polygon fill="none" stroke="#c0c0c0" points="2107,-55.6021 1594,-55.6021 1594,-15.7979 2107,-15.7979 2107,-55.6021"/>
<text text-anchor="middle" x="1850.5" y="-24.2" font-family="Inconsolata" font-size="14.00" fill="#000000">Most importantly, a File is not just unique, but won&#39;t construct twice.</text>
</g>
<!-- raw_27&#45;&gt;leaf_28 -->
<g id="edge28" class="edge">
<title>raw_27&#45;&gt;leaf_28</title>
<path fill="none" stroke="#000000" stroke-dasharray="5,2" d="M1423.3836,-113.6799C1428.2334,-111.3213 1433.4556,-109.0604 1438.5,-107.4 1486.5883,-91.5721 1604.5525,-71.7107 1701.9893,-56.9077"/>
<polygon fill="#000000" stroke="#000000" points="1702.5878,-60.3571 1711.9519,-55.4009 1701.5409,-53.4358 1702.5878,-60.3571"/>
</g>
<!-- leaf_30 -->
<g id="node31" class="node">
<title>leaf_30</title>
<polygon fill="none" stroke="#c0c0c0" points="2659.5,-55.6021 2125.5,-55.6021 2125.5,-15.7979 2659.5,-15.7979 2659.5,-55.6021"/>
<text text-anchor="middle" x="2392.5" y="-24.2" font-family="Inconsolata" font-size="14.00" fill="#000000">For a Path or a Dir, trying to create a new one just gets you the old one.</text>
</g>
<!-- raw_29&#45;&gt;leaf_30 -->
<g id="edge30" class="edge">
<title>raw_29&#45;&gt;leaf_30</title>
<path fill="none" stroke="#000000" stroke-dasharray="5,2" d="M1494.874,-113.4385C1499.8361,-111.0305 1505.2349,-108.8091 1510.5,-107.4 1771.1361,-37.6487 1847.8826,-96.7206 2116.5,-71.4 2158.1611,-67.4729 2203.2233,-62.1169 2244.6169,-56.7483"/>
<polygon fill="#000000" stroke="#000000" points="2245.3148,-60.1869 2254.7771,-55.4208 2244.4079,-53.2459 2245.3148,-60.1869"/>
</g>
<!-- leaf_32 -->
<g id="node33" class="node">
<title>leaf_32</title>
<polygon fill="none" stroke="#c0c0c0" points="3211.5,-63.0004 2677.5,-63.0004 2677.5,-8.3996 3211.5,-8.3996 3211.5,-63.0004"/>
<text text-anchor="middle" x="2944.5" y="-31.9" font-family="Inconsolata" font-size="14.00" fill="#000000">But files lock and otherwise hold resources open, so they only get created</text>
<text text-anchor="middle" x="2944.5" y="-16.5" font-family="Inconsolata" font-size="14.00" fill="#000000">once.</text>
</g>
<!-- raw_31&#45;&gt;leaf_32 -->
<g id="edge32" class="edge">
<title>raw_31&#45;&gt;leaf_32</title>
<path fill="none" stroke="#000000" stroke-dasharray="5,2" d="M1566.8479,-113.3383C1571.8111,-110.9344 1577.2169,-108.74 1582.5,-107.4 1816.555,-48.0366 2427.8236,-90.9098 2668.5,-71.4 2692.2027,-69.4786 2716.9933,-66.9764 2741.5774,-64.1878"/>
<polygon fill="#000000" stroke="#000000" points="2742.1896,-67.6405 2751.7237,-63.0196 2741.3889,-60.6864 2742.1896,-67.6405"/>
</g>
<!-- leaf_34 -->
<g id="node35" class="node">
<title>leaf_34</title>
<polygon fill="none" stroke="#c0c0c0" points="3777.5,-63.0004 3229.5,-63.0004 3229.5,-8.3996 3777.5,-8.3996 3777.5,-63.0004"/>
<text text-anchor="middle" x="3503.5" y="-31.9" font-family="Inconsolata" font-size="14.00" fill="#000000">There is no protection against uniqueness of the resulting pointer, but it&#39;s</text>
<text text-anchor="middle" x="3503.5" y="-16.5" font-family="Inconsolata" font-size="14.00" fill="#000000">a cheap way to find out we may have contention.</text>
</g>
<!-- raw_33&#45;&gt;leaf_34 -->
<g id="edge34" class="edge">
<title>raw_33&#45;&gt;leaf_34</title>
<path fill="none" stroke="#000000" stroke-dasharray="5,2" d="M1638.8381,-113.2993C1643.8017,-110.8971 1649.2101,-108.7132 1654.5,-107.4 1823.4193,-65.4685 3046.9334,-84.3085 3220.5,-71.4 3245.5701,-69.5355 3271.8257,-67.0067 3297.8109,-64.1502"/>
<polygon fill="#000000" stroke="#000000" points="3298.2038,-67.6282 3307.7537,-63.0402 3297.4271,-60.6714 3298.2038,-67.6282"/>
</g>
</g>
</svg>