<?xml version="1.0" encoding="UTF-8" standalone="no"?>
<!DOCTYPE svg PUBLIC "-//W3C//DTD SVG 1.1//EN"
 "http://www.w3.org/Graphics/SVG/1.1/DTD/svg11.dtd">
<!-- Generated by graphviz version 2.40.1 (20161225.0304)
 -->
<!-- Title: lpegNode Pages: 1 -->
<svg width="3363pt" height="618pt"
 viewBox="0.00 0.00 3363.00 617.80" xmlns="http://www.w3.org/2000/svg" xmlns:xlink="http://www.w3.org/1999/xlink">
<g id="graph0" class="graph" transform="scale(1 1) rotate(0) translate(4 613.8005)">
<title>lpegNode</title>
<polygon fill="#ffffff" stroke="transparent" points="-4,4 -4,-613.8005 3359,-613.8005 3359,4 -4,4"/>
<!-- doc_0 -->
<g id="node1" class="node">
<title>doc_0</title>
<ellipse fill="none" stroke="#000000" cx="1438" cy="-591.8005" rx="42.1216" ry="18"/>
<text text-anchor="middle" x="1438" y="-587.6005" font-family="Helvetica,sans-Serif" font-size="14.00" fill="#000000">doc &#45; 97</text>
</g>
<!-- section_1 -->
<g id="node2" class="node">
<title>section_1</title>
<ellipse fill="none" stroke="#000000" cx="1438" cy="-519.8005" rx="60.9826" ry="18"/>
<text text-anchor="middle" x="1438" y="-515.6005" font-family="Helvetica,sans-Serif" font-size="14.00" fill="#000000">section: 1&#45;97</text>
</g>
<!-- doc_0&#45;&gt;section_1 -->
<g id="edge1" class="edge">
<title>doc_0&#45;&gt;section_1</title>
<path fill="none" stroke="#000000" stroke-dasharray="5,2" d="M1438,-573.6319C1438,-565.9315 1438,-556.7749 1438,-548.2172"/>
<polygon fill="#000000" stroke="#000000" points="1441.5001,-548.2138 1438,-538.2138 1434.5001,-548.2138 1441.5001,-548.2138"/>
</g>
<!-- header_2 -->
<g id="node3" class="node">
<title>header_2</title>
<ellipse fill="none" stroke="#000000" cx="123" cy="-447.8005" rx="36.7923" ry="18"/>
<text text-anchor="middle" x="123" y="-443.6005" font-family="Helvetica,sans-Serif" font-size="14.00" fill="#000000">1 : File</text>
</g>
<!-- section_1&#45;&gt;header_2 -->
<g id="edge2" class="edge">
<title>section_1&#45;&gt;header_2</title>
<path fill="none" stroke="#000000" stroke-dasharray="5,2" d="M1377.2672,-519.4308C1200.8349,-517.8485 673.231,-509.5202 238,-465.8005 214.5861,-463.4486 188.6789,-459.512 167.3908,-455.9191"/>
<polygon fill="#000000" stroke="#000000" points="167.7911,-452.4366 157.3426,-454.1913 166.6048,-459.3354 167.7911,-452.4366"/>
</g>
<!-- prose_3 -->
<g id="node4" class="node">
<title>prose_3</title>
<ellipse fill="none" stroke="#000000" cx="279" cy="-447.8005" rx="32.4585" ry="18"/>
<text text-anchor="middle" x="279" y="-443.6005" font-family="Helvetica,sans-Serif" font-size="14.00" fill="#000000">prose</text>
</g>
<!-- section_1&#45;&gt;prose_3 -->
<g id="edge3" class="edge">
<title>section_1&#45;&gt;prose_3</title>
<path fill="none" stroke="#000000" stroke-dasharray="5,2" d="M1377.1997,-518.2594C1179.1599,-513.0058 553.9193,-494.516 354,-465.8005 342.1082,-464.0924 329.3398,-461.3708 317.7699,-458.5557"/>
<polygon fill="#000000" stroke="#000000" points="318.5155,-455.1342 307.963,-456.081 316.8027,-461.9215 318.5155,-455.1342"/>
</g>
<!-- codeblock_4 -->
<g id="node5" class="node">
<title>codeblock_4</title>
<ellipse fill="none" stroke="#000000" cx="436" cy="-447.8005" rx="72.5844" ry="18"/>
<text text-anchor="middle" x="436" y="-443.6005" font-family="Helvetica,sans-Serif" font-size="14.00" fill="#000000">code block 4&#45;12</text>
</g>
<!-- section_1&#45;&gt;codeblock_4 -->
<g id="edge4" class="edge">
<title>section_1&#45;&gt;codeblock_4</title>
<path fill="none" stroke="#000000" stroke-dasharray="5,2" d="M1377.6127,-517.3513C1237.0023,-511.3561 876.878,-494.3157 577,-465.8005 554.9434,-463.7032 531.0152,-460.863 509.2411,-458.059"/>
<polygon fill="#000000" stroke="#000000" points="509.4427,-454.5558 499.074,-456.7326 508.5371,-461.4969 509.4427,-454.5558"/>
</g>
<!-- codeblock_5 -->
<g id="node6" class="node">
<title>codeblock_5</title>
<ellipse fill="none" stroke="#000000" cx="663" cy="-447.8005" rx="77.4211" ry="18"/>
<text text-anchor="middle" x="663" y="-443.6005" font-family="Helvetica,sans-Serif" font-size="14.00" fill="#000000">code block 14&#45;16</text>
</g>
<!-- section_1&#45;&gt;codeblock_5 -->
<g id="edge5" class="edge">
<title>section_1&#45;&gt;codeblock_5</title>
<path fill="none" stroke="#000000" stroke-dasharray="5,2" d="M1378.2874,-516.0455C1263.6521,-508.5695 1004.8715,-490.4013 788,-465.8005 771.6728,-463.9485 754.1921,-461.6381 737.6327,-459.2965"/>
<polygon fill="#000000" stroke="#000000" points="737.8552,-455.7927 727.4597,-457.8383 736.8619,-462.7219 737.8552,-455.7927"/>
</g>
<!-- codeblock_6 -->
<g id="node7" class="node">
<title>codeblock_6</title>
<ellipse fill="none" stroke="#000000" cx="874" cy="-447.8005" rx="77.4211" ry="18"/>
<text text-anchor="middle" x="874" y="-443.6005" font-family="Helvetica,sans-Serif" font-size="14.00" fill="#000000">code block 18&#45;22</text>
</g>
<!-- section_1&#45;&gt;codeblock_6 -->
<g id="edge6" class="edge">
<title>section_1&#45;&gt;codeblock_6</title>
<path fill="none" stroke="#000000" stroke-dasharray="5,2" d="M1382.119,-512.6668C1281.0957,-499.7702 1067.8663,-472.5494 952.3466,-457.8022"/>
<polygon fill="#000000" stroke="#000000" points="952.5226,-454.2964 942.1599,-456.5018 951.6361,-461.24 952.5226,-454.2964"/>
</g>
<!-- codeblock_7 -->
<g id="node8" class="node">
<title>codeblock_7</title>
<ellipse fill="none" stroke="#000000" cx="1122" cy="-447.8005" rx="77.4211" ry="18"/>
<text text-anchor="middle" x="1122" y="-443.6005" font-family="Helvetica,sans-Serif" font-size="14.00" fill="#000000">code block 25&#45;29</text>
</g>
<!-- section_1&#45;&gt;codeblock_7 -->
<g id="edge7" class="edge">
<title>section_1&#45;&gt;codeblock_7</title>
<path fill="none" stroke="#000000" stroke-dasharray="5,2" d="M1389.6624,-508.7869C1335.5347,-496.454 1247.5247,-476.4011 1187.3062,-462.6804"/>
<polygon fill="#000000" stroke="#000000" points="1188.0458,-459.2593 1177.5181,-460.4502 1186.4907,-466.0844 1188.0458,-459.2593"/>
</g>
<!-- codeblock_8 -->
<g id="node9" class="node">
<title>codeblock_8</title>
<ellipse fill="none" stroke="#000000" cx="1352" cy="-447.8005" rx="77.4211" ry="18"/>
<text text-anchor="middle" x="1352" y="-443.6005" font-family="Helvetica,sans-Serif" font-size="14.00" fill="#000000">code block 31&#45;35</text>
</g>
<!-- section_1&#45;&gt;codeblock_8 -->
<g id="edge8" class="edge">
<title>section_1&#45;&gt;codeblock_8</title>
<path fill="none" stroke="#000000" stroke-dasharray="5,2" d="M1417.6192,-502.7375C1406.5364,-493.4589 1392.6512,-481.8341 1380.5109,-471.6701"/>
<polygon fill="#000000" stroke="#000000" points="1382.7463,-468.9769 1372.8319,-465.2412 1378.2527,-474.3443 1382.7463,-468.9769"/>
</g>
<!-- codeblock_9 -->
<g id="node10" class="node">
<title>codeblock_9</title>
<ellipse fill="none" stroke="#000000" cx="1564" cy="-447.8005" rx="77.4211" ry="18"/>
<text text-anchor="middle" x="1564" y="-443.6005" font-family="Helvetica,sans-Serif" font-size="14.00" fill="#000000">code block 37&#45;41</text>
</g>
<!-- section_1&#45;&gt;codeblock_9 -->
<g id="edge9" class="edge">
<title>section_1&#45;&gt;codeblock_9</title>
<path fill="none" stroke="#000000" stroke-dasharray="5,2" d="M1465.9635,-503.8214C1483.6136,-493.7356 1506.6433,-480.5758 1525.9465,-469.5454"/>
<polygon fill="#000000" stroke="#000000" points="1527.8552,-472.4859 1534.8011,-464.4856 1524.3822,-466.4082 1527.8552,-472.4859"/>
</g>
<!-- codeblock_10 -->
<g id="node11" class="node">
<title>codeblock_10</title>
<ellipse fill="none" stroke="#000000" cx="1799" cy="-447.8005" rx="77.4211" ry="18"/>
<text text-anchor="middle" x="1799" y="-443.6005" font-family="Helvetica,sans-Serif" font-size="14.00" fill="#000000">code block 43&#45;47</text>
</g>
<!-- section_1&#45;&gt;codeblock_10 -->
<g id="edge10" class="edge">
<title>section_1&#45;&gt;codeblock_10</title>
<path fill="none" stroke="#000000" stroke-dasharray="5,2" d="M1488.5756,-509.7134C1551.5516,-497.1531 1659.4149,-475.6402 1729.9577,-461.5707"/>
<polygon fill="#000000" stroke="#000000" points="1730.9629,-464.9393 1740.0851,-459.5509 1729.5937,-458.0745 1730.9629,-464.9393"/>
</g>
<!-- codeblock_11 -->
<g id="node12" class="node">
<title>codeblock_11</title>
<ellipse fill="none" stroke="#000000" cx="2051" cy="-447.8005" rx="77.4211" ry="18"/>
<text text-anchor="middle" x="2051" y="-443.6005" font-family="Helvetica,sans-Serif" font-size="14.00" fill="#000000">code block 49&#45;53</text>
</g>
<!-- section_1&#45;&gt;codeblock_11 -->
<g id="edge11" class="edge">
<title>section_1&#45;&gt;codeblock_11</title>
<path fill="none" stroke="#000000" stroke-dasharray="5,2" d="M1494.5708,-513.156C1604.2306,-500.2759 1845.9606,-471.8835 1971.6263,-457.1234"/>
<polygon fill="#000000" stroke="#000000" points="1972.0522,-460.5975 1981.5756,-455.9548 1971.2355,-453.6453 1972.0522,-460.5975"/>
</g>
<!-- codeblock_12 -->
<g id="node13" class="node">
<title>codeblock_12</title>
<ellipse fill="none" stroke="#000000" cx="2304" cy="-447.8005" rx="77.4211" ry="18"/>
<text text-anchor="middle" x="2304" y="-443.6005" font-family="Helvetica,sans-Serif" font-size="14.00" fill="#000000">code block 55&#45;59</text>
</g>
<!-- section_1&#45;&gt;codeblock_12 -->
<g id="edge12" class="edge">
<title>section_1&#45;&gt;codeblock_12</title>
<path fill="none" stroke="#000000" stroke-dasharray="5,2" d="M1497.4293,-515.8189C1618.0773,-507.6011 1900.3602,-487.6891 2137,-465.8005 2165.4472,-463.1692 2196.579,-459.9157 2224.1744,-456.9016"/>
<polygon fill="#000000" stroke="#000000" points="2224.6116,-460.3748 2234.1696,-455.8036 2223.8472,-453.4166 2224.6116,-460.3748"/>
</g>
<!-- codeblock_13 -->
<g id="node14" class="node">
<title>codeblock_13</title>
<ellipse fill="none" stroke="#000000" cx="2577" cy="-447.8005" rx="77.4211" ry="18"/>
<text text-anchor="middle" x="2577" y="-443.6005" font-family="Helvetica,sans-Serif" font-size="14.00" fill="#000000">code block 63&#45;67</text>
</g>
<!-- section_1&#45;&gt;codeblock_13 -->
<g id="edge13" class="edge">
<title>section_1&#45;&gt;codeblock_13</title>
<path fill="none" stroke="#000000" stroke-dasharray="5,2" d="M1498.201,-517.2084C1648.6758,-510.5504 2053.2742,-491.5466 2390,-465.8005 2424.9239,-463.1303 2463.4545,-459.5327 2496.42,-456.2558"/>
<polygon fill="#000000" stroke="#000000" points="2496.8603,-459.7294 2506.4619,-455.2506 2496.1629,-452.7642 2496.8603,-459.7294"/>
</g>
<!-- codeblock_14 -->
<g id="node15" class="node">
<title>codeblock_14</title>
<ellipse fill="none" stroke="#000000" cx="2897" cy="-447.8005" rx="77.4211" ry="18"/>
<text text-anchor="middle" x="2897" y="-443.6005" font-family="Helvetica,sans-Serif" font-size="14.00" fill="#000000">code block 70&#45;92</text>
</g>
<!-- section_1&#45;&gt;codeblock_14 -->
<g id="edge14" class="edge">
<title>section_1&#45;&gt;codeblock_14</title>
<path fill="none" stroke="#000000" stroke-dasharray="5,2" d="M1498.5814,-517.8322C1677.035,-511.883 2216.236,-492.8235 2663,-465.8005 2713.0887,-462.7709 2769.1407,-458.4903 2813.8258,-454.8636"/>
<polygon fill="#000000" stroke="#000000" points="2814.3708,-458.3309 2824.0529,-454.0289 2813.8013,-451.3541 2814.3708,-458.3309"/>
</g>
<!-- codeblock_15 -->
<g id="node16" class="node">
<title>codeblock_15</title>
<ellipse fill="none" stroke="#000000" cx="3190" cy="-447.8005" rx="77.4211" ry="18"/>
<text text-anchor="middle" x="3190" y="-443.6005" font-family="Helvetica,sans-Serif" font-size="14.00" fill="#000000">code block 94&#45;97</text>
</g>
<!-- section_1&#45;&gt;codeblock_15 -->
<g id="edge15" class="edge">
<title>section_1&#45;&gt;codeblock_15</title>
<path fill="none" stroke="#000000" stroke-dasharray="5,2" d="M1498.7841,-518.8077C1706.3246,-515.1764 2406.0181,-500.9462 2983,-465.8005 3024.4812,-463.2738 3070.5488,-459.3759 3108.6743,-455.8526"/>
<polygon fill="#000000" stroke="#000000" points="3109.0641,-459.3316 3118.696,-454.9183 3108.4142,-452.3618 3109.0641,-459.3316"/>
</g>
<!-- leaf_16 -->
<g id="node17" class="node">
<title>leaf_16</title>
<polygon fill="none" stroke="#c0c0c0" points="58,-252.9003 0,-252.9003 0,-216.9003 58,-216.9003 58,-252.9003"/>
<text text-anchor="middle" x="29" y="-231.4003" font-family="Inconsolata" font-size="14.00" fill="#000000">* File</text>
</g>
<!-- header_2&#45;&gt;leaf_16 -->
<g id="edge16" class="edge">
<title>header_2&#45;&gt;leaf_16</title>
<path fill="none" stroke="#000000" stroke-dasharray="5,2" d="M102.2629,-432.7371C90.2365,-422.9423 75.7783,-409.1622 67,-393.8005 43.3561,-352.4247 34.3795,-296.9182 31.002,-263.6491"/>
<polygon fill="#000000" stroke="#000000" points="34.4496,-262.9134 30.0581,-253.2716 27.4784,-263.5475 34.4496,-262.9134"/>
</g>
<!-- raw_17 -->
<g id="node18" class="node">
<title>raw_17</title>
<ellipse fill="none" stroke="#000000" cx="103" cy="-234.9003" rx="27" ry="18"/>
<text text-anchor="middle" x="103" y="-230.7003" font-family="Helvetica,sans-Serif" font-size="14.00" fill="#000000">raw</text>
</g>
<!-- prose_3&#45;&gt;raw_17 -->
<g id="edge17" class="edge">
<title>prose_3&#45;&gt;raw_17</title>
<path fill="none" stroke="#000000" stroke-dasharray="5,2" d="M247.3968,-444.2202C215.3293,-438.8732 166.5963,-425.7301 139,-393.8005 107.289,-357.1102 101.9059,-298.2953 101.8094,-263.4458"/>
<polygon fill="#000000" stroke="#000000" points="105.3141,-263.0737 101.9371,-253.0315 98.3146,-262.9878 105.3141,-263.0737"/>
</g>
<!-- leaf_19 -->
<g id="node20" class="node">
<title>leaf_19</title>
<polygon fill="none" stroke="#c0c0c0" points="605.5,-292.7007 148.5,-292.7007 148.5,-177.0999 605.5,-177.0999 605.5,-292.7007"/>
<text text-anchor="middle" x="377" y="-277.6004" font-family="Inconsolata" font-size="14.00" fill="#000000">local Path = require &quot;walk/path&quot;</text>
<text text-anchor="middle" x="377" y="-262.2003" font-family="Inconsolata" font-size="14.00" fill="#000000">local lfs = require &quot;lfs&quot;</text>
<text text-anchor="middle" x="377" y="-246.8003" font-family="Inconsolata" font-size="14.00" fill="#000000">local pl_path = require &quot;pl.path&quot;</text>
<text text-anchor="middle" x="377" y="-231.4003" font-family="Inconsolata" font-size="14.00" fill="#000000">local pl_file = require &quot;pl.file&quot;</text>
<text text-anchor="middle" x="377" y="-216.0002" font-family="Inconsolata" font-size="14.00" fill="#000000">local read, write = pl_file.read, pl_file.write</text>
<text text-anchor="middle" x="377" y="-200.6002" font-family="Inconsolata" font-size="14.00" fill="#000000">local extension, basename = pl_path.extension, pl_path.basename</text>
<text text-anchor="middle" x="377" y="-185.2002" font-family="Inconsolata" font-size="14.00" fill="#000000">local isfile = pl_path.isfile</text>
</g>
<!-- codeblock_4&#45;&gt;leaf_19 -->
<g id="edge19" class="edge">
<title>codeblock_4&#45;&gt;leaf_19</title>
<path fill="none" stroke="#000000" stroke-dasharray="5,2" d="M430.9697,-429.6488C423.2493,-401.7897 408.0818,-347.0584 395.7872,-302.6933"/>
<polygon fill="#000000" stroke="#000000" points="399.0949,-301.5234 393.0514,-292.8213 392.3492,-303.3929 399.0949,-301.5234"/>
</g>
<!-- leaf_20 -->
<g id="node21" class="node">
<title>leaf_20</title>
<polygon fill="none" stroke="#c0c0c0" points="702.5,-252.9003 623.5,-252.9003 623.5,-216.9003 702.5,-216.9003 702.5,-252.9003"/>
<text text-anchor="middle" x="663" y="-231.4003" font-family="Inconsolata" font-size="14.00" fill="#000000">local new</text>
</g>
<!-- codeblock_5&#45;&gt;leaf_20 -->
<g id="edge20" class="edge">
<title>codeblock_5&#45;&gt;leaf_20</title>
<path fill="none" stroke="#000000" stroke-dasharray="5,2" d="M663,-429.6488C663,-392.4898 663,-307.5227 663,-263.1141"/>
<polygon fill="#000000" stroke="#000000" points="666.5001,-263.006 663,-253.0061 659.5001,-263.0061 666.5001,-263.006"/>
</g>
<!-- leaf_21 -->
<g id="node22" class="node">
<title>leaf_21</title>
<polygon fill="none" stroke="#c0c0c0" points="953.5,-262.1007 720.5,-262.1007 720.5,-207.6998 953.5,-207.6998 953.5,-262.1007"/>
<text text-anchor="middle" x="837" y="-246.8003" font-family="Inconsolata" font-size="14.00" fill="#000000">local function __tostring(file)</text>
<text text-anchor="middle" x="837" y="-231.4003" font-family="Inconsolata" font-size="14.00" fill="#000000"> &#160;&#160;return file.path.str</text>
<text text-anchor="middle" x="837" y="-216.0002" font-family="Inconsolata" font-size="14.00" fill="#000000">end</text>
</g>
<!-- codeblock_6&#45;&gt;leaf_21 -->
<g id="edge21" class="edge">
<title>codeblock_6&#45;&gt;leaf_21</title>
<path fill="none" stroke="#000000" stroke-dasharray="5,2" d="M870.8454,-429.6488C864.8015,-394.8717 851.48,-318.2193 843.4703,-272.1308"/>
<polygon fill="#000000" stroke="#000000" points="846.9102,-271.4826 841.7496,-262.2295 840.0136,-272.6812 846.9102,-271.4826"/>
</g>
<!-- leaf_22 -->
<g id="node23" class="node">
<title>leaf_22</title>
<polygon fill="none" stroke="#c0c0c0" points="1198,-262.1007 972,-262.1007 972,-207.6998 1198,-207.6998 1198,-262.1007"/>
<text text-anchor="middle" x="1085" y="-246.8003" font-family="Inconsolata" font-size="14.00" fill="#000000">local File = {}</text>
<text text-anchor="middle" x="1085" y="-231.4003" font-family="Inconsolata" font-size="14.00" fill="#000000">local __Files = {}</text>
<text text-anchor="middle" x="1085" y="-216.0002" font-family="Inconsolata" font-size="14.00" fill="#000000">File.it = require &quot;core/check&quot;</text>
</g>
<!-- codeblock_7&#45;&gt;leaf_22 -->
<g id="edge22" class="edge">
<title>codeblock_7&#45;&gt;leaf_22</title>
<path fill="none" stroke="#000000" stroke-dasharray="5,2" d="M1118.8454,-429.6488C1112.8015,-394.8717 1099.48,-318.2193 1091.4703,-272.1308"/>
<polygon fill="#000000" stroke="#000000" points="1094.9102,-271.4826 1089.7496,-262.2295 1088.0136,-272.6812 1094.9102,-271.4826"/>
</g>
<!-- leaf_23 -->
<g id="node24" class="node">
<title>leaf_23</title>
<polygon fill="none" stroke="#c0c0c0" points="1449.5,-262.1007 1216.5,-262.1007 1216.5,-207.6998 1449.5,-207.6998 1449.5,-262.1007"/>
<text text-anchor="middle" x="1333" y="-246.8003" font-family="Inconsolata" font-size="14.00" fill="#000000">function File.parentPath(file)</text>
<text text-anchor="middle" x="1333" y="-231.4003" font-family="Inconsolata" font-size="14.00" fill="#000000"> &#160;&#160;return file.path:parentDir()</text>
<text text-anchor="middle" x="1333" y="-216.0002" font-family="Inconsolata" font-size="14.00" fill="#000000">end</text>
</g>
<!-- codeblock_8&#45;&gt;leaf_23 -->
<g id="edge23" class="edge">
<title>codeblock_8&#45;&gt;leaf_23</title>
<path fill="none" stroke="#000000" stroke-dasharray="5,2" d="M1350.3801,-429.6488C1347.283,-394.9448 1340.4644,-318.5412 1336.3485,-272.4217"/>
<polygon fill="#000000" stroke="#000000" points="1339.8141,-271.8788 1335.439,-262.2295 1332.8418,-272.5011 1339.8141,-271.8788"/>
</g>
<!-- leaf_24 -->
<g id="node25" class="node">
<title>leaf_24</title>
<polygon fill="none" stroke="#c0c0c0" points="1700.5,-262.1007 1467.5,-262.1007 1467.5,-207.6998 1700.5,-207.6998 1700.5,-262.1007"/>
<text text-anchor="middle" x="1584" y="-246.8003" font-family="Inconsolata" font-size="14.00" fill="#000000">function File.exists(file)</text>
<text text-anchor="middle" x="1584" y="-231.4003" font-family="Inconsolata" font-size="14.00" fill="#000000"> &#160;&#160;return isfile(file.path.str)</text>
<text text-anchor="middle" x="1584" y="-216.0002" font-family="Inconsolata" font-size="14.00" fill="#000000">end</text>
</g>
<!-- codeblock_9&#45;&gt;leaf_24 -->
<g id="edge24" class="edge">
<title>codeblock_9&#45;&gt;leaf_24</title>
<path fill="none" stroke="#000000" stroke-dasharray="5,2" d="M1565.7052,-429.6488C1568.9653,-394.9448 1576.1427,-318.5412 1580.4752,-272.4217"/>
<polygon fill="#000000" stroke="#000000" points="1583.9819,-272.5131 1581.4327,-262.2295 1577.0126,-271.8583 1583.9819,-272.5131"/>
</g>
<!-- leaf_25 -->
<g id="node26" class="node">
<title>leaf_25</title>
<polygon fill="none" stroke="#c0c0c0" points="1965.5,-262.1007 1718.5,-262.1007 1718.5,-207.6998 1965.5,-207.6998 1965.5,-262.1007"/>
<text text-anchor="middle" x="1842" y="-246.8003" font-family="Inconsolata" font-size="14.00" fill="#000000">function File.basename(file)</text>
<text text-anchor="middle" x="1842" y="-231.4003" font-family="Inconsolata" font-size="14.00" fill="#000000"> &#160;&#160;return basename(file.path.str)</text>
<text text-anchor="middle" x="1842" y="-216.0002" font-family="Inconsolata" font-size="14.00" fill="#000000">end</text>
</g>
<!-- codeblock_10&#45;&gt;leaf_25 -->
<g id="edge25" class="edge">
<title>codeblock_10&#45;&gt;leaf_25</title>
<path fill="none" stroke="#000000" stroke-dasharray="5,2" d="M1802.6662,-429.6488C1809.6902,-394.8717 1825.1718,-318.2193 1834.4805,-272.1308"/>
<polygon fill="#000000" stroke="#000000" points="1837.9311,-272.7246 1836.4802,-262.2295 1831.0697,-271.3387 1837.9311,-272.7246"/>
</g>
<!-- leaf_26 -->
<g id="node27" class="node">
<title>leaf_26</title>
<polygon fill="none" stroke="#c0c0c0" points="2238,-262.1007 1984,-262.1007 1984,-207.6998 2238,-207.6998 2238,-262.1007"/>
<text text-anchor="middle" x="2111" y="-246.8003" font-family="Inconsolata" font-size="14.00" fill="#000000">function File.extension(file)</text>
<text text-anchor="middle" x="2111" y="-231.4003" font-family="Inconsolata" font-size="14.00" fill="#000000"> &#160;&#160;return extension(file.path.str)</text>
<text text-anchor="middle" x="2111" y="-216.0002" font-family="Inconsolata" font-size="14.00" fill="#000000">end</text>
</g>
<!-- codeblock_11&#45;&gt;leaf_26 -->
<g id="edge26" class="edge">
<title>codeblock_11&#45;&gt;leaf_26</title>
<path fill="none" stroke="#000000" stroke-dasharray="5,2" d="M2056.1156,-429.6488C2065.9165,-394.8717 2087.5189,-318.2193 2100.5076,-272.1308"/>
<polygon fill="#000000" stroke="#000000" points="2103.9542,-272.804 2103.298,-262.2295 2097.2166,-270.9052 2103.9542,-272.804"/>
</g>
<!-- leaf_27 -->
<g id="node28" class="node">
<title>leaf_27</title>
<polygon fill="none" stroke="#c0c0c0" points="2475.5,-262.1007 2256.5,-262.1007 2256.5,-207.6998 2475.5,-207.6998 2475.5,-262.1007"/>
<text text-anchor="middle" x="2366" y="-246.8003" font-family="Inconsolata" font-size="14.00" fill="#000000">function File.read(file)</text>
<text text-anchor="middle" x="2366" y="-231.4003" font-family="Inconsolata" font-size="14.00" fill="#000000"> &#160;&#160;return read(file.path.str)</text>
<text text-anchor="middle" x="2366" y="-216.0002" font-family="Inconsolata" font-size="14.00" fill="#000000">end</text>
</g>
<!-- codeblock_12&#45;&gt;leaf_27 -->
<g id="edge27" class="edge">
<title>codeblock_12&#45;&gt;leaf_27</title>
<path fill="none" stroke="#000000" stroke-dasharray="5,2" d="M2309.2861,-429.6488C2319.435,-394.7987 2341.83,-317.8971 2355.2423,-271.8407"/>
<polygon fill="#000000" stroke="#000000" points="2358.6056,-272.8093 2358.0413,-262.2295 2351.8848,-270.8521 2358.6056,-272.8093"/>
</g>
<!-- leaf_28 -->
<g id="node29" class="node">
<title>leaf_28</title>
<polygon fill="none" stroke="#c0c0c0" points="2824.5,-262.1007 2493.5,-262.1007 2493.5,-207.6998 2824.5,-207.6998 2824.5,-262.1007"/>
<text text-anchor="middle" x="2659" y="-246.8003" font-family="Inconsolata" font-size="14.00" fill="#000000">function File.write(file, doc)</text>
<text text-anchor="middle" x="2659" y="-231.4003" font-family="Inconsolata" font-size="14.00" fill="#000000"> &#160;&#160;return write(file.path.str, tostring(doc))</text>
<text text-anchor="middle" x="2659" y="-216.0002" font-family="Inconsolata" font-size="14.00" fill="#000000">end</text>
</g>
<!-- codeblock_13&#45;&gt;leaf_28 -->
<g id="edge28" class="edge">
<title>codeblock_13&#45;&gt;leaf_28</title>
<path fill="none" stroke="#000000" stroke-dasharray="5,2" d="M2583.9913,-429.6488C2597.414,-394.7987 2627.0332,-317.8971 2644.7721,-271.8407"/>
<polygon fill="#000000" stroke="#000000" points="2648.1458,-272.8193 2648.4739,-262.2295 2641.6136,-270.3033 2648.1458,-272.8193"/>
</g>
<!-- leaf_29 -->
<g id="node30" class="node">
<title>leaf_29</title>
<polygon fill="none" stroke="#c0c0c0" points="3209,-393.7009 2843,-393.7009 2843,-76.0997 3209,-76.0997 3209,-393.7009"/>
<text text-anchor="middle" x="3026" y="-378.6005" font-family="Inconsolata" font-size="14.00" fill="#000000">local FileMeta = { __index = File,</text>
<text text-anchor="middle" x="3026" y="-363.2005" font-family="Inconsolata" font-size="14.00" fill="#000000"> &#160;&#160;&#160;&#160;&#160;&#160;&#160;&#160;&#160;&#160;&#160;&#160;&#160;&#160;&#160;&#160;&#160;&#160;__tostring = __tostring}</text>
<text text-anchor="middle" x="3026" y="-331.8005" font-family="Inconsolata" font-size="14.00" fill="#000000">new = function (file_path)</text>
<text text-anchor="middle" x="3026" y="-316.4004" font-family="Inconsolata" font-size="14.00" fill="#000000"> &#160;&#160;file_str = tostring(file_path)</text>
<text text-anchor="middle" x="3026" y="-301.0004" font-family="Inconsolata" font-size="14.00" fill="#000000"> &#160;&#160;if __Files[file_str] then</text>
<text text-anchor="middle" x="3026" y="-285.6004" font-family="Inconsolata" font-size="14.00" fill="#000000"> &#160;&#160;&#160;&#160;&#160;return nil, &quot;won&#39;t make the same file twice&quot;</text>
<text text-anchor="middle" x="3026" y="-270.2003" font-family="Inconsolata" font-size="14.00" fill="#000000"> &#160;&#160;end</text>
<text text-anchor="middle" x="3026" y="-238.8003" font-family="Inconsolata" font-size="14.00" fill="#000000"> &#160;&#160;local file = setmetatable({}, FileMeta)</text>
<text text-anchor="middle" x="3026" y="-223.4003" font-family="Inconsolata" font-size="14.00" fill="#000000"> &#160;&#160;if type(file_path) == &quot;string&quot; then</text>
<text text-anchor="middle" x="3026" y="-208.0002" font-family="Inconsolata" font-size="14.00" fill="#000000"> &#160;&#160;&#160;&#160;&#160;file.path = Path(file_path)</text>
<text text-anchor="middle" x="3026" y="-192.6002" font-family="Inconsolata" font-size="14.00" fill="#000000"> &#160;&#160;elseif file_path.idEst == Path</text>
<text text-anchor="middle" x="3026" y="-177.2002" font-family="Inconsolata" font-size="14.00" fill="#000000"> &#160;&#160;&#160;&#160;&#160;and not file_path.isDir then</text>
<text text-anchor="middle" x="3026" y="-161.8002" font-family="Inconsolata" font-size="14.00" fill="#000000"> &#160;&#160;&#160;&#160;&#160;file.path = file_path</text>
<text text-anchor="middle" x="3026" y="-146.4001" font-family="Inconsolata" font-size="14.00" fill="#000000"> &#160;&#160;end</text>
<text text-anchor="middle" x="3026" y="-131.0001" font-family="Inconsolata" font-size="14.00" fill="#000000"> &#160;&#160;__Files[file_str] = true</text>
<text text-anchor="middle" x="3026" y="-99.6001" font-family="Inconsolata" font-size="14.00" fill="#000000"> &#160;&#160;return file</text>
<text text-anchor="middle" x="3026" y="-84.2" font-family="Inconsolata" font-size="14.00" fill="#000000">end</text>
</g>
<!-- codeblock_14&#45;&gt;leaf_29 -->
<g id="edge29" class="edge">
<title>codeblock_14&#45;&gt;leaf_29</title>
<path fill="none" stroke="#000000" stroke-dasharray="5,2" d="M2907.9985,-429.6488C2912.4696,-422.2696 2918.0832,-413.0051 2924.4197,-402.5473"/>
<polygon fill="#000000" stroke="#000000" points="2927.4597,-404.284 2929.6485,-393.9177 2921.473,-400.6565 2927.4597,-404.284"/>
</g>
<!-- leaf_30 -->
<g id="node31" class="node">
<title>leaf_30</title>
<polygon fill="none" stroke="#c0c0c0" points="3355,-254.2008 3227,-254.2008 3227,-215.5997 3355,-215.5997 3355,-254.2008"/>
<text text-anchor="middle" x="3291" y="-239.1003" font-family="Inconsolata" font-size="14.00" fill="#000000">File.idEst = new</text>
<text text-anchor="middle" x="3291" y="-223.7003" font-family="Inconsolata" font-size="14.00" fill="#000000">return new</text>
</g>
<!-- codeblock_15&#45;&gt;leaf_30 -->
<g id="edge30" class="edge">
<title>codeblock_15&#45;&gt;leaf_30</title>
<path fill="none" stroke="#000000" stroke-dasharray="5,2" d="M3199.5493,-429.9093C3205.0657,-419.4455 3212.0657,-405.9455 3218,-393.8005 3239.9828,-348.8109 3263.9418,-295.8333 3278.2054,-263.8363"/>
<polygon fill="#000000" stroke="#000000" points="3281.4422,-265.1713 3282.3079,-254.6119 3275.0462,-262.3267 3281.4422,-265.1713"/>
</g>
<!-- leaf_18 -->
<g id="node19" class="node">
<title>leaf_18</title>
<polygon fill="none" stroke="#c0c0c0" points="130,-40 76,-40 76,0 130,0 130,-40"/>
</g>
<!-- raw_17&#45;&gt;leaf_18 -->
<g id="edge18" class="edge">
<title>raw_17&#45;&gt;leaf_18</title>
<path fill="none" stroke="#000000" stroke-dasharray="5,2" d="M103,-216.578C103,-179.5544 103,-95.5124 103,-50.2363"/>
<polygon fill="#000000" stroke="#000000" points="106.5001,-50.1388 103,-40.1388 99.5001,-50.1388 106.5001,-50.1388"/>
</g>
</g>
</svg>