<?xml version="1.0" encoding="UTF-8" standalone="no"?>
<!DOCTYPE svg PUBLIC "-//W3C//DTD SVG 1.1//EN"
 "http://www.w3.org/Graphics/SVG/1.1/DTD/svg11.dtd">
<!-- Generated by graphviz version 2.40.1 (20161225.0304)
 -->
<!-- Title: lpegNode Pages: 1 -->
<svg width="1873pt" height="695pt"
 viewBox="0.00 0.00 1872.50 695.40" xmlns="http://www.w3.org/2000/svg" xmlns:xlink="http://www.w3.org/1999/xlink">
<g id="graph0" class="graph" transform="scale(1 1) rotate(0) translate(4 691.4007)">
<title>lpegNode</title>
<polygon fill="#ffffff" stroke="transparent" points="-4,4 -4,-691.4007 1868.5,-691.4007 1868.5,4 -4,4"/>
<!-- doc_0 -->
<g id="node1" class="node">
<title>doc_0</title>
<ellipse fill="none" stroke="#000000" cx="1089.5" cy="-669.4007" rx="42.1216" ry="18"/>
<text text-anchor="middle" x="1089.5" y="-665.2007" font-family="Helvetica,sans-Serif" font-size="14.00" fill="#000000">doc &#45; 40</text>
</g>
<!-- section_1 -->
<g id="node2" class="node">
<title>section_1</title>
<ellipse fill="none" stroke="#000000" cx="1089.5" cy="-597.4007" rx="60.9826" ry="18"/>
<text text-anchor="middle" x="1089.5" y="-593.2007" font-family="Helvetica,sans-Serif" font-size="14.00" fill="#000000">section: 1&#45;40</text>
</g>
<!-- doc_0&#45;&gt;section_1 -->
<g id="edge1" class="edge">
<title>doc_0&#45;&gt;section_1</title>
<path fill="none" stroke="#000000" stroke-dasharray="5,2" d="M1089.5,-651.232C1089.5,-643.5316 1089.5,-634.375 1089.5,-625.8173"/>
<polygon fill="#000000" stroke="#000000" points="1093.0001,-625.8139 1089.5,-615.8139 1086.0001,-625.814 1093.0001,-625.8139"/>
</g>
<!-- header_2 -->
<g id="node3" class="node">
<title>header_2</title>
<ellipse fill="none" stroke="#000000" cx="587.5" cy="-525.4007" rx="38.7302" ry="18"/>
<text text-anchor="middle" x="587.5" y="-521.2007" font-family="Helvetica,sans-Serif" font-size="14.00" fill="#000000">1 : Ops</text>
</g>
<!-- section_1&#45;&gt;header_2 -->
<g id="edge2" class="edge">
<title>section_1&#45;&gt;header_2</title>
<path fill="none" stroke="#000000" stroke-dasharray="5,2" d="M1034.8216,-589.5583C935.6233,-575.3307 727.6588,-545.5031 634.4467,-532.134"/>
<polygon fill="#000000" stroke="#000000" points="634.855,-528.6569 624.4594,-530.7016 633.8612,-535.586 634.855,-528.6569"/>
</g>
<!-- prose_3 -->
<g id="node4" class="node">
<title>prose_3</title>
<ellipse fill="none" stroke="#000000" cx="799.5" cy="-525.4007" rx="32.4585" ry="18"/>
<text text-anchor="middle" x="799.5" y="-521.2007" font-family="Helvetica,sans-Serif" font-size="14.00" fill="#000000">prose</text>
</g>
<!-- section_1&#45;&gt;prose_3 -->
<g id="edge3" class="edge">
<title>section_1&#45;&gt;prose_3</title>
<path fill="none" stroke="#000000" stroke-dasharray="5,2" d="M1042.9065,-585.8326C986.3502,-571.791 891.9756,-548.3601 838.8847,-535.1789"/>
<polygon fill="#000000" stroke="#000000" points="839.7041,-531.7762 829.1554,-532.7634 838.0173,-538.5699 839.7041,-531.7762"/>
</g>
<!-- prose_4 -->
<g id="node5" class="node">
<title>prose_4</title>
<ellipse fill="none" stroke="#000000" cx="1089.5" cy="-525.4007" rx="32.4585" ry="18"/>
<text text-anchor="middle" x="1089.5" y="-521.2007" font-family="Helvetica,sans-Serif" font-size="14.00" fill="#000000">prose</text>
</g>
<!-- section_1&#45;&gt;prose_4 -->
<g id="edge4" class="edge">
<title>section_1&#45;&gt;prose_4</title>
<path fill="none" stroke="#000000" stroke-dasharray="5,2" d="M1089.5,-579.232C1089.5,-571.5316 1089.5,-562.375 1089.5,-553.8173"/>
<polygon fill="#000000" stroke="#000000" points="1093.0001,-553.8139 1089.5,-543.8139 1086.0001,-553.814 1093.0001,-553.8139"/>
</g>
<!-- codeblock_5 -->
<g id="node6" class="node">
<title>codeblock_5</title>
<ellipse fill="none" stroke="#000000" cx="1235.5" cy="-525.4007" rx="72.5844" ry="18"/>
<text text-anchor="middle" x="1235.5" y="-521.2007" font-family="Helvetica,sans-Serif" font-size="14.00" fill="#000000">code block 9&#45;15</text>
</g>
<!-- section_1&#45;&gt;codeblock_5 -->
<g id="edge5" class="edge">
<title>section_1&#45;&gt;codeblock_5</title>
<path fill="none" stroke="#000000" stroke-dasharray="5,2" d="M1120.8207,-581.9548C1142.0296,-571.4957 1170.2973,-557.5554 1193.4604,-546.1325"/>
<polygon fill="#000000" stroke="#000000" points="1195.2913,-549.1321 1202.712,-541.5701 1192.1953,-542.854 1195.2913,-549.1321"/>
</g>
<!-- codeblock_6 -->
<g id="node7" class="node">
<title>codeblock_6</title>
<ellipse fill="none" stroke="#000000" cx="1517.5" cy="-525.4007" rx="77.4211" ry="18"/>
<text text-anchor="middle" x="1517.5" y="-521.2007" font-family="Helvetica,sans-Serif" font-size="14.00" fill="#000000">code block 17&#45;40</text>
</g>
<!-- section_1&#45;&gt;codeblock_6 -->
<g id="edge6" class="edge">
<title>section_1&#45;&gt;codeblock_6</title>
<path fill="none" stroke="#000000" stroke-dasharray="5,2" d="M1142.4105,-588.4998C1218.4616,-575.7062 1358.9387,-552.0745 1444.7226,-537.6436"/>
<polygon fill="#000000" stroke="#000000" points="1445.3668,-541.0845 1454.6476,-535.974 1444.2055,-534.1815 1445.3668,-541.0845"/>
</g>
<!-- leaf_7 -->
<g id="node8" class="node">
<title>leaf_7</title>
<polygon fill="none" stroke="#c0c0c0" points="446.5,-315.1004 392.5,-315.1004 392.5,-279.1004 446.5,-279.1004 446.5,-315.1004"/>
<text text-anchor="middle" x="419.5" y="-293.6004" font-family="Inconsolata" font-size="14.00" fill="#000000">* Ops</text>
</g>
<!-- header_2&#45;&gt;leaf_7 -->
<g id="edge7" class="edge">
<title>header_2&#45;&gt;leaf_7</title>
<path fill="none" stroke="#000000" stroke-dasharray="5,2" d="M550.553,-519.9885C520.4693,-513.6007 479.2291,-499.972 455.5,-471.4007 420.8217,-429.6458 416.784,-363.1268 417.6651,-325.4881"/>
<polygon fill="#000000" stroke="#000000" points="421.1722,-325.3605 418.0451,-315.2377 414.177,-325.1011 421.1722,-325.3605"/>
</g>
<!-- raw_8 -->
<g id="node9" class="node">
<title>raw_8</title>
<ellipse fill="none" stroke="#000000" cx="491.5" cy="-297.1004" rx="27" ry="18"/>
<text text-anchor="middle" x="491.5" y="-292.9004" font-family="Helvetica,sans-Serif" font-size="14.00" fill="#000000">raw</text>
</g>
<!-- prose_3&#45;&gt;raw_8 -->
<g id="edge8" class="edge">
<title>prose_3&#45;&gt;raw_8</title>
<path fill="none" stroke="#000000" stroke-dasharray="5,2" d="M768.0916,-521.1423C700.2099,-511.6607 544.5441,-488.3141 527.5,-471.4007 488.5065,-432.7061 486.3104,-363.6924 488.6083,-325.1333"/>
<polygon fill="#000000" stroke="#000000" points="492.102,-325.3466 489.3487,-315.1158 485.121,-324.8305 492.102,-325.3466"/>
</g>
<!-- prespace_9 -->
<g id="node10" class="node">
<title>prespace_9</title>
<ellipse fill="none" stroke="#000000" cx="582.5" cy="-297.1004" rx="46.4736" ry="18"/>
<text text-anchor="middle" x="582.5" y="-292.9004" font-family="Helvetica,sans-Serif" font-size="14.00" fill="#000000">prespace</text>
</g>
<!-- prose_3&#45;&gt;prespace_9 -->
<g id="edge9" class="edge">
<title>prose_3&#45;&gt;prespace_9</title>
<path fill="none" stroke="#000000" stroke-dasharray="5,2" d="M767.5191,-523.1008C731.4132,-518.8143 673.195,-506.5407 638.5,-471.4007 599.1718,-431.568 587.4519,-364.0491 583.967,-325.7892"/>
<polygon fill="#000000" stroke="#000000" points="587.4216,-325.0678 583.1571,-315.3691 580.4427,-325.6103 587.4216,-325.0678"/>
</g>
<!-- literal_10 -->
<g id="node11" class="node">
<title>literal_10</title>
<ellipse fill="none" stroke="#000000" cx="678.5" cy="-297.1004" rx="31.481" ry="18"/>
<text text-anchor="middle" x="678.5" y="-292.9004" font-family="Helvetica,sans-Serif" font-size="14.00" fill="#000000">literal</text>
</g>
<!-- prose_3&#45;&gt;literal_10 -->
<g id="edge10" class="edge">
<title>prose_3&#45;&gt;literal_10</title>
<path fill="none" stroke="#000000" stroke-dasharray="5,2" d="M773.729,-514.5625C755.5647,-505.6057 732.134,-491.1513 718.5,-471.4007 687.6782,-426.751 680.2967,-361.8405 678.716,-325.1352"/>
<polygon fill="#000000" stroke="#000000" points="682.2142,-325.0212 678.4004,-315.1366 675.2177,-325.242 682.2142,-325.0212"/>
</g>
<!-- raw_11 -->
<g id="node12" class="node">
<title>raw_11</title>
<ellipse fill="none" stroke="#000000" cx="754.5" cy="-297.1004" rx="27" ry="18"/>
<text text-anchor="middle" x="754.5" y="-292.9004" font-family="Helvetica,sans-Serif" font-size="14.00" fill="#000000">raw</text>
</g>
<!-- prose_3&#45;&gt;raw_11 -->
<g id="edge11" class="edge">
<title>prose_3&#45;&gt;raw_11</title>
<path fill="none" stroke="#000000" stroke-dasharray="5,2" d="M795.9689,-507.4863C788.1676,-467.9075 769.4136,-372.7623 760.0352,-325.1821"/>
<polygon fill="#000000" stroke="#000000" points="763.4448,-324.3817 758.0769,-315.2474 756.577,-325.7355 763.4448,-324.3817"/>
</g>
<!-- prespace_12 -->
<g id="node13" class="node">
<title>prespace_12</title>
<ellipse fill="none" stroke="#000000" cx="845.5" cy="-297.1004" rx="46.4736" ry="18"/>
<text text-anchor="middle" x="845.5" y="-292.9004" font-family="Helvetica,sans-Serif" font-size="14.00" fill="#000000">prespace</text>
</g>
<!-- prose_3&#45;&gt;prespace_12 -->
<g id="edge12" class="edge">
<title>prose_3&#45;&gt;prespace_12</title>
<path fill="none" stroke="#000000" stroke-dasharray="5,2" d="M803.1095,-507.4863C811.0842,-467.9075 830.2549,-372.7623 839.8418,-325.1821"/>
<polygon fill="#000000" stroke="#000000" points="843.2993,-325.7417 841.8436,-315.2474 836.4373,-324.359 843.2993,-325.7417"/>
</g>
<!-- literal_13 -->
<g id="node14" class="node">
<title>literal_13</title>
<ellipse fill="none" stroke="#000000" cx="941.5" cy="-297.1004" rx="31.481" ry="18"/>
<text text-anchor="middle" x="941.5" y="-292.9004" font-family="Helvetica,sans-Serif" font-size="14.00" fill="#000000">literal</text>
</g>
<!-- prose_3&#45;&gt;literal_13 -->
<g id="edge13" class="edge">
<title>prose_3&#45;&gt;literal_13</title>
<path fill="none" stroke="#000000" stroke-dasharray="5,2" d="M828.6837,-517.134C851.6095,-509.1337 882.5641,-494.7307 900.5,-471.4007 933.6959,-428.2213 940.6578,-362.5038 941.7458,-325.3232"/>
<polygon fill="#000000" stroke="#000000" points="945.2473,-325.2533 941.9158,-315.1959 938.2483,-325.1357 945.2473,-325.2533"/>
</g>
<!-- raw_14 -->
<g id="node15" class="node">
<title>raw_14</title>
<ellipse fill="none" stroke="#000000" cx="1017.5" cy="-297.1004" rx="27" ry="18"/>
<text text-anchor="middle" x="1017.5" y="-292.9004" font-family="Helvetica,sans-Serif" font-size="14.00" fill="#000000">raw</text>
</g>
<!-- prose_3&#45;&gt;raw_14 -->
<g id="edge14" class="edge">
<title>prose_3&#45;&gt;raw_14</title>
<path fill="none" stroke="#000000" stroke-dasharray="5,2" d="M830.4805,-520.1496C876.8623,-511.6606 961.0982,-493.6093 981.5,-471.4007 1018.3147,-431.3256 1021.514,-363.8978 1019.9258,-325.7184"/>
<polygon fill="#000000" stroke="#000000" points="1023.3973,-325.11 1019.3432,-315.3215 1016.4082,-325.5017 1023.3973,-325.11"/>
</g>
<!-- raw_22 -->
<g id="node23" class="node">
<title>raw_22</title>
<ellipse fill="none" stroke="#000000" cx="1089.5" cy="-297.1004" rx="27" ry="18"/>
<text text-anchor="middle" x="1089.5" y="-292.9004" font-family="Helvetica,sans-Serif" font-size="14.00" fill="#000000">raw</text>
</g>
<!-- prose_4&#45;&gt;raw_22 -->
<g id="edge22" class="edge">
<title>prose_4&#45;&gt;raw_22</title>
<path fill="none" stroke="#000000" stroke-dasharray="5,2" d="M1089.5,-507.1038C1089.5,-467.3475 1089.5,-372.8466 1089.5,-325.3603"/>
<polygon fill="#000000" stroke="#000000" points="1093.0001,-325.1674 1089.5,-315.1674 1086.0001,-325.1675 1093.0001,-325.1674"/>
</g>
<!-- leaf_24 -->
<g id="node25" class="node">
<title>leaf_24</title>
<polygon fill="none" stroke="#c0c0c0" points="1382,-339.6005 1135,-339.6005 1135,-254.6002 1382,-254.6002 1382,-339.6005"/>
<text text-anchor="middle" x="1258.5" y="-324.4004" font-family="Inconsolata" font-size="14.00" fill="#000000">local a = require &quot;lib/ansi&quot;</text>
<text text-anchor="middle" x="1258.5" y="-309.0004" font-family="Inconsolata" font-size="14.00" fill="#000000">local s = require &quot;status&quot;</text>
<text text-anchor="middle" x="1258.5" y="-293.6004" font-family="Inconsolata" font-size="14.00" fill="#000000">local pl_file = require &quot;pl.file&quot;</text>
<text text-anchor="middle" x="1258.5" y="-278.2003" font-family="Inconsolata" font-size="14.00" fill="#000000">local write = pl_file.write</text>
<text text-anchor="middle" x="1258.5" y="-262.8003" font-family="Inconsolata" font-size="14.00" fill="#000000">local delete = pl_file.delete</text>
</g>
<!-- codeblock_5&#45;&gt;leaf_24 -->
<g id="edge24" class="edge">
<title>codeblock_5&#45;&gt;leaf_24</title>
<path fill="none" stroke="#000000" stroke-dasharray="5,2" d="M1237.3433,-507.1038C1240.744,-473.3481 1248.1207,-400.1263 1253.1983,-349.7255"/>
<polygon fill="#000000" stroke="#000000" points="1256.6929,-349.9545 1254.213,-339.654 1249.7281,-349.2527 1256.6929,-349.9545"/>
</g>
<!-- leaf_25 -->
<g id="node26" class="node">
<title>leaf_25</title>
<polygon fill="none" stroke="#c0c0c0" points="1864.5,-471.2012 1400.5,-471.2012 1400.5,-122.9995 1864.5,-122.9995 1864.5,-471.2012"/>
<text text-anchor="middle" x="1632.5" y="-456.2007" font-family="Inconsolata" font-size="14.00" fill="#000000">local ops = {}</text>
<text text-anchor="middle" x="1632.5" y="-424.8006" font-family="Inconsolata" font-size="14.00" fill="#000000">function ops.writeOnChange(newest, current, out_file, depth)</text>
<text text-anchor="middle" x="1632.5" y="-409.4006" font-family="Inconsolata" font-size="14.00" fill="#000000"> &#160;&#160;&#160;&#45;&#45; If the text has changed, write it</text>
<text text-anchor="middle" x="1632.5" y="-394.0006" font-family="Inconsolata" font-size="14.00" fill="#000000"> &#160;&#160;&#160;depth = depth or 1</text>
<text text-anchor="middle" x="1632.5" y="-378.6005" font-family="Inconsolata" font-size="14.00" fill="#000000"> &#160;&#160;&#160;if newest ~= current then</text>
<text text-anchor="middle" x="1632.5" y="-363.2005" font-family="Inconsolata" font-size="14.00" fill="#000000"> &#160;&#160;&#160;&#160;&#160;&#160;&#160;s:chat(a.green((&quot; &#160;&quot;):rep(depth) .. &quot; &#160;&#45; &quot; .. out_file))</text>
<text text-anchor="middle" x="1632.5" y="-347.8005" font-family="Inconsolata" font-size="14.00" fill="#000000"> &#160;&#160;&#160;&#160;&#160;&#160;&#160;write(out_file, newest)</text>
<text text-anchor="middle" x="1632.5" y="-332.4004" font-family="Inconsolata" font-size="14.00" fill="#000000"> &#160;&#160;&#160;&#160;&#160;&#160;&#160;return true</text>
<text text-anchor="middle" x="1632.5" y="-317.0004" font-family="Inconsolata" font-size="14.00" fill="#000000"> &#160;&#160;&#160;&#45;&#45; If the new text is blank, delete the old file</text>
<text text-anchor="middle" x="1632.5" y="-301.6004" font-family="Inconsolata" font-size="14.00" fill="#000000"> &#160;&#160;&#160;elseif current ~= &quot;&quot; and newest == &quot;&quot; then</text>
<text text-anchor="middle" x="1632.5" y="-286.2003" font-family="Inconsolata" font-size="14.00" fill="#000000"> &#160;&#160;&#160;&#160;&#160;&#160;&#160;s:chat(a.red((&quot; &#160;&quot;):rep(depth) .. &quot; &#160;&#45; &quot; .. out_file))</text>
<text text-anchor="middle" x="1632.5" y="-270.8003" font-family="Inconsolata" font-size="14.00" fill="#000000"> &#160;&#160;&#160;&#160;&#160;&#160;&#160;delete(out_file)</text>
<text text-anchor="middle" x="1632.5" y="-255.4003" font-family="Inconsolata" font-size="14.00" fill="#000000"> &#160;&#160;&#160;&#160;&#160;&#160;&#160;return false</text>
<text text-anchor="middle" x="1632.5" y="-240.0002" font-family="Inconsolata" font-size="14.00" fill="#000000"> &#160;&#160;&#160;else</text>
<text text-anchor="middle" x="1632.5" y="-224.6002" font-family="Inconsolata" font-size="14.00" fill="#000000"> &#160;&#160;&#160;&#45;&#45; Otherwise do nothing</text>
<text text-anchor="middle" x="1632.5" y="-193.2002" font-family="Inconsolata" font-size="14.00" fill="#000000"> &#160;&#160;&#160;&#160;&#160;&#160;&#160;return nil</text>
<text text-anchor="middle" x="1632.5" y="-177.8002" font-family="Inconsolata" font-size="14.00" fill="#000000"> &#160;&#160;&#160;end</text>
<text text-anchor="middle" x="1632.5" y="-162.4001" font-family="Inconsolata" font-size="14.00" fill="#000000">end</text>
<text text-anchor="middle" x="1632.5" y="-131.0001" font-family="Inconsolata" font-size="14.00" fill="#000000">return ops</text>
</g>
<!-- codeblock_6&#45;&gt;leaf_25 -->
<g id="edge25" class="edge">
<title>codeblock_6&#45;&gt;leaf_25</title>
<path fill="none" stroke="#000000" stroke-dasharray="5,2" d="M1526.5239,-507.4863C1530.2055,-500.1774 1534.8417,-490.9736 1540.1052,-480.5244"/>
<polygon fill="#000000" stroke="#000000" points="1543.294,-481.9739 1544.6669,-471.4684 1537.0423,-478.8248 1543.294,-481.9739"/>
</g>
<!-- leaf_15 -->
<g id="node16" class="node">
<title>leaf_15</title>
<polygon fill="none" stroke="#c0c0c0" points="541,-86.7003 0,-86.7003 0,-.0997 541,-.0997 541,-86.7003"/>
<text text-anchor="middle" x="270.5" y="-23.6001" font-family="Inconsolata" font-size="14.00" fill="#000000">It turns out I&#39;ve got circular dependencies with some of the methods in the</text>
<text text-anchor="middle" x="270.5" y="-8.2" font-family="Inconsolata" font-size="14.00" fill="#000000">main</text>
</g>
<!-- raw_8&#45;&gt;leaf_15 -->
<g id="edge15" class="edge">
<title>raw_8&#45;&gt;leaf_15</title>
<path fill="none" stroke="#000000" stroke-dasharray="5,2" d="M492.8834,-279.0219C494.5209,-244.6073 493.208,-169.0006 455.5,-122.8001 445.8917,-111.0278 434.2111,-100.964 421.4393,-92.3679"/>
<polygon fill="#000000" stroke="#000000" points="423.2141,-89.3488 412.8996,-86.9279 419.4531,-95.2526 423.2141,-89.3488"/>
</g>
<!-- leaf_16 -->
<g id="node17" class="node">
<title>leaf_16</title>
<polygon fill="none" stroke="#c0c0c0" points="613.5,-61.4 559.5,-61.4 559.5,-25.4 613.5,-25.4 613.5,-61.4"/>
<text text-anchor="middle" x="586.5" y="-39.9" font-family="Inconsolata" font-size="14.00" fill="#000000"> </text>
</g>
<!-- prespace_9&#45;&gt;leaf_16 -->
<g id="edge16" class="edge">
<title>prespace_9&#45;&gt;leaf_16</title>
<path fill="none" stroke="#000000" stroke-dasharray="5,2" d="M582.7877,-278.8549C583.4767,-235.1537 585.2256,-124.228 586.0531,-71.7468"/>
<polygon fill="#000000" stroke="#000000" points="589.5568,-71.5342 586.2149,-61.4802 582.5576,-71.4238 589.5568,-71.5342"/>
</g>
<!-- leaf_17 -->
<g id="node18" class="node">
<title>leaf_17</title>
<polygon fill="none" stroke="#c0c0c0" points="689.5,-61.4 635.5,-61.4 635.5,-25.4 689.5,-25.4 689.5,-61.4"/>
<text text-anchor="middle" x="662.5" y="-39.9" font-family="Inconsolata" font-size="14.00" fill="#000000">walk</text>
</g>
<!-- literal_10&#45;&gt;leaf_17 -->
<g id="edge17" class="edge">
<title>literal_10&#45;&gt;leaf_17</title>
<path fill="none" stroke="#000000" stroke-dasharray="5,2" d="M677.3493,-278.8549C674.5932,-235.1537 667.5975,-124.228 664.2877,-71.7468"/>
<polygon fill="#000000" stroke="#000000" points="667.7628,-71.2401 663.6403,-61.4802 660.7767,-71.6807 667.7628,-71.2401"/>
</g>
<!-- leaf_18 -->
<g id="node19" class="node">
<title>leaf_18</title>
<polygon fill="none" stroke="#c0c0c0" points="801,-61.4 708,-61.4 708,-25.4 801,-25.4 801,-61.4"/>
<text text-anchor="middle" x="754.5" y="-39.9" font-family="Inconsolata" font-size="14.00" fill="#000000"> module and</text>
</g>
<!-- raw_11&#45;&gt;leaf_18 -->
<g id="edge18" class="edge">
<title>raw_11&#45;&gt;leaf_18</title>
<path fill="none" stroke="#000000" stroke-dasharray="5,2" d="M754.5,-278.8549C754.5,-235.1537 754.5,-124.228 754.5,-71.7468"/>
<polygon fill="#000000" stroke="#000000" points="758.0001,-71.4802 754.5,-61.4802 751.0001,-71.4802 758.0001,-71.4802"/>
</g>
<!-- leaf_19 -->
<g id="node20" class="node">
<title>leaf_19</title>
<polygon fill="none" stroke="#c0c0c0" points="873.5,-61.4 819.5,-61.4 819.5,-25.4 873.5,-25.4 873.5,-61.4"/>
<text text-anchor="middle" x="846.5" y="-39.9" font-family="Inconsolata" font-size="14.00" fill="#000000"> </text>
</g>
<!-- prespace_12&#45;&gt;leaf_19 -->
<g id="edge19" class="edge">
<title>prespace_12&#45;&gt;leaf_19</title>
<path fill="none" stroke="#000000" stroke-dasharray="5,2" d="M845.5719,-278.8549C845.7442,-235.1537 846.1814,-124.228 846.3883,-71.7468"/>
<polygon fill="#000000" stroke="#000000" points="849.8892,-71.494 846.4287,-61.4802 842.8892,-71.4663 849.8892,-71.494"/>
</g>
<!-- leaf_20 -->
<g id="node21" class="node">
<title>leaf_20</title>
<polygon fill="none" stroke="#c0c0c0" points="945.5,-61.4 891.5,-61.4 891.5,-25.4 945.5,-25.4 945.5,-61.4"/>
<text text-anchor="middle" x="918.5" y="-39.9" font-family="Inconsolata" font-size="14.00" fill="#000000">codex</text>
</g>
<!-- literal_13&#45;&gt;leaf_20 -->
<g id="edge20" class="edge">
<title>literal_13&#45;&gt;leaf_20</title>
<path fill="none" stroke="#000000" stroke-dasharray="5,2" d="M939.8459,-278.8549C935.884,-235.1537 925.8277,-124.228 921.0699,-71.7468"/>
<polygon fill="#000000" stroke="#000000" points="924.5278,-71.1233 920.1391,-61.4802 917.5564,-71.7554 924.5278,-71.1233"/>
</g>
<!-- leaf_21 -->
<g id="node22" class="node">
<title>leaf_21</title>
<polygon fill="none" stroke="#c0c0c0" points="1203.5,-61.4 963.5,-61.4 963.5,-25.4 1203.5,-25.4 1203.5,-61.4"/>
<text text-anchor="middle" x="1083.5" y="-39.9" font-family="Inconsolata" font-size="14.00" fill="#000000"> where we&#39;re putting the server.</text>
</g>
<!-- raw_14&#45;&gt;leaf_21 -->
<g id="edge21" class="edge">
<title>raw_14&#45;&gt;leaf_21</title>
<path fill="none" stroke="#000000" stroke-dasharray="5,2" d="M1020.2621,-279.0576C1025.3577,-247.1611 1037.2227,-178.8852 1053.5,-122.8001 1058.6212,-105.1544 1065.8706,-85.8619 1071.9601,-70.7127"/>
<polygon fill="#000000" stroke="#000000" points="1075.2167,-71.9957 1075.7603,-61.4149 1068.737,-69.3473 1075.2167,-71.9957"/>
</g>
<!-- leaf_23 -->
<g id="node24" class="node">
<title>leaf_23</title>
<polygon fill="none" stroke="#c0c0c0" points="1545.5,-63.3021 1221.5,-63.3021 1221.5,-23.4979 1545.5,-23.4979 1545.5,-63.3021"/>
<text text-anchor="middle" x="1383.5" y="-31.9" font-family="Inconsolata" font-size="14.00" fill="#000000">Let&#39;s factor those out into their own thing.</text>
</g>
<!-- raw_22&#45;&gt;leaf_23 -->
<g id="edge23" class="edge">
<title>raw_22&#45;&gt;leaf_23</title>
<path fill="none" stroke="#000000" stroke-dasharray="5,2" d="M1087.6967,-278.9157C1085.291,-243.9811 1085.2746,-167.0352 1125.5,-122.8001 1137.4512,-109.6575 1225.7452,-84.2313 1295.7603,-65.6816"/>
<polygon fill="#000000" stroke="#000000" points="1296.7311,-69.0454 1305.5085,-63.1118 1294.9467,-62.2766 1296.7311,-69.0454"/>
</g>
</g>
</svg>
