<?xml version="1.0" encoding="UTF-8" standalone="no"?>
<!DOCTYPE svg PUBLIC "-//W3C//DTD SVG 1.1//EN"
 "http://www.w3.org/Graphics/SVG/1.1/DTD/svg11.dtd">
<!-- Generated by graphviz version 2.40.1 (20161225.0304)
 -->
<!-- Title: lpegNode Pages: 1 -->
<svg width="416pt" height="402pt"
 viewBox="0.00 0.00 416.00 402.20" xmlns="http://www.w3.org/2000/svg" xmlns:xlink="http://www.w3.org/1999/xlink">
<g id="graph0" class="graph" transform="scale(1 1) rotate(0) translate(4 398.2001)">
<title>lpegNode</title>
<polygon fill="#ffffff" stroke="transparent" points="-4,4 -4,-398.2001 412,-398.2001 412,4 -4,4"/>
<!-- doc_0 -->
<g id="node1" class="node">
<title>doc_0</title>
<ellipse fill="none" stroke="#000000" cx="204" cy="-376.2001" rx="41.3176" ry="18"/>
<text text-anchor="middle" x="204" y="-372.0001" font-family="Helvetica,sans-Serif" font-size="14.00" fill="#000000">doc &#45; 11</text>
</g>
<!-- section_1 -->
<g id="node2" class="node">
<title>section_1</title>
<ellipse fill="none" stroke="#000000" cx="204" cy="-304.2001" rx="60.1778" ry="18"/>
<text text-anchor="middle" x="204" y="-300.0001" font-family="Helvetica,sans-Serif" font-size="14.00" fill="#000000">section: 1&#45;11</text>
</g>
<!-- doc_0&#45;&gt;section_1 -->
<g id="edge1" class="edge">
<title>doc_0&#45;&gt;section_1</title>
<path fill="none" stroke="#000000" stroke-dasharray="5,2" d="M204,-358.0315C204,-350.331 204,-341.1744 204,-332.6167"/>
<polygon fill="#000000" stroke="#000000" points="207.5001,-332.6133 204,-322.6134 200.5001,-332.6134 207.5001,-332.6133"/>
</g>
<!-- header_2 -->
<g id="node3" class="node">
<title>header_2</title>
<ellipse fill="none" stroke="#000000" cx="87" cy="-232.2001" rx="67.2808" ry="18"/>
<text text-anchor="middle" x="87" y="-228.0001" font-family="Helvetica,sans-Serif" font-size="14.00" fill="#000000">1 : Path #Todo</text>
</g>
<!-- section_1&#45;&gt;header_2 -->
<g id="edge2" class="edge">
<title>section_1&#45;&gt;header_2</title>
<path fill="none" stroke="#000000" stroke-dasharray="5,2" d="M177.4509,-287.8622C161.2602,-277.8987 140.3594,-265.0367 122.7285,-254.1869"/>
<polygon fill="#000000" stroke="#000000" points="124.2,-250.9828 113.849,-248.7226 120.5313,-256.9444 124.2,-250.9828"/>
</g>
<!-- prose_3 -->
<g id="node4" class="node">
<title>prose_3</title>
<ellipse fill="none" stroke="#000000" cx="204" cy="-232.2001" rx="32.4585" ry="18"/>
<text text-anchor="middle" x="204" y="-228.0001" font-family="Helvetica,sans-Serif" font-size="14.00" fill="#000000">prose</text>
</g>
<!-- section_1&#45;&gt;prose_3 -->
<g id="edge3" class="edge">
<title>section_1&#45;&gt;prose_3</title>
<path fill="none" stroke="#000000" stroke-dasharray="5,2" d="M204,-286.0315C204,-278.331 204,-269.1744 204,-260.6167"/>
<polygon fill="#000000" stroke="#000000" points="207.5001,-260.6133 204,-250.6134 200.5001,-260.6134 207.5001,-260.6133"/>
</g>
<!-- codeblock_4 -->
<g id="node5" class="node">
<title>codeblock_4</title>
<ellipse fill="none" stroke="#000000" cx="326" cy="-232.2001" rx="71.7805" ry="18"/>
<text text-anchor="middle" x="326" y="-228.0001" font-family="Helvetica,sans-Serif" font-size="14.00" fill="#000000">code block 5&#45;11</text>
</g>
<!-- section_1&#45;&gt;codeblock_4 -->
<g id="edge4" class="edge">
<title>section_1&#45;&gt;codeblock_4</title>
<path fill="none" stroke="#000000" stroke-dasharray="5,2" d="M231.3792,-288.0419C248.4046,-277.9941 270.5116,-264.9474 289.0753,-253.9917"/>
<polygon fill="#000000" stroke="#000000" points="291.0328,-256.9006 297.8659,-248.8038 287.4749,-250.8722 291.0328,-256.9006"/>
</g>
<!-- leaf_5 -->
<g id="node6" class="node">
<title>leaf_5</title>
<polygon fill="none" stroke="#c0c0c0" points="137,-152.8001 37,-152.8001 37,-116.8001 137,-116.8001 137,-152.8001"/>
<text text-anchor="middle" x="87" y="-131.3001" font-family="Inconsolata" font-size="14.00" fill="#000000">* Path #Todo</text>
</g>
<!-- header_2&#45;&gt;leaf_5 -->
<g id="edge5" class="edge">
<title>header_2&#45;&gt;leaf_5</title>
<path fill="none" stroke="#000000" stroke-dasharray="5,2" d="M87,-213.8799C87,-199.5953 87,-179.5047 87,-163.1486"/>
<polygon fill="#000000" stroke="#000000" points="90.5001,-163.0381 87,-153.0381 83.5001,-163.0381 90.5001,-163.0381"/>
</g>
<!-- raw_6 -->
<g id="node7" class="node">
<title>raw_6</title>
<ellipse fill="none" stroke="#000000" cx="204" cy="-134.8001" rx="27" ry="18"/>
<text text-anchor="middle" x="204" y="-130.6001" font-family="Helvetica,sans-Serif" font-size="14.00" fill="#000000">raw</text>
</g>
<!-- prose_3&#45;&gt;raw_6 -->
<g id="edge6" class="edge">
<title>prose_3&#45;&gt;raw_6</title>
<path fill="none" stroke="#000000" stroke-dasharray="5,2" d="M204,-213.8799C204,-199.5953 204,-179.5047 204,-163.1486"/>
<polygon fill="#000000" stroke="#000000" points="207.5001,-163.0381 204,-153.0381 200.5001,-163.0381 207.5001,-163.0381"/>
</g>
<!-- leaf_8 -->
<g id="node9" class="node">
<title>leaf_8</title>
<polygon fill="none" stroke="#c0c0c0" points="386.5,-178.1004 265.5,-178.1004 265.5,-91.4998 386.5,-91.4998 386.5,-178.1004"/>
<text text-anchor="middle" x="326" y="-163.0001" font-family="Inconsolata" font-size="14.00" fill="#000000">local Path = {}</text>
<text text-anchor="middle" x="326" y="-99.6001" font-family="Inconsolata" font-size="14.00" fill="#000000">return Path</text>
</g>
<!-- codeblock_4&#45;&gt;leaf_8 -->
<g id="edge8" class="edge">
<title>codeblock_4&#45;&gt;leaf_8</title>
<path fill="none" stroke="#000000" stroke-dasharray="5,2" d="M326,-213.8799C326,-206.5929 326,-197.7951 326,-188.7529"/>
<polygon fill="#000000" stroke="#000000" points="329.5001,-188.5075 326,-178.5075 322.5001,-188.5076 329.5001,-188.5075"/>
</g>
<!-- leaf_7 -->
<g id="node8" class="node">
<title>leaf_7</title>
<polygon fill="none" stroke="#c0c0c0" points="408,-55.6015 0,-55.6015 0,.2015 408,.2015 408,-55.6015"/>
<text text-anchor="middle" x="204" y="-8.2" font-family="Inconsolata" font-size="14.00" fill="#000000">Let&#39;s make a little Path class that isn&#39;t just a string.</text>
</g>
<!-- raw_6&#45;&gt;leaf_7 -->
<g id="edge7" class="edge">
<title>raw_6&#45;&gt;leaf_7</title>
<path fill="none" stroke="#000000" stroke-dasharray="5,2" d="M204,-116.632C204,-102.7937 204,-83.2496 204,-66.006"/>
<polygon fill="#000000" stroke="#000000" points="207.5001,-65.6382 204,-55.6383 200.5001,-65.6383 207.5001,-65.6382"/>
</g>
</g>
</svg>