<?xml version="1.0" encoding="UTF-8" standalone="no"?>
<!DOCTYPE svg PUBLIC "-//W3C//DTD SVG 1.1//EN"
 "http://www.w3.org/Graphics/SVG/1.1/DTD/svg11.dtd">
<!-- Generated by graphviz version 2.40.1 (20161225.0304)
 -->
<!-- Title: hierarchy Pages: 1 -->
<svg width="2710pt" height="923pt"
 viewBox="0.00 0.00 2709.50 923.00" xmlns="http://www.w3.org/2000/svg" xmlns:xlink="http://www.w3.org/1999/xlink">
<g id="graph0" class="graph" transform="scale(1 1) rotate(0) translate(4 919.0011)">
<title>hierarchy</title>
<polygon fill="#ffffff" stroke="transparent" points="-4,4 -4,-919.0011 2705.5,-919.0011 2705.5,4 -4,4"/>
<!-- doc_0 -->
<g id="node1" class="node">
<title>doc_0</title>
<ellipse fill="none" stroke="#000000" cx="1026.5" cy="-897.0011" rx="42.1216" ry="18"/>
<text text-anchor="middle" x="1026.5" y="-892.8011" font-family="Helvetica,sans-Serif" font-size="14.00" fill="#000000">doc &#45; 88</text>
</g>
<!-- section_1 -->
<g id="node2" class="node">
<title>section_1</title>
<ellipse fill="none" stroke="#000000" cx="1026.5" cy="-825.0011" rx="60.9826" ry="18"/>
<text text-anchor="middle" x="1026.5" y="-820.8011" font-family="Helvetica,sans-Serif" font-size="14.00" fill="#000000">section: 1&#45;64</text>
</g>
<!-- doc_0&#45;&gt;section_1 -->
<g id="edge1" class="edge">
<title>doc_0&#45;&gt;section_1</title>
<path fill="none" stroke="#000000" stroke-dasharray="5,2" d="M1026.5,-878.8325C1026.5,-871.132 1026.5,-861.9754 1026.5,-853.4177"/>
<polygon fill="#000000" stroke="#000000" points="1030.0001,-853.4143 1026.5,-843.4144 1023.0001,-853.4144 1030.0001,-853.4143"/>
</g>
<!-- header_2 -->
<g id="node3" class="node">
<title>header_2</title>
<ellipse fill="none" stroke="#000000" cx="529.5" cy="-753.0011" rx="73.3717" ry="18"/>
<text text-anchor="middle" x="529.5" y="-748.8011" font-family="Helvetica,sans-Serif" font-size="14.00" fill="#000000">1 : Walk module</text>
</g>
<!-- section_1&#45;&gt;header_2 -->
<g id="edge2" class="edge">
<title>section_1&#45;&gt;header_2</title>
<path fill="none" stroke="#000000" stroke-dasharray="5,2" d="M968.8638,-819.099C888.5009,-810.5068 738.3662,-793.1365 611.5,-771.0011 605.3754,-769.9325 599.0151,-768.7202 592.6678,-767.4419"/>
<polygon fill="#000000" stroke="#000000" points="593.2413,-763.9865 582.7398,-765.3898 591.8243,-770.8416 593.2413,-763.9865"/>
</g>
<!-- block_3 -->
<g id="node4" class="node">
<title>block_3</title>
<ellipse fill="none" stroke="#000000" cx="666.5" cy="-753.0011" rx="45.9804" ry="18"/>
<text text-anchor="middle" x="666.5" y="-748.8011" font-family="Helvetica,sans-Serif" font-size="14.00" fill="#000000">block 1&#45;5</text>
</g>
<!-- section_1&#45;&gt;block_3 -->
<g id="edge3" class="edge">
<title>section_1&#45;&gt;block_3</title>
<path fill="none" stroke="#000000" stroke-dasharray="5,2" d="M970.9054,-817.5652C909.3884,-808.7809 807.5625,-792.5882 721.5,-771.0011 717.9278,-770.1051 714.251,-769.0966 710.5727,-768.0263"/>
<polygon fill="#000000" stroke="#000000" points="711.4893,-764.6468 700.9035,-765.0832 709.451,-771.3435 711.4893,-764.6468"/>
</g>
<!-- block_4 -->
<g id="node5" class="node">
<title>block_4</title>
<ellipse fill="none" stroke="#000000" cx="781.5" cy="-753.0011" rx="50.8172" ry="18"/>
<text text-anchor="middle" x="781.5" y="-748.8011" font-family="Helvetica,sans-Serif" font-size="14.00" fill="#000000">block 6&#45;30</text>
</g>
<!-- section_1&#45;&gt;block_4 -->
<g id="edge4" class="edge">
<title>section_1&#45;&gt;block_4</title>
<path fill="none" stroke="#000000" stroke-dasharray="5,2" d="M983.2629,-812.2947C940.4789,-799.7214 875.0892,-780.5048 830.4263,-767.3794"/>
<polygon fill="#000000" stroke="#000000" points="831.2483,-763.9731 820.6671,-764.5114 829.2746,-770.689 831.2483,-763.9731"/>
</g>
<!-- block_5 -->
<g id="node6" class="node">
<title>block_5</title>
<ellipse fill="none" stroke="#000000" cx="961.5" cy="-753.0011" rx="55.6542" ry="18"/>
<text text-anchor="middle" x="961.5" y="-748.8011" font-family="Helvetica,sans-Serif" font-size="14.00" fill="#000000">block 31&#45;34</text>
</g>
<!-- section_1&#45;&gt;block_5 -->
<g id="edge5" class="edge">
<title>section_1&#45;&gt;block_5</title>
<path fill="none" stroke="#000000" stroke-dasharray="5,2" d="M1010.7653,-807.5719C1002.7607,-798.7052 992.8876,-787.7689 984.0869,-778.0204"/>
<polygon fill="#000000" stroke="#000000" points="986.6141,-775.5967 977.3151,-770.5193 981.4182,-780.2874 986.6141,-775.5967"/>
</g>
<!-- block_6 -->
<g id="node7" class="node">
<title>block_6</title>
<ellipse fill="none" stroke="#000000" cx="1091.5" cy="-753.0011" rx="55.6542" ry="18"/>
<text text-anchor="middle" x="1091.5" y="-748.8011" font-family="Helvetica,sans-Serif" font-size="14.00" fill="#000000">block 35&#45;46</text>
</g>
<!-- section_1&#45;&gt;block_6 -->
<g id="edge6" class="edge">
<title>section_1&#45;&gt;block_6</title>
<path fill="none" stroke="#000000" stroke-dasharray="5,2" d="M1042.2347,-807.5719C1050.2393,-798.7052 1060.1124,-787.7689 1068.9131,-778.0204"/>
<polygon fill="#000000" stroke="#000000" points="1071.5818,-780.2874 1075.6849,-770.5193 1066.3859,-775.5967 1071.5818,-780.2874"/>
</g>
<!-- block_7 -->
<g id="node8" class="node">
<title>block_7</title>
<ellipse fill="none" stroke="#000000" cx="1345.5" cy="-753.0011" rx="55.6542" ry="18"/>
<text text-anchor="middle" x="1345.5" y="-748.8011" font-family="Helvetica,sans-Serif" font-size="14.00" fill="#000000">block 47&#45;49</text>
</g>
<!-- section_1&#45;&gt;block_7 -->
<g id="edge7" class="edge">
<title>section_1&#45;&gt;block_7</title>
<path fill="none" stroke="#000000" stroke-dasharray="5,2" d="M1074.9492,-814.0658C1132.7357,-801.0231 1229.1293,-779.2666 1289.8997,-765.5504"/>
<polygon fill="#000000" stroke="#000000" points="1290.7209,-768.9532 1299.7049,-763.3373 1289.1797,-762.1249 1290.7209,-768.9532"/>
</g>
<!-- block_8 -->
<g id="node9" class="node">
<title>block_8</title>
<ellipse fill="none" stroke="#000000" cx="1785.5" cy="-753.0011" rx="55.6542" ry="18"/>
<text text-anchor="middle" x="1785.5" y="-748.8011" font-family="Helvetica,sans-Serif" font-size="14.00" fill="#000000">block 50&#45;64</text>
</g>
<!-- section_1&#45;&gt;block_8 -->
<g id="edge8" class="edge">
<title>section_1&#45;&gt;block_8</title>
<path fill="none" stroke="#000000" stroke-dasharray="5,2" d="M1084.4839,-819.5006C1223.8264,-806.2824 1576.6732,-772.8107 1721.7297,-759.0504"/>
<polygon fill="#000000" stroke="#000000" points="1722.1841,-762.5231 1731.8089,-758.0943 1721.523,-755.5544 1722.1841,-762.5231"/>
</g>
<!-- section_9 -->
<g id="node10" class="node">
<title>section_9</title>
<ellipse fill="none" stroke="#000000" cx="2216.5" cy="-753.0011" rx="65.8187" ry="18"/>
<text text-anchor="middle" x="2216.5" y="-748.8011" font-family="Helvetica,sans-Serif" font-size="14.00" fill="#000000">section: 65&#45;88</text>
</g>
<!-- section_1&#45;&gt;section_9 -->
<g id="edge9" class="edge">
<title>section_1&#45;&gt;section_9</title>
<path fill="none" stroke="#000000" stroke-dasharray="5,2" d="M1086.3278,-821.3813C1285.1294,-809.3529 1923.4274,-770.7332 2142.1466,-757.4998"/>
<polygon fill="#000000" stroke="#000000" points="2142.4709,-760.9867 2152.2412,-756.889 2142.048,-753.9994 2142.4709,-760.9867"/>
</g>
<!-- leaf_10 -->
<g id="node11" class="node">
<title>leaf_10</title>
<polygon fill="none" stroke="#c0c0c0" points="513,-698.9015 0,-698.9015 0,-644.3006 513,-644.3006 513,-698.9015"/>
<text text-anchor="middle" x="256.5" y="-667.8011" font-family="Inconsolata" font-size="14.00" fill="#000000"> &#160;Contains common functions for recursively executing over some part of</text>
<text text-anchor="middle" x="256.5" y="-652.4011" font-family="Inconsolata" font-size="14.00" fill="#000000">a codex. &#160;</text>
</g>
<!-- block_3&#45;&gt;leaf_10 -->
<g id="edge10" class="edge">
<title>block_3&#45;&gt;leaf_10</title>
<path fill="none" stroke="#000000" stroke-dasharray="5,2" d="M632.0945,-740.927C625.3172,-738.7801 618.2228,-736.6927 611.5,-735.0011 558.7726,-721.7336 500.9654,-710.1715 447.5927,-700.6847"/>
<polygon fill="#000000" stroke="#000000" points="448.1365,-697.2267 437.6807,-698.9375 446.9213,-704.1204 448.1365,-697.2267"/>
</g>
<!-- codeblock_11 -->
<g id="node12" class="node">
<title>codeblock_11</title>
<ellipse fill="none" stroke="#000000" cx="603.5" cy="-671.6011" rx="72.5844" ry="18"/>
<text text-anchor="middle" x="603.5" y="-667.4011" font-family="Helvetica,sans-Serif" font-size="14.00" fill="#000000">code block 6&#45;29</text>
</g>
<!-- block_4&#45;&gt;codeblock_11 -->
<g id="edge11" class="edge">
<title>block_4&#45;&gt;codeblock_11</title>
<path fill="none" stroke="#000000" stroke-dasharray="5,2" d="M750.0869,-738.6358C721.5637,-725.592 679.2111,-706.224 647.3547,-691.656"/>
<polygon fill="#000000" stroke="#000000" points="648.8008,-688.4687 638.251,-687.4928 645.8896,-694.8347 648.8008,-688.4687"/>
</g>
<!-- leaf_13 -->
<g id="node14" class="node">
<title>leaf_13</title>
<polygon fill="none" stroke="#c0c0c0" points="748.5,-689.6011 694.5,-689.6011 694.5,-653.6011 748.5,-653.6011 748.5,-689.6011"/>
</g>
<!-- block_4&#45;&gt;leaf_13 -->
<g id="edge13" class="edge">
<title>block_4&#45;&gt;leaf_13</title>
<path fill="none" stroke="#000000" stroke-dasharray="5,2" d="M768.4809,-735.3385C760.4159,-724.397 749.9096,-710.1434 740.878,-697.8906"/>
<polygon fill="#000000" stroke="#000000" points="743.6599,-695.7657 734.9091,-689.7928 738.0252,-699.9191 743.6599,-695.7657"/>
</g>
<!-- codeblock_14 -->
<g id="node15" class="node">
<title>codeblock_14</title>
<ellipse fill="none" stroke="#000000" cx="843.5" cy="-671.6011" rx="77.4211" ry="18"/>
<text text-anchor="middle" x="843.5" y="-667.4011" font-family="Helvetica,sans-Serif" font-size="14.00" fill="#000000">code block 31&#45;33</text>
</g>
<!-- block_5&#45;&gt;codeblock_14 -->
<g id="edge14" class="edge">
<title>block_5&#45;&gt;codeblock_14</title>
<path fill="none" stroke="#000000" stroke-dasharray="5,2" d="M937.6209,-736.5286C920.1395,-724.4693 896.1903,-707.9484 876.8254,-694.5899"/>
<polygon fill="#000000" stroke="#000000" points="878.7843,-691.6893 868.5654,-688.8919 874.8094,-697.4513 878.7843,-691.6893"/>
</g>
<!-- leaf_16 -->
<g id="node17" class="node">
<title>leaf_16</title>
<polygon fill="none" stroke="#c0c0c0" points="992.5,-689.6011 938.5,-689.6011 938.5,-653.6011 992.5,-653.6011 992.5,-689.6011"/>
</g>
<!-- block_5&#45;&gt;leaf_16 -->
<g id="edge16" class="edge">
<title>block_5&#45;&gt;leaf_16</title>
<path fill="none" stroke="#000000" stroke-dasharray="5,2" d="M962.3877,-734.9358C962.8952,-724.608 963.5429,-711.429 964.1158,-699.7702"/>
<polygon fill="#000000" stroke="#000000" points="967.6196,-699.7756 964.6148,-689.6159 960.6281,-699.432 967.6196,-699.7756"/>
</g>
<!-- codeblock_17 -->
<g id="node18" class="node">
<title>codeblock_17</title>
<ellipse fill="none" stroke="#000000" cx="1087.5" cy="-671.6011" rx="77.4211" ry="18"/>
<text text-anchor="middle" x="1087.5" y="-667.4011" font-family="Helvetica,sans-Serif" font-size="14.00" fill="#000000">code block 35&#45;44</text>
</g>
<!-- block_6&#45;&gt;codeblock_17 -->
<g id="edge17" class="edge">
<title>block_6&#45;&gt;codeblock_17</title>
<path fill="none" stroke="#000000" stroke-dasharray="5,2" d="M1090.6123,-734.9358C1090.1048,-724.608 1089.4571,-711.429 1088.8842,-699.7702"/>
<polygon fill="#000000" stroke="#000000" points="1092.3719,-699.432 1088.3852,-689.6159 1085.3804,-699.7756 1092.3719,-699.432"/>
</g>
<!-- leaf_19 -->
<g id="node20" class="node">
<title>leaf_19</title>
<polygon fill="none" stroke="#c0c0c0" points="1236.5,-689.6011 1182.5,-689.6011 1182.5,-653.6011 1236.5,-653.6011 1236.5,-689.6011"/>
</g>
<!-- block_6&#45;&gt;leaf_19 -->
<g id="edge19" class="edge">
<title>block_6&#45;&gt;leaf_19</title>
<path fill="none" stroke="#000000" stroke-dasharray="5,2" d="M1116.9213,-736.8957C1133.2698,-726.3831 1154.8631,-712.2069 1173.5,-699.0011 1174.9099,-698.0021 1176.3433,-696.9724 1177.7858,-695.9247"/>
<polygon fill="#000000" stroke="#000000" points="1180.0874,-698.5758 1186.0463,-689.8155 1175.925,-692.9477 1180.0874,-698.5758"/>
</g>
<!-- leaf_20 -->
<g id="node21" class="node">
<title>leaf_20</title>
<polygon fill="none" stroke="#c0c0c0" points="1690.5,-690.9016 1254.5,-690.9016 1254.5,-652.3005 1690.5,-652.3005 1690.5,-690.9016"/>
<text text-anchor="middle" x="1472.5" y="-675.8011" font-family="Inconsolata" font-size="14.00" fill="#000000">Finds the last match for a literal substring and replaces it</text>
<text text-anchor="middle" x="1472.5" y="-660.4011" font-family="Inconsolata" font-size="14.00" fill="#000000">with =swap=, returning the new string.</text>
</g>
<!-- block_7&#45;&gt;leaf_20 -->
<g id="edge20" class="edge">
<title>block_7&#45;&gt;leaf_20</title>
<path fill="none" stroke="#000000" stroke-dasharray="5,2" d="M1370.5911,-736.9191C1388.5548,-725.4053 1413.0874,-709.6813 1433.5807,-696.5462"/>
<polygon fill="#000000" stroke="#000000" points="1435.5549,-699.4381 1442.0854,-691.0952 1431.7776,-693.5447 1435.5549,-699.4381"/>
</g>
<!-- codeblock_21 -->
<g id="node22" class="node">
<title>codeblock_21</title>
<ellipse fill="none" stroke="#000000" cx="1785.5" cy="-671.6011" rx="77.4211" ry="18"/>
<text text-anchor="middle" x="1785.5" y="-667.4011" font-family="Helvetica,sans-Serif" font-size="14.00" fill="#000000">code block 50&#45;63</text>
</g>
<!-- block_8&#45;&gt;codeblock_21 -->
<g id="edge21" class="edge">
<title>block_8&#45;&gt;codeblock_21</title>
<path fill="none" stroke="#000000" stroke-dasharray="5,2" d="M1785.5,-734.9358C1785.5,-724.608 1785.5,-711.429 1785.5,-699.7702"/>
<polygon fill="#000000" stroke="#000000" points="1789.0001,-699.6158 1785.5,-689.6159 1782.0001,-699.6159 1789.0001,-699.6158"/>
</g>
<!-- leaf_23 -->
<g id="node24" class="node">
<title>leaf_23</title>
<polygon fill="none" stroke="#c0c0c0" points="1934.5,-689.6011 1880.5,-689.6011 1880.5,-653.6011 1934.5,-653.6011 1934.5,-689.6011"/>
</g>
<!-- block_8&#45;&gt;leaf_23 -->
<g id="edge23" class="edge">
<title>block_8&#45;&gt;leaf_23</title>
<path fill="none" stroke="#000000" stroke-dasharray="5,2" d="M1812.2457,-737.0612C1829.4252,-726.6147 1852.0777,-712.4498 1871.5,-699.0011 1872.9206,-698.0174 1874.363,-697.0004 1875.8128,-695.9631"/>
<polygon fill="#000000" stroke="#000000" points="1878.1018,-698.6249 1884.099,-689.8908 1873.9641,-692.9787 1878.1018,-698.6249"/>
</g>
<!-- header_24 -->
<g id="node25" class="node">
<title>header_24</title>
<ellipse fill="none" stroke="#000000" cx="2047.5" cy="-671.6011" rx="94.8539" ry="18"/>
<text text-anchor="middle" x="2047.5" y="-667.4011" font-family="Helvetica,sans-Serif" font-size="14.00" fill="#000000">3 : Update on change</text>
</g>
<!-- section_9&#45;&gt;header_24 -->
<g id="edge24" class="edge">
<title>section_9&#45;&gt;header_24</title>
<path fill="none" stroke="#000000" stroke-dasharray="5,2" d="M2183.9151,-737.3063C2157.6039,-724.6334 2120.3286,-706.6795 2091.3902,-692.7411"/>
<polygon fill="#000000" stroke="#000000" points="2092.8402,-689.5547 2082.312,-688.3685 2089.8026,-695.8613 2092.8402,-689.5547"/>
</g>
<!-- block_25 -->
<g id="node26" class="node">
<title>block_25</title>
<ellipse fill="none" stroke="#000000" cx="2216.5" cy="-671.6011" rx="55.6542" ry="18"/>
<text text-anchor="middle" x="2216.5" y="-667.4011" font-family="Helvetica,sans-Serif" font-size="14.00" fill="#000000">block 65&#45;66</text>
</g>
<!-- section_9&#45;&gt;block_25 -->
<g id="edge25" class="edge">
<title>section_9&#45;&gt;block_25</title>
<path fill="none" stroke="#000000" stroke-dasharray="5,2" d="M2216.5,-734.9358C2216.5,-724.608 2216.5,-711.429 2216.5,-699.7702"/>
<polygon fill="#000000" stroke="#000000" points="2220.0001,-699.6158 2216.5,-689.6159 2213.0001,-699.6159 2220.0001,-699.6158"/>
</g>
<!-- block_26 -->
<g id="node27" class="node">
<title>block_26</title>
<ellipse fill="none" stroke="#000000" cx="2346.5" cy="-671.6011" rx="55.6542" ry="18"/>
<text text-anchor="middle" x="2346.5" y="-667.4011" font-family="Helvetica,sans-Serif" font-size="14.00" fill="#000000">block 67&#45;85</text>
</g>
<!-- section_9&#45;&gt;block_26 -->
<g id="edge26" class="edge">
<title>section_9&#45;&gt;block_26</title>
<path fill="none" stroke="#000000" stroke-dasharray="5,2" d="M2243.1211,-736.3322C2263.0994,-723.8227 2290.6137,-706.5945 2312.2346,-693.0565"/>
<polygon fill="#000000" stroke="#000000" points="2314.1823,-695.9665 2320.8004,-687.693 2310.4673,-690.0336 2314.1823,-695.9665"/>
</g>
<!-- block_27 -->
<g id="node28" class="node">
<title>block_27</title>
<ellipse fill="none" stroke="#000000" cx="2552.5" cy="-671.6011" rx="55.6542" ry="18"/>
<text text-anchor="middle" x="2552.5" y="-667.4011" font-family="Helvetica,sans-Serif" font-size="14.00" fill="#000000">block 86&#45;88</text>
</g>
<!-- section_9&#45;&gt;block_27 -->
<g id="edge27" class="edge">
<title>section_9&#45;&gt;block_27</title>
<path fill="none" stroke="#000000" stroke-dasharray="5,2" d="M2265.7171,-741.0777C2327.573,-726.0923 2433.4136,-700.4512 2497.7618,-684.862"/>
<polygon fill="#000000" stroke="#000000" points="2498.8252,-688.2057 2507.72,-682.4496 2497.177,-681.4025 2498.8252,-688.2057"/>
</g>
<!-- leaf_12 -->
<g id="node13" class="node">
<title>leaf_12</title>
<polygon fill="none" stroke="#c0c0c0" points="765.5,-608.0016 441.5,-608.0016 441.5,-259.7999 765.5,-259.7999 765.5,-608.0016"/>
<text text-anchor="middle" x="603.5" y="-593.001" font-family="Inconsolata" font-size="14.00" fill="#000000">local L = require &quot;lpeg&quot;</text>
<text text-anchor="middle" x="603.5" y="-561.601" font-family="Inconsolata" font-size="14.00" fill="#000000">local s = require &quot;lib/status&quot;</text>
<text text-anchor="middle" x="603.5" y="-546.201" font-family="Inconsolata" font-size="14.00" fill="#000000">local u = require &quot;lib/util&quot;</text>
<text text-anchor="middle" x="603.5" y="-530.8009" font-family="Inconsolata" font-size="14.00" fill="#000000">local a = require &quot;lib/ansi&quot;</text>
<text text-anchor="middle" x="603.5" y="-515.4009" font-family="Inconsolata" font-size="14.00" fill="#000000">s.chatty = true</text>
<text text-anchor="middle" x="603.5" y="-484.0009" font-family="Inconsolata" font-size="14.00" fill="#000000">local pl_file = require &quot;pl.file&quot;</text>
<text text-anchor="middle" x="603.5" y="-468.6008" font-family="Inconsolata" font-size="14.00" fill="#000000">local pl_dir = require &quot;pl.dir&quot;</text>
<text text-anchor="middle" x="603.5" y="-453.2008" font-family="Inconsolata" font-size="14.00" fill="#000000">local pl_path = require &quot;pl.path&quot;</text>
<text text-anchor="middle" x="603.5" y="-437.8008" font-family="Inconsolata" font-size="14.00" fill="#000000">local getfiles = pl_dir.getfiles</text>
<text text-anchor="middle" x="603.5" y="-422.4007" font-family="Inconsolata" font-size="14.00" fill="#000000">local getdirectories = pl_dir.getdirectories</text>
<text text-anchor="middle" x="603.5" y="-407.0007" font-family="Inconsolata" font-size="14.00" fill="#000000">local makepath = pl_dir.makepath</text>
<text text-anchor="middle" x="603.5" y="-391.6007" font-family="Inconsolata" font-size="14.00" fill="#000000">local extension = pl_path.extension</text>
<text text-anchor="middle" x="603.5" y="-376.2007" font-family="Inconsolata" font-size="14.00" fill="#000000">local dirname = pl_path.dirname</text>
<text text-anchor="middle" x="603.5" y="-360.8006" font-family="Inconsolata" font-size="14.00" fill="#000000">local basename = pl_path.basename</text>
<text text-anchor="middle" x="603.5" y="-345.4006" font-family="Inconsolata" font-size="14.00" fill="#000000">local read = pl_file.read</text>
<text text-anchor="middle" x="603.5" y="-330.0006" font-family="Inconsolata" font-size="14.00" fill="#000000">local write = pl_file.write</text>
<text text-anchor="middle" x="603.5" y="-314.6005" font-family="Inconsolata" font-size="14.00" fill="#000000">local delete = pl_file.delete</text>
<text text-anchor="middle" x="603.5" y="-299.2005" font-family="Inconsolata" font-size="14.00" fill="#000000">local isdir = pl_path.isdir</text>
<text text-anchor="middle" x="603.5" y="-267.8005" font-family="Inconsolata" font-size="14.00" fill="#000000">local epeg = require &quot;peg/epeg&quot;</text>
</g>
<!-- codeblock_11&#45;&gt;leaf_12 -->
<g id="edge12" class="edge">
<title>codeblock_11&#45;&gt;leaf_12</title>
<path fill="none" stroke="#000000" stroke-dasharray="5,2" d="M603.5,-653.3438C603.5,-644.2022 603.5,-632.1442 603.5,-618.3742"/>
<polygon fill="#000000" stroke="#000000" points="607.0001,-618.0622 603.5,-608.0622 600.0001,-618.0622 607.0001,-618.0622"/>
</g>
<!-- leaf_15 -->
<g id="node16" class="node">
<title>leaf_15</title>
<polygon fill="none" stroke="#c0c0c0" points="893.5,-451.9007 793.5,-451.9007 793.5,-415.9007 893.5,-415.9007 893.5,-451.9007"/>
<text text-anchor="middle" x="843.5" y="-430.4007" font-family="Inconsolata" font-size="14.00" fill="#000000">local W = {}</text>
</g>
<!-- codeblock_14&#45;&gt;leaf_15 -->
<g id="edge15" class="edge">
<title>codeblock_14&#45;&gt;leaf_15</title>
<path fill="none" stroke="#000000" stroke-dasharray="5,2" d="M843.5,-653.3438C843.5,-612.1227 843.5,-511.6008 843.5,-462.2204"/>
<polygon fill="#000000" stroke="#000000" points="847.0001,-462.2202 843.5,-452.2202 840.0001,-462.2202 847.0001,-462.2202"/>
</g>
<!-- leaf_18 -->
<g id="node19" class="node">
<title>leaf_18</title>
<polygon fill="none" stroke="#c0c0c0" points="1260,-499.7011 915,-499.7011 915,-368.1004 1260,-368.1004 1260,-499.7011"/>
<text text-anchor="middle" x="1087.5" y="-484.6008" font-family="Inconsolata" font-size="14.00" fill="#000000">function W.strHas(substr, str)</text>
<text text-anchor="middle" x="1087.5" y="-469.2008" font-family="Inconsolata" font-size="14.00" fill="#000000"> &#160;&#160;&#160;return L.match(epeg.anyP(substr), str)</text>
<text text-anchor="middle" x="1087.5" y="-453.8008" font-family="Inconsolata" font-size="14.00" fill="#000000">end</text>
<text text-anchor="middle" x="1087.5" y="-422.4007" font-family="Inconsolata" font-size="14.00" fill="#000000">function W.endsWith(substr, str)</text>
<text text-anchor="middle" x="1087.5" y="-407.0007" font-family="Inconsolata" font-size="14.00" fill="#000000"> &#160;&#160;&#160;return L.match(L.P(string.reverse(substr)),</text>
<text text-anchor="middle" x="1087.5" y="-391.6007" font-family="Inconsolata" font-size="14.00" fill="#000000"> &#160;&#160;&#160;&#160;&#160;&#160;&#160;string.reverse(str))</text>
<text text-anchor="middle" x="1087.5" y="-376.2007" font-family="Inconsolata" font-size="14.00" fill="#000000">end</text>
</g>
<!-- codeblock_17&#45;&gt;leaf_18 -->
<g id="edge18" class="edge">
<title>codeblock_17&#45;&gt;leaf_18</title>
<path fill="none" stroke="#000000" stroke-dasharray="5,2" d="M1087.5,-653.3438C1087.5,-623.0357 1087.5,-560.6695 1087.5,-510.1438"/>
<polygon fill="#000000" stroke="#000000" points="1091.0001,-509.8841 1087.5,-499.8841 1084.0001,-509.8842 1091.0001,-509.8841"/>
</g>
<!-- leaf_22 -->
<g id="node23" class="node">
<title>leaf_22</title>
<polygon fill="none" stroke="#c0c0c0" points="2070,-530.2012 1501,-530.2012 1501,-337.6003 2070,-337.6003 2070,-530.2012"/>
<text text-anchor="middle" x="1785.5" y="-515.1009" font-family="Inconsolata" font-size="14.00" fill="#000000">function W.subLastFor(match, swap, str)</text>
<text text-anchor="middle" x="1785.5" y="-499.7009" font-family="Inconsolata" font-size="14.00" fill="#000000"> &#160;&#160;&#160;local trs, hctam = string.reverse(str), string.reverse(match)</text>
<text text-anchor="middle" x="1785.5" y="-484.3009" font-family="Inconsolata" font-size="14.00" fill="#000000"> &#160;&#160;&#160;local first, last = W.strHas(hctam, trs)</text>
<text text-anchor="middle" x="1785.5" y="-468.9008" font-family="Inconsolata" font-size="14.00" fill="#000000"> &#160;&#160;&#160;if last then</text>
<text text-anchor="middle" x="1785.5" y="-453.5008" font-family="Inconsolata" font-size="14.00" fill="#000000"> &#160;&#160;&#160;&#160;&#160;&#160;&#160;&#45;&#45; There is some way to do this without reversing the string twice,</text>
<text text-anchor="middle" x="1785.5" y="-438.1008" font-family="Inconsolata" font-size="14.00" fill="#000000"> &#160;&#160;&#160;&#160;&#160;&#160;&#160;&#45;&#45; but I can&#39;t be arsed to find it. ONE BASED INDEXES ARE A MISTAKE</text>
<text text-anchor="middle" x="1785.5" y="-422.7007" font-family="Inconsolata" font-size="14.00" fill="#000000"> &#160;&#160;&#160;&#160;&#160;&#160;&#160;return string.reverse(trs:sub(1, first &#45; 1) </text>
<text text-anchor="middle" x="1785.5" y="-407.3007" font-family="Inconsolata" font-size="14.00" fill="#000000"> &#160;&#160;&#160;&#160;&#160;&#160;&#160;&#160;&#160;&#160;&#160;.. string.reverse(swap) .. trs:sub(last, &#45;1))</text>
<text text-anchor="middle" x="1785.5" y="-391.9007" font-family="Inconsolata" font-size="14.00" fill="#000000"> &#160;&#160;&#160;else</text>
<text text-anchor="middle" x="1785.5" y="-376.5006" font-family="Inconsolata" font-size="14.00" fill="#000000"> &#160;&#160;&#160;&#160;&#160;&#160;&#160;s:halt(&quot;didn&#39;t find an instance of &quot; .. match .. &quot; in string: &quot; .. str)</text>
<text text-anchor="middle" x="1785.5" y="-361.1006" font-family="Inconsolata" font-size="14.00" fill="#000000"> &#160;&#160;&#160;end </text>
<text text-anchor="middle" x="1785.5" y="-345.7006" font-family="Inconsolata" font-size="14.00" fill="#000000">end</text>
</g>
<!-- codeblock_21&#45;&gt;leaf_22 -->
<g id="edge22" class="edge">
<title>codeblock_21&#45;&gt;leaf_22</title>
<path fill="none" stroke="#000000" stroke-dasharray="5,2" d="M1785.5,-653.3438C1785.5,-628.8863 1785.5,-583.5529 1785.5,-540.4117"/>
<polygon fill="#000000" stroke="#000000" points="1789.0001,-540.381 1785.5,-530.3811 1782.0001,-540.3811 1789.0001,-540.381"/>
</g>
<!-- leaf_28 -->
<g id="node29" class="node">
<title>leaf_28</title>
<polygon fill="none" stroke="#c0c0c0" points="2192.5,-451.9007 2138.5,-451.9007 2138.5,-415.9007 2192.5,-415.9007 2192.5,-451.9007"/>
</g>
<!-- block_25&#45;&gt;leaf_28 -->
<g id="edge28" class="edge">
<title>block_25&#45;&gt;leaf_28</title>
<path fill="none" stroke="#000000" stroke-dasharray="5,2" d="M2212.0952,-653.5961C2209.0303,-640.9231 2204.9003,-623.551 2201.5,-608.201 2190.1143,-556.8026 2177.9382,-496.616 2171.0668,-462.1046"/>
<polygon fill="#000000" stroke="#000000" points="2174.4921,-461.3834 2169.1114,-452.2565 2167.6261,-462.7467 2174.4921,-461.3834"/>
</g>
<!-- codeblock_29 -->
<g id="node30" class="node">
<title>codeblock_29</title>
<ellipse fill="none" stroke="#000000" cx="2287.5" cy="-433.9007" rx="77.4211" ry="18"/>
<text text-anchor="middle" x="2287.5" y="-429.7007" font-family="Helvetica,sans-Serif" font-size="14.00" fill="#000000">code block 67&#45;82</text>
</g>
<!-- block_26&#45;&gt;codeblock_29 -->
<g id="edge29" class="edge">
<title>block_26&#45;&gt;codeblock_29</title>
<path fill="none" stroke="#000000" stroke-dasharray="5,2" d="M2341.9683,-653.3438C2331.7116,-612.0214 2306.6634,-511.1065 2294.4392,-461.8574"/>
<polygon fill="#000000" stroke="#000000" points="2297.7724,-460.7571 2291.9663,-451.8948 2290.9785,-462.4435 2297.7724,-460.7571"/>
</g>
<!-- leaf_31 -->
<g id="node32" class="node">
<title>leaf_31</title>
<polygon fill="none" stroke="#c0c0c0" points="2436.5,-453.9007 2382.5,-453.9007 2382.5,-413.9007 2436.5,-413.9007 2436.5,-453.9007"/>
</g>
<!-- block_26&#45;&gt;leaf_31 -->
<g id="edge31" class="edge">
<title>block_26&#45;&gt;leaf_31</title>
<path fill="none" stroke="#000000" stroke-dasharray="5,2" d="M2355.2798,-653.6516C2361.1107,-641.1502 2368.5716,-623.9579 2373.5,-608.201 2388.9646,-558.7587 2399.614,-499.3187 2405.1223,-464.182"/>
<polygon fill="#000000" stroke="#000000" points="2408.6128,-464.5103 2406.6664,-454.0958 2401.6934,-463.451 2408.6128,-464.5103"/>
</g>
<!-- codeblock_32 -->
<g id="node33" class="node">
<title>codeblock_32</title>
<ellipse fill="none" stroke="#000000" cx="2552.5" cy="-433.9007" rx="77.4211" ry="18"/>
<text text-anchor="middle" x="2552.5" y="-429.7007" font-family="Helvetica,sans-Serif" font-size="14.00" fill="#000000">code block 86&#45;88</text>
</g>
<!-- block_27&#45;&gt;codeblock_32 -->
<g id="edge32" class="edge">
<title>block_27&#45;&gt;codeblock_32</title>
<path fill="none" stroke="#000000" stroke-dasharray="5,2" d="M2552.5,-653.3438C2552.5,-612.1227 2552.5,-511.6008 2552.5,-462.2204"/>
<polygon fill="#000000" stroke="#000000" points="2556.0001,-462.2202 2552.5,-452.2202 2549.0001,-462.2202 2556.0001,-462.2202"/>
</g>
<!-- leaf_34 -->
<g id="node35" class="node">
<title>leaf_34</title>
<polygon fill="none" stroke="#c0c0c0" points="2701.5,-451.9007 2647.5,-451.9007 2647.5,-415.9007 2701.5,-415.9007 2701.5,-451.9007"/>
</g>
<!-- block_27&#45;&gt;leaf_34 -->
<g id="edge34" class="edge">
<title>block_27&#45;&gt;leaf_34</title>
<path fill="none" stroke="#000000" stroke-dasharray="5,2" d="M2583.3456,-656.3898C2602.1607,-645.5222 2625.0952,-629.1326 2638.5,-608.201 2667.4196,-563.043 2673.6736,-499.0083 2674.7022,-462.4439"/>
<polygon fill="#000000" stroke="#000000" points="2678.2084,-462.0856 2674.8729,-452.0295 2671.2094,-461.9708 2678.2084,-462.0856"/>
</g>
<!-- leaf_30 -->
<g id="node31" class="node">
<title>leaf_30</title>
<polygon fill="none" stroke="#c0c0c0" points="2508.5,-223.401 2044.5,-223.401 2044.5,-.1994 2508.5,-.1994 2508.5,-223.401"/>
<text text-anchor="middle" x="2276.5" y="-208.4004" font-family="Inconsolata" font-size="14.00" fill="#000000">function W.writeOnChange(newest, current, out_file, depth)</text>
<text text-anchor="middle" x="2276.5" y="-193.0004" font-family="Inconsolata" font-size="14.00" fill="#000000"> &#160;&#160;&#160;&#45;&#45; If the text has changed, write it</text>
<text text-anchor="middle" x="2276.5" y="-177.6004" font-family="Inconsolata" font-size="14.00" fill="#000000"> &#160;&#160;&#160;if newest ~= current then</text>
<text text-anchor="middle" x="2276.5" y="-162.2003" font-family="Inconsolata" font-size="14.00" fill="#000000"> &#160;&#160;&#160;&#160;&#160;&#160;&#160;s:chat(a.green((&quot; &#160;&quot;):rep(depth) .. &quot; &#160;&#45; &quot; .. out_file))</text>
<text text-anchor="middle" x="2276.5" y="-146.8003" font-family="Inconsolata" font-size="14.00" fill="#000000"> &#160;&#160;&#160;&#160;&#160;&#160;&#160;write(out_file, newest)</text>
<text text-anchor="middle" x="2276.5" y="-131.4003" font-family="Inconsolata" font-size="14.00" fill="#000000"> &#160;&#160;&#160;&#45;&#45; If the new text is blank, delete the old file</text>
<text text-anchor="middle" x="2276.5" y="-116.0002" font-family="Inconsolata" font-size="14.00" fill="#000000"> &#160;&#160;&#160;elseif current ~= &quot;&quot; and newest == &quot;&quot; then</text>
<text text-anchor="middle" x="2276.5" y="-100.6002" font-family="Inconsolata" font-size="14.00" fill="#000000"> &#160;&#160;&#160;&#160;&#160;&#160;&#160;s:chat(a.red((&quot; &#160;&quot;):rep(depth) .. &quot; &#160;&#45; &quot; .. out_file))</text>
<text text-anchor="middle" x="2276.5" y="-85.2002" font-family="Inconsolata" font-size="14.00" fill="#000000"> &#160;&#160;&#160;&#160;&#160;&#160;&#160;delete(out_file)</text>
<text text-anchor="middle" x="2276.5" y="-69.8002" font-family="Inconsolata" font-size="14.00" fill="#000000"> &#160;&#160;&#160;else</text>
<text text-anchor="middle" x="2276.5" y="-54.4001" font-family="Inconsolata" font-size="14.00" fill="#000000"> &#160;&#160;&#160;&#45;&#45; Otherwise do nothing</text>
<text text-anchor="middle" x="2276.5" y="-39.0001" font-family="Inconsolata" font-size="14.00" fill="#000000"> &#160;&#160;&#160;&#160;&#160;&#160;&#160;s:verb((&quot; &#160;&quot;):rep(depth) .. &quot; &#160;&#45; &quot; .. out_file)</text>
<text text-anchor="middle" x="2276.5" y="-23.6001" font-family="Inconsolata" font-size="14.00" fill="#000000"> &#160;&#160;&#160;end</text>
<text text-anchor="middle" x="2276.5" y="-8.2" font-family="Inconsolata" font-size="14.00" fill="#000000">end</text>
</g>
<!-- codeblock_29&#45;&gt;leaf_30 -->
<g id="edge30" class="edge">
<title>codeblock_29&#45;&gt;leaf_30</title>
<path fill="none" stroke="#000000" stroke-dasharray="5,2" d="M2286.8771,-415.6603C2285.688,-380.8415 2283.0045,-302.2629 2280.6643,-233.7391"/>
<polygon fill="#000000" stroke="#000000" points="2284.1611,-233.5831 2280.3218,-223.7084 2277.1652,-233.8221 2284.1611,-233.5831"/>
</g>
<!-- leaf_33 -->
<g id="node34" class="node">
<title>leaf_33</title>
<polygon fill="none" stroke="#c0c0c0" points="2598.5,-129.8002 2526.5,-129.8002 2526.5,-93.8002 2598.5,-93.8002 2598.5,-129.8002"/>
<text text-anchor="middle" x="2562.5" y="-108.3002" font-family="Inconsolata" font-size="14.00" fill="#000000">return W</text>
</g>
<!-- codeblock_32&#45;&gt;leaf_33 -->
<g id="edge33" class="edge">
<title>codeblock_32&#45;&gt;leaf_33</title>
<path fill="none" stroke="#000000" stroke-dasharray="5,2" d="M2553.0663,-415.6603C2554.7301,-362.0675 2559.6126,-204.8028 2561.6213,-140.1022"/>
<polygon fill="#000000" stroke="#000000" points="2565.1278,-139.9444 2561.9399,-129.8406 2558.1312,-139.7271 2565.1278,-139.9444"/>
</g>
</g>
</svg>