<?xml version="1.0" encoding="UTF-8" standalone="no"?>
<!DOCTYPE svg PUBLIC "-//W3C//DTD SVG 1.1//EN"
 "http://www.w3.org/Graphics/SVG/1.1/DTD/svg11.dtd">
<!-- Generated by graphviz version 2.40.1 (20161225.0304)
 -->
<!-- Title: lpegNode Pages: 1 -->
<svg width="3369pt" height="951pt"
 viewBox="0.00 0.00 3369.00 951.00" xmlns="http://www.w3.org/2000/svg" xmlns:xlink="http://www.w3.org/1999/xlink">
<g id="graph0" class="graph" transform="scale(1 1) rotate(0) translate(4 947.0011)">
<title>lpegNode</title>
<polygon fill="#ffffff" stroke="transparent" points="-4,4 -4,-947.0011 3365,-947.0011 3365,4 -4,4"/>
<!-- doc_0 -->
<g id="node1" class="node">
<title>doc_0</title>
<ellipse fill="none" stroke="#000000" cx="1116.5" cy="-925.0011" rx="42.1216" ry="18"/>
<text text-anchor="middle" x="1116.5" y="-920.8011" font-family="Helvetica,sans-Serif" font-size="14.00" fill="#000000">doc &#45; 98</text>
</g>
<!-- section_1 -->
<g id="node2" class="node">
<title>section_1</title>
<ellipse fill="none" stroke="#000000" cx="1116.5" cy="-853.0011" rx="60.9826" ry="18"/>
<text text-anchor="middle" x="1116.5" y="-848.8011" font-family="Helvetica,sans-Serif" font-size="14.00" fill="#000000">section: 1&#45;70</text>
</g>
<!-- doc_0&#45;&gt;section_1 -->
<g id="edge1" class="edge">
<title>doc_0&#45;&gt;section_1</title>
<path fill="none" stroke="#000000" stroke-dasharray="5,2" d="M1116.5,-906.8325C1116.5,-899.132 1116.5,-889.9754 1116.5,-881.4177"/>
<polygon fill="#000000" stroke="#000000" points="1120.0001,-881.4143 1116.5,-871.4144 1113.0001,-881.4144 1120.0001,-881.4143"/>
</g>
<!-- header_2 -->
<g id="node3" class="node">
<title>header_2</title>
<ellipse fill="none" stroke="#000000" cx="200.5" cy="-781.0011" rx="73.3717" ry="18"/>
<text text-anchor="middle" x="200.5" y="-776.8011" font-family="Helvetica,sans-Serif" font-size="14.00" fill="#000000">1 : Walk module</text>
</g>
<!-- section_1&#45;&gt;header_2 -->
<g id="edge2" class="edge">
<title>section_1&#45;&gt;header_2</title>
<path fill="none" stroke="#000000" stroke-dasharray="5,2" d="M1056.4891,-849.5917C928.2315,-842.1146 617.9546,-823.0111 358.5,-799.0011 331.6828,-796.5194 302.361,-793.3154 276.3374,-790.2998"/>
<polygon fill="#000000" stroke="#000000" points="276.5005,-786.7952 266.1619,-789.1111 275.6882,-793.7479 276.5005,-786.7952"/>
</g>
<!-- prose_3 -->
<g id="node4" class="node">
<title>prose_3</title>
<ellipse fill="none" stroke="#000000" cx="399.5" cy="-781.0011" rx="32.4585" ry="18"/>
<text text-anchor="middle" x="399.5" y="-776.8011" font-family="Helvetica,sans-Serif" font-size="14.00" fill="#000000">prose</text>
</g>
<!-- section_1&#45;&gt;prose_3 -->
<g id="edge3" class="edge">
<title>section_1&#45;&gt;prose_3</title>
<path fill="none" stroke="#000000" stroke-dasharray="5,2" d="M1055.9109,-850.6918C942.1619,-845.733 689.1191,-831.7451 478.5,-799.0011 465.4483,-796.972 451.3428,-794.0098 438.7124,-791.0719"/>
<polygon fill="#000000" stroke="#000000" points="439.4873,-787.6586 428.9477,-788.7394 437.8608,-794.4671 439.4873,-787.6586"/>
</g>
<!-- prose_4 -->
<g id="node5" class="node">
<title>prose_4</title>
<ellipse fill="none" stroke="#000000" cx="519.5" cy="-781.0011" rx="32.4585" ry="18"/>
<text text-anchor="middle" x="519.5" y="-776.8011" font-family="Helvetica,sans-Serif" font-size="14.00" fill="#000000">prose</text>
</g>
<!-- section_1&#45;&gt;prose_4 -->
<g id="edge4" class="edge">
<title>section_1&#45;&gt;prose_4</title>
<path fill="none" stroke="#000000" stroke-dasharray="5,2" d="M1060.0668,-846.1951C941.059,-831.8424 666.6986,-798.7537 561.5567,-786.0733"/>
<polygon fill="#000000" stroke="#000000" points="561.683,-782.5632 551.3358,-784.8406 560.8448,-789.5129 561.683,-782.5632"/>
</g>
<!-- codeblock_5 -->
<g id="node6" class="node">
<title>codeblock_5</title>
<ellipse fill="none" stroke="#000000" cx="875.5" cy="-781.0011" rx="72.5844" ry="18"/>
<text text-anchor="middle" x="875.5" y="-776.8011" font-family="Helvetica,sans-Serif" font-size="14.00" fill="#000000">code block 8&#45;31</text>
</g>
<!-- section_1&#45;&gt;codeblock_5 -->
<g id="edge5" class="edge">
<title>section_1&#45;&gt;codeblock_5</title>
<path fill="none" stroke="#000000" stroke-dasharray="5,2" d="M1073.6917,-840.2119C1034.1635,-828.4026 975.1911,-810.7843 931.8487,-797.8356"/>
<polygon fill="#000000" stroke="#000000" points="932.6048,-794.4086 922.0213,-794.8996 930.6009,-801.1157 932.6048,-794.4086"/>
</g>
<!-- codeblock_6 -->
<g id="node7" class="node">
<title>codeblock_6</title>
<ellipse fill="none" stroke="#000000" cx="1116.5" cy="-781.0011" rx="77.4211" ry="18"/>
<text text-anchor="middle" x="1116.5" y="-776.8011" font-family="Helvetica,sans-Serif" font-size="14.00" fill="#000000">code block 33&#45;39</text>
</g>
<!-- section_1&#45;&gt;codeblock_6 -->
<g id="edge6" class="edge">
<title>section_1&#45;&gt;codeblock_6</title>
<path fill="none" stroke="#000000" stroke-dasharray="5,2" d="M1116.5,-834.8325C1116.5,-827.132 1116.5,-817.9754 1116.5,-809.4177"/>
<polygon fill="#000000" stroke="#000000" points="1120.0001,-809.4143 1116.5,-799.4144 1113.0001,-809.4144 1120.0001,-809.4143"/>
</g>
<!-- codeblock_7 -->
<g id="node8" class="node">
<title>codeblock_7</title>
<ellipse fill="none" stroke="#000000" cx="1365.5" cy="-781.0011" rx="77.4211" ry="18"/>
<text text-anchor="middle" x="1365.5" y="-776.8011" font-family="Helvetica,sans-Serif" font-size="14.00" fill="#000000">code block 41&#45;50</text>
</g>
<!-- section_1&#45;&gt;codeblock_7 -->
<g id="edge7" class="edge">
<title>section_1&#45;&gt;codeblock_7</title>
<path fill="none" stroke="#000000" stroke-dasharray="5,2" d="M1160.1574,-840.3773C1200.9593,-828.5791 1262.1703,-810.8796 1307.1488,-797.8737"/>
<polygon fill="#000000" stroke="#000000" points="1308.1388,-801.2309 1316.773,-795.0908 1306.1943,-794.5064 1308.1388,-801.2309"/>
</g>
<!-- prose_8 -->
<g id="node9" class="node">
<title>prose_8</title>
<ellipse fill="none" stroke="#000000" cx="1750.5" cy="-781.0011" rx="32.4585" ry="18"/>
<text text-anchor="middle" x="1750.5" y="-776.8011" font-family="Helvetica,sans-Serif" font-size="14.00" fill="#000000">prose</text>
</g>
<!-- section_1&#45;&gt;prose_8 -->
<g id="edge8" class="edge">
<title>section_1&#45;&gt;prose_8</title>
<path fill="none" stroke="#000000" stroke-dasharray="5,2" d="M1173.3212,-846.5482C1299.0468,-832.2702 1598.3662,-798.2781 1708.7128,-785.7466"/>
<polygon fill="#000000" stroke="#000000" points="1709.2483,-789.2084 1718.7894,-784.6023 1708.4583,-782.2531 1709.2483,-789.2084"/>
</g>
<!-- codeblock_9 -->
<g id="node10" class="node">
<title>codeblock_9</title>
<ellipse fill="none" stroke="#000000" cx="2065.5" cy="-781.0011" rx="77.4211" ry="18"/>
<text text-anchor="middle" x="2065.5" y="-776.8011" font-family="Helvetica,sans-Serif" font-size="14.00" fill="#000000">code block 56&#45;69</text>
</g>
<!-- section_1&#45;&gt;codeblock_9 -->
<g id="edge9" class="edge">
<title>section_1&#45;&gt;codeblock_9</title>
<path fill="none" stroke="#000000" stroke-dasharray="5,2" d="M1175.5056,-848.5244C1338.0367,-836.1933 1792.6703,-801.7005 1981.5588,-787.3697"/>
<polygon fill="#000000" stroke="#000000" points="1982.0049,-790.846 1991.7114,-786.5994 1981.4753,-783.866 1982.0049,-790.846"/>
</g>
<!-- section_10 -->
<g id="node11" class="node">
<title>section_10</title>
<ellipse fill="none" stroke="#000000" cx="2794.5" cy="-781.0011" rx="65.8187" ry="18"/>
<text text-anchor="middle" x="2794.5" y="-776.8011" font-family="Helvetica,sans-Serif" font-size="14.00" fill="#000000">section: 71&#45;98</text>
</g>
<!-- section_1&#45;&gt;section_10 -->
<g id="edge10" class="edge">
<title>section_1&#45;&gt;section_10</title>
<path fill="none" stroke="#000000" stroke-dasharray="5,2" d="M1176.7156,-850.4173C1433.3004,-839.4077 2435.2022,-796.4179 2719.1297,-784.2351"/>
<polygon fill="#000000" stroke="#000000" points="2719.4835,-787.7232 2729.3242,-783.7977 2719.1834,-780.7297 2719.4835,-787.7232"/>
</g>
<!-- leaf_11 -->
<g id="node12" class="node">
<title>leaf_11</title>
<polygon fill="none" stroke="#c0c0c0" points="215,-570.7008 108,-570.7008 108,-534.7008 215,-534.7008 215,-570.7008"/>
<text text-anchor="middle" x="161.5" y="-549.2008" font-family="Inconsolata" font-size="14.00" fill="#000000">* Walk module</text>
</g>
<!-- header_2&#45;&gt;leaf_11 -->
<g id="edge11" class="edge">
<title>header_2&#45;&gt;leaf_11</title>
<path fill="none" stroke="#000000" stroke-dasharray="5,2" d="M197.3744,-762.7042C190.5686,-722.8642 174.3715,-628.0489 166.2765,-580.6615"/>
<polygon fill="#000000" stroke="#000000" points="169.7203,-580.0357 164.5864,-570.7679 162.8203,-581.2145 169.7203,-580.0357"/>
</g>
<!-- raw_12 -->
<g id="node13" class="node">
<title>raw_12</title>
<ellipse fill="none" stroke="#000000" cx="260.5" cy="-552.7008" rx="27" ry="18"/>
<text text-anchor="middle" x="260.5" y="-548.5008" font-family="Helvetica,sans-Serif" font-size="14.00" fill="#000000">raw</text>
</g>
<!-- prose_3&#45;&gt;raw_12 -->
<g id="edge12" class="edge">
<title>prose_3&#45;&gt;raw_12</title>
<path fill="none" stroke="#000000" stroke-dasharray="5,2" d="M370.0491,-773.1776C346.5274,-765.378 314.6055,-751.0266 296.5,-727.0011 263.9185,-683.7663 259.0719,-618.0692 259.2581,-580.907"/>
<polygon fill="#000000" stroke="#000000" points="262.7596,-580.8459 259.4385,-570.7851 255.7607,-580.7211 262.7596,-580.8459"/>
</g>
<!-- raw_14 -->
<g id="node15" class="node">
<title>raw_14</title>
<ellipse fill="none" stroke="#000000" cx="332.5" cy="-552.7008" rx="27" ry="18"/>
<text text-anchor="middle" x="332.5" y="-548.5008" font-family="Helvetica,sans-Serif" font-size="14.00" fill="#000000">raw</text>
</g>
<!-- prose_4&#45;&gt;raw_14 -->
<g id="edge14" class="edge">
<title>prose_4&#45;&gt;raw_14</title>
<path fill="none" stroke="#000000" stroke-dasharray="5,2" d="M489.5208,-773.9776C450.288,-764.1875 384.618,-745.5453 368.5,-727.0011 332.8014,-685.9287 329.1826,-618.8758 330.4003,-581.0275"/>
<polygon fill="#000000" stroke="#000000" points="333.9109,-580.8769 330.876,-570.726 326.9183,-580.5539 333.9109,-580.8769"/>
</g>
<!-- prespace_15 -->
<g id="node16" class="node">
<title>prespace_15</title>
<ellipse fill="none" stroke="#000000" cx="423.5" cy="-552.7008" rx="46.4736" ry="18"/>
<text text-anchor="middle" x="423.5" y="-548.5008" font-family="Helvetica,sans-Serif" font-size="14.00" fill="#000000">prespace</text>
</g>
<!-- prose_4&#45;&gt;prespace_15 -->
<g id="edge15" class="edge">
<title>prose_4&#45;&gt;prespace_15</title>
<path fill="none" stroke="#000000" stroke-dasharray="5,2" d="M505.002,-764.4401C496.6325,-754.2088 486.4257,-740.4944 479.5,-727.0011 454.5094,-678.3121 437.8021,-616.2667 429.541,-580.859"/>
<polygon fill="#000000" stroke="#000000" points="432.8774,-579.7459 427.2486,-570.7699 426.0514,-581.2969 432.8774,-579.7459"/>
</g>
<!-- literal_16 -->
<g id="node17" class="node">
<title>literal_16</title>
<ellipse fill="none" stroke="#000000" cx="519.5" cy="-552.7008" rx="31.481" ry="18"/>
<text text-anchor="middle" x="519.5" y="-548.5008" font-family="Helvetica,sans-Serif" font-size="14.00" fill="#000000">literal</text>
</g>
<!-- prose_4&#45;&gt;literal_16 -->
<g id="edge16" class="edge">
<title>prose_4&#45;&gt;literal_16</title>
<path fill="none" stroke="#000000" stroke-dasharray="5,2" d="M519.5,-762.7042C519.5,-722.9479 519.5,-628.447 519.5,-580.9608"/>
<polygon fill="#000000" stroke="#000000" points="523.0001,-580.7678 519.5,-570.7679 516.0001,-580.7679 523.0001,-580.7678"/>
</g>
<!-- raw_17 -->
<g id="node18" class="node">
<title>raw_17</title>
<ellipse fill="none" stroke="#000000" cx="595.5" cy="-552.7008" rx="27" ry="18"/>
<text text-anchor="middle" x="595.5" y="-548.5008" font-family="Helvetica,sans-Serif" font-size="14.00" fill="#000000">raw</text>
</g>
<!-- prose_4&#45;&gt;raw_17 -->
<g id="edge17" class="edge">
<title>prose_4&#45;&gt;raw_17</title>
<path fill="none" stroke="#000000" stroke-dasharray="5,2" d="M534.5306,-764.6956C543.0889,-754.5549 553.307,-740.8461 559.5,-727.0011 581.2244,-678.4339 590.0113,-616.3465 593.4362,-580.8982"/>
<polygon fill="#000000" stroke="#000000" points="596.9349,-581.0677 594.3354,-570.7967 589.9624,-580.447 596.9349,-581.0677"/>
</g>
<!-- leaf_22 -->
<g id="node23" class="node">
<title>leaf_22</title>
<polygon fill="none" stroke="#c0c0c0" points="964.5,-726.8016 640.5,-726.8016 640.5,-378.6 964.5,-378.6 964.5,-726.8016"/>
<text text-anchor="middle" x="802.5" y="-711.8011" font-family="Inconsolata" font-size="14.00" fill="#000000">local L = require &quot;lpeg&quot;</text>
<text text-anchor="middle" x="802.5" y="-680.4011" font-family="Inconsolata" font-size="14.00" fill="#000000">local s = require &quot;lib/status&quot;</text>
<text text-anchor="middle" x="802.5" y="-665.001" font-family="Inconsolata" font-size="14.00" fill="#000000">local u = require &quot;lib/util&quot;</text>
<text text-anchor="middle" x="802.5" y="-649.601" font-family="Inconsolata" font-size="14.00" fill="#000000">local a = require &quot;lib/ansi&quot;</text>
<text text-anchor="middle" x="802.5" y="-634.201" font-family="Inconsolata" font-size="14.00" fill="#000000">s.chatty = true</text>
<text text-anchor="middle" x="802.5" y="-602.8009" font-family="Inconsolata" font-size="14.00" fill="#000000">local pl_file = require &quot;pl.file&quot;</text>
<text text-anchor="middle" x="802.5" y="-587.4009" font-family="Inconsolata" font-size="14.00" fill="#000000">local pl_dir = require &quot;pl.dir&quot;</text>
<text text-anchor="middle" x="802.5" y="-572.0009" font-family="Inconsolata" font-size="14.00" fill="#000000">local pl_path = require &quot;pl.path&quot;</text>
<text text-anchor="middle" x="802.5" y="-556.6008" font-family="Inconsolata" font-size="14.00" fill="#000000">local getfiles = pl_dir.getfiles</text>
<text text-anchor="middle" x="802.5" y="-541.2008" font-family="Inconsolata" font-size="14.00" fill="#000000">local getdirectories = pl_dir.getdirectories</text>
<text text-anchor="middle" x="802.5" y="-525.8008" font-family="Inconsolata" font-size="14.00" fill="#000000">local makepath = pl_dir.makepath</text>
<text text-anchor="middle" x="802.5" y="-510.4007" font-family="Inconsolata" font-size="14.00" fill="#000000">local extension = pl_path.extension</text>
<text text-anchor="middle" x="802.5" y="-495.0007" font-family="Inconsolata" font-size="14.00" fill="#000000">local dirname = pl_path.dirname</text>
<text text-anchor="middle" x="802.5" y="-479.6007" font-family="Inconsolata" font-size="14.00" fill="#000000">local basename = pl_path.basename</text>
<text text-anchor="middle" x="802.5" y="-464.2007" font-family="Inconsolata" font-size="14.00" fill="#000000">local read = pl_file.read</text>
<text text-anchor="middle" x="802.5" y="-448.8006" font-family="Inconsolata" font-size="14.00" fill="#000000">local write = pl_file.write</text>
<text text-anchor="middle" x="802.5" y="-433.4006" font-family="Inconsolata" font-size="14.00" fill="#000000">local delete = pl_file.delete</text>
<text text-anchor="middle" x="802.5" y="-418.0006" font-family="Inconsolata" font-size="14.00" fill="#000000">local isdir = pl_path.isdir</text>
<text text-anchor="middle" x="802.5" y="-386.6005" font-family="Inconsolata" font-size="14.00" fill="#000000">local epeg = require &quot;epeg&quot;</text>
</g>
<!-- codeblock_5&#45;&gt;leaf_22 -->
<g id="edge22" class="edge">
<title>codeblock_5&#45;&gt;leaf_22</title>
<path fill="none" stroke="#000000" stroke-dasharray="5,2" d="M869.6495,-762.7042C867.37,-755.5753 864.5276,-746.686 861.31,-736.6233"/>
<polygon fill="#000000" stroke="#000000" points="864.6344,-735.5277 858.2549,-727.0688 857.9669,-737.6597 864.6344,-735.5277"/>
</g>
<!-- leaf_23 -->
<g id="node24" class="node">
<title>leaf_23</title>
<polygon fill="none" stroke="#c0c0c0" points="1250.5,-595.201 982.5,-595.201 982.5,-510.2006 1250.5,-510.2006 1250.5,-595.201"/>
<text text-anchor="middle" x="1116.5" y="-580.0009" font-family="Inconsolata" font-size="14.00" fill="#000000">local Walk = {}</text>
<text text-anchor="middle" x="1116.5" y="-564.6008" font-family="Inconsolata" font-size="14.00" fill="#000000">Walk.Path = require &quot;walk/path&quot;</text>
<text text-anchor="middle" x="1116.5" y="-549.2008" font-family="Inconsolata" font-size="14.00" fill="#000000">Walk.Dir &#160;= require &quot;walk/directory&quot;</text>
<text text-anchor="middle" x="1116.5" y="-533.8008" font-family="Inconsolata" font-size="14.00" fill="#000000">Walk.File = require &quot;walk/file&quot;</text>
<text text-anchor="middle" x="1116.5" y="-518.4007" font-family="Inconsolata" font-size="14.00" fill="#000000">Walk.Codex = require &quot;walk/codex&quot;</text>
</g>
<!-- codeblock_6&#45;&gt;leaf_23 -->
<g id="edge23" class="edge">
<title>codeblock_6&#45;&gt;leaf_23</title>
<path fill="none" stroke="#000000" stroke-dasharray="5,2" d="M1116.5,-762.7042C1116.5,-728.9485 1116.5,-655.7268 1116.5,-605.326"/>
<polygon fill="#000000" stroke="#000000" points="1120.0001,-605.2544 1116.5,-595.2544 1113.0001,-605.2544 1120.0001,-605.2544"/>
</g>
<!-- leaf_24 -->
<g id="node25" class="node">
<title>leaf_24</title>
<polygon fill="none" stroke="#c0c0c0" points="1614,-618.5012 1269,-618.5012 1269,-486.9004 1614,-486.9004 1614,-618.5012"/>
<text text-anchor="middle" x="1441.5" y="-603.4009" font-family="Inconsolata" font-size="14.00" fill="#000000">function Walk.strHas(substr, str)</text>
<text text-anchor="middle" x="1441.5" y="-588.0009" font-family="Inconsolata" font-size="14.00" fill="#000000"> &#160;&#160;&#160;return L.match(epeg.anyP(substr), str)</text>
<text text-anchor="middle" x="1441.5" y="-572.6008" font-family="Inconsolata" font-size="14.00" fill="#000000">end</text>
<text text-anchor="middle" x="1441.5" y="-541.2008" font-family="Inconsolata" font-size="14.00" fill="#000000">function Walk.endsWith(substr, str)</text>
<text text-anchor="middle" x="1441.5" y="-525.8008" font-family="Inconsolata" font-size="14.00" fill="#000000"> &#160;&#160;&#160;return L.match(L.P(string.reverse(substr)),</text>
<text text-anchor="middle" x="1441.5" y="-510.4007" font-family="Inconsolata" font-size="14.00" fill="#000000"> &#160;&#160;&#160;&#160;&#160;&#160;&#160;string.reverse(str))</text>
<text text-anchor="middle" x="1441.5" y="-495.0007" font-family="Inconsolata" font-size="14.00" fill="#000000">end</text>
</g>
<!-- codeblock_7&#45;&gt;leaf_24 -->
<g id="edge24" class="edge">
<title>codeblock_7&#45;&gt;leaf_24</title>
<path fill="none" stroke="#000000" stroke-dasharray="5,2" d="M1371.5909,-762.7042C1381.2133,-733.7991 1400.4693,-675.9551 1416.3395,-628.2818"/>
<polygon fill="#000000" stroke="#000000" points="1419.7293,-629.1799 1419.5671,-618.5863 1413.0876,-626.9689 1419.7293,-629.1799"/>
</g>
<!-- raw_25 -->
<g id="node26" class="node">
<title>raw_25</title>
<ellipse fill="none" stroke="#000000" cx="1659.5" cy="-552.7008" rx="27" ry="18"/>
<text text-anchor="middle" x="1659.5" y="-548.5008" font-family="Helvetica,sans-Serif" font-size="14.00" fill="#000000">raw</text>
</g>
<!-- prose_8&#45;&gt;raw_25 -->
<g id="edge25" class="edge">
<title>prose_8&#45;&gt;raw_25</title>
<path fill="none" stroke="#000000" stroke-dasharray="5,2" d="M1730.78,-766.6249C1718.7499,-756.8021 1704.0829,-742.7448 1695.5,-727.0011 1669.9663,-680.1645 1662.499,-617.2298 1660.3434,-581.21"/>
<polygon fill="#000000" stroke="#000000" points="1663.8252,-580.7562 1659.8308,-570.9432 1656.8339,-581.1053 1663.8252,-580.7562"/>
</g>
<!-- prespace_26 -->
<g id="node27" class="node">
<title>prespace_26</title>
<ellipse fill="none" stroke="#000000" cx="1750.5" cy="-552.7008" rx="46.4736" ry="18"/>
<text text-anchor="middle" x="1750.5" y="-548.5008" font-family="Helvetica,sans-Serif" font-size="14.00" fill="#000000">prespace</text>
</g>
<!-- prose_8&#45;&gt;prespace_26 -->
<g id="edge26" class="edge">
<title>prose_8&#45;&gt;prespace_26</title>
<path fill="none" stroke="#000000" stroke-dasharray="5,2" d="M1750.5,-762.7042C1750.5,-722.9479 1750.5,-628.447 1750.5,-580.9608"/>
<polygon fill="#000000" stroke="#000000" points="1754.0001,-580.7678 1750.5,-570.7679 1747.0001,-580.7679 1754.0001,-580.7678"/>
</g>
<!-- literal_27 -->
<g id="node28" class="node">
<title>literal_27</title>
<ellipse fill="none" stroke="#000000" cx="1846.5" cy="-552.7008" rx="31.481" ry="18"/>
<text text-anchor="middle" x="1846.5" y="-548.5008" font-family="Helvetica,sans-Serif" font-size="14.00" fill="#000000">literal</text>
</g>
<!-- prose_8&#45;&gt;literal_27 -->
<g id="edge27" class="edge">
<title>prose_8&#45;&gt;literal_27</title>
<path fill="none" stroke="#000000" stroke-dasharray="5,2" d="M1770.0738,-766.5439C1782.0457,-756.6889 1796.7026,-742.626 1805.5,-727.0011 1831.8995,-680.1137 1841.3433,-616.9461 1844.6913,-580.9497"/>
<polygon fill="#000000" stroke="#000000" points="1848.2029,-580.9552 1845.5466,-570.6988 1841.2271,-580.3731 1848.2029,-580.9552"/>
</g>
<!-- raw_28 -->
<g id="node29" class="node">
<title>raw_28</title>
<ellipse fill="none" stroke="#000000" cx="1922.5" cy="-552.7008" rx="27" ry="18"/>
<text text-anchor="middle" x="1922.5" y="-548.5008" font-family="Helvetica,sans-Serif" font-size="14.00" fill="#000000">raw</text>
</g>
<!-- prose_8&#45;&gt;raw_28 -->
<g id="edge28" class="edge">
<title>prose_8&#45;&gt;raw_28</title>
<path fill="none" stroke="#000000" stroke-dasharray="5,2" d="M1782.2145,-777.1022C1813.4854,-771.5284 1860.2873,-758.2325 1886.5,-727.0011 1921.3939,-685.4263 1925.3513,-618.8402 1924.3986,-581.1417"/>
<polygon fill="#000000" stroke="#000000" points="1927.8853,-580.7299 1923.9979,-570.8741 1920.8906,-581.0029 1927.8853,-580.7299"/>
</g>
<!-- leaf_33 -->
<g id="node34" class="node">
<title>leaf_33</title>
<polygon fill="none" stroke="#c0c0c0" points="2537,-649.0013 1968,-649.0013 1968,-456.4003 2537,-456.4003 2537,-649.0013"/>
<text text-anchor="middle" x="2252.5" y="-633.901" font-family="Inconsolata" font-size="14.00" fill="#000000">function Walk.subLastFor(match, swap, str)</text>
<text text-anchor="middle" x="2252.5" y="-618.501" font-family="Inconsolata" font-size="14.00" fill="#000000"> &#160;&#160;&#160;local trs, hctam = string.reverse(str), string.reverse(match)</text>
<text text-anchor="middle" x="2252.5" y="-603.1009" font-family="Inconsolata" font-size="14.00" fill="#000000"> &#160;&#160;&#160;local first, last = Walk.strHas(hctam, trs)</text>
<text text-anchor="middle" x="2252.5" y="-587.7009" font-family="Inconsolata" font-size="14.00" fill="#000000"> &#160;&#160;&#160;if last then</text>
<text text-anchor="middle" x="2252.5" y="-572.3009" font-family="Inconsolata" font-size="14.00" fill="#000000"> &#160;&#160;&#160;&#160;&#160;&#160;&#160;&#45;&#45; There is some way to do this without reversing the string twice,</text>
<text text-anchor="middle" x="2252.5" y="-556.9008" font-family="Inconsolata" font-size="14.00" fill="#000000"> &#160;&#160;&#160;&#160;&#160;&#160;&#160;&#45;&#45; but I can&#39;t be arsed to find it. ONE BASED INDEXES ARE A MISTAKE</text>
<text text-anchor="middle" x="2252.5" y="-541.5008" font-family="Inconsolata" font-size="14.00" fill="#000000"> &#160;&#160;&#160;&#160;&#160;&#160;&#160;return string.reverse(trs:sub(1, first &#45; 1)</text>
<text text-anchor="middle" x="2252.5" y="-526.1008" font-family="Inconsolata" font-size="14.00" fill="#000000"> &#160;&#160;&#160;&#160;&#160;&#160;&#160;&#160;&#160;&#160;&#160;.. string.reverse(swap) .. trs:sub(last, &#45;1))</text>
<text text-anchor="middle" x="2252.5" y="-510.7007" font-family="Inconsolata" font-size="14.00" fill="#000000"> &#160;&#160;&#160;else</text>
<text text-anchor="middle" x="2252.5" y="-495.3007" font-family="Inconsolata" font-size="14.00" fill="#000000"> &#160;&#160;&#160;&#160;&#160;&#160;&#160;s:halt(&quot;didn&#39;t find an instance of &quot; .. match .. &quot; in string: &quot; .. str)</text>
<text text-anchor="middle" x="2252.5" y="-479.9007" font-family="Inconsolata" font-size="14.00" fill="#000000"> &#160;&#160;&#160;end</text>
<text text-anchor="middle" x="2252.5" y="-464.5006" font-family="Inconsolata" font-size="14.00" fill="#000000">end</text>
</g>
<!-- codeblock_9&#45;&gt;leaf_33 -->
<g id="edge33" class="edge">
<title>codeblock_9&#45;&gt;leaf_33</title>
<path fill="none" stroke="#000000" stroke-dasharray="5,2" d="M2080.1736,-763.0868C2099.1821,-739.88 2133.8383,-697.5698 2167.1136,-656.9454"/>
<polygon fill="#000000" stroke="#000000" points="2169.8965,-659.0714 2173.5255,-649.1174 2164.4812,-654.6357 2169.8965,-659.0714"/>
</g>
<!-- header_34 -->
<g id="node35" class="node">
<title>header_34</title>
<ellipse fill="none" stroke="#000000" cx="2649.5" cy="-552.7008" rx="94.8539" ry="18"/>
<text text-anchor="middle" x="2649.5" y="-548.5008" font-family="Helvetica,sans-Serif" font-size="14.00" fill="#000000">3 : Update on change</text>
</g>
<!-- section_10&#45;&gt;header_34 -->
<g id="edge34" class="edge">
<title>section_10&#45;&gt;header_34</title>
<path fill="none" stroke="#000000" stroke-dasharray="5,2" d="M2780.3215,-763.3677C2772.1787,-752.9898 2761.9287,-739.4898 2753.5,-727.0011 2719.3547,-676.4084 2683.8035,-614.4825 2664.3811,-579.722"/>
<polygon fill="#000000" stroke="#000000" points="2667.2654,-577.7073 2659.3452,-570.6701 2661.1483,-581.1104 2667.2654,-577.7073"/>
</g>
<!-- prose_35 -->
<g id="node36" class="node">
<title>prose_35</title>
<ellipse fill="none" stroke="#000000" cx="2794.5" cy="-552.7008" rx="32.4585" ry="18"/>
<text text-anchor="middle" x="2794.5" y="-548.5008" font-family="Helvetica,sans-Serif" font-size="14.00" fill="#000000">prose</text>
</g>
<!-- section_10&#45;&gt;prose_35 -->
<g id="edge35" class="edge">
<title>section_10&#45;&gt;prose_35</title>
<path fill="none" stroke="#000000" stroke-dasharray="5,2" d="M2794.5,-762.7042C2794.5,-722.9479 2794.5,-628.447 2794.5,-580.9608"/>
<polygon fill="#000000" stroke="#000000" points="2798.0001,-580.7678 2794.5,-570.7679 2791.0001,-580.7679 2798.0001,-580.7678"/>
</g>
<!-- codeblock_36 -->
<g id="node37" class="node">
<title>codeblock_36</title>
<ellipse fill="none" stroke="#000000" cx="2985.5" cy="-552.7008" rx="77.4211" ry="18"/>
<text text-anchor="middle" x="2985.5" y="-548.5008" font-family="Helvetica,sans-Serif" font-size="14.00" fill="#000000">code block 73&#45;91</text>
</g>
<!-- section_10&#45;&gt;codeblock_36 -->
<g id="edge36" class="edge">
<title>section_10&#45;&gt;codeblock_36</title>
<path fill="none" stroke="#000000" stroke-dasharray="5,2" d="M2809.4874,-763.0868C2843.1697,-722.8267 2924.9537,-625.0711 2964.0259,-578.3686"/>
<polygon fill="#000000" stroke="#000000" points="2966.8499,-580.4476 2970.5822,-570.5319 2961.481,-575.9559 2966.8499,-580.4476"/>
</g>
<!-- codeblock_37 -->
<g id="node38" class="node">
<title>codeblock_37</title>
<ellipse fill="none" stroke="#000000" cx="3252.5" cy="-552.7008" rx="77.4211" ry="18"/>
<text text-anchor="middle" x="3252.5" y="-548.5008" font-family="Helvetica,sans-Serif" font-size="14.00" fill="#000000">code block 95&#45;97</text>
</g>
<!-- section_10&#45;&gt;codeblock_37 -->
<g id="edge37" class="edge">
<title>section_10&#45;&gt;codeblock_37</title>
<path fill="none" stroke="#000000" stroke-dasharray="5,2" d="M2854.1546,-773.4029C2923.8759,-763.8265 3034.4424,-746.2719 3071.5,-727.0011 3141.8469,-690.4191 3203.5405,-617.9229 3233.4086,-578.9487"/>
<polygon fill="#000000" stroke="#000000" points="3236.396,-580.8006 3239.6293,-570.7111 3230.8099,-576.5821 3236.396,-580.8006"/>
</g>
<!-- leaf_13 -->
<g id="node14" class="node">
<title>leaf_13</title>
<polygon fill="none" stroke="#c0c0c0" points="247,-235.1017 0,-235.1017 0,-179.2988 247,-179.2988 247,-235.1017"/>
<text text-anchor="middle" x="123.5" y="-187.7003" font-family="Inconsolata" font-size="14.00" fill="#000000">Contains our filesystem paradigm.</text>
</g>
<!-- raw_12&#45;&gt;leaf_13 -->
<g id="edge13" class="edge">
<title>raw_12&#45;&gt;leaf_13</title>
<path fill="none" stroke="#000000" stroke-dasharray="5,2" d="M258.5863,-534.5954C254.7564,-502.3144 244.639,-433.0778 223.5,-378.4005 204.4148,-329.0354 172.1807,-277.2096 149.4778,-243.6875"/>
<polygon fill="#000000" stroke="#000000" points="152.173,-241.4286 143.636,-235.1541 146.3968,-245.3829 152.173,-241.4286"/>
</g>
<!-- leaf_18 -->
<g id="node19" class="node">
<title>leaf_18</title>
<polygon fill="none" stroke="#c0c0c0" points="400,-227.1023 265,-227.1023 265,-187.2982 400,-187.2982 400,-227.1023"/>
<text text-anchor="middle" x="332.5" y="-195.7003" font-family="Inconsolata" font-size="14.00" fill="#000000">This will move to</text>
</g>
<!-- raw_14&#45;&gt;leaf_18 -->
<g id="edge18" class="edge">
<title>raw_14&#45;&gt;leaf_18</title>
<path fill="none" stroke="#000000" stroke-dasharray="5,2" d="M332.5,-534.6116C332.5,-478.5985 332.5,-307.5879 332.5,-237.5733"/>
<polygon fill="#000000" stroke="#000000" points="336.0001,-237.2365 332.5,-227.2366 329.0001,-237.2366 336.0001,-237.2365"/>
</g>
<!-- leaf_19 -->
<g id="node20" class="node">
<title>leaf_19</title>
<polygon fill="none" stroke="#c0c0c0" points="472.5,-225.2002 418.5,-225.2002 418.5,-189.2002 472.5,-189.2002 472.5,-225.2002"/>
<text text-anchor="middle" x="445.5" y="-203.7003" font-family="Inconsolata" font-size="14.00" fill="#000000"> </text>
</g>
<!-- prespace_15&#45;&gt;leaf_19 -->
<g id="edge19" class="edge">
<title>prespace_15&#45;&gt;leaf_19</title>
<path fill="none" stroke="#000000" stroke-dasharray="5,2" d="M424.6518,-534.6116C428.2521,-478.0714 439.3134,-304.3587 443.6901,-235.6234"/>
<polygon fill="#000000" stroke="#000000" points="447.1904,-235.7294 444.333,-225.5272 440.2045,-235.2845 447.1904,-235.7294"/>
</g>
<!-- leaf_20 -->
<g id="node21" class="node">
<title>leaf_20</title>
<polygon fill="none" stroke="#c0c0c0" points="548.5,-225.2002 490.5,-225.2002 490.5,-189.2002 548.5,-189.2002 548.5,-225.2002"/>
<text text-anchor="middle" x="519.5" y="-203.7003" font-family="Inconsolata" font-size="14.00" fill="#000000">bridge</text>
</g>
<!-- literal_16&#45;&gt;leaf_20 -->
<g id="edge20" class="edge">
<title>literal_16&#45;&gt;leaf_20</title>
<path fill="none" stroke="#000000" stroke-dasharray="5,2" d="M519.5,-534.6116C519.5,-478.0714 519.5,-304.3587 519.5,-235.6234"/>
<polygon fill="#000000" stroke="#000000" points="523.0001,-235.5271 519.5,-225.5272 516.0001,-235.5272 523.0001,-235.5271"/>
</g>
<!-- leaf_21 -->
<g id="node22" class="node">
<title>leaf_21</title>
<polygon fill="none" stroke="#c0c0c0" points="1066,-226.5008 567,-226.5008 567,-187.8997 1066,-187.8997 1066,-226.5008"/>
<text text-anchor="middle" x="816.5" y="-211.4003" font-family="Inconsolata" font-size="14.00" fill="#000000"> relatively soon, where we can work out the ways</text>
<text text-anchor="middle" x="816.5" y="-196.0002" font-family="Inconsolata" font-size="14.00" fill="#000000">that bridgetools interact with codex and non&#45;codex directory systems.</text>
</g>
<!-- raw_17&#45;&gt;leaf_21 -->
<g id="edge21" class="edge">
<title>raw_17&#45;&gt;leaf_21</title>
<path fill="none" stroke="#000000" stroke-dasharray="5,2" d="M595.673,-534.6364C596.728,-501.5245 602.4885,-429.7949 631.5,-378.4005 667.2221,-315.1182 734.4435,-261.8982 777.268,-232.3137"/>
<polygon fill="#000000" stroke="#000000" points="779.4545,-235.0593 785.7533,-226.5401 775.5167,-229.2719 779.4545,-235.0593"/>
</g>
<!-- leaf_29 -->
<g id="node30" class="node">
<title>leaf_29</title>
<polygon fill="none" stroke="#c0c0c0" points="1711.5,-234.5007 1275.5,-234.5007 1275.5,-179.8998 1711.5,-179.8998 1711.5,-234.5007"/>
<text text-anchor="middle" x="1493.5" y="-203.4003" font-family="Inconsolata" font-size="14.00" fill="#000000">Finds the last match for a literal substring and replaces it</text>
<text text-anchor="middle" x="1493.5" y="-188.0002" font-family="Inconsolata" font-size="14.00" fill="#000000">with</text>
</g>
<!-- raw_25&#45;&gt;leaf_29 -->
<g id="edge29" class="edge">
<title>raw_25&#45;&gt;leaf_29</title>
<path fill="none" stroke="#000000" stroke-dasharray="5,2" d="M1658.2488,-534.5842C1655.4449,-501.992 1646.866,-431.8881 1622.5,-378.4005 1598.719,-326.1972 1556.8074,-274.7909 1527.2204,-242.148"/>
<polygon fill="#000000" stroke="#000000" points="1529.6974,-239.6706 1520.3579,-234.6682 1524.5394,-244.4029 1529.6974,-239.6706"/>
</g>
<!-- leaf_30 -->
<g id="node31" class="node">
<title>leaf_30</title>
<polygon fill="none" stroke="#c0c0c0" points="1783.5,-225.2002 1729.5,-225.2002 1729.5,-189.2002 1783.5,-189.2002 1783.5,-225.2002"/>
<text text-anchor="middle" x="1756.5" y="-203.7003" font-family="Inconsolata" font-size="14.00" fill="#000000"> </text>
</g>
<!-- prespace_26&#45;&gt;leaf_30 -->
<g id="edge30" class="edge">
<title>prespace_26&#45;&gt;leaf_30</title>
<path fill="none" stroke="#000000" stroke-dasharray="5,2" d="M1750.8141,-534.6116C1751.796,-478.0714 1754.8127,-304.3587 1756.0064,-235.6234"/>
<polygon fill="#000000" stroke="#000000" points="1759.5075,-235.5865 1756.1817,-225.5272 1752.5085,-235.4649 1759.5075,-235.5865"/>
</g>
<!-- leaf_31 -->
<g id="node32" class="node">
<title>leaf_31</title>
<polygon fill="none" stroke="#c0c0c0" points="1861.5,-225.2002 1807.5,-225.2002 1807.5,-189.2002 1861.5,-189.2002 1861.5,-225.2002"/>
<text text-anchor="middle" x="1834.5" y="-203.7003" font-family="Inconsolata" font-size="14.00" fill="#000000">swap</text>
</g>
<!-- literal_27&#45;&gt;leaf_31 -->
<g id="edge31" class="edge">
<title>literal_27&#45;&gt;leaf_31</title>
<path fill="none" stroke="#000000" stroke-dasharray="5,2" d="M1845.8717,-534.6116C1843.908,-478.0714 1837.8745,-304.3587 1835.4872,-235.6234"/>
<polygon fill="#000000" stroke="#000000" points="1838.9816,-235.3996 1835.1365,-225.5272 1831.9859,-235.6427 1838.9816,-235.3996"/>
</g>
<!-- leaf_32 -->
<g id="node33" class="node">
<title>leaf_32</title>
<polygon fill="none" stroke="#c0c0c0" points="2085,-225.2002 1880,-225.2002 1880,-189.2002 2085,-189.2002 2085,-225.2002"/>
<text text-anchor="middle" x="1982.5" y="-203.7003" font-family="Inconsolata" font-size="14.00" fill="#000000">, returning the new string.</text>
</g>
<!-- raw_28&#45;&gt;leaf_32 -->
<g id="edge32" class="edge">
<title>raw_28&#45;&gt;leaf_32</title>
<path fill="none" stroke="#000000" stroke-dasharray="5,2" d="M1925.6414,-534.6116C1935.4602,-478.0714 1965.6274,-304.3587 1977.564,-235.6234"/>
<polygon fill="#000000" stroke="#000000" points="1981.0546,-235.9786 1979.3173,-225.5272 1974.1579,-234.7808 1981.0546,-235.9786"/>
</g>
<!-- leaf_38 -->
<g id="node39" class="node">
<title>leaf_38</title>
<polygon fill="none" stroke="#c0c0c0" points="2695.5,-225.2002 2539.5,-225.2002 2539.5,-189.2002 2695.5,-189.2002 2695.5,-225.2002"/>
<text text-anchor="middle" x="2617.5" y="-203.7003" font-family="Inconsolata" font-size="14.00" fill="#000000">*** Update on change</text>
</g>
<!-- header_34&#45;&gt;leaf_38 -->
<g id="edge38" class="edge">
<title>header_34&#45;&gt;leaf_38</title>
<path fill="none" stroke="#000000" stroke-dasharray="5,2" d="M2647.8246,-534.6116C2642.5879,-478.0714 2626.4987,-304.3587 2620.1325,-235.6234"/>
<polygon fill="#000000" stroke="#000000" points="2623.6048,-235.1617 2619.1974,-225.5272 2616.6347,-235.8074 2623.6048,-235.1617"/>
</g>
<!-- raw_39 -->
<g id="node40" class="node">
<title>raw_39</title>
<ellipse fill="none" stroke="#000000" cx="2740.5" cy="-207.2002" rx="27" ry="18"/>
<text text-anchor="middle" x="2740.5" y="-203.0002" font-family="Helvetica,sans-Serif" font-size="14.00" fill="#000000">raw</text>
</g>
<!-- prose_35&#45;&gt;raw_39 -->
<g id="edge39" class="edge">
<title>prose_35&#45;&gt;raw_39</title>
<path fill="none" stroke="#000000" stroke-dasharray="5,2" d="M2791.6728,-534.6116C2782.8152,-477.9396 2755.5587,-303.5483 2744.8675,-235.1445"/>
<polygon fill="#000000" stroke="#000000" points="2748.3016,-234.4499 2743.2993,-225.1103 2741.3855,-235.5309 2748.3016,-234.4499"/>
</g>
<!-- leaf_41 -->
<g id="node42" class="node">
<title>leaf_41</title>
<polygon fill="none" stroke="#c0c0c0" points="3249.5,-342.601 2785.5,-342.601 2785.5,-71.7995 3249.5,-71.7995 3249.5,-342.601"/>
<text text-anchor="middle" x="3017.5" y="-327.2005" font-family="Inconsolata" font-size="14.00" fill="#000000">function Walk.writeOnChange(newest, current, out_file, depth)</text>
<text text-anchor="middle" x="3017.5" y="-311.8005" font-family="Inconsolata" font-size="14.00" fill="#000000"> &#160;&#160;&#160;&#45;&#45; If the text has changed, write it</text>
<text text-anchor="middle" x="3017.5" y="-296.4004" font-family="Inconsolata" font-size="14.00" fill="#000000"> &#160;&#160;&#160;if newest ~= current then</text>
<text text-anchor="middle" x="3017.5" y="-281.0004" font-family="Inconsolata" font-size="14.00" fill="#000000"> &#160;&#160;&#160;&#160;&#160;&#160;&#160;s:chat(a.green((&quot; &#160;&quot;):rep(depth) .. &quot; &#160;&#45; &quot; .. out_file))</text>
<text text-anchor="middle" x="3017.5" y="-265.6004" font-family="Inconsolata" font-size="14.00" fill="#000000"> &#160;&#160;&#160;&#160;&#160;&#160;&#160;write(out_file, newest)</text>
<text text-anchor="middle" x="3017.5" y="-250.2003" font-family="Inconsolata" font-size="14.00" fill="#000000"> &#160;&#160;&#160;&#160;&#160;&#160;&#160;return true</text>
<text text-anchor="middle" x="3017.5" y="-234.8003" font-family="Inconsolata" font-size="14.00" fill="#000000"> &#160;&#160;&#160;&#45;&#45; If the new text is blank, delete the old file</text>
<text text-anchor="middle" x="3017.5" y="-219.4003" font-family="Inconsolata" font-size="14.00" fill="#000000"> &#160;&#160;&#160;elseif current ~= &quot;&quot; and newest == &quot;&quot; then</text>
<text text-anchor="middle" x="3017.5" y="-204.0002" font-family="Inconsolata" font-size="14.00" fill="#000000"> &#160;&#160;&#160;&#160;&#160;&#160;&#160;s:chat(a.red((&quot; &#160;&quot;):rep(depth) .. &quot; &#160;&#45; &quot; .. out_file))</text>
<text text-anchor="middle" x="3017.5" y="-188.6002" font-family="Inconsolata" font-size="14.00" fill="#000000"> &#160;&#160;&#160;&#160;&#160;&#160;&#160;delete(out_file)</text>
<text text-anchor="middle" x="3017.5" y="-173.2002" font-family="Inconsolata" font-size="14.00" fill="#000000"> &#160;&#160;&#160;&#160;&#160;&#160;&#160;return false</text>
<text text-anchor="middle" x="3017.5" y="-157.8002" font-family="Inconsolata" font-size="14.00" fill="#000000"> &#160;&#160;&#160;else</text>
<text text-anchor="middle" x="3017.5" y="-142.4001" font-family="Inconsolata" font-size="14.00" fill="#000000"> &#160;&#160;&#160;&#45;&#45; Otherwise do nothing</text>
<text text-anchor="middle" x="3017.5" y="-111.0001" font-family="Inconsolata" font-size="14.00" fill="#000000"> &#160;&#160;&#160;&#160;&#160;&#160;&#160;return nil</text>
<text text-anchor="middle" x="3017.5" y="-95.6001" font-family="Inconsolata" font-size="14.00" fill="#000000"> &#160;&#160;&#160;end</text>
<text text-anchor="middle" x="3017.5" y="-80.2" font-family="Inconsolata" font-size="14.00" fill="#000000">end</text>
</g>
<!-- codeblock_36&#45;&gt;leaf_41 -->
<g id="edge41" class="edge">
<title>codeblock_36&#45;&gt;leaf_41</title>
<path fill="none" stroke="#000000" stroke-dasharray="5,2" d="M2987.1754,-534.6116C2990.3377,-500.4685 2997.4575,-423.5968 3004.0039,-352.9165"/>
<polygon fill="#000000" stroke="#000000" points="3007.5278,-352.8191 3004.965,-342.5389 3000.5576,-352.1735 3007.5278,-352.8191"/>
</g>
<!-- leaf_42 -->
<g id="node43" class="node">
<title>leaf_42</title>
<polygon fill="none" stroke="#c0c0c0" points="3361,-225.2002 3268,-225.2002 3268,-189.2002 3361,-189.2002 3361,-225.2002"/>
<text text-anchor="middle" x="3314.5" y="-203.7003" font-family="Inconsolata" font-size="14.00" fill="#000000">return Walk</text>
</g>
<!-- codeblock_37&#45;&gt;leaf_42 -->
<g id="edge42" class="edge">
<title>codeblock_37&#45;&gt;leaf_42</title>
<path fill="none" stroke="#000000" stroke-dasharray="5,2" d="M3255.7461,-534.6116C3265.8922,-478.0714 3297.0649,-304.3587 3309.3995,-235.6234"/>
<polygon fill="#000000" stroke="#000000" points="3312.8898,-235.9882 3311.2112,-225.5272 3305.9999,-234.7517 3312.8898,-235.9882"/>
</g>
<!-- leaf_40 -->
<g id="node41" class="node">
<title>leaf_40</title>
<polygon fill="none" stroke="#c0c0c0" points="2767.5,-36 2713.5,-36 2713.5,0 2767.5,0 2767.5,-36"/>
</g>
<!-- raw_39&#45;&gt;leaf_40 -->
<g id="edge40" class="edge">
<title>raw_39&#45;&gt;leaf_40</title>
<path fill="none" stroke="#000000" stroke-dasharray="5,2" d="M2740.5,-189.0589C2740.5,-156.0029 2740.5,-85.7449 2740.5,-46.3292"/>
<polygon fill="#000000" stroke="#000000" points="2744.0001,-46.0864 2740.5,-36.0864 2737.0001,-46.0864 2744.0001,-46.0864"/>
</g>
</g>
</svg>