<?xml version="1.0" encoding="UTF-8" standalone="no"?>
<!DOCTYPE svg PUBLIC "-//W3C//DTD SVG 1.1//EN"
 "http://www.w3.org/Graphics/SVG/1.1/DTD/svg11.dtd">
<!-- Generated by graphviz version 2.40.1 (20161225.0304)
 -->
<!-- Title: lpegNode Pages: 1 -->
<svg width="3103pt" height="633pt"
 viewBox="0.00 0.00 3103.00 633.20" xmlns="http://www.w3.org/2000/svg" xmlns:xlink="http://www.w3.org/1999/xlink">
<g id="graph0" class="graph" transform="scale(1 1) rotate(0) translate(4 629.2006)">
<title>lpegNode</title>
<polygon fill="#ffffff" stroke="transparent" points="-4,4 -4,-629.2006 3099,-629.2006 3099,4 -4,4"/>
<!-- doc_0 -->
<g id="node1" class="node">
<title>doc_0</title>
<ellipse fill="none" stroke="#000000" cx="1369.5" cy="-607.2006" rx="42.1216" ry="18"/>
<text text-anchor="middle" x="1369.5" y="-603.0006" font-family="Helvetica,sans-Serif" font-size="14.00" fill="#000000">doc &#45; 97</text>
</g>
<!-- section_1 -->
<g id="node2" class="node">
<title>section_1</title>
<ellipse fill="none" stroke="#000000" cx="1369.5" cy="-535.2006" rx="60.9826" ry="18"/>
<text text-anchor="middle" x="1369.5" y="-531.0006" font-family="Helvetica,sans-Serif" font-size="14.00" fill="#000000">section: 1&#45;97</text>
</g>
<!-- doc_0&#45;&gt;section_1 -->
<g id="edge1" class="edge">
<title>doc_0&#45;&gt;section_1</title>
<path fill="none" stroke="#000000" stroke-dasharray="5,2" d="M1369.5,-589.0319C1369.5,-581.3315 1369.5,-572.1749 1369.5,-563.6172"/>
<polygon fill="#000000" stroke="#000000" points="1373.0001,-563.6138 1369.5,-553.6138 1366.0001,-563.6139 1373.0001,-563.6138"/>
</g>
<!-- header_2 -->
<g id="node3" class="node">
<title>header_2</title>
<ellipse fill="none" stroke="#000000" cx="200.5" cy="-463.2006" rx="73.3717" ry="18"/>
<text text-anchor="middle" x="200.5" y="-459.0006" font-family="Helvetica,sans-Serif" font-size="14.00" fill="#000000">1 : Walk module</text>
</g>
<!-- section_1&#45;&gt;header_2 -->
<g id="edge2" class="edge">
<title>section_1&#45;&gt;header_2</title>
<path fill="none" stroke="#000000" stroke-dasharray="5,2" d="M1309.0177,-533.2383C1151.9838,-527.8684 718.454,-511.2899 358.5,-481.2006 331.5404,-478.9469 302.0696,-475.7812 275.9602,-472.7319"/>
<polygon fill="#000000" stroke="#000000" points="276.0958,-469.2236 265.7542,-471.5261 275.2744,-476.1753 276.0958,-469.2236"/>
</g>
<!-- prose_3 -->
<g id="node4" class="node">
<title>prose_3</title>
<ellipse fill="none" stroke="#000000" cx="399.5" cy="-463.2006" rx="32.4585" ry="18"/>
<text text-anchor="middle" x="399.5" y="-459.0006" font-family="Helvetica,sans-Serif" font-size="14.00" fill="#000000">prose</text>
</g>
<!-- section_1&#45;&gt;prose_3 -->
<g id="edge3" class="edge">
<title>section_1&#45;&gt;prose_3</title>
<path fill="none" stroke="#000000" stroke-dasharray="5,2" d="M1309.1361,-532.8315C1135.9517,-525.8298 639.5757,-504.274 478.5,-481.2006 465.3151,-479.3119 451.076,-476.3578 438.3663,-473.3849"/>
<polygon fill="#000000" stroke="#000000" points="439.0926,-469.9598 428.5506,-471.0166 437.4508,-476.7645 439.0926,-469.9598"/>
</g>
<!-- prose_4 -->
<g id="node5" class="node">
<title>prose_4</title>
<ellipse fill="none" stroke="#000000" cx="519.5" cy="-463.2006" rx="32.4585" ry="18"/>
<text text-anchor="middle" x="519.5" y="-459.0006" font-family="Helvetica,sans-Serif" font-size="14.00" fill="#000000">prose</text>
</g>
<!-- section_1&#45;&gt;prose_4 -->
<g id="edge4" class="edge">
<title>section_1&#45;&gt;prose_4</title>
<path fill="none" stroke="#000000" stroke-dasharray="5,2" d="M1311.0761,-530.2517C1149.8672,-516.5964 701.4985,-478.6169 561.6898,-466.7743"/>
<polygon fill="#000000" stroke="#000000" points="561.6614,-463.2594 551.4017,-465.9028 561.0706,-470.2345 561.6614,-463.2594"/>
</g>
<!-- codeblock_5 -->
<g id="node6" class="node">
<title>codeblock_5</title>
<ellipse fill="none" stroke="#000000" cx="947.5" cy="-463.2006" rx="72.5844" ry="18"/>
<text text-anchor="middle" x="947.5" y="-459.0006" font-family="Helvetica,sans-Serif" font-size="14.00" fill="#000000">code block 8&#45;29</text>
</g>
<!-- section_1&#45;&gt;codeblock_5 -->
<g id="edge5" class="edge">
<title>section_1&#45;&gt;codeblock_5</title>
<path fill="none" stroke="#000000" stroke-dasharray="5,2" d="M1316.4807,-526.1546C1240.752,-513.2341 1101.497,-489.4749 1017.4134,-475.1289"/>
<polygon fill="#000000" stroke="#000000" points="1017.887,-471.6592 1007.4407,-473.4274 1016.7096,-478.5595 1017.887,-471.6592"/>
</g>
<!-- codeblock_6 -->
<g id="node7" class="node">
<title>codeblock_6</title>
<ellipse fill="none" stroke="#000000" cx="1202.5" cy="-463.2006" rx="77.4211" ry="18"/>
<text text-anchor="middle" x="1202.5" y="-459.0006" font-family="Helvetica,sans-Serif" font-size="14.00" fill="#000000">code block 31&#45;38</text>
</g>
<!-- section_1&#45;&gt;codeblock_6 -->
<g id="edge6" class="edge">
<title>section_1&#45;&gt;codeblock_6</title>
<path fill="none" stroke="#000000" stroke-dasharray="5,2" d="M1334.8975,-520.2821C1309.9427,-509.5232 1275.9914,-494.8855 1248.7178,-483.1268"/>
<polygon fill="#000000" stroke="#000000" points="1249.9436,-479.8439 1239.375,-479.0988 1247.1722,-486.2719 1249.9436,-479.8439"/>
</g>
<!-- codeblock_7 -->
<g id="node8" class="node">
<title>codeblock_7</title>
<ellipse fill="none" stroke="#000000" cx="1416.5" cy="-463.2006" rx="77.4211" ry="18"/>
<text text-anchor="middle" x="1416.5" y="-459.0006" font-family="Helvetica,sans-Serif" font-size="14.00" fill="#000000">code block 40&#45;49</text>
</g>
<!-- section_1&#45;&gt;codeblock_7 -->
<g id="edge7" class="edge">
<title>section_1&#45;&gt;codeblock_7</title>
<path fill="none" stroke="#000000" stroke-dasharray="5,2" d="M1381.118,-517.4028C1386.5976,-509.0085 1393.2469,-498.8223 1399.2955,-489.5564"/>
<polygon fill="#000000" stroke="#000000" points="1402.3173,-491.3301 1404.8528,-481.0431 1396.4557,-487.5037 1402.3173,-491.3301"/>
</g>
<!-- prose_8 -->
<g id="node9" class="node">
<title>prose_8</title>
<ellipse fill="none" stroke="#000000" cx="1806.5" cy="-463.2006" rx="32.4585" ry="18"/>
<text text-anchor="middle" x="1806.5" y="-459.0006" font-family="Helvetica,sans-Serif" font-size="14.00" fill="#000000">prose</text>
</g>
<!-- section_1&#45;&gt;prose_8 -->
<g id="edge8" class="edge">
<title>section_1&#45;&gt;prose_8</title>
<path fill="none" stroke="#000000" stroke-dasharray="5,2" d="M1422.6479,-526.4439C1510.921,-511.9001 1685.904,-483.0699 1765.438,-469.9659"/>
<polygon fill="#000000" stroke="#000000" points="1766.2591,-473.3779 1775.5571,-468.2987 1765.1211,-466.471 1766.2591,-473.3779"/>
</g>
<!-- codeblock_9 -->
<g id="node10" class="node">
<title>codeblock_9</title>
<ellipse fill="none" stroke="#000000" cx="2117.5" cy="-463.2006" rx="77.4211" ry="18"/>
<text text-anchor="middle" x="2117.5" y="-459.0006" font-family="Helvetica,sans-Serif" font-size="14.00" fill="#000000">code block 55&#45;68</text>
</g>
<!-- section_1&#45;&gt;codeblock_9 -->
<g id="edge9" class="edge">
<title>section_1&#45;&gt;codeblock_9</title>
<path fill="none" stroke="#000000" stroke-dasharray="5,2" d="M1427.5719,-529.6108C1559.6923,-516.8933 1883.0825,-485.7648 2035.4921,-471.0944"/>
<polygon fill="#000000" stroke="#000000" points="2036.104,-474.5517 2045.7226,-470.1096 2035.4333,-467.5839 2036.104,-474.5517"/>
</g>
<!-- codeblock_10 -->
<g id="node11" class="node">
<title>codeblock_10</title>
<ellipse fill="none" stroke="#000000" cx="2540.5" cy="-463.2006" rx="77.4211" ry="18"/>
<text text-anchor="middle" x="2540.5" y="-459.0006" font-family="Helvetica,sans-Serif" font-size="14.00" fill="#000000">code block 70&#45;91</text>
</g>
<!-- section_1&#45;&gt;codeblock_10 -->
<g id="edge10" class="edge">
<title>section_1&#45;&gt;codeblock_10</title>
<path fill="none" stroke="#000000" stroke-dasharray="5,2" d="M1429.18,-531.5311C1622.1952,-519.6634 2230.0483,-482.289 2455.3697,-468.4349"/>
<polygon fill="#000000" stroke="#000000" points="2455.7185,-471.9201 2465.4848,-467.8129 2455.2888,-464.9333 2455.7185,-471.9201"/>
</g>
<!-- codeblock_11 -->
<g id="node12" class="node">
<title>codeblock_11</title>
<ellipse fill="none" stroke="#000000" cx="2880.5" cy="-463.2006" rx="77.4211" ry="18"/>
<text text-anchor="middle" x="2880.5" y="-459.0006" font-family="Helvetica,sans-Serif" font-size="14.00" fill="#000000">code block 94&#45;96</text>
</g>
<!-- section_1&#45;&gt;codeblock_11 -->
<g id="edge11" class="edge">
<title>section_1&#45;&gt;codeblock_11</title>
<path fill="none" stroke="#000000" stroke-dasharray="5,2" d="M1430.0338,-533.1977C1611.4628,-527.0663 2166.6287,-507.368 2626.5,-481.2006 2683.3793,-477.964 2747.3597,-473.4246 2796.8776,-469.7142"/>
<polygon fill="#000000" stroke="#000000" points="2797.19,-473.2007 2806.899,-468.9598 2796.6645,-466.2204 2797.19,-473.2007"/>
</g>
<!-- leaf_12 -->
<g id="node13" class="node">
<title>leaf_12</title>
<polygon fill="none" stroke="#c0c0c0" points="215,-268.3003 108,-268.3003 108,-232.3003 215,-232.3003 215,-268.3003"/>
<text text-anchor="middle" x="161.5" y="-246.8003" font-family="Inconsolata" font-size="14.00" fill="#000000">* Walk module</text>
</g>
<!-- header_2&#45;&gt;leaf_12 -->
<g id="edge12" class="edge">
<title>header_2&#45;&gt;leaf_12</title>
<path fill="none" stroke="#000000" stroke-dasharray="5,2" d="M197.1749,-445.0488C190.3679,-407.8898 174.8033,-322.9228 166.6683,-278.5142"/>
<polygon fill="#000000" stroke="#000000" points="170.0614,-277.6118 164.8167,-268.4061 163.1759,-278.8731 170.0614,-277.6118"/>
</g>
<!-- raw_13 -->
<g id="node14" class="node">
<title>raw_13</title>
<ellipse fill="none" stroke="#000000" cx="260.5" cy="-250.3003" rx="27" ry="18"/>
<text text-anchor="middle" x="260.5" y="-246.1003" font-family="Helvetica,sans-Serif" font-size="14.00" fill="#000000">raw</text>
</g>
<!-- prose_3&#45;&gt;raw_13 -->
<g id="edge13" class="edge">
<title>prose_3&#45;&gt;raw_13</title>
<path fill="none" stroke="#000000" stroke-dasharray="5,2" d="M370.169,-455.2858C346.7187,-447.4318 314.8344,-433.0519 296.5,-409.2006 267.1006,-370.9547 260.8952,-313.1463 260.0283,-278.8134"/>
<polygon fill="#000000" stroke="#000000" points="263.5251,-278.5055 259.9118,-268.5458 256.5256,-278.5849 263.5251,-278.5055"/>
</g>
<!-- raw_15 -->
<g id="node16" class="node">
<title>raw_15</title>
<ellipse fill="none" stroke="#000000" cx="332.5" cy="-250.3003" rx="27" ry="18"/>
<text text-anchor="middle" x="332.5" y="-246.1003" font-family="Helvetica,sans-Serif" font-size="14.00" fill="#000000">raw</text>
</g>
<!-- prose_4&#45;&gt;raw_15 -->
<g id="edge15" class="edge">
<title>prose_4&#45;&gt;raw_15</title>
<path fill="none" stroke="#000000" stroke-dasharray="5,2" d="M489.5718,-456.1322C450.3976,-446.2907 384.7945,-427.5899 368.5,-409.2006 336.1993,-372.7474 331.0636,-313.4449 331.1629,-278.5219"/>
<polygon fill="#000000" stroke="#000000" points="334.6624,-278.5783 331.3376,-268.5187 327.6634,-278.456 334.6624,-278.5783"/>
</g>
<!-- prespace_16 -->
<g id="node17" class="node">
<title>prespace_16</title>
<ellipse fill="none" stroke="#000000" cx="423.5" cy="-250.3003" rx="46.4736" ry="18"/>
<text text-anchor="middle" x="423.5" y="-246.1003" font-family="Helvetica,sans-Serif" font-size="14.00" fill="#000000">prespace</text>
</g>
<!-- prose_4&#45;&gt;prespace_16 -->
<g id="edge16" class="edge">
<title>prose_4&#45;&gt;prespace_16</title>
<path fill="none" stroke="#000000" stroke-dasharray="5,2" d="M505.1386,-446.5682C496.8175,-436.3116 486.6137,-422.5957 479.5,-409.2006 456.4746,-365.8435 439.5704,-311.038 430.658,-278.4313"/>
<polygon fill="#000000" stroke="#000000" points="434.0118,-277.424 428.0476,-268.6674 427.2493,-279.2321 434.0118,-277.424"/>
</g>
<!-- literal_17 -->
<g id="node18" class="node">
<title>literal_17</title>
<ellipse fill="none" stroke="#000000" cx="519.5" cy="-250.3003" rx="31.481" ry="18"/>
<text text-anchor="middle" x="519.5" y="-246.1003" font-family="Helvetica,sans-Serif" font-size="14.00" fill="#000000">literal</text>
</g>
<!-- prose_4&#45;&gt;literal_17 -->
<g id="edge17" class="edge">
<title>prose_4&#45;&gt;literal_17</title>
<path fill="none" stroke="#000000" stroke-dasharray="5,2" d="M519.5,-445.0488C519.5,-407.8898 519.5,-322.9228 519.5,-278.5142"/>
<polygon fill="#000000" stroke="#000000" points="523.0001,-278.4061 519.5,-268.4061 516.0001,-278.4061 523.0001,-278.4061"/>
</g>
<!-- raw_18 -->
<g id="node19" class="node">
<title>raw_18</title>
<ellipse fill="none" stroke="#000000" cx="595.5" cy="-250.3003" rx="27" ry="18"/>
<text text-anchor="middle" x="595.5" y="-246.1003" font-family="Helvetica,sans-Serif" font-size="14.00" fill="#000000">raw</text>
</g>
<!-- prose_4&#45;&gt;raw_18 -->
<g id="edge18" class="edge">
<title>prose_4&#45;&gt;raw_18</title>
<path fill="none" stroke="#000000" stroke-dasharray="5,2" d="M534.4346,-446.8516C542.9589,-436.6955 553.175,-422.9857 559.5,-409.2006 579.2123,-366.2385 588.5293,-311.6562 592.6229,-278.931"/>
<polygon fill="#000000" stroke="#000000" points="596.1318,-279.0583 593.8184,-268.7191 589.1793,-278.2443 596.1318,-279.0583"/>
</g>
<!-- leaf_23 -->
<g id="node24" class="node">
<title>leaf_23</title>
<polygon fill="none" stroke="#c0c0c0" points="1000,-409.1009 641,-409.1009 641,-91.4997 1000,-91.4997 1000,-409.1009"/>
<text text-anchor="middle" x="820.5" y="-394.0006" font-family="Inconsolata" font-size="14.00" fill="#000000">local L = require &quot;lpeg&quot;</text>
<text text-anchor="middle" x="820.5" y="-362.6005" font-family="Inconsolata" font-size="14.00" fill="#000000">local s = require &quot;singletons/status&quot; ()</text>
<text text-anchor="middle" x="820.5" y="-347.2005" font-family="Inconsolata" font-size="14.00" fill="#000000">local a = require &quot;singletons/anterm&quot;</text>
<text text-anchor="middle" x="820.5" y="-331.8005" font-family="Inconsolata" font-size="14.00" fill="#000000">s.chatty = true</text>
<text text-anchor="middle" x="820.5" y="-300.4004" font-family="Inconsolata" font-size="14.00" fill="#000000">local pl_mini = require &quot;util/plmini&quot;</text>
<text text-anchor="middle" x="820.5" y="-285.0004" font-family="Inconsolata" font-size="14.00" fill="#000000">local pl_mini = require &quot;util/plmini&quot;</text>
<text text-anchor="middle" x="820.5" y="-269.6004" font-family="Inconsolata" font-size="14.00" fill="#000000">local read, write, delete = pl_mini.file.read,</text>
<text text-anchor="middle" x="820.5" y="-254.2003" font-family="Inconsolata" font-size="14.00" fill="#000000"> &#160;&#160;&#160;&#160;&#160;&#160;&#160;&#160;&#160;&#160;&#160;&#160;&#160;&#160;&#160;&#160;&#160;&#160;&#160;&#160;&#160;&#160;&#160;&#160;&#160;&#160;&#160;pl_mini.file.write,</text>
<text text-anchor="middle" x="820.5" y="-238.8003" font-family="Inconsolata" font-size="14.00" fill="#000000"> &#160;&#160;&#160;&#160;&#160;&#160;&#160;&#160;&#160;&#160;&#160;&#160;&#160;&#160;&#160;&#160;&#160;&#160;&#160;&#160;&#160;&#160;&#160;&#160;&#160;&#160;&#160;pl_mini.file.delete</text>
<text text-anchor="middle" x="820.5" y="-223.4003" font-family="Inconsolata" font-size="14.00" fill="#000000">local getfiles = pl_mini.dir.getfiles</text>
<text text-anchor="middle" x="820.5" y="-208.0002" font-family="Inconsolata" font-size="14.00" fill="#000000">local getdirectories = pl_mini.dir.getdirectories</text>
<text text-anchor="middle" x="820.5" y="-192.6002" font-family="Inconsolata" font-size="14.00" fill="#000000">local makepath = pl_mini.dir.makepath</text>
<text text-anchor="middle" x="820.5" y="-177.2002" font-family="Inconsolata" font-size="14.00" fill="#000000">local extension = pl_mini.path.extension</text>
<text text-anchor="middle" x="820.5" y="-161.8002" font-family="Inconsolata" font-size="14.00" fill="#000000">local dirname = pl_mini.path.dirname</text>
<text text-anchor="middle" x="820.5" y="-146.4001" font-family="Inconsolata" font-size="14.00" fill="#000000">local basename = pl_mini.path.basename</text>
<text text-anchor="middle" x="820.5" y="-131.0001" font-family="Inconsolata" font-size="14.00" fill="#000000">local isdir = pl_mini.path.isdir</text>
<text text-anchor="middle" x="820.5" y="-99.6001" font-family="Inconsolata" font-size="14.00" fill="#000000">local epeg = require &quot;orb:util/epeg&quot;</text>
</g>
<!-- codeblock_5&#45;&gt;leaf_23 -->
<g id="edge23" class="edge">
<title>codeblock_5&#45;&gt;leaf_23</title>
<path fill="none" stroke="#000000" stroke-dasharray="5,2" d="M936.6721,-445.0488C932.2702,-437.6696 926.7437,-428.4051 920.5054,-417.9473"/>
<polygon fill="#000000" stroke="#000000" points="923.4865,-416.1128 915.3577,-409.3178 917.4749,-419.6989 923.4865,-416.1128"/>
</g>
<!-- leaf_24 -->
<g id="node25" class="node">
<title>leaf_24</title>
<polygon fill="none" stroke="#c0c0c0" points="1307,-300.7013 1018,-300.7013 1018,-199.8993 1307,-199.8993 1307,-300.7013"/>
<text text-anchor="middle" x="1162.5" y="-285.3004" font-family="Inconsolata" font-size="14.00" fill="#000000">local Walk = {}</text>
<text text-anchor="middle" x="1162.5" y="-269.9004" font-family="Inconsolata" font-size="14.00" fill="#000000">Walk.Path = require &quot;walk/path&quot;</text>
<text text-anchor="middle" x="1162.5" y="-254.5003" font-family="Inconsolata" font-size="14.00" fill="#000000">Walk.Dir &#160;= require &quot;walk/directory&quot;</text>
<text text-anchor="middle" x="1162.5" y="-239.1003" font-family="Inconsolata" font-size="14.00" fill="#000000">Walk.File = require &quot;walk/file&quot;</text>
<text text-anchor="middle" x="1162.5" y="-223.7003" font-family="Inconsolata" font-size="14.00" fill="#000000">Walk.Codex = require &quot;walk/codex&quot;</text>
<text text-anchor="middle" x="1162.5" y="-208.3002" font-family="Inconsolata" font-size="14.00" fill="#000000">Walk.writeOnChange = require &quot;walk/ops&quot;</text>
</g>
<!-- codeblock_6&#45;&gt;leaf_24 -->
<g id="edge24" class="edge">
<title>codeblock_6&#45;&gt;leaf_24</title>
<path fill="none" stroke="#000000" stroke-dasharray="5,2" d="M1199.0896,-445.0488C1193.5568,-415.6005 1182.3828,-356.1264 1173.8309,-310.6088"/>
<polygon fill="#000000" stroke="#000000" points="1177.2255,-309.7216 1171.9391,-300.5398 1170.3458,-311.0142 1177.2255,-309.7216"/>
</g>
<!-- leaf_25 -->
<g id="node26" class="node">
<title>leaf_25</title>
<polygon fill="none" stroke="#c0c0c0" points="1670,-316.1007 1325,-316.1007 1325,-184.4999 1670,-184.4999 1670,-316.1007"/>
<text text-anchor="middle" x="1497.5" y="-301.0004" font-family="Inconsolata" font-size="14.00" fill="#000000">function Walk.strHas(substr, str)</text>
<text text-anchor="middle" x="1497.5" y="-285.6004" font-family="Inconsolata" font-size="14.00" fill="#000000"> &#160;&#160;&#160;return L.match(epeg.anyP(substr), str)</text>
<text text-anchor="middle" x="1497.5" y="-270.2003" font-family="Inconsolata" font-size="14.00" fill="#000000">end</text>
<text text-anchor="middle" x="1497.5" y="-238.8003" font-family="Inconsolata" font-size="14.00" fill="#000000">function Walk.endsWith(substr, str)</text>
<text text-anchor="middle" x="1497.5" y="-223.4003" font-family="Inconsolata" font-size="14.00" fill="#000000"> &#160;&#160;&#160;return L.match(L.P(string.reverse(substr)),</text>
<text text-anchor="middle" x="1497.5" y="-208.0002" font-family="Inconsolata" font-size="14.00" fill="#000000"> &#160;&#160;&#160;&#160;&#160;&#160;&#160;string.reverse(str))</text>
<text text-anchor="middle" x="1497.5" y="-192.6002" font-family="Inconsolata" font-size="14.00" fill="#000000">end</text>
</g>
<!-- codeblock_7&#45;&gt;leaf_25 -->
<g id="edge25" class="edge">
<title>codeblock_7&#45;&gt;leaf_25</title>
<path fill="none" stroke="#000000" stroke-dasharray="5,2" d="M1423.406,-445.0488C1433.4006,-418.779 1452.4858,-368.6155 1468.7829,-325.7803"/>
<polygon fill="#000000" stroke="#000000" points="1472.1428,-326.7917 1472.4275,-316.2007 1465.6003,-324.3025 1472.1428,-326.7917"/>
</g>
<!-- raw_26 -->
<g id="node27" class="node">
<title>raw_26</title>
<ellipse fill="none" stroke="#000000" cx="1715.5" cy="-250.3003" rx="27" ry="18"/>
<text text-anchor="middle" x="1715.5" y="-246.1003" font-family="Helvetica,sans-Serif" font-size="14.00" fill="#000000">raw</text>
</g>
<!-- prose_8&#45;&gt;raw_26 -->
<g id="edge26" class="edge">
<title>prose_8&#45;&gt;raw_26</title>
<path fill="none" stroke="#000000" stroke-dasharray="5,2" d="M1786.8823,-448.768C1774.893,-438.9227 1760.2331,-424.8615 1751.5,-409.2006 1728.3551,-367.6949 1720.084,-312.229 1717.1324,-279.0031"/>
<polygon fill="#000000" stroke="#000000" points="1720.5911,-278.3366 1716.3216,-268.6401 1713.6124,-278.8827 1720.5911,-278.3366"/>
</g>
<!-- prespace_27 -->
<g id="node28" class="node">
<title>prespace_27</title>
<ellipse fill="none" stroke="#000000" cx="1806.5" cy="-250.3003" rx="46.4736" ry="18"/>
<text text-anchor="middle" x="1806.5" y="-246.1003" font-family="Helvetica,sans-Serif" font-size="14.00" fill="#000000">prespace</text>
</g>
<!-- prose_8&#45;&gt;prespace_27 -->
<g id="edge27" class="edge">
<title>prose_8&#45;&gt;prespace_27</title>
<path fill="none" stroke="#000000" stroke-dasharray="5,2" d="M1806.5,-445.0488C1806.5,-407.8898 1806.5,-322.9228 1806.5,-278.5142"/>
<polygon fill="#000000" stroke="#000000" points="1810.0001,-278.4061 1806.5,-268.4061 1803.0001,-278.4061 1810.0001,-278.4061"/>
</g>
<!-- literal_28 -->
<g id="node29" class="node">
<title>literal_28</title>
<ellipse fill="none" stroke="#000000" cx="1902.5" cy="-250.3003" rx="31.481" ry="18"/>
<text text-anchor="middle" x="1902.5" y="-246.1003" font-family="Helvetica,sans-Serif" font-size="14.00" fill="#000000">literal</text>
</g>
<!-- prose_8&#45;&gt;literal_28 -->
<g id="edge28" class="edge">
<title>prose_8&#45;&gt;literal_28</title>
<path fill="none" stroke="#000000" stroke-dasharray="5,2" d="M1825.9598,-448.6784C1837.8861,-438.7974 1852.5352,-424.73 1861.5,-409.2006 1885.5348,-367.5658 1895.6981,-311.7814 1899.8341,-278.5889"/>
<polygon fill="#000000" stroke="#000000" points="1903.3113,-278.9866 1900.9751,-268.6525 1896.357,-278.1879 1903.3113,-278.9866"/>
</g>
<!-- raw_29 -->
<g id="node30" class="node">
<title>raw_29</title>
<ellipse fill="none" stroke="#000000" cx="1978.5" cy="-250.3003" rx="27" ry="18"/>
<text text-anchor="middle" x="1978.5" y="-246.1003" font-family="Helvetica,sans-Serif" font-size="14.00" fill="#000000">raw</text>
</g>
<!-- prose_8&#45;&gt;raw_29 -->
<g id="edge29" class="edge">
<title>prose_8&#45;&gt;raw_29</title>
<path fill="none" stroke="#000000" stroke-dasharray="5,2" d="M1838.0904,-459.1964C1869.2635,-453.5399 1915.99,-440.1799 1942.5,-409.2006 1974.0301,-372.3547 1979.4746,-313.5926 1979.6314,-278.7949"/>
<polygon fill="#000000" stroke="#000000" points="1983.1272,-278.3601 1979.5229,-268.3972 1976.1276,-278.4332 1983.1272,-278.3601"/>
</g>
<!-- leaf_34 -->
<g id="node35" class="node">
<title>leaf_34</title>
<polygon fill="none" stroke="#c0c0c0" points="2579,-346.6008 2024,-346.6008 2024,-153.9998 2579,-153.9998 2579,-346.6008"/>
<text text-anchor="middle" x="2301.5" y="-331.5005" font-family="Inconsolata" font-size="14.00" fill="#000000">function Walk.subLastFor(match, swap, str)</text>
<text text-anchor="middle" x="2301.5" y="-316.1005" font-family="Inconsolata" font-size="14.00" fill="#000000"> &#160;&#160;local trs, hctam = string.reverse(str), string.reverse(match)</text>
<text text-anchor="middle" x="2301.5" y="-300.7004" font-family="Inconsolata" font-size="14.00" fill="#000000"> &#160;&#160;local first, last = Walk.strHas(hctam, trs)</text>
<text text-anchor="middle" x="2301.5" y="-285.3004" font-family="Inconsolata" font-size="14.00" fill="#000000"> &#160;&#160;if last then</text>
<text text-anchor="middle" x="2301.5" y="-269.9004" font-family="Inconsolata" font-size="14.00" fill="#000000"> &#160;&#160;&#160;&#160;&#160;&#45;&#45; There is some way to do this without reversing the string twice,</text>
<text text-anchor="middle" x="2301.5" y="-254.5003" font-family="Inconsolata" font-size="14.00" fill="#000000"> &#160;&#160;&#160;&#160;&#160;&#45;&#45; but I can&#39;t be arsed to find it. ONE BASED INDEXES ARE A MISTAKE</text>
<text text-anchor="middle" x="2301.5" y="-239.1003" font-family="Inconsolata" font-size="14.00" fill="#000000"> &#160;&#160;&#160;&#160;&#160;return string.reverse(trs:sub(1, first &#45; 1)</text>
<text text-anchor="middle" x="2301.5" y="-223.7003" font-family="Inconsolata" font-size="14.00" fill="#000000"> &#160;&#160;&#160;&#160;&#160;&#160;&#160;&#160;&#160;.. string.reverse(swap) .. trs:sub(last, &#45;1))</text>
<text text-anchor="middle" x="2301.5" y="-208.3002" font-family="Inconsolata" font-size="14.00" fill="#000000"> &#160;&#160;else</text>
<text text-anchor="middle" x="2301.5" y="-192.9002" font-family="Inconsolata" font-size="14.00" fill="#000000"> &#160;&#160;&#160;&#160;&#160;s:halt(&quot;didn&#39;t find an instance of &quot; .. match .. &quot; in string: &quot; .. str)</text>
<text text-anchor="middle" x="2301.5" y="-177.5002" font-family="Inconsolata" font-size="14.00" fill="#000000"> &#160;&#160;end</text>
<text text-anchor="middle" x="2301.5" y="-162.1001" font-family="Inconsolata" font-size="14.00" fill="#000000">end</text>
</g>
<!-- codeblock_9&#45;&gt;leaf_34 -->
<g id="edge34" class="edge">
<title>codeblock_9&#45;&gt;leaf_34</title>
<path fill="none" stroke="#000000" stroke-dasharray="5,2" d="M2132.8713,-445.415C2150.5371,-424.9745 2180.9986,-389.7285 2211.2136,-354.7677"/>
<polygon fill="#000000" stroke="#000000" points="2214.1684,-356.7014 2218.0592,-346.8468 2208.8722,-352.1241 2214.1684,-356.7014"/>
</g>
<!-- leaf_35 -->
<g id="node36" class="node">
<title>leaf_35</title>
<polygon fill="none" stroke="#c0c0c0" points="2984,-408.4011 2597,-408.4011 2597,-92.1995 2984,-92.1995 2984,-408.4011"/>
<text text-anchor="middle" x="2790.5" y="-393.4006" font-family="Inconsolata" font-size="14.00" fill="#000000">function Walk.writeOnChange(out_file, newest)</text>
<text text-anchor="middle" x="2790.5" y="-378.0006" font-family="Inconsolata" font-size="14.00" fill="#000000"> &#160;&#160;&#160;newest = tostring(newest)</text>
<text text-anchor="middle" x="2790.5" y="-362.6005" font-family="Inconsolata" font-size="14.00" fill="#000000"> &#160;&#160;&#160;out_file = tostring(out_file)</text>
<text text-anchor="middle" x="2790.5" y="-347.2005" font-family="Inconsolata" font-size="14.00" fill="#000000"> &#160;&#160;&#160;local current = read(tostring(out_file))</text>
<text text-anchor="middle" x="2790.5" y="-331.8005" font-family="Inconsolata" font-size="14.00" fill="#000000"> &#160;&#160;&#160;&#45;&#45; If the text has changed, write it</text>
<text text-anchor="middle" x="2790.5" y="-316.4004" font-family="Inconsolata" font-size="14.00" fill="#000000"> &#160;&#160;&#160;if newest ~= current then</text>
<text text-anchor="middle" x="2790.5" y="-301.0004" font-family="Inconsolata" font-size="14.00" fill="#000000"> &#160;&#160;&#160;&#160;&#160;&#160;&#160;s:chat(a.green(&quot; &#160;&#45; &quot; .. tostring(out_file)))</text>
<text text-anchor="middle" x="2790.5" y="-285.6004" font-family="Inconsolata" font-size="14.00" fill="#000000"> &#160;&#160;&#160;&#160;&#160;&#160;&#160;write(out_file, newest)</text>
<text text-anchor="middle" x="2790.5" y="-270.2003" font-family="Inconsolata" font-size="14.00" fill="#000000"> &#160;&#160;&#160;&#160;&#160;&#160;&#160;return true</text>
<text text-anchor="middle" x="2790.5" y="-254.8003" font-family="Inconsolata" font-size="14.00" fill="#000000"> &#160;&#160;&#160;&#45;&#45; If the new text is blank, delete the old file</text>
<text text-anchor="middle" x="2790.5" y="-239.4003" font-family="Inconsolata" font-size="14.00" fill="#000000"> &#160;&#160;&#160;elseif current ~= &quot;&quot; and newest == &quot;&quot; then</text>
<text text-anchor="middle" x="2790.5" y="-224.0002" font-family="Inconsolata" font-size="14.00" fill="#000000"> &#160;&#160;&#160;&#160;&#160;&#160;&#160;s:chat(a.red(&quot; &#160;&#45; &quot; .. tostring(out_file)))</text>
<text text-anchor="middle" x="2790.5" y="-208.6002" font-family="Inconsolata" font-size="14.00" fill="#000000"> &#160;&#160;&#160;&#160;&#160;&#160;&#160;delete(out_file)</text>
<text text-anchor="middle" x="2790.5" y="-193.2002" font-family="Inconsolata" font-size="14.00" fill="#000000"> &#160;&#160;&#160;&#160;&#160;&#160;&#160;return false</text>
<text text-anchor="middle" x="2790.5" y="-177.8002" font-family="Inconsolata" font-size="14.00" fill="#000000"> &#160;&#160;&#160;else</text>
<text text-anchor="middle" x="2790.5" y="-162.4001" font-family="Inconsolata" font-size="14.00" fill="#000000"> &#160;&#160;&#160;&#45;&#45; Otherwise do nothing</text>
<text text-anchor="middle" x="2790.5" y="-131.0001" font-family="Inconsolata" font-size="14.00" fill="#000000"> &#160;&#160;&#160;&#160;&#160;&#160;&#160;return nil</text>
<text text-anchor="middle" x="2790.5" y="-115.6001" font-family="Inconsolata" font-size="14.00" fill="#000000"> &#160;&#160;&#160;end</text>
<text text-anchor="middle" x="2790.5" y="-100.2" font-family="Inconsolata" font-size="14.00" fill="#000000">end</text>
</g>
<!-- codeblock_10&#45;&gt;leaf_35 -->
<g id="edge35" class="edge">
<title>codeblock_10&#45;&gt;leaf_35</title>
<path fill="none" stroke="#000000" stroke-dasharray="5,2" d="M2560.9585,-445.778C2570.5028,-437.6501 2582.8611,-427.1258 2596.8899,-415.1789"/>
<polygon fill="#000000" stroke="#000000" points="2599.5041,-417.5498 2604.8482,-408.4016 2594.9656,-412.2205 2599.5041,-417.5498"/>
</g>
<!-- leaf_36 -->
<g id="node37" class="node">
<title>leaf_36</title>
<polygon fill="none" stroke="#c0c0c0" points="3095,-268.3003 3002,-268.3003 3002,-232.3003 3095,-232.3003 3095,-268.3003"/>
<text text-anchor="middle" x="3048.5" y="-246.8003" font-family="Inconsolata" font-size="14.00" fill="#000000">return Walk</text>
</g>
<!-- codeblock_11&#45;&gt;leaf_36 -->
<g id="edge36" class="edge">
<title>codeblock_11&#45;&gt;leaf_36</title>
<path fill="none" stroke="#000000" stroke-dasharray="5,2" d="M2929.8461,-449.2911C2951.9203,-440.861 2976.697,-428.0102 2993.5,-409.2006 3026.8996,-371.8125 3040.239,-313.0783 3045.402,-278.463"/>
<polygon fill="#000000" stroke="#000000" points="3048.8711,-278.9264 3046.7549,-268.545 3041.9353,-277.9802 3048.8711,-278.9264"/>
</g>
<!-- leaf_14 -->
<g id="node15" class="node">
<title>leaf_14</title>
<polygon fill="none" stroke="#c0c0c0" points="247,-55.6015 0,-55.6015 0,.2015 247,.2015 247,-55.6015"/>
<text text-anchor="middle" x="123.5" y="-8.2" font-family="Inconsolata" font-size="14.00" fill="#000000">Contains our filesystem paradigm.</text>
</g>
<!-- raw_13&#45;&gt;leaf_14 -->
<g id="edge14" class="edge">
<title>raw_13&#45;&gt;leaf_14</title>
<path fill="none" stroke="#000000" stroke-dasharray="5,2" d="M260.5693,-231.8205C259.8038,-200.1826 254.2754,-134.8571 223.5,-91.4 215.1875,-79.6621 203.9626,-69.5862 192.0345,-61.1394"/>
<polygon fill="#000000" stroke="#000000" points="193.9478,-58.2084 183.6914,-55.5516 190.0524,-64.0244 193.9478,-58.2084"/>
</g>
<!-- leaf_19 -->
<g id="node20" class="node">
<title>leaf_19</title>
<polygon fill="none" stroke="#c0c0c0" points="400,-47.6021 265,-47.6021 265,-7.7979 400,-7.7979 400,-47.6021"/>
<text text-anchor="middle" x="332.5" y="-16.2" font-family="Inconsolata" font-size="14.00" fill="#000000">This will move to</text>
</g>
<!-- raw_15&#45;&gt;leaf_19 -->
<g id="edge19" class="edge">
<title>raw_15&#45;&gt;leaf_19</title>
<path fill="none" stroke="#000000" stroke-dasharray="5,2" d="M332.5,-232.084C332.5,-193.7442 332.5,-104.4065 332.5,-57.5669"/>
<polygon fill="#000000" stroke="#000000" points="336.0001,-57.439 332.5,-47.439 329.0001,-57.4391 336.0001,-57.439"/>
</g>
<!-- leaf_20 -->
<g id="node21" class="node">
<title>leaf_20</title>
<polygon fill="none" stroke="#c0c0c0" points="472.5,-45.7 418.5,-45.7 418.5,-9.7 472.5,-9.7 472.5,-45.7"/>
<text text-anchor="middle" x="445.5" y="-24.2" font-family="Inconsolata" font-size="14.00" fill="#000000"> </text>
</g>
<!-- prespace_16&#45;&gt;leaf_20 -->
<g id="edge20" class="edge">
<title>prespace_16&#45;&gt;leaf_20</title>
<path fill="none" stroke="#000000" stroke-dasharray="5,2" d="M425.3004,-232.084C429.1372,-193.2625 438.1416,-102.1537 442.7207,-55.8219"/>
<polygon fill="#000000" stroke="#000000" points="446.205,-56.1516 443.7056,-45.8558 439.239,-55.4631 446.205,-56.1516"/>
</g>
<!-- leaf_21 -->
<g id="node22" class="node">
<title>leaf_21</title>
<polygon fill="none" stroke="#c0c0c0" points="548.5,-45.7 490.5,-45.7 490.5,-9.7 548.5,-9.7 548.5,-45.7"/>
<text text-anchor="middle" x="519.5" y="-24.2" font-family="Inconsolata" font-size="14.00" fill="#000000">bridge</text>
</g>
<!-- literal_17&#45;&gt;leaf_21 -->
<g id="edge21" class="edge">
<title>literal_17&#45;&gt;leaf_21</title>
<path fill="none" stroke="#000000" stroke-dasharray="5,2" d="M519.5,-232.084C519.5,-193.3442 519.5,-102.5371 519.5,-56.1151"/>
<polygon fill="#000000" stroke="#000000" points="523.0001,-55.8558 519.5,-45.8558 516.0001,-55.8559 523.0001,-55.8558"/>
</g>
<!-- leaf_22 -->
<g id="node23" class="node">
<title>leaf_22</title>
<polygon fill="none" stroke="#c0c0c0" points="1066,-47.0006 567,-47.0006 567,-8.3994 1066,-8.3994 1066,-47.0006"/>
<text text-anchor="middle" x="816.5" y="-31.9" font-family="Inconsolata" font-size="14.00" fill="#000000"> relatively soon, where we can work out the ways</text>
<text text-anchor="middle" x="816.5" y="-16.5" font-family="Inconsolata" font-size="14.00" fill="#000000">that bridgetools interact with codex and non&#45;codex directory systems.</text>
</g>
<!-- raw_18&#45;&gt;leaf_22 -->
<g id="edge22" class="edge">
<title>raw_18&#45;&gt;leaf_22</title>
<path fill="none" stroke="#000000" stroke-dasharray="5,2" d="M594.2992,-232.2954C593.1566,-199.9194 595.5261,-131.518 631.5,-91.4 645.013,-76.3304 686.0364,-61.4868 726.0283,-49.9245"/>
<polygon fill="#000000" stroke="#000000" points="727.2159,-53.2259 735.8836,-47.1331 725.3082,-46.4908 727.2159,-53.2259"/>
</g>
<!-- leaf_30 -->
<g id="node31" class="node">
<title>leaf_30</title>
<polygon fill="none" stroke="#c0c0c0" points="1767.5,-55.0004 1331.5,-55.0004 1331.5,-.3996 1767.5,-.3996 1767.5,-55.0004"/>
<text text-anchor="middle" x="1549.5" y="-23.9" font-family="Inconsolata" font-size="14.00" fill="#000000">Finds the last match for a literal substring and replaces it</text>
<text text-anchor="middle" x="1549.5" y="-8.5" font-family="Inconsolata" font-size="14.00" fill="#000000">with</text>
</g>
<!-- raw_26&#45;&gt;leaf_30 -->
<g id="edge30" class="edge">
<title>raw_26&#45;&gt;leaf_30</title>
<path fill="none" stroke="#000000" stroke-dasharray="5,2" d="M1716.0584,-232.2178C1716.1007,-200.3189 1711.8506,-133.4572 1678.5,-91.4 1668.4754,-78.7584 1655.2968,-68.4408 1641.1941,-60.0792"/>
<polygon fill="#000000" stroke="#000000" points="1642.7514,-56.9402 1632.3136,-55.1224 1639.3397,-63.0525 1642.7514,-56.9402"/>
</g>
<!-- leaf_31 -->
<g id="node32" class="node">
<title>leaf_31</title>
<polygon fill="none" stroke="#c0c0c0" points="1839.5,-45.7 1785.5,-45.7 1785.5,-9.7 1839.5,-9.7 1839.5,-45.7"/>
<text text-anchor="middle" x="1812.5" y="-24.2" font-family="Inconsolata" font-size="14.00" fill="#000000"> </text>
</g>
<!-- prespace_27&#45;&gt;leaf_31 -->
<g id="edge31" class="edge">
<title>prespace_27&#45;&gt;leaf_31</title>
<path fill="none" stroke="#000000" stroke-dasharray="5,2" d="M1806.991,-232.084C1808.0352,-193.3442 1810.4828,-102.5371 1811.7341,-56.1151"/>
<polygon fill="#000000" stroke="#000000" points="1815.2398,-55.9466 1812.0106,-45.8558 1808.2424,-55.7579 1815.2398,-55.9466"/>
</g>
<!-- leaf_32 -->
<g id="node33" class="node">
<title>leaf_32</title>
<polygon fill="none" stroke="#c0c0c0" points="1923.5,-45.7 1869.5,-45.7 1869.5,-9.7 1923.5,-9.7 1923.5,-45.7"/>
<text text-anchor="middle" x="1896.5" y="-24.2" font-family="Inconsolata" font-size="14.00" fill="#000000">swap</text>
</g>
<!-- literal_28&#45;&gt;leaf_32 -->
<g id="edge32" class="edge">
<title>literal_28&#45;&gt;leaf_32</title>
<path fill="none" stroke="#000000" stroke-dasharray="5,2" d="M1902.009,-232.084C1900.9648,-193.3442 1898.5172,-102.5371 1897.2659,-56.1151"/>
<polygon fill="#000000" stroke="#000000" points="1900.7576,-55.7579 1896.9894,-45.8558 1893.7602,-55.9466 1900.7576,-55.7579"/>
</g>
<!-- leaf_33 -->
<g id="node34" class="node">
<title>leaf_33</title>
<polygon fill="none" stroke="#c0c0c0" points="2147,-45.7 1942,-45.7 1942,-9.7 2147,-9.7 2147,-45.7"/>
<text text-anchor="middle" x="2044.5" y="-24.2" font-family="Inconsolata" font-size="14.00" fill="#000000">, returning the new string.</text>
</g>
<!-- raw_29&#45;&gt;leaf_33 -->
<g id="edge33" class="edge">
<title>raw_29&#45;&gt;leaf_33</title>
<path fill="none" stroke="#000000" stroke-dasharray="5,2" d="M1981.2625,-232.3142C1986.1324,-202.4883 1997.3783,-141.148 2014.5,-91.4 2018.7153,-79.1523 2024.5807,-66.1303 2030.0081,-55.0733"/>
<polygon fill="#000000" stroke="#000000" points="2033.2402,-56.4369 2034.6124,-45.9312 2026.9883,-53.2882 2033.2402,-56.4369"/>
</g>
</g>
</svg>
