<?xml version="1.0" encoding="UTF-8" standalone="no"?>
<!DOCTYPE svg PUBLIC "-//W3C//DTD SVG 1.1//EN"
 "http://www.w3.org/Graphics/SVG/1.1/DTD/svg11.dtd">
<!-- Generated by graphviz version 2.40.1 (20161225.0304)
 -->
<!-- Title: lpegNode Pages: 1 -->
<svg width="3300pt" height="736pt"
 viewBox="0.00 0.00 3300.00 736.00" xmlns="http://www.w3.org/2000/svg" xmlns:xlink="http://www.w3.org/1999/xlink">
<g id="graph0" class="graph" transform="scale(1 1) rotate(0) translate(4 732.0006)">
<title>lpegNode</title>
<polygon fill="#ffffff" stroke="transparent" points="-4,4 -4,-732.0006 3296,-732.0006 3296,4 -4,4"/>
<!-- doc_0 -->
<g id="node1" class="node">
<title>doc_0</title>
<ellipse fill="none" stroke="#000000" cx="1116.5" cy="-710.0006" rx="42.1216" ry="18"/>
<text text-anchor="middle" x="1116.5" y="-705.8006" font-family="Helvetica,sans-Serif" font-size="14.00" fill="#000000">doc &#45; 83</text>
</g>
<!-- section_1 -->
<g id="node2" class="node">
<title>section_1</title>
<ellipse fill="none" stroke="#000000" cx="1116.5" cy="-638.0006" rx="60.9826" ry="18"/>
<text text-anchor="middle" x="1116.5" y="-633.8006" font-family="Helvetica,sans-Serif" font-size="14.00" fill="#000000">section: 1&#45;70</text>
</g>
<!-- doc_0&#45;&gt;section_1 -->
<g id="edge1" class="edge">
<title>doc_0&#45;&gt;section_1</title>
<path fill="none" stroke="#000000" stroke-dasharray="5,2" d="M1116.5,-691.832C1116.5,-684.1316 1116.5,-674.975 1116.5,-666.4173"/>
<polygon fill="#000000" stroke="#000000" points="1120.0001,-666.4139 1116.5,-656.4139 1113.0001,-666.4139 1120.0001,-666.4139"/>
</g>
<!-- header_2 -->
<g id="node3" class="node">
<title>header_2</title>
<ellipse fill="none" stroke="#000000" cx="200.5" cy="-566.0006" rx="73.3717" ry="18"/>
<text text-anchor="middle" x="200.5" y="-561.8006" font-family="Helvetica,sans-Serif" font-size="14.00" fill="#000000">1 : Walk module</text>
</g>
<!-- section_1&#45;&gt;header_2 -->
<g id="edge2" class="edge">
<title>section_1&#45;&gt;header_2</title>
<path fill="none" stroke="#000000" stroke-dasharray="5,2" d="M1056.4891,-634.5912C928.2315,-627.1141 617.9546,-608.0106 358.5,-584.0006 331.6828,-581.519 302.361,-578.3149 276.3374,-575.2994"/>
<polygon fill="#000000" stroke="#000000" points="276.5005,-571.7947 266.1619,-574.1106 275.6882,-578.7474 276.5005,-571.7947"/>
</g>
<!-- prose_3 -->
<g id="node4" class="node">
<title>prose_3</title>
<ellipse fill="none" stroke="#000000" cx="399.5" cy="-566.0006" rx="32.4585" ry="18"/>
<text text-anchor="middle" x="399.5" y="-561.8006" font-family="Helvetica,sans-Serif" font-size="14.00" fill="#000000">prose</text>
</g>
<!-- section_1&#45;&gt;prose_3 -->
<g id="edge3" class="edge">
<title>section_1&#45;&gt;prose_3</title>
<path fill="none" stroke="#000000" stroke-dasharray="5,2" d="M1055.9109,-635.6913C942.1619,-630.7325 689.1191,-616.7446 478.5,-584.0006 465.4483,-581.9715 451.3428,-579.0093 438.7124,-576.0715"/>
<polygon fill="#000000" stroke="#000000" points="439.4873,-572.6581 428.9477,-573.7389 437.8608,-579.4666 439.4873,-572.6581"/>
</g>
<!-- prose_4 -->
<g id="node5" class="node">
<title>prose_4</title>
<ellipse fill="none" stroke="#000000" cx="519.5" cy="-566.0006" rx="32.4585" ry="18"/>
<text text-anchor="middle" x="519.5" y="-561.8006" font-family="Helvetica,sans-Serif" font-size="14.00" fill="#000000">prose</text>
</g>
<!-- section_1&#45;&gt;prose_4 -->
<g id="edge4" class="edge">
<title>section_1&#45;&gt;prose_4</title>
<path fill="none" stroke="#000000" stroke-dasharray="5,2" d="M1060.0668,-631.1946C941.059,-616.8419 666.6986,-583.7532 561.5567,-571.0728"/>
<polygon fill="#000000" stroke="#000000" points="561.683,-567.5627 551.3358,-569.8401 560.8448,-574.5124 561.683,-567.5627"/>
</g>
<!-- codeblock_5 -->
<g id="node6" class="node">
<title>codeblock_5</title>
<ellipse fill="none" stroke="#000000" cx="875.5" cy="-566.0006" rx="72.5844" ry="18"/>
<text text-anchor="middle" x="875.5" y="-561.8006" font-family="Helvetica,sans-Serif" font-size="14.00" fill="#000000">code block 8&#45;31</text>
</g>
<!-- section_1&#45;&gt;codeblock_5 -->
<g id="edge5" class="edge">
<title>section_1&#45;&gt;codeblock_5</title>
<path fill="none" stroke="#000000" stroke-dasharray="5,2" d="M1073.6917,-625.2114C1034.1635,-613.4022 975.1911,-595.7839 931.8487,-582.8351"/>
<polygon fill="#000000" stroke="#000000" points="932.6048,-579.4082 922.0213,-579.8991 930.6009,-586.1153 932.6048,-579.4082"/>
</g>
<!-- codeblock_6 -->
<g id="node7" class="node">
<title>codeblock_6</title>
<ellipse fill="none" stroke="#000000" cx="1116.5" cy="-566.0006" rx="77.4211" ry="18"/>
<text text-anchor="middle" x="1116.5" y="-561.8006" font-family="Helvetica,sans-Serif" font-size="14.00" fill="#000000">code block 33&#45;39</text>
</g>
<!-- section_1&#45;&gt;codeblock_6 -->
<g id="edge6" class="edge">
<title>section_1&#45;&gt;codeblock_6</title>
<path fill="none" stroke="#000000" stroke-dasharray="5,2" d="M1116.5,-619.832C1116.5,-612.1316 1116.5,-602.975 1116.5,-594.4173"/>
<polygon fill="#000000" stroke="#000000" points="1120.0001,-594.4139 1116.5,-584.4139 1113.0001,-594.4139 1120.0001,-594.4139"/>
</g>
<!-- codeblock_7 -->
<g id="node8" class="node">
<title>codeblock_7</title>
<ellipse fill="none" stroke="#000000" cx="1365.5" cy="-566.0006" rx="77.4211" ry="18"/>
<text text-anchor="middle" x="1365.5" y="-561.8006" font-family="Helvetica,sans-Serif" font-size="14.00" fill="#000000">code block 41&#45;50</text>
</g>
<!-- section_1&#45;&gt;codeblock_7 -->
<g id="edge7" class="edge">
<title>section_1&#45;&gt;codeblock_7</title>
<path fill="none" stroke="#000000" stroke-dasharray="5,2" d="M1160.1574,-625.3768C1200.9593,-613.5787 1262.1703,-595.8791 1307.1488,-582.8733"/>
<polygon fill="#000000" stroke="#000000" points="1308.1388,-586.2305 1316.773,-580.0904 1306.1943,-579.5059 1308.1388,-586.2305"/>
</g>
<!-- prose_8 -->
<g id="node9" class="node">
<title>prose_8</title>
<ellipse fill="none" stroke="#000000" cx="1750.5" cy="-566.0006" rx="32.4585" ry="18"/>
<text text-anchor="middle" x="1750.5" y="-561.8006" font-family="Helvetica,sans-Serif" font-size="14.00" fill="#000000">prose</text>
</g>
<!-- section_1&#45;&gt;prose_8 -->
<g id="edge8" class="edge">
<title>section_1&#45;&gt;prose_8</title>
<path fill="none" stroke="#000000" stroke-dasharray="5,2" d="M1173.3212,-631.5477C1299.0468,-617.2698 1598.3662,-583.2776 1708.7128,-570.7462"/>
<polygon fill="#000000" stroke="#000000" points="1709.2483,-574.208 1718.7894,-569.6018 1708.4583,-567.2527 1709.2483,-574.208"/>
</g>
<!-- codeblock_9 -->
<g id="node10" class="node">
<title>codeblock_9</title>
<ellipse fill="none" stroke="#000000" cx="2062.5" cy="-566.0006" rx="77.4211" ry="18"/>
<text text-anchor="middle" x="2062.5" y="-561.8006" font-family="Helvetica,sans-Serif" font-size="14.00" fill="#000000">code block 56&#45;69</text>
</g>
<!-- section_1&#45;&gt;codeblock_9 -->
<g id="edge9" class="edge">
<title>section_1&#45;&gt;codeblock_9</title>
<path fill="none" stroke="#000000" stroke-dasharray="5,2" d="M1175.6765,-633.4967C1337.9283,-621.1477 1790.261,-586.7207 1978.5684,-572.3887"/>
<polygon fill="#000000" stroke="#000000" points="1978.9852,-575.8671 1988.6907,-571.6182 1978.4539,-568.8873 1978.9852,-575.8671"/>
</g>
<!-- section_10 -->
<g id="node11" class="node">
<title>section_10</title>
<ellipse fill="none" stroke="#000000" cx="2780.5" cy="-566.0006" rx="65.8187" ry="18"/>
<text text-anchor="middle" x="2780.5" y="-561.8006" font-family="Helvetica,sans-Serif" font-size="14.00" fill="#000000">section: 71&#45;83</text>
</g>
<!-- section_1&#45;&gt;section_10 -->
<g id="edge10" class="edge">
<title>section_1&#45;&gt;section_10</title>
<path fill="none" stroke="#000000" stroke-dasharray="5,2" d="M1176.7057,-635.3956C1431.8163,-624.3571 2423.447,-581.45 2705.3607,-569.2518"/>
<polygon fill="#000000" stroke="#000000" points="2705.6451,-572.7429 2715.4844,-568.8138 2705.3424,-565.7495 2705.6451,-572.7429"/>
</g>
<!-- leaf_11 -->
<g id="node12" class="node">
<title>leaf_11</title>
<polygon fill="none" stroke="#c0c0c0" points="215,-355.7003 108,-355.7003 108,-319.7003 215,-319.7003 215,-355.7003"/>
<text text-anchor="middle" x="161.5" y="-334.2003" font-family="Inconsolata" font-size="14.00" fill="#000000">* Walk module</text>
</g>
<!-- header_2&#45;&gt;leaf_11 -->
<g id="edge11" class="edge">
<title>header_2&#45;&gt;leaf_11</title>
<path fill="none" stroke="#000000" stroke-dasharray="5,2" d="M197.3744,-547.7038C190.5686,-507.8638 174.3715,-413.0484 166.2765,-365.661"/>
<polygon fill="#000000" stroke="#000000" points="169.7203,-365.0352 164.5864,-355.7674 162.8203,-366.214 169.7203,-365.0352"/>
</g>
<!-- raw_12 -->
<g id="node13" class="node">
<title>raw_12</title>
<ellipse fill="none" stroke="#000000" cx="260.5" cy="-337.7003" rx="27" ry="18"/>
<text text-anchor="middle" x="260.5" y="-333.5003" font-family="Helvetica,sans-Serif" font-size="14.00" fill="#000000">raw</text>
</g>
<!-- prose_3&#45;&gt;raw_12 -->
<g id="edge12" class="edge">
<title>prose_3&#45;&gt;raw_12</title>
<path fill="none" stroke="#000000" stroke-dasharray="5,2" d="M370.0491,-558.1771C346.5274,-550.3775 314.6055,-536.0261 296.5,-512.0006 263.9185,-468.7658 259.0719,-403.0688 259.2581,-365.9066"/>
<polygon fill="#000000" stroke="#000000" points="262.7596,-365.8455 259.4385,-355.7846 255.7607,-365.7207 262.7596,-365.8455"/>
</g>
<!-- raw_14 -->
<g id="node15" class="node">
<title>raw_14</title>
<ellipse fill="none" stroke="#000000" cx="332.5" cy="-337.7003" rx="27" ry="18"/>
<text text-anchor="middle" x="332.5" y="-333.5003" font-family="Helvetica,sans-Serif" font-size="14.00" fill="#000000">raw</text>
</g>
<!-- prose_4&#45;&gt;raw_14 -->
<g id="edge14" class="edge">
<title>prose_4&#45;&gt;raw_14</title>
<path fill="none" stroke="#000000" stroke-dasharray="5,2" d="M489.5208,-558.9771C450.288,-549.187 384.618,-530.5449 368.5,-512.0006 332.8014,-470.9282 329.1826,-403.8753 330.4003,-366.027"/>
<polygon fill="#000000" stroke="#000000" points="333.9109,-365.8764 330.876,-355.7255 326.9183,-365.5534 333.9109,-365.8764"/>
</g>
<!-- prespace_15 -->
<g id="node16" class="node">
<title>prespace_15</title>
<ellipse fill="none" stroke="#000000" cx="423.5" cy="-337.7003" rx="46.4736" ry="18"/>
<text text-anchor="middle" x="423.5" y="-333.5003" font-family="Helvetica,sans-Serif" font-size="14.00" fill="#000000">prespace</text>
</g>
<!-- prose_4&#45;&gt;prespace_15 -->
<g id="edge15" class="edge">
<title>prose_4&#45;&gt;prespace_15</title>
<path fill="none" stroke="#000000" stroke-dasharray="5,2" d="M505.002,-549.4396C496.6325,-539.2083 486.4257,-525.494 479.5,-512.0006 454.5094,-463.3117 437.8021,-401.2662 429.541,-365.8586"/>
<polygon fill="#000000" stroke="#000000" points="432.8774,-364.7454 427.2486,-355.7695 426.0514,-366.2964 432.8774,-364.7454"/>
</g>
<!-- literal_16 -->
<g id="node17" class="node">
<title>literal_16</title>
<ellipse fill="none" stroke="#000000" cx="519.5" cy="-337.7003" rx="31.481" ry="18"/>
<text text-anchor="middle" x="519.5" y="-333.5003" font-family="Helvetica,sans-Serif" font-size="14.00" fill="#000000">literal</text>
</g>
<!-- prose_4&#45;&gt;literal_16 -->
<g id="edge16" class="edge">
<title>prose_4&#45;&gt;literal_16</title>
<path fill="none" stroke="#000000" stroke-dasharray="5,2" d="M519.5,-547.7038C519.5,-507.9475 519.5,-413.4466 519.5,-365.9603"/>
<polygon fill="#000000" stroke="#000000" points="523.0001,-365.7674 519.5,-355.7674 516.0001,-365.7674 523.0001,-365.7674"/>
</g>
<!-- raw_17 -->
<g id="node18" class="node">
<title>raw_17</title>
<ellipse fill="none" stroke="#000000" cx="595.5" cy="-337.7003" rx="27" ry="18"/>
<text text-anchor="middle" x="595.5" y="-333.5003" font-family="Helvetica,sans-Serif" font-size="14.00" fill="#000000">raw</text>
</g>
<!-- prose_4&#45;&gt;raw_17 -->
<g id="edge17" class="edge">
<title>prose_4&#45;&gt;raw_17</title>
<path fill="none" stroke="#000000" stroke-dasharray="5,2" d="M534.5306,-549.6952C543.0889,-539.5544 553.307,-525.8456 559.5,-512.0006 581.2244,-463.4335 590.0113,-401.346 593.4362,-365.8977"/>
<polygon fill="#000000" stroke="#000000" points="596.9349,-366.0672 594.3354,-355.7963 589.9624,-365.4465 596.9349,-366.0672"/>
</g>
<!-- leaf_22 -->
<g id="node23" class="node">
<title>leaf_22</title>
<polygon fill="none" stroke="#c0c0c0" points="964.5,-511.8011 640.5,-511.8011 640.5,-163.5995 964.5,-163.5995 964.5,-511.8011"/>
<text text-anchor="middle" x="802.5" y="-496.8006" font-family="Inconsolata" font-size="14.00" fill="#000000">local L = require &quot;lpeg&quot;</text>
<text text-anchor="middle" x="802.5" y="-465.4006" font-family="Inconsolata" font-size="14.00" fill="#000000">local s = require &quot;status&quot;</text>
<text text-anchor="middle" x="802.5" y="-450.0006" font-family="Inconsolata" font-size="14.00" fill="#000000">local u = require &quot;util&quot;</text>
<text text-anchor="middle" x="802.5" y="-434.6005" font-family="Inconsolata" font-size="14.00" fill="#000000">local a = require &quot;ansi&quot;</text>
<text text-anchor="middle" x="802.5" y="-419.2005" font-family="Inconsolata" font-size="14.00" fill="#000000">s.chatty = true</text>
<text text-anchor="middle" x="802.5" y="-387.8005" font-family="Inconsolata" font-size="14.00" fill="#000000">local pl_file = require &quot;pl.file&quot;</text>
<text text-anchor="middle" x="802.5" y="-372.4004" font-family="Inconsolata" font-size="14.00" fill="#000000">local pl_dir = require &quot;pl.dir&quot;</text>
<text text-anchor="middle" x="802.5" y="-357.0004" font-family="Inconsolata" font-size="14.00" fill="#000000">local pl_path = require &quot;pl.path&quot;</text>
<text text-anchor="middle" x="802.5" y="-341.6004" font-family="Inconsolata" font-size="14.00" fill="#000000">local getfiles = pl_dir.getfiles</text>
<text text-anchor="middle" x="802.5" y="-326.2003" font-family="Inconsolata" font-size="14.00" fill="#000000">local getdirectories = pl_dir.getdirectories</text>
<text text-anchor="middle" x="802.5" y="-310.8003" font-family="Inconsolata" font-size="14.00" fill="#000000">local makepath = pl_dir.makepath</text>
<text text-anchor="middle" x="802.5" y="-295.4003" font-family="Inconsolata" font-size="14.00" fill="#000000">local extension = pl_path.extension</text>
<text text-anchor="middle" x="802.5" y="-280.0002" font-family="Inconsolata" font-size="14.00" fill="#000000">local dirname = pl_path.dirname</text>
<text text-anchor="middle" x="802.5" y="-264.6002" font-family="Inconsolata" font-size="14.00" fill="#000000">local basename = pl_path.basename</text>
<text text-anchor="middle" x="802.5" y="-249.2002" font-family="Inconsolata" font-size="14.00" fill="#000000">local read = pl_file.read</text>
<text text-anchor="middle" x="802.5" y="-233.8002" font-family="Inconsolata" font-size="14.00" fill="#000000">local write = pl_file.write</text>
<text text-anchor="middle" x="802.5" y="-218.4001" font-family="Inconsolata" font-size="14.00" fill="#000000">local delete = pl_file.delete</text>
<text text-anchor="middle" x="802.5" y="-203.0001" font-family="Inconsolata" font-size="14.00" fill="#000000">local isdir = pl_path.isdir</text>
<text text-anchor="middle" x="802.5" y="-171.6001" font-family="Inconsolata" font-size="14.00" fill="#000000">local epeg = require &quot;epeg&quot;</text>
</g>
<!-- codeblock_5&#45;&gt;leaf_22 -->
<g id="edge22" class="edge">
<title>codeblock_5&#45;&gt;leaf_22</title>
<path fill="none" stroke="#000000" stroke-dasharray="5,2" d="M869.6495,-547.7038C867.37,-540.5748 864.5276,-531.6856 861.31,-521.6228"/>
<polygon fill="#000000" stroke="#000000" points="864.6344,-520.5273 858.2549,-512.0683 857.9669,-522.6593 864.6344,-520.5273"/>
</g>
<!-- leaf_23 -->
<g id="node24" class="node">
<title>leaf_23</title>
<polygon fill="none" stroke="#c0c0c0" points="1250.5,-380.2005 982.5,-380.2005 982.5,-295.2002 1250.5,-295.2002 1250.5,-380.2005"/>
<text text-anchor="middle" x="1116.5" y="-365.0004" font-family="Inconsolata" font-size="14.00" fill="#000000">local Walk = {}</text>
<text text-anchor="middle" x="1116.5" y="-349.6004" font-family="Inconsolata" font-size="14.00" fill="#000000">Walk.Path = require &quot;walk/path&quot;</text>
<text text-anchor="middle" x="1116.5" y="-334.2003" font-family="Inconsolata" font-size="14.00" fill="#000000">Walk.Dir &#160;= require &quot;walk/directory&quot;</text>
<text text-anchor="middle" x="1116.5" y="-318.8003" font-family="Inconsolata" font-size="14.00" fill="#000000">Walk.File = require &quot;walk/file&quot;</text>
<text text-anchor="middle" x="1116.5" y="-303.4003" font-family="Inconsolata" font-size="14.00" fill="#000000">Walk.Codex = require &quot;walk/codex&quot;</text>
</g>
<!-- codeblock_6&#45;&gt;leaf_23 -->
<g id="edge23" class="edge">
<title>codeblock_6&#45;&gt;leaf_23</title>
<path fill="none" stroke="#000000" stroke-dasharray="5,2" d="M1116.5,-547.7038C1116.5,-513.9481 1116.5,-440.7263 1116.5,-390.3255"/>
<polygon fill="#000000" stroke="#000000" points="1120.0001,-390.2539 1116.5,-380.2539 1113.0001,-390.254 1120.0001,-390.2539"/>
</g>
<!-- leaf_24 -->
<g id="node25" class="node">
<title>leaf_24</title>
<polygon fill="none" stroke="#c0c0c0" points="1614,-403.5007 1269,-403.5007 1269,-271.9 1614,-271.9 1614,-403.5007"/>
<text text-anchor="middle" x="1441.5" y="-388.4004" font-family="Inconsolata" font-size="14.00" fill="#000000">function Walk.strHas(substr, str)</text>
<text text-anchor="middle" x="1441.5" y="-373.0004" font-family="Inconsolata" font-size="14.00" fill="#000000"> &#160;&#160;&#160;return L.match(epeg.anyP(substr), str)</text>
<text text-anchor="middle" x="1441.5" y="-357.6004" font-family="Inconsolata" font-size="14.00" fill="#000000">end</text>
<text text-anchor="middle" x="1441.5" y="-326.2003" font-family="Inconsolata" font-size="14.00" fill="#000000">function Walk.endsWith(substr, str)</text>
<text text-anchor="middle" x="1441.5" y="-310.8003" font-family="Inconsolata" font-size="14.00" fill="#000000"> &#160;&#160;&#160;return L.match(L.P(string.reverse(substr)),</text>
<text text-anchor="middle" x="1441.5" y="-295.4003" font-family="Inconsolata" font-size="14.00" fill="#000000"> &#160;&#160;&#160;&#160;&#160;&#160;&#160;string.reverse(str))</text>
<text text-anchor="middle" x="1441.5" y="-280.0002" font-family="Inconsolata" font-size="14.00" fill="#000000">end</text>
</g>
<!-- codeblock_7&#45;&gt;leaf_24 -->
<g id="edge24" class="edge">
<title>codeblock_7&#45;&gt;leaf_24</title>
<path fill="none" stroke="#000000" stroke-dasharray="5,2" d="M1371.5909,-547.7038C1381.2133,-518.7986 1400.4693,-460.9546 1416.3395,-413.2813"/>
<polygon fill="#000000" stroke="#000000" points="1419.7293,-414.1794 1419.5671,-403.5858 1413.0876,-411.9684 1419.7293,-414.1794"/>
</g>
<!-- raw_25 -->
<g id="node26" class="node">
<title>raw_25</title>
<ellipse fill="none" stroke="#000000" cx="1659.5" cy="-337.7003" rx="27" ry="18"/>
<text text-anchor="middle" x="1659.5" y="-333.5003" font-family="Helvetica,sans-Serif" font-size="14.00" fill="#000000">raw</text>
</g>
<!-- prose_8&#45;&gt;raw_25 -->
<g id="edge25" class="edge">
<title>prose_8&#45;&gt;raw_25</title>
<path fill="none" stroke="#000000" stroke-dasharray="5,2" d="M1730.78,-551.6244C1718.7499,-541.8017 1704.0829,-527.7444 1695.5,-512.0006 1669.9663,-465.164 1662.499,-402.2294 1660.3434,-366.2096"/>
<polygon fill="#000000" stroke="#000000" points="1663.8252,-365.7557 1659.8308,-355.9427 1656.8339,-366.1048 1663.8252,-365.7557"/>
</g>
<!-- prespace_26 -->
<g id="node27" class="node">
<title>prespace_26</title>
<ellipse fill="none" stroke="#000000" cx="1750.5" cy="-337.7003" rx="46.4736" ry="18"/>
<text text-anchor="middle" x="1750.5" y="-333.5003" font-family="Helvetica,sans-Serif" font-size="14.00" fill="#000000">prespace</text>
</g>
<!-- prose_8&#45;&gt;prespace_26 -->
<g id="edge26" class="edge">
<title>prose_8&#45;&gt;prespace_26</title>
<path fill="none" stroke="#000000" stroke-dasharray="5,2" d="M1750.5,-547.7038C1750.5,-507.9475 1750.5,-413.4466 1750.5,-365.9603"/>
<polygon fill="#000000" stroke="#000000" points="1754.0001,-365.7674 1750.5,-355.7674 1747.0001,-365.7674 1754.0001,-365.7674"/>
</g>
<!-- literal_27 -->
<g id="node28" class="node">
<title>literal_27</title>
<ellipse fill="none" stroke="#000000" cx="1846.5" cy="-337.7003" rx="31.481" ry="18"/>
<text text-anchor="middle" x="1846.5" y="-333.5003" font-family="Helvetica,sans-Serif" font-size="14.00" fill="#000000">literal</text>
</g>
<!-- prose_8&#45;&gt;literal_27 -->
<g id="edge27" class="edge">
<title>prose_8&#45;&gt;literal_27</title>
<path fill="none" stroke="#000000" stroke-dasharray="5,2" d="M1770.0738,-551.5435C1782.0457,-541.6884 1796.7026,-527.6255 1805.5,-512.0006 1831.8995,-465.1132 1841.3433,-401.9456 1844.6913,-365.9492"/>
<polygon fill="#000000" stroke="#000000" points="1848.2029,-365.9548 1845.5466,-355.6983 1841.2271,-365.3726 1848.2029,-365.9548"/>
</g>
<!-- raw_28 -->
<g id="node29" class="node">
<title>raw_28</title>
<ellipse fill="none" stroke="#000000" cx="1922.5" cy="-337.7003" rx="27" ry="18"/>
<text text-anchor="middle" x="1922.5" y="-333.5003" font-family="Helvetica,sans-Serif" font-size="14.00" fill="#000000">raw</text>
</g>
<!-- prose_8&#45;&gt;raw_28 -->
<g id="edge28" class="edge">
<title>prose_8&#45;&gt;raw_28</title>
<path fill="none" stroke="#000000" stroke-dasharray="5,2" d="M1782.2145,-562.1017C1813.4854,-556.528 1860.2873,-543.232 1886.5,-512.0006 1921.3939,-470.4258 1925.3513,-403.8397 1924.3986,-366.1412"/>
<polygon fill="#000000" stroke="#000000" points="1927.8853,-365.7295 1923.9979,-355.8736 1920.8906,-366.0025 1927.8853,-365.7295"/>
</g>
<!-- leaf_33 -->
<g id="node34" class="node">
<title>leaf_33</title>
<polygon fill="none" stroke="#c0c0c0" points="2523,-434.0008 1968,-434.0008 1968,-241.3998 2523,-241.3998 2523,-434.0008"/>
<text text-anchor="middle" x="2245.5" y="-418.9005" font-family="Inconsolata" font-size="14.00" fill="#000000">function Walk.subLastFor(match, swap, str)</text>
<text text-anchor="middle" x="2245.5" y="-403.5005" font-family="Inconsolata" font-size="14.00" fill="#000000"> &#160;&#160;local trs, hctam = string.reverse(str), string.reverse(match)</text>
<text text-anchor="middle" x="2245.5" y="-388.1005" font-family="Inconsolata" font-size="14.00" fill="#000000"> &#160;&#160;local first, last = Walk.strHas(hctam, trs)</text>
<text text-anchor="middle" x="2245.5" y="-372.7004" font-family="Inconsolata" font-size="14.00" fill="#000000"> &#160;&#160;if last then</text>
<text text-anchor="middle" x="2245.5" y="-357.3004" font-family="Inconsolata" font-size="14.00" fill="#000000"> &#160;&#160;&#160;&#160;&#160;&#45;&#45; There is some way to do this without reversing the string twice,</text>
<text text-anchor="middle" x="2245.5" y="-341.9004" font-family="Inconsolata" font-size="14.00" fill="#000000"> &#160;&#160;&#160;&#160;&#160;&#45;&#45; but I can&#39;t be arsed to find it. ONE BASED INDEXES ARE A MISTAKE</text>
<text text-anchor="middle" x="2245.5" y="-326.5003" font-family="Inconsolata" font-size="14.00" fill="#000000"> &#160;&#160;&#160;&#160;&#160;return string.reverse(trs:sub(1, first &#45; 1)</text>
<text text-anchor="middle" x="2245.5" y="-311.1003" font-family="Inconsolata" font-size="14.00" fill="#000000"> &#160;&#160;&#160;&#160;&#160;&#160;&#160;&#160;&#160;.. string.reverse(swap) .. trs:sub(last, &#45;1))</text>
<text text-anchor="middle" x="2245.5" y="-295.7003" font-family="Inconsolata" font-size="14.00" fill="#000000"> &#160;&#160;else</text>
<text text-anchor="middle" x="2245.5" y="-280.3002" font-family="Inconsolata" font-size="14.00" fill="#000000"> &#160;&#160;&#160;&#160;&#160;s:halt(&quot;didn&#39;t find an instance of &quot; .. match .. &quot; in string: &quot; .. str)</text>
<text text-anchor="middle" x="2245.5" y="-264.9002" font-family="Inconsolata" font-size="14.00" fill="#000000"> &#160;&#160;end</text>
<text text-anchor="middle" x="2245.5" y="-249.5002" font-family="Inconsolata" font-size="14.00" fill="#000000">end</text>
</g>
<!-- codeblock_9&#45;&gt;leaf_33 -->
<g id="edge33" class="edge">
<title>codeblock_9&#45;&gt;leaf_33</title>
<path fill="none" stroke="#000000" stroke-dasharray="5,2" d="M2076.8597,-548.0863C2095.4617,-524.8796 2129.3765,-482.5693 2161.94,-441.945"/>
<polygon fill="#000000" stroke="#000000" points="2164.6912,-444.1087 2168.2148,-434.1169 2159.2294,-439.7306 2164.6912,-444.1087"/>
</g>
<!-- header_34 -->
<g id="node35" class="node">
<title>header_34</title>
<ellipse fill="none" stroke="#000000" cx="2635.5" cy="-337.7003" rx="94.8539" ry="18"/>
<text text-anchor="middle" x="2635.5" y="-333.5003" font-family="Helvetica,sans-Serif" font-size="14.00" fill="#000000">3 : Update on change</text>
</g>
<!-- section_10&#45;&gt;header_34 -->
<g id="edge34" class="edge">
<title>section_10&#45;&gt;header_34</title>
<path fill="none" stroke="#000000" stroke-dasharray="5,2" d="M2766.3215,-548.3672C2758.1787,-537.9894 2747.9287,-524.4894 2739.5,-512.0006 2705.3547,-461.408 2669.8035,-399.482 2650.3811,-364.7216"/>
<polygon fill="#000000" stroke="#000000" points="2653.2654,-362.7068 2645.3452,-355.6697 2647.1483,-366.11 2653.2654,-362.7068"/>
</g>
<!-- prose_35 -->
<g id="node36" class="node">
<title>prose_35</title>
<ellipse fill="none" stroke="#000000" cx="2780.5" cy="-337.7003" rx="32.4585" ry="18"/>
<text text-anchor="middle" x="2780.5" y="-333.5003" font-family="Helvetica,sans-Serif" font-size="14.00" fill="#000000">prose</text>
</g>
<!-- section_10&#45;&gt;prose_35 -->
<g id="edge35" class="edge">
<title>section_10&#45;&gt;prose_35</title>
<path fill="none" stroke="#000000" stroke-dasharray="5,2" d="M2780.5,-547.7038C2780.5,-507.9475 2780.5,-413.4466 2780.5,-365.9603"/>
<polygon fill="#000000" stroke="#000000" points="2784.0001,-365.7674 2780.5,-355.7674 2777.0001,-365.7674 2784.0001,-365.7674"/>
</g>
<!-- codeblock_36 -->
<g id="node37" class="node">
<title>codeblock_36</title>
<ellipse fill="none" stroke="#000000" cx="2956.5" cy="-337.7003" rx="77.4211" ry="18"/>
<text text-anchor="middle" x="2956.5" y="-333.5003" font-family="Helvetica,sans-Serif" font-size="14.00" fill="#000000">code block 73&#45;76</text>
</g>
<!-- section_10&#45;&gt;codeblock_36 -->
<g id="edge36" class="edge">
<title>section_10&#45;&gt;codeblock_36</title>
<path fill="none" stroke="#000000" stroke-dasharray="5,2" d="M2794.3104,-548.0863C2825.2832,-507.9096 2900.3968,-410.4752 2936.4882,-363.6588"/>
<polygon fill="#000000" stroke="#000000" points="2939.4201,-365.5882 2942.7537,-355.5315 2933.8763,-361.3143 2939.4201,-365.5882"/>
</g>
<!-- codeblock_37 -->
<g id="node38" class="node">
<title>codeblock_37</title>
<ellipse fill="none" stroke="#000000" cx="3199.5" cy="-337.7003" rx="77.4211" ry="18"/>
<text text-anchor="middle" x="3199.5" y="-333.5003" font-family="Helvetica,sans-Serif" font-size="14.00" fill="#000000">code block 80&#45;82</text>
</g>
<!-- section_10&#45;&gt;codeblock_37 -->
<g id="edge37" class="edge">
<title>section_10&#45;&gt;codeblock_37</title>
<path fill="none" stroke="#000000" stroke-dasharray="5,2" d="M2839.7985,-558.1638C2906.0918,-548.6438 3008.6028,-531.4276 3042.5,-512.0006 3106.4524,-475.3487 3158.4517,-403.3999 3183.4336,-364.3837"/>
<polygon fill="#000000" stroke="#000000" points="3186.5525,-365.9987 3188.9132,-355.6701 3180.6268,-362.2722 3186.5525,-365.9987"/>
</g>
<!-- leaf_13 -->
<g id="node14" class="node">
<title>leaf_13</title>
<polygon fill="none" stroke="#c0c0c0" points="247,-127.6015 0,-127.6015 0,-71.7985 247,-71.7985 247,-127.6015"/>
<text text-anchor="middle" x="123.5" y="-80.2" font-family="Inconsolata" font-size="14.00" fill="#000000">Contains our filesystem paradigm.</text>
</g>
<!-- raw_12&#45;&gt;leaf_13 -->
<g id="edge13" class="edge">
<title>raw_12&#45;&gt;leaf_13</title>
<path fill="none" stroke="#000000" stroke-dasharray="5,2" d="M261.0655,-319.6169C261.2372,-285.8465 257.3495,-212.2052 223.5,-163.4 215.3029,-151.5812 204.1304,-141.4685 192.2176,-133.0111"/>
<polygon fill="#000000" stroke="#000000" points="194.1342,-130.0823 183.8794,-127.4198 190.2356,-135.8962 194.1342,-130.0823"/>
</g>
<!-- leaf_18 -->
<g id="node19" class="node">
<title>leaf_18</title>
<polygon fill="none" stroke="#c0c0c0" points="400,-119.6021 265,-119.6021 265,-79.7979 400,-79.7979 400,-119.6021"/>
<text text-anchor="middle" x="332.5" y="-88.2" font-family="Inconsolata" font-size="14.00" fill="#000000">This will move to</text>
</g>
<!-- raw_14&#45;&gt;leaf_18 -->
<g id="edge18" class="edge">
<title>raw_14&#45;&gt;leaf_18</title>
<path fill="none" stroke="#000000" stroke-dasharray="5,2" d="M332.5,-319.42C332.5,-278.6539 332.5,-179.9621 332.5,-129.9006"/>
<polygon fill="#000000" stroke="#000000" points="336.0001,-129.7083 332.5,-119.7084 329.0001,-129.7084 336.0001,-129.7083"/>
</g>
<!-- leaf_19 -->
<g id="node20" class="node">
<title>leaf_19</title>
<polygon fill="none" stroke="#c0c0c0" points="472.5,-117.7 418.5,-117.7 418.5,-81.7 472.5,-81.7 472.5,-117.7"/>
<text text-anchor="middle" x="445.5" y="-96.2" font-family="Inconsolata" font-size="14.00" fill="#000000"> </text>
</g>
<!-- prespace_15&#45;&gt;leaf_19 -->
<g id="edge19" class="edge">
<title>prespace_15&#45;&gt;leaf_19</title>
<path fill="none" stroke="#000000" stroke-dasharray="5,2" d="M425.1898,-319.42C429.0143,-278.0455 438.3543,-177.0032 442.9125,-127.6919"/>
<polygon fill="#000000" stroke="#000000" points="446.3992,-127.9966 443.8346,-117.7168 439.4289,-127.3522 446.3992,-127.9966"/>
</g>
<!-- leaf_20 -->
<g id="node21" class="node">
<title>leaf_20</title>
<polygon fill="none" stroke="#c0c0c0" points="548.5,-117.7 490.5,-117.7 490.5,-81.7 548.5,-81.7 548.5,-117.7"/>
<text text-anchor="middle" x="519.5" y="-96.2" font-family="Inconsolata" font-size="14.00" fill="#000000">bridge</text>
</g>
<!-- literal_16&#45;&gt;leaf_20 -->
<g id="edge20" class="edge">
<title>literal_16&#45;&gt;leaf_20</title>
<path fill="none" stroke="#000000" stroke-dasharray="5,2" d="M519.5,-319.42C519.5,-278.1322 519.5,-177.4266 519.5,-128.0028"/>
<polygon fill="#000000" stroke="#000000" points="523.0001,-127.7168 519.5,-117.7168 516.0001,-127.7168 523.0001,-127.7168"/>
</g>
<!-- leaf_21 -->
<g id="node22" class="node">
<title>leaf_21</title>
<polygon fill="none" stroke="#c0c0c0" points="1066,-119.0006 567,-119.0006 567,-80.3994 1066,-80.3994 1066,-119.0006"/>
<text text-anchor="middle" x="816.5" y="-103.9" font-family="Inconsolata" font-size="14.00" fill="#000000"> relatively soon, where we can work out the ways</text>
<text text-anchor="middle" x="816.5" y="-88.5" font-family="Inconsolata" font-size="14.00" fill="#000000">that bridgetools interact with codex and non&#45;codex directory systems.</text>
</g>
<!-- raw_17&#45;&gt;leaf_21 -->
<g id="edge21" class="edge">
<title>raw_17&#45;&gt;leaf_21</title>
<path fill="none" stroke="#000000" stroke-dasharray="5,2" d="M593.8284,-319.6335C591.6507,-284.9027 592.0112,-208.2939 631.5,-163.4 644.8683,-148.2019 685.8817,-133.3494 725.9043,-121.8144"/>
<polygon fill="#000000" stroke="#000000" points="727.0947,-125.1152 735.768,-119.0304 725.1932,-118.3784 727.0947,-125.1152"/>
</g>
<!-- leaf_29 -->
<g id="node30" class="node">
<title>leaf_29</title>
<polygon fill="none" stroke="#c0c0c0" points="1711.5,-127.0004 1275.5,-127.0004 1275.5,-72.3996 1711.5,-72.3996 1711.5,-127.0004"/>
<text text-anchor="middle" x="1493.5" y="-95.9" font-family="Inconsolata" font-size="14.00" fill="#000000">Finds the last match for a literal substring and replaces it</text>
<text text-anchor="middle" x="1493.5" y="-80.5" font-family="Inconsolata" font-size="14.00" fill="#000000">with</text>
</g>
<!-- raw_25&#45;&gt;leaf_29 -->
<g id="edge29" class="edge">
<title>raw_25&#45;&gt;leaf_29</title>
<path fill="none" stroke="#000000" stroke-dasharray="5,2" d="M1660.5447,-319.5269C1661.5489,-285.2815 1659.0412,-210.4199 1622.5,-163.4 1612.6632,-150.7424 1599.6508,-140.4278 1585.6733,-132.0768"/>
<polygon fill="#000000" stroke="#000000" points="1587.2979,-128.975 1576.8654,-127.1276 1583.8688,-135.0776 1587.2979,-128.975"/>
</g>
<!-- leaf_30 -->
<g id="node31" class="node">
<title>leaf_30</title>
<polygon fill="none" stroke="#c0c0c0" points="1783.5,-117.7 1729.5,-117.7 1729.5,-81.7 1783.5,-81.7 1783.5,-117.7"/>
<text text-anchor="middle" x="1756.5" y="-96.2" font-family="Inconsolata" font-size="14.00" fill="#000000"> </text>
</g>
<!-- prespace_26&#45;&gt;leaf_30 -->
<g id="edge30" class="edge">
<title>prespace_26&#45;&gt;leaf_30</title>
<path fill="none" stroke="#000000" stroke-dasharray="5,2" d="M1750.9608,-319.42C1752.0017,-278.1322 1754.5405,-177.4266 1755.7865,-128.0028"/>
<polygon fill="#000000" stroke="#000000" points="1759.2926,-127.8019 1756.0458,-117.7168 1752.2948,-127.6254 1759.2926,-127.8019"/>
</g>
<!-- leaf_31 -->
<g id="node32" class="node">
<title>leaf_31</title>
<polygon fill="none" stroke="#c0c0c0" points="1861.5,-117.7 1807.5,-117.7 1807.5,-81.7 1861.5,-81.7 1861.5,-117.7"/>
<text text-anchor="middle" x="1834.5" y="-96.2" font-family="Inconsolata" font-size="14.00" fill="#000000">swap</text>
</g>
<!-- literal_27&#45;&gt;leaf_31 -->
<g id="edge31" class="edge">
<title>literal_27&#45;&gt;leaf_31</title>
<path fill="none" stroke="#000000" stroke-dasharray="5,2" d="M1845.5783,-319.42C1843.4966,-278.1322 1838.419,-177.4266 1835.927,-128.0028"/>
<polygon fill="#000000" stroke="#000000" points="1839.4076,-127.5278 1835.4084,-117.7168 1832.4165,-127.8804 1839.4076,-127.5278"/>
</g>
<!-- leaf_32 -->
<g id="node33" class="node">
<title>leaf_32</title>
<polygon fill="none" stroke="#c0c0c0" points="2085,-117.7 1880,-117.7 1880,-81.7 2085,-81.7 2085,-117.7"/>
<text text-anchor="middle" x="1982.5" y="-96.2" font-family="Inconsolata" font-size="14.00" fill="#000000">, returning the new string.</text>
</g>
<!-- raw_28&#45;&gt;leaf_32 -->
<g id="edge32" class="edge">
<title>raw_28&#45;&gt;leaf_32</title>
<path fill="none" stroke="#000000" stroke-dasharray="5,2" d="M1925.2675,-319.6592C1930.3715,-287.7651 1942.2489,-219.4928 1958.5,-163.4 1961.9746,-151.4069 1966.6693,-138.4628 1970.985,-127.3957"/>
<polygon fill="#000000" stroke="#000000" points="1974.3422,-128.4259 1974.7961,-117.8408 1967.8403,-125.8325 1974.3422,-128.4259"/>
</g>
<!-- leaf_38 -->
<g id="node39" class="node">
<title>leaf_38</title>
<polygon fill="none" stroke="#c0c0c0" points="2689.5,-117.7 2533.5,-117.7 2533.5,-81.7 2689.5,-81.7 2689.5,-117.7"/>
<text text-anchor="middle" x="2611.5" y="-96.2" font-family="Inconsolata" font-size="14.00" fill="#000000">*** Update on change</text>
</g>
<!-- header_34&#45;&gt;leaf_38 -->
<g id="edge38" class="edge">
<title>header_34&#45;&gt;leaf_38</title>
<path fill="none" stroke="#000000" stroke-dasharray="5,2" d="M2633.6566,-319.42C2629.4844,-278.0455 2619.2953,-177.0032 2614.3227,-127.6919"/>
<polygon fill="#000000" stroke="#000000" points="2617.8026,-127.3152 2613.3168,-117.7168 2610.8379,-128.0175 2617.8026,-127.3152"/>
</g>
<!-- raw_39 -->
<g id="node40" class="node">
<title>raw_39</title>
<ellipse fill="none" stroke="#000000" cx="2734.5" cy="-99.7" rx="27" ry="18"/>
<text text-anchor="middle" x="2734.5" y="-95.5" font-family="Helvetica,sans-Serif" font-size="14.00" fill="#000000">raw</text>
</g>
<!-- prose_35&#45;&gt;raw_39 -->
<g id="edge39" class="edge">
<title>prose_35&#45;&gt;raw_39</title>
<path fill="none" stroke="#000000" stroke-dasharray="5,2" d="M2776.9668,-319.42C2768.9701,-278.0455 2749.4409,-177.0032 2739.9102,-127.6919"/>
<polygon fill="#000000" stroke="#000000" points="2743.3164,-126.8709 2737.9822,-117.7168 2736.4436,-128.1993 2743.3164,-126.8709"/>
</g>
<!-- leaf_41 -->
<g id="node42" class="node">
<title>leaf_41</title>
<polygon fill="none" stroke="#c0c0c0" points="3181,-119.6021 2780,-119.6021 2780,-79.7979 3181,-79.7979 3181,-119.6021"/>
<text text-anchor="middle" x="2980.5" y="-88.2" font-family="Inconsolata" font-size="14.00" fill="#000000">Walk.writeOnChange = (require &quot;walk/ops&quot;).writeOnChange</text>
</g>
<!-- codeblock_36&#45;&gt;leaf_41 -->
<g id="edge41" class="edge">
<title>codeblock_36&#45;&gt;leaf_41</title>
<path fill="none" stroke="#000000" stroke-dasharray="5,2" d="M2958.3434,-319.42C2962.4543,-278.6539 2972.4064,-179.9621 2977.4546,-129.9006"/>
<polygon fill="#000000" stroke="#000000" points="2980.9613,-130.0091 2978.4824,-119.7084 2973.9966,-129.3067 2980.9613,-130.0091"/>
</g>
<!-- leaf_42 -->
<g id="node43" class="node">
<title>leaf_42</title>
<polygon fill="none" stroke="#c0c0c0" points="3292,-117.7 3199,-117.7 3199,-81.7 3292,-81.7 3292,-117.7"/>
<text text-anchor="middle" x="3245.5" y="-96.2" font-family="Inconsolata" font-size="14.00" fill="#000000">return Walk</text>
</g>
<!-- codeblock_37&#45;&gt;leaf_42 -->
<g id="edge42" class="edge">
<title>codeblock_37&#45;&gt;leaf_42</title>
<path fill="none" stroke="#000000" stroke-dasharray="5,2" d="M3203.0332,-319.42C3211.0299,-278.0455 3230.5591,-177.0032 3240.0898,-127.6919"/>
<polygon fill="#000000" stroke="#000000" points="3243.5564,-128.1993 3242.0178,-117.7168 3236.6836,-126.8709 3243.5564,-128.1993"/>
</g>
<!-- leaf_40 -->
<g id="node41" class="node">
<title>leaf_40</title>
<polygon fill="none" stroke="#c0c0c0" points="2761.5,-36 2707.5,-36 2707.5,0 2761.5,0 2761.5,-36"/>
</g>
<!-- raw_39&#45;&gt;leaf_40 -->
<g id="edge40" class="edge">
<title>raw_39&#45;&gt;leaf_40</title>
<path fill="none" stroke="#000000" stroke-dasharray="5,2" d="M2734.5,-81.5681C2734.5,-71.2023 2734.5,-57.9747 2734.5,-46.2729"/>
<polygon fill="#000000" stroke="#000000" points="2738.0001,-46.0812 2734.5,-36.0812 2731.0001,-46.0812 2738.0001,-46.0812"/>
</g>
</g>
</svg>
