<?xml version="1.0" encoding="UTF-8" standalone="no"?>
<!DOCTYPE svg PUBLIC "-//W3C//DTD SVG 1.1//EN"
 "http://www.w3.org/Graphics/SVG/1.1/DTD/svg11.dtd">
<!-- Generated by graphviz version 2.40.1 (20161225.0304)
 -->
<!-- Title: hierarchy Pages: 1 -->
<svg width="4080pt" height="906pt"
 viewBox="0.00 0.00 4080.00 906.00" xmlns="http://www.w3.org/2000/svg" xmlns:xlink="http://www.w3.org/1999/xlink">
<g id="graph0" class="graph" transform="scale(1 1) rotate(0) translate(4 902.0009)">
<title>hierarchy</title>
<polygon fill="#ffffff" stroke="transparent" points="-4,4 -4,-902.0009 4076,-902.0009 4076,4 -4,4"/>
<!-- doc_0 -->
<g id="node1" class="node">
<title>doc_0</title>
<ellipse fill="none" stroke="#000000" cx="1411.5" cy="-880.0009" rx="42.1216" ry="18"/>
<text text-anchor="middle" x="1411.5" y="-875.8009" font-family="Helvetica,sans-Serif" font-size="14.00" fill="#000000">doc &#45; 89</text>
</g>
<!-- section_1 -->
<g id="node2" class="node">
<title>section_1</title>
<ellipse fill="none" stroke="#000000" cx="1411.5" cy="-808.0009" rx="60.9826" ry="18"/>
<text text-anchor="middle" x="1411.5" y="-803.8009" font-family="Helvetica,sans-Serif" font-size="14.00" fill="#000000">section: 1&#45;46</text>
</g>
<!-- doc_0&#45;&gt;section_1 -->
<g id="edge1" class="edge">
<title>doc_0&#45;&gt;section_1</title>
<path fill="none" stroke="#000000" stroke-dasharray="5,2" d="M1411.5,-861.8323C1411.5,-854.1319 1411.5,-844.9753 1411.5,-836.4176"/>
<polygon fill="#000000" stroke="#000000" points="1415.0001,-836.4142 1411.5,-826.4142 1408.0001,-836.4142 1415.0001,-836.4142"/>
</g>
<!-- header_2 -->
<g id="node3" class="node">
<title>header_2</title>
<ellipse fill="none" stroke="#000000" cx="1117.5" cy="-736.0009" rx="79.3333" ry="18"/>
<text text-anchor="middle" x="1117.5" y="-731.8009" font-family="Helvetica,sans-Serif" font-size="14.00" fill="#000000">1 : Knitter Module</text>
</g>
<!-- section_1&#45;&gt;header_2 -->
<g id="edge2" class="edge">
<title>section_1&#45;&gt;header_2</title>
<path fill="none" stroke="#000000" stroke-dasharray="5,2" d="M1364.5897,-796.5127C1315.065,-784.3842 1236.6758,-765.1868 1181.4968,-751.6736"/>
<polygon fill="#000000" stroke="#000000" points="1182.0215,-748.1988 1171.4759,-749.2195 1180.3564,-754.9978 1182.0215,-748.1988"/>
</g>
<!-- prose_3 -->
<g id="node4" class="node">
<title>prose_3</title>
<ellipse fill="none" stroke="#000000" cx="1247.5" cy="-736.0009" rx="32.4585" ry="18"/>
<text text-anchor="middle" x="1247.5" y="-731.8009" font-family="Helvetica,sans-Serif" font-size="14.00" fill="#000000">prose</text>
</g>
<!-- section_1&#45;&gt;prose_3 -->
<g id="edge3" class="edge">
<title>section_1&#45;&gt;prose_3</title>
<path fill="none" stroke="#000000" stroke-dasharray="5,2" d="M1377.1202,-792.9074C1349.3097,-780.6979 1310.3158,-763.5786 1282.3739,-751.3114"/>
<polygon fill="#000000" stroke="#000000" points="1283.5513,-748.0059 1272.9879,-747.1907 1280.7374,-754.4155 1283.5513,-748.0059"/>
</g>
<!-- prose_4 -->
<g id="node5" class="node">
<title>prose_4</title>
<ellipse fill="none" stroke="#000000" cx="1329.5" cy="-736.0009" rx="32.4585" ry="18"/>
<text text-anchor="middle" x="1329.5" y="-731.8009" font-family="Helvetica,sans-Serif" font-size="14.00" fill="#000000">prose</text>
</g>
<!-- section_1&#45;&gt;prose_4 -->
<g id="edge4" class="edge">
<title>section_1&#45;&gt;prose_4</title>
<path fill="none" stroke="#000000" stroke-dasharray="5,2" d="M1392.0671,-790.9379C1380.8006,-781.0453 1366.4965,-768.4857 1354.4098,-757.873"/>
<polygon fill="#000000" stroke="#000000" points="1356.6653,-755.1956 1346.8415,-751.2276 1352.0466,-760.4557 1356.6653,-755.1956"/>
</g>
<!-- prose_5 -->
<g id="node6" class="node">
<title>prose_5</title>
<ellipse fill="none" stroke="#000000" cx="1411.5" cy="-736.0009" rx="32.4585" ry="18"/>
<text text-anchor="middle" x="1411.5" y="-731.8009" font-family="Helvetica,sans-Serif" font-size="14.00" fill="#000000">prose</text>
</g>
<!-- section_1&#45;&gt;prose_5 -->
<g id="edge5" class="edge">
<title>section_1&#45;&gt;prose_5</title>
<path fill="none" stroke="#000000" stroke-dasharray="5,2" d="M1411.5,-789.8323C1411.5,-782.1319 1411.5,-772.9753 1411.5,-764.4176"/>
<polygon fill="#000000" stroke="#000000" points="1415.0001,-764.4142 1411.5,-754.4142 1408.0001,-764.4142 1415.0001,-764.4142"/>
</g>
<!-- section_6 -->
<g id="node7" class="node">
<title>section_6</title>
<ellipse fill="none" stroke="#000000" cx="1701.5" cy="-736.0009" rx="65.8187" ry="18"/>
<text text-anchor="middle" x="1701.5" y="-731.8009" font-family="Helvetica,sans-Serif" font-size="14.00" fill="#000000">section: 14&#45;25</text>
</g>
<!-- section_1&#45;&gt;section_6 -->
<g id="edge6" class="edge">
<title>section_1&#45;&gt;section_6</title>
<path fill="none" stroke="#000000" stroke-dasharray="5,2" d="M1458.0935,-796.4329C1508.2861,-783.9713 1588.2651,-764.1144 1642.7385,-750.59"/>
<polygon fill="#000000" stroke="#000000" points="1643.7381,-753.9481 1652.6001,-748.1416 1642.0514,-747.1544 1643.7381,-753.9481"/>
</g>
<!-- section_7 -->
<g id="node8" class="node">
<title>section_7</title>
<ellipse fill="none" stroke="#000000" cx="2163.5" cy="-736.0009" rx="65.8187" ry="18"/>
<text text-anchor="middle" x="2163.5" y="-731.8009" font-family="Helvetica,sans-Serif" font-size="14.00" fill="#000000">section: 26&#45;46</text>
</g>
<!-- section_1&#45;&gt;section_7 -->
<g id="edge7" class="edge">
<title>section_1&#45;&gt;section_7</title>
<path fill="none" stroke="#000000" stroke-dasharray="5,2" d="M1469.5706,-802.441C1605.1536,-789.4596 1942.3033,-757.1793 2091.0387,-742.9387"/>
<polygon fill="#000000" stroke="#000000" points="2091.7958,-746.3823 2101.4167,-741.9451 2091.1286,-739.4142 2091.7958,-746.3823"/>
</g>
<!-- section_8 -->
<g id="node9" class="node">
<title>section_8</title>
<ellipse fill="none" stroke="#000000" cx="3310.5" cy="-736.0009" rx="65.8187" ry="18"/>
<text text-anchor="middle" x="3310.5" y="-731.8009" font-family="Helvetica,sans-Serif" font-size="14.00" fill="#000000">section: 47&#45;89</text>
</g>
<!-- section_1&#45;&gt;section_8 -->
<g id="edge8" class="edge">
<title>section_1&#45;&gt;section_8</title>
<path fill="none" stroke="#000000" stroke-dasharray="5,2" d="M1472,-805.7071C1752.4026,-795.0757 2925.0401,-750.6155 3235.0526,-738.8615"/>
<polygon fill="#000000" stroke="#000000" points="3235.4194,-742.3502 3245.2796,-738.4737 3235.1541,-735.3552 3235.4194,-742.3502"/>
</g>
<!-- leaf_9 -->
<g id="node10" class="node">
<title>leaf_9</title>
<polygon fill="none" stroke="#c0c0c0" points="1185,-682.0009 1050,-682.0009 1050,-646.0009 1185,-646.0009 1185,-682.0009"/>
<text text-anchor="middle" x="1117.5" y="-660.501" font-family="Inconsolata" font-size="14.00" fill="#000000"> * Knitter Module</text>
</g>
<!-- header_2&#45;&gt;leaf_9 -->
<g id="edge9" class="edge">
<title>header_2&#45;&gt;leaf_9</title>
<path fill="none" stroke="#000000" stroke-dasharray="5,2" d="M1117.5,-717.8323C1117.5,-710.1319 1117.5,-700.9753 1117.5,-692.4176"/>
<polygon fill="#000000" stroke="#000000" points="1121.0001,-692.4142 1117.5,-682.4142 1114.0001,-692.4142 1121.0001,-692.4142"/>
</g>
<!-- raw_10 -->
<g id="node11" class="node">
<title>raw_10</title>
<ellipse fill="none" stroke="#000000" cx="1238.5" cy="-664.0009" rx="27" ry="18"/>
<text text-anchor="middle" x="1238.5" y="-659.8009" font-family="Helvetica,sans-Serif" font-size="14.00" fill="#000000">raw</text>
</g>
<!-- prose_3&#45;&gt;raw_10 -->
<g id="edge10" class="edge">
<title>prose_3&#45;&gt;raw_10</title>
<path fill="none" stroke="#000000" stroke-dasharray="5,2" d="M1245.2289,-717.8323C1244.2664,-710.1319 1243.1218,-700.9753 1242.0521,-692.4176"/>
<polygon fill="#000000" stroke="#000000" points="1245.5151,-691.9028 1240.8017,-682.4142 1238.5691,-692.7711 1245.5151,-691.9028"/>
</g>
<!-- raw_12 -->
<g id="node13" class="node">
<title>raw_12</title>
<ellipse fill="none" stroke="#000000" cx="1319.5" cy="-664.0009" rx="27" ry="18"/>
<text text-anchor="middle" x="1319.5" y="-659.8009" font-family="Helvetica,sans-Serif" font-size="14.00" fill="#000000">raw</text>
</g>
<!-- prose_4&#45;&gt;raw_12 -->
<g id="edge12" class="edge">
<title>prose_4&#45;&gt;raw_12</title>
<path fill="none" stroke="#000000" stroke-dasharray="5,2" d="M1326.9766,-717.8323C1325.9071,-710.1319 1324.6353,-700.9753 1323.4468,-692.4176"/>
<polygon fill="#000000" stroke="#000000" points="1326.8999,-691.8376 1322.0574,-682.4142 1319.9664,-692.8006 1326.8999,-691.8376"/>
</g>
<!-- raw_14 -->
<g id="node15" class="node">
<title>raw_14</title>
<ellipse fill="none" stroke="#000000" cx="1401.5" cy="-664.0009" rx="27" ry="18"/>
<text text-anchor="middle" x="1401.5" y="-659.8009" font-family="Helvetica,sans-Serif" font-size="14.00" fill="#000000">raw</text>
</g>
<!-- prose_5&#45;&gt;raw_14 -->
<g id="edge14" class="edge">
<title>prose_5&#45;&gt;raw_14</title>
<path fill="none" stroke="#000000" stroke-dasharray="5,2" d="M1408.9766,-717.8323C1407.9071,-710.1319 1406.6353,-700.9753 1405.4468,-692.4176"/>
<polygon fill="#000000" stroke="#000000" points="1408.8999,-691.8376 1404.0574,-682.4142 1401.9664,-692.8006 1408.8999,-691.8376"/>
</g>
<!-- header_16 -->
<g id="node17" class="node">
<title>header_16</title>
<ellipse fill="none" stroke="#000000" cx="1594.5" cy="-664.0009" rx="56.6492" ry="18"/>
<text text-anchor="middle" x="1594.5" y="-659.8009" font-family="Helvetica,sans-Serif" font-size="14.00" fill="#000000">3 : An Aside</text>
</g>
<!-- section_6&#45;&gt;header_16 -->
<g id="edge16" class="edge">
<title>section_6&#45;&gt;header_16</title>
<path fill="none" stroke="#000000" stroke-dasharray="5,2" d="M1676.6831,-719.3017C1661.9938,-709.4173 1643.2086,-696.7768 1627.3068,-686.0765"/>
<polygon fill="#000000" stroke="#000000" points="1629.064,-683.0403 1618.8134,-680.3614 1625.156,-688.8479 1629.064,-683.0403"/>
</g>
<!-- prose_17 -->
<g id="node18" class="node">
<title>prose_17</title>
<ellipse fill="none" stroke="#000000" cx="1701.5" cy="-664.0009" rx="32.4585" ry="18"/>
<text text-anchor="middle" x="1701.5" y="-659.8009" font-family="Helvetica,sans-Serif" font-size="14.00" fill="#000000">prose</text>
</g>
<!-- section_6&#45;&gt;prose_17 -->
<g id="edge17" class="edge">
<title>section_6&#45;&gt;prose_17</title>
<path fill="none" stroke="#000000" stroke-dasharray="5,2" d="M1701.5,-717.8323C1701.5,-710.1319 1701.5,-700.9753 1701.5,-692.4176"/>
<polygon fill="#000000" stroke="#000000" points="1705.0001,-692.4142 1701.5,-682.4142 1698.0001,-692.4142 1705.0001,-692.4142"/>
</g>
<!-- prose_18 -->
<g id="node19" class="node">
<title>prose_18</title>
<ellipse fill="none" stroke="#000000" cx="1783.5" cy="-664.0009" rx="32.4585" ry="18"/>
<text text-anchor="middle" x="1783.5" y="-659.8009" font-family="Helvetica,sans-Serif" font-size="14.00" fill="#000000">prose</text>
</g>
<!-- section_6&#45;&gt;prose_18 -->
<g id="edge18" class="edge">
<title>section_6&#45;&gt;prose_18</title>
<path fill="none" stroke="#000000" stroke-dasharray="5,2" d="M1721.3499,-718.5717C1732.4412,-708.833 1746.3761,-696.5975 1758.2387,-686.1816"/>
<polygon fill="#000000" stroke="#000000" points="1760.8546,-688.5424 1766.0597,-679.3143 1756.236,-683.2823 1760.8546,-688.5424"/>
</g>
<!-- prose_19 -->
<g id="node20" class="node">
<title>prose_19</title>
<ellipse fill="none" stroke="#000000" cx="1865.5" cy="-664.0009" rx="32.4585" ry="18"/>
<text text-anchor="middle" x="1865.5" y="-659.8009" font-family="Helvetica,sans-Serif" font-size="14.00" fill="#000000">prose</text>
</g>
<!-- section_6&#45;&gt;prose_19 -->
<g id="edge19" class="edge">
<title>section_6&#45;&gt;prose_19</title>
<path fill="none" stroke="#000000" stroke-dasharray="5,2" d="M1736.2802,-720.7316C1764.12,-708.5092 1802.9754,-691.4508 1830.7953,-679.2372"/>
<polygon fill="#000000" stroke="#000000" points="1832.3897,-682.3597 1840.1391,-675.135 1829.5757,-675.9502 1832.3897,-682.3597"/>
</g>
<!-- header_27 -->
<g id="node28" class="node">
<title>header_27</title>
<ellipse fill="none" stroke="#000000" cx="2063.5" cy="-664.0009" rx="49.8481" ry="18"/>
<text text-anchor="middle" x="2063.5" y="-659.8009" font-family="Helvetica,sans-Serif" font-size="14.00" fill="#000000">2 : Design</text>
</g>
<!-- section_7&#45;&gt;header_27 -->
<g id="edge27" class="edge">
<title>section_7&#45;&gt;header_27</title>
<path fill="none" stroke="#000000" stroke-dasharray="5,2" d="M2140.0544,-719.1201C2126.4459,-709.3219 2109.1401,-696.8618 2094.4266,-686.2681"/>
<polygon fill="#000000" stroke="#000000" points="2096.271,-683.2832 2086.1105,-680.2805 2092.1808,-688.964 2096.271,-683.2832"/>
</g>
<!-- prose_28 -->
<g id="node29" class="node">
<title>prose_28</title>
<ellipse fill="none" stroke="#000000" cx="2163.5" cy="-664.0009" rx="32.4585" ry="18"/>
<text text-anchor="middle" x="2163.5" y="-659.8009" font-family="Helvetica,sans-Serif" font-size="14.00" fill="#000000">prose</text>
</g>
<!-- section_7&#45;&gt;prose_28 -->
<g id="edge28" class="edge">
<title>section_7&#45;&gt;prose_28</title>
<path fill="none" stroke="#000000" stroke-dasharray="5,2" d="M2163.5,-717.8323C2163.5,-710.1319 2163.5,-700.9753 2163.5,-692.4176"/>
<polygon fill="#000000" stroke="#000000" points="2167.0001,-692.4142 2163.5,-682.4142 2160.0001,-692.4142 2167.0001,-692.4142"/>
</g>
<!-- prose_29 -->
<g id="node30" class="node">
<title>prose_29</title>
<ellipse fill="none" stroke="#000000" cx="2245.5" cy="-664.0009" rx="32.4585" ry="18"/>
<text text-anchor="middle" x="2245.5" y="-659.8009" font-family="Helvetica,sans-Serif" font-size="14.00" fill="#000000">prose</text>
</g>
<!-- section_7&#45;&gt;prose_29 -->
<g id="edge29" class="edge">
<title>section_7&#45;&gt;prose_29</title>
<path fill="none" stroke="#000000" stroke-dasharray="5,2" d="M2183.3499,-718.5717C2194.4412,-708.833 2208.3761,-696.5975 2220.2387,-686.1816"/>
<polygon fill="#000000" stroke="#000000" points="2222.8546,-688.5424 2228.0597,-679.3143 2218.236,-683.2823 2222.8546,-688.5424"/>
</g>
<!-- codeblock_30 -->
<g id="node31" class="node">
<title>codeblock_30</title>
<ellipse fill="none" stroke="#000000" cx="2384.5" cy="-664.0009" rx="77.4211" ry="18"/>
<text text-anchor="middle" x="2384.5" y="-659.8009" font-family="Helvetica,sans-Serif" font-size="14.00" fill="#000000">code block 41&#45;45</text>
</g>
<!-- section_7&#45;&gt;codeblock_30 -->
<g id="edge30" class="edge">
<title>section_7&#45;&gt;codeblock_30</title>
<path fill="none" stroke="#000000" stroke-dasharray="5,2" d="M2205.8495,-722.2038C2240.9406,-710.7714 2291.0755,-694.4379 2329.3078,-681.9821"/>
<polygon fill="#000000" stroke="#000000" points="2330.829,-685.1676 2339.2529,-678.7421 2328.6606,-678.512 2330.829,-685.1676"/>
</g>
<!-- header_37 -->
<g id="node38" class="node">
<title>header_37</title>
<ellipse fill="none" stroke="#000000" cx="3151.5" cy="-664.0009" rx="68.2239" ry="18"/>
<text text-anchor="middle" x="3151.5" y="-659.8009" font-family="Helvetica,sans-Serif" font-size="14.00" fill="#000000">2 : knit method</text>
</g>
<!-- section_8&#45;&gt;header_37 -->
<g id="edge37" class="edge">
<title>section_8&#45;&gt;header_37</title>
<path fill="none" stroke="#000000" stroke-dasharray="5,2" d="M3276.3905,-720.5551C3252.6601,-709.8093 3220.8152,-695.389 3195.2215,-683.7994"/>
<polygon fill="#000000" stroke="#000000" points="3196.6551,-680.6064 3186.1017,-679.6696 3193.7675,-686.9831 3196.6551,-680.6064"/>
</g>
<!-- prose_38 -->
<g id="node39" class="node">
<title>prose_38</title>
<ellipse fill="none" stroke="#000000" cx="3269.5" cy="-664.0009" rx="32.4585" ry="18"/>
<text text-anchor="middle" x="3269.5" y="-659.8009" font-family="Helvetica,sans-Serif" font-size="14.00" fill="#000000">prose</text>
</g>
<!-- section_8&#45;&gt;prose_38 -->
<g id="edge38" class="edge">
<title>section_8&#45;&gt;prose_38</title>
<path fill="none" stroke="#000000" stroke-dasharray="5,2" d="M3300.3652,-718.2032C3295.5632,-709.7705 3289.7315,-699.5295 3284.4358,-690.2297"/>
<polygon fill="#000000" stroke="#000000" points="3287.3667,-688.3034 3279.3768,-681.3455 3281.2838,-691.7673 3287.3667,-688.3034"/>
</g>
<!-- prose_39 -->
<g id="node40" class="node">
<title>prose_39</title>
<ellipse fill="none" stroke="#000000" cx="3351.5" cy="-664.0009" rx="32.4585" ry="18"/>
<text text-anchor="middle" x="3351.5" y="-659.8009" font-family="Helvetica,sans-Serif" font-size="14.00" fill="#000000">prose</text>
</g>
<!-- section_8&#45;&gt;prose_39 -->
<g id="edge39" class="edge">
<title>section_8&#45;&gt;prose_39</title>
<path fill="none" stroke="#000000" stroke-dasharray="5,2" d="M3320.6348,-718.2032C3325.4368,-709.7705 3331.2685,-699.5295 3336.5642,-690.2297"/>
<polygon fill="#000000" stroke="#000000" points="3339.7162,-691.7673 3341.6232,-681.3455 3333.6333,-688.3034 3339.7162,-691.7673"/>
</g>
<!-- prose_40 -->
<g id="node41" class="node">
<title>prose_40</title>
<ellipse fill="none" stroke="#000000" cx="3433.5" cy="-664.0009" rx="32.4585" ry="18"/>
<text text-anchor="middle" x="3433.5" y="-659.8009" font-family="Helvetica,sans-Serif" font-size="14.00" fill="#000000">prose</text>
</g>
<!-- section_8&#45;&gt;prose_40 -->
<g id="edge40" class="edge">
<title>section_8&#45;&gt;prose_40</title>
<path fill="none" stroke="#000000" stroke-dasharray="5,2" d="M3338.4106,-719.663C3357.3791,-708.5595 3382.4972,-693.8562 3402.1539,-682.3499"/>
<polygon fill="#000000" stroke="#000000" points="3404.174,-685.223 3411.036,-677.1506 3400.6377,-679.1819 3404.174,-685.223"/>
</g>
<!-- codeblock_41 -->
<g id="node42" class="node">
<title>codeblock_41</title>
<ellipse fill="none" stroke="#000000" cx="3618.5" cy="-664.0009" rx="77.4211" ry="18"/>
<text text-anchor="middle" x="3618.5" y="-659.8009" font-family="Helvetica,sans-Serif" font-size="14.00" fill="#000000">code block 61&#45;88</text>
</g>
<!-- section_8&#45;&gt;codeblock_41 -->
<g id="edge41" class="edge">
<title>section_8&#45;&gt;codeblock_41</title>
<path fill="none" stroke="#000000" stroke-dasharray="5,2" d="M3360.671,-724.2726C3413.2542,-711.9805 3496.0676,-692.6215 3553.5961,-679.1733"/>
<polygon fill="#000000" stroke="#000000" points="3554.7322,-682.5021 3563.6729,-676.8177 3553.1387,-675.6859 3554.7322,-682.5021"/>
</g>
<!-- leaf_11 -->
<g id="node12" class="node">
<title>leaf_11</title>
<polygon fill="none" stroke="#c0c0c0" points="513,-454.9015 0,-454.9015 0,-353.6997 513,-353.6997 513,-454.9015"/>
<text text-anchor="middle" x="256.5" y="-407.9007" font-family="Inconsolata" font-size="14.00" fill="#000000"> &#160;&#160;A knitter is the actor responsible for knitting together our source</text>
<text text-anchor="middle" x="256.5" y="-392.5006" font-family="Inconsolata" font-size="14.00" fill="#000000"> code. &#160;They are defined by language, which is to say that the unit of </text>
<text text-anchor="middle" x="256.5" y="-377.1006" font-family="Inconsolata" font-size="14.00" fill="#000000"> action is not a runtime or document, knitters will expand to be </text>
<text text-anchor="middle" x="256.5" y="-361.7006" font-family="Inconsolata" font-size="14.00" fill="#000000"> responsible for an arbitrary number of these.</text>
</g>
<!-- raw_10&#45;&gt;leaf_11 -->
<g id="edge11" class="edge">
<title>raw_10&#45;&gt;leaf_11</title>
<path fill="none" stroke="#000000" stroke-dasharray="5,2" d="M1216.0654,-653.3567C1208.9974,-650.4616 1201.0595,-647.668 1193.5,-646.0009 1047.6782,-613.8433 662.4664,-662.0348 522.5,-610.0009 438.7927,-578.882 360.1422,-511.502 310.3955,-462.3097"/>
<polygon fill="#000000" stroke="#000000" points="312.8169,-459.7813 303.2684,-455.1902 307.8698,-464.7337 312.8169,-459.7813"/>
</g>
<!-- leaf_13 -->
<g id="node14" class="node">
<title>leaf_13</title>
<polygon fill="none" stroke="#c0c0c0" points="1065.5,-439.501 531.5,-439.501 531.5,-369.1002 1065.5,-369.1002 1065.5,-439.501"/>
<text text-anchor="middle" x="798.5" y="-408.2007" font-family="Inconsolata" font-size="14.00" fill="#000000"> The bootstrap knitter does what a knitter will do by default: &#160;go through</text>
<text text-anchor="middle" x="798.5" y="-392.8006" font-family="Inconsolata" font-size="14.00" fill="#000000"> =.../org/*/*.gm= and generate =.../src/*.*.lang= for all code blocks in</text>
<text text-anchor="middle" x="798.5" y="-377.4006" font-family="Inconsolata" font-size="14.00" fill="#000000"> =#lang=. </text>
</g>
<!-- raw_12&#45;&gt;leaf_13 -->
<g id="edge13" class="edge">
<title>raw_12&#45;&gt;leaf_13</title>
<path fill="none" stroke="#000000" stroke-dasharray="5,2" d="M1296.9197,-653.9317C1289.8458,-651.06 1281.9412,-648.135 1274.5,-646.0009 1187.6825,-621.102 1157.3576,-645.9432 1074.5,-610.0009 982.7199,-570.1882 892.9509,-494.4824 841.8102,-446.8515"/>
<polygon fill="#000000" stroke="#000000" points="843.9302,-444.041 834.2446,-439.7468 839.1383,-449.1438 843.9302,-444.041"/>
</g>
<!-- leaf_15 -->
<g id="node16" class="node">
<title>leaf_15</title>
<polygon fill="none" stroke="#c0c0c0" points="1533.5,-424.2027 1083.5,-424.2027 1083.5,-384.3985 1533.5,-384.3985 1533.5,-424.2027"/>
<text text-anchor="middle" x="1308.5" y="-392.8006" font-family="Inconsolata" font-size="14.00" fill="#000000"> It must do so through an interface which will let it grow up.</text>
</g>
<!-- raw_14&#45;&gt;leaf_15 -->
<g id="edge15" class="edge">
<title>raw_14&#45;&gt;leaf_15</title>
<path fill="none" stroke="#000000" stroke-dasharray="5,2" d="M1395.1077,-646.1507C1379.3395,-602.1183 1338.4614,-487.967 1319.0419,-433.7386"/>
<polygon fill="#000000" stroke="#000000" points="1322.2336,-432.2697 1315.567,-424.0352 1315.6434,-434.6297 1322.2336,-432.2697"/>
</g>
<!-- leaf_20 -->
<g id="node21" class="node">
<title>leaf_20</title>
<polygon fill="none" stroke="#c0c0c0" points="1659,-422.3006 1552,-422.3006 1552,-386.3006 1659,-386.3006 1659,-422.3006"/>
<text text-anchor="middle" x="1605.5" y="-400.8006" font-family="Inconsolata" font-size="14.00" fill="#000000"> *** An Aside</text>
</g>
<!-- header_16&#45;&gt;leaf_20 -->
<g id="edge20" class="edge">
<title>header_16&#45;&gt;leaf_20</title>
<path fill="none" stroke="#000000" stroke-dasharray="5,2" d="M1595.2735,-645.7393C1597.163,-601.1294 1602.0246,-486.3507 1604.2965,-432.7141"/>
<polygon fill="#000000" stroke="#000000" points="1607.8009,-432.6812 1604.7274,-422.5421 1600.8072,-432.3849 1607.8009,-432.6812"/>
</g>
<!-- raw_21 -->
<g id="node22" class="node">
<title>raw_21</title>
<ellipse fill="none" stroke="#000000" cx="1704.5" cy="-404.3006" rx="27" ry="18"/>
<text text-anchor="middle" x="1704.5" y="-400.1006" font-family="Helvetica,sans-Serif" font-size="14.00" fill="#000000">raw</text>
</g>
<!-- prose_17&#45;&gt;raw_21 -->
<g id="edge21" class="edge">
<title>prose_17&#45;&gt;raw_21</title>
<path fill="none" stroke="#000000" stroke-dasharray="5,2" d="M1701.711,-645.7393C1702.2263,-601.1294 1703.5522,-486.3507 1704.1718,-432.7141"/>
<polygon fill="#000000" stroke="#000000" points="1707.6734,-432.5818 1704.2893,-422.5421 1700.6739,-432.5009 1707.6734,-432.5818"/>
</g>
<!-- raw_23 -->
<g id="node24" class="node">
<title>raw_23</title>
<ellipse fill="none" stroke="#000000" cx="1781.5" cy="-404.3006" rx="27" ry="18"/>
<text text-anchor="middle" x="1781.5" y="-400.1006" font-family="Helvetica,sans-Serif" font-size="14.00" fill="#000000">raw</text>
</g>
<!-- prose_18&#45;&gt;raw_23 -->
<g id="edge23" class="edge">
<title>prose_18&#45;&gt;raw_23</title>
<path fill="none" stroke="#000000" stroke-dasharray="5,2" d="M1783.3594,-645.7393C1783.0158,-601.1294 1782.1319,-486.3507 1781.7188,-432.7141"/>
<polygon fill="#000000" stroke="#000000" points="1785.2175,-432.5148 1781.6405,-422.5421 1778.2177,-432.5687 1785.2175,-432.5148"/>
</g>
<!-- raw_25 -->
<g id="node26" class="node">
<title>raw_25</title>
<ellipse fill="none" stroke="#000000" cx="1865.5" cy="-404.3006" rx="27" ry="18"/>
<text text-anchor="middle" x="1865.5" y="-400.1006" font-family="Helvetica,sans-Serif" font-size="14.00" fill="#000000">raw</text>
</g>
<!-- prose_19&#45;&gt;raw_25 -->
<g id="edge25" class="edge">
<title>prose_19&#45;&gt;raw_25</title>
<path fill="none" stroke="#000000" stroke-dasharray="5,2" d="M1865.5,-645.7393C1865.5,-601.1294 1865.5,-486.3507 1865.5,-432.7141"/>
<polygon fill="#000000" stroke="#000000" points="1869.0001,-432.542 1865.5,-422.5421 1862.0001,-432.5421 1869.0001,-432.542"/>
</g>
<!-- leaf_22 -->
<g id="node23" class="node">
<title>leaf_22</title>
<polygon fill="none" stroke="#c0c0c0" points="1296.5,-124.5005 790.5,-124.5005 790.5,-38.0998 1296.5,-38.0998 1296.5,-124.5005"/>
<text text-anchor="middle" x="1043.5" y="-77.2002" font-family="Inconsolata" font-size="14.00" fill="#000000"> &#160;&#160;This is the last verb in Grimoire which needs to be written in pure</text>
<text text-anchor="middle" x="1043.5" y="-61.8002" font-family="Inconsolata" font-size="14.00" fill="#000000"> Lua. &#160;Huzzah! Typing &#45;&#45; all the time is tiresome and I didn&#39;t want to</text>
<text text-anchor="middle" x="1043.5" y="-46.4001" font-family="Inconsolata" font-size="14.00" fill="#000000"> patch Sublime just for that.</text>
</g>
<!-- raw_21&#45;&gt;leaf_22 -->
<g id="edge22" class="edge">
<title>raw_21&#45;&gt;leaf_22</title>
<path fill="none" stroke="#000000" stroke-dasharray="5,2" d="M1707.6142,-386.1481C1713.4006,-345.6977 1720.7974,-247.8526 1667.5,-198.6003 1608.128,-143.7343 1384.7298,-178.6612 1305.5,-162.6003 1262.0885,-153.8002 1215.639,-140.6636 1174.0887,-127.5029"/>
<polygon fill="#000000" stroke="#000000" points="1175.0629,-124.1399 1164.472,-124.4291 1172.9317,-130.8076 1175.0629,-124.1399"/>
</g>
<!-- leaf_24 -->
<g id="node25" class="node">
<title>leaf_24</title>
<polygon fill="none" stroke="#c0c0c0" points="1820.5,-123.9012 1314.5,-123.9012 1314.5,-38.6991 1820.5,-38.6991 1820.5,-123.9012"/>
<text text-anchor="middle" x="1567.5" y="-92.9002" font-family="Inconsolata" font-size="14.00" fill="#000000"> I do intend to design a </text>
<text text-anchor="middle" x="1567.5" y="-77.5002" font-family="Inconsolata" font-size="14.00" fill="#000000"> [syntax highligher for Sublime](etc/Grimoire.sublime_syntax), just</text>
<text text-anchor="middle" x="1567.5" y="-62.1001" font-family="Inconsolata" font-size="14.00" fill="#000000"> a simple minimum&#45;viable that will make editing the Lua inside =grym= </text>
<text text-anchor="middle" x="1567.5" y="-46.7001" font-family="Inconsolata" font-size="14.00" fill="#000000"> pleasant while I polish up femto. </text>
</g>
<!-- raw_23&#45;&gt;leaf_24 -->
<g id="edge24" class="edge">
<title>raw_23&#45;&gt;leaf_24</title>
<path fill="none" stroke="#000000" stroke-dasharray="5,2" d="M1782.2909,-386.0837C1783.0618,-347.9634 1780.1637,-258.3739 1740.5,-198.6003 1721.9535,-170.6505 1694.2446,-147.5913 1666.4083,-129.5351"/>
<polygon fill="#000000" stroke="#000000" points="1668.1011,-126.4649 1657.7754,-124.0922 1664.3678,-132.3862 1668.1011,-126.4649"/>
</g>
<!-- leaf_26 -->
<g id="node27" class="node">
<title>leaf_26</title>
<polygon fill="none" stroke="#c0c0c0" points="1892.5,-101.2022 1838.5,-101.2022 1838.5,-61.3981 1892.5,-61.3981 1892.5,-101.2022"/>
<text text-anchor="middle" x="1865.5" y="-69.8002" font-family="Inconsolata" font-size="14.00" fill="#000000"> </text>
</g>
<!-- raw_25&#45;&gt;leaf_26 -->
<g id="edge26" class="edge">
<title>raw_25&#45;&gt;leaf_26</title>
<path fill="none" stroke="#000000" stroke-dasharray="5,2" d="M1865.5,-386.0092C1865.5,-332.6613 1865.5,-176.873 1865.5,-111.1254"/>
<polygon fill="#000000" stroke="#000000" points="1869.0001,-111.0152 1865.5,-101.0153 1862.0001,-111.0153 1869.0001,-111.0152"/>
</g>
<!-- leaf_31 -->
<g id="node32" class="node">
<title>leaf_31</title>
<polygon fill="none" stroke="#c0c0c0" points="2106.5,-422.3006 2020.5,-422.3006 2020.5,-386.3006 2106.5,-386.3006 2106.5,-422.3006"/>
<text text-anchor="middle" x="2063.5" y="-400.8006" font-family="Inconsolata" font-size="14.00" fill="#000000"> ** Design</text>
</g>
<!-- header_27&#45;&gt;leaf_31 -->
<g id="edge31" class="edge">
<title>header_27&#45;&gt;leaf_31</title>
<path fill="none" stroke="#000000" stroke-dasharray="5,2" d="M2063.5,-645.7393C2063.5,-601.1294 2063.5,-486.3507 2063.5,-432.7141"/>
<polygon fill="#000000" stroke="#000000" points="2067.0001,-432.542 2063.5,-422.5421 2060.0001,-432.5421 2067.0001,-432.542"/>
</g>
<!-- raw_32 -->
<g id="node33" class="node">
<title>raw_32</title>
<ellipse fill="none" stroke="#000000" cx="2163.5" cy="-404.3006" rx="27" ry="18"/>
<text text-anchor="middle" x="2163.5" y="-400.1006" font-family="Helvetica,sans-Serif" font-size="14.00" fill="#000000">raw</text>
</g>
<!-- prose_28&#45;&gt;raw_32 -->
<g id="edge32" class="edge">
<title>prose_28&#45;&gt;raw_32</title>
<path fill="none" stroke="#000000" stroke-dasharray="5,2" d="M2163.5,-645.7393C2163.5,-601.1294 2163.5,-486.3507 2163.5,-432.7141"/>
<polygon fill="#000000" stroke="#000000" points="2167.0001,-432.542 2163.5,-422.5421 2160.0001,-432.5421 2167.0001,-432.542"/>
</g>
<!-- raw_34 -->
<g id="node35" class="node">
<title>raw_34</title>
<ellipse fill="none" stroke="#000000" cx="2245.5" cy="-404.3006" rx="27" ry="18"/>
<text text-anchor="middle" x="2245.5" y="-400.1006" font-family="Helvetica,sans-Serif" font-size="14.00" fill="#000000">raw</text>
</g>
<!-- prose_29&#45;&gt;raw_34 -->
<g id="edge34" class="edge">
<title>prose_29&#45;&gt;raw_34</title>
<path fill="none" stroke="#000000" stroke-dasharray="5,2" d="M2245.5,-645.7393C2245.5,-601.1294 2245.5,-486.3507 2245.5,-432.7141"/>
<polygon fill="#000000" stroke="#000000" points="2249.0001,-432.542 2245.5,-422.5421 2242.0001,-432.5421 2249.0001,-432.542"/>
</g>
<!-- leaf_36 -->
<g id="node37" class="node">
<title>leaf_36</title>
<polygon fill="none" stroke="#c0c0c0" points="2502.5,-431.601 2290.5,-431.601 2290.5,-377.0002 2502.5,-377.0002 2502.5,-431.601"/>
<text text-anchor="middle" x="2396.5" y="-416.5006" font-family="Inconsolata" font-size="14.00" fill="#000000">local u = require &quot;lib/util&quot;</text>
<text text-anchor="middle" x="2396.5" y="-385.1006" font-family="Inconsolata" font-size="14.00" fill="#000000">local K, k = u.inherit()</text>
</g>
<!-- codeblock_30&#45;&gt;leaf_36 -->
<g id="edge36" class="edge">
<title>codeblock_30&#45;&gt;leaf_36</title>
<path fill="none" stroke="#000000" stroke-dasharray="5,2" d="M2385.3438,-645.7393C2387.2934,-603.5463 2392.1435,-498.5818 2394.7604,-441.9495"/>
<polygon fill="#000000" stroke="#000000" points="2398.2717,-441.7828 2395.2371,-431.6319 2391.2792,-441.4596 2398.2717,-441.7828"/>
</g>
<!-- leaf_33 -->
<g id="node34" class="node">
<title>leaf_33</title>
<polygon fill="none" stroke="#c0c0c0" points="2416.5,-116.6005 1910.5,-116.6005 1910.5,-45.9998 2416.5,-45.9998 2416.5,-116.6005"/>
<text text-anchor="middle" x="2163.5" y="-69.5002" font-family="Inconsolata" font-size="14.00" fill="#000000"> &#160;&#160;=grym invert= is an isolated module. &#160;It&#39;s a shim; if better tools </text>
<text text-anchor="middle" x="2163.5" y="-54.1001" font-family="Inconsolata" font-size="14.00" fill="#000000"> succeeds, we&#39;ll stop using it within the Arc in fairly short order.</text>
</g>
<!-- raw_32&#45;&gt;leaf_33 -->
<g id="edge33" class="edge">
<title>raw_32&#45;&gt;leaf_33</title>
<path fill="none" stroke="#000000" stroke-dasharray="5,2" d="M2163.5,-386.0092C2163.5,-336.5289 2163.5,-198.923 2163.5,-126.7713"/>
<polygon fill="#000000" stroke="#000000" points="2167.0001,-126.6192 2163.5,-116.6192 2160.0001,-126.6193 2167.0001,-126.6192"/>
</g>
<!-- leaf_35 -->
<g id="node36" class="node">
<title>leaf_35</title>
<polygon fill="none" stroke="#c0c0c0" points="2940.5,-162.4009 2434.5,-162.4009 2434.5,-.1994 2940.5,-.1994 2940.5,-162.4009"/>
<text text-anchor="middle" x="2687.5" y="-131.4003" font-family="Inconsolata" font-size="14.00" fill="#000000"> =grym knit=, by contrast, is part of the core system. &#160;Software tends</text>
<text text-anchor="middle" x="2687.5" y="-116.0002" font-family="Inconsolata" font-size="14.00" fill="#000000"> to stick around, and a Grimoire is a language&#45;as&#45;in&#45;human&#45;language</text>
<text text-anchor="middle" x="2687.5" y="-100.6002" font-family="Inconsolata" font-size="14.00" fill="#000000"> sort of project. &#160;An advantage we intend to offer over Org is a </text>
<text text-anchor="middle" x="2687.5" y="-85.2002" font-family="Inconsolata" font-size="14.00" fill="#000000"> nice Unix&#45;flavor toolkit for munging flat files from your choice of</text>
<text text-anchor="middle" x="2687.5" y="-69.8002" font-family="Inconsolata" font-size="14.00" fill="#000000"> editor.</text>
<text text-anchor="middle" x="2687.5" y="-54.4001" font-family="Inconsolata" font-size="14.00" fill="#000000"> </text>
<text text-anchor="middle" x="2687.5" y="-39.0001" font-family="Inconsolata" font-size="14.00" fill="#000000"> =knit= methods receive a parsed document, not a string. &#160;The Knitter </text>
<text text-anchor="middle" x="2687.5" y="-23.6001" font-family="Inconsolata" font-size="14.00" fill="#000000"> modules generates language specific transformers for various Nodes,</text>
<text text-anchor="middle" x="2687.5" y="-8.2" font-family="Inconsolata" font-size="14.00" fill="#000000"> and the Knit module uses them when called for. </text>
</g>
<!-- raw_34&#45;&gt;leaf_35 -->
<g id="edge35" class="edge">
<title>raw_34&#45;&gt;leaf_35</title>
<path fill="none" stroke="#000000" stroke-dasharray="5,2" d="M2242.7489,-386.1031C2237.8578,-346.4152 2232.3464,-251.412 2281.5,-198.6003 2324.3384,-152.5738 2358.6208,-177.7357 2424.5338,-162.6058"/>
<polygon fill="#000000" stroke="#000000" points="2425.667,-165.9289 2434.493,-160.0678 2423.9384,-159.1457 2425.667,-165.9289"/>
</g>
<!-- leaf_42 -->
<g id="node43" class="node">
<title>leaf_42</title>
<polygon fill="none" stroke="#c0c0c0" points="3212,-422.3006 3091,-422.3006 3091,-386.3006 3212,-386.3006 3212,-422.3006"/>
<text text-anchor="middle" x="3151.5" y="-400.8006" font-family="Inconsolata" font-size="14.00" fill="#000000"> ** knit method</text>
</g>
<!-- header_37&#45;&gt;leaf_42 -->
<g id="edge42" class="edge">
<title>header_37&#45;&gt;leaf_42</title>
<path fill="none" stroke="#000000" stroke-dasharray="5,2" d="M3151.5,-645.7393C3151.5,-601.1294 3151.5,-486.3507 3151.5,-432.7141"/>
<polygon fill="#000000" stroke="#000000" points="3155.0001,-432.542 3151.5,-422.5421 3148.0001,-432.5421 3155.0001,-432.542"/>
</g>
<!-- raw_43 -->
<g id="node44" class="node">
<title>raw_43</title>
<ellipse fill="none" stroke="#000000" cx="3263.5" cy="-404.3006" rx="27" ry="18"/>
<text text-anchor="middle" x="3263.5" y="-400.1006" font-family="Helvetica,sans-Serif" font-size="14.00" fill="#000000">raw</text>
</g>
<!-- prose_38&#45;&gt;raw_43 -->
<g id="edge43" class="edge">
<title>prose_38&#45;&gt;raw_43</title>
<path fill="none" stroke="#000000" stroke-dasharray="5,2" d="M3269.0781,-645.7393C3268.0474,-601.1294 3265.3956,-486.3507 3264.1565,-432.7141"/>
<polygon fill="#000000" stroke="#000000" points="3267.6516,-432.4585 3263.9214,-422.5421 3260.6534,-432.6203 3267.6516,-432.4585"/>
</g>
<!-- raw_45 -->
<g id="node46" class="node">
<title>raw_45</title>
<ellipse fill="none" stroke="#000000" cx="3356.5" cy="-404.3006" rx="27" ry="18"/>
<text text-anchor="middle" x="3356.5" y="-400.1006" font-family="Helvetica,sans-Serif" font-size="14.00" fill="#000000">raw</text>
</g>
<!-- prose_39&#45;&gt;raw_45 -->
<g id="edge45" class="edge">
<title>prose_39&#45;&gt;raw_45</title>
<path fill="none" stroke="#000000" stroke-dasharray="5,2" d="M3351.8516,-645.7393C3352.7105,-601.1294 3354.9203,-486.3507 3355.953,-432.7141"/>
<polygon fill="#000000" stroke="#000000" points="3359.4556,-432.6076 3356.1488,-422.5421 3352.4569,-432.4728 3359.4556,-432.6076"/>
</g>
<!-- raw_47 -->
<g id="node48" class="node">
<title>raw_47</title>
<ellipse fill="none" stroke="#000000" cx="3433.5" cy="-404.3006" rx="27" ry="18"/>
<text text-anchor="middle" x="3433.5" y="-400.1006" font-family="Helvetica,sans-Serif" font-size="14.00" fill="#000000">raw</text>
</g>
<!-- prose_40&#45;&gt;raw_47 -->
<g id="edge47" class="edge">
<title>prose_40&#45;&gt;raw_47</title>
<path fill="none" stroke="#000000" stroke-dasharray="5,2" d="M3433.5,-645.7393C3433.5,-601.1294 3433.5,-486.3507 3433.5,-432.7141"/>
<polygon fill="#000000" stroke="#000000" points="3437.0001,-432.542 3433.5,-422.5421 3430.0001,-432.5421 3437.0001,-432.542"/>
</g>
<!-- leaf_49 -->
<g id="node50" class="node">
<title>leaf_49</title>
<polygon fill="none" stroke="#c0c0c0" points="3872.5,-610.2015 3478.5,-610.2015 3478.5,-198.3998 3872.5,-198.3998 3872.5,-610.2015"/>
<text text-anchor="middle" x="3675.5" y="-594.8009" font-family="Inconsolata" font-size="14.00" fill="#000000">function K.knit(knitter, doc)</text>
<text text-anchor="middle" x="3675.5" y="-579.4009" font-family="Inconsolata" font-size="14.00" fill="#000000"> &#160;&#160;&#160;local phrase = &quot;&quot;</text>
<text text-anchor="middle" x="3675.5" y="-564.0009" font-family="Inconsolata" font-size="14.00" fill="#000000"> &#160;&#160;&#160;local linum = 0</text>
<text text-anchor="middle" x="3675.5" y="-548.6008" font-family="Inconsolata" font-size="14.00" fill="#000000"> &#160;&#160;&#160;for cb in doc:select(&quot;codeblock&quot;) do</text>
<text text-anchor="middle" x="3675.5" y="-533.2008" font-family="Inconsolata" font-size="14.00" fill="#000000"> &#160;&#160;&#160;&#160;&#160;&#160;&#160;cb:check()</text>
<text text-anchor="middle" x="3675.5" y="-517.8008" font-family="Inconsolata" font-size="14.00" fill="#000000"> &#160;&#160;&#160;&#160;&#160;&#160;&#160;&#45;&#45; Pad code with blank lines to line up errors</text>
<text text-anchor="middle" x="3675.5" y="-502.4007" font-family="Inconsolata" font-size="14.00" fill="#000000"> &#160;&#160;&#160;&#160;&#160;&#160;&#160;local pad_count = cb.line_first &#45; linum</text>
<text text-anchor="middle" x="3675.5" y="-471.0007" font-family="Inconsolata" font-size="14.00" fill="#000000"> &#160;&#160;&#160;&#160;&#160;&#160;&#160;local pad = (&quot;\n&quot;):rep(pad_count)</text>
<text text-anchor="middle" x="3675.5" y="-455.6007" font-family="Inconsolata" font-size="14.00" fill="#000000"> &#160;&#160;&#160;&#160;&#160;&#160;&#160;&#45;&#45; cat codeblock value</text>
<text text-anchor="middle" x="3675.5" y="-440.2007" font-family="Inconsolata" font-size="14.00" fill="#000000"> &#160;&#160;&#160;&#160;&#160;&#160;&#160;phrase = phrase .. pad .. cb.val </text>
<text text-anchor="middle" x="3675.5" y="-408.8006" font-family="Inconsolata" font-size="14.00" fill="#000000"> &#160;&#160;&#160;&#160;&#160;&#160;&#160;&#45;&#45; update linum</text>
<text text-anchor="middle" x="3675.5" y="-393.4006" font-family="Inconsolata" font-size="14.00" fill="#000000"> &#160;&#160;&#160;&#160;&#160;&#160;&#160;linum = cb.line_last &#45; 1</text>
<text text-anchor="middle" x="3675.5" y="-378.0006" font-family="Inconsolata" font-size="14.00" fill="#000000"> &#160;&#160;&#160;end</text>
<text text-anchor="middle" x="3675.5" y="-346.6005" font-family="Inconsolata" font-size="14.00" fill="#000000"> &#160;&#160;&#160;return phrase</text>
<text text-anchor="middle" x="3675.5" y="-331.2005" font-family="Inconsolata" font-size="14.00" fill="#000000">end</text>
<text text-anchor="middle" x="3675.5" y="-299.8005" font-family="Inconsolata" font-size="14.00" fill="#000000">local function new(Knitter, lang)</text>
<text text-anchor="middle" x="3675.5" y="-284.4004" font-family="Inconsolata" font-size="14.00" fill="#000000"> &#160;&#160;&#160;local knitter = setmetatable({}, K)</text>
<text text-anchor="middle" x="3675.5" y="-269.0004" font-family="Inconsolata" font-size="14.00" fill="#000000"> &#160;&#160;&#160;knitter.lang = lang or &quot;lua&quot;</text>
<text text-anchor="middle" x="3675.5" y="-253.6004" font-family="Inconsolata" font-size="14.00" fill="#000000"> &#160;&#160;&#160;return knitter</text>
<text text-anchor="middle" x="3675.5" y="-238.2003" font-family="Inconsolata" font-size="14.00" fill="#000000">end</text>
<text text-anchor="middle" x="3675.5" y="-206.8003" font-family="Inconsolata" font-size="14.00" fill="#000000">return u.export(k, new)</text>
</g>
<!-- codeblock_41&#45;&gt;leaf_49 -->
<g id="edge49" class="edge">
<title>codeblock_41&#45;&gt;leaf_49</title>
<path fill="none" stroke="#000000" stroke-dasharray="5,2" d="M3622.5081,-645.7393C3624.0444,-638.7398 3625.9598,-630.0128 3628.1431,-620.0656"/>
<polygon fill="#000000" stroke="#000000" points="3631.5895,-620.689 3630.3148,-610.1712 3624.7522,-619.1883 3631.5895,-620.689"/>
</g>
<!-- leaf_44 -->
<g id="node45" class="node">
<title>leaf_44</title>
<polygon fill="none" stroke="#c0c0c0" points="3248,-109.2016 2959,-109.2016 2959,-53.3987 3248,-53.3987 3248,-109.2016"/>
<text text-anchor="middle" x="3103.5" y="-61.8002" font-family="Inconsolata" font-size="14.00" fill="#000000"> &#160;&#160;This is where it all comes together.</text>
</g>
<!-- raw_43&#45;&gt;leaf_44 -->
<g id="edge44" class="edge">
<title>raw_43&#45;&gt;leaf_44</title>
<path fill="none" stroke="#000000" stroke-dasharray="5,2" d="M3263.1199,-386.068C3261.6315,-348.6726 3254.4747,-261.522 3220.5,-198.6003 3203.0513,-166.2849 3173.9032,-137.0252 3149.0665,-115.8118"/>
<polygon fill="#000000" stroke="#000000" points="3151.0913,-112.9426 3141.1745,-109.2134 3146.6013,-118.3129 3151.0913,-112.9426"/>
</g>
<!-- leaf_46 -->
<g id="node47" class="node">
<title>leaf_46</title>
<polygon fill="none" stroke="#c0c0c0" points="3765,-139.701 3266,-139.701 3266,-22.8993 3765,-22.8993 3765,-139.701"/>
<text text-anchor="middle" x="3515.5" y="-108.3002" font-family="Inconsolata" font-size="14.00" fill="#000000"> We&#39;re still bootstrapping. &#160;The only language is lua, we don&#39;t know </text>
<text text-anchor="middle" x="3515.5" y="-92.9002" font-family="Inconsolata" font-size="14.00" fill="#000000"> what hashtags are yet, and we go in simple linear order.</text>
<text text-anchor="middle" x="3515.5" y="-77.5002" font-family="Inconsolata" font-size="14.00" fill="#000000"> </text>
<text text-anchor="middle" x="3515.5" y="-62.1001" font-family="Inconsolata" font-size="14.00" fill="#000000"> &#45; knitter : &#160;the knit module. That is, K, rather than a given k in </text>
<text text-anchor="middle" x="3515.5" y="-46.7001" font-family="Inconsolata" font-size="14.00" fill="#000000"> &#160;&#160;&#160;&#160;&#160;&#160;&#160;&#160;&#160;&#160;&#160;&#160;&#160;K.langs.</text>
<text text-anchor="middle" x="3515.5" y="-31.3001" font-family="Inconsolata" font-size="14.00" fill="#000000"> &#45; doc &#160;&#160;&#160;&#160;: &#160;a Doc.</text>
</g>
<!-- raw_45&#45;&gt;leaf_46 -->
<g id="edge46" class="edge">
<title>raw_45&#45;&gt;leaf_46</title>
<path fill="none" stroke="#000000" stroke-dasharray="5,2" d="M3356.639,-386.0625C3357.646,-348.6567 3363.7496,-261.4881 3397.5,-198.6003 3407.4192,-180.1176 3421.2057,-162.6822 3435.8674,-147.1871"/>
<polygon fill="#000000" stroke="#000000" points="3438.6511,-149.3454 3443.1222,-139.7401 3433.6371,-144.4607 3438.6511,-149.3454"/>
</g>
<!-- leaf_48 -->
<g id="node49" class="node">
<title>leaf_48</title>
<polygon fill="none" stroke="#c0c0c0" points="4072,-109.2016 3783,-109.2016 3783,-53.3987 4072,-53.3987 4072,-109.2016"/>
<text text-anchor="middle" x="3927.5" y="-77.8002" font-family="Inconsolata" font-size="14.00" fill="#000000"> &#45; #return : the knit file as a string.</text>
</g>
<!-- raw_47&#45;&gt;leaf_48 -->
<g id="edge48" class="edge">
<title>raw_47&#45;&gt;leaf_48</title>
<path fill="none" stroke="#000000" stroke-dasharray="5,2" d="M3430.353,-386.2314C3424.4834,-345.9515 3416.8282,-248.4328 3469.5,-198.6003 3518.9162,-151.8479 3708.5471,-182.821 3773.5,-162.6003 3809.7321,-151.3207 3847.4554,-131.5581 3876.4977,-114.3423"/>
<polygon fill="#000000" stroke="#000000" points="3878.457,-117.2482 3885.2209,-109.0934 3874.8479,-111.2503 3878.457,-117.2482"/>
</g>
</g>
</svg>