<?xml version="1.0" encoding="UTF-8" standalone="no"?>
<!DOCTYPE svg PUBLIC "-//W3C//DTD SVG 1.1//EN"
 "http://www.w3.org/Graphics/SVG/1.1/DTD/svg11.dtd">
<!-- Generated by graphviz version 2.40.1 (20161225.0304)
 -->
<!-- Title: hierarchy Pages: 1 -->
<svg width="4026pt" height="921pt"
 viewBox="0.00 0.00 4026.00 921.40" xmlns="http://www.w3.org/2000/svg" xmlns:xlink="http://www.w3.org/1999/xlink">
<g id="graph0" class="graph" transform="scale(1 1) rotate(0) translate(4 917.401)">
<title>hierarchy</title>
<polygon fill="#ffffff" stroke="transparent" points="-4,4 -4,-917.401 4022,-917.401 4022,4 -4,4"/>
<!-- doc_0 -->
<g id="node1" class="node">
<title>doc_0</title>
<ellipse fill="none" stroke="#000000" cx="1389.5" cy="-895.401" rx="42.1216" ry="18"/>
<text text-anchor="middle" x="1389.5" y="-891.201" font-family="Helvetica,sans-Serif" font-size="14.00" fill="#000000">doc &#45; 90</text>
</g>
<!-- section_1 -->
<g id="node2" class="node">
<title>section_1</title>
<ellipse fill="none" stroke="#000000" cx="1389.5" cy="-823.401" rx="60.9826" ry="18"/>
<text text-anchor="middle" x="1389.5" y="-819.201" font-family="Helvetica,sans-Serif" font-size="14.00" fill="#000000">section: 1&#45;46</text>
</g>
<!-- doc_0&#45;&gt;section_1 -->
<g id="edge1" class="edge">
<title>doc_0&#45;&gt;section_1</title>
<path fill="none" stroke="#000000" stroke-dasharray="5,2" d="M1389.5,-877.2323C1389.5,-869.5319 1389.5,-860.3753 1389.5,-851.8176"/>
<polygon fill="#000000" stroke="#000000" points="1393.0001,-851.8142 1389.5,-841.8142 1386.0001,-851.8143 1393.0001,-851.8142"/>
</g>
<!-- header_2 -->
<g id="node3" class="node">
<title>header_2</title>
<ellipse fill="none" stroke="#000000" cx="1095.5" cy="-751.401" rx="79.3333" ry="18"/>
<text text-anchor="middle" x="1095.5" y="-747.201" font-family="Helvetica,sans-Serif" font-size="14.00" fill="#000000">1 : Knitter Module</text>
</g>
<!-- section_1&#45;&gt;header_2 -->
<g id="edge2" class="edge">
<title>section_1&#45;&gt;header_2</title>
<path fill="none" stroke="#000000" stroke-dasharray="5,2" d="M1342.5897,-811.9127C1293.065,-799.7842 1214.6758,-780.5869 1159.4968,-767.0736"/>
<polygon fill="#000000" stroke="#000000" points="1160.0215,-763.5988 1149.4759,-764.6196 1158.3564,-770.3979 1160.0215,-763.5988"/>
</g>
<!-- prose_3 -->
<g id="node4" class="node">
<title>prose_3</title>
<ellipse fill="none" stroke="#000000" cx="1225.5" cy="-751.401" rx="32.4585" ry="18"/>
<text text-anchor="middle" x="1225.5" y="-747.201" font-family="Helvetica,sans-Serif" font-size="14.00" fill="#000000">prose</text>
</g>
<!-- section_1&#45;&gt;prose_3 -->
<g id="edge3" class="edge">
<title>section_1&#45;&gt;prose_3</title>
<path fill="none" stroke="#000000" stroke-dasharray="5,2" d="M1355.1202,-808.3074C1327.3097,-796.0979 1288.3158,-778.9786 1260.3739,-766.7115"/>
<polygon fill="#000000" stroke="#000000" points="1261.5513,-763.406 1250.9879,-762.5908 1258.7374,-769.8155 1261.5513,-763.406"/>
</g>
<!-- prose_4 -->
<g id="node5" class="node">
<title>prose_4</title>
<ellipse fill="none" stroke="#000000" cx="1307.5" cy="-751.401" rx="32.4585" ry="18"/>
<text text-anchor="middle" x="1307.5" y="-747.201" font-family="Helvetica,sans-Serif" font-size="14.00" fill="#000000">prose</text>
</g>
<!-- section_1&#45;&gt;prose_4 -->
<g id="edge4" class="edge">
<title>section_1&#45;&gt;prose_4</title>
<path fill="none" stroke="#000000" stroke-dasharray="5,2" d="M1370.0671,-806.338C1358.8006,-796.4454 1344.4965,-783.8857 1332.4098,-773.273"/>
<polygon fill="#000000" stroke="#000000" points="1334.6653,-770.5957 1324.8415,-766.6277 1330.0466,-775.8558 1334.6653,-770.5957"/>
</g>
<!-- prose_5 -->
<g id="node6" class="node">
<title>prose_5</title>
<ellipse fill="none" stroke="#000000" cx="1389.5" cy="-751.401" rx="32.4585" ry="18"/>
<text text-anchor="middle" x="1389.5" y="-747.201" font-family="Helvetica,sans-Serif" font-size="14.00" fill="#000000">prose</text>
</g>
<!-- section_1&#45;&gt;prose_5 -->
<g id="edge5" class="edge">
<title>section_1&#45;&gt;prose_5</title>
<path fill="none" stroke="#000000" stroke-dasharray="5,2" d="M1389.5,-805.2323C1389.5,-797.5319 1389.5,-788.3753 1389.5,-779.8176"/>
<polygon fill="#000000" stroke="#000000" points="1393.0001,-779.8142 1389.5,-769.8142 1386.0001,-779.8143 1393.0001,-779.8142"/>
</g>
<!-- section_6 -->
<g id="node7" class="node">
<title>section_6</title>
<ellipse fill="none" stroke="#000000" cx="1647.5" cy="-751.401" rx="65.8187" ry="18"/>
<text text-anchor="middle" x="1647.5" y="-747.201" font-family="Helvetica,sans-Serif" font-size="14.00" fill="#000000">section: 14&#45;25</text>
</g>
<!-- section_1&#45;&gt;section_6 -->
<g id="edge6" class="edge">
<title>section_1&#45;&gt;section_6</title>
<path fill="none" stroke="#000000" stroke-dasharray="5,2" d="M1433.8518,-811.0237C1477.432,-798.8618 1544.0889,-780.2599 1591.3446,-767.0722"/>
<polygon fill="#000000" stroke="#000000" points="1592.4276,-770.4038 1601.1187,-764.3446 1590.546,-763.6614 1592.4276,-770.4038"/>
</g>
<!-- section_7 -->
<g id="node8" class="node">
<title>section_7</title>
<ellipse fill="none" stroke="#000000" cx="2109.5" cy="-751.401" rx="65.8187" ry="18"/>
<text text-anchor="middle" x="2109.5" y="-747.201" font-family="Helvetica,sans-Serif" font-size="14.00" fill="#000000">section: 26&#45;46</text>
</g>
<!-- section_1&#45;&gt;section_7 -->
<g id="edge7" class="edge">
<title>section_1&#45;&gt;section_7</title>
<path fill="none" stroke="#000000" stroke-dasharray="5,2" d="M1447.2035,-817.6306C1577.6357,-804.5874 1894.9091,-772.8601 2037.732,-758.5778"/>
<polygon fill="#000000" stroke="#000000" points="2038.1067,-762.0578 2047.7088,-757.5801 2037.4101,-755.0926 2038.1067,-762.0578"/>
</g>
<!-- section_8 -->
<g id="node9" class="node">
<title>section_8</title>
<ellipse fill="none" stroke="#000000" cx="3264.5" cy="-751.401" rx="65.8187" ry="18"/>
<text text-anchor="middle" x="3264.5" y="-747.201" font-family="Helvetica,sans-Serif" font-size="14.00" fill="#000000">section: 47&#45;90</text>
</g>
<!-- section_1&#45;&gt;section_8 -->
<g id="edge8" class="edge">
<title>section_1&#45;&gt;section_8</title>
<path fill="none" stroke="#000000" stroke-dasharray="5,2" d="M1449.761,-821.0869C1727.2701,-810.4306 2881.7219,-766.0996 3189.0576,-754.298"/>
<polygon fill="#000000" stroke="#000000" points="3189.3411,-757.7897 3199.1994,-753.9085 3189.0725,-750.7949 3189.3411,-757.7897"/>
</g>
<!-- leaf_9 -->
<g id="node10" class="node">
<title>leaf_9</title>
<polygon fill="none" stroke="#c0c0c0" points="1122.5,-697.401 1068.5,-697.401 1068.5,-661.401 1122.5,-661.401 1122.5,-697.401"/>
</g>
<!-- header_2&#45;&gt;leaf_9 -->
<g id="edge9" class="edge">
<title>header_2&#45;&gt;leaf_9</title>
<path fill="none" stroke="#000000" stroke-dasharray="5,2" d="M1095.5,-733.2323C1095.5,-725.5319 1095.5,-716.3753 1095.5,-707.8176"/>
<polygon fill="#000000" stroke="#000000" points="1099.0001,-707.8142 1095.5,-697.8142 1092.0001,-707.8143 1099.0001,-707.8142"/>
</g>
<!-- raw_10 -->
<g id="node11" class="node">
<title>raw_10</title>
<ellipse fill="none" stroke="#000000" cx="1196.5" cy="-679.401" rx="27" ry="18"/>
<text text-anchor="middle" x="1196.5" y="-675.201" font-family="Helvetica,sans-Serif" font-size="14.00" fill="#000000">raw</text>
</g>
<!-- prose_3&#45;&gt;raw_10 -->
<g id="edge10" class="edge">
<title>prose_3&#45;&gt;raw_10</title>
<path fill="none" stroke="#000000" stroke-dasharray="5,2" d="M1218.3315,-733.6032C1215.0303,-725.4073 1211.0412,-715.5034 1207.3809,-706.4155"/>
<polygon fill="#000000" stroke="#000000" points="1210.5688,-704.9622 1203.5861,-696.994 1204.0757,-707.5775 1210.5688,-704.9622"/>
</g>
<!-- raw_12 -->
<g id="node13" class="node">
<title>raw_12</title>
<ellipse fill="none" stroke="#000000" cx="1287.5" cy="-679.401" rx="27" ry="18"/>
<text text-anchor="middle" x="1287.5" y="-675.201" font-family="Helvetica,sans-Serif" font-size="14.00" fill="#000000">raw</text>
</g>
<!-- prose_4&#45;&gt;raw_12 -->
<g id="edge12" class="edge">
<title>prose_4&#45;&gt;raw_12</title>
<path fill="none" stroke="#000000" stroke-dasharray="5,2" d="M1302.5562,-733.6032C1300.3206,-725.555 1297.6274,-715.8598 1295.1407,-706.9076"/>
<polygon fill="#000000" stroke="#000000" points="1298.5051,-705.9419 1292.4563,-697.2435 1291.7605,-707.8155 1298.5051,-705.9419"/>
</g>
<!-- raw_14 -->
<g id="node15" class="node">
<title>raw_14</title>
<ellipse fill="none" stroke="#000000" cx="1374.5" cy="-679.401" rx="27" ry="18"/>
<text text-anchor="middle" x="1374.5" y="-675.201" font-family="Helvetica,sans-Serif" font-size="14.00" fill="#000000">raw</text>
</g>
<!-- prose_5&#45;&gt;raw_14 -->
<g id="edge14" class="edge">
<title>prose_5&#45;&gt;raw_14</title>
<path fill="none" stroke="#000000" stroke-dasharray="5,2" d="M1385.7149,-733.2323C1384.068,-725.3275 1382.1015,-715.8882 1380.2784,-707.1375"/>
<polygon fill="#000000" stroke="#000000" points="1383.698,-706.3903 1378.232,-697.3144 1376.8452,-707.8181 1383.698,-706.3903"/>
</g>
<!-- header_16 -->
<g id="node17" class="node">
<title>header_16</title>
<ellipse fill="none" stroke="#000000" cx="1540.5" cy="-679.401" rx="56.6492" ry="18"/>
<text text-anchor="middle" x="1540.5" y="-675.201" font-family="Helvetica,sans-Serif" font-size="14.00" fill="#000000">3 : An Aside</text>
</g>
<!-- section_6&#45;&gt;header_16 -->
<g id="edge16" class="edge">
<title>section_6&#45;&gt;header_16</title>
<path fill="none" stroke="#000000" stroke-dasharray="5,2" d="M1622.6831,-734.7017C1607.9938,-724.8173 1589.2086,-712.1768 1573.3068,-701.4765"/>
<polygon fill="#000000" stroke="#000000" points="1575.064,-698.4404 1564.8134,-695.7614 1571.156,-704.248 1575.064,-698.4404"/>
</g>
<!-- prose_17 -->
<g id="node18" class="node">
<title>prose_17</title>
<ellipse fill="none" stroke="#000000" cx="1647.5" cy="-679.401" rx="32.4585" ry="18"/>
<text text-anchor="middle" x="1647.5" y="-675.201" font-family="Helvetica,sans-Serif" font-size="14.00" fill="#000000">prose</text>
</g>
<!-- section_6&#45;&gt;prose_17 -->
<g id="edge17" class="edge">
<title>section_6&#45;&gt;prose_17</title>
<path fill="none" stroke="#000000" stroke-dasharray="5,2" d="M1647.5,-733.2323C1647.5,-725.5319 1647.5,-716.3753 1647.5,-707.8176"/>
<polygon fill="#000000" stroke="#000000" points="1651.0001,-707.8142 1647.5,-697.8142 1644.0001,-707.8143 1651.0001,-707.8142"/>
</g>
<!-- prose_18 -->
<g id="node19" class="node">
<title>prose_18</title>
<ellipse fill="none" stroke="#000000" cx="1729.5" cy="-679.401" rx="32.4585" ry="18"/>
<text text-anchor="middle" x="1729.5" y="-675.201" font-family="Helvetica,sans-Serif" font-size="14.00" fill="#000000">prose</text>
</g>
<!-- section_6&#45;&gt;prose_18 -->
<g id="edge18" class="edge">
<title>section_6&#45;&gt;prose_18</title>
<path fill="none" stroke="#000000" stroke-dasharray="5,2" d="M1667.3499,-733.9718C1678.4412,-724.2331 1692.3761,-711.9975 1704.2387,-701.5816"/>
<polygon fill="#000000" stroke="#000000" points="1706.8546,-703.9425 1712.0597,-694.7144 1702.236,-698.6824 1706.8546,-703.9425"/>
</g>
<!-- prose_19 -->
<g id="node20" class="node">
<title>prose_19</title>
<ellipse fill="none" stroke="#000000" cx="1811.5" cy="-679.401" rx="32.4585" ry="18"/>
<text text-anchor="middle" x="1811.5" y="-675.201" font-family="Helvetica,sans-Serif" font-size="14.00" fill="#000000">prose</text>
</g>
<!-- section_6&#45;&gt;prose_19 -->
<g id="edge19" class="edge">
<title>section_6&#45;&gt;prose_19</title>
<path fill="none" stroke="#000000" stroke-dasharray="5,2" d="M1682.2802,-736.1316C1710.12,-723.9093 1748.9754,-706.8508 1776.7953,-694.6372"/>
<polygon fill="#000000" stroke="#000000" points="1778.3897,-697.7597 1786.1391,-690.535 1775.5757,-691.3502 1778.3897,-697.7597"/>
</g>
<!-- header_27 -->
<g id="node28" class="node">
<title>header_27</title>
<ellipse fill="none" stroke="#000000" cx="2009.5" cy="-679.401" rx="49.8481" ry="18"/>
<text text-anchor="middle" x="2009.5" y="-675.201" font-family="Helvetica,sans-Serif" font-size="14.00" fill="#000000">2 : Design</text>
</g>
<!-- section_7&#45;&gt;header_27 -->
<g id="edge27" class="edge">
<title>section_7&#45;&gt;header_27</title>
<path fill="none" stroke="#000000" stroke-dasharray="5,2" d="M2086.0544,-734.5202C2072.4459,-724.722 2055.1401,-712.2619 2040.4266,-701.6681"/>
<polygon fill="#000000" stroke="#000000" points="2042.271,-698.6833 2032.1105,-695.6805 2038.1808,-704.364 2042.271,-698.6833"/>
</g>
<!-- prose_28 -->
<g id="node29" class="node">
<title>prose_28</title>
<ellipse fill="none" stroke="#000000" cx="2109.5" cy="-679.401" rx="32.4585" ry="18"/>
<text text-anchor="middle" x="2109.5" y="-675.201" font-family="Helvetica,sans-Serif" font-size="14.00" fill="#000000">prose</text>
</g>
<!-- section_7&#45;&gt;prose_28 -->
<g id="edge28" class="edge">
<title>section_7&#45;&gt;prose_28</title>
<path fill="none" stroke="#000000" stroke-dasharray="5,2" d="M2109.5,-733.2323C2109.5,-725.5319 2109.5,-716.3753 2109.5,-707.8176"/>
<polygon fill="#000000" stroke="#000000" points="2113.0001,-707.8142 2109.5,-697.8142 2106.0001,-707.8143 2113.0001,-707.8142"/>
</g>
<!-- prose_29 -->
<g id="node30" class="node">
<title>prose_29</title>
<ellipse fill="none" stroke="#000000" cx="2191.5" cy="-679.401" rx="32.4585" ry="18"/>
<text text-anchor="middle" x="2191.5" y="-675.201" font-family="Helvetica,sans-Serif" font-size="14.00" fill="#000000">prose</text>
</g>
<!-- section_7&#45;&gt;prose_29 -->
<g id="edge29" class="edge">
<title>section_7&#45;&gt;prose_29</title>
<path fill="none" stroke="#000000" stroke-dasharray="5,2" d="M2129.3499,-733.9718C2140.4412,-724.2331 2154.3761,-711.9975 2166.2387,-701.5816"/>
<polygon fill="#000000" stroke="#000000" points="2168.8546,-703.9425 2174.0597,-694.7144 2164.236,-698.6824 2168.8546,-703.9425"/>
</g>
<!-- codeblock_30 -->
<g id="node31" class="node">
<title>codeblock_30</title>
<ellipse fill="none" stroke="#000000" cx="2330.5" cy="-679.401" rx="77.4211" ry="18"/>
<text text-anchor="middle" x="2330.5" y="-675.201" font-family="Helvetica,sans-Serif" font-size="14.00" fill="#000000">code block 41&#45;45</text>
</g>
<!-- section_7&#45;&gt;codeblock_30 -->
<g id="edge30" class="edge">
<title>section_7&#45;&gt;codeblock_30</title>
<path fill="none" stroke="#000000" stroke-dasharray="5,2" d="M2151.8495,-737.6038C2186.9406,-726.1714 2237.0755,-709.8379 2275.3078,-697.3821"/>
<polygon fill="#000000" stroke="#000000" points="2276.829,-700.5677 2285.2529,-694.1421 2274.6606,-693.912 2276.829,-700.5677"/>
</g>
<!-- header_37 -->
<g id="node38" class="node">
<title>header_37</title>
<ellipse fill="none" stroke="#000000" cx="3105.5" cy="-679.401" rx="68.2239" ry="18"/>
<text text-anchor="middle" x="3105.5" y="-675.201" font-family="Helvetica,sans-Serif" font-size="14.00" fill="#000000">2 : knit method</text>
</g>
<!-- section_8&#45;&gt;header_37 -->
<g id="edge37" class="edge">
<title>section_8&#45;&gt;header_37</title>
<path fill="none" stroke="#000000" stroke-dasharray="5,2" d="M3230.3905,-735.9552C3206.6601,-725.2093 3174.8152,-710.789 3149.2215,-699.1994"/>
<polygon fill="#000000" stroke="#000000" points="3150.6551,-696.0065 3140.1017,-695.0697 3147.7675,-702.3831 3150.6551,-696.0065"/>
</g>
<!-- prose_38 -->
<g id="node39" class="node">
<title>prose_38</title>
<ellipse fill="none" stroke="#000000" cx="3223.5" cy="-679.401" rx="32.4585" ry="18"/>
<text text-anchor="middle" x="3223.5" y="-675.201" font-family="Helvetica,sans-Serif" font-size="14.00" fill="#000000">prose</text>
</g>
<!-- section_8&#45;&gt;prose_38 -->
<g id="edge38" class="edge">
<title>section_8&#45;&gt;prose_38</title>
<path fill="none" stroke="#000000" stroke-dasharray="5,2" d="M3254.3652,-733.6032C3249.5632,-725.1705 3243.7315,-714.9295 3238.4358,-705.6297"/>
<polygon fill="#000000" stroke="#000000" points="3241.3667,-703.7035 3233.3768,-696.7456 3235.2838,-707.1674 3241.3667,-703.7035"/>
</g>
<!-- prose_39 -->
<g id="node40" class="node">
<title>prose_39</title>
<ellipse fill="none" stroke="#000000" cx="3305.5" cy="-679.401" rx="32.4585" ry="18"/>
<text text-anchor="middle" x="3305.5" y="-675.201" font-family="Helvetica,sans-Serif" font-size="14.00" fill="#000000">prose</text>
</g>
<!-- section_8&#45;&gt;prose_39 -->
<g id="edge39" class="edge">
<title>section_8&#45;&gt;prose_39</title>
<path fill="none" stroke="#000000" stroke-dasharray="5,2" d="M3274.6348,-733.6032C3279.4368,-725.1705 3285.2685,-714.9295 3290.5642,-705.6297"/>
<polygon fill="#000000" stroke="#000000" points="3293.7162,-707.1674 3295.6232,-696.7456 3287.6333,-703.7035 3293.7162,-707.1674"/>
</g>
<!-- prose_40 -->
<g id="node41" class="node">
<title>prose_40</title>
<ellipse fill="none" stroke="#000000" cx="3387.5" cy="-679.401" rx="32.4585" ry="18"/>
<text text-anchor="middle" x="3387.5" y="-675.201" font-family="Helvetica,sans-Serif" font-size="14.00" fill="#000000">prose</text>
</g>
<!-- section_8&#45;&gt;prose_40 -->
<g id="edge40" class="edge">
<title>section_8&#45;&gt;prose_40</title>
<path fill="none" stroke="#000000" stroke-dasharray="5,2" d="M3292.4106,-735.0631C3311.3791,-723.9595 3336.4972,-709.2563 3356.1539,-697.7499"/>
<polygon fill="#000000" stroke="#000000" points="3358.174,-700.623 3365.036,-692.5506 3354.6377,-694.5819 3358.174,-700.623"/>
</g>
<!-- codeblock_41 -->
<g id="node42" class="node">
<title>codeblock_41</title>
<ellipse fill="none" stroke="#000000" cx="3572.5" cy="-679.401" rx="77.4211" ry="18"/>
<text text-anchor="middle" x="3572.5" y="-675.201" font-family="Helvetica,sans-Serif" font-size="14.00" fill="#000000">code block 61&#45;89</text>
</g>
<!-- section_8&#45;&gt;codeblock_41 -->
<g id="edge41" class="edge">
<title>section_8&#45;&gt;codeblock_41</title>
<path fill="none" stroke="#000000" stroke-dasharray="5,2" d="M3314.671,-739.6727C3367.2542,-727.3805 3450.0676,-708.0215 3507.5961,-694.5733"/>
<polygon fill="#000000" stroke="#000000" points="3508.7322,-697.9022 3517.6729,-692.2177 3507.1387,-691.0859 3508.7322,-697.9022"/>
</g>
<!-- leaf_11 -->
<g id="node12" class="node">
<title>leaf_11</title>
<polygon fill="none" stroke="#c0c0c0" points="513,-462.6015 0,-462.6015 0,-361.3997 513,-361.3997 513,-462.6015"/>
<text text-anchor="middle" x="256.5" y="-415.6007" font-family="Inconsolata" font-size="14.00" fill="#000000"> &#160;&#160;A knitter is the actor responsible for knitting together our source</text>
<text text-anchor="middle" x="256.5" y="-400.2007" font-family="Inconsolata" font-size="14.00" fill="#000000"> code. &#160;They are defined by language, which is to say that the unit of </text>
<text text-anchor="middle" x="256.5" y="-384.8006" font-family="Inconsolata" font-size="14.00" fill="#000000"> action is not a runtime or document, knitters will expand to be </text>
<text text-anchor="middle" x="256.5" y="-369.4006" font-family="Inconsolata" font-size="14.00" fill="#000000"> responsible for an arbitrary number of these.</text>
</g>
<!-- raw_10&#45;&gt;leaf_11 -->
<g id="edge11" class="edge">
<title>raw_10&#45;&gt;leaf_11</title>
<path fill="none" stroke="#000000" stroke-dasharray="5,2" d="M1172.0816,-671.3221C1160.0054,-667.6662 1145.1304,-663.665 1131.5,-661.401 997.7628,-639.187 649.0135,-674.119 522.5,-625.401 436.9269,-592.4483 357.533,-521.2564 308.1643,-470.1575"/>
<polygon fill="#000000" stroke="#000000" points="310.5419,-467.5796 301.1011,-462.7711 305.4826,-472.4174 310.5419,-467.5796"/>
</g>
<!-- leaf_13 -->
<g id="node14" class="node">
<title>leaf_13</title>
<polygon fill="none" stroke="#c0c0c0" points="1065.5,-447.201 531.5,-447.201 531.5,-376.8002 1065.5,-376.8002 1065.5,-447.201"/>
<text text-anchor="middle" x="798.5" y="-415.9007" font-family="Inconsolata" font-size="14.00" fill="#000000"> The bootstrap knitter does what a knitter will do by default: &#160;go through</text>
<text text-anchor="middle" x="798.5" y="-400.5006" font-family="Inconsolata" font-size="14.00" fill="#000000"> =.../org/*/*.gm= and generate =.../src/*.*.lang= for all code blocks in</text>
<text text-anchor="middle" x="798.5" y="-385.1006" font-family="Inconsolata" font-size="14.00" fill="#000000"> =#lang=. </text>
</g>
<!-- raw_12&#45;&gt;leaf_13 -->
<g id="edge13" class="edge">
<title>raw_12&#45;&gt;leaf_13</title>
<path fill="none" stroke="#000000" stroke-dasharray="5,2" d="M1263.5511,-671.0309C1253.9572,-667.8178 1242.7635,-664.2432 1232.5,-661.401 1163.0903,-642.1797 1139.6282,-656.1497 1074.5,-625.401 982.0987,-581.7759 891.6214,-502.9736 840.66,-454.3028"/>
<polygon fill="#000000" stroke="#000000" points="843.065,-451.7598 833.4323,-447.3483 838.2114,-456.804 843.065,-451.7598"/>
</g>
<!-- leaf_15 -->
<g id="node16" class="node">
<title>leaf_15</title>
<polygon fill="none" stroke="#c0c0c0" points="1533.5,-431.9027 1083.5,-431.9027 1083.5,-392.0985 1533.5,-392.0985 1533.5,-431.9027"/>
<text text-anchor="middle" x="1308.5" y="-400.5006" font-family="Inconsolata" font-size="14.00" fill="#000000"> It must do so through an interface which will let it grow up.</text>
</g>
<!-- raw_14&#45;&gt;leaf_15 -->
<g id="edge15" class="edge">
<title>raw_14&#45;&gt;leaf_15</title>
<path fill="none" stroke="#000000" stroke-dasharray="5,2" d="M1370.0671,-661.4409C1358.9346,-616.3373 1329.7081,-497.9256 1315.9121,-442.031"/>
<polygon fill="#000000" stroke="#000000" points="1319.2404,-440.9092 1313.446,-432.0393 1312.4443,-442.5867 1319.2404,-440.9092"/>
</g>
<!-- leaf_20 -->
<g id="node21" class="node">
<title>leaf_20</title>
<polygon fill="none" stroke="#c0c0c0" points="1605.5,-430.0006 1551.5,-430.0006 1551.5,-394.0006 1605.5,-394.0006 1605.5,-430.0006"/>
</g>
<!-- header_16&#45;&gt;leaf_20 -->
<g id="edge20" class="edge">
<title>header_16&#45;&gt;leaf_20</title>
<path fill="none" stroke="#000000" stroke-dasharray="5,2" d="M1543.1119,-661.0215C1549.6357,-615.1141 1566.6789,-495.1837 1574.4874,-440.2369"/>
<polygon fill="#000000" stroke="#000000" points="1577.9782,-440.5482 1575.9201,-430.1552 1571.0479,-439.5632 1577.9782,-440.5482"/>
</g>
<!-- raw_21 -->
<g id="node22" class="node">
<title>raw_21</title>
<ellipse fill="none" stroke="#000000" cx="1650.5" cy="-412.0006" rx="27" ry="18"/>
<text text-anchor="middle" x="1650.5" y="-407.8006" font-family="Helvetica,sans-Serif" font-size="14.00" fill="#000000">raw</text>
</g>
<!-- prose_17&#45;&gt;raw_21 -->
<g id="edge21" class="edge">
<title>prose_17&#45;&gt;raw_21</title>
<path fill="none" stroke="#000000" stroke-dasharray="5,2" d="M1647.7062,-661.0215C1648.2212,-615.1141 1649.5668,-495.1837 1650.1832,-440.2369"/>
<polygon fill="#000000" stroke="#000000" points="1653.6838,-440.1938 1650.2963,-430.1552 1646.6843,-440.1152 1653.6838,-440.1938"/>
</g>
<!-- raw_23 -->
<g id="node24" class="node">
<title>raw_23</title>
<ellipse fill="none" stroke="#000000" cx="1727.5" cy="-412.0006" rx="27" ry="18"/>
<text text-anchor="middle" x="1727.5" y="-407.8006" font-family="Helvetica,sans-Serif" font-size="14.00" fill="#000000">raw</text>
</g>
<!-- prose_18&#45;&gt;raw_23 -->
<g id="edge23" class="edge">
<title>prose_18&#45;&gt;raw_23</title>
<path fill="none" stroke="#000000" stroke-dasharray="5,2" d="M1729.3625,-661.0215C1729.0192,-615.1141 1728.1222,-495.1837 1727.7112,-440.2369"/>
<polygon fill="#000000" stroke="#000000" points="1731.2106,-440.1287 1727.6358,-430.1552 1724.2108,-440.1811 1731.2106,-440.1287"/>
</g>
<!-- raw_25 -->
<g id="node26" class="node">
<title>raw_25</title>
<ellipse fill="none" stroke="#000000" cx="1811.5" cy="-412.0006" rx="27" ry="18"/>
<text text-anchor="middle" x="1811.5" y="-407.8006" font-family="Helvetica,sans-Serif" font-size="14.00" fill="#000000">raw</text>
</g>
<!-- prose_19&#45;&gt;raw_25 -->
<g id="edge25" class="edge">
<title>prose_19&#45;&gt;raw_25</title>
<path fill="none" stroke="#000000" stroke-dasharray="5,2" d="M1811.5,-661.0215C1811.5,-615.1141 1811.5,-495.1837 1811.5,-440.2369"/>
<polygon fill="#000000" stroke="#000000" points="1815.0001,-440.1551 1811.5,-430.1552 1808.0001,-440.1552 1815.0001,-440.1551"/>
</g>
<!-- leaf_22 -->
<g id="node23" class="node">
<title>leaf_22</title>
<polygon fill="none" stroke="#c0c0c0" points="1242.5,-124.5005 736.5,-124.5005 736.5,-38.0998 1242.5,-38.0998 1242.5,-124.5005"/>
<text text-anchor="middle" x="989.5" y="-77.2002" font-family="Inconsolata" font-size="14.00" fill="#000000"> &#160;&#160;This is the last verb in Grimoire which needs to be written in pure</text>
<text text-anchor="middle" x="989.5" y="-61.8002" font-family="Inconsolata" font-size="14.00" fill="#000000"> Lua. &#160;Huzzah! Typing &#45;&#45; all the time is tiresome and I didn&#39;t want to</text>
<text text-anchor="middle" x="989.5" y="-46.4001" font-family="Inconsolata" font-size="14.00" fill="#000000"> patch Sublime just for that.</text>
</g>
<!-- raw_21&#45;&gt;leaf_22 -->
<g id="edge22" class="edge">
<title>raw_21&#45;&gt;leaf_22</title>
<path fill="none" stroke="#000000" stroke-dasharray="5,2" d="M1653.8229,-394.1294C1660.3617,-352.8129 1669.8295,-250.2756 1614.5,-198.6003 1555.2573,-143.2702 1330.9487,-178.6944 1251.5,-162.6003 1208.0873,-153.8061 1161.6375,-140.6711 1120.0873,-127.5101"/>
<polygon fill="#000000" stroke="#000000" points="1121.0615,-124.1471 1110.4706,-124.4362 1118.9302,-130.8148 1121.0615,-124.1471"/>
</g>
<!-- leaf_24 -->
<g id="node25" class="node">
<title>leaf_24</title>
<polygon fill="none" stroke="#c0c0c0" points="1766.5,-123.9012 1260.5,-123.9012 1260.5,-38.6991 1766.5,-38.6991 1766.5,-123.9012"/>
<text text-anchor="middle" x="1513.5" y="-92.9002" font-family="Inconsolata" font-size="14.00" fill="#000000"> I do intend to design a </text>
<text text-anchor="middle" x="1513.5" y="-77.5002" font-family="Inconsolata" font-size="14.00" fill="#000000"> [syntax highligher for Sublime](etc/Grimoire.sublime_syntax), just</text>
<text text-anchor="middle" x="1513.5" y="-62.1001" font-family="Inconsolata" font-size="14.00" fill="#000000"> a simple minimum&#45;viable that will make editing the Lua inside =grym= </text>
<text text-anchor="middle" x="1513.5" y="-46.7001" font-family="Inconsolata" font-size="14.00" fill="#000000"> pleasant while I polish up femto. </text>
</g>
<!-- raw_23&#45;&gt;leaf_24 -->
<g id="edge24" class="edge">
<title>raw_23&#45;&gt;leaf_24</title>
<path fill="none" stroke="#000000" stroke-dasharray="5,2" d="M1728.4578,-394.0047C1729.6534,-354.998 1727.6892,-261.1419 1686.5,-198.6003 1668.0504,-170.5864 1640.3685,-147.5095 1612.527,-129.4567"/>
<polygon fill="#000000" stroke="#000000" points="1614.2179,-126.3852 1603.8915,-124.0155 1610.4862,-132.3076 1614.2179,-126.3852"/>
</g>
<!-- leaf_26 -->
<g id="node27" class="node">
<title>leaf_26</title>
<polygon fill="none" stroke="#c0c0c0" points="1838.5,-101.2022 1784.5,-101.2022 1784.5,-61.3981 1838.5,-61.3981 1838.5,-101.2022"/>
<text text-anchor="middle" x="1811.5" y="-69.8002" font-family="Inconsolata" font-size="14.00" fill="#000000"> </text>
</g>
<!-- raw_25&#45;&gt;leaf_26 -->
<g id="edge26" class="edge">
<title>raw_25&#45;&gt;leaf_26</title>
<path fill="none" stroke="#000000" stroke-dasharray="5,2" d="M1811.5,-393.7497C1811.5,-339.4935 1811.5,-178.7938 1811.5,-111.4871"/>
<polygon fill="#000000" stroke="#000000" points="1815.0001,-111.149 1811.5,-101.149 1808.0001,-111.149 1815.0001,-111.149"/>
</g>
<!-- leaf_31 -->
<g id="node32" class="node">
<title>leaf_31</title>
<polygon fill="none" stroke="#c0c0c0" points="2036.5,-430.0006 1982.5,-430.0006 1982.5,-394.0006 2036.5,-394.0006 2036.5,-430.0006"/>
</g>
<!-- header_27&#45;&gt;leaf_31 -->
<g id="edge31" class="edge">
<title>header_27&#45;&gt;leaf_31</title>
<path fill="none" stroke="#000000" stroke-dasharray="5,2" d="M2009.5,-661.0215C2009.5,-615.1141 2009.5,-495.1837 2009.5,-440.2369"/>
<polygon fill="#000000" stroke="#000000" points="2013.0001,-440.1551 2009.5,-430.1552 2006.0001,-440.1552 2013.0001,-440.1551"/>
</g>
<!-- raw_32 -->
<g id="node33" class="node">
<title>raw_32</title>
<ellipse fill="none" stroke="#000000" cx="2109.5" cy="-412.0006" rx="27" ry="18"/>
<text text-anchor="middle" x="2109.5" y="-407.8006" font-family="Helvetica,sans-Serif" font-size="14.00" fill="#000000">raw</text>
</g>
<!-- prose_28&#45;&gt;raw_32 -->
<g id="edge32" class="edge">
<title>prose_28&#45;&gt;raw_32</title>
<path fill="none" stroke="#000000" stroke-dasharray="5,2" d="M2109.5,-661.0215C2109.5,-615.1141 2109.5,-495.1837 2109.5,-440.2369"/>
<polygon fill="#000000" stroke="#000000" points="2113.0001,-440.1551 2109.5,-430.1552 2106.0001,-440.1552 2113.0001,-440.1551"/>
</g>
<!-- raw_34 -->
<g id="node35" class="node">
<title>raw_34</title>
<ellipse fill="none" stroke="#000000" cx="2191.5" cy="-412.0006" rx="27" ry="18"/>
<text text-anchor="middle" x="2191.5" y="-407.8006" font-family="Helvetica,sans-Serif" font-size="14.00" fill="#000000">raw</text>
</g>
<!-- prose_29&#45;&gt;raw_34 -->
<g id="edge34" class="edge">
<title>prose_29&#45;&gt;raw_34</title>
<path fill="none" stroke="#000000" stroke-dasharray="5,2" d="M2191.5,-661.0215C2191.5,-615.1141 2191.5,-495.1837 2191.5,-440.2369"/>
<polygon fill="#000000" stroke="#000000" points="2195.0001,-440.1551 2191.5,-430.1552 2188.0001,-440.1552 2195.0001,-440.1551"/>
</g>
<!-- leaf_36 -->
<g id="node37" class="node">
<title>leaf_36</title>
<polygon fill="none" stroke="#c0c0c0" points="2448.5,-439.3011 2236.5,-439.3011 2236.5,-384.7002 2448.5,-384.7002 2448.5,-439.3011"/>
<text text-anchor="middle" x="2342.5" y="-424.2007" font-family="Inconsolata" font-size="14.00" fill="#000000">local u = require &quot;lib/util&quot;</text>
<text text-anchor="middle" x="2342.5" y="-392.8006" font-family="Inconsolata" font-size="14.00" fill="#000000">local K, k = u.inherit()</text>
</g>
<!-- codeblock_30&#45;&gt;leaf_36 -->
<g id="edge36" class="edge">
<title>codeblock_30&#45;&gt;leaf_36</title>
<path fill="none" stroke="#000000" stroke-dasharray="5,2" d="M2331.3248,-661.0215C2333.2739,-617.5888 2338.1964,-507.8984 2340.8096,-449.6674"/>
<polygon fill="#000000" stroke="#000000" points="2344.3175,-449.5677 2341.2695,-439.4209 2337.3246,-449.2539 2344.3175,-449.5677"/>
</g>
<!-- leaf_33 -->
<g id="node34" class="node">
<title>leaf_33</title>
<polygon fill="none" stroke="#c0c0c0" points="2362.5,-116.6005 1856.5,-116.6005 1856.5,-45.9998 2362.5,-45.9998 2362.5,-116.6005"/>
<text text-anchor="middle" x="2109.5" y="-69.5002" font-family="Inconsolata" font-size="14.00" fill="#000000"> &#160;&#160;=grym invert= is an isolated module. &#160;It&#39;s a shim; if better tools </text>
<text text-anchor="middle" x="2109.5" y="-54.1001" font-family="Inconsolata" font-size="14.00" fill="#000000"> succeeds, we&#39;ll stop using it within the Arc in fairly short order.</text>
</g>
<!-- raw_32&#45;&gt;leaf_33 -->
<g id="edge33" class="edge">
<title>raw_32&#45;&gt;leaf_33</title>
<path fill="none" stroke="#000000" stroke-dasharray="5,2" d="M2109.5,-393.7497C2109.5,-343.3523 2109.5,-201.1139 2109.5,-127.1934"/>
<polygon fill="#000000" stroke="#000000" points="2113.0001,-126.8018 2109.5,-116.8018 2106.0001,-126.8019 2113.0001,-126.8018"/>
</g>
<!-- leaf_35 -->
<g id="node36" class="node">
<title>leaf_35</title>
<polygon fill="none" stroke="#c0c0c0" points="2886.5,-162.4009 2380.5,-162.4009 2380.5,-.1994 2886.5,-.1994 2886.5,-162.4009"/>
<text text-anchor="middle" x="2633.5" y="-131.4003" font-family="Inconsolata" font-size="14.00" fill="#000000"> =grym knit=, by contrast, is part of the core system. &#160;Software tends</text>
<text text-anchor="middle" x="2633.5" y="-116.0002" font-family="Inconsolata" font-size="14.00" fill="#000000"> to stick around, and a Grimoire is a language&#45;as&#45;in&#45;human&#45;language</text>
<text text-anchor="middle" x="2633.5" y="-100.6002" font-family="Inconsolata" font-size="14.00" fill="#000000"> sort of project. &#160;An advantage we intend to offer over Org is a </text>
<text text-anchor="middle" x="2633.5" y="-85.2002" font-family="Inconsolata" font-size="14.00" fill="#000000"> nice Unix&#45;flavor toolkit for munging flat files from your choice of</text>
<text text-anchor="middle" x="2633.5" y="-69.8002" font-family="Inconsolata" font-size="14.00" fill="#000000"> editor.</text>
<text text-anchor="middle" x="2633.5" y="-54.4001" font-family="Inconsolata" font-size="14.00" fill="#000000"> </text>
<text text-anchor="middle" x="2633.5" y="-39.0001" font-family="Inconsolata" font-size="14.00" fill="#000000"> =knit= methods receive a parsed document, not a string. &#160;The Knitter </text>
<text text-anchor="middle" x="2633.5" y="-23.6001" font-family="Inconsolata" font-size="14.00" fill="#000000"> modules generates language specific transformers for various Nodes,</text>
<text text-anchor="middle" x="2633.5" y="-8.2" font-family="Inconsolata" font-size="14.00" fill="#000000"> and the Knit module uses them when called for. </text>
</g>
<!-- raw_34&#45;&gt;leaf_35 -->
<g id="edge35" class="edge">
<title>raw_34&#45;&gt;leaf_35</title>
<path fill="none" stroke="#000000" stroke-dasharray="5,2" d="M2188.6295,-394.0571C2183.2371,-353.4796 2176.3455,-253.9009 2227.5,-198.6003 2270.197,-152.4426 2304.6076,-177.7234 2370.5329,-162.6049"/>
<polygon fill="#000000" stroke="#000000" points="2371.6664,-165.928 2380.493,-160.0678 2369.9385,-159.1446 2371.6664,-165.928"/>
</g>
<!-- leaf_42 -->
<g id="node43" class="node">
<title>leaf_42</title>
<polygon fill="none" stroke="#c0c0c0" points="3132.5,-430.0006 3078.5,-430.0006 3078.5,-394.0006 3132.5,-394.0006 3132.5,-430.0006"/>
</g>
<!-- header_37&#45;&gt;leaf_42 -->
<g id="edge42" class="edge">
<title>header_37&#45;&gt;leaf_42</title>
<path fill="none" stroke="#000000" stroke-dasharray="5,2" d="M3105.5,-661.0215C3105.5,-615.1141 3105.5,-495.1837 3105.5,-440.2369"/>
<polygon fill="#000000" stroke="#000000" points="3109.0001,-440.1551 3105.5,-430.1552 3102.0001,-440.1552 3109.0001,-440.1551"/>
</g>
<!-- raw_43 -->
<g id="node44" class="node">
<title>raw_43</title>
<ellipse fill="none" stroke="#000000" cx="3200.5" cy="-412.0006" rx="27" ry="18"/>
<text text-anchor="middle" x="3200.5" y="-407.8006" font-family="Helvetica,sans-Serif" font-size="14.00" fill="#000000">raw</text>
</g>
<!-- prose_38&#45;&gt;raw_43 -->
<g id="edge43" class="edge">
<title>prose_38&#45;&gt;raw_43</title>
<path fill="none" stroke="#000000" stroke-dasharray="5,2" d="M3221.9191,-661.0215C3217.9705,-615.1141 3207.6549,-495.1837 3202.9287,-440.2369"/>
<polygon fill="#000000" stroke="#000000" points="3206.4057,-439.8184 3202.0615,-430.1552 3199.4315,-440.4184 3206.4057,-439.8184"/>
</g>
<!-- raw_45 -->
<g id="node46" class="node">
<title>raw_45</title>
<ellipse fill="none" stroke="#000000" cx="3310.5" cy="-412.0006" rx="27" ry="18"/>
<text text-anchor="middle" x="3310.5" y="-407.8006" font-family="Helvetica,sans-Serif" font-size="14.00" fill="#000000">raw</text>
</g>
<!-- prose_39&#45;&gt;raw_45 -->
<g id="edge45" class="edge">
<title>prose_39&#45;&gt;raw_45</title>
<path fill="none" stroke="#000000" stroke-dasharray="5,2" d="M3305.8437,-661.0215C3306.7021,-615.1141 3308.9446,-495.1837 3309.972,-440.2369"/>
<polygon fill="#000000" stroke="#000000" points="3313.4729,-440.2189 3310.1605,-430.1552 3306.4741,-440.088 3313.4729,-440.2189"/>
</g>
<!-- raw_47 -->
<g id="node48" class="node">
<title>raw_47</title>
<ellipse fill="none" stroke="#000000" cx="3387.5" cy="-412.0006" rx="27" ry="18"/>
<text text-anchor="middle" x="3387.5" y="-407.8006" font-family="Helvetica,sans-Serif" font-size="14.00" fill="#000000">raw</text>
</g>
<!-- prose_40&#45;&gt;raw_47 -->
<g id="edge47" class="edge">
<title>prose_40&#45;&gt;raw_47</title>
<path fill="none" stroke="#000000" stroke-dasharray="5,2" d="M3387.5,-661.0215C3387.5,-615.1141 3387.5,-495.1837 3387.5,-440.2369"/>
<polygon fill="#000000" stroke="#000000" points="3391.0001,-440.1551 3387.5,-430.1552 3384.0001,-440.1552 3391.0001,-440.1551"/>
</g>
<!-- leaf_49 -->
<g id="node50" class="node">
<title>leaf_49</title>
<polygon fill="none" stroke="#c0c0c0" points="3826.5,-625.3014 3432.5,-625.3014 3432.5,-198.6999 3826.5,-198.6999 3826.5,-625.3014"/>
<text text-anchor="middle" x="3629.5" y="-610.201" font-family="Inconsolata" font-size="14.00" fill="#000000">function K.knit(knitter, doc)</text>
<text text-anchor="middle" x="3629.5" y="-594.8009" font-family="Inconsolata" font-size="14.00" fill="#000000"> &#160;&#160;&#160;local codeblocks = doc:select(&quot;codeblock&quot;)</text>
<text text-anchor="middle" x="3629.5" y="-579.4009" font-family="Inconsolata" font-size="14.00" fill="#000000"> &#160;&#160;&#160;local phrase = &quot;&quot;</text>
<text text-anchor="middle" x="3629.5" y="-564.0009" font-family="Inconsolata" font-size="14.00" fill="#000000"> &#160;&#160;&#160;local linum = 0</text>
<text text-anchor="middle" x="3629.5" y="-548.6008" font-family="Inconsolata" font-size="14.00" fill="#000000"> &#160;&#160;&#160;for _, cb in ipairs(codeblocks) do</text>
<text text-anchor="middle" x="3629.5" y="-533.2008" font-family="Inconsolata" font-size="14.00" fill="#000000"> &#160;&#160;&#160;&#160;&#160;&#160;&#160;cb:check()</text>
<text text-anchor="middle" x="3629.5" y="-517.8008" font-family="Inconsolata" font-size="14.00" fill="#000000"> &#160;&#160;&#160;&#160;&#160;&#160;&#160;&#45;&#45; Pad code with blank lines to line up errors</text>
<text text-anchor="middle" x="3629.5" y="-502.4007" font-family="Inconsolata" font-size="14.00" fill="#000000"> &#160;&#160;&#160;&#160;&#160;&#160;&#160;local pad_count = cb.line_first &#45; linum</text>
<text text-anchor="middle" x="3629.5" y="-471.0007" font-family="Inconsolata" font-size="14.00" fill="#000000"> &#160;&#160;&#160;&#160;&#160;&#160;&#160;local pad = (&quot;\n&quot;):rep(pad_count)</text>
<text text-anchor="middle" x="3629.5" y="-455.6007" font-family="Inconsolata" font-size="14.00" fill="#000000"> &#160;&#160;&#160;&#160;&#160;&#160;&#160;&#45;&#45; cat codeblock value</text>
<text text-anchor="middle" x="3629.5" y="-440.2007" font-family="Inconsolata" font-size="14.00" fill="#000000"> &#160;&#160;&#160;&#160;&#160;&#160;&#160;phrase = phrase .. pad .. cb.val </text>
<text text-anchor="middle" x="3629.5" y="-408.8006" font-family="Inconsolata" font-size="14.00" fill="#000000"> &#160;&#160;&#160;&#160;&#160;&#160;&#160;&#45;&#45; update linum</text>
<text text-anchor="middle" x="3629.5" y="-393.4006" font-family="Inconsolata" font-size="14.00" fill="#000000"> &#160;&#160;&#160;&#160;&#160;&#160;&#160;linum = cb.line_last &#45; 1</text>
<text text-anchor="middle" x="3629.5" y="-378.0006" font-family="Inconsolata" font-size="14.00" fill="#000000"> &#160;&#160;&#160;end</text>
<text text-anchor="middle" x="3629.5" y="-346.6005" font-family="Inconsolata" font-size="14.00" fill="#000000"> &#160;&#160;&#160;return phrase</text>
<text text-anchor="middle" x="3629.5" y="-331.2005" font-family="Inconsolata" font-size="14.00" fill="#000000">end</text>
<text text-anchor="middle" x="3629.5" y="-299.8005" font-family="Inconsolata" font-size="14.00" fill="#000000">local function new(Knitter, lang)</text>
<text text-anchor="middle" x="3629.5" y="-284.4004" font-family="Inconsolata" font-size="14.00" fill="#000000"> &#160;&#160;&#160;local knitter = setmetatable({}, K)</text>
<text text-anchor="middle" x="3629.5" y="-269.0004" font-family="Inconsolata" font-size="14.00" fill="#000000"> &#160;&#160;&#160;knitter.lang = lang or &quot;lua&quot;</text>
<text text-anchor="middle" x="3629.5" y="-253.6004" font-family="Inconsolata" font-size="14.00" fill="#000000"> &#160;&#160;&#160;return knitter</text>
<text text-anchor="middle" x="3629.5" y="-238.2003" font-family="Inconsolata" font-size="14.00" fill="#000000">end</text>
<text text-anchor="middle" x="3629.5" y="-206.8003" font-family="Inconsolata" font-size="14.00" fill="#000000">return u.export(k, new)</text>
</g>
<!-- codeblock_41&#45;&gt;leaf_49 -->
<g id="edge49" class="edge">
<title>codeblock_41&#45;&gt;leaf_49</title>
<path fill="none" stroke="#000000" stroke-dasharray="5,2" d="M3576.4178,-661.0215C3577.9141,-654.0022 3579.7793,-645.2523 3581.9074,-635.2687"/>
<polygon fill="#000000" stroke="#000000" points="3585.3631,-635.845 3584.0249,-625.335 3578.5169,-634.3856 3585.3631,-635.845"/>
</g>
<!-- leaf_44 -->
<g id="node45" class="node">
<title>leaf_44</title>
<polygon fill="none" stroke="#c0c0c0" points="3194,-109.2016 2905,-109.2016 2905,-53.3987 3194,-53.3987 3194,-109.2016"/>
<text text-anchor="middle" x="3049.5" y="-61.8002" font-family="Inconsolata" font-size="14.00" fill="#000000"> &#160;&#160;This is where it all comes together.</text>
</g>
<!-- raw_43&#45;&gt;leaf_44 -->
<g id="edge44" class="edge">
<title>raw_43&#45;&gt;leaf_44</title>
<path fill="none" stroke="#000000" stroke-dasharray="5,2" d="M3197.9799,-393.9926C3192.1657,-356.1314 3175.6201,-266.2017 3141.5,-198.6003 3126.3741,-168.6316 3102.9583,-138.9189 3083.536,-116.896"/>
<polygon fill="#000000" stroke="#000000" points="3086.1334,-114.55 3076.8528,-109.4392 3080.9206,-119.222 3086.1334,-114.55"/>
</g>
<!-- leaf_46 -->
<g id="node47" class="node">
<title>leaf_46</title>
<polygon fill="none" stroke="#c0c0c0" points="3711,-139.701 3212,-139.701 3212,-22.8993 3711,-22.8993 3711,-139.701"/>
<text text-anchor="middle" x="3461.5" y="-108.3002" font-family="Inconsolata" font-size="14.00" fill="#000000"> We&#39;re still bootstrapping. &#160;The only language is lua, we don&#39;t know </text>
<text text-anchor="middle" x="3461.5" y="-92.9002" font-family="Inconsolata" font-size="14.00" fill="#000000"> what hashtags are yet, and we go in simple linear order.</text>
<text text-anchor="middle" x="3461.5" y="-77.5002" font-family="Inconsolata" font-size="14.00" fill="#000000"> </text>
<text text-anchor="middle" x="3461.5" y="-62.1001" font-family="Inconsolata" font-size="14.00" fill="#000000"> &#45; knitter : &#160;the knit module. That is, K, rather than a given k in </text>
<text text-anchor="middle" x="3461.5" y="-46.7001" font-family="Inconsolata" font-size="14.00" fill="#000000"> &#160;&#160;&#160;&#160;&#160;&#160;&#160;&#160;&#160;&#160;&#160;&#160;&#160;K.langs.</text>
<text text-anchor="middle" x="3461.5" y="-31.3001" font-family="Inconsolata" font-size="14.00" fill="#000000"> &#45; doc &#160;&#160;&#160;&#160;: &#160;a Doc.</text>
</g>
<!-- raw_45&#45;&gt;leaf_46 -->
<g id="edge46" class="edge">
<title>raw_45&#45;&gt;leaf_46</title>
<path fill="none" stroke="#000000" stroke-dasharray="5,2" d="M3310.6496,-393.7708C3311.6586,-355.4899 3317.7383,-264.8099 3351.5,-198.6003 3360.8186,-180.3258 3373.8497,-162.8784 3387.6945,-147.2887"/>
<polygon fill="#000000" stroke="#000000" points="3390.3843,-149.5336 3394.5437,-139.7894 3385.2156,-144.813 3390.3843,-149.5336"/>
</g>
<!-- leaf_48 -->
<g id="node49" class="node">
<title>leaf_48</title>
<polygon fill="none" stroke="#c0c0c0" points="4018,-109.2016 3729,-109.2016 3729,-53.3987 4018,-53.3987 4018,-109.2016"/>
<text text-anchor="middle" x="3873.5" y="-77.8002" font-family="Inconsolata" font-size="14.00" fill="#000000"> &#45; #return : the knit file as a string.</text>
</g>
<!-- raw_47&#45;&gt;leaf_48 -->
<g id="edge48" class="edge">
<title>raw_47&#45;&gt;leaf_48</title>
<path fill="none" stroke="#000000" stroke-dasharray="5,2" d="M3384.208,-393.905C3377.8387,-352.566 3368.8828,-250.7561 3423.5,-198.6003 3471.422,-152.8379 3656.2636,-182.3961 3719.5,-162.6003 3755.7143,-151.2636 3793.4372,-131.4998 3822.4838,-114.2977"/>
<polygon fill="#000000" stroke="#000000" points="3824.4407,-117.2052 3831.2085,-109.0536 3820.8345,-111.2056 3824.4407,-117.2052"/>
</g>
</g>
</svg>