<?xml version="1.0" encoding="UTF-8" standalone="no"?>
<!DOCTYPE svg PUBLIC "-//W3C//DTD SVG 1.1//EN"
 "http://www.w3.org/Graphics/SVG/1.1/DTD/svg11.dtd">
<!-- Generated by graphviz version 2.40.1 (20161225.0304)
 -->
<!-- Title: lpegNode Pages: 1 -->
<svg width="1864pt" height="1663pt"
 viewBox="0.00 0.00 1864.10 1663.20" xmlns="http://www.w3.org/2000/svg" xmlns:xlink="http://www.w3.org/1999/xlink">
<g id="graph0" class="graph" transform="scale(1 1) rotate(0) translate(4 1659.2021)">
<title>lpegNode</title>
<polygon fill="#ffffff" stroke="transparent" points="-4,4 -4,-1659.2021 1860.0964,-1659.2021 1860.0964,4 -4,4"/>
<!-- doc_0 -->
<g id="node1" class="node">
<title>doc_0</title>
<ellipse fill="none" stroke="#000000" cx="268.0964" cy="-1637.2021" rx="42.1216" ry="18"/>
<text text-anchor="middle" x="268.0964" y="-1633.0021" font-family="Helvetica,sans-Serif" font-size="14.00" fill="#000000">doc &#45; 99</text>
</g>
<!-- section_1 -->
<g id="node2" class="node">
<title>section_1</title>
<ellipse fill="none" stroke="#000000" cx="268.0964" cy="-1565.2021" rx="60.9826" ry="18"/>
<text text-anchor="middle" x="268.0964" y="-1561.0021" font-family="Helvetica,sans-Serif" font-size="14.00" fill="#000000">section: 1&#45;30</text>
</g>
<!-- doc_0&#45;&gt;section_1 -->
<g id="edge1" class="edge">
<title>doc_0&#45;&gt;section_1</title>
<path fill="none" stroke="#000000" stroke-dasharray="5,2" d="M268.0964,-1619.0335C268.0964,-1611.3331 268.0964,-1602.1765 268.0964,-1593.6188"/>
<polygon fill="#000000" stroke="#000000" points="271.5965,-1593.6154 268.0964,-1583.6154 264.5965,-1593.6154 271.5965,-1593.6154"/>
</g>
<!-- header_2 -->
<g id="node3" class="node">
<title>header_2</title>
<ellipse fill="none" stroke="#000000" cx="69.0964" cy="-1493.2021" rx="69.1929" ry="18"/>
<text text-anchor="middle" x="69.0964" y="-1489.0021" font-family="Helvetica,sans-Serif" font-size="14.00" fill="#000000">1 : Knit module</text>
</g>
<!-- section_1&#45;&gt;header_2 -->
<g id="edge2" class="edge">
<title>section_1&#45;&gt;header_2</title>
<path fill="none" stroke="#000000" stroke-dasharray="5,2" d="M229.2548,-1551.1489C197.8555,-1539.7883 153.424,-1523.7126 119.3222,-1511.3743"/>
<polygon fill="#000000" stroke="#000000" points="120.142,-1507.9489 109.5478,-1507.8378 117.7604,-1514.5313 120.142,-1507.9489"/>
</g>
<!-- prose_3 -->
<g id="node4" class="node">
<title>prose_3</title>
<ellipse fill="none" stroke="#000000" cx="207.0964" cy="-1493.2021" rx="32.4585" ry="18"/>
<text text-anchor="middle" x="207.0964" y="-1489.0021" font-family="Helvetica,sans-Serif" font-size="14.00" fill="#000000">prose</text>
</g>
<!-- section_1&#45;&gt;prose_3 -->
<g id="edge3" class="edge">
<title>section_1&#45;&gt;prose_3</title>
<path fill="none" stroke="#000000" stroke-dasharray="5,2" d="M253.0177,-1547.4044C245.4103,-1538.4251 236.0658,-1527.3955 227.7966,-1517.6352"/>
<polygon fill="#000000" stroke="#000000" points="230.2999,-1515.1753 221.1652,-1509.808 224.9589,-1519.7003 230.2999,-1515.1753"/>
</g>
<!-- codeblock_4 -->
<g id="node5" class="node">
<title>codeblock_4</title>
<ellipse fill="none" stroke="#000000" cx="339.0964" cy="-1493.2021" rx="72.5844" ry="18"/>
<text text-anchor="middle" x="339.0964" y="-1489.0021" font-family="Helvetica,sans-Serif" font-size="14.00" fill="#000000">code block 6&#45;28</text>
</g>
<!-- section_1&#45;&gt;codeblock_4 -->
<g id="edge4" class="edge">
<title>section_1&#45;&gt;codeblock_4</title>
<path fill="none" stroke="#000000" stroke-dasharray="5,2" d="M285.2835,-1547.7729C294.1136,-1538.8185 305.0252,-1527.7531 314.7097,-1517.9323"/>
<polygon fill="#000000" stroke="#000000" points="317.2921,-1520.2982 321.8214,-1510.7204 312.3078,-1515.3832 317.2921,-1520.2982"/>
</g>
<!-- section_5 -->
<g id="node6" class="node">
<title>section_5</title>
<ellipse fill="none" stroke="#000000" cx="799.0964" cy="-1493.2021" rx="65.8187" ry="18"/>
<text text-anchor="middle" x="799.0964" y="-1489.0021" font-family="Helvetica,sans-Serif" font-size="14.00" fill="#000000">section: 31&#45;99</text>
</g>
<!-- section_1&#45;&gt;section_5 -->
<g id="edge5" class="edge">
<title>section_1&#45;&gt;section_5</title>
<path fill="none" stroke="#000000" stroke-dasharray="5,2" d="M323.42,-1557.7006C420.9475,-1544.4765 623.2103,-1517.0511 729.8445,-1502.5922"/>
<polygon fill="#000000" stroke="#000000" points="730.4196,-1506.0463 739.8586,-1501.2344 729.479,-1499.1098 730.4196,-1506.0463"/>
</g>
<!-- leaf_6 -->
<g id="node7" class="node">
<title>leaf_6</title>
<polygon fill="none" stroke="#c0c0c0" points="112.5964,-1297.4019 5.5964,-1297.4019 5.5964,-1261.4019 112.5964,-1261.4019 112.5964,-1297.4019"/>
<text text-anchor="middle" x="59.0964" y="-1275.9019" font-family="Inconsolata" font-size="14.00" fill="#000000">* Knit module</text>
</g>
<!-- header_2&#45;&gt;leaf_6 -->
<g id="edge6" class="edge">
<title>header_2&#45;&gt;leaf_6</title>
<path fill="none" stroke="#000000" stroke-dasharray="5,2" d="M68.2438,-1474.9736C66.4984,-1437.6576 62.5075,-1352.3313 60.4216,-1307.735"/>
<polygon fill="#000000" stroke="#000000" points="63.9103,-1307.4098 59.9468,-1297.5843 56.9179,-1307.7369 63.9103,-1307.4098"/>
</g>
<!-- raw_7 -->
<g id="node8" class="node">
<title>raw_7</title>
<ellipse fill="none" stroke="#000000" cx="158.0964" cy="-1279.4019" rx="27" ry="18"/>
<text text-anchor="middle" x="158.0964" y="-1275.2019" font-family="Helvetica,sans-Serif" font-size="14.00" fill="#000000">raw</text>
</g>
<!-- prose_3&#45;&gt;raw_7 -->
<g id="edge7" class="edge">
<title>prose_3&#45;&gt;raw_7</title>
<path fill="none" stroke="#000000" stroke-dasharray="5,2" d="M202.697,-1475.2178C200.1472,-1464.723 196.8972,-1451.223 194.0964,-1439.2021 183.3704,-1393.1675 171.3969,-1339.5476 164.3172,-1307.5976"/>
<polygon fill="#000000" stroke="#000000" points="167.6907,-1306.643 162.1128,-1297.6354 160.8561,-1308.1554 167.6907,-1306.643"/>
</g>
<!-- leaf_9 -->
<g id="node10" class="node">
<title>leaf_9</title>
<polygon fill="none" stroke="#c0c0c0" points="548.5964,-1439.0026 203.5964,-1439.0026 203.5964,-1119.8012 548.5964,-1119.8012 548.5964,-1439.0026"/>
<text text-anchor="middle" x="376.0964" y="-1424.0021" font-family="Inconsolata" font-size="14.00" fill="#000000">local L = require &quot;lpeg&quot;</text>
<text text-anchor="middle" x="376.0964" y="-1392.6021" font-family="Inconsolata" font-size="14.00" fill="#000000">local s = require &quot;singletons/status&quot; ()</text>
<text text-anchor="middle" x="376.0964" y="-1377.2021" font-family="Inconsolata" font-size="14.00" fill="#000000">local a = require &quot;singletons/anterm&quot;</text>
<text text-anchor="middle" x="376.0964" y="-1361.802" font-family="Inconsolata" font-size="14.00" fill="#000000">s.chatty = true</text>
<text text-anchor="middle" x="376.0964" y="-1346.402" font-family="Inconsolata" font-size="14.00" fill="#000000">s.verbose = false</text>
<text text-anchor="middle" x="376.0964" y="-1315.002" font-family="Inconsolata" font-size="14.00" fill="#000000">local pl_mini = require &quot;util/plmini&quot;</text>
<text text-anchor="middle" x="376.0964" y="-1299.6019" font-family="Inconsolata" font-size="14.00" fill="#000000">local read, write, delete = pl_mini.file.read,</text>
<text text-anchor="middle" x="376.0964" y="-1284.2019" font-family="Inconsolata" font-size="14.00" fill="#000000"> &#160;&#160;&#160;&#160;&#160;&#160;&#160;&#160;&#160;&#160;&#160;&#160;&#160;&#160;&#160;&#160;&#160;&#160;&#160;&#160;&#160;&#160;&#160;&#160;&#160;&#160;&#160;pl_mini.file.write,</text>
<text text-anchor="middle" x="376.0964" y="-1268.8019" font-family="Inconsolata" font-size="14.00" fill="#000000"> &#160;&#160;&#160;&#160;&#160;&#160;&#160;&#160;&#160;&#160;&#160;&#160;&#160;&#160;&#160;&#160;&#160;&#160;&#160;&#160;&#160;&#160;&#160;&#160;&#160;&#160;&#160;pl_mini.file.delete</text>
<text text-anchor="middle" x="376.0964" y="-1221.4018" font-family="Inconsolata" font-size="14.00" fill="#000000">local knitter = require &quot;orb:knit/knitter&quot;</text>
<text text-anchor="middle" x="376.0964" y="-1190.0018" font-family="Inconsolata" font-size="14.00" fill="#000000">local Dir = require &quot;orb:walk/directory&quot;</text>
<text text-anchor="middle" x="376.0964" y="-1174.6018" font-family="Inconsolata" font-size="14.00" fill="#000000">local Path = require &quot;orb:walk/path&quot;</text>
<text text-anchor="middle" x="376.0964" y="-1159.2017" font-family="Inconsolata" font-size="14.00" fill="#000000">local File = require &quot;orb:walk/file&quot;</text>
<text text-anchor="middle" x="376.0964" y="-1127.8017" font-family="Inconsolata" font-size="14.00" fill="#000000">local Doc = require &quot;orb:Orbit/doc&quot;</text>
</g>
<!-- codeblock_4&#45;&gt;leaf_9 -->
<g id="edge9" class="edge">
<title>codeblock_4&#45;&gt;leaf_9</title>
<path fill="none" stroke="#000000" stroke-dasharray="5,2" d="M342.251,-1474.9736C343.4826,-1467.8568 345.0165,-1458.9936 346.746,-1448.9997"/>
<polygon fill="#000000" stroke="#000000" points="350.2041,-1449.542 348.4607,-1439.0916 343.3066,-1448.3482 350.2041,-1449.542"/>
</g>
<!-- header_10 -->
<g id="node11" class="node">
<title>header_10</title>
<ellipse fill="none" stroke="#000000" cx="658.0964" cy="-1279.4019" rx="91.4192" ry="18"/>
<text text-anchor="middle" x="658.0964" y="-1275.2019" font-family="Helvetica,sans-Serif" font-size="14.00" fill="#000000">2 : knitCodex(codex)</text>
</g>
<!-- section_5&#45;&gt;header_10 -->
<g id="edge10" class="edge">
<title>section_5&#45;&gt;header_10</title>
<path fill="none" stroke="#000000" stroke-dasharray="5,2" d="M785.0168,-1475.5012C776.9069,-1465.1009 766.6569,-1451.6009 758.0964,-1439.2021 726.6174,-1393.6095 693.0418,-1338.436 673.9082,-1306.2906"/>
<polygon fill="#000000" stroke="#000000" points="676.7917,-1304.2912 668.6801,-1297.4756 670.771,-1307.8621 676.7917,-1304.2912"/>
</g>
<!-- prose_11 -->
<g id="node12" class="node">
<title>prose_11</title>
<ellipse fill="none" stroke="#000000" cx="799.0964" cy="-1279.4019" rx="32.4585" ry="18"/>
<text text-anchor="middle" x="799.0964" y="-1275.2019" font-family="Helvetica,sans-Serif" font-size="14.00" fill="#000000">prose</text>
</g>
<!-- section_5&#45;&gt;prose_11 -->
<g id="edge11" class="edge">
<title>section_5&#45;&gt;prose_11</title>
<path fill="none" stroke="#000000" stroke-dasharray="5,2" d="M799.0964,-1474.9736C799.0964,-1437.6576 799.0964,-1352.3313 799.0964,-1307.735"/>
<polygon fill="#000000" stroke="#000000" points="802.5965,-1307.5842 799.0964,-1297.5843 795.5965,-1307.5843 802.5965,-1307.5842"/>
</g>
<!-- prose_12 -->
<g id="node13" class="node">
<title>prose_12</title>
<ellipse fill="none" stroke="#000000" cx="997.0964" cy="-1279.4019" rx="32.4585" ry="18"/>
<text text-anchor="middle" x="997.0964" y="-1275.2019" font-family="Helvetica,sans-Serif" font-size="14.00" fill="#000000">prose</text>
</g>
<!-- section_5&#45;&gt;prose_12 -->
<g id="edge12" class="edge">
<title>section_5&#45;&gt;prose_12</title>
<path fill="none" stroke="#000000" stroke-dasharray="5,2" d="M815.2995,-1475.706C850.6874,-1437.4942 934.9204,-1346.5395 975.0747,-1303.1809"/>
<polygon fill="#000000" stroke="#000000" points="977.8108,-1305.3774 982.0377,-1295.6623 972.6749,-1300.6211 977.8108,-1305.3774"/>
</g>
<!-- codeblock_13 -->
<g id="node14" class="node">
<title>codeblock_13</title>
<ellipse fill="none" stroke="#000000" cx="1353.0964" cy="-1279.4019" rx="77.4211" ry="18"/>
<text text-anchor="middle" x="1353.0964" y="-1275.2019" font-family="Helvetica,sans-Serif" font-size="14.00" fill="#000000">code block 38&#45;98</text>
</g>
<!-- section_5&#45;&gt;codeblock_13 -->
<g id="edge13" class="edge">
<title>section_5&#45;&gt;codeblock_13</title>
<path fill="none" stroke="#000000" stroke-dasharray="5,2" d="M856.7245,-1484.3054C905.8512,-1475.7529 977.8659,-1460.9045 1038.0964,-1439.2021 1143.7863,-1401.1196 1259.5243,-1335.7064 1316.8038,-1301.582"/>
<polygon fill="#000000" stroke="#000000" points="1318.7038,-1304.5238 1325.4844,-1296.3829 1315.107,-1298.5186 1318.7038,-1304.5238"/>
</g>
<!-- leaf_8 -->
<g id="node9" class="node">
<title>leaf_8</title>
<polygon fill="none" stroke="#c0c0c0" points="295.5964,-659.402 20.5964,-659.402 20.5964,-587.5997 295.5964,-587.5997 295.5964,-659.402"/>
<text text-anchor="middle" x="158.0964" y="-596.0009" font-family="Inconsolata" font-size="14.00" fill="#000000"> This is due for a complete overhaul.</text>
</g>
<!-- raw_7&#45;&gt;leaf_8 -->
<g id="edge8" class="edge">
<title>raw_7&#45;&gt;leaf_8</title>
<path fill="none" stroke="#000000" stroke-dasharray="5,2" d="M158.0964,-1261.1748C158.0964,-1174.2514 158.0964,-800.629 158.0964,-669.3364"/>
<polygon fill="#000000" stroke="#000000" points="161.5965,-669.2134 158.0964,-659.2134 154.5965,-669.2134 161.5965,-669.2134"/>
</g>
<!-- leaf_14 -->
<g id="node15" class="node">
<title>leaf_14</title>
<polygon fill="none" stroke="#c0c0c0" points="652.5964,-641.5009 503.5964,-641.5009 503.5964,-605.5009 652.5964,-605.5009 652.5964,-641.5009"/>
<text text-anchor="middle" x="578.0964" y="-620.0009" font-family="Inconsolata" font-size="14.00" fill="#000000">** knitCodex(codex)</text>
</g>
<!-- header_10&#45;&gt;leaf_14 -->
<g id="edge14" class="edge">
<title>header_10&#45;&gt;leaf_14</title>
<path fill="none" stroke="#000000" stroke-dasharray="5,2" d="M655.8732,-1261.1748C644.7489,-1169.969 595.1255,-763.1185 581.543,-651.759"/>
<polygon fill="#000000" stroke="#000000" points="584.9938,-651.1425 580.3088,-641.6399 578.0453,-651.9901 584.9938,-651.1425"/>
</g>
<!-- raw_15 -->
<g id="node16" class="node">
<title>raw_15</title>
<ellipse fill="none" stroke="#000000" cx="698.0964" cy="-623.5009" rx="27" ry="18"/>
<text text-anchor="middle" x="698.0964" y="-619.3009" font-family="Helvetica,sans-Serif" font-size="14.00" fill="#000000">raw</text>
</g>
<!-- prose_11&#45;&gt;raw_15 -->
<g id="edge15" class="edge">
<title>prose_11&#45;&gt;raw_15</title>
<path fill="none" stroke="#000000" stroke-dasharray="5,2" d="M796.4443,-1261.0051C791.6084,-1230.566 779.7987,-1168.2543 758.0964,-1119.6017 750.2627,-1102.04 740.3829,-1101.7747 734.0964,-1083.6017 680.2804,-928.0323 689.6574,-725.8221 695.4584,-652.0348"/>
<polygon fill="#000000" stroke="#000000" points="698.9761,-651.9652 696.3145,-641.7102 692,-651.3867 698.9761,-651.9652"/>
</g>
<!-- prespace_17 -->
<g id="node18" class="node">
<title>prespace_17</title>
<ellipse fill="none" stroke="#000000" cx="789.0964" cy="-623.5009" rx="46.4736" ry="18"/>
<text text-anchor="middle" x="789.0964" y="-619.3009" font-family="Helvetica,sans-Serif" font-size="14.00" fill="#000000">prespace</text>
</g>
<!-- prose_12&#45;&gt;prespace_17 -->
<g id="edge17" class="edge">
<title>prose_12&#45;&gt;prespace_17</title>
<path fill="none" stroke="#000000" stroke-dasharray="5,2" d="M980.0099,-1263.8569C947.419,-1233.0635 876.8025,-1160.5995 845.0964,-1083.6017 782.1473,-930.7308 784.169,-726.8877 787.4215,-652.3504"/>
<polygon fill="#000000" stroke="#000000" points="790.9387,-652.0747 787.9235,-641.918 783.9468,-651.7382 790.9387,-652.0747"/>
</g>
<!-- literal_18 -->
<g id="node19" class="node">
<title>literal_18</title>
<ellipse fill="none" stroke="#000000" cx="885.0964" cy="-623.5009" rx="31.481" ry="18"/>
<text text-anchor="middle" x="885.0964" y="-619.3009" font-family="Helvetica,sans-Serif" font-size="14.00" fill="#000000">literal</text>
</g>
<!-- prose_12&#45;&gt;literal_18 -->
<g id="edge18" class="edge">
<title>prose_12&#45;&gt;literal_18</title>
<path fill="none" stroke="#000000" stroke-dasharray="5,2" d="M988.8069,-1261.7975C973.3404,-1228.0714 940.2806,-1151.6488 925.0964,-1083.6017 889.3028,-923.1959 885.1842,-724.6866 884.9643,-651.93"/>
<polygon fill="#000000" stroke="#000000" points="888.4643,-651.7391 884.9575,-641.7415 881.4643,-651.7439 888.4643,-651.7391"/>
</g>
<!-- raw_19 -->
<g id="node20" class="node">
<title>raw_19</title>
<ellipse fill="none" stroke="#000000" cx="961.0964" cy="-623.5009" rx="27" ry="18"/>
<text text-anchor="middle" x="961.0964" y="-619.3009" font-family="Helvetica,sans-Serif" font-size="14.00" fill="#000000">raw</text>
</g>
<!-- prose_12&#45;&gt;raw_19 -->
<g id="edge19" class="edge">
<title>prose_12&#45;&gt;raw_19</title>
<path fill="none" stroke="#000000" stroke-dasharray="5,2" d="M996.0959,-1261.1748C991.09,-1169.969 968.7595,-763.1185 962.6474,-651.759"/>
<polygon fill="#000000" stroke="#000000" points="966.1348,-651.433 962.092,-641.6399 959.1453,-651.8167 966.1348,-651.433"/>
</g>
<!-- link_20 -->
<g id="node21" class="node">
<title>link_20</title>
<ellipse fill="none" stroke="#000000" cx="1033.0964" cy="-623.5009" rx="27" ry="18"/>
<text text-anchor="middle" x="1033.0964" y="-619.3009" font-family="Helvetica,sans-Serif" font-size="14.00" fill="#000000">link</text>
</g>
<!-- prose_12&#45;&gt;link_20 -->
<g id="edge20" class="edge">
<title>prose_12&#45;&gt;link_20</title>
<path fill="none" stroke="#000000" stroke-dasharray="5,2" d="M998.0968,-1261.1748C1003.1027,-1169.969 1025.4333,-763.1185 1031.5454,-651.759"/>
<polygon fill="#000000" stroke="#000000" points="1035.0474,-651.8167 1032.1008,-641.6399 1028.0579,-651.433 1035.0474,-651.8167"/>
</g>
<!-- raw_21 -->
<g id="node22" class="node">
<title>raw_21</title>
<ellipse fill="none" stroke="#000000" cx="1153.0964" cy="-623.5009" rx="27" ry="18"/>
<text text-anchor="middle" x="1153.0964" y="-619.3009" font-family="Helvetica,sans-Serif" font-size="14.00" fill="#000000">raw</text>
</g>
<!-- prose_12&#45;&gt;raw_21 -->
<g id="edge21" class="edge">
<title>prose_12&#45;&gt;raw_21</title>
<path fill="none" stroke="#000000" stroke-dasharray="5,2" d="M1004.7997,-1261.6522C1019.2769,-1227.6809 1050.7365,-1150.8615 1069.0964,-1083.6017 1112.9257,-923.0367 1140.4205,-724.6231 1149.6393,-651.911"/>
<polygon fill="#000000" stroke="#000000" points="1153.1446,-652.0864 1150.9143,-641.7289 1146.1989,-651.2166 1153.1446,-652.0864"/>
</g>
<!-- link_22 -->
<g id="node23" class="node">
<title>link_22</title>
<ellipse fill="none" stroke="#000000" cx="1261.0964" cy="-623.5009" rx="27" ry="18"/>
<text text-anchor="middle" x="1261.0964" y="-619.3009" font-family="Helvetica,sans-Serif" font-size="14.00" fill="#000000">link</text>
</g>
<!-- prose_12&#45;&gt;link_22 -->
<g id="edge22" class="edge">
<title>prose_12&#45;&gt;link_22</title>
<path fill="none" stroke="#000000" stroke-dasharray="5,2" d="M1017.8195,-1265.2581C1058.2981,-1236.3853 1147.5382,-1166.3524 1189.0964,-1083.6017 1263.9715,-934.5103 1264.9197,-726.8292 1262.4712,-651.8819"/>
<polygon fill="#000000" stroke="#000000" points="1265.9659,-651.6718 1262.0937,-641.81 1258.9708,-651.9341 1265.9659,-651.6718"/>
</g>
<!-- raw_23 -->
<g id="node24" class="node">
<title>raw_23</title>
<ellipse fill="none" stroke="#000000" cx="1333.0964" cy="-623.5009" rx="27" ry="18"/>
<text text-anchor="middle" x="1333.0964" y="-619.3009" font-family="Helvetica,sans-Serif" font-size="14.00" fill="#000000">raw</text>
</g>
<!-- prose_12&#45;&gt;raw_23 -->
<g id="edge23" class="edge">
<title>prose_12&#45;&gt;raw_23</title>
<path fill="none" stroke="#000000" stroke-dasharray="5,2" d="M1021.3019,-1267.2001C1086.6762,-1233.7232 1264.1009,-1139.2357 1297.0964,-1083.6017 1381.8253,-940.7394 1352.937,-727.5412 1338.8813,-651.6028"/>
<polygon fill="#000000" stroke="#000000" points="1342.2495,-650.5822 1336.9304,-641.4194 1335.3745,-651.8994 1342.2495,-650.5822"/>
</g>
<!-- leaf_37 -->
<g id="node38" class="node">
<title>leaf_37</title>
<polygon fill="none" stroke="#c0c0c0" points="1856.0964,-1083.7025 1378.0964,-1083.7025 1378.0964,-163.2992 1856.0964,-163.2992 1856.0964,-1083.7025"/>
<text text-anchor="middle" x="1617.0964" y="-1068.4017" font-family="Inconsolata" font-size="14.00" fill="#000000">local function knitDeck(deck)</text>
<text text-anchor="middle" x="1617.0964" y="-1053.0017" font-family="Inconsolata" font-size="14.00" fill="#000000"> &#160;&#160;&#160;local dir = deck.dir</text>
<text text-anchor="middle" x="1617.0964" y="-1037.6016" font-family="Inconsolata" font-size="14.00" fill="#000000"> &#160;&#160;&#160;local codex = deck.codex</text>
<text text-anchor="middle" x="1617.0964" y="-1022.2016" font-family="Inconsolata" font-size="14.00" fill="#000000"> &#160;&#160;&#160;local orbDir = codex.orb</text>
<text text-anchor="middle" x="1617.0964" y="-1006.8016" font-family="Inconsolata" font-size="14.00" fill="#000000"> &#160;&#160;&#160;local srcDir = codex.src</text>
<text text-anchor="middle" x="1617.0964" y="-991.4015" font-family="Inconsolata" font-size="14.00" fill="#000000"> &#160;&#160;&#160;&#45;&#45; #todo load .deck file here</text>
<text text-anchor="middle" x="1617.0964" y="-976.0015" font-family="Inconsolata" font-size="14.00" fill="#000000"> &#160;&#160;&#160;for i, sub in ipairs(deck) do</text>
<text text-anchor="middle" x="1617.0964" y="-960.6015" font-family="Inconsolata" font-size="14.00" fill="#000000"> &#160;&#160;&#160;&#160;&#160;&#160;&#160;knitDeck(sub)</text>
<text text-anchor="middle" x="1617.0964" y="-945.2014" font-family="Inconsolata" font-size="14.00" fill="#000000"> &#160;&#160;&#160;end</text>
<text text-anchor="middle" x="1617.0964" y="-929.8014" font-family="Inconsolata" font-size="14.00" fill="#000000"> &#160;&#160;&#160;for name, doc in pairs(deck.docs) do</text>
<text text-anchor="middle" x="1617.0964" y="-914.4014" font-family="Inconsolata" font-size="14.00" fill="#000000"> &#160;&#160;&#160;&#160;&#160;&#160;&#160;local knitted, ext = knitter:knit(doc)</text>
<text text-anchor="middle" x="1617.0964" y="-899.0013" font-family="Inconsolata" font-size="14.00" fill="#000000"> &#160;&#160;&#160;&#160;&#160;&#160;&#160;if knitted then</text>
<text text-anchor="middle" x="1617.0964" y="-883.6013" font-family="Inconsolata" font-size="14.00" fill="#000000"> &#160;&#160;&#160;&#160;&#160;&#160;&#160;&#160;&#160;&#160;&#160;&#45;&#45; add to srcs</text>
<text text-anchor="middle" x="1617.0964" y="-868.2013" font-family="Inconsolata" font-size="14.00" fill="#000000"> &#160;&#160;&#160;&#160;&#160;&#160;&#160;&#160;&#160;&#160;&#160;local srcpath = Path(name):subFor(orbDir, srcDir, ext)</text>
<text text-anchor="middle" x="1617.0964" y="-852.8012" font-family="Inconsolata" font-size="14.00" fill="#000000"> &#160;&#160;&#160;&#160;&#160;&#160;&#160;&#160;&#160;&#160;&#160;s:verb(&quot;knitted: &quot; .. name)</text>
<text text-anchor="middle" x="1617.0964" y="-837.4012" font-family="Inconsolata" font-size="14.00" fill="#000000"> &#160;&#160;&#160;&#160;&#160;&#160;&#160;&#160;&#160;&#160;&#160;s:verb(&quot;into: &#160;&#160;&#160;&quot; .. tostring(srcpath))</text>
<text text-anchor="middle" x="1617.0964" y="-822.0012" font-family="Inconsolata" font-size="14.00" fill="#000000"> &#160;&#160;&#160;&#160;&#160;&#160;&#160;&#160;&#160;&#160;&#160;deck.srcs[srcpath] = knitted</text>
<text text-anchor="middle" x="1617.0964" y="-806.6012" font-family="Inconsolata" font-size="14.00" fill="#000000"> &#160;&#160;&#160;&#160;&#160;&#160;&#160;&#160;&#160;&#160;&#160;codex.srcs[srcpath] = knitted</text>
<text text-anchor="middle" x="1617.0964" y="-791.2011" font-family="Inconsolata" font-size="14.00" fill="#000000"> &#160;&#160;&#160;&#160;&#160;&#160;&#160;end</text>
<text text-anchor="middle" x="1617.0964" y="-759.8011" font-family="Inconsolata" font-size="14.00" fill="#000000"> &#160;&#160;&#160;end</text>
<text text-anchor="middle" x="1617.0964" y="-744.4011" font-family="Inconsolata" font-size="14.00" fill="#000000"> &#160;&#160;&#160;return srcs</text>
<text text-anchor="middle" x="1617.0964" y="-729.001" font-family="Inconsolata" font-size="14.00" fill="#000000">end</text>
<text text-anchor="middle" x="1617.0964" y="-697.601" font-family="Inconsolata" font-size="14.00" fill="#000000">local function writeOnChange(out_file, newest)</text>
<text text-anchor="middle" x="1617.0964" y="-682.201" font-family="Inconsolata" font-size="14.00" fill="#000000"> &#160;&#160;&#160;newest = tostring(newest)</text>
<text text-anchor="middle" x="1617.0964" y="-666.8009" font-family="Inconsolata" font-size="14.00" fill="#000000"> &#160;&#160;&#160;out_file = tostring(out_file)</text>
<text text-anchor="middle" x="1617.0964" y="-651.4009" font-family="Inconsolata" font-size="14.00" fill="#000000"> &#160;&#160;&#160;local current = read(tostring(out_file))</text>
<text text-anchor="middle" x="1617.0964" y="-636.0009" font-family="Inconsolata" font-size="14.00" fill="#000000"> &#160;&#160;&#160;&#45;&#45; If the text has changed, write it</text>
<text text-anchor="middle" x="1617.0964" y="-620.6008" font-family="Inconsolata" font-size="14.00" fill="#000000"> &#160;&#160;&#160;if newest ~= current then</text>
<text text-anchor="middle" x="1617.0964" y="-605.2008" font-family="Inconsolata" font-size="14.00" fill="#000000"> &#160;&#160;&#160;&#160;&#160;&#160;&#160;s:chat(a.green(&quot; &#160;&#45; &quot; .. tostring(out_file)))</text>
<text text-anchor="middle" x="1617.0964" y="-589.8008" font-family="Inconsolata" font-size="14.00" fill="#000000"> &#160;&#160;&#160;&#160;&#160;&#160;&#160;write(out_file, newest)</text>
<text text-anchor="middle" x="1617.0964" y="-574.4007" font-family="Inconsolata" font-size="14.00" fill="#000000"> &#160;&#160;&#160;&#160;&#160;&#160;&#160;return true</text>
<text text-anchor="middle" x="1617.0964" y="-559.0007" font-family="Inconsolata" font-size="14.00" fill="#000000"> &#160;&#160;&#160;&#45;&#45; If the new text is blank, delete the old file</text>
<text text-anchor="middle" x="1617.0964" y="-543.6007" font-family="Inconsolata" font-size="14.00" fill="#000000"> &#160;&#160;&#160;elseif current ~= &quot;&quot; and newest == &quot;&quot; then</text>
<text text-anchor="middle" x="1617.0964" y="-528.2007" font-family="Inconsolata" font-size="14.00" fill="#000000"> &#160;&#160;&#160;&#160;&#160;&#160;&#160;s:chat(a.red(&quot; &#160;&#45; &quot; .. tostring(out_file)))</text>
<text text-anchor="middle" x="1617.0964" y="-512.8006" font-family="Inconsolata" font-size="14.00" fill="#000000"> &#160;&#160;&#160;&#160;&#160;&#160;&#160;delete(out_file)</text>
<text text-anchor="middle" x="1617.0964" y="-497.4006" font-family="Inconsolata" font-size="14.00" fill="#000000"> &#160;&#160;&#160;&#160;&#160;&#160;&#160;return false</text>
<text text-anchor="middle" x="1617.0964" y="-482.0006" font-family="Inconsolata" font-size="14.00" fill="#000000"> &#160;&#160;&#160;else</text>
<text text-anchor="middle" x="1617.0964" y="-466.6005" font-family="Inconsolata" font-size="14.00" fill="#000000"> &#160;&#160;&#160;&#45;&#45; Otherwise do nothing</text>
<text text-anchor="middle" x="1617.0964" y="-435.2005" font-family="Inconsolata" font-size="14.00" fill="#000000"> &#160;&#160;&#160;&#160;&#160;&#160;&#160;return nil</text>
<text text-anchor="middle" x="1617.0964" y="-419.8005" font-family="Inconsolata" font-size="14.00" fill="#000000"> &#160;&#160;&#160;end</text>
<text text-anchor="middle" x="1617.0964" y="-404.4004" font-family="Inconsolata" font-size="14.00" fill="#000000">end</text>
<text text-anchor="middle" x="1617.0964" y="-373.0004" font-family="Inconsolata" font-size="14.00" fill="#000000">local function knitCodex(codex)</text>
<text text-anchor="middle" x="1617.0964" y="-357.6004" font-family="Inconsolata" font-size="14.00" fill="#000000"> &#160;&#160;&#160;local orb = codex.orb</text>
<text text-anchor="middle" x="1617.0964" y="-342.2003" font-family="Inconsolata" font-size="14.00" fill="#000000"> &#160;&#160;&#160;local src = codex.src</text>
<text text-anchor="middle" x="1617.0964" y="-326.8003" font-family="Inconsolata" font-size="14.00" fill="#000000"> &#160;&#160;&#160;s:chat(&quot;knitting orb directory: &quot; .. tostring(orb))</text>
<text text-anchor="middle" x="1617.0964" y="-311.4003" font-family="Inconsolata" font-size="14.00" fill="#000000"> &#160;&#160;&#160;s:chat(&quot;into src directory: &quot; .. tostring(src))</text>
<text text-anchor="middle" x="1617.0964" y="-296.0002" font-family="Inconsolata" font-size="14.00" fill="#000000"> &#160;&#160;&#160;knitDeck(orb)</text>
<text text-anchor="middle" x="1617.0964" y="-280.6002" font-family="Inconsolata" font-size="14.00" fill="#000000"> &#160;&#160;&#160;for name, src in pairs(codex.srcs) do</text>
<text text-anchor="middle" x="1617.0964" y="-265.2002" font-family="Inconsolata" font-size="14.00" fill="#000000"> &#160;&#160;&#160;&#160;&#160;&#160;&#160;writeOnChange(name, src)</text>
<text text-anchor="middle" x="1617.0964" y="-249.8002" font-family="Inconsolata" font-size="14.00" fill="#000000"> &#160;&#160;&#160;end</text>
<text text-anchor="middle" x="1617.0964" y="-234.4001" font-family="Inconsolata" font-size="14.00" fill="#000000">end</text>
<text text-anchor="middle" x="1617.0964" y="-219.0001" font-family="Inconsolata" font-size="14.00" fill="#000000">knitter.knitCodex = knitCodex</text>
<text text-anchor="middle" x="1617.0964" y="-171.6001" font-family="Inconsolata" font-size="14.00" fill="#000000">return knitter</text>
</g>
<!-- codeblock_13&#45;&gt;leaf_37 -->
<g id="edge37" class="edge">
<title>codeblock_13&#45;&gt;leaf_37</title>
<path fill="none" stroke="#000000" stroke-dasharray="5,2" d="M1360.4328,-1261.1748C1372.3521,-1231.5615 1397.6649,-1168.6726 1427.9514,-1093.4266"/>
<polygon fill="#000000" stroke="#000000" points="1431.377,-1094.2893 1431.8641,-1083.7056 1424.8833,-1091.6755 1431.377,-1094.2893"/>
</g>
<!-- leaf_16 -->
<g id="node17" class="node">
<title>leaf_16</title>
<polygon fill="none" stroke="#c0c0c0" points="517.5964,-127.6015 172.5964,-127.6015 172.5964,-71.7985 517.5964,-71.7985 517.5964,-127.6015"/>
<text text-anchor="middle" x="345.0964" y="-80.2" font-family="Inconsolata" font-size="14.00" fill="#000000">This is our new interface for knitting matters.</text>
</g>
<!-- raw_15&#45;&gt;leaf_16 -->
<g id="edge16" class="edge">
<title>raw_15&#45;&gt;leaf_16</title>
<path fill="none" stroke="#000000" stroke-dasharray="5,2" d="M703.3031,-605.6699C721.8552,-538.0499 777.6154,-294.6372 661.0964,-163.4 655.5404,-157.1422 586.1781,-142.8238 513.8535,-129.3443"/>
<polygon fill="#000000" stroke="#000000" points="514.1055,-125.8314 503.6349,-127.4487 512.8288,-132.714 514.1055,-125.8314"/>
</g>
<!-- leaf_24 -->
<g id="node25" class="node">
<title>leaf_24</title>
<polygon fill="none" stroke="#c0c0c0" points="590.0964,-117.7 536.0964,-117.7 536.0964,-81.7 590.0964,-81.7 590.0964,-117.7"/>
</g>
<!-- prespace_17&#45;&gt;leaf_24 -->
<g id="edge24" class="edge">
<title>prespace_17&#45;&gt;leaf_24</title>
<path fill="none" stroke="#000000" stroke-dasharray="5,2" d="M793.3166,-605.3224C807.9096,-537.4777 849.2839,-296.1762 734.0964,-163.4 693.4042,-116.4943 654.7874,-154.8684 599.0964,-127.4 596.8066,-126.2707 594.5203,-124.9839 592.2731,-123.5977"/>
<polygon fill="#000000" stroke="#000000" points="594.1113,-120.615 583.8754,-117.8804 590.1718,-126.4013 594.1113,-120.615"/>
</g>
<!-- leaf_25 -->
<g id="node26" class="node">
<title>leaf_25</title>
<polygon fill="none" stroke="#c0c0c0" points="687.5964,-117.7 608.5964,-117.7 608.5964,-81.7 687.5964,-81.7 687.5964,-117.7"/>
<text text-anchor="middle" x="648.0964" y="-96.2" font-family="Inconsolata" font-size="14.00" fill="#000000">knitCodex</text>
</g>
<!-- literal_18&#45;&gt;leaf_25 -->
<g id="edge25" class="edge">
<title>literal_18&#45;&gt;leaf_25</title>
<path fill="none" stroke="#000000" stroke-dasharray="5,2" d="M890.0653,-605.3312C907.4171,-537.5179 958.2817,-296.3135 844.0964,-163.4 800.2641,-112.3787 759.6281,-152.1837 697.0964,-127.4 693.4199,-125.9429 689.6813,-124.2543 685.9921,-122.4437"/>
<polygon fill="#000000" stroke="#000000" points="687.473,-119.2688 676.987,-117.7545 684.24,-125.4775 687.473,-119.2688"/>
</g>
<!-- leaf_26 -->
<g id="node27" class="node">
<title>leaf_26</title>
<polygon fill="none" stroke="#c0c0c0" points="946.0964,-117.7 706.0964,-117.7 706.0964,-81.7 946.0964,-81.7 946.0964,-117.7"/>
<text text-anchor="middle" x="826.0964" y="-96.2" font-family="Inconsolata" font-size="14.00" fill="#000000"> expects a codex which has been </text>
</g>
<!-- raw_19&#45;&gt;leaf_26 -->
<g id="edge26" class="edge">
<title>raw_19&#45;&gt;leaf_26</title>
<path fill="none" stroke="#000000" stroke-dasharray="5,2" d="M964.9634,-605.5627C977.9671,-540.5138 1014.4791,-312.9985 925.0964,-163.4 914.7413,-146.069 897.6373,-132.6284 880.5345,-122.6564"/>
<polygon fill="#000000" stroke="#000000" points="882.0754,-119.5094 871.6267,-117.7556 878.7011,-125.6425 882.0754,-119.5094"/>
</g>
<!-- anchortext_27 -->
<g id="node28" class="node">
<title>anchortext_27</title>
<ellipse fill="none" stroke="#000000" cx="1015.0964" cy="-99.7" rx="51.3018" ry="18"/>
<text text-anchor="middle" x="1015.0964" y="-95.5" font-family="Helvetica,sans-Serif" font-size="14.00" fill="#000000">anchortext</text>
</g>
<!-- link_20&#45;&gt;anchortext_27 -->
<g id="edge27" class="edge">
<title>link_20&#45;&gt;anchortext_27</title>
<path fill="none" stroke="#000000" stroke-dasharray="5,2" d="M1032.4768,-605.4704C1029.813,-527.9558 1019.3228,-222.689 1016.0661,-127.919"/>
<polygon fill="#000000" stroke="#000000" points="1019.5641,-127.7987 1015.7226,-117.9248 1012.5682,-128.0392 1019.5641,-127.7987"/>
</g>
<!-- url_28 -->
<g id="node29" class="node">
<title>url_28</title>
<ellipse fill="none" stroke="#000000" cx="1111.0964" cy="-99.7" rx="27" ry="18"/>
<text text-anchor="middle" x="1111.0964" y="-95.5" font-family="Helvetica,sans-Serif" font-size="14.00" fill="#000000">url</text>
</g>
<!-- link_20&#45;&gt;url_28 -->
<g id="edge28" class="edge">
<title>link_20&#45;&gt;url_28</title>
<path fill="none" stroke="#000000" stroke-dasharray="5,2" d="M1035.7813,-605.4704C1047.337,-527.8692 1092.8835,-222.0066 1106.9414,-127.6021"/>
<polygon fill="#000000" stroke="#000000" points="1110.4116,-128.0611 1108.4227,-117.6546 1103.4879,-127.03 1110.4116,-128.0611"/>
</g>
<!-- leaf_31 -->
<g id="node32" class="node">
<title>leaf_31</title>
<polygon fill="none" stroke="#c0c0c0" points="1210.0964,-117.7 1156.0964,-117.7 1156.0964,-81.7 1210.0964,-81.7 1210.0964,-117.7"/>
<text text-anchor="middle" x="1183.0964" y="-96.2" font-family="Inconsolata" font-size="14.00" fill="#000000"> and</text>
</g>
<!-- raw_21&#45;&gt;leaf_31 -->
<g id="edge31" class="edge">
<title>raw_21&#45;&gt;leaf_31</title>
<path fill="none" stroke="#000000" stroke-dasharray="5,2" d="M1154.129,-605.4704C1158.5686,-527.9558 1176.0523,-222.689 1181.4802,-127.919"/>
<polygon fill="#000000" stroke="#000000" points="1184.9749,-128.1086 1182.0526,-117.9248 1177.9864,-127.7083 1184.9749,-128.1086"/>
</g>
<!-- anchortext_32 -->
<g id="node33" class="node">
<title>anchortext_32</title>
<ellipse fill="none" stroke="#000000" cx="1279.0964" cy="-99.7" rx="51.3018" ry="18"/>
<text text-anchor="middle" x="1279.0964" y="-95.5" font-family="Helvetica,sans-Serif" font-size="14.00" fill="#000000">anchortext</text>
</g>
<!-- link_22&#45;&gt;anchortext_32 -->
<g id="edge32" class="edge">
<title>link_22&#45;&gt;anchortext_32</title>
<path fill="none" stroke="#000000" stroke-dasharray="5,2" d="M1261.716,-605.4704C1264.3797,-527.9558 1274.8699,-222.689 1278.1266,-127.919"/>
<polygon fill="#000000" stroke="#000000" points="1281.6245,-128.0392 1278.4701,-117.9248 1274.6286,-127.7987 1281.6245,-128.0392"/>
</g>
<!-- url_33 -->
<g id="node34" class="node">
<title>url_33</title>
<ellipse fill="none" stroke="#000000" cx="1375.0964" cy="-99.7" rx="27" ry="18"/>
<text text-anchor="middle" x="1375.0964" y="-95.5" font-family="Helvetica,sans-Serif" font-size="14.00" fill="#000000">url</text>
</g>
<!-- link_22&#45;&gt;url_33 -->
<g id="edge33" class="edge">
<title>link_22&#45;&gt;url_33</title>
<path fill="none" stroke="#000000" stroke-dasharray="5,2" d="M1257.7364,-605.4457C1246.6716,-540.9309 1216.4956,-317.4553 1297.0964,-163.4 1298.6775,-160.378 1327.3184,-137.3673 1349.4392,-119.8621"/>
<polygon fill="#000000" stroke="#000000" points="1351.8482,-122.4195 1357.5279,-113.4757 1347.5105,-116.9255 1351.8482,-122.4195"/>
</g>
<!-- leaf_36 -->
<g id="node37" class="node">
<title>leaf_36</title>
<polygon fill="none" stroke="#c0c0c0" points="1474.0964,-117.7 1420.0964,-117.7 1420.0964,-81.7 1474.0964,-81.7 1474.0964,-117.7"/>
<text text-anchor="middle" x="1447.0964" y="-96.2" font-family="Inconsolata" font-size="14.00" fill="#000000">.</text>
</g>
<!-- raw_23&#45;&gt;leaf_36 -->
<g id="edge36" class="edge">
<title>raw_23&#45;&gt;leaf_36</title>
<path fill="none" stroke="#000000" stroke-dasharray="5,2" d="M1329.7364,-605.4457C1318.6716,-540.9309 1288.4956,-317.4553 1369.0964,-163.4 1370.5517,-160.6184 1394.9331,-140.9016 1416.0535,-124.1311"/>
<polygon fill="#000000" stroke="#000000" points="1418.268,-126.842 1423.9338,-117.8894 1413.9217,-121.3548 1418.268,-126.842"/>
</g>
<!-- leaf_29 -->
<g id="node30" class="node">
<title>leaf_29</title>
<polygon fill="none" stroke="#c0c0c0" points="1042.0964,-36 988.0964,-36 988.0964,0 1042.0964,0 1042.0964,-36"/>
<text text-anchor="middle" x="1015.0964" y="-14.5" font-family="Inconsolata" font-size="14.00" fill="#000000">cased</text>
</g>
<!-- anchortext_27&#45;&gt;leaf_29 -->
<g id="edge29" class="edge">
<title>anchortext_27&#45;&gt;leaf_29</title>
<path fill="none" stroke="#000000" stroke-dasharray="5,2" d="M1015.0964,-81.5681C1015.0964,-71.2023 1015.0964,-57.9747 1015.0964,-46.2729"/>
<polygon fill="#000000" stroke="#000000" points="1018.5965,-46.0812 1015.0964,-36.0812 1011.5965,-46.0812 1018.5965,-46.0812"/>
</g>
<!-- leaf_30 -->
<g id="node31" class="node">
<title>leaf_30</title>
<polygon fill="none" stroke="#c0c0c0" points="1143.5964,-36 1078.5964,-36 1078.5964,0 1143.5964,0 1143.5964,-36"/>
<text text-anchor="middle" x="1111.0964" y="-14.5" font-family="Inconsolata" font-size="14.00" fill="#000000">httk://</text>
</g>
<!-- url_28&#45;&gt;leaf_30 -->
<g id="edge30" class="edge">
<title>url_28&#45;&gt;leaf_30</title>
<path fill="none" stroke="#000000" stroke-dasharray="5,2" d="M1111.0964,-81.5681C1111.0964,-71.2023 1111.0964,-57.9747 1111.0964,-46.2729"/>
<polygon fill="#000000" stroke="#000000" points="1114.5965,-46.0812 1111.0964,-36.0812 1107.5965,-46.0812 1114.5965,-46.0812"/>
</g>
<!-- leaf_34 -->
<g id="node35" class="node">
<title>leaf_34</title>
<polygon fill="none" stroke="#c0c0c0" points="1306.0964,-36 1252.0964,-36 1252.0964,0 1306.0964,0 1306.0964,-36"/>
<text text-anchor="middle" x="1279.0964" y="-14.5" font-family="Inconsolata" font-size="14.00" fill="#000000">spun</text>
</g>
<!-- anchortext_32&#45;&gt;leaf_34 -->
<g id="edge34" class="edge">
<title>anchortext_32&#45;&gt;leaf_34</title>
<path fill="none" stroke="#000000" stroke-dasharray="5,2" d="M1279.0964,-81.5681C1279.0964,-71.2023 1279.0964,-57.9747 1279.0964,-46.2729"/>
<polygon fill="#000000" stroke="#000000" points="1282.5965,-46.0812 1279.0964,-36.0812 1275.5965,-46.0812 1282.5965,-46.0812"/>
</g>
<!-- leaf_35 -->
<g id="node36" class="node">
<title>leaf_35</title>
<polygon fill="none" stroke="#c0c0c0" points="1407.5964,-36 1342.5964,-36 1342.5964,0 1407.5964,0 1407.5964,-36"/>
<text text-anchor="middle" x="1375.0964" y="-14.5" font-family="Inconsolata" font-size="14.00" fill="#000000">httk://</text>
</g>
<!-- url_33&#45;&gt;leaf_35 -->
<g id="edge35" class="edge">
<title>url_33&#45;&gt;leaf_35</title>
<path fill="none" stroke="#000000" stroke-dasharray="5,2" d="M1375.0964,-81.5681C1375.0964,-71.2023 1375.0964,-57.9747 1375.0964,-46.2729"/>
<polygon fill="#000000" stroke="#000000" points="1378.5965,-46.0812 1375.0964,-36.0812 1371.5965,-46.0812 1378.5965,-46.0812"/>
</g>
</g>
</svg>
