<?xml version="1.0" encoding="UTF-8" standalone="no"?>
<!DOCTYPE svg PUBLIC "-//W3C//DTD SVG 1.1//EN"
 "http://www.w3.org/Graphics/SVG/1.1/DTD/svg11.dtd">
<!-- Generated by graphviz version 2.40.1 (20161225.0304)
 -->
<!-- Title: hierarchy Pages: 1 -->
<svg width="3947pt" height="906pt"
 viewBox="0.00 0.00 3947.00 906.00" xmlns="http://www.w3.org/2000/svg" xmlns:xlink="http://www.w3.org/1999/xlink">
<g id="graph0" class="graph" transform="scale(1 1) rotate(0) translate(4 902.0009)">
<title>hierarchy</title>
<polygon fill="#ffffff" stroke="transparent" points="-4,4 -4,-902.0009 3943,-902.0009 3943,4 -4,4"/>
<!-- doc_0 -->
<g id="node1" class="node">
<title>doc_0</title>
<ellipse fill="none" stroke="#000000" cx="1409.5" cy="-880.0009" rx="42.1216" ry="18"/>
<text text-anchor="middle" x="1409.5" y="-875.8009" font-family="Helvetica,sans-Serif" font-size="14.00" fill="#000000">doc &#45; 89</text>
</g>
<!-- section_1 -->
<g id="node2" class="node">
<title>section_1</title>
<ellipse fill="none" stroke="#000000" cx="1409.5" cy="-808.0009" rx="60.9826" ry="18"/>
<text text-anchor="middle" x="1409.5" y="-803.8009" font-family="Helvetica,sans-Serif" font-size="14.00" fill="#000000">section: 1&#45;46</text>
</g>
<!-- doc_0&#45;&gt;section_1 -->
<g id="edge1" class="edge">
<title>doc_0&#45;&gt;section_1</title>
<path fill="none" stroke="#000000" stroke-dasharray="5,2" d="M1409.5,-861.8323C1409.5,-854.1319 1409.5,-844.9753 1409.5,-836.4176"/>
<polygon fill="#000000" stroke="#000000" points="1413.0001,-836.4142 1409.5,-826.4142 1406.0001,-836.4142 1413.0001,-836.4142"/>
</g>
<!-- header_2 -->
<g id="node3" class="node">
<title>header_2</title>
<ellipse fill="none" stroke="#000000" cx="1115.5" cy="-736.0009" rx="79.3333" ry="18"/>
<text text-anchor="middle" x="1115.5" y="-731.8009" font-family="Helvetica,sans-Serif" font-size="14.00" fill="#000000">1 : Knitter Module</text>
</g>
<!-- section_1&#45;&gt;header_2 -->
<g id="edge2" class="edge">
<title>section_1&#45;&gt;header_2</title>
<path fill="none" stroke="#000000" stroke-dasharray="5,2" d="M1362.5897,-796.5127C1313.065,-784.3842 1234.6758,-765.1868 1179.4968,-751.6736"/>
<polygon fill="#000000" stroke="#000000" points="1180.0215,-748.1988 1169.4759,-749.2195 1178.3564,-754.9978 1180.0215,-748.1988"/>
</g>
<!-- prose_3 -->
<g id="node4" class="node">
<title>prose_3</title>
<ellipse fill="none" stroke="#000000" cx="1245.5" cy="-736.0009" rx="32.4585" ry="18"/>
<text text-anchor="middle" x="1245.5" y="-731.8009" font-family="Helvetica,sans-Serif" font-size="14.00" fill="#000000">prose</text>
</g>
<!-- section_1&#45;&gt;prose_3 -->
<g id="edge3" class="edge">
<title>section_1&#45;&gt;prose_3</title>
<path fill="none" stroke="#000000" stroke-dasharray="5,2" d="M1375.1202,-792.9074C1347.3097,-780.6979 1308.3158,-763.5786 1280.3739,-751.3114"/>
<polygon fill="#000000" stroke="#000000" points="1281.5513,-748.0059 1270.9879,-747.1907 1278.7374,-754.4155 1281.5513,-748.0059"/>
</g>
<!-- prose_4 -->
<g id="node5" class="node">
<title>prose_4</title>
<ellipse fill="none" stroke="#000000" cx="1327.5" cy="-736.0009" rx="32.4585" ry="18"/>
<text text-anchor="middle" x="1327.5" y="-731.8009" font-family="Helvetica,sans-Serif" font-size="14.00" fill="#000000">prose</text>
</g>
<!-- section_1&#45;&gt;prose_4 -->
<g id="edge4" class="edge">
<title>section_1&#45;&gt;prose_4</title>
<path fill="none" stroke="#000000" stroke-dasharray="5,2" d="M1390.0671,-790.9379C1378.8006,-781.0453 1364.4965,-768.4857 1352.4098,-757.873"/>
<polygon fill="#000000" stroke="#000000" points="1354.6653,-755.1956 1344.8415,-751.2276 1350.0466,-760.4557 1354.6653,-755.1956"/>
</g>
<!-- prose_5 -->
<g id="node6" class="node">
<title>prose_5</title>
<ellipse fill="none" stroke="#000000" cx="1409.5" cy="-736.0009" rx="32.4585" ry="18"/>
<text text-anchor="middle" x="1409.5" y="-731.8009" font-family="Helvetica,sans-Serif" font-size="14.00" fill="#000000">prose</text>
</g>
<!-- section_1&#45;&gt;prose_5 -->
<g id="edge5" class="edge">
<title>section_1&#45;&gt;prose_5</title>
<path fill="none" stroke="#000000" stroke-dasharray="5,2" d="M1409.5,-789.8323C1409.5,-782.1319 1409.5,-772.9753 1409.5,-764.4176"/>
<polygon fill="#000000" stroke="#000000" points="1413.0001,-764.4142 1409.5,-754.4142 1406.0001,-764.4142 1413.0001,-764.4142"/>
</g>
<!-- section_6 -->
<g id="node7" class="node">
<title>section_6</title>
<ellipse fill="none" stroke="#000000" cx="1568.5" cy="-736.0009" rx="65.8187" ry="18"/>
<text text-anchor="middle" x="1568.5" y="-731.8009" font-family="Helvetica,sans-Serif" font-size="14.00" fill="#000000">section: 14&#45;25</text>
</g>
<!-- section_1&#45;&gt;section_6 -->
<g id="edge6" class="edge">
<title>section_1&#45;&gt;section_6</title>
<path fill="none" stroke="#000000" stroke-dasharray="5,2" d="M1442.8316,-792.9074C1466.7568,-782.0733 1499.2192,-767.3734 1525.1569,-755.628"/>
<polygon fill="#000000" stroke="#000000" points="1526.724,-758.7606 1534.3897,-751.4471 1523.8364,-752.3839 1526.724,-758.7606"/>
</g>
<!-- section_7 -->
<g id="node8" class="node">
<title>section_7</title>
<ellipse fill="none" stroke="#000000" cx="2030.5" cy="-736.0009" rx="65.8187" ry="18"/>
<text text-anchor="middle" x="2030.5" y="-731.8009" font-family="Helvetica,sans-Serif" font-size="14.00" fill="#000000">section: 26&#45;46</text>
</g>
<!-- section_1&#45;&gt;section_7 -->
<g id="edge7" class="edge">
<title>section_1&#45;&gt;section_7</title>
<path fill="none" stroke="#000000" stroke-dasharray="5,2" d="M1466.2559,-801.4205C1579.9808,-788.2351 1835.4931,-758.6104 1959.8396,-744.1934"/>
<polygon fill="#000000" stroke="#000000" points="1960.4793,-747.6428 1970.0097,-743.0143 1959.6731,-740.6894 1960.4793,-747.6428"/>
</g>
<!-- section_8 -->
<g id="node9" class="node">
<title>section_8</title>
<ellipse fill="none" stroke="#000000" cx="3255.5" cy="-736.0009" rx="65.8187" ry="18"/>
<text text-anchor="middle" x="3255.5" y="-731.8009" font-family="Helvetica,sans-Serif" font-size="14.00" fill="#000000">section: 47&#45;89</text>
</g>
<!-- section_1&#45;&gt;section_8 -->
<g id="edge8" class="edge">
<title>section_1&#45;&gt;section_8</title>
<path fill="none" stroke="#000000" stroke-dasharray="5,2" d="M1469.8702,-805.6463C1744.6608,-794.9286 2876.8813,-750.7683 3180.3651,-738.9314"/>
<polygon fill="#000000" stroke="#000000" points="3180.5268,-742.4279 3190.3828,-738.5407 3180.254,-735.4332 3180.5268,-742.4279"/>
</g>
<!-- raw_9 -->
<g id="node10" class="node">
<title>raw_9</title>
<ellipse fill="none" stroke="#000000" cx="1177.5" cy="-664.0009" rx="27" ry="18"/>
<text text-anchor="middle" x="1177.5" y="-659.8009" font-family="Helvetica,sans-Serif" font-size="14.00" fill="#000000">raw</text>
</g>
<!-- prose_3&#45;&gt;raw_9 -->
<g id="edge9" class="edge">
<title>prose_3&#45;&gt;raw_9</title>
<path fill="none" stroke="#000000" stroke-dasharray="5,2" d="M1230.4086,-720.0218C1221.2148,-710.2872 1209.3164,-697.6889 1199.1321,-686.9055"/>
<polygon fill="#000000" stroke="#000000" points="1201.4933,-684.3082 1192.0825,-679.4412 1196.4042,-689.1146 1201.4933,-684.3082"/>
</g>
<!-- raw_11 -->
<g id="node12" class="node">
<title>raw_11</title>
<ellipse fill="none" stroke="#000000" cx="1254.5" cy="-664.0009" rx="27" ry="18"/>
<text text-anchor="middle" x="1254.5" y="-659.8009" font-family="Helvetica,sans-Serif" font-size="14.00" fill="#000000">raw</text>
</g>
<!-- prose_4&#45;&gt;raw_11 -->
<g id="edge11" class="edge">
<title>prose_4&#45;&gt;raw_11</title>
<path fill="none" stroke="#000000" stroke-dasharray="5,2" d="M1311.2989,-720.0218C1301.1968,-710.0581 1288.0529,-697.0942 1276.9537,-686.1471"/>
<polygon fill="#000000" stroke="#000000" points="1279.2363,-683.4824 1269.6589,-678.9522 1274.3208,-688.4662 1279.2363,-683.4824"/>
</g>
<!-- raw_13 -->
<g id="node14" class="node">
<title>raw_13</title>
<ellipse fill="none" stroke="#000000" cx="1333.5" cy="-664.0009" rx="27" ry="18"/>
<text text-anchor="middle" x="1333.5" y="-659.8009" font-family="Helvetica,sans-Serif" font-size="14.00" fill="#000000">raw</text>
</g>
<!-- prose_5&#45;&gt;raw_13 -->
<g id="edge13" class="edge">
<title>prose_5&#45;&gt;raw_13</title>
<path fill="none" stroke="#000000" stroke-dasharray="5,2" d="M1393.0091,-720.378C1382.3371,-710.2677 1368.2903,-696.9602 1356.524,-685.8131"/>
<polygon fill="#000000" stroke="#000000" points="1358.8462,-683.1919 1349.1796,-678.8553 1354.032,-688.2736 1358.8462,-683.1919"/>
</g>
<!-- header_15 -->
<g id="node16" class="node">
<title>header_15</title>
<ellipse fill="none" stroke="#000000" cx="1461.5" cy="-664.0009" rx="56.6492" ry="18"/>
<text text-anchor="middle" x="1461.5" y="-659.8009" font-family="Helvetica,sans-Serif" font-size="14.00" fill="#000000">3 : An Aside</text>
</g>
<!-- section_6&#45;&gt;header_15 -->
<g id="edge15" class="edge">
<title>section_6&#45;&gt;header_15</title>
<path fill="none" stroke="#000000" stroke-dasharray="5,2" d="M1543.6831,-719.3017C1528.9938,-709.4173 1510.2086,-696.7768 1494.3068,-686.0765"/>
<polygon fill="#000000" stroke="#000000" points="1496.064,-683.0403 1485.8134,-680.3614 1492.156,-688.8479 1496.064,-683.0403"/>
</g>
<!-- prose_16 -->
<g id="node17" class="node">
<title>prose_16</title>
<ellipse fill="none" stroke="#000000" cx="1568.5" cy="-664.0009" rx="32.4585" ry="18"/>
<text text-anchor="middle" x="1568.5" y="-659.8009" font-family="Helvetica,sans-Serif" font-size="14.00" fill="#000000">prose</text>
</g>
<!-- section_6&#45;&gt;prose_16 -->
<g id="edge16" class="edge">
<title>section_6&#45;&gt;prose_16</title>
<path fill="none" stroke="#000000" stroke-dasharray="5,2" d="M1568.5,-717.8323C1568.5,-710.1319 1568.5,-700.9753 1568.5,-692.4176"/>
<polygon fill="#000000" stroke="#000000" points="1572.0001,-692.4142 1568.5,-682.4142 1565.0001,-692.4142 1572.0001,-692.4142"/>
</g>
<!-- prose_17 -->
<g id="node18" class="node">
<title>prose_17</title>
<ellipse fill="none" stroke="#000000" cx="1650.5" cy="-664.0009" rx="32.4585" ry="18"/>
<text text-anchor="middle" x="1650.5" y="-659.8009" font-family="Helvetica,sans-Serif" font-size="14.00" fill="#000000">prose</text>
</g>
<!-- section_6&#45;&gt;prose_17 -->
<g id="edge17" class="edge">
<title>section_6&#45;&gt;prose_17</title>
<path fill="none" stroke="#000000" stroke-dasharray="5,2" d="M1588.3499,-718.5717C1599.4412,-708.833 1613.3761,-696.5975 1625.2387,-686.1816"/>
<polygon fill="#000000" stroke="#000000" points="1627.8546,-688.5424 1633.0597,-679.3143 1623.236,-683.2823 1627.8546,-688.5424"/>
</g>
<!-- prose_18 -->
<g id="node19" class="node">
<title>prose_18</title>
<ellipse fill="none" stroke="#000000" cx="1732.5" cy="-664.0009" rx="32.4585" ry="18"/>
<text text-anchor="middle" x="1732.5" y="-659.8009" font-family="Helvetica,sans-Serif" font-size="14.00" fill="#000000">prose</text>
</g>
<!-- section_6&#45;&gt;prose_18 -->
<g id="edge18" class="edge">
<title>section_6&#45;&gt;prose_18</title>
<path fill="none" stroke="#000000" stroke-dasharray="5,2" d="M1603.2802,-720.7316C1631.12,-708.5092 1669.9754,-691.4508 1697.7953,-679.2372"/>
<polygon fill="#000000" stroke="#000000" points="1699.3897,-682.3597 1707.1391,-675.135 1696.5757,-675.9502 1699.3897,-682.3597"/>
</g>
<!-- header_25 -->
<g id="node26" class="node">
<title>header_25</title>
<ellipse fill="none" stroke="#000000" cx="1930.5" cy="-664.0009" rx="49.8481" ry="18"/>
<text text-anchor="middle" x="1930.5" y="-659.8009" font-family="Helvetica,sans-Serif" font-size="14.00" fill="#000000">2 : Design</text>
</g>
<!-- section_7&#45;&gt;header_25 -->
<g id="edge25" class="edge">
<title>section_7&#45;&gt;header_25</title>
<path fill="none" stroke="#000000" stroke-dasharray="5,2" d="M2007.0544,-719.1201C1993.4459,-709.3219 1976.1401,-696.8618 1961.4266,-686.2681"/>
<polygon fill="#000000" stroke="#000000" points="1963.271,-683.2832 1953.1105,-680.2805 1959.1808,-688.964 1963.271,-683.2832"/>
</g>
<!-- prose_26 -->
<g id="node27" class="node">
<title>prose_26</title>
<ellipse fill="none" stroke="#000000" cx="2030.5" cy="-664.0009" rx="32.4585" ry="18"/>
<text text-anchor="middle" x="2030.5" y="-659.8009" font-family="Helvetica,sans-Serif" font-size="14.00" fill="#000000">prose</text>
</g>
<!-- section_7&#45;&gt;prose_26 -->
<g id="edge26" class="edge">
<title>section_7&#45;&gt;prose_26</title>
<path fill="none" stroke="#000000" stroke-dasharray="5,2" d="M2030.5,-717.8323C2030.5,-710.1319 2030.5,-700.9753 2030.5,-692.4176"/>
<polygon fill="#000000" stroke="#000000" points="2034.0001,-692.4142 2030.5,-682.4142 2027.0001,-692.4142 2034.0001,-692.4142"/>
</g>
<!-- prose_27 -->
<g id="node28" class="node">
<title>prose_27</title>
<ellipse fill="none" stroke="#000000" cx="2112.5" cy="-664.0009" rx="32.4585" ry="18"/>
<text text-anchor="middle" x="2112.5" y="-659.8009" font-family="Helvetica,sans-Serif" font-size="14.00" fill="#000000">prose</text>
</g>
<!-- section_7&#45;&gt;prose_27 -->
<g id="edge27" class="edge">
<title>section_7&#45;&gt;prose_27</title>
<path fill="none" stroke="#000000" stroke-dasharray="5,2" d="M2050.3499,-718.5717C2061.4412,-708.833 2075.3761,-696.5975 2087.2387,-686.1816"/>
<polygon fill="#000000" stroke="#000000" points="2089.8546,-688.5424 2095.0597,-679.3143 2085.236,-683.2823 2089.8546,-688.5424"/>
</g>
<!-- codeblock_28 -->
<g id="node29" class="node">
<title>codeblock_28</title>
<ellipse fill="none" stroke="#000000" cx="2252.5" cy="-664.0009" rx="77.4211" ry="18"/>
<text text-anchor="middle" x="2252.5" y="-659.8009" font-family="Helvetica,sans-Serif" font-size="14.00" fill="#000000">code block 41&#45;45</text>
</g>
<!-- section_7&#45;&gt;codeblock_28 -->
<g id="edge28" class="edge">
<title>section_7&#45;&gt;codeblock_28</title>
<path fill="none" stroke="#000000" stroke-dasharray="5,2" d="M2073.0412,-722.2038C2108.291,-710.7714 2158.6527,-694.4379 2197.0581,-681.9821"/>
<polygon fill="#000000" stroke="#000000" points="2198.6158,-685.1565 2207.0482,-678.7421 2196.4562,-678.4979 2198.6158,-685.1565"/>
</g>
<!-- header_34 -->
<g id="node35" class="node">
<title>header_34</title>
<ellipse fill="none" stroke="#000000" cx="3096.5" cy="-664.0009" rx="68.2239" ry="18"/>
<text text-anchor="middle" x="3096.5" y="-659.8009" font-family="Helvetica,sans-Serif" font-size="14.00" fill="#000000">2 : knit method</text>
</g>
<!-- section_8&#45;&gt;header_34 -->
<g id="edge34" class="edge">
<title>section_8&#45;&gt;header_34</title>
<path fill="none" stroke="#000000" stroke-dasharray="5,2" d="M3221.3905,-720.5551C3197.6601,-709.8093 3165.8152,-695.389 3140.2215,-683.7994"/>
<polygon fill="#000000" stroke="#000000" points="3141.6551,-680.6064 3131.1017,-679.6696 3138.7675,-686.9831 3141.6551,-680.6064"/>
</g>
<!-- prose_35 -->
<g id="node36" class="node">
<title>prose_35</title>
<ellipse fill="none" stroke="#000000" cx="3214.5" cy="-664.0009" rx="32.4585" ry="18"/>
<text text-anchor="middle" x="3214.5" y="-659.8009" font-family="Helvetica,sans-Serif" font-size="14.00" fill="#000000">prose</text>
</g>
<!-- section_8&#45;&gt;prose_35 -->
<g id="edge35" class="edge">
<title>section_8&#45;&gt;prose_35</title>
<path fill="none" stroke="#000000" stroke-dasharray="5,2" d="M3245.3652,-718.2032C3240.5632,-709.7705 3234.7315,-699.5295 3229.4358,-690.2297"/>
<polygon fill="#000000" stroke="#000000" points="3232.3667,-688.3034 3224.3768,-681.3455 3226.2838,-691.7673 3232.3667,-688.3034"/>
</g>
<!-- prose_36 -->
<g id="node37" class="node">
<title>prose_36</title>
<ellipse fill="none" stroke="#000000" cx="3296.5" cy="-664.0009" rx="32.4585" ry="18"/>
<text text-anchor="middle" x="3296.5" y="-659.8009" font-family="Helvetica,sans-Serif" font-size="14.00" fill="#000000">prose</text>
</g>
<!-- section_8&#45;&gt;prose_36 -->
<g id="edge36" class="edge">
<title>section_8&#45;&gt;prose_36</title>
<path fill="none" stroke="#000000" stroke-dasharray="5,2" d="M3265.6348,-718.2032C3270.4368,-709.7705 3276.2685,-699.5295 3281.5642,-690.2297"/>
<polygon fill="#000000" stroke="#000000" points="3284.7162,-691.7673 3286.6232,-681.3455 3278.6333,-688.3034 3284.7162,-691.7673"/>
</g>
<!-- prose_37 -->
<g id="node38" class="node">
<title>prose_37</title>
<ellipse fill="none" stroke="#000000" cx="3378.5" cy="-664.0009" rx="32.4585" ry="18"/>
<text text-anchor="middle" x="3378.5" y="-659.8009" font-family="Helvetica,sans-Serif" font-size="14.00" fill="#000000">prose</text>
</g>
<!-- section_8&#45;&gt;prose_37 -->
<g id="edge37" class="edge">
<title>section_8&#45;&gt;prose_37</title>
<path fill="none" stroke="#000000" stroke-dasharray="5,2" d="M3283.4106,-719.663C3302.3791,-708.5595 3327.4972,-693.8562 3347.1539,-682.3499"/>
<polygon fill="#000000" stroke="#000000" points="3349.174,-685.223 3356.036,-677.1506 3345.6377,-679.1819 3349.174,-685.223"/>
</g>
<!-- codeblock_38 -->
<g id="node39" class="node">
<title>codeblock_38</title>
<ellipse fill="none" stroke="#000000" cx="3563.5" cy="-664.0009" rx="77.4211" ry="18"/>
<text text-anchor="middle" x="3563.5" y="-659.8009" font-family="Helvetica,sans-Serif" font-size="14.00" fill="#000000">code block 61&#45;88</text>
</g>
<!-- section_8&#45;&gt;codeblock_38 -->
<g id="edge38" class="edge">
<title>section_8&#45;&gt;codeblock_38</title>
<path fill="none" stroke="#000000" stroke-dasharray="5,2" d="M3305.671,-724.2726C3358.2542,-711.9805 3441.0676,-692.6215 3498.5961,-679.1733"/>
<polygon fill="#000000" stroke="#000000" points="3499.7322,-682.5021 3508.6729,-676.8177 3498.1387,-675.6859 3499.7322,-682.5021"/>
</g>
<!-- leaf_10 -->
<g id="node11" class="node">
<title>leaf_10</title>
<polygon fill="none" stroke="#c0c0c0" points="513,-454.9015 0,-454.9015 0,-353.6997 513,-353.6997 513,-454.9015"/>
<text text-anchor="middle" x="256.5" y="-407.9007" font-family="Inconsolata" font-size="14.00" fill="#000000"> &#160;&#160;A knitter is the actor responsible for knitting together our source</text>
<text text-anchor="middle" x="256.5" y="-392.5006" font-family="Inconsolata" font-size="14.00" fill="#000000"> code. &#160;They are defined by language, which is to say that the unit of </text>
<text text-anchor="middle" x="256.5" y="-377.1006" font-family="Inconsolata" font-size="14.00" fill="#000000"> action is not a runtime or document, knitters will expand to be </text>
<text text-anchor="middle" x="256.5" y="-361.7006" font-family="Inconsolata" font-size="14.00" fill="#000000"> responsible for an arbitrary number of these.</text>
</g>
<!-- raw_9&#45;&gt;leaf_10 -->
<g id="edge10" class="edge">
<title>raw_9&#45;&gt;leaf_10</title>
<path fill="none" stroke="#000000" stroke-dasharray="5,2" d="M1150.3416,-663.8035C1041.8701,-662.7036 639.9048,-655.5724 522.5,-610.0009 439.5065,-577.7865 360.9987,-510.9573 311.0835,-462.1852"/>
<polygon fill="#000000" stroke="#000000" points="313.5059,-459.6585 303.9293,-455.1266 308.5896,-464.6415 313.5059,-459.6585"/>
</g>
<!-- leaf_12 -->
<g id="node13" class="node">
<title>leaf_12</title>
<polygon fill="none" stroke="#c0c0c0" points="1065.5,-439.501 531.5,-439.501 531.5,-369.1002 1065.5,-369.1002 1065.5,-439.501"/>
<text text-anchor="middle" x="798.5" y="-408.2007" font-family="Inconsolata" font-size="14.00" fill="#000000"> The bootstrap knitter does what a knitter will do by default: &#160;go through</text>
<text text-anchor="middle" x="798.5" y="-392.8006" font-family="Inconsolata" font-size="14.00" fill="#000000"> =.../org/*/*.gm= and generate =.../src/*.*.lang= for all code blocks in</text>
<text text-anchor="middle" x="798.5" y="-377.4006" font-family="Inconsolata" font-size="14.00" fill="#000000"> =#lang=. </text>
</g>
<!-- raw_11&#45;&gt;leaf_12 -->
<g id="edge12" class="edge">
<title>raw_11&#45;&gt;leaf_12</title>
<path fill="none" stroke="#000000" stroke-dasharray="5,2" d="M1232.2019,-653.4384C1226.2054,-650.8118 1219.6701,-648.1389 1213.5,-646.0009 1153.2012,-625.1072 1132.0473,-637.5835 1074.5,-610.0009 984.7968,-567.006 895.0591,-492.9571 843.2565,-446.4151"/>
<polygon fill="#000000" stroke="#000000" points="845.3473,-443.5867 835.5838,-439.4728 840.6508,-448.7774 845.3473,-443.5867"/>
</g>
<!-- leaf_14 -->
<g id="node15" class="node">
<title>leaf_14</title>
<polygon fill="none" stroke="#c0c0c0" points="1533.5,-424.2027 1083.5,-424.2027 1083.5,-384.3985 1533.5,-384.3985 1533.5,-424.2027"/>
<text text-anchor="middle" x="1308.5" y="-392.8006" font-family="Inconsolata" font-size="14.00" fill="#000000"> It must do so through an interface which will let it grow up.</text>
</g>
<!-- raw_13&#45;&gt;leaf_14 -->
<g id="edge14" class="edge">
<title>raw_13&#45;&gt;leaf_14</title>
<path fill="none" stroke="#000000" stroke-dasharray="5,2" d="M1331.742,-645.7393C1327.4908,-601.5775 1316.6198,-488.6493 1311.3926,-434.3487"/>
<polygon fill="#000000" stroke="#000000" points="1314.8682,-433.9266 1310.426,-424.308 1307.9004,-434.5974 1314.8682,-433.9266"/>
</g>
<!-- raw_19 -->
<g id="node20" class="node">
<title>raw_19</title>
<ellipse fill="none" stroke="#000000" cx="1578.5" cy="-404.3006" rx="27" ry="18"/>
<text text-anchor="middle" x="1578.5" y="-400.1006" font-family="Helvetica,sans-Serif" font-size="14.00" fill="#000000">raw</text>
</g>
<!-- prose_16&#45;&gt;raw_19 -->
<g id="edge19" class="edge">
<title>prose_16&#45;&gt;raw_19</title>
<path fill="none" stroke="#000000" stroke-dasharray="5,2" d="M1569.2032,-645.7393C1570.9209,-601.1294 1575.3406,-486.3507 1577.4059,-432.7141"/>
<polygon fill="#000000" stroke="#000000" points="1580.9101,-432.6694 1577.7976,-422.5421 1573.9153,-432.3999 1580.9101,-432.6694"/>
</g>
<!-- raw_21 -->
<g id="node22" class="node">
<title>raw_21</title>
<ellipse fill="none" stroke="#000000" cx="1650.5" cy="-404.3006" rx="27" ry="18"/>
<text text-anchor="middle" x="1650.5" y="-400.1006" font-family="Helvetica,sans-Serif" font-size="14.00" fill="#000000">raw</text>
</g>
<!-- prose_17&#45;&gt;raw_21 -->
<g id="edge21" class="edge">
<title>prose_17&#45;&gt;raw_21</title>
<path fill="none" stroke="#000000" stroke-dasharray="5,2" d="M1650.5,-645.7393C1650.5,-601.1294 1650.5,-486.3507 1650.5,-432.7141"/>
<polygon fill="#000000" stroke="#000000" points="1654.0001,-432.542 1650.5,-422.5421 1647.0001,-432.5421 1654.0001,-432.542"/>
</g>
<!-- raw_23 -->
<g id="node24" class="node">
<title>raw_23</title>
<ellipse fill="none" stroke="#000000" cx="1732.5" cy="-404.3006" rx="27" ry="18"/>
<text text-anchor="middle" x="1732.5" y="-400.1006" font-family="Helvetica,sans-Serif" font-size="14.00" fill="#000000">raw</text>
</g>
<!-- prose_18&#45;&gt;raw_23 -->
<g id="edge23" class="edge">
<title>prose_18&#45;&gt;raw_23</title>
<path fill="none" stroke="#000000" stroke-dasharray="5,2" d="M1732.5,-645.7393C1732.5,-601.1294 1732.5,-486.3507 1732.5,-432.7141"/>
<polygon fill="#000000" stroke="#000000" points="1736.0001,-432.542 1732.5,-422.5421 1729.0001,-432.5421 1736.0001,-432.542"/>
</g>
<!-- leaf_20 -->
<g id="node21" class="node">
<title>leaf_20</title>
<polygon fill="none" stroke="#c0c0c0" points="1163.5,-124.5005 657.5,-124.5005 657.5,-38.0998 1163.5,-38.0998 1163.5,-124.5005"/>
<text text-anchor="middle" x="910.5" y="-77.2002" font-family="Inconsolata" font-size="14.00" fill="#000000"> &#160;&#160;This is the last verb in Grimoire which needs to be written in pure</text>
<text text-anchor="middle" x="910.5" y="-61.8002" font-family="Inconsolata" font-size="14.00" fill="#000000"> Lua. &#160;Huzzah! Typing &#45;&#45; all the time is tiresome and I didn&#39;t want to</text>
<text text-anchor="middle" x="910.5" y="-46.4001" font-family="Inconsolata" font-size="14.00" fill="#000000"> patch Sublime just for that.</text>
</g>
<!-- raw_19&#45;&gt;leaf_20 -->
<g id="edge20" class="edge">
<title>raw_19&#45;&gt;leaf_20</title>
<path fill="none" stroke="#000000" stroke-dasharray="5,2" d="M1581.7213,-386.1521C1587.7429,-345.7097 1595.6892,-247.8802 1542.5,-198.6003 1481.9011,-142.4553 1253.4812,-178.9265 1172.5,-162.6003 1129.0792,-153.8464 1082.6271,-140.7225 1041.0774,-127.5592"/>
<polygon fill="#000000" stroke="#000000" points="1042.0518,-124.1962 1031.4608,-124.4844 1039.9199,-130.8637 1042.0518,-124.1962"/>
</g>
<!-- leaf_22 -->
<g id="node23" class="node">
<title>leaf_22</title>
<polygon fill="none" stroke="#c0c0c0" points="1687.5,-123.9012 1181.5,-123.9012 1181.5,-38.6991 1687.5,-38.6991 1687.5,-123.9012"/>
<text text-anchor="middle" x="1434.5" y="-92.9002" font-family="Inconsolata" font-size="14.00" fill="#000000"> I do intend to design a </text>
<text text-anchor="middle" x="1434.5" y="-77.5002" font-family="Inconsolata" font-size="14.00" fill="#000000"> [syntax highligher for Sublime](etc/Grimoire.sublime_syntax), just</text>
<text text-anchor="middle" x="1434.5" y="-62.1001" font-family="Inconsolata" font-size="14.00" fill="#000000"> a simple minimum&#45;viable that will make editing the Lua inside =grym= </text>
<text text-anchor="middle" x="1434.5" y="-46.7001" font-family="Inconsolata" font-size="14.00" fill="#000000"> pleasant while I polish up femto. </text>
</g>
<!-- raw_21&#45;&gt;leaf_22 -->
<g id="edge22" class="edge">
<title>raw_21&#45;&gt;leaf_22</title>
<path fill="none" stroke="#000000" stroke-dasharray="5,2" d="M1651.9128,-386.0583C1653.9494,-347.8898 1653.8349,-258.2142 1614.5,-198.6003 1595.7902,-170.2447 1567.6098,-147.2182 1539.0657,-129.318"/>
<polygon fill="#000000" stroke="#000000" points="1540.5679,-126.135 1530.2057,-123.9271 1536.9293,-132.1151 1540.5679,-126.135"/>
</g>
<!-- leaf_24 -->
<g id="node25" class="node">
<title>leaf_24</title>
<polygon fill="none" stroke="#c0c0c0" points="1759.5,-101.2022 1705.5,-101.2022 1705.5,-61.3981 1759.5,-61.3981 1759.5,-101.2022"/>
<text text-anchor="middle" x="1732.5" y="-69.8002" font-family="Inconsolata" font-size="14.00" fill="#000000"> </text>
</g>
<!-- raw_23&#45;&gt;leaf_24 -->
<g id="edge24" class="edge">
<title>raw_23&#45;&gt;leaf_24</title>
<path fill="none" stroke="#000000" stroke-dasharray="5,2" d="M1732.5,-386.0092C1732.5,-332.6613 1732.5,-176.873 1732.5,-111.1254"/>
<polygon fill="#000000" stroke="#000000" points="1736.0001,-111.0152 1732.5,-101.0153 1729.0001,-111.0153 1736.0001,-111.0152"/>
</g>
<!-- raw_29 -->
<g id="node30" class="node">
<title>raw_29</title>
<ellipse fill="none" stroke="#000000" cx="2030.5" cy="-404.3006" rx="27" ry="18"/>
<text text-anchor="middle" x="2030.5" y="-400.1006" font-family="Helvetica,sans-Serif" font-size="14.00" fill="#000000">raw</text>
</g>
<!-- prose_26&#45;&gt;raw_29 -->
<g id="edge29" class="edge">
<title>prose_26&#45;&gt;raw_29</title>
<path fill="none" stroke="#000000" stroke-dasharray="5,2" d="M2030.5,-645.7393C2030.5,-601.1294 2030.5,-486.3507 2030.5,-432.7141"/>
<polygon fill="#000000" stroke="#000000" points="2034.0001,-432.542 2030.5,-422.5421 2027.0001,-432.5421 2034.0001,-432.542"/>
</g>
<!-- raw_31 -->
<g id="node32" class="node">
<title>raw_31</title>
<ellipse fill="none" stroke="#000000" cx="2112.5" cy="-404.3006" rx="27" ry="18"/>
<text text-anchor="middle" x="2112.5" y="-400.1006" font-family="Helvetica,sans-Serif" font-size="14.00" fill="#000000">raw</text>
</g>
<!-- prose_27&#45;&gt;raw_31 -->
<g id="edge31" class="edge">
<title>prose_27&#45;&gt;raw_31</title>
<path fill="none" stroke="#000000" stroke-dasharray="5,2" d="M2112.5,-645.7393C2112.5,-601.1294 2112.5,-486.3507 2112.5,-432.7141"/>
<polygon fill="#000000" stroke="#000000" points="2116.0001,-432.542 2112.5,-422.5421 2109.0001,-432.5421 2116.0001,-432.542"/>
</g>
<!-- leaf_33 -->
<g id="node34" class="node">
<title>leaf_33</title>
<polygon fill="none" stroke="#c0c0c0" points="2369.5,-431.601 2157.5,-431.601 2157.5,-377.0002 2369.5,-377.0002 2369.5,-431.601"/>
<text text-anchor="middle" x="2263.5" y="-416.5006" font-family="Inconsolata" font-size="14.00" fill="#000000">local u = require &quot;lib/util&quot;</text>
<text text-anchor="middle" x="2263.5" y="-385.1006" font-family="Inconsolata" font-size="14.00" fill="#000000">local K, k = u.inherit()</text>
</g>
<!-- codeblock_28&#45;&gt;leaf_33 -->
<g id="edge33" class="edge">
<title>codeblock_28&#45;&gt;leaf_33</title>
<path fill="none" stroke="#000000" stroke-dasharray="5,2" d="M2253.2735,-645.7393C2255.0606,-603.5463 2259.5066,-498.5818 2261.9053,-441.9495"/>
<polygon fill="#000000" stroke="#000000" points="2265.4159,-441.7711 2262.3423,-431.6319 2258.4222,-441.4748 2265.4159,-441.7711"/>
</g>
<!-- leaf_30 -->
<g id="node31" class="node">
<title>leaf_30</title>
<polygon fill="none" stroke="#c0c0c0" points="2283.5,-116.6005 1777.5,-116.6005 1777.5,-45.9998 2283.5,-45.9998 2283.5,-116.6005"/>
<text text-anchor="middle" x="2030.5" y="-69.5002" font-family="Inconsolata" font-size="14.00" fill="#000000"> &#160;&#160;=grym invert= is an isolated module. &#160;It&#39;s a shim; if better tools </text>
<text text-anchor="middle" x="2030.5" y="-54.1001" font-family="Inconsolata" font-size="14.00" fill="#000000"> succeeds, we&#39;ll stop using it within the Arc in fairly short order.</text>
</g>
<!-- raw_29&#45;&gt;leaf_30 -->
<g id="edge30" class="edge">
<title>raw_29&#45;&gt;leaf_30</title>
<path fill="none" stroke="#000000" stroke-dasharray="5,2" d="M2030.5,-386.0092C2030.5,-336.5289 2030.5,-198.923 2030.5,-126.7713"/>
<polygon fill="#000000" stroke="#000000" points="2034.0001,-126.6192 2030.5,-116.6192 2027.0001,-126.6193 2034.0001,-126.6192"/>
</g>
<!-- leaf_32 -->
<g id="node33" class="node">
<title>leaf_32</title>
<polygon fill="none" stroke="#c0c0c0" points="2807.5,-162.4009 2301.5,-162.4009 2301.5,-.1994 2807.5,-.1994 2807.5,-162.4009"/>
<text text-anchor="middle" x="2554.5" y="-131.4003" font-family="Inconsolata" font-size="14.00" fill="#000000"> =grym knit=, by contrast, is part of the core system. &#160;Software tends</text>
<text text-anchor="middle" x="2554.5" y="-116.0002" font-family="Inconsolata" font-size="14.00" fill="#000000"> to stick around, and a Grimoire is a language&#45;as&#45;in&#45;human&#45;language</text>
<text text-anchor="middle" x="2554.5" y="-100.6002" font-family="Inconsolata" font-size="14.00" fill="#000000"> sort of project. &#160;An advantage we intend to offer over Org is a </text>
<text text-anchor="middle" x="2554.5" y="-85.2002" font-family="Inconsolata" font-size="14.00" fill="#000000"> nice Unix&#45;flavor toolkit for munging flat files from your choice of</text>
<text text-anchor="middle" x="2554.5" y="-69.8002" font-family="Inconsolata" font-size="14.00" fill="#000000"> editor.</text>
<text text-anchor="middle" x="2554.5" y="-54.4001" font-family="Inconsolata" font-size="14.00" fill="#000000"> </text>
<text text-anchor="middle" x="2554.5" y="-39.0001" font-family="Inconsolata" font-size="14.00" fill="#000000"> =knit= methods receive a parsed document, not a string. &#160;The Knitter </text>
<text text-anchor="middle" x="2554.5" y="-23.6001" font-family="Inconsolata" font-size="14.00" fill="#000000"> modules generates language specific transformers for various Nodes,</text>
<text text-anchor="middle" x="2554.5" y="-8.2" font-family="Inconsolata" font-size="14.00" fill="#000000"> and the Knit module uses them when called for. </text>
</g>
<!-- raw_31&#45;&gt;leaf_32 -->
<g id="edge32" class="edge">
<title>raw_31&#45;&gt;leaf_32</title>
<path fill="none" stroke="#000000" stroke-dasharray="5,2" d="M2109.7489,-386.1031C2104.8578,-346.4152 2099.3464,-251.412 2148.5,-198.6003 2191.3384,-152.5738 2225.6208,-177.7357 2291.5338,-162.6058"/>
<polygon fill="#000000" stroke="#000000" points="2292.667,-165.9289 2301.493,-160.0678 2290.9384,-159.1457 2292.667,-165.9289"/>
</g>
<!-- raw_39 -->
<g id="node40" class="node">
<title>raw_39</title>
<ellipse fill="none" stroke="#000000" cx="3052.5" cy="-404.3006" rx="27" ry="18"/>
<text text-anchor="middle" x="3052.5" y="-400.1006" font-family="Helvetica,sans-Serif" font-size="14.00" fill="#000000">raw</text>
</g>
<!-- prose_35&#45;&gt;raw_39 -->
<g id="edge39" class="edge">
<title>prose_35&#45;&gt;raw_39</title>
<path fill="none" stroke="#000000" stroke-dasharray="5,2" d="M3203.8707,-646.9613C3176.1135,-602.464 3101.3255,-482.5722 3068.4139,-429.8119"/>
<polygon fill="#000000" stroke="#000000" points="3071.2201,-427.6975 3062.9578,-421.0654 3065.2809,-431.4024 3071.2201,-427.6975"/>
</g>
<!-- raw_41 -->
<g id="node42" class="node">
<title>raw_41</title>
<ellipse fill="none" stroke="#000000" cx="3301.5" cy="-404.3006" rx="27" ry="18"/>
<text text-anchor="middle" x="3301.5" y="-400.1006" font-family="Helvetica,sans-Serif" font-size="14.00" fill="#000000">raw</text>
</g>
<!-- prose_36&#45;&gt;raw_41 -->
<g id="edge41" class="edge">
<title>prose_36&#45;&gt;raw_41</title>
<path fill="none" stroke="#000000" stroke-dasharray="5,2" d="M3296.8516,-645.7393C3297.7105,-601.1294 3299.9203,-486.3507 3300.953,-432.7141"/>
<polygon fill="#000000" stroke="#000000" points="3304.4556,-432.6076 3301.1488,-422.5421 3297.4569,-432.4728 3304.4556,-432.6076"/>
</g>
<!-- raw_43 -->
<g id="node44" class="node">
<title>raw_43</title>
<ellipse fill="none" stroke="#000000" cx="3378.5" cy="-404.3006" rx="27" ry="18"/>
<text text-anchor="middle" x="3378.5" y="-400.1006" font-family="Helvetica,sans-Serif" font-size="14.00" fill="#000000">raw</text>
</g>
<!-- prose_37&#45;&gt;raw_43 -->
<g id="edge43" class="edge">
<title>prose_37&#45;&gt;raw_43</title>
<path fill="none" stroke="#000000" stroke-dasharray="5,2" d="M3378.5,-645.7393C3378.5,-601.1294 3378.5,-486.3507 3378.5,-432.7141"/>
<polygon fill="#000000" stroke="#000000" points="3382.0001,-432.542 3378.5,-422.5421 3375.0001,-432.5421 3382.0001,-432.542"/>
</g>
<!-- leaf_45 -->
<g id="node46" class="node">
<title>leaf_45</title>
<polygon fill="none" stroke="#c0c0c0" points="3817.5,-610.2015 3423.5,-610.2015 3423.5,-198.3998 3817.5,-198.3998 3817.5,-610.2015"/>
<text text-anchor="middle" x="3620.5" y="-594.8009" font-family="Inconsolata" font-size="14.00" fill="#000000">function K.knit(knitter, doc)</text>
<text text-anchor="middle" x="3620.5" y="-579.4009" font-family="Inconsolata" font-size="14.00" fill="#000000"> &#160;&#160;&#160;local phrase = &quot;&quot;</text>
<text text-anchor="middle" x="3620.5" y="-564.0009" font-family="Inconsolata" font-size="14.00" fill="#000000"> &#160;&#160;&#160;local linum = 0</text>
<text text-anchor="middle" x="3620.5" y="-548.6008" font-family="Inconsolata" font-size="14.00" fill="#000000"> &#160;&#160;&#160;for cb in doc:select(&quot;codeblock&quot;) do</text>
<text text-anchor="middle" x="3620.5" y="-533.2008" font-family="Inconsolata" font-size="14.00" fill="#000000"> &#160;&#160;&#160;&#160;&#160;&#160;&#160;cb:check()</text>
<text text-anchor="middle" x="3620.5" y="-517.8008" font-family="Inconsolata" font-size="14.00" fill="#000000"> &#160;&#160;&#160;&#160;&#160;&#160;&#160;&#45;&#45; Pad code with blank lines to line up errors</text>
<text text-anchor="middle" x="3620.5" y="-502.4007" font-family="Inconsolata" font-size="14.00" fill="#000000"> &#160;&#160;&#160;&#160;&#160;&#160;&#160;local pad_count = cb.line_first &#45; linum</text>
<text text-anchor="middle" x="3620.5" y="-471.0007" font-family="Inconsolata" font-size="14.00" fill="#000000"> &#160;&#160;&#160;&#160;&#160;&#160;&#160;local pad = (&quot;\n&quot;):rep(pad_count)</text>
<text text-anchor="middle" x="3620.5" y="-455.6007" font-family="Inconsolata" font-size="14.00" fill="#000000"> &#160;&#160;&#160;&#160;&#160;&#160;&#160;&#45;&#45; cat codeblock value</text>
<text text-anchor="middle" x="3620.5" y="-440.2007" font-family="Inconsolata" font-size="14.00" fill="#000000"> &#160;&#160;&#160;&#160;&#160;&#160;&#160;phrase = phrase .. pad .. cb.val </text>
<text text-anchor="middle" x="3620.5" y="-408.8006" font-family="Inconsolata" font-size="14.00" fill="#000000"> &#160;&#160;&#160;&#160;&#160;&#160;&#160;&#45;&#45; update linum</text>
<text text-anchor="middle" x="3620.5" y="-393.4006" font-family="Inconsolata" font-size="14.00" fill="#000000"> &#160;&#160;&#160;&#160;&#160;&#160;&#160;linum = cb.line_last &#45; 1</text>
<text text-anchor="middle" x="3620.5" y="-378.0006" font-family="Inconsolata" font-size="14.00" fill="#000000"> &#160;&#160;&#160;end</text>
<text text-anchor="middle" x="3620.5" y="-346.6005" font-family="Inconsolata" font-size="14.00" fill="#000000"> &#160;&#160;&#160;return phrase</text>
<text text-anchor="middle" x="3620.5" y="-331.2005" font-family="Inconsolata" font-size="14.00" fill="#000000">end</text>
<text text-anchor="middle" x="3620.5" y="-299.8005" font-family="Inconsolata" font-size="14.00" fill="#000000">local function new(Knitter, lang)</text>
<text text-anchor="middle" x="3620.5" y="-284.4004" font-family="Inconsolata" font-size="14.00" fill="#000000"> &#160;&#160;&#160;local knitter = setmetatable({}, K)</text>
<text text-anchor="middle" x="3620.5" y="-269.0004" font-family="Inconsolata" font-size="14.00" fill="#000000"> &#160;&#160;&#160;knitter.lang = lang or &quot;lua&quot;</text>
<text text-anchor="middle" x="3620.5" y="-253.6004" font-family="Inconsolata" font-size="14.00" fill="#000000"> &#160;&#160;&#160;return knitter</text>
<text text-anchor="middle" x="3620.5" y="-238.2003" font-family="Inconsolata" font-size="14.00" fill="#000000">end</text>
<text text-anchor="middle" x="3620.5" y="-206.8003" font-family="Inconsolata" font-size="14.00" fill="#000000">return u.export(k, new)</text>
</g>
<!-- codeblock_38&#45;&gt;leaf_45 -->
<g id="edge45" class="edge">
<title>codeblock_38&#45;&gt;leaf_45</title>
<path fill="none" stroke="#000000" stroke-dasharray="5,2" d="M3567.5081,-645.7393C3569.0444,-638.7398 3570.9598,-630.0128 3573.1431,-620.0656"/>
<polygon fill="#000000" stroke="#000000" points="3576.5895,-620.689 3575.3148,-610.1712 3569.7522,-619.1883 3576.5895,-620.689"/>
</g>
<!-- leaf_40 -->
<g id="node41" class="node">
<title>leaf_40</title>
<polygon fill="none" stroke="#c0c0c0" points="3115,-109.2016 2826,-109.2016 2826,-53.3987 3115,-53.3987 3115,-109.2016"/>
<text text-anchor="middle" x="2970.5" y="-61.8002" font-family="Inconsolata" font-size="14.00" fill="#000000"> &#160;&#160;This is where it all comes together.</text>
</g>
<!-- raw_39&#45;&gt;leaf_40 -->
<g id="edge40" class="edge">
<title>raw_39&#45;&gt;leaf_40</title>
<path fill="none" stroke="#000000" stroke-dasharray="5,2" d="M3047.9745,-386.4746C3035.0461,-335.549 2997.743,-188.6113 2980.041,-118.8825"/>
<polygon fill="#000000" stroke="#000000" points="2983.4298,-118.0068 2977.5767,-109.1755 2976.645,-119.7293 2983.4298,-118.0068"/>
</g>
<!-- leaf_42 -->
<g id="node43" class="node">
<title>leaf_42</title>
<polygon fill="none" stroke="#c0c0c0" points="3632,-139.701 3133,-139.701 3133,-22.8993 3632,-22.8993 3632,-139.701"/>
<text text-anchor="middle" x="3382.5" y="-108.3002" font-family="Inconsolata" font-size="14.00" fill="#000000"> We&#39;re still bootstrapping. &#160;The only language is lua, we don&#39;t know </text>
<text text-anchor="middle" x="3382.5" y="-92.9002" font-family="Inconsolata" font-size="14.00" fill="#000000"> what hashtags are yet, and we go in simple linear order.</text>
<text text-anchor="middle" x="3382.5" y="-77.5002" font-family="Inconsolata" font-size="14.00" fill="#000000"> </text>
<text text-anchor="middle" x="3382.5" y="-62.1001" font-family="Inconsolata" font-size="14.00" fill="#000000"> &#45; knitter : &#160;the knit module. That is, K, rather than a given k in </text>
<text text-anchor="middle" x="3382.5" y="-46.7001" font-family="Inconsolata" font-size="14.00" fill="#000000"> &#160;&#160;&#160;&#160;&#160;&#160;&#160;&#160;&#160;&#160;&#160;&#160;&#160;K.langs.</text>
<text text-anchor="middle" x="3382.5" y="-31.3001" font-family="Inconsolata" font-size="14.00" fill="#000000"> &#45; doc &#160;&#160;&#160;&#160;: &#160;a Doc.</text>
</g>
<!-- raw_41&#45;&gt;leaf_42 -->
<g id="edge42" class="edge">
<title>raw_41&#45;&gt;leaf_42</title>
<path fill="none" stroke="#000000" stroke-dasharray="5,2" d="M3304.2774,-386.232C3309.9962,-350.2018 3324.108,-266.9965 3342.5,-198.6003 3346.8262,-182.5119 3352.1947,-165.4249 3357.5792,-149.4151"/>
<polygon fill="#000000" stroke="#000000" points="3361.0097,-150.199 3360.9247,-139.6045 3354.3843,-147.9397 3361.0097,-150.199"/>
</g>
<!-- leaf_44 -->
<g id="node45" class="node">
<title>leaf_44</title>
<polygon fill="none" stroke="#c0c0c0" points="3939,-109.2016 3650,-109.2016 3650,-53.3987 3939,-53.3987 3939,-109.2016"/>
<text text-anchor="middle" x="3794.5" y="-77.8002" font-family="Inconsolata" font-size="14.00" fill="#000000"> &#45; #return : the knit file as a string.</text>
</g>
<!-- raw_43&#45;&gt;leaf_44 -->
<g id="edge44" class="edge">
<title>raw_43&#45;&gt;leaf_44</title>
<path fill="none" stroke="#000000" stroke-dasharray="5,2" d="M3375.4979,-386.3815C3369.9251,-346.409 3362.8377,-249.4786 3414.5,-198.6003 3486.9682,-127.2319 3544.0119,-194.7737 3640.5,-162.6003 3676.1089,-150.7267 3713.4007,-131.2475 3742.3674,-114.3327"/>
<polygon fill="#000000" stroke="#000000" points="3744.2557,-117.2822 3751.0787,-109.1768 3740.6903,-111.2582 3744.2557,-117.2822"/>
</g>
</g>
</svg>