<?xml version="1.0" encoding="UTF-8" standalone="no"?>
<!DOCTYPE svg PUBLIC "-//W3C//DTD SVG 1.1//EN"
 "http://www.w3.org/Graphics/SVG/1.1/DTD/svg11.dtd">
<!-- Generated by graphviz version 2.40.1 (20161225.0304)
 -->
<!-- Title: lpegNode Pages: 1 -->
<svg width="2027pt" height="1679pt"
 viewBox="0.00 0.00 2026.50 1678.60" xmlns="http://www.w3.org/2000/svg" xmlns:xlink="http://www.w3.org/1999/xlink">
<g id="graph0" class="graph" transform="scale(1 1) rotate(0) translate(4 1674.6022)">
<title>lpegNode</title>
<polygon fill="#ffffff" stroke="transparent" points="-4,4 -4,-1674.6022 2022.5,-1674.6022 2022.5,4 -4,4"/>
<!-- doc_0 -->
<g id="node1" class="node">
<title>doc_0</title>
<ellipse fill="none" stroke="#000000" cx="293.5" cy="-1652.6022" rx="46.9581" ry="18"/>
<text text-anchor="middle" x="293.5" y="-1648.4022" font-family="Helvetica,sans-Serif" font-size="14.00" fill="#000000">doc &#45; 100</text>
</g>
<!-- section_1 -->
<g id="node2" class="node">
<title>section_1</title>
<ellipse fill="none" stroke="#000000" cx="293.5" cy="-1580.6022" rx="60.9826" ry="18"/>
<text text-anchor="middle" x="293.5" y="-1576.4022" font-family="Helvetica,sans-Serif" font-size="14.00" fill="#000000">section: 1&#45;31</text>
</g>
<!-- doc_0&#45;&gt;section_1 -->
<g id="edge1" class="edge">
<title>doc_0&#45;&gt;section_1</title>
<path fill="none" stroke="#000000" stroke-dasharray="5,2" d="M293.5,-1634.4335C293.5,-1626.7331 293.5,-1617.5765 293.5,-1609.0188"/>
<polygon fill="#000000" stroke="#000000" points="297.0001,-1609.0154 293.5,-1599.0154 290.0001,-1609.0155 297.0001,-1609.0154"/>
</g>
<!-- header_2 -->
<g id="node3" class="node">
<title>header_2</title>
<ellipse fill="none" stroke="#000000" cx="73.5" cy="-1508.6022" rx="69.1929" ry="18"/>
<text text-anchor="middle" x="73.5" y="-1504.4022" font-family="Helvetica,sans-Serif" font-size="14.00" fill="#000000">1 : Knit module</text>
</g>
<!-- section_1&#45;&gt;header_2 -->
<g id="edge2" class="edge">
<title>section_1&#45;&gt;header_2</title>
<path fill="none" stroke="#000000" stroke-dasharray="5,2" d="M252.6353,-1567.2282C217.0089,-1555.5687 165.1115,-1538.5841 126.3367,-1525.8941"/>
<polygon fill="#000000" stroke="#000000" points="127.3719,-1522.5503 116.7793,-1522.7663 125.1946,-1529.2031 127.3719,-1522.5503"/>
</g>
<!-- prose_3 -->
<g id="node4" class="node">
<title>prose_3</title>
<ellipse fill="none" stroke="#000000" cx="232.5" cy="-1508.6022" rx="32.4585" ry="18"/>
<text text-anchor="middle" x="232.5" y="-1504.4022" font-family="Helvetica,sans-Serif" font-size="14.00" fill="#000000">prose</text>
</g>
<!-- section_1&#45;&gt;prose_3 -->
<g id="edge3" class="edge">
<title>section_1&#45;&gt;prose_3</title>
<path fill="none" stroke="#000000" stroke-dasharray="5,2" d="M278.4213,-1562.8044C270.8139,-1553.8251 261.4694,-1542.7956 253.2003,-1533.0353"/>
<polygon fill="#000000" stroke="#000000" points="255.7035,-1530.5754 246.5688,-1525.208 250.3626,-1535.1003 255.7035,-1530.5754"/>
</g>
<!-- codeblock_4 -->
<g id="node5" class="node">
<title>codeblock_4</title>
<ellipse fill="none" stroke="#000000" cx="375.5" cy="-1508.6022" rx="72.5844" ry="18"/>
<text text-anchor="middle" x="375.5" y="-1504.4022" font-family="Helvetica,sans-Serif" font-size="14.00" fill="#000000">code block 6&#45;29</text>
</g>
<!-- section_1&#45;&gt;codeblock_4 -->
<g id="edge4" class="edge">
<title>section_1&#45;&gt;codeblock_4</title>
<path fill="none" stroke="#000000" stroke-dasharray="5,2" d="M312.9329,-1563.5392C323.3995,-1554.3489 336.4876,-1542.8569 347.984,-1532.7625"/>
<polygon fill="#000000" stroke="#000000" points="350.4319,-1535.2709 355.637,-1526.0428 345.8133,-1530.0108 350.4319,-1535.2709"/>
</g>
<!-- section_5 -->
<g id="node6" class="node">
<title>section_5</title>
<ellipse fill="none" stroke="#000000" cx="961.5" cy="-1508.6022" rx="70.655" ry="18"/>
<text text-anchor="middle" x="961.5" y="-1504.4022" font-family="Helvetica,sans-Serif" font-size="14.00" fill="#000000">section: 32&#45;100</text>
</g>
<!-- section_1&#45;&gt;section_5 -->
<g id="edge5" class="edge">
<title>section_1&#45;&gt;section_5</title>
<path fill="none" stroke="#000000" stroke-dasharray="5,2" d="M350.7421,-1574.4323C471.2344,-1561.4452 751.017,-1531.2889 885.9918,-1516.7408"/>
<polygon fill="#000000" stroke="#000000" points="886.6734,-1520.1877 896.2407,-1515.6361 885.9232,-1513.228 886.6734,-1520.1877"/>
</g>
<!-- leaf_6 -->
<g id="node7" class="node">
<title>leaf_6</title>
<polygon fill="none" stroke="#c0c0c0" points="107,-1305.1019 0,-1305.1019 0,-1269.1019 107,-1269.1019 107,-1305.1019"/>
<text text-anchor="middle" x="53.5" y="-1283.6019" font-family="Inconsolata" font-size="14.00" fill="#000000">* Knit module</text>
</g>
<!-- header_2&#45;&gt;leaf_6 -->
<g id="edge6" class="edge">
<title>header_2&#45;&gt;leaf_6</title>
<path fill="none" stroke="#000000" stroke-dasharray="5,2" d="M71.8633,-1490.4759C68.3827,-1451.9276 60.2239,-1361.5692 56.053,-1315.3766"/>
<polygon fill="#000000" stroke="#000000" points="59.5164,-1314.8127 55.1312,-1305.168 52.5448,-1315.4423 59.5164,-1314.8127"/>
</g>
<!-- raw_7 -->
<g id="node8" class="node">
<title>raw_7</title>
<ellipse fill="none" stroke="#000000" cx="152.5" cy="-1287.1019" rx="27" ry="18"/>
<text text-anchor="middle" x="152.5" y="-1282.9019" font-family="Helvetica,sans-Serif" font-size="14.00" fill="#000000">raw</text>
</g>
<!-- prose_3&#45;&gt;raw_7 -->
<g id="edge7" class="edge">
<title>prose_3&#45;&gt;raw_7</title>
<path fill="none" stroke="#000000" stroke-dasharray="5,2" d="M216.3948,-1492.9956C206.8926,-1482.899 195.4103,-1468.9918 188.5,-1454.6022 166.5406,-1408.8754 157.8624,-1349.7368 154.5155,-1315.3494"/>
<polygon fill="#000000" stroke="#000000" points="157.9765,-1314.7541 153.6061,-1305.1027 151.0039,-1315.373 157.9765,-1314.7541"/>
</g>
<!-- leaf_9 -->
<g id="node10" class="node">
<title>leaf_9</title>
<polygon fill="none" stroke="#c0c0c0" points="711,-1454.6024 198,-1454.6024 198,-1119.6015 711,-1119.6015 711,-1454.6024"/>
<text text-anchor="middle" x="454.5" y="-1439.4022" font-family="Inconsolata" font-size="14.00" fill="#000000">local L = require &quot;lpeg&quot;</text>
<text text-anchor="middle" x="454.5" y="-1408.0021" font-family="Inconsolata" font-size="14.00" fill="#000000">local s = require &quot;status&quot; ()</text>
<text text-anchor="middle" x="454.5" y="-1392.6021" font-family="Inconsolata" font-size="14.00" fill="#000000">local a = require &quot;ansi&quot;</text>
<text text-anchor="middle" x="454.5" y="-1377.2021" font-family="Inconsolata" font-size="14.00" fill="#000000">s.chatty = true</text>
<text text-anchor="middle" x="454.5" y="-1361.802" font-family="Inconsolata" font-size="14.00" fill="#000000">s.verbose = false</text>
<text text-anchor="middle" x="454.5" y="-1330.402" font-family="Inconsolata" font-size="14.00" fill="#000000">local pl_file = require &quot;pl.file&quot;</text>
<text text-anchor="middle" x="454.5" y="-1315.002" font-family="Inconsolata" font-size="14.00" fill="#000000">local pl_dir = require &quot;pl.dir&quot;</text>
<text text-anchor="middle" x="454.5" y="-1299.6019" font-family="Inconsolata" font-size="14.00" fill="#000000">local pl_path = require &quot;pl.path&quot;</text>
<text text-anchor="middle" x="454.5" y="-1284.2019" font-family="Inconsolata" font-size="14.00" fill="#000000">local read, write, delete = pl_file.read, pl_file.write, pl_file.delete</text>
<text text-anchor="middle" x="454.5" y="-1236.8019" font-family="Inconsolata" font-size="14.00" fill="#000000">local knitter = require &quot;knit/knitter&quot;</text>
<text text-anchor="middle" x="454.5" y="-1205.4018" font-family="Inconsolata" font-size="14.00" fill="#000000">local Dir = require &quot;walk/directory&quot;</text>
<text text-anchor="middle" x="454.5" y="-1190.0018" font-family="Inconsolata" font-size="14.00" fill="#000000">local Path = require &quot;walk/path&quot;</text>
<text text-anchor="middle" x="454.5" y="-1174.6018" font-family="Inconsolata" font-size="14.00" fill="#000000">local File = require &quot;walk/File&quot;</text>
<text text-anchor="middle" x="454.5" y="-1143.2017" font-family="Inconsolata" font-size="14.00" fill="#000000">local Doc = require &quot;Orbit/doc&quot;</text>
<text text-anchor="middle" x="454.5" y="-1127.8017" font-family="Inconsolata" font-size="14.00" fill="#000000">local Path = require &quot;walk/path&quot;</text>
</g>
<!-- codeblock_4&#45;&gt;leaf_9 -->
<g id="edge9" class="edge">
<title>codeblock_4&#45;&gt;leaf_9</title>
<path fill="none" stroke="#000000" stroke-dasharray="5,2" d="M381.9649,-1490.4759C384.5041,-1483.3563 387.6737,-1474.4696 391.2579,-1464.4201"/>
<polygon fill="#000000" stroke="#000000" points="394.5971,-1465.4762 394.6599,-1454.8816 388.0039,-1463.1246 394.5971,-1465.4762"/>
</g>
<!-- header_10 -->
<g id="node11" class="node">
<title>header_10</title>
<ellipse fill="none" stroke="#000000" cx="820.5" cy="-1287.1019" rx="91.4192" ry="18"/>
<text text-anchor="middle" x="820.5" y="-1282.9019" font-family="Helvetica,sans-Serif" font-size="14.00" fill="#000000">2 : knitCodex(codex)</text>
</g>
<!-- section_5&#45;&gt;header_10 -->
<g id="edge10" class="edge">
<title>section_5&#45;&gt;header_10</title>
<path fill="none" stroke="#000000" stroke-dasharray="5,2" d="M947.3227,-1490.9679C939.1803,-1480.5898 928.9303,-1467.0898 920.5,-1454.6022 887.9356,-1406.365 854.0302,-1347.4126 835.2576,-1313.8661"/>
<polygon fill="#000000" stroke="#000000" points="838.3025,-1312.1399 830.3777,-1305.1079 832.1876,-1315.547 838.3025,-1312.1399"/>
</g>
<!-- prose_11 -->
<g id="node12" class="node">
<title>prose_11</title>
<ellipse fill="none" stroke="#000000" cx="961.5" cy="-1287.1019" rx="32.4585" ry="18"/>
<text text-anchor="middle" x="961.5" y="-1282.9019" font-family="Helvetica,sans-Serif" font-size="14.00" fill="#000000">prose</text>
</g>
<!-- section_5&#45;&gt;prose_11 -->
<g id="edge11" class="edge">
<title>section_5&#45;&gt;prose_11</title>
<path fill="none" stroke="#000000" stroke-dasharray="5,2" d="M961.5,-1490.4759C961.5,-1451.9276 961.5,-1361.5692 961.5,-1315.3766"/>
<polygon fill="#000000" stroke="#000000" points="965.0001,-1315.168 961.5,-1305.168 958.0001,-1315.1681 965.0001,-1315.168"/>
</g>
<!-- prose_12 -->
<g id="node13" class="node">
<title>prose_12</title>
<ellipse fill="none" stroke="#000000" cx="1159.5" cy="-1287.1019" rx="32.4585" ry="18"/>
<text text-anchor="middle" x="1159.5" y="-1282.9019" font-family="Helvetica,sans-Serif" font-size="14.00" fill="#000000">prose</text>
</g>
<!-- section_5&#45;&gt;prose_12 -->
<g id="edge12" class="edge">
<title>section_5&#45;&gt;prose_12</title>
<path fill="none" stroke="#000000" stroke-dasharray="5,2" d="M977.3685,-1490.8503C1012.7753,-1451.2411 1098.2481,-1355.6237 1138.2223,-1310.9051"/>
<polygon fill="#000000" stroke="#000000" points="1140.8547,-1313.2119 1144.9098,-1303.4238 1135.6359,-1308.5467 1140.8547,-1313.2119"/>
</g>
<!-- codeblock_13 -->
<g id="node14" class="node">
<title>codeblock_13</title>
<ellipse fill="none" stroke="#000000" cx="1551.5" cy="-1287.1019" rx="77.4211" ry="18"/>
<text text-anchor="middle" x="1551.5" y="-1282.9019" font-family="Helvetica,sans-Serif" font-size="14.00" fill="#000000">code block 39&#45;99</text>
</g>
<!-- section_5&#45;&gt;codeblock_13 -->
<g id="edge13" class="edge">
<title>section_5&#45;&gt;codeblock_13</title>
<path fill="none" stroke="#000000" stroke-dasharray="5,2" d="M1021.4594,-1498.8901C1070.4296,-1490.0511 1141.0159,-1475.2251 1200.5,-1454.6022 1318.7654,-1413.5999 1449.8095,-1344.1449 1513.107,-1308.9468"/>
<polygon fill="#000000" stroke="#000000" points="1514.9216,-1311.9423 1521.9448,-1304.0097 1511.5077,-1305.8312 1514.9216,-1311.9423"/>
</g>
<!-- leaf_8 -->
<g id="node9" class="node">
<title>leaf_8</title>
<polygon fill="none" stroke="#c0c0c0" points="290,-659.402 15,-659.402 15,-587.5997 290,-587.5997 290,-659.402"/>
<text text-anchor="middle" x="152.5" y="-596.0009" font-family="Inconsolata" font-size="14.00" fill="#000000"> This is due for a complete overhaul.</text>
</g>
<!-- raw_7&#45;&gt;leaf_8 -->
<g id="edge8" class="edge">
<title>raw_7&#45;&gt;leaf_8</title>
<path fill="none" stroke="#000000" stroke-dasharray="5,2" d="M152.5,-1269.008C152.5,-1181.6363 152.5,-802.1855 152.5,-669.5074"/>
<polygon fill="#000000" stroke="#000000" points="156.0001,-669.2818 152.5,-659.2818 149.0001,-669.2818 156.0001,-669.2818"/>
</g>
<!-- leaf_14 -->
<g id="node15" class="node">
<title>leaf_14</title>
<polygon fill="none" stroke="#c0c0c0" points="815,-641.5009 666,-641.5009 666,-605.5009 815,-605.5009 815,-641.5009"/>
<text text-anchor="middle" x="740.5" y="-620.0009" font-family="Inconsolata" font-size="14.00" fill="#000000">** knitCodex(codex)</text>
</g>
<!-- header_10&#45;&gt;leaf_14 -->
<g id="edge14" class="edge">
<title>header_10&#45;&gt;leaf_14</title>
<path fill="none" stroke="#000000" stroke-dasharray="5,2" d="M818.3187,-1269.008C807.2674,-1177.3373 757.4544,-764.1381 743.9091,-651.7793"/>
<polygon fill="#000000" stroke="#000000" points="747.3511,-651.0877 742.6793,-641.5785 740.4015,-651.9256 747.3511,-651.0877"/>
</g>
<!-- raw_15 -->
<g id="node16" class="node">
<title>raw_15</title>
<ellipse fill="none" stroke="#000000" cx="860.5" cy="-623.5009" rx="27" ry="18"/>
<text text-anchor="middle" x="860.5" y="-619.3009" font-family="Helvetica,sans-Serif" font-size="14.00" fill="#000000">raw</text>
</g>
<!-- prose_11&#45;&gt;raw_15 -->
<g id="edge15" class="edge">
<title>prose_11&#45;&gt;raw_15</title>
<path fill="none" stroke="#000000" stroke-dasharray="5,2" d="M959.1512,-1268.8327C954.6408,-1237.3102 943.1432,-1171.1303 920.5,-1119.6017 912.7639,-1101.9968 902.7866,-1101.7747 896.5,-1083.6017 842.684,-928.0323 852.061,-725.8221 857.862,-652.0348"/>
<polygon fill="#000000" stroke="#000000" points="861.3797,-651.9652 858.7181,-641.7102 854.4037,-651.3867 861.3797,-651.9652"/>
</g>
<!-- prespace_17 -->
<g id="node18" class="node">
<title>prespace_17</title>
<ellipse fill="none" stroke="#000000" cx="951.5" cy="-623.5009" rx="46.4736" ry="18"/>
<text text-anchor="middle" x="951.5" y="-619.3009" font-family="Helvetica,sans-Serif" font-size="14.00" fill="#000000">prespace</text>
</g>
<!-- prose_12&#45;&gt;prespace_17 -->
<g id="edge17" class="edge">
<title>prose_12&#45;&gt;prespace_17</title>
<path fill="none" stroke="#000000" stroke-dasharray="5,2" d="M1143.173,-1271.5402C1110.9433,-1239.7117 1039.5011,-1163.4151 1007.5,-1083.6017 945.9746,-930.1523 947.1348,-726.6592 949.9916,-652.2827"/>
<polygon fill="#000000" stroke="#000000" points="953.5062,-652.0139 950.4367,-641.8734 946.5126,-651.7147 953.5062,-652.0139"/>
</g>
<!-- literal_18 -->
<g id="node19" class="node">
<title>literal_18</title>
<ellipse fill="none" stroke="#000000" cx="1047.5" cy="-623.5009" rx="31.481" ry="18"/>
<text text-anchor="middle" x="1047.5" y="-619.3009" font-family="Helvetica,sans-Serif" font-size="14.00" fill="#000000">literal</text>
</g>
<!-- prose_12&#45;&gt;literal_18 -->
<g id="edge18" class="edge">
<title>prose_12&#45;&gt;literal_18</title>
<path fill="none" stroke="#000000" stroke-dasharray="5,2" d="M1151.5854,-1269.5778C1136.306,-1234.8848 1102.8968,-1154.6561 1087.5,-1083.6017 1052.6945,-922.9786 1047.9817,-724.6 1047.4857,-651.9041"/>
<polygon fill="#000000" stroke="#000000" points="1050.9849,-651.7082 1047.4391,-641.7244 1043.985,-651.7403 1050.9849,-651.7082"/>
</g>
<!-- raw_19 -->
<g id="node20" class="node">
<title>raw_19</title>
<ellipse fill="none" stroke="#000000" cx="1123.5" cy="-623.5009" rx="27" ry="18"/>
<text text-anchor="middle" x="1123.5" y="-619.3009" font-family="Helvetica,sans-Serif" font-size="14.00" fill="#000000">raw</text>
</g>
<!-- prose_12&#45;&gt;raw_19 -->
<g id="edge19" class="edge">
<title>prose_12&#45;&gt;raw_19</title>
<path fill="none" stroke="#000000" stroke-dasharray="5,2" d="M1158.5184,-1269.008C1153.5453,-1177.3373 1131.1295,-764.1381 1125.0341,-651.7793"/>
<polygon fill="#000000" stroke="#000000" points="1128.5174,-651.3742 1124.4807,-641.5785 1121.5276,-651.7535 1128.5174,-651.3742"/>
</g>
<!-- link_20 -->
<g id="node21" class="node">
<title>link_20</title>
<ellipse fill="none" stroke="#000000" cx="1195.5" cy="-623.5009" rx="27" ry="18"/>
<text text-anchor="middle" x="1195.5" y="-619.3009" font-family="Helvetica,sans-Serif" font-size="14.00" fill="#000000">link</text>
</g>
<!-- prose_12&#45;&gt;link_20 -->
<g id="edge20" class="edge">
<title>prose_12&#45;&gt;link_20</title>
<path fill="none" stroke="#000000" stroke-dasharray="5,2" d="M1160.4816,-1269.008C1165.4547,-1177.3373 1187.8705,-764.1381 1193.9659,-651.7793"/>
<polygon fill="#000000" stroke="#000000" points="1197.4724,-651.7535 1194.5193,-641.5785 1190.4826,-651.3742 1197.4724,-651.7535"/>
</g>
<!-- raw_21 -->
<g id="node22" class="node">
<title>raw_21</title>
<ellipse fill="none" stroke="#000000" cx="1315.5" cy="-623.5009" rx="27" ry="18"/>
<text text-anchor="middle" x="1315.5" y="-619.3009" font-family="Helvetica,sans-Serif" font-size="14.00" fill="#000000">raw</text>
</g>
<!-- prose_12&#45;&gt;raw_21 -->
<g id="edge21" class="edge">
<title>prose_12&#45;&gt;raw_21</title>
<path fill="none" stroke="#000000" stroke-dasharray="5,2" d="M1166.831,-1269.4369C1181.0876,-1234.497 1212.7868,-1153.8556 1231.5,-1083.6017 1274.3401,-922.7699 1302.4299,-724.5168 1311.9251,-651.8792"/>
<polygon fill="#000000" stroke="#000000" points="1315.4289,-652.0741 1313.2398,-641.7079 1308.4867,-651.1767 1315.4289,-652.0741"/>
</g>
<!-- link_22 -->
<g id="node23" class="node">
<title>link_22</title>
<ellipse fill="none" stroke="#000000" cx="1423.5" cy="-623.5009" rx="27" ry="18"/>
<text text-anchor="middle" x="1423.5" y="-619.3009" font-family="Helvetica,sans-Serif" font-size="14.00" fill="#000000">link</text>
</g>
<!-- prose_12&#45;&gt;link_22 -->
<g id="edge22" class="edge">
<title>prose_12&#45;&gt;link_22</title>
<path fill="none" stroke="#000000" stroke-dasharray="5,2" d="M1179.2911,-1272.8934C1219.3104,-1242.9605 1309.5955,-1169.0859 1351.5,-1083.6017 1424.9351,-933.7958 1426.7648,-726.5521 1424.7123,-651.8013"/>
<polygon fill="#000000" stroke="#000000" points="1428.209,-651.6388 1424.3894,-641.7564 1421.2126,-651.8638 1428.209,-651.6388"/>
</g>
<!-- raw_23 -->
<g id="node24" class="node">
<title>raw_23</title>
<ellipse fill="none" stroke="#000000" cx="1495.5" cy="-623.5009" rx="27" ry="18"/>
<text text-anchor="middle" x="1495.5" y="-619.3009" font-family="Helvetica,sans-Serif" font-size="14.00" fill="#000000">raw</text>
</g>
<!-- prose_12&#45;&gt;raw_23 -->
<g id="edge23" class="edge">
<title>prose_12&#45;&gt;raw_23</title>
<path fill="none" stroke="#000000" stroke-dasharray="5,2" d="M1187.2071,-1277.7718C1248.7257,-1255.4212 1396.257,-1192.431 1459.5,-1083.6017 1542.9549,-939.9915 1514.8559,-727.2566 1501.1466,-651.5216"/>
<polygon fill="#000000" stroke="#000000" points="1504.5256,-650.5503 1499.2433,-641.3662 1497.6454,-651.8398 1504.5256,-650.5503"/>
</g>
<!-- leaf_37 -->
<g id="node38" class="node">
<title>leaf_37</title>
<polygon fill="none" stroke="#c0c0c0" points="2018.5,-1083.7025 1540.5,-1083.7025 1540.5,-163.2992 2018.5,-163.2992 2018.5,-1083.7025"/>
<text text-anchor="middle" x="1779.5" y="-1068.4017" font-family="Inconsolata" font-size="14.00" fill="#000000">local function knitDeck(deck)</text>
<text text-anchor="middle" x="1779.5" y="-1053.0017" font-family="Inconsolata" font-size="14.00" fill="#000000"> &#160;&#160;&#160;local dir = deck.dir</text>
<text text-anchor="middle" x="1779.5" y="-1037.6016" font-family="Inconsolata" font-size="14.00" fill="#000000"> &#160;&#160;&#160;local codex = deck.codex</text>
<text text-anchor="middle" x="1779.5" y="-1022.2016" font-family="Inconsolata" font-size="14.00" fill="#000000"> &#160;&#160;&#160;local orbDir = codex.orb</text>
<text text-anchor="middle" x="1779.5" y="-1006.8016" font-family="Inconsolata" font-size="14.00" fill="#000000"> &#160;&#160;&#160;local srcDir = codex.src</text>
<text text-anchor="middle" x="1779.5" y="-991.4015" font-family="Inconsolata" font-size="14.00" fill="#000000"> &#160;&#160;&#160;&#45;&#45; #todo load .deck file here</text>
<text text-anchor="middle" x="1779.5" y="-976.0015" font-family="Inconsolata" font-size="14.00" fill="#000000"> &#160;&#160;&#160;for i, sub in ipairs(deck) do</text>
<text text-anchor="middle" x="1779.5" y="-960.6015" font-family="Inconsolata" font-size="14.00" fill="#000000"> &#160;&#160;&#160;&#160;&#160;&#160;&#160;knitDeck(sub)</text>
<text text-anchor="middle" x="1779.5" y="-945.2014" font-family="Inconsolata" font-size="14.00" fill="#000000"> &#160;&#160;&#160;end</text>
<text text-anchor="middle" x="1779.5" y="-929.8014" font-family="Inconsolata" font-size="14.00" fill="#000000"> &#160;&#160;&#160;for name, doc in pairs(deck.docs) do</text>
<text text-anchor="middle" x="1779.5" y="-914.4014" font-family="Inconsolata" font-size="14.00" fill="#000000"> &#160;&#160;&#160;&#160;&#160;&#160;&#160;local knitted, ext = knitter:knit(doc)</text>
<text text-anchor="middle" x="1779.5" y="-899.0013" font-family="Inconsolata" font-size="14.00" fill="#000000"> &#160;&#160;&#160;&#160;&#160;&#160;&#160;if knitted then</text>
<text text-anchor="middle" x="1779.5" y="-883.6013" font-family="Inconsolata" font-size="14.00" fill="#000000"> &#160;&#160;&#160;&#160;&#160;&#160;&#160;&#160;&#160;&#160;&#160;&#45;&#45; add to srcs</text>
<text text-anchor="middle" x="1779.5" y="-868.2013" font-family="Inconsolata" font-size="14.00" fill="#000000"> &#160;&#160;&#160;&#160;&#160;&#160;&#160;&#160;&#160;&#160;&#160;local srcpath = Path(name):subFor(orbDir, srcDir, ext)</text>
<text text-anchor="middle" x="1779.5" y="-852.8012" font-family="Inconsolata" font-size="14.00" fill="#000000"> &#160;&#160;&#160;&#160;&#160;&#160;&#160;&#160;&#160;&#160;&#160;s:verb(&quot;knitted: &quot; .. name)</text>
<text text-anchor="middle" x="1779.5" y="-837.4012" font-family="Inconsolata" font-size="14.00" fill="#000000"> &#160;&#160;&#160;&#160;&#160;&#160;&#160;&#160;&#160;&#160;&#160;s:verb(&quot;into: &#160;&#160;&#160;&quot; .. tostring(srcpath))</text>
<text text-anchor="middle" x="1779.5" y="-822.0012" font-family="Inconsolata" font-size="14.00" fill="#000000"> &#160;&#160;&#160;&#160;&#160;&#160;&#160;&#160;&#160;&#160;&#160;deck.srcs[srcpath] = knitted</text>
<text text-anchor="middle" x="1779.5" y="-806.6012" font-family="Inconsolata" font-size="14.00" fill="#000000"> &#160;&#160;&#160;&#160;&#160;&#160;&#160;&#160;&#160;&#160;&#160;codex.srcs[srcpath] = knitted</text>
<text text-anchor="middle" x="1779.5" y="-791.2011" font-family="Inconsolata" font-size="14.00" fill="#000000"> &#160;&#160;&#160;&#160;&#160;&#160;&#160;end</text>
<text text-anchor="middle" x="1779.5" y="-759.8011" font-family="Inconsolata" font-size="14.00" fill="#000000"> &#160;&#160;&#160;end</text>
<text text-anchor="middle" x="1779.5" y="-744.4011" font-family="Inconsolata" font-size="14.00" fill="#000000"> &#160;&#160;&#160;return srcs</text>
<text text-anchor="middle" x="1779.5" y="-729.001" font-family="Inconsolata" font-size="14.00" fill="#000000">end</text>
<text text-anchor="middle" x="1779.5" y="-697.601" font-family="Inconsolata" font-size="14.00" fill="#000000">local function writeOnChange(out_file, newest)</text>
<text text-anchor="middle" x="1779.5" y="-682.201" font-family="Inconsolata" font-size="14.00" fill="#000000"> &#160;&#160;&#160;newest = tostring(newest)</text>
<text text-anchor="middle" x="1779.5" y="-666.8009" font-family="Inconsolata" font-size="14.00" fill="#000000"> &#160;&#160;&#160;out_file = tostring(out_file)</text>
<text text-anchor="middle" x="1779.5" y="-651.4009" font-family="Inconsolata" font-size="14.00" fill="#000000"> &#160;&#160;&#160;local current = read(tostring(out_file))</text>
<text text-anchor="middle" x="1779.5" y="-636.0009" font-family="Inconsolata" font-size="14.00" fill="#000000"> &#160;&#160;&#160;&#45;&#45; If the text has changed, write it</text>
<text text-anchor="middle" x="1779.5" y="-620.6008" font-family="Inconsolata" font-size="14.00" fill="#000000"> &#160;&#160;&#160;if newest ~= current then</text>
<text text-anchor="middle" x="1779.5" y="-605.2008" font-family="Inconsolata" font-size="14.00" fill="#000000"> &#160;&#160;&#160;&#160;&#160;&#160;&#160;s:chat(a.green(&quot; &#160;&#45; &quot; .. tostring(out_file)))</text>
<text text-anchor="middle" x="1779.5" y="-589.8008" font-family="Inconsolata" font-size="14.00" fill="#000000"> &#160;&#160;&#160;&#160;&#160;&#160;&#160;write(out_file, newest)</text>
<text text-anchor="middle" x="1779.5" y="-574.4007" font-family="Inconsolata" font-size="14.00" fill="#000000"> &#160;&#160;&#160;&#160;&#160;&#160;&#160;return true</text>
<text text-anchor="middle" x="1779.5" y="-559.0007" font-family="Inconsolata" font-size="14.00" fill="#000000"> &#160;&#160;&#160;&#45;&#45; If the new text is blank, delete the old file</text>
<text text-anchor="middle" x="1779.5" y="-543.6007" font-family="Inconsolata" font-size="14.00" fill="#000000"> &#160;&#160;&#160;elseif current ~= &quot;&quot; and newest == &quot;&quot; then</text>
<text text-anchor="middle" x="1779.5" y="-528.2007" font-family="Inconsolata" font-size="14.00" fill="#000000"> &#160;&#160;&#160;&#160;&#160;&#160;&#160;s:chat(a.red(&quot; &#160;&#45; &quot; .. tostring(out_file)))</text>
<text text-anchor="middle" x="1779.5" y="-512.8006" font-family="Inconsolata" font-size="14.00" fill="#000000"> &#160;&#160;&#160;&#160;&#160;&#160;&#160;delete(out_file)</text>
<text text-anchor="middle" x="1779.5" y="-497.4006" font-family="Inconsolata" font-size="14.00" fill="#000000"> &#160;&#160;&#160;&#160;&#160;&#160;&#160;return false</text>
<text text-anchor="middle" x="1779.5" y="-482.0006" font-family="Inconsolata" font-size="14.00" fill="#000000"> &#160;&#160;&#160;else</text>
<text text-anchor="middle" x="1779.5" y="-466.6005" font-family="Inconsolata" font-size="14.00" fill="#000000"> &#160;&#160;&#160;&#45;&#45; Otherwise do nothing</text>
<text text-anchor="middle" x="1779.5" y="-435.2005" font-family="Inconsolata" font-size="14.00" fill="#000000"> &#160;&#160;&#160;&#160;&#160;&#160;&#160;return nil</text>
<text text-anchor="middle" x="1779.5" y="-419.8005" font-family="Inconsolata" font-size="14.00" fill="#000000"> &#160;&#160;&#160;end</text>
<text text-anchor="middle" x="1779.5" y="-404.4004" font-family="Inconsolata" font-size="14.00" fill="#000000">end</text>
<text text-anchor="middle" x="1779.5" y="-373.0004" font-family="Inconsolata" font-size="14.00" fill="#000000">local function knitCodex(codex)</text>
<text text-anchor="middle" x="1779.5" y="-357.6004" font-family="Inconsolata" font-size="14.00" fill="#000000"> &#160;&#160;&#160;local orb = codex.orb</text>
<text text-anchor="middle" x="1779.5" y="-342.2003" font-family="Inconsolata" font-size="14.00" fill="#000000"> &#160;&#160;&#160;local src = codex.src</text>
<text text-anchor="middle" x="1779.5" y="-326.8003" font-family="Inconsolata" font-size="14.00" fill="#000000"> &#160;&#160;&#160;s:chat(&quot;knitting orb directory: &quot; .. tostring(orb))</text>
<text text-anchor="middle" x="1779.5" y="-311.4003" font-family="Inconsolata" font-size="14.00" fill="#000000"> &#160;&#160;&#160;s:chat(&quot;into src directory: &quot; .. tostring(src))</text>
<text text-anchor="middle" x="1779.5" y="-296.0002" font-family="Inconsolata" font-size="14.00" fill="#000000"> &#160;&#160;&#160;knitDeck(orb, src)</text>
<text text-anchor="middle" x="1779.5" y="-280.6002" font-family="Inconsolata" font-size="14.00" fill="#000000"> &#160;&#160;&#160;for name, src in pairs(codex.srcs) do</text>
<text text-anchor="middle" x="1779.5" y="-265.2002" font-family="Inconsolata" font-size="14.00" fill="#000000"> &#160;&#160;&#160;&#160;&#160;&#160;&#160;writeOnChange(name, src)</text>
<text text-anchor="middle" x="1779.5" y="-249.8002" font-family="Inconsolata" font-size="14.00" fill="#000000"> &#160;&#160;&#160;end</text>
<text text-anchor="middle" x="1779.5" y="-234.4001" font-family="Inconsolata" font-size="14.00" fill="#000000">end</text>
<text text-anchor="middle" x="1779.5" y="-219.0001" font-family="Inconsolata" font-size="14.00" fill="#000000">knitter.knitCodex = knitCodex</text>
<text text-anchor="middle" x="1779.5" y="-171.6001" font-family="Inconsolata" font-size="14.00" fill="#000000">return knitter</text>
</g>
<!-- codeblock_13&#45;&gt;leaf_37 -->
<g id="edge37" class="edge">
<title>codeblock_13&#45;&gt;leaf_37</title>
<path fill="none" stroke="#000000" stroke-dasharray="5,2" d="M1557.7167,-1269.008C1568.2099,-1238.4674 1590.9645,-1172.2392 1618.0735,-1093.3376"/>
<polygon fill="#000000" stroke="#000000" points="1621.4612,-1094.2489 1621.4005,-1083.6542 1614.841,-1091.9743 1621.4612,-1094.2489"/>
</g>
<!-- leaf_16 -->
<g id="node17" class="node">
<title>leaf_16</title>
<polygon fill="none" stroke="#c0c0c0" points="680,-127.6015 335,-127.6015 335,-71.7985 680,-71.7985 680,-127.6015"/>
<text text-anchor="middle" x="507.5" y="-80.2" font-family="Inconsolata" font-size="14.00" fill="#000000">This is our new interface for knitting matters.</text>
</g>
<!-- raw_15&#45;&gt;leaf_16 -->
<g id="edge16" class="edge">
<title>raw_15&#45;&gt;leaf_16</title>
<path fill="none" stroke="#000000" stroke-dasharray="5,2" d="M865.7067,-605.6699C884.2589,-538.0499 940.019,-294.6372 823.5,-163.4 817.944,-157.1422 748.5818,-142.8238 676.2572,-129.3443"/>
<polygon fill="#000000" stroke="#000000" points="676.5092,-125.8314 666.0385,-127.4487 675.2324,-132.714 676.5092,-125.8314"/>
</g>
<!-- leaf_24 -->
<g id="node25" class="node">
<title>leaf_24</title>
<polygon fill="none" stroke="#c0c0c0" points="752.5,-117.7 698.5,-117.7 698.5,-81.7 752.5,-81.7 752.5,-117.7"/>
</g>
<!-- prespace_17&#45;&gt;leaf_24 -->
<g id="edge24" class="edge">
<title>prespace_17&#45;&gt;leaf_24</title>
<path fill="none" stroke="#000000" stroke-dasharray="5,2" d="M955.7202,-605.3224C970.3132,-537.4777 1011.6875,-296.1762 896.5,-163.4 855.8078,-116.4943 817.191,-154.8684 761.5,-127.4 759.2103,-126.2707 756.9239,-124.9839 754.6767,-123.5977"/>
<polygon fill="#000000" stroke="#000000" points="756.5149,-120.615 746.2791,-117.8804 752.5754,-126.4013 756.5149,-120.615"/>
</g>
<!-- leaf_25 -->
<g id="node26" class="node">
<title>leaf_25</title>
<polygon fill="none" stroke="#c0c0c0" points="850,-117.7 771,-117.7 771,-81.7 850,-81.7 850,-117.7"/>
<text text-anchor="middle" x="810.5" y="-96.2" font-family="Inconsolata" font-size="14.00" fill="#000000">knitCodex</text>
</g>
<!-- literal_18&#45;&gt;leaf_25 -->
<g id="edge25" class="edge">
<title>literal_18&#45;&gt;leaf_25</title>
<path fill="none" stroke="#000000" stroke-dasharray="5,2" d="M1052.4689,-605.3312C1069.8208,-537.5179 1120.6853,-296.3135 1006.5,-163.4 962.6678,-112.3787 922.0317,-152.1837 859.5,-127.4 855.8236,-125.9429 852.085,-124.2543 848.3958,-122.4437"/>
<polygon fill="#000000" stroke="#000000" points="849.8767,-119.2688 839.3906,-117.7545 846.6436,-125.4775 849.8767,-119.2688"/>
</g>
<!-- leaf_26 -->
<g id="node27" class="node">
<title>leaf_26</title>
<polygon fill="none" stroke="#c0c0c0" points="1108.5,-117.7 868.5,-117.7 868.5,-81.7 1108.5,-81.7 1108.5,-117.7"/>
<text text-anchor="middle" x="988.5" y="-96.2" font-family="Inconsolata" font-size="14.00" fill="#000000"> expects a codex which has been </text>
</g>
<!-- raw_19&#45;&gt;leaf_26 -->
<g id="edge26" class="edge">
<title>raw_19&#45;&gt;leaf_26</title>
<path fill="none" stroke="#000000" stroke-dasharray="5,2" d="M1127.367,-605.5627C1140.3707,-540.5138 1176.8827,-312.9985 1087.5,-163.4 1077.145,-146.069 1060.041,-132.6284 1042.9382,-122.6564"/>
<polygon fill="#000000" stroke="#000000" points="1044.479,-119.5094 1034.0303,-117.7556 1041.1048,-125.6425 1044.479,-119.5094"/>
</g>
<!-- anchortext_27 -->
<g id="node28" class="node">
<title>anchortext_27</title>
<ellipse fill="none" stroke="#000000" cx="1177.5" cy="-99.7" rx="51.3018" ry="18"/>
<text text-anchor="middle" x="1177.5" y="-95.5" font-family="Helvetica,sans-Serif" font-size="14.00" fill="#000000">anchortext</text>
</g>
<!-- link_20&#45;&gt;anchortext_27 -->
<g id="edge27" class="edge">
<title>link_20&#45;&gt;anchortext_27</title>
<path fill="none" stroke="#000000" stroke-dasharray="5,2" d="M1194.8804,-605.4704C1192.2167,-527.9558 1181.7264,-222.689 1178.4697,-127.919"/>
<polygon fill="#000000" stroke="#000000" points="1181.9678,-127.7987 1178.1263,-117.9248 1174.9719,-128.0392 1181.9678,-127.7987"/>
</g>
<!-- url_28 -->
<g id="node29" class="node">
<title>url_28</title>
<ellipse fill="none" stroke="#000000" cx="1273.5" cy="-99.7" rx="27" ry="18"/>
<text text-anchor="middle" x="1273.5" y="-95.5" font-family="Helvetica,sans-Serif" font-size="14.00" fill="#000000">url</text>
</g>
<!-- link_20&#45;&gt;url_28 -->
<g id="edge28" class="edge">
<title>link_20&#45;&gt;url_28</title>
<path fill="none" stroke="#000000" stroke-dasharray="5,2" d="M1198.1849,-605.4704C1209.7407,-527.8692 1255.2871,-222.0066 1269.3451,-127.6021"/>
<polygon fill="#000000" stroke="#000000" points="1272.8152,-128.0611 1270.8264,-117.6546 1265.8916,-127.03 1272.8152,-128.0611"/>
</g>
<!-- leaf_31 -->
<g id="node32" class="node">
<title>leaf_31</title>
<polygon fill="none" stroke="#c0c0c0" points="1372.5,-117.7 1318.5,-117.7 1318.5,-81.7 1372.5,-81.7 1372.5,-117.7"/>
<text text-anchor="middle" x="1345.5" y="-96.2" font-family="Inconsolata" font-size="14.00" fill="#000000"> and</text>
</g>
<!-- raw_21&#45;&gt;leaf_31 -->
<g id="edge31" class="edge">
<title>raw_21&#45;&gt;leaf_31</title>
<path fill="none" stroke="#000000" stroke-dasharray="5,2" d="M1316.5327,-605.4704C1320.9722,-527.9558 1338.456,-222.689 1343.8838,-127.919"/>
<polygon fill="#000000" stroke="#000000" points="1347.3786,-128.1086 1344.4562,-117.9248 1340.39,-127.7083 1347.3786,-128.1086"/>
</g>
<!-- anchortext_32 -->
<g id="node33" class="node">
<title>anchortext_32</title>
<ellipse fill="none" stroke="#000000" cx="1441.5" cy="-99.7" rx="51.3018" ry="18"/>
<text text-anchor="middle" x="1441.5" y="-95.5" font-family="Helvetica,sans-Serif" font-size="14.00" fill="#000000">anchortext</text>
</g>
<!-- link_22&#45;&gt;anchortext_32 -->
<g id="edge32" class="edge">
<title>link_22&#45;&gt;anchortext_32</title>
<path fill="none" stroke="#000000" stroke-dasharray="5,2" d="M1424.1196,-605.4704C1426.7833,-527.9558 1437.2736,-222.689 1440.5303,-127.919"/>
<polygon fill="#000000" stroke="#000000" points="1444.0281,-128.0392 1440.8737,-117.9248 1437.0322,-127.7987 1444.0281,-128.0392"/>
</g>
<!-- url_33 -->
<g id="node34" class="node">
<title>url_33</title>
<ellipse fill="none" stroke="#000000" cx="1537.5" cy="-99.7" rx="27" ry="18"/>
<text text-anchor="middle" x="1537.5" y="-95.5" font-family="Helvetica,sans-Serif" font-size="14.00" fill="#000000">url</text>
</g>
<!-- link_22&#45;&gt;url_33 -->
<g id="edge33" class="edge">
<title>link_22&#45;&gt;url_33</title>
<path fill="none" stroke="#000000" stroke-dasharray="5,2" d="M1420.1401,-605.4457C1409.0752,-540.9309 1378.8993,-317.4553 1459.5,-163.4 1461.0811,-160.378 1489.722,-137.3673 1511.8428,-119.8621"/>
<polygon fill="#000000" stroke="#000000" points="1514.2518,-122.4195 1519.9316,-113.4757 1509.9141,-116.9255 1514.2518,-122.4195"/>
</g>
<!-- leaf_36 -->
<g id="node37" class="node">
<title>leaf_36</title>
<polygon fill="none" stroke="#c0c0c0" points="1636.5,-117.7 1582.5,-117.7 1582.5,-81.7 1636.5,-81.7 1636.5,-117.7"/>
<text text-anchor="middle" x="1609.5" y="-96.2" font-family="Inconsolata" font-size="14.00" fill="#000000">.</text>
</g>
<!-- raw_23&#45;&gt;leaf_36 -->
<g id="edge36" class="edge">
<title>raw_23&#45;&gt;leaf_36</title>
<path fill="none" stroke="#000000" stroke-dasharray="5,2" d="M1492.1401,-605.4457C1481.0752,-540.9309 1450.8993,-317.4553 1531.5,-163.4 1532.9553,-160.6184 1557.3368,-140.9016 1578.4571,-124.1311"/>
<polygon fill="#000000" stroke="#000000" points="1580.6717,-126.842 1586.3375,-117.8894 1576.3254,-121.3548 1580.6717,-126.842"/>
</g>
<!-- leaf_29 -->
<g id="node30" class="node">
<title>leaf_29</title>
<polygon fill="none" stroke="#c0c0c0" points="1204.5,-36 1150.5,-36 1150.5,0 1204.5,0 1204.5,-36"/>
<text text-anchor="middle" x="1177.5" y="-14.5" font-family="Inconsolata" font-size="14.00" fill="#000000">cased</text>
</g>
<!-- anchortext_27&#45;&gt;leaf_29 -->
<g id="edge29" class="edge">
<title>anchortext_27&#45;&gt;leaf_29</title>
<path fill="none" stroke="#000000" stroke-dasharray="5,2" d="M1177.5,-81.5681C1177.5,-71.2023 1177.5,-57.9747 1177.5,-46.2729"/>
<polygon fill="#000000" stroke="#000000" points="1181.0001,-46.0812 1177.5,-36.0812 1174.0001,-46.0812 1181.0001,-46.0812"/>
</g>
<!-- leaf_30 -->
<g id="node31" class="node">
<title>leaf_30</title>
<polygon fill="none" stroke="#c0c0c0" points="1306,-36 1241,-36 1241,0 1306,0 1306,-36"/>
<text text-anchor="middle" x="1273.5" y="-14.5" font-family="Inconsolata" font-size="14.00" fill="#000000">httk://</text>
</g>
<!-- url_28&#45;&gt;leaf_30 -->
<g id="edge30" class="edge">
<title>url_28&#45;&gt;leaf_30</title>
<path fill="none" stroke="#000000" stroke-dasharray="5,2" d="M1273.5,-81.5681C1273.5,-71.2023 1273.5,-57.9747 1273.5,-46.2729"/>
<polygon fill="#000000" stroke="#000000" points="1277.0001,-46.0812 1273.5,-36.0812 1270.0001,-46.0812 1277.0001,-46.0812"/>
</g>
<!-- leaf_34 -->
<g id="node35" class="node">
<title>leaf_34</title>
<polygon fill="none" stroke="#c0c0c0" points="1468.5,-36 1414.5,-36 1414.5,0 1468.5,0 1468.5,-36"/>
<text text-anchor="middle" x="1441.5" y="-14.5" font-family="Inconsolata" font-size="14.00" fill="#000000">spun</text>
</g>
<!-- anchortext_32&#45;&gt;leaf_34 -->
<g id="edge34" class="edge">
<title>anchortext_32&#45;&gt;leaf_34</title>
<path fill="none" stroke="#000000" stroke-dasharray="5,2" d="M1441.5,-81.5681C1441.5,-71.2023 1441.5,-57.9747 1441.5,-46.2729"/>
<polygon fill="#000000" stroke="#000000" points="1445.0001,-46.0812 1441.5,-36.0812 1438.0001,-46.0812 1445.0001,-46.0812"/>
</g>
<!-- leaf_35 -->
<g id="node36" class="node">
<title>leaf_35</title>
<polygon fill="none" stroke="#c0c0c0" points="1570,-36 1505,-36 1505,0 1570,0 1570,-36"/>
<text text-anchor="middle" x="1537.5" y="-14.5" font-family="Inconsolata" font-size="14.00" fill="#000000">httk://</text>
</g>
<!-- url_33&#45;&gt;leaf_35 -->
<g id="edge35" class="edge">
<title>url_33&#45;&gt;leaf_35</title>
<path fill="none" stroke="#000000" stroke-dasharray="5,2" d="M1537.5,-81.5681C1537.5,-71.2023 1537.5,-57.9747 1537.5,-46.2729"/>
<polygon fill="#000000" stroke="#000000" points="1541.0001,-46.0812 1537.5,-36.0812 1534.0001,-46.0812 1541.0001,-46.0812"/>
</g>
</g>
</svg>
