<?xml version="1.0" encoding="UTF-8" standalone="no"?>
<!DOCTYPE svg PUBLIC "-//W3C//DTD SVG 1.1//EN"
 "http://www.w3.org/Graphics/SVG/1.1/DTD/svg11.dtd">
<!-- Generated by graphviz version 2.40.1 (20161225.0304)
 -->
<!-- Title: hierarchy Pages: 1 -->
<svg width="4396pt" height="987pt"
 viewBox="0.00 0.00 4395.50 987.00" xmlns="http://www.w3.org/2000/svg" xmlns:xlink="http://www.w3.org/1999/xlink">
<g id="graph0" class="graph" transform="scale(1 1) rotate(0) translate(4 983.0011)">
<title>hierarchy</title>
<polygon fill="#ffffff" stroke="transparent" points="-4,4 -4,-983.0011 4391.5,-983.0011 4391.5,4 -4,4"/>
<!-- doc_0 -->
<g id="node1" class="node">
<title>doc_0</title>
<ellipse fill="none" stroke="#000000" cx="1443.5" cy="-961.0011" rx="27" ry="18"/>
<text text-anchor="middle" x="1443.5" y="-956.8011" font-family="Helvetica,sans-Serif" font-size="14.00" fill="#000000">90 &#160;</text>
</g>
<!-- section_1 -->
<g id="node2" class="node">
<title>section_1</title>
<ellipse fill="none" stroke="#000000" cx="1443.5" cy="-889.0011" rx="27" ry="18"/>
<text text-anchor="middle" x="1443.5" y="-884.8011" font-family="Helvetica,sans-Serif" font-size="14.00" fill="#000000">46 &#160;</text>
</g>
<!-- doc_0&#45;&gt;section_1 -->
<g id="edge1" class="edge">
<title>doc_0&#45;&gt;section_1</title>
<path fill="none" stroke="#000000" stroke-dasharray="5,2" d="M1443.5,-942.8325C1443.5,-935.132 1443.5,-925.9754 1443.5,-917.4177"/>
<polygon fill="#000000" stroke="#000000" points="1447.0001,-917.4143 1443.5,-907.4144 1440.0001,-917.4144 1447.0001,-917.4143"/>
</g>
<!-- header_2 -->
<g id="node3" class="node">
<title>header_2</title>
<ellipse fill="none" stroke="#000000" cx="1227.5" cy="-817.0011" rx="27" ry="18"/>
<text text-anchor="middle" x="1227.5" y="-812.8011" font-family="Helvetica,sans-Serif" font-size="14.00" fill="#000000">le &#160;</text>
</g>
<!-- section_1&#45;&gt;header_2 -->
<g id="edge2" class="edge">
<title>section_1&#45;&gt;header_2</title>
<path fill="none" stroke="#000000" stroke-dasharray="5,2" d="M1417.9913,-882.8296C1382.6788,-873.9544 1317.1807,-856.2897 1263.5,-835.0011 1261.6488,-834.2669 1259.7635,-833.4731 1257.8748,-832.6421"/>
<polygon fill="#000000" stroke="#000000" points="1259.0848,-829.3442 1248.5435,-828.2801 1256.1204,-835.6856 1259.0848,-829.3442"/>
</g>
<!-- block_3 -->
<g id="node4" class="node">
<title>block_3</title>
<ellipse fill="none" stroke="#000000" cx="1299.5" cy="-817.0011" rx="27" ry="18"/>
<text text-anchor="middle" x="1299.5" y="-812.8011" font-family="Helvetica,sans-Serif" font-size="14.00" fill="#000000">&#45;7 &#160;</text>
</g>
<!-- section_1&#45;&gt;block_3 -->
<g id="edge3" class="edge">
<title>section_1&#45;&gt;block_3</title>
<path fill="none" stroke="#000000" stroke-dasharray="5,2" d="M1421.6295,-878.0658C1397.2778,-865.89 1357.738,-846.1201 1330.2715,-832.3869"/>
<polygon fill="#000000" stroke="#000000" points="1331.614,-829.145 1321.1045,-827.8033 1328.4835,-835.406 1331.614,-829.145"/>
</g>
<!-- block_4 -->
<g id="node5" class="node">
<title>block_4</title>
<ellipse fill="none" stroke="#000000" cx="1371.5" cy="-817.0011" rx="27" ry="18"/>
<text text-anchor="middle" x="1371.5" y="-812.8011" font-family="Helvetica,sans-Serif" font-size="14.00" fill="#000000">11 &#160;</text>
</g>
<!-- section_1&#45;&gt;block_4 -->
<g id="edge4" class="edge">
<title>section_1&#45;&gt;block_4</title>
<path fill="none" stroke="#000000" stroke-dasharray="5,2" d="M1428.2307,-873.7317C1418.303,-863.8041 1405.1847,-850.6858 1394.0637,-839.5648"/>
<polygon fill="#000000" stroke="#000000" points="1396.2933,-836.8446 1386.7473,-832.2484 1391.3436,-841.7944 1396.2933,-836.8446"/>
</g>
<!-- block_5 -->
<g id="node6" class="node">
<title>block_5</title>
<ellipse fill="none" stroke="#000000" cx="1443.5" cy="-817.0011" rx="27" ry="18"/>
<text text-anchor="middle" x="1443.5" y="-812.8011" font-family="Helvetica,sans-Serif" font-size="14.00" fill="#000000">46 &#160;</text>
</g>
<!-- section_1&#45;&gt;block_5 -->
<g id="edge5" class="edge">
<title>section_1&#45;&gt;block_5</title>
<path fill="none" stroke="#000000" stroke-dasharray="5,2" d="M1443.5,-870.8325C1443.5,-863.132 1443.5,-853.9754 1443.5,-845.4177"/>
<polygon fill="#000000" stroke="#000000" points="1447.0001,-845.4143 1443.5,-835.4144 1440.0001,-845.4144 1447.0001,-845.4143"/>
</g>
<!-- section_6 -->
<g id="node7" class="node">
<title>section_6</title>
<ellipse fill="none" stroke="#000000" cx="1650.5" cy="-817.0011" rx="27" ry="18"/>
<text text-anchor="middle" x="1650.5" y="-812.8011" font-family="Helvetica,sans-Serif" font-size="14.00" fill="#000000">25 &#160;</text>
</g>
<!-- section_1&#45;&gt;section_6 -->
<g id="edge6" class="edge">
<title>section_1&#45;&gt;section_6</title>
<path fill="none" stroke="#000000" stroke-dasharray="5,2" d="M1467.6507,-880.6009C1504.5771,-867.7569 1575.1808,-843.1991 1617.0258,-828.6443"/>
<polygon fill="#000000" stroke="#000000" points="1618.208,-831.9388 1626.5032,-825.3478 1615.9084,-825.3273 1618.208,-831.9388"/>
</g>
<!-- section_7 -->
<g id="node8" class="node">
<title>section_7</title>
<ellipse fill="none" stroke="#000000" cx="2205.5" cy="-817.0011" rx="27" ry="18"/>
<text text-anchor="middle" x="2205.5" y="-812.8011" font-family="Helvetica,sans-Serif" font-size="14.00" fill="#000000">46 &#160;</text>
</g>
<!-- section_1&#45;&gt;section_7 -->
<g id="edge7" class="edge">
<title>section_1&#45;&gt;section_7</title>
<path fill="none" stroke="#000000" stroke-dasharray="5,2" d="M1470.62,-886.4386C1586.0045,-875.5361 2036.2137,-832.9966 2168.6569,-820.4823"/>
<polygon fill="#000000" stroke="#000000" points="2169.0786,-823.9582 2178.705,-819.5329 2168.42,-816.9892 2169.0786,-823.9582"/>
</g>
<!-- section_8 -->
<g id="node9" class="node">
<title>section_8</title>
<ellipse fill="none" stroke="#000000" cx="3552.5" cy="-817.0011" rx="27" ry="18"/>
<text text-anchor="middle" x="3552.5" y="-812.8011" font-family="Helvetica,sans-Serif" font-size="14.00" fill="#000000">90 &#160;</text>
</g>
<!-- section_1&#45;&gt;section_8 -->
<g id="edge8" class="edge">
<title>section_1&#45;&gt;section_8</title>
<path fill="none" stroke="#000000" stroke-dasharray="5,2" d="M1470.5499,-888.0776C1695.4721,-880.3989 3253.6359,-827.2041 3515.2607,-818.2724"/>
<polygon fill="#000000" stroke="#000000" points="3515.5111,-821.766 3525.3858,-817.9268 3515.2722,-814.7701 3515.5111,-821.766"/>
</g>
<!-- leaf_9 -->
<g id="node10" class="node">
<title>leaf_9</title>
<polygon fill="none" stroke="#c0c0c0" points="513,-762.8019 0,-762.8019 0,-661.6001 513,-661.6001 513,-762.8019"/>
<text text-anchor="middle" x="256.5" y="-731.8011" font-family="Inconsolata" font-size="14.00" fill="#000000"> &#160;&#160;A knitter is the actor responsible for knitting together our source</text>
<text text-anchor="middle" x="256.5" y="-716.4011" font-family="Inconsolata" font-size="14.00" fill="#000000"> code. &#160;They are defined by language, which is to say that the unit of </text>
<text text-anchor="middle" x="256.5" y="-701.001" font-family="Inconsolata" font-size="14.00" fill="#000000"> action is not a runtime or document, knitters will expand to be </text>
<text text-anchor="middle" x="256.5" y="-685.601" font-family="Inconsolata" font-size="14.00" fill="#000000"> responsible for an arbitrary number of these.</text>
</g>
<!-- block_3&#45;&gt;leaf_9 -->
<g id="edge9" class="edge">
<title>block_3&#45;&gt;leaf_9</title>
<path fill="none" stroke="#000000" stroke-dasharray="5,2" d="M1279.1369,-804.9983C1274.1743,-802.592 1268.7727,-800.3817 1263.5,-799.0011 1107.0529,-758.0361 702.0214,-781.5737 523.4852,-763.0038"/>
<polygon fill="#000000" stroke="#000000" points="523.6733,-759.5031 513.3471,-761.8739 522.8979,-766.4601 523.6733,-759.5031"/>
</g>
<!-- leaf_10 -->
<g id="node11" class="node">
<title>leaf_10</title>
<polygon fill="none" stroke="#c0c0c0" points="1065.5,-747.4014 531.5,-747.4014 531.5,-677.0007 1065.5,-677.0007 1065.5,-747.4014"/>
<text text-anchor="middle" x="798.5" y="-732.1011" font-family="Inconsolata" font-size="14.00" fill="#000000"> The bootstrap knitter does what a knitter will do by default: &#160;go through</text>
<text text-anchor="middle" x="798.5" y="-716.701" font-family="Inconsolata" font-size="14.00" fill="#000000"> =.../org/*/*.gm= and generate =.../src/*.*.lang= for all code blocks in</text>
<text text-anchor="middle" x="798.5" y="-701.301" font-family="Inconsolata" font-size="14.00" fill="#000000"> =#lang=. </text>
</g>
<!-- block_4&#45;&gt;leaf_10 -->
<g id="edge10" class="edge">
<title>block_4&#45;&gt;leaf_10</title>
<path fill="none" stroke="#000000" stroke-dasharray="5,2" d="M1350.6586,-805.1488C1345.8066,-802.797 1340.5729,-800.5723 1335.5,-799.0011 1223.6441,-764.3563 1190.1111,-781.6042 1074.5,-763.0011 1048.0453,-758.7442 1020.2194,-753.9719 992.8322,-749.102"/>
<polygon fill="#000000" stroke="#000000" points="993.225,-745.6168 982.7654,-747.3042 991.9943,-752.5078 993.225,-745.6168"/>
</g>
<!-- leaf_11 -->
<g id="node12" class="node">
<title>leaf_11</title>
<polygon fill="none" stroke="#c0c0c0" points="1533.5,-732.1031 1083.5,-732.1031 1083.5,-692.2989 1533.5,-692.2989 1533.5,-732.1031"/>
<text text-anchor="middle" x="1308.5" y="-716.701" font-family="Inconsolata" font-size="14.00" fill="#000000"> It must do so through an interface which will let it grow up.</text>
</g>
<!-- block_5&#45;&gt;leaf_11 -->
<g id="edge11" class="edge">
<title>block_5&#45;&gt;leaf_11</title>
<path fill="none" stroke="#000000" stroke-dasharray="5,2" d="M1425.8511,-803.3003C1404.6062,-786.808 1368.4754,-758.7598 1341.904,-738.1324"/>
<polygon fill="#000000" stroke="#000000" points="1344.0371,-735.3575 1333.9916,-731.9901 1339.7446,-740.887 1344.0371,-735.3575"/>
</g>
<!-- header_12 -->
<g id="node13" class="node">
<title>header_12</title>
<ellipse fill="none" stroke="#000000" cx="1578.5" cy="-712.201" rx="27" ry="18"/>
<text text-anchor="middle" x="1578.5" y="-708.001" font-family="Helvetica,sans-Serif" font-size="14.00" fill="#000000">de &#160;</text>
</g>
<!-- section_6&#45;&gt;header_12 -->
<g id="edge12" class="edge">
<title>section_6&#45;&gt;header_12</title>
<path fill="none" stroke="#000000" stroke-dasharray="5,2" d="M1639.25,-800.6261C1627.5887,-783.6524 1609.212,-756.9041 1595.7215,-737.2679"/>
<polygon fill="#000000" stroke="#000000" points="1598.4561,-735.0673 1589.9086,-728.8069 1592.6865,-739.0311 1598.4561,-735.0673"/>
</g>
<!-- block_13 -->
<g id="node14" class="node">
<title>block_13</title>
<ellipse fill="none" stroke="#000000" cx="1650.5" cy="-712.201" rx="27" ry="18"/>
<text text-anchor="middle" x="1650.5" y="-708.001" font-family="Helvetica,sans-Serif" font-size="14.00" fill="#000000">19 &#160;</text>
</g>
<!-- section_6&#45;&gt;block_13 -->
<g id="edge13" class="edge">
<title>section_6&#45;&gt;block_13</title>
<path fill="none" stroke="#000000" stroke-dasharray="5,2" d="M1650.5,-798.7463C1650.5,-782.6668 1650.5,-758.9893 1650.5,-740.463"/>
<polygon fill="#000000" stroke="#000000" points="1654.0001,-740.2466 1650.5,-730.2466 1647.0001,-740.2467 1654.0001,-740.2466"/>
</g>
<!-- block_14 -->
<g id="node15" class="node">
<title>block_14</title>
<ellipse fill="none" stroke="#000000" cx="1722.5" cy="-712.201" rx="27" ry="18"/>
<text text-anchor="middle" x="1722.5" y="-708.001" font-family="Helvetica,sans-Serif" font-size="14.00" fill="#000000">24 &#160;</text>
</g>
<!-- section_6&#45;&gt;block_14 -->
<g id="edge14" class="edge">
<title>section_6&#45;&gt;block_14</title>
<path fill="none" stroke="#000000" stroke-dasharray="5,2" d="M1661.75,-800.6261C1673.4113,-783.6524 1691.788,-756.9041 1705.2785,-737.2679"/>
<polygon fill="#000000" stroke="#000000" points="1708.3135,-739.0311 1711.0914,-728.8069 1702.5439,-735.0673 1708.3135,-739.0311"/>
</g>
<!-- block_15 -->
<g id="node16" class="node">
<title>block_15</title>
<ellipse fill="none" stroke="#000000" cx="1794.5" cy="-712.201" rx="27" ry="18"/>
<text text-anchor="middle" x="1794.5" y="-708.001" font-family="Helvetica,sans-Serif" font-size="14.00" fill="#000000">25 &#160;</text>
</g>
<!-- section_6&#45;&gt;block_15 -->
<g id="edge15" class="edge">
<title>section_6&#45;&gt;block_15</title>
<path fill="none" stroke="#000000" stroke-dasharray="5,2" d="M1674.8105,-808.7997C1698.1123,-800.0806 1733.3594,-784.565 1758.5,-763.0011 1766.6599,-756.0021 1773.913,-746.7742 1779.7324,-738.1056"/>
<polygon fill="#000000" stroke="#000000" points="1782.8584,-739.7113 1785.2556,-729.3913 1776.9459,-735.9639 1782.8584,-739.7113"/>
</g>
<!-- header_19 -->
<g id="node20" class="node">
<title>header_19</title>
<ellipse fill="none" stroke="#000000" cx="2133.5" cy="-712.201" rx="27" ry="18"/>
<text text-anchor="middle" x="2133.5" y="-708.001" font-family="Helvetica,sans-Serif" font-size="14.00" fill="#000000">gn &#160;</text>
</g>
<!-- section_7&#45;&gt;header_19 -->
<g id="edge19" class="edge">
<title>section_7&#45;&gt;header_19</title>
<path fill="none" stroke="#000000" stroke-dasharray="5,2" d="M2194.25,-800.6261C2182.5887,-783.6524 2164.212,-756.9041 2150.7215,-737.2679"/>
<polygon fill="#000000" stroke="#000000" points="2153.4561,-735.0673 2144.9086,-728.8069 2147.6865,-739.0311 2153.4561,-735.0673"/>
</g>
<!-- block_20 -->
<g id="node21" class="node">
<title>block_20</title>
<ellipse fill="none" stroke="#000000" cx="2205.5" cy="-712.201" rx="27" ry="18"/>
<text text-anchor="middle" x="2205.5" y="-708.001" font-family="Helvetica,sans-Serif" font-size="14.00" fill="#000000">30 &#160;</text>
</g>
<!-- section_7&#45;&gt;block_20 -->
<g id="edge20" class="edge">
<title>section_7&#45;&gt;block_20</title>
<path fill="none" stroke="#000000" stroke-dasharray="5,2" d="M2205.5,-798.7463C2205.5,-782.6668 2205.5,-758.9893 2205.5,-740.463"/>
<polygon fill="#000000" stroke="#000000" points="2209.0001,-740.2466 2205.5,-730.2466 2202.0001,-740.2467 2209.0001,-740.2466"/>
</g>
<!-- block_21 -->
<g id="node22" class="node">
<title>block_21</title>
<ellipse fill="none" stroke="#000000" cx="2503.5" cy="-712.201" rx="27" ry="18"/>
<text text-anchor="middle" x="2503.5" y="-708.001" font-family="Helvetica,sans-Serif" font-size="14.00" fill="#000000">40 &#160;</text>
</g>
<!-- section_7&#45;&gt;block_21 -->
<g id="edge21" class="edge">
<title>section_7&#45;&gt;block_21</title>
<path fill="none" stroke="#000000" stroke-dasharray="5,2" d="M2229.3829,-808.602C2282.2384,-790.0139 2409.2249,-745.3555 2469.9942,-723.9843"/>
<polygon fill="#000000" stroke="#000000" points="2471.231,-727.2595 2479.5034,-720.6401 2468.9086,-720.656 2471.231,-727.2595"/>
</g>
<!-- block_22 -->
<g id="node23" class="node">
<title>block_22</title>
<ellipse fill="none" stroke="#000000" cx="2914.5" cy="-712.201" rx="27" ry="18"/>
<text text-anchor="middle" x="2914.5" y="-708.001" font-family="Helvetica,sans-Serif" font-size="14.00" fill="#000000">46 &#160;</text>
</g>
<!-- section_7&#45;&gt;block_22 -->
<g id="edge22" class="edge">
<title>section_7&#45;&gt;block_22</title>
<path fill="none" stroke="#000000" stroke-dasharray="5,2" d="M2231.9996,-813.0841C2340.5785,-797.0346 2751.6509,-736.2724 2877.5962,-717.6559"/>
<polygon fill="#000000" stroke="#000000" points="2878.4866,-721.0624 2887.8673,-716.1377 2877.463,-714.1377 2878.4866,-721.0624"/>
</g>
<!-- header_28 -->
<g id="node29" class="node">
<title>header_28</title>
<ellipse fill="none" stroke="#000000" cx="3444.5" cy="-712.201" rx="27" ry="18"/>
<text text-anchor="middle" x="3444.5" y="-708.001" font-family="Helvetica,sans-Serif" font-size="14.00" fill="#000000">od &#160;</text>
</g>
<!-- section_8&#45;&gt;header_28 -->
<g id="edge28" class="edge">
<title>section_8&#45;&gt;header_28</title>
<path fill="none" stroke="#000000" stroke-dasharray="5,2" d="M3532.5426,-804.5051C3517.3027,-794.404 3496.3028,-779.2362 3480.5,-763.0011 3473.1135,-755.4125 3466.1082,-746.1923 3460.2741,-737.7007"/>
<polygon fill="#000000" stroke="#000000" points="3463.0924,-735.6174 3454.6515,-729.2142 3457.257,-739.4837 3463.0924,-735.6174"/>
</g>
<!-- block_29 -->
<g id="node30" class="node">
<title>block_29</title>
<ellipse fill="none" stroke="#000000" cx="3516.5" cy="-712.201" rx="27" ry="18"/>
<text text-anchor="middle" x="3516.5" y="-708.001" font-family="Helvetica,sans-Serif" font-size="14.00" fill="#000000">50 &#160;</text>
</g>
<!-- section_8&#45;&gt;block_29 -->
<g id="edge29" class="edge">
<title>section_8&#45;&gt;block_29</title>
<path fill="none" stroke="#000000" stroke-dasharray="5,2" d="M3546.3931,-799.2232C3540.7816,-782.8876 3532.379,-758.4265 3525.91,-739.5945"/>
<polygon fill="#000000" stroke="#000000" points="3529.1959,-738.3866 3522.6369,-730.0661 3522.5756,-740.6608 3529.1959,-738.3866"/>
</g>
<!-- block_30 -->
<g id="node31" class="node">
<title>block_30</title>
<ellipse fill="none" stroke="#000000" cx="3588.5" cy="-712.201" rx="27" ry="18"/>
<text text-anchor="middle" x="3588.5" y="-708.001" font-family="Helvetica,sans-Serif" font-size="14.00" fill="#000000">57 &#160;</text>
</g>
<!-- section_8&#45;&gt;block_30 -->
<g id="edge30" class="edge">
<title>section_8&#45;&gt;block_30</title>
<path fill="none" stroke="#000000" stroke-dasharray="5,2" d="M3558.6069,-799.2232C3564.2184,-782.8876 3572.621,-758.4265 3579.09,-739.5945"/>
<polygon fill="#000000" stroke="#000000" points="3582.4244,-740.6608 3582.3631,-730.0661 3575.8041,-738.3866 3582.4244,-740.6608"/>
</g>
<!-- block_31 -->
<g id="node32" class="node">
<title>block_31</title>
<ellipse fill="none" stroke="#000000" cx="3830.5" cy="-712.201" rx="27" ry="18"/>
<text text-anchor="middle" x="3830.5" y="-708.001" font-family="Helvetica,sans-Serif" font-size="14.00" fill="#000000">60 &#160;</text>
</g>
<!-- section_8&#45;&gt;block_31 -->
<g id="edge31" class="edge">
<title>section_8&#45;&gt;block_31</title>
<path fill="none" stroke="#000000" stroke-dasharray="5,2" d="M3576.2021,-808.0659C3625.7493,-789.3877 3740.3905,-746.1704 3797.2648,-724.73"/>
<polygon fill="#000000" stroke="#000000" points="3798.7353,-727.9162 3806.8579,-721.1136 3796.266,-721.3661 3798.7353,-727.9162"/>
</g>
<!-- block_32 -->
<g id="node33" class="node">
<title>block_32</title>
<ellipse fill="none" stroke="#000000" cx="4190.5" cy="-712.201" rx="27" ry="18"/>
<text text-anchor="middle" x="4190.5" y="-708.001" font-family="Helvetica,sans-Serif" font-size="14.00" fill="#000000">90 &#160;</text>
</g>
<!-- section_8&#45;&gt;block_32 -->
<g id="edge32" class="edge">
<title>section_8&#45;&gt;block_32</title>
<path fill="none" stroke="#000000" stroke-dasharray="5,2" d="M3579.1018,-812.6314C3679.8412,-796.0836 4038.0592,-737.2415 4154.0028,-718.1962"/>
<polygon fill="#000000" stroke="#000000" points="4154.8376,-721.606 4164.138,-716.5313 4153.7029,-714.6986 4154.8376,-721.606"/>
</g>
<!-- leaf_16 -->
<g id="node17" class="node">
<title>leaf_16</title>
<polygon fill="none" stroke="#c0c0c0" points="1225.5,-587.3012 719.5,-587.3012 719.5,-500.9005 1225.5,-500.9005 1225.5,-587.3012"/>
<text text-anchor="middle" x="972.5" y="-556.0009" font-family="Inconsolata" font-size="14.00" fill="#000000"> &#160;&#160;This is the last verb in Grimoire which needs to be written in pure</text>
<text text-anchor="middle" x="972.5" y="-540.6008" font-family="Inconsolata" font-size="14.00" fill="#000000"> Lua. &#160;Huzzah! Typing &#45;&#45; all the time is tiresome and I didn&#39;t want to</text>
<text text-anchor="middle" x="972.5" y="-525.2008" font-family="Inconsolata" font-size="14.00" fill="#000000"> patch Sublime just for that.</text>
</g>
<!-- block_13&#45;&gt;leaf_16 -->
<g id="edge16" class="edge">
<title>block_13&#45;&gt;leaf_16</title>
<path fill="none" stroke="#000000" stroke-dasharray="5,2" d="M1642.8356,-694.5319C1636.8652,-683.0479 1627.4129,-668.8695 1614.5,-661.401 1541.0742,-618.9332 1317.6708,-642.0588 1234.5,-625.401 1190.9598,-616.6805 1144.3813,-603.5279 1102.7532,-590.3283"/>
<polygon fill="#000000" stroke="#000000" points="1103.7102,-586.9598 1093.1192,-587.245 1101.5765,-593.6267 1103.7102,-586.9598"/>
</g>
<!-- leaf_17 -->
<g id="node18" class="node">
<title>leaf_17</title>
<polygon fill="none" stroke="#c0c0c0" points="1749.5,-586.7019 1243.5,-586.7019 1243.5,-501.4998 1749.5,-501.4998 1749.5,-586.7019"/>
<text text-anchor="middle" x="1496.5" y="-571.7009" font-family="Inconsolata" font-size="14.00" fill="#000000"> I do intend to design a </text>
<text text-anchor="middle" x="1496.5" y="-556.3009" font-family="Inconsolata" font-size="14.00" fill="#000000"> [syntax highligher for Sublime](etc/Grimoire.sublime_syntax), just</text>
<text text-anchor="middle" x="1496.5" y="-540.9008" font-family="Inconsolata" font-size="14.00" fill="#000000"> a simple minimum&#45;viable that will make editing the Lua inside =grym= </text>
<text text-anchor="middle" x="1496.5" y="-525.5008" font-family="Inconsolata" font-size="14.00" fill="#000000"> pleasant while I polish up femto. </text>
</g>
<!-- block_14&#45;&gt;leaf_17 -->
<g id="edge17" class="edge">
<title>block_14&#45;&gt;leaf_17</title>
<path fill="none" stroke="#000000" stroke-dasharray="5,2" d="M1712.9609,-695.3393C1706.4303,-684.7672 1697.0618,-671.3133 1686.5,-661.401 1658.2076,-634.8483 1622.9947,-611.1278 1590.5976,-592.0837"/>
<polygon fill="#000000" stroke="#000000" points="1591.95,-588.8224 1581.5427,-586.8379 1588.441,-594.8793 1591.95,-588.8224"/>
</g>
<!-- leaf_18 -->
<g id="node19" class="node">
<title>leaf_18</title>
<polygon fill="none" stroke="#c0c0c0" points="1821.5,-562.1008 1767.5,-562.1008 1767.5,-526.1008 1821.5,-526.1008 1821.5,-562.1008"/>
<text text-anchor="middle" x="1794.5" y="-540.6008" font-family="Inconsolata" font-size="14.00" fill="#000000"> </text>
</g>
<!-- block_15&#45;&gt;leaf_18 -->
<g id="edge18" class="edge">
<title>block_15&#45;&gt;leaf_18</title>
<path fill="none" stroke="#000000" stroke-dasharray="5,2" d="M1794.5,-693.8914C1794.5,-664.6368 1794.5,-607.1329 1794.5,-572.507"/>
<polygon fill="#000000" stroke="#000000" points="1798.0001,-572.1335 1794.5,-562.1335 1791.0001,-572.1335 1798.0001,-572.1335"/>
</g>
<!-- leaf_23 -->
<g id="node24" class="node">
<title>leaf_23</title>
<polygon fill="none" stroke="#c0c0c0" points="2345.5,-579.4012 1839.5,-579.4012 1839.5,-508.8005 2345.5,-508.8005 2345.5,-579.4012"/>
<text text-anchor="middle" x="2092.5" y="-548.3009" font-family="Inconsolata" font-size="14.00" fill="#000000"> &#160;&#160;=grym invert= is an isolated module. &#160;It&#39;s a shim; if better tools </text>
<text text-anchor="middle" x="2092.5" y="-532.9008" font-family="Inconsolata" font-size="14.00" fill="#000000"> succeeds, we&#39;ll stop using it within the Arc in fairly short order.</text>
</g>
<!-- block_20&#45;&gt;leaf_23 -->
<g id="edge23" class="edge">
<title>block_20&#45;&gt;leaf_23</title>
<path fill="none" stroke="#000000" stroke-dasharray="5,2" d="M2194.252,-695.4684C2177.578,-670.6639 2145.7296,-623.2858 2122.086,-588.1134"/>
<polygon fill="#000000" stroke="#000000" points="2124.7496,-585.802 2116.266,-579.4554 2118.9402,-589.7072 2124.7496,-585.802"/>
</g>
<!-- leaf_24 -->
<g id="node25" class="node">
<title>leaf_24</title>
<polygon fill="none" stroke="#c0c0c0" points="2869.5,-625.2016 2363.5,-625.2016 2363.5,-463.0001 2869.5,-463.0001 2869.5,-625.2016"/>
<text text-anchor="middle" x="2616.5" y="-610.201" font-family="Inconsolata" font-size="14.00" fill="#000000"> =grym knit=, by contrast, is part of the core system. &#160;Software tends</text>
<text text-anchor="middle" x="2616.5" y="-594.8009" font-family="Inconsolata" font-size="14.00" fill="#000000"> to stick around, and a Grimoire is a language&#45;as&#45;in&#45;human&#45;language</text>
<text text-anchor="middle" x="2616.5" y="-579.4009" font-family="Inconsolata" font-size="14.00" fill="#000000"> sort of project. &#160;An advantage we intend to offer over Org is a </text>
<text text-anchor="middle" x="2616.5" y="-564.0009" font-family="Inconsolata" font-size="14.00" fill="#000000"> nice Unix&#45;flavor toolkit for munging flat files from your choice of</text>
<text text-anchor="middle" x="2616.5" y="-548.6008" font-family="Inconsolata" font-size="14.00" fill="#000000"> editor.</text>
<text text-anchor="middle" x="2616.5" y="-533.2008" font-family="Inconsolata" font-size="14.00" fill="#000000"> </text>
<text text-anchor="middle" x="2616.5" y="-517.8008" font-family="Inconsolata" font-size="14.00" fill="#000000"> =knit= methods receive a parsed document, not a string. &#160;The Knitter </text>
<text text-anchor="middle" x="2616.5" y="-502.4007" font-family="Inconsolata" font-size="14.00" fill="#000000"> modules generates language specific transformers for various Nodes,</text>
<text text-anchor="middle" x="2616.5" y="-487.0007" font-family="Inconsolata" font-size="14.00" fill="#000000"> and the Knit module uses them when called for. </text>
</g>
<!-- block_21&#45;&gt;leaf_24 -->
<g id="edge24" class="edge">
<title>block_21&#45;&gt;leaf_24</title>
<path fill="none" stroke="#000000" stroke-dasharray="5,2" d="M2514.748,-695.4684C2524.7852,-680.5368 2540.3212,-657.4254 2556.256,-633.7205"/>
<polygon fill="#000000" stroke="#000000" points="2559.2265,-635.5753 2561.9007,-625.3235 2553.417,-631.6701 2559.2265,-635.5753"/>
</g>
<!-- codeblock_25 -->
<g id="node26" class="node">
<title>codeblock_25</title>
<ellipse fill="none" stroke="#000000" cx="2914.5" cy="-544.1008" rx="27" ry="18"/>
<text text-anchor="middle" x="2914.5" y="-539.9008" font-family="Helvetica,sans-Serif" font-size="14.00" fill="#000000">45 &#160;</text>
</g>
<!-- block_22&#45;&gt;codeblock_25 -->
<g id="edge25" class="edge">
<title>block_22&#45;&gt;codeblock_25</title>
<path fill="none" stroke="#000000" stroke-dasharray="5,2" d="M2914.5,-693.8914C2914.5,-664.6368 2914.5,-607.1329 2914.5,-572.507"/>
<polygon fill="#000000" stroke="#000000" points="2918.0001,-572.1335 2914.5,-562.1335 2911.0001,-572.1335 2918.0001,-572.1335"/>
</g>
<!-- leaf_27 -->
<g id="node28" class="node">
<title>leaf_27</title>
<polygon fill="none" stroke="#c0c0c0" points="3013.5,-562.1008 2959.5,-562.1008 2959.5,-526.1008 3013.5,-526.1008 3013.5,-562.1008"/>
</g>
<!-- block_22&#45;&gt;leaf_27 -->
<g id="edge27" class="edge">
<title>block_22&#45;&gt;leaf_27</title>
<path fill="none" stroke="#000000" stroke-dasharray="5,2" d="M2921.9341,-694.8445C2934.426,-665.6793 2959.7253,-606.6123 2974.6777,-571.7027"/>
<polygon fill="#000000" stroke="#000000" points="2978.0609,-572.6932 2978.7809,-562.1229 2971.6263,-569.9372 2978.0609,-572.6932"/>
</g>
<!-- leaf_26 -->
<g id="node27" class="node">
<title>leaf_26</title>
<polygon fill="none" stroke="#c0c0c0" points="3020.5,-240.7008 2808.5,-240.7008 2808.5,-186.0999 3020.5,-186.0999 3020.5,-240.7008"/>
<text text-anchor="middle" x="2914.5" y="-225.6004" font-family="Inconsolata" font-size="14.00" fill="#000000">local u = require &quot;lib/util&quot;</text>
<text text-anchor="middle" x="2914.5" y="-194.2003" font-family="Inconsolata" font-size="14.00" fill="#000000">local K, k = u.inherit()</text>
</g>
<!-- codeblock_25&#45;&gt;leaf_26 -->
<g id="edge26" class="edge">
<title>codeblock_25&#45;&gt;leaf_26</title>
<path fill="none" stroke="#000000" stroke-dasharray="5,2" d="M2914.5,-525.8499C2914.5,-473.5595 2914.5,-322.3989 2914.5,-251.2614"/>
<polygon fill="#000000" stroke="#000000" points="2918.0001,-250.9627 2914.5,-240.9627 2911.0001,-250.9628 2918.0001,-250.9627"/>
</g>
<!-- leaf_33 -->
<g id="node34" class="node">
<title>leaf_33</title>
<polygon fill="none" stroke="#c0c0c0" points="3321,-572.0023 3032,-572.0023 3032,-516.1993 3321,-516.1993 3321,-572.0023"/>
<text text-anchor="middle" x="3176.5" y="-540.6008" font-family="Inconsolata" font-size="14.00" fill="#000000"> &#160;&#160;This is where it all comes together.</text>
</g>
<!-- block_29&#45;&gt;leaf_33 -->
<g id="edge33" class="edge">
<title>block_29&#45;&gt;leaf_33</title>
<path fill="none" stroke="#000000" stroke-dasharray="5,2" d="M3508.2151,-694.6041C3502.0803,-683.4535 3492.6814,-669.6308 3480.5,-661.401 3423.3319,-622.7782 3394.0393,-649.7849 3329.5,-625.401 3295.3498,-612.4985 3259.1922,-593.5572 3230.6059,-577.2026"/>
<polygon fill="#000000" stroke="#000000" points="3232.0115,-573.9723 3221.6029,-571.9946 3228.5063,-580.0315 3232.0115,-573.9723"/>
</g>
<!-- leaf_34 -->
<g id="node35" class="node">
<title>leaf_34</title>
<polygon fill="none" stroke="#c0c0c0" points="3838,-602.5017 3339,-602.5017 3339,-485.6999 3838,-485.6999 3838,-602.5017"/>
<text text-anchor="middle" x="3588.5" y="-587.1009" font-family="Inconsolata" font-size="14.00" fill="#000000"> We&#39;re still bootstrapping. &#160;The only language is lua, we don&#39;t know </text>
<text text-anchor="middle" x="3588.5" y="-571.7009" font-family="Inconsolata" font-size="14.00" fill="#000000"> what hashtags are yet, and we go in simple linear order.</text>
<text text-anchor="middle" x="3588.5" y="-556.3009" font-family="Inconsolata" font-size="14.00" fill="#000000"> </text>
<text text-anchor="middle" x="3588.5" y="-540.9008" font-family="Inconsolata" font-size="14.00" fill="#000000"> &#45; knitter : &#160;the knit module. That is, K, rather than a given k in </text>
<text text-anchor="middle" x="3588.5" y="-525.5008" font-family="Inconsolata" font-size="14.00" fill="#000000"> &#160;&#160;&#160;&#160;&#160;&#160;&#160;&#160;&#160;&#160;&#160;&#160;&#160;K.langs.</text>
<text text-anchor="middle" x="3588.5" y="-510.1008" font-family="Inconsolata" font-size="14.00" fill="#000000"> &#45; doc &#160;&#160;&#160;&#160;: &#160;a Doc.</text>
</g>
<!-- block_30&#45;&gt;leaf_34 -->
<g id="edge34" class="edge">
<title>block_30&#45;&gt;leaf_34</title>
<path fill="none" stroke="#000000" stroke-dasharray="5,2" d="M3588.5,-693.8914C3588.5,-674.4049 3588.5,-642.3847 3588.5,-612.9406"/>
<polygon fill="#000000" stroke="#000000" points="3592.0001,-612.6581 3588.5,-602.6581 3585.0001,-612.6582 3592.0001,-612.6581"/>
</g>
<!-- leaf_35 -->
<g id="node36" class="node">
<title>leaf_35</title>
<polygon fill="none" stroke="#c0c0c0" points="4145,-572.0023 3856,-572.0023 3856,-516.1993 4145,-516.1993 4145,-572.0023"/>
<text text-anchor="middle" x="4000.5" y="-556.6008" font-family="Inconsolata" font-size="14.00" fill="#000000"> &#45; #return : the knit file as a string.</text>
</g>
<!-- block_31&#45;&gt;leaf_35 -->
<g id="edge35" class="edge">
<title>block_31&#45;&gt;leaf_35</title>
<path fill="none" stroke="#000000" stroke-dasharray="5,2" d="M3845.8862,-696.9868C3872.5929,-670.5785 3928.1851,-615.6076 3964.9158,-579.2873"/>
<polygon fill="#000000" stroke="#000000" points="3967.8005,-581.3571 3972.4503,-571.8371 3962.8786,-576.3796 3967.8005,-581.3571"/>
</g>
<!-- codeblock_36 -->
<g id="node37" class="node">
<title>codeblock_36</title>
<ellipse fill="none" stroke="#000000" cx="4190.5" cy="-544.1008" rx="27" ry="18"/>
<text text-anchor="middle" x="4190.5" y="-539.9008" font-family="Helvetica,sans-Serif" font-size="14.00" fill="#000000">89 &#160;</text>
</g>
<!-- block_32&#45;&gt;codeblock_36 -->
<g id="edge36" class="edge">
<title>block_32&#45;&gt;codeblock_36</title>
<path fill="none" stroke="#000000" stroke-dasharray="5,2" d="M4190.5,-693.8914C4190.5,-664.6368 4190.5,-607.1329 4190.5,-572.507"/>
<polygon fill="#000000" stroke="#000000" points="4194.0001,-572.1335 4190.5,-562.1335 4187.0001,-572.1335 4194.0001,-572.1335"/>
</g>
<!-- leaf_38 -->
<g id="node39" class="node">
<title>leaf_38</title>
<polygon fill="none" stroke="#c0c0c0" points="4289.5,-562.1008 4235.5,-562.1008 4235.5,-526.1008 4289.5,-526.1008 4289.5,-562.1008"/>
</g>
<!-- block_32&#45;&gt;leaf_38 -->
<g id="edge38" class="edge">
<title>block_32&#45;&gt;leaf_38</title>
<path fill="none" stroke="#000000" stroke-dasharray="5,2" d="M4197.9341,-694.8445C4210.426,-665.6793 4235.7253,-606.6123 4250.6777,-571.7027"/>
<polygon fill="#000000" stroke="#000000" points="4254.0609,-572.6932 4254.7809,-562.1229 4247.6263,-569.9372 4254.0609,-572.6932"/>
</g>
<!-- leaf_37 -->
<g id="node38" class="node">
<title>leaf_37</title>
<polygon fill="none" stroke="#c0c0c0" points="4387.5,-426.7011 3993.5,-426.7011 3993.5,-.0996 4387.5,-.0996 4387.5,-426.7011"/>
<text text-anchor="middle" x="4190.5" y="-411.6007" font-family="Inconsolata" font-size="14.00" fill="#000000">function K.knit(knitter, doc)</text>
<text text-anchor="middle" x="4190.5" y="-396.2007" font-family="Inconsolata" font-size="14.00" fill="#000000"> &#160;&#160;&#160;local codeblocks = doc:select(&quot;codeblock&quot;)</text>
<text text-anchor="middle" x="4190.5" y="-380.8006" font-family="Inconsolata" font-size="14.00" fill="#000000"> &#160;&#160;&#160;local phrase = &quot;&quot;</text>
<text text-anchor="middle" x="4190.5" y="-365.4006" font-family="Inconsolata" font-size="14.00" fill="#000000"> &#160;&#160;&#160;local linum = 0</text>
<text text-anchor="middle" x="4190.5" y="-350.0006" font-family="Inconsolata" font-size="14.00" fill="#000000"> &#160;&#160;&#160;for _, cb in ipairs(codeblocks) do</text>
<text text-anchor="middle" x="4190.5" y="-334.6005" font-family="Inconsolata" font-size="14.00" fill="#000000"> &#160;&#160;&#160;&#160;&#160;&#160;&#160;cb:check()</text>
<text text-anchor="middle" x="4190.5" y="-319.2005" font-family="Inconsolata" font-size="14.00" fill="#000000"> &#160;&#160;&#160;&#160;&#160;&#160;&#160;&#45;&#45; Pad code with blank lines to line up errors</text>
<text text-anchor="middle" x="4190.5" y="-303.8005" font-family="Inconsolata" font-size="14.00" fill="#000000"> &#160;&#160;&#160;&#160;&#160;&#160;&#160;local pad_count = cb.line_first &#45; linum</text>
<text text-anchor="middle" x="4190.5" y="-272.4004" font-family="Inconsolata" font-size="14.00" fill="#000000"> &#160;&#160;&#160;&#160;&#160;&#160;&#160;local pad = (&quot;\n&quot;):rep(pad_count)</text>
<text text-anchor="middle" x="4190.5" y="-257.0004" font-family="Inconsolata" font-size="14.00" fill="#000000"> &#160;&#160;&#160;&#160;&#160;&#160;&#160;&#45;&#45; cat codeblock value</text>
<text text-anchor="middle" x="4190.5" y="-241.6004" font-family="Inconsolata" font-size="14.00" fill="#000000"> &#160;&#160;&#160;&#160;&#160;&#160;&#160;phrase = phrase .. pad .. cb.val </text>
<text text-anchor="middle" x="4190.5" y="-210.2003" font-family="Inconsolata" font-size="14.00" fill="#000000"> &#160;&#160;&#160;&#160;&#160;&#160;&#160;&#45;&#45; update linum</text>
<text text-anchor="middle" x="4190.5" y="-194.8003" font-family="Inconsolata" font-size="14.00" fill="#000000"> &#160;&#160;&#160;&#160;&#160;&#160;&#160;linum = cb.line_last &#45; 1</text>
<text text-anchor="middle" x="4190.5" y="-179.4003" font-family="Inconsolata" font-size="14.00" fill="#000000"> &#160;&#160;&#160;end</text>
<text text-anchor="middle" x="4190.5" y="-148.0002" font-family="Inconsolata" font-size="14.00" fill="#000000"> &#160;&#160;&#160;return phrase</text>
<text text-anchor="middle" x="4190.5" y="-132.6002" font-family="Inconsolata" font-size="14.00" fill="#000000">end</text>
<text text-anchor="middle" x="4190.5" y="-101.2002" font-family="Inconsolata" font-size="14.00" fill="#000000">local function new(Knitter, lang)</text>
<text text-anchor="middle" x="4190.5" y="-85.8002" font-family="Inconsolata" font-size="14.00" fill="#000000"> &#160;&#160;&#160;local knitter = setmetatable({}, K)</text>
<text text-anchor="middle" x="4190.5" y="-70.4001" font-family="Inconsolata" font-size="14.00" fill="#000000"> &#160;&#160;&#160;knitter.lang = lang or &quot;lua&quot;</text>
<text text-anchor="middle" x="4190.5" y="-55.0001" font-family="Inconsolata" font-size="14.00" fill="#000000"> &#160;&#160;&#160;return knitter</text>
<text text-anchor="middle" x="4190.5" y="-39.6001" font-family="Inconsolata" font-size="14.00" fill="#000000">end</text>
<text text-anchor="middle" x="4190.5" y="-8.2" font-family="Inconsolata" font-size="14.00" fill="#000000">return u.export(k, new)</text>
</g>
<!-- codeblock_36&#45;&gt;leaf_37 -->
<g id="edge37" class="edge">
<title>codeblock_36&#45;&gt;leaf_37</title>
<path fill="none" stroke="#000000" stroke-dasharray="5,2" d="M4190.5,-525.8499C4190.5,-506.6458 4190.5,-474.1063 4190.5,-437.0928"/>
<polygon fill="#000000" stroke="#000000" points="4194.0001,-437.0692 4190.5,-427.0692 4187.0001,-437.0692 4194.0001,-437.0692"/>
</g>
</g>
</svg>