<?xml version="1.0" encoding="UTF-8" standalone="no"?>
<!DOCTYPE svg PUBLIC "-//W3C//DTD SVG 1.1//EN"
 "http://www.w3.org/Graphics/SVG/1.1/DTD/svg11.dtd">
<!-- Generated by graphviz version 2.40.1 (20161225.0304)
 -->
<!-- Title: hierarchy Pages: 1 -->
<svg width="4664pt" height="844pt"
 viewBox="0.00 0.00 4663.50 844.40" xmlns="http://www.w3.org/2000/svg" xmlns:xlink="http://www.w3.org/1999/xlink">
<g id="graph0" class="graph" transform="scale(1 1) rotate(0) translate(4 840.4008)">
<title>hierarchy</title>
<polygon fill="#ffffff" stroke="transparent" points="-4,4 -4,-840.4008 4659.5,-840.4008 4659.5,4 -4,4"/>
<!-- doc_0 -->
<g id="node1" class="node">
<title>doc_0</title>
<ellipse fill="none" stroke="#000000" cx="1372.5" cy="-818.4008" rx="42.1216" ry="18"/>
<text text-anchor="middle" x="1372.5" y="-814.2008" font-family="Helvetica,sans-Serif" font-size="14.00" fill="#000000">doc &#45; 90</text>
</g>
<!-- section_1 -->
<g id="node2" class="node">
<title>section_1</title>
<ellipse fill="none" stroke="#000000" cx="1372.5" cy="-746.4008" rx="60.9826" ry="18"/>
<text text-anchor="middle" x="1372.5" y="-742.2008" font-family="Helvetica,sans-Serif" font-size="14.00" fill="#000000">section: 1&#45;46</text>
</g>
<!-- doc_0&#45;&gt;section_1 -->
<g id="edge1" class="edge">
<title>doc_0&#45;&gt;section_1</title>
<path fill="none" stroke="#000000" stroke-dasharray="5,2" d="M1372.5,-800.2322C1372.5,-792.5318 1372.5,-783.3752 1372.5,-774.8174"/>
<polygon fill="#000000" stroke="#000000" points="1376.0001,-774.814 1372.5,-764.8141 1369.0001,-774.8141 1376.0001,-774.814"/>
</g>
<!-- header_2 -->
<g id="node3" class="node">
<title>header_2</title>
<ellipse fill="none" stroke="#000000" cx="991.5" cy="-674.4008" rx="79.3333" ry="18"/>
<text text-anchor="middle" x="991.5" y="-670.2008" font-family="Helvetica,sans-Serif" font-size="14.00" fill="#000000">1 : Knitter Module</text>
</g>
<!-- section_1&#45;&gt;header_2 -->
<g id="edge2" class="edge">
<title>section_1&#45;&gt;header_2</title>
<path fill="none" stroke="#000000" stroke-dasharray="5,2" d="M1320.3086,-737.0989C1261.6654,-726.5735 1163.6582,-708.7615 1079.5,-692.4008 1073.2717,-691.19 1066.8004,-689.9094 1060.3204,-688.6118"/>
<polygon fill="#000000" stroke="#000000" points="1060.6586,-685.1097 1050.1644,-686.5662 1059.2764,-691.9719 1060.6586,-685.1097"/>
</g>
<!-- block_3 -->
<g id="node4" class="node">
<title>block_3</title>
<ellipse fill="none" stroke="#000000" cx="1134.5" cy="-674.4008" rx="45.9804" ry="18"/>
<text text-anchor="middle" x="1134.5" y="-670.2008" font-family="Helvetica,sans-Serif" font-size="14.00" fill="#000000">block 1&#45;7</text>
</g>
<!-- section_1&#45;&gt;block_3 -->
<g id="edge3" class="edge">
<title>section_1&#45;&gt;block_3</title>
<path fill="none" stroke="#000000" stroke-dasharray="5,2" d="M1328.7605,-733.885C1291.6183,-723.1636 1236.9448,-707.1611 1189.5,-692.4008 1186.1858,-691.3697 1182.7644,-690.2892 1179.3252,-689.1912"/>
<polygon fill="#000000" stroke="#000000" points="1180.2512,-685.8124 1169.6597,-686.0776 1178.1049,-692.4753 1180.2512,-685.8124"/>
</g>
<!-- block_4 -->
<g id="node5" class="node">
<title>block_4</title>
<ellipse fill="none" stroke="#000000" cx="1248.5" cy="-674.4008" rx="50.0142" ry="18"/>
<text text-anchor="middle" x="1248.5" y="-670.2008" font-family="Helvetica,sans-Serif" font-size="14.00" fill="#000000">block 8&#45;11</text>
</g>
<!-- section_1&#45;&gt;block_4 -->
<g id="edge4" class="edge">
<title>section_1&#45;&gt;block_4</title>
<path fill="none" stroke="#000000" stroke-dasharray="5,2" d="M1344.672,-730.2426C1326.6724,-719.7912 1303.0846,-706.0951 1283.7744,-694.8827"/>
<polygon fill="#000000" stroke="#000000" points="1285.3663,-691.7598 1274.9609,-689.7652 1281.8513,-697.8134 1285.3663,-691.7598"/>
</g>
<!-- block_5 -->
<g id="node6" class="node">
<title>block_5</title>
<ellipse fill="none" stroke="#000000" cx="1372.5" cy="-674.4008" rx="55.6542" ry="18"/>
<text text-anchor="middle" x="1372.5" y="-670.2008" font-family="Helvetica,sans-Serif" font-size="14.00" fill="#000000">block 12&#45;46</text>
</g>
<!-- section_1&#45;&gt;block_5 -->
<g id="edge5" class="edge">
<title>section_1&#45;&gt;block_5</title>
<path fill="none" stroke="#000000" stroke-dasharray="5,2" d="M1372.5,-728.2322C1372.5,-720.5318 1372.5,-711.3752 1372.5,-702.8174"/>
<polygon fill="#000000" stroke="#000000" points="1376.0001,-702.814 1372.5,-692.8141 1369.0001,-702.8141 1376.0001,-702.814"/>
</g>
<!-- section_6 -->
<g id="node7" class="node">
<title>section_6</title>
<ellipse fill="none" stroke="#000000" cx="1546.5" cy="-674.4008" rx="65.8187" ry="18"/>
<text text-anchor="middle" x="1546.5" y="-670.2008" font-family="Helvetica,sans-Serif" font-size="14.00" fill="#000000">section: 14&#45;25</text>
</g>
<!-- section_1&#45;&gt;section_6 -->
<g id="edge6" class="edge">
<title>section_1&#45;&gt;section_6</title>
<path fill="none" stroke="#000000" stroke-dasharray="5,2" d="M1408.1314,-731.6568C1434.8404,-720.6048 1471.6128,-705.3886 1500.5361,-693.4204"/>
<polygon fill="#000000" stroke="#000000" points="1502.1162,-696.5544 1510.0181,-689.4968 1499.4397,-690.0863 1502.1162,-696.5544"/>
</g>
<!-- section_7 -->
<g id="node8" class="node">
<title>section_7</title>
<ellipse fill="none" stroke="#000000" cx="2178.5" cy="-674.4008" rx="65.8187" ry="18"/>
<text text-anchor="middle" x="2178.5" y="-670.2008" font-family="Helvetica,sans-Serif" font-size="14.00" fill="#000000">section: 26&#45;46</text>
</g>
<!-- section_1&#45;&gt;section_7 -->
<g id="edge7" class="edge">
<title>section_1&#45;&gt;section_7</title>
<path fill="none" stroke="#000000" stroke-dasharray="5,2" d="M1430.7898,-741.1938C1574.8898,-728.3213 1947.6285,-695.0246 2105.8037,-680.8948"/>
<polygon fill="#000000" stroke="#000000" points="2106.2585,-684.3682 2115.9074,-679.9922 2105.6356,-677.3959 2106.2585,-684.3682"/>
</g>
<!-- section_8 -->
<g id="node9" class="node">
<title>section_8</title>
<ellipse fill="none" stroke="#000000" cx="3621.5" cy="-674.4008" rx="65.8187" ry="18"/>
<text text-anchor="middle" x="3621.5" y="-670.2008" font-family="Helvetica,sans-Serif" font-size="14.00" fill="#000000">section: 47&#45;90</text>
</g>
<!-- section_1&#45;&gt;section_8 -->
<g id="edge8" class="edge">
<title>section_1&#45;&gt;section_8</title>
<path fill="none" stroke="#000000" stroke-dasharray="5,2" d="M1432.9459,-744.4657C1747.6115,-734.3919 3197.1175,-687.9871 3545.8748,-676.8219"/>
<polygon fill="#000000" stroke="#000000" points="3546.2308,-680.3124 3556.1137,-676.4941 3546.0068,-673.316 3546.2308,-680.3124"/>
</g>
<!-- prose_9 -->
<g id="node10" class="node">
<title>prose_9</title>
<ellipse fill="none" stroke="#000000" cx="1099.5" cy="-602.4008" rx="32.4585" ry="18"/>
<text text-anchor="middle" x="1099.5" y="-598.2008" font-family="Helvetica,sans-Serif" font-size="14.00" fill="#000000">prose</text>
</g>
<!-- block_3&#45;&gt;prose_9 -->
<g id="edge9" class="edge">
<title>block_3&#45;&gt;prose_9</title>
<path fill="none" stroke="#000000" stroke-dasharray="5,2" d="M1125.8483,-656.6031C1121.8218,-648.32 1116.9472,-638.2923 1112.4912,-629.1256"/>
<polygon fill="#000000" stroke="#000000" points="1115.5719,-627.4573 1108.0522,-619.9938 1109.2764,-630.5177 1115.5719,-627.4573"/>
</g>
<!-- prose_11 -->
<g id="node12" class="node">
<title>prose_11</title>
<ellipse fill="none" stroke="#000000" cx="1197.5" cy="-602.4008" rx="32.4585" ry="18"/>
<text text-anchor="middle" x="1197.5" y="-598.2008" font-family="Helvetica,sans-Serif" font-size="14.00" fill="#000000">prose</text>
</g>
<!-- block_4&#45;&gt;prose_11 -->
<g id="edge11" class="edge">
<title>block_4&#45;&gt;prose_11</title>
<path fill="none" stroke="#000000" stroke-dasharray="5,2" d="M1235.8933,-656.6031C1229.7505,-647.9309 1222.2531,-637.3463 1215.5192,-627.8397"/>
<polygon fill="#000000" stroke="#000000" points="1218.2468,-625.6352 1209.6105,-619.498 1212.5347,-629.6814 1218.2468,-625.6352"/>
</g>
<!-- prose_13 -->
<g id="node14" class="node">
<title>prose_13</title>
<ellipse fill="none" stroke="#000000" cx="1308.5" cy="-602.4008" rx="32.4585" ry="18"/>
<text text-anchor="middle" x="1308.5" y="-598.2008" font-family="Helvetica,sans-Serif" font-size="14.00" fill="#000000">prose</text>
</g>
<!-- block_5&#45;&gt;prose_13 -->
<g id="edge13" class="edge">
<title>block_5&#45;&gt;prose_13</title>
<path fill="none" stroke="#000000" stroke-dasharray="5,2" d="M1357.0074,-656.9716C1348.834,-647.7766 1338.6821,-636.3556 1329.7811,-626.3421"/>
<polygon fill="#000000" stroke="#000000" points="1332.2322,-623.8313 1322.9726,-618.6825 1327.0003,-628.4819 1332.2322,-623.8313"/>
</g>
<!-- header_15 -->
<g id="node16" class="node">
<title>header_15</title>
<ellipse fill="none" stroke="#000000" cx="1415.5" cy="-602.4008" rx="56.6492" ry="18"/>
<text text-anchor="middle" x="1415.5" y="-598.2008" font-family="Helvetica,sans-Serif" font-size="14.00" fill="#000000">3 : An Aside</text>
</g>
<!-- section_6&#45;&gt;header_15 -->
<g id="edge15" class="edge">
<title>section_6&#45;&gt;header_15</title>
<path fill="none" stroke="#000000" stroke-dasharray="5,2" d="M1517.101,-658.2426C1498.1301,-647.8158 1473.2834,-634.1596 1452.9099,-622.962"/>
<polygon fill="#000000" stroke="#000000" points="1454.3505,-619.76 1443.9011,-618.0106 1450.9788,-625.8945 1454.3505,-619.76"/>
</g>
<!-- block_16 -->
<g id="node17" class="node">
<title>block_16</title>
<ellipse fill="none" stroke="#000000" cx="1546.5" cy="-602.4008" rx="55.6542" ry="18"/>
<text text-anchor="middle" x="1546.5" y="-598.2008" font-family="Helvetica,sans-Serif" font-size="14.00" fill="#000000">block 14&#45;19</text>
</g>
<!-- section_6&#45;&gt;block_16 -->
<g id="edge16" class="edge">
<title>section_6&#45;&gt;block_16</title>
<path fill="none" stroke="#000000" stroke-dasharray="5,2" d="M1546.5,-656.2322C1546.5,-648.5318 1546.5,-639.3752 1546.5,-630.8174"/>
<polygon fill="#000000" stroke="#000000" points="1550.0001,-630.814 1546.5,-620.8141 1543.0001,-630.8141 1550.0001,-630.814"/>
</g>
<!-- block_17 -->
<g id="node18" class="node">
<title>block_17</title>
<ellipse fill="none" stroke="#000000" cx="1676.5" cy="-602.4008" rx="55.6542" ry="18"/>
<text text-anchor="middle" x="1676.5" y="-598.2008" font-family="Helvetica,sans-Serif" font-size="14.00" fill="#000000">block 20&#45;24</text>
</g>
<!-- section_6&#45;&gt;block_17 -->
<g id="edge17" class="edge">
<title>section_6&#45;&gt;block_17</title>
<path fill="none" stroke="#000000" stroke-dasharray="5,2" d="M1575.6745,-658.2426C1594.5007,-647.8158 1619.1577,-634.1596 1639.3756,-622.962"/>
<polygon fill="#000000" stroke="#000000" points="1641.2636,-625.9174 1648.3157,-618.0106 1637.872,-619.7938 1641.2636,-625.9174"/>
</g>
<!-- block_18 -->
<g id="node19" class="node">
<title>block_18</title>
<ellipse fill="none" stroke="#000000" cx="1806.5" cy="-602.4008" rx="55.6542" ry="18"/>
<text text-anchor="middle" x="1806.5" y="-598.2008" font-family="Helvetica,sans-Serif" font-size="14.00" fill="#000000">block 25&#45;25</text>
</g>
<!-- section_6&#45;&gt;block_18 -->
<g id="edge18" class="edge">
<title>section_6&#45;&gt;block_18</title>
<path fill="none" stroke="#000000" stroke-dasharray="5,2" d="M1592.9828,-661.5287C1638.2561,-648.9914 1706.9646,-629.9645 1754.1423,-616.8999"/>
<polygon fill="#000000" stroke="#000000" points="1755.1633,-620.2489 1763.8665,-614.207 1753.2951,-613.5028 1755.1633,-620.2489"/>
</g>
<!-- header_25 -->
<g id="node26" class="node">
<title>header_25</title>
<ellipse fill="none" stroke="#000000" cx="2054.5" cy="-602.4008" rx="49.8481" ry="18"/>
<text text-anchor="middle" x="2054.5" y="-598.2008" font-family="Helvetica,sans-Serif" font-size="14.00" fill="#000000">2 : Design</text>
</g>
<!-- section_7&#45;&gt;header_25 -->
<g id="edge25" class="edge">
<title>section_7&#45;&gt;header_25</title>
<path fill="none" stroke="#000000" stroke-dasharray="5,2" d="M2150.3625,-658.0629C2132.4735,-647.6757 2109.1591,-634.1383 2090.002,-623.0149"/>
<polygon fill="#000000" stroke="#000000" points="2091.6565,-619.9284 2081.2511,-617.9337 2088.1415,-625.9819 2091.6565,-619.9284"/>
</g>
<!-- block_26 -->
<g id="node27" class="node">
<title>block_26</title>
<ellipse fill="none" stroke="#000000" cx="2178.5" cy="-602.4008" rx="55.6542" ry="18"/>
<text text-anchor="middle" x="2178.5" y="-598.2008" font-family="Helvetica,sans-Serif" font-size="14.00" fill="#000000">block 26&#45;30</text>
</g>
<!-- section_7&#45;&gt;block_26 -->
<g id="edge26" class="edge">
<title>section_7&#45;&gt;block_26</title>
<path fill="none" stroke="#000000" stroke-dasharray="5,2" d="M2178.5,-656.2322C2178.5,-648.5318 2178.5,-639.3752 2178.5,-630.8174"/>
<polygon fill="#000000" stroke="#000000" points="2182.0001,-630.814 2178.5,-620.8141 2175.0001,-630.8141 2182.0001,-630.814"/>
</g>
<!-- block_27 -->
<g id="node28" class="node">
<title>block_27</title>
<ellipse fill="none" stroke="#000000" cx="2505.5" cy="-602.4008" rx="55.6542" ry="18"/>
<text text-anchor="middle" x="2505.5" y="-598.2008" font-family="Helvetica,sans-Serif" font-size="14.00" fill="#000000">block 31&#45;40</text>
</g>
<!-- section_7&#45;&gt;block_27 -->
<g id="edge27" class="edge">
<title>section_7&#45;&gt;block_27</title>
<path fill="none" stroke="#000000" stroke-dasharray="5,2" d="M2229.9535,-663.0716C2289.6696,-649.9231 2387.8085,-628.3145 2449.4267,-614.7472"/>
<polygon fill="#000000" stroke="#000000" points="2450.3516,-618.1275 2459.3651,-612.559 2448.8463,-611.2912 2450.3516,-618.1275"/>
</g>
<!-- block_28 -->
<g id="node29" class="node">
<title>block_28</title>
<ellipse fill="none" stroke="#000000" cx="2734.5" cy="-602.4008" rx="55.6542" ry="18"/>
<text text-anchor="middle" x="2734.5" y="-598.2008" font-family="Helvetica,sans-Serif" font-size="14.00" fill="#000000">block 41&#45;46</text>
</g>
<!-- section_7&#45;&gt;block_28 -->
<g id="edge28" class="edge">
<title>section_7&#45;&gt;block_28</title>
<path fill="none" stroke="#000000" stroke-dasharray="5,2" d="M2238.0017,-666.6956C2343.9787,-652.9719 2564.3973,-624.4285 2672.2902,-610.4568"/>
<polygon fill="#000000" stroke="#000000" points="2672.9048,-613.9065 2682.3725,-609.1511 2672.0058,-606.9644 2672.9048,-613.9065"/>
</g>
<!-- header_35 -->
<g id="node36" class="node">
<title>header_35</title>
<ellipse fill="none" stroke="#000000" cx="3414.5" cy="-602.4008" rx="68.2239" ry="18"/>
<text text-anchor="middle" x="3414.5" y="-598.2008" font-family="Helvetica,sans-Serif" font-size="14.00" fill="#000000">2 : knit method</text>
</g>
<!-- section_8&#45;&gt;header_35 -->
<g id="edge35" class="edge">
<title>section_8&#45;&gt;header_35</title>
<path fill="none" stroke="#000000" stroke-dasharray="5,2" d="M3580.6035,-660.1759C3547.6476,-648.713 3501.1273,-632.5321 3465.6983,-620.2089"/>
<polygon fill="#000000" stroke="#000000" points="3466.6149,-616.8221 3456.0201,-616.8426 3464.3152,-623.4336 3466.6149,-616.8221"/>
</g>
<!-- block_36 -->
<g id="node37" class="node">
<title>block_36</title>
<ellipse fill="none" stroke="#000000" cx="3556.5" cy="-602.4008" rx="55.6542" ry="18"/>
<text text-anchor="middle" x="3556.5" y="-598.2008" font-family="Helvetica,sans-Serif" font-size="14.00" fill="#000000">block 47&#45;50</text>
</g>
<!-- section_8&#45;&gt;block_36 -->
<g id="edge36" class="edge">
<title>section_8&#45;&gt;block_36</title>
<path fill="none" stroke="#000000" stroke-dasharray="5,2" d="M3605.4326,-656.6031C3597.4232,-647.7311 3587.6069,-636.8577 3578.8742,-627.1846"/>
<polygon fill="#000000" stroke="#000000" points="3581.4573,-624.8227 3572.1583,-619.7454 3576.2614,-629.5135 3581.4573,-624.8227"/>
</g>
<!-- block_37 -->
<g id="node38" class="node">
<title>block_37</title>
<ellipse fill="none" stroke="#000000" cx="3686.5" cy="-602.4008" rx="55.6542" ry="18"/>
<text text-anchor="middle" x="3686.5" y="-598.2008" font-family="Helvetica,sans-Serif" font-size="14.00" fill="#000000">block 51&#45;57</text>
</g>
<!-- section_8&#45;&gt;block_37 -->
<g id="edge37" class="edge">
<title>section_8&#45;&gt;block_37</title>
<path fill="none" stroke="#000000" stroke-dasharray="5,2" d="M3637.5674,-656.6031C3645.5768,-647.7311 3655.3931,-636.8577 3664.1258,-627.1846"/>
<polygon fill="#000000" stroke="#000000" points="3666.7386,-629.5135 3670.8417,-619.7454 3661.5427,-624.8227 3666.7386,-629.5135"/>
</g>
<!-- block_38 -->
<g id="node39" class="node">
<title>block_38</title>
<ellipse fill="none" stroke="#000000" cx="3887.5" cy="-602.4008" rx="55.6542" ry="18"/>
<text text-anchor="middle" x="3887.5" y="-598.2008" font-family="Helvetica,sans-Serif" font-size="14.00" fill="#000000">block 58&#45;60</text>
</g>
<!-- section_8&#45;&gt;block_38 -->
<g id="edge38" class="edge">
<title>section_8&#45;&gt;block_38</title>
<path fill="none" stroke="#000000" stroke-dasharray="5,2" d="M3668.4432,-661.6944C3715.0476,-649.0797 3786.3575,-629.7777 3834.8591,-616.6495"/>
<polygon fill="#000000" stroke="#000000" points="3835.805,-620.0195 3844.5432,-614.0282 3833.976,-613.2626 3835.805,-620.0195"/>
</g>
<!-- block_39 -->
<g id="node40" class="node">
<title>block_39</title>
<ellipse fill="none" stroke="#000000" cx="4132.5" cy="-602.4008" rx="55.6542" ry="18"/>
<text text-anchor="middle" x="4132.5" y="-598.2008" font-family="Helvetica,sans-Serif" font-size="14.00" fill="#000000">block 61&#45;90</text>
</g>
<!-- section_8&#45;&gt;block_39 -->
<g id="edge39" class="edge">
<title>section_8&#45;&gt;block_39</title>
<path fill="none" stroke="#000000" stroke-dasharray="5,2" d="M3680.1182,-666.1415C3777.4714,-652.4244 3971.5879,-625.0734 4070.8865,-611.0822"/>
<polygon fill="#000000" stroke="#000000" points="4071.6502,-614.5092 4081.064,-609.6481 4070.6735,-607.5777 4071.6502,-614.5092"/>
</g>
<!-- leaf_10 -->
<g id="node11" class="node">
<title>leaf_10</title>
<polygon fill="none" stroke="#c0c0c0" points="513,-548.2018 0,-548.2018 0,-462.9997 513,-462.9997 513,-548.2018"/>
<text text-anchor="middle" x="256.5" y="-517.2008" font-family="Inconsolata" font-size="14.00" fill="#000000"> &#160;&#160;A knitter is the actor responsible for knitting together our source</text>
<text text-anchor="middle" x="256.5" y="-501.8008" font-family="Inconsolata" font-size="14.00" fill="#000000"> code. &#160;They are defined by language, which is to say that the unit of </text>
<text text-anchor="middle" x="256.5" y="-486.4007" font-family="Inconsolata" font-size="14.00" fill="#000000"> action is not a runtime or document, knitters will expand to be </text>
<text text-anchor="middle" x="256.5" y="-471.0007" font-family="Inconsolata" font-size="14.00" fill="#000000"> responsible for an arbitrary number of these.</text>
</g>
<!-- prose_9&#45;&gt;leaf_10 -->
<g id="edge10" class="edge">
<title>prose_9&#45;&gt;leaf_10</title>
<path fill="none" stroke="#000000" stroke-dasharray="5,2" d="M1067.5175,-600.1551C981.4201,-593.9506 737.3892,-575.3188 523.2228,-548.4659"/>
<polygon fill="#000000" stroke="#000000" points="523.4074,-544.9615 513.0477,-547.181 522.5304,-551.9063 523.4074,-544.9615"/>
</g>
<!-- leaf_12 -->
<g id="node13" class="node">
<title>leaf_12</title>
<polygon fill="none" stroke="#c0c0c0" points="1065.5,-532.8012 531.5,-532.8012 531.5,-478.4003 1065.5,-478.4003 1065.5,-532.8012"/>
<text text-anchor="middle" x="798.5" y="-517.5008" font-family="Inconsolata" font-size="14.00" fill="#000000"> The bootstrap knitter does what a knitter will do by default: &#160;go through</text>
<text text-anchor="middle" x="798.5" y="-502.1008" font-family="Inconsolata" font-size="14.00" fill="#000000"> =.../org/*/*.gm= and generate =.../src/*.*.lang= for all code blocks in</text>
<text text-anchor="middle" x="798.5" y="-486.7007" font-family="Inconsolata" font-size="14.00" fill="#000000"> =#lang=. </text>
</g>
<!-- prose_11&#45;&gt;leaf_12 -->
<g id="edge12" class="edge">
<title>prose_11&#45;&gt;leaf_12</title>
<path fill="none" stroke="#000000" stroke-dasharray="5,2" d="M1169.7988,-593.167C1160.5301,-590.2077 1150.1116,-587.0213 1140.5,-584.4008 1074.0981,-566.2972 999.7099,-548.8279 937.311,-534.9578"/>
<polygon fill="#000000" stroke="#000000" points="937.9227,-531.5085 927.4024,-532.7631 936.4089,-538.3429 937.9227,-531.5085"/>
</g>
<!-- leaf_14 -->
<g id="node15" class="node">
<title>leaf_14</title>
<polygon fill="none" stroke="#c0c0c0" points="1533.5,-523.6007 1083.5,-523.6007 1083.5,-487.6007 1533.5,-487.6007 1533.5,-523.6007"/>
<text text-anchor="middle" x="1308.5" y="-502.1008" font-family="Inconsolata" font-size="14.00" fill="#000000"> It must do so through an interface which will let it grow up.</text>
</g>
<!-- prose_13&#45;&gt;leaf_14 -->
<g id="edge14" class="edge">
<title>prose_13&#45;&gt;leaf_14</title>
<path fill="none" stroke="#000000" stroke-dasharray="5,2" d="M1308.5,-584.1935C1308.5,-569.9969 1308.5,-550.03 1308.5,-533.7746"/>
<polygon fill="#000000" stroke="#000000" points="1312.0001,-533.7264 1308.5,-523.7265 1305.0001,-533.7265 1312.0001,-533.7264"/>
</g>
<!-- prose_19 -->
<g id="node20" class="node">
<title>prose_19</title>
<ellipse fill="none" stroke="#000000" cx="1583.5" cy="-505.6007" rx="32.4585" ry="18"/>
<text text-anchor="middle" x="1583.5" y="-501.4007" font-family="Helvetica,sans-Serif" font-size="14.00" fill="#000000">prose</text>
</g>
<!-- block_16&#45;&gt;prose_19 -->
<g id="edge19" class="edge">
<title>block_16&#45;&gt;prose_19</title>
<path fill="none" stroke="#000000" stroke-dasharray="5,2" d="M1553.4594,-584.1935C1558.9721,-569.771 1566.7612,-549.3931 1573.0266,-533.0015"/>
<polygon fill="#000000" stroke="#000000" points="1576.3957,-533.99 1576.6968,-523.3994 1569.857,-531.4907 1576.3957,-533.99"/>
</g>
<!-- prose_21 -->
<g id="node22" class="node">
<title>prose_21</title>
<ellipse fill="none" stroke="#000000" cx="1671.5" cy="-505.6007" rx="32.4585" ry="18"/>
<text text-anchor="middle" x="1671.5" y="-501.4007" font-family="Helvetica,sans-Serif" font-size="14.00" fill="#000000">prose</text>
</g>
<!-- block_17&#45;&gt;prose_21 -->
<g id="edge21" class="edge">
<title>block_17&#45;&gt;prose_21</title>
<path fill="none" stroke="#000000" stroke-dasharray="5,2" d="M1675.5595,-584.1935C1674.8262,-569.9969 1673.7949,-550.03 1672.9553,-533.7746"/>
<polygon fill="#000000" stroke="#000000" points="1676.4475,-533.5326 1672.4362,-523.7265 1669.4568,-533.8937 1676.4475,-533.5326"/>
</g>
<!-- prose_23 -->
<g id="node24" class="node">
<title>prose_23</title>
<ellipse fill="none" stroke="#000000" cx="1806.5" cy="-505.6007" rx="32.4585" ry="18"/>
<text text-anchor="middle" x="1806.5" y="-501.4007" font-family="Helvetica,sans-Serif" font-size="14.00" fill="#000000">prose</text>
</g>
<!-- block_18&#45;&gt;prose_23 -->
<g id="edge23" class="edge">
<title>block_18&#45;&gt;prose_23</title>
<path fill="none" stroke="#000000" stroke-dasharray="5,2" d="M1806.5,-584.1935C1806.5,-569.9969 1806.5,-550.03 1806.5,-533.7746"/>
<polygon fill="#000000" stroke="#000000" points="1810.0001,-533.7264 1806.5,-523.7265 1803.0001,-533.7265 1810.0001,-533.7264"/>
</g>
<!-- leaf_20 -->
<g id="node21" class="node">
<title>leaf_20</title>
<polygon fill="none" stroke="#c0c0c0" points="1237.5,-248.6007 731.5,-248.6007 731.5,-178.2 1237.5,-178.2 1237.5,-248.6007"/>
<text text-anchor="middle" x="984.5" y="-217.3004" font-family="Inconsolata" font-size="14.00" fill="#000000"> &#160;&#160;This is the last verb in Grimoire which needs to be written in pure</text>
<text text-anchor="middle" x="984.5" y="-201.9004" font-family="Inconsolata" font-size="14.00" fill="#000000"> Lua. &#160;Huzzah! Typing &#45;&#45; all the time is tiresome and I didn&#39;t want to</text>
<text text-anchor="middle" x="984.5" y="-186.5003" font-family="Inconsolata" font-size="14.00" fill="#000000"> patch Sublime just for that.</text>
</g>
<!-- prose_19&#45;&gt;leaf_20 -->
<g id="edge20" class="edge">
<title>prose_19&#45;&gt;leaf_20</title>
<path fill="none" stroke="#000000" stroke-dasharray="5,2" d="M1571.834,-488.6211C1564.5287,-479.3945 1554.2787,-468.6945 1542.5,-462.8007 1423.9841,-403.4977 1368.4458,-478.6859 1246.5,-426.8007 1154.5904,-387.6952 1069.0449,-306.2132 1022.0524,-256.0194"/>
<polygon fill="#000000" stroke="#000000" points="1024.4899,-253.5005 1015.1245,-248.5467 1019.3566,-258.2596 1024.4899,-253.5005"/>
</g>
<!-- leaf_22 -->
<g id="node23" class="node">
<title>leaf_22</title>
<polygon fill="none" stroke="#c0c0c0" points="1761.5,-248.0016 1255.5,-248.0016 1255.5,-178.7991 1761.5,-178.7991 1761.5,-248.0016"/>
<text text-anchor="middle" x="1508.5" y="-233.0004" font-family="Inconsolata" font-size="14.00" fill="#000000"> I do intend to design a </text>
<text text-anchor="middle" x="1508.5" y="-217.6004" font-family="Inconsolata" font-size="14.00" fill="#000000"> [syntax highligher for Sublime](etc/Grimoire.sublime_syntax), just</text>
<text text-anchor="middle" x="1508.5" y="-202.2003" font-family="Inconsolata" font-size="14.00" fill="#000000"> a simple minimum&#45;viable that will make editing the Lua inside =grym= </text>
<text text-anchor="middle" x="1508.5" y="-186.8003" font-family="Inconsolata" font-size="14.00" fill="#000000"> pleasant while I polish up femto. </text>
</g>
<!-- prose_21&#45;&gt;leaf_22 -->
<g id="edge22" class="edge">
<title>prose_21&#45;&gt;leaf_22</title>
<path fill="none" stroke="#000000" stroke-dasharray="5,2" d="M1661.7917,-488.1973C1636.7868,-443.3724 1569.5813,-322.8971 1533.0143,-257.3456"/>
<polygon fill="#000000" stroke="#000000" points="1535.9937,-255.5021 1528.0654,-248.4741 1529.8805,-258.9123 1535.9937,-255.5021"/>
</g>
<!-- leaf_24 -->
<g id="node25" class="node">
<title>leaf_24</title>
<polygon fill="none" stroke="#c0c0c0" points="1833.5,-231.4003 1779.5,-231.4003 1779.5,-195.4003 1833.5,-195.4003 1833.5,-231.4003"/>
<text text-anchor="middle" x="1806.5" y="-209.9004" font-family="Inconsolata" font-size="14.00" fill="#000000"> </text>
</g>
<!-- prose_23&#45;&gt;leaf_24 -->
<g id="edge24" class="edge">
<title>prose_23&#45;&gt;leaf_24</title>
<path fill="none" stroke="#000000" stroke-dasharray="5,2" d="M1806.5,-487.3223C1806.5,-437.9218 1806.5,-301.4624 1806.5,-241.8669"/>
<polygon fill="#000000" stroke="#000000" points="1810.0001,-241.6718 1806.5,-231.6719 1803.0001,-241.6719 1810.0001,-241.6718"/>
</g>
<!-- prose_29 -->
<g id="node30" class="node">
<title>prose_29</title>
<ellipse fill="none" stroke="#000000" cx="2129.5" cy="-505.6007" rx="32.4585" ry="18"/>
<text text-anchor="middle" x="2129.5" y="-501.4007" font-family="Helvetica,sans-Serif" font-size="14.00" fill="#000000">prose</text>
</g>
<!-- block_26&#45;&gt;prose_29 -->
<g id="edge29" class="edge">
<title>block_26&#45;&gt;prose_29</title>
<path fill="none" stroke="#000000" stroke-dasharray="5,2" d="M2169.2835,-584.1935C2161.8676,-569.5433 2151.3412,-548.7484 2142.9789,-532.2284"/>
<polygon fill="#000000" stroke="#000000" points="2145.9842,-530.4158 2138.3452,-523.0745 2139.7388,-533.5772 2145.9842,-530.4158"/>
</g>
<!-- prose_31 -->
<g id="node32" class="node">
<title>prose_31</title>
<ellipse fill="none" stroke="#000000" cx="2603.5" cy="-505.6007" rx="32.4585" ry="18"/>
<text text-anchor="middle" x="2603.5" y="-501.4007" font-family="Helvetica,sans-Serif" font-size="14.00" fill="#000000">prose</text>
</g>
<!-- block_27&#45;&gt;prose_31 -->
<g id="edge31" class="edge">
<title>block_27&#45;&gt;prose_31</title>
<path fill="none" stroke="#000000" stroke-dasharray="5,2" d="M2523.0204,-585.0949C2538.8712,-569.4382 2562.3433,-546.2535 2579.8535,-528.9577"/>
<polygon fill="#000000" stroke="#000000" points="2582.7755,-530.991 2587.4305,-521.4735 2577.8563,-526.0109 2582.7755,-530.991"/>
</g>
<!-- codeblock_33 -->
<g id="node34" class="node">
<title>codeblock_33</title>
<ellipse fill="none" stroke="#000000" cx="2906.5" cy="-505.6007" rx="77.4211" ry="18"/>
<text text-anchor="middle" x="2906.5" y="-501.4007" font-family="Helvetica,sans-Serif" font-size="14.00" fill="#000000">code block 41&#45;45</text>
</g>
<!-- block_28&#45;&gt;codeblock_33 -->
<g id="edge33" class="edge">
<title>block_28&#45;&gt;codeblock_33</title>
<path fill="none" stroke="#000000" stroke-dasharray="5,2" d="M2762.5176,-586.6328C2791.1086,-570.542 2835.7036,-545.4443 2867.687,-527.4444"/>
<polygon fill="#000000" stroke="#000000" points="2869.7642,-530.2916 2876.7623,-522.3369 2866.331,-524.1913 2869.7642,-530.2916"/>
</g>
<!-- leaf_30 -->
<g id="node31" class="node">
<title>leaf_30</title>
<polygon fill="none" stroke="#c0c0c0" points="2357.5,-240.7008 1851.5,-240.7008 1851.5,-186.0999 2357.5,-186.0999 2357.5,-240.7008"/>
<text text-anchor="middle" x="2104.5" y="-209.6004" font-family="Inconsolata" font-size="14.00" fill="#000000"> &#160;&#160;=grym invert= is an isolated module. &#160;It&#39;s a shim; if better tools </text>
<text text-anchor="middle" x="2104.5" y="-194.2003" font-family="Inconsolata" font-size="14.00" fill="#000000"> succeeds, we&#39;ll stop using it within the Arc in fairly short order.</text>
</g>
<!-- prose_29&#45;&gt;leaf_30 -->
<g id="edge30" class="edge">
<title>prose_29&#45;&gt;leaf_30</title>
<path fill="none" stroke="#000000" stroke-dasharray="5,2" d="M2127.9361,-487.3223C2123.9161,-440.3364 2113.1579,-314.5943 2107.7287,-251.1375"/>
<polygon fill="#000000" stroke="#000000" points="2111.2134,-250.8082 2106.8736,-241.143 2104.2389,-251.405 2111.2134,-250.8082"/>
</g>
<!-- leaf_32 -->
<g id="node33" class="node">
<title>leaf_32</title>
<polygon fill="none" stroke="#c0c0c0" points="2881.5,-286.5012 2375.5,-286.5012 2375.5,-140.2995 2881.5,-140.2995 2881.5,-286.5012"/>
<text text-anchor="middle" x="2628.5" y="-271.5005" font-family="Inconsolata" font-size="14.00" fill="#000000"> =grym knit=, by contrast, is part of the core system. &#160;Software tends</text>
<text text-anchor="middle" x="2628.5" y="-256.1005" font-family="Inconsolata" font-size="14.00" fill="#000000"> to stick around, and a Grimoire is a language&#45;as&#45;in&#45;human&#45;language</text>
<text text-anchor="middle" x="2628.5" y="-240.7004" font-family="Inconsolata" font-size="14.00" fill="#000000"> sort of project. &#160;An advantage we intend to offer over Org is a </text>
<text text-anchor="middle" x="2628.5" y="-225.3004" font-family="Inconsolata" font-size="14.00" fill="#000000"> nice Unix&#45;flavor toolkit for munging flat files from your choice of</text>
<text text-anchor="middle" x="2628.5" y="-209.9004" font-family="Inconsolata" font-size="14.00" fill="#000000"> editor.</text>
<text text-anchor="middle" x="2628.5" y="-194.5003" font-family="Inconsolata" font-size="14.00" fill="#000000"> </text>
<text text-anchor="middle" x="2628.5" y="-179.1003" font-family="Inconsolata" font-size="14.00" fill="#000000"> =knit= methods receive a parsed document, not a string. &#160;The Knitter </text>
<text text-anchor="middle" x="2628.5" y="-163.7003" font-family="Inconsolata" font-size="14.00" fill="#000000"> modules generates language specific transformers for various Nodes,</text>
<text text-anchor="middle" x="2628.5" y="-148.3002" font-family="Inconsolata" font-size="14.00" fill="#000000"> and the Knit module uses them when called for. </text>
</g>
<!-- prose_31&#45;&gt;leaf_32 -->
<g id="edge32" class="edge">
<title>prose_31&#45;&gt;leaf_32</title>
<path fill="none" stroke="#000000" stroke-dasharray="5,2" d="M2605.0639,-487.3223C2608.2616,-449.947 2615.723,-362.7384 2621.3742,-296.6868"/>
<polygon fill="#000000" stroke="#000000" points="2624.8641,-296.9534 2622.2294,-286.6914 2617.8896,-296.3566 2624.8641,-296.9534"/>
</g>
<!-- leaf_34 -->
<g id="node35" class="node">
<title>leaf_34</title>
<polygon fill="none" stroke="#c0c0c0" points="3111.5,-240.7008 2899.5,-240.7008 2899.5,-186.0999 3111.5,-186.0999 3111.5,-240.7008"/>
<text text-anchor="middle" x="3005.5" y="-225.6004" font-family="Inconsolata" font-size="14.00" fill="#000000">local u = require &quot;lib/util&quot;</text>
<text text-anchor="middle" x="3005.5" y="-194.2003" font-family="Inconsolata" font-size="14.00" fill="#000000">local K, k = u.inherit()</text>
</g>
<!-- codeblock_33&#45;&gt;leaf_34 -->
<g id="edge34" class="edge">
<title>codeblock_33&#45;&gt;leaf_34</title>
<path fill="none" stroke="#000000" stroke-dasharray="5,2" d="M2912.6929,-487.3223C2928.6449,-440.2396 2971.3904,-314.0754 2992.8471,-250.7458"/>
<polygon fill="#000000" stroke="#000000" points="2996.2065,-251.7373 2996.1006,-241.143 2989.5767,-249.491 2996.2065,-251.7373"/>
</g>
<!-- prose_40 -->
<g id="node41" class="node">
<title>prose_40</title>
<ellipse fill="none" stroke="#000000" cx="3415.5" cy="-505.6007" rx="32.4585" ry="18"/>
<text text-anchor="middle" x="3415.5" y="-501.4007" font-family="Helvetica,sans-Serif" font-size="14.00" fill="#000000">prose</text>
</g>
<!-- block_36&#45;&gt;prose_40 -->
<g id="edge40" class="edge">
<title>block_36&#45;&gt;prose_40</title>
<path fill="none" stroke="#000000" stroke-dasharray="5,2" d="M3532.5813,-585.98C3508.157,-569.2121 3470.2316,-543.1754 3444.2028,-525.306"/>
<polygon fill="#000000" stroke="#000000" points="3446.0936,-522.3586 3435.8685,-519.5842 3442.1317,-528.1296 3446.0936,-522.3586"/>
</g>
<!-- prose_42 -->
<g id="node43" class="node">
<title>prose_42</title>
<ellipse fill="none" stroke="#000000" cx="3686.5" cy="-505.6007" rx="32.4585" ry="18"/>
<text text-anchor="middle" x="3686.5" y="-501.4007" font-family="Helvetica,sans-Serif" font-size="14.00" fill="#000000">prose</text>
</g>
<!-- block_37&#45;&gt;prose_42 -->
<g id="edge42" class="edge">
<title>block_37&#45;&gt;prose_42</title>
<path fill="none" stroke="#000000" stroke-dasharray="5,2" d="M3686.5,-584.1935C3686.5,-569.9969 3686.5,-550.03 3686.5,-533.7746"/>
<polygon fill="#000000" stroke="#000000" points="3690.0001,-533.7264 3686.5,-523.7265 3683.0001,-533.7265 3690.0001,-533.7264"/>
</g>
<!-- prose_44 -->
<g id="node45" class="node">
<title>prose_44</title>
<ellipse fill="none" stroke="#000000" cx="4028.5" cy="-505.6007" rx="32.4585" ry="18"/>
<text text-anchor="middle" x="4028.5" y="-501.4007" font-family="Helvetica,sans-Serif" font-size="14.00" fill="#000000">prose</text>
</g>
<!-- block_38&#45;&gt;prose_44 -->
<g id="edge44" class="edge">
<title>block_38&#45;&gt;prose_44</title>
<path fill="none" stroke="#000000" stroke-dasharray="5,2" d="M3911.4187,-585.98C3935.843,-569.2121 3973.7684,-543.1754 3999.7972,-525.306"/>
<polygon fill="#000000" stroke="#000000" points="4001.8683,-528.1296 4008.1315,-519.5842 3997.9064,-522.3586 4001.8683,-528.1296"/>
</g>
<!-- codeblock_46 -->
<g id="node47" class="node">
<title>codeblock_46</title>
<ellipse fill="none" stroke="#000000" cx="4342.5" cy="-505.6007" rx="77.4211" ry="18"/>
<text text-anchor="middle" x="4342.5" y="-501.4007" font-family="Helvetica,sans-Serif" font-size="14.00" fill="#000000">code block 61&#45;89</text>
</g>
<!-- block_39&#45;&gt;codeblock_46 -->
<g id="edge46" class="edge">
<title>block_39&#45;&gt;codeblock_46</title>
<path fill="none" stroke="#000000" stroke-dasharray="5,2" d="M4164.8523,-587.4879C4200.5342,-571.0403 4258.1702,-544.4728 4298.0713,-526.0803"/>
<polygon fill="#000000" stroke="#000000" points="4299.689,-529.1886 4307.3054,-521.8238 4296.7586,-522.8315 4299.689,-529.1886"/>
</g>
<!-- leaf_41 -->
<g id="node42" class="node">
<title>leaf_41</title>
<polygon fill="none" stroke="#c0c0c0" points="3419,-233.3024 3130,-233.3024 3130,-193.4983 3419,-193.4983 3419,-233.3024"/>
<text text-anchor="middle" x="3274.5" y="-201.9004" font-family="Inconsolata" font-size="14.00" fill="#000000"> &#160;&#160;This is where it all comes together.</text>
</g>
<!-- prose_40&#45;&gt;leaf_41 -->
<g id="edge41" class="edge">
<title>prose_40&#45;&gt;leaf_41</title>
<path fill="none" stroke="#000000" stroke-dasharray="5,2" d="M3407.1021,-488.1973C3383.7395,-439.782 3317.7901,-303.1123 3288.6473,-242.7183"/>
<polygon fill="#000000" stroke="#000000" points="3291.6342,-240.8546 3284.136,-233.3695 3285.3298,-243.8968 3291.6342,-240.8546"/>
</g>
<!-- leaf_43 -->
<g id="node44" class="node">
<title>leaf_43</title>
<polygon fill="none" stroke="#c0c0c0" points="3936,-263.8013 3437,-263.8013 3437,-162.9994 3936,-162.9994 3936,-263.8013"/>
<text text-anchor="middle" x="3686.5" y="-248.4004" font-family="Inconsolata" font-size="14.00" fill="#000000"> We&#39;re still bootstrapping. &#160;The only language is lua, we don&#39;t know </text>
<text text-anchor="middle" x="3686.5" y="-233.0004" font-family="Inconsolata" font-size="14.00" fill="#000000"> what hashtags are yet, and we go in simple linear order.</text>
<text text-anchor="middle" x="3686.5" y="-217.6004" font-family="Inconsolata" font-size="14.00" fill="#000000"> </text>
<text text-anchor="middle" x="3686.5" y="-202.2003" font-family="Inconsolata" font-size="14.00" fill="#000000"> &#45; knitter : &#160;the knit module. That is, K, rather than a given k in </text>
<text text-anchor="middle" x="3686.5" y="-186.8003" font-family="Inconsolata" font-size="14.00" fill="#000000"> &#160;&#160;&#160;&#160;&#160;&#160;&#160;&#160;&#160;&#160;&#160;&#160;&#160;K.langs.</text>
<text text-anchor="middle" x="3686.5" y="-171.4003" font-family="Inconsolata" font-size="14.00" fill="#000000"> &#45; doc &#160;&#160;&#160;&#160;: &#160;a Doc.</text>
</g>
<!-- prose_42&#45;&gt;leaf_43 -->
<g id="edge43" class="edge">
<title>prose_42&#45;&gt;leaf_43</title>
<path fill="none" stroke="#000000" stroke-dasharray="5,2" d="M3686.5,-487.3223C3686.5,-445.4311 3686.5,-340.9366 3686.5,-273.7962"/>
<polygon fill="#000000" stroke="#000000" points="3690.0001,-273.7652 3686.5,-263.7652 3683.0001,-273.7652 3690.0001,-273.7652"/>
</g>
<!-- leaf_45 -->
<g id="node46" class="node">
<title>leaf_45</title>
<polygon fill="none" stroke="#c0c0c0" points="4243,-233.3024 3954,-233.3024 3954,-193.4983 4243,-193.4983 4243,-233.3024"/>
<text text-anchor="middle" x="4098.5" y="-217.9004" font-family="Inconsolata" font-size="14.00" fill="#000000"> &#45; #return : the knit file as a string.</text>
</g>
<!-- prose_44&#45;&gt;leaf_45 -->
<g id="edge45" class="edge">
<title>prose_44&#45;&gt;leaf_45</title>
<path fill="none" stroke="#000000" stroke-dasharray="5,2" d="M4032.8788,-487.3223C4044.6249,-438.2908 4076.9166,-303.4959 4091.3576,-243.215"/>
<polygon fill="#000000" stroke="#000000" points="4094.8313,-243.7378 4093.7574,-233.1975 4088.0239,-242.1069 4094.8313,-243.7378"/>
</g>
<!-- leaf_47 -->
<g id="node48" class="node">
<title>leaf_47</title>
<polygon fill="none" stroke="#c0c0c0" points="4655.5,-426.7011 4261.5,-426.7011 4261.5,-.0996 4655.5,-.0996 4655.5,-426.7011"/>
<text text-anchor="middle" x="4458.5" y="-411.6007" font-family="Inconsolata" font-size="14.00" fill="#000000">function K.knit(knitter, doc)</text>
<text text-anchor="middle" x="4458.5" y="-396.2007" font-family="Inconsolata" font-size="14.00" fill="#000000"> &#160;&#160;&#160;local codeblocks = doc:select(&quot;codeblock&quot;)</text>
<text text-anchor="middle" x="4458.5" y="-380.8006" font-family="Inconsolata" font-size="14.00" fill="#000000"> &#160;&#160;&#160;local phrase = &quot;&quot;</text>
<text text-anchor="middle" x="4458.5" y="-365.4006" font-family="Inconsolata" font-size="14.00" fill="#000000"> &#160;&#160;&#160;local linum = 0</text>
<text text-anchor="middle" x="4458.5" y="-350.0006" font-family="Inconsolata" font-size="14.00" fill="#000000"> &#160;&#160;&#160;for _, cb in ipairs(codeblocks) do</text>
<text text-anchor="middle" x="4458.5" y="-334.6005" font-family="Inconsolata" font-size="14.00" fill="#000000"> &#160;&#160;&#160;&#160;&#160;&#160;&#160;cb:check()</text>
<text text-anchor="middle" x="4458.5" y="-319.2005" font-family="Inconsolata" font-size="14.00" fill="#000000"> &#160;&#160;&#160;&#160;&#160;&#160;&#160;&#45;&#45; Pad code with blank lines to line up errors</text>
<text text-anchor="middle" x="4458.5" y="-303.8005" font-family="Inconsolata" font-size="14.00" fill="#000000"> &#160;&#160;&#160;&#160;&#160;&#160;&#160;local pad_count = cb.line_first &#45; linum</text>
<text text-anchor="middle" x="4458.5" y="-272.4004" font-family="Inconsolata" font-size="14.00" fill="#000000"> &#160;&#160;&#160;&#160;&#160;&#160;&#160;local pad = (&quot;\n&quot;):rep(pad_count)</text>
<text text-anchor="middle" x="4458.5" y="-257.0004" font-family="Inconsolata" font-size="14.00" fill="#000000"> &#160;&#160;&#160;&#160;&#160;&#160;&#160;&#45;&#45; cat codeblock value</text>
<text text-anchor="middle" x="4458.5" y="-241.6004" font-family="Inconsolata" font-size="14.00" fill="#000000"> &#160;&#160;&#160;&#160;&#160;&#160;&#160;phrase = phrase .. pad .. cb.val </text>
<text text-anchor="middle" x="4458.5" y="-210.2003" font-family="Inconsolata" font-size="14.00" fill="#000000"> &#160;&#160;&#160;&#160;&#160;&#160;&#160;&#45;&#45; update linum</text>
<text text-anchor="middle" x="4458.5" y="-194.8003" font-family="Inconsolata" font-size="14.00" fill="#000000"> &#160;&#160;&#160;&#160;&#160;&#160;&#160;linum = cb.line_last &#45; 1</text>
<text text-anchor="middle" x="4458.5" y="-179.4003" font-family="Inconsolata" font-size="14.00" fill="#000000"> &#160;&#160;&#160;end</text>
<text text-anchor="middle" x="4458.5" y="-148.0002" font-family="Inconsolata" font-size="14.00" fill="#000000"> &#160;&#160;&#160;return phrase</text>
<text text-anchor="middle" x="4458.5" y="-132.6002" font-family="Inconsolata" font-size="14.00" fill="#000000">end</text>
<text text-anchor="middle" x="4458.5" y="-101.2002" font-family="Inconsolata" font-size="14.00" fill="#000000">local function new(Knitter, lang)</text>
<text text-anchor="middle" x="4458.5" y="-85.8002" font-family="Inconsolata" font-size="14.00" fill="#000000"> &#160;&#160;&#160;local knitter = setmetatable({}, K)</text>
<text text-anchor="middle" x="4458.5" y="-70.4001" font-family="Inconsolata" font-size="14.00" fill="#000000"> &#160;&#160;&#160;knitter.lang = lang or &quot;lua&quot;</text>
<text text-anchor="middle" x="4458.5" y="-55.0001" font-family="Inconsolata" font-size="14.00" fill="#000000"> &#160;&#160;&#160;return knitter</text>
<text text-anchor="middle" x="4458.5" y="-39.6001" font-family="Inconsolata" font-size="14.00" fill="#000000">end</text>
<text text-anchor="middle" x="4458.5" y="-8.2" font-family="Inconsolata" font-size="14.00" fill="#000000">return u.export(k, new)</text>
</g>
<!-- codeblock_46&#45;&gt;leaf_47 -->
<g id="edge47" class="edge">
<title>codeblock_46&#45;&gt;leaf_47</title>
<path fill="none" stroke="#000000" stroke-dasharray="5,2" d="M4349.7563,-487.3223C4354.6818,-474.9151 4361.7875,-457.0162 4370.0422,-436.2228"/>
<polygon fill="#000000" stroke="#000000" points="4373.3423,-437.3957 4373.779,-426.8098 4366.8362,-434.8128 4373.3423,-437.3957"/>
</g>
</g>
</svg>