<?xml version="1.0" encoding="UTF-8" standalone="no"?>
<!DOCTYPE svg PUBLIC "-//W3C//DTD SVG 1.1//EN"
 "http://www.w3.org/Graphics/SVG/1.1/DTD/svg11.dtd">
<!-- Generated by graphviz version 2.40.1 (20161225.0304)
 -->
<!-- Title: lpegNode Pages: 1 -->
<svg width="1880pt" height="1895pt"
 viewBox="0.00 0.00 1880.10 1894.80" xmlns="http://www.w3.org/2000/svg" xmlns:xlink="http://www.w3.org/1999/xlink">
<g id="graph0" class="graph" transform="scale(1 1) rotate(0) translate(4 1890.8026)">
<title>lpegNode</title>
<polygon fill="#ffffff" stroke="transparent" points="-4,4 -4,-1890.8026 1876.0964,-1890.8026 1876.0964,4 -4,4"/>
<!-- doc_0 -->
<g id="node1" class="node">
<title>doc_0</title>
<ellipse fill="none" stroke="#000000" cx="270.0964" cy="-1868.8026" rx="46.1547" ry="18"/>
<text text-anchor="middle" x="270.0964" y="-1864.6026" font-family="Helvetica,sans-Serif" font-size="14.00" fill="#000000">doc &#45; 114</text>
</g>
<!-- section_1 -->
<g id="node2" class="node">
<title>section_1</title>
<ellipse fill="none" stroke="#000000" cx="270.0964" cy="-1796.8026" rx="60.9826" ry="18"/>
<text text-anchor="middle" x="270.0964" y="-1792.6026" font-family="Helvetica,sans-Serif" font-size="14.00" fill="#000000">section: 1&#45;46</text>
</g>
<!-- doc_0&#45;&gt;section_1 -->
<g id="edge1" class="edge">
<title>doc_0&#45;&gt;section_1</title>
<path fill="none" stroke="#000000" stroke-dasharray="5,2" d="M270.0964,-1850.6339C270.0964,-1842.9335 270.0964,-1833.7769 270.0964,-1825.2192"/>
<polygon fill="#000000" stroke="#000000" points="273.5965,-1825.2158 270.0964,-1815.2158 266.5965,-1825.2159 273.5965,-1825.2158"/>
</g>
<!-- header_2 -->
<g id="node3" class="node">
<title>header_2</title>
<ellipse fill="none" stroke="#000000" cx="69.0964" cy="-1724.8026" rx="69.1929" ry="18"/>
<text text-anchor="middle" x="69.0964" y="-1720.6026" font-family="Helvetica,sans-Serif" font-size="14.00" fill="#000000">1 : Knit module</text>
</g>
<!-- section_1&#45;&gt;header_2 -->
<g id="edge2" class="edge">
<title>section_1&#45;&gt;header_2</title>
<path fill="none" stroke="#000000" stroke-dasharray="5,2" d="M231.3415,-1782.9202C199.4334,-1771.4904 153.9676,-1755.2042 119.2797,-1742.7787"/>
<polygon fill="#000000" stroke="#000000" points="120.3965,-1739.461 109.802,-1739.3837 118.0359,-1746.051 120.3965,-1739.461"/>
</g>
<!-- prose_3 -->
<g id="node4" class="node">
<title>prose_3</title>
<ellipse fill="none" stroke="#000000" cx="209.0964" cy="-1724.8026" rx="32.4585" ry="18"/>
<text text-anchor="middle" x="209.0964" y="-1720.6026" font-family="Helvetica,sans-Serif" font-size="14.00" fill="#000000">prose</text>
</g>
<!-- section_1&#45;&gt;prose_3 -->
<g id="edge3" class="edge">
<title>section_1&#45;&gt;prose_3</title>
<path fill="none" stroke="#000000" stroke-dasharray="5,2" d="M255.0177,-1779.0048C247.4103,-1770.0255 238.0658,-1758.996 229.7966,-1749.2357"/>
<polygon fill="#000000" stroke="#000000" points="232.2999,-1746.7758 223.1652,-1741.4084 226.9589,-1751.3007 232.2999,-1746.7758"/>
</g>
<!-- codeblock_4 -->
<g id="node5" class="node">
<title>codeblock_4</title>
<ellipse fill="none" stroke="#000000" cx="343.0964" cy="-1724.8026" rx="72.5844" ry="18"/>
<text text-anchor="middle" x="343.0964" y="-1720.6026" font-family="Helvetica,sans-Serif" font-size="14.00" fill="#000000">code block 6&#45;44</text>
</g>
<!-- section_1&#45;&gt;codeblock_4 -->
<g id="edge4" class="edge">
<title>section_1&#45;&gt;codeblock_4</title>
<path fill="none" stroke="#000000" stroke-dasharray="5,2" d="M287.7676,-1779.3734C296.8464,-1770.4189 308.0655,-1759.3536 318.0227,-1749.5327"/>
<polygon fill="#000000" stroke="#000000" points="320.6729,-1751.8349 325.3348,-1742.3208 315.7574,-1746.8511 320.6729,-1751.8349"/>
</g>
<!-- section_5 -->
<g id="node6" class="node">
<title>section_5</title>
<ellipse fill="none" stroke="#000000" cx="815.0964" cy="-1724.8026" rx="69.851" ry="18"/>
<text text-anchor="middle" x="815.0964" y="-1720.6026" font-family="Helvetica,sans-Serif" font-size="14.00" fill="#000000">section: 47&#45;114</text>
</g>
<!-- section_1&#45;&gt;section_5 -->
<g id="edge5" class="edge">
<title>section_1&#45;&gt;section_5</title>
<path fill="none" stroke="#000000" stroke-dasharray="5,2" d="M325.6062,-1789.4692C424.7951,-1776.3653 632.3754,-1748.9418 742.6454,-1734.3741"/>
<polygon fill="#000000" stroke="#000000" points="743.2265,-1737.8278 752.682,-1733.0481 742.3097,-1730.8881 743.2265,-1737.8278"/>
</g>
<!-- leaf_6 -->
<g id="node7" class="node">
<title>leaf_6</title>
<polygon fill="none" stroke="#c0c0c0" points="115.0964,-1405.5021 1.0964,-1405.5021 1.0964,-1369.5021 115.0964,-1369.5021 115.0964,-1405.5021"/>
<text text-anchor="middle" x="58.0964" y="-1384.0021" font-family="Inconsolata" font-size="14.00" fill="#000000"> * Knit module</text>
</g>
<!-- header_2&#45;&gt;leaf_6 -->
<g id="edge6" class="edge">
<title>header_2&#45;&gt;leaf_6</title>
<path fill="none" stroke="#000000" stroke-dasharray="5,2" d="M68.505,-1706.6678C66.6957,-1651.1899 61.2252,-1483.4451 59.0263,-1416.0181"/>
<polygon fill="#000000" stroke="#000000" points="62.5149,-1415.6071 58.6907,-1405.7265 55.5186,-1415.8353 62.5149,-1415.6071"/>
</g>
<!-- raw_7 -->
<g id="node8" class="node">
<title>raw_7</title>
<ellipse fill="none" stroke="#000000" cx="160.0964" cy="-1387.5021" rx="27" ry="18"/>
<text text-anchor="middle" x="160.0964" y="-1383.3021" font-family="Helvetica,sans-Serif" font-size="14.00" fill="#000000">raw</text>
</g>
<!-- prose_3&#45;&gt;raw_7 -->
<g id="edge7" class="edge">
<title>prose_3&#45;&gt;raw_7</title>
<path fill="none" stroke="#000000" stroke-dasharray="5,2" d="M204.2657,-1706.9079C201.5721,-1696.4431 198.3221,-1682.9431 196.0964,-1670.8026 179.1043,-1578.1189 167.5003,-1466.9084 162.6496,-1415.7633"/>
<polygon fill="#000000" stroke="#000000" points="166.1064,-1415.1372 161.6914,-1405.5061 159.1368,-1415.7883 166.1064,-1415.1372"/>
</g>
<!-- leaf_9 -->
<g id="node10" class="node">
<title>leaf_9</title>
<polygon fill="none" stroke="#c0c0c0" points="564.5964,-1670.6032 205.5964,-1670.6032 205.5964,-1104.4011 564.5964,-1104.4011 564.5964,-1670.6032"/>
<text text-anchor="middle" x="385.0964" y="-1655.6026" font-family="Inconsolata" font-size="14.00" fill="#000000">local L = require &quot;lpeg&quot;</text>
<text text-anchor="middle" x="385.0964" y="-1624.2025" font-family="Inconsolata" font-size="14.00" fill="#000000">local s = require &quot;status&quot; ()</text>
<text text-anchor="middle" x="385.0964" y="-1608.8025" font-family="Inconsolata" font-size="14.00" fill="#000000">local a = require &quot;ansi&quot;</text>
<text text-anchor="middle" x="385.0964" y="-1593.4025" font-family="Inconsolata" font-size="14.00" fill="#000000">s.chatty = true</text>
<text text-anchor="middle" x="385.0964" y="-1578.0024" font-family="Inconsolata" font-size="14.00" fill="#000000">s.verbose = false</text>
<text text-anchor="middle" x="385.0964" y="-1546.6024" font-family="Inconsolata" font-size="14.00" fill="#000000">local pl_file = require &quot;pl.file&quot;</text>
<text text-anchor="middle" x="385.0964" y="-1531.2024" font-family="Inconsolata" font-size="14.00" fill="#000000">local pl_dir = require &quot;pl.dir&quot;</text>
<text text-anchor="middle" x="385.0964" y="-1515.8023" font-family="Inconsolata" font-size="14.00" fill="#000000">local pl_path = require &quot;pl.path&quot;</text>
<text text-anchor="middle" x="385.0964" y="-1500.4023" font-family="Inconsolata" font-size="14.00" fill="#000000">local getfiles = pl_dir.getfiles</text>
<text text-anchor="middle" x="385.0964" y="-1485.0023" font-family="Inconsolata" font-size="14.00" fill="#000000">local getdirectories = pl_dir.getdirectories</text>
<text text-anchor="middle" x="385.0964" y="-1469.6022" font-family="Inconsolata" font-size="14.00" fill="#000000">local makepath = pl_dir.makepath</text>
<text text-anchor="middle" x="385.0964" y="-1454.2022" font-family="Inconsolata" font-size="14.00" fill="#000000">local extension = pl_path.extension</text>
<text text-anchor="middle" x="385.0964" y="-1438.8022" font-family="Inconsolata" font-size="14.00" fill="#000000">local dirname = pl_path.dirname</text>
<text text-anchor="middle" x="385.0964" y="-1423.4022" font-family="Inconsolata" font-size="14.00" fill="#000000">local basename = pl_path.basename</text>
<text text-anchor="middle" x="385.0964" y="-1408.0021" font-family="Inconsolata" font-size="14.00" fill="#000000">local read = pl_file.read</text>
<text text-anchor="middle" x="385.0964" y="-1392.6021" font-family="Inconsolata" font-size="14.00" fill="#000000">local write = pl_file.write</text>
<text text-anchor="middle" x="385.0964" y="-1377.2021" font-family="Inconsolata" font-size="14.00" fill="#000000">local delete = pl_file.delete</text>
<text text-anchor="middle" x="385.0964" y="-1361.802" font-family="Inconsolata" font-size="14.00" fill="#000000">local isdir = pl_path.isdir</text>
<text text-anchor="middle" x="385.0964" y="-1314.402" font-family="Inconsolata" font-size="14.00" fill="#000000">local knitter = require &quot;knit/knitter&quot;</text>
<text text-anchor="middle" x="385.0964" y="-1283.002" font-family="Inconsolata" font-size="14.00" fill="#000000">local Dir = require &quot;walk/directory&quot;</text>
<text text-anchor="middle" x="385.0964" y="-1267.6019" font-family="Inconsolata" font-size="14.00" fill="#000000">local Path = require &quot;walk/path&quot;</text>
<text text-anchor="middle" x="385.0964" y="-1252.2019" font-family="Inconsolata" font-size="14.00" fill="#000000">local File = require &quot;walk/File&quot;</text>
<text text-anchor="middle" x="385.0964" y="-1220.8019" font-family="Inconsolata" font-size="14.00" fill="#000000">local walk = require &quot;walk&quot; &#45;&#45; factoring this out</text>
<text text-anchor="middle" x="385.0964" y="-1205.4018" font-family="Inconsolata" font-size="14.00" fill="#000000">local strHas = walk.strHas</text>
<text text-anchor="middle" x="385.0964" y="-1190.0018" font-family="Inconsolata" font-size="14.00" fill="#000000">local endsWith = walk.endsWith</text>
<text text-anchor="middle" x="385.0964" y="-1174.6018" font-family="Inconsolata" font-size="14.00" fill="#000000">local subLastFor = walk.subLastFor</text>
<text text-anchor="middle" x="385.0964" y="-1159.2017" font-family="Inconsolata" font-size="14.00" fill="#000000">local writeOnChange = walk.writeOnChange</text>
<text text-anchor="middle" x="385.0964" y="-1127.8017" font-family="Inconsolata" font-size="14.00" fill="#000000">local Doc = require &quot;Orbit/doc&quot;</text>
<text text-anchor="middle" x="385.0964" y="-1112.4017" font-family="Inconsolata" font-size="14.00" fill="#000000">local Path = require &quot;walk/path&quot;</text>
</g>
<!-- codeblock_4&#45;&gt;leaf_9 -->
<g id="edge9" class="edge">
<title>codeblock_4&#45;&gt;leaf_9</title>
<path fill="none" stroke="#000000" stroke-dasharray="5,2" d="M345.3545,-1706.6678C346.226,-1699.6683 347.3201,-1690.8816 348.5836,-1680.7348"/>
<polygon fill="#000000" stroke="#000000" points="352.0826,-1680.9594 349.8451,-1670.6036 345.1362,-1680.0944 352.0826,-1680.9594"/>
</g>
<!-- header_10 -->
<g id="node11" class="node">
<title>header_10</title>
<ellipse fill="none" stroke="#000000" cx="674.0964" cy="-1387.5021" rx="91.4192" ry="18"/>
<text text-anchor="middle" x="674.0964" y="-1383.3021" font-family="Helvetica,sans-Serif" font-size="14.00" fill="#000000">2 : knitCodex(codex)</text>
</g>
<!-- section_5&#45;&gt;header_10 -->
<g id="edge10" class="edge">
<title>section_5&#45;&gt;header_10</title>
<path fill="none" stroke="#000000" stroke-dasharray="5,2" d="M799.1595,-1706.7854C790.8576,-1696.722 781.0218,-1683.6511 774.0964,-1670.8026 726.6335,-1582.7466 694.1607,-1467.6248 680.8564,-1415.4126"/>
<polygon fill="#000000" stroke="#000000" points="684.2095,-1414.3941 678.381,-1405.5466 677.4199,-1416.0977 684.2095,-1414.3941"/>
</g>
<!-- prose_11 -->
<g id="node12" class="node">
<title>prose_11</title>
<ellipse fill="none" stroke="#000000" cx="815.0964" cy="-1387.5021" rx="32.4585" ry="18"/>
<text text-anchor="middle" x="815.0964" y="-1383.3021" font-family="Helvetica,sans-Serif" font-size="14.00" fill="#000000">prose</text>
</g>
<!-- section_5&#45;&gt;prose_11 -->
<g id="edge11" class="edge">
<title>section_5&#45;&gt;prose_11</title>
<path fill="none" stroke="#000000" stroke-dasharray="5,2" d="M815.0964,-1706.6678C815.0964,-1651.1899 815.0964,-1483.4451 815.0964,-1416.0181"/>
<polygon fill="#000000" stroke="#000000" points="818.5965,-1415.7265 815.0964,-1405.7265 811.5965,-1415.7265 818.5965,-1415.7265"/>
</g>
<!-- prose_12 -->
<g id="node13" class="node">
<title>prose_12</title>
<ellipse fill="none" stroke="#000000" cx="1013.0964" cy="-1387.5021" rx="32.4585" ry="18"/>
<text text-anchor="middle" x="1013.0964" y="-1383.3021" font-family="Helvetica,sans-Serif" font-size="14.00" fill="#000000">prose</text>
</g>
<!-- section_5&#45;&gt;prose_12 -->
<g id="edge12" class="edge">
<title>section_5&#45;&gt;prose_12</title>
<path fill="none" stroke="#000000" stroke-dasharray="5,2" d="M829.8106,-1706.7816C837.9378,-1696.5026 847.9966,-1683.227 856.0964,-1670.8026 915.383,-1579.8612 974.5379,-1464.9663 1000.0426,-1413.9658"/>
<polygon fill="#000000" stroke="#000000" points="1003.2203,-1415.4363 1004.5456,-1404.9247 996.9544,-1412.3155 1003.2203,-1415.4363"/>
</g>
<!-- codeblock_13 -->
<g id="node14" class="node">
<title>codeblock_13</title>
<ellipse fill="none" stroke="#000000" cx="1371.0964" cy="-1387.5021" rx="81.9542" ry="18"/>
<text text-anchor="middle" x="1371.0964" y="-1383.3021" font-family="Helvetica,sans-Serif" font-size="14.00" fill="#000000">code block 54&#45;113</text>
</g>
<!-- section_5&#45;&gt;codeblock_13 -->
<g id="edge13" class="edge">
<title>section_5&#45;&gt;codeblock_13</title>
<path fill="none" stroke="#000000" stroke-dasharray="5,2" d="M881.2983,-1718.9152C931.0676,-1712.3907 999.7377,-1698.8103 1054.0964,-1670.8026 1184.5312,-1603.5974 1303.5465,-1469.9322 1350.2231,-1413.551"/>
<polygon fill="#000000" stroke="#000000" points="1353.1931,-1415.4491 1356.8314,-1405.4985 1347.782,-1411.0084 1353.1931,-1415.4491"/>
</g>
<!-- leaf_8 -->
<g id="node9" class="node">
<title>leaf_8</title>
<polygon fill="none" stroke="#c0c0c0" points="297.5964,-651.702 22.5964,-651.702 22.5964,-579.8997 297.5964,-579.8997 297.5964,-651.702"/>
<text text-anchor="middle" x="160.0964" y="-588.3009" font-family="Inconsolata" font-size="14.00" fill="#000000"> This is due for a complete overhaul.</text>
</g>
<!-- raw_7&#45;&gt;leaf_8 -->
<g id="edge8" class="edge">
<title>raw_7&#45;&gt;leaf_8</title>
<path fill="none" stroke="#000000" stroke-dasharray="5,2" d="M160.0964,-1369.1874C160.0964,-1271.4473 160.0964,-810.1934 160.0964,-661.8626"/>
<polygon fill="#000000" stroke="#000000" points="163.5965,-661.7328 160.0964,-651.7328 156.5965,-661.7328 163.5965,-661.7328"/>
</g>
<!-- leaf_14 -->
<g id="node15" class="node">
<title>leaf_14</title>
<polygon fill="none" stroke="#c0c0c0" points="668.5964,-633.8008 519.5964,-633.8008 519.5964,-597.8008 668.5964,-597.8008 668.5964,-633.8008"/>
<text text-anchor="middle" x="594.0964" y="-612.3009" font-family="Inconsolata" font-size="14.00" fill="#000000">** knitCodex(codex)</text>
</g>
<!-- header_10&#45;&gt;leaf_14 -->
<g id="edge14" class="edge">
<title>header_10&#45;&gt;leaf_14</title>
<path fill="none" stroke="#000000" stroke-dasharray="5,2" d="M672.1977,-1369.1874C661.6208,-1267.1594 609.9805,-769.0234 597.0409,-644.2046"/>
<polygon fill="#000000" stroke="#000000" points="600.4898,-643.5301 595.9773,-633.9444 593.5271,-644.252 600.4898,-643.5301"/>
</g>
<!-- raw_15 -->
<g id="node16" class="node">
<title>raw_15</title>
<ellipse fill="none" stroke="#000000" cx="714.0964" cy="-615.8008" rx="27" ry="18"/>
<text text-anchor="middle" x="714.0964" y="-611.6008" font-family="Helvetica,sans-Serif" font-size="14.00" fill="#000000">raw</text>
</g>
<!-- prose_11&#45;&gt;raw_15 -->
<g id="edge15" class="edge">
<title>prose_11&#45;&gt;raw_15</title>
<path fill="none" stroke="#000000" stroke-dasharray="5,2" d="M815.2004,-1369.2417C814.8882,-1323.1668 810.4549,-1199.1047 774.0964,-1104.2017 767.2169,-1086.2448 756.395,-1086.3705 750.0964,-1068.2017 697.197,-915.6089 705.93,-717.3375 711.5125,-644.3654"/>
<polygon fill="#000000" stroke="#000000" points="715.0217,-644.3905 712.3385,-634.1411 708.0445,-643.8267 715.0217,-644.3905"/>
</g>
<!-- prespace_17 -->
<g id="node18" class="node">
<title>prespace_17</title>
<ellipse fill="none" stroke="#000000" cx="805.0964" cy="-615.8008" rx="46.4736" ry="18"/>
<text text-anchor="middle" x="805.0964" y="-611.6008" font-family="Helvetica,sans-Serif" font-size="14.00" fill="#000000">prespace</text>
</g>
<!-- prose_12&#45;&gt;prespace_17 -->
<g id="edge17" class="edge">
<title>prose_12&#45;&gt;prespace_17</title>
<path fill="none" stroke="#000000" stroke-dasharray="5,2" d="M1002.4321,-1370.2958C974.0966,-1323.6733 896.6726,-1190.2076 861.0964,-1068.2017 815.6847,-912.4657 807.0925,-716.0846 805.4715,-643.9908"/>
<polygon fill="#000000" stroke="#000000" points="808.9689,-643.8222 805.2729,-633.893 801.9703,-643.9599 808.9689,-643.8222"/>
</g>
<!-- literal_18 -->
<g id="node19" class="node">
<title>literal_18</title>
<ellipse fill="none" stroke="#000000" cx="901.0964" cy="-615.8008" rx="31.481" ry="18"/>
<text text-anchor="middle" x="901.0964" y="-611.6008" font-family="Helvetica,sans-Serif" font-size="14.00" fill="#000000">literal</text>
</g>
<!-- prose_12&#45;&gt;literal_18 -->
<g id="edge18" class="edge">
<title>prose_12&#45;&gt;literal_18</title>
<path fill="none" stroke="#000000" stroke-dasharray="5,2" d="M1008.1884,-1369.6598C995.1228,-1321.4583 959.2544,-1184.4215 941.0964,-1068.2017 916.2054,-908.8883 905.5565,-715.4109 902.2794,-644.0164"/>
<polygon fill="#000000" stroke="#000000" points="905.7752,-643.8414 901.832,-634.0077 898.7821,-644.154 905.7752,-643.8414"/>
</g>
<!-- raw_19 -->
<g id="node20" class="node">
<title>raw_19</title>
<ellipse fill="none" stroke="#000000" cx="977.0964" cy="-615.8008" rx="27" ry="18"/>
<text text-anchor="middle" x="977.0964" y="-611.6008" font-family="Helvetica,sans-Serif" font-size="14.00" fill="#000000">raw</text>
</g>
<!-- prose_12&#45;&gt;raw_19 -->
<g id="edge19" class="edge">
<title>prose_12&#45;&gt;raw_19</title>
<path fill="none" stroke="#000000" stroke-dasharray="5,2" d="M1012.242,-1369.1874C1007.4824,-1267.1594 984.2442,-769.0234 978.4214,-644.2046"/>
<polygon fill="#000000" stroke="#000000" points="981.9051,-643.7704 977.9428,-633.9444 974.9127,-644.0967 981.9051,-643.7704"/>
</g>
<!-- link_20 -->
<g id="node21" class="node">
<title>link_20</title>
<ellipse fill="none" stroke="#000000" cx="1049.0964" cy="-615.8008" rx="27" ry="18"/>
<text text-anchor="middle" x="1049.0964" y="-611.6008" font-family="Helvetica,sans-Serif" font-size="14.00" fill="#000000">link</text>
</g>
<!-- prose_12&#45;&gt;link_20 -->
<g id="edge20" class="edge">
<title>prose_12&#45;&gt;link_20</title>
<path fill="none" stroke="#000000" stroke-dasharray="5,2" d="M1013.9508,-1369.1874C1018.7104,-1267.1594 1041.9485,-769.0234 1047.7713,-644.2046"/>
<polygon fill="#000000" stroke="#000000" points="1051.2801,-644.0967 1048.25,-633.9444 1044.2877,-643.7704 1051.2801,-644.0967"/>
</g>
<!-- raw_21 -->
<g id="node22" class="node">
<title>raw_21</title>
<ellipse fill="none" stroke="#000000" cx="1169.0964" cy="-615.8008" rx="27" ry="18"/>
<text text-anchor="middle" x="1169.0964" y="-611.6008" font-family="Helvetica,sans-Serif" font-size="14.00" fill="#000000">raw</text>
</g>
<!-- prose_12&#45;&gt;raw_21 -->
<g id="edge21" class="edge">
<title>prose_12&#45;&gt;raw_21</title>
<path fill="none" stroke="#000000" stroke-dasharray="5,2" d="M1017.3975,-1369.5502C1028.9565,-1321.0763 1061.4175,-1183.4235 1085.0964,-1068.2017 1117.9816,-908.181 1151.9307,-715.1264 1164.2586,-643.9306"/>
<polygon fill="#000000" stroke="#000000" points="1167.7292,-644.4004 1165.9831,-633.9505 1160.8314,-643.2084 1167.7292,-644.4004"/>
</g>
<!-- link_22 -->
<g id="node23" class="node">
<title>link_22</title>
<ellipse fill="none" stroke="#000000" cx="1277.0964" cy="-615.8008" rx="27" ry="18"/>
<text text-anchor="middle" x="1277.0964" y="-611.6008" font-family="Helvetica,sans-Serif" font-size="14.00" fill="#000000">link</text>
</g>
<!-- prose_12&#45;&gt;link_22 -->
<g id="edge22" class="edge">
<title>prose_12&#45;&gt;link_22</title>
<path fill="none" stroke="#000000" stroke-dasharray="5,2" d="M1026.2089,-1371.0413C1061.5352,-1325.7579 1159.1223,-1194.3022 1205.0964,-1068.2017 1260.935,-915.0439 1273.5143,-717.1122 1276.3105,-644.298"/>
<polygon fill="#000000" stroke="#000000" points="1279.8155,-644.213 1276.6683,-634.0965 1272.8198,-643.9676 1279.8155,-644.213"/>
</g>
<!-- raw_23 -->
<g id="node24" class="node">
<title>raw_23</title>
<ellipse fill="none" stroke="#000000" cx="1349.0964" cy="-615.8008" rx="27" ry="18"/>
<text text-anchor="middle" x="1349.0964" y="-611.6008" font-family="Helvetica,sans-Serif" font-size="14.00" fill="#000000">raw</text>
</g>
<!-- prose_12&#45;&gt;raw_23 -->
<g id="edge23" class="edge">
<title>prose_12&#45;&gt;raw_23</title>
<path fill="none" stroke="#000000" stroke-dasharray="5,2" d="M1028.3262,-1371.3637C1089.2292,-1306.8185 1312.033,-1070.6033 1313.0964,-1068.2017 1378.6338,-920.1851 1362.1641,-718.3641 1353.1052,-644.4361"/>
<polygon fill="#000000" stroke="#000000" points="1356.5219,-643.5614 1351.7808,-634.0865 1349.5786,-644.45 1356.5219,-643.5614"/>
</g>
<!-- leaf_37 -->
<g id="node38" class="node">
<title>leaf_37</title>
<polygon fill="none" stroke="#c0c0c0" points="1872.0964,-1068.1025 1394.0964,-1068.1025 1394.0964,-163.4992 1872.0964,-163.4992 1872.0964,-1068.1025"/>
<text text-anchor="middle" x="1633.0964" y="-1053.0017" font-family="Inconsolata" font-size="14.00" fill="#000000">local function knitDeck(deck)</text>
<text text-anchor="middle" x="1633.0964" y="-1037.6016" font-family="Inconsolata" font-size="14.00" fill="#000000"> &#160;&#160;&#160;local dir = deck.dir</text>
<text text-anchor="middle" x="1633.0964" y="-1022.2016" font-family="Inconsolata" font-size="14.00" fill="#000000"> &#160;&#160;&#160;local codex = deck.codex</text>
<text text-anchor="middle" x="1633.0964" y="-1006.8016" font-family="Inconsolata" font-size="14.00" fill="#000000"> &#160;&#160;&#160;local orbDir = codex.orb</text>
<text text-anchor="middle" x="1633.0964" y="-991.4015" font-family="Inconsolata" font-size="14.00" fill="#000000"> &#160;&#160;&#160;local srcDir = codex.src</text>
<text text-anchor="middle" x="1633.0964" y="-976.0015" font-family="Inconsolata" font-size="14.00" fill="#000000"> &#160;&#160;&#160;for i, sub in ipairs(deck) do</text>
<text text-anchor="middle" x="1633.0964" y="-960.6015" font-family="Inconsolata" font-size="14.00" fill="#000000"> &#160;&#160;&#160;&#160;&#160;&#160;&#160;knitDeck(sub)</text>
<text text-anchor="middle" x="1633.0964" y="-945.2014" font-family="Inconsolata" font-size="14.00" fill="#000000"> &#160;&#160;&#160;end</text>
<text text-anchor="middle" x="1633.0964" y="-929.8014" font-family="Inconsolata" font-size="14.00" fill="#000000"> &#160;&#160;&#160;for name, doc in pairs(deck.docs) do</text>
<text text-anchor="middle" x="1633.0964" y="-914.4014" font-family="Inconsolata" font-size="14.00" fill="#000000"> &#160;&#160;&#160;&#160;&#160;&#160;&#160;local knitted, ext = knitter:knit(doc)</text>
<text text-anchor="middle" x="1633.0964" y="-899.0013" font-family="Inconsolata" font-size="14.00" fill="#000000"> &#160;&#160;&#160;&#160;&#160;&#160;&#160;if knitted then</text>
<text text-anchor="middle" x="1633.0964" y="-883.6013" font-family="Inconsolata" font-size="14.00" fill="#000000"> &#160;&#160;&#160;&#160;&#160;&#160;&#160;&#160;&#160;&#160;&#160;&#45;&#45; add to srcs</text>
<text text-anchor="middle" x="1633.0964" y="-868.2013" font-family="Inconsolata" font-size="14.00" fill="#000000"> &#160;&#160;&#160;&#160;&#160;&#160;&#160;&#160;&#160;&#160;&#160;local srcpath = Path(name):subFor(orbDir, srcDir, ext)</text>
<text text-anchor="middle" x="1633.0964" y="-852.8012" font-family="Inconsolata" font-size="14.00" fill="#000000"> &#160;&#160;&#160;&#160;&#160;&#160;&#160;&#160;&#160;&#160;&#160;s:verb(&quot;knitted: &quot; .. name)</text>
<text text-anchor="middle" x="1633.0964" y="-837.4012" font-family="Inconsolata" font-size="14.00" fill="#000000"> &#160;&#160;&#160;&#160;&#160;&#160;&#160;&#160;&#160;&#160;&#160;s:verb(&quot;into: &#160;&#160;&#160;&quot; .. tostring(srcpath))</text>
<text text-anchor="middle" x="1633.0964" y="-822.0012" font-family="Inconsolata" font-size="14.00" fill="#000000"> &#160;&#160;&#160;&#160;&#160;&#160;&#160;&#160;&#160;&#160;&#160;deck.srcs[srcpath] = knitted</text>
<text text-anchor="middle" x="1633.0964" y="-806.6012" font-family="Inconsolata" font-size="14.00" fill="#000000"> &#160;&#160;&#160;&#160;&#160;&#160;&#160;&#160;&#160;&#160;&#160;codex.srcs[srcpath] = knitted</text>
<text text-anchor="middle" x="1633.0964" y="-791.2011" font-family="Inconsolata" font-size="14.00" fill="#000000"> &#160;&#160;&#160;&#160;&#160;&#160;&#160;end</text>
<text text-anchor="middle" x="1633.0964" y="-759.8011" font-family="Inconsolata" font-size="14.00" fill="#000000"> &#160;&#160;&#160;end</text>
<text text-anchor="middle" x="1633.0964" y="-744.4011" font-family="Inconsolata" font-size="14.00" fill="#000000"> &#160;&#160;&#160;return srcs</text>
<text text-anchor="middle" x="1633.0964" y="-729.001" font-family="Inconsolata" font-size="14.00" fill="#000000">end</text>
<text text-anchor="middle" x="1633.0964" y="-697.601" font-family="Inconsolata" font-size="14.00" fill="#000000">local function writeOnChange(out_file, newest)</text>
<text text-anchor="middle" x="1633.0964" y="-682.201" font-family="Inconsolata" font-size="14.00" fill="#000000"> &#160;&#160;&#160;newest = tostring(newest)</text>
<text text-anchor="middle" x="1633.0964" y="-666.8009" font-family="Inconsolata" font-size="14.00" fill="#000000"> &#160;&#160;&#160;out_file = tostring(out_file)</text>
<text text-anchor="middle" x="1633.0964" y="-651.4009" font-family="Inconsolata" font-size="14.00" fill="#000000"> &#160;&#160;&#160;local current = read(tostring(out_file))</text>
<text text-anchor="middle" x="1633.0964" y="-636.0009" font-family="Inconsolata" font-size="14.00" fill="#000000"> &#160;&#160;&#160;&#45;&#45; If the text has changed, write it</text>
<text text-anchor="middle" x="1633.0964" y="-620.6008" font-family="Inconsolata" font-size="14.00" fill="#000000"> &#160;&#160;&#160;if newest ~= current then</text>
<text text-anchor="middle" x="1633.0964" y="-605.2008" font-family="Inconsolata" font-size="14.00" fill="#000000"> &#160;&#160;&#160;&#160;&#160;&#160;&#160;s:chat(a.green(&quot; &#160;&#45; &quot; .. tostring(out_file)))</text>
<text text-anchor="middle" x="1633.0964" y="-589.8008" font-family="Inconsolata" font-size="14.00" fill="#000000"> &#160;&#160;&#160;&#160;&#160;&#160;&#160;write(out_file, newest)</text>
<text text-anchor="middle" x="1633.0964" y="-574.4007" font-family="Inconsolata" font-size="14.00" fill="#000000"> &#160;&#160;&#160;&#160;&#160;&#160;&#160;return true</text>
<text text-anchor="middle" x="1633.0964" y="-559.0007" font-family="Inconsolata" font-size="14.00" fill="#000000"> &#160;&#160;&#160;&#45;&#45; If the new text is blank, delete the old file</text>
<text text-anchor="middle" x="1633.0964" y="-543.6007" font-family="Inconsolata" font-size="14.00" fill="#000000"> &#160;&#160;&#160;elseif current ~= &quot;&quot; and newest == &quot;&quot; then</text>
<text text-anchor="middle" x="1633.0964" y="-528.2007" font-family="Inconsolata" font-size="14.00" fill="#000000"> &#160;&#160;&#160;&#160;&#160;&#160;&#160;s:chat(a.red(&quot; &#160;&#45; &quot; .. tostring(out_file)))</text>
<text text-anchor="middle" x="1633.0964" y="-512.8006" font-family="Inconsolata" font-size="14.00" fill="#000000"> &#160;&#160;&#160;&#160;&#160;&#160;&#160;delete(out_file)</text>
<text text-anchor="middle" x="1633.0964" y="-497.4006" font-family="Inconsolata" font-size="14.00" fill="#000000"> &#160;&#160;&#160;&#160;&#160;&#160;&#160;return false</text>
<text text-anchor="middle" x="1633.0964" y="-482.0006" font-family="Inconsolata" font-size="14.00" fill="#000000"> &#160;&#160;&#160;else</text>
<text text-anchor="middle" x="1633.0964" y="-466.6005" font-family="Inconsolata" font-size="14.00" fill="#000000"> &#160;&#160;&#160;&#45;&#45; Otherwise do nothing</text>
<text text-anchor="middle" x="1633.0964" y="-435.2005" font-family="Inconsolata" font-size="14.00" fill="#000000"> &#160;&#160;&#160;&#160;&#160;&#160;&#160;return nil</text>
<text text-anchor="middle" x="1633.0964" y="-419.8005" font-family="Inconsolata" font-size="14.00" fill="#000000"> &#160;&#160;&#160;end</text>
<text text-anchor="middle" x="1633.0964" y="-404.4004" font-family="Inconsolata" font-size="14.00" fill="#000000">end</text>
<text text-anchor="middle" x="1633.0964" y="-373.0004" font-family="Inconsolata" font-size="14.00" fill="#000000">local function knitCodex(codex)</text>
<text text-anchor="middle" x="1633.0964" y="-357.6004" font-family="Inconsolata" font-size="14.00" fill="#000000"> &#160;&#160;&#160;local orb = codex.orb</text>
<text text-anchor="middle" x="1633.0964" y="-342.2003" font-family="Inconsolata" font-size="14.00" fill="#000000"> &#160;&#160;&#160;local src = codex.src</text>
<text text-anchor="middle" x="1633.0964" y="-326.8003" font-family="Inconsolata" font-size="14.00" fill="#000000"> &#160;&#160;&#160;s:chat(&quot;knitting orb directory: &quot; .. tostring(orb))</text>
<text text-anchor="middle" x="1633.0964" y="-311.4003" font-family="Inconsolata" font-size="14.00" fill="#000000"> &#160;&#160;&#160;s:chat(&quot;into src directory: &quot; .. tostring(src))</text>
<text text-anchor="middle" x="1633.0964" y="-296.0002" font-family="Inconsolata" font-size="14.00" fill="#000000"> &#160;&#160;&#160;knitDeck(orb, src)</text>
<text text-anchor="middle" x="1633.0964" y="-280.6002" font-family="Inconsolata" font-size="14.00" fill="#000000"> &#160;&#160;&#160;for name, src in pairs(codex.srcs) do</text>
<text text-anchor="middle" x="1633.0964" y="-265.2002" font-family="Inconsolata" font-size="14.00" fill="#000000"> &#160;&#160;&#160;&#160;&#160;&#160;&#160;writeOnChange(name, src)</text>
<text text-anchor="middle" x="1633.0964" y="-249.8002" font-family="Inconsolata" font-size="14.00" fill="#000000"> &#160;&#160;&#160;end</text>
<text text-anchor="middle" x="1633.0964" y="-234.4001" font-family="Inconsolata" font-size="14.00" fill="#000000">end</text>
<text text-anchor="middle" x="1633.0964" y="-219.0001" font-family="Inconsolata" font-size="14.00" fill="#000000">knitter.knitCodex = knitCodex</text>
<text text-anchor="middle" x="1633.0964" y="-171.6001" font-family="Inconsolata" font-size="14.00" fill="#000000">return knitter</text>
</g>
<!-- codeblock_13&#45;&gt;leaf_37 -->
<g id="edge37" class="edge">
<title>codeblock_13&#45;&gt;leaf_37</title>
<path fill="none" stroke="#000000" stroke-dasharray="5,2" d="M1377.3144,-1369.1874C1392.2454,-1325.2094 1432.1624,-1207.6366 1476.1453,-1078.0883"/>
<polygon fill="#000000" stroke="#000000" points="1479.5539,-1078.9352 1479.4547,-1068.3409 1472.9255,-1076.6848 1479.5539,-1078.9352"/>
</g>
<!-- leaf_16 -->
<g id="node17" class="node">
<title>leaf_16</title>
<polygon fill="none" stroke="#c0c0c0" points="533.5964,-127.6015 188.5964,-127.6015 188.5964,-71.7985 533.5964,-71.7985 533.5964,-127.6015"/>
<text text-anchor="middle" x="361.0964" y="-80.2" font-family="Inconsolata" font-size="14.00" fill="#000000">This is our new interface for knitting matters.</text>
</g>
<!-- raw_15&#45;&gt;leaf_16 -->
<g id="edge16" class="edge">
<title>raw_15&#45;&gt;leaf_16</title>
<path fill="none" stroke="#000000" stroke-dasharray="5,2" d="M719.3119,-597.8061C737.5683,-530.669 791.5039,-292.0827 677.0964,-163.4 671.5361,-157.146 602.1736,-142.8278 529.8499,-129.3475"/>
<polygon fill="#000000" stroke="#000000" points="530.1021,-125.8346 519.6314,-127.4518 528.8252,-132.7172 530.1021,-125.8346"/>
</g>
<!-- leaf_24 -->
<g id="node25" class="node">
<title>leaf_24</title>
<polygon fill="none" stroke="#c0c0c0" points="606.0964,-117.7 552.0964,-117.7 552.0964,-81.7 606.0964,-81.7 606.0964,-117.7"/>
</g>
<!-- prespace_17&#45;&gt;leaf_24 -->
<g id="edge24" class="edge">
<title>prespace_17&#45;&gt;leaf_24</title>
<path fill="none" stroke="#000000" stroke-dasharray="5,2" d="M809.3005,-597.4605C823.574,-530.1077 863.2549,-293.5735 750.0964,-163.4 709.3572,-116.5351 670.7874,-154.8684 615.0964,-127.4 612.8066,-126.2707 610.5203,-124.9839 608.2731,-123.5977"/>
<polygon fill="#000000" stroke="#000000" points="610.1113,-120.615 599.8754,-117.8804 606.1718,-126.4013 610.1113,-120.615"/>
</g>
<!-- leaf_25 -->
<g id="node26" class="node">
<title>leaf_25</title>
<polygon fill="none" stroke="#c0c0c0" points="703.5964,-117.7 624.5964,-117.7 624.5964,-81.7 703.5964,-81.7 703.5964,-117.7"/>
<text text-anchor="middle" x="664.0964" y="-96.2" font-family="Inconsolata" font-size="14.00" fill="#000000">knitCodex</text>
</g>
<!-- literal_18&#45;&gt;leaf_25 -->
<g id="edge25" class="edge">
<title>literal_18&#45;&gt;leaf_25</title>
<path fill="none" stroke="#000000" stroke-dasharray="5,2" d="M905.9496,-597.931C922.8905,-531.2373 972.4842,-294.0223 860.0964,-163.4 816.2258,-112.4116 775.6281,-152.1837 713.0964,-127.4 709.4199,-125.9429 705.6813,-124.2543 701.9921,-122.4437"/>
<polygon fill="#000000" stroke="#000000" points="703.473,-119.2688 692.987,-117.7545 700.24,-125.4775 703.473,-119.2688"/>
</g>
<!-- leaf_26 -->
<g id="node27" class="node">
<title>leaf_26</title>
<polygon fill="none" stroke="#c0c0c0" points="962.0964,-117.7 722.0964,-117.7 722.0964,-81.7 962.0964,-81.7 962.0964,-117.7"/>
<text text-anchor="middle" x="842.0964" y="-96.2" font-family="Inconsolata" font-size="14.00" fill="#000000"> expects a codex which has been </text>
</g>
<!-- raw_19&#45;&gt;leaf_26 -->
<g id="edge26" class="edge">
<title>raw_19&#45;&gt;leaf_26</title>
<path fill="none" stroke="#000000" stroke-dasharray="5,2" d="M980.9569,-597.7162C993.712,-533.1615 1028.8875,-310.114 941.0964,-163.4 930.7299,-146.0758 913.6233,-132.6368 896.5216,-122.6641"/>
<polygon fill="#000000" stroke="#000000" points="898.0632,-119.5176 887.6146,-117.7628 894.6884,-125.6503 898.0632,-119.5176"/>
</g>
<!-- anchortext_27 -->
<g id="node28" class="node">
<title>anchortext_27</title>
<ellipse fill="none" stroke="#000000" cx="1031.0964" cy="-99.7" rx="51.3018" ry="18"/>
<text text-anchor="middle" x="1031.0964" y="-95.5" font-family="Helvetica,sans-Serif" font-size="14.00" fill="#000000">anchortext</text>
</g>
<!-- link_20&#45;&gt;anchortext_27 -->
<g id="edge27" class="edge">
<title>link_20&#45;&gt;anchortext_27</title>
<path fill="none" stroke="#000000" stroke-dasharray="5,2" d="M1048.4663,-597.7352C1045.7908,-521.023 1035.3588,-221.913 1032.0849,-128.0446"/>
<polygon fill="#000000" stroke="#000000" points="1035.5772,-127.7585 1031.7307,-117.8866 1028.5814,-128.0025 1035.5772,-127.7585"/>
</g>
<!-- url_28 -->
<g id="node29" class="node">
<title>url_28</title>
<ellipse fill="none" stroke="#000000" cx="1127.0964" cy="-99.7" rx="27" ry="18"/>
<text text-anchor="middle" x="1127.0964" y="-95.5" font-family="Helvetica,sans-Serif" font-size="14.00" fill="#000000">url</text>
</g>
<!-- link_20&#45;&gt;url_28 -->
<g id="edge28" class="edge">
<title>link_20&#45;&gt;url_28</title>
<path fill="none" stroke="#000000" stroke-dasharray="5,2" d="M1051.8267,-597.7352C1063.4334,-520.9372 1108.7271,-221.2436 1122.86,-127.7304"/>
<polygon fill="#000000" stroke="#000000" points="1126.3545,-128.0298 1124.3882,-117.6191 1119.4331,-126.9837 1126.3545,-128.0298"/>
</g>
<!-- leaf_31 -->
<g id="node32" class="node">
<title>leaf_31</title>
<polygon fill="none" stroke="#c0c0c0" points="1226.0964,-117.7 1172.0964,-117.7 1172.0964,-81.7 1226.0964,-81.7 1226.0964,-117.7"/>
<text text-anchor="middle" x="1199.0964" y="-96.2" font-family="Inconsolata" font-size="14.00" fill="#000000"> and</text>
</g>
<!-- raw_21&#45;&gt;leaf_31 -->
<g id="edge31" class="edge">
<title>raw_21&#45;&gt;leaf_31</title>
<path fill="none" stroke="#000000" stroke-dasharray="5,2" d="M1170.1465,-597.7352C1174.6056,-521.023 1191.9923,-221.913 1197.4487,-128.0446"/>
<polygon fill="#000000" stroke="#000000" points="1200.9529,-128.0729 1198.0392,-117.8866 1193.9647,-127.6666 1200.9529,-128.0729"/>
</g>
<!-- anchortext_32 -->
<g id="node33" class="node">
<title>anchortext_32</title>
<ellipse fill="none" stroke="#000000" cx="1295.0964" cy="-99.7" rx="51.3018" ry="18"/>
<text text-anchor="middle" x="1295.0964" y="-95.5" font-family="Helvetica,sans-Serif" font-size="14.00" fill="#000000">anchortext</text>
</g>
<!-- link_22&#45;&gt;anchortext_32 -->
<g id="edge32" class="edge">
<title>link_22&#45;&gt;anchortext_32</title>
<path fill="none" stroke="#000000" stroke-dasharray="5,2" d="M1277.7264,-597.7352C1280.4019,-521.023 1290.834,-221.913 1294.1078,-128.0446"/>
<polygon fill="#000000" stroke="#000000" points="1297.6113,-128.0025 1294.4621,-117.8866 1290.6155,-127.7585 1297.6113,-128.0025"/>
</g>
<!-- url_33 -->
<g id="node34" class="node">
<title>url_33</title>
<ellipse fill="none" stroke="#000000" cx="1391.0964" cy="-99.7" rx="27" ry="18"/>
<text text-anchor="middle" x="1391.0964" y="-95.5" font-family="Helvetica,sans-Serif" font-size="14.00" fill="#000000">url</text>
</g>
<!-- link_22&#45;&gt;url_33 -->
<g id="edge33" class="edge">
<title>link_22&#45;&gt;url_33</title>
<path fill="none" stroke="#000000" stroke-dasharray="5,2" d="M1273.748,-597.6043C1262.915,-533.5892 1233.9189,-314.4915 1313.0964,-163.4 1314.6795,-160.379 1343.32,-137.3682 1365.4401,-119.8625"/>
<polygon fill="#000000" stroke="#000000" points="1367.8491,-122.42 1373.5286,-113.4761 1363.5112,-116.9261 1367.8491,-122.42"/>
</g>
<!-- leaf_36 -->
<g id="node37" class="node">
<title>leaf_36</title>
<polygon fill="none" stroke="#c0c0c0" points="1490.0964,-117.7 1436.0964,-117.7 1436.0964,-81.7 1490.0964,-81.7 1490.0964,-117.7"/>
<text text-anchor="middle" x="1463.0964" y="-96.2" font-family="Inconsolata" font-size="14.00" fill="#000000">.</text>
</g>
<!-- raw_23&#45;&gt;leaf_36 -->
<g id="edge36" class="edge">
<title>raw_23&#45;&gt;leaf_36</title>
<path fill="none" stroke="#000000" stroke-dasharray="5,2" d="M1345.748,-597.6043C1334.915,-533.5892 1305.9189,-314.4915 1385.0964,-163.4 1386.5536,-160.6193 1410.9347,-140.9025 1432.0546,-124.1317"/>
<polygon fill="#000000" stroke="#000000" points="1434.2691,-126.8426 1439.9347,-117.8898 1429.9227,-121.3554 1434.2691,-126.8426"/>
</g>
<!-- leaf_29 -->
<g id="node30" class="node">
<title>leaf_29</title>
<polygon fill="none" stroke="#c0c0c0" points="1058.0964,-36 1004.0964,-36 1004.0964,0 1058.0964,0 1058.0964,-36"/>
<text text-anchor="middle" x="1031.0964" y="-14.5" font-family="Inconsolata" font-size="14.00" fill="#000000">cased</text>
</g>
<!-- anchortext_27&#45;&gt;leaf_29 -->
<g id="edge29" class="edge">
<title>anchortext_27&#45;&gt;leaf_29</title>
<path fill="none" stroke="#000000" stroke-dasharray="5,2" d="M1031.0964,-81.5681C1031.0964,-71.2023 1031.0964,-57.9747 1031.0964,-46.2729"/>
<polygon fill="#000000" stroke="#000000" points="1034.5965,-46.0812 1031.0964,-36.0812 1027.5965,-46.0812 1034.5965,-46.0812"/>
</g>
<!-- leaf_30 -->
<g id="node31" class="node">
<title>leaf_30</title>
<polygon fill="none" stroke="#c0c0c0" points="1159.5964,-36 1094.5964,-36 1094.5964,0 1159.5964,0 1159.5964,-36"/>
<text text-anchor="middle" x="1127.0964" y="-14.5" font-family="Inconsolata" font-size="14.00" fill="#000000">httk://</text>
</g>
<!-- url_28&#45;&gt;leaf_30 -->
<g id="edge30" class="edge">
<title>url_28&#45;&gt;leaf_30</title>
<path fill="none" stroke="#000000" stroke-dasharray="5,2" d="M1127.0964,-81.5681C1127.0964,-71.2023 1127.0964,-57.9747 1127.0964,-46.2729"/>
<polygon fill="#000000" stroke="#000000" points="1130.5965,-46.0812 1127.0964,-36.0812 1123.5965,-46.0812 1130.5965,-46.0812"/>
</g>
<!-- leaf_34 -->
<g id="node35" class="node">
<title>leaf_34</title>
<polygon fill="none" stroke="#c0c0c0" points="1322.0964,-36 1268.0964,-36 1268.0964,0 1322.0964,0 1322.0964,-36"/>
<text text-anchor="middle" x="1295.0964" y="-14.5" font-family="Inconsolata" font-size="14.00" fill="#000000">spun</text>
</g>
<!-- anchortext_32&#45;&gt;leaf_34 -->
<g id="edge34" class="edge">
<title>anchortext_32&#45;&gt;leaf_34</title>
<path fill="none" stroke="#000000" stroke-dasharray="5,2" d="M1295.0964,-81.5681C1295.0964,-71.2023 1295.0964,-57.9747 1295.0964,-46.2729"/>
<polygon fill="#000000" stroke="#000000" points="1298.5965,-46.0812 1295.0964,-36.0812 1291.5965,-46.0812 1298.5965,-46.0812"/>
</g>
<!-- leaf_35 -->
<g id="node36" class="node">
<title>leaf_35</title>
<polygon fill="none" stroke="#c0c0c0" points="1423.5964,-36 1358.5964,-36 1358.5964,0 1423.5964,0 1423.5964,-36"/>
<text text-anchor="middle" x="1391.0964" y="-14.5" font-family="Inconsolata" font-size="14.00" fill="#000000">httk://</text>
</g>
<!-- url_33&#45;&gt;leaf_35 -->
<g id="edge35" class="edge">
<title>url_33&#45;&gt;leaf_35</title>
<path fill="none" stroke="#000000" stroke-dasharray="5,2" d="M1391.0964,-81.5681C1391.0964,-71.2023 1391.0964,-57.9747 1391.0964,-46.2729"/>
<polygon fill="#000000" stroke="#000000" points="1394.5965,-46.0812 1391.0964,-36.0812 1387.5965,-46.0812 1394.5965,-46.0812"/>
</g>
</g>
</svg>