<?xml version="1.0" encoding="UTF-8" standalone="no"?>
<!DOCTYPE svg PUBLIC "-//W3C//DTD SVG 1.1//EN"
 "http://www.w3.org/Graphics/SVG/1.1/DTD/svg11.dtd">
<!-- Generated by graphviz version 2.40.1 (20161225.0304)
 -->
<!-- Title: lpegNode Pages: 1 -->
<svg width="2033pt" height="1756pt"
 viewBox="0.00 0.00 2033.00 1756.20" xmlns="http://www.w3.org/2000/svg" xmlns:xlink="http://www.w3.org/1999/xlink">
<g id="graph0" class="graph" transform="scale(1 1) rotate(0) translate(4 1752.2023)">
<title>lpegNode</title>
<polygon fill="#ffffff" stroke="transparent" points="-4,4 -4,-1752.2023 2029,-1752.2023 2029,4 -4,4"/>
<!-- doc_0 -->
<g id="node1" class="node">
<title>doc_0</title>
<ellipse fill="none" stroke="#000000" cx="298" cy="-1730.2023" rx="46.9581" ry="18"/>
<text text-anchor="middle" x="298" y="-1726.0023" font-family="Helvetica,sans-Serif" font-size="14.00" fill="#000000">doc &#45; 105</text>
</g>
<!-- section_1 -->
<g id="node2" class="node">
<title>section_1</title>
<ellipse fill="none" stroke="#000000" cx="298" cy="-1658.2023" rx="60.9826" ry="18"/>
<text text-anchor="middle" x="298" y="-1654.0023" font-family="Helvetica,sans-Serif" font-size="14.00" fill="#000000">section: 1&#45;37</text>
</g>
<!-- doc_0&#45;&gt;section_1 -->
<g id="edge1" class="edge">
<title>doc_0&#45;&gt;section_1</title>
<path fill="none" stroke="#000000" stroke-dasharray="5,2" d="M298,-1712.0336C298,-1704.3332 298,-1695.1766 298,-1686.6189"/>
<polygon fill="#000000" stroke="#000000" points="301.5001,-1686.6155 298,-1676.6155 294.5001,-1686.6156 301.5001,-1686.6155"/>
</g>
<!-- header_2 -->
<g id="node3" class="node">
<title>header_2</title>
<ellipse fill="none" stroke="#000000" cx="78" cy="-1586.2023" rx="69.1929" ry="18"/>
<text text-anchor="middle" x="78" y="-1582.0023" font-family="Helvetica,sans-Serif" font-size="14.00" fill="#000000">1 : Knit module</text>
</g>
<!-- section_1&#45;&gt;header_2 -->
<g id="edge2" class="edge">
<title>section_1&#45;&gt;header_2</title>
<path fill="none" stroke="#000000" stroke-dasharray="5,2" d="M257.1353,-1644.8284C221.5089,-1633.1688 169.6115,-1616.1842 130.8367,-1603.4943"/>
<polygon fill="#000000" stroke="#000000" points="131.8719,-1600.1505 121.2793,-1600.3664 129.6946,-1606.8033 131.8719,-1600.1505"/>
</g>
<!-- prose_3 -->
<g id="node4" class="node">
<title>prose_3</title>
<ellipse fill="none" stroke="#000000" cx="237" cy="-1586.2023" rx="32.4585" ry="18"/>
<text text-anchor="middle" x="237" y="-1582.0023" font-family="Helvetica,sans-Serif" font-size="14.00" fill="#000000">prose</text>
</g>
<!-- section_1&#45;&gt;prose_3 -->
<g id="edge3" class="edge">
<title>section_1&#45;&gt;prose_3</title>
<path fill="none" stroke="#000000" stroke-dasharray="5,2" d="M282.9213,-1640.4045C275.3139,-1631.4252 265.9694,-1620.3957 257.7003,-1610.6354"/>
<polygon fill="#000000" stroke="#000000" points="260.2035,-1608.1755 251.0688,-1602.8081 254.8626,-1612.7004 260.2035,-1608.1755"/>
</g>
<!-- codeblock_4 -->
<g id="node5" class="node">
<title>codeblock_4</title>
<ellipse fill="none" stroke="#000000" cx="380" cy="-1586.2023" rx="72.5844" ry="18"/>
<text text-anchor="middle" x="380" y="-1582.0023" font-family="Helvetica,sans-Serif" font-size="14.00" fill="#000000">code block 6&#45;35</text>
</g>
<!-- section_1&#45;&gt;codeblock_4 -->
<g id="edge4" class="edge">
<title>section_1&#45;&gt;codeblock_4</title>
<path fill="none" stroke="#000000" stroke-dasharray="5,2" d="M317.4329,-1641.1393C327.8995,-1631.9491 340.9876,-1620.4571 352.484,-1610.3627"/>
<polygon fill="#000000" stroke="#000000" points="354.9319,-1612.871 360.137,-1603.643 350.3133,-1607.6109 354.9319,-1612.871"/>
</g>
<!-- section_5 -->
<g id="node6" class="node">
<title>section_5</title>
<ellipse fill="none" stroke="#000000" cx="968" cy="-1586.2023" rx="70.655" ry="18"/>
<text text-anchor="middle" x="968" y="-1582.0023" font-family="Helvetica,sans-Serif" font-size="14.00" fill="#000000">section: 38&#45;105</text>
</g>
<!-- section_1&#45;&gt;section_5 -->
<g id="edge5" class="edge">
<title>section_1&#45;&gt;section_5</title>
<path fill="none" stroke="#000000" stroke-dasharray="5,2" d="M355.1238,-1652.0636C475.8701,-1639.0879 757.0229,-1608.8744 892.4424,-1594.3219"/>
<polygon fill="#000000" stroke="#000000" points="893.1554,-1597.7655 902.7241,-1593.217 892.4074,-1590.8056 893.1554,-1597.7655"/>
</g>
<!-- leaf_6 -->
<g id="node7" class="node">
<title>leaf_6</title>
<polygon fill="none" stroke="#c0c0c0" points="114,-1336.202 0,-1336.202 0,-1300.202 114,-1300.202 114,-1336.202"/>
<text text-anchor="middle" x="57" y="-1314.702" font-family="Inconsolata" font-size="14.00" fill="#000000"> * Knit module</text>
</g>
<!-- header_2&#45;&gt;leaf_6 -->
<g id="edge6" class="edge">
<title>header_2&#45;&gt;leaf_6</title>
<path fill="none" stroke="#000000" stroke-dasharray="5,2" d="M76.5895,-1568.2019C73.0116,-1522.541 63.5598,-1401.9171 59.227,-1346.6231"/>
<polygon fill="#000000" stroke="#000000" points="62.7026,-1346.1729 58.432,-1336.4769 55.724,-1346.7198 62.7026,-1346.1729"/>
</g>
<!-- raw_7 -->
<g id="node8" class="node">
<title>raw_7</title>
<ellipse fill="none" stroke="#000000" cx="159" cy="-1318.202" rx="27" ry="18"/>
<text text-anchor="middle" x="159" y="-1314.002" font-family="Helvetica,sans-Serif" font-size="14.00" fill="#000000">raw</text>
</g>
<!-- prose_3&#45;&gt;raw_7 -->
<g id="edge7" class="edge">
<title>prose_3&#45;&gt;raw_7</title>
<path fill="none" stroke="#000000" stroke-dasharray="5,2" d="M221.0045,-1570.1086C211.9427,-1560.043 201.209,-1546.3387 195,-1532.2023 167.5434,-1469.6902 160.9195,-1388.4408 159.3924,-1346.3097"/>
<polygon fill="#000000" stroke="#000000" points="162.8887,-1346.1286 159.0991,-1336.2347 155.8917,-1346.3324 162.8887,-1346.1286"/>
</g>
<!-- leaf_9 -->
<g id="node10" class="node">
<title>leaf_9</title>
<polygon fill="none" stroke="#c0c0c0" points="717.5,-1532.2026 204.5,-1532.2026 204.5,-1104.2013 717.5,-1104.2013 717.5,-1532.2026"/>
<text text-anchor="middle" x="461" y="-1517.0023" font-family="Inconsolata" font-size="14.00" fill="#000000">local L = require &quot;lpeg&quot;</text>
<text text-anchor="middle" x="461" y="-1485.6022" font-family="Inconsolata" font-size="14.00" fill="#000000">local s = require &quot;status&quot; ()</text>
<text text-anchor="middle" x="461" y="-1470.2022" font-family="Inconsolata" font-size="14.00" fill="#000000">local a = require &quot;ansi&quot;</text>
<text text-anchor="middle" x="461" y="-1454.8022" font-family="Inconsolata" font-size="14.00" fill="#000000">s.chatty = true</text>
<text text-anchor="middle" x="461" y="-1439.4022" font-family="Inconsolata" font-size="14.00" fill="#000000">s.verbose = false</text>
<text text-anchor="middle" x="461" y="-1408.0021" font-family="Inconsolata" font-size="14.00" fill="#000000">local pl_file = require &quot;pl.file&quot;</text>
<text text-anchor="middle" x="461" y="-1392.6021" font-family="Inconsolata" font-size="14.00" fill="#000000">local pl_dir = require &quot;pl.dir&quot;</text>
<text text-anchor="middle" x="461" y="-1377.2021" font-family="Inconsolata" font-size="14.00" fill="#000000">local pl_path = require &quot;pl.path&quot;</text>
<text text-anchor="middle" x="461" y="-1361.802" font-family="Inconsolata" font-size="14.00" fill="#000000">local read, write, delete = pl_file.read, pl_file.write, pl_file.delete</text>
<text text-anchor="middle" x="461" y="-1314.402" font-family="Inconsolata" font-size="14.00" fill="#000000">local knitter = require &quot;knit/knitter&quot;</text>
<text text-anchor="middle" x="461" y="-1283.002" font-family="Inconsolata" font-size="14.00" fill="#000000">local Dir = require &quot;walk/directory&quot;</text>
<text text-anchor="middle" x="461" y="-1267.6019" font-family="Inconsolata" font-size="14.00" fill="#000000">local Path = require &quot;walk/path&quot;</text>
<text text-anchor="middle" x="461" y="-1252.2019" font-family="Inconsolata" font-size="14.00" fill="#000000">local File = require &quot;walk/File&quot;</text>
<text text-anchor="middle" x="461" y="-1220.8019" font-family="Inconsolata" font-size="14.00" fill="#000000">local walk = require &quot;walk&quot; &#45;&#45; factoring this out</text>
<text text-anchor="middle" x="461" y="-1205.4018" font-family="Inconsolata" font-size="14.00" fill="#000000">local strHas = walk.strHas</text>
<text text-anchor="middle" x="461" y="-1190.0018" font-family="Inconsolata" font-size="14.00" fill="#000000">local endsWith = walk.endsWith</text>
<text text-anchor="middle" x="461" y="-1174.6018" font-family="Inconsolata" font-size="14.00" fill="#000000">local subLastFor = walk.subLastFor</text>
<text text-anchor="middle" x="461" y="-1159.2017" font-family="Inconsolata" font-size="14.00" fill="#000000">local writeOnChange = walk.writeOnChange</text>
<text text-anchor="middle" x="461" y="-1127.8017" font-family="Inconsolata" font-size="14.00" fill="#000000">local Doc = require &quot;Orbit/doc&quot;</text>
<text text-anchor="middle" x="461" y="-1112.4017" font-family="Inconsolata" font-size="14.00" fill="#000000">local Path = require &quot;walk/path&quot;</text>
</g>
<!-- codeblock_4&#45;&gt;leaf_9 -->
<g id="edge9" class="edge">
<title>codeblock_4&#45;&gt;leaf_9</title>
<path fill="none" stroke="#000000" stroke-dasharray="5,2" d="M385.4404,-1568.2019C387.5859,-1561.1034 390.2789,-1552.1931 393.3602,-1541.9982"/>
<polygon fill="#000000" stroke="#000000" points="396.7516,-1542.8745 396.2945,-1532.2895 390.051,-1540.8493 396.7516,-1542.8745"/>
</g>
<!-- header_10 -->
<g id="node11" class="node">
<title>header_10</title>
<ellipse fill="none" stroke="#000000" cx="827" cy="-1318.202" rx="91.4192" ry="18"/>
<text text-anchor="middle" x="827" y="-1314.002" font-family="Helvetica,sans-Serif" font-size="14.00" fill="#000000">2 : knitCodex(codex)</text>
</g>
<!-- section_5&#45;&gt;header_10 -->
<g id="edge10" class="edge">
<title>section_5&#45;&gt;header_10</title>
<path fill="none" stroke="#000000" stroke-dasharray="5,2" d="M952.9509,-1568.3915C944.7189,-1558.1782 934.667,-1544.8984 927,-1532.2023 888.5168,-1468.476 854.3275,-1387.5203 837.6932,-1345.8142"/>
<polygon fill="#000000" stroke="#000000" points="840.8753,-1344.3431 833.9441,-1336.3301 834.3655,-1346.9165 840.8753,-1344.3431"/>
</g>
<!-- prose_11 -->
<g id="node12" class="node">
<title>prose_11</title>
<ellipse fill="none" stroke="#000000" cx="968" cy="-1318.202" rx="32.4585" ry="18"/>
<text text-anchor="middle" x="968" y="-1314.002" font-family="Helvetica,sans-Serif" font-size="14.00" fill="#000000">prose</text>
</g>
<!-- section_5&#45;&gt;prose_11 -->
<g id="edge11" class="edge">
<title>section_5&#45;&gt;prose_11</title>
<path fill="none" stroke="#000000" stroke-dasharray="5,2" d="M968,-1568.2019C968,-1522.541 968,-1401.9171 968,-1346.6231"/>
<polygon fill="#000000" stroke="#000000" points="971.5001,-1346.4769 968,-1336.4769 964.5001,-1346.477 971.5001,-1346.4769"/>
</g>
<!-- prose_12 -->
<g id="node13" class="node">
<title>prose_12</title>
<ellipse fill="none" stroke="#000000" cx="1166" cy="-1318.202" rx="32.4585" ry="18"/>
<text text-anchor="middle" x="1166" y="-1314.002" font-family="Helvetica,sans-Serif" font-size="14.00" fill="#000000">prose</text>
</g>
<!-- section_5&#45;&gt;prose_12 -->
<g id="edge12" class="edge">
<title>section_5&#45;&gt;prose_12</title>
<path fill="none" stroke="#000000" stroke-dasharray="5,2" d="M981.7409,-1568.2582C989.7379,-1557.7768 999.9879,-1544.2768 1009,-1532.2023 1059.8415,-1464.0842 1118.9305,-1383.0211 1147.9835,-1343.0363"/>
<polygon fill="#000000" stroke="#000000" points="1150.8341,-1345.0675 1153.8786,-1334.9195 1145.1702,-1340.9539 1150.8341,-1345.0675"/>
</g>
<!-- codeblock_13 -->
<g id="node14" class="node">
<title>codeblock_13</title>
<ellipse fill="none" stroke="#000000" cx="1561" cy="-1318.202" rx="82.2579" ry="18"/>
<text text-anchor="middle" x="1561" y="-1314.002" font-family="Helvetica,sans-Serif" font-size="14.00" fill="#000000">code block 45&#45;104</text>
</g>
<!-- section_5&#45;&gt;codeblock_13 -->
<g id="edge13" class="edge">
<title>section_5&#45;&gt;codeblock_13</title>
<path fill="none" stroke="#000000" stroke-dasharray="5,2" d="M1030.5506,-1577.7149C1079.7571,-1569.7106 1149.3923,-1555.4104 1207,-1532.2023 1335.2508,-1480.5346 1470.8216,-1385.5406 1530.1611,-1341.6138"/>
<polygon fill="#000000" stroke="#000000" points="1532.4223,-1344.2939 1538.353,-1335.5145 1528.2419,-1338.6792 1532.4223,-1344.2939"/>
</g>
<!-- leaf_8 -->
<g id="node9" class="node">
<title>leaf_8</title>
<polygon fill="none" stroke="#c0c0c0" points="296.5,-651.702 21.5,-651.702 21.5,-579.8997 296.5,-579.8997 296.5,-651.702"/>
<text text-anchor="middle" x="159" y="-588.3009" font-family="Inconsolata" font-size="14.00" fill="#000000"> This is due for a complete overhaul.</text>
</g>
<!-- raw_7&#45;&gt;leaf_8 -->
<g id="edge8" class="edge">
<title>raw_7&#45;&gt;leaf_8</title>
<path fill="none" stroke="#000000" stroke-dasharray="5,2" d="M159,-1300.1333C159,-1209.2019 159,-800.555 159,-661.9518"/>
<polygon fill="#000000" stroke="#000000" points="162.5001,-661.6793 159,-651.6794 155.5001,-661.6794 162.5001,-661.6793"/>
</g>
<!-- leaf_14 -->
<g id="node15" class="node">
<title>leaf_14</title>
<polygon fill="none" stroke="#c0c0c0" points="821.5,-633.8008 672.5,-633.8008 672.5,-597.8008 821.5,-597.8008 821.5,-633.8008"/>
<text text-anchor="middle" x="747" y="-612.3009" font-family="Inconsolata" font-size="14.00" fill="#000000">** knitCodex(codex)</text>
</g>
<!-- header_10&#45;&gt;leaf_14 -->
<g id="edge14" class="edge">
<title>header_10&#45;&gt;leaf_14</title>
<path fill="none" stroke="#000000" stroke-dasharray="5,2" d="M824.9421,-1300.1333C814.0918,-1204.8682 763.524,-760.8818 750.2161,-644.0385"/>
<polygon fill="#000000" stroke="#000000" points="753.6903,-643.6121 749.081,-634.0725 746.7353,-644.4044 753.6903,-643.6121"/>
</g>
<!-- raw_15 -->
<g id="node16" class="node">
<title>raw_15</title>
<ellipse fill="none" stroke="#000000" cx="867" cy="-615.8008" rx="27" ry="18"/>
<text text-anchor="middle" x="867" y="-611.6008" font-family="Helvetica,sans-Serif" font-size="14.00" fill="#000000">raw</text>
</g>
<!-- prose_11&#45;&gt;raw_15 -->
<g id="edge15" class="edge">
<title>prose_11&#45;&gt;raw_15</title>
<path fill="none" stroke="#000000" stroke-dasharray="5,2" d="M966.9499,-1300.0429C964.2498,-1262.2619 955.1677,-1172.9912 927,-1104.2017 919.7132,-1086.4062 909.2986,-1086.3705 903,-1068.2017 850.1006,-915.6089 858.8337,-717.3375 864.4161,-644.3654"/>
<polygon fill="#000000" stroke="#000000" points="867.9254,-644.3905 865.2421,-634.1411 860.9481,-643.8267 867.9254,-644.3905"/>
</g>
<!-- prespace_17 -->
<g id="node18" class="node">
<title>prespace_17</title>
<ellipse fill="none" stroke="#000000" cx="958" cy="-615.8008" rx="46.4736" ry="18"/>
<text text-anchor="middle" x="958" y="-611.6008" font-family="Helvetica,sans-Serif" font-size="14.00" fill="#000000">prespace</text>
</g>
<!-- prose_12&#45;&gt;prespace_17 -->
<g id="edge17" class="edge">
<title>prose_12&#45;&gt;prespace_17</title>
<path fill="none" stroke="#000000" stroke-dasharray="5,2" d="M1152.3827,-1301.6095C1121.7444,-1263.2622 1047.4564,-1164.3944 1014,-1068.2017 960.7095,-914.9828 956.8556,-717.0879 957.4362,-644.2907"/>
<polygon fill="#000000" stroke="#000000" points="960.9382,-644.1316 957.5546,-634.0916 953.9386,-644.0503 960.9382,-644.1316"/>
</g>
<!-- literal_18 -->
<g id="node19" class="node">
<title>literal_18</title>
<ellipse fill="none" stroke="#000000" cx="1054" cy="-615.8008" rx="31.481" ry="18"/>
<text text-anchor="middle" x="1054" y="-611.6008" font-family="Helvetica,sans-Serif" font-size="14.00" fill="#000000">literal</text>
</g>
<!-- prose_12&#45;&gt;literal_18 -->
<g id="edge18" class="edge">
<title>prose_12&#45;&gt;literal_18</title>
<path fill="none" stroke="#000000" stroke-dasharray="5,2" d="M1159.5479,-1300.2953C1145.1879,-1259.6415 1110.5544,-1157.0058 1094,-1068.2017 1064.4504,-909.6862 1056.5858,-715.732 1054.6174,-644.1133"/>
<polygon fill="#000000" stroke="#000000" points="1058.1152,-643.9788 1054.3588,-634.0722 1051.1176,-644.1591 1058.1152,-643.9788"/>
</g>
<!-- raw_19 -->
<g id="node20" class="node">
<title>raw_19</title>
<ellipse fill="none" stroke="#000000" cx="1130" cy="-615.8008" rx="27" ry="18"/>
<text text-anchor="middle" x="1130" y="-611.6008" font-family="Helvetica,sans-Serif" font-size="14.00" fill="#000000">raw</text>
</g>
<!-- prose_12&#45;&gt;raw_19 -->
<g id="edge19" class="edge">
<title>prose_12&#45;&gt;raw_19</title>
<path fill="none" stroke="#000000" stroke-dasharray="5,2" d="M1165.0739,-1300.1333C1160.1962,-1204.9641 1137.4816,-761.7757 1131.4654,-644.3925"/>
<polygon fill="#000000" stroke="#000000" points="1134.9438,-643.8802 1130.9365,-634.0725 1127.953,-644.2386 1134.9438,-643.8802"/>
</g>
<!-- link_20 -->
<g id="node21" class="node">
<title>link_20</title>
<ellipse fill="none" stroke="#000000" cx="1202" cy="-615.8008" rx="27" ry="18"/>
<text text-anchor="middle" x="1202" y="-611.6008" font-family="Helvetica,sans-Serif" font-size="14.00" fill="#000000">link</text>
</g>
<!-- prose_12&#45;&gt;link_20 -->
<g id="edge20" class="edge">
<title>prose_12&#45;&gt;link_20</title>
<path fill="none" stroke="#000000" stroke-dasharray="5,2" d="M1166.9261,-1300.1333C1171.8038,-1204.9641 1194.5184,-761.7757 1200.5346,-644.3925"/>
<polygon fill="#000000" stroke="#000000" points="1204.047,-644.2386 1201.0635,-634.0725 1197.0562,-643.8802 1204.047,-644.2386"/>
</g>
<!-- raw_21 -->
<g id="node22" class="node">
<title>raw_21</title>
<ellipse fill="none" stroke="#000000" cx="1322" cy="-615.8008" rx="27" ry="18"/>
<text text-anchor="middle" x="1322" y="-611.6008" font-family="Helvetica,sans-Serif" font-size="14.00" fill="#000000">raw</text>
</g>
<!-- prose_12&#45;&gt;raw_21 -->
<g id="edge21" class="edge">
<title>prose_12&#45;&gt;raw_21</title>
<path fill="none" stroke="#000000" stroke-dasharray="5,2" d="M1171.749,-1300.4732C1184.8065,-1259.7678 1217.1782,-1156.3352 1238,-1068.2017 1275.5613,-909.2136 1306.7156,-715.5418 1317.7299,-644.0559"/>
<polygon fill="#000000" stroke="#000000" points="1321.2105,-644.4487 1319.2651,-634.034 1314.2912,-643.3887 1321.2105,-644.4487"/>
</g>
<!-- link_22 -->
<g id="node23" class="node">
<title>link_22</title>
<ellipse fill="none" stroke="#000000" cx="1430" cy="-615.8008" rx="27" ry="18"/>
<text text-anchor="middle" x="1430" y="-611.6008" font-family="Helvetica,sans-Serif" font-size="14.00" fill="#000000">link</text>
</g>
<!-- prose_12&#45;&gt;link_22 -->
<g id="edge22" class="edge">
<title>prose_12&#45;&gt;link_22</title>
<path fill="none" stroke="#000000" stroke-dasharray="5,2" d="M1182.758,-1302.5334C1220.9547,-1265.7353 1314.5195,-1169.2423 1358,-1068.2017 1422.588,-918.1113 1429.88,-717.5452 1430.2416,-644.1935"/>
<polygon fill="#000000" stroke="#000000" points="1433.7417,-643.9295 1430.2493,-633.9269 1426.7417,-643.9242 1433.7417,-643.9295"/>
</g>
<!-- raw_23 -->
<g id="node24" class="node">
<title>raw_23</title>
<ellipse fill="none" stroke="#000000" cx="1502" cy="-615.8008" rx="27" ry="18"/>
<text text-anchor="middle" x="1502" y="-611.6008" font-family="Helvetica,sans-Serif" font-size="14.00" fill="#000000">raw</text>
</g>
<!-- prose_12&#45;&gt;raw_23 -->
<g id="edge23" class="edge">
<title>prose_12&#45;&gt;raw_23</title>
<path fill="none" stroke="#000000" stroke-dasharray="5,2" d="M1190.6729,-1306.4302C1250.4123,-1276.4297 1402.5671,-1190.7223 1466,-1068.2017 1540.751,-923.8201 1518.3847,-718.259 1506.8978,-643.9568"/>
<polygon fill="#000000" stroke="#000000" points="1510.3354,-643.2884 1505.2948,-633.9695 1503.4238,-644.3978 1510.3354,-643.2884"/>
</g>
<!-- leaf_37 -->
<g id="node38" class="node">
<title>leaf_37</title>
<polygon fill="none" stroke="#c0c0c0" points="2025,-1068.1025 1547,-1068.1025 1547,-163.4992 2025,-163.4992 2025,-1068.1025"/>
<text text-anchor="middle" x="1786" y="-1053.0017" font-family="Inconsolata" font-size="14.00" fill="#000000">local function knitDeck(deck)</text>
<text text-anchor="middle" x="1786" y="-1037.6016" font-family="Inconsolata" font-size="14.00" fill="#000000"> &#160;&#160;&#160;local dir = deck.dir</text>
<text text-anchor="middle" x="1786" y="-1022.2016" font-family="Inconsolata" font-size="14.00" fill="#000000"> &#160;&#160;&#160;local codex = deck.codex</text>
<text text-anchor="middle" x="1786" y="-1006.8016" font-family="Inconsolata" font-size="14.00" fill="#000000"> &#160;&#160;&#160;local orbDir = codex.orb</text>
<text text-anchor="middle" x="1786" y="-991.4015" font-family="Inconsolata" font-size="14.00" fill="#000000"> &#160;&#160;&#160;local srcDir = codex.src</text>
<text text-anchor="middle" x="1786" y="-976.0015" font-family="Inconsolata" font-size="14.00" fill="#000000"> &#160;&#160;&#160;for i, sub in ipairs(deck) do</text>
<text text-anchor="middle" x="1786" y="-960.6015" font-family="Inconsolata" font-size="14.00" fill="#000000"> &#160;&#160;&#160;&#160;&#160;&#160;&#160;knitDeck(sub)</text>
<text text-anchor="middle" x="1786" y="-945.2014" font-family="Inconsolata" font-size="14.00" fill="#000000"> &#160;&#160;&#160;end</text>
<text text-anchor="middle" x="1786" y="-929.8014" font-family="Inconsolata" font-size="14.00" fill="#000000"> &#160;&#160;&#160;for name, doc in pairs(deck.docs) do</text>
<text text-anchor="middle" x="1786" y="-914.4014" font-family="Inconsolata" font-size="14.00" fill="#000000"> &#160;&#160;&#160;&#160;&#160;&#160;&#160;local knitted, ext = knitter:knit(doc)</text>
<text text-anchor="middle" x="1786" y="-899.0013" font-family="Inconsolata" font-size="14.00" fill="#000000"> &#160;&#160;&#160;&#160;&#160;&#160;&#160;if knitted then</text>
<text text-anchor="middle" x="1786" y="-883.6013" font-family="Inconsolata" font-size="14.00" fill="#000000"> &#160;&#160;&#160;&#160;&#160;&#160;&#160;&#160;&#160;&#160;&#160;&#45;&#45; add to srcs</text>
<text text-anchor="middle" x="1786" y="-868.2013" font-family="Inconsolata" font-size="14.00" fill="#000000"> &#160;&#160;&#160;&#160;&#160;&#160;&#160;&#160;&#160;&#160;&#160;local srcpath = Path(name):subFor(orbDir, srcDir, ext)</text>
<text text-anchor="middle" x="1786" y="-852.8012" font-family="Inconsolata" font-size="14.00" fill="#000000"> &#160;&#160;&#160;&#160;&#160;&#160;&#160;&#160;&#160;&#160;&#160;s:verb(&quot;knitted: &quot; .. name)</text>
<text text-anchor="middle" x="1786" y="-837.4012" font-family="Inconsolata" font-size="14.00" fill="#000000"> &#160;&#160;&#160;&#160;&#160;&#160;&#160;&#160;&#160;&#160;&#160;s:verb(&quot;into: &#160;&#160;&#160;&quot; .. tostring(srcpath))</text>
<text text-anchor="middle" x="1786" y="-822.0012" font-family="Inconsolata" font-size="14.00" fill="#000000"> &#160;&#160;&#160;&#160;&#160;&#160;&#160;&#160;&#160;&#160;&#160;deck.srcs[srcpath] = knitted</text>
<text text-anchor="middle" x="1786" y="-806.6012" font-family="Inconsolata" font-size="14.00" fill="#000000"> &#160;&#160;&#160;&#160;&#160;&#160;&#160;&#160;&#160;&#160;&#160;codex.srcs[srcpath] = knitted</text>
<text text-anchor="middle" x="1786" y="-791.2011" font-family="Inconsolata" font-size="14.00" fill="#000000"> &#160;&#160;&#160;&#160;&#160;&#160;&#160;end</text>
<text text-anchor="middle" x="1786" y="-759.8011" font-family="Inconsolata" font-size="14.00" fill="#000000"> &#160;&#160;&#160;end</text>
<text text-anchor="middle" x="1786" y="-744.4011" font-family="Inconsolata" font-size="14.00" fill="#000000"> &#160;&#160;&#160;return srcs</text>
<text text-anchor="middle" x="1786" y="-729.001" font-family="Inconsolata" font-size="14.00" fill="#000000">end</text>
<text text-anchor="middle" x="1786" y="-697.601" font-family="Inconsolata" font-size="14.00" fill="#000000">local function writeOnChange(out_file, newest)</text>
<text text-anchor="middle" x="1786" y="-682.201" font-family="Inconsolata" font-size="14.00" fill="#000000"> &#160;&#160;&#160;newest = tostring(newest)</text>
<text text-anchor="middle" x="1786" y="-666.8009" font-family="Inconsolata" font-size="14.00" fill="#000000"> &#160;&#160;&#160;out_file = tostring(out_file)</text>
<text text-anchor="middle" x="1786" y="-651.4009" font-family="Inconsolata" font-size="14.00" fill="#000000"> &#160;&#160;&#160;local current = read(tostring(out_file))</text>
<text text-anchor="middle" x="1786" y="-636.0009" font-family="Inconsolata" font-size="14.00" fill="#000000"> &#160;&#160;&#160;&#45;&#45; If the text has changed, write it</text>
<text text-anchor="middle" x="1786" y="-620.6008" font-family="Inconsolata" font-size="14.00" fill="#000000"> &#160;&#160;&#160;if newest ~= current then</text>
<text text-anchor="middle" x="1786" y="-605.2008" font-family="Inconsolata" font-size="14.00" fill="#000000"> &#160;&#160;&#160;&#160;&#160;&#160;&#160;s:chat(a.green(&quot; &#160;&#45; &quot; .. tostring(out_file)))</text>
<text text-anchor="middle" x="1786" y="-589.8008" font-family="Inconsolata" font-size="14.00" fill="#000000"> &#160;&#160;&#160;&#160;&#160;&#160;&#160;write(out_file, newest)</text>
<text text-anchor="middle" x="1786" y="-574.4007" font-family="Inconsolata" font-size="14.00" fill="#000000"> &#160;&#160;&#160;&#160;&#160;&#160;&#160;return true</text>
<text text-anchor="middle" x="1786" y="-559.0007" font-family="Inconsolata" font-size="14.00" fill="#000000"> &#160;&#160;&#160;&#45;&#45; If the new text is blank, delete the old file</text>
<text text-anchor="middle" x="1786" y="-543.6007" font-family="Inconsolata" font-size="14.00" fill="#000000"> &#160;&#160;&#160;elseif current ~= &quot;&quot; and newest == &quot;&quot; then</text>
<text text-anchor="middle" x="1786" y="-528.2007" font-family="Inconsolata" font-size="14.00" fill="#000000"> &#160;&#160;&#160;&#160;&#160;&#160;&#160;s:chat(a.red(&quot; &#160;&#45; &quot; .. tostring(out_file)))</text>
<text text-anchor="middle" x="1786" y="-512.8006" font-family="Inconsolata" font-size="14.00" fill="#000000"> &#160;&#160;&#160;&#160;&#160;&#160;&#160;delete(out_file)</text>
<text text-anchor="middle" x="1786" y="-497.4006" font-family="Inconsolata" font-size="14.00" fill="#000000"> &#160;&#160;&#160;&#160;&#160;&#160;&#160;return false</text>
<text text-anchor="middle" x="1786" y="-482.0006" font-family="Inconsolata" font-size="14.00" fill="#000000"> &#160;&#160;&#160;else</text>
<text text-anchor="middle" x="1786" y="-466.6005" font-family="Inconsolata" font-size="14.00" fill="#000000"> &#160;&#160;&#160;&#45;&#45; Otherwise do nothing</text>
<text text-anchor="middle" x="1786" y="-435.2005" font-family="Inconsolata" font-size="14.00" fill="#000000"> &#160;&#160;&#160;&#160;&#160;&#160;&#160;return nil</text>
<text text-anchor="middle" x="1786" y="-419.8005" font-family="Inconsolata" font-size="14.00" fill="#000000"> &#160;&#160;&#160;end</text>
<text text-anchor="middle" x="1786" y="-404.4004" font-family="Inconsolata" font-size="14.00" fill="#000000">end</text>
<text text-anchor="middle" x="1786" y="-373.0004" font-family="Inconsolata" font-size="14.00" fill="#000000">local function knitCodex(codex)</text>
<text text-anchor="middle" x="1786" y="-357.6004" font-family="Inconsolata" font-size="14.00" fill="#000000"> &#160;&#160;&#160;local orb = codex.orb</text>
<text text-anchor="middle" x="1786" y="-342.2003" font-family="Inconsolata" font-size="14.00" fill="#000000"> &#160;&#160;&#160;local src = codex.src</text>
<text text-anchor="middle" x="1786" y="-326.8003" font-family="Inconsolata" font-size="14.00" fill="#000000"> &#160;&#160;&#160;s:chat(&quot;knitting orb directory: &quot; .. tostring(orb))</text>
<text text-anchor="middle" x="1786" y="-311.4003" font-family="Inconsolata" font-size="14.00" fill="#000000"> &#160;&#160;&#160;s:chat(&quot;into src directory: &quot; .. tostring(src))</text>
<text text-anchor="middle" x="1786" y="-296.0002" font-family="Inconsolata" font-size="14.00" fill="#000000"> &#160;&#160;&#160;knitDeck(orb, src)</text>
<text text-anchor="middle" x="1786" y="-280.6002" font-family="Inconsolata" font-size="14.00" fill="#000000"> &#160;&#160;&#160;for name, src in pairs(codex.srcs) do</text>
<text text-anchor="middle" x="1786" y="-265.2002" font-family="Inconsolata" font-size="14.00" fill="#000000"> &#160;&#160;&#160;&#160;&#160;&#160;&#160;writeOnChange(name, src)</text>
<text text-anchor="middle" x="1786" y="-249.8002" font-family="Inconsolata" font-size="14.00" fill="#000000"> &#160;&#160;&#160;end</text>
<text text-anchor="middle" x="1786" y="-234.4001" font-family="Inconsolata" font-size="14.00" fill="#000000">end</text>
<text text-anchor="middle" x="1786" y="-219.0001" font-family="Inconsolata" font-size="14.00" fill="#000000">knitter.knitCodex = knitCodex</text>
<text text-anchor="middle" x="1786" y="-171.6001" font-family="Inconsolata" font-size="14.00" fill="#000000">return knitter</text>
</g>
<!-- codeblock_13&#45;&gt;leaf_37 -->
<g id="edge37" class="edge">
<title>codeblock_13&#45;&gt;leaf_37</title>
<path fill="none" stroke="#000000" stroke-dasharray="5,2" d="M1566.7879,-1300.1333C1578.3658,-1263.9898 1606.0229,-1177.6501 1637.936,-1078.0246"/>
<polygon fill="#000000" stroke="#000000" points="1641.3197,-1078.9343 1641.0372,-1068.3432 1634.6534,-1076.7988 1641.3197,-1078.9343"/>
</g>
<!-- leaf_16 -->
<g id="node17" class="node">
<title>leaf_16</title>
<polygon fill="none" stroke="#c0c0c0" points="686.5,-127.6015 341.5,-127.6015 341.5,-71.7985 686.5,-71.7985 686.5,-127.6015"/>
<text text-anchor="middle" x="514" y="-80.2" font-family="Inconsolata" font-size="14.00" fill="#000000">This is our new interface for knitting matters.</text>
</g>
<!-- raw_15&#45;&gt;leaf_16 -->
<g id="edge16" class="edge">
<title>raw_15&#45;&gt;leaf_16</title>
<path fill="none" stroke="#000000" stroke-dasharray="5,2" d="M872.2156,-597.8061C890.4719,-530.669 944.4075,-292.0827 830,-163.4 824.4397,-157.146 755.0772,-142.8278 682.7535,-129.3475"/>
<polygon fill="#000000" stroke="#000000" points="683.0057,-125.8346 672.535,-127.4518 681.7289,-132.7172 683.0057,-125.8346"/>
</g>
<!-- leaf_24 -->
<g id="node25" class="node">
<title>leaf_24</title>
<polygon fill="none" stroke="#c0c0c0" points="759,-117.7 705,-117.7 705,-81.7 759,-81.7 759,-117.7"/>
</g>
<!-- prespace_17&#45;&gt;leaf_24 -->
<g id="edge24" class="edge">
<title>prespace_17&#45;&gt;leaf_24</title>
<path fill="none" stroke="#000000" stroke-dasharray="5,2" d="M962.2041,-597.4605C976.4777,-530.1077 1016.1585,-293.5735 903,-163.4 862.2608,-116.5351 823.691,-154.8684 768,-127.4 765.7103,-126.2707 763.4239,-124.9839 761.1767,-123.5977"/>
<polygon fill="#000000" stroke="#000000" points="763.0149,-120.615 752.7791,-117.8804 759.0754,-126.4013 763.0149,-120.615"/>
</g>
<!-- leaf_25 -->
<g id="node26" class="node">
<title>leaf_25</title>
<polygon fill="none" stroke="#c0c0c0" points="856.5,-117.7 777.5,-117.7 777.5,-81.7 856.5,-81.7 856.5,-117.7"/>
<text text-anchor="middle" x="817" y="-96.2" font-family="Inconsolata" font-size="14.00" fill="#000000">knitCodex</text>
</g>
<!-- literal_18&#45;&gt;leaf_25 -->
<g id="edge25" class="edge">
<title>literal_18&#45;&gt;leaf_25</title>
<path fill="none" stroke="#000000" stroke-dasharray="5,2" d="M1058.8532,-597.931C1075.7942,-531.2373 1125.3879,-294.0223 1013,-163.4 969.1294,-112.4116 928.5317,-152.1837 866,-127.4 862.3236,-125.9429 858.585,-124.2543 854.8958,-122.4437"/>
<polygon fill="#000000" stroke="#000000" points="856.3767,-119.2688 845.8906,-117.7545 853.1436,-125.4775 856.3767,-119.2688"/>
</g>
<!-- leaf_26 -->
<g id="node27" class="node">
<title>leaf_26</title>
<polygon fill="none" stroke="#c0c0c0" points="1115,-117.7 875,-117.7 875,-81.7 1115,-81.7 1115,-117.7"/>
<text text-anchor="middle" x="995" y="-96.2" font-family="Inconsolata" font-size="14.00" fill="#000000"> expects a codex which has been </text>
</g>
<!-- raw_19&#45;&gt;leaf_26 -->
<g id="edge26" class="edge">
<title>raw_19&#45;&gt;leaf_26</title>
<path fill="none" stroke="#000000" stroke-dasharray="5,2" d="M1133.8606,-597.7162C1146.6156,-533.1615 1181.7911,-310.114 1094,-163.4 1083.6335,-146.0758 1066.5269,-132.6368 1049.4252,-122.6641"/>
<polygon fill="#000000" stroke="#000000" points="1050.9668,-119.5176 1040.5183,-117.7628 1047.592,-125.6503 1050.9668,-119.5176"/>
</g>
<!-- anchortext_27 -->
<g id="node28" class="node">
<title>anchortext_27</title>
<ellipse fill="none" stroke="#000000" cx="1184" cy="-99.7" rx="51.3018" ry="18"/>
<text text-anchor="middle" x="1184" y="-95.5" font-family="Helvetica,sans-Serif" font-size="14.00" fill="#000000">anchortext</text>
</g>
<!-- link_20&#45;&gt;anchortext_27 -->
<g id="edge27" class="edge">
<title>link_20&#45;&gt;anchortext_27</title>
<path fill="none" stroke="#000000" stroke-dasharray="5,2" d="M1201.3699,-597.7352C1198.6944,-521.023 1188.2624,-221.913 1184.9886,-128.0446"/>
<polygon fill="#000000" stroke="#000000" points="1188.4808,-127.7585 1184.6343,-117.8866 1181.4851,-128.0025 1188.4808,-127.7585"/>
</g>
<!-- url_28 -->
<g id="node29" class="node">
<title>url_28</title>
<ellipse fill="none" stroke="#000000" cx="1280" cy="-99.7" rx="27" ry="18"/>
<text text-anchor="middle" x="1280" y="-95.5" font-family="Helvetica,sans-Serif" font-size="14.00" fill="#000000">url</text>
</g>
<!-- link_20&#45;&gt;url_28 -->
<g id="edge28" class="edge">
<title>link_20&#45;&gt;url_28</title>
<path fill="none" stroke="#000000" stroke-dasharray="5,2" d="M1204.7303,-597.7352C1216.3371,-520.9372 1261.6307,-221.2436 1275.7637,-127.7304"/>
<polygon fill="#000000" stroke="#000000" points="1279.2581,-128.0298 1277.2918,-117.6191 1272.3367,-126.9837 1279.2581,-128.0298"/>
</g>
<!-- leaf_31 -->
<g id="node32" class="node">
<title>leaf_31</title>
<polygon fill="none" stroke="#c0c0c0" points="1379,-117.7 1325,-117.7 1325,-81.7 1379,-81.7 1379,-117.7"/>
<text text-anchor="middle" x="1352" y="-96.2" font-family="Inconsolata" font-size="14.00" fill="#000000"> and</text>
</g>
<!-- raw_21&#45;&gt;leaf_31 -->
<g id="edge31" class="edge">
<title>raw_21&#45;&gt;leaf_31</title>
<path fill="none" stroke="#000000" stroke-dasharray="5,2" d="M1323.0501,-597.7352C1327.5093,-521.023 1344.896,-221.913 1350.3524,-128.0446"/>
<polygon fill="#000000" stroke="#000000" points="1353.8566,-128.0729 1350.9428,-117.8866 1346.8684,-127.6666 1353.8566,-128.0729"/>
</g>
<!-- anchortext_32 -->
<g id="node33" class="node">
<title>anchortext_32</title>
<ellipse fill="none" stroke="#000000" cx="1448" cy="-99.7" rx="51.3018" ry="18"/>
<text text-anchor="middle" x="1448" y="-95.5" font-family="Helvetica,sans-Serif" font-size="14.00" fill="#000000">anchortext</text>
</g>
<!-- link_22&#45;&gt;anchortext_32 -->
<g id="edge32" class="edge">
<title>link_22&#45;&gt;anchortext_32</title>
<path fill="none" stroke="#000000" stroke-dasharray="5,2" d="M1430.6301,-597.7352C1433.3056,-521.023 1443.7376,-221.913 1447.0114,-128.0446"/>
<polygon fill="#000000" stroke="#000000" points="1450.5149,-128.0025 1447.3657,-117.8866 1443.5192,-127.7585 1450.5149,-128.0025"/>
</g>
<!-- url_33 -->
<g id="node34" class="node">
<title>url_33</title>
<ellipse fill="none" stroke="#000000" cx="1544" cy="-99.7" rx="27" ry="18"/>
<text text-anchor="middle" x="1544" y="-95.5" font-family="Helvetica,sans-Serif" font-size="14.00" fill="#000000">url</text>
</g>
<!-- link_22&#45;&gt;url_33 -->
<g id="edge33" class="edge">
<title>link_22&#45;&gt;url_33</title>
<path fill="none" stroke="#000000" stroke-dasharray="5,2" d="M1426.6517,-597.6043C1415.8186,-533.5892 1386.8225,-314.4915 1466,-163.4 1467.5831,-160.379 1496.2236,-137.3682 1518.3437,-119.8625"/>
<polygon fill="#000000" stroke="#000000" points="1520.7527,-122.42 1526.4322,-113.4761 1516.4148,-116.9261 1520.7527,-122.42"/>
</g>
<!-- leaf_36 -->
<g id="node37" class="node">
<title>leaf_36</title>
<polygon fill="none" stroke="#c0c0c0" points="1643,-117.7 1589,-117.7 1589,-81.7 1643,-81.7 1643,-117.7"/>
<text text-anchor="middle" x="1616" y="-96.2" font-family="Inconsolata" font-size="14.00" fill="#000000">.</text>
</g>
<!-- raw_23&#45;&gt;leaf_36 -->
<g id="edge36" class="edge">
<title>raw_23&#45;&gt;leaf_36</title>
<path fill="none" stroke="#000000" stroke-dasharray="5,2" d="M1498.6517,-597.6043C1487.8186,-533.5892 1458.8225,-314.4915 1538,-163.4 1539.4572,-160.6193 1563.8384,-140.9025 1584.9582,-124.1317"/>
<polygon fill="#000000" stroke="#000000" points="1587.1727,-126.8426 1592.8383,-117.8898 1582.8263,-121.3554 1587.1727,-126.8426"/>
</g>
<!-- leaf_29 -->
<g id="node30" class="node">
<title>leaf_29</title>
<polygon fill="none" stroke="#c0c0c0" points="1211,-36 1157,-36 1157,0 1211,0 1211,-36"/>
<text text-anchor="middle" x="1184" y="-14.5" font-family="Inconsolata" font-size="14.00" fill="#000000">cased</text>
</g>
<!-- anchortext_27&#45;&gt;leaf_29 -->
<g id="edge29" class="edge">
<title>anchortext_27&#45;&gt;leaf_29</title>
<path fill="none" stroke="#000000" stroke-dasharray="5,2" d="M1184,-81.5681C1184,-71.2023 1184,-57.9747 1184,-46.2729"/>
<polygon fill="#000000" stroke="#000000" points="1187.5001,-46.0812 1184,-36.0812 1180.5001,-46.0812 1187.5001,-46.0812"/>
</g>
<!-- leaf_30 -->
<g id="node31" class="node">
<title>leaf_30</title>
<polygon fill="none" stroke="#c0c0c0" points="1312.5,-36 1247.5,-36 1247.5,0 1312.5,0 1312.5,-36"/>
<text text-anchor="middle" x="1280" y="-14.5" font-family="Inconsolata" font-size="14.00" fill="#000000">httk://</text>
</g>
<!-- url_28&#45;&gt;leaf_30 -->
<g id="edge30" class="edge">
<title>url_28&#45;&gt;leaf_30</title>
<path fill="none" stroke="#000000" stroke-dasharray="5,2" d="M1280,-81.5681C1280,-71.2023 1280,-57.9747 1280,-46.2729"/>
<polygon fill="#000000" stroke="#000000" points="1283.5001,-46.0812 1280,-36.0812 1276.5001,-46.0812 1283.5001,-46.0812"/>
</g>
<!-- leaf_34 -->
<g id="node35" class="node">
<title>leaf_34</title>
<polygon fill="none" stroke="#c0c0c0" points="1475,-36 1421,-36 1421,0 1475,0 1475,-36"/>
<text text-anchor="middle" x="1448" y="-14.5" font-family="Inconsolata" font-size="14.00" fill="#000000">spun</text>
</g>
<!-- anchortext_32&#45;&gt;leaf_34 -->
<g id="edge34" class="edge">
<title>anchortext_32&#45;&gt;leaf_34</title>
<path fill="none" stroke="#000000" stroke-dasharray="5,2" d="M1448,-81.5681C1448,-71.2023 1448,-57.9747 1448,-46.2729"/>
<polygon fill="#000000" stroke="#000000" points="1451.5001,-46.0812 1448,-36.0812 1444.5001,-46.0812 1451.5001,-46.0812"/>
</g>
<!-- leaf_35 -->
<g id="node36" class="node">
<title>leaf_35</title>
<polygon fill="none" stroke="#c0c0c0" points="1576.5,-36 1511.5,-36 1511.5,0 1576.5,0 1576.5,-36"/>
<text text-anchor="middle" x="1544" y="-14.5" font-family="Inconsolata" font-size="14.00" fill="#000000">httk://</text>
</g>
<!-- url_33&#45;&gt;leaf_35 -->
<g id="edge35" class="edge">
<title>url_33&#45;&gt;leaf_35</title>
<path fill="none" stroke="#000000" stroke-dasharray="5,2" d="M1544,-81.5681C1544,-71.2023 1544,-57.9747 1544,-46.2729"/>
<polygon fill="#000000" stroke="#000000" points="1547.5001,-46.0812 1544,-36.0812 1540.5001,-46.0812 1547.5001,-46.0812"/>
</g>
</g>
</svg>