<?xml version="1.0" encoding="UTF-8" standalone="no"?>
<!DOCTYPE svg PUBLIC "-//W3C//DTD SVG 1.1//EN"
 "http://www.w3.org/Graphics/SVG/1.1/DTD/svg11.dtd">
<!-- Generated by graphviz version 2.40.1 (20161225.0304)
 -->
<!-- Title: hierarchy Pages: 1 -->
<svg width="451pt" height="294pt"
 viewBox="0.00 0.00 450.50 294.20" xmlns="http://www.w3.org/2000/svg" xmlns:xlink="http://www.w3.org/1999/xlink">
<g id="graph0" class="graph" transform="scale(1 1) rotate(0) translate(4 290.2001)">
<title>hierarchy</title>
<polygon fill="#ffffff" stroke="transparent" points="-4,4 -4,-290.2001 446.5,-290.2001 446.5,4 -4,4"/>
<!-- doc_0 -->
<g id="node1" class="node">
<title>doc_0</title>
<ellipse fill="none" stroke="#000000" cx="118" cy="-268.2001" rx="37.2854" ry="18"/>
<text text-anchor="middle" x="118" y="-264.0001" font-family="Helvetica,sans-Serif" font-size="14.00" fill="#000000">doc &#45; 7</text>
</g>
<!-- section_1 -->
<g id="node2" class="node">
<title>section_1</title>
<ellipse fill="none" stroke="#000000" cx="118" cy="-196.2001" rx="55.6456" ry="18"/>
<text text-anchor="middle" x="118" y="-192.0001" font-family="Helvetica,sans-Serif" font-size="14.00" fill="#000000">section: 1&#45;7</text>
</g>
<!-- doc_0&#45;&gt;section_1 -->
<g id="edge1" class="edge">
<title>doc_0&#45;&gt;section_1</title>
<path fill="none" stroke="#000000" stroke-dasharray="5,2" d="M118,-250.0315C118,-242.331 118,-233.1744 118,-224.6167"/>
<polygon fill="#000000" stroke="#000000" points="121.5001,-224.6133 118,-214.6134 114.5001,-224.6134 121.5001,-224.6133"/>
</g>
<!-- header_2 -->
<g id="node3" class="node">
<title>header_2</title>
<ellipse fill="none" stroke="#000000" cx="27" cy="-124.2001" rx="27" ry="18"/>
<text text-anchor="middle" x="27" y="-120.0001" font-family="Helvetica,sans-Serif" font-size="14.00" fill="#000000">0 : </text>
</g>
<!-- section_1&#45;&gt;header_2 -->
<g id="edge2" class="edge">
<title>section_1&#45;&gt;header_2</title>
<path fill="none" stroke="#000000" stroke-dasharray="5,2" d="M96.894,-179.5009C83.763,-169.1115 66.7835,-155.6771 52.8483,-144.6515"/>
<polygon fill="#000000" stroke="#000000" points="54.6405,-141.6065 44.6266,-138.1464 50.2971,-147.0961 54.6405,-141.6065"/>
</g>
<!-- block_3 -->
<g id="node4" class="node">
<title>block_3</title>
<ellipse fill="none" stroke="#000000" cx="118" cy="-124.2001" rx="45.9804" ry="18"/>
<text text-anchor="middle" x="118" y="-120.0001" font-family="Helvetica,sans-Serif" font-size="14.00" fill="#000000">block 1&#45;1</text>
</g>
<!-- section_1&#45;&gt;block_3 -->
<g id="edge3" class="edge">
<title>section_1&#45;&gt;block_3</title>
<path fill="none" stroke="#000000" stroke-dasharray="5,2" d="M118,-178.0315C118,-170.331 118,-161.1744 118,-152.6167"/>
<polygon fill="#000000" stroke="#000000" points="121.5001,-152.6133 118,-142.6134 114.5001,-152.6134 121.5001,-152.6133"/>
</g>
<!-- codeblock_4 -->
<g id="node5" class="node">
<title>codeblock_4</title>
<ellipse fill="none" stroke="#000000" cx="269" cy="-124.2001" rx="67.748" ry="18"/>
<text text-anchor="middle" x="269" y="-120.0001" font-family="Helvetica,sans-Serif" font-size="14.00" fill="#000000">code block 2&#45;7</text>
</g>
<!-- section_1&#45;&gt;codeblock_4 -->
<g id="edge4" class="edge">
<title>section_1&#45;&gt;codeblock_4</title>
<path fill="none" stroke="#000000" stroke-dasharray="5,2" d="M149.2873,-181.2816C171.7307,-170.5801 202.2221,-156.0412 226.8147,-144.3149"/>
<polygon fill="#000000" stroke="#000000" points="228.4022,-147.4356 235.9222,-139.9723 225.3894,-141.1171 228.4022,-147.4356"/>
</g>
<!-- leaf_5 -->
<g id="node6" class="node">
<title>leaf_5</title>
<polygon fill="none" stroke="#c0c0c0" points="54,-53.1 0,-53.1 0,-17.1 54,-17.1 54,-53.1"/>
</g>
<!-- header_2&#45;&gt;leaf_5 -->
<g id="edge5" class="edge">
<title>header_2&#45;&gt;leaf_5</title>
<path fill="none" stroke="#000000" stroke-dasharray="5,2" d="M27,-106.1694C27,-93.8509 27,-77.2793 27,-63.2369"/>
<polygon fill="#000000" stroke="#000000" points="30.5001,-63.1039 27,-53.104 23.5001,-63.104 30.5001,-63.1039"/>
</g>
<!-- leaf_6 -->
<g id="node7" class="node">
<title>leaf_6</title>
<polygon fill="none" stroke="#c0c0c0" points="135,-53.1 81,-53.1 81,-17.1 135,-17.1 135,-53.1"/>
</g>
<!-- block_3&#45;&gt;leaf_6 -->
<g id="edge6" class="edge">
<title>block_3&#45;&gt;leaf_6</title>
<path fill="none" stroke="#000000" stroke-dasharray="5,2" d="M115.9764,-106.1694C114.5938,-93.8509 112.7339,-77.2793 111.1579,-63.2369"/>
<polygon fill="#000000" stroke="#000000" points="114.6142,-62.6512 110.0206,-53.104 107.6579,-63.432 114.6142,-62.6512"/>
</g>
<!-- leaf_7 -->
<g id="node8" class="node">
<title>leaf_7</title>
<polygon fill="none" stroke="#c0c0c0" points="442.5,-70.3004 153.5,-70.3004 153.5,.1003 442.5,.1003 442.5,-70.3004"/>
<text text-anchor="middle" x="298" y="-55.0001" font-family="Inconsolata" font-size="14.00" fill="#000000">local ast_node = require &quot;peg/ast&#45;node&quot;</text>
<text text-anchor="middle" x="298" y="-39.6001" font-family="Inconsolata" font-size="14.00" fill="#000000">local util = require &quot;lib/util&quot;</text>
<text text-anchor="middle" x="298" y="-8.2" font-family="Inconsolata" font-size="14.00" fill="#000000">return util.publish(ast_node)</text>
</g>
<!-- codeblock_4&#45;&gt;leaf_7 -->
<g id="edge7" class="edge">
<title>codeblock_4&#45;&gt;leaf_7</title>
<path fill="none" stroke="#000000" stroke-dasharray="5,2" d="M274.8686,-106.1694C277.3499,-98.5458 280.3614,-89.2933 283.3798,-80.0194"/>
<polygon fill="#000000" stroke="#000000" points="286.739,-81.007 286.5059,-70.4147 280.0827,-78.8405 286.739,-81.007"/>
</g>
</g>
</svg>