<?xml version="1.0" encoding="UTF-8" standalone="no"?>
<!DOCTYPE svg PUBLIC "-//W3C//DTD SVG 1.1//EN"
 "http://www.w3.org/Graphics/SVG/1.1/DTD/svg11.dtd">
<!-- Generated by graphviz version 2.40.1 (20161225.0304)
 -->
<!-- Title: hierarchy Pages: 1 -->
<svg width="429pt" height="294pt"
 viewBox="0.00 0.00 428.50 294.20" xmlns="http://www.w3.org/2000/svg" xmlns:xlink="http://www.w3.org/1999/xlink">
<g id="graph0" class="graph" transform="scale(1 1) rotate(0) translate(4 290.2001)">
<title>hierarchy</title>
<polygon fill="#ffffff" stroke="transparent" points="-4,4 -4,-290.2001 424.5,-290.2001 424.5,4 -4,4"/>
<!-- doc_0 -->
<g id="node1" class="node">
<title>doc_0</title>
<ellipse fill="none" stroke="#000000" cx="104" cy="-268.2001" rx="37.2854" ry="18"/>
<text text-anchor="middle" x="104" y="-264.0001" font-family="Helvetica,sans-Serif" font-size="14.00" fill="#000000">doc &#45; 7</text>
</g>
<!-- section_1 -->
<g id="node2" class="node">
<title>section_1</title>
<ellipse fill="none" stroke="#000000" cx="104" cy="-196.2001" rx="55.6456" ry="18"/>
<text text-anchor="middle" x="104" y="-192.0001" font-family="Helvetica,sans-Serif" font-size="14.00" fill="#000000">section: 1&#45;7</text>
</g>
<!-- doc_0&#45;&gt;section_1 -->
<g id="edge1" class="edge">
<title>doc_0&#45;&gt;section_1</title>
<path fill="none" stroke="#000000" stroke-dasharray="5,2" d="M104,-250.0315C104,-242.331 104,-233.1744 104,-224.6167"/>
<polygon fill="#000000" stroke="#000000" points="107.5001,-224.6133 104,-214.6134 100.5001,-224.6134 107.5001,-224.6133"/>
</g>
<!-- header_2 -->
<g id="node3" class="node">
<title>header_2</title>
<ellipse fill="none" stroke="#000000" cx="27" cy="-124.2001" rx="27" ry="18"/>
<text text-anchor="middle" x="27" y="-120.0001" font-family="Helvetica,sans-Serif" font-size="14.00" fill="#000000">0 : </text>
</g>
<!-- section_1&#45;&gt;header_2 -->
<g id="edge2" class="edge">
<title>section_1&#45;&gt;header_2</title>
<path fill="none" stroke="#000000" stroke-dasharray="5,2" d="M85.7521,-179.1371C75.1287,-169.2035 61.6294,-156.5808 50.2501,-145.9405"/>
<polygon fill="#000000" stroke="#000000" points="52.467,-143.2217 42.7723,-138.9482 47.686,-148.3347 52.467,-143.2217"/>
</g>
<!-- prose_3 -->
<g id="node4" class="node">
<title>prose_3</title>
<ellipse fill="none" stroke="#000000" cx="104" cy="-124.2001" rx="32.4585" ry="18"/>
<text text-anchor="middle" x="104" y="-120.0001" font-family="Helvetica,sans-Serif" font-size="14.00" fill="#000000">prose</text>
</g>
<!-- section_1&#45;&gt;prose_3 -->
<g id="edge3" class="edge">
<title>section_1&#45;&gt;prose_3</title>
<path fill="none" stroke="#000000" stroke-dasharray="5,2" d="M104,-178.0315C104,-170.331 104,-161.1744 104,-152.6167"/>
<polygon fill="#000000" stroke="#000000" points="107.5001,-152.6133 104,-142.6134 100.5001,-152.6134 107.5001,-152.6133"/>
</g>
<!-- codeblock_4 -->
<g id="node5" class="node">
<title>codeblock_4</title>
<ellipse fill="none" stroke="#000000" cx="258" cy="-124.2001" rx="67.748" ry="18"/>
<text text-anchor="middle" x="258" y="-120.0001" font-family="Helvetica,sans-Serif" font-size="14.00" fill="#000000">code block 2&#45;7</text>
</g>
<!-- section_1&#45;&gt;codeblock_4 -->
<g id="edge4" class="edge">
<title>section_1&#45;&gt;codeblock_4</title>
<path fill="none" stroke="#000000" stroke-dasharray="5,2" d="M135.9089,-181.2816C158.8763,-170.5436 190.1078,-155.9419 215.2332,-144.195"/>
<polygon fill="#000000" stroke="#000000" points="216.9574,-147.2525 224.5339,-139.8466 213.9927,-140.9114 216.9574,-147.2525"/>
</g>
<!-- leaf_5 -->
<g id="node6" class="node">
<title>leaf_5</title>
<polygon fill="none" stroke="#c0c0c0" points="113,-53.1 59,-53.1 59,-17.1 113,-17.1 113,-53.1"/>
</g>
<!-- prose_3&#45;&gt;leaf_5 -->
<g id="edge5" class="edge">
<title>prose_3&#45;&gt;leaf_5</title>
<path fill="none" stroke="#000000" stroke-dasharray="5,2" d="M100.3574,-106.1694C97.8689,-93.8509 94.5211,-77.2793 91.6842,-63.2369"/>
<polygon fill="#000000" stroke="#000000" points="95.0481,-62.2128 89.6372,-53.104 88.1867,-63.599 95.0481,-62.2128"/>
</g>
<!-- leaf_6 -->
<g id="node7" class="node">
<title>leaf_6</title>
<polygon fill="none" stroke="#c0c0c0" points="420.5,-70.3004 131.5,-70.3004 131.5,.1003 420.5,.1003 420.5,-70.3004"/>
<text text-anchor="middle" x="276" y="-55.0001" font-family="Inconsolata" font-size="14.00" fill="#000000">local ast_node = require &quot;peg/ast&#45;node&quot;</text>
<text text-anchor="middle" x="276" y="-39.6001" font-family="Inconsolata" font-size="14.00" fill="#000000">local util = require &quot;lib/util&quot;</text>
<text text-anchor="middle" x="276" y="-8.2" font-family="Inconsolata" font-size="14.00" fill="#000000">return util.publish(ast_node)</text>
</g>
<!-- codeblock_4&#45;&gt;leaf_6 -->
<g id="edge6" class="edge">
<title>codeblock_4&#45;&gt;leaf_6</title>
<path fill="none" stroke="#000000" stroke-dasharray="5,2" d="M261.6426,-106.1694C263.1665,-98.6261 265.0126,-89.4879 266.8662,-80.3123"/>
<polygon fill="#000000" stroke="#000000" points="270.3161,-80.9098 268.8657,-70.4147 263.4548,-79.5236 270.3161,-80.9098"/>
</g>
</g>
</svg>