<?xml version="1.0" encoding="UTF-8" standalone="no"?>
<!DOCTYPE svg PUBLIC "-//W3C//DTD SVG 1.1//EN"
 "http://www.w3.org/Graphics/SVG/1.1/DTD/svg11.dtd">
<!-- Generated by graphviz version 2.40.1 (20161225.0304)
 -->
<!-- Title: hierarchy Pages: 1 -->
<svg width="419pt" height="366pt"
 viewBox="0.00 0.00 418.50 366.20" xmlns="http://www.w3.org/2000/svg" xmlns:xlink="http://www.w3.org/1999/xlink">
<g id="graph0" class="graph" transform="scale(1 1) rotate(0) translate(4 362.2001)">
<title>hierarchy</title>
<polygon fill="#ffffff" stroke="transparent" points="-4,4 -4,-362.2001 414.5,-362.2001 414.5,4 -4,4"/>
<!-- doc_0 -->
<g id="node1" class="node">
<title>doc_0</title>
<ellipse fill="none" stroke="#000000" cx="118" cy="-340.2001" rx="37.2854" ry="18"/>
<text text-anchor="middle" x="118" y="-336.0001" font-family="Helvetica,sans-Serif" font-size="14.00" fill="#000000">doc &#45; 7</text>
</g>
<!-- section_1 -->
<g id="node2" class="node">
<title>section_1</title>
<ellipse fill="none" stroke="#000000" cx="118" cy="-268.2001" rx="55.6456" ry="18"/>
<text text-anchor="middle" x="118" y="-264.0001" font-family="Helvetica,sans-Serif" font-size="14.00" fill="#000000">section: 1&#45;7</text>
</g>
<!-- doc_0&#45;&gt;section_1 -->
<g id="edge1" class="edge">
<title>doc_0&#45;&gt;section_1</title>
<path fill="none" stroke="#000000" stroke-dasharray="5,2" d="M118,-322.0315C118,-314.331 118,-305.1744 118,-296.6167"/>
<polygon fill="#000000" stroke="#000000" points="121.5001,-296.6133 118,-286.6134 114.5001,-296.6134 121.5001,-296.6133"/>
</g>
<!-- header_2 -->
<g id="node3" class="node">
<title>header_2</title>
<ellipse fill="none" stroke="#000000" cx="27" cy="-196.2001" rx="27" ry="18"/>
<text text-anchor="middle" x="27" y="-192.0001" font-family="Helvetica,sans-Serif" font-size="14.00" fill="#000000">0 : </text>
</g>
<!-- section_1&#45;&gt;header_2 -->
<g id="edge2" class="edge">
<title>section_1&#45;&gt;header_2</title>
<path fill="none" stroke="#000000" stroke-dasharray="5,2" d="M96.894,-251.5009C83.763,-241.1115 66.7835,-227.6771 52.8483,-216.6515"/>
<polygon fill="#000000" stroke="#000000" points="54.6405,-213.6065 44.6266,-210.1464 50.2971,-219.0961 54.6405,-213.6065"/>
</g>
<!-- block_3 -->
<g id="node4" class="node">
<title>block_3</title>
<ellipse fill="none" stroke="#000000" cx="118" cy="-196.2001" rx="45.9804" ry="18"/>
<text text-anchor="middle" x="118" y="-192.0001" font-family="Helvetica,sans-Serif" font-size="14.00" fill="#000000">block 1&#45;1</text>
</g>
<!-- section_1&#45;&gt;block_3 -->
<g id="edge3" class="edge">
<title>section_1&#45;&gt;block_3</title>
<path fill="none" stroke="#000000" stroke-dasharray="5,2" d="M118,-250.0315C118,-242.331 118,-233.1744 118,-224.6167"/>
<polygon fill="#000000" stroke="#000000" points="121.5001,-224.6133 118,-214.6134 114.5001,-224.6134 121.5001,-224.6133"/>
</g>
<!-- block_4 -->
<g id="node5" class="node">
<title>block_4</title>
<ellipse fill="none" stroke="#000000" cx="241" cy="-196.2001" rx="45.9804" ry="18"/>
<text text-anchor="middle" x="241" y="-192.0001" font-family="Helvetica,sans-Serif" font-size="14.00" fill="#000000">block 2&#45;7</text>
</g>
<!-- section_1&#45;&gt;block_4 -->
<g id="edge4" class="edge">
<title>section_1&#45;&gt;block_4</title>
<path fill="none" stroke="#000000" stroke-dasharray="5,2" d="M144.9929,-252.3994C163.0633,-241.8216 187.0103,-227.8038 206.4671,-216.4145"/>
<polygon fill="#000000" stroke="#000000" points="208.4701,-219.2976 215.3322,-211.2252 204.9339,-213.2565 208.4701,-219.2976"/>
</g>
<!-- prose_5 -->
<g id="node6" class="node">
<title>prose_5</title>
<ellipse fill="none" stroke="#000000" cx="112" cy="-124.2001" rx="32.4585" ry="18"/>
<text text-anchor="middle" x="112" y="-120.0001" font-family="Helvetica,sans-Serif" font-size="14.00" fill="#000000">prose</text>
</g>
<!-- block_3&#45;&gt;prose_5 -->
<g id="edge5" class="edge">
<title>block_3&#45;&gt;prose_5</title>
<path fill="none" stroke="#000000" stroke-dasharray="5,2" d="M116.4859,-178.0315C115.8442,-170.331 115.0812,-161.1744 114.3681,-152.6167"/>
<polygon fill="#000000" stroke="#000000" points="117.8529,-152.2881 113.5344,-142.6134 110.8771,-152.8695 117.8529,-152.2881"/>
</g>
<!-- codeblock_7 -->
<g id="node8" class="node">
<title>codeblock_7</title>
<ellipse fill="none" stroke="#000000" cx="248" cy="-124.2001" rx="67.748" ry="18"/>
<text text-anchor="middle" x="248" y="-120.0001" font-family="Helvetica,sans-Serif" font-size="14.00" fill="#000000">code block 2&#45;7</text>
</g>
<!-- block_4&#45;&gt;codeblock_7 -->
<g id="edge7" class="edge">
<title>block_4&#45;&gt;codeblock_7</title>
<path fill="none" stroke="#000000" stroke-dasharray="5,2" d="M242.7664,-178.0315C243.515,-170.331 244.4053,-161.1744 245.2373,-152.6167"/>
<polygon fill="#000000" stroke="#000000" points="248.7256,-152.9051 246.2098,-142.6134 241.7585,-152.2277 248.7256,-152.9051"/>
</g>
<!-- leaf_6 -->
<g id="node7" class="node">
<title>leaf_6</title>
<polygon fill="none" stroke="#c0c0c0" points="103,-53.1 49,-53.1 49,-17.1 103,-17.1 103,-53.1"/>
</g>
<!-- prose_5&#45;&gt;leaf_6 -->
<g id="edge6" class="edge">
<title>prose_5&#45;&gt;leaf_6</title>
<path fill="none" stroke="#000000" stroke-dasharray="5,2" d="M104.8876,-106.5968C99.8262,-94.07 92.9253,-76.9901 87.1376,-62.6655"/>
<polygon fill="#000000" stroke="#000000" points="90.3362,-61.2391 83.3448,-53.2785 83.8459,-63.8615 90.3362,-61.2391"/>
</g>
<!-- leaf_8 -->
<g id="node9" class="node">
<title>leaf_8</title>
<polygon fill="none" stroke="#c0c0c0" points="410.5,-70.3004 121.5,-70.3004 121.5,.1003 410.5,.1003 410.5,-70.3004"/>
<text text-anchor="middle" x="266" y="-55.0001" font-family="Inconsolata" font-size="14.00" fill="#000000">local ast_node = require &quot;peg/ast&#45;node&quot;</text>
<text text-anchor="middle" x="266" y="-39.6001" font-family="Inconsolata" font-size="14.00" fill="#000000">local util = require &quot;lib/util&quot;</text>
<text text-anchor="middle" x="266" y="-8.2" font-family="Inconsolata" font-size="14.00" fill="#000000">return util.publish(ast_node)</text>
</g>
<!-- codeblock_7&#45;&gt;leaf_8 -->
<g id="edge8" class="edge">
<title>codeblock_7&#45;&gt;leaf_8</title>
<path fill="none" stroke="#000000" stroke-dasharray="5,2" d="M251.6426,-106.1694C253.1665,-98.6261 255.0126,-89.4879 256.8662,-80.3123"/>
<polygon fill="#000000" stroke="#000000" points="260.3161,-80.9098 258.8657,-70.4147 253.4548,-79.5236 260.3161,-80.9098"/>
</g>
</g>
</svg>