<?xml version="1.0" encoding="UTF-8" standalone="no"?>
<!DOCTYPE svg PUBLIC "-//W3C//DTD SVG 1.1//EN"
 "http://www.w3.org/Graphics/SVG/1.1/DTD/svg11.dtd">
<!-- Generated by graphviz version 2.40.1 (20161225.0304)
 -->
<!-- Title: hierarchy Pages: 1 -->
<svg width="444pt" height="366pt"
 viewBox="0.00 0.00 443.50 366.20" xmlns="http://www.w3.org/2000/svg" xmlns:xlink="http://www.w3.org/1999/xlink">
<g id="graph0" class="graph" transform="scale(1 1) rotate(0) translate(4 362.2001)">
<title>hierarchy</title>
<polygon fill="#ffffff" stroke="transparent" points="-4,4 -4,-362.2001 439.5,-362.2001 439.5,4 -4,4"/>
<!-- doc_0 -->
<g id="node1" class="espalier/node">
<title>doc_0</title>
<ellipse fill="none" stroke="#000000" cx="104" cy="-340.2001" rx="37.2854" ry="18"/>
<text text-anchor="middle" x="104" y="-336.0001" font-family="Helvetica,sans-Serif" font-size="14.00" fill="#000000">doc &#45; 7</text>
</g>
<!-- section_1 -->
<g id="node2" class="espalier/node">
<title>section_1</title>
<ellipse fill="none" stroke="#000000" cx="104" cy="-268.2001" rx="55.6456" ry="18"/>
<text text-anchor="middle" x="104" y="-264.0001" font-family="Helvetica,sans-Serif" font-size="14.00" fill="#000000">section: 1&#45;7</text>
</g>
<!-- doc_0&#45;&gt;section_1 -->
<g id="edge1" class="edge">
<title>doc_0&#45;&gt;section_1</title>
<path fill="none" stroke="#000000" stroke-dasharray="5,2" d="M104,-322.0315C104,-314.331 104,-305.1744 104,-296.6167"/>
<polygon fill="#000000" stroke="#000000" points="107.5001,-296.6133 104,-286.6134 100.5001,-296.6134 107.5001,-296.6133"/>
</g>
<!-- header_2 -->
<g id="node3" class="espalier/node">
<title>header_2</title>
<ellipse fill="none" stroke="#000000" cx="27" cy="-196.2001" rx="27" ry="18"/>
<text text-anchor="middle" x="27" y="-192.0001" font-family="Helvetica,sans-Serif" font-size="14.00" fill="#000000">0 : </text>
</g>
<!-- section_1&#45;&gt;header_2 -->
<g id="edge2" class="edge">
<title>section_1&#45;&gt;header_2</title>
<path fill="none" stroke="#000000" stroke-dasharray="5,2" d="M85.7521,-251.1371C75.1287,-241.2035 61.6294,-228.5808 50.2501,-217.9405"/>
<polygon fill="#000000" stroke="#000000" points="52.467,-215.2217 42.7723,-210.9482 47.686,-220.3347 52.467,-215.2217"/>
</g>
<!-- prose_3 -->
<g id="node4" class="espalier/node">
<title>prose_3</title>
<ellipse fill="none" stroke="#000000" cx="104" cy="-196.2001" rx="32.4585" ry="18"/>
<text text-anchor="middle" x="104" y="-192.0001" font-family="Helvetica,sans-Serif" font-size="14.00" fill="#000000">prose</text>
</g>
<!-- section_1&#45;&gt;prose_3 -->
<g id="edge3" class="edge">
<title>section_1&#45;&gt;prose_3</title>
<path fill="none" stroke="#000000" stroke-dasharray="5,2" d="M104,-250.0315C104,-242.331 104,-233.1744 104,-224.6167"/>
<polygon fill="#000000" stroke="#000000" points="107.5001,-224.6133 104,-214.6134 100.5001,-224.6134 107.5001,-224.6133"/>
</g>
<!-- codeblock_4 -->
<g id="node5" class="espalier/node">
<title>codeblock_4</title>
<ellipse fill="none" stroke="#000000" cx="255" cy="-196.2001" rx="67.748" ry="18"/>
<text text-anchor="middle" x="255" y="-192.0001" font-family="Helvetica,sans-Serif" font-size="14.00" fill="#000000">code block 2&#45;7</text>
</g>
<!-- section_1&#45;&gt;codeblock_4 -->
<g id="edge4" class="edge">
<title>section_1&#45;&gt;codeblock_4</title>
<path fill="none" stroke="#000000" stroke-dasharray="5,2" d="M135.2873,-253.2816C157.7307,-242.5801 188.2221,-228.0412 212.8147,-216.3149"/>
<polygon fill="#000000" stroke="#000000" points="214.4022,-219.4356 221.9222,-211.9723 211.3894,-213.1171 214.4022,-219.4356"/>
</g>
<!-- leaf_5 -->
<g id="node6" class="espalier/node">
<title>leaf_5</title>
<polygon fill="none" stroke="#c0c0c0" points="54,-125.1 0,-125.1 0,-89.1 54,-89.1 54,-125.1"/>
<text text-anchor="middle" x="27" y="-103.6001" font-family="Inconsolata" font-size="14.00" fill="#000000">#!lua</text>
</g>
<!-- header_2&#45;&gt;leaf_5 -->
<g id="edge5" class="edge">
<title>header_2&#45;&gt;leaf_5</title>
<path fill="none" stroke="#000000" stroke-dasharray="5,2" d="M27,-178.1694C27,-165.8509 27,-149.2793 27,-135.2369"/>
<polygon fill="#000000" stroke="#000000" points="30.5001,-135.1039 27,-125.104 23.5001,-135.104 30.5001,-135.1039"/>
</g>
<!-- raw_6 -->
<g id="node7" class="espalier/node">
<title>raw_6</title>
<ellipse fill="none" stroke="#000000" cx="101" cy="-107.1" rx="27" ry="18"/>
<text text-anchor="middle" x="101" y="-102.9" font-family="Helvetica,sans-Serif" font-size="14.00" fill="#000000">raw</text>
</g>
<!-- prose_3&#45;&gt;raw_6 -->
<g id="edge6" class="edge">
<title>prose_3&#45;&gt;raw_6</title>
<path fill="none" stroke="#000000" stroke-dasharray="5,2" d="M103.3929,-178.1694C102.9781,-165.8509 102.4202,-149.2793 101.9474,-135.2369"/>
<polygon fill="#000000" stroke="#000000" points="105.4408,-134.9805 101.6062,-125.104 98.4448,-135.2161 105.4408,-134.9805"/>
</g>
<!-- leaf_8 -->
<g id="node9" class="espalier/node">
<title>leaf_8</title>
<polygon fill="none" stroke="#c0c0c0" points="435.5,-142.3004 146.5,-142.3004 146.5,-71.8997 435.5,-71.8997 435.5,-142.3004"/>
<text text-anchor="middle" x="291" y="-127.0001" font-family="Inconsolata" font-size="14.00" fill="#000000">local ast_node = require &quot;peg/ast&#45;node&quot;</text>
<text text-anchor="middle" x="291" y="-111.6001" font-family="Inconsolata" font-size="14.00" fill="#000000">local util = require &quot;lib/util&quot;</text>
<text text-anchor="middle" x="291" y="-80.2" font-family="Inconsolata" font-size="14.00" fill="#000000">return util.publish(ast_node)</text>
</g>
<!-- codeblock_4&#45;&gt;leaf_8 -->
<g id="edge8" class="edge">
<title>codeblock_4&#45;&gt;leaf_8</title>
<path fill="none" stroke="#000000" stroke-dasharray="5,2" d="M262.2851,-178.1694C265.3978,-170.4656 269.1825,-161.0983 272.9691,-151.7265"/>
<polygon fill="#000000" stroke="#000000" points="276.2303,-152.9977 276.7315,-142.4147 269.7401,-150.3753 276.2303,-152.9977"/>
</g>
<!-- leaf_7 -->
<g id="node8" class="espalier/node">
<title>leaf_7</title>
<polygon fill="none" stroke="#c0c0c0" points="128,-36 74,-36 74,0 128,0 128,-36"/>
</g>
<!-- raw_6&#45;&gt;leaf_7 -->
<g id="edge7" class="edge">
<title>raw_6&#45;&gt;leaf_7</title>
<path fill="none" stroke="#000000" stroke-dasharray="5,2" d="M101,-89.0693C101,-76.7509 101,-60.1792 101,-46.1369"/>
<polygon fill="#000000" stroke="#000000" points="104.5001,-46.0039 101,-36.0039 97.5001,-46.0039 104.5001,-46.0039"/>
</g>
</g>
</svg>