<?xml version="1.0" encoding="UTF-8" standalone="no"?>
<!DOCTYPE svg PUBLIC "-//W3C//DTD SVG 1.1//EN"
 "http://www.w3.org/Graphics/SVG/1.1/DTD/svg11.dtd">
<!-- Generated by graphviz version 2.40.1 (20161225.0304)
 -->
<!-- Title: hierarchy Pages: 1 -->
<svg width="324pt" height="366pt"
 viewBox="0.00 0.00 323.50 366.20" xmlns="http://www.w3.org/2000/svg" xmlns:xlink="http://www.w3.org/1999/xlink">
<g id="graph0" class="graph" transform="scale(1 1) rotate(0) translate(4 362.2001)">
<title>hierarchy</title>
<polygon fill="#ffffff" stroke="transparent" points="-4,4 -4,-362.2001 319.5,-362.2001 319.5,4 -4,4"/>
<!-- doc_0 -->
<g id="node1" class="node">
<title>doc_0</title>
<ellipse fill="none" stroke="#000000" cx="99" cy="-340.2001" rx="27" ry="18"/>
<text text-anchor="middle" x="99" y="-336.0001" font-family="Helvetica,sans-Serif" font-size="14.00" fill="#000000"> 7 &#160;</text>
</g>
<!-- section_1 -->
<g id="node2" class="node">
<title>section_1</title>
<ellipse fill="none" stroke="#000000" cx="99" cy="-268.2001" rx="27" ry="18"/>
<text text-anchor="middle" x="99" y="-264.0001" font-family="Helvetica,sans-Serif" font-size="14.00" fill="#000000">&#45;7 &#160;</text>
</g>
<!-- doc_0&#45;&gt;section_1 -->
<g id="edge1" class="edge">
<title>doc_0&#45;&gt;section_1</title>
<path fill="none" stroke="#000000" stroke-dasharray="5,2" d="M99,-322.0315C99,-314.331 99,-305.1744 99,-296.6167"/>
<polygon fill="#000000" stroke="#000000" points="102.5001,-296.6133 99,-286.6134 95.5001,-296.6134 102.5001,-296.6133"/>
</g>
<!-- header_2 -->
<g id="node3" class="node">
<title>header_2</title>
<ellipse fill="none" stroke="#000000" cx="27" cy="-196.2001" rx="27" ry="18"/>
<text text-anchor="middle" x="27" y="-192.0001" font-family="Helvetica,sans-Serif" font-size="14.00" fill="#000000">: &#160;&#160;</text>
</g>
<!-- section_1&#45;&gt;header_2 -->
<g id="edge2" class="edge">
<title>section_1&#45;&gt;header_2</title>
<path fill="none" stroke="#000000" stroke-dasharray="5,2" d="M83.7307,-252.9307C73.803,-243.0031 60.6847,-229.8848 49.5637,-218.7638"/>
<polygon fill="#000000" stroke="#000000" points="51.7933,-216.0436 42.2473,-211.4474 46.8436,-220.9934 51.7933,-216.0436"/>
</g>
<!-- block_3 -->
<g id="node4" class="node">
<title>block_3</title>
<ellipse fill="none" stroke="#000000" cx="99" cy="-196.2001" rx="27" ry="18"/>
<text text-anchor="middle" x="99" y="-192.0001" font-family="Helvetica,sans-Serif" font-size="14.00" fill="#000000">&#45;1 &#160;</text>
</g>
<!-- section_1&#45;&gt;block_3 -->
<g id="edge3" class="edge">
<title>section_1&#45;&gt;block_3</title>
<path fill="none" stroke="#000000" stroke-dasharray="5,2" d="M99,-250.0315C99,-242.331 99,-233.1744 99,-224.6167"/>
<polygon fill="#000000" stroke="#000000" points="102.5001,-224.6133 99,-214.6134 95.5001,-224.6134 102.5001,-224.6133"/>
</g>
<!-- block_4 -->
<g id="node5" class="node">
<title>block_4</title>
<ellipse fill="none" stroke="#000000" cx="171" cy="-196.2001" rx="27" ry="18"/>
<text text-anchor="middle" x="171" y="-192.0001" font-family="Helvetica,sans-Serif" font-size="14.00" fill="#000000">&#45;7 &#160;</text>
</g>
<!-- section_1&#45;&gt;block_4 -->
<g id="edge4" class="edge">
<title>section_1&#45;&gt;block_4</title>
<path fill="none" stroke="#000000" stroke-dasharray="5,2" d="M114.2693,-252.9307C124.197,-243.0031 137.3153,-229.8848 148.4363,-218.7638"/>
<polygon fill="#000000" stroke="#000000" points="151.1564,-220.9934 155.7527,-211.4474 146.2067,-216.0436 151.1564,-220.9934"/>
</g>
<!-- leaf_5 -->
<g id="node6" class="node">
<title>leaf_5</title>
<polygon fill="none" stroke="#c0c0c0" points="126,-142.2001 72,-142.2001 72,-106.2001 126,-106.2001 126,-142.2001"/>
</g>
<!-- block_3&#45;&gt;leaf_5 -->
<g id="edge5" class="edge">
<title>block_3&#45;&gt;leaf_5</title>
<path fill="none" stroke="#000000" stroke-dasharray="5,2" d="M99,-178.0315C99,-170.331 99,-161.1744 99,-152.6167"/>
<polygon fill="#000000" stroke="#000000" points="102.5001,-152.6133 99,-142.6134 95.5001,-152.6134 102.5001,-152.6133"/>
</g>
<!-- codeblock_6 -->
<g id="node7" class="node">
<title>codeblock_6</title>
<ellipse fill="none" stroke="#000000" cx="171" cy="-124.2001" rx="27" ry="18"/>
<text text-anchor="middle" x="171" y="-120.0001" font-family="Helvetica,sans-Serif" font-size="14.00" fill="#000000">&#45;7 &#160;</text>
</g>
<!-- block_4&#45;&gt;codeblock_6 -->
<g id="edge6" class="edge">
<title>block_4&#45;&gt;codeblock_6</title>
<path fill="none" stroke="#000000" stroke-dasharray="5,2" d="M171,-178.0315C171,-170.331 171,-161.1744 171,-152.6167"/>
<polygon fill="#000000" stroke="#000000" points="174.5001,-152.6133 171,-142.6134 167.5001,-152.6134 174.5001,-152.6133"/>
</g>
<!-- leaf_8 -->
<g id="node9" class="node">
<title>leaf_8</title>
<polygon fill="none" stroke="#c0c0c0" points="270,-142.2001 216,-142.2001 216,-106.2001 270,-106.2001 270,-142.2001"/>
</g>
<!-- block_4&#45;&gt;leaf_8 -->
<g id="edge8" class="edge">
<title>block_4&#45;&gt;leaf_8</title>
<path fill="none" stroke="#000000" stroke-dasharray="5,2" d="M186.2693,-180.9307C195.3708,-171.8293 207.1539,-160.0462 217.6212,-149.5789"/>
<polygon fill="#000000" stroke="#000000" points="220.3571,-151.7928 224.9533,-142.2468 215.4073,-146.843 220.3571,-151.7928"/>
</g>
<!-- leaf_7 -->
<g id="node8" class="node">
<title>leaf_7</title>
<polygon fill="none" stroke="#c0c0c0" points="315.5,-70.3004 26.5,-70.3004 26.5,.1003 315.5,.1003 315.5,-70.3004"/>
<text text-anchor="middle" x="171" y="-55.0001" font-family="Inconsolata" font-size="14.00" fill="#000000">local ast_node = require &quot;peg/ast&#45;node&quot;</text>
<text text-anchor="middle" x="171" y="-39.6001" font-family="Inconsolata" font-size="14.00" fill="#000000">local util = require &quot;lib/util&quot;</text>
<text text-anchor="middle" x="171" y="-8.2" font-family="Inconsolata" font-size="14.00" fill="#000000">return util.publish(ast_node)</text>
</g>
<!-- codeblock_6&#45;&gt;leaf_7 -->
<g id="edge7" class="edge">
<title>codeblock_6&#45;&gt;leaf_7</title>
<path fill="none" stroke="#000000" stroke-dasharray="5,2" d="M171,-106.1694C171,-98.7063 171,-89.6821 171,-80.6051"/>
<polygon fill="#000000" stroke="#000000" points="174.5001,-80.4147 171,-70.4147 167.5001,-80.4148 174.5001,-80.4147"/>
</g>
</g>
</svg>