<?xml version="1.0" encoding="UTF-8" standalone="no"?>
<!DOCTYPE svg PUBLIC "-//W3C//DTD SVG 1.1//EN"
 "http://www.w3.org/Graphics/SVG/1.1/DTD/svg11.dtd">
<!-- Generated by graphviz version 2.40.1 (20161225.0304)
 -->
<!-- Title: hierarchy Pages: 1 -->
<svg width="429pt" height="366pt"
 viewBox="0.00 0.00 428.50 366.20" xmlns="http://www.w3.org/2000/svg" xmlns:xlink="http://www.w3.org/1999/xlink">
<g id="graph0" class="graph" transform="scale(1 1) rotate(0) translate(4 362.2001)">
<title>hierarchy</title>
<polygon fill="#ffffff" stroke="transparent" points="-4,4 -4,-362.2001 424.5,-362.2001 424.5,4 -4,4"/>
<!-- doc_0 -->
<g id="node1" class="node">
<title>doc_0</title>
<ellipse fill="none" stroke="#000000" cx="104" cy="-340.2001" rx="37.2854" ry="18"/>
<text text-anchor="middle" x="104" y="-336.0001" font-family="Helvetica,sans-Serif" font-size="14.00" fill="#000000">doc &#45; 7</text>
</g>
<!-- section_1 -->
<g id="node2" class="node">
<title>section_1</title>
<ellipse fill="none" stroke="#000000" cx="104" cy="-268.2001" rx="55.6456" ry="18"/>
<text text-anchor="middle" x="104" y="-264.0001" font-family="Helvetica,sans-Serif" font-size="14.00" fill="#000000">section: 1&#45;7</text>
</g>
<!-- doc_0&#45;&gt;section_1 -->
<g id="edge1" class="edge">
<title>doc_0&#45;&gt;section_1</title>
<path fill="none" stroke="#000000" stroke-dasharray="5,2" d="M104,-322.0315C104,-314.331 104,-305.1744 104,-296.6167"/>
<polygon fill="#000000" stroke="#000000" points="107.5001,-296.6133 104,-286.6134 100.5001,-296.6134 107.5001,-296.6133"/>
</g>
<!-- header_2 -->
<g id="node3" class="node">
<title>header_2</title>
<ellipse fill="none" stroke="#000000" cx="27" cy="-196.2001" rx="27" ry="18"/>
<text text-anchor="middle" x="27" y="-192.0001" font-family="Helvetica,sans-Serif" font-size="14.00" fill="#000000">0 : </text>
</g>
<!-- section_1&#45;&gt;header_2 -->
<g id="edge2" class="edge">
<title>section_1&#45;&gt;header_2</title>
<path fill="none" stroke="#000000" stroke-dasharray="5,2" d="M85.7521,-251.1371C75.1287,-241.2035 61.6294,-228.5808 50.2501,-217.9405"/>
<polygon fill="#000000" stroke="#000000" points="52.467,-215.2217 42.7723,-210.9482 47.686,-220.3347 52.467,-215.2217"/>
</g>
<!-- prose_3 -->
<g id="node4" class="node">
<title>prose_3</title>
<ellipse fill="none" stroke="#000000" cx="104" cy="-196.2001" rx="32.4585" ry="18"/>
<text text-anchor="middle" x="104" y="-192.0001" font-family="Helvetica,sans-Serif" font-size="14.00" fill="#000000">prose</text>
</g>
<!-- section_1&#45;&gt;prose_3 -->
<g id="edge3" class="edge">
<title>section_1&#45;&gt;prose_3</title>
<path fill="none" stroke="#000000" stroke-dasharray="5,2" d="M104,-250.0315C104,-242.331 104,-233.1744 104,-224.6167"/>
<polygon fill="#000000" stroke="#000000" points="107.5001,-224.6133 104,-214.6134 100.5001,-224.6134 107.5001,-224.6133"/>
</g>
<!-- codeblock_4 -->
<g id="node5" class="node">
<title>codeblock_4</title>
<ellipse fill="none" stroke="#000000" cx="258" cy="-196.2001" rx="67.748" ry="18"/>
<text text-anchor="middle" x="258" y="-192.0001" font-family="Helvetica,sans-Serif" font-size="14.00" fill="#000000">code block 2&#45;7</text>
</g>
<!-- section_1&#45;&gt;codeblock_4 -->
<g id="edge4" class="edge">
<title>section_1&#45;&gt;codeblock_4</title>
<path fill="none" stroke="#000000" stroke-dasharray="5,2" d="M135.9089,-253.2816C158.8763,-242.5436 190.1078,-227.9419 215.2332,-216.195"/>
<polygon fill="#000000" stroke="#000000" points="216.9574,-219.2525 224.5339,-211.8466 213.9927,-212.9114 216.9574,-219.2525"/>
</g>
<!-- raw_5 -->
<g id="node6" class="node">
<title>raw_5</title>
<ellipse fill="none" stroke="#000000" cx="86" cy="-107.1" rx="27" ry="18"/>
<text text-anchor="middle" x="86" y="-102.9" font-family="Helvetica,sans-Serif" font-size="14.00" fill="#000000">raw</text>
</g>
<!-- prose_3&#45;&gt;raw_5 -->
<g id="edge5" class="edge">
<title>prose_3&#45;&gt;raw_5</title>
<path fill="none" stroke="#000000" stroke-dasharray="5,2" d="M100.3574,-178.1694C97.8689,-165.8509 94.5211,-149.2793 91.6842,-135.2369"/>
<polygon fill="#000000" stroke="#000000" points="95.0481,-134.2128 89.6372,-125.104 88.1867,-135.599 95.0481,-134.2128"/>
</g>
<!-- leaf_7 -->
<g id="node8" class="node">
<title>leaf_7</title>
<polygon fill="none" stroke="#c0c0c0" points="420.5,-142.3004 131.5,-142.3004 131.5,-71.8997 420.5,-71.8997 420.5,-142.3004"/>
<text text-anchor="middle" x="276" y="-127.0001" font-family="Inconsolata" font-size="14.00" fill="#000000">local ast_node = require &quot;peg/ast&#45;node&quot;</text>
<text text-anchor="middle" x="276" y="-111.6001" font-family="Inconsolata" font-size="14.00" fill="#000000">local util = require &quot;lib/util&quot;</text>
<text text-anchor="middle" x="276" y="-80.2" font-family="Inconsolata" font-size="14.00" fill="#000000">return util.publish(ast_node)</text>
</g>
<!-- codeblock_4&#45;&gt;leaf_7 -->
<g id="edge7" class="edge">
<title>codeblock_4&#45;&gt;leaf_7</title>
<path fill="none" stroke="#000000" stroke-dasharray="5,2" d="M261.6426,-178.1694C263.1665,-170.6261 265.0126,-161.4879 266.8662,-152.3123"/>
<polygon fill="#000000" stroke="#000000" points="270.3161,-152.9098 268.8657,-142.4147 263.4548,-151.5236 270.3161,-152.9098"/>
</g>
<!-- leaf_6 -->
<g id="node7" class="node">
<title>leaf_6</title>
<polygon fill="none" stroke="#c0c0c0" points="113,-36 59,-36 59,0 113,0 113,-36"/>
</g>
<!-- raw_5&#45;&gt;leaf_6 -->
<g id="edge6" class="edge">
<title>raw_5&#45;&gt;leaf_6</title>
<path fill="none" stroke="#000000" stroke-dasharray="5,2" d="M86,-89.0693C86,-76.7509 86,-60.1792 86,-46.1369"/>
<polygon fill="#000000" stroke="#000000" points="89.5001,-46.0039 86,-36.0039 82.5001,-46.0039 89.5001,-46.0039"/>
</g>
</g>
</svg>