<?xml version="1.0" encoding="UTF-8" standalone="no"?>
<!DOCTYPE svg PUBLIC "-//W3C//DTD SVG 1.1//EN"
 "http://www.w3.org/Graphics/SVG/1.1/DTD/svg11.dtd">
<!-- Generated by graphviz version 2.40.1 (20161225.0304)
 -->
<!-- Title: hierarchy Pages: 1 -->
<svg width="748pt" height="960pt"
 viewBox="0.00 0.00 748.00 959.60" xmlns="http://www.w3.org/2000/svg" xmlns:xlink="http://www.w3.org/1999/xlink">
<g id="graph0" class="graph" transform="scale(1 1) rotate(0) translate(4 955.6011)">
<title>hierarchy</title>
<polygon fill="#ffffff" stroke="transparent" points="-4,4 -4,-955.6011 744,-955.6011 744,4 -4,4"/>
<!-- doc_0 -->
<g id="node1" class="node">
<title>doc_0</title>
<ellipse fill="none" stroke="#000000" cx="190" cy="-933.6011" rx="42.1216" ry="18"/>
<text text-anchor="middle" x="190" y="-929.4011" font-family="Helvetica,sans-Serif" font-size="14.00" fill="#000000">doc &#45; 49</text>
</g>
<!-- section_1 -->
<g id="node2" class="node">
<title>section_1</title>
<ellipse fill="none" stroke="#000000" cx="190" cy="-861.6011" rx="60.9826" ry="18"/>
<text text-anchor="middle" x="190" y="-857.4011" font-family="Helvetica,sans-Serif" font-size="14.00" fill="#000000">section: 1&#45;49</text>
</g>
<!-- doc_0&#45;&gt;section_1 -->
<g id="edge1" class="edge">
<title>doc_0&#45;&gt;section_1</title>
<path fill="none" stroke="#000000" stroke-dasharray="5,2" d="M190,-915.4324C190,-907.732 190,-898.5754 190,-890.0177"/>
<polygon fill="#000000" stroke="#000000" points="193.5001,-890.0143 190,-880.0143 186.5001,-890.0144 193.5001,-890.0143"/>
</g>
<!-- header_2 -->
<g id="node3" class="node">
<title>header_2</title>
<ellipse fill="none" stroke="#000000" cx="72" cy="-789.6011" rx="27" ry="18"/>
<text text-anchor="middle" x="72" y="-785.4011" font-family="Helvetica,sans-Serif" font-size="14.00" fill="#000000">0 : </text>
</g>
<!-- section_1&#45;&gt;header_2 -->
<g id="edge2" class="edge">
<title>section_1&#45;&gt;header_2</title>
<path fill="none" stroke="#000000" stroke-dasharray="5,2" d="M163.224,-845.2631C144.5569,-833.8731 119.6819,-818.6951 100.6226,-807.0657"/>
<polygon fill="#000000" stroke="#000000" points="102.412,-804.0575 92.0526,-801.8365 98.766,-810.033 102.412,-804.0575"/>
</g>
<!-- prose_3 -->
<g id="node4" class="node">
<title>prose_3</title>
<ellipse fill="none" stroke="#000000" cx="149" cy="-789.6011" rx="32.4585" ry="18"/>
<text text-anchor="middle" x="149" y="-785.4011" font-family="Helvetica,sans-Serif" font-size="14.00" fill="#000000">prose</text>
</g>
<!-- section_1&#45;&gt;prose_3 -->
<g id="edge3" class="edge">
<title>section_1&#45;&gt;prose_3</title>
<path fill="none" stroke="#000000" stroke-dasharray="5,2" d="M179.8652,-843.8033C175.0632,-835.3706 169.2315,-825.1296 163.9358,-815.8298"/>
<polygon fill="#000000" stroke="#000000" points="166.8667,-813.9036 158.8768,-806.9456 160.7838,-817.3675 166.8667,-813.9036"/>
</g>
<!-- prose_4 -->
<g id="node5" class="node">
<title>prose_4</title>
<ellipse fill="none" stroke="#000000" cx="231" cy="-789.6011" rx="32.4585" ry="18"/>
<text text-anchor="middle" x="231" y="-785.4011" font-family="Helvetica,sans-Serif" font-size="14.00" fill="#000000">prose</text>
</g>
<!-- section_1&#45;&gt;prose_4 -->
<g id="edge4" class="edge">
<title>section_1&#45;&gt;prose_4</title>
<path fill="none" stroke="#000000" stroke-dasharray="5,2" d="M200.1348,-843.8033C204.9368,-835.3706 210.7685,-825.1296 216.0642,-815.8298"/>
<polygon fill="#000000" stroke="#000000" points="219.2162,-817.3675 221.1232,-806.9456 213.1333,-813.9036 219.2162,-817.3675"/>
</g>
<!-- codeblock_5 -->
<g id="node6" class="node">
<title>codeblock_5</title>
<ellipse fill="none" stroke="#000000" cx="431" cy="-789.6011" rx="72.5844" ry="18"/>
<text text-anchor="middle" x="431" y="-785.4011" font-family="Helvetica,sans-Serif" font-size="14.00" fill="#000000">code block 6&#45;49</text>
</g>
<!-- section_1&#45;&gt;codeblock_5 -->
<g id="edge5" class="edge">
<title>section_1&#45;&gt;codeblock_5</title>
<path fill="none" stroke="#000000" stroke-dasharray="5,2" d="M232.8083,-848.8119C272.3365,-837.0026 331.3089,-819.3843 374.6513,-806.4355"/>
<polygon fill="#000000" stroke="#000000" points="375.8991,-809.7157 384.4787,-803.4995 373.8952,-803.0086 375.8991,-809.7157"/>
</g>
<!-- leaf_6 -->
<g id="node7" class="node">
<title>leaf_6</title>
<polygon fill="none" stroke="#c0c0c0" points="99,-423.5005 45,-423.5005 45,-387.5005 99,-387.5005 99,-423.5005"/>
</g>
<!-- header_2&#45;&gt;leaf_6 -->
<g id="edge6" class="edge">
<title>header_2&#45;&gt;leaf_6</title>
<path fill="none" stroke="#000000" stroke-dasharray="5,2" d="M72,-771.5903C72,-710.2382 72,-509.0607 72,-434.0408"/>
<polygon fill="#000000" stroke="#000000" points="75.5001,-433.9193 72,-423.9193 68.5001,-433.9194 75.5001,-433.9193"/>
</g>
<!-- raw_7 -->
<g id="node8" class="node">
<title>raw_7</title>
<ellipse fill="none" stroke="#000000" cx="147" cy="-405.5005" rx="27" ry="18"/>
<text text-anchor="middle" x="147" y="-401.3005" font-family="Helvetica,sans-Serif" font-size="14.00" fill="#000000">raw</text>
</g>
<!-- prose_3&#45;&gt;raw_7 -->
<g id="edge7" class="edge">
<title>prose_3&#45;&gt;raw_7</title>
<path fill="none" stroke="#000000" stroke-dasharray="5,2" d="M148.9062,-771.5903C148.5868,-710.2382 147.5392,-509.0607 147.1486,-434.0408"/>
<polygon fill="#000000" stroke="#000000" points="150.648,-433.9009 147.0959,-423.9193 143.6481,-433.9374 150.648,-433.9009"/>
</g>
<!-- raw_9 -->
<g id="node10" class="node">
<title>raw_9</title>
<ellipse fill="none" stroke="#000000" cx="231" cy="-405.5005" rx="27" ry="18"/>
<text text-anchor="middle" x="231" y="-401.3005" font-family="Helvetica,sans-Serif" font-size="14.00" fill="#000000">raw</text>
</g>
<!-- prose_4&#45;&gt;raw_9 -->
<g id="edge9" class="edge">
<title>prose_4&#45;&gt;raw_9</title>
<path fill="none" stroke="#000000" stroke-dasharray="5,2" d="M231,-771.5903C231,-710.2382 231,-509.0607 231,-434.0408"/>
<polygon fill="#000000" stroke="#000000" points="234.5001,-433.9193 231,-423.9193 227.5001,-433.9194 234.5001,-433.9193"/>
</g>
<!-- leaf_11 -->
<g id="node12" class="node">
<title>leaf_11</title>
<polygon fill="none" stroke="#c0c0c0" points="740,-735.7016 276,-735.7016 276,-75.2995 740,-75.2995 740,-735.7016"/>
<text text-anchor="middle" x="508" y="-720.4011" font-family="Inconsolata" font-size="14.00" fill="#000000">local lpeg = require &quot;lpeg&quot;</text>
<text text-anchor="middle" x="508" y="-705.001" font-family="Inconsolata" font-size="14.00" fill="#000000">local epeg = require &quot;peg/epeg&quot;</text>
<text text-anchor="middle" x="508" y="-673.601" font-family="Inconsolata" font-size="14.00" fill="#000000">local match = lpeg.match &#45;&#45; match a pattern against a string</text>
<text text-anchor="middle" x="508" y="-658.201" font-family="Inconsolata" font-size="14.00" fill="#000000">local P = lpeg.P &#45;&#45; match a string literally</text>
<text text-anchor="middle" x="508" y="-642.8009" font-family="Inconsolata" font-size="14.00" fill="#000000">local S = lpeg.S &#160;&#45;&#45; match anything in a set</text>
<text text-anchor="middle" x="508" y="-627.4009" font-family="Inconsolata" font-size="14.00" fill="#000000">local R = epeg.R &#160;&#45;&#45; match anything in a range</text>
<text text-anchor="middle" x="508" y="-612.0009" font-family="Inconsolata" font-size="14.00" fill="#000000">local B = lpeg.B</text>
<text text-anchor="middle" x="508" y="-596.6008" font-family="Inconsolata" font-size="14.00" fill="#000000">local C = lpeg.C &#160;&#45;&#45; captures a match</text>
<text text-anchor="middle" x="508" y="-581.2008" font-family="Inconsolata" font-size="14.00" fill="#000000">local Csp = epeg.Csp &#45;&#45; captures start and end position of match</text>
<text text-anchor="middle" x="508" y="-565.8008" font-family="Inconsolata" font-size="14.00" fill="#000000">local Ct = lpeg.Ct &#45;&#45; a table with all captures from the pattern</text>
<text text-anchor="middle" x="508" y="-550.4007" font-family="Inconsolata" font-size="14.00" fill="#000000">local V = lpeg.V &#45;&#45; create a variable within a grammar</text>
<text text-anchor="middle" x="508" y="-535.0007" font-family="Inconsolata" font-size="14.00" fill="#000000">local Cmt = lpeg.Cmt</text>
<text text-anchor="middle" x="508" y="-503.6007" font-family="Inconsolata" font-size="14.00" fill="#000000">local digit = R&quot;09&quot;</text>
<text text-anchor="middle" x="508" y="-472.2007" font-family="Inconsolata" font-size="14.00" fill="#000000">local letter = R&quot;AZ&quot; + R&quot;az&quot;</text>
<text text-anchor="middle" x="508" y="-440.8006" font-family="Inconsolata" font-size="14.00" fill="#000000">local int &#160;&#160;= digit^1</text>
<text text-anchor="middle" x="508" y="-409.4006" font-family="Inconsolata" font-size="14.00" fill="#000000">local float = digit^1 </text>
<text text-anchor="middle" x="508" y="-394.0006" font-family="Inconsolata" font-size="14.00" fill="#000000"> &#160;&#160;&#160;&#160;&#160;&#160;&#160;&#160;* P&quot;.&quot; * digit^1 </text>
<text text-anchor="middle" x="508" y="-378.6005" font-family="Inconsolata" font-size="14.00" fill="#000000"> &#160;&#160;&#160;&#160;&#160;&#160;&#160;&#160;&#160;* ((P&quot;e&quot; + P&quot;E&quot;) * digit^1)^0</text>
<text text-anchor="middle" x="508" y="-347.2005" font-family="Inconsolata" font-size="14.00" fill="#000000">local escape = &#160;&#45;P&quot;\\&quot; * P(1) + P&quot;\\&quot; * P(1)</text>
<text text-anchor="middle" x="508" y="-315.8005" font-family="Inconsolata" font-size="14.00" fill="#000000">local string_single = P&quot;&#39;&quot; * (&#45;P&quot;&#39;&quot; * escape)^0 * P&quot;&#39;&quot;</text>
<text text-anchor="middle" x="508" y="-300.4004" font-family="Inconsolata" font-size="14.00" fill="#000000">local string_double = P&#39;&quot;&#39; * (&#45;P&#39;&quot;&#39; * escape)^0 * P&#39;&quot;&#39;</text>
<text text-anchor="middle" x="508" y="-285.0004" font-family="Inconsolata" font-size="14.00" fill="#000000">local string_backtick &#160;&#160;= P&quot;`&quot; * (&#45;P&quot;`&quot; * escape)^0 * P&quot;`&quot;</text>
<text text-anchor="middle" x="508" y="-253.6004" font-family="Inconsolata" font-size="14.00" fill="#000000">local strings = string_single + string_double + string_backtick</text>
<text text-anchor="middle" x="508" y="-222.2003" font-family="Inconsolata" font-size="14.00" fill="#000000">return {</text>
<text text-anchor="middle" x="508" y="-206.8003" font-family="Inconsolata" font-size="14.00" fill="#000000"> &#160;&#160;digit = digit,</text>
<text text-anchor="middle" x="508" y="-191.4003" font-family="Inconsolata" font-size="14.00" fill="#000000"> &#160;&#160;letter = letter,</text>
<text text-anchor="middle" x="508" y="-176.0002" font-family="Inconsolata" font-size="14.00" fill="#000000"> &#160;&#160;int = int,</text>
<text text-anchor="middle" x="508" y="-160.6002" font-family="Inconsolata" font-size="14.00" fill="#000000"> &#160;&#160;float = float,</text>
<text text-anchor="middle" x="508" y="-145.2002" font-family="Inconsolata" font-size="14.00" fill="#000000"> &#160;&#160;strings = strings,</text>
<text text-anchor="middle" x="508" y="-129.8002" font-family="Inconsolata" font-size="14.00" fill="#000000"> &#160;&#160;escape = escape,</text>
<text text-anchor="middle" x="508" y="-114.4001" font-family="Inconsolata" font-size="14.00" fill="#000000"> &#160;&#160;string_single = string_single,</text>
<text text-anchor="middle" x="508" y="-99.0001" font-family="Inconsolata" font-size="14.00" fill="#000000"> &#160;&#160;string_double = string_double,</text>
<text text-anchor="middle" x="508" y="-83.6001" font-family="Inconsolata" font-size="14.00" fill="#000000"> &#160;&#160;string_back = string_backtick }</text>
</g>
<!-- codeblock_5&#45;&gt;leaf_11 -->
<g id="edge11" class="edge">
<title>codeblock_5&#45;&gt;leaf_11</title>
<path fill="none" stroke="#000000" stroke-dasharray="5,2" d="M434.6106,-771.5903C435.9963,-764.6779 437.7378,-755.9906 439.7589,-745.9088"/>
<polygon fill="#000000" stroke="#000000" points="443.2459,-746.3208 441.7798,-735.8279 436.3824,-744.9448 443.2459,-746.3208"/>
</g>
<!-- leaf_8 -->
<g id="node9" class="node">
<title>leaf_8</title>
<polygon fill="none" stroke="#c0c0c0" points="142,-39.6021 0,-39.6021 0,.2021 142,.2021 142,-39.6021"/>
<text text-anchor="middle" x="71" y="-8.2" font-family="Inconsolata" font-size="14.00" fill="#000000"> Core Syntax Rules</text>
</g>
<!-- raw_7&#45;&gt;leaf_8 -->
<g id="edge8" class="edge">
<title>raw_7&#45;&gt;leaf_8</title>
<path fill="none" stroke="#000000" stroke-dasharray="5,2" d="M147.7544,-387.2893C149.2632,-336.2798 149.4805,-188.3443 108,-75.4 104.4949,-65.8562 99.0577,-56.3235 93.4207,-47.9113"/>
<polygon fill="#000000" stroke="#000000" points="96.1753,-45.7446 87.5465,-39.597 90.4583,-49.7838 96.1753,-45.7446"/>
</g>
<!-- leaf_10 -->
<g id="node11" class="node">
<title>leaf_10</title>
<polygon fill="none" stroke="#c0c0c0" points="456,-39.6021 160,-39.6021 160,.2021 456,.2021 456,-39.6021"/>
<text text-anchor="middle" x="308" y="-8.2" font-family="Inconsolata" font-size="14.00" fill="#000000"> A collection of useful regular patterns</text>
</g>
<!-- raw_9&#45;&gt;leaf_10 -->
<g id="edge10" class="edge">
<title>raw_9&#45;&gt;leaf_10</title>
<path fill="none" stroke="#000000" stroke-dasharray="5,2" d="M229.7507,-387.1913C226.9244,-335.9275 223.3573,-187.395 267,-75.4 270.8257,-65.5826 276.846,-55.9511 283.1068,-47.5315"/>
<polygon fill="#000000" stroke="#000000" points="285.9489,-49.5794 289.3754,-39.5539 280.4448,-45.2543 285.9489,-49.5794"/>
</g>
</g>
</svg>