<?xml version="1.0" encoding="UTF-8" standalone="no"?>
<!DOCTYPE svg PUBLIC "-//W3C//DTD SVG 1.1//EN"
 "http://www.w3.org/Graphics/SVG/1.1/DTD/svg11.dtd">
<!-- Generated by graphviz version 2.40.1 (20161225.0304)
 -->
<!-- Title: hierarchy Pages: 1 -->
<svg width="946pt" height="956pt"
 viewBox="0.00 0.00 946.00 956.20" xmlns="http://www.w3.org/2000/svg" xmlns:xlink="http://www.w3.org/1999/xlink">
<g id="graph0" class="graph" transform="scale(1 1) rotate(0) translate(4 952.201)">
<title>hierarchy</title>
<polygon fill="#ffffff" stroke="transparent" points="-4,4 -4,-952.201 942,-952.201 942,4 -4,4"/>
<!-- doc_0 -->
<g id="node1" class="node">
<title>doc_0</title>
<ellipse fill="none" stroke="#000000" cx="253" cy="-930.201" rx="42.1216" ry="18"/>
<text text-anchor="middle" x="253" y="-926.001" font-family="Helvetica,sans-Serif" font-size="14.00" fill="#000000">doc &#45; 49</text>
</g>
<!-- section_1 -->
<g id="node2" class="node">
<title>section_1</title>
<ellipse fill="none" stroke="#000000" cx="253" cy="-858.201" rx="60.9826" ry="18"/>
<text text-anchor="middle" x="253" y="-854.001" font-family="Helvetica,sans-Serif" font-size="14.00" fill="#000000">section: 1&#45;49</text>
</g>
<!-- doc_0&#45;&gt;section_1 -->
<g id="edge1" class="edge">
<title>doc_0&#45;&gt;section_1</title>
<path fill="none" stroke="#000000" stroke-dasharray="5,2" d="M253,-912.0324C253,-904.332 253,-895.1754 253,-886.6177"/>
<polygon fill="#000000" stroke="#000000" points="256.5001,-886.6143 253,-876.6143 249.5001,-886.6143 256.5001,-886.6143"/>
</g>
<!-- header_2 -->
<g id="node3" class="node">
<title>header_2</title>
<ellipse fill="none" stroke="#000000" cx="107" cy="-786.201" rx="27" ry="18"/>
<text text-anchor="middle" x="107" y="-782.001" font-family="Helvetica,sans-Serif" font-size="14.00" fill="#000000">0 : </text>
</g>
<!-- section_1&#45;&gt;header_2 -->
<g id="edge2" class="edge">
<title>section_1&#45;&gt;header_2</title>
<path fill="none" stroke="#000000" stroke-dasharray="5,2" d="M221.1999,-842.6661C199.2163,-831.9081 169.3068,-817.2346 143,-804.201 141.2625,-803.3402 139.4786,-802.4545 137.6789,-801.5594"/>
<polygon fill="#000000" stroke="#000000" points="139.2004,-798.4071 128.6892,-797.0776 136.0771,-804.6717 139.2004,-798.4071"/>
</g>
<!-- block_3 -->
<g id="node4" class="node">
<title>block_3</title>
<ellipse fill="none" stroke="#000000" cx="198" cy="-786.201" rx="45.9804" ry="18"/>
<text text-anchor="middle" x="198" y="-782.001" font-family="Helvetica,sans-Serif" font-size="14.00" fill="#000000">block 1&#45;3</text>
</g>
<!-- section_1&#45;&gt;block_3 -->
<g id="edge3" class="edge">
<title>section_1&#45;&gt;block_3</title>
<path fill="none" stroke="#000000" stroke-dasharray="5,2" d="M239.4045,-840.4033C232.7615,-831.707 224.6496,-821.0877 217.372,-811.5608"/>
<polygon fill="#000000" stroke="#000000" points="220.1011,-809.3677 211.2493,-803.5456 214.5384,-813.617 220.1011,-809.3677"/>
</g>
<!-- block_4 -->
<g id="node5" class="node">
<title>block_4</title>
<ellipse fill="none" stroke="#000000" cx="308" cy="-786.201" rx="45.9804" ry="18"/>
<text text-anchor="middle" x="308" y="-782.001" font-family="Helvetica,sans-Serif" font-size="14.00" fill="#000000">block 4&#45;5</text>
</g>
<!-- section_1&#45;&gt;block_4 -->
<g id="edge4" class="edge">
<title>section_1&#45;&gt;block_4</title>
<path fill="none" stroke="#000000" stroke-dasharray="5,2" d="M266.5955,-840.4033C273.2385,-831.707 281.3504,-821.0877 288.628,-811.5608"/>
<polygon fill="#000000" stroke="#000000" points="291.4616,-813.617 294.7507,-803.5456 285.8989,-809.3677 291.4616,-813.617"/>
</g>
<!-- block_5 -->
<g id="node6" class="node">
<title>block_5</title>
<ellipse fill="none" stroke="#000000" cx="496" cy="-786.201" rx="50.8172" ry="18"/>
<text text-anchor="middle" x="496" y="-782.001" font-family="Helvetica,sans-Serif" font-size="14.00" fill="#000000">block 6&#45;49</text>
</g>
<!-- section_1&#45;&gt;block_5 -->
<g id="edge5" class="edge">
<title>section_1&#45;&gt;block_5</title>
<path fill="none" stroke="#000000" stroke-dasharray="5,2" d="M296.1635,-845.4118C338.5128,-832.8639 402.9969,-813.7575 447.1907,-800.663"/>
<polygon fill="#000000" stroke="#000000" points="448.2577,-803.9974 456.8514,-797.8006 446.2691,-797.2858 448.2577,-803.9974"/>
</g>
<!-- prose_6 -->
<g id="node7" class="node">
<title>prose_6</title>
<ellipse fill="none" stroke="#000000" cx="135" cy="-714.201" rx="32.4585" ry="18"/>
<text text-anchor="middle" x="135" y="-710.001" font-family="Helvetica,sans-Serif" font-size="14.00" fill="#000000">prose</text>
</g>
<!-- block_3&#45;&gt;prose_6 -->
<g id="edge6" class="edge">
<title>block_3&#45;&gt;prose_6</title>
<path fill="none" stroke="#000000" stroke-dasharray="5,2" d="M183.0699,-769.138C175.0307,-759.9504 164.9786,-748.4623 156.1478,-738.37"/>
<polygon fill="#000000" stroke="#000000" points="158.6084,-735.867 149.3893,-730.6459 153.3404,-740.4765 158.6084,-735.867"/>
</g>
<!-- prose_8 -->
<g id="node9" class="node">
<title>prose_8</title>
<ellipse fill="none" stroke="#000000" cx="308" cy="-714.201" rx="32.4585" ry="18"/>
<text text-anchor="middle" x="308" y="-710.001" font-family="Helvetica,sans-Serif" font-size="14.00" fill="#000000">prose</text>
</g>
<!-- block_4&#45;&gt;prose_8 -->
<g id="edge8" class="edge">
<title>block_4&#45;&gt;prose_8</title>
<path fill="none" stroke="#000000" stroke-dasharray="5,2" d="M308,-768.0324C308,-760.332 308,-751.1754 308,-742.6177"/>
<polygon fill="#000000" stroke="#000000" points="311.5001,-742.6143 308,-732.6143 304.5001,-742.6143 311.5001,-742.6143"/>
</g>
<!-- codeblock_10 -->
<g id="node11" class="node">
<title>codeblock_10</title>
<ellipse fill="none" stroke="#000000" cx="568" cy="-714.201" rx="72.5844" ry="18"/>
<text text-anchor="middle" x="568" y="-710.001" font-family="Helvetica,sans-Serif" font-size="14.00" fill="#000000">code block 6&#45;49</text>
</g>
<!-- block_5&#45;&gt;codeblock_10 -->
<g id="edge10" class="edge">
<title>block_5&#45;&gt;codeblock_10</title>
<path fill="none" stroke="#000000" stroke-dasharray="5,2" d="M513.063,-769.138C522.0102,-760.1908 533.1391,-749.062 543.036,-739.165"/>
<polygon fill="#000000" stroke="#000000" points="545.7114,-741.4394 550.3076,-731.8934 540.7616,-736.4897 545.7114,-741.4394"/>
</g>
<!-- leaf_7 -->
<g id="node8" class="node">
<title>leaf_7</title>
<polygon fill="none" stroke="#c0c0c0" points="142,-348.1005 0,-348.1005 0,-312.1005 142,-312.1005 142,-348.1005"/>
<text text-anchor="middle" x="71" y="-326.6005" font-family="Inconsolata" font-size="14.00" fill="#000000"> Core Syntax Rules</text>
</g>
<!-- prose_6&#45;&gt;leaf_7 -->
<g id="edge7" class="edge">
<title>prose_6&#45;&gt;leaf_7</title>
<path fill="none" stroke="#000000" stroke-dasharray="5,2" d="M131.999,-696.1902C121.7763,-634.8381 88.2555,-433.6606 75.7555,-358.6407"/>
<polygon fill="#000000" stroke="#000000" points="79.165,-357.808 74.069,-348.5193 72.2602,-358.9586 79.165,-357.808"/>
</g>
<!-- leaf_9 -->
<g id="node10" class="node">
<title>leaf_9</title>
<polygon fill="none" stroke="#c0c0c0" points="456,-348.1005 160,-348.1005 160,-312.1005 456,-312.1005 456,-348.1005"/>
<text text-anchor="middle" x="308" y="-326.6005" font-family="Inconsolata" font-size="14.00" fill="#000000"> A collection of useful regular patterns</text>
</g>
<!-- prose_8&#45;&gt;leaf_9 -->
<g id="edge9" class="edge">
<title>prose_8&#45;&gt;leaf_9</title>
<path fill="none" stroke="#000000" stroke-dasharray="5,2" d="M308,-696.1902C308,-634.8381 308,-433.6606 308,-358.6407"/>
<polygon fill="#000000" stroke="#000000" points="311.5001,-358.5193 308,-348.5193 304.5001,-358.5193 311.5001,-358.5193"/>
</g>
<!-- leaf_11 -->
<g id="node12" class="node">
<title>leaf_11</title>
<polygon fill="none" stroke="#c0c0c0" points="938,-660.3016 474,-660.3016 474,.1005 938,.1005 938,-660.3016"/>
<text text-anchor="middle" x="706" y="-645.001" font-family="Inconsolata" font-size="14.00" fill="#000000">local lpeg = require &quot;lpeg&quot;</text>
<text text-anchor="middle" x="706" y="-629.601" font-family="Inconsolata" font-size="14.00" fill="#000000">local epeg = require &quot;peg/epeg&quot;</text>
<text text-anchor="middle" x="706" y="-598.201" font-family="Inconsolata" font-size="14.00" fill="#000000">local match = lpeg.match &#45;&#45; match a pattern against a string</text>
<text text-anchor="middle" x="706" y="-582.8009" font-family="Inconsolata" font-size="14.00" fill="#000000">local P = lpeg.P &#45;&#45; match a string literally</text>
<text text-anchor="middle" x="706" y="-567.4009" font-family="Inconsolata" font-size="14.00" fill="#000000">local S = lpeg.S &#160;&#45;&#45; match anything in a set</text>
<text text-anchor="middle" x="706" y="-552.0009" font-family="Inconsolata" font-size="14.00" fill="#000000">local R = epeg.R &#160;&#45;&#45; match anything in a range</text>
<text text-anchor="middle" x="706" y="-536.6008" font-family="Inconsolata" font-size="14.00" fill="#000000">local B = lpeg.B</text>
<text text-anchor="middle" x="706" y="-521.2008" font-family="Inconsolata" font-size="14.00" fill="#000000">local C = lpeg.C &#160;&#45;&#45; captures a match</text>
<text text-anchor="middle" x="706" y="-505.8008" font-family="Inconsolata" font-size="14.00" fill="#000000">local Csp = epeg.Csp &#45;&#45; captures start and end position of match</text>
<text text-anchor="middle" x="706" y="-490.4007" font-family="Inconsolata" font-size="14.00" fill="#000000">local Ct = lpeg.Ct &#45;&#45; a table with all captures from the pattern</text>
<text text-anchor="middle" x="706" y="-475.0007" font-family="Inconsolata" font-size="14.00" fill="#000000">local V = lpeg.V &#45;&#45; create a variable within a grammar</text>
<text text-anchor="middle" x="706" y="-459.6007" font-family="Inconsolata" font-size="14.00" fill="#000000">local Cmt = lpeg.Cmt</text>
<text text-anchor="middle" x="706" y="-428.2007" font-family="Inconsolata" font-size="14.00" fill="#000000">local digit = R&quot;09&quot;</text>
<text text-anchor="middle" x="706" y="-396.8006" font-family="Inconsolata" font-size="14.00" fill="#000000">local letter = R&quot;AZ&quot; + R&quot;az&quot;</text>
<text text-anchor="middle" x="706" y="-365.4006" font-family="Inconsolata" font-size="14.00" fill="#000000">local int &#160;&#160;= digit^1</text>
<text text-anchor="middle" x="706" y="-334.0006" font-family="Inconsolata" font-size="14.00" fill="#000000">local float = digit^1 </text>
<text text-anchor="middle" x="706" y="-318.6005" font-family="Inconsolata" font-size="14.00" fill="#000000"> &#160;&#160;&#160;&#160;&#160;&#160;&#160;&#160;* P&quot;.&quot; * digit^1 </text>
<text text-anchor="middle" x="706" y="-303.2005" font-family="Inconsolata" font-size="14.00" fill="#000000"> &#160;&#160;&#160;&#160;&#160;&#160;&#160;&#160;&#160;* ((P&quot;e&quot; + P&quot;E&quot;) * digit^1)^0</text>
<text text-anchor="middle" x="706" y="-271.8005" font-family="Inconsolata" font-size="14.00" fill="#000000">local escape = &#160;&#45;P&quot;\\&quot; * P(1) + P&quot;\\&quot; * P(1)</text>
<text text-anchor="middle" x="706" y="-240.4004" font-family="Inconsolata" font-size="14.00" fill="#000000">local string_single = P&quot;&#39;&quot; * (&#45;P&quot;&#39;&quot; * escape)^0 * P&quot;&#39;&quot;</text>
<text text-anchor="middle" x="706" y="-225.0004" font-family="Inconsolata" font-size="14.00" fill="#000000">local string_double = P&#39;&quot;&#39; * (&#45;P&#39;&quot;&#39; * escape)^0 * P&#39;&quot;&#39;</text>
<text text-anchor="middle" x="706" y="-209.6004" font-family="Inconsolata" font-size="14.00" fill="#000000">local string_backtick &#160;&#160;= P&quot;`&quot; * (&#45;P&quot;`&quot; * escape)^0 * P&quot;`&quot;</text>
<text text-anchor="middle" x="706" y="-178.2003" font-family="Inconsolata" font-size="14.00" fill="#000000">local strings = string_single + string_double + string_backtick</text>
<text text-anchor="middle" x="706" y="-146.8003" font-family="Inconsolata" font-size="14.00" fill="#000000">return {</text>
<text text-anchor="middle" x="706" y="-131.4003" font-family="Inconsolata" font-size="14.00" fill="#000000"> &#160;&#160;digit = digit,</text>
<text text-anchor="middle" x="706" y="-116.0002" font-family="Inconsolata" font-size="14.00" fill="#000000"> &#160;&#160;letter = letter,</text>
<text text-anchor="middle" x="706" y="-100.6002" font-family="Inconsolata" font-size="14.00" fill="#000000"> &#160;&#160;int = int,</text>
<text text-anchor="middle" x="706" y="-85.2002" font-family="Inconsolata" font-size="14.00" fill="#000000"> &#160;&#160;float = float,</text>
<text text-anchor="middle" x="706" y="-69.8002" font-family="Inconsolata" font-size="14.00" fill="#000000"> &#160;&#160;strings = strings,</text>
<text text-anchor="middle" x="706" y="-54.4001" font-family="Inconsolata" font-size="14.00" fill="#000000"> &#160;&#160;escape = escape,</text>
<text text-anchor="middle" x="706" y="-39.0001" font-family="Inconsolata" font-size="14.00" fill="#000000"> &#160;&#160;string_single = string_single,</text>
<text text-anchor="middle" x="706" y="-23.6001" font-family="Inconsolata" font-size="14.00" fill="#000000"> &#160;&#160;string_double = string_double,</text>
<text text-anchor="middle" x="706" y="-8.2" font-family="Inconsolata" font-size="14.00" fill="#000000"> &#160;&#160;string_back = string_backtick }</text>
</g>
<!-- codeblock_10&#45;&gt;leaf_11 -->
<g id="edge11" class="edge">
<title>codeblock_10&#45;&gt;leaf_11</title>
<path fill="none" stroke="#000000" stroke-dasharray="5,2" d="M574.4709,-696.1902C577.0056,-689.1354 580.2046,-680.2316 583.9225,-669.8834"/>
<polygon fill="#000000" stroke="#000000" points="587.2323,-671.0223 587.3197,-660.4278 580.6446,-668.6554 587.2323,-671.0223"/>
</g>
</g>
</svg>