<?xml version="1.0" encoding="UTF-8" standalone="no"?>
<!DOCTYPE svg PUBLIC "-//W3C//DTD SVG 1.1//EN"
 "http://www.w3.org/Graphics/SVG/1.1/DTD/svg11.dtd">
<!-- Generated by graphviz version 2.40.1 (20161225.0304)
 -->
<!-- Title: hierarchy Pages: 1 -->
<svg width="786pt" height="960pt"
 viewBox="0.00 0.00 786.00 959.60" xmlns="http://www.w3.org/2000/svg" xmlns:xlink="http://www.w3.org/1999/xlink">
<g id="graph0" class="graph" transform="scale(1 1) rotate(0) translate(4 955.6011)">
<title>hierarchy</title>
<polygon fill="#ffffff" stroke="transparent" points="-4,4 -4,-955.6011 782,-955.6011 782,4 -4,4"/>
<!-- doc_0 -->
<g id="node1" class="node">
<title>doc_0</title>
<ellipse fill="none" stroke="#000000" cx="228" cy="-933.6011" rx="42.1216" ry="18"/>
<text text-anchor="middle" x="228" y="-929.4011" font-family="Helvetica,sans-Serif" font-size="14.00" fill="#000000">doc &#45; 49</text>
</g>
<!-- section_1 -->
<g id="node2" class="node">
<title>section_1</title>
<ellipse fill="none" stroke="#000000" cx="228" cy="-861.6011" rx="60.9826" ry="18"/>
<text text-anchor="middle" x="228" y="-857.4011" font-family="Helvetica,sans-Serif" font-size="14.00" fill="#000000">section: 1&#45;49</text>
</g>
<!-- doc_0&#45;&gt;section_1 -->
<g id="edge1" class="edge">
<title>doc_0&#45;&gt;section_1</title>
<path fill="none" stroke="#000000" stroke-dasharray="5,2" d="M228,-915.4324C228,-907.732 228,-898.5754 228,-890.0177"/>
<polygon fill="#000000" stroke="#000000" points="231.5001,-890.0143 228,-880.0143 224.5001,-890.0144 231.5001,-890.0143"/>
</g>
<!-- header_2 -->
<g id="node3" class="node">
<title>header_2</title>
<ellipse fill="none" stroke="#000000" cx="110" cy="-789.6011" rx="27" ry="18"/>
<text text-anchor="middle" x="110" y="-785.4011" font-family="Helvetica,sans-Serif" font-size="14.00" fill="#000000">0 : </text>
</g>
<!-- section_1&#45;&gt;header_2 -->
<g id="edge2" class="edge">
<title>section_1&#45;&gt;header_2</title>
<path fill="none" stroke="#000000" stroke-dasharray="5,2" d="M201.224,-845.2631C182.5569,-833.8731 157.6819,-818.6951 138.6226,-807.0657"/>
<polygon fill="#000000" stroke="#000000" points="140.412,-804.0575 130.0526,-801.8365 136.766,-810.033 140.412,-804.0575"/>
</g>
<!-- prose_3 -->
<g id="node4" class="node">
<title>prose_3</title>
<ellipse fill="none" stroke="#000000" cx="187" cy="-789.6011" rx="32.4585" ry="18"/>
<text text-anchor="middle" x="187" y="-785.4011" font-family="Helvetica,sans-Serif" font-size="14.00" fill="#000000">prose</text>
</g>
<!-- section_1&#45;&gt;prose_3 -->
<g id="edge3" class="edge">
<title>section_1&#45;&gt;prose_3</title>
<path fill="none" stroke="#000000" stroke-dasharray="5,2" d="M217.8652,-843.8033C213.0632,-835.3706 207.2315,-825.1296 201.9358,-815.8298"/>
<polygon fill="#000000" stroke="#000000" points="204.8667,-813.9036 196.8768,-806.9456 198.7838,-817.3675 204.8667,-813.9036"/>
</g>
<!-- prose_4 -->
<g id="node5" class="node">
<title>prose_4</title>
<ellipse fill="none" stroke="#000000" cx="269" cy="-789.6011" rx="32.4585" ry="18"/>
<text text-anchor="middle" x="269" y="-785.4011" font-family="Helvetica,sans-Serif" font-size="14.00" fill="#000000">prose</text>
</g>
<!-- section_1&#45;&gt;prose_4 -->
<g id="edge4" class="edge">
<title>section_1&#45;&gt;prose_4</title>
<path fill="none" stroke="#000000" stroke-dasharray="5,2" d="M238.1348,-843.8033C242.9368,-835.3706 248.7685,-825.1296 254.0642,-815.8298"/>
<polygon fill="#000000" stroke="#000000" points="257.2162,-817.3675 259.1232,-806.9456 251.1333,-813.9036 257.2162,-817.3675"/>
</g>
<!-- codeblock_5 -->
<g id="node6" class="node">
<title>codeblock_5</title>
<ellipse fill="none" stroke="#000000" cx="469" cy="-789.6011" rx="72.5844" ry="18"/>
<text text-anchor="middle" x="469" y="-785.4011" font-family="Helvetica,sans-Serif" font-size="14.00" fill="#000000">code block 6&#45;49</text>
</g>
<!-- section_1&#45;&gt;codeblock_5 -->
<g id="edge5" class="edge">
<title>section_1&#45;&gt;codeblock_5</title>
<path fill="none" stroke="#000000" stroke-dasharray="5,2" d="M270.8083,-848.8119C310.3365,-837.0026 369.3089,-819.3843 412.6513,-806.4355"/>
<polygon fill="#000000" stroke="#000000" points="413.8991,-809.7157 422.4787,-803.4995 411.8952,-803.0086 413.8991,-809.7157"/>
</g>
<!-- raw_6 -->
<g id="node7" class="node">
<title>raw_6</title>
<ellipse fill="none" stroke="#000000" cx="148" cy="-405.5005" rx="27" ry="18"/>
<text text-anchor="middle" x="148" y="-401.3005" font-family="Helvetica,sans-Serif" font-size="14.00" fill="#000000">raw</text>
</g>
<!-- prose_3&#45;&gt;raw_6 -->
<g id="edge6" class="edge">
<title>prose_3&#45;&gt;raw_6</title>
<path fill="none" stroke="#000000" stroke-dasharray="5,2" d="M185.1713,-771.5903C178.9275,-710.0968 158.4209,-508.1328 150.8454,-433.5242"/>
<polygon fill="#000000" stroke="#000000" points="154.3171,-433.0676 149.8248,-423.4724 147.3529,-433.7748 154.3171,-433.0676"/>
</g>
<!-- raw_8 -->
<g id="node9" class="node">
<title>raw_8</title>
<ellipse fill="none" stroke="#000000" cx="269" cy="-405.5005" rx="27" ry="18"/>
<text text-anchor="middle" x="269" y="-401.3005" font-family="Helvetica,sans-Serif" font-size="14.00" fill="#000000">raw</text>
</g>
<!-- prose_4&#45;&gt;raw_8 -->
<g id="edge8" class="edge">
<title>prose_4&#45;&gt;raw_8</title>
<path fill="none" stroke="#000000" stroke-dasharray="5,2" d="M269,-771.5903C269,-710.2382 269,-509.0607 269,-434.0408"/>
<polygon fill="#000000" stroke="#000000" points="272.5001,-433.9193 269,-423.9193 265.5001,-433.9194 272.5001,-433.9193"/>
</g>
<!-- leaf_10 -->
<g id="node11" class="node">
<title>leaf_10</title>
<polygon fill="none" stroke="#c0c0c0" points="778,-735.7016 314,-735.7016 314,-75.2995 778,-75.2995 778,-735.7016"/>
<text text-anchor="middle" x="546" y="-720.4011" font-family="Inconsolata" font-size="14.00" fill="#000000">local lpeg = require &quot;lpeg&quot;</text>
<text text-anchor="middle" x="546" y="-705.001" font-family="Inconsolata" font-size="14.00" fill="#000000">local epeg = require &quot;peg/epeg&quot;</text>
<text text-anchor="middle" x="546" y="-673.601" font-family="Inconsolata" font-size="14.00" fill="#000000">local match = lpeg.match &#45;&#45; match a pattern against a string</text>
<text text-anchor="middle" x="546" y="-658.201" font-family="Inconsolata" font-size="14.00" fill="#000000">local P = lpeg.P &#45;&#45; match a string literally</text>
<text text-anchor="middle" x="546" y="-642.8009" font-family="Inconsolata" font-size="14.00" fill="#000000">local S = lpeg.S &#160;&#45;&#45; match anything in a set</text>
<text text-anchor="middle" x="546" y="-627.4009" font-family="Inconsolata" font-size="14.00" fill="#000000">local R = epeg.R &#160;&#45;&#45; match anything in a range</text>
<text text-anchor="middle" x="546" y="-612.0009" font-family="Inconsolata" font-size="14.00" fill="#000000">local B = lpeg.B</text>
<text text-anchor="middle" x="546" y="-596.6008" font-family="Inconsolata" font-size="14.00" fill="#000000">local C = lpeg.C &#160;&#45;&#45; captures a match</text>
<text text-anchor="middle" x="546" y="-581.2008" font-family="Inconsolata" font-size="14.00" fill="#000000">local Csp = epeg.Csp &#45;&#45; captures start and end position of match</text>
<text text-anchor="middle" x="546" y="-565.8008" font-family="Inconsolata" font-size="14.00" fill="#000000">local Ct = lpeg.Ct &#45;&#45; a table with all captures from the pattern</text>
<text text-anchor="middle" x="546" y="-550.4007" font-family="Inconsolata" font-size="14.00" fill="#000000">local V = lpeg.V &#45;&#45; create a variable within a grammar</text>
<text text-anchor="middle" x="546" y="-535.0007" font-family="Inconsolata" font-size="14.00" fill="#000000">local Cmt = lpeg.Cmt</text>
<text text-anchor="middle" x="546" y="-503.6007" font-family="Inconsolata" font-size="14.00" fill="#000000">local digit = R&quot;09&quot;</text>
<text text-anchor="middle" x="546" y="-472.2007" font-family="Inconsolata" font-size="14.00" fill="#000000">local letter = R&quot;AZ&quot; + R&quot;az&quot;</text>
<text text-anchor="middle" x="546" y="-440.8006" font-family="Inconsolata" font-size="14.00" fill="#000000">local int &#160;&#160;= digit^1</text>
<text text-anchor="middle" x="546" y="-409.4006" font-family="Inconsolata" font-size="14.00" fill="#000000">local float = digit^1 </text>
<text text-anchor="middle" x="546" y="-394.0006" font-family="Inconsolata" font-size="14.00" fill="#000000"> &#160;&#160;&#160;&#160;&#160;&#160;&#160;&#160;* P&quot;.&quot; * digit^1 </text>
<text text-anchor="middle" x="546" y="-378.6005" font-family="Inconsolata" font-size="14.00" fill="#000000"> &#160;&#160;&#160;&#160;&#160;&#160;&#160;&#160;&#160;* ((P&quot;e&quot; + P&quot;E&quot;) * digit^1)^0</text>
<text text-anchor="middle" x="546" y="-347.2005" font-family="Inconsolata" font-size="14.00" fill="#000000">local escape = &#160;&#45;P&quot;\\&quot; * P(1) + P&quot;\\&quot; * P(1)</text>
<text text-anchor="middle" x="546" y="-315.8005" font-family="Inconsolata" font-size="14.00" fill="#000000">local string_single = P&quot;&#39;&quot; * (&#45;P&quot;&#39;&quot; * escape)^0 * P&quot;&#39;&quot;</text>
<text text-anchor="middle" x="546" y="-300.4004" font-family="Inconsolata" font-size="14.00" fill="#000000">local string_double = P&#39;&quot;&#39; * (&#45;P&#39;&quot;&#39; * escape)^0 * P&#39;&quot;&#39;</text>
<text text-anchor="middle" x="546" y="-285.0004" font-family="Inconsolata" font-size="14.00" fill="#000000">local string_backtick &#160;&#160;= P&quot;`&quot; * (&#45;P&quot;`&quot; * escape)^0 * P&quot;`&quot;</text>
<text text-anchor="middle" x="546" y="-253.6004" font-family="Inconsolata" font-size="14.00" fill="#000000">local strings = string_single + string_double + string_backtick</text>
<text text-anchor="middle" x="546" y="-222.2003" font-family="Inconsolata" font-size="14.00" fill="#000000">return {</text>
<text text-anchor="middle" x="546" y="-206.8003" font-family="Inconsolata" font-size="14.00" fill="#000000"> &#160;&#160;digit = digit,</text>
<text text-anchor="middle" x="546" y="-191.4003" font-family="Inconsolata" font-size="14.00" fill="#000000"> &#160;&#160;letter = letter,</text>
<text text-anchor="middle" x="546" y="-176.0002" font-family="Inconsolata" font-size="14.00" fill="#000000"> &#160;&#160;int = int,</text>
<text text-anchor="middle" x="546" y="-160.6002" font-family="Inconsolata" font-size="14.00" fill="#000000"> &#160;&#160;float = float,</text>
<text text-anchor="middle" x="546" y="-145.2002" font-family="Inconsolata" font-size="14.00" fill="#000000"> &#160;&#160;strings = strings,</text>
<text text-anchor="middle" x="546" y="-129.8002" font-family="Inconsolata" font-size="14.00" fill="#000000"> &#160;&#160;escape = escape,</text>
<text text-anchor="middle" x="546" y="-114.4001" font-family="Inconsolata" font-size="14.00" fill="#000000"> &#160;&#160;string_single = string_single,</text>
<text text-anchor="middle" x="546" y="-99.0001" font-family="Inconsolata" font-size="14.00" fill="#000000"> &#160;&#160;string_double = string_double,</text>
<text text-anchor="middle" x="546" y="-83.6001" font-family="Inconsolata" font-size="14.00" fill="#000000"> &#160;&#160;string_back = string_backtick }</text>
</g>
<!-- codeblock_5&#45;&gt;leaf_10 -->
<g id="edge10" class="edge">
<title>codeblock_5&#45;&gt;leaf_10</title>
<path fill="none" stroke="#000000" stroke-dasharray="5,2" d="M472.6106,-771.5903C473.9963,-764.6779 475.7378,-755.9906 477.7589,-745.9088"/>
<polygon fill="#000000" stroke="#000000" points="481.2459,-746.3208 479.7798,-735.8279 474.3824,-744.9448 481.2459,-746.3208"/>
</g>
<!-- leaf_7 -->
<g id="node8" class="node">
<title>leaf_7</title>
<polygon fill="none" stroke="#c0c0c0" points="142,-39.6021 0,-39.6021 0,.2021 142,.2021 142,-39.6021"/>
<text text-anchor="middle" x="71" y="-8.2" font-family="Inconsolata" font-size="14.00" fill="#000000"> Core Syntax Rules</text>
</g>
<!-- raw_6&#45;&gt;leaf_7 -->
<g id="edge7" class="edge">
<title>raw_6&#45;&gt;leaf_7</title>
<path fill="none" stroke="#000000" stroke-dasharray="5,2" d="M144.3894,-387.41C132.1502,-326.087 92.1533,-125.6863 76.9433,-49.4781"/>
<polygon fill="#000000" stroke="#000000" points="80.3567,-48.698 74.967,-39.5765 73.4921,-50.0681 80.3567,-48.698"/>
</g>
<!-- leaf_9 -->
<g id="node10" class="node">
<title>leaf_9</title>
<polygon fill="none" stroke="#c0c0c0" points="456,-39.6021 160,-39.6021 160,.2021 456,.2021 456,-39.6021"/>
<text text-anchor="middle" x="308" y="-8.2" font-family="Inconsolata" font-size="14.00" fill="#000000"> A collection of useful regular patterns</text>
</g>
<!-- raw_8&#45;&gt;leaf_9 -->
<g id="edge9" class="edge">
<title>raw_8&#45;&gt;leaf_9</title>
<path fill="none" stroke="#000000" stroke-dasharray="5,2" d="M270.8287,-387.41C277.0151,-326.2124 297.2032,-126.5053 304.9424,-49.9472"/>
<polygon fill="#000000" stroke="#000000" points="308.4671,-49.8778 305.9907,-39.5765 301.5026,-49.1737 308.4671,-49.8778"/>
</g>
</g>
</svg>