<?xml version="1.0" encoding="UTF-8" standalone="no"?>
<!DOCTYPE svg PUBLIC "-//W3C//DTD SVG 1.1//EN"
 "http://www.w3.org/Graphics/SVG/1.1/DTD/svg11.dtd">
<!-- Generated by graphviz version 2.40.1 (20161225.0304)
 -->
<!-- Title: hierarchy Pages: 1 -->
<svg width="741pt" height="960pt"
 viewBox="0.00 0.00 741.00 959.60" xmlns="http://www.w3.org/2000/svg" xmlns:xlink="http://www.w3.org/1999/xlink">
<g id="graph0" class="graph" transform="scale(1 1) rotate(0) translate(4 955.6011)">
<title>hierarchy</title>
<polygon fill="#ffffff" stroke="transparent" points="-4,4 -4,-955.6011 737,-955.6011 737,4 -4,4"/>
<!-- doc_0 -->
<g id="node1" class="node">
<title>doc_0</title>
<ellipse fill="none" stroke="#000000" cx="272" cy="-933.6011" rx="27" ry="18"/>
<text text-anchor="middle" x="272" y="-929.4011" font-family="Helvetica,sans-Serif" font-size="14.00" fill="#000000">49 &#160;</text>
</g>
<!-- section_1 -->
<g id="node2" class="node">
<title>section_1</title>
<ellipse fill="none" stroke="#000000" cx="272" cy="-861.6011" rx="27" ry="18"/>
<text text-anchor="middle" x="272" y="-857.4011" font-family="Helvetica,sans-Serif" font-size="14.00" fill="#000000">49 &#160;</text>
</g>
<!-- doc_0&#45;&gt;section_1 -->
<g id="edge1" class="edge">
<title>doc_0&#45;&gt;section_1</title>
<path fill="none" stroke="#000000" stroke-dasharray="5,2" d="M272,-915.4324C272,-907.732 272,-898.5754 272,-890.0177"/>
<polygon fill="#000000" stroke="#000000" points="275.5001,-890.0143 272,-880.0143 268.5001,-890.0144 275.5001,-890.0143"/>
</g>
<!-- header_2 -->
<g id="node3" class="node">
<title>header_2</title>
<ellipse fill="none" stroke="#000000" cx="164" cy="-789.6011" rx="27" ry="18"/>
<text text-anchor="middle" x="164" y="-785.4011" font-family="Helvetica,sans-Serif" font-size="14.00" fill="#000000">: &#160;&#160;</text>
</g>
<!-- section_1&#45;&gt;header_2 -->
<g id="edge2" class="edge">
<title>section_1&#45;&gt;header_2</title>
<path fill="none" stroke="#000000" stroke-dasharray="5,2" d="M252.6918,-848.7289C235.6445,-837.3641 210.5981,-820.6665 191.4656,-807.9114"/>
<polygon fill="#000000" stroke="#000000" points="193.4031,-804.9966 183.1411,-802.3618 189.5201,-810.821 193.4031,-804.9966"/>
</g>
<!-- block_3 -->
<g id="node4" class="node">
<title>block_3</title>
<ellipse fill="none" stroke="#000000" cx="236" cy="-789.6011" rx="27" ry="18"/>
<text text-anchor="middle" x="236" y="-785.4011" font-family="Helvetica,sans-Serif" font-size="14.00" fill="#000000">&#45;3 &#160;</text>
</g>
<!-- section_1&#45;&gt;block_3 -->
<g id="edge3" class="edge">
<title>section_1&#45;&gt;block_3</title>
<path fill="none" stroke="#000000" stroke-dasharray="5,2" d="M263.2854,-844.1719C259.0403,-835.6817 253.8464,-825.2939 249.1337,-815.8685"/>
<polygon fill="#000000" stroke="#000000" points="252.237,-814.2488 244.6343,-806.8697 245.976,-817.3793 252.237,-814.2488"/>
</g>
<!-- block_4 -->
<g id="node5" class="node">
<title>block_4</title>
<ellipse fill="none" stroke="#000000" cx="308" cy="-789.6011" rx="27" ry="18"/>
<text text-anchor="middle" x="308" y="-785.4011" font-family="Helvetica,sans-Serif" font-size="14.00" fill="#000000">&#45;5 &#160;</text>
</g>
<!-- section_1&#45;&gt;block_4 -->
<g id="edge4" class="edge">
<title>section_1&#45;&gt;block_4</title>
<path fill="none" stroke="#000000" stroke-dasharray="5,2" d="M280.7146,-844.1719C284.9597,-835.6817 290.1536,-825.2939 294.8663,-815.8685"/>
<polygon fill="#000000" stroke="#000000" points="298.024,-817.3793 299.3657,-806.8697 291.763,-814.2488 298.024,-817.3793"/>
</g>
<!-- block_5 -->
<g id="node6" class="node">
<title>block_5</title>
<ellipse fill="none" stroke="#000000" cx="501" cy="-789.6011" rx="27" ry="18"/>
<text text-anchor="middle" x="501" y="-785.4011" font-family="Helvetica,sans-Serif" font-size="14.00" fill="#000000">49 &#160;</text>
</g>
<!-- section_1&#45;&gt;block_5 -->
<g id="edge5" class="edge">
<title>section_1&#45;&gt;block_5</title>
<path fill="none" stroke="#000000" stroke-dasharray="5,2" d="M296.507,-853.8958C337.4626,-841.0189 419.916,-815.0947 466.6445,-800.4028"/>
<polygon fill="#000000" stroke="#000000" points="467.8333,-803.698 476.3231,-797.3597 465.7337,-797.0203 467.8333,-803.698"/>
</g>
<!-- leaf_6 -->
<g id="node7" class="node">
<title>leaf_6</title>
<polygon fill="none" stroke="#c0c0c0" points="142,-735.8031 0,-735.8031 0,-695.999 142,-695.999 142,-735.8031"/>
<text text-anchor="middle" x="71" y="-720.4011" font-family="Inconsolata" font-size="14.00" fill="#000000"> Core Syntax Rules</text>
</g>
<!-- block_3&#45;&gt;leaf_6 -->
<g id="edge6" class="edge">
<title>block_3&#45;&gt;leaf_6</title>
<path fill="none" stroke="#000000" stroke-dasharray="5,2" d="M214.3935,-778.5522C209.6738,-776.2076 204.688,-773.7831 200,-771.6011 176.5846,-760.7024 150.4726,-749.2915 127.8995,-739.6561"/>
<polygon fill="#000000" stroke="#000000" points="129.0324,-736.3345 118.4602,-735.642 126.293,-742.7763 129.0324,-736.3345"/>
</g>
<!-- leaf_7 -->
<g id="node8" class="node">
<title>leaf_7</title>
<polygon fill="none" stroke="#c0c0c0" points="456,-735.8031 160,-735.8031 160,-695.999 456,-695.999 456,-735.8031"/>
<text text-anchor="middle" x="308" y="-720.4011" font-family="Inconsolata" font-size="14.00" fill="#000000"> A collection of useful regular patterns</text>
</g>
<!-- block_4&#45;&gt;leaf_7 -->
<g id="edge7" class="edge">
<title>block_4&#45;&gt;leaf_7</title>
<path fill="none" stroke="#000000" stroke-dasharray="5,2" d="M308,-771.3831C308,-763.6857 308,-754.5164 308,-745.871"/>
<polygon fill="#000000" stroke="#000000" points="311.5001,-745.7194 308,-735.7195 304.5001,-745.7195 311.5001,-745.7194"/>
</g>
<!-- codeblock_8 -->
<g id="node9" class="node">
<title>codeblock_8</title>
<ellipse fill="none" stroke="#000000" cx="501" cy="-715.901" rx="27" ry="18"/>
<text text-anchor="middle" x="501" y="-711.701" font-family="Helvetica,sans-Serif" font-size="14.00" fill="#000000">49 &#160;</text>
</g>
<!-- block_5&#45;&gt;codeblock_8 -->
<g id="edge8" class="edge">
<title>block_5&#45;&gt;codeblock_8</title>
<path fill="none" stroke="#000000" stroke-dasharray="5,2" d="M501,-771.3831C501,-763.1722 501,-753.2865 501,-744.1483"/>
<polygon fill="#000000" stroke="#000000" points="504.5001,-743.9094 501,-733.9095 497.5001,-743.9095 504.5001,-743.9094"/>
</g>
<!-- leaf_10 -->
<g id="node11" class="node">
<title>leaf_10</title>
<polygon fill="none" stroke="#c0c0c0" points="600,-733.901 546,-733.901 546,-697.901 600,-697.901 600,-733.901"/>
</g>
<!-- block_5&#45;&gt;leaf_10 -->
<g id="edge10" class="edge">
<title>block_5&#45;&gt;leaf_10</title>
<path fill="none" stroke="#000000" stroke-dasharray="5,2" d="M515.9184,-774.3304C525.2222,-764.8069 537.4265,-752.3145 548.1613,-741.3262"/>
<polygon fill="#000000" stroke="#000000" points="550.8202,-743.6131 555.3047,-734.0142 545.813,-738.7214 550.8202,-743.6131"/>
</g>
<!-- leaf_9 -->
<g id="node10" class="node">
<title>leaf_9</title>
<polygon fill="none" stroke="#c0c0c0" points="733,-660.3016 269,-660.3016 269,.1005 733,.1005 733,-660.3016"/>
<text text-anchor="middle" x="501" y="-645.001" font-family="Inconsolata" font-size="14.00" fill="#000000">local lpeg = require &quot;lpeg&quot;</text>
<text text-anchor="middle" x="501" y="-629.601" font-family="Inconsolata" font-size="14.00" fill="#000000">local epeg = require &quot;peg/epeg&quot;</text>
<text text-anchor="middle" x="501" y="-598.201" font-family="Inconsolata" font-size="14.00" fill="#000000">local match = lpeg.match &#45;&#45; match a pattern against a string</text>
<text text-anchor="middle" x="501" y="-582.8009" font-family="Inconsolata" font-size="14.00" fill="#000000">local P = lpeg.P &#45;&#45; match a string literally</text>
<text text-anchor="middle" x="501" y="-567.4009" font-family="Inconsolata" font-size="14.00" fill="#000000">local S = lpeg.S &#160;&#45;&#45; match anything in a set</text>
<text text-anchor="middle" x="501" y="-552.0009" font-family="Inconsolata" font-size="14.00" fill="#000000">local R = epeg.R &#160;&#45;&#45; match anything in a range</text>
<text text-anchor="middle" x="501" y="-536.6008" font-family="Inconsolata" font-size="14.00" fill="#000000">local B = lpeg.B</text>
<text text-anchor="middle" x="501" y="-521.2008" font-family="Inconsolata" font-size="14.00" fill="#000000">local C = lpeg.C &#160;&#45;&#45; captures a match</text>
<text text-anchor="middle" x="501" y="-505.8008" font-family="Inconsolata" font-size="14.00" fill="#000000">local Csp = epeg.Csp &#45;&#45; captures start and end position of match</text>
<text text-anchor="middle" x="501" y="-490.4007" font-family="Inconsolata" font-size="14.00" fill="#000000">local Ct = lpeg.Ct &#45;&#45; a table with all captures from the pattern</text>
<text text-anchor="middle" x="501" y="-475.0007" font-family="Inconsolata" font-size="14.00" fill="#000000">local V = lpeg.V &#45;&#45; create a variable within a grammar</text>
<text text-anchor="middle" x="501" y="-459.6007" font-family="Inconsolata" font-size="14.00" fill="#000000">local Cmt = lpeg.Cmt</text>
<text text-anchor="middle" x="501" y="-428.2007" font-family="Inconsolata" font-size="14.00" fill="#000000">local digit = R&quot;09&quot;</text>
<text text-anchor="middle" x="501" y="-396.8006" font-family="Inconsolata" font-size="14.00" fill="#000000">local letter = R&quot;AZ&quot; + R&quot;az&quot;</text>
<text text-anchor="middle" x="501" y="-365.4006" font-family="Inconsolata" font-size="14.00" fill="#000000">local int &#160;&#160;= digit^1</text>
<text text-anchor="middle" x="501" y="-334.0006" font-family="Inconsolata" font-size="14.00" fill="#000000">local float = digit^1 </text>
<text text-anchor="middle" x="501" y="-318.6005" font-family="Inconsolata" font-size="14.00" fill="#000000"> &#160;&#160;&#160;&#160;&#160;&#160;&#160;&#160;* P&quot;.&quot; * digit^1 </text>
<text text-anchor="middle" x="501" y="-303.2005" font-family="Inconsolata" font-size="14.00" fill="#000000"> &#160;&#160;&#160;&#160;&#160;&#160;&#160;&#160;&#160;* ((P&quot;e&quot; + P&quot;E&quot;) * digit^1)^0</text>
<text text-anchor="middle" x="501" y="-271.8005" font-family="Inconsolata" font-size="14.00" fill="#000000">local escape = &#160;&#45;P&quot;\\&quot; * P(1) + P&quot;\\&quot; * P(1)</text>
<text text-anchor="middle" x="501" y="-240.4004" font-family="Inconsolata" font-size="14.00" fill="#000000">local string_single = P&quot;&#39;&quot; * (&#45;P&quot;&#39;&quot; * escape)^0 * P&quot;&#39;&quot;</text>
<text text-anchor="middle" x="501" y="-225.0004" font-family="Inconsolata" font-size="14.00" fill="#000000">local string_double = P&#39;&quot;&#39; * (&#45;P&#39;&quot;&#39; * escape)^0 * P&#39;&quot;&#39;</text>
<text text-anchor="middle" x="501" y="-209.6004" font-family="Inconsolata" font-size="14.00" fill="#000000">local string_backtick &#160;&#160;= P&quot;`&quot; * (&#45;P&quot;`&quot; * escape)^0 * P&quot;`&quot;</text>
<text text-anchor="middle" x="501" y="-178.2003" font-family="Inconsolata" font-size="14.00" fill="#000000">local strings = string_single + string_double + string_backtick</text>
<text text-anchor="middle" x="501" y="-146.8003" font-family="Inconsolata" font-size="14.00" fill="#000000">return {</text>
<text text-anchor="middle" x="501" y="-131.4003" font-family="Inconsolata" font-size="14.00" fill="#000000"> &#160;&#160;digit = digit,</text>
<text text-anchor="middle" x="501" y="-116.0002" font-family="Inconsolata" font-size="14.00" fill="#000000"> &#160;&#160;letter = letter,</text>
<text text-anchor="middle" x="501" y="-100.6002" font-family="Inconsolata" font-size="14.00" fill="#000000"> &#160;&#160;int = int,</text>
<text text-anchor="middle" x="501" y="-85.2002" font-family="Inconsolata" font-size="14.00" fill="#000000"> &#160;&#160;float = float,</text>
<text text-anchor="middle" x="501" y="-69.8002" font-family="Inconsolata" font-size="14.00" fill="#000000"> &#160;&#160;strings = strings,</text>
<text text-anchor="middle" x="501" y="-54.4001" font-family="Inconsolata" font-size="14.00" fill="#000000"> &#160;&#160;escape = escape,</text>
<text text-anchor="middle" x="501" y="-39.0001" font-family="Inconsolata" font-size="14.00" fill="#000000"> &#160;&#160;string_single = string_single,</text>
<text text-anchor="middle" x="501" y="-23.6001" font-family="Inconsolata" font-size="14.00" fill="#000000"> &#160;&#160;string_double = string_double,</text>
<text text-anchor="middle" x="501" y="-8.2" font-family="Inconsolata" font-size="14.00" fill="#000000"> &#160;&#160;string_back = string_backtick }</text>
</g>
<!-- codeblock_8&#45;&gt;leaf_9 -->
<g id="edge9" class="edge">
<title>codeblock_8&#45;&gt;leaf_9</title>
<path fill="none" stroke="#000000" stroke-dasharray="5,2" d="M501,-697.8105C501,-690.5679 501,-681.3852 501,-670.6963"/>
<polygon fill="#000000" stroke="#000000" points="504.5001,-670.4689 501,-660.4689 497.5001,-670.4689 504.5001,-670.4689"/>
</g>
</g>
</svg>