<?xml version="1.0" encoding="UTF-8" standalone="no"?>
<!DOCTYPE svg PUBLIC "-//W3C//DTD SVG 1.1//EN"
 "http://www.w3.org/Graphics/SVG/1.1/DTD/svg11.dtd">
<!-- Generated by graphviz version 2.40.1 (20161225.0304)
 -->
<!-- Title: hierarchy Pages: 1 -->
<svg width="787pt" height="956pt"
 viewBox="0.00 0.00 787.00 956.20" xmlns="http://www.w3.org/2000/svg" xmlns:xlink="http://www.w3.org/1999/xlink">
<g id="graph0" class="graph" transform="scale(1 1) rotate(0) translate(4 952.201)">
<title>hierarchy</title>
<polygon fill="#ffffff" stroke="transparent" points="-4,4 -4,-952.201 783,-952.201 783,4 -4,4"/>
<!-- doc_0 -->
<g id="node1" class="node">
<title>doc_0</title>
<ellipse fill="none" stroke="#000000" cx="253" cy="-930.201" rx="42.1216" ry="18"/>
<text text-anchor="middle" x="253" y="-926.001" font-family="Helvetica,sans-Serif" font-size="14.00" fill="#000000">doc &#45; 49</text>
</g>
<!-- section_1 -->
<g id="node2" class="node">
<title>section_1</title>
<ellipse fill="none" stroke="#000000" cx="253" cy="-858.201" rx="60.9826" ry="18"/>
<text text-anchor="middle" x="253" y="-854.001" font-family="Helvetica,sans-Serif" font-size="14.00" fill="#000000">section: 1&#45;49</text>
</g>
<!-- doc_0&#45;&gt;section_1 -->
<g id="edge1" class="edge">
<title>doc_0&#45;&gt;section_1</title>
<path fill="none" stroke="#000000" stroke-dasharray="5,2" d="M253,-912.0324C253,-904.332 253,-895.1754 253,-886.6177"/>
<polygon fill="#000000" stroke="#000000" points="256.5001,-886.6143 253,-876.6143 249.5001,-886.6143 256.5001,-886.6143"/>
</g>
<!-- header_2 -->
<g id="node3" class="node">
<title>header_2</title>
<ellipse fill="none" stroke="#000000" cx="107" cy="-786.201" rx="27" ry="18"/>
<text text-anchor="middle" x="107" y="-782.001" font-family="Helvetica,sans-Serif" font-size="14.00" fill="#000000">0 : </text>
</g>
<!-- section_1&#45;&gt;header_2 -->
<g id="edge2" class="edge">
<title>section_1&#45;&gt;header_2</title>
<path fill="none" stroke="#000000" stroke-dasharray="5,2" d="M221.1999,-842.6661C199.2163,-831.9081 169.3068,-817.2346 143,-804.201 141.2625,-803.3402 139.4786,-802.4545 137.6789,-801.5594"/>
<polygon fill="#000000" stroke="#000000" points="139.2004,-798.4071 128.6892,-797.0776 136.0771,-804.6717 139.2004,-798.4071"/>
</g>
<!-- block_3 -->
<g id="node4" class="node">
<title>block_3</title>
<ellipse fill="none" stroke="#000000" cx="198" cy="-786.201" rx="45.9804" ry="18"/>
<text text-anchor="middle" x="198" y="-782.001" font-family="Helvetica,sans-Serif" font-size="14.00" fill="#000000">block 1&#45;3</text>
</g>
<!-- section_1&#45;&gt;block_3 -->
<g id="edge3" class="edge">
<title>section_1&#45;&gt;block_3</title>
<path fill="none" stroke="#000000" stroke-dasharray="5,2" d="M239.4045,-840.4033C232.7615,-831.707 224.6496,-821.0877 217.372,-811.5608"/>
<polygon fill="#000000" stroke="#000000" points="220.1011,-809.3677 211.2493,-803.5456 214.5384,-813.617 220.1011,-809.3677"/>
</g>
<!-- block_4 -->
<g id="node5" class="node">
<title>block_4</title>
<ellipse fill="none" stroke="#000000" cx="308" cy="-786.201" rx="45.9804" ry="18"/>
<text text-anchor="middle" x="308" y="-782.001" font-family="Helvetica,sans-Serif" font-size="14.00" fill="#000000">block 4&#45;5</text>
</g>
<!-- section_1&#45;&gt;block_4 -->
<g id="edge4" class="edge">
<title>section_1&#45;&gt;block_4</title>
<path fill="none" stroke="#000000" stroke-dasharray="5,2" d="M266.5955,-840.4033C273.2385,-831.707 281.3504,-821.0877 288.628,-811.5608"/>
<polygon fill="#000000" stroke="#000000" points="291.4616,-813.617 294.7507,-803.5456 285.8989,-809.3677 291.4616,-813.617"/>
</g>
<!-- block_5 -->
<g id="node6" class="node">
<title>block_5</title>
<ellipse fill="none" stroke="#000000" cx="547" cy="-786.201" rx="50.8172" ry="18"/>
<text text-anchor="middle" x="547" y="-782.001" font-family="Helvetica,sans-Serif" font-size="14.00" fill="#000000">block 6&#45;49</text>
</g>
<!-- section_1&#45;&gt;block_5 -->
<g id="edge5" class="edge">
<title>section_1&#45;&gt;block_5</title>
<path fill="none" stroke="#000000" stroke-dasharray="5,2" d="M299.9103,-846.7128C353.1741,-833.6686 439.8256,-812.4478 495.0821,-798.9156"/>
<polygon fill="#000000" stroke="#000000" points="496.1388,-802.2604 505.0192,-796.4821 494.4736,-795.4613 496.1388,-802.2604"/>
</g>
<!-- leaf_6 -->
<g id="node7" class="node">
<title>leaf_6</title>
<polygon fill="none" stroke="#c0c0c0" points="142,-732.201 0,-732.201 0,-696.201 142,-696.201 142,-732.201"/>
<text text-anchor="middle" x="71" y="-710.701" font-family="Inconsolata" font-size="14.00" fill="#000000"> Core Syntax Rules</text>
</g>
<!-- block_3&#45;&gt;leaf_6 -->
<g id="edge6" class="edge">
<title>block_3&#45;&gt;leaf_6</title>
<path fill="none" stroke="#000000" stroke-dasharray="5,2" d="M171.6855,-771.2826C154.4221,-761.4955 131.4972,-748.4987 111.8836,-737.3791"/>
<polygon fill="#000000" stroke="#000000" points="113.5626,-734.3077 103.1372,-732.4206 110.1103,-740.3972 113.5626,-734.3077"/>
</g>
<!-- leaf_7 -->
<g id="node8" class="node">
<title>leaf_7</title>
<polygon fill="none" stroke="#c0c0c0" points="456,-732.201 160,-732.201 160,-696.201 456,-696.201 456,-732.201"/>
<text text-anchor="middle" x="308" y="-710.701" font-family="Inconsolata" font-size="14.00" fill="#000000"> A collection of useful regular patterns</text>
</g>
<!-- block_4&#45;&gt;leaf_7 -->
<g id="edge7" class="edge">
<title>block_4&#45;&gt;leaf_7</title>
<path fill="none" stroke="#000000" stroke-dasharray="5,2" d="M308,-768.0324C308,-760.332 308,-751.1754 308,-742.6177"/>
<polygon fill="#000000" stroke="#000000" points="311.5001,-742.6143 308,-732.6143 304.5001,-742.6143 311.5001,-742.6143"/>
</g>
<!-- codeblock_8 -->
<g id="node9" class="node">
<title>codeblock_8</title>
<ellipse fill="none" stroke="#000000" cx="547" cy="-714.201" rx="72.5844" ry="18"/>
<text text-anchor="middle" x="547" y="-710.001" font-family="Helvetica,sans-Serif" font-size="14.00" fill="#000000">code block 6&#45;49</text>
</g>
<!-- block_5&#45;&gt;codeblock_8 -->
<g id="edge8" class="edge">
<title>block_5&#45;&gt;codeblock_8</title>
<path fill="none" stroke="#000000" stroke-dasharray="5,2" d="M547,-768.0324C547,-760.332 547,-751.1754 547,-742.6177"/>
<polygon fill="#000000" stroke="#000000" points="550.5001,-742.6143 547,-732.6143 543.5001,-742.6143 550.5001,-742.6143"/>
</g>
<!-- leaf_10 -->
<g id="node11" class="node">
<title>leaf_10</title>
<polygon fill="none" stroke="#c0c0c0" points="692,-732.201 638,-732.201 638,-696.201 692,-696.201 692,-732.201"/>
</g>
<!-- block_5&#45;&gt;leaf_10 -->
<g id="edge10" class="edge">
<title>block_5&#45;&gt;leaf_10</title>
<path fill="none" stroke="#000000" stroke-dasharray="5,2" d="M572.6042,-770.5781C589.1475,-760.4839 610.9138,-747.2028 629.1646,-736.0667"/>
<polygon fill="#000000" stroke="#000000" points="631.0901,-738.992 637.8034,-730.7956 627.444,-733.0165 631.0901,-738.992"/>
</g>
<!-- leaf_9 -->
<g id="node10" class="node">
<title>leaf_9</title>
<polygon fill="none" stroke="#c0c0c0" points="779,-660.3016 315,-660.3016 315,.1005 779,.1005 779,-660.3016"/>
<text text-anchor="middle" x="547" y="-645.001" font-family="Inconsolata" font-size="14.00" fill="#000000">local lpeg = require &quot;lpeg&quot;</text>
<text text-anchor="middle" x="547" y="-629.601" font-family="Inconsolata" font-size="14.00" fill="#000000">local epeg = require &quot;peg/epeg&quot;</text>
<text text-anchor="middle" x="547" y="-598.201" font-family="Inconsolata" font-size="14.00" fill="#000000">local match = lpeg.match &#45;&#45; match a pattern against a string</text>
<text text-anchor="middle" x="547" y="-582.8009" font-family="Inconsolata" font-size="14.00" fill="#000000">local P = lpeg.P &#45;&#45; match a string literally</text>
<text text-anchor="middle" x="547" y="-567.4009" font-family="Inconsolata" font-size="14.00" fill="#000000">local S = lpeg.S &#160;&#45;&#45; match anything in a set</text>
<text text-anchor="middle" x="547" y="-552.0009" font-family="Inconsolata" font-size="14.00" fill="#000000">local R = epeg.R &#160;&#45;&#45; match anything in a range</text>
<text text-anchor="middle" x="547" y="-536.6008" font-family="Inconsolata" font-size="14.00" fill="#000000">local B = lpeg.B</text>
<text text-anchor="middle" x="547" y="-521.2008" font-family="Inconsolata" font-size="14.00" fill="#000000">local C = lpeg.C &#160;&#45;&#45; captures a match</text>
<text text-anchor="middle" x="547" y="-505.8008" font-family="Inconsolata" font-size="14.00" fill="#000000">local Csp = epeg.Csp &#45;&#45; captures start and end position of match</text>
<text text-anchor="middle" x="547" y="-490.4007" font-family="Inconsolata" font-size="14.00" fill="#000000">local Ct = lpeg.Ct &#45;&#45; a table with all captures from the pattern</text>
<text text-anchor="middle" x="547" y="-475.0007" font-family="Inconsolata" font-size="14.00" fill="#000000">local V = lpeg.V &#45;&#45; create a variable within a grammar</text>
<text text-anchor="middle" x="547" y="-459.6007" font-family="Inconsolata" font-size="14.00" fill="#000000">local Cmt = lpeg.Cmt</text>
<text text-anchor="middle" x="547" y="-428.2007" font-family="Inconsolata" font-size="14.00" fill="#000000">local digit = R&quot;09&quot;</text>
<text text-anchor="middle" x="547" y="-396.8006" font-family="Inconsolata" font-size="14.00" fill="#000000">local letter = R&quot;AZ&quot; + R&quot;az&quot;</text>
<text text-anchor="middle" x="547" y="-365.4006" font-family="Inconsolata" font-size="14.00" fill="#000000">local int &#160;&#160;= digit^1</text>
<text text-anchor="middle" x="547" y="-334.0006" font-family="Inconsolata" font-size="14.00" fill="#000000">local float = digit^1 </text>
<text text-anchor="middle" x="547" y="-318.6005" font-family="Inconsolata" font-size="14.00" fill="#000000"> &#160;&#160;&#160;&#160;&#160;&#160;&#160;&#160;* P&quot;.&quot; * digit^1 </text>
<text text-anchor="middle" x="547" y="-303.2005" font-family="Inconsolata" font-size="14.00" fill="#000000"> &#160;&#160;&#160;&#160;&#160;&#160;&#160;&#160;&#160;* ((P&quot;e&quot; + P&quot;E&quot;) * digit^1)^0</text>
<text text-anchor="middle" x="547" y="-271.8005" font-family="Inconsolata" font-size="14.00" fill="#000000">local escape = &#160;&#45;P&quot;\\&quot; * P(1) + P&quot;\\&quot; * P(1)</text>
<text text-anchor="middle" x="547" y="-240.4004" font-family="Inconsolata" font-size="14.00" fill="#000000">local string_single = P&quot;&#39;&quot; * (&#45;P&quot;&#39;&quot; * escape)^0 * P&quot;&#39;&quot;</text>
<text text-anchor="middle" x="547" y="-225.0004" font-family="Inconsolata" font-size="14.00" fill="#000000">local string_double = P&#39;&quot;&#39; * (&#45;P&#39;&quot;&#39; * escape)^0 * P&#39;&quot;&#39;</text>
<text text-anchor="middle" x="547" y="-209.6004" font-family="Inconsolata" font-size="14.00" fill="#000000">local string_backtick &#160;&#160;= P&quot;`&quot; * (&#45;P&quot;`&quot; * escape)^0 * P&quot;`&quot;</text>
<text text-anchor="middle" x="547" y="-178.2003" font-family="Inconsolata" font-size="14.00" fill="#000000">local strings = string_single + string_double + string_backtick</text>
<text text-anchor="middle" x="547" y="-146.8003" font-family="Inconsolata" font-size="14.00" fill="#000000">return {</text>
<text text-anchor="middle" x="547" y="-131.4003" font-family="Inconsolata" font-size="14.00" fill="#000000"> &#160;&#160;digit = digit,</text>
<text text-anchor="middle" x="547" y="-116.0002" font-family="Inconsolata" font-size="14.00" fill="#000000"> &#160;&#160;letter = letter,</text>
<text text-anchor="middle" x="547" y="-100.6002" font-family="Inconsolata" font-size="14.00" fill="#000000"> &#160;&#160;int = int,</text>
<text text-anchor="middle" x="547" y="-85.2002" font-family="Inconsolata" font-size="14.00" fill="#000000"> &#160;&#160;float = float,</text>
<text text-anchor="middle" x="547" y="-69.8002" font-family="Inconsolata" font-size="14.00" fill="#000000"> &#160;&#160;strings = strings,</text>
<text text-anchor="middle" x="547" y="-54.4001" font-family="Inconsolata" font-size="14.00" fill="#000000"> &#160;&#160;escape = escape,</text>
<text text-anchor="middle" x="547" y="-39.0001" font-family="Inconsolata" font-size="14.00" fill="#000000"> &#160;&#160;string_single = string_single,</text>
<text text-anchor="middle" x="547" y="-23.6001" font-family="Inconsolata" font-size="14.00" fill="#000000"> &#160;&#160;string_double = string_double,</text>
<text text-anchor="middle" x="547" y="-8.2" font-family="Inconsolata" font-size="14.00" fill="#000000"> &#160;&#160;string_back = string_backtick }</text>
</g>
<!-- codeblock_8&#45;&gt;leaf_9 -->
<g id="edge9" class="edge">
<title>codeblock_8&#45;&gt;leaf_9</title>
<path fill="none" stroke="#000000" stroke-dasharray="5,2" d="M547,-696.1902C547,-689.2779 547,-680.5906 547,-670.5088"/>
<polygon fill="#000000" stroke="#000000" points="550.5001,-670.4278 547,-660.4278 543.5001,-670.4279 550.5001,-670.4278"/>
</g>
</g>
</svg>