<?xml version="1.0" encoding="UTF-8" standalone="no"?>
<!DOCTYPE svg PUBLIC "-//W3C//DTD SVG 1.1//EN"
 "http://www.w3.org/Graphics/SVG/1.1/DTD/svg11.dtd">
<!-- Generated by graphviz version 2.40.1 (20161225.0304)
 -->
<!-- Title: hierarchy Pages: 1 -->
<svg width="600pt" height="588pt"
 viewBox="0.00 0.00 599.50 588.00" xmlns="http://www.w3.org/2000/svg" xmlns:xlink="http://www.w3.org/1999/xlink">
<g id="graph0" class="graph" transform="scale(1 1) rotate(0) translate(4 584.0006)">
<title>hierarchy</title>
<polygon fill="#ffffff" stroke="transparent" points="-4,4 -4,-584.0006 595.5,-584.0006 595.5,4 -4,4"/>
<!-- doc_0 -->
<g id="node1" class="node">
<title>doc_0</title>
<ellipse fill="none" stroke="#000000" cx="150" cy="-562.0006" rx="42.1216" ry="18"/>
<text text-anchor="middle" x="150" y="-557.8006" font-family="Helvetica,sans-Serif" font-size="14.00" fill="#000000">doc &#45; 28</text>
</g>
<!-- section_1 -->
<g id="node2" class="node">
<title>section_1</title>
<ellipse fill="none" stroke="#000000" cx="150" cy="-490.0006" rx="60.9826" ry="18"/>
<text text-anchor="middle" x="150" y="-485.8006" font-family="Helvetica,sans-Serif" font-size="14.00" fill="#000000">section: 1&#45;28</text>
</g>
<!-- doc_0&#45;&gt;section_1 -->
<g id="edge1" class="edge">
<title>doc_0&#45;&gt;section_1</title>
<path fill="none" stroke="#000000" stroke-dasharray="5,2" d="M150,-543.832C150,-536.1316 150,-526.975 150,-518.4173"/>
<polygon fill="#000000" stroke="#000000" points="153.5001,-518.4139 150,-508.4139 146.5001,-518.4139 153.5001,-518.4139"/>
</g>
<!-- header_2 -->
<g id="node3" class="node">
<title>header_2</title>
<ellipse fill="none" stroke="#000000" cx="43" cy="-418.0006" rx="27" ry="18"/>
<text text-anchor="middle" x="43" y="-413.8006" font-family="Helvetica,sans-Serif" font-size="14.00" fill="#000000">0 : </text>
</g>
<!-- section_1&#45;&gt;header_2 -->
<g id="edge2" class="edge">
<title>section_1&#45;&gt;header_2</title>
<path fill="none" stroke="#000000" stroke-dasharray="5,2" d="M125.452,-473.4824C109.0593,-462.4517 87.477,-447.9291 70.5054,-436.5089"/>
<polygon fill="#000000" stroke="#000000" points="72.353,-433.5336 62.1025,-430.8546 68.4451,-439.3412 72.353,-433.5336"/>
</g>
<!-- block_3 -->
<g id="node4" class="node">
<title>block_3</title>
<ellipse fill="none" stroke="#000000" cx="150" cy="-418.0006" rx="45.9804" ry="18"/>
<text text-anchor="middle" x="150" y="-413.8006" font-family="Helvetica,sans-Serif" font-size="14.00" fill="#000000">block 1&#45;3</text>
</g>
<!-- section_1&#45;&gt;block_3 -->
<g id="edge3" class="edge">
<title>section_1&#45;&gt;block_3</title>
<path fill="none" stroke="#000000" stroke-dasharray="5,2" d="M150,-471.832C150,-464.1316 150,-454.975 150,-446.4173"/>
<polygon fill="#000000" stroke="#000000" points="153.5001,-446.4139 150,-436.4139 146.5001,-446.4139 153.5001,-446.4139"/>
</g>
<!-- codeblock_4 -->
<g id="node5" class="node">
<title>codeblock_4</title>
<ellipse fill="none" stroke="#000000" cx="353" cy="-418.0006" rx="72.5844" ry="18"/>
<text text-anchor="middle" x="353" y="-413.8006" font-family="Helvetica,sans-Serif" font-size="14.00" fill="#000000">code block 4&#45;28</text>
</g>
<!-- section_1&#45;&gt;codeblock_4 -->
<g id="edge4" class="edge">
<title>section_1&#45;&gt;codeblock_4</title>
<path fill="none" stroke="#000000" stroke-dasharray="5,2" d="M189.1404,-476.1183C221.1555,-464.7632 266.6846,-448.6149 301.629,-436.2209"/>
<polygon fill="#000000" stroke="#000000" points="302.9296,-439.4733 311.1844,-432.8318 300.5897,-432.8759 302.9296,-439.4733"/>
</g>
<!-- leaf_5 -->
<g id="node6" class="node">
<title>leaf_5</title>
<polygon fill="none" stroke="#c0c0c0" points="54,-200.0003 0,-200.0003 0,-164.0003 54,-164.0003 54,-200.0003"/>
</g>
<!-- header_2&#45;&gt;leaf_5 -->
<g id="edge5" class="edge">
<title>header_2&#45;&gt;leaf_5</title>
<path fill="none" stroke="#000000" stroke-dasharray="5,2" d="M41.7711,-399.8739C39.0022,-359.0334 32.2585,-259.5629 28.9272,-210.4265"/>
<polygon fill="#000000" stroke="#000000" points="32.4016,-209.9291 28.2331,-200.1888 25.4176,-210.4026 32.4016,-209.9291"/>
</g>
<!-- leaf_6 -->
<g id="node7" class="node">
<title>leaf_6</title>
<polygon fill="none" stroke="#c0c0c0" points="228,-200.0003 72,-200.0003 72,-164.0003 228,-164.0003 228,-200.0003"/>
<text text-anchor="middle" x="150" y="-178.5003" font-family="Inconsolata" font-size="14.00" fill="#000000"> The Node metatable </text>
</g>
<!-- block_3&#45;&gt;leaf_6 -->
<g id="edge6" class="edge">
<title>block_3&#45;&gt;leaf_6</title>
<path fill="none" stroke="#000000" stroke-dasharray="5,2" d="M150,-399.8739C150,-359.0334 150,-259.5629 150,-210.4265"/>
<polygon fill="#000000" stroke="#000000" points="153.5001,-210.1887 150,-200.1888 146.5001,-210.1888 153.5001,-210.1887"/>
</g>
<!-- leaf_7 -->
<g id="node8" class="node">
<title>leaf_7</title>
<polygon fill="none" stroke="#c0c0c0" points="591.5,-364.0009 246.5,-364.0009 246.5,.0003 591.5,.0003 591.5,-364.0009"/>
<text text-anchor="middle" x="419" y="-348.8006" font-family="Inconsolata" font-size="14.00" fill="#000000">local ast = require &quot;peg/ast&#45;node&quot;</text>
<text text-anchor="middle" x="419" y="-333.4006" font-family="Inconsolata" font-size="14.00" fill="#000000">local transform = require &quot;peg/transform&quot;</text>
<text text-anchor="middle" x="419" y="-286.0006" font-family="Inconsolata" font-size="14.00" fill="#000000">local meta = {}</text>
<text text-anchor="middle" x="419" y="-270.6005" font-family="Inconsolata" font-size="14.00" fill="#000000">meta[&quot;__call&quot;] = function ()</text>
<text text-anchor="middle" x="419" y="-255.2005" font-family="Inconsolata" font-size="14.00" fill="#000000"> &#160;io.write &quot;Cannot call Node without evaluator&quot;</text>
<text text-anchor="middle" x="419" y="-239.8005" font-family="Inconsolata" font-size="14.00" fill="#000000">end</text>
<text text-anchor="middle" x="419" y="-224.4004" font-family="Inconsolata" font-size="14.00" fill="#000000">meta[&quot;__index&quot;] = meta</text>
<text text-anchor="middle" x="419" y="-209.0004" font-family="Inconsolata" font-size="14.00" fill="#000000">meta[&quot;__tostring&quot;] = ast.tostring</text>
<text text-anchor="middle" x="419" y="-193.6004" font-family="Inconsolata" font-size="14.00" fill="#000000">meta[&quot;isnode&quot;] = true</text>
<text text-anchor="middle" x="419" y="-178.2003" font-family="Inconsolata" font-size="14.00" fill="#000000">meta[&quot;root&quot;] = ast.root</text>
<text text-anchor="middle" x="419" y="-162.8003" font-family="Inconsolata" font-size="14.00" fill="#000000">meta[&quot;range&quot;] = ast.range</text>
<text text-anchor="middle" x="419" y="-147.4003" font-family="Inconsolata" font-size="14.00" fill="#000000">meta[&quot;copy&quot;] = ast.copy</text>
<text text-anchor="middle" x="419" y="-132.0002" font-family="Inconsolata" font-size="14.00" fill="#000000">meta[&quot;lift&quot;] &#160;= ast.lift</text>
<text text-anchor="middle" x="419" y="-116.6002" font-family="Inconsolata" font-size="14.00" fill="#000000">meta[&quot;tokens&quot;] = ast.tokenize</text>
<text text-anchor="middle" x="419" y="-101.2002" font-family="Inconsolata" font-size="14.00" fill="#000000">meta[&quot;flatten&quot;] = ast.flatten</text>
<text text-anchor="middle" x="419" y="-85.8002" font-family="Inconsolata" font-size="14.00" fill="#000000">meta[&quot;select&quot;] = ast.__select_node</text>
<text text-anchor="middle" x="419" y="-70.4001" font-family="Inconsolata" font-size="14.00" fill="#000000">meta[&quot;with&quot;] = ast.__select_with_node</text>
<text text-anchor="middle" x="419" y="-55.0001" font-family="Inconsolata" font-size="14.00" fill="#000000">meta[&quot;dot&quot;] = transform.dot</text>
<text text-anchor="middle" x="419" y="-39.6001" font-family="Inconsolata" font-size="14.00" fill="#000000">meta[&quot;dotLabel&quot;] = ast.dotLabel</text>
<text text-anchor="middle" x="419" y="-8.2" font-family="Inconsolata" font-size="14.00" fill="#000000">return meta</text>
</g>
<!-- codeblock_4&#45;&gt;leaf_7 -->
<g id="edge7" class="edge">
<title>codeblock_4&#45;&gt;leaf_7</title>
<path fill="none" stroke="#000000" stroke-dasharray="5,2" d="M358.0693,-399.8739C360.0365,-392.8397 362.4902,-384.0661 365.2745,-374.1099"/>
<polygon fill="#000000" stroke="#000000" points="368.7176,-374.7933 368.0403,-364.2201 361.9763,-372.908 368.7176,-374.7933"/>
</g>
</g>
</svg>