<?xml version="1.0" encoding="UTF-8" standalone="no"?>
<!DOCTYPE svg PUBLIC "-//W3C//DTD SVG 1.1//EN"
 "http://www.w3.org/Graphics/SVG/1.1/DTD/svg11.dtd">
<!-- Generated by graphviz version 2.40.1 (20161225.0304)
 -->
<!-- Title: hierarchy Pages: 1 -->
<svg width="382pt" height="663pt"
 viewBox="0.00 0.00 381.50 663.40" xmlns="http://www.w3.org/2000/svg" xmlns:xlink="http://www.w3.org/1999/xlink">
<g id="graph0" class="graph" transform="scale(1 1) rotate(0) translate(4 659.4007)">
<title>hierarchy</title>
<polygon fill="#ffffff" stroke="transparent" points="-4,4 -4,-659.4007 377.5,-659.4007 377.5,4 -4,4"/>
<!-- doc_0 -->
<g id="node1" class="node">
<title>doc_0</title>
<ellipse fill="none" stroke="#000000" cx="104" cy="-637.4007" rx="27" ry="18"/>
<text text-anchor="middle" x="104" y="-633.2007" font-family="Helvetica,sans-Serif" font-size="14.00" fill="#000000">28 &#160;</text>
</g>
<!-- section_1 -->
<g id="node2" class="node">
<title>section_1</title>
<ellipse fill="none" stroke="#000000" cx="104" cy="-565.4007" rx="27" ry="18"/>
<text text-anchor="middle" x="104" y="-561.2007" font-family="Helvetica,sans-Serif" font-size="14.00" fill="#000000">28 &#160;</text>
</g>
<!-- doc_0&#45;&gt;section_1 -->
<g id="edge1" class="edge">
<title>doc_0&#45;&gt;section_1</title>
<path fill="none" stroke="#000000" stroke-dasharray="5,2" d="M104,-619.232C104,-611.5316 104,-602.375 104,-593.8173"/>
<polygon fill="#000000" stroke="#000000" points="107.5001,-593.8139 104,-583.8139 100.5001,-593.814 107.5001,-593.8139"/>
</g>
<!-- header_2 -->
<g id="node3" class="node">
<title>header_2</title>
<ellipse fill="none" stroke="#000000" cx="32" cy="-493.4007" rx="27" ry="18"/>
<text text-anchor="middle" x="32" y="-489.2007" font-family="Helvetica,sans-Serif" font-size="14.00" fill="#000000">: &#160;&#160;</text>
</g>
<!-- section_1&#45;&gt;header_2 -->
<g id="edge2" class="edge">
<title>section_1&#45;&gt;header_2</title>
<path fill="none" stroke="#000000" stroke-dasharray="5,2" d="M88.7307,-550.1313C78.803,-540.2037 65.6847,-527.0853 54.5637,-515.9643"/>
<polygon fill="#000000" stroke="#000000" points="56.7933,-513.2442 47.2473,-508.648 51.8436,-518.194 56.7933,-513.2442"/>
</g>
<!-- block_3 -->
<g id="node4" class="node">
<title>block_3</title>
<ellipse fill="none" stroke="#000000" cx="104" cy="-493.4007" rx="27" ry="18"/>
<text text-anchor="middle" x="104" y="-489.2007" font-family="Helvetica,sans-Serif" font-size="14.00" fill="#000000">&#45;3 &#160;</text>
</g>
<!-- section_1&#45;&gt;block_3 -->
<g id="edge3" class="edge">
<title>section_1&#45;&gt;block_3</title>
<path fill="none" stroke="#000000" stroke-dasharray="5,2" d="M104,-547.232C104,-539.5316 104,-530.375 104,-521.8173"/>
<polygon fill="#000000" stroke="#000000" points="107.5001,-521.8139 104,-511.8139 100.5001,-521.814 107.5001,-521.8139"/>
</g>
<!-- block_4 -->
<g id="node5" class="node">
<title>block_4</title>
<ellipse fill="none" stroke="#000000" cx="201" cy="-493.4007" rx="27" ry="18"/>
<text text-anchor="middle" x="201" y="-489.2007" font-family="Helvetica,sans-Serif" font-size="14.00" fill="#000000">28 &#160;</text>
</g>
<!-- section_1&#45;&gt;block_4 -->
<g id="edge4" class="edge">
<title>section_1&#45;&gt;block_4</title>
<path fill="none" stroke="#000000" stroke-dasharray="5,2" d="M122.245,-551.858C137.0128,-540.8963 158.0118,-525.3094 174.6128,-512.987"/>
<polygon fill="#000000" stroke="#000000" points="176.8932,-515.6532 182.8369,-506.8826 172.7211,-510.0324 176.8932,-515.6532"/>
</g>
<!-- leaf_5 -->
<g id="node6" class="node">
<title>leaf_5</title>
<polygon fill="none" stroke="#c0c0c0" points="156,-439.6027 0,-439.6027 0,-399.7986 156,-399.7986 156,-439.6027"/>
<text text-anchor="middle" x="78" y="-424.2007" font-family="Inconsolata" font-size="14.00" fill="#000000"> The Node metatable </text>
</g>
<!-- block_3&#45;&gt;leaf_5 -->
<g id="edge5" class="edge">
<title>block_3&#45;&gt;leaf_5</title>
<path fill="none" stroke="#000000" stroke-dasharray="5,2" d="M97.7061,-475.5599C94.9108,-467.6361 91.5457,-458.0976 88.3938,-449.1631"/>
<polygon fill="#000000" stroke="#000000" points="91.5951,-447.7168 84.9675,-439.4509 84.9938,-450.0457 91.5951,-447.7168"/>
</g>
<!-- codeblock_6 -->
<g id="node7" class="node">
<title>codeblock_6</title>
<ellipse fill="none" stroke="#000000" cx="201" cy="-419.7006" rx="27" ry="18"/>
<text text-anchor="middle" x="201" y="-415.5006" font-family="Helvetica,sans-Serif" font-size="14.00" fill="#000000">28 &#160;</text>
</g>
<!-- block_4&#45;&gt;codeblock_6 -->
<g id="edge6" class="edge">
<title>block_4&#45;&gt;codeblock_6</title>
<path fill="none" stroke="#000000" stroke-dasharray="5,2" d="M201,-475.1827C201,-466.9718 201,-457.0861 201,-447.9479"/>
<polygon fill="#000000" stroke="#000000" points="204.5001,-447.709 201,-437.7091 197.5001,-447.7091 204.5001,-447.709"/>
</g>
<!-- leaf_8 -->
<g id="node9" class="node">
<title>leaf_8</title>
<polygon fill="none" stroke="#c0c0c0" points="300,-437.7006 246,-437.7006 246,-401.7006 300,-401.7006 300,-437.7006"/>
</g>
<!-- block_4&#45;&gt;leaf_8 -->
<g id="edge8" class="edge">
<title>block_4&#45;&gt;leaf_8</title>
<path fill="none" stroke="#000000" stroke-dasharray="5,2" d="M215.9184,-478.13C225.2222,-468.6065 237.4265,-456.1141 248.1613,-445.1258"/>
<polygon fill="#000000" stroke="#000000" points="250.8202,-447.4127 255.3047,-437.8138 245.813,-442.521 250.8202,-447.4127"/>
</g>
<!-- leaf_7 -->
<g id="node8" class="node">
<title>leaf_7</title>
<polygon fill="none" stroke="#c0c0c0" points="373.5,-364.0009 28.5,-364.0009 28.5,.0003 373.5,.0003 373.5,-364.0009"/>
<text text-anchor="middle" x="201" y="-348.8006" font-family="Inconsolata" font-size="14.00" fill="#000000">local ast = require &quot;peg/ast&#45;node&quot;</text>
<text text-anchor="middle" x="201" y="-333.4006" font-family="Inconsolata" font-size="14.00" fill="#000000">local transform = require &quot;peg/transform&quot;</text>
<text text-anchor="middle" x="201" y="-286.0006" font-family="Inconsolata" font-size="14.00" fill="#000000">local meta = {}</text>
<text text-anchor="middle" x="201" y="-270.6005" font-family="Inconsolata" font-size="14.00" fill="#000000">meta[&quot;__call&quot;] = function ()</text>
<text text-anchor="middle" x="201" y="-255.2005" font-family="Inconsolata" font-size="14.00" fill="#000000"> &#160;io.write &quot;Cannot call Node without evaluator&quot;</text>
<text text-anchor="middle" x="201" y="-239.8005" font-family="Inconsolata" font-size="14.00" fill="#000000">end</text>
<text text-anchor="middle" x="201" y="-224.4004" font-family="Inconsolata" font-size="14.00" fill="#000000">meta[&quot;__index&quot;] = meta</text>
<text text-anchor="middle" x="201" y="-209.0004" font-family="Inconsolata" font-size="14.00" fill="#000000">meta[&quot;__tostring&quot;] = ast.tostring</text>
<text text-anchor="middle" x="201" y="-193.6004" font-family="Inconsolata" font-size="14.00" fill="#000000">meta[&quot;isnode&quot;] = true</text>
<text text-anchor="middle" x="201" y="-178.2003" font-family="Inconsolata" font-size="14.00" fill="#000000">meta[&quot;root&quot;] = ast.root</text>
<text text-anchor="middle" x="201" y="-162.8003" font-family="Inconsolata" font-size="14.00" fill="#000000">meta[&quot;range&quot;] = ast.range</text>
<text text-anchor="middle" x="201" y="-147.4003" font-family="Inconsolata" font-size="14.00" fill="#000000">meta[&quot;copy&quot;] = ast.copy</text>
<text text-anchor="middle" x="201" y="-132.0002" font-family="Inconsolata" font-size="14.00" fill="#000000">meta[&quot;lift&quot;] &#160;= ast.lift</text>
<text text-anchor="middle" x="201" y="-116.6002" font-family="Inconsolata" font-size="14.00" fill="#000000">meta[&quot;tokens&quot;] = ast.tokenize</text>
<text text-anchor="middle" x="201" y="-101.2002" font-family="Inconsolata" font-size="14.00" fill="#000000">meta[&quot;flatten&quot;] = ast.flatten</text>
<text text-anchor="middle" x="201" y="-85.8002" font-family="Inconsolata" font-size="14.00" fill="#000000">meta[&quot;select&quot;] = ast.__select_node</text>
<text text-anchor="middle" x="201" y="-70.4001" font-family="Inconsolata" font-size="14.00" fill="#000000">meta[&quot;with&quot;] = ast.__select_with_node</text>
<text text-anchor="middle" x="201" y="-55.0001" font-family="Inconsolata" font-size="14.00" fill="#000000">meta[&quot;dot&quot;] = transform.dot</text>
<text text-anchor="middle" x="201" y="-39.6001" font-family="Inconsolata" font-size="14.00" fill="#000000">meta[&quot;dotLabel&quot;] = ast.dotLabel</text>
<text text-anchor="middle" x="201" y="-8.2" font-family="Inconsolata" font-size="14.00" fill="#000000">return meta</text>
</g>
<!-- codeblock_6&#45;&gt;leaf_7 -->
<g id="edge7" class="edge">
<title>codeblock_6&#45;&gt;leaf_7</title>
<path fill="none" stroke="#000000" stroke-dasharray="5,2" d="M201,-401.4434C201,-394.0357 201,-384.7129 201,-374.116"/>
<polygon fill="#000000" stroke="#000000" points="204.5001,-374.0443 201,-364.0443 197.5001,-374.0444 204.5001,-374.0443"/>
</g>
</g>
</svg>