<?xml version="1.0" encoding="UTF-8" standalone="no"?>
<!DOCTYPE svg PUBLIC "-//W3C//DTD SVG 1.1//EN"
 "http://www.w3.org/Graphics/SVG/1.1/DTD/svg11.dtd">
<!-- Generated by graphviz version 2.40.1 (20161225.0304)
 -->
<!-- Title: hierarchy Pages: 1 -->
<svg width="479pt" height="663pt"
 viewBox="0.00 0.00 478.50 663.40" xmlns="http://www.w3.org/2000/svg" xmlns:xlink="http://www.w3.org/1999/xlink">
<g id="graph0" class="graph" transform="scale(1 1) rotate(0) translate(4 659.4007)">
<title>hierarchy</title>
<polygon fill="#ffffff" stroke="transparent" points="-4,4 -4,-659.4007 474.5,-659.4007 474.5,4 -4,4"/>
<!-- doc_0 -->
<g id="node1" class="node">
<title>doc_0</title>
<ellipse fill="none" stroke="#000000" cx="104" cy="-637.4007" rx="42.1216" ry="18"/>
<text text-anchor="middle" x="104" y="-633.2007" font-family="Helvetica,sans-Serif" font-size="14.00" fill="#000000">doc &#45; 28</text>
</g>
<!-- section_1 -->
<g id="node2" class="node">
<title>section_1</title>
<ellipse fill="none" stroke="#000000" cx="104" cy="-565.4007" rx="60.9826" ry="18"/>
<text text-anchor="middle" x="104" y="-561.2007" font-family="Helvetica,sans-Serif" font-size="14.00" fill="#000000">section: 1&#45;28</text>
</g>
<!-- doc_0&#45;&gt;section_1 -->
<g id="edge1" class="edge">
<title>doc_0&#45;&gt;section_1</title>
<path fill="none" stroke="#000000" stroke-dasharray="5,2" d="M104,-619.232C104,-611.5316 104,-602.375 104,-593.8173"/>
<polygon fill="#000000" stroke="#000000" points="107.5001,-593.8139 104,-583.8139 100.5001,-593.814 107.5001,-593.8139"/>
</g>
<!-- header_2 -->
<g id="node3" class="node">
<title>header_2</title>
<ellipse fill="none" stroke="#000000" cx="27" cy="-493.4007" rx="27" ry="18"/>
<text text-anchor="middle" x="27" y="-489.2007" font-family="Helvetica,sans-Serif" font-size="14.00" fill="#000000">0 : </text>
</g>
<!-- section_1&#45;&gt;header_2 -->
<g id="edge2" class="edge">
<title>section_1&#45;&gt;header_2</title>
<path fill="none" stroke="#000000" stroke-dasharray="5,2" d="M85.3604,-547.9715C74.8008,-538.0975 61.4962,-525.6569 50.258,-515.1484"/>
<polygon fill="#000000" stroke="#000000" points="52.5617,-512.5107 42.8669,-508.2373 47.7807,-517.6237 52.5617,-512.5107"/>
</g>
<!-- prose_3 -->
<g id="node4" class="node">
<title>prose_3</title>
<ellipse fill="none" stroke="#000000" cx="104" cy="-493.4007" rx="32.4585" ry="18"/>
<text text-anchor="middle" x="104" y="-489.2007" font-family="Helvetica,sans-Serif" font-size="14.00" fill="#000000">prose</text>
</g>
<!-- section_1&#45;&gt;prose_3 -->
<g id="edge3" class="edge">
<title>section_1&#45;&gt;prose_3</title>
<path fill="none" stroke="#000000" stroke-dasharray="5,2" d="M104,-547.232C104,-539.5316 104,-530.375 104,-521.8173"/>
<polygon fill="#000000" stroke="#000000" points="107.5001,-521.8139 104,-511.8139 100.5001,-521.814 107.5001,-521.8139"/>
</g>
<!-- codeblock_4 -->
<g id="node5" class="node">
<title>codeblock_4</title>
<ellipse fill="none" stroke="#000000" cx="274" cy="-493.4007" rx="72.5844" ry="18"/>
<text text-anchor="middle" x="274" y="-489.2007" font-family="Helvetica,sans-Serif" font-size="14.00" fill="#000000">code block 4&#45;28</text>
</g>
<!-- section_1&#45;&gt;codeblock_4 -->
<g id="edge4" class="edge">
<title>section_1&#45;&gt;codeblock_4</title>
<path fill="none" stroke="#000000" stroke-dasharray="5,2" d="M139.2241,-550.4822C164.8012,-539.6496 199.6623,-524.8849 227.5214,-513.0857"/>
<polygon fill="#000000" stroke="#000000" points="229.2137,-516.17 237.0569,-509.0472 226.4837,-509.7243 229.2137,-516.17"/>
</g>
<!-- raw_5 -->
<g id="node6" class="node">
<title>raw_5</title>
<ellipse fill="none" stroke="#000000" cx="80" cy="-257.4003" rx="27" ry="18"/>
<text text-anchor="middle" x="80" y="-253.2003" font-family="Helvetica,sans-Serif" font-size="14.00" fill="#000000">raw</text>
</g>
<!-- prose_3&#45;&gt;raw_5 -->
<g id="edge5" class="edge">
<title>prose_3&#45;&gt;raw_5</title>
<path fill="none" stroke="#000000" stroke-dasharray="5,2" d="M102.1566,-475.274C98.0033,-434.4335 87.8877,-334.9629 82.8908,-285.8265"/>
<polygon fill="#000000" stroke="#000000" points="86.3435,-285.1833 81.8497,-275.5888 79.3794,-285.8916 86.3435,-285.1833"/>
</g>
<!-- leaf_7 -->
<g id="node8" class="node">
<title>leaf_7</title>
<polygon fill="none" stroke="#c0c0c0" points="470.5,-439.401 125.5,-439.401 125.5,-75.3997 470.5,-75.3997 470.5,-439.401"/>
<text text-anchor="middle" x="298" y="-424.2007" font-family="Inconsolata" font-size="14.00" fill="#000000">local ast = require &quot;peg/ast&#45;node&quot;</text>
<text text-anchor="middle" x="298" y="-408.8006" font-family="Inconsolata" font-size="14.00" fill="#000000">local transform = require &quot;peg/transform&quot;</text>
<text text-anchor="middle" x="298" y="-361.4006" font-family="Inconsolata" font-size="14.00" fill="#000000">local meta = {}</text>
<text text-anchor="middle" x="298" y="-346.0006" font-family="Inconsolata" font-size="14.00" fill="#000000">meta[&quot;__call&quot;] = function ()</text>
<text text-anchor="middle" x="298" y="-330.6005" font-family="Inconsolata" font-size="14.00" fill="#000000"> &#160;io.write &quot;Cannot call Node without evaluator&quot;</text>
<text text-anchor="middle" x="298" y="-315.2005" font-family="Inconsolata" font-size="14.00" fill="#000000">end</text>
<text text-anchor="middle" x="298" y="-299.8005" font-family="Inconsolata" font-size="14.00" fill="#000000">meta[&quot;__index&quot;] = meta</text>
<text text-anchor="middle" x="298" y="-284.4004" font-family="Inconsolata" font-size="14.00" fill="#000000">meta[&quot;__tostring&quot;] = ast.tostring</text>
<text text-anchor="middle" x="298" y="-269.0004" font-family="Inconsolata" font-size="14.00" fill="#000000">meta[&quot;isnode&quot;] = true</text>
<text text-anchor="middle" x="298" y="-253.6004" font-family="Inconsolata" font-size="14.00" fill="#000000">meta[&quot;root&quot;] = ast.root</text>
<text text-anchor="middle" x="298" y="-238.2003" font-family="Inconsolata" font-size="14.00" fill="#000000">meta[&quot;range&quot;] = ast.range</text>
<text text-anchor="middle" x="298" y="-222.8003" font-family="Inconsolata" font-size="14.00" fill="#000000">meta[&quot;copy&quot;] = ast.copy</text>
<text text-anchor="middle" x="298" y="-207.4003" font-family="Inconsolata" font-size="14.00" fill="#000000">meta[&quot;lift&quot;] &#160;= ast.lift</text>
<text text-anchor="middle" x="298" y="-192.0002" font-family="Inconsolata" font-size="14.00" fill="#000000">meta[&quot;tokens&quot;] = ast.tokenize</text>
<text text-anchor="middle" x="298" y="-176.6002" font-family="Inconsolata" font-size="14.00" fill="#000000">meta[&quot;flatten&quot;] = ast.flatten</text>
<text text-anchor="middle" x="298" y="-161.2002" font-family="Inconsolata" font-size="14.00" fill="#000000">meta[&quot;select&quot;] = ast.__select_node</text>
<text text-anchor="middle" x="298" y="-145.8002" font-family="Inconsolata" font-size="14.00" fill="#000000">meta[&quot;with&quot;] = ast.__select_with_node</text>
<text text-anchor="middle" x="298" y="-130.4001" font-family="Inconsolata" font-size="14.00" fill="#000000">meta[&quot;dot&quot;] = transform.dot</text>
<text text-anchor="middle" x="298" y="-115.0001" font-family="Inconsolata" font-size="14.00" fill="#000000">meta[&quot;dotLabel&quot;] = ast.dotLabel</text>
<text text-anchor="middle" x="298" y="-83.6001" font-family="Inconsolata" font-size="14.00" fill="#000000">return meta</text>
</g>
<!-- codeblock_4&#45;&gt;leaf_7 -->
<g id="edge7" class="edge">
<title>codeblock_4&#45;&gt;leaf_7</title>
<path fill="none" stroke="#000000" stroke-dasharray="5,2" d="M275.8434,-475.274C276.5514,-468.3122 277.4326,-459.6468 278.4322,-449.8175"/>
<polygon fill="#000000" stroke="#000000" points="281.9394,-449.923 279.4692,-439.6202 274.9753,-449.2147 281.9394,-449.923"/>
</g>
<!-- leaf_6 -->
<g id="node7" class="node">
<title>leaf_6</title>
<polygon fill="none" stroke="#c0c0c0" points="158,-39.6021 2,-39.6021 2,.2021 158,.2021 158,-39.6021"/>
<text text-anchor="middle" x="80" y="-8.2" font-family="Inconsolata" font-size="14.00" fill="#000000"> The Node metatable </text>
</g>
<!-- raw_5&#45;&gt;leaf_6 -->
<g id="edge6" class="edge">
<title>raw_5&#45;&gt;leaf_6</title>
<path fill="none" stroke="#000000" stroke-dasharray="5,2" d="M80,-239.1431C80,-198.4284 80,-99.861 80,-49.8626"/>
<polygon fill="#000000" stroke="#000000" points="83.5001,-49.6831 80,-39.6832 76.5001,-49.6832 83.5001,-49.6831"/>
</g>
</g>
</svg>