<?xml version="1.0" encoding="UTF-8" standalone="no"?>
<!DOCTYPE svg PUBLIC "-//W3C//DTD SVG 1.1//EN"
 "http://www.w3.org/Graphics/SVG/1.1/DTD/svg11.dtd">
<!-- Generated by graphviz version 2.40.1 (20161225.0304)
 -->
<!-- Title: hierarchy Pages: 1 -->
<svg width="2878pt" height="1397pt"
 viewBox="0.00 0.00 2877.50 1397.40" xmlns="http://www.w3.org/2000/svg" xmlns:xlink="http://www.w3.org/1999/xlink">
<g id="graph0" class="graph" transform="scale(1 1) rotate(0) translate(4 1393.4016)">
<title>hierarchy</title>
<polygon fill="#ffffff" stroke="transparent" points="-4,4 -4,-1393.4016 2873.5,-1393.4016 2873.5,4 -4,4"/>
<!-- doc_0 -->
<g id="node1" class="node">
<title>doc_0</title>
<ellipse fill="none" stroke="#000000" cx="1397" cy="-1371.4016" rx="46.9581" ry="18"/>
<text text-anchor="middle" x="1397" y="-1367.2016" font-family="Helvetica,sans-Serif" font-size="14.00" fill="#000000">doc &#45; 148</text>
</g>
<!-- section_1 -->
<g id="node2" class="node">
<title>section_1</title>
<ellipse fill="none" stroke="#000000" cx="1397" cy="-1299.4016" rx="65.8187" ry="18"/>
<text text-anchor="middle" x="1397" y="-1295.2016" font-family="Helvetica,sans-Serif" font-size="14.00" fill="#000000">section: 1&#45;148</text>
</g>
<!-- doc_0&#45;&gt;section_1 -->
<g id="edge1" class="edge">
<title>doc_0&#45;&gt;section_1</title>
<path fill="none" stroke="#000000" stroke-dasharray="5,2" d="M1397,-1353.233C1397,-1345.5325 1397,-1336.3759 1397,-1327.8182"/>
<polygon fill="#000000" stroke="#000000" points="1400.5001,-1327.8148 1397,-1317.8149 1393.5001,-1327.8149 1400.5001,-1327.8148"/>
</g>
<!-- header_2 -->
<g id="node3" class="node">
<title>header_2</title>
<ellipse fill="none" stroke="#000000" cx="159" cy="-1227.4016" rx="27" ry="18"/>
<text text-anchor="middle" x="159" y="-1223.2016" font-family="Helvetica,sans-Serif" font-size="14.00" fill="#000000">0 : </text>
</g>
<!-- section_1&#45;&gt;header_2 -->
<g id="edge2" class="edge">
<title>section_1&#45;&gt;header_2</title>
<path fill="none" stroke="#000000" stroke-dasharray="5,2" d="M1331.4833,-1298.0523C1096.6218,-1292.9962 304.9956,-1273.9891 195,-1245.4016 193.0218,-1244.8875 191.0257,-1244.2558 189.0416,-1243.5403"/>
<polygon fill="#000000" stroke="#000000" points="189.9313,-1240.1151 179.3594,-1239.4183 187.1894,-1246.5558 189.9313,-1240.1151"/>
</g>
<!-- block_3 -->
<g id="node4" class="node">
<title>block_3</title>
<ellipse fill="none" stroke="#000000" cx="250" cy="-1227.4016" rx="45.9804" ry="18"/>
<text text-anchor="middle" x="250" y="-1223.2016" font-family="Helvetica,sans-Serif" font-size="14.00" fill="#000000">block 1&#45;1</text>
</g>
<!-- section_1&#45;&gt;block_3 -->
<g id="edge3" class="edge">
<title>section_1&#45;&gt;block_3</title>
<path fill="none" stroke="#000000" stroke-dasharray="5,2" d="M1331.388,-1298.4481C1127.0119,-1295.1175 503.6664,-1282.1377 305,-1245.4016 301.11,-1244.6823 297.1154,-1243.7584 293.1405,-1242.7099"/>
<polygon fill="#000000" stroke="#000000" points="293.9496,-1239.3007 283.3713,-1239.8925 292.0099,-1246.0265 293.9496,-1239.3007"/>
</g>
<!-- block_4 -->
<g id="node5" class="node">
<title>block_4</title>
<ellipse fill="none" stroke="#000000" cx="360" cy="-1227.4016" rx="45.9804" ry="18"/>
<text text-anchor="middle" x="360" y="-1223.2016" font-family="Helvetica,sans-Serif" font-size="14.00" fill="#000000">block 2&#45;8</text>
</g>
<!-- section_1&#45;&gt;block_4 -->
<g id="edge4" class="edge">
<title>section_1&#45;&gt;block_4</title>
<path fill="none" stroke="#000000" stroke-dasharray="5,2" d="M1333.3033,-1294.9791C1145.0348,-1281.9074 593.2478,-1243.5962 415.7127,-1231.2698"/>
<polygon fill="#000000" stroke="#000000" points="415.7728,-1227.7656 405.5544,-1230.5645 415.2879,-1234.7488 415.7728,-1227.7656"/>
</g>
<!-- block_5 -->
<g id="node6" class="node">
<title>block_5</title>
<ellipse fill="none" stroke="#000000" cx="713" cy="-1227.4016" rx="50.0142" ry="18"/>
<text text-anchor="middle" x="713" y="-1223.2016" font-family="Helvetica,sans-Serif" font-size="14.00" fill="#000000">block 9&#45;11</text>
</g>
<!-- section_1&#45;&gt;block_5 -->
<g id="edge5" class="edge">
<title>section_1&#45;&gt;block_5</title>
<path fill="none" stroke="#000000" stroke-dasharray="5,2" d="M1335.6976,-1292.9487C1204.8005,-1279.1701 899.49,-1247.0321 771.3045,-1233.5389"/>
<polygon fill="#000000" stroke="#000000" points="771.5985,-1230.0506 761.287,-1232.4844 770.8656,-1237.0121 771.5985,-1230.0506"/>
</g>
<!-- block_6 -->
<g id="node7" class="node">
<title>block_6</title>
<ellipse fill="none" stroke="#000000" cx="1237" cy="-1227.4016" rx="55.6542" ry="18"/>
<text text-anchor="middle" x="1237" y="-1223.2016" font-family="Helvetica,sans-Serif" font-size="14.00" fill="#000000">block 12&#45;13</text>
</g>
<!-- section_1&#45;&gt;block_6 -->
<g id="edge6" class="edge">
<title>section_1&#45;&gt;block_6</title>
<path fill="none" stroke="#000000" stroke-dasharray="5,2" d="M1362.676,-1283.9558C1338.1421,-1272.9155 1304.9892,-1257.9967 1278.8941,-1246.254"/>
<polygon fill="#000000" stroke="#000000" points="1280.1841,-1242.9964 1269.6286,-1242.0844 1277.3115,-1249.3799 1280.1841,-1242.9964"/>
</g>
<!-- block_7 -->
<g id="node8" class="node">
<title>block_7</title>
<ellipse fill="none" stroke="#000000" cx="1477" cy="-1227.4016" rx="55.6542" ry="18"/>
<text text-anchor="middle" x="1477" y="-1223.2016" font-family="Helvetica,sans-Serif" font-size="14.00" fill="#000000">block 14&#45;70</text>
</g>
<!-- section_1&#45;&gt;block_7 -->
<g id="edge7" class="edge">
<title>section_1&#45;&gt;block_7</title>
<path fill="none" stroke="#000000" stroke-dasharray="5,2" d="M1416.3658,-1281.9724C1426.6605,-1272.7071 1439.4664,-1261.1818 1450.6533,-1251.1136"/>
<polygon fill="#000000" stroke="#000000" points="1452.997,-1253.713 1458.0886,-1244.4218 1448.3143,-1248.51 1452.997,-1253.713"/>
</g>
<!-- block_8 -->
<g id="node9" class="node">
<title>block_8</title>
<ellipse fill="none" stroke="#000000" cx="1728" cy="-1227.4016" rx="55.6542" ry="18"/>
<text text-anchor="middle" x="1728" y="-1223.2016" font-family="Helvetica,sans-Serif" font-size="14.00" fill="#000000">block 71&#45;73</text>
</g>
<!-- section_1&#45;&gt;block_8 -->
<g id="edge8" class="edge">
<title>section_1&#45;&gt;block_8</title>
<path fill="none" stroke="#000000" stroke-dasharray="5,2" d="M1448.7188,-1288.1516C1509.2595,-1274.9826 1609.1711,-1253.2496 1671.6425,-1239.6606"/>
<polygon fill="#000000" stroke="#000000" points="1672.687,-1243.0153 1681.7146,-1237.4697 1671.1991,-1236.1753 1672.687,-1243.0153"/>
</g>
<!-- block_9 -->
<g id="node10" class="node">
<title>block_9</title>
<ellipse fill="none" stroke="#000000" cx="2152" cy="-1227.4016" rx="60.9913" ry="18"/>
<text text-anchor="middle" x="2152" y="-1223.2016" font-family="Helvetica,sans-Serif" font-size="14.00" fill="#000000">block 74&#45;137</text>
</g>
<!-- section_1&#45;&gt;block_9 -->
<g id="edge9" class="edge">
<title>section_1&#45;&gt;block_9</title>
<path fill="none" stroke="#000000" stroke-dasharray="5,2" d="M1459.1056,-1293.4789C1599.1337,-1280.1253 1938.5558,-1247.7565 2083.9991,-1233.8864"/>
<polygon fill="#000000" stroke="#000000" points="2084.5078,-1237.3539 2094.1304,-1232.9203 2083.8432,-1230.3855 2084.5078,-1237.3539"/>
</g>
<!-- block_10 -->
<g id="node11" class="node">
<title>block_10</title>
<ellipse fill="none" stroke="#000000" cx="2377" cy="-1227.4016" rx="65.8274" ry="18"/>
<text text-anchor="middle" x="2377" y="-1223.2016" font-family="Helvetica,sans-Serif" font-size="14.00" fill="#000000">block 138&#45;139</text>
</g>
<!-- section_1&#45;&gt;block_10 -->
<g id="edge10" class="edge">
<title>section_1&#45;&gt;block_10</title>
<path fill="none" stroke="#000000" stroke-dasharray="5,2" d="M1461.7962,-1296.2703C1601.0842,-1289.2954 1939.3195,-1271.0503 2222,-1245.4016 2249.9904,-1242.8619 2280.7504,-1239.4245 2307.4383,-1236.234"/>
<polygon fill="#000000" stroke="#000000" points="2307.9443,-1239.6984 2317.453,-1235.0257 2307.1057,-1232.7488 2307.9443,-1239.6984"/>
</g>
<!-- block_11 -->
<g id="node12" class="node">
<title>block_11</title>
<ellipse fill="none" stroke="#000000" cx="2697" cy="-1227.4016" rx="65.8274" ry="18"/>
<text text-anchor="middle" x="2697" y="-1223.2016" font-family="Helvetica,sans-Serif" font-size="14.00" fill="#000000">block 140&#45;148</text>
</g>
<!-- section_1&#45;&gt;block_11 -->
<g id="edge11" class="edge">
<title>section_1&#45;&gt;block_11</title>
<path fill="none" stroke="#000000" stroke-dasharray="5,2" d="M1461.856,-1296.5837C1627.0699,-1289.2964 2077.2166,-1268.7579 2452,-1245.4016 2509.7225,-1241.8044 2575.0371,-1236.9675 2623.7045,-1233.2136"/>
<polygon fill="#000000" stroke="#000000" points="2624.1282,-1236.6914 2633.8282,-1232.4299 2623.5878,-1229.7123 2624.1282,-1236.6914"/>
</g>
<!-- leaf_12 -->
<g id="node13" class="node">
<title>leaf_12</title>
<polygon fill="none" stroke="#c0c0c0" points="54,-1171.4016 0,-1171.4016 0,-1135.4016 54,-1135.4016 54,-1171.4016"/>
</g>
<!-- block_3&#45;&gt;leaf_12 -->
<g id="edge12" class="edge">
<title>block_3&#45;&gt;leaf_12</title>
<path fill="none" stroke="#000000" stroke-dasharray="5,2" d="M214.8735,-1215.6159C208.2881,-1213.4888 201.4479,-1211.3347 195,-1209.4016 139.7098,-1192.8259 121.1954,-1195.9435 63.7468,-1173.2605"/>
<polygon fill="#000000" stroke="#000000" points="64.7635,-1169.8963 54.1807,-1169.3915 62.1389,-1176.3856 64.7635,-1169.8963"/>
</g>
<!-- codeblock_13 -->
<g id="node14" class="node">
<title>codeblock_13</title>
<ellipse fill="none" stroke="#000000" cx="140" cy="-1153.4016" rx="67.748" ry="18"/>
<text text-anchor="middle" x="140" y="-1149.2016" font-family="Helvetica,sans-Serif" font-size="14.00" fill="#000000">code block 2&#45;4</text>
</g>
<!-- block_4&#45;&gt;codeblock_13 -->
<g id="edge13" class="edge">
<title>block_4&#45;&gt;codeblock_13</title>
<path fill="none" stroke="#000000" stroke-dasharray="5,2" d="M324.6532,-1215.5122C288.6699,-1203.4087 232.5067,-1184.5175 191.5634,-1170.7456"/>
<polygon fill="#000000" stroke="#000000" points="192.622,-1167.4091 182.028,-1167.5383 190.3903,-1174.0438 192.622,-1167.4091"/>
</g>
<!-- structure_14 -->
<g id="node15" class="node">
<title>structure_14</title>
<ellipse fill="none" stroke="#000000" cx="270" cy="-1153.4016" rx="44.5182" ry="18"/>
<text text-anchor="middle" x="270" y="-1149.2016" font-family="Helvetica,sans-Serif" font-size="14.00" fill="#000000">structure</text>
</g>
<!-- block_4&#45;&gt;structure_14 -->
<g id="edge14" class="edge">
<title>block_4&#45;&gt;structure_14</title>
<path fill="none" stroke="#000000" stroke-dasharray="5,2" d="M340.0261,-1210.9786C327.675,-1200.8232 311.6358,-1187.6355 298.0246,-1176.444"/>
<polygon fill="#000000" stroke="#000000" points="299.8652,-1173.4263 289.9181,-1169.7787 295.4195,-1178.8333 299.8652,-1173.4263"/>
</g>
<!-- leaf_19 -->
<g id="node20" class="node">
<title>leaf_19</title>
<polygon fill="none" stroke="#c0c0c0" points="387,-1173.4016 333,-1173.4016 333,-1133.4016 387,-1133.4016 387,-1173.4016"/>
</g>
<!-- block_4&#45;&gt;leaf_19 -->
<g id="edge19" class="edge">
<title>block_4&#45;&gt;leaf_19</title>
<path fill="none" stroke="#000000" stroke-dasharray="5,2" d="M360,-1209.1095C360,-1201.4416 360,-1192.319 360,-1183.6987"/>
<polygon fill="#000000" stroke="#000000" points="363.5001,-1183.5643 360,-1173.5644 356.5001,-1183.5644 363.5001,-1183.5643"/>
</g>
<!-- structure_20 -->
<g id="node21" class="node">
<title>structure_20</title>
<ellipse fill="none" stroke="#000000" cx="450" cy="-1153.4016" rx="44.5182" ry="18"/>
<text text-anchor="middle" x="450" y="-1149.2016" font-family="Helvetica,sans-Serif" font-size="14.00" fill="#000000">structure</text>
</g>
<!-- block_5&#45;&gt;structure_20 -->
<g id="edge20" class="edge">
<title>block_5&#45;&gt;structure_20</title>
<path fill="none" stroke="#000000" stroke-dasharray="5,2" d="M669.9791,-1217.791C627.2569,-1207.908 560.0694,-1191.4476 503,-1173.4016 499.2052,-1172.2016 495.2857,-1170.8813 491.3758,-1169.5085"/>
<polygon fill="#000000" stroke="#000000" points="492.3473,-1166.138 481.753,-1166.0272 489.9658,-1172.7205 492.3473,-1166.138"/>
</g>
<!-- leaf_24 -->
<g id="node25" class="node">
<title>leaf_24</title>
<polygon fill="none" stroke="#c0c0c0" points="913.5,-1173.3037 512.5,-1173.3037 512.5,-1133.4995 913.5,-1133.4995 913.5,-1173.3037"/>
<text text-anchor="middle" x="713" y="-1141.9016" font-family="Inconsolata" font-size="14.00" fill="#000000"> &#160;&#45; [ ] Make header and footer configurable values of t</text>
</g>
<!-- block_5&#45;&gt;leaf_24 -->
<g id="edge24" class="edge">
<title>block_5&#45;&gt;leaf_24</title>
<path fill="none" stroke="#000000" stroke-dasharray="5,2" d="M713,-1209.1095C713,-1201.3807 713,-1192.1741 713,-1183.4935"/>
<polygon fill="#000000" stroke="#000000" points="716.5001,-1183.3006 713,-1173.3007 709.5001,-1183.3007 716.5001,-1183.3006"/>
</g>
<!-- leaf_25 -->
<g id="node26" class="node">
<title>leaf_25</title>
<polygon fill="none" stroke="#c0c0c0" points="1382,-1171.4016 932,-1171.4016 932,-1135.4016 1382,-1135.4016 1382,-1171.4016"/>
<text text-anchor="middle" x="1157" y="-1149.9016" font-family="Inconsolata" font-size="14.00" fill="#000000"> &#160;&#45; [ ] Make leaf_font and leaf_color configurable values of t</text>
</g>
<!-- block_6&#45;&gt;leaf_25 -->
<g id="edge25" class="edge">
<title>block_6&#45;&gt;leaf_25</title>
<path fill="none" stroke="#000000" stroke-dasharray="5,2" d="M1218.4453,-1210.2385C1208.2444,-1200.8027 1195.4017,-1188.9231 1184.0983,-1178.4675"/>
<polygon fill="#000000" stroke="#000000" points="1186.2879,-1175.7251 1176.5702,-1171.504 1181.5346,-1180.8638 1186.2879,-1175.7251"/>
</g>
<!-- codeblock_26 -->
<g id="node27" class="node">
<title>codeblock_26</title>
<ellipse fill="none" stroke="#000000" cx="1477" cy="-1153.4016" rx="77.4211" ry="18"/>
<text text-anchor="middle" x="1477" y="-1149.2016" font-family="Helvetica,sans-Serif" font-size="14.00" fill="#000000">code block 14&#45;69</text>
</g>
<!-- block_7&#45;&gt;codeblock_26 -->
<g id="edge26" class="edge">
<title>block_7&#45;&gt;codeblock_26</title>
<path fill="none" stroke="#000000" stroke-dasharray="5,2" d="M1477,-1209.1095C1477,-1200.8651 1477,-1190.9392 1477,-1181.7638"/>
<polygon fill="#000000" stroke="#000000" points="1480.5001,-1181.4833 1477,-1171.4833 1473.5001,-1181.4833 1480.5001,-1181.4833"/>
</g>
<!-- leaf_28 -->
<g id="node29" class="node">
<title>leaf_28</title>
<polygon fill="none" stroke="#c0c0c0" points="1626,-1171.4016 1572,-1171.4016 1572,-1135.4016 1626,-1135.4016 1626,-1171.4016"/>
</g>
<!-- block_7&#45;&gt;leaf_28 -->
<g id="edge28" class="edge">
<title>block_7&#45;&gt;leaf_28</title>
<path fill="none" stroke="#000000" stroke-dasharray="5,2" d="M1503.4722,-1211.3447C1520.8959,-1200.7762 1543.9236,-1186.8086 1563.0042,-1175.2351"/>
<polygon fill="#000000" stroke="#000000" points="1564.9998,-1178.1183 1571.7347,-1169.9395 1561.3695,-1172.1332 1564.9998,-1178.1183"/>
</g>
<!-- leaf_29 -->
<g id="node30" class="node">
<title>leaf_29</title>
<polygon fill="none" stroke="#c0c0c0" points="2052,-1172.7022 1644,-1172.7022 1644,-1134.101 2052,-1134.101 2052,-1172.7022"/>
<text text-anchor="middle" x="1848" y="-1157.6016" font-family="Inconsolata" font-size="14.00" fill="#000000"> Recursively walk an AST, concatenating dot descriptions</text>
<text text-anchor="middle" x="1848" y="-1142.2016" font-family="Inconsolata" font-size="14.00" fill="#000000"> to the phrase. </text>
</g>
<!-- block_8&#45;&gt;leaf_29 -->
<g id="edge29" class="edge">
<title>block_8&#45;&gt;leaf_29</title>
<path fill="none" stroke="#000000" stroke-dasharray="5,2" d="M1754.0382,-1211.3447C1769.6523,-1201.716 1789.8417,-1189.2659 1807.502,-1178.3754"/>
<polygon fill="#000000" stroke="#000000" points="1809.7944,-1181.0738 1816.469,-1172.8457 1806.1201,-1175.1156 1809.7944,-1181.0738"/>
</g>
<!-- codeblock_30 -->
<g id="node31" class="node">
<title>codeblock_30</title>
<ellipse fill="none" stroke="#000000" cx="2152" cy="-1153.4016" rx="82.2579" ry="18"/>
<text text-anchor="middle" x="2152" y="-1149.2016" font-family="Helvetica,sans-Serif" font-size="14.00" fill="#000000">code block 74&#45;136</text>
</g>
<!-- block_9&#45;&gt;codeblock_30 -->
<g id="edge30" class="edge">
<title>block_9&#45;&gt;codeblock_30</title>
<path fill="none" stroke="#000000" stroke-dasharray="5,2" d="M2152,-1209.1095C2152,-1200.8651 2152,-1190.9392 2152,-1181.7638"/>
<polygon fill="#000000" stroke="#000000" points="2155.5001,-1181.4833 2152,-1171.4833 2148.5001,-1181.4833 2155.5001,-1181.4833"/>
</g>
<!-- leaf_32 -->
<g id="node33" class="node">
<title>leaf_32</title>
<polygon fill="none" stroke="#c0c0c0" points="2306,-1171.4016 2252,-1171.4016 2252,-1135.4016 2306,-1135.4016 2306,-1171.4016"/>
</g>
<!-- block_9&#45;&gt;leaf_32 -->
<g id="edge32" class="edge">
<title>block_9&#45;&gt;leaf_32</title>
<path fill="none" stroke="#000000" stroke-dasharray="5,2" d="M2179.5571,-1211.3447C2198.1566,-1200.5072 2222.8905,-1186.0953 2243.0375,-1174.3561"/>
<polygon fill="#000000" stroke="#000000" points="2245.0548,-1177.2316 2251.933,-1169.1729 2241.5306,-1171.1834 2245.0548,-1177.2316"/>
</g>
<!-- leaf_33 -->
<g id="node34" class="node">
<title>leaf_33</title>
<polygon fill="none" stroke="#c0c0c0" points="2592,-1171.4016 2324,-1171.4016 2324,-1135.4016 2592,-1135.4016 2592,-1171.4016"/>
<text text-anchor="middle" x="2458" y="-1149.9016" font-family="Inconsolata" font-size="14.00" fill="#000000"> turn an AST into a dotfile string. </text>
</g>
<!-- block_10&#45;&gt;leaf_33 -->
<g id="edge33" class="edge">
<title>block_10&#45;&gt;leaf_33</title>
<path fill="none" stroke="#000000" stroke-dasharray="5,2" d="M2396.1959,-1209.8646C2406.4588,-1200.4886 2419.2734,-1188.7815 2430.5688,-1178.4622"/>
<polygon fill="#000000" stroke="#000000" points="2433.0738,-1180.9144 2438.096,-1171.5855 2428.3524,-1175.7463 2433.0738,-1180.9144"/>
</g>
<!-- codeblock_34 -->
<g id="node35" class="node">
<title>codeblock_34</title>
<ellipse fill="none" stroke="#000000" cx="2697" cy="-1153.4016" rx="87.0948" ry="18"/>
<text text-anchor="middle" x="2697" y="-1149.2016" font-family="Helvetica,sans-Serif" font-size="14.00" fill="#000000">code block 140&#45;148</text>
</g>
<!-- block_11&#45;&gt;codeblock_34 -->
<g id="edge34" class="edge">
<title>block_11&#45;&gt;codeblock_34</title>
<path fill="none" stroke="#000000" stroke-dasharray="5,2" d="M2697,-1209.1095C2697,-1200.8651 2697,-1190.9392 2697,-1181.7638"/>
<polygon fill="#000000" stroke="#000000" points="2700.5001,-1181.4833 2697,-1171.4833 2693.5001,-1181.4833 2700.5001,-1181.4833"/>
</g>
<!-- leaf_36 -->
<g id="node37" class="node">
<title>leaf_36</title>
<polygon fill="none" stroke="#c0c0c0" points="2856,-1171.4016 2802,-1171.4016 2802,-1135.4016 2856,-1135.4016 2856,-1171.4016"/>
</g>
<!-- block_11&#45;&gt;leaf_36 -->
<g id="edge36" class="edge">
<title>block_11&#45;&gt;leaf_36</title>
<path fill="none" stroke="#000000" stroke-dasharray="5,2" d="M2725.968,-1211.162C2745.6683,-1200.1179 2771.877,-1185.4251 2792.9305,-1173.6223"/>
<polygon fill="#000000" stroke="#000000" points="2794.8894,-1176.5367 2801.9007,-1168.5936 2791.4663,-1170.4307 2794.8894,-1176.5367"/>
</g>
<!-- leaf_15 -->
<g id="node16" class="node">
<title>leaf_15</title>
<polygon fill="none" stroke="#c0c0c0" points="210,-638.7008 54,-638.7008 54,-602.7008 210,-602.7008 210,-638.7008"/>
<text text-anchor="middle" x="132" y="-617.2008" font-family="Inconsolata" font-size="14.00" fill="#000000">&#45;&#45;&#45; Transform Module</text>
</g>
<!-- codeblock_13&#45;&gt;leaf_15 -->
<g id="edge15" class="edge">
<title>codeblock_13&#45;&gt;leaf_15</title>
<path fill="none" stroke="#000000" stroke-dasharray="5,2" d="M139.7292,-1135.3724C138.5505,-1056.8854 133.8613,-744.6427 132.4222,-648.8149"/>
<polygon fill="#000000" stroke="#000000" points="135.9206,-648.6717 132.2707,-638.7255 128.9213,-648.7769 135.9206,-648.6717"/>
</g>
<!-- handleline_16 -->
<g id="node17" class="node">
<title>handleline_16</title>
<ellipse fill="none" stroke="#000000" cx="278" cy="-620.7008" rx="50.3585" ry="18"/>
<text text-anchor="middle" x="278" y="-616.5008" font-family="Helvetica,sans-Serif" font-size="14.00" fill="#000000">handleline</text>
</g>
<!-- structure_14&#45;&gt;handleline_16 -->
<g id="edge16" class="edge">
<title>structure_14&#45;&gt;handleline_16</title>
<path fill="none" stroke="#000000" stroke-dasharray="5,2" d="M270.2708,-1135.3724C271.4495,-1056.8854 276.1387,-744.6427 277.5778,-648.8149"/>
<polygon fill="#000000" stroke="#000000" points="281.0787,-648.7769 277.7293,-638.7255 274.0794,-648.6717 281.0787,-648.7769"/>
</g>
<!-- handle_17 -->
<g id="node18" class="node">
<title>handle_17</title>
<ellipse fill="none" stroke="#000000" cx="278" cy="-90" rx="36.827" ry="18"/>
<text text-anchor="middle" x="278" y="-85.8" font-family="Helvetica,sans-Serif" font-size="14.00" fill="#000000">handle</text>
</g>
<!-- handleline_16&#45;&gt;handle_17 -->
<g id="edge17" class="edge">
<title>handleline_16&#45;&gt;handle_17</title>
<path fill="none" stroke="#000000" stroke-dasharray="5,2" d="M278,-602.4329C278,-523.8093 278,-213.9177 278,-118.2696"/>
<polygon fill="#000000" stroke="#000000" points="281.5001,-118.1911 278,-108.1911 274.5001,-118.1911 281.5001,-118.1911"/>
</g>
<!-- leaf_18 -->
<g id="node19" class="node">
<title>leaf_18</title>
<polygon fill="none" stroke="#c0c0c0" points="305,-36 251,-36 251,0 305,0 305,-36"/>
</g>
<!-- handle_17&#45;&gt;leaf_18 -->
<g id="edge18" class="edge">
<title>handle_17&#45;&gt;leaf_18</title>
<path fill="none" stroke="#000000" stroke-dasharray="5,2" d="M278,-71.8314C278,-64.131 278,-54.9743 278,-46.4166"/>
<polygon fill="#000000" stroke="#000000" points="281.5001,-46.4132 278,-36.4133 274.5001,-46.4133 281.5001,-46.4132"/>
</g>
<!-- hashline_21 -->
<g id="node22" class="node">
<title>hashline_21</title>
<ellipse fill="none" stroke="#000000" cx="450" cy="-620.7008" rx="43.0992" ry="18"/>
<text text-anchor="middle" x="450" y="-616.5008" font-family="Helvetica,sans-Serif" font-size="14.00" fill="#000000">hashline</text>
</g>
<!-- structure_20&#45;&gt;hashline_21 -->
<g id="edge21" class="edge">
<title>structure_20&#45;&gt;hashline_21</title>
<path fill="none" stroke="#000000" stroke-dasharray="5,2" d="M450,-1135.3724C450,-1056.8854 450,-744.6427 450,-648.8149"/>
<polygon fill="#000000" stroke="#000000" points="453.5001,-648.7254 450,-638.7255 446.5001,-648.7255 453.5001,-648.7254"/>
</g>
<!-- hashtag_22 -->
<g id="node23" class="node">
<title>hashtag_22</title>
<ellipse fill="none" stroke="#000000" cx="450" cy="-90" rx="41.6544" ry="18"/>
<text text-anchor="middle" x="450" y="-85.8" font-family="Helvetica,sans-Serif" font-size="14.00" fill="#000000">hashtag</text>
</g>
<!-- hashline_21&#45;&gt;hashtag_22 -->
<g id="edge22" class="edge">
<title>hashline_21&#45;&gt;hashtag_22</title>
<path fill="none" stroke="#000000" stroke-dasharray="5,2" d="M450,-602.4329C450,-523.8093 450,-213.9177 450,-118.2696"/>
<polygon fill="#000000" stroke="#000000" points="453.5001,-118.1911 450,-108.1911 446.5001,-118.1911 453.5001,-118.1911"/>
</g>
<!-- leaf_23 -->
<g id="node24" class="node">
<title>leaf_23</title>
<polygon fill="none" stroke="#c0c0c0" points="477,-36 423,-36 423,0 477,0 477,-36"/>
</g>
<!-- hashtag_22&#45;&gt;leaf_23 -->
<g id="edge23" class="edge">
<title>hashtag_22&#45;&gt;leaf_23</title>
<path fill="none" stroke="#000000" stroke-dasharray="5,2" d="M450,-71.8314C450,-64.131 450,-54.9743 450,-46.4166"/>
<polygon fill="#000000" stroke="#000000" points="453.5001,-46.4132 450,-36.4133 446.5001,-46.4133 453.5001,-46.4132"/>
</g>
<!-- leaf_27 -->
<g id="node28" class="node">
<title>leaf_27</title>
<polygon fill="none" stroke="#c0c0c0" points="1740.5,-1043.9022 1213.5,-1043.9022 1213.5,-197.4994 1740.5,-197.4994 1740.5,-1043.9022"/>
<text text-anchor="middle" x="1477" y="-1028.6015" font-family="Inconsolata" font-size="14.00" fill="#000000">local t = {}</text>
<text text-anchor="middle" x="1477" y="-997.2014" font-family="Inconsolata" font-size="14.00" fill="#000000">local dot_header = [=[</text>
<text text-anchor="middle" x="1477" y="-981.8014" font-family="Inconsolata" font-size="14.00" fill="#000000">digraph hierarchy {</text>
<text text-anchor="middle" x="1477" y="-950.4014" font-family="Inconsolata" font-size="14.00" fill="#000000">node [fontname=Helvetica]</text>
<text text-anchor="middle" x="1477" y="-935.0013" font-family="Inconsolata" font-size="14.00" fill="#000000">edge [style=dashed]</text>
<text text-anchor="middle" x="1477" y="-903.6013" font-family="Inconsolata" font-size="14.00" fill="#000000">]=]</text>
<text text-anchor="middle" x="1477" y="-872.2013" font-family="Inconsolata" font-size="14.00" fill="#000000">local dot_footer = [=[</text>
<text text-anchor="middle" x="1477" y="-840.8012" font-family="Inconsolata" font-size="14.00" fill="#000000">}</text>
<text text-anchor="middle" x="1477" y="-825.4012" font-family="Inconsolata" font-size="14.00" fill="#000000">]=]</text>
<text text-anchor="middle" x="1477" y="-794.0012" font-family="Inconsolata" font-size="14.00" fill="#000000">local leaf_font &#160;= &quot;Inconsolata&quot;</text>
<text text-anchor="middle" x="1477" y="-778.6012" font-family="Inconsolata" font-size="14.00" fill="#000000">local leaf_color = &quot;Gray&quot;</text>
<text text-anchor="middle" x="1477" y="-747.2011" font-family="Inconsolata" font-size="14.00" fill="#000000">local function sanitize_string(str)</text>
<text text-anchor="middle" x="1477" y="-731.8011" font-family="Inconsolata" font-size="14.00" fill="#000000"> &#160;&#160;&#45;&#45; filter \ and &quot;</text>
<text text-anchor="middle" x="1477" y="-716.4011" font-family="Inconsolata" font-size="14.00" fill="#000000"> &#160;&#160;local phrase = str:gsub(&quot;\\&quot;, &quot;\\\\&quot;):gsub(&#39;&quot;&#39;, &#39;\\&quot;&#39;)</text>
<text text-anchor="middle" x="1477" y="-701.001" font-family="Inconsolata" font-size="14.00" fill="#000000"> &#160;&#160;if phrase:sub(&#45;1,&#45;1) == &quot;\n&quot; then</text>
<text text-anchor="middle" x="1477" y="-685.601" font-family="Inconsolata" font-size="14.00" fill="#000000"> &#160;&#160;&#160;&#160;&#160;return phrase:sub(1, &#45;2)</text>
<text text-anchor="middle" x="1477" y="-670.201" font-family="Inconsolata" font-size="14.00" fill="#000000"> &#160;&#160;else</text>
<text text-anchor="middle" x="1477" y="-654.8009" font-family="Inconsolata" font-size="14.00" fill="#000000"> &#160;&#160;&#160;&#160;&#160;return phrase</text>
<text text-anchor="middle" x="1477" y="-639.4009" font-family="Inconsolata" font-size="14.00" fill="#000000"> &#160;&#160;end</text>
<text text-anchor="middle" x="1477" y="-624.0009" font-family="Inconsolata" font-size="14.00" fill="#000000">end</text>
<text text-anchor="middle" x="1477" y="-592.6008" font-family="Inconsolata" font-size="14.00" fill="#000000">local function ast_to_label(ast, leaf_count)</text>
<text text-anchor="middle" x="1477" y="-577.2008" font-family="Inconsolata" font-size="14.00" fill="#000000"> &#160;&#160;&#45;&#45; nodes need unique names, so we append a leaf_count and increment it</text>
<text text-anchor="middle" x="1477" y="-561.8008" font-family="Inconsolata" font-size="14.00" fill="#000000"> &#160;&#160;local label &#160;&#160;&#160;&#160;&#160;= ast.id.. &quot;_&quot; .. leaf_count </text>
<text text-anchor="middle" x="1477" y="-546.4007" font-family="Inconsolata" font-size="14.00" fill="#000000"> &#160;&#160;local label_line = label .. &quot; [label=\&quot;&quot;</text>
<text text-anchor="middle" x="1477" y="-531.0007" font-family="Inconsolata" font-size="14.00" fill="#000000"> &#160;&#160;&#160;&#160;&#160;.. sanitize_string(ast:dotLabel()) .. &quot;\&quot;]\n&quot;</text>
<text text-anchor="middle" x="1477" y="-515.6007" font-family="Inconsolata" font-size="14.00" fill="#000000"> &#160;&#160;return label, label_line, leaf_count + 1</text>
<text text-anchor="middle" x="1477" y="-500.2007" font-family="Inconsolata" font-size="14.00" fill="#000000">end</text>
<text text-anchor="middle" x="1477" y="-468.8006" font-family="Inconsolata" font-size="14.00" fill="#000000">local function list_from_table(tab)</text>
<text text-anchor="middle" x="1477" y="-453.4006" font-family="Inconsolata" font-size="14.00" fill="#000000"> &#160;&#160;local table_list = &quot;&quot;</text>
<text text-anchor="middle" x="1477" y="-438.0006" font-family="Inconsolata" font-size="14.00" fill="#000000"> &#160;&#160;for _,v in ipairs(tab) do</text>
<text text-anchor="middle" x="1477" y="-422.6005" font-family="Inconsolata" font-size="14.00" fill="#000000"> &#160;&#160;&#160;&#160;&#160;table_list = table_list..&quot; &quot;..v</text>
<text text-anchor="middle" x="1477" y="-407.2005" font-family="Inconsolata" font-size="14.00" fill="#000000"> &#160;&#160;end</text>
<text text-anchor="middle" x="1477" y="-391.8005" font-family="Inconsolata" font-size="14.00" fill="#000000"> &#160;&#160;return table_list</text>
<text text-anchor="middle" x="1477" y="-376.4004" font-family="Inconsolata" font-size="14.00" fill="#000000">end</text>
<text text-anchor="middle" x="1477" y="-345.0004" font-family="Inconsolata" font-size="14.00" fill="#000000">local function value_to_label(value, leaf_count)</text>
<text text-anchor="middle" x="1477" y="-329.6004" font-family="Inconsolata" font-size="14.00" fill="#000000"> &#160;&#160;&#45;&#45; Generates a name and label for a leaf node.</text>
<text text-anchor="middle" x="1477" y="-314.2003" font-family="Inconsolata" font-size="14.00" fill="#000000"> &#160;&#160;&#45;&#45; Returns these with an incremented leaf_count.</text>
<text text-anchor="middle" x="1477" y="-298.8003" font-family="Inconsolata" font-size="14.00" fill="#000000"> &#160;&#160;local value = sanitize_string(value)</text>
<text text-anchor="middle" x="1477" y="-283.4003" font-family="Inconsolata" font-size="14.00" fill="#000000"> &#160;&#160;local name &#160;= &quot;leaf_&quot;..leaf_count</text>
<text text-anchor="middle" x="1477" y="-268.0002" font-family="Inconsolata" font-size="14.00" fill="#000000"> &#160;&#160;local label = &quot; [color=&quot;..leaf_color..&quot;,shape=rectangle,fontname=&quot;</text>
<text text-anchor="middle" x="1477" y="-252.6002" font-family="Inconsolata" font-size="14.00" fill="#000000"> &#160;&#160;&#160;&#160;&#160;&#160;&#160;&#160;..leaf_font..&quot;,label=\&quot;&quot;..value..&quot;\&quot;]\n&quot;</text>
<text text-anchor="middle" x="1477" y="-221.2002" font-family="Inconsolata" font-size="14.00" fill="#000000"> &#160;&#160;return name, label, leaf_count + 1</text>
<text text-anchor="middle" x="1477" y="-205.8002" font-family="Inconsolata" font-size="14.00" fill="#000000">end</text>
</g>
<!-- codeblock_26&#45;&gt;leaf_27 -->
<g id="edge27" class="edge">
<title>codeblock_26&#45;&gt;leaf_27</title>
<path fill="none" stroke="#000000" stroke-dasharray="5,2" d="M1477,-1135.3724C1477,-1118.0539 1477,-1089.3542 1477,-1054.1097"/>
<polygon fill="#000000" stroke="#000000" points="1480.5001,-1053.9993 1477,-1043.9994 1473.5001,-1053.9994 1480.5001,-1053.9993"/>
</g>
<!-- leaf_31 -->
<g id="node32" class="node">
<title>leaf_31</title>
<polygon fill="none" stroke="#c0c0c0" points="2447,-1097.6025 1857,-1097.6025 1857,-143.7991 2447,-143.7991 2447,-1097.6025"/>
<text text-anchor="middle" x="2152" y="-1082.2016" font-family="Inconsolata" font-size="14.00" fill="#000000">local function dot_ranks(ast, phrase, leaf_count, ast_label)</text>
<text text-anchor="middle" x="2152" y="-1066.8016" font-family="Inconsolata" font-size="14.00" fill="#000000"> &#160;&#160;local leaf_count = leaf_count or 0</text>
<text text-anchor="middle" x="2152" y="-1035.4015" font-family="Inconsolata" font-size="14.00" fill="#000000"> &#160;&#160;&#45;&#45; Add the node we&#39;re working on</text>
<text text-anchor="middle" x="2152" y="-1020.0015" font-family="Inconsolata" font-size="14.00" fill="#000000"> &#160;&#160;if ast.isnode then</text>
<text text-anchor="middle" x="2152" y="-1004.6015" font-family="Inconsolata" font-size="14.00" fill="#000000"> &#160;&#160;&#160;&#160;&#160;local label = &quot;&quot;</text>
<text text-anchor="middle" x="2152" y="-989.2014" font-family="Inconsolata" font-size="14.00" fill="#000000"> &#160;&#160;&#160;&#160;&#160;local label_line = &quot;&quot;</text>
<text text-anchor="middle" x="2152" y="-973.8014" font-family="Inconsolata" font-size="14.00" fill="#000000"> &#160;&#160;&#160;&#160;&#160;local child_labels = {}</text>
<text text-anchor="middle" x="2152" y="-958.4014" font-family="Inconsolata" font-size="14.00" fill="#000000"> &#160;&#160;&#160;&#160;&#160;local child_label_lines = {}</text>
<text text-anchor="middle" x="2152" y="-927.0013" font-family="Inconsolata" font-size="14.00" fill="#000000"> &#160;&#160;&#160;&#160;&#160;&#45;&#45; Handle anonymous nodes</text>
<text text-anchor="middle" x="2152" y="-911.6013" font-family="Inconsolata" font-size="14.00" fill="#000000"> &#160;&#160;&#160;&#160;&#160;if not ast_label then</text>
<text text-anchor="middle" x="2152" y="-896.2013" font-family="Inconsolata" font-size="14.00" fill="#000000"> &#160;&#160;&#160;&#160;&#160;&#160;&#160;&#160;label, label_line, leaf_count = ast_to_label(ast, leaf_count)</text>
<text text-anchor="middle" x="2152" y="-880.8012" font-family="Inconsolata" font-size="14.00" fill="#000000"> &#160;&#160;&#160;&#160;&#160;&#160;&#160;&#160;phrase = phrase .. label_line .. &quot;\n\n&quot;</text>
<text text-anchor="middle" x="2152" y="-865.4012" font-family="Inconsolata" font-size="14.00" fill="#000000"> &#160;&#160;&#160;&#160;&#160;else </text>
<text text-anchor="middle" x="2152" y="-850.0012" font-family="Inconsolata" font-size="14.00" fill="#000000"> &#160;&#160;&#160;&#160;&#160;&#160;&#160;&#160;label = ast_label </text>
<text text-anchor="middle" x="2152" y="-834.6012" font-family="Inconsolata" font-size="14.00" fill="#000000"> &#160;&#160;&#160;&#160;&#160;end</text>
<text text-anchor="middle" x="2152" y="-803.2011" font-family="Inconsolata" font-size="14.00" fill="#000000"> &#160;&#160;&#160;&#160;&#160;&#45;&#45; Document child nodes</text>
<text text-anchor="middle" x="2152" y="-787.8011" font-family="Inconsolata" font-size="14.00" fill="#000000"> &#160;&#160;&#160;&#160;&#160;for i,v in ipairs(ast) do</text>
<text text-anchor="middle" x="2152" y="-772.4011" font-family="Inconsolata" font-size="14.00" fill="#000000"> &#160;&#160;&#160;&#160;&#160;&#160;&#160;&#160;&#45;&#45; assemble labels and label lines for all child nodes</text>
<text text-anchor="middle" x="2152" y="-757.001" font-family="Inconsolata" font-size="14.00" fill="#000000"> &#160;&#160;&#160;&#160;&#160;&#160;&#160;&#160;if v.isnode then</text>
<text text-anchor="middle" x="2152" y="-741.601" font-family="Inconsolata" font-size="14.00" fill="#000000"> &#160;&#160;&#160;&#160;&#160;&#160;&#160;&#160;&#160;&#160;&#160;child_labels[i], child_label_lines[i], leaf_count = </text>
<text text-anchor="middle" x="2152" y="-726.201" font-family="Inconsolata" font-size="14.00" fill="#000000"> &#160;&#160;&#160;&#160;&#160;&#160;&#160;&#160;&#160;&#160;&#160;&#160;&#160;&#160;ast_to_label(v, leaf_count)</text>
<text text-anchor="middle" x="2152" y="-710.8009" font-family="Inconsolata" font-size="14.00" fill="#000000"> &#160;&#160;&#160;&#160;&#160;&#160;&#160;&#160;end</text>
<text text-anchor="middle" x="2152" y="-695.4009" font-family="Inconsolata" font-size="14.00" fill="#000000"> &#160;&#160;&#160;&#160;&#160;end</text>
<text text-anchor="middle" x="2152" y="-664.0009" font-family="Inconsolata" font-size="14.00" fill="#000000"> &#160;&#160;&#160;&#160;&#160;local child_list = list_from_table(child_labels)</text>
<text text-anchor="middle" x="2152" y="-632.6008" font-family="Inconsolata" font-size="14.00" fill="#000000"> &#160;&#160;&#160;&#160;&#160;if next(child_labels) ~= nil then</text>
<text text-anchor="middle" x="2152" y="-617.2008" font-family="Inconsolata" font-size="14.00" fill="#000000"> &#160;&#160;&#160;&#160;&#160;&#160;&#160;&#160;phrase = phrase..label..&quot; &#45;&gt; {&quot;..child_list..&quot;}\n&quot;</text>
<text text-anchor="middle" x="2152" y="-601.8008" font-family="Inconsolata" font-size="14.00" fill="#000000"> &#160;&#160;&#160;&#160;&#160;&#160;&#160;&#160;phrase = phrase..&quot;{rank=same;&quot;..list_from_table(child_labels)..&quot;}\n\n&quot;</text>
<text text-anchor="middle" x="2152" y="-586.4007" font-family="Inconsolata" font-size="14.00" fill="#000000"> &#160;&#160;&#160;&#160;&#160;end</text>
<text text-anchor="middle" x="2152" y="-555.0007" font-family="Inconsolata" font-size="14.00" fill="#000000"> &#160;&#160;&#160;&#160;&#160;&#45;&#45; Concatenate child label lines</text>
<text text-anchor="middle" x="2152" y="-539.6007" font-family="Inconsolata" font-size="14.00" fill="#000000"> &#160;&#160;&#160;&#160;&#160;for _, v in ipairs(child_label_lines) do</text>
<text text-anchor="middle" x="2152" y="-524.2007" font-family="Inconsolata" font-size="14.00" fill="#000000"> &#160;&#160;&#160;&#160;&#160;&#160;&#160;&#160;phrase = phrase..v..&quot;\n&quot;</text>
<text text-anchor="middle" x="2152" y="-508.8006" font-family="Inconsolata" font-size="14.00" fill="#000000"> &#160;&#160;&#160;&#160;&#160;end</text>
<text text-anchor="middle" x="2152" y="-477.4006" font-family="Inconsolata" font-size="14.00" fill="#000000"> &#160;&#160;&#160;&#160;&#160;if next(child_labels) ~= nil then</text>
<text text-anchor="middle" x="2152" y="-462.0006" font-family="Inconsolata" font-size="14.00" fill="#000000"> &#160;&#160;&#160;&#160;&#160;&#160;&#160;&#160;phrase = phrase..&quot;\n&quot;</text>
<text text-anchor="middle" x="2152" y="-446.6005" font-family="Inconsolata" font-size="14.00" fill="#000000"> &#160;&#160;&#160;&#160;&#160;end</text>
<text text-anchor="middle" x="2152" y="-415.2005" font-family="Inconsolata" font-size="14.00" fill="#000000"> &#160;&#160;&#160;&#160;&#160;&#45;&#45; Execute recursively for all nodes</text>
<text text-anchor="middle" x="2152" y="-399.8005" font-family="Inconsolata" font-size="14.00" fill="#000000"> &#160;&#160;&#160;&#160;&#160;for i,v in ipairs(ast) do</text>
<text text-anchor="middle" x="2152" y="-384.4004" font-family="Inconsolata" font-size="14.00" fill="#000000"> &#160;&#160;&#160;&#160;&#160;&#160;&#160;&#160;if v.isnode then</text>
<text text-anchor="middle" x="2152" y="-369.0004" font-family="Inconsolata" font-size="14.00" fill="#000000"> &#160;&#160;&#160;&#160;&#160;&#160;&#160;&#160;&#160;&#160;&#160;phrase, leaf_count = dot_ranks(v, phrase, leaf_count, child_labels[i])</text>
<text text-anchor="middle" x="2152" y="-353.6004" font-family="Inconsolata" font-size="14.00" fill="#000000"> &#160;&#160;&#160;&#160;&#160;&#160;&#160;&#160;end</text>
<text text-anchor="middle" x="2152" y="-338.2003" font-family="Inconsolata" font-size="14.00" fill="#000000"> &#160;&#160;&#160;&#160;&#160;end</text>
<text text-anchor="middle" x="2152" y="-306.8003" font-family="Inconsolata" font-size="14.00" fill="#000000"> &#160;&#160;&#160;&#160;&#160;&#45;&#45; Document value of Node (aka span)</text>
<text text-anchor="middle" x="2152" y="-291.4003" font-family="Inconsolata" font-size="14.00" fill="#000000"> &#160;&#160;&#160;&#160;&#160;if ast.val then</text>
<text text-anchor="middle" x="2152" y="-276.0002" font-family="Inconsolata" font-size="14.00" fill="#000000"> &#160;&#160;&#160;&#160;&#160;&#160;&#160;&#160;local name = &quot;&quot; ; local val_label = &quot;&quot;</text>
<text text-anchor="middle" x="2152" y="-260.6002" font-family="Inconsolata" font-size="14.00" fill="#000000"> &#160;&#160;&#160;&#160;&#160;&#160;&#160;&#160;name, val_label, leaf_count = value_to_label(ast.val, leaf_count)</text>
<text text-anchor="middle" x="2152" y="-245.2002" font-family="Inconsolata" font-size="14.00" fill="#000000"> &#160;&#160;&#160;&#160;&#160;&#160;&#160;&#160;phrase = phrase..&quot;\n&quot;..label..&quot; &#45;&gt; &quot;..name..&quot;\n&quot;</text>
<text text-anchor="middle" x="2152" y="-229.8002" font-family="Inconsolata" font-size="14.00" fill="#000000"> &#160;&#160;&#160;&#160;&#160;&#160;&#160;&#160;phrase = phrase..name..&quot; &quot;..val_label</text>
<text text-anchor="middle" x="2152" y="-214.4001" font-family="Inconsolata" font-size="14.00" fill="#000000"> &#160;&#160;&#160;&#160;&#160;end</text>
<text text-anchor="middle" x="2152" y="-199.0001" font-family="Inconsolata" font-size="14.00" fill="#000000"> &#160;&#160;end</text>
<text text-anchor="middle" x="2152" y="-167.6001" font-family="Inconsolata" font-size="14.00" fill="#000000"> &#160;&#160;return phrase, leaf_count</text>
<text text-anchor="middle" x="2152" y="-152.2" font-family="Inconsolata" font-size="14.00" fill="#000000">end</text>
</g>
<!-- codeblock_30&#45;&gt;leaf_31 -->
<g id="edge31" class="edge">
<title>codeblock_30&#45;&gt;leaf_31</title>
<path fill="none" stroke="#000000" stroke-dasharray="5,2" d="M2152,-1135.3724C2152,-1128.0629 2152,-1118.7261 2152,-1107.7254"/>
<polygon fill="#000000" stroke="#000000" points="2155.5001,-1107.6389 2152,-1097.6389 2148.5001,-1107.639 2155.5001,-1107.6389"/>
</g>
<!-- leaf_35 -->
<g id="node36" class="node">
<title>leaf_35</title>
<polygon fill="none" stroke="#c0c0c0" points="2869.5,-679.201 2524.5,-679.201 2524.5,-562.2006 2869.5,-562.2006 2869.5,-679.201"/>
<text text-anchor="middle" x="2697" y="-664.0009" font-family="Inconsolata" font-size="14.00" fill="#000000">function t.dot(ast)</text>
<text text-anchor="middle" x="2697" y="-648.6008" font-family="Inconsolata" font-size="14.00" fill="#000000"> &#160;&#160;local phrase = dot_header</text>
<text text-anchor="middle" x="2697" y="-617.2008" font-family="Inconsolata" font-size="14.00" fill="#000000"> &#160;&#160;return &#160;dot_ranks(ast, phrase) .. dot_footer</text>
<text text-anchor="middle" x="2697" y="-601.8008" font-family="Inconsolata" font-size="14.00" fill="#000000">end</text>
<text text-anchor="middle" x="2697" y="-570.4007" font-family="Inconsolata" font-size="14.00" fill="#000000">return t</text>
</g>
<!-- codeblock_34&#45;&gt;leaf_35 -->
<g id="edge35" class="edge">
<title>codeblock_34&#45;&gt;leaf_35</title>
<path fill="none" stroke="#000000" stroke-dasharray="5,2" d="M2697,-1135.3724C2697,-1065.9003 2697,-813.2865 2697,-689.7179"/>
<polygon fill="#000000" stroke="#000000" points="2700.5001,-689.6094 2697,-679.6094 2693.5001,-689.6094 2700.5001,-689.6094"/>
</g>
</g>
</svg>