<?xml version="1.0" encoding="UTF-8" standalone="no"?>
<!DOCTYPE svg PUBLIC "-//W3C//DTD SVG 1.1//EN"
 "http://www.w3.org/Graphics/SVG/1.1/DTD/svg11.dtd">
<!-- Generated by graphviz version 2.40.1 (20161225.0304)
 -->
<!-- Title: hierarchy Pages: 1 -->
<svg width="2162pt" height="1481pt"
 viewBox="0.00 0.00 2162.12 1480.60" xmlns="http://www.w3.org/2000/svg" xmlns:xlink="http://www.w3.org/1999/xlink">
<g id="graph0" class="graph" transform="scale(1 1) rotate(0) translate(4 1476.6018)">
<title>hierarchy</title>
<polygon fill="#ffffff" stroke="transparent" points="-4,4 -4,-1476.6018 2158.1235,-1476.6018 2158.1235,4 -4,4"/>
<!-- doc_0 -->
<g id="node1" class="node">
<title>doc_0</title>
<ellipse fill="none" stroke="#000000" cx="723.6235" cy="-1454.6018" rx="46.9581" ry="18"/>
<text text-anchor="middle" x="723.6235" y="-1450.4018" font-family="Helvetica,sans-Serif" font-size="14.00" fill="#000000">doc &#45; 160</text>
</g>
<!-- section_1 -->
<g id="node2" class="node">
<title>section_1</title>
<ellipse fill="none" stroke="#000000" cx="723.6235" cy="-1382.6018" rx="65.8187" ry="18"/>
<text text-anchor="middle" x="723.6235" y="-1378.4018" font-family="Helvetica,sans-Serif" font-size="14.00" fill="#000000">section: 1&#45;160</text>
</g>
<!-- doc_0&#45;&gt;section_1 -->
<g id="edge1" class="edge">
<title>doc_0&#45;&gt;section_1</title>
<path fill="none" stroke="#000000" stroke-dasharray="5,2" d="M723.6235,-1436.4332C723.6235,-1428.7328 723.6235,-1419.5762 723.6235,-1411.0185"/>
<polygon fill="#000000" stroke="#000000" points="727.1236,-1411.0151 723.6235,-1401.0151 720.1236,-1411.0151 727.1236,-1411.0151"/>
</g>
<!-- header_2 -->
<g id="node3" class="node">
<title>header_2</title>
<ellipse fill="none" stroke="#000000" cx="175.6235" cy="-1310.6018" rx="27" ry="18"/>
<text text-anchor="middle" x="175.6235" y="-1306.4018" font-family="Helvetica,sans-Serif" font-size="14.00" fill="#000000">0 : </text>
</g>
<!-- section_1&#45;&gt;header_2 -->
<g id="edge2" class="edge">
<title>section_1&#45;&gt;header_2</title>
<path fill="none" stroke="#000000" stroke-dasharray="5,2" d="M659.0661,-1378.678C540.8039,-1371.0132 293.9842,-1352.6746 211.6235,-1328.6018 209.4982,-1327.9806 207.3475,-1327.2374 205.2102,-1326.412"/>
<polygon fill="#000000" stroke="#000000" points="206.6097,-1323.204 196.0463,-1322.3893 203.7961,-1329.6137 206.6097,-1323.204"/>
</g>
<!-- prose_3 -->
<g id="node4" class="node">
<title>prose_3</title>
<ellipse fill="none" stroke="#000000" cx="252.6235" cy="-1310.6018" rx="32.4585" ry="18"/>
<text text-anchor="middle" x="252.6235" y="-1306.4018" font-family="Helvetica,sans-Serif" font-size="14.00" fill="#000000">prose</text>
</g>
<!-- section_1&#45;&gt;prose_3 -->
<g id="edge3" class="edge">
<title>section_1&#45;&gt;prose_3</title>
<path fill="none" stroke="#000000" stroke-dasharray="5,2" d="M658.3761,-1380.2513C573.1179,-1375.8628 419.8208,-1363.434 293.6235,-1328.6018 291.1975,-1327.9322 288.7293,-1327.1441 286.2685,-1326.2781"/>
<polygon fill="#000000" stroke="#000000" points="287.5068,-1323.0044 276.9183,-1322.6385 284.9675,-1329.5276 287.5068,-1323.0044"/>
</g>
<!-- codeblock_4 -->
<g id="node5" class="node">
<title>codeblock_4</title>
<ellipse fill="none" stroke="#000000" cx="370.6235" cy="-1310.6018" rx="67.748" ry="18"/>
<text text-anchor="middle" x="370.6235" y="-1306.4018" font-family="Helvetica,sans-Serif" font-size="14.00" fill="#000000">code block 2&#45;4</text>
</g>
<!-- section_1&#45;&gt;codeblock_4 -->
<g id="edge4" class="edge">
<title>section_1&#45;&gt;codeblock_4</title>
<path fill="none" stroke="#000000" stroke-dasharray="5,2" d="M668.8309,-1372.5896C612.855,-1362.2042 523.4919,-1345.1903 446.6235,-1328.6018 441.5351,-1327.5037 436.2637,-1326.3302 430.9785,-1325.1285"/>
<polygon fill="#000000" stroke="#000000" points="431.3729,-1321.6278 420.8426,-1322.7954 429.8026,-1328.4494 431.3729,-1321.6278"/>
</g>
<!-- structure_5 -->
<g id="node6" class="node">
<title>structure_5</title>
<ellipse fill="none" stroke="#000000" cx="500.6235" cy="-1310.6018" rx="44.5182" ry="18"/>
<text text-anchor="middle" x="500.6235" y="-1306.4018" font-family="Helvetica,sans-Serif" font-size="14.00" fill="#000000">structure</text>
</g>
<!-- section_1&#45;&gt;structure_5 -->
<g id="edge5" class="edge">
<title>section_1&#45;&gt;structure_5</title>
<path fill="none" stroke="#000000" stroke-dasharray="5,2" d="M680.5095,-1368.9889C646.3306,-1358.1578 597.3741,-1342.5563 554.6235,-1328.6018 551.4764,-1327.5746 548.2283,-1326.5079 544.9594,-1325.4298"/>
<polygon fill="#000000" stroke="#000000" points="545.7644,-1322.0095 535.171,-1322.1889 543.5641,-1328.6547 545.7644,-1322.0095"/>
</g>
<!-- prose_6 -->
<g id="node7" class="node">
<title>prose_6</title>
<ellipse fill="none" stroke="#000000" cx="595.6235" cy="-1310.6018" rx="32.4585" ry="18"/>
<text text-anchor="middle" x="595.6235" y="-1306.4018" font-family="Helvetica,sans-Serif" font-size="14.00" fill="#000000">prose</text>
</g>
<!-- section_1&#45;&gt;prose_6 -->
<g id="edge6" class="edge">
<title>section_1&#45;&gt;prose_6</title>
<path fill="none" stroke="#000000" stroke-dasharray="5,2" d="M694.5783,-1366.2639C674.6215,-1355.0382 648.1235,-1340.1331 627.5705,-1328.572"/>
<polygon fill="#000000" stroke="#000000" points="629.0222,-1325.3729 618.5905,-1323.5207 625.5903,-1331.4739 629.0222,-1325.3729"/>
</g>
<!-- codeblock_7 -->
<g id="node8" class="node">
<title>codeblock_7</title>
<ellipse fill="none" stroke="#000000" cx="723.6235" cy="-1310.6018" rx="77.4211" ry="18"/>
<text text-anchor="middle" x="723.6235" y="-1306.4018" font-family="Helvetica,sans-Serif" font-size="14.00" fill="#000000">code block 14&#45;69</text>
</g>
<!-- section_1&#45;&gt;codeblock_7 -->
<g id="edge7" class="edge">
<title>section_1&#45;&gt;codeblock_7</title>
<path fill="none" stroke="#000000" stroke-dasharray="5,2" d="M723.6235,-1364.4332C723.6235,-1356.7328 723.6235,-1347.5762 723.6235,-1339.0185"/>
<polygon fill="#000000" stroke="#000000" points="727.1236,-1339.0151 723.6235,-1329.0151 720.1236,-1339.0151 727.1236,-1339.0151"/>
</g>
<!-- prose_8 -->
<g id="node9" class="node">
<title>prose_8</title>
<ellipse fill="none" stroke="#000000" cx="936.6235" cy="-1310.6018" rx="32.4585" ry="18"/>
<text text-anchor="middle" x="936.6235" y="-1306.4018" font-family="Helvetica,sans-Serif" font-size="14.00" fill="#000000">prose</text>
</g>
<!-- section_1&#45;&gt;prose_8 -->
<g id="edge8" class="edge">
<title>section_1&#45;&gt;prose_8</title>
<path fill="none" stroke="#000000" stroke-dasharray="5,2" d="M765.1977,-1368.5486C804.2067,-1355.3625 862.0082,-1335.8239 899.5008,-1323.1504"/>
<polygon fill="#000000" stroke="#000000" points="900.685,-1326.4447 909.0376,-1319.9267 898.4433,-1319.8133 900.685,-1326.4447"/>
</g>
<!-- prose_9 -->
<g id="node10" class="node">
<title>prose_9</title>
<ellipse fill="none" stroke="#000000" cx="1061.6235" cy="-1310.6018" rx="32.4585" ry="18"/>
<text text-anchor="middle" x="1061.6235" y="-1306.4018" font-family="Helvetica,sans-Serif" font-size="14.00" fill="#000000">prose</text>
</g>
<!-- section_1&#45;&gt;prose_9 -->
<g id="edge9" class="edge">
<title>section_1&#45;&gt;prose_9</title>
<path fill="none" stroke="#000000" stroke-dasharray="5,2" d="M775.68,-1371.5604C827.0259,-1360.6636 907.7414,-1343.5176 977.6235,-1328.6018 991.8037,-1325.5752 1007.3281,-1322.2514 1021.1306,-1319.2927"/>
<polygon fill="#000000" stroke="#000000" points="1022.2552,-1322.6312 1031.2991,-1317.1123 1020.7875,-1315.7868 1022.2552,-1322.6312"/>
</g>
<!-- codeblock_10 -->
<g id="node11" class="node">
<title>codeblock_10</title>
<ellipse fill="none" stroke="#000000" cx="1319.6235" cy="-1310.6018" rx="82.2579" ry="18"/>
<text text-anchor="middle" x="1319.6235" y="-1306.4018" font-family="Helvetica,sans-Serif" font-size="14.00" fill="#000000">code block 77&#45;148</text>
</g>
<!-- section_1&#45;&gt;codeblock_10 -->
<g id="edge10" class="edge">
<title>section_1&#45;&gt;codeblock_10</title>
<path fill="none" stroke="#000000" stroke-dasharray="5,2" d="M783.7748,-1375.3352C891.1499,-1362.3638 1115.9254,-1335.2097 1237.441,-1320.5299"/>
<polygon fill="#000000" stroke="#000000" points="1237.9316,-1323.9962 1247.4396,-1319.322 1237.092,-1317.0467 1237.9316,-1323.9962"/>
</g>
<!-- prose_11 -->
<g id="node12" class="node">
<title>prose_11</title>
<ellipse fill="none" stroke="#000000" cx="1618.6235" cy="-1310.6018" rx="32.4585" ry="18"/>
<text text-anchor="middle" x="1618.6235" y="-1306.4018" font-family="Helvetica,sans-Serif" font-size="14.00" fill="#000000">prose</text>
</g>
<!-- section_1&#45;&gt;prose_11 -->
<g id="edge11" class="edge">
<title>section_1&#45;&gt;prose_11</title>
<path fill="none" stroke="#000000" stroke-dasharray="5,2" d="M787.0959,-1377.7808C908.3056,-1368.537 1181.1001,-1347.5534 1410.6235,-1328.6018 1468.0678,-1323.8587 1534.4062,-1318.0626 1576.4228,-1314.352"/>
<polygon fill="#000000" stroke="#000000" points="1576.908,-1317.8228 1586.5608,-1313.4554 1576.2913,-1310.85 1576.908,-1317.8228"/>
</g>
<!-- codeblock_12 -->
<g id="node13" class="node">
<title>codeblock_12</title>
<ellipse fill="none" stroke="#000000" cx="1879.6235" cy="-1310.6018" rx="87.0948" ry="18"/>
<text text-anchor="middle" x="1879.6235" y="-1306.4018" font-family="Helvetica,sans-Serif" font-size="14.00" fill="#000000">code block 152&#45;160</text>
</g>
<!-- section_1&#45;&gt;codeblock_12 -->
<g id="edge12" class="edge">
<title>section_1&#45;&gt;codeblock_12</title>
<path fill="none" stroke="#000000" stroke-dasharray="5,2" d="M788.3397,-1379.4044C940.4228,-1371.7733 1332.4364,-1351.4216 1659.6235,-1328.6018 1702.1767,-1325.634 1749.3175,-1321.844 1789.0116,-1318.5079"/>
<polygon fill="#000000" stroke="#000000" points="1789.5303,-1321.9766 1799.2004,-1317.6478 1788.9414,-1315.0014 1789.5303,-1321.9766"/>
</g>
<!-- raw_13 -->
<g id="node14" class="node">
<title>raw_13</title>
<ellipse fill="none" stroke="#000000" cx="43.6235" cy="-709.701" rx="27" ry="18"/>
<text text-anchor="middle" x="43.6235" y="-705.501" font-family="Helvetica,sans-Serif" font-size="14.00" fill="#000000">raw</text>
</g>
<!-- prose_3&#45;&gt;raw_13 -->
<g id="edge13" class="edge">
<title>prose_3&#45;&gt;raw_13</title>
<path fill="none" stroke="#000000" stroke-dasharray="5,2" d="M227.7067,-1298.965C222.4521,-1296.7087 216.9003,-1294.4683 211.6235,-1292.6018 154.2946,-1272.3244 118.1024,-1303.6885 79.6235,-1256.6018 -48.8239,-1099.4207 11.8037,-824.428 35.5842,-737.1198"/>
<polygon fill="#000000" stroke="#000000" points="38.9734,-737.9959 38.2865,-727.4234 32.2303,-736.1167 38.9734,-737.9959"/>
</g>
<!-- leaf_15 -->
<g id="node16" class="node">
<title>leaf_15</title>
<polygon fill="none" stroke="#c0c0c0" points="244.6235,-727.701 88.6235,-727.701 88.6235,-691.701 244.6235,-691.701 244.6235,-727.701"/>
<text text-anchor="middle" x="166.6235" y="-706.201" font-family="Inconsolata" font-size="14.00" fill="#000000">&#45;&#45;&#45; Transform Module</text>
</g>
<!-- codeblock_4&#45;&gt;leaf_15 -->
<g id="edge15" class="edge">
<title>codeblock_4&#45;&gt;leaf_15</title>
<path fill="none" stroke="#000000" stroke-dasharray="5,2" d="M319.174,-1298.7915C295.6622,-1290.7653 269.559,-1277.648 253.6235,-1256.6018 130.4851,-1093.9715 151.7008,-825.2402 162.5734,-737.9979"/>
<polygon fill="#000000" stroke="#000000" points="166.0777,-738.1908 163.8995,-727.8223 159.1364,-737.2861 166.0777,-738.1908"/>
</g>
<!-- hashline_16 -->
<g id="node17" class="node">
<title>hashline_16</title>
<ellipse fill="none" stroke="#000000" cx="305.6235" cy="-709.701" rx="43.0992" ry="18"/>
<text text-anchor="middle" x="305.6235" y="-705.501" font-family="Helvetica,sans-Serif" font-size="14.00" fill="#000000">hashline</text>
</g>
<!-- structure_5&#45;&gt;hashline_16 -->
<g id="edge16" class="edge">
<title>structure_5&#45;&gt;hashline_16</title>
<path fill="none" stroke="#000000" stroke-dasharray="5,2" d="M466.7302,-1298.817C425.5584,-1284.3533 361.1169,-1261.1757 357.6235,-1256.6018 234.5268,-1095.4342 280.0424,-824.6985 298.9966,-737.5938"/>
<polygon fill="#000000" stroke="#000000" points="302.4481,-738.1972 301.2155,-727.6743 295.6169,-736.6691 302.4481,-738.1972"/>
</g>
<!-- raw_19 -->
<g id="node20" class="node">
<title>raw_19</title>
<ellipse fill="none" stroke="#000000" cx="393.6235" cy="-709.701" rx="27" ry="18"/>
<text text-anchor="middle" x="393.6235" y="-705.501" font-family="Helvetica,sans-Serif" font-size="14.00" fill="#000000">raw</text>
</g>
<!-- prose_6&#45;&gt;raw_19 -->
<g id="edge19" class="edge">
<title>prose_6&#45;&gt;raw_19</title>
<path fill="none" stroke="#000000" stroke-dasharray="5,2" d="M570.6861,-1299.0228C565.4329,-1296.7623 559.887,-1294.5056 554.6235,-1292.6018 500.2567,-1272.9379 465.889,-1301.6267 429.6235,-1256.6018 364.7632,-1176.0754 384.0834,-838.115 391.3999,-737.854"/>
<polygon fill="#000000" stroke="#000000" points="394.8913,-738.0983 392.1472,-727.8651 387.9108,-737.576 394.8913,-738.0983"/>
</g>
<!-- leaf_21 -->
<g id="node22" class="node">
<title>leaf_21</title>
<polygon fill="none" stroke="#c0c0c0" points="966.1235,-1132.9023 439.1235,-1132.9023 439.1235,-286.4996 966.1235,-286.4996 966.1235,-1132.9023"/>
<text text-anchor="middle" x="702.6235" y="-1117.6016" font-family="Inconsolata" font-size="14.00" fill="#000000">local t = {}</text>
<text text-anchor="middle" x="702.6235" y="-1086.2016" font-family="Inconsolata" font-size="14.00" fill="#000000">local dot_header = [=[</text>
<text text-anchor="middle" x="702.6235" y="-1070.8016" font-family="Inconsolata" font-size="14.00" fill="#000000">digraph hierarchy {</text>
<text text-anchor="middle" x="702.6235" y="-1039.4015" font-family="Inconsolata" font-size="14.00" fill="#000000">node [fontname=Helvetica]</text>
<text text-anchor="middle" x="702.6235" y="-1024.0015" font-family="Inconsolata" font-size="14.00" fill="#000000">edge [style=dashed]</text>
<text text-anchor="middle" x="702.6235" y="-992.6015" font-family="Inconsolata" font-size="14.00" fill="#000000">]=]</text>
<text text-anchor="middle" x="702.6235" y="-961.2014" font-family="Inconsolata" font-size="14.00" fill="#000000">local dot_footer = [=[</text>
<text text-anchor="middle" x="702.6235" y="-929.8014" font-family="Inconsolata" font-size="14.00" fill="#000000">}</text>
<text text-anchor="middle" x="702.6235" y="-914.4014" font-family="Inconsolata" font-size="14.00" fill="#000000">]=]</text>
<text text-anchor="middle" x="702.6235" y="-883.0013" font-family="Inconsolata" font-size="14.00" fill="#000000">local leaf_font &#160;= &quot;Inconsolata&quot;</text>
<text text-anchor="middle" x="702.6235" y="-867.6013" font-family="Inconsolata" font-size="14.00" fill="#000000">local leaf_color = &quot;Gray&quot;</text>
<text text-anchor="middle" x="702.6235" y="-836.2013" font-family="Inconsolata" font-size="14.00" fill="#000000">local function sanitize_string(str)</text>
<text text-anchor="middle" x="702.6235" y="-820.8012" font-family="Inconsolata" font-size="14.00" fill="#000000"> &#160;&#160;&#45;&#45; filter \ and &quot;</text>
<text text-anchor="middle" x="702.6235" y="-805.4012" font-family="Inconsolata" font-size="14.00" fill="#000000"> &#160;&#160;local phrase = str:gsub(&quot;\\&quot;, &quot;\\\\&quot;):gsub(&#39;&quot;&#39;, &#39;\\&quot;&#39;)</text>
<text text-anchor="middle" x="702.6235" y="-790.0012" font-family="Inconsolata" font-size="14.00" fill="#000000"> &#160;&#160;if phrase:sub(&#45;1,&#45;1) == &quot;\n&quot; then</text>
<text text-anchor="middle" x="702.6235" y="-774.6012" font-family="Inconsolata" font-size="14.00" fill="#000000"> &#160;&#160;&#160;&#160;&#160;return phrase:sub(1, &#45;2)</text>
<text text-anchor="middle" x="702.6235" y="-759.2011" font-family="Inconsolata" font-size="14.00" fill="#000000"> &#160;&#160;else</text>
<text text-anchor="middle" x="702.6235" y="-743.8011" font-family="Inconsolata" font-size="14.00" fill="#000000"> &#160;&#160;&#160;&#160;&#160;return phrase</text>
<text text-anchor="middle" x="702.6235" y="-728.4011" font-family="Inconsolata" font-size="14.00" fill="#000000"> &#160;&#160;end</text>
<text text-anchor="middle" x="702.6235" y="-713.001" font-family="Inconsolata" font-size="14.00" fill="#000000">end</text>
<text text-anchor="middle" x="702.6235" y="-681.601" font-family="Inconsolata" font-size="14.00" fill="#000000">local function ast_to_label(ast, leaf_count)</text>
<text text-anchor="middle" x="702.6235" y="-666.201" font-family="Inconsolata" font-size="14.00" fill="#000000"> &#160;&#160;&#45;&#45; nodes need unique names, so we append a leaf_count and increment it</text>
<text text-anchor="middle" x="702.6235" y="-650.8009" font-family="Inconsolata" font-size="14.00" fill="#000000"> &#160;&#160;local label &#160;&#160;&#160;&#160;&#160;= ast.id.. &quot;_&quot; .. leaf_count </text>
<text text-anchor="middle" x="702.6235" y="-635.4009" font-family="Inconsolata" font-size="14.00" fill="#000000"> &#160;&#160;local label_line = label .. &quot; [label=\&quot;&quot;</text>
<text text-anchor="middle" x="702.6235" y="-620.0009" font-family="Inconsolata" font-size="14.00" fill="#000000"> &#160;&#160;&#160;&#160;&#160;.. sanitize_string(ast:dotLabel()) .. &quot;\&quot;]\n&quot;</text>
<text text-anchor="middle" x="702.6235" y="-604.6008" font-family="Inconsolata" font-size="14.00" fill="#000000"> &#160;&#160;return label, label_line, leaf_count + 1</text>
<text text-anchor="middle" x="702.6235" y="-589.2008" font-family="Inconsolata" font-size="14.00" fill="#000000">end</text>
<text text-anchor="middle" x="702.6235" y="-557.8008" font-family="Inconsolata" font-size="14.00" fill="#000000">local function list_from_table(tab)</text>
<text text-anchor="middle" x="702.6235" y="-542.4007" font-family="Inconsolata" font-size="14.00" fill="#000000"> &#160;&#160;local table_list = &quot;&quot;</text>
<text text-anchor="middle" x="702.6235" y="-527.0007" font-family="Inconsolata" font-size="14.00" fill="#000000"> &#160;&#160;for _,v in ipairs(tab) do</text>
<text text-anchor="middle" x="702.6235" y="-511.6007" font-family="Inconsolata" font-size="14.00" fill="#000000"> &#160;&#160;&#160;&#160;&#160;table_list = table_list..&quot; &quot;..v</text>
<text text-anchor="middle" x="702.6235" y="-496.2007" font-family="Inconsolata" font-size="14.00" fill="#000000"> &#160;&#160;end</text>
<text text-anchor="middle" x="702.6235" y="-480.8006" font-family="Inconsolata" font-size="14.00" fill="#000000"> &#160;&#160;return table_list</text>
<text text-anchor="middle" x="702.6235" y="-465.4006" font-family="Inconsolata" font-size="14.00" fill="#000000">end</text>
<text text-anchor="middle" x="702.6235" y="-434.0006" font-family="Inconsolata" font-size="14.00" fill="#000000">local function value_to_label(value, leaf_count)</text>
<text text-anchor="middle" x="702.6235" y="-418.6005" font-family="Inconsolata" font-size="14.00" fill="#000000"> &#160;&#160;&#45;&#45; Generates a name and label for a leaf node.</text>
<text text-anchor="middle" x="702.6235" y="-403.2005" font-family="Inconsolata" font-size="14.00" fill="#000000"> &#160;&#160;&#45;&#45; Returns these with an incremented leaf_count.</text>
<text text-anchor="middle" x="702.6235" y="-387.8005" font-family="Inconsolata" font-size="14.00" fill="#000000"> &#160;&#160;local value = sanitize_string(value)</text>
<text text-anchor="middle" x="702.6235" y="-372.4004" font-family="Inconsolata" font-size="14.00" fill="#000000"> &#160;&#160;local name &#160;= &quot;leaf_&quot;..leaf_count</text>
<text text-anchor="middle" x="702.6235" y="-357.0004" font-family="Inconsolata" font-size="14.00" fill="#000000"> &#160;&#160;local label = &quot; [color=&quot;..leaf_color..&quot;,shape=rectangle,fontname=&quot;</text>
<text text-anchor="middle" x="702.6235" y="-341.6004" font-family="Inconsolata" font-size="14.00" fill="#000000"> &#160;&#160;&#160;&#160;&#160;&#160;&#160;&#160;..leaf_font..&quot;,label=\&quot;&quot;..value..&quot;\&quot;]\n&quot;</text>
<text text-anchor="middle" x="702.6235" y="-310.2003" font-family="Inconsolata" font-size="14.00" fill="#000000"> &#160;&#160;return name, label, leaf_count + 1</text>
<text text-anchor="middle" x="702.6235" y="-294.8003" font-family="Inconsolata" font-size="14.00" fill="#000000">end</text>
</g>
<!-- codeblock_7&#45;&gt;leaf_21 -->
<g id="edge21" class="edge">
<title>codeblock_7&#45;&gt;leaf_21</title>
<path fill="none" stroke="#000000" stroke-dasharray="5,2" d="M722.9836,-1292.29C722.0274,-1264.9284 720.0878,-1209.4287 717.7698,-1143.1007"/>
<polygon fill="#000000" stroke="#000000" points="721.2571,-1142.6743 717.4099,-1132.8026 714.2614,-1142.9188 721.2571,-1142.6743"/>
</g>
<!-- raw_22 -->
<g id="node23" class="node">
<title>raw_22</title>
<ellipse fill="none" stroke="#000000" cx="1011.6235" cy="-709.701" rx="27" ry="18"/>
<text text-anchor="middle" x="1011.6235" y="-705.501" font-family="Helvetica,sans-Serif" font-size="14.00" fill="#000000">raw</text>
</g>
<!-- prose_8&#45;&gt;raw_22 -->
<g id="edge22" class="edge">
<title>prose_8&#45;&gt;raw_22</title>
<path fill="none" stroke="#000000" stroke-dasharray="5,2" d="M951.5626,-1294.4437C959.9269,-1284.3552 969.6483,-1270.6495 974.6235,-1256.6018 1041.363,-1068.1594 1023.4864,-820.7248 1014.923,-738.0015"/>
<polygon fill="#000000" stroke="#000000" points="1018.3834,-737.444 1013.8344,-727.8755 1011.4235,-738.1923 1018.3834,-737.444"/>
</g>
<!-- raw_24 -->
<g id="node25" class="node">
<title>raw_24</title>
<ellipse fill="none" stroke="#000000" cx="1083.6235" cy="-709.701" rx="27" ry="18"/>
<text text-anchor="middle" x="1083.6235" y="-705.501" font-family="Helvetica,sans-Serif" font-size="14.00" fill="#000000">raw</text>
</g>
<!-- prose_9&#45;&gt;raw_24 -->
<g id="edge24" class="edge">
<title>prose_9&#45;&gt;raw_24</title>
<path fill="none" stroke="#000000" stroke-dasharray="5,2" d="M1062.294,-1292.29C1065.4411,-1206.3292 1078.7563,-842.6424 1082.588,-737.9842"/>
<polygon fill="#000000" stroke="#000000" points="1086.09,-737.9913 1082.9583,-727.8699 1079.0947,-737.7351 1086.09,-737.9913"/>
</g>
<!-- leaf_26 -->
<g id="node27" class="node">
<title>leaf_26</title>
<polygon fill="none" stroke="#c0c0c0" points="1718.6235,-1256.5027 1128.6235,-1256.5027 1128.6235,-162.8992 1718.6235,-162.8992 1718.6235,-1256.5027"/>
<text text-anchor="middle" x="1423.6235" y="-1241.4018" font-family="Inconsolata" font-size="14.00" fill="#000000">local function dot_ranks(ast, phrase, leaf_count, ast_label)</text>
<text text-anchor="middle" x="1423.6235" y="-1226.0018" font-family="Inconsolata" font-size="14.00" fill="#000000"> &#160;&#160;local leaf_count = leaf_count or 0</text>
<text text-anchor="middle" x="1423.6235" y="-1194.6018" font-family="Inconsolata" font-size="14.00" fill="#000000"> &#160;&#160;&#45;&#45; Add the node we&#39;re working on</text>
<text text-anchor="middle" x="1423.6235" y="-1179.2017" font-family="Inconsolata" font-size="14.00" fill="#000000"> &#160;&#160;if ast.isnode or ast.isNode then</text>
<text text-anchor="middle" x="1423.6235" y="-1163.8017" font-family="Inconsolata" font-size="14.00" fill="#000000"> &#160;&#160;&#160;&#160;&#160;local label = &quot;&quot;</text>
<text text-anchor="middle" x="1423.6235" y="-1148.4017" font-family="Inconsolata" font-size="14.00" fill="#000000"> &#160;&#160;&#160;&#160;&#160;local label_line = &quot;&quot;</text>
<text text-anchor="middle" x="1423.6235" y="-1133.0017" font-family="Inconsolata" font-size="14.00" fill="#000000"> &#160;&#160;&#160;&#160;&#160;local child_labels = {}</text>
<text text-anchor="middle" x="1423.6235" y="-1117.6016" font-family="Inconsolata" font-size="14.00" fill="#000000"> &#160;&#160;&#160;&#160;&#160;local child_label_lines = {}</text>
<text text-anchor="middle" x="1423.6235" y="-1086.2016" font-family="Inconsolata" font-size="14.00" fill="#000000"> &#160;&#160;&#160;&#160;&#160;&#45;&#45; Handle anonymous nodes</text>
<text text-anchor="middle" x="1423.6235" y="-1070.8016" font-family="Inconsolata" font-size="14.00" fill="#000000"> &#160;&#160;&#160;&#160;&#160;if not ast_label then</text>
<text text-anchor="middle" x="1423.6235" y="-1055.4015" font-family="Inconsolata" font-size="14.00" fill="#000000"> &#160;&#160;&#160;&#160;&#160;&#160;&#160;&#160;label, label_line, leaf_count = ast_to_label(ast, leaf_count)</text>
<text text-anchor="middle" x="1423.6235" y="-1040.0015" font-family="Inconsolata" font-size="14.00" fill="#000000"> &#160;&#160;&#160;&#160;&#160;&#160;&#160;&#160;phrase = phrase .. label_line .. &quot;\n\n&quot;</text>
<text text-anchor="middle" x="1423.6235" y="-1024.6015" font-family="Inconsolata" font-size="14.00" fill="#000000"> &#160;&#160;&#160;&#160;&#160;else </text>
<text text-anchor="middle" x="1423.6235" y="-1009.2014" font-family="Inconsolata" font-size="14.00" fill="#000000"> &#160;&#160;&#160;&#160;&#160;&#160;&#160;&#160;label = ast_label </text>
<text text-anchor="middle" x="1423.6235" y="-993.8014" font-family="Inconsolata" font-size="14.00" fill="#000000"> &#160;&#160;&#160;&#160;&#160;end</text>
<text text-anchor="middle" x="1423.6235" y="-962.4014" font-family="Inconsolata" font-size="14.00" fill="#000000"> &#160;&#160;&#160;&#160;&#160;&#45;&#45; Document child nodes</text>
<text text-anchor="middle" x="1423.6235" y="-947.0013" font-family="Inconsolata" font-size="14.00" fill="#000000"> &#160;&#160;&#160;&#160;&#160;for i,v in ipairs(ast) do</text>
<text text-anchor="middle" x="1423.6235" y="-931.6013" font-family="Inconsolata" font-size="14.00" fill="#000000"> &#160;&#160;&#160;&#160;&#160;&#160;&#160;&#160;&#45;&#45; assemble labels and label lines for all child nodes</text>
<text text-anchor="middle" x="1423.6235" y="-916.2013" font-family="Inconsolata" font-size="14.00" fill="#000000"> &#160;&#160;&#160;&#160;&#160;&#160;&#160;&#160;if v.isnode or v.isNode then</text>
<text text-anchor="middle" x="1423.6235" y="-900.8012" font-family="Inconsolata" font-size="14.00" fill="#000000"> &#160;&#160;&#160;&#160;&#160;&#160;&#160;&#160;&#160;&#160;&#160;child_labels[i], child_label_lines[i], leaf_count = </text>
<text text-anchor="middle" x="1423.6235" y="-885.4012" font-family="Inconsolata" font-size="14.00" fill="#000000"> &#160;&#160;&#160;&#160;&#160;&#160;&#160;&#160;&#160;&#160;&#160;&#160;&#160;&#160;ast_to_label(v, leaf_count)</text>
<text text-anchor="middle" x="1423.6235" y="-870.0012" font-family="Inconsolata" font-size="14.00" fill="#000000"> &#160;&#160;&#160;&#160;&#160;&#160;&#160;&#160;end</text>
<text text-anchor="middle" x="1423.6235" y="-854.6012" font-family="Inconsolata" font-size="14.00" fill="#000000"> &#160;&#160;&#160;&#160;&#160;end</text>
<text text-anchor="middle" x="1423.6235" y="-807.2011" font-family="Inconsolata" font-size="14.00" fill="#000000"> &#160;&#160;&#160;&#160;&#160;local child_list = list_from_table(child_labels)</text>
<text text-anchor="middle" x="1423.6235" y="-775.8011" font-family="Inconsolata" font-size="14.00" fill="#000000"> &#160;&#160;&#160;&#160;&#160;if next(child_labels) ~= nil then</text>
<text text-anchor="middle" x="1423.6235" y="-760.4011" font-family="Inconsolata" font-size="14.00" fill="#000000"> &#160;&#160;&#160;&#160;&#160;&#160;&#160;&#160;phrase = phrase..label..&quot; &#45;&gt; {&quot;..child_list..&quot;}\n&quot;</text>
<text text-anchor="middle" x="1423.6235" y="-745.001" font-family="Inconsolata" font-size="14.00" fill="#000000"> &#160;&#160;&#160;&#160;&#160;&#160;&#160;&#160;phrase = phrase..&quot;{rank=same;&quot;..list_from_table(child_labels)..&quot;}\n\n&quot;</text>
<text text-anchor="middle" x="1423.6235" y="-729.601" font-family="Inconsolata" font-size="14.00" fill="#000000"> &#160;&#160;&#160;&#160;&#160;end</text>
<text text-anchor="middle" x="1423.6235" y="-698.201" font-family="Inconsolata" font-size="14.00" fill="#000000"> &#160;&#160;&#160;&#160;&#160;&#45;&#45; Concatenate child label lines</text>
<text text-anchor="middle" x="1423.6235" y="-682.8009" font-family="Inconsolata" font-size="14.00" fill="#000000"> &#160;&#160;&#160;&#160;&#160;for _, v in ipairs(child_label_lines) do</text>
<text text-anchor="middle" x="1423.6235" y="-667.4009" font-family="Inconsolata" font-size="14.00" fill="#000000"> &#160;&#160;&#160;&#160;&#160;&#160;&#160;&#160;phrase = phrase..v..&quot;\n&quot;</text>
<text text-anchor="middle" x="1423.6235" y="-652.0009" font-family="Inconsolata" font-size="14.00" fill="#000000"> &#160;&#160;&#160;&#160;&#160;end</text>
<text text-anchor="middle" x="1423.6235" y="-620.6008" font-family="Inconsolata" font-size="14.00" fill="#000000"> &#160;&#160;&#160;&#160;&#160;if next(child_labels) ~= nil then</text>
<text text-anchor="middle" x="1423.6235" y="-605.2008" font-family="Inconsolata" font-size="14.00" fill="#000000"> &#160;&#160;&#160;&#160;&#160;&#160;&#160;&#160;phrase = phrase..&quot;\n&quot;</text>
<text text-anchor="middle" x="1423.6235" y="-589.8008" font-family="Inconsolata" font-size="14.00" fill="#000000"> &#160;&#160;&#160;&#160;&#160;end</text>
<text text-anchor="middle" x="1423.6235" y="-558.4007" font-family="Inconsolata" font-size="14.00" fill="#000000"> &#160;&#160;&#160;&#160;&#160;&#45;&#45; Execute recursively for all nodes</text>
<text text-anchor="middle" x="1423.6235" y="-543.0007" font-family="Inconsolata" font-size="14.00" fill="#000000"> &#160;&#160;&#160;&#160;&#160;for i,v in ipairs(ast) do</text>
<text text-anchor="middle" x="1423.6235" y="-527.6007" font-family="Inconsolata" font-size="14.00" fill="#000000"> &#160;&#160;&#160;&#160;&#160;&#160;&#160;&#160;if v.isnode or v.isNode then</text>
<text text-anchor="middle" x="1423.6235" y="-512.2007" font-family="Inconsolata" font-size="14.00" fill="#000000"> &#160;&#160;&#160;&#160;&#160;&#160;&#160;&#160;&#160;&#160;&#160;phrase, leaf_count = dot_ranks(v, phrase, leaf_count, child_labels[i])</text>
<text text-anchor="middle" x="1423.6235" y="-496.8006" font-family="Inconsolata" font-size="14.00" fill="#000000"> &#160;&#160;&#160;&#160;&#160;&#160;&#160;&#160;end</text>
<text text-anchor="middle" x="1423.6235" y="-481.4006" font-family="Inconsolata" font-size="14.00" fill="#000000"> &#160;&#160;&#160;&#160;&#160;end</text>
<text text-anchor="middle" x="1423.6235" y="-450.0006" font-family="Inconsolata" font-size="14.00" fill="#000000"> &#160;&#160;&#160;&#160;&#160;&#45;&#45; Document value of Node (aka span)</text>
<text text-anchor="middle" x="1423.6235" y="-434.6005" font-family="Inconsolata" font-size="14.00" fill="#000000"> &#160;&#160;&#160;&#160;&#160;local leaf_val = &quot;&quot;</text>
<text text-anchor="middle" x="1423.6235" y="-403.2005" font-family="Inconsolata" font-size="14.00" fill="#000000"> &#160;&#160;&#160;&#160;&#160;if ast.val then</text>
<text text-anchor="middle" x="1423.6235" y="-387.8005" font-family="Inconsolata" font-size="14.00" fill="#000000"> &#160;&#160;&#160;&#160;&#160;&#160;&#160;&#160;leaf_val = ast.val</text>
<text text-anchor="middle" x="1423.6235" y="-372.4004" font-family="Inconsolata" font-size="14.00" fill="#000000"> &#160;&#160;&#160;&#160;&#160;elseif ast.toValue then</text>
<text text-anchor="middle" x="1423.6235" y="-357.0004" font-family="Inconsolata" font-size="14.00" fill="#000000"> &#160;&#160;&#160;&#160;&#160;&#160;&#160;&#160;leaf_val = ast:toValue()</text>
<text text-anchor="middle" x="1423.6235" y="-341.6004" font-family="Inconsolata" font-size="14.00" fill="#000000"> &#160;&#160;&#160;&#160;&#160;end</text>
<text text-anchor="middle" x="1423.6235" y="-310.2003" font-family="Inconsolata" font-size="14.00" fill="#000000"> &#160;&#160;&#160;&#160;&#160;if not ast[1] then</text>
<text text-anchor="middle" x="1423.6235" y="-294.8003" font-family="Inconsolata" font-size="14.00" fill="#000000"> &#160;&#160;&#160;&#160;&#160;&#160;&#160;&#160;local name = &quot;&quot; ; local val_label = &quot;&quot;</text>
<text text-anchor="middle" x="1423.6235" y="-279.4003" font-family="Inconsolata" font-size="14.00" fill="#000000"> &#160;&#160;&#160;&#160;&#160;&#160;&#160;&#160;name, val_label, leaf_count = value_to_label(leaf_val, leaf_count)</text>
<text text-anchor="middle" x="1423.6235" y="-264.0002" font-family="Inconsolata" font-size="14.00" fill="#000000"> &#160;&#160;&#160;&#160;&#160;&#160;&#160;&#160;phrase = phrase..label..&quot; &#45;&gt; &quot;..name..&quot;\n&quot;</text>
<text text-anchor="middle" x="1423.6235" y="-248.6002" font-family="Inconsolata" font-size="14.00" fill="#000000"> &#160;&#160;&#160;&#160;&#160;&#160;&#160;&#160;phrase = phrase..name..&quot; &quot;..val_label</text>
<text text-anchor="middle" x="1423.6235" y="-233.2002" font-family="Inconsolata" font-size="14.00" fill="#000000"> &#160;&#160;&#160;&#160;&#160;end</text>
<text text-anchor="middle" x="1423.6235" y="-217.8002" font-family="Inconsolata" font-size="14.00" fill="#000000"> &#160;&#160;end</text>
<text text-anchor="middle" x="1423.6235" y="-186.4001" font-family="Inconsolata" font-size="14.00" fill="#000000"> &#160;&#160;return phrase, leaf_count</text>
<text text-anchor="middle" x="1423.6235" y="-171.0001" font-family="Inconsolata" font-size="14.00" fill="#000000">end</text>
</g>
<!-- codeblock_10&#45;&gt;leaf_26 -->
<g id="edge26" class="edge">
<title>codeblock_10&#45;&gt;leaf_26</title>
<path fill="none" stroke="#000000" stroke-dasharray="5,2" d="M1322.7928,-1292.29C1323.9795,-1285.4334 1325.472,-1276.8099 1327.2232,-1266.6919"/>
<polygon fill="#000000" stroke="#000000" points="1330.7231,-1266.9924 1328.9799,-1256.542 1323.8257,-1265.7986 1330.7231,-1266.9924"/>
</g>
<!-- raw_27 -->
<g id="node28" class="node">
<title>raw_27</title>
<ellipse fill="none" stroke="#000000" cx="1763.6235" cy="-709.701" rx="27" ry="18"/>
<text text-anchor="middle" x="1763.6235" y="-705.501" font-family="Helvetica,sans-Serif" font-size="14.00" fill="#000000">raw</text>
</g>
<!-- prose_11&#45;&gt;raw_27 -->
<g id="edge27" class="edge">
<title>prose_11&#45;&gt;raw_27</title>
<path fill="none" stroke="#000000" stroke-dasharray="5,2" d="M1648.9033,-1304.397C1674.4924,-1297.4282 1709.7516,-1283.3938 1727.6235,-1256.6018 1839.6468,-1088.667 1790.7228,-823.4774 1770.6765,-737.5589"/>
<polygon fill="#000000" stroke="#000000" points="1774.0638,-736.6747 1768.3326,-727.7638 1767.256,-738.3038 1774.0638,-736.6747"/>
</g>
<!-- leaf_29 -->
<g id="node30" class="node">
<title>leaf_29</title>
<polygon fill="none" stroke="#c0c0c0" points="2154.1235,-768.2011 1809.1235,-768.2011 1809.1235,-651.2008 2154.1235,-651.2008 2154.1235,-768.2011"/>
<text text-anchor="middle" x="1981.6235" y="-753.001" font-family="Inconsolata" font-size="14.00" fill="#000000">function t.dot(ast)</text>
<text text-anchor="middle" x="1981.6235" y="-737.601" font-family="Inconsolata" font-size="14.00" fill="#000000"> &#160;&#160;local phrase = dot_header</text>
<text text-anchor="middle" x="1981.6235" y="-706.201" font-family="Inconsolata" font-size="14.00" fill="#000000"> &#160;&#160;return &#160;dot_ranks(ast, phrase) .. dot_footer</text>
<text text-anchor="middle" x="1981.6235" y="-690.8009" font-family="Inconsolata" font-size="14.00" fill="#000000">end</text>
<text text-anchor="middle" x="1981.6235" y="-659.4009" font-family="Inconsolata" font-size="14.00" fill="#000000">return t</text>
</g>
<!-- codeblock_12&#45;&gt;leaf_29 -->
<g id="edge29" class="edge">
<title>codeblock_12&#45;&gt;leaf_29</title>
<path fill="none" stroke="#000000" stroke-dasharray="5,2" d="M1882.7319,-1292.29C1895.8097,-1215.2464 1946.7566,-915.1083 1969.9762,-778.3176"/>
<polygon fill="#000000" stroke="#000000" points="1973.4433,-778.8057 1971.6663,-768.361 1966.542,-777.6342 1973.4433,-778.8057"/>
</g>
<!-- leaf_14 -->
<g id="node15" class="node">
<title>leaf_14</title>
<polygon fill="none" stroke="#c0c0c0" points="70.6235,-117.4 16.6235,-117.4 16.6235,-81.4 70.6235,-81.4 70.6235,-117.4"/>
</g>
<!-- raw_13&#45;&gt;leaf_14 -->
<g id="edge14" class="edge">
<title>raw_13&#45;&gt;leaf_14</title>
<path fill="none" stroke="#000000" stroke-dasharray="5,2" d="M43.6235,-691.4359C43.6235,-604.6618 43.6235,-233.877 43.6235,-127.8333"/>
<polygon fill="#000000" stroke="#000000" points="47.1236,-127.5939 43.6235,-117.5939 40.1236,-127.5939 47.1236,-127.5939"/>
</g>
<!-- hashtag_17 -->
<g id="node18" class="node">
<title>hashtag_17</title>
<ellipse fill="none" stroke="#000000" cx="162.6235" cy="-99.4" rx="41.6544" ry="18"/>
<text text-anchor="middle" x="162.6235" y="-95.2" font-family="Helvetica,sans-Serif" font-size="14.00" fill="#000000">hashtag</text>
</g>
<!-- hashline_16&#45;&gt;hashtag_17 -->
<g id="edge17" class="edge">
<title>hashline_16&#45;&gt;hashtag_17</title>
<path fill="none" stroke="#000000" stroke-dasharray="5,2" d="M309.0191,-691.5441C321.6142,-618.9059 359.6748,-344.4074 253.6235,-162.8001 246.766,-151.057 219.7722,-132.9713 196.9504,-119.1171"/>
<polygon fill="#000000" stroke="#000000" points="198.5183,-115.9768 188.1395,-113.8485 194.9258,-121.9846 198.5183,-115.9768"/>
</g>
<!-- leaf_18 -->
<g id="node19" class="node">
<title>leaf_18</title>
<polygon fill="none" stroke="#c0c0c0" points="189.6235,-36 135.6235,-36 135.6235,0 189.6235,0 189.6235,-36"/>
</g>
<!-- hashtag_17&#45;&gt;leaf_18 -->
<g id="edge18" class="edge">
<title>hashtag_17&#45;&gt;leaf_18</title>
<path fill="none" stroke="#000000" stroke-dasharray="5,2" d="M162.6235,-81.3347C162.6235,-71.0069 162.6235,-57.828 162.6235,-46.1691"/>
<polygon fill="#000000" stroke="#000000" points="166.1236,-46.0148 162.6235,-36.0148 159.1236,-46.0148 166.1236,-46.0148"/>
</g>
<!-- leaf_20 -->
<g id="node21" class="node">
<title>leaf_20</title>
<polygon fill="none" stroke="#c0c0c0" points="672.6235,-119.3021 222.6235,-119.3021 222.6235,-79.4979 672.6235,-79.4979 672.6235,-119.3021"/>
<text text-anchor="middle" x="447.6235" y="-87.9" font-family="Inconsolata" font-size="14.00" fill="#000000"> &#160;&#45; [ ] Make leaf_font and leaf_color configurable values of t</text>
</g>
<!-- raw_19&#45;&gt;leaf_20 -->
<g id="edge20" class="edge">
<title>raw_19&#45;&gt;leaf_20</title>
<path fill="none" stroke="#000000" stroke-dasharray="5,2" d="M393.4376,-691.5985C393.0167,-622.393 394.1256,-368.1406 429.6235,-162.8001 431.5732,-151.5218 434.7476,-139.3773 437.8918,-128.7656"/>
<polygon fill="#000000" stroke="#000000" points="441.258,-129.7265 440.8562,-119.1393 434.568,-127.6663 441.258,-129.7265"/>
</g>
<!-- leaf_23 -->
<g id="node24" class="node">
<title>leaf_23</title>
<polygon fill="none" stroke="#c0c0c0" points="1160.6235,-126.7005 752.6235,-126.7005 752.6235,-72.0996 1160.6235,-72.0996 1160.6235,-126.7005"/>
<text text-anchor="middle" x="956.6235" y="-95.6001" font-family="Inconsolata" font-size="14.00" fill="#000000"> Recursively walk an AST, concatenating dot descriptions</text>
<text text-anchor="middle" x="956.6235" y="-80.2" font-family="Inconsolata" font-size="14.00" fill="#000000"> to the phrase. </text>
</g>
<!-- raw_22&#45;&gt;leaf_23 -->
<g id="edge23" class="edge">
<title>raw_22&#45;&gt;leaf_23</title>
<path fill="none" stroke="#000000" stroke-dasharray="5,2" d="M1011.7648,-691.598C1012.0175,-622.3909 1010.3126,-368.1332 974.6235,-162.8001 973.1307,-154.2115 970.9322,-145.1196 968.5802,-136.5847"/>
<polygon fill="#000000" stroke="#000000" points="971.9167,-135.5227 965.7818,-126.8848 965.191,-137.4631 971.9167,-135.5227"/>
</g>
<!-- leaf_25 -->
<g id="node26" class="node">
<title>leaf_25</title>
<polygon fill="none" stroke="#c0c0c0" points="1580.1235,-126.7005 1179.1235,-126.7005 1179.1235,-72.0996 1580.1235,-72.0996 1580.1235,-126.7005"/>
<text text-anchor="middle" x="1379.6235" y="-95.6001" font-family="Inconsolata" font-size="14.00" fill="#000000"> &#45; [ ] #todo allow nodes to skip themselves to collapse</text>
<text text-anchor="middle" x="1379.6235" y="-80.2" font-family="Inconsolata" font-size="14.00" fill="#000000"> &#160;&#160;&#160;&#160;&#160;&#160;&#160;&#160;&#160;&#160;&#160;&#160;semantic intermediates</text>
</g>
<!-- raw_24&#45;&gt;leaf_25 -->
<g id="edge25" class="edge">
<title>raw_24&#45;&gt;leaf_25</title>
<path fill="none" stroke="#000000" stroke-dasharray="5,2" d="M1082.0734,-691.4761C1075.1932,-605.9202 1050.6936,-244.8571 1119.6235,-162.8001 1130.9792,-149.2818 1158.5065,-138.2023 1191.603,-129.305"/>
<polygon fill="#000000" stroke="#000000" points="1192.7499,-132.6237 1201.5567,-126.7337 1190.9991,-125.8462 1192.7499,-132.6237"/>
</g>
<!-- leaf_28 -->
<g id="node29" class="node">
<title>leaf_28</title>
<polygon fill="none" stroke="#c0c0c0" points="1897.6235,-119.3021 1629.6235,-119.3021 1629.6235,-79.4979 1897.6235,-79.4979 1897.6235,-119.3021"/>
<text text-anchor="middle" x="1763.6235" y="-87.9" font-family="Inconsolata" font-size="14.00" fill="#000000"> turn an AST into a dotfile string. </text>
</g>
<!-- raw_27&#45;&gt;leaf_28 -->
<g id="edge28" class="edge">
<title>raw_27&#45;&gt;leaf_28</title>
<path fill="none" stroke="#000000" stroke-dasharray="5,2" d="M1763.6235,-691.4359C1763.6235,-605.0534 1763.6235,-237.2181 1763.6235,-129.2852"/>
<polygon fill="#000000" stroke="#000000" points="1767.1236,-129.1064 1763.6235,-119.1065 1760.1236,-129.1065 1767.1236,-129.1064"/>
</g>
</g>
</svg>