<?xml version="1.0" encoding="UTF-8" standalone="no"?>
<!DOCTYPE svg PUBLIC "-//W3C//DTD SVG 1.1//EN"
 "http://www.w3.org/Graphics/SVG/1.1/DTD/svg11.dtd">
<!-- Generated by graphviz version 2.40.1 (20161225.0304)
 -->
<!-- Title: hierarchy Pages: 1 -->
<svg width="1138pt" height="620pt"
 viewBox="0.00 0.00 1138.49 620.00" xmlns="http://www.w3.org/2000/svg" xmlns:xlink="http://www.w3.org/1999/xlink">
<g id="graph0" class="graph" transform="scale(1 1) rotate(0) translate(4 616)">
<title>hierarchy</title>
<polygon fill="#ffffff" stroke="transparent" points="-4,4 -4,-616 1134.4868,-616 1134.4868,4 -4,4"/>
<!-- doc_0 -->
<g id="node1" class="node">
<title>doc_0</title>
<ellipse fill="none" stroke="#000000" cx="266.4868" cy="-594" rx="42.1216" ry="18"/>
<text text-anchor="middle" x="266.4868" y="-589.8" font-family="Helvetica,sans-Serif" font-size="14.00" fill="#000000">doc &#45; 34</text>
</g>
<!-- section_1 -->
<g id="node2" class="node">
<title>section_1</title>
<ellipse fill="none" stroke="#000000" cx="266.4868" cy="-522" rx="55.6456" ry="18"/>
<text text-anchor="middle" x="266.4868" y="-517.8" font-family="Helvetica,sans-Serif" font-size="14.00" fill="#000000">section: 1&#45;8</text>
</g>
<!-- doc_0&#45;&gt;section_1 -->
<g id="edge1" class="edge">
<title>doc_0&#45;&gt;section_1</title>
<path fill="none" stroke="#000000" stroke-dasharray="5,2" d="M266.4868,-575.8314C266.4868,-568.131 266.4868,-558.9743 266.4868,-550.4166"/>
<polygon fill="#000000" stroke="#000000" points="269.9869,-550.4132 266.4868,-540.4133 262.9869,-550.4133 269.9869,-550.4132"/>
</g>
<!-- header_2 -->
<g id="node3" class="node">
<title>header_2</title>
<ellipse fill="none" stroke="#000000" cx="46.4868" cy="-450" rx="46.4736" ry="18"/>
<text text-anchor="middle" x="46.4868" y="-445.8" font-family="Helvetica,sans-Serif" font-size="14.00" fill="#000000">Header 1</text>
</g>
<!-- section_1&#45;&gt;header_2 -->
<g id="edge2" class="edge">
<title>section_1&#45;&gt;header_2</title>
<path fill="none" stroke="#000000" stroke-dasharray="5,2" d="M227.1552,-509.1278C189.214,-496.7107 131.8209,-477.9275 91.9415,-464.8761"/>
<polygon fill="#000000" stroke="#000000" points="92.7951,-461.4728 82.2025,-461.6888 90.6178,-468.1256 92.7951,-461.4728"/>
</g>
<!-- block_3 -->
<g id="node4" class="node">
<title>block_3</title>
<ellipse fill="none" stroke="#000000" cx="156.4868" cy="-450" rx="45.9804" ry="18"/>
<text text-anchor="middle" x="156.4868" y="-445.8" font-family="Helvetica,sans-Serif" font-size="14.00" fill="#000000">block 1&#45;6</text>
</g>
<!-- section_1&#45;&gt;block_3 -->
<g id="edge3" class="edge">
<title>section_1&#45;&gt;block_3</title>
<path fill="none" stroke="#000000" stroke-dasharray="5,2" d="M241.8007,-505.8418C226.1579,-495.6029 205.7574,-482.2499 188.828,-471.1688"/>
<polygon fill="#000000" stroke="#000000" points="190.6189,-468.1579 180.335,-465.6098 186.7853,-474.0149 190.6189,-468.1579"/>
</g>
<!-- block_4 -->
<g id="node5" class="node">
<title>block_4</title>
<ellipse fill="none" stroke="#000000" cx="266.4868" cy="-450" rx="45.9804" ry="18"/>
<text text-anchor="middle" x="266.4868" y="-445.8" font-family="Helvetica,sans-Serif" font-size="14.00" fill="#000000">block 7&#45;8</text>
</g>
<!-- section_1&#45;&gt;block_4 -->
<g id="edge4" class="edge">
<title>section_1&#45;&gt;block_4</title>
<path fill="none" stroke="#000000" stroke-dasharray="5,2" d="M266.4868,-503.8314C266.4868,-496.131 266.4868,-486.9743 266.4868,-478.4166"/>
<polygon fill="#000000" stroke="#000000" points="269.9869,-478.4132 266.4868,-468.4133 262.9869,-478.4133 269.9869,-478.4132"/>
</g>
<!-- section_5 -->
<g id="node6" class="node">
<title>section_5</title>
<ellipse fill="none" stroke="#000000" cx="475.4868" cy="-450" rx="60.9826" ry="18"/>
<text text-anchor="middle" x="475.4868" y="-445.8" font-family="Helvetica,sans-Serif" font-size="14.00" fill="#000000">section: 9&#45;23</text>
</g>
<!-- section_1&#45;&gt;section_5 -->
<g id="edge5" class="edge">
<title>section_1&#45;&gt;section_5</title>
<path fill="none" stroke="#000000" stroke-dasharray="5,2" d="M304.8206,-508.7941C338.8966,-497.055 388.9185,-479.8226 426.0059,-467.046"/>
<polygon fill="#000000" stroke="#000000" points="427.3034,-470.301 435.6181,-463.7347 425.0233,-463.6827 427.3034,-470.301"/>
</g>
<!-- section_6 -->
<g id="node7" class="node">
<title>section_6</title>
<ellipse fill="none" stroke="#000000" cx="941.4868" cy="-450" rx="65.8187" ry="18"/>
<text text-anchor="middle" x="941.4868" y="-445.8" font-family="Helvetica,sans-Serif" font-size="14.00" fill="#000000">section: 32&#45;34</text>
</g>
<!-- section_1&#45;&gt;section_6 -->
<g id="edge6" class="edge">
<title>section_1&#45;&gt;section_6</title>
<path fill="none" stroke="#000000" stroke-dasharray="5,2" d="M319.7347,-516.3202C440.1854,-503.4722 733.6607,-472.1681 869.8624,-457.6399"/>
<polygon fill="#000000" stroke="#000000" points="870.609,-461.0802 880.1813,-456.5392 869.8665,-454.1197 870.609,-461.0802"/>
</g>
<!-- leaf_7 -->
<g id="node8" class="node">
<title>leaf_7</title>
<polygon fill="none" stroke="#c0c0c0" points="162.4868,-396 108.4868,-396 108.4868,-360 162.4868,-360 162.4868,-396"/>
</g>
<!-- block_3&#45;&gt;leaf_7 -->
<g id="edge7" class="edge">
<title>block_3&#45;&gt;leaf_7</title>
<path fill="none" stroke="#000000" stroke-dasharray="5,2" d="M151.1876,-431.8314C148.917,-424.0463 146.2122,-414.7729 143.6928,-406.1347"/>
<polygon fill="#000000" stroke="#000000" points="147.0174,-405.0332 140.8573,-396.4133 140.2974,-406.9933 147.0174,-405.0332"/>
</g>
<!-- leaf_8 -->
<g id="node9" class="node">
<title>leaf_8</title>
<polygon fill="none" stroke="#c0c0c0" points="234.4868,-396 180.4868,-396 180.4868,-360 234.4868,-360 234.4868,-396"/>
</g>
<!-- block_4&#45;&gt;leaf_8 -->
<g id="edge8" class="edge">
<title>block_4&#45;&gt;leaf_8</title>
<path fill="none" stroke="#000000" stroke-dasharray="5,2" d="M252.2045,-432.5708C245.1882,-424.0085 236.5903,-413.5161 228.8147,-404.0272"/>
<polygon fill="#000000" stroke="#000000" points="231.2991,-401.537 222.2537,-396.0206 225.8848,-405.9738 231.2991,-401.537"/>
</g>
<!-- header_9 -->
<g id="node10" class="node">
<title>header_9</title>
<ellipse fill="none" stroke="#000000" cx="298.4868" cy="-378" rx="46.4736" ry="18"/>
<text text-anchor="middle" x="298.4868" y="-373.8" font-family="Helvetica,sans-Serif" font-size="14.00" fill="#000000">Header 2</text>
</g>
<!-- section_5&#45;&gt;header_9 -->
<g id="edge9" class="edge">
<title>section_5&#45;&gt;header_9</title>
<path fill="none" stroke="#000000" stroke-dasharray="5,2" d="M439.6682,-435.4297C410.8646,-423.713 370.3553,-407.2346 340.112,-394.9323"/>
<polygon fill="#000000" stroke="#000000" points="341.2631,-391.6221 330.6813,-391.0961 338.6254,-398.1061 341.2631,-391.6221"/>
</g>
<!-- block_10 -->
<g id="node11" class="node">
<title>block_10</title>
<ellipse fill="none" stroke="#000000" cx="413.4868" cy="-378" rx="50.8172" ry="18"/>
<text text-anchor="middle" x="413.4868" y="-373.8" font-family="Helvetica,sans-Serif" font-size="14.00" fill="#000000">block 9&#45;14</text>
</g>
<!-- section_5&#45;&gt;block_10 -->
<g id="edge10" class="edge">
<title>section_5&#45;&gt;block_10</title>
<path fill="none" stroke="#000000" stroke-dasharray="5,2" d="M460.161,-432.2022C452.5969,-423.4182 443.3432,-412.672 435.0761,-403.0714"/>
<polygon fill="#000000" stroke="#000000" points="437.5999,-400.6385 428.4224,-395.3446 432.2955,-405.2061 437.5999,-400.6385"/>
</g>
<!-- block_11 -->
<g id="node12" class="node">
<title>block_11</title>
<ellipse fill="none" stroke="#000000" cx="538.4868" cy="-378" rx="55.6542" ry="18"/>
<text text-anchor="middle" x="538.4868" y="-373.8" font-family="Helvetica,sans-Serif" font-size="14.00" fill="#000000">block 15&#45;18</text>
</g>
<!-- section_5&#45;&gt;block_11 -->
<g id="edge11" class="edge">
<title>section_5&#45;&gt;block_11</title>
<path fill="none" stroke="#000000" stroke-dasharray="5,2" d="M490.7373,-432.5708C498.4189,-423.7919 507.8757,-412.9841 516.3412,-403.3093"/>
<polygon fill="#000000" stroke="#000000" points="519.2073,-405.3488 523.1583,-395.5182 513.9392,-400.7393 519.2073,-405.3488"/>
</g>
<!-- block_12 -->
<g id="node13" class="node">
<title>block_12</title>
<ellipse fill="none" stroke="#000000" cx="668.4868" cy="-378" rx="55.6542" ry="18"/>
<text text-anchor="middle" x="668.4868" y="-373.8" font-family="Helvetica,sans-Serif" font-size="14.00" fill="#000000">block 19&#45;23</text>
</g>
<!-- section_5&#45;&gt;block_12 -->
<g id="edge12" class="edge">
<title>section_5&#45;&gt;block_12</title>
<path fill="none" stroke="#000000" stroke-dasharray="5,2" d="M513.6174,-435.7751C544.813,-424.1374 589.0442,-407.6366 622.2552,-395.247"/>
<polygon fill="#000000" stroke="#000000" points="623.599,-398.4814 631.7449,-391.7068 621.1523,-391.9229 623.599,-398.4814"/>
</g>
<!-- section_13 -->
<g id="node14" class="node">
<title>section_13</title>
<ellipse fill="none" stroke="#000000" cx="807.4868" cy="-378" rx="65.8187" ry="18"/>
<text text-anchor="middle" x="807.4868" y="-373.8" font-family="Helvetica,sans-Serif" font-size="14.00" fill="#000000">section: 24&#45;31</text>
</g>
<!-- section_5&#45;&gt;section_13 -->
<g id="edge13" class="edge">
<title>section_5&#45;&gt;section_13</title>
<path fill="none" stroke="#000000" stroke-dasharray="5,2" d="M526.0171,-439.9259C578.1071,-429.4231 661.6253,-412.2559 733.4868,-396 738.4377,-394.8801 743.5678,-393.6912 748.7121,-392.4793"/>
<polygon fill="#000000" stroke="#000000" points="749.6604,-395.8515 758.579,-390.1324 748.0405,-389.0415 749.6604,-395.8515"/>
</g>
<!-- header_32 -->
<g id="node33" class="node">
<title>header_32</title>
<ellipse fill="none" stroke="#000000" cx="941.4868" cy="-378" rx="46.4736" ry="18"/>
<text text-anchor="middle" x="941.4868" y="-373.8" font-family="Helvetica,sans-Serif" font-size="14.00" fill="#000000">Header 4</text>
</g>
<!-- section_6&#45;&gt;header_32 -->
<g id="edge32" class="edge">
<title>section_6&#45;&gt;header_32</title>
<path fill="none" stroke="#000000" stroke-dasharray="5,2" d="M941.4868,-431.8314C941.4868,-424.131 941.4868,-414.9743 941.4868,-406.4166"/>
<polygon fill="#000000" stroke="#000000" points="944.9869,-406.4132 941.4868,-396.4133 937.9869,-406.4133 944.9869,-406.4132"/>
</g>
<!-- block_33 -->
<g id="node34" class="node">
<title>block_33</title>
<ellipse fill="none" stroke="#000000" cx="1066.4868" cy="-378" rx="55.6542" ry="18"/>
<text text-anchor="middle" x="1066.4868" y="-373.8" font-family="Helvetica,sans-Serif" font-size="14.00" fill="#000000">block 32&#45;34</text>
</g>
<!-- section_6&#45;&gt;block_33 -->
<g id="edge33" class="edge">
<title>section_6&#45;&gt;block_33</title>
<path fill="none" stroke="#000000" stroke-dasharray="5,2" d="M969.8512,-433.6621C987.7601,-423.3466 1011.063,-409.9241 1030.2984,-398.8445"/>
<polygon fill="#000000" stroke="#000000" points="1032.1753,-401.8026 1039.0937,-393.7784 1028.6814,-395.7369 1032.1753,-401.8026"/>
</g>
<!-- leaf_14 -->
<g id="node15" class="node">
<title>leaf_14</title>
<polygon fill="none" stroke="#c0c0c0" points="440.4868,-324 386.4868,-324 386.4868,-288 440.4868,-288 440.4868,-324"/>
</g>
<!-- block_10&#45;&gt;leaf_14 -->
<g id="edge14" class="edge">
<title>block_10&#45;&gt;leaf_14</title>
<path fill="none" stroke="#000000" stroke-dasharray="5,2" d="M413.4868,-359.8314C413.4868,-352.131 413.4868,-342.9743 413.4868,-334.4166"/>
<polygon fill="#000000" stroke="#000000" points="416.9869,-334.4132 413.4868,-324.4133 409.9869,-334.4133 416.9869,-334.4132"/>
</g>
<!-- leaf_15 -->
<g id="node16" class="node">
<title>leaf_15</title>
<polygon fill="none" stroke="#c0c0c0" points="517.4868,-324 463.4868,-324 463.4868,-288 517.4868,-288 517.4868,-324"/>
</g>
<!-- block_11&#45;&gt;leaf_15 -->
<g id="edge15" class="edge">
<title>block_11&#45;&gt;leaf_15</title>
<path fill="none" stroke="#000000" stroke-dasharray="5,2" d="M526.6216,-360.2022C521.0675,-351.871 514.3367,-341.7748 508.1968,-332.565"/>
<polygon fill="#000000" stroke="#000000" points="511.0081,-330.4722 502.5489,-324.0931 505.1837,-334.3551 511.0081,-330.4722"/>
</g>
<!-- structure_16 -->
<g id="node17" class="node">
<title>structure_16</title>
<ellipse fill="none" stroke="#000000" cx="580.4868" cy="-306" rx="44.5182" ry="18"/>
<text text-anchor="middle" x="580.4868" y="-301.8" font-family="Helvetica,sans-Serif" font-size="14.00" fill="#000000">structure</text>
</g>
<!-- block_12&#45;&gt;structure_16 -->
<g id="edge16" class="edge">
<title>block_12&#45;&gt;structure_16</title>
<path fill="none" stroke="#000000" stroke-dasharray="5,2" d="M647.632,-360.937C635.8746,-351.3173 621.0348,-339.1756 608.2981,-328.7547"/>
<polygon fill="#000000" stroke="#000000" points="610.2414,-325.8224 600.2854,-322.1989 605.8087,-331.2401 610.2414,-325.8224"/>
</g>
<!-- leaf_20 -->
<g id="node21" class="node">
<title>leaf_20</title>
<polygon fill="none" stroke="#c0c0c0" points="697.4868,-324 643.4868,-324 643.4868,-288 697.4868,-288 697.4868,-324"/>
</g>
<!-- block_12&#45;&gt;leaf_20 -->
<g id="edge20" class="edge">
<title>block_12&#45;&gt;leaf_20</title>
<path fill="none" stroke="#000000" stroke-dasharray="5,2" d="M668.9915,-359.8314C669.2054,-352.131 669.4597,-342.9743 669.6975,-334.4166"/>
<polygon fill="#000000" stroke="#000000" points="673.1962,-334.5066 669.9753,-324.4133 666.1989,-334.3122 673.1962,-334.5066"/>
</g>
<!-- header_21 -->
<g id="node22" class="node">
<title>header_21</title>
<ellipse fill="none" stroke="#000000" cx="804.4868" cy="-306" rx="88.5312" ry="18"/>
<text text-anchor="middle" x="804.4868" y="-301.8" font-family="Helvetica,sans-Serif" font-size="14.00" fill="#000000">Header 3 #HashTag</text>
</g>
<!-- section_13&#45;&gt;header_21 -->
<g id="edge21" class="edge">
<title>section_13&#45;&gt;header_21</title>
<path fill="none" stroke="#000000" stroke-dasharray="5,2" d="M806.7298,-359.8314C806.4089,-352.131 806.0274,-342.9743 805.6708,-334.4166"/>
<polygon fill="#000000" stroke="#000000" points="809.1674,-334.2589 805.254,-324.4133 802.1735,-334.5503 809.1674,-334.2589"/>
</g>
<!-- block_22 -->
<g id="node23" class="node">
<title>block_22</title>
<ellipse fill="none" stroke="#000000" cx="967.4868" cy="-306" rx="55.6542" ry="18"/>
<text text-anchor="middle" x="967.4868" y="-301.8" font-family="Helvetica,sans-Serif" font-size="14.00" fill="#000000">block 24&#45;31</text>
</g>
<!-- section_13&#45;&gt;block_22 -->
<g id="edge22" class="edge">
<title>section_13&#45;&gt;block_22</title>
<path fill="none" stroke="#000000" stroke-dasharray="5,2" d="M841.8108,-362.5542C866.3447,-351.5139 899.4976,-336.5951 925.5927,-324.8524"/>
<polygon fill="#000000" stroke="#000000" points="927.1753,-327.9783 934.8582,-320.6829 924.3027,-321.5948 927.1753,-327.9783"/>
</g>
<!-- hashline_17 -->
<g id="node18" class="node">
<title>hashline_17</title>
<ellipse fill="none" stroke="#000000" cx="580.4868" cy="-234" rx="43.0992" ry="18"/>
<text text-anchor="middle" x="580.4868" y="-229.8" font-family="Helvetica,sans-Serif" font-size="14.00" fill="#000000">hashline</text>
</g>
<!-- structure_16&#45;&gt;hashline_17 -->
<g id="edge17" class="edge">
<title>structure_16&#45;&gt;hashline_17</title>
<path fill="none" stroke="#000000" stroke-dasharray="5,2" d="M580.4868,-287.8314C580.4868,-280.131 580.4868,-270.9743 580.4868,-262.4166"/>
<polygon fill="#000000" stroke="#000000" points="583.9869,-262.4132 580.4868,-252.4133 576.9869,-262.4133 583.9869,-262.4132"/>
</g>
<!-- hashtag_18 -->
<g id="node19" class="node">
<title>hashtag_18</title>
<ellipse fill="none" stroke="#000000" cx="580.4868" cy="-162" rx="41.6544" ry="18"/>
<text text-anchor="middle" x="580.4868" y="-157.8" font-family="Helvetica,sans-Serif" font-size="14.00" fill="#000000">hashtag</text>
</g>
<!-- hashline_17&#45;&gt;hashtag_18 -->
<g id="edge18" class="edge">
<title>hashline_17&#45;&gt;hashtag_18</title>
<path fill="none" stroke="#000000" stroke-dasharray="5,2" d="M580.4868,-215.8314C580.4868,-208.131 580.4868,-198.9743 580.4868,-190.4166"/>
<polygon fill="#000000" stroke="#000000" points="583.9869,-190.4132 580.4868,-180.4133 576.9869,-190.4133 583.9869,-190.4132"/>
</g>
<!-- leaf_19 -->
<g id="node20" class="node">
<title>leaf_19</title>
<polygon fill="none" stroke="#c0c0c0" points="616.4868,-108 544.4868,-108 544.4868,-72 616.4868,-72 616.4868,-108"/>
<text text-anchor="middle" x="580.4868" y="-86.5" font-family="Inconsolata" font-size="14.00" fill="#000000">ATagLine</text>
</g>
<!-- hashtag_18&#45;&gt;leaf_19 -->
<g id="edge19" class="edge">
<title>hashtag_18&#45;&gt;leaf_19</title>
<path fill="none" stroke="#000000" stroke-dasharray="5,2" d="M580.4868,-143.8314C580.4868,-136.131 580.4868,-126.9743 580.4868,-118.4166"/>
<polygon fill="#000000" stroke="#000000" points="583.9869,-118.4132 580.4868,-108.4133 576.9869,-118.4133 583.9869,-118.4132"/>
</g>
<!-- structure_23 -->
<g id="node24" class="node">
<title>structure_23</title>
<ellipse fill="none" stroke="#000000" cx="859.4868" cy="-234" rx="44.5182" ry="18"/>
<text text-anchor="middle" x="859.4868" y="-229.8" font-family="Helvetica,sans-Serif" font-size="14.00" fill="#000000">structure</text>
</g>
<!-- block_22&#45;&gt;structure_23 -->
<g id="edge23" class="edge">
<title>block_22&#45;&gt;structure_23</title>
<path fill="none" stroke="#000000" stroke-dasharray="5,2" d="M942.9799,-289.6621C927.7517,-279.5099 908.0095,-266.3485 891.5458,-255.3727"/>
<polygon fill="#000000" stroke="#000000" points="893.0481,-252.1678 882.7862,-249.5329 889.1652,-257.9921 893.0481,-252.1678"/>
</g>
<!-- structure_24 -->
<g id="node25" class="node">
<title>structure_24</title>
<ellipse fill="none" stroke="#000000" cx="967.4868" cy="-234" rx="44.5182" ry="18"/>
<text text-anchor="middle" x="967.4868" y="-229.8" font-family="Helvetica,sans-Serif" font-size="14.00" fill="#000000">structure</text>
</g>
<!-- block_22&#45;&gt;structure_24 -->
<g id="edge24" class="edge">
<title>block_22&#45;&gt;structure_24</title>
<path fill="none" stroke="#000000" stroke-dasharray="5,2" d="M967.4868,-287.8314C967.4868,-280.131 967.4868,-270.9743 967.4868,-262.4166"/>
<polygon fill="#000000" stroke="#000000" points="970.9869,-262.4132 967.4868,-252.4133 963.9869,-262.4133 970.9869,-262.4132"/>
</g>
<!-- leaf_31 -->
<g id="node32" class="node">
<title>leaf_31</title>
<polygon fill="none" stroke="#c0c0c0" points="1130.4868,-252 1030.4868,-252 1030.4868,-216 1130.4868,-216 1130.4868,-252"/>
<text text-anchor="middle" x="1080.4868" y="-230.5" font-family="Inconsolata" font-size="14.00" fill="#000000">@NameHeader3</text>
</g>
<!-- block_22&#45;&gt;leaf_31 -->
<g id="edge31" class="edge">
<title>block_22&#45;&gt;leaf_31</title>
<path fill="none" stroke="#000000" stroke-dasharray="5,2" d="M992.8462,-289.8418C1007.6701,-280.3965 1026.6532,-268.3011 1043.1594,-257.7838"/>
<polygon fill="#000000" stroke="#000000" points="1045.4798,-260.4555 1052.0326,-252.1301 1041.7182,-254.552 1045.4798,-260.4555"/>
</g>
<!-- handleline_25 -->
<g id="node26" class="node">
<title>handleline_25</title>
<ellipse fill="none" stroke="#000000" cx="858.4868" cy="-162" rx="50.3585" ry="18"/>
<text text-anchor="middle" x="858.4868" y="-157.8" font-family="Helvetica,sans-Serif" font-size="14.00" fill="#000000">handleline</text>
</g>
<!-- structure_23&#45;&gt;handleline_25 -->
<g id="edge25" class="edge">
<title>structure_23&#45;&gt;handleline_25</title>
<path fill="none" stroke="#000000" stroke-dasharray="5,2" d="M859.2345,-215.8314C859.1275,-208.131 859.0003,-198.9743 858.8815,-190.4166"/>
<polygon fill="#000000" stroke="#000000" points="862.3812,-190.3637 858.7425,-180.4133 855.3819,-190.4609 862.3812,-190.3637"/>
</g>
<!-- hashline_28 -->
<g id="node29" class="node">
<title>hashline_28</title>
<ellipse fill="none" stroke="#000000" cx="969.4868" cy="-162" rx="43.0992" ry="18"/>
<text text-anchor="middle" x="969.4868" y="-157.8" font-family="Helvetica,sans-Serif" font-size="14.00" fill="#000000">hashline</text>
</g>
<!-- structure_24&#45;&gt;hashline_28 -->
<g id="edge28" class="edge">
<title>structure_24&#45;&gt;hashline_28</title>
<path fill="none" stroke="#000000" stroke-dasharray="5,2" d="M967.9915,-215.8314C968.2054,-208.131 968.4597,-198.9743 968.6975,-190.4166"/>
<polygon fill="#000000" stroke="#000000" points="972.1962,-190.5066 968.9753,-180.4133 965.1989,-190.3122 972.1962,-190.5066"/>
</g>
<!-- handle_26 -->
<g id="node27" class="node">
<title>handle_26</title>
<ellipse fill="none" stroke="#000000" cx="858.4868" cy="-90" rx="36.827" ry="18"/>
<text text-anchor="middle" x="858.4868" y="-85.8" font-family="Helvetica,sans-Serif" font-size="14.00" fill="#000000">handle</text>
</g>
<!-- handleline_25&#45;&gt;handle_26 -->
<g id="edge26" class="edge">
<title>handleline_25&#45;&gt;handle_26</title>
<path fill="none" stroke="#000000" stroke-dasharray="5,2" d="M858.4868,-143.8314C858.4868,-136.131 858.4868,-126.9743 858.4868,-118.4166"/>
<polygon fill="#000000" stroke="#000000" points="861.9869,-118.4132 858.4868,-108.4133 854.9869,-118.4133 861.9869,-118.4132"/>
</g>
<!-- leaf_27 -->
<g id="node28" class="node">
<title>leaf_27</title>
<polygon fill="none" stroke="#c0c0c0" points="901.4868,-36 815.4868,-36 815.4868,0 901.4868,0 901.4868,-36"/>
<text text-anchor="middle" x="858.4868" y="-14.5" font-family="Inconsolata" font-size="14.00" fill="#000000">NameHeader</text>
</g>
<!-- handle_26&#45;&gt;leaf_27 -->
<g id="edge27" class="edge">
<title>handle_26&#45;&gt;leaf_27</title>
<path fill="none" stroke="#000000" stroke-dasharray="5,2" d="M858.4868,-71.8314C858.4868,-64.131 858.4868,-54.9743 858.4868,-46.4166"/>
<polygon fill="#000000" stroke="#000000" points="861.9869,-46.4132 858.4868,-36.4133 854.9869,-46.4133 861.9869,-46.4132"/>
</g>
<!-- hashtag_29 -->
<g id="node30" class="node">
<title>hashtag_29</title>
<ellipse fill="none" stroke="#000000" cx="969.4868" cy="-90" rx="41.6544" ry="18"/>
<text text-anchor="middle" x="969.4868" y="-85.8" font-family="Helvetica,sans-Serif" font-size="14.00" fill="#000000">hashtag</text>
</g>
<!-- hashline_28&#45;&gt;hashtag_29 -->
<g id="edge29" class="edge">
<title>hashline_28&#45;&gt;hashtag_29</title>
<path fill="none" stroke="#000000" stroke-dasharray="5,2" d="M969.4868,-143.8314C969.4868,-136.131 969.4868,-126.9743 969.4868,-118.4166"/>
<polygon fill="#000000" stroke="#000000" points="972.9869,-118.4132 969.4868,-108.4133 965.9869,-118.4133 972.9869,-118.4132"/>
</g>
<!-- leaf_30 -->
<g id="node31" class="node">
<title>leaf_30</title>
<polygon fill="none" stroke="#c0c0c0" points="1008.9868,-36 929.9868,-36 929.9868,0 1008.9868,0 1008.9868,-36"/>
<text text-anchor="middle" x="969.4868" y="-14.5" font-family="Inconsolata" font-size="14.00" fill="#000000">TagHeader</text>
</g>
<!-- hashtag_29&#45;&gt;leaf_30 -->
<g id="edge30" class="edge">
<title>hashtag_29&#45;&gt;leaf_30</title>
<path fill="none" stroke="#000000" stroke-dasharray="5,2" d="M969.4868,-71.8314C969.4868,-64.131 969.4868,-54.9743 969.4868,-46.4166"/>
<polygon fill="#000000" stroke="#000000" points="972.9869,-46.4132 969.4868,-36.4133 965.9869,-46.4133 972.9869,-46.4132"/>
</g>
<!-- leaf_34 -->
<g id="node35" class="node">
<title>leaf_34</title>
<polygon fill="none" stroke="#c0c0c0" points="1095.4868,-324 1041.4868,-324 1041.4868,-288 1095.4868,-288 1095.4868,-324"/>
</g>
<!-- block_33&#45;&gt;leaf_34 -->
<g id="edge34" class="edge">
<title>block_33&#45;&gt;leaf_34</title>
<path fill="none" stroke="#000000" stroke-dasharray="5,2" d="M1066.9915,-359.8314C1067.2054,-352.131 1067.4597,-342.9743 1067.6975,-334.4166"/>
<polygon fill="#000000" stroke="#000000" points="1071.1962,-334.5066 1067.9753,-324.4133 1064.1989,-334.3122 1071.1962,-334.5066"/>
</g>
</g>
</svg>
