<?xml version="1.0" encoding="UTF-8" standalone="no"?>
<!DOCTYPE svg PUBLIC "-//W3C//DTD SVG 1.1//EN"
 "http://www.w3.org/Graphics/SVG/1.1/DTD/svg11.dtd">
<!-- Generated by graphviz version 2.40.1 (20161225.0304)
 -->
<!-- Title: hierarchy Pages: 1 -->
<svg width="2112pt" height="772pt"
 viewBox="0.00 0.00 2112.00 771.80" xmlns="http://www.w3.org/2000/svg" xmlns:xlink="http://www.w3.org/1999/xlink">
<g id="graph0" class="graph" transform="scale(1 1) rotate(0) translate(4 767.8002)">
<title>hierarchy</title>
<polygon fill="#ffffff" stroke="transparent" points="-4,4 -4,-767.8002 2108,-767.8002 2108,4 -4,4"/>
<!-- doc_0 -->
<g id="node1" class="node">
<title>doc_0</title>
<ellipse fill="none" stroke="#000000" cx="848.5" cy="-745.8002" rx="42.1216" ry="18"/>
<text text-anchor="middle" x="848.5" y="-741.6002" font-family="Helvetica,sans-Serif" font-size="14.00" fill="#000000">doc &#45; 34</text>
</g>
<!-- section_1 -->
<g id="node2" class="node">
<title>section_1</title>
<ellipse fill="none" stroke="#000000" cx="848.5" cy="-673.8002" rx="55.6456" ry="18"/>
<text text-anchor="middle" x="848.5" y="-669.6002" font-family="Helvetica,sans-Serif" font-size="14.00" fill="#000000">section: 1&#45;8</text>
</g>
<!-- doc_0&#45;&gt;section_1 -->
<g id="edge1" class="edge">
<title>doc_0&#45;&gt;section_1</title>
<path fill="none" stroke="#000000" stroke-dasharray="5,2" d="M848.5,-727.6316C848.5,-719.9312 848.5,-710.7746 848.5,-702.2169"/>
<polygon fill="#000000" stroke="#000000" points="852.0001,-702.2135 848.5,-692.2135 845.0001,-702.2135 852.0001,-702.2135"/>
</g>
<!-- header_2 -->
<g id="node3" class="node">
<title>header_2</title>
<ellipse fill="none" stroke="#000000" cx="624.5" cy="-601.8002" rx="46.4736" ry="18"/>
<text text-anchor="middle" x="624.5" y="-597.6002" font-family="Helvetica,sans-Serif" font-size="14.00" fill="#000000">Header 1</text>
</g>
<!-- section_1&#45;&gt;header_2 -->
<g id="edge2" class="edge">
<title>section_1&#45;&gt;header_2</title>
<path fill="none" stroke="#000000" stroke-dasharray="5,2" d="M808.5236,-661.1136C774.2631,-650.2202 723.6074,-634.0643 679.5,-619.8002 676.2468,-618.7481 672.8866,-617.6577 669.5053,-616.5577"/>
<polygon fill="#000000" stroke="#000000" points="670.584,-613.2281 659.9916,-613.4561 668.4143,-619.8834 670.584,-613.2281"/>
</g>
<!-- block_3 -->
<g id="node4" class="node">
<title>block_3</title>
<ellipse fill="none" stroke="#000000" cx="734.5" cy="-601.8002" rx="45.9804" ry="18"/>
<text text-anchor="middle" x="734.5" y="-597.6002" font-family="Helvetica,sans-Serif" font-size="14.00" fill="#000000">block 1&#45;6</text>
</g>
<!-- section_1&#45;&gt;block_3 -->
<g id="edge3" class="edge">
<title>section_1&#45;&gt;block_3</title>
<path fill="none" stroke="#000000" stroke-dasharray="5,2" d="M822.9162,-657.642C806.5928,-647.3325 785.2705,-633.8658 767.6548,-622.7401"/>
<polygon fill="#000000" stroke="#000000" points="769.1508,-619.5454 758.8269,-617.1646 765.4129,-625.4638 769.1508,-619.5454"/>
</g>
<!-- block_4 -->
<g id="node5" class="node">
<title>block_4</title>
<ellipse fill="none" stroke="#000000" cx="848.5" cy="-601.8002" rx="49.8395" ry="18"/>
<text text-anchor="middle" x="848.5" y="-597.6002" font-family="Helvetica,sans-Serif" font-size="14.00" fill="#000000">block 7&#45;nil</text>
</g>
<!-- section_1&#45;&gt;block_4 -->
<g id="edge4" class="edge">
<title>section_1&#45;&gt;block_4</title>
<path fill="none" stroke="#000000" stroke-dasharray="5,2" d="M848.5,-655.6316C848.5,-647.9312 848.5,-638.7746 848.5,-630.2169"/>
<polygon fill="#000000" stroke="#000000" points="852.0001,-630.2135 848.5,-620.2135 845.0001,-630.2135 852.0001,-630.2135"/>
</g>
<!-- section_5 -->
<g id="node6" class="node">
<title>section_5</title>
<ellipse fill="none" stroke="#000000" cx="1152.5" cy="-601.8002" rx="60.9826" ry="18"/>
<text text-anchor="middle" x="1152.5" y="-597.6002" font-family="Helvetica,sans-Serif" font-size="14.00" fill="#000000">section: 9&#45;23</text>
</g>
<!-- section_1&#45;&gt;section_5 -->
<g id="edge5" class="edge">
<title>section_1&#45;&gt;section_5</title>
<path fill="none" stroke="#000000" stroke-dasharray="5,2" d="M893.6836,-663.0988C947.2352,-650.4156 1036.5548,-629.2609 1094.9915,-615.4207"/>
<polygon fill="#000000" stroke="#000000" points="1095.8862,-618.8057 1104.8104,-613.0951 1094.2729,-611.9941 1095.8862,-618.8057"/>
</g>
<!-- section_6 -->
<g id="node7" class="node">
<title>section_6</title>
<ellipse fill="none" stroke="#000000" cx="1824.5" cy="-601.8002" rx="65.8187" ry="18"/>
<text text-anchor="middle" x="1824.5" y="-597.6002" font-family="Helvetica,sans-Serif" font-size="14.00" fill="#000000">section: 32&#45;34</text>
</g>
<!-- section_1&#45;&gt;section_6 -->
<g id="edge6" class="edge">
<title>section_1&#45;&gt;section_6</title>
<path fill="none" stroke="#000000" stroke-dasharray="5,2" d="M903.0653,-669.7749C1068.2321,-657.5905 1562.9512,-621.0948 1750.9294,-607.2276"/>
<polygon fill="#000000" stroke="#000000" points="1751.2742,-610.7117 1760.9896,-606.4854 1750.7592,-603.7307 1751.2742,-610.7117"/>
</g>
<!-- leaf_7 -->
<g id="node8" class="node">
<title>leaf_7</title>
<polygon fill="none" stroke="#c0c0c0" points="541,-547.9005 0,-547.9005 0,-461.4998 541,-461.4998 541,-547.9005"/>
<text text-anchor="middle" x="270.5" y="-516.6002" font-family="Inconsolata" font-size="14.00" fill="#000000">This is a block. It has _underlining_ and snake_case, and &#45; a dash,</text>
<text text-anchor="middle" x="270.5" y="-501.2002" font-family="Inconsolata" font-size="14.00" fill="#000000">and a &#45;&#45; double&#45;dash, and a _ . Only the _underlining and this underlining_</text>
<text text-anchor="middle" x="270.5" y="-485.8002" font-family="Inconsolata" font-size="14.00" fill="#000000">should be detected.</text>
</g>
<!-- block_3&#45;&gt;leaf_7 -->
<g id="edge7" class="edge">
<title>block_3&#45;&gt;leaf_7</title>
<path fill="none" stroke="#000000" stroke-dasharray="5,2" d="M700.0749,-589.8031C693.2993,-587.6495 686.2106,-585.5399 679.5,-583.8002 631.506,-571.3579 579.8864,-559.907 530.0248,-549.8089"/>
<polygon fill="#000000" stroke="#000000" points="530.5715,-546.3488 520.0775,-547.8074 529.1906,-553.2112 530.5715,-546.3488"/>
</g>
<!-- leaf_8 -->
<g id="node9" class="node">
<title>leaf_8</title>
<polygon fill="none" stroke="#c0c0c0" points="911.5,-524.6023 559.5,-524.6023 559.5,-484.7981 911.5,-484.7981 911.5,-524.6023"/>
<text text-anchor="middle" x="735.5" y="-509.2002" font-family="Inconsolata" font-size="14.00" fill="#000000">This is another block, that belongs to Header 1.</text>
</g>
<!-- block_4&#45;&gt;leaf_8 -->
<g id="edge8" class="edge">
<title>block_4&#45;&gt;leaf_8</title>
<path fill="none" stroke="#000000" stroke-dasharray="5,2" d="M829.0746,-585.1081C811.8053,-570.2687 786.2625,-548.32 766.2248,-531.1018"/>
<polygon fill="#000000" stroke="#000000" points="768.434,-528.3855 758.5684,-524.5227 763.8719,-533.6946 768.434,-528.3855"/>
</g>
<!-- header_9 -->
<g id="node10" class="node">
<title>header_9</title>
<ellipse fill="none" stroke="#000000" cx="975.5" cy="-504.7002" rx="46.4736" ry="18"/>
<text text-anchor="middle" x="975.5" y="-500.5002" font-family="Helvetica,sans-Serif" font-size="14.00" fill="#000000">Header 2</text>
</g>
<!-- section_5&#45;&gt;header_9 -->
<g id="edge9" class="edge">
<title>section_5&#45;&gt;header_9</title>
<path fill="none" stroke="#000000" stroke-dasharray="5,2" d="M1114.1919,-587.6914C1089.5297,-577.9276 1057.2097,-563.836 1030.5,-547.8002 1020.8054,-541.9799 1010.879,-534.6841 1002.1749,-527.7589"/>
<polygon fill="#000000" stroke="#000000" points="1004.2122,-524.9039 994.2516,-521.2931 999.7864,-530.3273 1004.2122,-524.9039"/>
</g>
<!-- block_10 -->
<g id="node11" class="node">
<title>block_10</title>
<ellipse fill="none" stroke="#000000" cx="1090.5" cy="-504.7002" rx="50.8172" ry="18"/>
<text text-anchor="middle" x="1090.5" y="-500.5002" font-family="Helvetica,sans-Serif" font-size="14.00" fill="#000000">block 9&#45;14</text>
</g>
<!-- section_5&#45;&gt;block_10 -->
<g id="edge10" class="edge">
<title>section_5&#45;&gt;block_10</title>
<path fill="none" stroke="#000000" stroke-dasharray="5,2" d="M1141.1282,-583.9906C1131.6894,-569.2081 1118.1263,-547.9665 1107.4136,-531.1891"/>
<polygon fill="#000000" stroke="#000000" points="1110.1313,-528.9417 1101.7997,-522.3969 1104.2314,-532.7089 1110.1313,-528.9417"/>
</g>
<!-- block_11 -->
<g id="node12" class="node">
<title>block_11</title>
<ellipse fill="none" stroke="#000000" cx="1215.5" cy="-504.7002" rx="55.6542" ry="18"/>
<text text-anchor="middle" x="1215.5" y="-500.5002" font-family="Helvetica,sans-Serif" font-size="14.00" fill="#000000">block 15&#45;18</text>
</g>
<!-- section_5&#45;&gt;block_11 -->
<g id="edge11" class="edge">
<title>section_5&#45;&gt;block_11</title>
<path fill="none" stroke="#000000" stroke-dasharray="5,2" d="M1164.0552,-583.9906C1173.6463,-569.2081 1187.4281,-547.9665 1198.3136,-531.1891"/>
<polygon fill="#000000" stroke="#000000" points="1201.5113,-532.6909 1204.0181,-522.3969 1195.639,-528.8809 1201.5113,-532.6909"/>
</g>
<!-- block_12 -->
<g id="node13" class="node">
<title>block_12</title>
<ellipse fill="none" stroke="#000000" cx="1344.5" cy="-504.7002" rx="54.6765" ry="18"/>
<text text-anchor="middle" x="1344.5" y="-500.5002" font-family="Helvetica,sans-Serif" font-size="14.00" fill="#000000">block 19&#45;nil</text>
</g>
<!-- section_5&#45;&gt;block_12 -->
<g id="edge12" class="edge">
<title>section_5&#45;&gt;block_12</title>
<path fill="none" stroke="#000000" stroke-dasharray="5,2" d="M1190.9222,-587.8361C1216.8235,-577.8837 1251.4383,-563.5242 1280.5,-547.8002 1291.7296,-541.7244 1303.4688,-534.1984 1313.7816,-527.1442"/>
<polygon fill="#000000" stroke="#000000" points="1315.8623,-529.9603 1322.0664,-521.3719 1311.8606,-524.2169 1315.8623,-529.9603"/>
</g>
<!-- section_13 -->
<g id="node14" class="node">
<title>section_13</title>
<ellipse fill="none" stroke="#000000" cx="1688.5" cy="-504.7002" rx="65.8187" ry="18"/>
<text text-anchor="middle" x="1688.5" y="-500.5002" font-family="Helvetica,sans-Serif" font-size="14.00" fill="#000000">section: 24&#45;31</text>
</g>
<!-- section_5&#45;&gt;section_13 -->
<g id="edge13" class="edge">
<title>section_5&#45;&gt;section_13</title>
<path fill="none" stroke="#000000" stroke-dasharray="5,2" d="M1204.381,-592.4016C1302.6239,-574.6043 1515.5961,-536.0229 1623.31,-516.5098"/>
<polygon fill="#000000" stroke="#000000" points="1624.182,-519.9089 1633.3979,-514.6823 1622.9342,-513.021 1624.182,-519.9089"/>
</g>
<!-- header_32 -->
<g id="node33" class="node">
<title>header_32</title>
<ellipse fill="none" stroke="#000000" cx="1824.5" cy="-504.7002" rx="46.4736" ry="18"/>
<text text-anchor="middle" x="1824.5" y="-500.5002" font-family="Helvetica,sans-Serif" font-size="14.00" fill="#000000">Header 4</text>
</g>
<!-- section_6&#45;&gt;header_32 -->
<g id="edge32" class="edge">
<title>section_6&#45;&gt;header_32</title>
<path fill="none" stroke="#000000" stroke-dasharray="5,2" d="M1824.5,-583.5364C1824.5,-569.2959 1824.5,-549.2671 1824.5,-532.9614"/>
<polygon fill="#000000" stroke="#000000" points="1828.0001,-532.882 1824.5,-522.8821 1821.0001,-532.8821 1828.0001,-532.882"/>
</g>
<!-- block_33 -->
<g id="node34" class="node">
<title>block_33</title>
<ellipse fill="none" stroke="#000000" cx="1947.5" cy="-504.7002" rx="54.6765" ry="18"/>
<text text-anchor="middle" x="1947.5" y="-500.5002" font-family="Helvetica,sans-Serif" font-size="14.00" fill="#000000">block 32&#45;nil</text>
</g>
<!-- section_6&#45;&gt;block_33 -->
<g id="edge33" class="edge">
<title>section_6&#45;&gt;block_33</title>
<path fill="none" stroke="#000000" stroke-dasharray="5,2" d="M1846.2068,-584.6642C1866.2653,-568.8294 1896.221,-545.1814 1918.3571,-527.7065"/>
<polygon fill="#000000" stroke="#000000" points="1920.7408,-530.2839 1926.4211,-521.3405 1916.4034,-524.7896 1920.7408,-530.2839"/>
</g>
<!-- leaf_14 -->
<g id="node15" class="node">
<title>leaf_14</title>
<polygon fill="none" stroke="#c0c0c0" points="1007.5,-425.7004 473.5,-425.7004 473.5,-339.2998 1007.5,-339.2998 1007.5,-425.7004"/>
<text text-anchor="middle" x="740.5" y="-394.4001" font-family="Inconsolata" font-size="14.00" fill="#000000">This is also a block. It has *bold* in it, and **double bold**, and 4 * 5,</text>
<text text-anchor="middle" x="740.5" y="-379.0001" font-family="Inconsolata" font-size="14.00" fill="#000000">and * , and only the bold and double bold get detected.</text>
<text text-anchor="middle" x="740.5" y="-363.6001" font-family="Inconsolata" font-size="14.00" fill="#000000">This is still the same block.</text>
</g>
<!-- block_10&#45;&gt;leaf_14 -->
<g id="edge14" class="edge">
<title>block_10&#45;&gt;leaf_14</title>
<path fill="none" stroke="#000000" stroke-dasharray="5,2" d="M1071.0835,-488.0222C1059.8521,-479.1002 1045.0892,-468.5507 1030.5,-461.6001 1004.045,-448.9965 975.2429,-438.1163 946.3963,-428.8098"/>
<polygon fill="#000000" stroke="#000000" points="947.2052,-425.3948 936.6152,-425.7138 945.0928,-432.0684 947.2052,-425.3948"/>
</g>
<!-- leaf_15 -->
<g id="node16" class="node">
<title>leaf_15</title>
<polygon fill="none" stroke="#c0c0c0" points="1181.5,-418.4012 1025.5,-418.4012 1025.5,-346.5989 1181.5,-346.5989 1181.5,-418.4012"/>
<text text-anchor="middle" x="1103.5" y="-403.0001" font-family="Inconsolata" font-size="14.00" fill="#000000">This is a new block.</text>
</g>
<!-- block_11&#45;&gt;leaf_15 -->
<g id="edge15" class="edge">
<title>block_11&#45;&gt;leaf_15</title>
<path fill="none" stroke="#000000" stroke-dasharray="5,2" d="M1199.4531,-487.1919C1184.8542,-471.2634 1162.6963,-447.0875 1143.3504,-425.9797"/>
<polygon fill="#000000" stroke="#000000" points="1145.7063,-423.3701 1136.3693,-418.3629 1140.5458,-428.0998 1145.7063,-423.3701"/>
</g>
<!-- structure_16 -->
<g id="node17" class="node">
<title>structure_16</title>
<ellipse fill="none" stroke="#000000" cx="1244.5" cy="-382.5001" rx="44.5182" ry="18"/>
<text text-anchor="middle" x="1244.5" y="-378.3001" font-family="Helvetica,sans-Serif" font-size="14.00" fill="#000000">structure</text>
</g>
<!-- block_12&#45;&gt;structure_16 -->
<g id="edge16" class="edge">
<title>block_12&#45;&gt;structure_16</title>
<path fill="none" stroke="#000000" stroke-dasharray="5,2" d="M1330.1724,-487.1919C1313.1674,-466.4117 1284.6758,-431.5949 1265.2574,-407.8657"/>
<polygon fill="#000000" stroke="#000000" points="1267.8427,-405.4983 1258.801,-399.9759 1262.4254,-409.9315 1267.8427,-405.4983"/>
</g>
<!-- leaf_20 -->
<g id="node21" class="node">
<title>leaf_20</title>
<polygon fill="none" stroke="#c0c0c0" points="1582,-418.4012 1307,-418.4012 1307,-346.5989 1582,-346.5989 1582,-418.4012"/>
<text text-anchor="middle" x="1444.5" y="-371.0001" font-family="Inconsolata" font-size="14.00" fill="#000000">This is a new block, two lines later.</text>
</g>
<!-- block_12&#45;&gt;leaf_20 -->
<g id="edge20" class="edge">
<title>block_12&#45;&gt;leaf_20</title>
<path fill="none" stroke="#000000" stroke-dasharray="5,2" d="M1358.8276,-487.1919C1371.8052,-471.3332 1391.4727,-447.2994 1408.6919,-426.2576"/>
<polygon fill="#000000" stroke="#000000" points="1411.5279,-428.3185 1415.1524,-418.3629 1406.1106,-423.8853 1411.5279,-428.3185"/>
</g>
<!-- header_21 -->
<g id="node22" class="node">
<title>header_21</title>
<ellipse fill="none" stroke="#000000" cx="1688.5" cy="-382.5001" rx="88.5312" ry="18"/>
<text text-anchor="middle" x="1688.5" y="-378.3001" font-family="Helvetica,sans-Serif" font-size="14.00" fill="#000000">Header 3 #HashTag</text>
</g>
<!-- section_13&#45;&gt;header_21 -->
<g id="edge21" class="edge">
<title>section_13&#45;&gt;header_21</title>
<path fill="none" stroke="#000000" stroke-dasharray="5,2" d="M1688.5,-486.6691C1688.5,-466.6337 1688.5,-434.0271 1688.5,-410.6292"/>
<polygon fill="#000000" stroke="#000000" points="1692.0001,-410.6051 1688.5,-400.6051 1685.0001,-410.6051 1692.0001,-410.6051"/>
</g>
<!-- block_22 -->
<g id="node23" class="node">
<title>block_22</title>
<ellipse fill="none" stroke="#000000" cx="1850.5" cy="-382.5001" rx="54.6765" ry="18"/>
<text text-anchor="middle" x="1850.5" y="-378.3001" font-family="Helvetica,sans-Serif" font-size="14.00" fill="#000000">block 24&#45;nil</text>
</g>
<!-- section_13&#45;&gt;block_22 -->
<g id="edge22" class="edge">
<title>section_13&#45;&gt;block_22</title>
<path fill="none" stroke="#000000" stroke-dasharray="5,2" d="M1711.0254,-487.7088C1739.5169,-466.2171 1788.6763,-429.135 1820.3733,-405.2253"/>
<polygon fill="#000000" stroke="#000000" points="1822.5496,-407.9678 1828.4253,-399.1515 1818.3341,-402.3794 1822.5496,-407.9678"/>
</g>
<!-- hashline_17 -->
<g id="node18" class="node">
<title>hashline_17</title>
<ellipse fill="none" stroke="#000000" cx="1244.5" cy="-259.7" rx="43.0992" ry="18"/>
<text text-anchor="middle" x="1244.5" y="-255.5" font-family="Helvetica,sans-Serif" font-size="14.00" fill="#000000">hashline</text>
</g>
<!-- structure_16&#45;&gt;hashline_17 -->
<g id="edge17" class="edge">
<title>structure_16&#45;&gt;hashline_17</title>
<path fill="none" stroke="#000000" stroke-dasharray="5,2" d="M1244.5,-364.3805C1244.5,-344.2467 1244.5,-311.48 1244.5,-287.9673"/>
<polygon fill="#000000" stroke="#000000" points="1248.0001,-287.8939 1244.5,-277.8939 1241.0001,-287.894 1248.0001,-287.8939"/>
</g>
<!-- hashtag_18 -->
<g id="node19" class="node">
<title>hashtag_18</title>
<ellipse fill="none" stroke="#000000" cx="1244.5" cy="-162" rx="41.6544" ry="18"/>
<text text-anchor="middle" x="1244.5" y="-157.8" font-family="Helvetica,sans-Serif" font-size="14.00" fill="#000000">hashtag</text>
</g>
<!-- hashline_17&#45;&gt;hashtag_18 -->
<g id="edge18" class="edge">
<title>hashline_17&#45;&gt;hashtag_18</title>
<path fill="none" stroke="#000000" stroke-dasharray="5,2" d="M1244.5,-241.3234C1244.5,-226.9948 1244.5,-206.8423 1244.5,-190.4358"/>
<polygon fill="#000000" stroke="#000000" points="1248.0001,-190.2942 1244.5,-180.2942 1241.0001,-190.2943 1248.0001,-190.2942"/>
</g>
<!-- leaf_19 -->
<g id="node20" class="node">
<title>leaf_19</title>
<polygon fill="none" stroke="#c0c0c0" points="1280.5,-108 1208.5,-108 1208.5,-72 1280.5,-72 1280.5,-108"/>
<text text-anchor="middle" x="1244.5" y="-86.5" font-family="Inconsolata" font-size="14.00" fill="#000000">ATagLine</text>
</g>
<!-- hashtag_18&#45;&gt;leaf_19 -->
<g id="edge19" class="edge">
<title>hashtag_18&#45;&gt;leaf_19</title>
<path fill="none" stroke="#000000" stroke-dasharray="5,2" d="M1244.5,-143.8314C1244.5,-136.131 1244.5,-126.9743 1244.5,-118.4166"/>
<polygon fill="#000000" stroke="#000000" points="1248.0001,-118.4132 1244.5,-108.4133 1241.0001,-118.4133 1248.0001,-118.4132"/>
</g>
<!-- structure_23 -->
<g id="node24" class="node">
<title>structure_23</title>
<ellipse fill="none" stroke="#000000" cx="1738.5" cy="-259.7" rx="44.5182" ry="18"/>
<text text-anchor="middle" x="1738.5" y="-255.5" font-family="Helvetica,sans-Serif" font-size="14.00" fill="#000000">structure</text>
</g>
<!-- block_22&#45;&gt;structure_23 -->
<g id="edge23" class="edge">
<title>block_22&#45;&gt;structure_23</title>
<path fill="none" stroke="#000000" stroke-dasharray="5,2" d="M1834.6907,-365.1663C1815.5129,-344.1392 1783.0438,-308.5392 1761.1963,-284.5849"/>
<polygon fill="#000000" stroke="#000000" points="1763.5536,-281.9756 1754.2289,-276.9456 1758.3816,-286.6927 1763.5536,-281.9756"/>
</g>
<!-- structure_24 -->
<g id="node25" class="node">
<title>structure_24</title>
<ellipse fill="none" stroke="#000000" cx="1850.5" cy="-259.7" rx="44.5182" ry="18"/>
<text text-anchor="middle" x="1850.5" y="-255.5" font-family="Helvetica,sans-Serif" font-size="14.00" fill="#000000">structure</text>
</g>
<!-- block_22&#45;&gt;structure_24 -->
<g id="edge24" class="edge">
<title>block_22&#45;&gt;structure_24</title>
<path fill="none" stroke="#000000" stroke-dasharray="5,2" d="M1850.5,-364.3805C1850.5,-344.2467 1850.5,-311.48 1850.5,-287.9673"/>
<polygon fill="#000000" stroke="#000000" points="1854.0001,-287.8939 1850.5,-277.8939 1847.0001,-287.894 1854.0001,-287.8939"/>
</g>
<!-- leaf_31 -->
<g id="node32" class="node">
<title>leaf_31</title>
<polygon fill="none" stroke="#c0c0c0" points="2104,-303.601 1913,-303.601 1913,-215.7991 2104,-215.7991 2104,-303.601"/>
<text text-anchor="middle" x="2008.5" y="-272.2" font-family="Inconsolata" font-size="14.00" fill="#000000">This is header 3&#39;s block.</text>
</g>
<!-- block_22&#45;&gt;leaf_31 -->
<g id="edge31" class="edge">
<title>block_22&#45;&gt;leaf_31</title>
<path fill="none" stroke="#000000" stroke-dasharray="5,2" d="M1872.1379,-365.6827C1890.6697,-351.2795 1918.3384,-329.775 1943.9192,-309.8932"/>
<polygon fill="#000000" stroke="#000000" points="1946.3892,-312.4063 1952.1371,-303.5061 1942.0936,-306.8793 1946.3892,-312.4063"/>
</g>
<!-- handleline_25 -->
<g id="node26" class="node">
<title>handleline_25</title>
<ellipse fill="none" stroke="#000000" cx="1734.5" cy="-162" rx="50.3585" ry="18"/>
<text text-anchor="middle" x="1734.5" y="-157.8" font-family="Helvetica,sans-Serif" font-size="14.00" fill="#000000">handleline</text>
</g>
<!-- structure_23&#45;&gt;handleline_25 -->
<g id="edge25" class="edge">
<title>structure_23&#45;&gt;handleline_25</title>
<path fill="none" stroke="#000000" stroke-dasharray="5,2" d="M1737.7476,-241.3234C1737.161,-226.9948 1736.3359,-206.8423 1735.6642,-190.4358"/>
<polygon fill="#000000" stroke="#000000" points="1739.1552,-190.1426 1735.249,-180.2942 1732.1611,-190.4291 1739.1552,-190.1426"/>
</g>
<!-- hashline_28 -->
<g id="node29" class="node">
<title>hashline_28</title>
<ellipse fill="none" stroke="#000000" cx="1852.5" cy="-162" rx="43.0992" ry="18"/>
<text text-anchor="middle" x="1852.5" y="-157.8" font-family="Helvetica,sans-Serif" font-size="14.00" fill="#000000">hashline</text>
</g>
<!-- structure_24&#45;&gt;hashline_28 -->
<g id="edge28" class="edge">
<title>structure_24&#45;&gt;hashline_28</title>
<path fill="none" stroke="#000000" stroke-dasharray="5,2" d="M1850.8762,-241.3234C1851.1695,-226.9948 1851.582,-206.8423 1851.9179,-190.4358"/>
<polygon fill="#000000" stroke="#000000" points="1855.42,-190.3638 1852.1255,-180.2942 1848.4215,-190.2205 1855.42,-190.3638"/>
</g>
<!-- handle_26 -->
<g id="node27" class="node">
<title>handle_26</title>
<ellipse fill="none" stroke="#000000" cx="1731.5" cy="-90" rx="36.827" ry="18"/>
<text text-anchor="middle" x="1731.5" y="-85.8" font-family="Helvetica,sans-Serif" font-size="14.00" fill="#000000">handle</text>
</g>
<!-- handleline_25&#45;&gt;handle_26 -->
<g id="edge26" class="edge">
<title>handleline_25&#45;&gt;handle_26</title>
<path fill="none" stroke="#000000" stroke-dasharray="5,2" d="M1733.743,-143.8314C1733.4221,-136.131 1733.0406,-126.9743 1732.684,-118.4166"/>
<polygon fill="#000000" stroke="#000000" points="1736.1806,-118.2589 1732.2672,-108.4133 1729.1867,-118.5503 1736.1806,-118.2589"/>
</g>
<!-- leaf_27 -->
<g id="node28" class="node">
<title>leaf_27</title>
<polygon fill="none" stroke="#c0c0c0" points="1776,-36 1683,-36 1683,0 1776,0 1776,-36"/>
<text text-anchor="middle" x="1729.5" y="-14.5" font-family="Inconsolata" font-size="14.00" fill="#000000">NameHeader3</text>
</g>
<!-- handle_26&#45;&gt;leaf_27 -->
<g id="edge27" class="edge">
<title>handle_26&#45;&gt;leaf_27</title>
<path fill="none" stroke="#000000" stroke-dasharray="5,2" d="M1730.9953,-71.8314C1730.7814,-64.131 1730.5271,-54.9743 1730.2894,-46.4166"/>
<polygon fill="#000000" stroke="#000000" points="1733.7879,-46.3122 1730.0115,-36.4133 1726.7906,-46.5066 1733.7879,-46.3122"/>
</g>
<!-- hashtag_29 -->
<g id="node30" class="node">
<title>hashtag_29</title>
<ellipse fill="none" stroke="#000000" cx="1853.5" cy="-90" rx="41.6544" ry="18"/>
<text text-anchor="middle" x="1853.5" y="-85.8" font-family="Helvetica,sans-Serif" font-size="14.00" fill="#000000">hashtag</text>
</g>
<!-- hashline_28&#45;&gt;hashtag_29 -->
<g id="edge29" class="edge">
<title>hashline_28&#45;&gt;hashtag_29</title>
<path fill="none" stroke="#000000" stroke-dasharray="5,2" d="M1852.7523,-143.8314C1852.8593,-136.131 1852.9865,-126.9743 1853.1053,-118.4166"/>
<polygon fill="#000000" stroke="#000000" points="1856.6049,-118.4609 1853.2443,-108.4133 1849.6056,-118.3637 1856.6049,-118.4609"/>
</g>
<!-- leaf_30 -->
<g id="node31" class="node">
<title>leaf_30</title>
<polygon fill="none" stroke="#c0c0c0" points="1915,-36 1794,-36 1794,0 1915,0 1915,-36"/>
<text text-anchor="middle" x="1854.5" y="-14.5" font-family="Inconsolata" font-size="14.00" fill="#000000">TagHeader3Block</text>
</g>
<!-- hashtag_29&#45;&gt;leaf_30 -->
<g id="edge30" class="edge">
<title>hashtag_29&#45;&gt;leaf_30</title>
<path fill="none" stroke="#000000" stroke-dasharray="5,2" d="M1853.7523,-71.8314C1853.8593,-64.131 1853.9865,-54.9743 1854.1053,-46.4166"/>
<polygon fill="#000000" stroke="#000000" points="1857.6049,-46.4609 1854.2443,-36.4133 1850.6056,-46.3637 1857.6049,-46.4609"/>
</g>
<!-- leaf_34 -->
<g id="node35" class="node">
<title>leaf_34</title>
<polygon fill="none" stroke="#c0c0c0" points="1977.5,-402.5001 1923.5,-402.5001 1923.5,-362.5001 1977.5,-362.5001 1977.5,-402.5001"/>
</g>
<!-- block_33&#45;&gt;leaf_34 -->
<g id="edge34" class="edge">
<title>block_33&#45;&gt;leaf_34</title>
<path fill="none" stroke="#000000" stroke-dasharray="5,2" d="M1947.9427,-486.6691C1948.4204,-467.2094 1949.1893,-435.8907 1949.7594,-412.6686"/>
<polygon fill="#000000" stroke="#000000" points="1953.259,-412.7233 1950.0056,-402.6404 1946.2611,-412.5515 1953.259,-412.7233"/>
</g>
</g>
</svg>
