<?xml version="1.0" encoding="UTF-8" standalone="no"?>
<!DOCTYPE svg PUBLIC "-//W3C//DTD SVG 1.1//EN"
 "http://www.w3.org/Graphics/SVG/1.1/DTD/svg11.dtd">
<!-- Generated by graphviz version 2.40.1 (20161225.0304)
 -->
<!-- Title: hierarchy Pages: 1 -->
<svg width="1410pt" height="895pt"
 viewBox="0.00 0.00 1410.00 894.60" xmlns="http://www.w3.org/2000/svg" xmlns:xlink="http://www.w3.org/1999/xlink">
<g id="graph0" class="graph" transform="scale(1 1) rotate(0) translate(4 890.6003)">
<title>hierarchy</title>
<polygon fill="#ffffff" stroke="transparent" points="-4,4 -4,-890.6003 1406,-890.6003 1406,4 -4,4"/>
<!-- doc_0 -->
<g id="node1" class="node">
<title>doc_0</title>
<ellipse fill="none" stroke="#000000" cx="147.5" cy="-868.6003" rx="42.1216" ry="18"/>
<text text-anchor="middle" x="147.5" y="-864.4003" font-family="Helvetica,sans-Serif" font-size="14.00" fill="#000000">doc &#45; 30</text>
</g>
<!-- section_1 -->
<g id="node2" class="node">
<title>section_1</title>
<ellipse fill="none" stroke="#000000" cx="147.5" cy="-796.6003" rx="55.6456" ry="18"/>
<text text-anchor="middle" x="147.5" y="-792.4003" font-family="Helvetica,sans-Serif" font-size="14.00" fill="#000000">section: 1&#45;2</text>
</g>
<!-- doc_0&#45;&gt;section_1 -->
<g id="edge1" class="edge">
<title>doc_0&#45;&gt;section_1</title>
<path fill="none" stroke="#000000" stroke-dasharray="5,2" d="M147.5,-850.4316C147.5,-842.7312 147.5,-833.5746 147.5,-825.0169"/>
<polygon fill="#000000" stroke="#000000" points="151.0001,-825.0135 147.5,-815.0135 144.0001,-825.0136 151.0001,-825.0135"/>
</g>
<!-- header_2 -->
<g id="node3" class="node">
<title>header_2</title>
<ellipse fill="none" stroke="#000000" cx="56.5" cy="-724.6003" rx="27" ry="18"/>
<text text-anchor="middle" x="56.5" y="-720.4003" font-family="Helvetica,sans-Serif" font-size="14.00" fill="#000000">0 : </text>
</g>
<!-- section_1&#45;&gt;header_2 -->
<g id="edge2" class="edge">
<title>section_1&#45;&gt;header_2</title>
<path fill="none" stroke="#000000" stroke-dasharray="5,2" d="M126.394,-779.9011C113.263,-769.5117 96.2835,-756.0773 82.3483,-745.0516"/>
<polygon fill="#000000" stroke="#000000" points="84.1405,-742.0067 74.1266,-738.5466 79.7971,-747.4963 84.1405,-742.0067"/>
</g>
<!-- block_3 -->
<g id="node4" class="node">
<title>block_3</title>
<ellipse fill="none" stroke="#000000" cx="147.5" cy="-724.6003" rx="45.9804" ry="18"/>
<text text-anchor="middle" x="147.5" y="-720.4003" font-family="Helvetica,sans-Serif" font-size="14.00" fill="#000000">block 1&#45;2</text>
</g>
<!-- section_1&#45;&gt;block_3 -->
<g id="edge3" class="edge">
<title>section_1&#45;&gt;block_3</title>
<path fill="none" stroke="#000000" stroke-dasharray="5,2" d="M147.5,-778.4316C147.5,-770.7312 147.5,-761.5746 147.5,-753.0169"/>
<polygon fill="#000000" stroke="#000000" points="151.0001,-753.0135 147.5,-743.0135 144.0001,-753.0136 151.0001,-753.0135"/>
</g>
<!-- section_4 -->
<g id="node5" class="node">
<title>section_4</title>
<ellipse fill="none" stroke="#000000" cx="345.5" cy="-724.6003" rx="60.9826" ry="18"/>
<text text-anchor="middle" x="345.5" y="-720.4003" font-family="Helvetica,sans-Serif" font-size="14.00" fill="#000000">section: 3&#45;12</text>
</g>
<!-- section_1&#45;&gt;section_4 -->
<g id="edge4" class="edge">
<title>section_1&#45;&gt;section_4</title>
<path fill="none" stroke="#000000" stroke-dasharray="5,2" d="M184.7423,-783.0576C216.6898,-771.4403 262.9235,-754.6281 297.6165,-742.0125"/>
<polygon fill="#000000" stroke="#000000" points="298.8723,-745.2801 307.0741,-738.5733 296.4801,-738.7015 298.8723,-745.2801"/>
</g>
<!-- leaf_5 -->
<g id="node6" class="node">
<title>leaf_5</title>
<polygon fill="none" stroke="#c0c0c0" points="149,-670.8023 0,-670.8023 0,-630.9982 149,-630.9982 149,-670.8023"/>
<text text-anchor="middle" x="74.5" y="-655.4003" font-family="Inconsolata" font-size="14.00" fill="#000000">A pre&#45;line of prose</text>
</g>
<!-- block_3&#45;&gt;leaf_5 -->
<g id="edge5" class="edge">
<title>block_3&#45;&gt;leaf_5</title>
<path fill="none" stroke="#000000" stroke-dasharray="5,2" d="M130.5688,-707.5068C121.9094,-698.7643 111.1637,-687.9156 101.4035,-678.0617"/>
<polygon fill="#000000" stroke="#000000" points="103.7067,-675.4134 94.1827,-670.7717 98.7333,-680.3395 103.7067,-675.4134"/>
</g>
<!-- header_6 -->
<g id="node7" class="node">
<title>header_6</title>
<ellipse fill="none" stroke="#000000" cx="224.5" cy="-650.9003" rx="57.0993" ry="18"/>
<text text-anchor="middle" x="224.5" y="-646.7003" font-family="Helvetica,sans-Serif" font-size="14.00" fill="#000000">1 : H1sauce</text>
</g>
<!-- section_4&#45;&gt;header_6 -->
<g id="edge6" class="edge">
<title>section_4&#45;&gt;header_6</title>
<path fill="none" stroke="#000000" stroke-dasharray="5,2" d="M318.6462,-708.2439C301.2157,-697.6271 278.3217,-683.6826 259.4746,-672.203"/>
<polygon fill="#000000" stroke="#000000" points="261.2236,-669.1702 250.8624,-666.9574 257.5822,-675.1485 261.2236,-669.1702"/>
</g>
<!-- block_7 -->
<g id="node8" class="node">
<title>block_7</title>
<ellipse fill="none" stroke="#000000" cx="345.5" cy="-650.9003" rx="45.9804" ry="18"/>
<text text-anchor="middle" x="345.5" y="-646.7003" font-family="Helvetica,sans-Serif" font-size="14.00" fill="#000000">block 3&#45;9</text>
</g>
<!-- section_4&#45;&gt;block_7 -->
<g id="edge7" class="edge">
<title>section_4&#45;&gt;block_7</title>
<path fill="none" stroke="#000000" stroke-dasharray="5,2" d="M345.5,-706.3823C345.5,-698.1714 345.5,-688.2857 345.5,-679.1475"/>
<polygon fill="#000000" stroke="#000000" points="349.0001,-678.9087 345.5,-668.9087 342.0001,-678.9087 349.0001,-678.9087"/>
</g>
<!-- block_8 -->
<g id="node9" class="node">
<title>block_8</title>
<ellipse fill="none" stroke="#000000" cx="465.5" cy="-650.9003" rx="55.6542" ry="18"/>
<text text-anchor="middle" x="465.5" y="-646.7003" font-family="Helvetica,sans-Serif" font-size="14.00" fill="#000000">block 10&#45;12</text>
</g>
<!-- section_4&#45;&gt;block_8 -->
<g id="edge8" class="edge">
<title>section_4&#45;&gt;block_8</title>
<path fill="none" stroke="#000000" stroke-dasharray="5,2" d="M372.1319,-708.2439C389.4184,-697.6271 412.1231,-683.6826 430.8144,-672.203"/>
<polygon fill="#000000" stroke="#000000" points="432.6659,-675.1733 439.3554,-666.9574 429.0025,-669.2085 432.6659,-675.1733"/>
</g>
<!-- section_9 -->
<g id="node10" class="node">
<title>section_9</title>
<ellipse fill="none" stroke="#000000" cx="743.5" cy="-650.9003" rx="65.8187" ry="18"/>
<text text-anchor="middle" x="743.5" y="-646.7003" font-family="Helvetica,sans-Serif" font-size="14.00" fill="#000000">section: 13&#45;21</text>
</g>
<!-- section_4&#45;&gt;section_9 -->
<g id="edge9" class="edge">
<title>section_4&#45;&gt;section_9</title>
<path fill="none" stroke="#000000" stroke-dasharray="5,2" d="M397.1235,-715.0408C469.1863,-701.6966 599.9093,-677.4898 678.5154,-662.9338"/>
<polygon fill="#000000" stroke="#000000" points="679.5825,-666.2958 688.778,-661.0335 678.3079,-659.4129 679.5825,-666.2958"/>
</g>
<!-- leaf_10 -->
<g id="node11" class="node">
<title>leaf_10</title>
<polygon fill="none" stroke="#c0c0c0" points="366,-595.3005 105,-595.3005 105,-492.8999 366,-492.8999 366,-595.3005"/>
<text text-anchor="middle" x="235.5" y="-548.0002" font-family="Inconsolata" font-size="14.00" fill="#000000">&#45; List line</text>
<text text-anchor="middle" x="235.5" y="-532.6002" font-family="Inconsolata" font-size="14.00" fill="#000000">&#45; second line same list</text>
<text text-anchor="middle" x="235.5" y="-517.2002" font-family="Inconsolata" font-size="14.00" fill="#000000"> &#160;&#45; third line, same list, indented</text>
</g>
<!-- block_7&#45;&gt;leaf_10 -->
<g id="edge10" class="edge">
<title>block_7&#45;&gt;leaf_10</title>
<path fill="none" stroke="#000000" stroke-dasharray="5,2" d="M327.8266,-633.741C318.8744,-625.0492 307.4242,-613.9321 295.6563,-602.5066"/>
<polygon fill="#000000" stroke="#000000" points="297.9204,-599.8264 288.3076,-595.3716 293.0442,-604.8487 297.9204,-599.8264"/>
</g>
<!-- leaf_11 -->
<g id="node12" class="node">
<title>leaf_11</title>
<polygon fill="none" stroke="#c0c0c0" points="547,-571.4006 384,-571.4006 384,-516.7998 547,-516.7998 547,-571.4006"/>
<text text-anchor="middle" x="465.5" y="-556.3002" font-family="Inconsolata" font-size="14.00" fill="#000000">1. Numbered list</text>
<text text-anchor="middle" x="465.5" y="-540.9002" font-family="Inconsolata" font-size="14.00" fill="#000000">1. Same numbered list</text>
</g>
<!-- block_8&#45;&gt;leaf_11 -->
<g id="edge11" class="edge">
<title>block_8&#45;&gt;leaf_11</title>
<path fill="none" stroke="#000000" stroke-dasharray="5,2" d="M465.5,-632.7831C465.5,-618.885 465.5,-599.2155 465.5,-581.9307"/>
<polygon fill="#000000" stroke="#000000" points="469.0001,-581.5496 465.5,-571.5497 462.0001,-581.5497 469.0001,-581.5496"/>
</g>
<!-- header_12 -->
<g id="node13" class="node">
<title>header_12</title>
<ellipse fill="none" stroke="#000000" cx="617.5" cy="-544.1002" rx="52.2623" ry="18"/>
<text text-anchor="middle" x="617.5" y="-539.9002" font-family="Helvetica,sans-Serif" font-size="14.00" fill="#000000">2 : H2ness</text>
</g>
<!-- section_9&#45;&gt;header_12 -->
<g id="edge12" class="edge">
<title>section_9&#45;&gt;header_12</title>
<path fill="none" stroke="#000000" stroke-dasharray="5,2" d="M723.2559,-633.741C702.0984,-615.8074 668.7594,-587.5487 645.177,-567.5597"/>
<polygon fill="#000000" stroke="#000000" points="647.1699,-564.6608 637.2784,-560.8648 642.6437,-570.0007 647.1699,-564.6608"/>
</g>
<!-- block_13 -->
<g id="node14" class="node">
<title>block_13</title>
<ellipse fill="none" stroke="#000000" cx="743.5" cy="-544.1002" rx="55.6542" ry="18"/>
<text text-anchor="middle" x="743.5" y="-539.9002" font-family="Helvetica,sans-Serif" font-size="14.00" fill="#000000">block 13&#45;15</text>
</g>
<!-- section_9&#45;&gt;block_13 -->
<g id="edge13" class="edge">
<title>section_9&#45;&gt;block_13</title>
<path fill="none" stroke="#000000" stroke-dasharray="5,2" d="M743.5,-632.7831C743.5,-616.2892 743.5,-591.6667 743.5,-572.5485"/>
<polygon fill="#000000" stroke="#000000" points="747.0001,-572.3062 743.5,-562.3063 740.0001,-572.3063 747.0001,-572.3062"/>
</g>
<!-- block_14 -->
<g id="node15" class="node">
<title>block_14</title>
<ellipse fill="none" stroke="#000000" cx="873.5" cy="-544.1002" rx="55.6542" ry="18"/>
<text text-anchor="middle" x="873.5" y="-539.9002" font-family="Helvetica,sans-Serif" font-size="14.00" fill="#000000">block 16&#45;21</text>
</g>
<!-- section_9&#45;&gt;block_14 -->
<g id="edge14" class="edge">
<title>section_9&#45;&gt;block_14</title>
<path fill="none" stroke="#000000" stroke-dasharray="5,2" d="M764.3867,-633.741C786.3113,-615.7291 820.9139,-587.3017 845.2626,-567.2984"/>
<polygon fill="#000000" stroke="#000000" points="847.5886,-569.9171 853.0937,-560.8648 843.145,-564.5083 847.5886,-569.9171"/>
</g>
<!-- section_15 -->
<g id="node16" class="node">
<title>section_15</title>
<ellipse fill="none" stroke="#000000" cx="1121.5" cy="-544.1002" rx="65.8187" ry="18"/>
<text text-anchor="middle" x="1121.5" y="-539.9002" font-family="Helvetica,sans-Serif" font-size="14.00" fill="#000000">section: 22&#45;30</text>
</g>
<!-- section_9&#45;&gt;section_15 -->
<g id="edge15" class="edge">
<title>section_9&#45;&gt;section_15</title>
<path fill="none" stroke="#000000" stroke-dasharray="5,2" d="M789.4723,-637.9113C859.0488,-618.2531 990.902,-580.9993 1065.8169,-559.8329"/>
<polygon fill="#000000" stroke="#000000" points="1066.8808,-563.1694 1075.5524,-557.0822 1064.9774,-556.4331 1066.8808,-563.1694"/>
</g>
<!-- leaf_16 -->
<g id="node17" class="node">
<title>leaf_16</title>
<polygon fill="none" stroke="#c0c0c0" points="701.5,-433.6001 647.5,-433.6001 647.5,-393.6001 701.5,-393.6001 701.5,-433.6001"/>
</g>
<!-- block_13&#45;&gt;leaf_16 -->
<g id="edge16" class="edge">
<title>block_13&#45;&gt;leaf_16</title>
<path fill="none" stroke="#000000" stroke-dasharray="5,2" d="M734.0505,-526.2284C722.6768,-504.7172 703.4222,-468.3008 689.8932,-442.7134"/>
<polygon fill="#000000" stroke="#000000" points="692.9615,-441.0285 685.1931,-433.8241 686.7733,-444.3005 692.9615,-441.0285"/>
</g>
<!-- structure_17 -->
<g id="node18" class="node">
<title>structure_17</title>
<ellipse fill="none" stroke="#000000" cx="764.5" cy="-413.6001" rx="44.5182" ry="18"/>
<text text-anchor="middle" x="764.5" y="-409.4001" font-family="Helvetica,sans-Serif" font-size="14.00" fill="#000000">structure</text>
</g>
<!-- block_14&#45;&gt;structure_17 -->
<g id="edge17" class="edge">
<title>block_14&#45;&gt;structure_17</title>
<path fill="none" stroke="#000000" stroke-dasharray="5,2" d="M858.7998,-526.5004C839.9231,-503.9003 807.04,-464.5311 785.5221,-438.7688"/>
<polygon fill="#000000" stroke="#000000" points="788.0641,-436.3524 778.9673,-430.9211 782.6916,-440.8398 788.0641,-436.3524"/>
</g>
<!-- leaf_21 -->
<g id="node22" class="node">
<title>leaf_21</title>
<polygon fill="none" stroke="#c0c0c0" points="1060,-456.9004 827,-456.9004 827,-370.2998 1060,-370.2998 1060,-456.9004"/>
<text text-anchor="middle" x="943.5" y="-441.8002" font-family="Inconsolata" font-size="14.00" fill="#000000">This prose is tagged by the tag</text>
<text text-anchor="middle" x="943.5" y="-394.4001" font-family="Inconsolata" font-size="14.00" fill="#000000">| a | table | line |</text>
</g>
<!-- block_14&#45;&gt;leaf_21 -->
<g id="edge21" class="edge">
<title>block_14&#45;&gt;leaf_21</title>
<path fill="none" stroke="#000000" stroke-dasharray="5,2" d="M883.0864,-526.2284C891.4083,-510.714 903.889,-487.4464 915.3499,-466.08"/>
<polygon fill="#000000" stroke="#000000" points="918.5415,-467.5342 920.1842,-457.0675 912.3729,-464.2254 918.5415,-467.5342"/>
</g>
<!-- header_22 -->
<g id="node23" class="node">
<title>header_22</title>
<ellipse fill="none" stroke="#000000" cx="1121.5" cy="-413.6001" rx="43.5751" ry="18"/>
<text text-anchor="middle" x="1121.5" y="-409.4001" font-family="Helvetica,sans-Serif" font-size="14.00" fill="#000000">3 : H3oh</text>
</g>
<!-- section_15&#45;&gt;header_22 -->
<g id="edge22" class="edge">
<title>section_15&#45;&gt;header_22</title>
<path fill="none" stroke="#000000" stroke-dasharray="5,2" d="M1121.5,-525.9547C1121.5,-504.2614 1121.5,-467.6942 1121.5,-442.1898"/>
<polygon fill="#000000" stroke="#000000" points="1125.0001,-442.0122 1121.5,-432.0122 1118.0001,-442.0122 1125.0001,-442.0122"/>
</g>
<!-- block_23 -->
<g id="node24" class="node">
<title>block_23</title>
<ellipse fill="none" stroke="#000000" cx="1238.5" cy="-413.6001" rx="55.6542" ry="18"/>
<text text-anchor="middle" x="1238.5" y="-409.4001" font-family="Helvetica,sans-Serif" font-size="14.00" fill="#000000">block 22&#45;30</text>
</g>
<!-- section_15&#45;&gt;block_23 -->
<g id="edge23" class="edge">
<title>section_15&#45;&gt;block_23</title>
<path fill="none" stroke="#000000" stroke-dasharray="5,2" d="M1137.2791,-526.5004C1157.629,-503.8025 1193.1437,-464.1899 1216.2342,-438.435"/>
<polygon fill="#000000" stroke="#000000" points="1218.9014,-440.7032 1222.9709,-430.9211 1213.6894,-436.0304 1218.9014,-440.7032"/>
</g>
<!-- hashline_18 -->
<g id="node19" class="node">
<title>hashline_18</title>
<ellipse fill="none" stroke="#000000" cx="764.5" cy="-275.1" rx="43.0992" ry="18"/>
<text text-anchor="middle" x="764.5" y="-270.9" font-family="Helvetica,sans-Serif" font-size="14.00" fill="#000000">hashline</text>
</g>
<!-- structure_17&#45;&gt;hashline_18 -->
<g id="edge18" class="edge">
<title>structure_17&#45;&gt;hashline_18</title>
<path fill="none" stroke="#000000" stroke-dasharray="5,2" d="M764.5,-395.4937C764.5,-372.0608 764.5,-330.9756 764.5,-303.4037"/>
<polygon fill="#000000" stroke="#000000" points="768.0001,-303.2109 764.5,-293.211 761.0001,-303.211 768.0001,-303.2109"/>
</g>
<!-- hashtag_19 -->
<g id="node20" class="node">
<title>hashtag_19</title>
<ellipse fill="none" stroke="#000000" cx="764.5" cy="-162" rx="41.6544" ry="18"/>
<text text-anchor="middle" x="764.5" y="-157.8" font-family="Helvetica,sans-Serif" font-size="14.00" fill="#000000">hashtag</text>
</g>
<!-- hashline_18&#45;&gt;hashtag_19 -->
<g id="edge19" class="edge">
<title>hashline_18&#45;&gt;hashtag_19</title>
<path fill="none" stroke="#000000" stroke-dasharray="5,2" d="M764.5,-256.9286C764.5,-238.9557 764.5,-211.1901 764.5,-190.322"/>
<polygon fill="#000000" stroke="#000000" points="768.0001,-190.1263 764.5,-180.1264 761.0001,-190.1264 768.0001,-190.1263"/>
</g>
<!-- leaf_20 -->
<g id="node21" class="node">
<title>leaf_20</title>
<polygon fill="none" stroke="#c0c0c0" points="807.5,-108 721.5,-108 721.5,-72 807.5,-72 807.5,-108"/>
<text text-anchor="middle" x="764.5" y="-86.5" font-family="Inconsolata" font-size="14.00" fill="#000000">TagYoureIt</text>
</g>
<!-- hashtag_19&#45;&gt;leaf_20 -->
<g id="edge20" class="edge">
<title>hashtag_19&#45;&gt;leaf_20</title>
<path fill="none" stroke="#000000" stroke-dasharray="5,2" d="M764.5,-143.8314C764.5,-136.131 764.5,-126.9743 764.5,-118.4166"/>
<polygon fill="#000000" stroke="#000000" points="768.0001,-118.4132 764.5,-108.4133 761.0001,-118.4133 768.0001,-118.4132"/>
</g>
<!-- structure_24 -->
<g id="node25" class="node">
<title>structure_24</title>
<ellipse fill="none" stroke="#000000" cx="1162.5" cy="-275.1" rx="44.5182" ry="18"/>
<text text-anchor="middle" x="1162.5" y="-270.9" font-family="Helvetica,sans-Serif" font-size="14.00" fill="#000000">structure</text>
</g>
<!-- block_23&#45;&gt;structure_24 -->
<g id="edge24" class="edge">
<title>block_23&#45;&gt;structure_24</title>
<path fill="none" stroke="#000000" stroke-dasharray="5,2" d="M1228.7199,-395.7772C1215.666,-371.9882 1192.4336,-329.6501 1177.2483,-301.9769"/>
<polygon fill="#000000" stroke="#000000" points="1180.1217,-299.9377 1172.2425,-292.8546 1173.9849,-303.3052 1180.1217,-299.9377"/>
</g>
<!-- leaf_28 -->
<g id="node29" class="node">
<title>leaf_28</title>
<polygon fill="none" stroke="#c0c0c0" points="1402,-334.3003 1225,-334.3003 1225,-215.8998 1402,-215.8998 1402,-334.3003"/>
<text text-anchor="middle" x="1313.5" y="-303.0001" font-family="Inconsolata" font-size="14.00" fill="#000000">A line of pure prose</text>
<text text-anchor="middle" x="1313.5" y="-287.6001" font-family="Inconsolata" font-size="14.00" fill="#000000">more purple than purple</text>
<text text-anchor="middle" x="1313.5" y="-272.2" font-family="Inconsolata" font-size="14.00" fill="#000000">veiled voluptuous</text>
</g>
<!-- block_23&#45;&gt;leaf_28 -->
<g id="edge28" class="edge">
<title>block_23&#45;&gt;leaf_28</title>
<path fill="none" stroke="#000000" stroke-dasharray="5,2" d="M1248.1514,-395.7772C1255.4934,-382.2189 1266.0983,-362.6352 1276.6362,-343.1752"/>
<polygon fill="#000000" stroke="#000000" points="1279.7771,-344.7251 1281.4612,-334.265 1273.6217,-341.3918 1279.7771,-344.7251"/>
</g>
<!-- handleline_25 -->
<g id="node26" class="node">
<title>handleline_25</title>
<ellipse fill="none" stroke="#000000" cx="1162.5" cy="-162" rx="50.3585" ry="18"/>
<text text-anchor="middle" x="1162.5" y="-157.8" font-family="Helvetica,sans-Serif" font-size="14.00" fill="#000000">handleline</text>
</g>
<!-- structure_24&#45;&gt;handleline_25 -->
<g id="edge25" class="edge">
<title>structure_24&#45;&gt;handleline_25</title>
<path fill="none" stroke="#000000" stroke-dasharray="5,2" d="M1162.5,-256.9286C1162.5,-238.9557 1162.5,-211.1901 1162.5,-190.322"/>
<polygon fill="#000000" stroke="#000000" points="1166.0001,-190.1263 1162.5,-180.1264 1159.0001,-190.1264 1166.0001,-190.1263"/>
</g>
<!-- handle_26 -->
<g id="node27" class="node">
<title>handle_26</title>
<ellipse fill="none" stroke="#000000" cx="1162.5" cy="-90" rx="36.827" ry="18"/>
<text text-anchor="middle" x="1162.5" y="-85.8" font-family="Helvetica,sans-Serif" font-size="14.00" fill="#000000">handle</text>
</g>
<!-- handleline_25&#45;&gt;handle_26 -->
<g id="edge26" class="edge">
<title>handleline_25&#45;&gt;handle_26</title>
<path fill="none" stroke="#000000" stroke-dasharray="5,2" d="M1162.5,-143.8314C1162.5,-136.131 1162.5,-126.9743 1162.5,-118.4166"/>
<polygon fill="#000000" stroke="#000000" points="1166.0001,-118.4132 1162.5,-108.4133 1159.0001,-118.4133 1166.0001,-118.4132"/>
</g>
<!-- leaf_27 -->
<g id="node28" class="node">
<title>leaf_27</title>
<polygon fill="none" stroke="#c0c0c0" points="1205.5,-36 1119.5,-36 1119.5,0 1205.5,0 1205.5,-36"/>
<text text-anchor="middle" x="1162.5" y="-14.5" font-family="Inconsolata" font-size="14.00" fill="#000000">AnLuserTag</text>
</g>
<!-- handle_26&#45;&gt;leaf_27 -->
<g id="edge27" class="edge">
<title>handle_26&#45;&gt;leaf_27</title>
<path fill="none" stroke="#000000" stroke-dasharray="5,2" d="M1162.5,-71.8314C1162.5,-64.131 1162.5,-54.9743 1162.5,-46.4166"/>
<polygon fill="#000000" stroke="#000000" points="1166.0001,-46.4132 1162.5,-36.4133 1159.0001,-46.4133 1166.0001,-46.4132"/>
</g>
</g>
</svg>
