<?xml version="1.0" encoding="UTF-8" standalone="no"?>
<!DOCTYPE svg PUBLIC "-//W3C//DTD SVG 1.1//EN"
 "http://www.w3.org/Graphics/SVG/1.1/DTD/svg11.dtd">
<!-- Generated by graphviz version 2.40.1 (20161225.0304)
 -->
<!-- Title: hierarchy Pages: 1 -->
<svg width="886pt" height="402pt"
 viewBox="0.00 0.00 885.50 402.20" xmlns="http://www.w3.org/2000/svg" xmlns:xlink="http://www.w3.org/1999/xlink">
<g id="graph0" class="graph" transform="scale(1 1) rotate(0) translate(4 398.2001)">
<title>hierarchy</title>
<polygon fill="#ffffff" stroke="transparent" points="-4,4 -4,-398.2001 881.5,-398.2001 881.5,4 -4,4"/>
<!-- doc_0 -->
<g id="node1" class="node">
<title>doc_0</title>
<ellipse fill="none" stroke="#000000" cx="465" cy="-376.2001" rx="42.1216" ry="18"/>
<text text-anchor="middle" x="465" y="-372.0001" font-family="Helvetica,sans-Serif" font-size="14.00" fill="#000000">doc &#45; 19</text>
</g>
<!-- section_1 -->
<g id="node2" class="node">
<title>section_1</title>
<ellipse fill="none" stroke="#000000" cx="465" cy="-304.2001" rx="60.9826" ry="18"/>
<text text-anchor="middle" x="465" y="-300.0001" font-family="Helvetica,sans-Serif" font-size="14.00" fill="#000000">section: 1&#45;15</text>
</g>
<!-- doc_0&#45;&gt;section_1 -->
<g id="edge1" class="edge">
<title>doc_0&#45;&gt;section_1</title>
<path fill="none" stroke="#000000" stroke-dasharray="5,2" d="M465,-358.0315C465,-350.331 465,-341.1744 465,-332.6167"/>
<polygon fill="#000000" stroke="#000000" points="468.5001,-332.6133 465,-322.6134 461.5001,-332.6134 468.5001,-332.6133"/>
</g>
<!-- header_2 -->
<g id="node3" class="node">
<title>header_2</title>
<ellipse fill="none" stroke="#000000" cx="248" cy="-232.2001" rx="95.7451" ry="18"/>
<text text-anchor="middle" x="248" y="-228.0001" font-family="Helvetica,sans-Serif" font-size="14.00" fill="#000000">A Grimoire With Code</text>
</g>
<!-- section_1&#45;&gt;header_2 -->
<g id="edge2" class="edge">
<title>section_1&#45;&gt;header_2</title>
<path fill="none" stroke="#000000" stroke-dasharray="5,2" d="M424.4385,-290.7419C390.8812,-279.6077 342.8158,-263.6597 305.3247,-251.2203"/>
<polygon fill="#000000" stroke="#000000" points="306.1385,-247.8027 295.5451,-247.9754 303.934,-254.4466 306.1385,-247.8027"/>
</g>
<!-- block_3 -->
<g id="node4" class="node">
<title>block_3</title>
<ellipse fill="none" stroke="#000000" cx="408" cy="-232.2001" rx="45.9804" ry="18"/>
<text text-anchor="middle" x="408" y="-228.0001" font-family="Helvetica,sans-Serif" font-size="14.00" fill="#000000">block 1&#45;4</text>
</g>
<!-- section_1&#45;&gt;block_3 -->
<g id="edge3" class="edge">
<title>section_1&#45;&gt;block_3</title>
<path fill="none" stroke="#000000" stroke-dasharray="5,2" d="M450.9101,-286.4023C444.0256,-277.7061 435.6187,-267.0868 428.0765,-257.5599"/>
<polygon fill="#000000" stroke="#000000" points="430.6824,-255.2127 421.7311,-249.5447 425.194,-259.5576 430.6824,-255.2127"/>
</g>
<!-- block_4 -->
<g id="node5" class="node">
<title>block_4</title>
<ellipse fill="none" stroke="#000000" cx="522" cy="-232.2001" rx="49.8395" ry="18"/>
<text text-anchor="middle" x="522" y="-228.0001" font-family="Helvetica,sans-Serif" font-size="14.00" fill="#000000">block 5&#45;nil</text>
</g>
<!-- section_1&#45;&gt;block_4 -->
<g id="edge4" class="edge">
<title>section_1&#45;&gt;block_4</title>
<path fill="none" stroke="#000000" stroke-dasharray="5,2" d="M479.0899,-286.4023C485.9744,-277.7061 494.3813,-267.0868 501.9235,-257.5599"/>
<polygon fill="#000000" stroke="#000000" points="504.806,-259.5576 508.2689,-249.5447 499.3176,-255.2127 504.806,-259.5576"/>
</g>
<!-- section_5 -->
<g id="node6" class="node">
<title>section_5</title>
<ellipse fill="none" stroke="#000000" cx="693" cy="-232.2001" rx="65.8187" ry="18"/>
<text text-anchor="middle" x="693" y="-228.0001" font-family="Helvetica,sans-Serif" font-size="14.00" fill="#000000">section: 16&#45;19</text>
</g>
<!-- section_1&#45;&gt;section_5 -->
<g id="edge5" class="edge">
<title>section_1&#45;&gt;section_5</title>
<path fill="none" stroke="#000000" stroke-dasharray="5,2" d="M506.8187,-290.9942C544.3486,-279.1426 599.6087,-261.6921 640.1795,-248.8803"/>
<polygon fill="#000000" stroke="#000000" points="641.4154,-252.1604 649.8972,-245.8115 639.3074,-245.4853 641.4154,-252.1604"/>
</g>
<!-- leaf_6 -->
<g id="node7" class="node">
<title>leaf_6</title>
<polygon fill="none" stroke="#c0c0c0" points="394,-178.1016 0,-178.1016 0,-122.2986 394,-122.2986 394,-178.1016"/>
<text text-anchor="middle" x="197" y="-146.7001" font-family="Inconsolata" font-size="14.00" fill="#000000"> &#160;How exciting! &#160;This is fun. &#160;Hawaii was a good idea.</text>
</g>
<!-- block_3&#45;&gt;leaf_6 -->
<g id="edge6" class="edge">
<title>block_3&#45;&gt;leaf_6</title>
<path fill="none" stroke="#000000" stroke-dasharray="5,2" d="M375.0313,-219.3876C349.0747,-209.3002 311.7649,-194.8007 277.9994,-181.6785"/>
<polygon fill="#000000" stroke="#000000" points="279.1709,-178.3788 268.5822,-178.0188 276.6352,-184.9035 279.1709,-178.3788"/>
</g>
<!-- codeblock_7 -->
<g id="node8" class="node">
<title>codeblock_7</title>
<ellipse fill="none" stroke="#000000" cx="485" cy="-150.2001" rx="72.5844" ry="18"/>
<text text-anchor="middle" x="485" y="-146.0001" font-family="Helvetica,sans-Serif" font-size="14.00" fill="#000000">code block 7&#45;13</text>
</g>
<!-- block_4&#45;&gt;codeblock_7 -->
<g id="edge7" class="edge">
<title>block_4&#45;&gt;codeblock_7</title>
<path fill="none" stroke="#000000" stroke-dasharray="5,2" d="M513.9716,-214.4073C509.1081,-203.6288 502.8049,-189.6596 497.3204,-177.5047"/>
<polygon fill="#000000" stroke="#000000" points="500.4438,-175.9168 493.1406,-168.2413 494.0632,-178.7959 500.4438,-175.9168"/>
</g>
<!-- leaf_9 -->
<g id="node10" class="node">
<title>leaf_9</title>
<polygon fill="none" stroke="#c0c0c0" points="630,-178.2001 576,-178.2001 576,-122.2001 630,-122.2001 630,-178.2001"/>
</g>
<!-- block_4&#45;&gt;leaf_9 -->
<g id="edge9" class="edge">
<title>block_4&#45;&gt;leaf_9</title>
<path fill="none" stroke="#000000" stroke-dasharray="5,2" d="M538.7833,-215.2096C547.4428,-206.4432 558.3359,-195.4156 568.6784,-184.9454"/>
<polygon fill="#000000" stroke="#000000" points="571.1789,-187.3945 575.7165,-177.8205 566.1989,-182.4751 571.1789,-187.3945"/>
</g>
<!-- header_10 -->
<g id="node11" class="node">
<title>header_10</title>
<ellipse fill="none" stroke="#000000" cx="693" cy="-150.2001" rx="44.5528" ry="18"/>
<text text-anchor="middle" x="693" y="-146.0001" font-family="Helvetica,sans-Serif" font-size="14.00" fill="#000000">Epilogue</text>
</g>
<!-- section_5&#45;&gt;header_10 -->
<g id="edge10" class="edge">
<title>section_5&#45;&gt;header_10</title>
<path fill="none" stroke="#000000" stroke-dasharray="5,2" d="M693,-214.0016C693,-203.5977 693,-190.3216 693,-178.5768"/>
<polygon fill="#000000" stroke="#000000" points="696.5001,-178.3476 693,-168.3477 689.5001,-178.3477 696.5001,-178.3476"/>
</g>
<!-- block_11 -->
<g id="node12" class="node">
<title>block_11</title>
<ellipse fill="none" stroke="#000000" cx="810" cy="-150.2001" rx="54.6765" ry="18"/>
<text text-anchor="middle" x="810" y="-146.0001" font-family="Helvetica,sans-Serif" font-size="14.00" fill="#000000">block 16&#45;nil</text>
</g>
<!-- section_5&#45;&gt;block_11 -->
<g id="edge11" class="edge">
<title>section_5&#45;&gt;block_11</title>
<path fill="none" stroke="#000000" stroke-dasharray="5,2" d="M716.959,-215.4083C734.6631,-203.0003 758.9429,-185.9837 778.2603,-172.445"/>
<polygon fill="#000000" stroke="#000000" points="780.2926,-175.2947 786.4728,-166.6892 776.275,-169.5624 780.2926,-175.2947"/>
</g>
<!-- leaf_8 -->
<g id="node9" class="node">
<title>leaf_8</title>
<polygon fill="none" stroke="#c0c0c0" points="573.5,-86.3004 396.5,-86.3004 396.5,.1003 573.5,.1003 573.5,-86.3004"/>
<text text-anchor="middle" x="485" y="-55.0001" font-family="Inconsolata" font-size="14.00" fill="#000000">local function aloha()</text>
<text text-anchor="middle" x="485" y="-39.6001" font-family="Inconsolata" font-size="14.00" fill="#000000"> &#160;io.write(&quot;Aloha Oe!&quot;)</text>
<text text-anchor="middle" x="485" y="-24.2" font-family="Inconsolata" font-size="14.00" fill="#000000">end</text>
</g>
<!-- codeblock_7&#45;&gt;leaf_8 -->
<g id="edge8" class="edge">
<title>codeblock_7&#45;&gt;leaf_8</title>
<path fill="none" stroke="#000000" stroke-dasharray="5,2" d="M485,-132.032C485,-122.1429 485,-109.3398 485,-96.5448"/>
<polygon fill="#000000" stroke="#000000" points="488.5001,-96.3409 485,-86.341 481.5001,-96.341 488.5001,-96.3409"/>
</g>
<!-- leaf_12 -->
<g id="node13" class="node">
<title>leaf_12</title>
<polygon fill="none" stroke="#c0c0c0" points="877.5,-71.0015 742.5,-71.0015 742.5,-15.1986 877.5,-15.1986 877.5,-71.0015"/>
<text text-anchor="middle" x="810" y="-39.6001" font-family="Inconsolata" font-size="14.00" fill="#000000"> &#160;Feels good man.</text>
</g>
<!-- block_11&#45;&gt;leaf_12 -->
<g id="edge12" class="edge">
<title>block_11&#45;&gt;leaf_12</title>
<path fill="none" stroke="#000000" stroke-dasharray="5,2" d="M810,-132.032C810,-118.1937 810,-98.6496 810,-81.406"/>
<polygon fill="#000000" stroke="#000000" points="813.5001,-81.0383 810,-71.0383 806.5001,-81.0383 813.5001,-81.0383"/>
</g>
</g>
</svg>
