<?xml version="1.0" encoding="UTF-8" standalone="no"?>
<!DOCTYPE svg PUBLIC "-//W3C//DTD SVG 1.1//EN"
 "http://www.w3.org/Graphics/SVG/1.1/DTD/svg11.dtd">
<!-- Generated by graphviz version 2.40.1 (20161225.0304)
 -->
<!-- Title: hierarchy Pages: 1 -->
<svg width="1092pt" height="546pt"
 viewBox="0.00 0.00 1091.50 545.60" xmlns="http://www.w3.org/2000/svg" xmlns:xlink="http://www.w3.org/1999/xlink">
<g id="graph0" class="graph" transform="scale(1 1) rotate(0) translate(4 541.6001)">
<title>hierarchy</title>
<polygon fill="#ffffff" stroke="transparent" points="-4,4 -4,-541.6001 1087.5,-541.6001 1087.5,4 -4,4"/>
<!-- doc_0 -->
<g id="node1" class="node">
<title>doc_0</title>
<ellipse fill="none" stroke="#000000" cx="547" cy="-519.6001" rx="42.1216" ry="18"/>
<text text-anchor="middle" x="547" y="-515.4001" font-family="Helvetica,sans-Serif" font-size="14.00" fill="#000000">doc &#45; 19</text>
</g>
<!-- section_1 -->
<g id="node2" class="node">
<title>section_1</title>
<ellipse fill="none" stroke="#000000" cx="547" cy="-447.6001" rx="60.9826" ry="18"/>
<text text-anchor="middle" x="547" y="-443.4001" font-family="Helvetica,sans-Serif" font-size="14.00" fill="#000000">section: 1&#45;15</text>
</g>
<!-- doc_0&#45;&gt;section_1 -->
<g id="edge1" class="edge">
<title>doc_0&#45;&gt;section_1</title>
<path fill="none" stroke="#000000" stroke-dasharray="5,2" d="M547,-501.4315C547,-493.7311 547,-484.5745 547,-476.0168"/>
<polygon fill="#000000" stroke="#000000" points="550.5001,-476.0134 547,-466.0134 543.5001,-476.0134 550.5001,-476.0134"/>
</g>
<!-- header_2 -->
<g id="node3" class="node">
<title>header_2</title>
<ellipse fill="none" stroke="#000000" cx="266" cy="-375.6001" rx="107.3563" ry="18"/>
<text text-anchor="middle" x="266" y="-371.4001" font-family="Helvetica,sans-Serif" font-size="14.00" fill="#000000">1 : A Grimoire With Code</text>
</g>
<!-- section_1&#45;&gt;header_2 -->
<g id="edge2" class="edge">
<title>section_1&#45;&gt;header_2</title>
<path fill="none" stroke="#000000" stroke-dasharray="5,2" d="M500.9132,-435.7914C455.7146,-424.2103 386.2537,-406.4125 334.5722,-393.1702"/>
<polygon fill="#000000" stroke="#000000" points="335.3684,-389.7612 324.8125,-390.6695 333.6309,-396.5422 335.3684,-389.7612"/>
</g>
<!-- block_3 -->
<g id="node4" class="node">
<title>block_3</title>
<ellipse fill="none" stroke="#000000" cx="437" cy="-375.6001" rx="45.9804" ry="18"/>
<text text-anchor="middle" x="437" y="-371.4001" font-family="Helvetica,sans-Serif" font-size="14.00" fill="#000000">block 1&#45;4</text>
</g>
<!-- section_1&#45;&gt;block_3 -->
<g id="edge3" class="edge">
<title>section_1&#45;&gt;block_3</title>
<path fill="none" stroke="#000000" stroke-dasharray="5,2" d="M521.7638,-431.0819C506.0997,-420.829 485.8265,-407.5593 469.0345,-396.5682"/>
<polygon fill="#000000" stroke="#000000" points="470.8974,-393.6045 460.6136,-391.0563 467.0638,-399.4614 470.8974,-393.6045"/>
</g>
<!-- block_4 -->
<g id="node5" class="node">
<title>block_4</title>
<ellipse fill="none" stroke="#000000" cx="547" cy="-375.6001" rx="45.9804" ry="18"/>
<text text-anchor="middle" x="547" y="-371.4001" font-family="Helvetica,sans-Serif" font-size="14.00" fill="#000000">block 5&#45;6</text>
</g>
<!-- section_1&#45;&gt;block_4 -->
<g id="edge4" class="edge">
<title>section_1&#45;&gt;block_4</title>
<path fill="none" stroke="#000000" stroke-dasharray="5,2" d="M547,-429.4315C547,-421.7311 547,-412.5745 547,-404.0168"/>
<polygon fill="#000000" stroke="#000000" points="550.5001,-404.0134 547,-394.0134 543.5001,-404.0134 550.5001,-404.0134"/>
</g>
<!-- block_5 -->
<g id="node6" class="node">
<title>block_5</title>
<ellipse fill="none" stroke="#000000" cx="665" cy="-375.6001" rx="50.8172" ry="18"/>
<text text-anchor="middle" x="665" y="-371.4001" font-family="Helvetica,sans-Serif" font-size="14.00" fill="#000000">block 7&#45;15</text>
</g>
<!-- section_1&#45;&gt;block_5 -->
<g id="edge5" class="edge">
<title>section_1&#45;&gt;block_5</title>
<path fill="none" stroke="#000000" stroke-dasharray="5,2" d="M573.776,-431.2622C590.6055,-420.9934 612.481,-407.6456 630.5914,-396.5952"/>
<polygon fill="#000000" stroke="#000000" points="632.4275,-399.575 639.1409,-391.3786 628.7814,-393.5995 632.4275,-399.575"/>
</g>
<!-- section_6 -->
<g id="node7" class="node">
<title>section_6</title>
<ellipse fill="none" stroke="#000000" cx="885" cy="-375.6001" rx="65.8187" ry="18"/>
<text text-anchor="middle" x="885" y="-371.4001" font-family="Helvetica,sans-Serif" font-size="14.00" fill="#000000">section: 16&#45;19</text>
</g>
<!-- section_1&#45;&gt;section_6 -->
<g id="edge6" class="edge">
<title>section_1&#45;&gt;section_6</title>
<path fill="none" stroke="#000000" stroke-dasharray="5,2" d="M596.5101,-437.0536C656.5585,-424.2622 757.8133,-402.6931 822.9966,-388.8079"/>
<polygon fill="#000000" stroke="#000000" points="824.0853,-392.1547 833.1366,-386.648 822.6268,-385.3083 824.0853,-392.1547"/>
</g>
<!-- leaf_7 -->
<g id="node8" class="node">
<title>leaf_7</title>
<polygon fill="none" stroke="#c0c0c0" points="394,-321.8016 0,-321.8016 0,-265.9986 394,-265.9986 394,-321.8016"/>
<text text-anchor="middle" x="197" y="-290.4001" font-family="Inconsolata" font-size="14.00" fill="#000000"> &#160;How exciting! &#160;This is fun. &#160;Hawaii was a good idea.</text>
</g>
<!-- block_3&#45;&gt;leaf_7 -->
<g id="edge7" class="edge">
<title>block_3&#45;&gt;leaf_7</title>
<path fill="none" stroke="#000000" stroke-dasharray="5,2" d="M402.1019,-363.7202C372.193,-353.5388 327.7526,-338.4105 287.878,-324.8365"/>
<polygon fill="#000000" stroke="#000000" points="288.9802,-321.5145 278.3858,-321.6052 286.7244,-328.1411 288.9802,-321.5145"/>
</g>
<!-- structure_8 -->
<g id="node9" class="node">
<title>structure_8</title>
<ellipse fill="none" stroke="#000000" cx="457" cy="-293.9001" rx="44.5182" ry="18"/>
<text text-anchor="middle" x="457" y="-289.7001" font-family="Helvetica,sans-Serif" font-size="14.00" fill="#000000">structure</text>
</g>
<!-- block_4&#45;&gt;structure_8 -->
<g id="edge8" class="edge">
<title>block_4&#45;&gt;structure_8</title>
<path fill="none" stroke="#000000" stroke-dasharray="5,2" d="M528.7872,-359.0669C515.6123,-347.1071 497.6211,-330.7751 482.9459,-317.4532"/>
<polygon fill="#000000" stroke="#000000" points="484.9425,-314.5387 475.1858,-310.4087 480.2375,-319.7217 484.9425,-314.5387"/>
</g>
<!-- leaf_12 -->
<g id="node13" class="node">
<title>leaf_12</title>
<polygon fill="none" stroke="#c0c0c0" points="574,-311.9001 520,-311.9001 520,-275.9001 574,-275.9001 574,-311.9001"/>
</g>
<!-- block_4&#45;&gt;leaf_12 -->
<g id="edge12" class="edge">
<title>block_4&#45;&gt;leaf_12</title>
<path fill="none" stroke="#000000" stroke-dasharray="5,2" d="M547,-357.4682C547,-347.1024 547,-333.8748 547,-322.1731"/>
<polygon fill="#000000" stroke="#000000" points="550.5001,-321.9813 547,-311.9813 543.5001,-321.9813 550.5001,-321.9813"/>
</g>
<!-- codeblock_13 -->
<g id="node14" class="node">
<title>codeblock_13</title>
<ellipse fill="none" stroke="#000000" cx="665" cy="-293.9001" rx="72.5844" ry="18"/>
<text text-anchor="middle" x="665" y="-289.7001" font-family="Helvetica,sans-Serif" font-size="14.00" fill="#000000">code block 7&#45;13</text>
</g>
<!-- block_5&#45;&gt;codeblock_13 -->
<g id="edge13" class="edge">
<title>block_5&#45;&gt;codeblock_13</title>
<path fill="none" stroke="#000000" stroke-dasharray="5,2" d="M665,-357.4682C665,-347.1024 665,-333.8748 665,-322.1731"/>
<polygon fill="#000000" stroke="#000000" points="668.5001,-321.9813 665,-311.9813 661.5001,-321.9813 668.5001,-321.9813"/>
</g>
<!-- leaf_15 -->
<g id="node16" class="node">
<title>leaf_15</title>
<polygon fill="none" stroke="#c0c0c0" points="810,-313.9001 756,-313.9001 756,-273.9001 810,-273.9001 810,-313.9001"/>
</g>
<!-- block_5&#45;&gt;leaf_15 -->
<g id="edge15" class="edge">
<title>block_5&#45;&gt;leaf_15</title>
<path fill="none" stroke="#000000" stroke-dasharray="5,2" d="M690.0797,-359.7625C706.4805,-349.2404 728.2591,-334.9537 747,-321.6001 747.6262,-321.1539 748.2569,-320.7016 748.8909,-320.2441"/>
<polygon fill="#000000" stroke="#000000" points="751.246,-322.856 757.2148,-314.1025 747.09,-317.2233 751.246,-322.856"/>
</g>
<!-- header_16 -->
<g id="node17" class="node">
<title>header_16</title>
<ellipse fill="none" stroke="#000000" cx="885" cy="-293.9001" rx="56.632" ry="18"/>
<text text-anchor="middle" x="885" y="-289.7001" font-family="Helvetica,sans-Serif" font-size="14.00" fill="#000000">2 : Epilogue</text>
</g>
<!-- section_6&#45;&gt;header_16 -->
<g id="edge16" class="edge">
<title>section_6&#45;&gt;header_16</title>
<path fill="none" stroke="#000000" stroke-dasharray="5,2" d="M885,-357.4682C885,-347.1024 885,-333.8748 885,-322.1731"/>
<polygon fill="#000000" stroke="#000000" points="888.5001,-321.9813 885,-311.9813 881.5001,-321.9813 888.5001,-321.9813"/>
</g>
<!-- block_17 -->
<g id="node18" class="node">
<title>block_17</title>
<ellipse fill="none" stroke="#000000" cx="1016" cy="-293.9001" rx="55.6542" ry="18"/>
<text text-anchor="middle" x="1016" y="-289.7001" font-family="Helvetica,sans-Serif" font-size="14.00" fill="#000000">block 16&#45;19</text>
</g>
<!-- section_6&#45;&gt;block_17 -->
<g id="edge17" class="edge">
<title>section_6&#45;&gt;block_17</title>
<path fill="none" stroke="#000000" stroke-dasharray="5,2" d="M911.5098,-359.0669C931.6169,-346.5268 959.4314,-329.1799 981.3081,-315.5362"/>
<polygon fill="#000000" stroke="#000000" points="983.3438,-318.3916 989.9767,-310.1299 979.6394,-312.452 983.3438,-318.3916"/>
</g>
<!-- handleline_9 -->
<g id="node10" class="node">
<title>handleline_9</title>
<ellipse fill="none" stroke="#000000" cx="457" cy="-187.1" rx="50.3585" ry="18"/>
<text text-anchor="middle" x="457" y="-182.9" font-family="Helvetica,sans-Serif" font-size="14.00" fill="#000000">handleline</text>
</g>
<!-- structure_8&#45;&gt;handleline_9 -->
<g id="edge9" class="edge">
<title>structure_8&#45;&gt;handleline_9</title>
<path fill="none" stroke="#000000" stroke-dasharray="5,2" d="M457,-275.7829C457,-259.2891 457,-234.6665 457,-215.5484"/>
<polygon fill="#000000" stroke="#000000" points="460.5001,-215.3061 457,-205.3061 453.5001,-215.3061 460.5001,-215.3061"/>
</g>
<!-- handle_10 -->
<g id="node11" class="node">
<title>handle_10</title>
<ellipse fill="none" stroke="#000000" cx="457" cy="-90" rx="36.827" ry="18"/>
<text text-anchor="middle" x="457" y="-85.8" font-family="Helvetica,sans-Serif" font-size="14.00" fill="#000000">handle</text>
</g>
<!-- handleline_9&#45;&gt;handle_10 -->
<g id="edge10" class="edge">
<title>handleline_9&#45;&gt;handle_10</title>
<path fill="none" stroke="#000000" stroke-dasharray="5,2" d="M457,-168.8363C457,-154.5957 457,-134.5669 457,-118.2612"/>
<polygon fill="#000000" stroke="#000000" points="460.5001,-118.1818 457,-108.1819 453.5001,-118.1819 460.5001,-118.1818"/>
</g>
<!-- leaf_11 -->
<g id="node12" class="node">
<title>leaf_11</title>
<polygon fill="none" stroke="#c0c0c0" points="493,-36 421,-36 421,0 493,0 493,-36"/>
<text text-anchor="middle" x="457" y="-14.5" font-family="Inconsolata" font-size="14.00" fill="#000000">WhyHello</text>
</g>
<!-- handle_10&#45;&gt;leaf_11 -->
<g id="edge11" class="edge">
<title>handle_10&#45;&gt;leaf_11</title>
<path fill="none" stroke="#000000" stroke-dasharray="5,2" d="M457,-71.8314C457,-64.131 457,-54.9743 457,-46.4166"/>
<polygon fill="#000000" stroke="#000000" points="460.5001,-46.4132 457,-36.4133 453.5001,-46.4133 460.5001,-46.4132"/>
</g>
<!-- leaf_14 -->
<g id="node15" class="node">
<title>leaf_14</title>
<polygon fill="none" stroke="#c0c0c0" points="753.5,-230.3004 576.5,-230.3004 576.5,-143.8997 753.5,-143.8997 753.5,-230.3004"/>
<text text-anchor="middle" x="665" y="-199.0001" font-family="Inconsolata" font-size="14.00" fill="#000000">local function aloha()</text>
<text text-anchor="middle" x="665" y="-183.6001" font-family="Inconsolata" font-size="14.00" fill="#000000"> &#160;io.write(&quot;Aloha Oe!&quot;)</text>
<text text-anchor="middle" x="665" y="-168.2" font-family="Inconsolata" font-size="14.00" fill="#000000">end</text>
</g>
<!-- codeblock_13&#45;&gt;leaf_14 -->
<g id="edge14" class="edge">
<title>codeblock_13&#45;&gt;leaf_14</title>
<path fill="none" stroke="#000000" stroke-dasharray="5,2" d="M665,-275.7829C665,-265.9215 665,-253.1543 665,-240.3951"/>
<polygon fill="#000000" stroke="#000000" points="668.5001,-240.2198 665,-230.2199 661.5001,-240.2199 668.5001,-240.2198"/>
</g>
<!-- leaf_18 -->
<g id="node19" class="node">
<title>leaf_18</title>
<polygon fill="none" stroke="#c0c0c0" points="1083.5,-215.0015 948.5,-215.0015 948.5,-159.1986 1083.5,-159.1986 1083.5,-215.0015"/>
<text text-anchor="middle" x="1016" y="-183.6001" font-family="Inconsolata" font-size="14.00" fill="#000000"> &#160;Feels good man.</text>
</g>
<!-- block_17&#45;&gt;leaf_18 -->
<g id="edge18" class="edge">
<title>block_17&#45;&gt;leaf_18</title>
<path fill="none" stroke="#000000" stroke-dasharray="5,2" d="M1016,-275.7829C1016,-261.9834 1016,-242.494 1016,-225.2987"/>
<polygon fill="#000000" stroke="#000000" points="1019.5001,-224.96 1016,-214.96 1012.5001,-224.9601 1019.5001,-224.96"/>
</g>
</g>
</svg>
