<?xml version="1.0" encoding="UTF-8" standalone="no"?>
<!DOCTYPE svg PUBLIC "-//W3C//DTD SVG 1.1//EN"
 "http://www.w3.org/Graphics/SVG/1.1/DTD/svg11.dtd">
<!-- Generated by graphviz version 2.40.1 (20161225.0304)
 -->
<!-- Title: hierarchy Pages: 1 -->
<svg width="680pt" height="462pt"
 viewBox="0.00 0.00 679.83 461.60" xmlns="http://www.w3.org/2000/svg" xmlns:xlink="http://www.w3.org/1999/xlink">
<g id="graph0" class="graph" transform="scale(1 1) rotate(0) translate(4 457.6001)">
<title>hierarchy</title>
<polygon fill="#ffffff" stroke="transparent" points="-4,4 -4,-457.6001 675.8268,-457.6001 675.8268,4 -4,4"/>
<!-- doc_0 -->
<g id="node1" class="node">
<title>doc_0</title>
<ellipse fill="none" stroke="#000000" cx="178" cy="-435.6001" rx="42.1216" ry="18"/>
<text text-anchor="middle" x="178" y="-431.4001" font-family="Helvetica,sans-Serif" font-size="14.00" fill="#000000">doc &#45; 14</text>
</g>
<!-- section_1 -->
<g id="node2" class="node">
<title>section_1</title>
<ellipse fill="none" stroke="#000000" cx="178" cy="-363.6001" rx="55.6456" ry="18"/>
<text text-anchor="middle" x="178" y="-359.4001" font-family="Helvetica,sans-Serif" font-size="14.00" fill="#000000">section: 1&#45;4</text>
</g>
<!-- doc_0&#45;&gt;section_1 -->
<g id="edge1" class="edge">
<title>doc_0&#45;&gt;section_1</title>
<path fill="none" stroke="#000000" stroke-dasharray="5,2" d="M178,-417.4315C178,-409.7311 178,-400.5745 178,-392.0168"/>
<polygon fill="#000000" stroke="#000000" points="181.5001,-392.0134 178,-382.0134 174.5001,-392.0134 181.5001,-392.0134"/>
</g>
<!-- header_2 -->
<g id="node3" class="node">
<title>header_2</title>
<ellipse fill="none" stroke="#000000" cx="27" cy="-291.6001" rx="27" ry="18"/>
<text text-anchor="middle" x="27" y="-287.4001" font-family="Helvetica,sans-Serif" font-size="14.00" fill="#000000">One</text>
</g>
<!-- section_1&#45;&gt;header_2 -->
<g id="edge2" class="edge">
<title>section_1&#45;&gt;header_2</title>
<path fill="none" stroke="#000000" stroke-dasharray="5,2" d="M145.6785,-348.682C122.5758,-337.9558 90.7876,-323.0685 63,-309.6001 61.2551,-308.7544 59.4654,-307.8805 57.6613,-306.9945"/>
<polygon fill="#000000" stroke="#000000" points="59.1741,-303.838 48.6593,-302.5378 56.0683,-310.1113 59.1741,-303.838"/>
</g>
<!-- block_3 -->
<g id="node4" class="node">
<title>block_3</title>
<ellipse fill="none" stroke="#000000" cx="118" cy="-291.6001" rx="45.9804" ry="18"/>
<text text-anchor="middle" x="118" y="-287.4001" font-family="Helvetica,sans-Serif" font-size="14.00" fill="#000000">block 1&#45;4</text>
</g>
<!-- section_1&#45;&gt;block_3 -->
<g id="edge3" class="edge">
<title>section_1&#45;&gt;block_3</title>
<path fill="none" stroke="#000000" stroke-dasharray="5,2" d="M163.4757,-346.1709C156.1058,-337.327 147.0199,-326.424 138.912,-316.6946"/>
<polygon fill="#000000" stroke="#000000" points="141.4812,-314.3104 132.3906,-308.8688 136.1037,-318.7917 141.4812,-314.3104"/>
</g>
<!-- section_4 -->
<g id="node5" class="node">
<title>section_4</title>
<ellipse fill="none" stroke="#000000" cx="238" cy="-291.6001" rx="55.6456" ry="18"/>
<text text-anchor="middle" x="238" y="-287.4001" font-family="Helvetica,sans-Serif" font-size="14.00" fill="#000000">section: 5&#45;6</text>
</g>
<!-- section_1&#45;&gt;section_4 -->
<g id="edge4" class="edge">
<title>section_1&#45;&gt;section_4</title>
<path fill="none" stroke="#000000" stroke-dasharray="5,2" d="M192.5243,-346.1709C199.8401,-337.3921 208.8466,-326.5843 216.909,-316.9094"/>
<polygon fill="#000000" stroke="#000000" points="219.6884,-319.0413 223.4015,-309.1184 214.3108,-314.5599 219.6884,-319.0413"/>
</g>
<!-- section_5 -->
<g id="node6" class="node">
<title>section_5</title>
<ellipse fill="none" stroke="#000000" cx="491" cy="-291.6001" rx="65.8187" ry="18"/>
<text text-anchor="middle" x="491" y="-287.4001" font-family="Helvetica,sans-Serif" font-size="14.00" fill="#000000">section: 12&#45;14</text>
</g>
<!-- section_1&#45;&gt;section_5 -->
<g id="edge5" class="edge">
<title>section_1&#45;&gt;section_5</title>
<path fill="none" stroke="#000000" stroke-dasharray="5,2" d="M223.5129,-353.1307C278.2003,-340.5508 370.1401,-319.4018 430.6933,-305.4726"/>
<polygon fill="#000000" stroke="#000000" points="431.5418,-308.8689 440.5027,-303.2161 429.9725,-302.0471 431.5418,-308.8689"/>
</g>
<!-- leaf_6 -->
<g id="node7" class="node">
<title>leaf_6</title>
<polygon fill="none" stroke="#c0c0c0" points="102,-237.8016 2,-237.8016 2,-181.9986 102,-181.9986 102,-237.8016"/>
<text text-anchor="middle" x="52" y="-206.4001" font-family="Inconsolata" font-size="14.00" fill="#000000">Line for One</text>
</g>
<!-- block_3&#45;&gt;leaf_6 -->
<g id="edge6" class="edge">
<title>block_3&#45;&gt;leaf_6</title>
<path fill="none" stroke="#000000" stroke-dasharray="5,2" d="M104.0031,-274.2737C97.2553,-265.9207 88.8994,-255.5771 80.8743,-245.6429"/>
<polygon fill="#000000" stroke="#000000" points="83.5528,-243.389 74.5462,-237.8095 78.1076,-247.7878 83.5528,-243.389"/>
</g>
<!-- header_7 -->
<g id="node8" class="node">
<title>header_7</title>
<ellipse fill="none" stroke="#000000" cx="147" cy="-209.9001" rx="27" ry="18"/>
<text text-anchor="middle" x="147" y="-205.7001" font-family="Helvetica,sans-Serif" font-size="14.00" fill="#000000">Two</text>
</g>
<!-- section_4&#45;&gt;header_7 -->
<g id="edge7" class="edge">
<title>section_4&#45;&gt;header_7</title>
<path fill="none" stroke="#000000" stroke-dasharray="5,2" d="M218.7012,-274.2737C204.7908,-261.7848 185.924,-244.8462 171.0352,-231.479"/>
<polygon fill="#000000" stroke="#000000" points="173.0089,-228.5474 163.2296,-224.4711 168.3325,-233.7561 173.0089,-228.5474"/>
</g>
<!-- block_8 -->
<g id="node9" class="node">
<title>block_8</title>
<ellipse fill="none" stroke="#000000" cx="238" cy="-209.9001" rx="45.9804" ry="18"/>
<text text-anchor="middle" x="238" y="-205.7001" font-family="Helvetica,sans-Serif" font-size="14.00" fill="#000000">block 5&#45;6</text>
</g>
<!-- section_4&#45;&gt;block_8 -->
<g id="edge8" class="edge">
<title>section_4&#45;&gt;block_8</title>
<path fill="none" stroke="#000000" stroke-dasharray="5,2" d="M238,-273.4682C238,-263.1024 238,-249.8748 238,-238.1731"/>
<polygon fill="#000000" stroke="#000000" points="241.5001,-237.9813 238,-227.9813 234.5001,-237.9813 241.5001,-237.9813"/>
</g>
<!-- section_9 -->
<g id="node10" class="node">
<title>section_9</title>
<ellipse fill="none" stroke="#000000" cx="362" cy="-209.9001" rx="60.1778" ry="18"/>
<text text-anchor="middle" x="362" y="-205.7001" font-family="Helvetica,sans-Serif" font-size="14.00" fill="#000000">section: 7&#45;11</text>
</g>
<!-- section_4&#45;&gt;section_9 -->
<g id="edge9" class="edge">
<title>section_4&#45;&gt;section_9</title>
<path fill="none" stroke="#000000" stroke-dasharray="5,2" d="M262.7952,-275.2633C281.5952,-262.8765 307.6374,-245.718 328.3224,-232.0893"/>
<polygon fill="#000000" stroke="#000000" points="330.3979,-234.9132 336.8227,-226.4887 326.5466,-229.0679 330.3979,-234.9132"/>
</g>
<!-- header_14 -->
<g id="node15" class="node">
<title>header_14</title>
<ellipse fill="none" stroke="#000000" cx="491" cy="-209.9001" rx="50.8172" ry="18"/>
<text text-anchor="middle" x="491" y="-205.7001" font-family="Helvetica,sans-Serif" font-size="14.00" fill="#000000">Two redux</text>
</g>
<!-- section_5&#45;&gt;header_14 -->
<g id="edge14" class="edge">
<title>section_5&#45;&gt;header_14</title>
<path fill="none" stroke="#000000" stroke-dasharray="5,2" d="M491,-273.4682C491,-263.1024 491,-249.8748 491,-238.1731"/>
<polygon fill="#000000" stroke="#000000" points="494.5001,-237.9813 491,-227.9813 487.5001,-237.9813 494.5001,-237.9813"/>
</g>
<!-- block_15 -->
<g id="node16" class="node">
<title>block_15</title>
<ellipse fill="none" stroke="#000000" cx="616" cy="-209.9001" rx="55.6542" ry="18"/>
<text text-anchor="middle" x="616" y="-205.7001" font-family="Helvetica,sans-Serif" font-size="14.00" fill="#000000">block 12&#45;14</text>
</g>
<!-- section_5&#45;&gt;block_15 -->
<g id="edge15" class="edge">
<title>section_5&#45;&gt;block_15</title>
<path fill="none" stroke="#000000" stroke-dasharray="5,2" d="M516.5973,-274.8698C535.7217,-262.37 562.0282,-245.1761 582.7749,-231.616"/>
<polygon fill="#000000" stroke="#000000" points="584.8331,-234.4521 591.2889,-226.0513 581.0033,-228.5927 584.8331,-234.4521"/>
</g>
<!-- leaf_10 -->
<g id="node11" class="node">
<title>leaf_10</title>
<polygon fill="none" stroke="#c0c0c0" points="265,-144.5001 211,-144.5001 211,-108.5001 265,-108.5001 265,-144.5001"/>
</g>
<!-- block_8&#45;&gt;leaf_10 -->
<g id="edge10" class="edge">
<title>block_8&#45;&gt;leaf_10</title>
<path fill="none" stroke="#000000" stroke-dasharray="5,2" d="M238,-191.8035C238,-180.9839 238,-167.0033 238,-154.7555"/>
<polygon fill="#000000" stroke="#000000" points="241.5001,-154.5613 238,-144.5613 234.5001,-154.5614 241.5001,-154.5613"/>
</g>
<!-- header_11 -->
<g id="node12" class="node">
<title>header_11</title>
<ellipse fill="none" stroke="#000000" cx="336" cy="-126.5001" rx="27" ry="18"/>
<text text-anchor="middle" x="336" y="-122.3001" font-family="Helvetica,sans-Serif" font-size="14.00" fill="#000000">Five</text>
</g>
<!-- section_9&#45;&gt;header_11 -->
<g id="edge11" class="edge">
<title>section_9&#45;&gt;header_11</title>
<path fill="none" stroke="#000000" stroke-dasharray="5,2" d="M356.3584,-191.8035C352.928,-180.7998 348.4783,-166.5265 344.6142,-154.1317"/>
<polygon fill="#000000" stroke="#000000" points="347.859,-152.7799 341.5413,-144.2748 341.1762,-154.8634 347.859,-152.7799"/>
</g>
<!-- block_12 -->
<g id="node13" class="node">
<title>block_12</title>
<ellipse fill="none" stroke="#000000" cx="431" cy="-126.5001" rx="50.0142" ry="18"/>
<text text-anchor="middle" x="431" y="-122.3001" font-family="Helvetica,sans-Serif" font-size="14.00" fill="#000000">block 7&#45;11</text>
</g>
<!-- section_9&#45;&gt;block_12 -->
<g id="edge12" class="edge">
<title>section_9&#45;&gt;block_12</title>
<path fill="none" stroke="#000000" stroke-dasharray="5,2" d="M376.6331,-192.2131C386.3956,-180.4132 399.3776,-164.7219 410.2075,-151.6318"/>
<polygon fill="#000000" stroke="#000000" points="412.9467,-153.8116 416.6246,-143.8756 407.5533,-149.3494 412.9467,-153.8116"/>
</g>
<!-- leaf_13 -->
<g id="node14" class="node">
<title>leaf_13</title>
<polygon fill="none" stroke="#c0c0c0" points="498.5,-70.7004 363.5,-70.7004 363.5,-.0997 498.5,-.0997 498.5,-70.7004"/>
<text text-anchor="middle" x="431" y="-39.6001" font-family="Inconsolata" font-size="14.00" fill="#000000">A line for five</text>
<text text-anchor="middle" x="431" y="-24.2" font-family="Inconsolata" font-size="14.00" fill="#000000">Another five line</text>
</g>
<!-- block_12&#45;&gt;leaf_13 -->
<g id="edge13" class="edge">
<title>block_12&#45;&gt;leaf_13</title>
<path fill="none" stroke="#000000" stroke-dasharray="5,2" d="M431,-108.0646C431,-100.1156 431,-90.4344 431,-80.7644"/>
<polygon fill="#000000" stroke="#000000" points="434.5001,-80.7643 431,-70.7643 427.5001,-80.7643 434.5001,-80.7643"/>
</g>
<!-- leaf_16 -->
<g id="node17" class="node">
<title>leaf_16</title>
<polygon fill="none" stroke="#c0c0c0" points="659,-146.4022 573,-146.4022 573,-106.598 659,-106.598 659,-146.4022"/>
<text text-anchor="middle" x="616" y="-115.0001" font-family="Inconsolata" font-size="14.00" fill="#000000">Final line</text>
</g>
<!-- block_15&#45;&gt;leaf_16 -->
<g id="edge16" class="edge">
<title>block_15&#45;&gt;leaf_16</title>
<path fill="none" stroke="#000000" stroke-dasharray="5,2" d="M616,-191.8035C616,-181.5334 616,-168.4151 616,-156.6342"/>
<polygon fill="#000000" stroke="#000000" points="619.5001,-156.3109 616,-146.311 612.5001,-156.311 619.5001,-156.3109"/>
</g>
</g>
</svg>
