<?xml version="1.0" encoding="UTF-8" standalone="no"?>
<!DOCTYPE svg PUBLIC "-//W3C//DTD SVG 1.1//EN"
 "http://www.w3.org/Graphics/SVG/1.1/DTD/svg11.dtd">
<!-- Generated by graphviz version 2.40.1 (20161225.0304)
 -->
<!-- Title: hierarchy Pages: 1 -->
<svg width="690pt" height="462pt"
 viewBox="0.00 0.00 689.84 461.60" xmlns="http://www.w3.org/2000/svg" xmlns:xlink="http://www.w3.org/1999/xlink">
<g id="graph0" class="graph" transform="scale(1 1) rotate(0) translate(4 457.6001)">
<title>hierarchy</title>
<polygon fill="#ffffff" stroke="transparent" points="-4,4 -4,-457.6001 685.838,-457.6001 685.838,4 -4,4"/>
<!-- doc_0 -->
<g id="node1" class="node">
<title>doc_0</title>
<ellipse fill="none" stroke="#000000" cx="184" cy="-435.6001" rx="42.1216" ry="18"/>
<text text-anchor="middle" x="184" y="-431.4001" font-family="Helvetica,sans-Serif" font-size="14.00" fill="#000000">doc &#45; 14</text>
</g>
<!-- section_1 -->
<g id="node2" class="node">
<title>section_1</title>
<ellipse fill="none" stroke="#000000" cx="184" cy="-363.6001" rx="55.6456" ry="18"/>
<text text-anchor="middle" x="184" y="-359.4001" font-family="Helvetica,sans-Serif" font-size="14.00" fill="#000000">section: 1&#45;4</text>
</g>
<!-- doc_0&#45;&gt;section_1 -->
<g id="edge1" class="edge">
<title>doc_0&#45;&gt;section_1</title>
<path fill="none" stroke="#000000" stroke-dasharray="5,2" d="M184,-417.4315C184,-409.7311 184,-400.5745 184,-392.0168"/>
<polygon fill="#000000" stroke="#000000" points="187.5001,-392.0134 184,-382.0134 180.5001,-392.0134 187.5001,-392.0134"/>
</g>
<!-- header_2 -->
<g id="node3" class="node">
<title>header_2</title>
<ellipse fill="none" stroke="#000000" cx="27" cy="-291.6001" rx="27" ry="18"/>
<text text-anchor="middle" x="27" y="-287.4001" font-family="Helvetica,sans-Serif" font-size="14.00" fill="#000000">One</text>
</g>
<!-- section_1&#45;&gt;header_2 -->
<g id="edge2" class="edge">
<title>section_1&#45;&gt;header_2</title>
<path fill="none" stroke="#000000" stroke-dasharray="5,2" d="M150.4368,-349.0934C126.0511,-338.4389 92.3226,-323.4657 63,-309.6001 61.247,-308.7712 59.4511,-307.9105 57.6421,-307.0346"/>
<polygon fill="#000000" stroke="#000000" points="59.1455,-303.8737 48.6267,-302.6059 56.059,-310.1565 59.1455,-303.8737"/>
</g>
<!-- block_3 -->
<g id="node4" class="node">
<title>block_3</title>
<ellipse fill="none" stroke="#000000" cx="122" cy="-291.6001" rx="49.8395" ry="18"/>
<text text-anchor="middle" x="122" y="-287.4001" font-family="Helvetica,sans-Serif" font-size="14.00" fill="#000000">block 1&#45;nil</text>
</g>
<!-- section_1&#45;&gt;block_3 -->
<g id="edge3" class="edge">
<title>section_1&#45;&gt;block_3</title>
<path fill="none" stroke="#000000" stroke-dasharray="5,2" d="M168.9915,-346.1709C161.3759,-337.327 151.9873,-326.424 143.6091,-316.6946"/>
<polygon fill="#000000" stroke="#000000" points="146.0477,-314.1627 136.8703,-308.8688 140.7433,-318.7304 146.0477,-314.1627"/>
</g>
<!-- section_4 -->
<g id="node5" class="node">
<title>section_4</title>
<ellipse fill="none" stroke="#000000" cx="246" cy="-291.6001" rx="55.6456" ry="18"/>
<text text-anchor="middle" x="246" y="-287.4001" font-family="Helvetica,sans-Serif" font-size="14.00" fill="#000000">section: 5&#45;6</text>
</g>
<!-- section_1&#45;&gt;section_4 -->
<g id="edge4" class="edge">
<title>section_1&#45;&gt;section_4</title>
<path fill="none" stroke="#000000" stroke-dasharray="5,2" d="M199.0085,-346.1709C206.5681,-337.3921 215.8748,-326.5843 224.2059,-316.9094"/>
<polygon fill="#000000" stroke="#000000" points="227.0418,-318.9799 230.9149,-309.1184 221.7374,-314.4122 227.0418,-318.9799"/>
</g>
<!-- section_5 -->
<g id="node6" class="node">
<title>section_5</title>
<ellipse fill="none" stroke="#000000" cx="503" cy="-291.6001" rx="65.8187" ry="18"/>
<text text-anchor="middle" x="503" y="-287.4001" font-family="Helvetica,sans-Serif" font-size="14.00" fill="#000000">section: 12&#45;14</text>
</g>
<!-- section_1&#45;&gt;section_5 -->
<g id="edge5" class="edge">
<title>section_1&#45;&gt;section_5</title>
<path fill="none" stroke="#000000" stroke-dasharray="5,2" d="M230.0447,-353.2076C285.9418,-340.5913 380.3835,-319.2753 442.2129,-305.3201"/>
<polygon fill="#000000" stroke="#000000" points="443.2395,-308.6765 452.2235,-303.0607 441.6983,-301.8483 443.2395,-308.6765"/>
</g>
<!-- leaf_6 -->
<g id="node7" class="node">
<title>leaf_6</title>
<polygon fill="none" stroke="#c0c0c0" points="106,-237.8016 6,-237.8016 6,-181.9986 106,-181.9986 106,-237.8016"/>
<text text-anchor="middle" x="56" y="-206.4001" font-family="Inconsolata" font-size="14.00" fill="#000000">Line for One</text>
</g>
<!-- block_3&#45;&gt;leaf_6 -->
<g id="edge6" class="edge">
<title>block_3&#45;&gt;leaf_6</title>
<path fill="none" stroke="#000000" stroke-dasharray="5,2" d="M108.0031,-274.2737C101.2553,-265.9207 92.8994,-255.5771 84.8743,-245.6429"/>
<polygon fill="#000000" stroke="#000000" points="87.5528,-243.389 78.5462,-237.8095 82.1076,-247.7878 87.5528,-243.389"/>
</g>
<!-- header_7 -->
<g id="node8" class="node">
<title>header_7</title>
<ellipse fill="none" stroke="#000000" cx="151" cy="-209.9001" rx="27" ry="18"/>
<text text-anchor="middle" x="151" y="-205.7001" font-family="Helvetica,sans-Serif" font-size="14.00" fill="#000000">Two</text>
</g>
<!-- section_4&#45;&gt;header_7 -->
<g id="edge7" class="edge">
<title>section_4&#45;&gt;header_7</title>
<path fill="none" stroke="#000000" stroke-dasharray="5,2" d="M226.3159,-274.6718C211.5987,-262.015 191.3808,-244.6276 175.5978,-231.0543"/>
<polygon fill="#000000" stroke="#000000" points="177.6652,-228.2159 167.8012,-224.3492 173.1009,-233.5232 177.6652,-228.2159"/>
</g>
<!-- block_8 -->
<g id="node9" class="node">
<title>block_8</title>
<ellipse fill="none" stroke="#000000" cx="246" cy="-209.9001" rx="49.8395" ry="18"/>
<text text-anchor="middle" x="246" y="-205.7001" font-family="Helvetica,sans-Serif" font-size="14.00" fill="#000000">block 5&#45;nil</text>
</g>
<!-- section_4&#45;&gt;block_8 -->
<g id="edge8" class="edge">
<title>section_4&#45;&gt;block_8</title>
<path fill="none" stroke="#000000" stroke-dasharray="5,2" d="M246,-273.4682C246,-263.1024 246,-249.8748 246,-238.1731"/>
<polygon fill="#000000" stroke="#000000" points="249.5001,-237.9813 246,-227.9813 242.5001,-237.9813 249.5001,-237.9813"/>
</g>
<!-- section_9 -->
<g id="node10" class="node">
<title>section_9</title>
<ellipse fill="none" stroke="#000000" cx="374" cy="-209.9001" rx="60.1778" ry="18"/>
<text text-anchor="middle" x="374" y="-205.7001" font-family="Helvetica,sans-Serif" font-size="14.00" fill="#000000">section: 7&#45;11</text>
</g>
<!-- section_4&#45;&gt;section_9 -->
<g id="edge9" class="edge">
<title>section_4&#45;&gt;section_9</title>
<path fill="none" stroke="#000000" stroke-dasharray="5,2" d="M271.2887,-275.4588C290.8834,-262.9519 318.233,-245.4952 339.7838,-231.7397"/>
<polygon fill="#000000" stroke="#000000" points="341.7795,-234.6181 348.3257,-226.2875 338.0133,-228.7176 341.7795,-234.6181"/>
</g>
<!-- header_14 -->
<g id="node15" class="node">
<title>header_14</title>
<ellipse fill="none" stroke="#000000" cx="503" cy="-209.9001" rx="50.8172" ry="18"/>
<text text-anchor="middle" x="503" y="-205.7001" font-family="Helvetica,sans-Serif" font-size="14.00" fill="#000000">Two redux</text>
</g>
<!-- section_5&#45;&gt;header_14 -->
<g id="edge14" class="edge">
<title>section_5&#45;&gt;header_14</title>
<path fill="none" stroke="#000000" stroke-dasharray="5,2" d="M503,-273.4682C503,-263.1024 503,-249.8748 503,-238.1731"/>
<polygon fill="#000000" stroke="#000000" points="506.5001,-237.9813 503,-227.9813 499.5001,-237.9813 506.5001,-237.9813"/>
</g>
<!-- block_15 -->
<g id="node16" class="node">
<title>block_15</title>
<ellipse fill="none" stroke="#000000" cx="627" cy="-209.9001" rx="54.6765" ry="18"/>
<text text-anchor="middle" x="627" y="-205.7001" font-family="Helvetica,sans-Serif" font-size="14.00" fill="#000000">block 12&#45;nil</text>
</g>
<!-- section_5&#45;&gt;block_15 -->
<g id="edge15" class="edge">
<title>section_5&#45;&gt;block_15</title>
<path fill="none" stroke="#000000" stroke-dasharray="5,2" d="M528.3925,-274.8698C547.3639,-262.37 573.46,-245.1761 594.0407,-231.616"/>
<polygon fill="#000000" stroke="#000000" points="596.0618,-234.4759 602.4865,-226.0513 592.2104,-228.6306 596.0618,-234.4759"/>
</g>
<!-- leaf_10 -->
<g id="node11" class="node">
<title>leaf_10</title>
<polygon fill="none" stroke="#c0c0c0" points="273,-144.5001 219,-144.5001 219,-108.5001 273,-108.5001 273,-144.5001"/>
</g>
<!-- block_8&#45;&gt;leaf_10 -->
<g id="edge10" class="edge">
<title>block_8&#45;&gt;leaf_10</title>
<path fill="none" stroke="#000000" stroke-dasharray="5,2" d="M246,-191.8035C246,-180.9839 246,-167.0033 246,-154.7555"/>
<polygon fill="#000000" stroke="#000000" points="249.5001,-154.5613 246,-144.5613 242.5001,-154.5614 249.5001,-154.5613"/>
</g>
<!-- header_11 -->
<g id="node12" class="node">
<title>header_11</title>
<ellipse fill="none" stroke="#000000" cx="346" cy="-126.5001" rx="27" ry="18"/>
<text text-anchor="middle" x="346" y="-122.3001" font-family="Helvetica,sans-Serif" font-size="14.00" fill="#000000">Five</text>
</g>
<!-- section_9&#45;&gt;header_11 -->
<g id="edge11" class="edge">
<title>section_9&#45;&gt;header_11</title>
<path fill="none" stroke="#000000" stroke-dasharray="5,2" d="M367.9244,-191.8035C364.1932,-180.6898 359.3422,-166.2407 355.1521,-153.7604"/>
<polygon fill="#000000" stroke="#000000" points="358.4683,-152.6408 351.9675,-144.2748 351.8323,-154.8688 358.4683,-152.6408"/>
</g>
<!-- block_12 -->
<g id="node13" class="node">
<title>block_12</title>
<ellipse fill="none" stroke="#000000" cx="441" cy="-126.5001" rx="49.8395" ry="18"/>
<text text-anchor="middle" x="441" y="-122.3001" font-family="Helvetica,sans-Serif" font-size="14.00" fill="#000000">block 7&#45;nil</text>
</g>
<!-- section_9&#45;&gt;block_12 -->
<g id="edge12" class="edge">
<title>section_9&#45;&gt;block_12</title>
<path fill="none" stroke="#000000" stroke-dasharray="5,2" d="M388.209,-192.2131C397.5991,-180.5246 410.0566,-165.0177 420.512,-152.003"/>
<polygon fill="#000000" stroke="#000000" points="423.5069,-153.8636 427.0413,-143.8756 418.0497,-149.4795 423.5069,-153.8636"/>
</g>
<!-- leaf_13 -->
<g id="node14" class="node">
<title>leaf_13</title>
<polygon fill="none" stroke="#c0c0c0" points="508.5,-70.7004 373.5,-70.7004 373.5,-.0997 508.5,-.0997 508.5,-70.7004"/>
<text text-anchor="middle" x="441" y="-39.6001" font-family="Inconsolata" font-size="14.00" fill="#000000">A line for five</text>
<text text-anchor="middle" x="441" y="-24.2" font-family="Inconsolata" font-size="14.00" fill="#000000">Another five line</text>
</g>
<!-- block_12&#45;&gt;leaf_13 -->
<g id="edge13" class="edge">
<title>block_12&#45;&gt;leaf_13</title>
<path fill="none" stroke="#000000" stroke-dasharray="5,2" d="M441,-108.0646C441,-100.1156 441,-90.4344 441,-80.7644"/>
<polygon fill="#000000" stroke="#000000" points="444.5001,-80.7643 441,-70.7643 437.5001,-80.7643 444.5001,-80.7643"/>
</g>
<!-- leaf_16 -->
<g id="node17" class="node">
<title>leaf_16</title>
<polygon fill="none" stroke="#c0c0c0" points="670,-146.4022 584,-146.4022 584,-106.598 670,-106.598 670,-146.4022"/>
<text text-anchor="middle" x="627" y="-115.0001" font-family="Inconsolata" font-size="14.00" fill="#000000">Final line</text>
</g>
<!-- block_15&#45;&gt;leaf_16 -->
<g id="edge16" class="edge">
<title>block_15&#45;&gt;leaf_16</title>
<path fill="none" stroke="#000000" stroke-dasharray="5,2" d="M627,-191.8035C627,-181.5334 627,-168.4151 627,-156.6342"/>
<polygon fill="#000000" stroke="#000000" points="630.5001,-156.3109 627,-146.311 623.5001,-156.311 630.5001,-156.3109"/>
</g>
</g>
</svg>
