<?xml version="1.0" encoding="UTF-8" standalone="no"?>
<!DOCTYPE svg PUBLIC "-//W3C//DTD SVG 1.1//EN"
 "http://www.w3.org/Graphics/SVG/1.1/DTD/svg11.dtd">
<!-- Generated by graphviz version 2.40.1 (20161225.0304)
 -->
<!-- Title: hierarchy Pages: 1 -->
<svg width="736pt" height="462pt"
 viewBox="0.00 0.00 735.94 461.60" xmlns="http://www.w3.org/2000/svg" xmlns:xlink="http://www.w3.org/1999/xlink">
<g id="graph0" class="graph" transform="scale(1 1) rotate(0) translate(4 457.6001)">
<title>hierarchy</title>
<polygon fill="#ffffff" stroke="transparent" points="-4,4 -4,-457.6001 731.9383,-457.6001 731.9383,4 -4,4"/>
<!-- doc_0 -->
<g id="node1" class="node">
<title>doc_0</title>
<ellipse fill="none" stroke="#000000" cx="208.1115" cy="-435.6001" rx="42.1216" ry="18"/>
<text text-anchor="middle" x="208.1115" y="-431.4001" font-family="Helvetica,sans-Serif" font-size="14.00" fill="#000000">doc &#45; 14</text>
</g>
<!-- section_1 -->
<g id="node2" class="node">
<title>section_1</title>
<ellipse fill="none" stroke="#000000" cx="208.1115" cy="-363.6001" rx="60.1778" ry="18"/>
<text text-anchor="middle" x="208.1115" y="-359.4001" font-family="Helvetica,sans-Serif" font-size="14.00" fill="#000000">section: 1&#45;11</text>
</g>
<!-- doc_0&#45;&gt;section_1 -->
<g id="edge1" class="edge">
<title>doc_0&#45;&gt;section_1</title>
<path fill="none" stroke="#000000" stroke-dasharray="5,2" d="M208.1115,-417.4315C208.1115,-409.7311 208.1115,-400.5745 208.1115,-392.0168"/>
<polygon fill="#000000" stroke="#000000" points="211.6116,-392.0134 208.1115,-382.0134 204.6116,-392.0134 211.6116,-392.0134"/>
</g>
<!-- header_2 -->
<g id="node3" class="node">
<title>header_2</title>
<ellipse fill="none" stroke="#000000" cx="39.1115" cy="-291.6001" rx="39.2233" ry="18"/>
<text text-anchor="middle" x="39.1115" y="-287.4001" font-family="Helvetica,sans-Serif" font-size="14.00" fill="#000000">1 : One</text>
</g>
<!-- section_1&#45;&gt;header_2 -->
<g id="edge2" class="edge">
<title>section_1&#45;&gt;header_2</title>
<path fill="none" stroke="#000000" stroke-dasharray="5,2" d="M173.504,-348.8561C145.567,-336.9539 106.2942,-320.2223 77.415,-307.9188"/>
<polygon fill="#000000" stroke="#000000" points="78.6228,-304.629 68.0511,-303.9294 75.8791,-311.0689 78.6228,-304.629"/>
</g>
<!-- block_3 -->
<g id="node4" class="node">
<title>block_3</title>
<ellipse fill="none" stroke="#000000" cx="146.1115" cy="-291.6001" rx="50.0142" ry="18"/>
<text text-anchor="middle" x="146.1115" y="-287.4001" font-family="Helvetica,sans-Serif" font-size="14.00" fill="#000000">block 1&#45;11</text>
</g>
<!-- section_1&#45;&gt;block_3 -->
<g id="edge3" class="edge">
<title>section_1&#45;&gt;block_3</title>
<path fill="none" stroke="#000000" stroke-dasharray="5,2" d="M192.7856,-345.8024C185.2216,-337.0183 175.9679,-326.2721 167.7008,-316.6715"/>
<polygon fill="#000000" stroke="#000000" points="170.2246,-314.2386 161.0471,-308.9447 164.9202,-318.8063 170.2246,-314.2386"/>
</g>
<!-- section_4 -->
<g id="node5" class="node">
<title>section_4</title>
<ellipse fill="none" stroke="#000000" cx="270.1115" cy="-291.6001" rx="55.6456" ry="18"/>
<text text-anchor="middle" x="270.1115" y="-287.4001" font-family="Helvetica,sans-Serif" font-size="14.00" fill="#000000">section: 5&#45;6</text>
</g>
<!-- section_1&#45;&gt;section_4 -->
<g id="edge4" class="edge">
<title>section_1&#45;&gt;section_4</title>
<path fill="none" stroke="#000000" stroke-dasharray="5,2" d="M223.4373,-345.8024C231.0014,-337.0183 240.2551,-326.2721 248.5222,-316.6715"/>
<polygon fill="#000000" stroke="#000000" points="251.3028,-318.8063 255.1759,-308.9447 245.9984,-314.2386 251.3028,-318.8063"/>
</g>
<!-- section_5 -->
<g id="node6" class="node">
<title>section_5</title>
<ellipse fill="none" stroke="#000000" cx="535.1115" cy="-291.6001" rx="65.8187" ry="18"/>
<text text-anchor="middle" x="535.1115" y="-287.4001" font-family="Helvetica,sans-Serif" font-size="14.00" fill="#000000">section: 12&#45;14</text>
</g>
<!-- section_1&#45;&gt;section_5 -->
<g id="edge5" class="edge">
<title>section_1&#45;&gt;section_5</title>
<path fill="none" stroke="#000000" stroke-dasharray="5,2" d="M256.7136,-352.8987C314.5548,-340.1631 411.1888,-318.8858 474.0295,-305.0494"/>
<polygon fill="#000000" stroke="#000000" points="474.8003,-308.4636 483.8138,-302.895 473.295,-301.6273 474.8003,-308.4636"/>
</g>
<!-- leaf_6 -->
<g id="node7" class="node">
<title>leaf_6</title>
<polygon fill="none" stroke="#c0c0c0" points="112.1115,-237.8016 12.1115,-237.8016 12.1115,-181.9986 112.1115,-181.9986 112.1115,-237.8016"/>
<text text-anchor="middle" x="62.1115" y="-206.4001" font-family="Inconsolata" font-size="14.00" fill="#000000">Line for One</text>
</g>
<!-- block_3&#45;&gt;leaf_6 -->
<g id="edge6" class="edge">
<title>block_3&#45;&gt;leaf_6</title>
<path fill="none" stroke="#000000" stroke-dasharray="5,2" d="M128.7066,-274.6718C119.8045,-266.0134 108.6261,-255.1412 97.9842,-244.7906"/>
<polygon fill="#000000" stroke="#000000" points="100.3458,-242.205 90.7369,-237.7417 95.4652,-247.223 100.3458,-242.205"/>
</g>
<!-- header_7 -->
<g id="node8" class="node">
<title>header_7</title>
<ellipse fill="none" stroke="#000000" cx="168.1115" cy="-209.9001" rx="38.4276" ry="18"/>
<text text-anchor="middle" x="168.1115" y="-205.7001" font-family="Helvetica,sans-Serif" font-size="14.00" fill="#000000">2 : Two</text>
</g>
<!-- section_4&#45;&gt;header_7 -->
<g id="edge7" class="edge">
<title>section_4&#45;&gt;header_7</title>
<path fill="none" stroke="#000000" stroke-dasharray="5,2" d="M248.977,-274.6718C233.5319,-262.3006 212.4442,-245.4098 195.6759,-231.9787"/>
<polygon fill="#000000" stroke="#000000" points="197.8278,-229.218 187.8348,-225.6981 193.4517,-234.6815 197.8278,-229.218"/>
</g>
<!-- block_8 -->
<g id="node9" class="node">
<title>block_8</title>
<ellipse fill="none" stroke="#000000" cx="270.1115" cy="-209.9001" rx="45.9804" ry="18"/>
<text text-anchor="middle" x="270.1115" y="-205.7001" font-family="Helvetica,sans-Serif" font-size="14.00" fill="#000000">block 5&#45;6</text>
</g>
<!-- section_4&#45;&gt;block_8 -->
<g id="edge8" class="edge">
<title>section_4&#45;&gt;block_8</title>
<path fill="none" stroke="#000000" stroke-dasharray="5,2" d="M270.1115,-273.4682C270.1115,-263.1024 270.1115,-249.8748 270.1115,-238.1731"/>
<polygon fill="#000000" stroke="#000000" points="273.6116,-237.9813 270.1115,-227.9813 266.6116,-237.9813 273.6116,-237.9813"/>
</g>
<!-- section_9 -->
<g id="node10" class="node">
<title>section_9</title>
<ellipse fill="none" stroke="#000000" cx="394.1115" cy="-209.9001" rx="60.1778" ry="18"/>
<text text-anchor="middle" x="394.1115" y="-205.7001" font-family="Helvetica,sans-Serif" font-size="14.00" fill="#000000">section: 7&#45;11</text>
</g>
<!-- section_4&#45;&gt;section_9 -->
<g id="edge9" class="edge">
<title>section_4&#45;&gt;section_9</title>
<path fill="none" stroke="#000000" stroke-dasharray="5,2" d="M294.9067,-275.2633C313.7067,-262.8765 339.7489,-245.718 360.4339,-232.0893"/>
<polygon fill="#000000" stroke="#000000" points="362.5094,-234.9132 368.9342,-226.4887 358.6581,-229.0679 362.5094,-234.9132"/>
</g>
<!-- header_14 -->
<g id="node15" class="node">
<title>header_14</title>
<ellipse fill="none" stroke="#000000" cx="535.1115" cy="-209.9001" rx="63.0848" ry="18"/>
<text text-anchor="middle" x="535.1115" y="-205.7001" font-family="Helvetica,sans-Serif" font-size="14.00" fill="#000000">2 : Two redux</text>
</g>
<!-- section_5&#45;&gt;header_14 -->
<g id="edge14" class="edge">
<title>section_5&#45;&gt;header_14</title>
<path fill="none" stroke="#000000" stroke-dasharray="5,2" d="M535.1115,-273.4682C535.1115,-263.1024 535.1115,-249.8748 535.1115,-238.1731"/>
<polygon fill="#000000" stroke="#000000" points="538.6116,-237.9813 535.1115,-227.9813 531.6116,-237.9813 538.6116,-237.9813"/>
</g>
<!-- block_15 -->
<g id="node16" class="node">
<title>block_15</title>
<ellipse fill="none" stroke="#000000" cx="672.1115" cy="-209.9001" rx="55.6542" ry="18"/>
<text text-anchor="middle" x="672.1115" y="-205.7001" font-family="Helvetica,sans-Serif" font-size="14.00" fill="#000000">block 12&#45;14</text>
</g>
<!-- section_5&#45;&gt;block_15 -->
<g id="edge15" class="edge">
<title>section_5&#45;&gt;block_15</title>
<path fill="none" stroke="#000000" stroke-dasharray="5,2" d="M562.8355,-275.0669C584.095,-262.3888 613.5934,-244.7974 636.5841,-231.0869"/>
<polygon fill="#000000" stroke="#000000" points="638.565,-233.9807 645.3611,-225.8527 634.9797,-227.9686 638.565,-233.9807"/>
</g>
<!-- leaf_10 -->
<g id="node11" class="node">
<title>leaf_10</title>
<polygon fill="none" stroke="#c0c0c0" points="297.1115,-144.5001 243.1115,-144.5001 243.1115,-108.5001 297.1115,-108.5001 297.1115,-144.5001"/>
</g>
<!-- block_8&#45;&gt;leaf_10 -->
<g id="edge10" class="edge">
<title>block_8&#45;&gt;leaf_10</title>
<path fill="none" stroke="#000000" stroke-dasharray="5,2" d="M270.1115,-191.8035C270.1115,-180.9839 270.1115,-167.0033 270.1115,-154.7555"/>
<polygon fill="#000000" stroke="#000000" points="273.6116,-154.5613 270.1115,-144.5613 266.6116,-154.5614 273.6116,-154.5613"/>
</g>
<!-- header_11 -->
<g id="node12" class="node">
<title>header_11</title>
<ellipse fill="none" stroke="#000000" cx="374.1115" cy="-126.5001" rx="39.206" ry="18"/>
<text text-anchor="middle" x="374.1115" y="-122.3001" font-family="Helvetica,sans-Serif" font-size="14.00" fill="#000000">5 : Five</text>
</g>
<!-- section_9&#45;&gt;header_11 -->
<g id="edge11" class="edge">
<title>section_9&#45;&gt;header_11</title>
<path fill="none" stroke="#000000" stroke-dasharray="5,2" d="M389.7718,-191.8035C387.151,-180.8747 383.7567,-166.7206 380.7985,-154.3849"/>
<polygon fill="#000000" stroke="#000000" points="384.1783,-153.4694 378.4427,-144.5613 377.3713,-155.1018 384.1783,-153.4694"/>
</g>
<!-- block_12 -->
<g id="node13" class="node">
<title>block_12</title>
<ellipse fill="none" stroke="#000000" cx="481.1115" cy="-126.5001" rx="50.0142" ry="18"/>
<text text-anchor="middle" x="481.1115" y="-122.3001" font-family="Helvetica,sans-Serif" font-size="14.00" fill="#000000">block 7&#45;11</text>
</g>
<!-- section_9&#45;&gt;block_12 -->
<g id="edge12" class="edge">
<title>section_9&#45;&gt;block_12</title>
<path fill="none" stroke="#000000" stroke-dasharray="5,2" d="M412.1379,-192.6196C424.8203,-180.462 441.9629,-164.0288 455.9849,-150.5869"/>
<polygon fill="#000000" stroke="#000000" points="458.609,-152.9199 463.4058,-143.4731 453.7649,-147.8667 458.609,-152.9199"/>
</g>
<!-- leaf_13 -->
<g id="node14" class="node">
<title>leaf_13</title>
<polygon fill="none" stroke="#c0c0c0" points="548.6115,-70.7004 413.6115,-70.7004 413.6115,-.0997 548.6115,-.0997 548.6115,-70.7004"/>
<text text-anchor="middle" x="481.1115" y="-39.6001" font-family="Inconsolata" font-size="14.00" fill="#000000">A line for five</text>
<text text-anchor="middle" x="481.1115" y="-24.2" font-family="Inconsolata" font-size="14.00" fill="#000000">Another five line</text>
</g>
<!-- block_12&#45;&gt;leaf_13 -->
<g id="edge13" class="edge">
<title>block_12&#45;&gt;leaf_13</title>
<path fill="none" stroke="#000000" stroke-dasharray="5,2" d="M481.1115,-108.0646C481.1115,-100.1156 481.1115,-90.4344 481.1115,-80.7644"/>
<polygon fill="#000000" stroke="#000000" points="484.6116,-80.7643 481.1115,-70.7643 477.6116,-80.7643 484.6116,-80.7643"/>
</g>
<!-- leaf_16 -->
<g id="node17" class="node">
<title>leaf_16</title>
<polygon fill="none" stroke="#c0c0c0" points="715.1115,-146.4022 629.1115,-146.4022 629.1115,-106.598 715.1115,-106.598 715.1115,-146.4022"/>
<text text-anchor="middle" x="672.1115" y="-115.0001" font-family="Inconsolata" font-size="14.00" fill="#000000">Final line</text>
</g>
<!-- block_15&#45;&gt;leaf_16 -->
<g id="edge16" class="edge">
<title>block_15&#45;&gt;leaf_16</title>
<path fill="none" stroke="#000000" stroke-dasharray="5,2" d="M672.1115,-191.8035C672.1115,-181.5334 672.1115,-168.4151 672.1115,-156.6342"/>
<polygon fill="#000000" stroke="#000000" points="675.6116,-156.3109 672.1115,-146.311 668.6116,-156.311 675.6116,-156.3109"/>
</g>
</g>
</svg>
