<?xml version="1.0" encoding="UTF-8" standalone="no"?>
<!DOCTYPE svg PUBLIC "-//W3C//DTD SVG 1.1//EN"
 "http://www.w3.org/Graphics/SVG/1.1/DTD/svg11.dtd">
<!-- Generated by graphviz version 2.40.1 (20161225.0304)
 -->
<!-- Title: hierarchy Pages: 1 -->
<svg width="1946pt" height="814pt"
 viewBox="0.00 0.00 1945.50 813.80" xmlns="http://www.w3.org/2000/svg" xmlns:xlink="http://www.w3.org/1999/xlink">
<g id="graph0" class="graph" transform="scale(1 1) rotate(0) translate(4 809.8005)">
<title>hierarchy</title>
<polygon fill="#ffffff" stroke="transparent" points="-4,4 -4,-809.8005 1941.5,-809.8005 1941.5,4 -4,4"/>
<!-- doc_0 -->
<g id="node1" class="node">
<title>doc_0</title>
<ellipse fill="none" stroke="#000000" cx="261" cy="-787.8005" rx="42.1216" ry="18"/>
<text text-anchor="middle" x="261" y="-783.6005" font-family="Helvetica,sans-Serif" font-size="14.00" fill="#000000">doc &#45; 33</text>
</g>
<!-- section_1 -->
<g id="node2" class="node">
<title>section_1</title>
<ellipse fill="none" stroke="#000000" cx="261" cy="-715.8005" rx="55.6456" ry="18"/>
<text text-anchor="middle" x="261" y="-711.6005" font-family="Helvetica,sans-Serif" font-size="14.00" fill="#000000">section: 1&#45;4</text>
</g>
<!-- doc_0&#45;&gt;section_1 -->
<g id="edge1" class="edge">
<title>doc_0&#45;&gt;section_1</title>
<path fill="none" stroke="#000000" stroke-dasharray="5,2" d="M261,-769.6319C261,-761.9315 261,-752.7749 261,-744.2172"/>
<polygon fill="#000000" stroke="#000000" points="264.5001,-744.2138 261,-734.2138 257.5001,-744.2138 264.5001,-744.2138"/>
</g>
<!-- header_2 -->
<g id="node3" class="node">
<title>header_2</title>
<ellipse fill="none" stroke="#000000" cx="170" cy="-643.8005" rx="27" ry="18"/>
</g>
<!-- section_1&#45;&gt;header_2 -->
<g id="edge2" class="edge">
<title>section_1&#45;&gt;header_2</title>
<path fill="none" stroke="#000000" stroke-dasharray="5,2" d="M239.894,-699.1013C226.763,-688.7119 209.7835,-675.2776 195.8483,-664.2519"/>
<polygon fill="#000000" stroke="#000000" points="197.6405,-661.2069 187.6266,-657.7469 193.2971,-666.6965 197.6405,-661.2069"/>
</g>
<!-- block_3 -->
<g id="node4" class="node">
<title>block_3</title>
<ellipse fill="none" stroke="#000000" cx="261" cy="-643.8005" rx="45.9804" ry="18"/>
<text text-anchor="middle" x="261" y="-639.6005" font-family="Helvetica,sans-Serif" font-size="14.00" fill="#000000">block 1&#45;4</text>
</g>
<!-- section_1&#45;&gt;block_3 -->
<g id="edge3" class="edge">
<title>section_1&#45;&gt;block_3</title>
<path fill="none" stroke="#000000" stroke-dasharray="5,2" d="M261,-697.6319C261,-689.9315 261,-680.7749 261,-672.2172"/>
<polygon fill="#000000" stroke="#000000" points="264.5001,-672.2138 261,-662.2138 257.5001,-672.2138 264.5001,-672.2138"/>
</g>
<!-- section_4 -->
<g id="node5" class="node">
<title>section_4</title>
<ellipse fill="none" stroke="#000000" cx="433" cy="-643.8005" rx="60.9826" ry="18"/>
<text text-anchor="middle" x="433" y="-639.6005" font-family="Helvetica,sans-Serif" font-size="14.00" fill="#000000">section: 5&#45;12</text>
</g>
<!-- section_1&#45;&gt;section_4 -->
<g id="edge4" class="edge">
<title>section_1&#45;&gt;section_4</title>
<path fill="none" stroke="#000000" stroke-dasharray="5,2" d="M295.3934,-701.4033C322.0811,-690.2317 359.2905,-674.6557 388.2884,-662.517"/>
<polygon fill="#000000" stroke="#000000" points="389.9077,-665.6335 397.7806,-658.5435 387.2047,-659.1764 389.9077,-665.6335"/>
</g>
<!-- leaf_5 -->
<g id="node6" class="node">
<title>leaf_5</title>
<polygon fill="none" stroke="#c0c0c0" points="310,-589.9009 0,-589.9009 0,-519.5001 310,-519.5001 310,-589.9009"/>
<text text-anchor="middle" x="155" y="-574.6005" font-family="Inconsolata" font-size="14.00" fill="#000000">This has a header before the first section</text>
<text text-anchor="middle" x="155" y="-559.2005" font-family="Inconsolata" font-size="14.00" fill="#000000">making two sections</text>
<text text-anchor="middle" x="155" y="-543.8005" font-family="Inconsolata" font-size="14.00" fill="#000000"> &#160;&#160;&#160;&#160;&#160;&#160;</text>
</g>
<!-- block_3&#45;&gt;leaf_5 -->
<g id="edge5" class="edge">
<title>block_3&#45;&gt;leaf_5</title>
<path fill="none" stroke="#000000" stroke-dasharray="5,2" d="M241.558,-627.4582C231.2629,-618.8045 218.0981,-607.7386 205.1596,-596.8629"/>
<polygon fill="#000000" stroke="#000000" points="207.0675,-593.8944 197.1605,-590.1392 202.5634,-599.2529 207.0675,-593.8944"/>
</g>
<!-- header_6 -->
<g id="node7" class="node">
<title>header_6</title>
<ellipse fill="none" stroke="#000000" cx="375" cy="-554.7005" rx="46.9495" ry="18"/>
<text text-anchor="middle" x="375" y="-550.5005" font-family="Helvetica,sans-Serif" font-size="14.00" fill="#000000">Header&#45;1</text>
</g>
<!-- section_4&#45;&gt;header_6 -->
<g id="edge6" class="edge">
<title>section_4&#45;&gt;header_6</title>
<path fill="none" stroke="#000000" stroke-dasharray="5,2" d="M421.2628,-625.7698C412.8748,-612.8841 401.4573,-595.3444 392.0638,-580.914"/>
<polygon fill="#000000" stroke="#000000" points="394.9106,-578.8717 386.5218,-572.4003 389.044,-582.6906 394.9106,-578.8717"/>
</g>
<!-- block_7 -->
<g id="node8" class="node">
<title>block_7</title>
<ellipse fill="none" stroke="#000000" cx="491" cy="-554.7005" rx="50.8172" ry="18"/>
<text text-anchor="middle" x="491" y="-550.5005" font-family="Helvetica,sans-Serif" font-size="14.00" fill="#000000">block 5&#45;12</text>
</g>
<!-- section_4&#45;&gt;block_7 -->
<g id="edge7" class="edge">
<title>section_4&#45;&gt;block_7</title>
<path fill="none" stroke="#000000" stroke-dasharray="5,2" d="M444.7372,-625.7698C453.1252,-612.8841 464.5427,-595.3444 473.9362,-580.914"/>
<polygon fill="#000000" stroke="#000000" points="476.956,-582.6906 479.4782,-572.4003 471.0894,-578.8717 476.956,-582.6906"/>
</g>
<!-- section_8 -->
<g id="node9" class="node">
<title>section_8</title>
<ellipse fill="none" stroke="#000000" cx="735" cy="-554.7005" rx="65.8187" ry="18"/>
<text text-anchor="middle" x="735" y="-550.5005" font-family="Helvetica,sans-Serif" font-size="14.00" fill="#000000">section: 13&#45;17</text>
</g>
<!-- section_4&#45;&gt;section_8 -->
<g id="edge8" class="edge">
<title>section_4&#45;&gt;section_8</title>
<path fill="none" stroke="#000000" stroke-dasharray="5,2" d="M476.2692,-631.0347C529.9231,-615.205 621.4413,-588.2041 680.017,-570.9223"/>
<polygon fill="#000000" stroke="#000000" points="681.2377,-574.2114 689.8386,-568.0246 679.2568,-567.4975 681.2377,-574.2114"/>
</g>
<!-- leaf_9 -->
<g id="node10" class="node">
<title>leaf_9</title>
<polygon fill="none" stroke="#c0c0c0" points="605,-483.6005 267,-483.6005 267,-366.6002 605,-366.6002 605,-483.6005"/>
<text text-anchor="middle" x="436" y="-436.4004" font-family="Inconsolata" font-size="14.00" fill="#000000">This block has a single balanced bold.</text>
<text text-anchor="middle" x="436" y="-421.0004" font-family="Inconsolata" font-size="14.00" fill="#000000">Rather, it will have a single *balanced* bold;</text>
<text text-anchor="middle" x="436" y="-405.6004" font-family="Inconsolata" font-size="14.00" fill="#000000">that is to say, it now does! 3*4</text>
<text text-anchor="middle" x="436" y="-390.2003" font-family="Inconsolata" font-size="14.00" fill="#000000"> </text>
<text text-anchor="middle" x="436" y="-374.8003" font-family="Inconsolata" font-size="14.00" fill="#000000">e&#45;mail address: joe@example.com</text>
</g>
<!-- block_7&#45;&gt;leaf_9 -->
<g id="edge9" class="edge">
<title>block_7&#45;&gt;leaf_9</title>
<path fill="none" stroke="#000000" stroke-dasharray="5,2" d="M483.3525,-536.6801C478.4424,-525.1101 471.7242,-509.2796 464.8912,-493.1786"/>
<polygon fill="#000000" stroke="#000000" points="467.9961,-491.5355 460.8676,-483.6974 461.5523,-494.2701 467.9961,-491.5355"/>
</g>
<!-- header_10 -->
<g id="node11" class="node">
<title>header_10</title>
<ellipse fill="none" stroke="#000000" cx="669" cy="-425.1004" rx="46.4736" ry="18"/>
<text text-anchor="middle" x="669" y="-420.9004" font-family="Helvetica,sans-Serif" font-size="14.00" fill="#000000">Header 2</text>
</g>
<!-- section_8&#45;&gt;header_10 -->
<g id="edge10" class="edge">
<title>section_8&#45;&gt;header_10</title>
<path fill="none" stroke="#000000" stroke-dasharray="5,2" d="M725.823,-536.6801C714.6419,-514.7246 695.648,-477.4275 682.7255,-452.0523"/>
<polygon fill="#000000" stroke="#000000" points="685.756,-450.2904 678.0991,-442.9677 679.5183,-453.467 685.756,-450.2904"/>
</g>
<!-- block_11 -->
<g id="node12" class="node">
<title>block_11</title>
<ellipse fill="none" stroke="#000000" cx="789" cy="-425.1004" rx="55.6542" ry="18"/>
<text text-anchor="middle" x="789" y="-420.9004" font-family="Helvetica,sans-Serif" font-size="14.00" fill="#000000">block 13&#45;17</text>
</g>
<!-- section_8&#45;&gt;block_11 -->
<g id="edge11" class="edge">
<title>section_8&#45;&gt;block_11</title>
<path fill="none" stroke="#000000" stroke-dasharray="5,2" d="M742.5085,-536.6801C751.6163,-514.8213 767.0603,-477.7558 777.63,-452.3884"/>
<polygon fill="#000000" stroke="#000000" points="780.9399,-453.5446 781.5553,-442.9677 774.4783,-450.8523 780.9399,-453.5446"/>
</g>
<!-- section_12 -->
<g id="node13" class="node">
<title>section_12</title>
<ellipse fill="none" stroke="#000000" cx="1031" cy="-425.1004" rx="65.8187" ry="18"/>
<text text-anchor="middle" x="1031" y="-420.9004" font-family="Helvetica,sans-Serif" font-size="14.00" fill="#000000">section: 18&#45;24</text>
</g>
<!-- section_8&#45;&gt;section_12 -->
<g id="edge12" class="edge">
<title>section_8&#45;&gt;section_12</title>
<path fill="none" stroke="#000000" stroke-dasharray="5,2" d="M770.1175,-539.3247C824.0811,-515.6974 927.3402,-470.4866 986.478,-444.5938"/>
<polygon fill="#000000" stroke="#000000" points="988.1716,-447.6731 995.9282,-440.4561 985.364,-441.2608 988.1716,-447.6731"/>
</g>
<!-- leaf_13 -->
<g id="node14" class="node">
<title>leaf_13</title>
<polygon fill="none" stroke="#c0c0c0" points="899,-330.5006 575,-330.5006 575,-259.8999 899,-259.8999 899,-330.5006"/>
<text text-anchor="middle" x="737" y="-299.4003" font-family="Inconsolata" font-size="14.00" fill="#000000">This block has a **double &#160;bold ** string</text>
<text text-anchor="middle" x="737" y="-284.0002" font-family="Inconsolata" font-size="14.00" fill="#000000">it also has /italics/ and //double italics//</text>
</g>
<!-- block_11&#45;&gt;leaf_13 -->
<g id="edge13" class="edge">
<title>block_11&#45;&gt;leaf_13</title>
<path fill="none" stroke="#000000" stroke-dasharray="5,2" d="M781.7696,-407.0383C774.8837,-389.8367 764.2367,-363.2396 755.0531,-340.2983"/>
<polygon fill="#000000" stroke="#000000" points="758.1879,-338.7113 751.2221,-330.7282 751.6892,-341.3128 758.1879,-338.7113"/>
</g>
<!-- header_14 -->
<g id="node15" class="node">
<title>header_14</title>
<ellipse fill="none" stroke="#000000" cx="963" cy="-295.2002" rx="46.4736" ry="18"/>
<text text-anchor="middle" x="963" y="-291.0002" font-family="Helvetica,sans-Serif" font-size="14.00" fill="#000000">Header 3</text>
</g>
<!-- section_12&#45;&gt;header_14 -->
<g id="edge14" class="edge">
<title>section_12&#45;&gt;header_14</title>
<path fill="none" stroke="#000000" stroke-dasharray="5,2" d="M1021.5449,-407.0383C1010.025,-385.0319 990.4556,-347.6485 977.1415,-322.2146"/>
<polygon fill="#000000" stroke="#000000" points="980.1135,-320.3452 972.3748,-313.1089 973.9118,-323.5917 980.1135,-320.3452"/>
</g>
<!-- block_15 -->
<g id="node16" class="node">
<title>block_15</title>
<ellipse fill="none" stroke="#000000" cx="1083" cy="-295.2002" rx="55.6542" ry="18"/>
<text text-anchor="middle" x="1083" y="-291.0002" font-family="Helvetica,sans-Serif" font-size="14.00" fill="#000000">block 18&#45;24</text>
</g>
<!-- section_12&#45;&gt;block_15 -->
<g id="edge15" class="edge">
<title>section_12&#45;&gt;block_15</title>
<path fill="none" stroke="#000000" stroke-dasharray="5,2" d="M1038.2304,-407.0383C1047.0009,-385.1289 1061.8728,-347.9776 1072.0511,-322.5514"/>
<polygon fill="#000000" stroke="#000000" points="1075.3639,-323.6934 1075.831,-313.1089 1068.8653,-321.0919 1075.3639,-323.6934"/>
</g>
<!-- section_16 -->
<g id="node17" class="node">
<title>section_16</title>
<ellipse fill="none" stroke="#000000" cx="1318" cy="-295.2002" rx="65.8187" ry="18"/>
<text text-anchor="middle" x="1318" y="-291.0002" font-family="Helvetica,sans-Serif" font-size="14.00" fill="#000000">section: 25&#45;33</text>
</g>
<!-- section_12&#45;&gt;section_16 -->
<g id="edge16" class="edge">
<title>section_12&#45;&gt;section_16</title>
<path fill="none" stroke="#000000" stroke-dasharray="5,2" d="M1065.0497,-409.689C1117.2319,-386.0706 1216.9541,-340.935 1274.3683,-314.9485"/>
<polygon fill="#000000" stroke="#000000" points="1275.8812,-318.1057 1283.5482,-310.7936 1272.9947,-311.7285 1275.8812,-318.1057"/>
</g>
<!-- leaf_17 -->
<g id="node18" class="node">
<title>leaf_17</title>
<polygon fill="none" stroke="#c0c0c0" points="1182,-223.6011 886,-223.6011 886,-122.3992 1182,-122.3992 1182,-223.6011"/>
<text text-anchor="middle" x="1034" y="-192.6002" font-family="Inconsolata" font-size="14.00" fill="#000000">This block has ***triple because why not</text>
<text text-anchor="middle" x="1034" y="-177.2002" font-family="Inconsolata" font-size="14.00" fill="#000000">double line*** &#160;bold in it</text>
<text text-anchor="middle" x="1034" y="-161.8002" font-family="Inconsolata" font-size="14.00" fill="#000000">it also has a ////quadruple italic</text>
<text text-anchor="middle" x="1034" y="-146.4001" font-family="Inconsolata" font-size="14.00" fill="#000000">like a crazy person////</text>
</g>
<!-- block_15&#45;&gt;leaf_17 -->
<g id="edge17" class="edge">
<title>block_15&#45;&gt;leaf_17</title>
<path fill="none" stroke="#000000" stroke-dasharray="5,2" d="M1075.7699,-277.1692C1071.0298,-265.348 1064.535,-249.1507 1058.0791,-233.0505"/>
<polygon fill="#000000" stroke="#000000" points="1061.2664,-231.5951 1054.2961,-223.6161 1054.7693,-234.2003 1061.2664,-231.5951"/>
</g>
<!-- header_18 -->
<g id="node19" class="node">
<title>header_18</title>
<ellipse fill="none" stroke="#000000" cx="1246" cy="-173.0002" rx="46.4736" ry="18"/>
<text text-anchor="middle" x="1246" y="-168.8002" font-family="Helvetica,sans-Serif" font-size="14.00" fill="#000000">Header 4</text>
</g>
<!-- section_16&#45;&gt;header_18 -->
<g id="edge18" class="edge">
<title>section_16&#45;&gt;header_18</title>
<path fill="none" stroke="#000000" stroke-dasharray="5,2" d="M1307.3762,-277.1692C1295.2895,-256.6555 1275.4383,-222.9635 1261.5959,-199.4699"/>
<polygon fill="#000000" stroke="#000000" points="1264.5253,-197.5469 1256.4333,-190.7079 1258.4942,-201.1004 1264.5253,-197.5469"/>
</g>
<!-- block_19 -->
<g id="node20" class="node">
<title>block_19</title>
<ellipse fill="none" stroke="#000000" cx="1366" cy="-173.0002" rx="55.6542" ry="18"/>
<text text-anchor="middle" x="1366" y="-168.8002" font-family="Helvetica,sans-Serif" font-size="14.00" fill="#000000">block 25&#45;30</text>
</g>
<!-- section_16&#45;&gt;block_19 -->
<g id="edge19" class="edge">
<title>section_16&#45;&gt;block_19</title>
<path fill="none" stroke="#000000" stroke-dasharray="5,2" d="M1325.0826,-277.1692C1333.0234,-256.9533 1345.9914,-223.9387 1355.1984,-200.4992"/>
<polygon fill="#000000" stroke="#000000" points="1358.49,-201.6925 1358.8884,-191.1052 1351.9746,-199.1332 1358.49,-201.6925"/>
</g>
<!-- block_20 -->
<g id="node21" class="node">
<title>block_20</title>
<ellipse fill="none" stroke="#000000" cx="1647" cy="-173.0002" rx="55.6542" ry="18"/>
<text text-anchor="middle" x="1647" y="-168.8002" font-family="Helvetica,sans-Serif" font-size="14.00" fill="#000000">block 31&#45;33</text>
</g>
<!-- section_16&#45;&gt;block_20 -->
<g id="edge20" class="edge">
<title>section_16&#45;&gt;block_20</title>
<path fill="none" stroke="#000000" stroke-dasharray="5,2" d="M1357.0326,-280.7024C1417.9074,-258.0918 1535.2206,-214.5182 1600.4235,-190.3"/>
<polygon fill="#000000" stroke="#000000" points="1601.8828,-193.4917 1610.0384,-186.7288 1599.4454,-186.9297 1601.8828,-193.4917"/>
</g>
<!-- leaf_21 -->
<g id="node22" class="node">
<title>leaf_21</title>
<polygon fill="none" stroke="#c0c0c0" points="1490.5,-86.3004 1089.5,-86.3004 1089.5,.1003 1490.5,.1003 1490.5,-86.3004"/>
<text text-anchor="middle" x="1290" y="-55.0001" font-family="Inconsolata" font-size="14.00" fill="#000000"> &#160;This block has __underlines__ it has </text>
<text text-anchor="middle" x="1290" y="-39.6001" font-family="Inconsolata" font-size="14.00" fill="#000000">strike&#45;through it &#45;even&#45; has =literal= and ==multi line</text>
<text text-anchor="middle" x="1290" y="-24.2" font-family="Inconsolata" font-size="14.00" fill="#000000">double literal==</text>
</g>
<!-- block_19&#45;&gt;leaf_21 -->
<g id="edge21" class="edge">
<title>block_19&#45;&gt;leaf_21</title>
<path fill="none" stroke="#000000" stroke-dasharray="5,2" d="M1355.5919,-155.2105C1346.5163,-139.6985 1332.8851,-116.3999 1320.3964,-95.0539"/>
<polygon fill="#000000" stroke="#000000" points="1323.3852,-93.2314 1315.3143,-86.3676 1317.3433,-96.7664 1323.3852,-93.2314"/>
</g>
<!-- leaf_22 -->
<g id="node23" class="node">
<title>leaf_22</title>
<polygon fill="none" stroke="#c0c0c0" points="1937.5,-70.4005 1508.5,-70.4005 1508.5,-15.7996 1937.5,-15.7996 1937.5,-70.4005"/>
<text text-anchor="middle" x="1723" y="-55.3001" font-family="Inconsolata" font-size="14.00" fill="#000000">This next block has &quot;&quot;quoted material&quot;&quot; which can &quot;&quot;&quot;indeed</text>
<text text-anchor="middle" x="1723" y="-39.9" font-family="Inconsolata" font-size="14.00" fill="#000000">have anything we&#39;d like!&quot;&quot;&quot; in it</text>
</g>
<!-- block_20&#45;&gt;leaf_22 -->
<g id="edge22" class="edge">
<title>block_20&#45;&gt;leaf_22</title>
<path fill="none" stroke="#000000" stroke-dasharray="5,2" d="M1657.4081,-155.2105C1668.7771,-135.7785 1687.2951,-104.1273 1701.7607,-79.4026"/>
<polygon fill="#000000" stroke="#000000" points="1704.857,-81.0411 1706.886,-70.6423 1698.8151,-77.5061 1704.857,-81.0411"/>
</g>
</g>
</svg>
