<?xml version="1.0" encoding="UTF-8" standalone="no"?>
<!DOCTYPE svg PUBLIC "-//W3C//DTD SVG 1.1//EN"
 "http://www.w3.org/Graphics/SVG/1.1/DTD/svg11.dtd">
<!-- Generated by graphviz version 2.40.1 (20161225.0304)
 -->
<!-- Title: hierarchy Pages: 1 -->
<svg width="1943pt" height="814pt"
 viewBox="0.00 0.00 1942.50 813.80" xmlns="http://www.w3.org/2000/svg" xmlns:xlink="http://www.w3.org/1999/xlink">
<g id="graph0" class="graph" transform="scale(1 1) rotate(0) translate(4 809.8005)">
<title>hierarchy</title>
<polygon fill="#ffffff" stroke="transparent" points="-4,4 -4,-809.8005 1938.5,-809.8005 1938.5,4 -4,4"/>
<!-- doc_0 -->
<g id="node1" class="node">
<title>doc_0</title>
<ellipse fill="none" stroke="#000000" cx="258" cy="-787.8005" rx="42.1216" ry="18"/>
<text text-anchor="middle" x="258" y="-783.6005" font-family="Helvetica,sans-Serif" font-size="14.00" fill="#000000">doc &#45; 33</text>
</g>
<!-- section_1 -->
<g id="node2" class="node">
<title>section_1</title>
<ellipse fill="none" stroke="#000000" cx="258" cy="-715.8005" rx="55.6456" ry="18"/>
<text text-anchor="middle" x="258" y="-711.6005" font-family="Helvetica,sans-Serif" font-size="14.00" fill="#000000">section: 1&#45;4</text>
</g>
<!-- doc_0&#45;&gt;section_1 -->
<g id="edge1" class="edge">
<title>doc_0&#45;&gt;section_1</title>
<path fill="none" stroke="#000000" stroke-dasharray="5,2" d="M258,-769.6319C258,-761.9315 258,-752.7749 258,-744.2172"/>
<polygon fill="#000000" stroke="#000000" points="261.5001,-744.2138 258,-734.2138 254.5001,-744.2138 261.5001,-744.2138"/>
</g>
<!-- header_2 -->
<g id="node3" class="node">
<title>header_2</title>
<ellipse fill="none" stroke="#000000" cx="163" cy="-643.8005" rx="27" ry="18"/>
</g>
<!-- section_1&#45;&gt;header_2 -->
<g id="edge2" class="edge">
<title>section_1&#45;&gt;header_2</title>
<path fill="none" stroke="#000000" stroke-dasharray="5,2" d="M235.9663,-699.1013C222.0371,-688.5444 203.9597,-674.8437 189.2835,-663.7206"/>
<polygon fill="#000000" stroke="#000000" points="191.1762,-660.7635 181.0924,-657.5127 186.948,-666.3423 191.1762,-660.7635"/>
</g>
<!-- block_3 -->
<g id="node4" class="node">
<title>block_3</title>
<ellipse fill="none" stroke="#000000" cx="258" cy="-643.8005" rx="49.8395" ry="18"/>
<text text-anchor="middle" x="258" y="-639.6005" font-family="Helvetica,sans-Serif" font-size="14.00" fill="#000000">block 1&#45;nil</text>
</g>
<!-- section_1&#45;&gt;block_3 -->
<g id="edge3" class="edge">
<title>section_1&#45;&gt;block_3</title>
<path fill="none" stroke="#000000" stroke-dasharray="5,2" d="M258,-697.6319C258,-689.9315 258,-680.7749 258,-672.2172"/>
<polygon fill="#000000" stroke="#000000" points="261.5001,-672.2138 258,-662.2138 254.5001,-672.2138 261.5001,-672.2138"/>
</g>
<!-- section_4 -->
<g id="node5" class="node">
<title>section_4</title>
<ellipse fill="none" stroke="#000000" cx="432" cy="-643.8005" rx="60.9826" ry="18"/>
<text text-anchor="middle" x="432" y="-639.6005" font-family="Helvetica,sans-Serif" font-size="14.00" fill="#000000">section: 5&#45;12</text>
</g>
<!-- section_1&#45;&gt;section_4 -->
<g id="edge4" class="edge">
<title>section_1&#45;&gt;section_4</title>
<path fill="none" stroke="#000000" stroke-dasharray="5,2" d="M292.3768,-701.5756C319.5449,-690.3337 357.6798,-674.5537 387.2316,-662.3254"/>
<polygon fill="#000000" stroke="#000000" points="388.5981,-665.5478 396.5,-658.4902 385.9216,-659.0797 388.5981,-665.5478"/>
</g>
<!-- leaf_5 -->
<g id="node6" class="node">
<title>leaf_5</title>
<polygon fill="none" stroke="#c0c0c0" points="310,-589.9009 0,-589.9009 0,-519.5001 310,-519.5001 310,-589.9009"/>
<text text-anchor="middle" x="155" y="-574.6005" font-family="Inconsolata" font-size="14.00" fill="#000000">This has a header before the first section</text>
<text text-anchor="middle" x="155" y="-559.2005" font-family="Inconsolata" font-size="14.00" fill="#000000">making two sections</text>
<text text-anchor="middle" x="155" y="-543.8005" font-family="Inconsolata" font-size="14.00" fill="#000000"> &#160;&#160;&#160;&#160;&#160;&#160;</text>
</g>
<!-- block_3&#45;&gt;leaf_5 -->
<g id="edge5" class="edge">
<title>block_3&#45;&gt;leaf_5</title>
<path fill="none" stroke="#000000" stroke-dasharray="5,2" d="M238.6265,-627.0415C228.5887,-618.3583 215.8398,-607.3299 203.3401,-596.517"/>
<polygon fill="#000000" stroke="#000000" points="205.4687,-593.7305 195.6159,-589.8352 200.8891,-599.0246 205.4687,-593.7305"/>
</g>
<!-- header_6 -->
<g id="node7" class="node">
<title>header_6</title>
<ellipse fill="none" stroke="#000000" cx="375" cy="-554.7005" rx="46.9495" ry="18"/>
<text text-anchor="middle" x="375" y="-550.5005" font-family="Helvetica,sans-Serif" font-size="14.00" fill="#000000">Header&#45;1</text>
</g>
<!-- section_4&#45;&gt;header_6 -->
<g id="edge6" class="edge">
<title>section_4&#45;&gt;header_6</title>
<path fill="none" stroke="#000000" stroke-dasharray="5,2" d="M420.4652,-625.7698C412.2218,-612.8841 401.0011,-595.3444 391.7696,-580.914"/>
<polygon fill="#000000" stroke="#000000" points="394.6604,-578.9379 386.3231,-572.4003 388.7638,-582.7102 394.6604,-578.9379"/>
</g>
<!-- block_7 -->
<g id="node8" class="node">
<title>block_7</title>
<ellipse fill="none" stroke="#000000" cx="490" cy="-554.7005" rx="49.8395" ry="18"/>
<text text-anchor="middle" x="490" y="-550.5005" font-family="Helvetica,sans-Serif" font-size="14.00" fill="#000000">block 5&#45;nil</text>
</g>
<!-- section_4&#45;&gt;block_7 -->
<g id="edge7" class="edge">
<title>section_4&#45;&gt;block_7</title>
<path fill="none" stroke="#000000" stroke-dasharray="5,2" d="M443.7372,-625.7698C452.1252,-612.8841 463.5427,-595.3444 472.9362,-580.914"/>
<polygon fill="#000000" stroke="#000000" points="475.956,-582.6906 478.4782,-572.4003 470.0894,-578.8717 475.956,-582.6906"/>
</g>
<!-- section_8 -->
<g id="node9" class="node">
<title>section_8</title>
<ellipse fill="none" stroke="#000000" cx="733" cy="-554.7005" rx="65.8187" ry="18"/>
<text text-anchor="middle" x="733" y="-550.5005" font-family="Helvetica,sans-Serif" font-size="14.00" fill="#000000">section: 13&#45;17</text>
</g>
<!-- section_4&#45;&gt;section_8 -->
<g id="edge8" class="edge">
<title>section_4&#45;&gt;section_8</title>
<path fill="none" stroke="#000000" stroke-dasharray="5,2" d="M475.126,-631.0347C528.6021,-615.205 619.8173,-588.2041 678.199,-570.9223"/>
<polygon fill="#000000" stroke="#000000" points="679.3928,-574.2191 687.9881,-568.0246 677.4059,-567.507 679.3928,-574.2191"/>
</g>
<!-- leaf_9 -->
<g id="node10" class="node">
<title>leaf_9</title>
<polygon fill="none" stroke="#c0c0c0" points="604,-483.6005 266,-483.6005 266,-366.6002 604,-366.6002 604,-483.6005"/>
<text text-anchor="middle" x="435" y="-436.4004" font-family="Inconsolata" font-size="14.00" fill="#000000">This block has a single balanced bold.</text>
<text text-anchor="middle" x="435" y="-421.0004" font-family="Inconsolata" font-size="14.00" fill="#000000">Rather, it will have a single *balanced* bold;</text>
<text text-anchor="middle" x="435" y="-405.6004" font-family="Inconsolata" font-size="14.00" fill="#000000">that is to say, it now does! 3*4</text>
<text text-anchor="middle" x="435" y="-390.2003" font-family="Inconsolata" font-size="14.00" fill="#000000"> </text>
<text text-anchor="middle" x="435" y="-374.8003" font-family="Inconsolata" font-size="14.00" fill="#000000">e&#45;mail address: joe@example.com</text>
</g>
<!-- block_7&#45;&gt;leaf_9 -->
<g id="edge9" class="edge">
<title>block_7&#45;&gt;leaf_9</title>
<path fill="none" stroke="#000000" stroke-dasharray="5,2" d="M482.3525,-536.6801C477.4424,-525.1101 470.7242,-509.2796 463.8912,-493.1786"/>
<polygon fill="#000000" stroke="#000000" points="466.9961,-491.5355 459.8676,-483.6974 460.5523,-494.2701 466.9961,-491.5355"/>
</g>
<!-- header_10 -->
<g id="node11" class="node">
<title>header_10</title>
<ellipse fill="none" stroke="#000000" cx="668" cy="-425.1004" rx="46.4736" ry="18"/>
<text text-anchor="middle" x="668" y="-420.9004" font-family="Helvetica,sans-Serif" font-size="14.00" fill="#000000">Header 2</text>
</g>
<!-- section_8&#45;&gt;header_10 -->
<g id="edge10" class="edge">
<title>section_8&#45;&gt;header_10</title>
<path fill="none" stroke="#000000" stroke-dasharray="5,2" d="M723.962,-536.6801C712.9504,-514.7246 694.2443,-477.4275 681.5176,-452.0523"/>
<polygon fill="#000000" stroke="#000000" points="684.573,-450.3373 676.9612,-442.9677 678.3159,-453.4755 684.573,-450.3373"/>
</g>
<!-- block_11 -->
<g id="node12" class="node">
<title>block_11</title>
<ellipse fill="none" stroke="#000000" cx="787" cy="-425.1004" rx="54.6765" ry="18"/>
<text text-anchor="middle" x="787" y="-420.9004" font-family="Helvetica,sans-Serif" font-size="14.00" fill="#000000">block 13&#45;nil</text>
</g>
<!-- section_8&#45;&gt;block_11 -->
<g id="edge11" class="edge">
<title>section_8&#45;&gt;block_11</title>
<path fill="none" stroke="#000000" stroke-dasharray="5,2" d="M740.5085,-536.6801C749.6163,-514.8213 765.0603,-477.7558 775.63,-452.3884"/>
<polygon fill="#000000" stroke="#000000" points="778.9399,-453.5446 779.5553,-442.9677 772.4783,-450.8523 778.9399,-453.5446"/>
</g>
<!-- section_12 -->
<g id="node13" class="node">
<title>section_12</title>
<ellipse fill="none" stroke="#000000" cx="1028" cy="-425.1004" rx="65.8187" ry="18"/>
<text text-anchor="middle" x="1028" y="-420.9004" font-family="Helvetica,sans-Serif" font-size="14.00" fill="#000000">section: 18&#45;24</text>
</g>
<!-- section_8&#45;&gt;section_12 -->
<g id="edge12" class="edge">
<title>section_8&#45;&gt;section_12</title>
<path fill="none" stroke="#000000" stroke-dasharray="5,2" d="M767.9988,-539.3247C821.7802,-515.6974 924.6904,-470.4866 983.6284,-444.5938"/>
<polygon fill="#000000" stroke="#000000" points="985.2991,-447.6828 993.0467,-440.4561 982.4835,-441.274 985.2991,-447.6828"/>
</g>
<!-- leaf_13 -->
<g id="node14" class="node">
<title>leaf_13</title>
<polygon fill="none" stroke="#c0c0c0" points="897,-330.5006 573,-330.5006 573,-259.8999 897,-259.8999 897,-330.5006"/>
<text text-anchor="middle" x="735" y="-299.4003" font-family="Inconsolata" font-size="14.00" fill="#000000">This block has a **double &#160;bold ** string</text>
<text text-anchor="middle" x="735" y="-284.0002" font-family="Inconsolata" font-size="14.00" fill="#000000">it also has /italics/ and //double italics//</text>
</g>
<!-- block_11&#45;&gt;leaf_13 -->
<g id="edge13" class="edge">
<title>block_11&#45;&gt;leaf_13</title>
<path fill="none" stroke="#000000" stroke-dasharray="5,2" d="M779.7696,-407.0383C772.8837,-389.8367 762.2367,-363.2396 753.0531,-340.2983"/>
<polygon fill="#000000" stroke="#000000" points="756.1879,-338.7113 749.2221,-330.7282 749.6892,-341.3128 756.1879,-338.7113"/>
</g>
<!-- header_14 -->
<g id="node15" class="node">
<title>header_14</title>
<ellipse fill="none" stroke="#000000" cx="961" cy="-295.2002" rx="46.4736" ry="18"/>
<text text-anchor="middle" x="961" y="-291.0002" font-family="Helvetica,sans-Serif" font-size="14.00" fill="#000000">Header 3</text>
</g>
<!-- section_12&#45;&gt;header_14 -->
<g id="edge14" class="edge">
<title>section_12&#45;&gt;header_14</title>
<path fill="none" stroke="#000000" stroke-dasharray="5,2" d="M1018.6839,-407.0383C1007.3335,-385.0319 988.0518,-347.6485 974.9335,-322.2146"/>
<polygon fill="#000000" stroke="#000000" points="977.9316,-320.392 970.2369,-313.1089 971.7104,-323.6008 977.9316,-320.392"/>
</g>
<!-- block_15 -->
<g id="node16" class="node">
<title>block_15</title>
<ellipse fill="none" stroke="#000000" cx="1080" cy="-295.2002" rx="54.6765" ry="18"/>
<text text-anchor="middle" x="1080" y="-291.0002" font-family="Helvetica,sans-Serif" font-size="14.00" fill="#000000">block 18&#45;nil</text>
</g>
<!-- section_12&#45;&gt;block_15 -->
<g id="edge15" class="edge">
<title>section_12&#45;&gt;block_15</title>
<path fill="none" stroke="#000000" stroke-dasharray="5,2" d="M1035.2304,-407.0383C1044.0009,-385.1289 1058.8728,-347.9776 1069.0511,-322.5514"/>
<polygon fill="#000000" stroke="#000000" points="1072.3639,-323.6934 1072.831,-313.1089 1065.8653,-321.0919 1072.3639,-323.6934"/>
</g>
<!-- section_16 -->
<g id="node17" class="node">
<title>section_16</title>
<ellipse fill="none" stroke="#000000" cx="1315" cy="-295.2002" rx="65.8187" ry="18"/>
<text text-anchor="middle" x="1315" y="-291.0002" font-family="Helvetica,sans-Serif" font-size="14.00" fill="#000000">section: 25&#45;33</text>
</g>
<!-- section_12&#45;&gt;section_16 -->
<g id="edge16" class="edge">
<title>section_12&#45;&gt;section_16</title>
<path fill="none" stroke="#000000" stroke-dasharray="5,2" d="M1062.0497,-409.689C1114.2319,-386.0706 1213.9541,-340.935 1271.3683,-314.9485"/>
<polygon fill="#000000" stroke="#000000" points="1272.8812,-318.1057 1280.5482,-310.7936 1269.9947,-311.7285 1272.8812,-318.1057"/>
</g>
<!-- leaf_17 -->
<g id="node18" class="node">
<title>leaf_17</title>
<polygon fill="none" stroke="#c0c0c0" points="1179,-223.6011 883,-223.6011 883,-122.3992 1179,-122.3992 1179,-223.6011"/>
<text text-anchor="middle" x="1031" y="-192.6002" font-family="Inconsolata" font-size="14.00" fill="#000000">This block has ***triple because why not</text>
<text text-anchor="middle" x="1031" y="-177.2002" font-family="Inconsolata" font-size="14.00" fill="#000000">double line*** &#160;bold in it</text>
<text text-anchor="middle" x="1031" y="-161.8002" font-family="Inconsolata" font-size="14.00" fill="#000000">it also has a ////quadruple italic</text>
<text text-anchor="middle" x="1031" y="-146.4001" font-family="Inconsolata" font-size="14.00" fill="#000000">like a crazy person////</text>
</g>
<!-- block_15&#45;&gt;leaf_17 -->
<g id="edge17" class="edge">
<title>block_15&#45;&gt;leaf_17</title>
<path fill="none" stroke="#000000" stroke-dasharray="5,2" d="M1072.7699,-277.1692C1068.0298,-265.348 1061.535,-249.1507 1055.0791,-233.0505"/>
<polygon fill="#000000" stroke="#000000" points="1058.2664,-231.5951 1051.2961,-223.6161 1051.7693,-234.2003 1058.2664,-231.5951"/>
</g>
<!-- header_18 -->
<g id="node19" class="node">
<title>header_18</title>
<ellipse fill="none" stroke="#000000" cx="1243" cy="-173.0002" rx="46.4736" ry="18"/>
<text text-anchor="middle" x="1243" y="-168.8002" font-family="Helvetica,sans-Serif" font-size="14.00" fill="#000000">Header 4</text>
</g>
<!-- section_16&#45;&gt;header_18 -->
<g id="edge18" class="edge">
<title>section_16&#45;&gt;header_18</title>
<path fill="none" stroke="#000000" stroke-dasharray="5,2" d="M1304.3762,-277.1692C1292.2895,-256.6555 1272.4383,-222.9635 1258.5959,-199.4699"/>
<polygon fill="#000000" stroke="#000000" points="1261.5253,-197.5469 1253.4333,-190.7079 1255.4942,-201.1004 1261.5253,-197.5469"/>
</g>
<!-- block_19 -->
<g id="node20" class="node">
<title>block_19</title>
<ellipse fill="none" stroke="#000000" cx="1363" cy="-173.0002" rx="55.6542" ry="18"/>
<text text-anchor="middle" x="1363" y="-168.8002" font-family="Helvetica,sans-Serif" font-size="14.00" fill="#000000">block 25&#45;30</text>
</g>
<!-- section_16&#45;&gt;block_19 -->
<g id="edge19" class="edge">
<title>section_16&#45;&gt;block_19</title>
<path fill="none" stroke="#000000" stroke-dasharray="5,2" d="M1322.0826,-277.1692C1330.0234,-256.9533 1342.9914,-223.9387 1352.1984,-200.4992"/>
<polygon fill="#000000" stroke="#000000" points="1355.49,-201.6925 1355.8884,-191.1052 1348.9746,-199.1332 1355.49,-201.6925"/>
</g>
<!-- block_20 -->
<g id="node21" class="node">
<title>block_20</title>
<ellipse fill="none" stroke="#000000" cx="1644" cy="-173.0002" rx="54.6765" ry="18"/>
<text text-anchor="middle" x="1644" y="-168.8002" font-family="Helvetica,sans-Serif" font-size="14.00" fill="#000000">block 31&#45;nil</text>
</g>
<!-- section_16&#45;&gt;block_20 -->
<g id="edge20" class="edge">
<title>section_16&#45;&gt;block_20</title>
<path fill="none" stroke="#000000" stroke-dasharray="5,2" d="M1354.0326,-280.7024C1415.0693,-258.0316 1532.845,-214.2863 1597.9426,-190.1072"/>
<polygon fill="#000000" stroke="#000000" points="1599.3811,-193.3066 1607.5367,-186.5437 1596.9437,-186.7446 1599.3811,-193.3066"/>
</g>
<!-- leaf_21 -->
<g id="node22" class="node">
<title>leaf_21</title>
<polygon fill="none" stroke="#c0c0c0" points="1487.5,-86.3004 1086.5,-86.3004 1086.5,.1003 1487.5,.1003 1487.5,-86.3004"/>
<text text-anchor="middle" x="1287" y="-55.0001" font-family="Inconsolata" font-size="14.00" fill="#000000"> &#160;This block has __underlines__ it has </text>
<text text-anchor="middle" x="1287" y="-39.6001" font-family="Inconsolata" font-size="14.00" fill="#000000">strike&#45;through it &#45;even&#45; has =literal= and ==multi line</text>
<text text-anchor="middle" x="1287" y="-24.2" font-family="Inconsolata" font-size="14.00" fill="#000000">double literal==</text>
</g>
<!-- block_19&#45;&gt;leaf_21 -->
<g id="edge21" class="edge">
<title>block_19&#45;&gt;leaf_21</title>
<path fill="none" stroke="#000000" stroke-dasharray="5,2" d="M1352.5919,-155.2105C1343.5163,-139.6985 1329.8851,-116.3999 1317.3964,-95.0539"/>
<polygon fill="#000000" stroke="#000000" points="1320.3852,-93.2314 1312.3143,-86.3676 1314.3433,-96.7664 1320.3852,-93.2314"/>
</g>
<!-- leaf_22 -->
<g id="node23" class="node">
<title>leaf_22</title>
<polygon fill="none" stroke="#c0c0c0" points="1934.5,-70.4005 1505.5,-70.4005 1505.5,-15.7996 1934.5,-15.7996 1934.5,-70.4005"/>
<text text-anchor="middle" x="1720" y="-55.3001" font-family="Inconsolata" font-size="14.00" fill="#000000">This next block has &quot;&quot;quoted material&quot;&quot; which can &quot;&quot;&quot;indeed</text>
<text text-anchor="middle" x="1720" y="-39.9" font-family="Inconsolata" font-size="14.00" fill="#000000">have anything we&#39;d like!&quot;&quot;&quot; in it</text>
</g>
<!-- block_20&#45;&gt;leaf_22 -->
<g id="edge22" class="edge">
<title>block_20&#45;&gt;leaf_22</title>
<path fill="none" stroke="#000000" stroke-dasharray="5,2" d="M1654.4081,-155.2105C1665.7771,-135.7785 1684.2951,-104.1273 1698.7607,-79.4026"/>
<polygon fill="#000000" stroke="#000000" points="1701.857,-81.0411 1703.886,-70.6423 1695.8151,-77.5061 1701.857,-81.0411"/>
</g>
</g>
</svg>
