<?xml version="1.0" encoding="UTF-8" standalone="no"?>
<!DOCTYPE svg PUBLIC "-//W3C//DTD SVG 1.1//EN"
 "http://www.w3.org/Graphics/SVG/1.1/DTD/svg11.dtd">
<!-- Generated by graphviz version 2.40.1 (20161225.0304)
 -->
<!-- Title: hierarchy Pages: 1 -->
<svg width="220pt" height="260pt"
 viewBox="0.00 0.00 220.39 260.00" xmlns="http://www.w3.org/2000/svg" xmlns:xlink="http://www.w3.org/1999/xlink">
<g id="graph0" class="graph" transform="scale(1 1) rotate(0) translate(4 256)">
<title>hierarchy</title>
<polygon fill="#ffffff" stroke="transparent" points="-4,4 -4,-256 216.391,-256 216.391,4 -4,4"/>
<!-- doc_0 -->
<g id="node1" class="node">
<title>doc_0</title>
<ellipse fill="none" stroke="#000000" cx="108.4008" cy="-234" rx="37.2854" ry="18"/>
<text text-anchor="middle" x="108.4008" y="-229.8" font-family="Helvetica,sans-Serif" font-size="14.00" fill="#000000">doc &#45; 2</text>
</g>
<!-- section_1 -->
<g id="node2" class="node">
<title>section_1</title>
<ellipse fill="none" stroke="#000000" cx="108.4008" cy="-162" rx="55.6456" ry="18"/>
<text text-anchor="middle" x="108.4008" y="-157.8" font-family="Helvetica,sans-Serif" font-size="14.00" fill="#000000">section: 1&#45;2</text>
</g>
<!-- doc_0&#45;&gt;section_1 -->
<g id="edge1" class="edge">
<title>doc_0&#45;&gt;section_1</title>
<path fill="none" stroke="#000000" stroke-dasharray="5,2" d="M108.4008,-215.8314C108.4008,-208.131 108.4008,-198.9743 108.4008,-190.4166"/>
<polygon fill="#000000" stroke="#000000" points="111.9009,-190.4132 108.4008,-180.4133 104.9009,-190.4133 111.9009,-190.4132"/>
</g>
<!-- header_2 -->
<g id="node3" class="node">
<title>header_2</title>
<ellipse fill="none" stroke="#000000" cx="51.4008" cy="-90" rx="51.3018" ry="18"/>
<text text-anchor="middle" x="51.4008" y="-85.8" font-family="Helvetica,sans-Serif" font-size="14.00" fill="#000000">1 : Header</text>
</g>
<!-- section_1&#45;&gt;header_2 -->
<g id="edge2" class="edge">
<title>section_1&#45;&gt;header_2</title>
<path fill="none" stroke="#000000" stroke-dasharray="5,2" d="M94.3109,-144.2022C87.4774,-135.5704 79.1439,-125.0439 71.645,-115.5717"/>
<polygon fill="#000000" stroke="#000000" points="74.2798,-113.261 65.3286,-107.593 68.7915,-117.606 74.2798,-113.261"/>
</g>
<!-- block_3 -->
<g id="node4" class="node">
<title>block_3</title>
<ellipse fill="none" stroke="#000000" cx="166.4008" cy="-90" rx="45.9804" ry="18"/>
<text text-anchor="middle" x="166.4008" y="-85.8" font-family="Helvetica,sans-Serif" font-size="14.00" fill="#000000">block 1&#45;2</text>
</g>
<!-- section_1&#45;&gt;block_3 -->
<g id="edge3" class="edge">
<title>section_1&#45;&gt;block_3</title>
<path fill="none" stroke="#000000" stroke-dasharray="5,2" d="M122.441,-144.5708C129.5652,-135.7269 138.3482,-124.8239 146.1858,-115.0945"/>
<polygon fill="#000000" stroke="#000000" points="148.9422,-117.2519 152.4899,-107.2687 143.4909,-112.8606 148.9422,-117.2519"/>
</g>
<!-- leaf_4 -->
<g id="node5" class="node">
<title>leaf_4</title>
<polygon fill="none" stroke="#c0c0c0" points="193.4008,-36 139.4008,-36 139.4008,0 193.4008,0 193.4008,-36"/>
</g>
<!-- block_3&#45;&gt;leaf_4 -->
<g id="edge4" class="edge">
<title>block_3&#45;&gt;leaf_4</title>
<path fill="none" stroke="#000000" stroke-dasharray="5,2" d="M166.4008,-71.8314C166.4008,-64.131 166.4008,-54.9743 166.4008,-46.4166"/>
<polygon fill="#000000" stroke="#000000" points="169.9009,-46.4132 166.4008,-36.4133 162.9009,-46.4133 169.9009,-46.4132"/>
</g>
</g>
</svg>
