<?xml version="1.0" encoding="UTF-8" standalone="no"?>
<!DOCTYPE svg PUBLIC "-//W3C//DTD SVG 1.1//EN"
 "http://www.w3.org/Graphics/SVG/1.1/DTD/svg11.dtd">
<!-- Generated by graphviz version 2.40.1 (20161225.0304)
 -->
<!-- Title: hierarchy Pages: 1 -->
<svg width="945pt" height="476pt"
 viewBox="0.00 0.00 944.56 476.00" xmlns="http://www.w3.org/2000/svg" xmlns:xlink="http://www.w3.org/1999/xlink">
<g id="graph0" class="graph" transform="scale(1 1) rotate(0) translate(4 472)">
<title>hierarchy</title>
<polygon fill="#ffffff" stroke="transparent" points="-4,4 -4,-472 940.5634,-472 940.5634,4 -4,4"/>
<!-- doc_0 -->
<g id="node1" class="node">
<title>doc_0</title>
<ellipse fill="none" stroke="#000000" cx="265.5732" cy="-450" rx="42.1216" ry="18"/>
<text text-anchor="middle" x="265.5732" y="-445.8" font-family="Helvetica,sans-Serif" font-size="14.00" fill="#000000">doc &#45; 10</text>
</g>
<!-- section_1 -->
<g id="node2" class="node">
<title>section_1</title>
<ellipse fill="none" stroke="#000000" cx="265.5732" cy="-378" rx="55.6456" ry="18"/>
<text text-anchor="middle" x="265.5732" y="-373.8" font-family="Helvetica,sans-Serif" font-size="14.00" fill="#000000">section: 1&#45;9</text>
</g>
<!-- doc_0&#45;&gt;section_1 -->
<g id="edge1" class="edge">
<title>doc_0&#45;&gt;section_1</title>
<path fill="none" stroke="#000000" stroke-dasharray="5,2" d="M265.5732,-431.8314C265.5732,-424.131 265.5732,-414.9743 265.5732,-406.4166"/>
<polygon fill="#000000" stroke="#000000" points="269.0733,-406.4132 265.5732,-396.4133 262.0733,-406.4133 269.0733,-406.4132"/>
</g>
<!-- header_2 -->
<g id="node3" class="node">
<title>header_2</title>
<ellipse fill="none" stroke="#000000" cx="70.5732" cy="-306" rx="70.6464" ry="18"/>
<text text-anchor="middle" x="70.5732" y="-301.8" font-family="Helvetica,sans-Serif" font-size="14.00" fill="#000000">1 : Header One</text>
</g>
<!-- section_1&#45;&gt;header_2 -->
<g id="edge2" class="edge">
<title>section_1&#45;&gt;header_2</title>
<path fill="none" stroke="#000000" stroke-dasharray="5,2" d="M228.4362,-364.2879C197.8614,-352.9987 154.2302,-336.8887 120.5831,-324.4652"/>
<polygon fill="#000000" stroke="#000000" points="121.5262,-321.0825 110.9329,-320.9021 119.1016,-327.6492 121.5262,-321.0825"/>
</g>
<!-- block_3 -->
<g id="node4" class="node">
<title>block_3</title>
<ellipse fill="none" stroke="#000000" cx="205.5732" cy="-306" rx="45.9804" ry="18"/>
<text text-anchor="middle" x="205.5732" y="-301.8" font-family="Helvetica,sans-Serif" font-size="14.00" fill="#000000">block 1&#45;9</text>
</g>
<!-- section_1&#45;&gt;block_3 -->
<g id="edge3" class="edge">
<title>section_1&#45;&gt;block_3</title>
<path fill="none" stroke="#000000" stroke-dasharray="5,2" d="M251.0488,-360.5708C243.6789,-351.7269 234.5931,-340.8239 226.4852,-331.0945"/>
<polygon fill="#000000" stroke="#000000" points="229.0544,-328.7103 219.9637,-323.2687 223.6768,-333.1916 229.0544,-328.7103"/>
</g>
<!-- section_4 -->
<g id="node5" class="node">
<title>section_4</title>
<ellipse fill="none" stroke="#000000" cx="325.5732" cy="-306" rx="55.6456" ry="18"/>
<text text-anchor="middle" x="325.5732" y="-301.8" font-family="Helvetica,sans-Serif" font-size="14.00" fill="#000000">section: 2&#45;3</text>
</g>
<!-- section_1&#45;&gt;section_4 -->
<g id="edge4" class="edge">
<title>section_1&#45;&gt;section_4</title>
<path fill="none" stroke="#000000" stroke-dasharray="5,2" d="M280.0975,-360.5708C287.4132,-351.7919 296.4197,-340.9841 304.4821,-331.3093"/>
<polygon fill="#000000" stroke="#000000" points="307.2615,-333.4411 310.9746,-323.5182 301.884,-328.9598 307.2615,-333.4411"/>
</g>
<!-- section_5 -->
<g id="node6" class="node">
<title>section_5</title>
<ellipse fill="none" stroke="#000000" cx="629.5732" cy="-306" rx="65.8187" ry="18"/>
<text text-anchor="middle" x="629.5732" y="-301.8" font-family="Helvetica,sans-Serif" font-size="14.00" fill="#000000">section: 10&#45;10</text>
</g>
<!-- section_1&#45;&gt;section_5 -->
<g id="edge5" class="edge">
<title>section_1&#45;&gt;section_5</title>
<path fill="none" stroke="#000000" stroke-dasharray="5,2" d="M313.1598,-368.5873C377.9458,-355.7724 494.0727,-332.8023 566.1859,-318.5381"/>
<polygon fill="#000000" stroke="#000000" points="566.9285,-321.9591 576.0593,-316.5852 565.5702,-315.0922 566.9285,-321.9591"/>
</g>
<!-- leaf_6 -->
<g id="node7" class="node">
<title>leaf_6</title>
<polygon fill="none" stroke="#c0c0c0" points="87.5732,-252 33.5732,-252 33.5732,-216 87.5732,-216 87.5732,-252"/>
</g>
<!-- block_3&#45;&gt;leaf_6 -->
<g id="edge6" class="edge">
<title>block_3&#45;&gt;leaf_6</title>
<path fill="none" stroke="#000000" stroke-dasharray="5,2" d="M176.8719,-291.8168C156.7731,-281.8768 129.0739,-268.1622 96.8888,-252.15"/>
<polygon fill="#000000" stroke="#000000" points="98.2066,-248.8964 87.6946,-247.5741 95.0876,-255.1632 98.2066,-248.8964"/>
</g>
<!-- header_7 -->
<g id="node8" class="node">
<title>header_7</title>
<ellipse fill="none" stroke="#000000" cx="183.5732" cy="-234" rx="77.578" ry="18"/>
<text text-anchor="middle" x="183.5732" y="-229.8" font-family="Helvetica,sans-Serif" font-size="14.00" fill="#000000">2 : Header Two&#45;1</text>
</g>
<!-- section_4&#45;&gt;header_7 -->
<g id="edge7" class="edge">
<title>section_4&#45;&gt;header_7</title>
<path fill="none" stroke="#000000" stroke-dasharray="5,2" d="M295.4586,-290.7307C274.9944,-280.3544 247.6559,-266.4927 225.1256,-255.0688"/>
<polygon fill="#000000" stroke="#000000" points="226.6193,-251.902 216.1174,-250.5013 223.4536,-258.1453 226.6193,-251.902"/>
</g>
<!-- block_8 -->
<g id="node9" class="node">
<title>block_8</title>
<ellipse fill="none" stroke="#000000" cx="325.5732" cy="-234" rx="45.9804" ry="18"/>
<text text-anchor="middle" x="325.5732" y="-229.8" font-family="Helvetica,sans-Serif" font-size="14.00" fill="#000000">block 2&#45;3</text>
</g>
<!-- section_4&#45;&gt;block_8 -->
<g id="edge8" class="edge">
<title>section_4&#45;&gt;block_8</title>
<path fill="none" stroke="#000000" stroke-dasharray="5,2" d="M325.5732,-287.8314C325.5732,-280.131 325.5732,-270.9743 325.5732,-262.4166"/>
<polygon fill="#000000" stroke="#000000" points="329.0733,-262.4132 325.5732,-252.4133 322.0733,-262.4133 329.0733,-262.4132"/>
</g>
<!-- section_9 -->
<g id="node10" class="node">
<title>section_9</title>
<ellipse fill="none" stroke="#000000" cx="445.5732" cy="-234" rx="55.6456" ry="18"/>
<text text-anchor="middle" x="445.5732" y="-229.8" font-family="Helvetica,sans-Serif" font-size="14.00" fill="#000000">section: 4&#45;7</text>
</g>
<!-- section_4&#45;&gt;section_9 -->
<g id="edge9" class="edge">
<title>section_4&#45;&gt;section_9</title>
<path fill="none" stroke="#000000" stroke-dasharray="5,2" d="M352.205,-290.0209C369.2946,-279.7671 391.6797,-266.336 410.2473,-255.1955"/>
<polygon fill="#000000" stroke="#000000" points="412.2415,-258.0807 419.0157,-249.9345 408.64,-252.0782 412.2415,-258.0807"/>
</g>
<!-- header_22 -->
<g id="node23" class="node">
<title>header_22</title>
<ellipse fill="none" stroke="#000000" cx="629.5732" cy="-234" rx="77.578" ry="18"/>
<text text-anchor="middle" x="629.5732" y="-229.8" font-family="Helvetica,sans-Serif" font-size="14.00" fill="#000000">2 : Header Two&#45;2</text>
</g>
<!-- section_5&#45;&gt;header_22 -->
<g id="edge22" class="edge">
<title>section_5&#45;&gt;header_22</title>
<path fill="none" stroke="#000000" stroke-dasharray="5,2" d="M629.5732,-287.8314C629.5732,-280.131 629.5732,-270.9743 629.5732,-262.4166"/>
<polygon fill="#000000" stroke="#000000" points="633.0733,-262.4132 629.5732,-252.4133 626.0733,-262.4133 633.0733,-262.4132"/>
</g>
<!-- block_23 -->
<g id="node24" class="node">
<title>block_23</title>
<ellipse fill="none" stroke="#000000" cx="797.5732" cy="-234" rx="55.6542" ry="18"/>
<text text-anchor="middle" x="797.5732" y="-229.8" font-family="Helvetica,sans-Serif" font-size="14.00" fill="#000000">block 10&#45;10</text>
</g>
<!-- section_5&#45;&gt;block_23 -->
<g id="edge23" class="edge">
<title>section_5&#45;&gt;block_23</title>
<path fill="none" stroke="#000000" stroke-dasharray="5,2" d="M665.2016,-290.7307C691.308,-279.5422 726.8703,-264.3012 754.5607,-252.4339"/>
<polygon fill="#000000" stroke="#000000" points="756.1858,-255.5454 763.9985,-248.3891 753.4283,-249.1114 756.1858,-255.5454"/>
</g>
<!-- leaf_10 -->
<g id="node11" class="node">
<title>leaf_10</title>
<polygon fill="none" stroke="#c0c0c0" points="200.5732,-180 146.5732,-180 146.5732,-144 200.5732,-144 200.5732,-180"/>
</g>
<!-- block_8&#45;&gt;leaf_10 -->
<g id="edge10" class="edge">
<title>block_8&#45;&gt;leaf_10</title>
<path fill="none" stroke="#000000" stroke-dasharray="5,2" d="M295.421,-220.2438C273.8695,-210.3495 243.9886,-196.5063 209.8972,-180.1027"/>
<polygon fill="#000000" stroke="#000000" points="211.1873,-176.8391 200.6599,-175.6448 208.1448,-183.1433 211.1873,-176.8391"/>
</g>
<!-- header_11 -->
<g id="node12" class="node">
<title>header_11</title>
<ellipse fill="none" stroke="#000000" cx="295.5732" cy="-162" rx="76.6088" ry="18"/>
<text text-anchor="middle" x="295.5732" y="-157.8" font-family="Helvetica,sans-Serif" font-size="14.00" fill="#000000">3 : Header Three</text>
</g>
<!-- section_9&#45;&gt;header_11 -->
<g id="edge11" class="edge">
<title>section_9&#45;&gt;header_11</title>
<path fill="none" stroke="#000000" stroke-dasharray="5,2" d="M414.1282,-218.9064C392.2103,-208.3858 362.6978,-194.2198 338.6019,-182.6538"/>
<polygon fill="#000000" stroke="#000000" points="339.8528,-179.3719 329.323,-178.1999 336.8236,-185.6826 339.8528,-179.3719"/>
</g>
<!-- block_12 -->
<g id="node13" class="node">
<title>block_12</title>
<ellipse fill="none" stroke="#000000" cx="436.5732" cy="-162" rx="45.9804" ry="18"/>
<text text-anchor="middle" x="436.5732" y="-157.8" font-family="Helvetica,sans-Serif" font-size="14.00" fill="#000000">block 4&#45;7</text>
</g>
<!-- section_9&#45;&gt;block_12 -->
<g id="edge12" class="edge">
<title>section_9&#45;&gt;block_12</title>
<path fill="none" stroke="#000000" stroke-dasharray="5,2" d="M443.3021,-215.8314C442.3395,-208.131 441.1949,-198.9743 440.1252,-190.4166"/>
<polygon fill="#000000" stroke="#000000" points="443.5882,-189.9019 438.8748,-180.4133 436.6423,-190.7702 443.5882,-189.9019"/>
</g>
<!-- section_13 -->
<g id="node14" class="node">
<title>section_13</title>
<ellipse fill="none" stroke="#000000" cx="556.5732" cy="-162" rx="55.6456" ry="18"/>
<text text-anchor="middle" x="556.5732" y="-157.8" font-family="Helvetica,sans-Serif" font-size="14.00" fill="#000000">section: 6&#45;7</text>
</g>
<!-- section_9&#45;&gt;section_13 -->
<g id="edge13" class="edge">
<title>section_9&#45;&gt;section_13</title>
<path fill="none" stroke="#000000" stroke-dasharray="5,2" d="M470.4837,-217.8418C485.9421,-207.8147 506.0048,-194.8011 522.8731,-183.8595"/>
<polygon fill="#000000" stroke="#000000" points="524.8767,-186.7317 531.3617,-178.3534 521.0674,-180.859 524.8767,-186.7317"/>
</g>
<!-- section_14 -->
<g id="node15" class="node">
<title>section_14</title>
<ellipse fill="none" stroke="#000000" cx="704.5732" cy="-162" rx="55.6456" ry="18"/>
<text text-anchor="middle" x="704.5732" y="-157.8" font-family="Helvetica,sans-Serif" font-size="14.00" fill="#000000">section: 8&#45;9</text>
</g>
<!-- section_9&#45;&gt;section_14 -->
<g id="edge14" class="edge">
<title>section_9&#45;&gt;section_14</title>
<path fill="none" stroke="#000000" stroke-dasharray="5,2" d="M488.0517,-222.1913C533.0292,-209.6879 604.073,-189.9383 652.4185,-176.4986"/>
<polygon fill="#000000" stroke="#000000" points="653.3742,-179.8657 662.0714,-173.8152 651.4993,-173.1215 653.3742,-179.8657"/>
</g>
<!-- leaf_15 -->
<g id="node16" class="node">
<title>leaf_15</title>
<polygon fill="none" stroke="#c0c0c0" points="248.5732,-108 194.5732,-108 194.5732,-72 248.5732,-72 248.5732,-108"/>
<text text-anchor="middle" x="221.5732" y="-86.5" font-family="Inconsolata" font-size="14.00" fill="#000000"> &#160;&#160;&#160;</text>
</g>
<!-- block_12&#45;&gt;leaf_15 -->
<g id="edge15" class="edge">
<title>block_12&#45;&gt;leaf_15</title>
<path fill="none" stroke="#000000" stroke-dasharray="5,2" d="M401.4206,-150.3002C394.8377,-148.1647 388.0051,-145.9856 381.5732,-144 329.6313,-127.9655 312.7793,-128.7754 258.3161,-107.9651"/>
<polygon fill="#000000" stroke="#000000" points="259.4464,-104.6492 248.8579,-104.2819 256.9062,-111.1721 259.4464,-104.6492"/>
</g>
<!-- header_16 -->
<g id="node17" class="node">
<title>header_16</title>
<ellipse fill="none" stroke="#000000" cx="379.5732" cy="-90" rx="112.669" ry="18"/>
<text text-anchor="middle" x="379.5732" y="-85.8" font-family="Helvetica,sans-Serif" font-size="14.00" fill="#000000">4 : Header four&#45;Three&#45;1 &#160;&#160;&#160;</text>
</g>
<!-- section_13&#45;&gt;header_16 -->
<g id="edge16" class="edge">
<title>section_13&#45;&gt;header_16</title>
<path fill="none" stroke="#000000" stroke-dasharray="5,2" d="M521.6037,-147.7751C495.6255,-137.2077 459.7903,-122.6307 430.6152,-110.7629"/>
<polygon fill="#000000" stroke="#000000" points="431.582,-107.3777 421.0002,-106.8517 428.9443,-113.8618 431.582,-107.3777"/>
</g>
<!-- block_17 -->
<g id="node18" class="node">
<title>block_17</title>
<ellipse fill="none" stroke="#000000" cx="556.5732" cy="-90" rx="45.9804" ry="18"/>
<text text-anchor="middle" x="556.5732" y="-85.8" font-family="Helvetica,sans-Serif" font-size="14.00" fill="#000000">block 6&#45;7</text>
</g>
<!-- section_13&#45;&gt;block_17 -->
<g id="edge17" class="edge">
<title>section_13&#45;&gt;block_17</title>
<path fill="none" stroke="#000000" stroke-dasharray="5,2" d="M556.5732,-143.8314C556.5732,-136.131 556.5732,-126.9743 556.5732,-118.4166"/>
<polygon fill="#000000" stroke="#000000" points="560.0733,-118.4132 556.5732,-108.4133 553.0733,-118.4133 560.0733,-118.4132"/>
</g>
<!-- header_19 -->
<g id="node20" class="node">
<title>header_19</title>
<ellipse fill="none" stroke="#000000" cx="723.5732" cy="-90" rx="103.0128" ry="18"/>
<text text-anchor="middle" x="723.5732" y="-85.8" font-family="Helvetica,sans-Serif" font-size="14.00" fill="#000000">4 : Header four&#45;Three&#45;2</text>
</g>
<!-- section_14&#45;&gt;header_19 -->
<g id="edge19" class="edge">
<title>section_14&#45;&gt;header_19</title>
<path fill="none" stroke="#000000" stroke-dasharray="5,2" d="M709.3677,-143.8314C711.422,-136.0463 713.8692,-126.7729 716.1487,-118.1347"/>
<polygon fill="#000000" stroke="#000000" points="719.5466,-118.9753 718.7141,-108.4133 712.7783,-117.1892 719.5466,-118.9753"/>
</g>
<!-- block_20 -->
<g id="node21" class="node">
<title>block_20</title>
<ellipse fill="none" stroke="#000000" cx="890.5732" cy="-90" rx="45.9804" ry="18"/>
<text text-anchor="middle" x="890.5732" y="-85.8" font-family="Helvetica,sans-Serif" font-size="14.00" fill="#000000">block 8&#45;9</text>
</g>
<!-- section_14&#45;&gt;block_20 -->
<g id="edge20" class="edge">
<title>section_14&#45;&gt;block_20</title>
<path fill="none" stroke="#000000" stroke-dasharray="5,2" d="M740.4358,-148.1177C771.1454,-136.2301 815.4261,-119.0892 847.9425,-106.5022"/>
<polygon fill="#000000" stroke="#000000" points="849.5658,-109.6269 857.628,-102.753 847.0388,-103.099 849.5658,-109.6269"/>
</g>
<!-- leaf_18 -->
<g id="node19" class="node">
<title>leaf_18</title>
<polygon fill="none" stroke="#c0c0c0" points="583.5732,-36 529.5732,-36 529.5732,0 583.5732,0 583.5732,-36"/>
</g>
<!-- block_17&#45;&gt;leaf_18 -->
<g id="edge18" class="edge">
<title>block_17&#45;&gt;leaf_18</title>
<path fill="none" stroke="#000000" stroke-dasharray="5,2" d="M556.5732,-71.8314C556.5732,-64.131 556.5732,-54.9743 556.5732,-46.4166"/>
<polygon fill="#000000" stroke="#000000" points="560.0733,-46.4132 556.5732,-36.4133 553.0733,-46.4133 560.0733,-46.4132"/>
</g>
<!-- leaf_21 -->
<g id="node22" class="node">
<title>leaf_21</title>
<polygon fill="none" stroke="#c0c0c0" points="917.5732,-36 863.5732,-36 863.5732,0 917.5732,0 917.5732,-36"/>
</g>
<!-- block_20&#45;&gt;leaf_21 -->
<g id="edge21" class="edge">
<title>block_20&#45;&gt;leaf_21</title>
<path fill="none" stroke="#000000" stroke-dasharray="5,2" d="M890.5732,-71.8314C890.5732,-64.131 890.5732,-54.9743 890.5732,-46.4166"/>
<polygon fill="#000000" stroke="#000000" points="894.0733,-46.4132 890.5732,-36.4133 887.0733,-46.4133 894.0733,-46.4132"/>
</g>
<!-- leaf_24 -->
<g id="node25" class="node">
<title>leaf_24</title>
<polygon fill="none" stroke="#c0c0c0" points="832.5732,-180 778.5732,-180 778.5732,-144 832.5732,-144 832.5732,-180"/>
</g>
<!-- block_23&#45;&gt;leaf_24 -->
<g id="edge24" class="edge">
<title>block_23&#45;&gt;leaf_24</title>
<path fill="none" stroke="#000000" stroke-dasharray="5,2" d="M799.5919,-215.8314C800.4475,-208.131 801.4649,-198.9743 802.4158,-190.4166"/>
<polygon fill="#000000" stroke="#000000" points="805.9014,-190.7386 803.5272,-180.4133 798.9442,-189.9656 805.9014,-190.7386"/>
</g>
</g>
</svg>
