<?xml version="1.0" encoding="UTF-8" standalone="no"?>
<!DOCTYPE svg PUBLIC "-//W3C//DTD SVG 1.1//EN"
 "http://www.w3.org/Graphics/SVG/1.1/DTD/svg11.dtd">
<!-- Generated by graphviz version 2.40.1 (20161225.0304)
 -->
<!-- Title: hierarchy Pages: 1 -->
<svg width="920pt" height="476pt"
 viewBox="0.00 0.00 920.20 476.00" xmlns="http://www.w3.org/2000/svg" xmlns:xlink="http://www.w3.org/1999/xlink">
<g id="graph0" class="graph" transform="scale(1 1) rotate(0) translate(4 472)">
<title>hierarchy</title>
<polygon fill="#ffffff" stroke="transparent" points="-4,4 -4,-472 916.2035,-472 916.2035,4 -4,4"/>
<!-- doc_0 -->
<g id="node1" class="node">
<title>doc_0</title>
<ellipse fill="none" stroke="#000000" cx="246.2838" cy="-450" rx="42.1216" ry="18"/>
<text text-anchor="middle" x="246.2838" y="-445.8" font-family="Helvetica,sans-Serif" font-size="14.00" fill="#000000">doc &#45; 10</text>
</g>
<!-- section_1 -->
<g id="node2" class="node">
<title>section_1</title>
<ellipse fill="none" stroke="#000000" cx="246.2838" cy="-378" rx="55.6456" ry="18"/>
<text text-anchor="middle" x="246.2838" y="-373.8" font-family="Helvetica,sans-Serif" font-size="14.00" fill="#000000">section: 1&#45;1</text>
</g>
<!-- doc_0&#45;&gt;section_1 -->
<g id="edge1" class="edge">
<title>doc_0&#45;&gt;section_1</title>
<path fill="none" stroke="#000000" stroke-dasharray="5,2" d="M246.2838,-431.8314C246.2838,-424.131 246.2838,-414.9743 246.2838,-406.4166"/>
<polygon fill="#000000" stroke="#000000" points="249.7839,-406.4132 246.2838,-396.4133 242.7839,-406.4133 249.7839,-406.4132"/>
</g>
<!-- header_2 -->
<g id="node3" class="node">
<title>header_2</title>
<ellipse fill="none" stroke="#000000" cx="58.2838" cy="-306" rx="58.0685" ry="18"/>
<text text-anchor="middle" x="58.2838" y="-301.8" font-family="Helvetica,sans-Serif" font-size="14.00" fill="#000000">Header One</text>
</g>
<!-- section_1&#45;&gt;header_2 -->
<g id="edge2" class="edge">
<title>section_1&#45;&gt;header_2</title>
<path fill="none" stroke="#000000" stroke-dasharray="5,2" d="M210.0356,-364.1177C180.0594,-352.6374 137.2903,-336.2578 104.7925,-323.8118"/>
<polygon fill="#000000" stroke="#000000" points="105.6527,-320.3934 95.0623,-320.0854 103.1491,-326.9304 105.6527,-320.3934"/>
</g>
<!-- block_3 -->
<g id="node4" class="node">
<title>block_3</title>
<ellipse fill="none" stroke="#000000" cx="184.2838" cy="-306" rx="49.8395" ry="18"/>
<text text-anchor="middle" x="184.2838" y="-301.8" font-family="Helvetica,sans-Serif" font-size="14.00" fill="#000000">block 1&#45;nil</text>
</g>
<!-- section_1&#45;&gt;block_3 -->
<g id="edge3" class="edge">
<title>section_1&#45;&gt;block_3</title>
<path fill="none" stroke="#000000" stroke-dasharray="5,2" d="M231.2754,-360.5708C223.6598,-351.7269 214.2711,-340.8239 205.893,-331.0945"/>
<polygon fill="#000000" stroke="#000000" points="208.3316,-328.5626 199.1541,-323.2687 203.0272,-333.1302 208.3316,-328.5626"/>
</g>
<!-- section_4 -->
<g id="node5" class="node">
<title>section_4</title>
<ellipse fill="none" stroke="#000000" cx="308.2838" cy="-306" rx="55.6456" ry="18"/>
<text text-anchor="middle" x="308.2838" y="-301.8" font-family="Helvetica,sans-Serif" font-size="14.00" fill="#000000">section: 2&#45;3</text>
</g>
<!-- section_1&#45;&gt;section_4 -->
<g id="edge4" class="edge">
<title>section_1&#45;&gt;section_4</title>
<path fill="none" stroke="#000000" stroke-dasharray="5,2" d="M261.2923,-360.5708C268.8519,-351.7919 278.1586,-340.9841 286.4898,-331.3093"/>
<polygon fill="#000000" stroke="#000000" points="289.3256,-333.3798 293.1987,-323.5182 284.0212,-328.8121 289.3256,-333.3798"/>
</g>
<!-- section_5 -->
<g id="node6" class="node">
<title>section_5</title>
<ellipse fill="none" stroke="#000000" cx="617.2838" cy="-306" rx="65.8187" ry="18"/>
<text text-anchor="middle" x="617.2838" y="-301.8" font-family="Helvetica,sans-Serif" font-size="14.00" fill="#000000">section: 10&#45;10</text>
</g>
<!-- section_1&#45;&gt;section_5 -->
<g id="edge5" class="edge">
<title>section_1&#45;&gt;section_5</title>
<path fill="none" stroke="#000000" stroke-dasharray="5,2" d="M294.4053,-368.6611C360.5996,-355.8147 479.8913,-332.6638 553.471,-318.3842"/>
<polygon fill="#000000" stroke="#000000" points="554.3898,-321.7712 563.5398,-316.4301 553.0561,-314.8995 554.3898,-321.7712"/>
</g>
<!-- leaf_6 -->
<g id="node7" class="node">
<title>leaf_6</title>
<polygon fill="none" stroke="#c0c0c0" points="92.2838,-252 38.2838,-252 38.2838,-216 92.2838,-216 92.2838,-252"/>
</g>
<!-- block_3&#45;&gt;leaf_6 -->
<g id="edge6" class="edge">
<title>block_3&#45;&gt;leaf_6</title>
<path fill="none" stroke="#000000" stroke-dasharray="5,2" d="M158.4626,-290.3771C141.6617,-280.2118 119.519,-266.8145 101.0346,-255.6307"/>
<polygon fill="#000000" stroke="#000000" points="102.6615,-252.5243 92.2938,-250.3421 99.0378,-258.5134 102.6615,-252.5243"/>
</g>
<!-- header_7 -->
<g id="node8" class="node">
<title>header_7</title>
<ellipse fill="none" stroke="#000000" cx="175.2838" cy="-234" rx="65.4988" ry="18"/>
<text text-anchor="middle" x="175.2838" y="-229.8" font-family="Helvetica,sans-Serif" font-size="14.00" fill="#000000">Header Two&#45;1</text>
</g>
<!-- section_4&#45;&gt;header_7 -->
<g id="edge7" class="edge">
<title>section_4&#45;&gt;header_7</title>
<path fill="none" stroke="#000000" stroke-dasharray="5,2" d="M279.4248,-290.3771C260.2582,-280.0011 234.8712,-266.2578 213.9615,-254.9383"/>
<polygon fill="#000000" stroke="#000000" points="215.4678,-251.7738 205.0075,-250.091 212.1353,-257.9297 215.4678,-251.7738"/>
</g>
<!-- block_8 -->
<g id="node9" class="node">
<title>block_8</title>
<ellipse fill="none" stroke="#000000" cx="308.2838" cy="-234" rx="49.8395" ry="18"/>
<text text-anchor="middle" x="308.2838" y="-229.8" font-family="Helvetica,sans-Serif" font-size="14.00" fill="#000000">block 2&#45;nil</text>
</g>
<!-- section_4&#45;&gt;block_8 -->
<g id="edge8" class="edge">
<title>section_4&#45;&gt;block_8</title>
<path fill="none" stroke="#000000" stroke-dasharray="5,2" d="M308.2838,-287.8314C308.2838,-280.131 308.2838,-270.9743 308.2838,-262.4166"/>
<polygon fill="#000000" stroke="#000000" points="311.7839,-262.4132 308.2838,-252.4133 304.7839,-262.4133 311.7839,-262.4132"/>
</g>
<!-- section_9 -->
<g id="node10" class="node">
<title>section_9</title>
<ellipse fill="none" stroke="#000000" cx="432.2838" cy="-234" rx="55.6456" ry="18"/>
<text text-anchor="middle" x="432.2838" y="-229.8" font-family="Helvetica,sans-Serif" font-size="14.00" fill="#000000">section: 4&#45;5</text>
</g>
<!-- section_4&#45;&gt;section_9 -->
<g id="edge9" class="edge">
<title>section_4&#45;&gt;section_9</title>
<path fill="none" stroke="#000000" stroke-dasharray="5,2" d="M335.4962,-290.1993C353.3442,-279.8359 376.8789,-266.1706 396.2719,-254.9102"/>
<polygon fill="#000000" stroke="#000000" points="398.2446,-257.812 405.135,-249.7638 394.7296,-251.7585 398.2446,-257.812"/>
</g>
<!-- header_22 -->
<g id="node23" class="node">
<title>header_22</title>
<ellipse fill="none" stroke="#000000" cx="617.2838" cy="-234" rx="65.4988" ry="18"/>
<text text-anchor="middle" x="617.2838" y="-229.8" font-family="Helvetica,sans-Serif" font-size="14.00" fill="#000000">Header Two&#45;2</text>
</g>
<!-- section_5&#45;&gt;header_22 -->
<g id="edge22" class="edge">
<title>section_5&#45;&gt;header_22</title>
<path fill="none" stroke="#000000" stroke-dasharray="5,2" d="M617.2838,-287.8314C617.2838,-280.131 617.2838,-270.9743 617.2838,-262.4166"/>
<polygon fill="#000000" stroke="#000000" points="620.7839,-262.4132 617.2838,-252.4133 613.7839,-262.4133 620.7839,-262.4132"/>
</g>
<!-- block_23 -->
<g id="node24" class="node">
<title>block_23</title>
<ellipse fill="none" stroke="#000000" cx="778.2838" cy="-234" rx="54.6765" ry="18"/>
<text text-anchor="middle" x="778.2838" y="-229.8" font-family="Helvetica,sans-Serif" font-size="14.00" fill="#000000">block 10&#45;nil</text>
</g>
<!-- section_5&#45;&gt;block_23 -->
<g id="edge23" class="edge">
<title>section_5&#45;&gt;block_23</title>
<path fill="none" stroke="#000000" stroke-dasharray="5,2" d="M651.8224,-290.5542C676.5919,-279.4771 710.0923,-264.4956 736.3902,-252.735"/>
<polygon fill="#000000" stroke="#000000" points="738.0237,-255.8387 745.7235,-248.5611 735.1659,-249.4485 738.0237,-255.8387"/>
</g>
<!-- leaf_10 -->
<g id="node11" class="node">
<title>leaf_10</title>
<polygon fill="none" stroke="#c0c0c0" points="205.2838,-180 151.2838,-180 151.2838,-144 205.2838,-144 205.2838,-180"/>
</g>
<!-- block_8&#45;&gt;leaf_10 -->
<g id="edge10" class="edge">
<title>block_8&#45;&gt;leaf_10</title>
<path fill="none" stroke="#000000" stroke-dasharray="5,2" d="M281.0316,-218.9064C261.7045,-208.2022 235.5636,-193.7242 214.4863,-182.0506"/>
<polygon fill="#000000" stroke="#000000" points="215.9439,-178.857 205.5002,-177.0737 212.5524,-184.9805 215.9439,-178.857"/>
</g>
<!-- header_11 -->
<g id="node12" class="node">
<title>header_11</title>
<ellipse fill="none" stroke="#000000" cx="288.2838" cy="-162" rx="64.5297" ry="18"/>
<text text-anchor="middle" x="288.2838" y="-157.8" font-family="Helvetica,sans-Serif" font-size="14.00" fill="#000000">Header Three</text>
</g>
<!-- section_9&#45;&gt;header_11 -->
<g id="edge11" class="edge">
<title>section_9&#45;&gt;header_11</title>
<path fill="none" stroke="#000000" stroke-dasharray="5,2" d="M401.7452,-218.7307C380.5573,-208.1367 352.1029,-193.9095 328.9901,-182.3531"/>
<polygon fill="#000000" stroke="#000000" points="330.2836,-179.0868 319.774,-177.7451 327.153,-185.3478 330.2836,-179.0868"/>
</g>
<!-- block_12 -->
<g id="node13" class="node">
<title>block_12</title>
<ellipse fill="none" stroke="#000000" cx="420.2838" cy="-162" rx="49.8395" ry="18"/>
<text text-anchor="middle" x="420.2838" y="-157.8" font-family="Helvetica,sans-Serif" font-size="14.00" fill="#000000">block 4&#45;nil</text>
</g>
<!-- section_9&#45;&gt;block_12 -->
<g id="edge12" class="edge">
<title>section_9&#45;&gt;block_12</title>
<path fill="none" stroke="#000000" stroke-dasharray="5,2" d="M429.2557,-215.8314C427.9723,-208.131 426.4462,-198.9743 425.02,-190.4166"/>
<polygon fill="#000000" stroke="#000000" points="428.4492,-189.7018 423.3527,-180.4133 421.5444,-190.8526 428.4492,-189.7018"/>
</g>
<!-- section_13 -->
<g id="node14" class="node">
<title>section_13</title>
<ellipse fill="none" stroke="#000000" cx="544.2838" cy="-162" rx="55.6456" ry="18"/>
<text text-anchor="middle" x="544.2838" y="-157.8" font-family="Helvetica,sans-Serif" font-size="14.00" fill="#000000">section: 6&#45;7</text>
</g>
<!-- section_9&#45;&gt;section_13 -->
<g id="edge13" class="edge">
<title>section_9&#45;&gt;section_13</title>
<path fill="none" stroke="#000000" stroke-dasharray="5,2" d="M457.4188,-217.8418C473.1263,-207.7441 493.5453,-194.6176 510.6393,-183.6286"/>
<polygon fill="#000000" stroke="#000000" points="512.7136,-186.456 519.2327,-178.1043 508.9283,-180.5678 512.7136,-186.456"/>
</g>
<!-- section_14 -->
<g id="node15" class="node">
<title>section_14</title>
<ellipse fill="none" stroke="#000000" cx="688.2838" cy="-162" rx="55.6456" ry="18"/>
<text text-anchor="middle" x="688.2838" y="-157.8" font-family="Helvetica,sans-Serif" font-size="14.00" fill="#000000">section: 8&#45;9</text>
</g>
<!-- section_9&#45;&gt;section_14 -->
<g id="edge14" class="edge">
<title>section_9&#45;&gt;section_14</title>
<path fill="none" stroke="#000000" stroke-dasharray="5,2" d="M474.557,-222.1107C518.8399,-209.6561 588.4576,-190.0761 636.1261,-176.6694"/>
<polygon fill="#000000" stroke="#000000" points="637.269,-179.9838 645.9479,-173.907 635.3737,-173.2452 637.269,-179.9838"/>
</g>
<!-- leaf_15 -->
<g id="node16" class="node">
<title>leaf_15</title>
<polygon fill="none" stroke="#c0c0c0" points="257.2838,-108 203.2838,-108 203.2838,-72 257.2838,-72 257.2838,-108"/>
<text text-anchor="middle" x="230.2838" y="-86.5" font-family="Inconsolata" font-size="14.00" fill="#000000"> &#160;&#160;&#160;</text>
</g>
<!-- block_12&#45;&gt;leaf_15 -->
<g id="edge15" class="edge">
<title>block_12&#45;&gt;leaf_15</title>
<path fill="none" stroke="#000000" stroke-dasharray="5,2" d="M382.4372,-150.2098C353.041,-140.7246 311.1775,-126.5038 267.0751,-108.1098"/>
<polygon fill="#000000" stroke="#000000" points="268.2077,-104.7888 257.6338,-104.1216 265.4837,-111.2371 268.2077,-104.7888"/>
</g>
<!-- header_16 -->
<g id="node17" class="node">
<title>header_16</title>
<ellipse fill="none" stroke="#000000" cx="376.2838" cy="-90" rx="100.5902" ry="18"/>
<text text-anchor="middle" x="376.2838" y="-85.8" font-family="Helvetica,sans-Serif" font-size="14.00" fill="#000000">Header four&#45;Three&#45;1 &#160;&#160;&#160;</text>
</g>
<!-- section_13&#45;&gt;header_16 -->
<g id="edge16" class="edge">
<title>section_13&#45;&gt;header_16</title>
<path fill="none" stroke="#000000" stroke-dasharray="5,2" d="M510.6903,-147.6028C486.0214,-137.0304 452.1484,-122.5134 424.5796,-110.6982"/>
<polygon fill="#000000" stroke="#000000" points="425.6868,-107.3648 415.1166,-106.6426 422.9293,-113.7989 425.6868,-107.3648"/>
</g>
<!-- block_17 -->
<g id="node18" class="node">
<title>block_17</title>
<ellipse fill="none" stroke="#000000" cx="544.2838" cy="-90" rx="49.8395" ry="18"/>
<text text-anchor="middle" x="544.2838" y="-85.8" font-family="Helvetica,sans-Serif" font-size="14.00" fill="#000000">block 6&#45;nil</text>
</g>
<!-- section_13&#45;&gt;block_17 -->
<g id="edge17" class="edge">
<title>section_13&#45;&gt;block_17</title>
<path fill="none" stroke="#000000" stroke-dasharray="5,2" d="M544.2838,-143.8314C544.2838,-136.131 544.2838,-126.9743 544.2838,-118.4166"/>
<polygon fill="#000000" stroke="#000000" points="547.7839,-118.4132 544.2838,-108.4133 540.7839,-118.4133 547.7839,-118.4132"/>
</g>
<!-- header_19 -->
<g id="node20" class="node">
<title>header_19</title>
<ellipse fill="none" stroke="#000000" cx="703.2838" cy="-90" rx="90.9347" ry="18"/>
<text text-anchor="middle" x="703.2838" y="-85.8" font-family="Helvetica,sans-Serif" font-size="14.00" fill="#000000">Header four&#45;Three&#45;2</text>
</g>
<!-- section_14&#45;&gt;header_19 -->
<g id="edge19" class="edge">
<title>section_14&#45;&gt;header_19</title>
<path fill="none" stroke="#000000" stroke-dasharray="5,2" d="M692.069,-143.8314C693.6732,-136.131 695.5809,-126.9743 697.3637,-118.4166"/>
<polygon fill="#000000" stroke="#000000" points="700.8346,-118.9169 699.4477,-108.4133 693.9817,-117.4892 700.8346,-118.9169"/>
</g>
<!-- block_20 -->
<g id="node21" class="node">
<title>block_20</title>
<ellipse fill="none" stroke="#000000" cx="862.2838" cy="-90" rx="49.8395" ry="18"/>
<text text-anchor="middle" x="862.2838" y="-85.8" font-family="Helvetica,sans-Serif" font-size="14.00" fill="#000000">block 8&#45;nil</text>
</g>
<!-- section_14&#45;&gt;block_20 -->
<g id="edge20" class="edge">
<title>section_14&#45;&gt;block_20</title>
<path fill="none" stroke="#000000" stroke-dasharray="5,2" d="M722.6606,-147.7751C750.6331,-136.2003 790.2312,-119.8149 820.1171,-107.4483"/>
<polygon fill="#000000" stroke="#000000" points="821.55,-110.6433 829.452,-103.5856 818.8735,-104.1751 821.55,-110.6433"/>
</g>
<!-- leaf_18 -->
<g id="node19" class="node">
<title>leaf_18</title>
<polygon fill="none" stroke="#c0c0c0" points="571.2838,-36 517.2838,-36 517.2838,0 571.2838,0 571.2838,-36"/>
</g>
<!-- block_17&#45;&gt;leaf_18 -->
<g id="edge18" class="edge">
<title>block_17&#45;&gt;leaf_18</title>
<path fill="none" stroke="#000000" stroke-dasharray="5,2" d="M544.2838,-71.8314C544.2838,-64.131 544.2838,-54.9743 544.2838,-46.4166"/>
<polygon fill="#000000" stroke="#000000" points="547.7839,-46.4132 544.2838,-36.4133 540.7839,-46.4133 547.7839,-46.4132"/>
</g>
<!-- leaf_21 -->
<g id="node22" class="node">
<title>leaf_21</title>
<polygon fill="none" stroke="#c0c0c0" points="889.2838,-36 835.2838,-36 835.2838,0 889.2838,0 889.2838,-36"/>
</g>
<!-- block_20&#45;&gt;leaf_21 -->
<g id="edge21" class="edge">
<title>block_20&#45;&gt;leaf_21</title>
<path fill="none" stroke="#000000" stroke-dasharray="5,2" d="M862.2838,-71.8314C862.2838,-64.131 862.2838,-54.9743 862.2838,-46.4166"/>
<polygon fill="#000000" stroke="#000000" points="865.7839,-46.4132 862.2838,-36.4133 858.7839,-46.4133 865.7839,-46.4132"/>
</g>
<!-- leaf_24 -->
<g id="node25" class="node">
<title>leaf_24</title>
<polygon fill="none" stroke="#c0c0c0" points="816.2838,-180 762.2838,-180 762.2838,-144 816.2838,-144 816.2838,-180"/>
</g>
<!-- block_23&#45;&gt;leaf_24 -->
<g id="edge24" class="edge">
<title>block_23&#45;&gt;leaf_24</title>
<path fill="none" stroke="#000000" stroke-dasharray="5,2" d="M781.0596,-215.8314C782.2361,-208.131 783.635,-198.9743 784.9424,-190.4166"/>
<polygon fill="#000000" stroke="#000000" points="788.4202,-190.8272 786.4707,-180.4133 781.5005,-189.7699 788.4202,-190.8272"/>
</g>
</g>
</svg>
