<?xml version="1.0" encoding="UTF-8" standalone="no"?>
<!DOCTYPE svg PUBLIC "-//W3C//DTD SVG 1.1//EN"
 "http://www.w3.org/Graphics/SVG/1.1/DTD/svg11.dtd">
<!-- Generated by graphviz version 2.40.1 (20161225.0304)
 -->
<!-- Title: hierarchy Pages: 1 -->
<svg width="282pt" height="260pt"
 viewBox="0.00 0.00 281.99 260.00" xmlns="http://www.w3.org/2000/svg" xmlns:xlink="http://www.w3.org/1999/xlink">
<g id="graph0" class="graph" transform="scale(1 1) rotate(0) translate(4 256)">
<title>hierarchy</title>
<polygon fill="#ffffff" stroke="transparent" points="-4,4 -4,-256 277.9902,-256 277.9902,4 -4,4"/>
<!-- doc_0 -->
<g id="node1" class="node">
<title>doc_0</title>
<ellipse fill="none" stroke="#000000" cx="118" cy="-234" rx="37.2854" ry="18"/>
<text text-anchor="middle" x="118" y="-229.8" font-family="Helvetica,sans-Serif" font-size="14.00" fill="#000000">doc &#45; 4</text>
</g>
<!-- section_1 -->
<g id="node2" class="node">
<title>section_1</title>
<ellipse fill="none" stroke="#000000" cx="118" cy="-162" rx="55.6456" ry="18"/>
<text text-anchor="middle" x="118" y="-157.8" font-family="Helvetica,sans-Serif" font-size="14.00" fill="#000000">section: 1&#45;4</text>
</g>
<!-- doc_0&#45;&gt;section_1 -->
<g id="edge1" class="edge">
<title>doc_0&#45;&gt;section_1</title>
<path fill="none" stroke="#000000" stroke-dasharray="5,2" d="M118,-215.8314C118,-208.131 118,-198.9743 118,-190.4166"/>
<polygon fill="#000000" stroke="#000000" points="121.5001,-190.4132 118,-180.4133 114.5001,-190.4133 121.5001,-190.4132"/>
</g>
<!-- header_2 -->
<g id="node3" class="node">
<title>header_2</title>
<ellipse fill="none" stroke="#000000" cx="27" cy="-90" rx="27" ry="18"/>
</g>
<!-- section_1&#45;&gt;header_2 -->
<g id="edge2" class="edge">
<title>section_1&#45;&gt;header_2</title>
<path fill="none" stroke="#000000" stroke-dasharray="5,2" d="M96.894,-145.3008C83.763,-134.9114 66.7835,-121.4771 52.8483,-110.4514"/>
<polygon fill="#000000" stroke="#000000" points="54.6405,-107.4064 44.6266,-103.9463 50.2971,-112.896 54.6405,-107.4064"/>
</g>
<!-- block_3 -->
<g id="node4" class="node">
<title>block_3</title>
<ellipse fill="none" stroke="#000000" cx="118" cy="-90" rx="45.9804" ry="18"/>
<text text-anchor="middle" x="118" y="-85.8" font-family="Helvetica,sans-Serif" font-size="14.00" fill="#000000">block 1&#45;3</text>
</g>
<!-- section_1&#45;&gt;block_3 -->
<g id="edge3" class="edge">
<title>section_1&#45;&gt;block_3</title>
<path fill="none" stroke="#000000" stroke-dasharray="5,2" d="M118,-143.8314C118,-136.131 118,-126.9743 118,-118.4166"/>
<polygon fill="#000000" stroke="#000000" points="121.5001,-118.4132 118,-108.4133 114.5001,-118.4133 121.5001,-118.4132"/>
</g>
<!-- block_4 -->
<g id="node5" class="node">
<title>block_4</title>
<ellipse fill="none" stroke="#000000" cx="228" cy="-90" rx="45.9804" ry="18"/>
<text text-anchor="middle" x="228" y="-85.8" font-family="Helvetica,sans-Serif" font-size="14.00" fill="#000000">block 4&#45;4</text>
</g>
<!-- section_1&#45;&gt;block_4 -->
<g id="edge4" class="edge">
<title>section_1&#45;&gt;block_4</title>
<path fill="none" stroke="#000000" stroke-dasharray="5,2" d="M142.6861,-145.8418C158.3289,-135.6029 178.7294,-122.2499 195.6588,-111.1688"/>
<polygon fill="#000000" stroke="#000000" points="197.7015,-114.0149 204.1518,-105.6098 193.8679,-108.1579 197.7015,-114.0149"/>
</g>
<!-- leaf_5 -->
<g id="node6" class="node">
<title>leaf_5</title>
<polygon fill="none" stroke="#c0c0c0" points="145,-36 91,-36 91,0 145,0 145,-36"/>
</g>
<!-- block_3&#45;&gt;leaf_5 -->
<g id="edge5" class="edge">
<title>block_3&#45;&gt;leaf_5</title>
<path fill="none" stroke="#000000" stroke-dasharray="5,2" d="M118,-71.8314C118,-64.131 118,-54.9743 118,-46.4166"/>
<polygon fill="#000000" stroke="#000000" points="121.5001,-46.4132 118,-36.4133 114.5001,-46.4133 121.5001,-46.4132"/>
</g>
<!-- leaf_6 -->
<g id="node7" class="node">
<title>leaf_6</title>
<polygon fill="none" stroke="#c0c0c0" points="255,-36 201,-36 201,0 255,0 255,-36"/>
</g>
<!-- block_4&#45;&gt;leaf_6 -->
<g id="edge6" class="edge">
<title>block_4&#45;&gt;leaf_6</title>
<path fill="none" stroke="#000000" stroke-dasharray="5,2" d="M228,-71.8314C228,-64.131 228,-54.9743 228,-46.4166"/>
<polygon fill="#000000" stroke="#000000" points="231.5001,-46.4132 228,-36.4133 224.5001,-46.4133 231.5001,-46.4132"/>
</g>
</g>
</svg>
