<?xml version="1.0" encoding="UTF-8" standalone="no"?>
<!DOCTYPE svg PUBLIC "-//W3C//DTD SVG 1.1//EN"
 "http://www.w3.org/Graphics/SVG/1.1/DTD/svg11.dtd">
<!-- Generated by graphviz version 2.40.1 (20161225.0304)
 -->
<!-- Title: hierarchy Pages: 1 -->
<svg width="397pt" height="263pt"
 viewBox="0.00 0.00 397.00 263.40" xmlns="http://www.w3.org/2000/svg" xmlns:xlink="http://www.w3.org/1999/xlink">
<g id="graph0" class="graph" transform="scale(1 1) rotate(0) translate(4 259.4)">
<title>hierarchy</title>
<polygon fill="#ffffff" stroke="transparent" points="-4,4 -4,-259.4 393,-259.4 393,4 -4,4"/>
<!-- doc_0 -->
<g id="node1" class="node">
<title>doc_0</title>
<ellipse fill="none" stroke="#000000" cx="118" cy="-237.4" rx="37.2854" ry="18"/>
<text text-anchor="middle" x="118" y="-233.2" font-family="Helvetica,sans-Serif" font-size="14.00" fill="#000000">doc &#45; 4</text>
</g>
<!-- section_1 -->
<g id="node2" class="node">
<title>section_1</title>
<ellipse fill="none" stroke="#000000" cx="118" cy="-165.4" rx="55.6456" ry="18"/>
<text text-anchor="middle" x="118" y="-161.2" font-family="Helvetica,sans-Serif" font-size="14.00" fill="#000000">section: 1&#45;4</text>
</g>
<!-- doc_0&#45;&gt;section_1 -->
<g id="edge1" class="edge">
<title>doc_0&#45;&gt;section_1</title>
<path fill="none" stroke="#000000" stroke-dasharray="5,2" d="M118,-219.2314C118,-211.531 118,-202.3744 118,-193.8167"/>
<polygon fill="#000000" stroke="#000000" points="121.5001,-193.8133 118,-183.8133 114.5001,-193.8133 121.5001,-193.8133"/>
</g>
<!-- header_2 -->
<g id="node3" class="node">
<title>header_2</title>
<ellipse fill="none" stroke="#000000" cx="27" cy="-93.4" rx="27" ry="18"/>
</g>
<!-- section_1&#45;&gt;header_2 -->
<g id="edge2" class="edge">
<title>section_1&#45;&gt;header_2</title>
<path fill="none" stroke="#000000" stroke-dasharray="5,2" d="M96.894,-148.7008C83.763,-138.3114 66.7835,-124.8771 52.8483,-113.8514"/>
<polygon fill="#000000" stroke="#000000" points="54.6405,-110.8064 44.6266,-107.3464 50.2971,-116.296 54.6405,-110.8064"/>
</g>
<!-- block_3 -->
<g id="node4" class="node">
<title>block_3</title>
<ellipse fill="none" stroke="#000000" cx="118" cy="-93.4" rx="45.9804" ry="18"/>
<text text-anchor="middle" x="118" y="-89.2" font-family="Helvetica,sans-Serif" font-size="14.00" fill="#000000">block 1&#45;3</text>
</g>
<!-- section_1&#45;&gt;block_3 -->
<g id="edge3" class="edge">
<title>section_1&#45;&gt;block_3</title>
<path fill="none" stroke="#000000" stroke-dasharray="5,2" d="M118,-147.2314C118,-139.531 118,-130.3744 118,-121.8167"/>
<polygon fill="#000000" stroke="#000000" points="121.5001,-121.8133 118,-111.8133 114.5001,-121.8133 121.5001,-121.8133"/>
</g>
<!-- block_4 -->
<g id="node5" class="node">
<title>block_4</title>
<ellipse fill="none" stroke="#000000" cx="260" cy="-93.4" rx="45.9804" ry="18"/>
<text text-anchor="middle" x="260" y="-89.2" font-family="Helvetica,sans-Serif" font-size="14.00" fill="#000000">block 4&#45;4</text>
</g>
<!-- section_1&#45;&gt;block_4 -->
<g id="edge4" class="edge">
<title>section_1&#45;&gt;block_4</title>
<path fill="none" stroke="#000000" stroke-dasharray="5,2" d="M148.1145,-150.1307C169.8667,-139.1014 199.3857,-124.134 222.6415,-112.3424"/>
<polygon fill="#000000" stroke="#000000" points="224.5243,-115.312 231.8605,-107.6679 221.3587,-109.0686 224.5243,-115.312"/>
</g>
<!-- leaf_5 -->
<g id="node6" class="node">
<title>leaf_5</title>
<polygon fill="none" stroke="#c0c0c0" points="145,-39.6021 59,-39.6021 59,.2021 145,.2021 145,-39.6021"/>
<text text-anchor="middle" x="102" y="-24.2" font-family="Inconsolata" font-size="14.00" fill="#000000">two blocks</text>
</g>
<!-- block_3&#45;&gt;leaf_5 -->
<g id="edge5" class="edge">
<title>block_3&#45;&gt;leaf_5</title>
<path fill="none" stroke="#000000" stroke-dasharray="5,2" d="M114.0449,-75.182C112.3555,-67.4001 110.3395,-58.1137 108.4445,-49.3852"/>
<polygon fill="#000000" stroke="#000000" points="111.8445,-48.5482 106.3025,-39.5184 105.0038,-50.0334 111.8445,-48.5482"/>
</g>
<!-- leaf_6 -->
<g id="node7" class="node">
<title>leaf_6</title>
<polygon fill="none" stroke="#c0c0c0" points="389,-39.0006 163,-39.0006 163,-.3994 389,-.3994 389,-39.0006"/>
<text text-anchor="middle" x="276" y="-23.9" font-family="Inconsolata" font-size="14.00" fill="#000000">this *is* a *simple multi line</text>
<text text-anchor="middle" x="276" y="-8.5" font-family="Inconsolata" font-size="14.00" fill="#000000">block* with nothing fancy</text>
</g>
<!-- block_4&#45;&gt;leaf_6 -->
<g id="edge6" class="edge">
<title>block_4&#45;&gt;leaf_6</title>
<path fill="none" stroke="#000000" stroke-dasharray="5,2" d="M263.9551,-75.182C265.6578,-67.3388 267.6923,-57.9674 269.6002,-49.1791"/>
<polygon fill="#000000" stroke="#000000" points="273.053,-49.7717 271.7543,-39.2568 266.2124,-48.2866 273.053,-49.7717"/>
</g>
</g>
</svg>
