<?xml version="1.0" encoding="UTF-8" standalone="no"?>
<!DOCTYPE svg PUBLIC "-//W3C//DTD SVG 1.1//EN"
 "http://www.w3.org/Graphics/SVG/1.1/DTD/svg11.dtd">
<!-- Generated by graphviz version 2.40.1 (20161225.0304)
 -->
<!-- Title: hierarchy Pages: 1 -->
<svg width="2199pt" height="508pt"
 viewBox="0.00 0.00 2198.50 508.40" xmlns="http://www.w3.org/2000/svg" xmlns:xlink="http://www.w3.org/1999/xlink">
<g id="graph0" class="graph" transform="scale(1 1) rotate(0) translate(4 504.4002)">
<title>hierarchy</title>
<polygon fill="#ffffff" stroke="transparent" points="-4,4 -4,-504.4002 2194.5,-504.4002 2194.5,4 -4,4"/>
<!-- doc_0 -->
<g id="node1" class="node">
<title>doc_0</title>
<ellipse fill="none" stroke="#000000" cx="504" cy="-482.4002" rx="42.1216" ry="18"/>
<text text-anchor="middle" x="504" y="-478.2002" font-family="Helvetica,sans-Serif" font-size="14.00" fill="#000000">doc &#45; 31</text>
</g>
<!-- section_1 -->
<g id="node2" class="node">
<title>section_1</title>
<ellipse fill="none" stroke="#000000" cx="504" cy="-410.4002" rx="55.6456" ry="18"/>
<text text-anchor="middle" x="504" y="-406.2002" font-family="Helvetica,sans-Serif" font-size="14.00" fill="#000000">section: 1&#45;5</text>
</g>
<!-- doc_0&#45;&gt;section_1 -->
<g id="edge1" class="edge">
<title>doc_0&#45;&gt;section_1</title>
<path fill="none" stroke="#000000" stroke-dasharray="5,2" d="M504,-464.2315C504,-456.5311 504,-447.3745 504,-438.8168"/>
<polygon fill="#000000" stroke="#000000" points="507.5001,-438.8134 504,-428.8135 500.5001,-438.8135 507.5001,-438.8134"/>
</g>
<!-- header_2 -->
<g id="node3" class="node">
<title>header_2</title>
<ellipse fill="none" stroke="#000000" cx="226" cy="-338.4002" rx="88.5054" ry="18"/>
<text text-anchor="middle" x="226" y="-334.2002" font-family="Helvetica,sans-Serif" font-size="14.00" fill="#000000">Ownership template</text>
</g>
<!-- section_1&#45;&gt;header_2 -->
<g id="edge2" class="edge">
<title>section_1&#45;&gt;header_2</title>
<path fill="none" stroke="#000000" stroke-dasharray="5,2" d="M460.2567,-399.071C414.7198,-387.2773 342.9024,-368.6771 290.7828,-355.1785"/>
<polygon fill="#000000" stroke="#000000" points="291.5216,-351.7544 280.9634,-352.6353 289.7665,-358.5308 291.5216,-351.7544"/>
</g>
<!-- block_3 -->
<g id="node4" class="node">
<title>block_3</title>
<ellipse fill="none" stroke="#000000" cx="379" cy="-338.4002" rx="45.9804" ry="18"/>
<text text-anchor="middle" x="379" y="-334.2002" font-family="Helvetica,sans-Serif" font-size="14.00" fill="#000000">block 1&#45;5</text>
</g>
<!-- section_1&#45;&gt;block_3 -->
<g id="edge3" class="edge">
<title>section_1&#45;&gt;block_3</title>
<path fill="none" stroke="#000000" stroke-dasharray="5,2" d="M476.5682,-394.5995C458.1209,-383.9738 433.6472,-369.877 413.8263,-358.4601"/>
<polygon fill="#000000" stroke="#000000" points="415.4975,-355.3837 405.0852,-353.4253 412.0036,-361.4494 415.4975,-355.3837"/>
</g>
<!-- section_4 -->
<g id="node5" class="node">
<title>section_4</title>
<ellipse fill="none" stroke="#000000" cx="504" cy="-338.4002" rx="60.9826" ry="18"/>
<text text-anchor="middle" x="504" y="-334.2002" font-family="Helvetica,sans-Serif" font-size="14.00" fill="#000000">section: 6&#45;10</text>
</g>
<!-- section_1&#45;&gt;section_4 -->
<g id="edge4" class="edge">
<title>section_1&#45;&gt;section_4</title>
<path fill="none" stroke="#000000" stroke-dasharray="5,2" d="M504,-392.2315C504,-384.5311 504,-375.3745 504,-366.8168"/>
<polygon fill="#000000" stroke="#000000" points="507.5001,-366.8134 504,-356.8135 500.5001,-366.8135 507.5001,-366.8134"/>
</g>
<!-- section_5 -->
<g id="node6" class="node">
<title>section_5</title>
<ellipse fill="none" stroke="#000000" cx="722" cy="-338.4002" rx="65.0143" ry="18"/>
<text text-anchor="middle" x="722" y="-334.2002" font-family="Helvetica,sans-Serif" font-size="14.00" fill="#000000">section: 11&#45;15</text>
</g>
<!-- section_1&#45;&gt;section_5 -->
<g id="edge5" class="edge">
<title>section_1&#45;&gt;section_5</title>
<path fill="none" stroke="#000000" stroke-dasharray="5,2" d="M543.2258,-397.4449C578.8234,-385.6879 631.5495,-368.2738 670.5235,-355.4016"/>
<polygon fill="#000000" stroke="#000000" points="671.7193,-358.6927 680.1171,-352.2331 669.5239,-352.0458 671.7193,-358.6927"/>
</g>
<!-- section_6 -->
<g id="node7" class="node">
<title>section_6</title>
<ellipse fill="none" stroke="#000000" cx="1430" cy="-338.4002" rx="65.8187" ry="18"/>
<text text-anchor="middle" x="1430" y="-334.2002" font-family="Helvetica,sans-Serif" font-size="14.00" fill="#000000">section: 21&#45;27</text>
</g>
<!-- section_1&#45;&gt;section_6 -->
<g id="edge6" class="edge">
<title>section_1&#45;&gt;section_6</title>
<path fill="none" stroke="#000000" stroke-dasharray="5,2" d="M558.4684,-406.1651C716.6733,-393.864 1176.3339,-358.1237 1356.4131,-344.1219"/>
<polygon fill="#000000" stroke="#000000" points="1356.8816,-347.5961 1366.5802,-343.3313 1356.3389,-340.6171 1356.8816,-347.5961"/>
</g>
<!-- leaf_7 -->
<g id="node8" class="node">
<title>leaf_7</title>
<polygon fill="none" stroke="#c0c0c0" points="268,-284.3005 0,-284.3005 0,-213.6998 268,-213.6998 268,-284.3005"/>
<text text-anchor="middle" x="134" y="-253.2002" font-family="Inconsolata" font-size="14.00" fill="#000000">Here&#39;s two lines,</text>
<text text-anchor="middle" x="134" y="-237.8002" font-family="Inconsolata" font-size="14.00" fill="#000000">owned at the top/first header level.</text>
</g>
<!-- block_3&#45;&gt;leaf_7 -->
<g id="edge7" class="edge">
<title>block_3&#45;&gt;leaf_7</title>
<path fill="none" stroke="#000000" stroke-dasharray="5,2" d="M345.191,-326.0634C317.9629,-316.1279 278.1348,-301.5947 240.3846,-287.8197"/>
<polygon fill="#000000" stroke="#000000" points="241.4347,-284.4772 230.8408,-284.3372 239.0351,-291.0531 241.4347,-284.4772"/>
</g>
<!-- header_8 -->
<g id="node9" class="node">
<title>header_8</title>
<ellipse fill="none" stroke="#000000" cx="361" cy="-249.0002" rx="74.5139" ry="18"/>
<text text-anchor="middle" x="361" y="-244.8002" font-family="Helvetica,sans-Serif" font-size="14.00" fill="#000000">Second level H3</text>
</g>
<!-- section_4&#45;&gt;header_8 -->
<g id="edge8" class="edge">
<title>section_4&#45;&gt;header_8</title>
<path fill="none" stroke="#000000" stroke-dasharray="5,2" d="M477.7716,-322.0028C454.9796,-307.7538 421.7614,-286.9867 396.5766,-271.2418"/>
<polygon fill="#000000" stroke="#000000" points="398.3685,-268.2343 388.0338,-265.901 394.6577,-274.1699 398.3685,-268.2343"/>
</g>
<!-- block_9 -->
<g id="node10" class="node">
<title>block_9</title>
<ellipse fill="none" stroke="#000000" cx="504" cy="-249.0002" rx="50.8172" ry="18"/>
<text text-anchor="middle" x="504" y="-244.8002" font-family="Helvetica,sans-Serif" font-size="14.00" fill="#000000">block 6&#45;10</text>
</g>
<!-- section_4&#45;&gt;block_9 -->
<g id="edge9" class="edge">
<title>section_4&#45;&gt;block_9</title>
<path fill="none" stroke="#000000" stroke-dasharray="5,2" d="M504,-320.3088C504,-307.9488 504,-291.3214 504,-277.2317"/>
<polygon fill="#000000" stroke="#000000" points="507.5001,-277.0646 504,-267.0647 500.5001,-277.0647 507.5001,-277.0646"/>
</g>
<!-- header_11 -->
<g id="node12" class="node">
<title>header_11</title>
<ellipse fill="none" stroke="#000000" cx="647" cy="-249.0002" rx="74.5139" ry="18"/>
<text text-anchor="middle" x="647" y="-244.8002" font-family="Helvetica,sans-Serif" font-size="14.00" fill="#000000">Second level H2</text>
</g>
<!-- section_5&#45;&gt;header_11 -->
<g id="edge11" class="edge">
<title>section_5&#45;&gt;header_11</title>
<path fill="none" stroke="#000000" stroke-dasharray="5,2" d="M707.1824,-320.7376C696.1604,-307.5994 680.9507,-289.4694 668.5797,-274.7231"/>
<polygon fill="#000000" stroke="#000000" points="671.152,-272.3437 662.0435,-266.932 665.7893,-276.8427 671.152,-272.3437"/>
</g>
<!-- block_12 -->
<g id="node13" class="node">
<title>block_12</title>
<ellipse fill="none" stroke="#000000" cx="795" cy="-249.0002" rx="55.3502" ry="18"/>
<text text-anchor="middle" x="795" y="-244.8002" font-family="Helvetica,sans-Serif" font-size="14.00" fill="#000000">block 11&#45;15</text>
</g>
<!-- section_5&#45;&gt;block_12 -->
<g id="edge12" class="edge">
<title>section_5&#45;&gt;block_12</title>
<path fill="none" stroke="#000000" stroke-dasharray="5,2" d="M736.4225,-320.7376C747.2207,-307.5135 762.1483,-289.2322 774.2315,-274.4344"/>
<polygon fill="#000000" stroke="#000000" points="776.9937,-276.5855 780.6075,-266.626 771.5716,-272.1581 776.9937,-276.5855"/>
</g>
<!-- section_13 -->
<g id="node14" class="node">
<title>section_13</title>
<ellipse fill="none" stroke="#000000" cx="990" cy="-249.0002" rx="65.8187" ry="18"/>
<text text-anchor="middle" x="990" y="-244.8002" font-family="Helvetica,sans-Serif" font-size="14.00" fill="#000000">section: 16&#45;20</text>
</g>
<!-- section_5&#45;&gt;section_13 -->
<g id="edge13" class="edge">
<title>section_5&#45;&gt;section_13</title>
<path fill="none" stroke="#000000" stroke-dasharray="5,2" d="M763.581,-324.5295C810.6806,-308.8179 887.4811,-283.1986 938.3764,-266.2209"/>
<polygon fill="#000000" stroke="#000000" points="939.5006,-269.5355 947.8792,-263.0509 937.2855,-262.8952 939.5006,-269.5355"/>
</g>
<!-- header_18 -->
<g id="node19" class="node">
<title>header_18</title>
<ellipse fill="none" stroke="#000000" cx="1255" cy="-249.0002" rx="101.1006" ry="18"/>
<text text-anchor="middle" x="1255" y="-244.8002" font-family="Helvetica,sans-Serif" font-size="14.00" fill="#000000">Redux second level H2</text>
</g>
<!-- section_6&#45;&gt;header_18 -->
<g id="edge18" class="edge">
<title>section_6&#45;&gt;header_18</title>
<path fill="none" stroke="#000000" stroke-dasharray="5,2" d="M1398.7135,-322.4173C1370.4378,-307.9724 1328.5805,-286.5893 1297.3226,-270.621"/>
<polygon fill="#000000" stroke="#000000" points="1298.8966,-267.4948 1288.3991,-266.0623 1295.712,-273.7285 1298.8966,-267.4948"/>
</g>
<!-- block_19 -->
<g id="node20" class="node">
<title>block_19</title>
<ellipse fill="none" stroke="#000000" cx="1430" cy="-249.0002" rx="55.6542" ry="18"/>
<text text-anchor="middle" x="1430" y="-244.8002" font-family="Helvetica,sans-Serif" font-size="14.00" fill="#000000">block 21&#45;25</text>
</g>
<!-- section_6&#45;&gt;block_19 -->
<g id="edge19" class="edge">
<title>section_6&#45;&gt;block_19</title>
<path fill="none" stroke="#000000" stroke-dasharray="5,2" d="M1430,-320.3088C1430,-307.9488 1430,-291.3214 1430,-277.2317"/>
<polygon fill="#000000" stroke="#000000" points="1433.5001,-277.0646 1430,-267.0647 1426.5001,-277.0647 1433.5001,-277.0646"/>
</g>
<!-- block_20 -->
<g id="node21" class="node">
<title>block_20</title>
<ellipse fill="none" stroke="#000000" cx="1610" cy="-249.0002" rx="55.6542" ry="18"/>
<text text-anchor="middle" x="1610" y="-244.8002" font-family="Helvetica,sans-Serif" font-size="14.00" fill="#000000">block 26&#45;27</text>
</g>
<!-- section_6&#45;&gt;block_20 -->
<g id="edge20" class="edge">
<title>section_6&#45;&gt;block_20</title>
<path fill="none" stroke="#000000" stroke-dasharray="5,2" d="M1461.766,-322.623C1491.9877,-307.613 1537.562,-284.9777 1570.1939,-268.7705"/>
<polygon fill="#000000" stroke="#000000" points="1572.0526,-271.7553 1579.4519,-264.1724 1568.9388,-265.486 1572.0526,-271.7553"/>
</g>
<!-- section_21 -->
<g id="node22" class="node">
<title>section_21</title>
<ellipse fill="none" stroke="#000000" cx="1922" cy="-249.0002" rx="65.8187" ry="18"/>
<text text-anchor="middle" x="1922" y="-244.8002" font-family="Helvetica,sans-Serif" font-size="14.00" fill="#000000">section: 28&#45;31</text>
</g>
<!-- section_6&#45;&gt;section_21 -->
<g id="edge21" class="edge">
<title>section_6&#45;&gt;section_21</title>
<path fill="none" stroke="#000000" stroke-dasharray="5,2" d="M1485.0065,-328.4051C1576.4305,-311.7927 1759.2436,-278.5742 1856.9284,-260.8242"/>
<polygon fill="#000000" stroke="#000000" points="1857.7585,-264.2307 1866.9717,-258.9992 1856.507,-257.3435 1857.7585,-264.2307"/>
</g>
<!-- leaf_10 -->
<g id="node11" class="node">
<title>leaf_10</title>
<polygon fill="none" stroke="#c0c0c0" points="550.5,-177.5004 205.5,-177.5004 205.5,-106.8997 550.5,-106.8997 550.5,-177.5004"/>
<text text-anchor="middle" x="378" y="-146.4001" font-family="Inconsolata" font-size="14.00" fill="#000000">These lines are owned directly under the first,</text>
<text text-anchor="middle" x="378" y="-131.0001" font-family="Inconsolata" font-size="14.00" fill="#000000">at header level 3. &#160;Extra post&#45;tar whitespace.</text>
</g>
<!-- block_9&#45;&gt;leaf_10 -->
<g id="edge10" class="edge">
<title>block_9&#45;&gt;leaf_10</title>
<path fill="none" stroke="#000000" stroke-dasharray="5,2" d="M484.3125,-232.3126C469.0979,-219.4164 447.3511,-200.9834 427.4856,-184.1451"/>
<polygon fill="#000000" stroke="#000000" points="429.5852,-181.3365 419.6937,-177.5405 425.059,-186.6764 429.5852,-181.3365"/>
</g>
<!-- leaf_14 -->
<g id="node15" class="node">
<title>leaf_14</title>
<polygon fill="none" stroke="#c0c0c0" points="907,-177.5004 569,-177.5004 569,-106.8997 907,-106.8997 907,-177.5004"/>
<text text-anchor="middle" x="738" y="-146.4001" font-family="Inconsolata" font-size="14.00" fill="#000000">Here we have header level 2, also owned at the</text>
<text text-anchor="middle" x="738" y="-131.0001" font-family="Inconsolata" font-size="14.00" fill="#000000">second level.</text>
</g>
<!-- block_12&#45;&gt;leaf_14 -->
<g id="edge14" class="edge">
<title>block_12&#45;&gt;leaf_14</title>
<path fill="none" stroke="#000000" stroke-dasharray="5,2" d="M785.3307,-230.883C778.8522,-218.7442 770.0239,-202.2028 761.7462,-186.6929"/>
<polygon fill="#000000" stroke="#000000" points="764.7542,-184.8954 756.9579,-177.7212 758.5786,-188.1914 764.7542,-184.8954"/>
</g>
<!-- header_15 -->
<g id="node16" class="node">
<title>header_15</title>
<ellipse fill="none" stroke="#000000" cx="990" cy="-142.2001" rx="64.8238" ry="18"/>
<text text-anchor="middle" x="990" y="-138.0001" font-family="Helvetica,sans-Serif" font-size="14.00" fill="#000000">Third level H3</text>
</g>
<!-- section_13&#45;&gt;header_15 -->
<g id="edge15" class="edge">
<title>section_13&#45;&gt;header_15</title>
<path fill="none" stroke="#000000" stroke-dasharray="5,2" d="M990,-230.883C990,-214.3891 990,-189.7666 990,-170.6484"/>
<polygon fill="#000000" stroke="#000000" points="993.5001,-170.4061 990,-160.4061 986.5001,-170.4062 993.5001,-170.4061"/>
</g>
<!-- block_16 -->
<g id="node17" class="node">
<title>block_16</title>
<ellipse fill="none" stroke="#000000" cx="1128" cy="-142.2001" rx="55.6542" ry="18"/>
<text text-anchor="middle" x="1128" y="-138.0001" font-family="Helvetica,sans-Serif" font-size="14.00" fill="#000000">block 16&#45;20</text>
</g>
<!-- section_13&#45;&gt;block_16 -->
<g id="edge16" class="edge">
<title>section_13&#45;&gt;block_16</title>
<path fill="none" stroke="#000000" stroke-dasharray="5,2" d="M1012.1721,-231.8409C1035.547,-213.7507 1072.4975,-185.1542 1098.3614,-165.1378"/>
<polygon fill="#000000" stroke="#000000" points="1100.5717,-167.853 1106.3379,-158.9647 1096.2875,-162.3171 1100.5717,-167.853"/>
</g>
<!-- leaf_17 -->
<g id="node18" class="node">
<title>leaf_17</title>
<polygon fill="none" stroke="#c0c0c0" points="1297,-70.7004 959,-70.7004 959,-.0997 1297,-.0997 1297,-70.7004"/>
<text text-anchor="middle" x="1128" y="-39.6001" font-family="Inconsolata" font-size="14.00" fill="#000000">This block is owned under the second level H2,</text>
<text text-anchor="middle" x="1128" y="-24.2" font-family="Inconsolata" font-size="14.00" fill="#000000">and is at the third level. It is also H3.</text>
</g>
<!-- block_16&#45;&gt;leaf_17 -->
<g id="edge17" class="edge">
<title>block_16&#45;&gt;leaf_17</title>
<path fill="none" stroke="#000000" stroke-dasharray="5,2" d="M1128,-124.0829C1128,-112.2845 1128,-96.3268 1128,-81.1997"/>
<polygon fill="#000000" stroke="#000000" points="1131.5001,-80.9211 1128,-70.9212 1124.5001,-80.9212 1131.5001,-80.9211"/>
</g>
<!-- leaf_22 -->
<g id="node23" class="node">
<title>leaf_22</title>
<polygon fill="none" stroke="#c0c0c0" points="1560.5,-177.5004 1201.5,-177.5004 1201.5,-106.8997 1560.5,-106.8997 1560.5,-177.5004"/>
<text text-anchor="middle" x="1381" y="-146.4001" font-family="Inconsolata" font-size="14.00" fill="#000000">This escapes the above ownership and puts another</text>
<text text-anchor="middle" x="1381" y="-131.0001" font-family="Inconsolata" font-size="14.00" fill="#000000">block on the second level.</text>
</g>
<!-- block_19&#45;&gt;leaf_22 -->
<g id="edge22" class="edge">
<title>block_19&#45;&gt;leaf_22</title>
<path fill="none" stroke="#000000" stroke-dasharray="5,2" d="M1421.6878,-230.883C1416.1706,-218.8577 1408.671,-202.5116 1401.613,-187.128"/>
<polygon fill="#000000" stroke="#000000" points="1404.6484,-185.3507 1397.2971,-177.7212 1398.2861,-188.2698 1404.6484,-185.3507"/>
</g>
<!-- leaf_23 -->
<g id="node24" class="node">
<title>leaf_23</title>
<polygon fill="none" stroke="#c0c0c0" points="1839.5,-162.1022 1578.5,-162.1022 1578.5,-122.298 1839.5,-122.298 1839.5,-162.1022"/>
<text text-anchor="middle" x="1709" y="-146.7001" font-family="Inconsolata" font-size="14.00" fill="#000000">This will have two chunks under it.</text>
</g>
<!-- block_20&#45;&gt;leaf_23 -->
<g id="edge23" class="edge">
<title>block_20&#45;&gt;leaf_23</title>
<path fill="none" stroke="#000000" stroke-dasharray="5,2" d="M1626.3478,-231.3643C1641.9596,-214.5226 1665.7137,-188.8969 1683.7564,-169.4326"/>
<polygon fill="#000000" stroke="#000000" points="1686.3759,-171.7552 1690.6073,-162.042 1681.2422,-166.9964 1686.3759,-171.7552"/>
</g>
<!-- header_24 -->
<g id="node25" class="node">
<title>header_24</title>
<ellipse fill="none" stroke="#000000" cx="1922" cy="-142.2001" rx="64.8238" ry="18"/>
<text text-anchor="middle" x="1922" y="-138.0001" font-family="Helvetica,sans-Serif" font-size="14.00" fill="#000000">Third level H4</text>
</g>
<!-- section_21&#45;&gt;header_24 -->
<g id="edge24" class="edge">
<title>section_21&#45;&gt;header_24</title>
<path fill="none" stroke="#000000" stroke-dasharray="5,2" d="M1922,-230.883C1922,-214.3891 1922,-189.7666 1922,-170.6484"/>
<polygon fill="#000000" stroke="#000000" points="1925.5001,-170.4061 1922,-160.4061 1918.5001,-170.4062 1925.5001,-170.4061"/>
</g>
<!-- block_25 -->
<g id="node26" class="node">
<title>block_25</title>
<ellipse fill="none" stroke="#000000" cx="2060" cy="-142.2001" rx="55.6542" ry="18"/>
<text text-anchor="middle" x="2060" y="-138.0001" font-family="Helvetica,sans-Serif" font-size="14.00" fill="#000000">block 28&#45;31</text>
</g>
<!-- section_21&#45;&gt;block_25 -->
<g id="edge25" class="edge">
<title>section_21&#45;&gt;block_25</title>
<path fill="none" stroke="#000000" stroke-dasharray="5,2" d="M1944.1721,-231.8409C1967.547,-213.7507 2004.4975,-185.1542 2030.3614,-165.1378"/>
<polygon fill="#000000" stroke="#000000" points="2032.5717,-167.853 2038.3379,-158.9647 2028.2875,-162.3171 2032.5717,-167.853"/>
</g>
<!-- leaf_26 -->
<g id="node27" class="node">
<title>leaf_26</title>
<polygon fill="none" stroke="#c0c0c0" points="2190.5,-63.3015 1929.5,-63.3015 1929.5,-7.4985 2190.5,-7.4985 2190.5,-63.3015"/>
<text text-anchor="middle" x="2060" y="-31.9" font-family="Inconsolata" font-size="14.00" fill="#000000">This is chunked at the third level.</text>
</g>
<!-- block_25&#45;&gt;leaf_26 -->
<g id="edge26" class="edge">
<title>block_25&#45;&gt;leaf_26</title>
<path fill="none" stroke="#000000" stroke-dasharray="5,2" d="M2060,-124.0829C2060,-110.2834 2060,-90.794 2060,-73.5987"/>
<polygon fill="#000000" stroke="#000000" points="2063.5001,-73.26 2060,-63.26 2056.5001,-73.2601 2063.5001,-73.26"/>
</g>
</g>
</svg>
