<?xml version="1.0" encoding="UTF-8" standalone="no"?>
<!DOCTYPE svg PUBLIC "-//W3C//DTD SVG 1.1//EN"
 "http://www.w3.org/Graphics/SVG/1.1/DTD/svg11.dtd">
<!-- Generated by graphviz version 2.40.1 (20161225.0304)
 -->
<!-- Title: hierarchy Pages: 1 -->
<svg width="2293pt" height="508pt"
 viewBox="0.00 0.00 2292.50 508.40" xmlns="http://www.w3.org/2000/svg" xmlns:xlink="http://www.w3.org/1999/xlink">
<g id="graph0" class="graph" transform="scale(1 1) rotate(0) translate(4 504.4002)">
<title>hierarchy</title>
<polygon fill="#ffffff" stroke="transparent" points="-4,4 -4,-504.4002 2288.5,-504.4002 2288.5,4 -4,4"/>
<!-- doc_0 -->
<g id="node1" class="node">
<title>doc_0</title>
<ellipse fill="none" stroke="#000000" cx="529" cy="-482.4002" rx="42.1216" ry="18"/>
<text text-anchor="middle" x="529" y="-478.2002" font-family="Helvetica,sans-Serif" font-size="14.00" fill="#000000">doc &#45; 31</text>
</g>
<!-- section_1 -->
<g id="node2" class="node">
<title>section_1</title>
<ellipse fill="none" stroke="#000000" cx="529" cy="-410.4002" rx="60.9826" ry="18"/>
<text text-anchor="middle" x="529" y="-406.2002" font-family="Helvetica,sans-Serif" font-size="14.00" fill="#000000">section: 1&#45;20</text>
</g>
<!-- doc_0&#45;&gt;section_1 -->
<g id="edge1" class="edge">
<title>doc_0&#45;&gt;section_1</title>
<path fill="none" stroke="#000000" stroke-dasharray="5,2" d="M529,-464.2315C529,-456.5311 529,-447.3745 529,-438.8168"/>
<polygon fill="#000000" stroke="#000000" points="532.5001,-438.8134 529,-428.8135 525.5001,-438.8135 532.5001,-438.8134"/>
</g>
<!-- header_2 -->
<g id="node3" class="node">
<title>header_2</title>
<ellipse fill="none" stroke="#000000" cx="229" cy="-338.4002" rx="101.0833" ry="18"/>
<text text-anchor="middle" x="229" y="-334.2002" font-family="Helvetica,sans-Serif" font-size="14.00" fill="#000000">1 : Ownership template</text>
</g>
<!-- section_1&#45;&gt;header_2 -->
<g id="edge2" class="edge">
<title>section_1&#45;&gt;header_2</title>
<path fill="none" stroke="#000000" stroke-dasharray="5,2" d="M481.795,-399.071C432.7615,-387.3029 355.491,-368.758 299.2772,-355.2667"/>
<polygon fill="#000000" stroke="#000000" points="299.9309,-351.8243 289.3901,-352.8938 298.2972,-358.631 299.9309,-351.8243"/>
</g>
<!-- block_3 -->
<g id="node4" class="node">
<title>block_3</title>
<ellipse fill="none" stroke="#000000" cx="399" cy="-338.4002" rx="50.8172" ry="18"/>
<text text-anchor="middle" x="399" y="-334.2002" font-family="Helvetica,sans-Serif" font-size="14.00" fill="#000000">block 1&#45;20</text>
</g>
<!-- section_1&#45;&gt;block_3 -->
<g id="edge3" class="edge">
<title>section_1&#45;&gt;block_3</title>
<path fill="none" stroke="#000000" stroke-dasharray="5,2" d="M500.1488,-394.4211C480.9917,-383.811 455.692,-369.7988 435.1879,-358.4427"/>
<polygon fill="#000000" stroke="#000000" points="436.8793,-355.3786 426.4356,-353.5953 433.4878,-361.5021 436.8793,-355.3786"/>
</g>
<!-- section_4 -->
<g id="node5" class="node">
<title>section_4</title>
<ellipse fill="none" stroke="#000000" cx="529" cy="-338.4002" rx="60.9826" ry="18"/>
<text text-anchor="middle" x="529" y="-334.2002" font-family="Helvetica,sans-Serif" font-size="14.00" fill="#000000">section: 6&#45;10</text>
</g>
<!-- section_1&#45;&gt;section_4 -->
<g id="edge4" class="edge">
<title>section_1&#45;&gt;section_4</title>
<path fill="none" stroke="#000000" stroke-dasharray="5,2" d="M529,-392.2315C529,-384.5311 529,-375.3745 529,-366.8168"/>
<polygon fill="#000000" stroke="#000000" points="532.5001,-366.8134 529,-356.8135 525.5001,-366.8135 532.5001,-366.8134"/>
</g>
<!-- section_5 -->
<g id="node6" class="node">
<title>section_5</title>
<ellipse fill="none" stroke="#000000" cx="765" cy="-338.4002" rx="65.0143" ry="18"/>
<text text-anchor="middle" x="765" y="-334.2002" font-family="Helvetica,sans-Serif" font-size="14.00" fill="#000000">section: 11&#45;15</text>
</g>
<!-- section_1&#45;&gt;section_5 -->
<g id="edge5" class="edge">
<title>section_1&#45;&gt;section_5</title>
<path fill="none" stroke="#000000" stroke-dasharray="5,2" d="M571.4646,-397.4449C610.7388,-385.4629 669.2723,-367.6052 711.6786,-354.6677"/>
<polygon fill="#000000" stroke="#000000" points="712.7346,-358.0049 721.278,-351.7391 710.6919,-351.3096 712.7346,-358.0049"/>
</g>
<!-- section_6 -->
<g id="node7" class="node">
<title>section_6</title>
<ellipse fill="none" stroke="#000000" cx="1499" cy="-338.4002" rx="65.8187" ry="18"/>
<text text-anchor="middle" x="1499" y="-334.2002" font-family="Helvetica,sans-Serif" font-size="14.00" fill="#000000">section: 21&#45;27</text>
</g>
<!-- section_1&#45;&gt;section_6 -->
<g id="edge6" class="edge">
<title>section_1&#45;&gt;section_6</title>
<path fill="none" stroke="#000000" stroke-dasharray="5,2" d="M588.2177,-406.0046C756.9637,-393.4792 1240.027,-357.6229 1425.3716,-343.8654"/>
<polygon fill="#000000" stroke="#000000" points="1425.8469,-347.3398 1435.5603,-343.1091 1425.3287,-340.359 1425.8469,-347.3398"/>
</g>
<!-- leaf_7 -->
<g id="node8" class="node">
<title>leaf_7</title>
<polygon fill="none" stroke="#c0c0c0" points="268,-284.3005 0,-284.3005 0,-213.6998 268,-213.6998 268,-284.3005"/>
<text text-anchor="middle" x="134" y="-253.2002" font-family="Inconsolata" font-size="14.00" fill="#000000">Here&#39;s two lines,</text>
<text text-anchor="middle" x="134" y="-237.8002" font-family="Inconsolata" font-size="14.00" fill="#000000">owned at the top/first header level.</text>
</g>
<!-- block_3&#45;&gt;leaf_7 -->
<g id="edge7" class="edge">
<title>block_3&#45;&gt;leaf_7</title>
<path fill="none" stroke="#000000" stroke-dasharray="5,2" d="M362.1529,-325.9695C332.5326,-315.9768 289.2565,-301.3773 248.3362,-287.5725"/>
<polygon fill="#000000" stroke="#000000" points="249.4184,-284.2438 238.8242,-284.3635 247.1807,-290.8765 249.4184,-284.2438"/>
</g>
<!-- header_8 -->
<g id="node9" class="node">
<title>header_8</title>
<ellipse fill="none" stroke="#000000" cx="373" cy="-249.0002" rx="86.593" ry="18"/>
<text text-anchor="middle" x="373" y="-244.8002" font-family="Helvetica,sans-Serif" font-size="14.00" fill="#000000">3 : Second level H3</text>
</g>
<!-- section_4&#45;&gt;header_8 -->
<g id="edge8" class="edge">
<title>section_4&#45;&gt;header_8</title>
<path fill="none" stroke="#000000" stroke-dasharray="5,2" d="M500.7496,-322.2105C475.8219,-307.925 439.2594,-286.9719 411.6299,-271.138"/>
<polygon fill="#000000" stroke="#000000" points="413.0486,-267.9171 402.632,-265.9816 409.568,-273.9905 413.0486,-267.9171"/>
</g>
<!-- block_9 -->
<g id="node10" class="node">
<title>block_9</title>
<ellipse fill="none" stroke="#000000" cx="529" cy="-249.0002" rx="50.8172" ry="18"/>
<text text-anchor="middle" x="529" y="-244.8002" font-family="Helvetica,sans-Serif" font-size="14.00" fill="#000000">block 6&#45;10</text>
</g>
<!-- section_4&#45;&gt;block_9 -->
<g id="edge9" class="edge">
<title>section_4&#45;&gt;block_9</title>
<path fill="none" stroke="#000000" stroke-dasharray="5,2" d="M529,-320.3088C529,-307.9488 529,-291.3214 529,-277.2317"/>
<polygon fill="#000000" stroke="#000000" points="532.5001,-277.0646 529,-267.0647 525.5001,-277.0647 532.5001,-277.0646"/>
</g>
<!-- header_11 -->
<g id="node12" class="node">
<title>header_11</title>
<ellipse fill="none" stroke="#000000" cx="685" cy="-249.0002" rx="86.593" ry="18"/>
<text text-anchor="middle" x="685" y="-244.8002" font-family="Helvetica,sans-Serif" font-size="14.00" fill="#000000">2 : Second level H2</text>
</g>
<!-- section_5&#45;&gt;header_11 -->
<g id="edge11" class="edge">
<title>section_5&#45;&gt;header_11</title>
<path fill="none" stroke="#000000" stroke-dasharray="5,2" d="M749.1946,-320.7376C737.4377,-307.5994 721.2141,-289.4694 708.0183,-274.7231"/>
<polygon fill="#000000" stroke="#000000" points="710.3231,-272.0501 701.0464,-266.932 705.1067,-276.718 710.3231,-272.0501"/>
</g>
<!-- block_12 -->
<g id="node13" class="node">
<title>block_12</title>
<ellipse fill="none" stroke="#000000" cx="845" cy="-249.0002" rx="55.3502" ry="18"/>
<text text-anchor="middle" x="845" y="-244.8002" font-family="Helvetica,sans-Serif" font-size="14.00" fill="#000000">block 11&#45;15</text>
</g>
<!-- section_5&#45;&gt;block_12 -->
<g id="edge12" class="edge">
<title>section_5&#45;&gt;block_12</title>
<path fill="none" stroke="#000000" stroke-dasharray="5,2" d="M780.8054,-320.7376C792.7159,-307.4276 809.2108,-288.9946 822.4976,-274.1466"/>
<polygon fill="#000000" stroke="#000000" points="825.4394,-276.1078 829.4996,-266.3218 820.223,-271.4399 825.4394,-276.1078"/>
</g>
<!-- section_13 -->
<g id="node14" class="node">
<title>section_13</title>
<ellipse fill="none" stroke="#000000" cx="1046" cy="-249.0002" rx="65.8187" ry="18"/>
<text text-anchor="middle" x="1046" y="-244.8002" font-family="Helvetica,sans-Serif" font-size="14.00" fill="#000000">section: 16&#45;20</text>
</g>
<!-- section_5&#45;&gt;section_13 -->
<g id="edge13" class="edge">
<title>section_5&#45;&gt;section_13</title>
<path fill="none" stroke="#000000" stroke-dasharray="5,2" d="M807.6779,-324.8222C857.3985,-309.0036 939.5663,-282.862 993.2436,-265.7846"/>
<polygon fill="#000000" stroke="#000000" points="994.4523,-269.073 1002.9205,-262.7059 992.33,-262.4024 994.4523,-269.073"/>
</g>
<!-- header_18 -->
<g id="node19" class="node">
<title>header_18</title>
<ellipse fill="none" stroke="#000000" cx="1312" cy="-249.0002" rx="113.1794" ry="18"/>
<text text-anchor="middle" x="1312" y="-244.8002" font-family="Helvetica,sans-Serif" font-size="14.00" fill="#000000">2 : Redux second level H2</text>
</g>
<!-- section_6&#45;&gt;header_18 -->
<g id="edge18" class="edge">
<title>section_6&#45;&gt;header_18</title>
<path fill="none" stroke="#000000" stroke-dasharray="5,2" d="M1465.9986,-322.623C1435.7129,-308.1442 1390.5864,-286.5703 1357.0027,-270.5148"/>
<polygon fill="#000000" stroke="#000000" points="1358.39,-267.2987 1347.8584,-266.1432 1355.3708,-273.6141 1358.39,-267.2987"/>
</g>
<!-- block_19 -->
<g id="node20" class="node">
<title>block_19</title>
<ellipse fill="none" stroke="#000000" cx="1499" cy="-249.0002" rx="55.6542" ry="18"/>
<text text-anchor="middle" x="1499" y="-244.8002" font-family="Helvetica,sans-Serif" font-size="14.00" fill="#000000">block 21&#45;25</text>
</g>
<!-- section_6&#45;&gt;block_19 -->
<g id="edge19" class="edge">
<title>section_6&#45;&gt;block_19</title>
<path fill="none" stroke="#000000" stroke-dasharray="5,2" d="M1499,-320.3088C1499,-307.9488 1499,-291.3214 1499,-277.2317"/>
<polygon fill="#000000" stroke="#000000" points="1502.5001,-277.0646 1499,-267.0647 1495.5001,-277.0647 1502.5001,-277.0646"/>
</g>
<!-- block_20 -->
<g id="node21" class="node">
<title>block_20</title>
<ellipse fill="none" stroke="#000000" cx="1679" cy="-249.0002" rx="55.6542" ry="18"/>
<text text-anchor="middle" x="1679" y="-244.8002" font-family="Helvetica,sans-Serif" font-size="14.00" fill="#000000">block 26&#45;27</text>
</g>
<!-- section_6&#45;&gt;block_20 -->
<g id="edge20" class="edge">
<title>section_6&#45;&gt;block_20</title>
<path fill="none" stroke="#000000" stroke-dasharray="5,2" d="M1530.766,-322.623C1560.9877,-307.613 1606.562,-284.9777 1639.1939,-268.7705"/>
<polygon fill="#000000" stroke="#000000" points="1641.0526,-271.7553 1648.4519,-264.1724 1637.9388,-265.486 1641.0526,-271.7553"/>
</g>
<!-- section_21 -->
<g id="node22" class="node">
<title>section_21</title>
<ellipse fill="none" stroke="#000000" cx="2003" cy="-249.0002" rx="65.8187" ry="18"/>
<text text-anchor="middle" x="2003" y="-244.8002" font-family="Helvetica,sans-Serif" font-size="14.00" fill="#000000">section: 28&#45;31</text>
</g>
<!-- section_6&#45;&gt;section_21 -->
<g id="edge21" class="edge">
<title>section_6&#45;&gt;section_21</title>
<path fill="none" stroke="#000000" stroke-dasharray="5,2" d="M1554.3785,-328.5771C1648.0762,-311.9569 1837.4309,-278.369 1937.539,-260.6117"/>
<polygon fill="#000000" stroke="#000000" points="1938.2949,-264.0323 1947.5299,-258.8395 1937.0723,-257.1399 1938.2949,-264.0323"/>
</g>
<!-- leaf_10 -->
<g id="node11" class="node">
<title>leaf_10</title>
<polygon fill="none" stroke="#c0c0c0" points="594.5,-177.5004 249.5,-177.5004 249.5,-106.8997 594.5,-106.8997 594.5,-177.5004"/>
<text text-anchor="middle" x="422" y="-146.4001" font-family="Inconsolata" font-size="14.00" fill="#000000">These lines are owned directly under the first,</text>
<text text-anchor="middle" x="422" y="-131.0001" font-family="Inconsolata" font-size="14.00" fill="#000000">at header level 3. &#160;Extra post&#45;tar whitespace.</text>
</g>
<!-- block_9&#45;&gt;leaf_10 -->
<g id="edge10" class="edge">
<title>block_9&#45;&gt;leaf_10</title>
<path fill="none" stroke="#000000" stroke-dasharray="5,2" d="M511.8086,-231.8409C499.2062,-219.2621 481.5146,-201.6035 465.1624,-185.2818"/>
<polygon fill="#000000" stroke="#000000" points="467.3169,-182.4871 457.7666,-177.8998 462.3717,-187.4415 467.3169,-182.4871"/>
</g>
<!-- leaf_14 -->
<g id="node15" class="node">
<title>leaf_14</title>
<polygon fill="none" stroke="#c0c0c0" points="951,-177.5004 613,-177.5004 613,-106.8997 951,-106.8997 951,-177.5004"/>
<text text-anchor="middle" x="782" y="-146.4001" font-family="Inconsolata" font-size="14.00" fill="#000000">Here we have header level 2, also owned at the</text>
<text text-anchor="middle" x="782" y="-131.0001" font-family="Inconsolata" font-size="14.00" fill="#000000">second level.</text>
</g>
<!-- block_12&#45;&gt;leaf_14 -->
<g id="edge14" class="edge">
<title>block_12&#45;&gt;leaf_14</title>
<path fill="none" stroke="#000000" stroke-dasharray="5,2" d="M834.3129,-230.883C827.1524,-218.7442 817.3948,-202.2028 808.2457,-186.6929"/>
<polygon fill="#000000" stroke="#000000" points="811.0489,-184.5561 802.9535,-177.7212 805.0197,-188.1126 811.0489,-184.5561"/>
</g>
<!-- header_15 -->
<g id="node16" class="node">
<title>header_15</title>
<ellipse fill="none" stroke="#000000" cx="1046" cy="-142.2001" rx="76.5916" ry="18"/>
<text text-anchor="middle" x="1046" y="-138.0001" font-family="Helvetica,sans-Serif" font-size="14.00" fill="#000000">3 : Third level H3</text>
</g>
<!-- section_13&#45;&gt;header_15 -->
<g id="edge15" class="edge">
<title>section_13&#45;&gt;header_15</title>
<path fill="none" stroke="#000000" stroke-dasharray="5,2" d="M1046,-230.883C1046,-214.3891 1046,-189.7666 1046,-170.6484"/>
<polygon fill="#000000" stroke="#000000" points="1049.5001,-170.4061 1046,-160.4061 1042.5001,-170.4062 1049.5001,-170.4061"/>
</g>
<!-- block_16 -->
<g id="node17" class="node">
<title>block_16</title>
<ellipse fill="none" stroke="#000000" cx="1197" cy="-142.2001" rx="55.6542" ry="18"/>
<text text-anchor="middle" x="1197" y="-138.0001" font-family="Helvetica,sans-Serif" font-size="14.00" fill="#000000">block 16&#45;20</text>
</g>
<!-- section_13&#45;&gt;block_16 -->
<g id="edge16" class="edge">
<title>section_13&#45;&gt;block_16</title>
<path fill="none" stroke="#000000" stroke-dasharray="5,2" d="M1069.9264,-232.0774C1095.7008,-213.8475 1136.8357,-184.7534 1165.2894,-164.6285"/>
<polygon fill="#000000" stroke="#000000" points="1167.5385,-167.3248 1173.6817,-158.6928 1163.4963,-161.6098 1167.5385,-167.3248"/>
</g>
<!-- leaf_17 -->
<g id="node18" class="node">
<title>leaf_17</title>
<polygon fill="none" stroke="#c0c0c0" points="1366,-70.7004 1028,-70.7004 1028,-.0997 1366,-.0997 1366,-70.7004"/>
<text text-anchor="middle" x="1197" y="-39.6001" font-family="Inconsolata" font-size="14.00" fill="#000000">This block is owned under the second level H2,</text>
<text text-anchor="middle" x="1197" y="-24.2" font-family="Inconsolata" font-size="14.00" fill="#000000">and is at the third level. It is also H3.</text>
</g>
<!-- block_16&#45;&gt;leaf_17 -->
<g id="edge17" class="edge">
<title>block_16&#45;&gt;leaf_17</title>
<path fill="none" stroke="#000000" stroke-dasharray="5,2" d="M1197,-124.0829C1197,-112.2845 1197,-96.3268 1197,-81.1997"/>
<polygon fill="#000000" stroke="#000000" points="1200.5001,-80.9211 1197,-70.9212 1193.5001,-80.9212 1200.5001,-80.9211"/>
</g>
<!-- leaf_22 -->
<g id="node23" class="node">
<title>leaf_22</title>
<polygon fill="none" stroke="#c0c0c0" points="1629.5,-177.5004 1270.5,-177.5004 1270.5,-106.8997 1629.5,-106.8997 1629.5,-177.5004"/>
<text text-anchor="middle" x="1450" y="-146.4001" font-family="Inconsolata" font-size="14.00" fill="#000000">This escapes the above ownership and puts another</text>
<text text-anchor="middle" x="1450" y="-131.0001" font-family="Inconsolata" font-size="14.00" fill="#000000">block on the second level.</text>
</g>
<!-- block_19&#45;&gt;leaf_22 -->
<g id="edge22" class="edge">
<title>block_19&#45;&gt;leaf_22</title>
<path fill="none" stroke="#000000" stroke-dasharray="5,2" d="M1490.6878,-230.883C1485.1706,-218.8577 1477.671,-202.5116 1470.613,-187.128"/>
<polygon fill="#000000" stroke="#000000" points="1473.6484,-185.3507 1466.2971,-177.7212 1467.2861,-188.2698 1473.6484,-185.3507"/>
</g>
<!-- leaf_23 -->
<g id="node24" class="node">
<title>leaf_23</title>
<polygon fill="none" stroke="#c0c0c0" points="1908.5,-162.1022 1647.5,-162.1022 1647.5,-122.298 1908.5,-122.298 1908.5,-162.1022"/>
<text text-anchor="middle" x="1778" y="-146.7001" font-family="Inconsolata" font-size="14.00" fill="#000000">This will have two chunks under it.</text>
</g>
<!-- block_20&#45;&gt;leaf_23 -->
<g id="edge23" class="edge">
<title>block_20&#45;&gt;leaf_23</title>
<path fill="none" stroke="#000000" stroke-dasharray="5,2" d="M1695.3478,-231.3643C1710.9596,-214.5226 1734.7137,-188.8969 1752.7564,-169.4326"/>
<polygon fill="#000000" stroke="#000000" points="1755.3759,-171.7552 1759.6073,-162.042 1750.2422,-166.9964 1755.3759,-171.7552"/>
</g>
<!-- header_24 -->
<g id="node25" class="node">
<title>header_24</title>
<ellipse fill="none" stroke="#000000" cx="2003" cy="-142.2001" rx="76.5916" ry="18"/>
<text text-anchor="middle" x="2003" y="-138.0001" font-family="Helvetica,sans-Serif" font-size="14.00" fill="#000000">4 : Third level H4</text>
</g>
<!-- section_21&#45;&gt;header_24 -->
<g id="edge24" class="edge">
<title>section_21&#45;&gt;header_24</title>
<path fill="none" stroke="#000000" stroke-dasharray="5,2" d="M2003,-230.883C2003,-214.3891 2003,-189.7666 2003,-170.6484"/>
<polygon fill="#000000" stroke="#000000" points="2006.5001,-170.4061 2003,-160.4061 1999.5001,-170.4062 2006.5001,-170.4061"/>
</g>
<!-- block_25 -->
<g id="node26" class="node">
<title>block_25</title>
<ellipse fill="none" stroke="#000000" cx="2154" cy="-142.2001" rx="55.6542" ry="18"/>
<text text-anchor="middle" x="2154" y="-138.0001" font-family="Helvetica,sans-Serif" font-size="14.00" fill="#000000">block 28&#45;31</text>
</g>
<!-- section_21&#45;&gt;block_25 -->
<g id="edge25" class="edge">
<title>section_21&#45;&gt;block_25</title>
<path fill="none" stroke="#000000" stroke-dasharray="5,2" d="M2026.9264,-232.0774C2052.7008,-213.8475 2093.8357,-184.7534 2122.2894,-164.6285"/>
<polygon fill="#000000" stroke="#000000" points="2124.5385,-167.3248 2130.6817,-158.6928 2120.4963,-161.6098 2124.5385,-167.3248"/>
</g>
<!-- leaf_26 -->
<g id="node27" class="node">
<title>leaf_26</title>
<polygon fill="none" stroke="#c0c0c0" points="2284.5,-63.3015 2023.5,-63.3015 2023.5,-7.4985 2284.5,-7.4985 2284.5,-63.3015"/>
<text text-anchor="middle" x="2154" y="-31.9" font-family="Inconsolata" font-size="14.00" fill="#000000">This is chunked at the third level.</text>
</g>
<!-- block_25&#45;&gt;leaf_26 -->
<g id="edge26" class="edge">
<title>block_25&#45;&gt;leaf_26</title>
<path fill="none" stroke="#000000" stroke-dasharray="5,2" d="M2154,-124.0829C2154,-110.2834 2154,-90.794 2154,-73.5987"/>
<polygon fill="#000000" stroke="#000000" points="2157.5001,-73.26 2154,-63.26 2150.5001,-73.2601 2157.5001,-73.26"/>
</g>
</g>
</svg>
