<?xml version="1.0" encoding="UTF-8" standalone="no"?>
<!DOCTYPE svg PUBLIC "-//W3C//DTD SVG 1.1//EN"
 "http://www.w3.org/Graphics/SVG/1.1/DTD/svg11.dtd">
<!-- Generated by graphviz version 2.40.1 (20161225.0304)
 -->
<!-- Title: hierarchy Pages: 1 -->
<svg width="395pt" height="492pt"
 viewBox="0.00 0.00 394.50 492.40" xmlns="http://www.w3.org/2000/svg" xmlns:xlink="http://www.w3.org/1999/xlink">
<g id="graph0" class="graph" transform="scale(1 1) rotate(0) translate(4 488.4002)">
<title>hierarchy</title>
<polygon fill="#ffffff" stroke="transparent" points="-4,4 -4,-488.4002 390.5,-488.4002 390.5,4 -4,4"/>
<!-- doc_0 -->
<g id="node1" class="node">
<title>doc_0</title>
<ellipse fill="none" stroke="#000000" cx="118" cy="-466.4002" rx="42.1216" ry="18"/>
<text text-anchor="middle" x="118" y="-462.2002" font-family="Helvetica,sans-Serif" font-size="14.00" fill="#000000">doc &#45; 13</text>
</g>
<!-- section_1 -->
<g id="node2" class="node">
<title>section_1</title>
<ellipse fill="none" stroke="#000000" cx="118" cy="-394.4002" rx="60.9826" ry="18"/>
<text text-anchor="middle" x="118" y="-390.2002" font-family="Helvetica,sans-Serif" font-size="14.00" fill="#000000">section: 1&#45;13</text>
</g>
<!-- doc_0&#45;&gt;section_1 -->
<g id="edge1" class="edge">
<title>doc_0&#45;&gt;section_1</title>
<path fill="none" stroke="#000000" stroke-dasharray="5,2" d="M118,-448.2315C118,-440.5311 118,-431.3745 118,-422.8168"/>
<polygon fill="#000000" stroke="#000000" points="121.5001,-422.8134 118,-412.8135 114.5001,-422.8135 121.5001,-422.8134"/>
</g>
<!-- header_2 -->
<g id="node3" class="node">
<title>header_2</title>
<ellipse fill="none" stroke="#000000" cx="27" cy="-322.4002" rx="27" ry="18"/>
<text text-anchor="middle" x="27" y="-318.2002" font-family="Helvetica,sans-Serif" font-size="14.00" fill="#000000">0 : </text>
</g>
<!-- section_1&#45;&gt;header_2 -->
<g id="edge2" class="edge">
<title>section_1&#45;&gt;header_2</title>
<path fill="none" stroke="#000000" stroke-dasharray="5,2" d="M96.4343,-377.3372C83.2897,-366.9371 66.4196,-353.5893 52.5998,-342.655"/>
<polygon fill="#000000" stroke="#000000" points="54.4637,-339.6667 44.4498,-336.2066 50.1203,-345.1563 54.4637,-339.6667"/>
</g>
<!-- block_3 -->
<g id="node4" class="node">
<title>block_3</title>
<ellipse fill="none" stroke="#000000" cx="118" cy="-322.4002" rx="45.9804" ry="18"/>
<text text-anchor="middle" x="118" y="-318.2002" font-family="Helvetica,sans-Serif" font-size="14.00" fill="#000000">block 1&#45;1</text>
</g>
<!-- section_1&#45;&gt;block_3 -->
<g id="edge3" class="edge">
<title>section_1&#45;&gt;block_3</title>
<path fill="none" stroke="#000000" stroke-dasharray="5,2" d="M118,-376.2315C118,-368.5311 118,-359.3745 118,-350.8168"/>
<polygon fill="#000000" stroke="#000000" points="121.5001,-350.8134 118,-340.8135 114.5001,-350.8135 121.5001,-350.8134"/>
</g>
<!-- block_4 -->
<g id="node5" class="node">
<title>block_4</title>
<ellipse fill="none" stroke="#000000" cx="235" cy="-322.4002" rx="50.8172" ry="18"/>
<text text-anchor="middle" x="235" y="-318.2002" font-family="Helvetica,sans-Serif" font-size="14.00" fill="#000000">block 2&#45;13</text>
</g>
<!-- section_1&#45;&gt;block_4 -->
<g id="edge4" class="edge">
<title>section_1&#45;&gt;block_4</title>
<path fill="none" stroke="#000000" stroke-dasharray="5,2" d="M144.5491,-378.0623C161.0843,-367.8868 182.5321,-354.6881 200.3923,-343.6972"/>
<polygon fill="#000000" stroke="#000000" points="202.6778,-346.4005 209.36,-338.1786 199.0091,-340.4388 202.6778,-346.4005"/>
</g>
<!-- leaf_5 -->
<g id="node6" class="node">
<title>leaf_5</title>
<polygon fill="none" stroke="#c0c0c0" points="144,-268.4002 90,-268.4002 90,-232.4002 144,-232.4002 144,-268.4002"/>
</g>
<!-- block_3&#45;&gt;leaf_5 -->
<g id="edge5" class="edge">
<title>block_3&#45;&gt;leaf_5</title>
<path fill="none" stroke="#000000" stroke-dasharray="5,2" d="M117.7477,-304.2315C117.6407,-296.5311 117.5135,-287.3745 117.3947,-278.8168"/>
<polygon fill="#000000" stroke="#000000" points="120.8944,-278.7638 117.2557,-268.8135 113.8951,-278.8611 120.8944,-278.7638"/>
</g>
<!-- codeblock_6 -->
<g id="node7" class="node">
<title>codeblock_6</title>
<ellipse fill="none" stroke="#000000" cx="235" cy="-250.4002" rx="72.5844" ry="18"/>
<text text-anchor="middle" x="235" y="-246.2002" font-family="Helvetica,sans-Serif" font-size="14.00" fill="#000000">code block 2&#45;13</text>
</g>
<!-- block_4&#45;&gt;codeblock_6 -->
<g id="edge6" class="edge">
<title>block_4&#45;&gt;codeblock_6</title>
<path fill="none" stroke="#000000" stroke-dasharray="5,2" d="M235,-304.2315C235,-296.5311 235,-287.3745 235,-278.8168"/>
<polygon fill="#000000" stroke="#000000" points="238.5001,-278.8134 235,-268.8135 231.5001,-278.8135 238.5001,-278.8134"/>
</g>
<!-- leaf_8 -->
<g id="node9" class="node">
<title>leaf_8</title>
<polygon fill="none" stroke="#c0c0c0" points="380,-268.4002 326,-268.4002 326,-232.4002 380,-232.4002 380,-268.4002"/>
</g>
<!-- block_4&#45;&gt;leaf_8 -->
<g id="edge8" class="edge">
<title>block_4&#45;&gt;leaf_8</title>
<path fill="none" stroke="#000000" stroke-dasharray="5,2" d="M260.6042,-306.7773C277.1475,-296.6831 298.9138,-283.4019 317.1646,-272.2658"/>
<polygon fill="#000000" stroke="#000000" points="319.0901,-275.1911 325.8034,-266.9947 315.444,-269.2157 319.0901,-275.1911"/>
</g>
<!-- leaf_7 -->
<g id="node8" class="node">
<title>leaf_7</title>
<polygon fill="none" stroke="#c0c0c0" points="386.5,-196.6007 83.5,-196.6007 83.5,.2005 386.5,.2005 386.5,-196.6007"/>
<text text-anchor="middle" x="235" y="-165.2002" font-family="Inconsolata" font-size="14.00" fill="#000000">Although this isn&#39;t a valid shell script,</text>
<text text-anchor="middle" x="235" y="-133.8002" font-family="Inconsolata" font-size="14.00" fill="#000000">it is,</text>
<text text-anchor="middle" x="235" y="-102.4001" font-family="Inconsolata" font-size="14.00" fill="#000000">remarkably,</text>
<text text-anchor="middle" x="235" y="-71.0001" font-family="Inconsolata" font-size="14.00" fill="#000000">a valid Grimoire document</text>
<text text-anchor="middle" x="235" y="-39.6001" font-family="Inconsolata" font-size="14.00" fill="#000000">and code block</text>
<text text-anchor="middle" x="235" y="-8.2" font-family="Inconsolata" font-size="14.00" fill="#000000">of lang /usr/bin/sh.</text>
</g>
<!-- codeblock_6&#45;&gt;leaf_7 -->
<g id="edge7" class="edge">
<title>codeblock_6&#45;&gt;leaf_7</title>
<path fill="none" stroke="#000000" stroke-dasharray="5,2" d="M235,-232.3432C235,-225.1382 235,-216.2243 235,-206.4422"/>
<polygon fill="#000000" stroke="#000000" points="238.5001,-206.402 235,-196.402 231.5001,-206.4021 238.5001,-206.402"/>
</g>
</g>
</svg>
