<?xml version="1.0" encoding="UTF-8" standalone="no"?>
<!DOCTYPE svg PUBLIC "-//W3C//DTD SVG 1.1//EN"
 "http://www.w3.org/Graphics/SVG/1.1/DTD/svg11.dtd">
<!-- Generated by graphviz version 2.40.1 (20161225.0304)
 -->
<!-- Title: hierarchy Pages: 1 -->
<svg width="604pt" height="116pt"
 viewBox="0.00 0.00 603.51 116.00" xmlns="http://www.w3.org/2000/svg" xmlns:xlink="http://www.w3.org/1999/xlink">
<g id="graph0" class="graph" transform="scale(1 1) rotate(0) translate(4 112)">
<title>hierarchy</title>
<polygon fill="#ffffff" stroke="transparent" points="-4,4 -4,-112 599.5108,-112 599.5108,4 -4,4"/>
<!-- grym_0 -->
<g id="node1" class="node">
<title>grym_0</title>
<ellipse fill="none" stroke="#ff0000" cx="297.2554" cy="-90" rx="31.1701" ry="18"/>
<text text-anchor="middle" x="297.2554" y="-85.8" font-family="Courier,monospace" font-size="14.00" fill="#000000">grym</text>
</g>
<!-- section_1 -->
<g id="node2" class="node">
<title>section_1</title>
<ellipse fill="none" stroke="#ff0000" cx="47.2554" cy="-18" rx="47.0121" ry="18"/>
<text text-anchor="middle" x="47.2554" y="-13.8" font-family="Courier,monospace" font-size="14.00" fill="#000000">section</text>
</g>
<!-- grym_0&#45;&gt;section_1 -->
<g id="edge1" class="edge">
<title>grym_0&#45;&gt;section_1</title>
<path fill="none" stroke="#0000ff" stroke-dasharray="5,2" d="M269.0632,-81.8806C226.8032,-69.7097 146.5059,-46.5841 94.9987,-31.7501"/>
<polygon fill="#0000ff" stroke="#0000ff" points="95.679,-28.3038 85.1009,-28.8995 93.7417,-35.0304 95.679,-28.3038"/>
</g>
<!-- section_2 -->
<g id="node3" class="node">
<title>section_2</title>
<ellipse fill="none" stroke="#ff0000" cx="214.2554" cy="-18" rx="47.0121" ry="18"/>
<text text-anchor="middle" x="214.2554" y="-13.8" font-family="Courier,monospace" font-size="14.00" fill="#000000">section</text>
</g>
<!-- grym_0&#45;&gt;section_2 -->
<g id="edge2" class="edge">
<title>grym_0&#45;&gt;section_2</title>
<path fill="none" stroke="#0000ff" stroke-dasharray="5,2" d="M279.6533,-74.7307C268.3829,-64.9539 253.5453,-52.0828 240.8526,-41.0722"/>
<polygon fill="#0000ff" stroke="#0000ff" points="243.1252,-38.4103 233.2778,-34.5013 238.5382,-43.698 243.1252,-38.4103"/>
</g>
<!-- section_3 -->
<g id="node4" class="node">
<title>section_3</title>
<ellipse fill="none" stroke="#ff0000" cx="381.2554" cy="-18" rx="47.0121" ry="18"/>
<text text-anchor="middle" x="381.2554" y="-13.8" font-family="Courier,monospace" font-size="14.00" fill="#000000">section</text>
</g>
<!-- grym_0&#45;&gt;section_3 -->
<g id="edge3" class="edge">
<title>grym_0&#45;&gt;section_3</title>
<path fill="none" stroke="#0000ff" stroke-dasharray="5,2" d="M315.0697,-74.7307C326.4758,-64.9539 341.4921,-52.0828 354.3378,-41.0722"/>
<polygon fill="#0000ff" stroke="#0000ff" points="356.6891,-43.6667 362.0039,-34.5013 352.1335,-38.3519 356.6891,-43.6667"/>
</g>
<!-- section_4 -->
<g id="node5" class="node">
<title>section_4</title>
<ellipse fill="none" stroke="#ff0000" cx="548.2554" cy="-18" rx="47.0121" ry="18"/>
<text text-anchor="middle" x="548.2554" y="-13.8" font-family="Courier,monospace" font-size="14.00" fill="#000000">section</text>
</g>
<!-- grym_0&#45;&gt;section_4 -->
<g id="edge4" class="edge">
<title>grym_0&#45;&gt;section_4</title>
<path fill="none" stroke="#0000ff" stroke-dasharray="5,2" d="M325.5604,-81.8806C368.0779,-69.6844 448.944,-46.4877 500.644,-31.6575"/>
<polygon fill="#0000ff" stroke="#0000ff" points="501.6113,-35.0212 510.2586,-28.8995 499.6811,-28.2926 501.6113,-35.0212"/>
</g>
</g>
</svg>
