<?xml version="1.0" encoding="UTF-8" standalone="no"?>
<!DOCTYPE svg PUBLIC "-//W3C//DTD SVG 1.1//EN"
 "http://www.w3.org/Graphics/SVG/1.1/DTD/svg11.dtd">
<!-- Generated by graphviz version 2.40.1 (20161225.0304)
 -->
<!-- Title: hierarchy Pages: 1 -->
<svg width="2114pt" height="772pt"
 viewBox="0.00 0.00 2114.00 771.80" xmlns="http://www.w3.org/2000/svg" xmlns:xlink="http://www.w3.org/1999/xlink">
<g id="graph0" class="graph" transform="scale(1 1) rotate(0) translate(4 767.8002)">
<title>hierarchy</title>
<polygon fill="#ffffff" stroke="transparent" points="-4,4 -4,-767.8002 2110,-767.8002 2110,4 -4,4"/>
<!-- doc_0 -->
<g id="node1" class="node">
<title>doc_0</title>
<ellipse fill="none" stroke="#000000" cx="850.5" cy="-745.8002" rx="42.1216" ry="18"/>
<text text-anchor="middle" x="850.5" y="-741.6002" font-family="Helvetica,sans-Serif" font-size="14.00" fill="#000000">doc &#45; 34</text>
</g>
<!-- section_1 -->
<g id="node2" class="node">
<title>section_1</title>
<ellipse fill="none" stroke="#000000" cx="850.5" cy="-673.8002" rx="55.6456" ry="18"/>
<text text-anchor="middle" x="850.5" y="-669.6002" font-family="Helvetica,sans-Serif" font-size="14.00" fill="#000000">section: 1&#45;8</text>
</g>
<!-- doc_0&#45;&gt;section_1 -->
<g id="edge1" class="edge">
<title>doc_0&#45;&gt;section_1</title>
<path fill="none" stroke="#000000" stroke-dasharray="5,2" d="M850.5,-727.6316C850.5,-719.9312 850.5,-710.7746 850.5,-702.2169"/>
<polygon fill="#000000" stroke="#000000" points="854.0001,-702.2135 850.5,-692.2135 847.0001,-702.2135 854.0001,-702.2135"/>
</g>
<!-- header_2 -->
<g id="node3" class="node">
<title>header_2</title>
<ellipse fill="none" stroke="#000000" cx="630.5" cy="-601.8002" rx="46.4736" ry="18"/>
<text text-anchor="middle" x="630.5" y="-597.6002" font-family="Helvetica,sans-Serif" font-size="14.00" fill="#000000">Header 1</text>
</g>
<!-- section_1&#45;&gt;header_2 -->
<g id="edge2" class="edge">
<title>section_1&#45;&gt;header_2</title>
<path fill="none" stroke="#000000" stroke-dasharray="5,2" d="M811.1684,-660.9281C773.2272,-648.5109 715.8341,-629.7277 675.9547,-616.6763"/>
<polygon fill="#000000" stroke="#000000" points="676.8083,-613.2731 666.2157,-613.489 674.631,-619.9258 676.8083,-613.2731"/>
</g>
<!-- block_3 -->
<g id="node4" class="node">
<title>block_3</title>
<ellipse fill="none" stroke="#000000" cx="740.5" cy="-601.8002" rx="45.9804" ry="18"/>
<text text-anchor="middle" x="740.5" y="-597.6002" font-family="Helvetica,sans-Serif" font-size="14.00" fill="#000000">block 1&#45;6</text>
</g>
<!-- section_1&#45;&gt;block_3 -->
<g id="edge3" class="edge">
<title>section_1&#45;&gt;block_3</title>
<path fill="none" stroke="#000000" stroke-dasharray="5,2" d="M825.8139,-657.642C810.1711,-647.4031 789.7706,-634.0501 772.8412,-622.969"/>
<polygon fill="#000000" stroke="#000000" points="774.6321,-619.9582 764.3482,-617.41 770.7985,-625.8151 774.6321,-619.9582"/>
</g>
<!-- block_4 -->
<g id="node5" class="node">
<title>block_4</title>
<ellipse fill="none" stroke="#000000" cx="850.5" cy="-601.8002" rx="45.9804" ry="18"/>
<text text-anchor="middle" x="850.5" y="-597.6002" font-family="Helvetica,sans-Serif" font-size="14.00" fill="#000000">block 7&#45;8</text>
</g>
<!-- section_1&#45;&gt;block_4 -->
<g id="edge4" class="edge">
<title>section_1&#45;&gt;block_4</title>
<path fill="none" stroke="#000000" stroke-dasharray="5,2" d="M850.5,-655.6316C850.5,-647.9312 850.5,-638.7746 850.5,-630.2169"/>
<polygon fill="#000000" stroke="#000000" points="854.0001,-630.2135 850.5,-620.2135 847.0001,-630.2135 854.0001,-630.2135"/>
</g>
<!-- section_5 -->
<g id="node6" class="node">
<title>section_5</title>
<ellipse fill="none" stroke="#000000" cx="1152.5" cy="-601.8002" rx="60.9826" ry="18"/>
<text text-anchor="middle" x="1152.5" y="-597.6002" font-family="Helvetica,sans-Serif" font-size="14.00" fill="#000000">section: 9&#45;23</text>
</g>
<!-- section_1&#45;&gt;section_5 -->
<g id="edge5" class="edge">
<title>section_1&#45;&gt;section_5</title>
<path fill="none" stroke="#000000" stroke-dasharray="5,2" d="M895.3864,-663.0988C948.5856,-650.4156 1037.3176,-629.2609 1095.3698,-615.4207"/>
<polygon fill="#000000" stroke="#000000" points="1096.2085,-618.8189 1105.1241,-613.0951 1094.585,-612.0097 1096.2085,-618.8189"/>
</g>
<!-- section_6 -->
<g id="node7" class="node">
<title>section_6</title>
<ellipse fill="none" stroke="#000000" cx="1826.5" cy="-601.8002" rx="65.8187" ry="18"/>
<text text-anchor="middle" x="1826.5" y="-597.6002" font-family="Helvetica,sans-Serif" font-size="14.00" fill="#000000">section: 32&#45;34</text>
</g>
<!-- section_1&#45;&gt;section_6 -->
<g id="edge6" class="edge">
<title>section_1&#45;&gt;section_6</title>
<path fill="none" stroke="#000000" stroke-dasharray="5,2" d="M905.0653,-669.7749C1070.2321,-657.5905 1564.9512,-621.0948 1752.9294,-607.2276"/>
<polygon fill="#000000" stroke="#000000" points="1753.2742,-610.7117 1762.9896,-606.4854 1752.7592,-603.7307 1753.2742,-610.7117"/>
</g>
<!-- leaf_7 -->
<g id="node8" class="node">
<title>leaf_7</title>
<polygon fill="none" stroke="#c0c0c0" points="541,-547.9005 0,-547.9005 0,-461.4998 541,-461.4998 541,-547.9005"/>
<text text-anchor="middle" x="270.5" y="-516.6002" font-family="Inconsolata" font-size="14.00" fill="#000000">This is a block. It has _underlining_ and snake_case, and &#45; a dash,</text>
<text text-anchor="middle" x="270.5" y="-501.2002" font-family="Inconsolata" font-size="14.00" fill="#000000">and a &#45;&#45; double&#45;dash, and a _ . Only the _underlining and this underlining_</text>
<text text-anchor="middle" x="270.5" y="-485.8002" font-family="Inconsolata" font-size="14.00" fill="#000000">should be detected.</text>
</g>
<!-- block_3&#45;&gt;leaf_7 -->
<g id="edge7" class="edge">
<title>block_3&#45;&gt;leaf_7</title>
<path fill="none" stroke="#000000" stroke-dasharray="5,2" d="M706.0786,-589.7886C699.3027,-587.6362 692.2129,-585.5309 685.5,-583.8002 637.1431,-571.3334 585.1532,-559.9028 534.8833,-549.839"/>
<polygon fill="#000000" stroke="#000000" points="535.3445,-546.3623 524.8538,-547.8446 533.9791,-553.2278 535.3445,-546.3623"/>
</g>
<!-- leaf_8 -->
<g id="node9" class="node">
<title>leaf_8</title>
<polygon fill="none" stroke="#c0c0c0" points="911.5,-524.6023 559.5,-524.6023 559.5,-484.7981 911.5,-484.7981 911.5,-524.6023"/>
<text text-anchor="middle" x="735.5" y="-509.2002" font-family="Inconsolata" font-size="14.00" fill="#000000">This is another block, that belongs to Header 1.</text>
</g>
<!-- block_4&#45;&gt;leaf_8 -->
<g id="edge8" class="edge">
<title>block_4&#45;&gt;leaf_8</title>
<path fill="none" stroke="#000000" stroke-dasharray="5,2" d="M830.9918,-585.3285C813.4544,-570.5208 787.3823,-548.5069 766.91,-531.2212"/>
<polygon fill="#000000" stroke="#000000" points="768.9851,-528.3925 759.0864,-524.6153 764.4691,-533.741 768.9851,-528.3925"/>
</g>
<!-- header_9 -->
<g id="node10" class="node">
<title>header_9</title>
<ellipse fill="none" stroke="#000000" cx="975.5" cy="-504.7002" rx="46.4736" ry="18"/>
<text text-anchor="middle" x="975.5" y="-500.5002" font-family="Helvetica,sans-Serif" font-size="14.00" fill="#000000">Header 2</text>
</g>
<!-- section_5&#45;&gt;header_9 -->
<g id="edge9" class="edge">
<title>section_5&#45;&gt;header_9</title>
<path fill="none" stroke="#000000" stroke-dasharray="5,2" d="M1114.1919,-587.6914C1089.5297,-577.9276 1057.2097,-563.836 1030.5,-547.8002 1020.8054,-541.9799 1010.879,-534.6841 1002.1749,-527.7589"/>
<polygon fill="#000000" stroke="#000000" points="1004.2122,-524.9039 994.2516,-521.2931 999.7864,-530.3273 1004.2122,-524.9039"/>
</g>
<!-- block_10 -->
<g id="node11" class="node">
<title>block_10</title>
<ellipse fill="none" stroke="#000000" cx="1090.5" cy="-504.7002" rx="50.8172" ry="18"/>
<text text-anchor="middle" x="1090.5" y="-500.5002" font-family="Helvetica,sans-Serif" font-size="14.00" fill="#000000">block 9&#45;14</text>
</g>
<!-- section_5&#45;&gt;block_10 -->
<g id="edge10" class="edge">
<title>section_5&#45;&gt;block_10</title>
<path fill="none" stroke="#000000" stroke-dasharray="5,2" d="M1141.1282,-583.9906C1131.6894,-569.2081 1118.1263,-547.9665 1107.4136,-531.1891"/>
<polygon fill="#000000" stroke="#000000" points="1110.1313,-528.9417 1101.7997,-522.3969 1104.2314,-532.7089 1110.1313,-528.9417"/>
</g>
<!-- block_11 -->
<g id="node12" class="node">
<title>block_11</title>
<ellipse fill="none" stroke="#000000" cx="1215.5" cy="-504.7002" rx="55.6542" ry="18"/>
<text text-anchor="middle" x="1215.5" y="-500.5002" font-family="Helvetica,sans-Serif" font-size="14.00" fill="#000000">block 15&#45;18</text>
</g>
<!-- section_5&#45;&gt;block_11 -->
<g id="edge11" class="edge">
<title>section_5&#45;&gt;block_11</title>
<path fill="none" stroke="#000000" stroke-dasharray="5,2" d="M1164.0552,-583.9906C1173.6463,-569.2081 1187.4281,-547.9665 1198.3136,-531.1891"/>
<polygon fill="#000000" stroke="#000000" points="1201.5113,-532.6909 1204.0181,-522.3969 1195.639,-528.8809 1201.5113,-532.6909"/>
</g>
<!-- block_12 -->
<g id="node13" class="node">
<title>block_12</title>
<ellipse fill="none" stroke="#000000" cx="1345.5" cy="-504.7002" rx="55.6542" ry="18"/>
<text text-anchor="middle" x="1345.5" y="-500.5002" font-family="Helvetica,sans-Serif" font-size="14.00" fill="#000000">block 19&#45;23</text>
</g>
<!-- section_5&#45;&gt;block_12 -->
<g id="edge12" class="edge">
<title>section_5&#45;&gt;block_12</title>
<path fill="none" stroke="#000000" stroke-dasharray="5,2" d="M1190.8858,-587.7685C1216.7713,-577.7869 1251.3822,-563.42 1280.5,-547.8002 1291.8725,-541.6996 1303.7869,-534.1673 1314.2632,-527.115"/>
<polygon fill="#000000" stroke="#000000" points="1316.4112,-529.8859 1322.6816,-521.3459 1312.4541,-524.1117 1316.4112,-529.8859"/>
</g>
<!-- section_13 -->
<g id="node14" class="node">
<title>section_13</title>
<ellipse fill="none" stroke="#000000" cx="1689.5" cy="-504.7002" rx="65.8187" ry="18"/>
<text text-anchor="middle" x="1689.5" y="-500.5002" font-family="Helvetica,sans-Serif" font-size="14.00" fill="#000000">section: 24&#45;31</text>
</g>
<!-- section_5&#45;&gt;section_13 -->
<g id="edge13" class="edge">
<title>section_5&#45;&gt;section_13</title>
<path fill="none" stroke="#000000" stroke-dasharray="5,2" d="M1204.4777,-592.4016C1302.9039,-574.6043 1516.2736,-536.0229 1624.1884,-516.5098"/>
<polygon fill="#000000" stroke="#000000" points="1625.0775,-519.9059 1634.2951,-514.6823 1623.8319,-513.0176 1625.0775,-519.9059"/>
</g>
<!-- header_32 -->
<g id="node33" class="node">
<title>header_32</title>
<ellipse fill="none" stroke="#000000" cx="1826.5" cy="-504.7002" rx="46.4736" ry="18"/>
<text text-anchor="middle" x="1826.5" y="-500.5002" font-family="Helvetica,sans-Serif" font-size="14.00" fill="#000000">Header 4</text>
</g>
<!-- section_6&#45;&gt;header_32 -->
<g id="edge32" class="edge">
<title>section_6&#45;&gt;header_32</title>
<path fill="none" stroke="#000000" stroke-dasharray="5,2" d="M1826.5,-583.5364C1826.5,-569.2959 1826.5,-549.2671 1826.5,-532.9614"/>
<polygon fill="#000000" stroke="#000000" points="1830.0001,-532.882 1826.5,-522.8821 1823.0001,-532.8821 1830.0001,-532.882"/>
</g>
<!-- block_33 -->
<g id="node34" class="node">
<title>block_33</title>
<ellipse fill="none" stroke="#000000" cx="1950.5" cy="-504.7002" rx="55.6542" ry="18"/>
<text text-anchor="middle" x="1950.5" y="-500.5002" font-family="Helvetica,sans-Serif" font-size="14.00" fill="#000000">block 32&#45;34</text>
</g>
<!-- section_6&#45;&gt;block_33 -->
<g id="edge33" class="edge">
<title>section_6&#45;&gt;block_33</title>
<path fill="none" stroke="#000000" stroke-dasharray="5,2" d="M1848.3833,-584.6642C1868.4815,-568.926 1898.4362,-545.4695 1920.711,-528.0269"/>
<polygon fill="#000000" stroke="#000000" points="1923.12,-530.5859 1928.8355,-521.6649 1918.8043,-525.0746 1923.12,-530.5859"/>
</g>
<!-- leaf_14 -->
<g id="node15" class="node">
<title>leaf_14</title>
<polygon fill="none" stroke="#c0c0c0" points="1008.5,-425.7004 474.5,-425.7004 474.5,-339.2998 1008.5,-339.2998 1008.5,-425.7004"/>
<text text-anchor="middle" x="741.5" y="-394.4001" font-family="Inconsolata" font-size="14.00" fill="#000000">This is also a block. It has *bold* in it, and **double bold**, and 4 * 5,</text>
<text text-anchor="middle" x="741.5" y="-379.0001" font-family="Inconsolata" font-size="14.00" fill="#000000">and * , and only the bold and double bold get detected.</text>
<text text-anchor="middle" x="741.5" y="-363.6001" font-family="Inconsolata" font-size="14.00" fill="#000000">This is still the same block.</text>
</g>
<!-- block_10&#45;&gt;leaf_14 -->
<g id="edge14" class="edge">
<title>block_10&#45;&gt;leaf_14</title>
<path fill="none" stroke="#000000" stroke-dasharray="5,2" d="M1071.0811,-488.0271C1059.849,-479.1067 1045.0862,-468.5571 1030.5,-461.6001 1004.0299,-448.9751 975.2025,-438.0745 946.3399,-428.7511"/>
<polygon fill="#000000" stroke="#000000" points="947.1438,-425.3344 936.5537,-425.6495 945.0289,-432.0073 947.1438,-425.3344"/>
</g>
<!-- leaf_15 -->
<g id="node16" class="node">
<title>leaf_15</title>
<polygon fill="none" stroke="#c0c0c0" points="1182.5,-418.4012 1026.5,-418.4012 1026.5,-346.5989 1182.5,-346.5989 1182.5,-418.4012"/>
<text text-anchor="middle" x="1104.5" y="-403.0001" font-family="Inconsolata" font-size="14.00" fill="#000000">This is a new block.</text>
</g>
<!-- block_11&#45;&gt;leaf_15 -->
<g id="edge15" class="edge">
<title>block_11&#45;&gt;leaf_15</title>
<path fill="none" stroke="#000000" stroke-dasharray="5,2" d="M1199.5964,-487.1919C1185.1278,-471.2634 1163.1678,-447.0875 1143.9945,-425.9797"/>
<polygon fill="#000000" stroke="#000000" points="1146.3904,-423.4118 1137.0759,-418.3629 1141.2088,-428.1184 1146.3904,-423.4118"/>
</g>
<!-- structure_16 -->
<g id="node17" class="node">
<title>structure_16</title>
<ellipse fill="none" stroke="#000000" cx="1245.5" cy="-382.5001" rx="44.5182" ry="18"/>
<text text-anchor="middle" x="1245.5" y="-378.3001" font-family="Helvetica,sans-Serif" font-size="14.00" fill="#000000">structure</text>
</g>
<!-- block_12&#45;&gt;structure_16 -->
<g id="edge16" class="edge">
<title>block_12&#45;&gt;structure_16</title>
<path fill="none" stroke="#000000" stroke-dasharray="5,2" d="M1331.1724,-487.1919C1314.1674,-466.4117 1285.6758,-431.5949 1266.2574,-407.8657"/>
<polygon fill="#000000" stroke="#000000" points="1268.8427,-405.4983 1259.801,-399.9759 1263.4254,-409.9315 1268.8427,-405.4983"/>
</g>
<!-- leaf_20 -->
<g id="node21" class="node">
<title>leaf_20</title>
<polygon fill="none" stroke="#c0c0c0" points="1583,-418.4012 1308,-418.4012 1308,-346.5989 1583,-346.5989 1583,-418.4012"/>
<text text-anchor="middle" x="1445.5" y="-371.0001" font-family="Inconsolata" font-size="14.00" fill="#000000">This is a new block, two lines later.</text>
</g>
<!-- block_12&#45;&gt;leaf_20 -->
<g id="edge20" class="edge">
<title>block_12&#45;&gt;leaf_20</title>
<path fill="none" stroke="#000000" stroke-dasharray="5,2" d="M1359.8276,-487.1919C1372.8052,-471.3332 1392.4727,-447.2994 1409.6919,-426.2576"/>
<polygon fill="#000000" stroke="#000000" points="1412.5279,-428.3185 1416.1524,-418.3629 1407.1106,-423.8853 1412.5279,-428.3185"/>
</g>
<!-- header_21 -->
<g id="node22" class="node">
<title>header_21</title>
<ellipse fill="none" stroke="#000000" cx="1689.5" cy="-382.5001" rx="88.5312" ry="18"/>
<text text-anchor="middle" x="1689.5" y="-378.3001" font-family="Helvetica,sans-Serif" font-size="14.00" fill="#000000">Header 3 #HashTag</text>
</g>
<!-- section_13&#45;&gt;header_21 -->
<g id="edge21" class="edge">
<title>section_13&#45;&gt;header_21</title>
<path fill="none" stroke="#000000" stroke-dasharray="5,2" d="M1689.5,-486.6691C1689.5,-466.6337 1689.5,-434.0271 1689.5,-410.6292"/>
<polygon fill="#000000" stroke="#000000" points="1693.0001,-410.6051 1689.5,-400.6051 1686.0001,-410.6051 1693.0001,-410.6051"/>
</g>
<!-- block_22 -->
<g id="node23" class="node">
<title>block_22</title>
<ellipse fill="none" stroke="#000000" cx="1852.5" cy="-382.5001" rx="55.6542" ry="18"/>
<text text-anchor="middle" x="1852.5" y="-378.3001" font-family="Helvetica,sans-Serif" font-size="14.00" fill="#000000">block 24&#45;31</text>
</g>
<!-- section_13&#45;&gt;block_22 -->
<g id="edge22" class="edge">
<title>section_13&#45;&gt;block_22</title>
<path fill="none" stroke="#000000" stroke-dasharray="5,2" d="M1712.1645,-487.7088C1740.8318,-466.2171 1790.2947,-429.135 1822.1874,-405.2253"/>
<polygon fill="#000000" stroke="#000000" points="1824.3873,-407.9504 1830.289,-399.1515 1820.1884,-402.3496 1824.3873,-407.9504"/>
</g>
<!-- hashline_17 -->
<g id="node18" class="node">
<title>hashline_17</title>
<ellipse fill="none" stroke="#000000" cx="1245.5" cy="-259.7" rx="43.0992" ry="18"/>
<text text-anchor="middle" x="1245.5" y="-255.5" font-family="Helvetica,sans-Serif" font-size="14.00" fill="#000000">hashline</text>
</g>
<!-- structure_16&#45;&gt;hashline_17 -->
<g id="edge17" class="edge">
<title>structure_16&#45;&gt;hashline_17</title>
<path fill="none" stroke="#000000" stroke-dasharray="5,2" d="M1245.5,-364.3805C1245.5,-344.2467 1245.5,-311.48 1245.5,-287.9673"/>
<polygon fill="#000000" stroke="#000000" points="1249.0001,-287.8939 1245.5,-277.8939 1242.0001,-287.894 1249.0001,-287.8939"/>
</g>
<!-- hashtag_18 -->
<g id="node19" class="node">
<title>hashtag_18</title>
<ellipse fill="none" stroke="#000000" cx="1245.5" cy="-162" rx="41.6544" ry="18"/>
<text text-anchor="middle" x="1245.5" y="-157.8" font-family="Helvetica,sans-Serif" font-size="14.00" fill="#000000">hashtag</text>
</g>
<!-- hashline_17&#45;&gt;hashtag_18 -->
<g id="edge18" class="edge">
<title>hashline_17&#45;&gt;hashtag_18</title>
<path fill="none" stroke="#000000" stroke-dasharray="5,2" d="M1245.5,-241.3234C1245.5,-226.9948 1245.5,-206.8423 1245.5,-190.4358"/>
<polygon fill="#000000" stroke="#000000" points="1249.0001,-190.2942 1245.5,-180.2942 1242.0001,-190.2943 1249.0001,-190.2942"/>
</g>
<!-- leaf_19 -->
<g id="node20" class="node">
<title>leaf_19</title>
<polygon fill="none" stroke="#c0c0c0" points="1281.5,-108 1209.5,-108 1209.5,-72 1281.5,-72 1281.5,-108"/>
<text text-anchor="middle" x="1245.5" y="-86.5" font-family="Inconsolata" font-size="14.00" fill="#000000">ATagLine</text>
</g>
<!-- hashtag_18&#45;&gt;leaf_19 -->
<g id="edge19" class="edge">
<title>hashtag_18&#45;&gt;leaf_19</title>
<path fill="none" stroke="#000000" stroke-dasharray="5,2" d="M1245.5,-143.8314C1245.5,-136.131 1245.5,-126.9743 1245.5,-118.4166"/>
<polygon fill="#000000" stroke="#000000" points="1249.0001,-118.4132 1245.5,-108.4133 1242.0001,-118.4133 1249.0001,-118.4132"/>
</g>
<!-- structure_23 -->
<g id="node24" class="node">
<title>structure_23</title>
<ellipse fill="none" stroke="#000000" cx="1740.5" cy="-259.7" rx="44.5182" ry="18"/>
<text text-anchor="middle" x="1740.5" y="-255.5" font-family="Helvetica,sans-Serif" font-size="14.00" fill="#000000">structure</text>
</g>
<!-- block_22&#45;&gt;structure_23 -->
<g id="edge23" class="edge">
<title>block_22&#45;&gt;structure_23</title>
<path fill="none" stroke="#000000" stroke-dasharray="5,2" d="M1836.6907,-365.1663C1817.5129,-344.1392 1785.0438,-308.5392 1763.1963,-284.5849"/>
<polygon fill="#000000" stroke="#000000" points="1765.5536,-281.9756 1756.2289,-276.9456 1760.3816,-286.6927 1765.5536,-281.9756"/>
</g>
<!-- structure_24 -->
<g id="node25" class="node">
<title>structure_24</title>
<ellipse fill="none" stroke="#000000" cx="1852.5" cy="-259.7" rx="44.5182" ry="18"/>
<text text-anchor="middle" x="1852.5" y="-255.5" font-family="Helvetica,sans-Serif" font-size="14.00" fill="#000000">structure</text>
</g>
<!-- block_22&#45;&gt;structure_24 -->
<g id="edge24" class="edge">
<title>block_22&#45;&gt;structure_24</title>
<path fill="none" stroke="#000000" stroke-dasharray="5,2" d="M1852.5,-364.3805C1852.5,-344.2467 1852.5,-311.48 1852.5,-287.9673"/>
<polygon fill="#000000" stroke="#000000" points="1856.0001,-287.8939 1852.5,-277.8939 1849.0001,-287.894 1856.0001,-287.8939"/>
</g>
<!-- leaf_31 -->
<g id="node32" class="node">
<title>leaf_31</title>
<polygon fill="none" stroke="#c0c0c0" points="2106,-303.601 1915,-303.601 1915,-215.7991 2106,-215.7991 2106,-303.601"/>
<text text-anchor="middle" x="2010.5" y="-272.2" font-family="Inconsolata" font-size="14.00" fill="#000000">This is header 3&#39;s block.</text>
</g>
<!-- block_22&#45;&gt;leaf_31 -->
<g id="edge31" class="edge">
<title>block_22&#45;&gt;leaf_31</title>
<path fill="none" stroke="#000000" stroke-dasharray="5,2" d="M1874.1379,-365.6827C1892.6697,-351.2795 1920.3384,-329.775 1945.9192,-309.8932"/>
<polygon fill="#000000" stroke="#000000" points="1948.3892,-312.4063 1954.1371,-303.5061 1944.0936,-306.8793 1948.3892,-312.4063"/>
</g>
<!-- handleline_25 -->
<g id="node26" class="node">
<title>handleline_25</title>
<ellipse fill="none" stroke="#000000" cx="1736.5" cy="-162" rx="50.3585" ry="18"/>
<text text-anchor="middle" x="1736.5" y="-157.8" font-family="Helvetica,sans-Serif" font-size="14.00" fill="#000000">handleline</text>
</g>
<!-- structure_23&#45;&gt;handleline_25 -->
<g id="edge25" class="edge">
<title>structure_23&#45;&gt;handleline_25</title>
<path fill="none" stroke="#000000" stroke-dasharray="5,2" d="M1739.7476,-241.3234C1739.161,-226.9948 1738.3359,-206.8423 1737.6642,-190.4358"/>
<polygon fill="#000000" stroke="#000000" points="1741.1552,-190.1426 1737.249,-180.2942 1734.1611,-190.4291 1741.1552,-190.1426"/>
</g>
<!-- hashline_28 -->
<g id="node29" class="node">
<title>hashline_28</title>
<ellipse fill="none" stroke="#000000" cx="1854.5" cy="-162" rx="43.0992" ry="18"/>
<text text-anchor="middle" x="1854.5" y="-157.8" font-family="Helvetica,sans-Serif" font-size="14.00" fill="#000000">hashline</text>
</g>
<!-- structure_24&#45;&gt;hashline_28 -->
<g id="edge28" class="edge">
<title>structure_24&#45;&gt;hashline_28</title>
<path fill="none" stroke="#000000" stroke-dasharray="5,2" d="M1852.8762,-241.3234C1853.1695,-226.9948 1853.582,-206.8423 1853.9179,-190.4358"/>
<polygon fill="#000000" stroke="#000000" points="1857.42,-190.3638 1854.1255,-180.2942 1850.4215,-190.2205 1857.42,-190.3638"/>
</g>
<!-- handle_26 -->
<g id="node27" class="node">
<title>handle_26</title>
<ellipse fill="none" stroke="#000000" cx="1733.5" cy="-90" rx="36.827" ry="18"/>
<text text-anchor="middle" x="1733.5" y="-85.8" font-family="Helvetica,sans-Serif" font-size="14.00" fill="#000000">handle</text>
</g>
<!-- handleline_25&#45;&gt;handle_26 -->
<g id="edge26" class="edge">
<title>handleline_25&#45;&gt;handle_26</title>
<path fill="none" stroke="#000000" stroke-dasharray="5,2" d="M1735.743,-143.8314C1735.4221,-136.131 1735.0406,-126.9743 1734.684,-118.4166"/>
<polygon fill="#000000" stroke="#000000" points="1738.1806,-118.2589 1734.2672,-108.4133 1731.1867,-118.5503 1738.1806,-118.2589"/>
</g>
<!-- leaf_27 -->
<g id="node28" class="node">
<title>leaf_27</title>
<polygon fill="none" stroke="#c0c0c0" points="1778,-36 1685,-36 1685,0 1778,0 1778,-36"/>
<text text-anchor="middle" x="1731.5" y="-14.5" font-family="Inconsolata" font-size="14.00" fill="#000000">NameHeader3</text>
</g>
<!-- handle_26&#45;&gt;leaf_27 -->
<g id="edge27" class="edge">
<title>handle_26&#45;&gt;leaf_27</title>
<path fill="none" stroke="#000000" stroke-dasharray="5,2" d="M1732.9953,-71.8314C1732.7814,-64.131 1732.5271,-54.9743 1732.2894,-46.4166"/>
<polygon fill="#000000" stroke="#000000" points="1735.7879,-46.3122 1732.0115,-36.4133 1728.7906,-46.5066 1735.7879,-46.3122"/>
</g>
<!-- hashtag_29 -->
<g id="node30" class="node">
<title>hashtag_29</title>
<ellipse fill="none" stroke="#000000" cx="1855.5" cy="-90" rx="41.6544" ry="18"/>
<text text-anchor="middle" x="1855.5" y="-85.8" font-family="Helvetica,sans-Serif" font-size="14.00" fill="#000000">hashtag</text>
</g>
<!-- hashline_28&#45;&gt;hashtag_29 -->
<g id="edge29" class="edge">
<title>hashline_28&#45;&gt;hashtag_29</title>
<path fill="none" stroke="#000000" stroke-dasharray="5,2" d="M1854.7523,-143.8314C1854.8593,-136.131 1854.9865,-126.9743 1855.1053,-118.4166"/>
<polygon fill="#000000" stroke="#000000" points="1858.6049,-118.4609 1855.2443,-108.4133 1851.6056,-118.3637 1858.6049,-118.4609"/>
</g>
<!-- leaf_30 -->
<g id="node31" class="node">
<title>leaf_30</title>
<polygon fill="none" stroke="#c0c0c0" points="1917,-36 1796,-36 1796,0 1917,0 1917,-36"/>
<text text-anchor="middle" x="1856.5" y="-14.5" font-family="Inconsolata" font-size="14.00" fill="#000000">TagHeader3Block</text>
</g>
<!-- hashtag_29&#45;&gt;leaf_30 -->
<g id="edge30" class="edge">
<title>hashtag_29&#45;&gt;leaf_30</title>
<path fill="none" stroke="#000000" stroke-dasharray="5,2" d="M1855.7523,-71.8314C1855.8593,-64.131 1855.9865,-54.9743 1856.1053,-46.4166"/>
<polygon fill="#000000" stroke="#000000" points="1859.6049,-46.4609 1856.2443,-36.4133 1852.6056,-46.3637 1859.6049,-46.4609"/>
</g>
<!-- leaf_34 -->
<g id="node35" class="node">
<title>leaf_34</title>
<polygon fill="none" stroke="#c0c0c0" points="1980.5,-402.5001 1926.5,-402.5001 1926.5,-362.5001 1980.5,-362.5001 1980.5,-402.5001"/>
</g>
<!-- block_33&#45;&gt;leaf_34 -->
<g id="edge34" class="edge">
<title>block_33&#45;&gt;leaf_34</title>
<path fill="none" stroke="#000000" stroke-dasharray="5,2" d="M1950.9427,-486.6691C1951.4204,-467.2094 1952.1893,-435.8907 1952.7594,-412.6686"/>
<polygon fill="#000000" stroke="#000000" points="1956.259,-412.7233 1953.0056,-402.6404 1949.2611,-412.5515 1956.259,-412.7233"/>
</g>
</g>
</svg>
