<?xml version="1.0" encoding="UTF-8" standalone="no"?>
<!DOCTYPE svg PUBLIC "-//W3C//DTD SVG 1.1//EN"
 "http://www.w3.org/Graphics/SVG/1.1/DTD/svg11.dtd">
<!-- Generated by graphviz version 2.40.1 (20161225.0304)
 -->
<!-- Title: hierarchy Pages: 1 -->
<svg width="1187pt" height="692pt"
 viewBox="0.00 0.00 1186.50 692.00" xmlns="http://www.w3.org/2000/svg" xmlns:xlink="http://www.w3.org/1999/xlink">
<g id="graph0" class="graph" transform="scale(1 1) rotate(0) translate(4 688)">
<title>hierarchy</title>
<polygon fill="#ffffff" stroke="transparent" points="-4,4 -4,-688 1182.5,-688 1182.5,4 -4,4"/>
<!-- doc_0 -->
<g id="node1" class="node">
<title>doc_0</title>
<ellipse fill="none" stroke="#000000" cx="118" cy="-666" rx="42.1216" ry="18"/>
<text text-anchor="middle" x="118" y="-661.8" font-family="Helvetica,sans-Serif" font-size="14.00" fill="#000000">doc &#45; 30</text>
</g>
<!-- section_1 -->
<g id="node2" class="node">
<title>section_1</title>
<ellipse fill="none" stroke="#000000" cx="118" cy="-594" rx="55.6456" ry="18"/>
<text text-anchor="middle" x="118" y="-589.8" font-family="Helvetica,sans-Serif" font-size="14.00" fill="#000000">section: 1&#45;2</text>
</g>
<!-- doc_0&#45;&gt;section_1 -->
<g id="edge1" class="edge">
<title>doc_0&#45;&gt;section_1</title>
<path fill="none" stroke="#000000" stroke-dasharray="5,2" d="M118,-647.8314C118,-640.131 118,-630.9743 118,-622.4166"/>
<polygon fill="#000000" stroke="#000000" points="121.5001,-622.4132 118,-612.4133 114.5001,-622.4133 121.5001,-622.4132"/>
</g>
<!-- header_2 -->
<g id="node3" class="node">
<title>header_2</title>
<ellipse fill="none" stroke="#000000" cx="27" cy="-522" rx="27" ry="18"/>
</g>
<!-- section_1&#45;&gt;header_2 -->
<g id="edge2" class="edge">
<title>section_1&#45;&gt;header_2</title>
<path fill="none" stroke="#000000" stroke-dasharray="5,2" d="M96.894,-577.3008C83.763,-566.9114 66.7835,-553.4771 52.8483,-542.4514"/>
<polygon fill="#000000" stroke="#000000" points="54.6405,-539.4064 44.6266,-535.9463 50.2971,-544.896 54.6405,-539.4064"/>
</g>
<!-- block_3 -->
<g id="node4" class="node">
<title>block_3</title>
<ellipse fill="none" stroke="#000000" cx="118" cy="-522" rx="45.9804" ry="18"/>
<text text-anchor="middle" x="118" y="-517.8" font-family="Helvetica,sans-Serif" font-size="14.00" fill="#000000">block 1&#45;2</text>
</g>
<!-- section_1&#45;&gt;block_3 -->
<g id="edge3" class="edge">
<title>section_1&#45;&gt;block_3</title>
<path fill="none" stroke="#000000" stroke-dasharray="5,2" d="M118,-575.8314C118,-568.131 118,-558.9743 118,-550.4166"/>
<polygon fill="#000000" stroke="#000000" points="121.5001,-550.4132 118,-540.4133 114.5001,-550.4133 121.5001,-550.4132"/>
</g>
<!-- section_4 -->
<g id="node5" class="node">
<title>section_4</title>
<ellipse fill="none" stroke="#000000" cx="280" cy="-522" rx="60.9826" ry="18"/>
<text text-anchor="middle" x="280" y="-517.8" font-family="Helvetica,sans-Serif" font-size="14.00" fill="#000000">section: 3&#45;12</text>
</g>
<!-- section_1&#45;&gt;section_4 -->
<g id="edge4" class="edge">
<title>section_1&#45;&gt;section_4</title>
<path fill="none" stroke="#000000" stroke-dasharray="5,2" d="M150.7831,-579.4297C175.5942,-568.4026 209.8951,-553.1577 236.9217,-541.1459"/>
<polygon fill="#000000" stroke="#000000" points="238.4338,-544.304 246.1505,-537.0442 235.5908,-537.9073 238.4338,-544.304"/>
</g>
<!-- leaf_5 -->
<g id="node6" class="node">
<title>leaf_5</title>
<polygon fill="none" stroke="#c0c0c0" points="108,-468 54,-468 54,-432 108,-432 108,-468"/>
</g>
<!-- block_3&#45;&gt;leaf_5 -->
<g id="edge5" class="edge">
<title>block_3&#45;&gt;leaf_5</title>
<path fill="none" stroke="#000000" stroke-dasharray="5,2" d="M108.8539,-504.2022C104.6609,-496.0428 99.5979,-486.1904 94.9448,-477.1358"/>
<polygon fill="#000000" stroke="#000000" points="97.9816,-475.3877 90.2979,-468.0931 91.7556,-478.5872 97.9816,-475.3877"/>
</g>
<!-- header_6 -->
<g id="node7" class="node">
<title>header_6</title>
<ellipse fill="none" stroke="#000000" cx="171" cy="-450" rx="45.02" ry="18"/>
<text text-anchor="middle" x="171" y="-445.8" font-family="Helvetica,sans-Serif" font-size="14.00" fill="#000000">H1sauce</text>
</g>
<!-- section_4&#45;&gt;header_6 -->
<g id="edge6" class="edge">
<title>section_4&#45;&gt;header_6</title>
<path fill="none" stroke="#000000" stroke-dasharray="5,2" d="M254.9932,-505.4817C239.4716,-495.2289 219.3826,-481.9592 202.7433,-470.9681"/>
<polygon fill="#000000" stroke="#000000" points="204.672,-468.0474 194.3989,-465.4562 200.8138,-473.8882 204.672,-468.0474"/>
</g>
<!-- block_7 -->
<g id="node8" class="node">
<title>block_7</title>
<ellipse fill="none" stroke="#000000" cx="280" cy="-450" rx="45.9804" ry="18"/>
<text text-anchor="middle" x="280" y="-445.8" font-family="Helvetica,sans-Serif" font-size="14.00" fill="#000000">block 3&#45;9</text>
</g>
<!-- section_4&#45;&gt;block_7 -->
<g id="edge7" class="edge">
<title>section_4&#45;&gt;block_7</title>
<path fill="none" stroke="#000000" stroke-dasharray="5,2" d="M280,-503.8314C280,-496.131 280,-486.9743 280,-478.4166"/>
<polygon fill="#000000" stroke="#000000" points="283.5001,-478.4132 280,-468.4133 276.5001,-478.4133 283.5001,-478.4132"/>
</g>
<!-- block_8 -->
<g id="node9" class="node">
<title>block_8</title>
<ellipse fill="none" stroke="#000000" cx="400" cy="-450" rx="55.6542" ry="18"/>
<text text-anchor="middle" x="400" y="-445.8" font-family="Helvetica,sans-Serif" font-size="14.00" fill="#000000">block 10&#45;12</text>
</g>
<!-- section_4&#45;&gt;block_8 -->
<g id="edge8" class="edge">
<title>section_4&#45;&gt;block_8</title>
<path fill="none" stroke="#000000" stroke-dasharray="5,2" d="M306.9303,-505.8418C324.033,-495.5802 346.3488,-482.1907 364.8413,-471.0952"/>
<polygon fill="#000000" stroke="#000000" points="366.7985,-474.0026 373.5727,-465.8564 363.197,-468.0002 366.7985,-474.0026"/>
</g>
<!-- section_9 -->
<g id="node10" class="node">
<title>section_9</title>
<ellipse fill="none" stroke="#000000" cx="575" cy="-450" rx="65.8187" ry="18"/>
<text text-anchor="middle" x="575" y="-445.8" font-family="Helvetica,sans-Serif" font-size="14.00" fill="#000000">section: 13&#45;21</text>
</g>
<!-- section_4&#45;&gt;section_9 -->
<g id="edge9" class="edge">
<title>section_4&#45;&gt;section_9</title>
<path fill="none" stroke="#000000" stroke-dasharray="5,2" d="M327.0698,-510.5118C378.2178,-498.0282 460.0491,-478.0558 515.5871,-464.5008"/>
<polygon fill="#000000" stroke="#000000" points="516.753,-467.819 525.6379,-462.0477 515.0932,-461.0187 516.753,-467.819"/>
</g>
<!-- leaf_10 -->
<g id="node11" class="node">
<title>leaf_10</title>
<polygon fill="none" stroke="#c0c0c0" points="307,-396 253,-396 253,-360 307,-360 307,-396"/>
</g>
<!-- block_7&#45;&gt;leaf_10 -->
<g id="edge10" class="edge">
<title>block_7&#45;&gt;leaf_10</title>
<path fill="none" stroke="#000000" stroke-dasharray="5,2" d="M280,-431.8314C280,-424.131 280,-414.9743 280,-406.4166"/>
<polygon fill="#000000" stroke="#000000" points="283.5001,-406.4132 280,-396.4133 276.5001,-406.4133 283.5001,-406.4132"/>
</g>
<!-- leaf_11 -->
<g id="node12" class="node">
<title>leaf_11</title>
<polygon fill="none" stroke="#c0c0c0" points="403,-396 349,-396 349,-360 403,-360 403,-396"/>
</g>
<!-- block_8&#45;&gt;leaf_11 -->
<g id="edge11" class="edge">
<title>block_8&#45;&gt;leaf_11</title>
<path fill="none" stroke="#000000" stroke-dasharray="5,2" d="M393.9438,-431.8314C391.3488,-424.0463 388.2576,-414.7729 385.3782,-406.1347"/>
<polygon fill="#000000" stroke="#000000" points="388.6205,-404.7933 382.1378,-396.4133 381.9797,-407.0069 388.6205,-404.7933"/>
</g>
<!-- header_12 -->
<g id="node13" class="node">
<title>header_12</title>
<ellipse fill="none" stroke="#000000" cx="461" cy="-378" rx="40.1836" ry="18"/>
<text text-anchor="middle" x="461" y="-373.8" font-family="Helvetica,sans-Serif" font-size="14.00" fill="#000000">H2ness</text>
</g>
<!-- section_9&#45;&gt;header_12 -->
<g id="edge12" class="edge">
<title>section_9&#45;&gt;header_12</title>
<path fill="none" stroke="#000000" stroke-dasharray="5,2" d="M548.8461,-433.4817C532.2766,-423.0168 510.7306,-409.4088 493.124,-398.2888"/>
<polygon fill="#000000" stroke="#000000" points="494.6471,-395.1112 484.3232,-392.7304 490.9091,-401.0296 494.6471,-395.1112"/>
</g>
<!-- block_13 -->
<g id="node14" class="node">
<title>block_13</title>
<ellipse fill="none" stroke="#000000" cx="575" cy="-378" rx="55.6542" ry="18"/>
<text text-anchor="middle" x="575" y="-373.8" font-family="Helvetica,sans-Serif" font-size="14.00" fill="#000000">block 13&#45;15</text>
</g>
<!-- section_9&#45;&gt;block_13 -->
<g id="edge13" class="edge">
<title>section_9&#45;&gt;block_13</title>
<path fill="none" stroke="#000000" stroke-dasharray="5,2" d="M575,-431.8314C575,-424.131 575,-414.9743 575,-406.4166"/>
<polygon fill="#000000" stroke="#000000" points="578.5001,-406.4132 575,-396.4133 571.5001,-406.4133 578.5001,-406.4132"/>
</g>
<!-- block_14 -->
<g id="node15" class="node">
<title>block_14</title>
<ellipse fill="none" stroke="#000000" cx="705" cy="-378" rx="55.6542" ry="18"/>
<text text-anchor="middle" x="705" y="-373.8" font-family="Helvetica,sans-Serif" font-size="14.00" fill="#000000">block 16&#45;21</text>
</g>
<!-- section_9&#45;&gt;block_14 -->
<g id="edge14" class="edge">
<title>section_9&#45;&gt;block_14</title>
<path fill="none" stroke="#000000" stroke-dasharray="5,2" d="M604.1745,-433.8418C623.0007,-423.415 647.6577,-409.7588 667.8756,-398.5612"/>
<polygon fill="#000000" stroke="#000000" points="669.7636,-401.5166 676.8157,-393.6098 666.372,-395.393 669.7636,-401.5166"/>
</g>
<!-- section_15 -->
<g id="node16" class="node">
<title>section_15</title>
<ellipse fill="none" stroke="#000000" cx="890" cy="-378" rx="65.8187" ry="18"/>
<text text-anchor="middle" x="890" y="-373.8" font-family="Helvetica,sans-Serif" font-size="14.00" fill="#000000">section: 22&#45;30</text>
</g>
<!-- section_9&#45;&gt;section_15 -->
<g id="edge15" class="edge">
<title>section_9&#45;&gt;section_15</title>
<path fill="none" stroke="#000000" stroke-dasharray="5,2" d="M625.6102,-438.432C681.178,-425.7308 770.356,-405.3472 829.5546,-391.8161"/>
<polygon fill="#000000" stroke="#000000" points="830.5467,-395.1797 839.5154,-389.5393 828.9869,-388.3557 830.5467,-395.1797"/>
</g>
<!-- leaf_16 -->
<g id="node17" class="node">
<title>leaf_16</title>
<polygon fill="none" stroke="#c0c0c0" points="579,-324 525,-324 525,-288 579,-288 579,-324"/>
</g>
<!-- block_13&#45;&gt;leaf_16 -->
<g id="edge16" class="edge">
<title>block_13&#45;&gt;leaf_16</title>
<path fill="none" stroke="#000000" stroke-dasharray="5,2" d="M569.1961,-359.8314C566.7092,-352.0463 563.7469,-342.7729 560.9875,-334.1347"/>
<polygon fill="#000000" stroke="#000000" points="564.2591,-332.874 557.882,-324.4133 557.591,-335.0041 564.2591,-332.874"/>
</g>
<!-- structure_17 -->
<g id="node18" class="node">
<title>structure_17</title>
<ellipse fill="none" stroke="#000000" cx="642" cy="-306" rx="44.5182" ry="18"/>
<text text-anchor="middle" x="642" y="-301.8" font-family="Helvetica,sans-Serif" font-size="14.00" fill="#000000">structure</text>
</g>
<!-- block_14&#45;&gt;structure_17 -->
<g id="edge17" class="edge">
<title>block_14&#45;&gt;structure_17</title>
<path fill="none" stroke="#000000" stroke-dasharray="5,2" d="M689.7495,-360.5708C681.9337,-351.6385 672.2799,-340.6056 663.7026,-330.8029"/>
<polygon fill="#000000" stroke="#000000" points="666.3292,-328.4897 657.1101,-323.2687 661.0612,-333.0993 666.3292,-328.4897"/>
</g>
<!-- leaf_21 -->
<g id="node22" class="node">
<title>leaf_21</title>
<polygon fill="none" stroke="#c0c0c0" points="759,-324 705,-324 705,-288 759,-288 759,-324"/>
</g>
<!-- block_14&#45;&gt;leaf_21 -->
<g id="edge21" class="edge">
<title>block_14&#45;&gt;leaf_21</title>
<path fill="none" stroke="#000000" stroke-dasharray="5,2" d="M711.8132,-359.8314C714.7644,-351.9617 718.2858,-342.5712 721.555,-333.8533"/>
<polygon fill="#000000" stroke="#000000" points="724.8609,-335.0055 725.095,-324.4133 718.3066,-332.5476 724.8609,-335.0055"/>
</g>
<!-- header_22 -->
<g id="node23" class="node">
<title>header_22</title>
<ellipse fill="none" stroke="#000000" cx="808" cy="-306" rx="31.4984" ry="18"/>
<text text-anchor="middle" x="808" y="-301.8" font-family="Helvetica,sans-Serif" font-size="14.00" fill="#000000">H3oh</text>
</g>
<!-- section_15&#45;&gt;header_22 -->
<g id="edge22" class="edge">
<title>section_15&#45;&gt;header_22</title>
<path fill="none" stroke="#000000" stroke-dasharray="5,2" d="M870.1501,-360.5708C858.9818,-350.7645 844.9302,-338.4265 833.0145,-327.9639"/>
<polygon fill="#000000" stroke="#000000" points="834.9918,-325.0424 825.168,-321.0744 830.3731,-330.3025 834.9918,-325.0424"/>
</g>
<!-- block_23 -->
<g id="node24" class="node">
<title>block_23</title>
<ellipse fill="none" stroke="#000000" cx="913" cy="-306" rx="55.6542" ry="18"/>
<text text-anchor="middle" x="913" y="-301.8" font-family="Helvetica,sans-Serif" font-size="14.00" fill="#000000">block 22&#45;23</text>
</g>
<!-- section_15&#45;&gt;block_23 -->
<g id="edge23" class="edge">
<title>section_15&#45;&gt;block_23</title>
<path fill="none" stroke="#000000" stroke-dasharray="5,2" d="M895.8039,-359.8314C898.3565,-351.8406 901.41,-342.2819 904.2308,-333.4514"/>
<polygon fill="#000000" stroke="#000000" points="907.5687,-334.5043 907.2777,-323.9134 900.9006,-332.3741 907.5687,-334.5043"/>
</g>
<!-- block_24 -->
<g id="node25" class="node">
<title>block_24</title>
<ellipse fill="none" stroke="#000000" cx="1043" cy="-306" rx="55.6542" ry="18"/>
<text text-anchor="middle" x="1043" y="-301.8" font-family="Helvetica,sans-Serif" font-size="14.00" fill="#000000">block 24&#45;30</text>
</g>
<!-- section_15&#45;&gt;block_24 -->
<g id="edge24" class="edge">
<title>section_15&#45;&gt;block_24</title>
<path fill="none" stroke="#000000" stroke-dasharray="5,2" d="M923.1987,-362.3771C946.4224,-351.4483 977.5846,-336.7837 1002.3054,-325.1504"/>
<polygon fill="#000000" stroke="#000000" points="1003.8767,-328.2792 1011.4346,-320.8543 1000.8961,-321.9455 1003.8767,-328.2792"/>
</g>
<!-- hashline_18 -->
<g id="node19" class="node">
<title>hashline_18</title>
<ellipse fill="none" stroke="#000000" cx="642" cy="-234" rx="43.0992" ry="18"/>
<text text-anchor="middle" x="642" y="-229.8" font-family="Helvetica,sans-Serif" font-size="14.00" fill="#000000">hashline</text>
</g>
<!-- structure_17&#45;&gt;hashline_18 -->
<g id="edge18" class="edge">
<title>structure_17&#45;&gt;hashline_18</title>
<path fill="none" stroke="#000000" stroke-dasharray="5,2" d="M642,-287.8314C642,-280.131 642,-270.9743 642,-262.4166"/>
<polygon fill="#000000" stroke="#000000" points="645.5001,-262.4132 642,-252.4133 638.5001,-262.4133 645.5001,-262.4132"/>
</g>
<!-- hashtag_19 -->
<g id="node20" class="node">
<title>hashtag_19</title>
<ellipse fill="none" stroke="#000000" cx="642" cy="-162" rx="41.6544" ry="18"/>
<text text-anchor="middle" x="642" y="-157.8" font-family="Helvetica,sans-Serif" font-size="14.00" fill="#000000">hashtag</text>
</g>
<!-- hashline_18&#45;&gt;hashtag_19 -->
<g id="edge19" class="edge">
<title>hashline_18&#45;&gt;hashtag_19</title>
<path fill="none" stroke="#000000" stroke-dasharray="5,2" d="M642,-215.8314C642,-208.131 642,-198.9743 642,-190.4166"/>
<polygon fill="#000000" stroke="#000000" points="645.5001,-190.4132 642,-180.4133 638.5001,-190.4133 645.5001,-190.4132"/>
</g>
<!-- leaf_20 -->
<g id="node21" class="node">
<title>leaf_20</title>
<polygon fill="none" stroke="#c0c0c0" points="685,-108 599,-108 599,-72 685,-72 685,-108"/>
<text text-anchor="middle" x="642" y="-86.5" font-family="Inconsolata" font-size="14.00" fill="#000000">TagYoureIt</text>
</g>
<!-- hashtag_19&#45;&gt;leaf_20 -->
<g id="edge20" class="edge">
<title>hashtag_19&#45;&gt;leaf_20</title>
<path fill="none" stroke="#000000" stroke-dasharray="5,2" d="M642,-143.8314C642,-136.131 642,-126.9743 642,-118.4166"/>
<polygon fill="#000000" stroke="#000000" points="645.5001,-118.4132 642,-108.4133 638.5001,-118.4133 645.5001,-118.4132"/>
</g>
<!-- leaf_25 -->
<g id="node26" class="node">
<title>leaf_25</title>
<polygon fill="none" stroke="#c0c0c0" points="940,-252 886,-252 886,-216 940,-216 940,-252"/>
</g>
<!-- block_23&#45;&gt;leaf_25 -->
<g id="edge25" class="edge">
<title>block_23&#45;&gt;leaf_25</title>
<path fill="none" stroke="#000000" stroke-dasharray="5,2" d="M913,-287.8314C913,-280.131 913,-270.9743 913,-262.4166"/>
<polygon fill="#000000" stroke="#000000" points="916.5001,-262.4132 913,-252.4133 909.5001,-262.4133 916.5001,-262.4132"/>
</g>
<!-- structure_26 -->
<g id="node27" class="node">
<title>structure_26</title>
<ellipse fill="none" stroke="#000000" cx="1023" cy="-234" rx="44.5182" ry="18"/>
<text text-anchor="middle" x="1023" y="-229.8" font-family="Helvetica,sans-Serif" font-size="14.00" fill="#000000">structure</text>
</g>
<!-- block_24&#45;&gt;structure_26 -->
<g id="edge26" class="edge">
<title>block_24&#45;&gt;structure_26</title>
<path fill="none" stroke="#000000" stroke-dasharray="5,2" d="M1037.9532,-287.8314C1035.7574,-279.9266 1033.1353,-270.4872 1030.7046,-261.7365"/>
<polygon fill="#000000" stroke="#000000" points="1034.0248,-260.6118 1027.9759,-251.9134 1027.2801,-262.4854 1034.0248,-260.6118"/>
</g>
<!-- leaf_30 -->
<g id="node31" class="node">
<title>leaf_30</title>
<polygon fill="none" stroke="#c0c0c0" points="1178.5,-252 1085.5,-252 1085.5,-216 1178.5,-216 1178.5,-252"/>
<text text-anchor="middle" x="1132" y="-230.5" font-family="Inconsolata" font-size="14.00" fill="#000000">@AnLuserTag</text>
</g>
<!-- block_24&#45;&gt;leaf_30 -->
<g id="edge30" class="edge">
<title>block_24&#45;&gt;leaf_30</title>
<path fill="none" stroke="#000000" stroke-dasharray="5,2" d="M1064.0918,-288.937C1075.3081,-279.8631 1089.2982,-268.5453 1101.6605,-258.5443"/>
<polygon fill="#000000" stroke="#000000" points="1103.9306,-261.2097 1109.5038,-252.1992 1099.528,-255.7676 1103.9306,-261.2097"/>
</g>
<!-- handleline_27 -->
<g id="node28" class="node">
<title>handleline_27</title>
<ellipse fill="none" stroke="#000000" cx="1023" cy="-162" rx="50.3585" ry="18"/>
<text text-anchor="middle" x="1023" y="-157.8" font-family="Helvetica,sans-Serif" font-size="14.00" fill="#000000">handleline</text>
</g>
<!-- structure_26&#45;&gt;handleline_27 -->
<g id="edge27" class="edge">
<title>structure_26&#45;&gt;handleline_27</title>
<path fill="none" stroke="#000000" stroke-dasharray="5,2" d="M1023,-215.8314C1023,-208.131 1023,-198.9743 1023,-190.4166"/>
<polygon fill="#000000" stroke="#000000" points="1026.5001,-190.4132 1023,-180.4133 1019.5001,-190.4133 1026.5001,-190.4132"/>
</g>
<!-- handle_28 -->
<g id="node29" class="node">
<title>handle_28</title>
<ellipse fill="none" stroke="#000000" cx="1023" cy="-90" rx="36.827" ry="18"/>
<text text-anchor="middle" x="1023" y="-85.8" font-family="Helvetica,sans-Serif" font-size="14.00" fill="#000000">handle</text>
</g>
<!-- handleline_27&#45;&gt;handle_28 -->
<g id="edge28" class="edge">
<title>handleline_27&#45;&gt;handle_28</title>
<path fill="none" stroke="#000000" stroke-dasharray="5,2" d="M1023,-143.8314C1023,-136.131 1023,-126.9743 1023,-118.4166"/>
<polygon fill="#000000" stroke="#000000" points="1026.5001,-118.4132 1023,-108.4133 1019.5001,-118.4133 1026.5001,-118.4132"/>
</g>
<!-- leaf_29 -->
<g id="node30" class="node">
<title>leaf_29</title>
<polygon fill="none" stroke="#c0c0c0" points="1066,-36 980,-36 980,0 1066,0 1066,-36"/>
<text text-anchor="middle" x="1023" y="-14.5" font-family="Inconsolata" font-size="14.00" fill="#000000">AnLuserTag</text>
</g>
<!-- handle_28&#45;&gt;leaf_29 -->
<g id="edge29" class="edge">
<title>handle_28&#45;&gt;leaf_29</title>
<path fill="none" stroke="#000000" stroke-dasharray="5,2" d="M1023,-71.8314C1023,-64.131 1023,-54.9743 1023,-46.4166"/>
<polygon fill="#000000" stroke="#000000" points="1026.5001,-46.4132 1023,-36.4133 1019.5001,-46.4133 1026.5001,-46.4132"/>
</g>
</g>
</svg>
