<?xml version="1.0" encoding="UTF-8" standalone="no"?>
<!DOCTYPE svg PUBLIC "-//W3C//DTD SVG 1.1//EN"
 "http://www.w3.org/Graphics/SVG/1.1/DTD/svg11.dtd">
<!-- Generated by graphviz version 2.40.1 (20161225.0304)
 -->
<!-- Title: hierarchy Pages: 1 -->
<svg width="1524pt" height="879pt"
 viewBox="0.00 0.00 1524.00 878.60" xmlns="http://www.w3.org/2000/svg" xmlns:xlink="http://www.w3.org/1999/xlink">
<g id="graph0" class="graph" transform="scale(1 1) rotate(0) translate(4 874.6003)">
<title>hierarchy</title>
<polygon fill="#ffffff" stroke="transparent" points="-4,4 -4,-874.6003 1520,-874.6003 1520,4 -4,4"/>
<!-- doc_0 -->
<g id="node1" class="node">
<title>doc_0</title>
<ellipse fill="none" stroke="#000000" cx="135.5" cy="-852.6003" rx="42.1216" ry="18"/>
<text text-anchor="middle" x="135.5" y="-848.4003" font-family="Helvetica,sans-Serif" font-size="14.00" fill="#000000">doc &#45; 30</text>
</g>
<!-- section_1 -->
<g id="node2" class="node">
<title>section_1</title>
<ellipse fill="none" stroke="#000000" cx="135.5" cy="-780.6003" rx="55.6456" ry="18"/>
<text text-anchor="middle" x="135.5" y="-776.4003" font-family="Helvetica,sans-Serif" font-size="14.00" fill="#000000">section: 1&#45;2</text>
</g>
<!-- doc_0&#45;&gt;section_1 -->
<g id="edge1" class="edge">
<title>doc_0&#45;&gt;section_1</title>
<path fill="none" stroke="#000000" stroke-dasharray="5,2" d="M135.5,-834.4316C135.5,-826.7312 135.5,-817.5746 135.5,-809.0169"/>
<polygon fill="#000000" stroke="#000000" points="139.0001,-809.0135 135.5,-799.0135 132.0001,-809.0136 139.0001,-809.0135"/>
</g>
<!-- header_2 -->
<g id="node3" class="node">
<title>header_2</title>
<ellipse fill="none" stroke="#000000" cx="44.5" cy="-708.6003" rx="27" ry="18"/>
</g>
<!-- section_1&#45;&gt;header_2 -->
<g id="edge2" class="edge">
<title>section_1&#45;&gt;header_2</title>
<path fill="none" stroke="#000000" stroke-dasharray="5,2" d="M114.394,-763.9011C101.263,-753.5117 84.2835,-740.0773 70.3483,-729.0516"/>
<polygon fill="#000000" stroke="#000000" points="72.1405,-726.0067 62.1266,-722.5466 67.7971,-731.4963 72.1405,-726.0067"/>
</g>
<!-- block_3 -->
<g id="node4" class="node">
<title>block_3</title>
<ellipse fill="none" stroke="#000000" cx="135.5" cy="-708.6003" rx="45.9804" ry="18"/>
<text text-anchor="middle" x="135.5" y="-704.4003" font-family="Helvetica,sans-Serif" font-size="14.00" fill="#000000">block 1&#45;2</text>
</g>
<!-- section_1&#45;&gt;block_3 -->
<g id="edge3" class="edge">
<title>section_1&#45;&gt;block_3</title>
<path fill="none" stroke="#000000" stroke-dasharray="5,2" d="M135.5,-762.4316C135.5,-754.7312 135.5,-745.5746 135.5,-737.0169"/>
<polygon fill="#000000" stroke="#000000" points="139.0001,-737.0135 135.5,-727.0135 132.0001,-737.0136 139.0001,-737.0135"/>
</g>
<!-- section_4 -->
<g id="node5" class="node">
<title>section_4</title>
<ellipse fill="none" stroke="#000000" cx="321.5" cy="-708.6003" rx="60.9826" ry="18"/>
<text text-anchor="middle" x="321.5" y="-704.4003" font-family="Helvetica,sans-Serif" font-size="14.00" fill="#000000">section: 3&#45;12</text>
</g>
<!-- section_1&#45;&gt;section_4 -->
<g id="edge4" class="edge">
<title>section_1&#45;&gt;section_4</title>
<path fill="none" stroke="#000000" stroke-dasharray="5,2" d="M171.3627,-766.718C200.8286,-755.3118 242.7886,-739.0692 274.8625,-726.6535"/>
<polygon fill="#000000" stroke="#000000" points="276.4121,-729.8068 284.4743,-722.9328 273.8851,-723.2788 276.4121,-729.8068"/>
</g>
<!-- leaf_5 -->
<g id="node6" class="node">
<title>leaf_5</title>
<polygon fill="none" stroke="#c0c0c0" points="149,-654.8023 0,-654.8023 0,-614.9982 149,-614.9982 149,-654.8023"/>
<text text-anchor="middle" x="74.5" y="-639.4003" font-family="Inconsolata" font-size="14.00" fill="#000000">A pre&#45;line of prose</text>
</g>
<!-- block_3&#45;&gt;leaf_5 -->
<g id="edge5" class="edge">
<title>block_3&#45;&gt;leaf_5</title>
<path fill="none" stroke="#000000" stroke-dasharray="5,2" d="M121.0439,-691.1344C113.9976,-682.6211 105.3541,-672.1782 97.4366,-662.6121"/>
<polygon fill="#000000" stroke="#000000" points="100.0799,-660.3165 91.0075,-654.8446 94.6874,-664.7798 100.0799,-660.3165"/>
</g>
<!-- header_6 -->
<g id="node7" class="node">
<title>header_6</title>
<ellipse fill="none" stroke="#000000" cx="212.5" cy="-634.9003" rx="45.02" ry="18"/>
<text text-anchor="middle" x="212.5" y="-630.7003" font-family="Helvetica,sans-Serif" font-size="14.00" fill="#000000">H1sauce</text>
</g>
<!-- section_4&#45;&gt;header_6 -->
<g id="edge6" class="edge">
<title>section_4&#45;&gt;header_6</title>
<path fill="none" stroke="#000000" stroke-dasharray="5,2" d="M297.0383,-692.0606C281.4308,-681.5076 261.0437,-667.7229 244.2007,-656.3346"/>
<polygon fill="#000000" stroke="#000000" points="246.0045,-653.3293 235.76,-650.6274 242.0836,-659.1282 246.0045,-653.3293"/>
</g>
<!-- block_7 -->
<g id="node8" class="node">
<title>block_7</title>
<ellipse fill="none" stroke="#000000" cx="321.5" cy="-634.9003" rx="45.9804" ry="18"/>
<text text-anchor="middle" x="321.5" y="-630.7003" font-family="Helvetica,sans-Serif" font-size="14.00" fill="#000000">block 3&#45;9</text>
</g>
<!-- section_4&#45;&gt;block_7 -->
<g id="edge7" class="edge">
<title>section_4&#45;&gt;block_7</title>
<path fill="none" stroke="#000000" stroke-dasharray="5,2" d="M321.5,-690.3823C321.5,-682.1714 321.5,-672.2857 321.5,-663.1475"/>
<polygon fill="#000000" stroke="#000000" points="325.0001,-662.9087 321.5,-652.9087 318.0001,-662.9087 325.0001,-662.9087"/>
</g>
<!-- block_8 -->
<g id="node9" class="node">
<title>block_8</title>
<ellipse fill="none" stroke="#000000" cx="441.5" cy="-634.9003" rx="55.6542" ry="18"/>
<text text-anchor="middle" x="441.5" y="-630.7003" font-family="Helvetica,sans-Serif" font-size="14.00" fill="#000000">block 10&#45;12</text>
</g>
<!-- section_4&#45;&gt;block_8 -->
<g id="edge8" class="edge">
<title>section_4&#45;&gt;block_8</title>
<path fill="none" stroke="#000000" stroke-dasharray="5,2" d="M348.1319,-692.2439C365.4184,-681.6271 388.1231,-667.6826 406.8144,-656.203"/>
<polygon fill="#000000" stroke="#000000" points="408.6659,-659.1733 415.3554,-650.9574 405.0025,-653.2085 408.6659,-659.1733"/>
</g>
<!-- section_9 -->
<g id="node10" class="node">
<title>section_9</title>
<ellipse fill="none" stroke="#000000" cx="695.5" cy="-634.9003" rx="65.8187" ry="18"/>
<text text-anchor="middle" x="695.5" y="-630.7003" font-family="Helvetica,sans-Serif" font-size="14.00" fill="#000000">section: 13&#45;21</text>
</g>
<!-- section_4&#45;&gt;section_9 -->
<g id="edge9" class="edge">
<title>section_4&#45;&gt;section_9</title>
<path fill="none" stroke="#000000" stroke-dasharray="5,2" d="M372.3285,-698.5841C439.7593,-685.2962 558.7842,-661.8413 632.0387,-647.4059"/>
<polygon fill="#000000" stroke="#000000" points="632.9267,-650.7983 642.0613,-645.4308 631.5732,-643.9304 632.9267,-650.7983"/>
</g>
<!-- leaf_10 -->
<g id="node11" class="node">
<title>leaf_10</title>
<polygon fill="none" stroke="#c0c0c0" points="342,-579.3005 81,-579.3005 81,-476.8999 342,-476.8999 342,-579.3005"/>
<text text-anchor="middle" x="211.5" y="-532.0002" font-family="Inconsolata" font-size="14.00" fill="#000000">&#45; List line</text>
<text text-anchor="middle" x="211.5" y="-516.6002" font-family="Inconsolata" font-size="14.00" fill="#000000">&#45; second line same list</text>
<text text-anchor="middle" x="211.5" y="-501.2002" font-family="Inconsolata" font-size="14.00" fill="#000000"> &#160;&#45; third line, same list, indented</text>
</g>
<!-- block_7&#45;&gt;leaf_10 -->
<g id="edge10" class="edge">
<title>block_7&#45;&gt;leaf_10</title>
<path fill="none" stroke="#000000" stroke-dasharray="5,2" d="M303.8266,-617.741C294.8744,-609.0492 283.4242,-597.9321 271.6563,-586.5066"/>
<polygon fill="#000000" stroke="#000000" points="273.9204,-583.8264 264.3076,-579.3716 269.0442,-588.8487 273.9204,-583.8264"/>
</g>
<!-- leaf_11 -->
<g id="node12" class="node">
<title>leaf_11</title>
<polygon fill="none" stroke="#c0c0c0" points="523,-555.4006 360,-555.4006 360,-500.7998 523,-500.7998 523,-555.4006"/>
<text text-anchor="middle" x="441.5" y="-540.3002" font-family="Inconsolata" font-size="14.00" fill="#000000">1. Numbered list</text>
<text text-anchor="middle" x="441.5" y="-524.9002" font-family="Inconsolata" font-size="14.00" fill="#000000">1. Same numbered list</text>
</g>
<!-- block_8&#45;&gt;leaf_11 -->
<g id="edge11" class="edge">
<title>block_8&#45;&gt;leaf_11</title>
<path fill="none" stroke="#000000" stroke-dasharray="5,2" d="M441.5,-616.7831C441.5,-602.885 441.5,-583.2155 441.5,-565.9307"/>
<polygon fill="#000000" stroke="#000000" points="445.0001,-565.5496 441.5,-555.5497 438.0001,-565.5497 445.0001,-565.5496"/>
</g>
<!-- header_12 -->
<g id="node13" class="node">
<title>header_12</title>
<ellipse fill="none" stroke="#000000" cx="581.5" cy="-528.1002" rx="40.1836" ry="18"/>
<text text-anchor="middle" x="581.5" y="-523.9002" font-family="Helvetica,sans-Serif" font-size="14.00" fill="#000000">H2ness</text>
</g>
<!-- section_9&#45;&gt;header_12 -->
<g id="edge12" class="edge">
<title>section_9&#45;&gt;header_12</title>
<path fill="none" stroke="#000000" stroke-dasharray="5,2" d="M674.2601,-617.5963C661.3347,-606.848 644.6456,-592.5761 630.5,-579.2002 621.6111,-570.7951 612.2273,-561.2013 604.0769,-552.6138"/>
<polygon fill="#000000" stroke="#000000" points="606.3878,-549.962 596.9883,-545.0731 601.2875,-554.7565 606.3878,-549.962"/>
</g>
<!-- block_13 -->
<g id="node14" class="node">
<title>block_13</title>
<ellipse fill="none" stroke="#000000" cx="695.5" cy="-528.1002" rx="55.6542" ry="18"/>
<text text-anchor="middle" x="695.5" y="-523.9002" font-family="Helvetica,sans-Serif" font-size="14.00" fill="#000000">block 13&#45;15</text>
</g>
<!-- section_9&#45;&gt;block_13 -->
<g id="edge13" class="edge">
<title>section_9&#45;&gt;block_13</title>
<path fill="none" stroke="#000000" stroke-dasharray="5,2" d="M695.5,-616.7831C695.5,-600.2892 695.5,-575.6667 695.5,-556.5485"/>
<polygon fill="#000000" stroke="#000000" points="699.0001,-556.3062 695.5,-546.3063 692.0001,-556.3063 699.0001,-556.3062"/>
</g>
<!-- block_14 -->
<g id="node15" class="node">
<title>block_14</title>
<ellipse fill="none" stroke="#000000" cx="825.5" cy="-528.1002" rx="55.6542" ry="18"/>
<text text-anchor="middle" x="825.5" y="-523.9002" font-family="Helvetica,sans-Serif" font-size="14.00" fill="#000000">block 16&#45;21</text>
</g>
<!-- section_9&#45;&gt;block_14 -->
<g id="edge14" class="edge">
<title>section_9&#45;&gt;block_14</title>
<path fill="none" stroke="#000000" stroke-dasharray="5,2" d="M716.3867,-617.741C738.3113,-599.7291 772.9139,-571.3017 797.2626,-551.2984"/>
<polygon fill="#000000" stroke="#000000" points="799.5886,-553.9171 805.0937,-544.8648 795.145,-548.5083 799.5886,-553.9171"/>
</g>
<!-- section_15 -->
<g id="node16" class="node">
<title>section_15</title>
<ellipse fill="none" stroke="#000000" cx="1113.5" cy="-528.1002" rx="65.8187" ry="18"/>
<text text-anchor="middle" x="1113.5" y="-523.9002" font-family="Helvetica,sans-Serif" font-size="14.00" fill="#000000">section: 22&#45;30</text>
</g>
<!-- section_9&#45;&gt;section_15 -->
<g id="edge15" class="edge">
<title>section_9&#45;&gt;section_15</title>
<path fill="none" stroke="#000000" stroke-dasharray="5,2" d="M743.8583,-622.5446C821.1958,-602.7847 972.4307,-564.1438 1055.475,-542.9257"/>
<polygon fill="#000000" stroke="#000000" points="1056.4324,-546.2936 1065.2547,-540.427 1054.6995,-539.5115 1056.4324,-546.2936"/>
</g>
<!-- leaf_16 -->
<g id="node17" class="node">
<title>leaf_16</title>
<polygon fill="none" stroke="#c0c0c0" points="653.5,-417.6001 599.5,-417.6001 599.5,-377.6001 653.5,-377.6001 653.5,-417.6001"/>
</g>
<!-- block_13&#45;&gt;leaf_16 -->
<g id="edge16" class="edge">
<title>block_13&#45;&gt;leaf_16</title>
<path fill="none" stroke="#000000" stroke-dasharray="5,2" d="M686.0505,-510.2284C674.6768,-488.7172 655.4222,-452.3008 641.8932,-426.7134"/>
<polygon fill="#000000" stroke="#000000" points="644.9615,-425.0285 637.1931,-417.8241 638.7733,-428.3005 644.9615,-425.0285"/>
</g>
<!-- structure_17 -->
<g id="node18" class="node">
<title>structure_17</title>
<ellipse fill="none" stroke="#000000" cx="716.5" cy="-397.6001" rx="44.5182" ry="18"/>
<text text-anchor="middle" x="716.5" y="-393.4001" font-family="Helvetica,sans-Serif" font-size="14.00" fill="#000000">structure</text>
</g>
<!-- block_14&#45;&gt;structure_17 -->
<g id="edge17" class="edge">
<title>block_14&#45;&gt;structure_17</title>
<path fill="none" stroke="#000000" stroke-dasharray="5,2" d="M810.7998,-510.5004C791.9231,-487.9003 759.04,-448.5311 737.5221,-422.7688"/>
<polygon fill="#000000" stroke="#000000" points="740.0641,-420.3524 730.9673,-414.9211 734.6916,-424.8398 740.0641,-420.3524"/>
</g>
<!-- leaf_21 -->
<g id="node22" class="node">
<title>leaf_21</title>
<polygon fill="none" stroke="#c0c0c0" points="1012,-440.9004 779,-440.9004 779,-354.2998 1012,-354.2998 1012,-440.9004"/>
<text text-anchor="middle" x="895.5" y="-425.8002" font-family="Inconsolata" font-size="14.00" fill="#000000">This prose is tagged by the tag</text>
<text text-anchor="middle" x="895.5" y="-378.4001" font-family="Inconsolata" font-size="14.00" fill="#000000">| a | table | line |</text>
</g>
<!-- block_14&#45;&gt;leaf_21 -->
<g id="edge21" class="edge">
<title>block_14&#45;&gt;leaf_21</title>
<path fill="none" stroke="#000000" stroke-dasharray="5,2" d="M835.0864,-510.2284C843.4083,-494.714 855.889,-471.4464 867.3499,-450.08"/>
<polygon fill="#000000" stroke="#000000" points="870.5415,-451.5342 872.1842,-441.0675 864.3729,-448.2254 870.5415,-451.5342"/>
</g>
<!-- header_22 -->
<g id="node23" class="node">
<title>header_22</title>
<ellipse fill="none" stroke="#000000" cx="1061.5" cy="-397.6001" rx="31.4984" ry="18"/>
<text text-anchor="middle" x="1061.5" y="-393.4001" font-family="Helvetica,sans-Serif" font-size="14.00" fill="#000000">H3oh</text>
</g>
<!-- section_15&#45;&gt;header_22 -->
<g id="edge22" class="edge">
<title>section_15&#45;&gt;header_22</title>
<path fill="none" stroke="#000000" stroke-dasharray="5,2" d="M1106.2696,-509.9547C1097.4498,-487.8204 1082.4599,-450.2013 1072.2778,-424.6483"/>
<polygon fill="#000000" stroke="#000000" points="1075.4559,-423.1686 1068.5028,-415.1745 1068.9531,-425.7598 1075.4559,-423.1686"/>
</g>
<!-- block_23 -->
<g id="node24" class="node">
<title>block_23</title>
<ellipse fill="none" stroke="#000000" cx="1166.5" cy="-397.6001" rx="55.6542" ry="18"/>
<text text-anchor="middle" x="1166.5" y="-393.4001" font-family="Helvetica,sans-Serif" font-size="14.00" fill="#000000">block 22&#45;23</text>
</g>
<!-- section_15&#45;&gt;block_23 -->
<g id="edge23" class="edge">
<title>section_15&#45;&gt;block_23</title>
<path fill="none" stroke="#000000" stroke-dasharray="5,2" d="M1120.8694,-509.9547C1129.8086,-487.9441 1144.9666,-450.6212 1155.3406,-425.0776"/>
<polygon fill="#000000" stroke="#000000" points="1158.6731,-426.1736 1159.1932,-415.5915 1152.1875,-423.5395 1158.6731,-426.1736"/>
</g>
<!-- block_24 -->
<g id="node25" class="node">
<title>block_24</title>
<ellipse fill="none" stroke="#000000" cx="1296.5" cy="-397.6001" rx="55.6542" ry="18"/>
<text text-anchor="middle" x="1296.5" y="-393.4001" font-family="Helvetica,sans-Serif" font-size="14.00" fill="#000000">block 24&#45;30</text>
</g>
<!-- section_15&#45;&gt;block_24 -->
<g id="edge24" class="edge">
<title>section_15&#45;&gt;block_24</title>
<path fill="none" stroke="#000000" stroke-dasharray="5,2" d="M1137.4241,-511.0396C1170.162,-487.6937 1228.9765,-445.7521 1265.1878,-419.9293"/>
<polygon fill="#000000" stroke="#000000" points="1267.3262,-422.7032 1273.4359,-414.0475 1263.2619,-417.0039 1267.3262,-422.7032"/>
</g>
<!-- hashline_18 -->
<g id="node19" class="node">
<title>hashline_18</title>
<ellipse fill="none" stroke="#000000" cx="716.5" cy="-267.1" rx="43.0992" ry="18"/>
<text text-anchor="middle" x="716.5" y="-262.9" font-family="Helvetica,sans-Serif" font-size="14.00" fill="#000000">hashline</text>
</g>
<!-- structure_17&#45;&gt;hashline_18 -->
<g id="edge18" class="edge">
<title>structure_17&#45;&gt;hashline_18</title>
<path fill="none" stroke="#000000" stroke-dasharray="5,2" d="M716.5,-379.4546C716.5,-357.7613 716.5,-321.1942 716.5,-295.6897"/>
<polygon fill="#000000" stroke="#000000" points="720.0001,-295.5121 716.5,-285.5121 713.0001,-295.5121 720.0001,-295.5121"/>
</g>
<!-- hashtag_19 -->
<g id="node20" class="node">
<title>hashtag_19</title>
<ellipse fill="none" stroke="#000000" cx="716.5" cy="-162" rx="41.6544" ry="18"/>
<text text-anchor="middle" x="716.5" y="-157.8" font-family="Helvetica,sans-Serif" font-size="14.00" fill="#000000">hashtag</text>
</g>
<!-- hashline_18&#45;&gt;hashtag_19 -->
<g id="edge19" class="edge">
<title>hashline_18&#45;&gt;hashtag_19</title>
<path fill="none" stroke="#000000" stroke-dasharray="5,2" d="M716.5,-248.793C716.5,-232.6674 716.5,-208.9222 716.5,-190.3429"/>
<polygon fill="#000000" stroke="#000000" points="720.0001,-190.0972 716.5,-180.0972 713.0001,-190.0973 720.0001,-190.0972"/>
</g>
<!-- leaf_20 -->
<g id="node21" class="node">
<title>leaf_20</title>
<polygon fill="none" stroke="#c0c0c0" points="759.5,-108 673.5,-108 673.5,-72 759.5,-72 759.5,-108"/>
<text text-anchor="middle" x="716.5" y="-86.5" font-family="Inconsolata" font-size="14.00" fill="#000000">TagYoureIt</text>
</g>
<!-- hashtag_19&#45;&gt;leaf_20 -->
<g id="edge20" class="edge">
<title>hashtag_19&#45;&gt;leaf_20</title>
<path fill="none" stroke="#000000" stroke-dasharray="5,2" d="M716.5,-143.8314C716.5,-136.131 716.5,-126.9743 716.5,-118.4166"/>
<polygon fill="#000000" stroke="#000000" points="720.0001,-118.4132 716.5,-108.4133 713.0001,-118.4133 720.0001,-118.4132"/>
</g>
<!-- leaf_25 -->
<g id="node26" class="node">
<title>leaf_25</title>
<polygon fill="none" stroke="#c0c0c0" points="1193.5,-285.1 1139.5,-285.1 1139.5,-249.1 1193.5,-249.1 1193.5,-285.1"/>
</g>
<!-- block_23&#45;&gt;leaf_25 -->
<g id="edge25" class="edge">
<title>block_23&#45;&gt;leaf_25</title>
<path fill="none" stroke="#000000" stroke-dasharray="5,2" d="M1166.5,-379.4546C1166.5,-357.7613 1166.5,-321.1942 1166.5,-295.6897"/>
<polygon fill="#000000" stroke="#000000" points="1170.0001,-295.5121 1166.5,-285.5121 1163.0001,-295.5121 1170.0001,-295.5121"/>
</g>
<!-- structure_26 -->
<g id="node27" class="node">
<title>structure_26</title>
<ellipse fill="none" stroke="#000000" cx="1276.5" cy="-267.1" rx="44.5182" ry="18"/>
<text text-anchor="middle" x="1276.5" y="-262.9" font-family="Helvetica,sans-Serif" font-size="14.00" fill="#000000">structure</text>
</g>
<!-- block_24&#45;&gt;structure_26 -->
<g id="edge26" class="edge">
<title>block_24&#45;&gt;structure_26</title>
<path fill="none" stroke="#000000" stroke-dasharray="5,2" d="M1293.7191,-379.4546C1290.3757,-357.6388 1284.7269,-320.7805 1280.8155,-295.2585"/>
<polygon fill="#000000" stroke="#000000" points="1284.2319,-294.4458 1279.2573,-285.0914 1277.3126,-295.5062 1284.2319,-294.4458"/>
</g>
<!-- leaf_30 -->
<g id="node31" class="node">
<title>leaf_30</title>
<polygon fill="none" stroke="#c0c0c0" points="1516,-318.3003 1339,-318.3003 1339,-215.8998 1516,-215.8998 1516,-318.3003"/>
<text text-anchor="middle" x="1427.5" y="-303.0001" font-family="Inconsolata" font-size="14.00" fill="#000000">A line of pure prose</text>
<text text-anchor="middle" x="1427.5" y="-287.6001" font-family="Inconsolata" font-size="14.00" fill="#000000">more purple than purple</text>
<text text-anchor="middle" x="1427.5" y="-272.2" font-family="Inconsolata" font-size="14.00" fill="#000000">veiled voluptuous</text>
</g>
<!-- block_24&#45;&gt;leaf_30 -->
<g id="edge30" class="edge">
<title>block_24&#45;&gt;leaf_30</title>
<path fill="none" stroke="#000000" stroke-dasharray="5,2" d="M1313.8958,-380.2707C1328.0287,-366.1918 1348.8208,-345.479 1368.7668,-325.6091"/>
<polygon fill="#000000" stroke="#000000" points="1371.4487,-327.8778 1376.0632,-318.3406 1366.5084,-322.9186 1371.4487,-327.8778"/>
</g>
<!-- handleline_27 -->
<g id="node28" class="node">
<title>handleline_27</title>
<ellipse fill="none" stroke="#000000" cx="1276.5" cy="-162" rx="50.3585" ry="18"/>
<text text-anchor="middle" x="1276.5" y="-157.8" font-family="Helvetica,sans-Serif" font-size="14.00" fill="#000000">handleline</text>
</g>
<!-- structure_26&#45;&gt;handleline_27 -->
<g id="edge27" class="edge">
<title>structure_26&#45;&gt;handleline_27</title>
<path fill="none" stroke="#000000" stroke-dasharray="5,2" d="M1276.5,-248.793C1276.5,-232.6674 1276.5,-208.9222 1276.5,-190.3429"/>
<polygon fill="#000000" stroke="#000000" points="1280.0001,-190.0972 1276.5,-180.0972 1273.0001,-190.0973 1280.0001,-190.0972"/>
</g>
<!-- handle_28 -->
<g id="node29" class="node">
<title>handle_28</title>
<ellipse fill="none" stroke="#000000" cx="1276.5" cy="-90" rx="36.827" ry="18"/>
<text text-anchor="middle" x="1276.5" y="-85.8" font-family="Helvetica,sans-Serif" font-size="14.00" fill="#000000">handle</text>
</g>
<!-- handleline_27&#45;&gt;handle_28 -->
<g id="edge28" class="edge">
<title>handleline_27&#45;&gt;handle_28</title>
<path fill="none" stroke="#000000" stroke-dasharray="5,2" d="M1276.5,-143.8314C1276.5,-136.131 1276.5,-126.9743 1276.5,-118.4166"/>
<polygon fill="#000000" stroke="#000000" points="1280.0001,-118.4132 1276.5,-108.4133 1273.0001,-118.4133 1280.0001,-118.4132"/>
</g>
<!-- leaf_29 -->
<g id="node30" class="node">
<title>leaf_29</title>
<polygon fill="none" stroke="#c0c0c0" points="1319.5,-36 1233.5,-36 1233.5,0 1319.5,0 1319.5,-36"/>
<text text-anchor="middle" x="1276.5" y="-14.5" font-family="Inconsolata" font-size="14.00" fill="#000000">AnLuserTag</text>
</g>
<!-- handle_28&#45;&gt;leaf_29 -->
<g id="edge29" class="edge">
<title>handle_28&#45;&gt;leaf_29</title>
<path fill="none" stroke="#000000" stroke-dasharray="5,2" d="M1276.5,-71.8314C1276.5,-64.131 1276.5,-54.9743 1276.5,-46.4166"/>
<polygon fill="#000000" stroke="#000000" points="1280.0001,-46.4132 1276.5,-36.4133 1273.0001,-46.4133 1280.0001,-46.4132"/>
</g>
</g>
</svg>
