<?xml version="1.0" encoding="UTF-8" standalone="no"?>
<!DOCTYPE svg PUBLIC "-//W3C//DTD SVG 1.1//EN"
 "http://www.w3.org/Graphics/SVG/1.1/DTD/svg11.dtd">
<!-- Generated by graphviz version 2.40.1 (20161225.0304)
 -->
<!-- Title: hierarchy Pages: 1 -->
<svg width="736pt" height="382pt"
 viewBox="0.00 0.00 736.45 382.20" xmlns="http://www.w3.org/2000/svg" xmlns:xlink="http://www.w3.org/1999/xlink">
<g id="graph0" class="graph" transform="scale(1 1) rotate(0) translate(4 378.2001)">
<title>hierarchy</title>
<polygon fill="#ffffff" stroke="transparent" points="-4,4 -4,-378.2001 732.4493,-378.2001 732.4493,4 -4,4"/>
<!-- doc_0 -->
<g id="node1" class="node">
<title>doc_0</title>
<ellipse fill="none" stroke="#000000" cx="312.6224" cy="-356.2001" rx="42.1216" ry="18"/>
<text text-anchor="middle" x="312.6224" y="-352.0001" font-family="Helvetica,sans-Serif" font-size="14.00" fill="#000000">doc &#45; 19</text>
</g>
<!-- section_1 -->
<g id="node2" class="node">
<title>section_1</title>
<ellipse fill="none" stroke="#000000" cx="312.6224" cy="-284.2001" rx="60.9826" ry="18"/>
<text text-anchor="middle" x="312.6224" y="-280.0001" font-family="Helvetica,sans-Serif" font-size="14.00" fill="#000000">section: 1&#45;15</text>
</g>
<!-- doc_0&#45;&gt;section_1 -->
<g id="edge1" class="edge">
<title>doc_0&#45;&gt;section_1</title>
<path fill="none" stroke="#000000" stroke-dasharray="5,2" d="M312.6224,-338.0315C312.6224,-330.331 312.6224,-321.1744 312.6224,-312.6167"/>
<polygon fill="#000000" stroke="#000000" points="316.1225,-312.6133 312.6224,-302.6134 309.1225,-312.6134 316.1225,-312.6133"/>
</g>
<!-- header_2 -->
<g id="node3" class="node">
<title>header_2</title>
<ellipse fill="none" stroke="#000000" cx="95.6224" cy="-212.2001" rx="95.7451" ry="18"/>
<text text-anchor="middle" x="95.6224" y="-208.0001" font-family="Helvetica,sans-Serif" font-size="14.00" fill="#000000">A Grimoire With Code</text>
</g>
<!-- section_1&#45;&gt;header_2 -->
<g id="edge2" class="edge">
<title>section_1&#45;&gt;header_2</title>
<path fill="none" stroke="#000000" stroke-dasharray="5,2" d="M272.061,-270.7419C238.5037,-259.6077 190.4383,-243.6597 152.9471,-231.2203"/>
<polygon fill="#000000" stroke="#000000" points="153.7609,-227.8027 143.1675,-227.9754 151.5565,-234.4466 153.7609,-227.8027"/>
</g>
<!-- block_3 -->
<g id="node4" class="node">
<title>block_3</title>
<ellipse fill="none" stroke="#000000" cx="255.6224" cy="-212.2001" rx="45.9804" ry="18"/>
<text text-anchor="middle" x="255.6224" y="-208.0001" font-family="Helvetica,sans-Serif" font-size="14.00" fill="#000000">block 1&#45;4</text>
</g>
<!-- section_1&#45;&gt;block_3 -->
<g id="edge3" class="edge">
<title>section_1&#45;&gt;block_3</title>
<path fill="none" stroke="#000000" stroke-dasharray="5,2" d="M298.5326,-266.4023C291.648,-257.7061 283.2411,-247.0868 275.6989,-237.5599"/>
<polygon fill="#000000" stroke="#000000" points="278.3048,-235.2127 269.3536,-229.5447 272.8165,-239.5576 278.3048,-235.2127"/>
</g>
<!-- block_4 -->
<g id="node5" class="node">
<title>block_4</title>
<ellipse fill="none" stroke="#000000" cx="370.6224" cy="-212.2001" rx="50.8172" ry="18"/>
<text text-anchor="middle" x="370.6224" y="-208.0001" font-family="Helvetica,sans-Serif" font-size="14.00" fill="#000000">block 5&#45;15</text>
</g>
<!-- section_1&#45;&gt;block_4 -->
<g id="edge4" class="edge">
<title>section_1&#45;&gt;block_4</title>
<path fill="none" stroke="#000000" stroke-dasharray="5,2" d="M326.9595,-266.4023C333.9648,-257.7061 342.5193,-247.0868 350.1937,-237.5599"/>
<polygon fill="#000000" stroke="#000000" points="353.1027,-239.5279 356.6504,-229.5447 347.6514,-235.1366 353.1027,-239.5279"/>
</g>
<!-- section_5 -->
<g id="node6" class="node">
<title>section_5</title>
<ellipse fill="none" stroke="#000000" cx="554.6224" cy="-212.2001" rx="65.8187" ry="18"/>
<text text-anchor="middle" x="554.6224" y="-208.0001" font-family="Helvetica,sans-Serif" font-size="14.00" fill="#000000">section: 16&#45;19</text>
</g>
<!-- section_1&#45;&gt;section_5 -->
<g id="edge5" class="edge">
<title>section_1&#45;&gt;section_5</title>
<path fill="none" stroke="#000000" stroke-dasharray="5,2" d="M355.6083,-271.4109C396.0155,-259.3889 456.6572,-241.3468 500.3762,-228.3395"/>
<polygon fill="#000000" stroke="#000000" points="501.4025,-231.6858 509.9892,-225.4794 499.4063,-224.9765 501.4025,-231.6858"/>
</g>
<!-- leaf_6 -->
<g id="node7" class="node">
<title>leaf_6</title>
<polygon fill="none" stroke="#c0c0c0" points="231.6224,-158.2001 177.6224,-158.2001 177.6224,-122.2001 231.6224,-122.2001 231.6224,-158.2001"/>
</g>
<!-- block_3&#45;&gt;leaf_6 -->
<g id="edge6" class="edge">
<title>block_3&#45;&gt;leaf_6</title>
<path fill="none" stroke="#000000" stroke-dasharray="5,2" d="M243.2768,-194.7709C237.2731,-186.2951 229.9297,-175.9279 223.2623,-166.5152"/>
<polygon fill="#000000" stroke="#000000" points="226.0233,-164.3579 217.387,-158.2207 220.3112,-168.404 226.0233,-164.3579"/>
</g>
<!-- codeblock_7 -->
<g id="node8" class="node">
<title>codeblock_7</title>
<ellipse fill="none" stroke="#000000" cx="322.6224" cy="-140.2001" rx="72.5844" ry="18"/>
<text text-anchor="middle" x="322.6224" y="-136.0001" font-family="Helvetica,sans-Serif" font-size="14.00" fill="#000000">code block 7&#45;13</text>
</g>
<!-- block_4&#45;&gt;codeblock_7 -->
<g id="edge7" class="edge">
<title>block_4&#45;&gt;codeblock_7</title>
<path fill="none" stroke="#000000" stroke-dasharray="5,2" d="M358.7573,-194.4023C353.1611,-186.008 346.3703,-175.8218 340.193,-166.5559"/>
<polygon fill="#000000" stroke="#000000" points="342.9767,-164.4217 334.5175,-158.0426 337.1523,-168.3046 342.9767,-164.4217"/>
</g>
<!-- leaf_9 -->
<g id="node10" class="node">
<title>leaf_9</title>
<polygon fill="none" stroke="#c0c0c0" points="492.1224,-158.2001 413.1224,-158.2001 413.1224,-122.2001 492.1224,-122.2001 492.1224,-158.2001"/>
<text text-anchor="middle" x="452.6224" y="-136.7001" font-family="Inconsolata" font-size="14.00" fill="#000000">@WhyHello</text>
</g>
<!-- block_4&#45;&gt;leaf_9 -->
<g id="edge9" class="edge">
<title>block_4&#45;&gt;leaf_9</title>
<path fill="none" stroke="#000000" stroke-dasharray="5,2" d="M389.641,-195.5009C399.9431,-186.4551 412.8741,-175.101 424.3345,-165.0383"/>
<polygon fill="#000000" stroke="#000000" points="426.7782,-167.5503 431.9833,-158.3222 422.1596,-162.2902 426.7782,-167.5503"/>
</g>
<!-- header_10 -->
<g id="node11" class="node">
<title>header_10</title>
<ellipse fill="none" stroke="#000000" cx="554.6224" cy="-140.2001" rx="44.5528" ry="18"/>
<text text-anchor="middle" x="554.6224" y="-136.0001" font-family="Helvetica,sans-Serif" font-size="14.00" fill="#000000">Epilogue</text>
</g>
<!-- section_5&#45;&gt;header_10 -->
<g id="edge10" class="edge">
<title>section_5&#45;&gt;header_10</title>
<path fill="none" stroke="#000000" stroke-dasharray="5,2" d="M554.6224,-194.0315C554.6224,-186.331 554.6224,-177.1744 554.6224,-168.6167"/>
<polygon fill="#000000" stroke="#000000" points="558.1225,-168.6133 554.6224,-158.6134 551.1225,-168.6134 558.1225,-168.6133"/>
</g>
<!-- block_11 -->
<g id="node12" class="node">
<title>block_11</title>
<ellipse fill="none" stroke="#000000" cx="672.6224" cy="-140.2001" rx="55.6542" ry="18"/>
<text text-anchor="middle" x="672.6224" y="-136.0001" font-family="Helvetica,sans-Serif" font-size="14.00" fill="#000000">block 16&#45;19</text>
</g>
<!-- section_5&#45;&gt;block_11 -->
<g id="edge11" class="edge">
<title>section_5&#45;&gt;block_11</title>
<path fill="none" stroke="#000000" stroke-dasharray="5,2" d="M581.694,-195.6818C598.2655,-185.5704 619.6459,-172.5248 637.5106,-161.6242"/>
<polygon fill="#000000" stroke="#000000" points="639.7748,-164.3429 646.4882,-156.1464 636.1287,-158.3674 639.7748,-164.3429"/>
</g>
<!-- leaf_8 -->
<g id="node9" class="node">
<title>leaf_8</title>
<polygon fill="none" stroke="#c0c0c0" points="411.1224,-86.3004 234.1224,-86.3004 234.1224,.1003 411.1224,.1003 411.1224,-86.3004"/>
<text text-anchor="middle" x="322.6224" y="-55.0001" font-family="Inconsolata" font-size="14.00" fill="#000000">local function aloha()</text>
<text text-anchor="middle" x="322.6224" y="-39.6001" font-family="Inconsolata" font-size="14.00" fill="#000000"> &#160;io.write(&quot;Aloha Oe!&quot;)</text>
<text text-anchor="middle" x="322.6224" y="-24.2" font-family="Inconsolata" font-size="14.00" fill="#000000">end</text>
</g>
<!-- codeblock_7&#45;&gt;leaf_8 -->
<g id="edge8" class="edge">
<title>codeblock_7&#45;&gt;leaf_8</title>
<path fill="none" stroke="#000000" stroke-dasharray="5,2" d="M322.6224,-121.9363C322.6224,-114.513 322.6224,-105.5169 322.6224,-96.2952"/>
<polygon fill="#000000" stroke="#000000" points="326.1225,-96.2638 322.6224,-86.2639 319.1225,-96.2639 326.1225,-96.2638"/>
</g>
<!-- leaf_12 -->
<g id="node13" class="node">
<title>leaf_12</title>
<polygon fill="none" stroke="#c0c0c0" points="699.6224,-61.1 645.6224,-61.1 645.6224,-25.1 699.6224,-25.1 699.6224,-61.1"/>
</g>
<!-- block_11&#45;&gt;leaf_12 -->
<g id="edge12" class="edge">
<title>block_11&#45;&gt;leaf_12</title>
<path fill="none" stroke="#000000" stroke-dasharray="5,2" d="M672.6224,-121.9363C672.6224,-107.6957 672.6224,-87.667 672.6224,-71.3612"/>
<polygon fill="#000000" stroke="#000000" points="676.1225,-71.2819 672.6224,-61.2819 669.1225,-71.282 676.1225,-71.2819"/>
</g>
</g>
</svg>
