<?xml version="1.0" encoding="UTF-8" standalone="no"?>
<!DOCTYPE svg PUBLIC "-//W3C//DTD SVG 1.1//EN"
 "http://www.w3.org/Graphics/SVG/1.1/DTD/svg11.dtd">
<!-- Generated by graphviz version 2.40.1 (20161225.0304)
 -->
<!-- Title: hierarchy Pages: 1 -->
<svg width="1607pt" height="822pt"
 viewBox="0.00 0.00 1607.00 821.60" xmlns="http://www.w3.org/2000/svg" xmlns:xlink="http://www.w3.org/1999/xlink">
<g id="graph0" class="graph" transform="scale(1 1) rotate(0) translate(4 817.6007)">
<title>hierarchy</title>
<polygon fill="#ffffff" stroke="transparent" points="-4,4 -4,-817.6007 1603,-817.6007 1603,4 -4,4"/>
<!-- doc_0 -->
<g id="node1" class="node">
<title>doc_0</title>
<ellipse fill="none" stroke="#000000" cx="667" cy="-795.6007" rx="42.1216" ry="18"/>
<text text-anchor="middle" x="667" y="-791.4007" font-family="Helvetica,sans-Serif" font-size="14.00" fill="#000000">doc &#45; 90</text>
</g>
<!-- section_1 -->
<g id="node2" class="node">
<title>section_1</title>
<ellipse fill="none" stroke="#000000" cx="667" cy="-723.6007" rx="60.9826" ry="18"/>
<text text-anchor="middle" x="667" y="-719.4007" font-family="Helvetica,sans-Serif" font-size="14.00" fill="#000000">section: 1&#45;90</text>
</g>
<!-- doc_0&#45;&gt;section_1 -->
<g id="edge1" class="edge">
<title>doc_0&#45;&gt;section_1</title>
<path fill="none" stroke="#000000" stroke-dasharray="5,2" d="M667,-777.4321C667,-769.7317 667,-760.5751 667,-752.0174"/>
<polygon fill="#000000" stroke="#000000" points="670.5001,-752.014 667,-742.014 663.5001,-752.0141 670.5001,-752.014"/>
</g>
<!-- header_2 -->
<g id="node3" class="node">
<title>header_2</title>
<ellipse fill="none" stroke="#000000" cx="325" cy="-651.6007" rx="27" ry="18"/>
</g>
<!-- section_1&#45;&gt;header_2 -->
<g id="edge2" class="edge">
<title>section_1&#45;&gt;header_2</title>
<path fill="none" stroke="#000000" stroke-dasharray="5,2" d="M608.82,-718.3847C546.3384,-711.6269 444.7473,-697.2756 361,-669.6007 359.1091,-668.9759 357.193,-668.267 355.2808,-667.5007"/>
<polygon fill="#000000" stroke="#000000" points="356.4452,-664.1877 345.8866,-663.312 353.5945,-670.581 356.4452,-664.1877"/>
</g>
<!-- block_3 -->
<g id="node4" class="node">
<title>block_3</title>
<ellipse fill="none" stroke="#000000" cx="416" cy="-651.6007" rx="45.9804" ry="18"/>
<text text-anchor="middle" x="416" y="-647.4007" font-family="Helvetica,sans-Serif" font-size="14.00" fill="#000000">block 1&#45;3</text>
</g>
<!-- section_1&#45;&gt;block_3 -->
<g id="edge3" class="edge">
<title>section_1&#45;&gt;block_3</title>
<path fill="none" stroke="#000000" stroke-dasharray="5,2" d="M621.2797,-711.662C581.4444,-701.1034 522.2007,-685.0227 471,-669.6007 467.6766,-668.5997 464.2485,-667.5411 460.8046,-666.4585"/>
<polygon fill="#000000" stroke="#000000" points="461.7213,-663.0773 451.1306,-663.3727 459.594,-669.7462 461.7213,-663.0773"/>
</g>
<!-- block_4 -->
<g id="node5" class="node">
<title>block_4</title>
<ellipse fill="none" stroke="#000000" cx="531" cy="-651.6007" rx="50.8172" ry="18"/>
<text text-anchor="middle" x="531" y="-647.4007" font-family="Helvetica,sans-Serif" font-size="14.00" fill="#000000">block 4&#45;31</text>
</g>
<!-- section_1&#45;&gt;block_4 -->
<g id="edge4" class="edge">
<title>section_1&#45;&gt;block_4</title>
<path fill="none" stroke="#000000" stroke-dasharray="5,2" d="M637.1542,-707.8C616.9027,-697.0787 589.9759,-682.8233 568.3094,-671.3528"/>
<polygon fill="#000000" stroke="#000000" points="569.8562,-668.2115 559.3807,-666.6258 566.581,-674.398 569.8562,-668.2115"/>
</g>
<!-- block_5 -->
<g id="node6" class="node">
<title>block_5</title>
<ellipse fill="none" stroke="#000000" cx="667" cy="-651.6007" rx="55.6542" ry="18"/>
<text text-anchor="middle" x="667" y="-647.4007" font-family="Helvetica,sans-Serif" font-size="14.00" fill="#000000">block 32&#45;33</text>
</g>
<!-- section_1&#45;&gt;block_5 -->
<g id="edge5" class="edge">
<title>section_1&#45;&gt;block_5</title>
<path fill="none" stroke="#000000" stroke-dasharray="5,2" d="M667,-705.4321C667,-697.7317 667,-688.5751 667,-680.0174"/>
<polygon fill="#000000" stroke="#000000" points="670.5001,-680.014 667,-670.014 663.5001,-680.0141 670.5001,-680.014"/>
</g>
<!-- block_6 -->
<g id="node7" class="node">
<title>block_6</title>
<ellipse fill="none" stroke="#000000" cx="865" cy="-651.6007" rx="55.6542" ry="18"/>
<text text-anchor="middle" x="865" y="-647.4007" font-family="Helvetica,sans-Serif" font-size="14.00" fill="#000000">block 34&#45;69</text>
</g>
<!-- section_1&#45;&gt;block_6 -->
<g id="edge6" class="edge">
<title>section_1&#45;&gt;block_6</title>
<path fill="none" stroke="#000000" stroke-dasharray="5,2" d="M705.6464,-709.5475C737.8098,-697.8517 783.7164,-681.1584 818.0028,-668.6906"/>
<polygon fill="#000000" stroke="#000000" points="819.5904,-671.8376 827.7922,-665.1308 817.1982,-665.2591 819.5904,-671.8376"/>
</g>
<!-- block_7 -->
<g id="node8" class="node">
<title>block_7</title>
<ellipse fill="none" stroke="#000000" cx="1077" cy="-651.6007" rx="55.6542" ry="18"/>
<text text-anchor="middle" x="1077" y="-647.4007" font-family="Helvetica,sans-Serif" font-size="14.00" fill="#000000">block 70&#45;71</text>
</g>
<!-- section_1&#45;&gt;block_7 -->
<g id="edge7" class="edge">
<title>section_1&#45;&gt;block_7</title>
<path fill="none" stroke="#000000" stroke-dasharray="5,2" d="M719.3432,-714.4088C795.8394,-700.9753 937.761,-676.0525 1017.9092,-661.9777"/>
<polygon fill="#000000" stroke="#000000" points="1018.6001,-665.41 1027.844,-660.233 1017.3893,-658.5155 1018.6001,-665.41"/>
</g>
<!-- block_8 -->
<g id="node9" class="node">
<title>block_8</title>
<ellipse fill="none" stroke="#000000" cx="1381" cy="-651.6007" rx="55.6542" ry="18"/>
<text text-anchor="middle" x="1381" y="-647.4007" font-family="Helvetica,sans-Serif" font-size="14.00" fill="#000000">block 72&#45;90</text>
</g>
<!-- section_1&#45;&gt;block_8 -->
<g id="edge8" class="edge">
<title>section_1&#45;&gt;block_8</title>
<path fill="none" stroke="#000000" stroke-dasharray="5,2" d="M724.5234,-717.8001C856.4552,-704.496 1180.0167,-671.868 1317.5172,-658.0024"/>
<polygon fill="#000000" stroke="#000000" points="1317.8863,-661.483 1327.4846,-656.9973 1317.1839,-654.5183 1317.8863,-661.483"/>
</g>
<!-- leaf_9 -->
<g id="node10" class="node">
<title>leaf_9</title>
<polygon fill="none" stroke="#c0c0c0" points="310,-597.5028 0,-597.5028 0,-557.6987 310,-557.6987 310,-597.5028"/>
<text text-anchor="middle" x="155" y="-582.1008" font-family="Inconsolata" font-size="14.00" fill="#000000"> Grimoire, a metalanguage for magic spells</text>
</g>
<!-- block_3&#45;&gt;leaf_9 -->
<g id="edge9" class="edge">
<title>block_3&#45;&gt;leaf_9</title>
<path fill="none" stroke="#000000" stroke-dasharray="5,2" d="M380.8748,-639.8108C374.2893,-637.6841 367.4487,-635.5312 361,-633.6007 321.8889,-621.8929 278.2944,-609.8921 241.3167,-600.0181"/>
<polygon fill="#000000" stroke="#000000" points="242.1337,-596.6138 231.5699,-597.4237 240.3331,-603.3783 242.1337,-596.6138"/>
</g>
<!-- codeblock_10 -->
<g id="node11" class="node">
<title>codeblock_10</title>
<ellipse fill="none" stroke="#000000" cx="401" cy="-577.6007" rx="72.5844" ry="18"/>
<text text-anchor="middle" x="401" y="-573.4007" font-family="Helvetica,sans-Serif" font-size="14.00" fill="#000000">code block 4&#45;30</text>
</g>
<!-- block_4&#45;&gt;codeblock_10 -->
<g id="edge10" class="edge">
<title>block_4&#45;&gt;codeblock_10</title>
<path fill="none" stroke="#000000" stroke-dasharray="5,2" d="M504.0639,-636.2679C485.2766,-625.5736 459.9388,-611.1505 439.088,-599.2816"/>
<polygon fill="#000000" stroke="#000000" points="440.584,-596.1059 430.1619,-594.2006 437.1211,-602.1894 440.584,-596.1059"/>
</g>
<!-- leaf_12 -->
<g id="node13" class="node">
<title>leaf_12</title>
<polygon fill="none" stroke="#c0c0c0" points="546,-595.6007 492,-595.6007 492,-559.6007 546,-559.6007 546,-595.6007"/>
</g>
<!-- block_4&#45;&gt;leaf_12 -->
<g id="edge12" class="edge">
<title>block_4&#45;&gt;leaf_12</title>
<path fill="none" stroke="#000000" stroke-dasharray="5,2" d="M528.0337,-633.3086C526.6823,-624.9747 525.0522,-614.9224 523.5508,-605.6641"/>
<polygon fill="#000000" stroke="#000000" points="526.9878,-604.9933 521.9322,-595.6825 520.0781,-606.1138 526.9878,-604.9933"/>
</g>
<!-- leaf_13 -->
<g id="node14" class="node">
<title>leaf_13</title>
<polygon fill="none" stroke="#c0c0c0" points="769.5,-597.5028 564.5,-597.5028 564.5,-557.6987 769.5,-557.6987 769.5,-597.5028"/>
<text text-anchor="middle" x="667" y="-582.1008" font-family="Inconsolata" font-size="14.00" fill="#000000"> Argument parsing goes here</text>
</g>
<!-- block_5&#45;&gt;leaf_13 -->
<g id="edge13" class="edge">
<title>block_5&#45;&gt;leaf_13</title>
<path fill="none" stroke="#000000" stroke-dasharray="5,2" d="M667,-633.3086C667,-625.5799 667,-616.3733 667,-607.6927"/>
<polygon fill="#000000" stroke="#000000" points="670.5001,-607.4998 667,-597.4998 663.5001,-607.4999 670.5001,-607.4998"/>
</g>
<!-- codeblock_14 -->
<g id="node15" class="node">
<title>codeblock_14</title>
<ellipse fill="none" stroke="#000000" cx="865" cy="-577.6007" rx="77.4211" ry="18"/>
<text text-anchor="middle" x="865" y="-573.4007" font-family="Helvetica,sans-Serif" font-size="14.00" fill="#000000">code block 34&#45;67</text>
</g>
<!-- block_6&#45;&gt;codeblock_14 -->
<g id="edge14" class="edge">
<title>block_6&#45;&gt;codeblock_14</title>
<path fill="none" stroke="#000000" stroke-dasharray="5,2" d="M865,-633.3086C865,-625.0643 865,-615.1383 865,-605.963"/>
<polygon fill="#000000" stroke="#000000" points="868.5001,-605.6824 865,-595.6825 861.5001,-605.6825 868.5001,-605.6824"/>
</g>
<!-- leaf_16 -->
<g id="node17" class="node">
<title>leaf_16</title>
<polygon fill="none" stroke="#c0c0c0" points="1014,-597.6007 960,-597.6007 960,-557.6007 1014,-557.6007 1014,-597.6007"/>
</g>
<!-- block_6&#45;&gt;leaf_16 -->
<g id="edge16" class="edge">
<title>block_6&#45;&gt;leaf_16</title>
<path fill="none" stroke="#000000" stroke-dasharray="5,2" d="M891.4722,-635.5439C908.8959,-624.9753 931.9236,-611.0077 951.0042,-599.4342"/>
<polygon fill="#000000" stroke="#000000" points="952.9998,-602.3174 959.7347,-594.1387 949.3695,-596.3323 952.9998,-602.3174"/>
</g>
<!-- leaf_17 -->
<g id="node18" class="node">
<title>leaf_17</title>
<polygon fill="none" stroke="#c0c0c0" points="1286,-597.5028 1032,-597.5028 1032,-557.6987 1286,-557.6987 1286,-597.5028"/>
<text text-anchor="middle" x="1159" y="-582.1008" font-family="Inconsolata" font-size="14.00" fill="#000000"> Run the samples and make dotfiles</text>
</g>
<!-- block_7&#45;&gt;leaf_17 -->
<g id="edge17" class="edge">
<title>block_7&#45;&gt;leaf_17</title>
<path fill="none" stroke="#000000" stroke-dasharray="5,2" d="M1096.0186,-634.4377C1105.9363,-625.4875 1118.2904,-614.3387 1129.4233,-604.2919"/>
<polygon fill="#000000" stroke="#000000" points="1131.8116,-606.8512 1136.8906,-597.5531 1127.1218,-601.6544 1131.8116,-606.8512"/>
</g>
<!-- codeblock_18 -->
<g id="node19" class="node">
<title>codeblock_18</title>
<ellipse fill="none" stroke="#000000" cx="1381" cy="-577.6007" rx="77.4211" ry="18"/>
<text text-anchor="middle" x="1381" y="-573.4007" font-family="Helvetica,sans-Serif" font-size="14.00" fill="#000000">code block 72&#45;90</text>
</g>
<!-- block_8&#45;&gt;codeblock_18 -->
<g id="edge18" class="edge">
<title>block_8&#45;&gt;codeblock_18</title>
<path fill="none" stroke="#000000" stroke-dasharray="5,2" d="M1381,-633.3086C1381,-625.0643 1381,-615.1383 1381,-605.963"/>
<polygon fill="#000000" stroke="#000000" points="1384.5001,-605.6824 1381,-595.6825 1377.5001,-605.6825 1384.5001,-605.6824"/>
</g>
<!-- leaf_20 -->
<g id="node21" class="node">
<title>leaf_20</title>
<polygon fill="none" stroke="#c0c0c0" points="1530,-595.6007 1476,-595.6007 1476,-559.6007 1530,-559.6007 1530,-595.6007"/>
</g>
<!-- block_8&#45;&gt;leaf_20 -->
<g id="edge20" class="edge">
<title>block_8&#45;&gt;leaf_20</title>
<path fill="none" stroke="#000000" stroke-dasharray="5,2" d="M1407.4722,-635.5439C1424.8959,-624.9753 1447.9236,-611.0077 1467.0042,-599.4342"/>
<polygon fill="#000000" stroke="#000000" points="1468.9998,-602.3174 1475.7347,-594.1387 1465.3695,-596.3323 1468.9998,-602.3174"/>
</g>
<!-- leaf_11 -->
<g id="node12" class="node">
<title>leaf_11</title>
<polygon fill="none" stroke="#c0c0c0" points="563,-459.501 239,-459.501 239,-62.0998 563,-62.0998 563,-459.501"/>
<text text-anchor="middle" x="401" y="-444.2007" font-family="Inconsolata" font-size="14.00" fill="#000000">require &quot;pl.strict&quot;</text>
<text text-anchor="middle" x="401" y="-412.8006" font-family="Inconsolata" font-size="14.00" fill="#000000">local verbose = false</text>
<text text-anchor="middle" x="401" y="-365.4006" font-family="Inconsolata" font-size="14.00" fill="#000000">local pl_file = require &quot;pl.file&quot;</text>
<text text-anchor="middle" x="401" y="-350.0006" font-family="Inconsolata" font-size="14.00" fill="#000000">local pl_dir = require &quot;pl.dir&quot;</text>
<text text-anchor="middle" x="401" y="-334.6005" font-family="Inconsolata" font-size="14.00" fill="#000000">local pl_path = require &quot;pl.path&quot;</text>
<text text-anchor="middle" x="401" y="-319.2005" font-family="Inconsolata" font-size="14.00" fill="#000000">local getfiles = pl_dir.getfiles</text>
<text text-anchor="middle" x="401" y="-303.8005" font-family="Inconsolata" font-size="14.00" fill="#000000">local getdirectories = pl_dir.getdirectories</text>
<text text-anchor="middle" x="401" y="-288.4004" font-family="Inconsolata" font-size="14.00" fill="#000000">local read = pl_file.read</text>
<text text-anchor="middle" x="401" y="-273.0004" font-family="Inconsolata" font-size="14.00" fill="#000000">local write = pl_file.write</text>
<text text-anchor="middle" x="401" y="-257.6004" font-family="Inconsolata" font-size="14.00" fill="#000000">local isdir = pl_path.isdir</text>
<text text-anchor="middle" x="401" y="-226.2003" font-family="Inconsolata" font-size="14.00" fill="#000000">local L = require &quot;lpeg&quot;</text>
<text text-anchor="middle" x="401" y="-194.8003" font-family="Inconsolata" font-size="14.00" fill="#000000">local ansi = require &quot;lib/ansi&quot;</text>
<text text-anchor="middle" x="401" y="-179.4003" font-family="Inconsolata" font-size="14.00" fill="#000000">local ast = require &quot;peg/ast&quot;</text>
<text text-anchor="middle" x="401" y="-164.0002" font-family="Inconsolata" font-size="14.00" fill="#000000">local epeg = require &quot;peg/epeg&quot;</text>
<text text-anchor="middle" x="401" y="-132.6002" font-family="Inconsolata" font-size="14.00" fill="#000000">local P_grym = require &quot;grym/grymmyr&quot; </text>
<text text-anchor="middle" x="401" y="-117.2002" font-family="Inconsolata" font-size="14.00" fill="#000000">local m = require &quot;grym/morphemes&quot;</text>
<text text-anchor="middle" x="401" y="-85.8002" font-family="Inconsolata" font-size="14.00" fill="#000000">local invert = require &quot;invert&quot;</text>
<text text-anchor="middle" x="401" y="-70.4001" font-family="Inconsolata" font-size="14.00" fill="#000000">local knit = require &quot;knit&quot;</text>
</g>
<!-- codeblock_10&#45;&gt;leaf_11 -->
<g id="edge11" class="edge">
<title>codeblock_10&#45;&gt;leaf_11</title>
<path fill="none" stroke="#000000" stroke-dasharray="5,2" d="M401,-559.1989C401,-539.7425 401,-506.7743 401,-469.6817"/>
<polygon fill="#000000" stroke="#000000" points="404.5001,-469.6456 401,-459.6457 397.5001,-469.6457 404.5001,-469.6456"/>
</g>
<!-- leaf_15 -->
<g id="node16" class="node">
<title>leaf_15</title>
<polygon fill="none" stroke="#c0c0c0" points="1041,-521.4013 689,-521.4013 689,-.1995 1041,-.1995 1041,-521.4013"/>
<text text-anchor="middle" x="865" y="-506.4007" font-family="Inconsolata" font-size="14.00" fill="#000000">local pwd, verb = &quot;&quot;, &quot;&quot;</text>
<text text-anchor="middle" x="865" y="-475.0007" font-family="Inconsolata" font-size="14.00" fill="#000000">if (arg) then</text>
<text text-anchor="middle" x="865" y="-459.6007" font-family="Inconsolata" font-size="14.00" fill="#000000"> &#160;&#160;&#160;pwd = table.remove(arg, 1)</text>
<text text-anchor="middle" x="865" y="-444.2007" font-family="Inconsolata" font-size="14.00" fill="#000000"> &#160;&#160;&#160;verb = table.remove(arg, 1)</text>
<text text-anchor="middle" x="865" y="-428.8006" font-family="Inconsolata" font-size="14.00" fill="#000000"> &#160;&#160;&#160;for _, v in ipairs(arg) do</text>
<text text-anchor="middle" x="865" y="-413.4006" font-family="Inconsolata" font-size="14.00" fill="#000000"> &#160;&#160;&#160;&#160;&#160;&#160;&#160;io.write(ansi.yellow(v)..&quot;</text>
<text text-anchor="middle" x="865" y="-398.0006" font-family="Inconsolata" font-size="14.00" fill="#000000">&quot;)</text>
<text text-anchor="middle" x="865" y="-382.6005" font-family="Inconsolata" font-size="14.00" fill="#000000"> &#160;&#160;&#160;end</text>
<text text-anchor="middle" x="865" y="-367.2005" font-family="Inconsolata" font-size="14.00" fill="#000000">end</text>
<text text-anchor="middle" x="865" y="-303.8005" font-family="Inconsolata" font-size="14.00" fill="#000000">local grym = {}</text>
<text text-anchor="middle" x="865" y="-272.4004" font-family="Inconsolata" font-size="14.00" fill="#000000">grym.invert = invert</text>
<text text-anchor="middle" x="865" y="-257.0004" font-family="Inconsolata" font-size="14.00" fill="#000000">grym.knit = knit</text>
<text text-anchor="middle" x="865" y="-225.6004" font-family="Inconsolata" font-size="14.00" fill="#000000">local function parse(str) </text>
<text text-anchor="middle" x="865" y="-210.2003" font-family="Inconsolata" font-size="14.00" fill="#000000"> &#160;&#160;&#160;return ast.parse(P_grym, str)</text>
<text text-anchor="middle" x="865" y="-194.8003" font-family="Inconsolata" font-size="14.00" fill="#000000">end</text>
<text text-anchor="middle" x="865" y="-163.4003" font-family="Inconsolata" font-size="14.00" fill="#000000">samples = getfiles(&quot;samples&quot;)</text>
<text text-anchor="middle" x="865" y="-132.0002" font-family="Inconsolata" font-size="14.00" fill="#000000">local own = require &quot;grym/own&quot;</text>
<text text-anchor="middle" x="865" y="-100.6002" font-family="Inconsolata" font-size="14.00" fill="#000000">if verb == &quot;invert&quot; then</text>
<text text-anchor="middle" x="865" y="-85.2002" font-family="Inconsolata" font-size="14.00" fill="#000000"> &#160;&#160;&#160;invert:invert_all(pwd)</text>
<text text-anchor="middle" x="865" y="-69.8002" font-family="Inconsolata" font-size="14.00" fill="#000000">elseif verb == &quot;knit&quot; then</text>
<text text-anchor="middle" x="865" y="-54.4001" font-family="Inconsolata" font-size="14.00" fill="#000000"> &#160;&#160;&#160;&#45;&#45; knitter goes here</text>
<text text-anchor="middle" x="865" y="-39.0001" font-family="Inconsolata" font-size="14.00" fill="#000000"> &#160;&#160;&#160;local doc = own.parse(read &quot;../org/grym.gm&quot;)</text>
<text text-anchor="middle" x="865" y="-23.6001" font-family="Inconsolata" font-size="14.00" fill="#000000"> &#160;&#160;&#160;io.write(knit:knit(doc))</text>
<text text-anchor="middle" x="865" y="-8.2" font-family="Inconsolata" font-size="14.00" fill="#000000">end</text>
</g>
<!-- codeblock_14&#45;&gt;leaf_15 -->
<g id="edge15" class="edge">
<title>codeblock_14&#45;&gt;leaf_15</title>
<path fill="none" stroke="#000000" stroke-dasharray="5,2" d="M865,-559.1989C865,-551.8182 865,-542.4931 865,-531.736"/>
<polygon fill="#000000" stroke="#000000" points="868.5001,-531.4692 865,-521.4692 861.5001,-531.4692 868.5001,-531.4692"/>
</g>
<!-- leaf_19 -->
<g id="node20" class="node">
<title>leaf_19</title>
<polygon fill="none" stroke="#c0c0c0" points="1599,-403.501 1163,-403.501 1163,-118.0997 1599,-118.0997 1599,-403.501"/>
<text text-anchor="middle" x="1381" y="-388.2007" font-family="Inconsolata" font-size="14.00" fill="#000000">&#45;&#45;&#45;[[</text>
<text text-anchor="middle" x="1381" y="-372.8006" font-family="Inconsolata" font-size="14.00" fill="#000000">for _,v in ipairs(samples) do</text>
<text text-anchor="middle" x="1381" y="-357.4006" font-family="Inconsolata" font-size="14.00" fill="#000000"> &#160;&#160;&#160;if v:match(&quot;~&quot;) == nil then</text>
<text text-anchor="middle" x="1381" y="-342.0006" font-family="Inconsolata" font-size="14.00" fill="#000000"> &#160;&#160;&#160;&#160;&#160;&#160;&#160;if verbose then io.write(v) end</text>
<text text-anchor="middle" x="1381" y="-326.6005" font-family="Inconsolata" font-size="14.00" fill="#000000"> &#160;&#160;&#160;&#160;&#160;&#160;&#160;local sample = read(v)</text>
<text text-anchor="middle" x="1381" y="-311.2005" font-family="Inconsolata" font-size="14.00" fill="#000000"> &#160;&#160;&#160;&#160;&#160;&#160;&#160;&#45;&#45;io.write(v..&quot;</text>
<text text-anchor="middle" x="1381" y="-295.8005" font-family="Inconsolata" font-size="14.00" fill="#000000">&quot;)</text>
<text text-anchor="middle" x="1381" y="-280.4004" font-family="Inconsolata" font-size="14.00" fill="#000000"> &#160;&#160;&#160;&#160;&#160;&#160;&#160;local doc = own.parse(sample)</text>
<text text-anchor="middle" x="1381" y="-265.0004" font-family="Inconsolata" font-size="14.00" fill="#000000"> &#160;&#160;&#160;&#160;&#160;&#160;&#160;local doc_dot = doc:dot()</text>
<text text-anchor="middle" x="1381" y="-249.6004" font-family="Inconsolata" font-size="14.00" fill="#000000"> &#160;&#160;&#160;&#160;&#160;&#160;&#160;local old_dot = read(&quot;../org/dot/&quot; .. v .. &quot;.dot&quot;)</text>
<text text-anchor="middle" x="1381" y="-234.2003" font-family="Inconsolata" font-size="14.00" fill="#000000"> &#160;&#160;&#160;&#160;&#160;&#160;&#160;if old_dot and old_dot ~= doc_dot then</text>
<text text-anchor="middle" x="1381" y="-218.8003" font-family="Inconsolata" font-size="14.00" fill="#000000"> &#160;&#160;&#160;&#160;&#160;&#160;&#160;&#160;&#160;&#160;&#160;io.write(&quot; &#160;&#160;&#45;&#45; changed dotfile: &quot; .. v)</text>
<text text-anchor="middle" x="1381" y="-203.4003" font-family="Inconsolata" font-size="14.00" fill="#000000"> &#160;&#160;&#160;&#160;&#160;&#160;&#160;&#160;&#160;&#160;&#160;write(&quot;../org/dot/&quot; .. v .. &quot;&#45;old.dot&quot;, old_dot)</text>
<text text-anchor="middle" x="1381" y="-188.0002" font-family="Inconsolata" font-size="14.00" fill="#000000"> &#160;&#160;&#160;&#160;&#160;&#160;&#160;end</text>
<text text-anchor="middle" x="1381" y="-172.6002" font-family="Inconsolata" font-size="14.00" fill="#000000"> &#160;&#160;&#160;&#160;&#160;&#160;&#160;write(&quot;../org/dot/&quot; .. v .. &quot;.dot&quot;, doc:dot())</text>
<text text-anchor="middle" x="1381" y="-157.2002" font-family="Inconsolata" font-size="14.00" fill="#000000"> &#160;&#160;&#160;end</text>
<text text-anchor="middle" x="1381" y="-141.8002" font-family="Inconsolata" font-size="14.00" fill="#000000">end</text>
<text text-anchor="middle" x="1381" y="-126.4001" font-family="Inconsolata" font-size="14.00" fill="#000000">&#45;&#45;]]</text>
</g>
<!-- codeblock_18&#45;&gt;leaf_19 -->
<g id="edge19" class="edge">
<title>codeblock_18&#45;&gt;leaf_19</title>
<path fill="none" stroke="#000000" stroke-dasharray="5,2" d="M1381,-559.1989C1381,-530.2372 1381,-471.3368 1381,-413.4597"/>
<polygon fill="#000000" stroke="#000000" points="1384.5001,-413.4311 1381,-403.4312 1377.5001,-413.4312 1384.5001,-413.4311"/>
</g>
</g>
</svg>
