<?xml version="1.0" encoding="UTF-8" standalone="no"?>
<!DOCTYPE svg PUBLIC "-//W3C//DTD SVG 1.1//EN"
 "http://www.w3.org/Graphics/SVG/1.1/DTD/svg11.dtd">
<!-- Generated by graphviz version 2.40.1 (20161225.0304)
 -->
<!-- Title: hierarchy Pages: 1 -->
<svg width="893pt" height="476pt"
 viewBox="0.00 0.00 893.27 476.00" xmlns="http://www.w3.org/2000/svg" xmlns:xlink="http://www.w3.org/1999/xlink">
<g id="graph0" class="graph" transform="scale(1 1) rotate(0) translate(4 472)">
<title>hierarchy</title>
<polygon fill="#ffffff" stroke="transparent" points="-4,4 -4,-472 889.2741,-472 889.2741,4 -4,4"/>
<!-- doc_0 -->
<g id="node1" class="node">
<title>doc_0</title>
<ellipse fill="none" stroke="#000000" cx="240.2838" cy="-450" rx="42.1216" ry="18"/>
<text text-anchor="middle" x="240.2838" y="-445.8" font-family="Helvetica,sans-Serif" font-size="14.00" fill="#000000">doc &#45; 10</text>
</g>
<!-- section_1 -->
<g id="node2" class="node">
<title>section_1</title>
<ellipse fill="none" stroke="#000000" cx="240.2838" cy="-378" rx="55.6456" ry="18"/>
<text text-anchor="middle" x="240.2838" y="-373.8" font-family="Helvetica,sans-Serif" font-size="14.00" fill="#000000">section: 1&#45;1</text>
</g>
<!-- doc_0&#45;&gt;section_1 -->
<g id="edge1" class="edge">
<title>doc_0&#45;&gt;section_1</title>
<path fill="none" stroke="#000000" stroke-dasharray="5,2" d="M240.2838,-431.8314C240.2838,-424.131 240.2838,-414.9743 240.2838,-406.4166"/>
<polygon fill="#000000" stroke="#000000" points="243.7839,-406.4132 240.2838,-396.4133 236.7839,-406.4133 243.7839,-406.4132"/>
</g>
<!-- header_2 -->
<g id="node3" class="node">
<title>header_2</title>
<ellipse fill="none" stroke="#000000" cx="58.2838" cy="-306" rx="58.0685" ry="18"/>
<text text-anchor="middle" x="58.2838" y="-301.8" font-family="Helvetica,sans-Serif" font-size="14.00" fill="#000000">Header One</text>
</g>
<!-- section_1&#45;&gt;header_2 -->
<g id="edge2" class="edge">
<title>section_1&#45;&gt;header_2</title>
<path fill="none" stroke="#000000" stroke-dasharray="5,2" d="M204.7604,-363.9468C175.8855,-352.5237 134.9601,-336.3335 103.7051,-323.9688"/>
<polygon fill="#000000" stroke="#000000" points="104.9261,-320.688 94.3397,-320.2639 102.351,-327.1972 104.9261,-320.688"/>
</g>
<!-- block_3 -->
<g id="node4" class="node">
<title>block_3</title>
<ellipse fill="none" stroke="#000000" cx="180.2838" cy="-306" rx="45.9804" ry="18"/>
<text text-anchor="middle" x="180.2838" y="-301.8" font-family="Helvetica,sans-Serif" font-size="14.00" fill="#000000">block 1&#45;1</text>
</g>
<!-- section_1&#45;&gt;block_3 -->
<g id="edge3" class="edge">
<title>section_1&#45;&gt;block_3</title>
<path fill="none" stroke="#000000" stroke-dasharray="5,2" d="M225.7595,-360.5708C218.3896,-351.7269 209.3038,-340.8239 201.1959,-331.0945"/>
<polygon fill="#000000" stroke="#000000" points="203.7651,-328.7103 194.6744,-323.2687 198.3875,-333.1916 203.7651,-328.7103"/>
</g>
<!-- section_4 -->
<g id="node5" class="node">
<title>section_4</title>
<ellipse fill="none" stroke="#000000" cx="300.2838" cy="-306" rx="55.6456" ry="18"/>
<text text-anchor="middle" x="300.2838" y="-301.8" font-family="Helvetica,sans-Serif" font-size="14.00" fill="#000000">section: 2&#45;3</text>
</g>
<!-- section_1&#45;&gt;section_4 -->
<g id="edge4" class="edge">
<title>section_1&#45;&gt;section_4</title>
<path fill="none" stroke="#000000" stroke-dasharray="5,2" d="M254.8082,-360.5708C262.1239,-351.7919 271.1304,-340.9841 279.1928,-331.3093"/>
<polygon fill="#000000" stroke="#000000" points="281.9722,-333.4411 285.6853,-323.5182 276.5947,-328.9598 281.9722,-333.4411"/>
</g>
<!-- section_5 -->
<g id="node6" class="node">
<title>section_5</title>
<ellipse fill="none" stroke="#000000" cx="601.2838" cy="-306" rx="65.8187" ry="18"/>
<text text-anchor="middle" x="601.2838" y="-301.8" font-family="Helvetica,sans-Serif" font-size="14.00" fill="#000000">section: 10&#45;10</text>
</g>
<!-- section_1&#45;&gt;section_5 -->
<g id="edge5" class="edge">
<title>section_1&#45;&gt;section_5</title>
<path fill="none" stroke="#000000" stroke-dasharray="5,2" d="M287.8495,-368.5132C351.9928,-355.7201 466.3941,-332.9032 537.8176,-318.6581"/>
<polygon fill="#000000" stroke="#000000" points="538.9103,-322.0092 548.0326,-316.6207 537.5411,-315.1444 538.9103,-322.0092"/>
</g>
<!-- leaf_6 -->
<g id="node7" class="node">
<title>leaf_6</title>
<polygon fill="none" stroke="#c0c0c0" points="88.2838,-252 34.2838,-252 34.2838,-216 88.2838,-216 88.2838,-252"/>
</g>
<!-- block_3&#45;&gt;leaf_6 -->
<g id="edge6" class="edge">
<title>block_3&#45;&gt;leaf_6</title>
<path fill="none" stroke="#000000" stroke-dasharray="5,2" d="M155.047,-290.7307C138.2023,-280.5389 115.7998,-266.9844 97.1167,-255.6804"/>
<polygon fill="#000000" stroke="#000000" points="98.9246,-252.6835 88.5569,-250.5013 95.3009,-258.6726 98.9246,-252.6835"/>
</g>
<!-- header_7 -->
<g id="node8" class="node">
<title>header_7</title>
<ellipse fill="none" stroke="#000000" cx="171.2838" cy="-234" rx="65.4988" ry="18"/>
<text text-anchor="middle" x="171.2838" y="-229.8" font-family="Helvetica,sans-Serif" font-size="14.00" fill="#000000">Header Two&#45;1</text>
</g>
<!-- section_4&#45;&gt;header_7 -->
<g id="edge7" class="edge">
<title>section_4&#45;&gt;header_7</title>
<path fill="none" stroke="#000000" stroke-dasharray="5,2" d="M272.2928,-290.3771C253.9145,-280.1194 229.6396,-266.5707 209.4934,-255.3262"/>
<polygon fill="#000000" stroke="#000000" points="211.0013,-252.1596 200.5635,-250.3421 207.5897,-258.272 211.0013,-252.1596"/>
</g>
<!-- block_8 -->
<g id="node9" class="node">
<title>block_8</title>
<ellipse fill="none" stroke="#000000" cx="300.2838" cy="-234" rx="45.9804" ry="18"/>
<text text-anchor="middle" x="300.2838" y="-229.8" font-family="Helvetica,sans-Serif" font-size="14.00" fill="#000000">block 2&#45;3</text>
</g>
<!-- section_4&#45;&gt;block_8 -->
<g id="edge8" class="edge">
<title>section_4&#45;&gt;block_8</title>
<path fill="none" stroke="#000000" stroke-dasharray="5,2" d="M300.2838,-287.8314C300.2838,-280.131 300.2838,-270.9743 300.2838,-262.4166"/>
<polygon fill="#000000" stroke="#000000" points="303.7839,-262.4132 300.2838,-252.4133 296.7839,-262.4133 303.7839,-262.4132"/>
</g>
<!-- section_9 -->
<g id="node10" class="node">
<title>section_9</title>
<ellipse fill="none" stroke="#000000" cx="420.2838" cy="-234" rx="55.6456" ry="18"/>
<text text-anchor="middle" x="420.2838" y="-229.8" font-family="Helvetica,sans-Serif" font-size="14.00" fill="#000000">section: 4&#45;5</text>
</g>
<!-- section_4&#45;&gt;section_9 -->
<g id="edge9" class="edge">
<title>section_4&#45;&gt;section_9</title>
<path fill="none" stroke="#000000" stroke-dasharray="5,2" d="M326.9157,-290.0209C344.0053,-279.7671 366.3904,-266.336 384.958,-255.1955"/>
<polygon fill="#000000" stroke="#000000" points="386.9522,-258.0807 393.7264,-249.9345 383.3507,-252.0782 386.9522,-258.0807"/>
</g>
<!-- header_22 -->
<g id="node23" class="node">
<title>header_22</title>
<ellipse fill="none" stroke="#000000" cx="601.2838" cy="-234" rx="65.4988" ry="18"/>
<text text-anchor="middle" x="601.2838" y="-229.8" font-family="Helvetica,sans-Serif" font-size="14.00" fill="#000000">Header Two&#45;2</text>
</g>
<!-- section_5&#45;&gt;header_22 -->
<g id="edge22" class="edge">
<title>section_5&#45;&gt;header_22</title>
<path fill="none" stroke="#000000" stroke-dasharray="5,2" d="M601.2838,-287.8314C601.2838,-280.131 601.2838,-270.9743 601.2838,-262.4166"/>
<polygon fill="#000000" stroke="#000000" points="604.7839,-262.4132 601.2838,-252.4133 597.7839,-262.4133 604.7839,-262.4132"/>
</g>
<!-- block_23 -->
<g id="node24" class="node">
<title>block_23</title>
<ellipse fill="none" stroke="#000000" cx="761.2838" cy="-234" rx="55.6542" ry="18"/>
<text text-anchor="middle" x="761.2838" y="-229.8" font-family="Helvetica,sans-Serif" font-size="14.00" fill="#000000">block 10&#45;10</text>
</g>
<!-- section_5&#45;&gt;block_23 -->
<g id="edge23" class="edge">
<title>section_5&#45;&gt;block_23</title>
<path fill="none" stroke="#000000" stroke-dasharray="5,2" d="M635.6079,-290.5542C660.1418,-279.5139 693.2947,-264.5951 719.3897,-252.8524"/>
<polygon fill="#000000" stroke="#000000" points="720.9724,-255.9783 728.6553,-248.6829 718.0998,-249.5948 720.9724,-255.9783"/>
</g>
<!-- leaf_10 -->
<g id="node11" class="node">
<title>leaf_10</title>
<polygon fill="none" stroke="#c0c0c0" points="197.2838,-180 143.2838,-180 143.2838,-144 197.2838,-144 197.2838,-180"/>
</g>
<!-- block_8&#45;&gt;leaf_10 -->
<g id="edge10" class="edge">
<title>block_8&#45;&gt;leaf_10</title>
<path fill="none" stroke="#000000" stroke-dasharray="5,2" d="M273.6627,-219.256C254.1633,-208.4563 227.4846,-193.6804 206.1137,-181.8442"/>
<polygon fill="#000000" stroke="#000000" points="207.7598,-178.755 197.3161,-176.9717 204.3683,-184.8786 207.7598,-178.755"/>
</g>
<!-- header_11 -->
<g id="node12" class="node">
<title>header_11</title>
<ellipse fill="none" stroke="#000000" cx="280.2838" cy="-162" rx="64.5297" ry="18"/>
<text text-anchor="middle" x="280.2838" y="-157.8" font-family="Helvetica,sans-Serif" font-size="14.00" fill="#000000">Header Three</text>
</g>
<!-- section_9&#45;&gt;header_11 -->
<g id="edge11" class="edge">
<title>section_9&#45;&gt;header_11</title>
<path fill="none" stroke="#000000" stroke-dasharray="5,2" d="M390.5934,-218.7307C370.1353,-208.2093 342.7087,-194.1042 320.3218,-182.591"/>
<polygon fill="#000000" stroke="#000000" points="321.8806,-179.4569 311.387,-177.9959 318.6791,-185.6819 321.8806,-179.4569"/>
</g>
<!-- block_12 -->
<g id="node13" class="node">
<title>block_12</title>
<ellipse fill="none" stroke="#000000" cx="409.2838" cy="-162" rx="45.9804" ry="18"/>
<text text-anchor="middle" x="409.2838" y="-157.8" font-family="Helvetica,sans-Serif" font-size="14.00" fill="#000000">block 4&#45;5</text>
</g>
<!-- section_9&#45;&gt;block_12 -->
<g id="edge12" class="edge">
<title>section_9&#45;&gt;block_12</title>
<path fill="none" stroke="#000000" stroke-dasharray="5,2" d="M417.5081,-215.8314C416.3316,-208.131 414.9327,-198.9743 413.6253,-190.4166"/>
<polygon fill="#000000" stroke="#000000" points="417.0672,-189.7699 412.097,-180.4133 410.1475,-190.8272 417.0672,-189.7699"/>
</g>
<!-- section_13 -->
<g id="node14" class="node">
<title>section_13</title>
<ellipse fill="none" stroke="#000000" cx="529.2838" cy="-162" rx="55.6456" ry="18"/>
<text text-anchor="middle" x="529.2838" y="-157.8" font-family="Helvetica,sans-Serif" font-size="14.00" fill="#000000">section: 6&#45;7</text>
</g>
<!-- section_9&#45;&gt;section_13 -->
<g id="edge13" class="edge">
<title>section_9&#45;&gt;section_13</title>
<path fill="none" stroke="#000000" stroke-dasharray="5,2" d="M445.0176,-217.6621C460.0689,-207.72 479.4893,-194.8918 495.8924,-184.0567"/>
<polygon fill="#000000" stroke="#000000" points="498.233,-186.7053 504.6479,-178.2733 494.3749,-180.8645 498.233,-186.7053"/>
</g>
<!-- section_14 -->
<g id="node15" class="node">
<title>section_14</title>
<ellipse fill="none" stroke="#000000" cx="671.2838" cy="-162" rx="55.6456" ry="18"/>
<text text-anchor="middle" x="671.2838" y="-157.8" font-family="Helvetica,sans-Serif" font-size="14.00" fill="#000000">section: 8&#45;9</text>
</g>
<!-- section_9&#45;&gt;section_14 -->
<g id="edge14" class="edge">
<title>section_9&#45;&gt;section_14</title>
<path fill="none" stroke="#000000" stroke-dasharray="5,2" d="M462.0132,-222.0298C505.2601,-209.6243 572.9319,-190.2125 619.5508,-176.8398"/>
<polygon fill="#000000" stroke="#000000" points="620.8075,-180.1205 629.4548,-173.9988 618.8773,-173.3919 620.8075,-180.1205"/>
</g>
<!-- leaf_15 -->
<g id="node16" class="node">
<title>leaf_15</title>
<polygon fill="none" stroke="#c0c0c0" points="245.2838,-108 191.2838,-108 191.2838,-72 245.2838,-72 245.2838,-108"/>
<text text-anchor="middle" x="218.2838" y="-86.5" font-family="Inconsolata" font-size="14.00" fill="#000000"> &#160;&#160;&#160;</text>
</g>
<!-- block_12&#45;&gt;leaf_15 -->
<g id="edge15" class="edge">
<title>block_12&#45;&gt;leaf_15</title>
<path fill="none" stroke="#000000" stroke-dasharray="5,2" d="M374.0562,-150.3133C339.1024,-138.6233 287.1382,-120.9699 254.9464,-107.9929"/>
<polygon fill="#000000" stroke="#000000" points="256.2092,-104.7276 245.6314,-104.1275 253.5262,-111.1931 256.2092,-104.7276"/>
</g>
<!-- header_16 -->
<g id="node17" class="node">
<title>header_16</title>
<ellipse fill="none" stroke="#000000" cx="364.2838" cy="-90" rx="100.5902" ry="18"/>
<text text-anchor="middle" x="364.2838" y="-85.8" font-family="Helvetica,sans-Serif" font-size="14.00" fill="#000000">Header four&#45;Three&#45;1 &#160;&#160;&#160;</text>
</g>
<!-- section_13&#45;&gt;header_16 -->
<g id="edge16" class="edge">
<title>section_13&#45;&gt;header_16</title>
<path fill="none" stroke="#000000" stroke-dasharray="5,2" d="M495.8936,-147.4297C471.7181,-136.8804 438.6966,-122.471 411.7788,-110.7251"/>
<polygon fill="#000000" stroke="#000000" points="413.1019,-107.4838 402.5367,-106.6921 410.3022,-113.8995 413.1019,-107.4838"/>
</g>
<!-- block_17 -->
<g id="node18" class="node">
<title>block_17</title>
<ellipse fill="none" stroke="#000000" cx="529.2838" cy="-90" rx="45.9804" ry="18"/>
<text text-anchor="middle" x="529.2838" y="-85.8" font-family="Helvetica,sans-Serif" font-size="14.00" fill="#000000">block 6&#45;7</text>
</g>
<!-- section_13&#45;&gt;block_17 -->
<g id="edge17" class="edge">
<title>section_13&#45;&gt;block_17</title>
<path fill="none" stroke="#000000" stroke-dasharray="5,2" d="M529.2838,-143.8314C529.2838,-136.131 529.2838,-126.9743 529.2838,-118.4166"/>
<polygon fill="#000000" stroke="#000000" points="532.7839,-118.4132 529.2838,-108.4133 525.7839,-118.4133 532.7839,-118.4132"/>
</g>
<!-- header_19 -->
<g id="node20" class="node">
<title>header_19</title>
<ellipse fill="none" stroke="#000000" cx="684.2838" cy="-90" rx="90.9347" ry="18"/>
<text text-anchor="middle" x="684.2838" y="-85.8" font-family="Helvetica,sans-Serif" font-size="14.00" fill="#000000">Header four&#45;Three&#45;2</text>
</g>
<!-- section_14&#45;&gt;header_19 -->
<g id="edge19" class="edge">
<title>section_14&#45;&gt;header_19</title>
<path fill="none" stroke="#000000" stroke-dasharray="5,2" d="M674.5643,-143.8314C675.9546,-136.131 677.6079,-126.9743 679.1531,-118.4166"/>
<polygon fill="#000000" stroke="#000000" points="682.6266,-118.8761 680.9592,-108.4133 675.738,-117.6322 682.6266,-118.8761"/>
</g>
<!-- block_20 -->
<g id="node21" class="node">
<title>block_20</title>
<ellipse fill="none" stroke="#000000" cx="839.2838" cy="-90" rx="45.9804" ry="18"/>
<text text-anchor="middle" x="839.2838" y="-85.8" font-family="Helvetica,sans-Serif" font-size="14.00" fill="#000000">block 8&#45;9</text>
</g>
<!-- section_14&#45;&gt;block_20 -->
<g id="edge20" class="edge">
<title>section_14&#45;&gt;block_20</title>
<path fill="none" stroke="#000000" stroke-dasharray="5,2" d="M704.8774,-147.6028C731.8908,-136.0256 769.9409,-119.7184 798.6642,-107.4084"/>
<polygon fill="#000000" stroke="#000000" points="800.2055,-110.5558 808.0182,-103.3996 797.448,-104.1218 800.2055,-110.5558"/>
</g>
<!-- leaf_18 -->
<g id="node19" class="node">
<title>leaf_18</title>
<polygon fill="none" stroke="#c0c0c0" points="556.2838,-36 502.2838,-36 502.2838,0 556.2838,0 556.2838,-36"/>
</g>
<!-- block_17&#45;&gt;leaf_18 -->
<g id="edge18" class="edge">
<title>block_17&#45;&gt;leaf_18</title>
<path fill="none" stroke="#000000" stroke-dasharray="5,2" d="M529.2838,-71.8314C529.2838,-64.131 529.2838,-54.9743 529.2838,-46.4166"/>
<polygon fill="#000000" stroke="#000000" points="532.7839,-46.4132 529.2838,-36.4133 525.7839,-46.4133 532.7839,-46.4132"/>
</g>
<!-- leaf_21 -->
<g id="node22" class="node">
<title>leaf_21</title>
<polygon fill="none" stroke="#c0c0c0" points="866.2838,-36 812.2838,-36 812.2838,0 866.2838,0 866.2838,-36"/>
</g>
<!-- block_20&#45;&gt;leaf_21 -->
<g id="edge21" class="edge">
<title>block_20&#45;&gt;leaf_21</title>
<path fill="none" stroke="#000000" stroke-dasharray="5,2" d="M839.2838,-71.8314C839.2838,-64.131 839.2838,-54.9743 839.2838,-46.4166"/>
<polygon fill="#000000" stroke="#000000" points="842.7839,-46.4132 839.2838,-36.4133 835.7839,-46.4133 842.7839,-46.4132"/>
</g>
<!-- leaf_24 -->
<g id="node25" class="node">
<title>leaf_24</title>
<polygon fill="none" stroke="#c0c0c0" points="799.2838,-180 745.2838,-180 745.2838,-144 799.2838,-144 799.2838,-180"/>
</g>
<!-- block_23&#45;&gt;leaf_24 -->
<g id="edge24" class="edge">
<title>block_23&#45;&gt;leaf_24</title>
<path fill="none" stroke="#000000" stroke-dasharray="5,2" d="M764.0596,-215.8314C765.2361,-208.131 766.635,-198.9743 767.9424,-190.4166"/>
<polygon fill="#000000" stroke="#000000" points="771.4202,-190.8272 769.4707,-180.4133 764.5005,-189.7699 771.4202,-190.8272"/>
</g>
</g>
</svg>
