<?xml version="1.0" encoding="UTF-8" standalone="no"?>
<!DOCTYPE svg PUBLIC "-//W3C//DTD SVG 1.1//EN"
 "http://www.w3.org/Graphics/SVG/1.1/DTD/svg11.dtd">
<!-- Generated by graphviz version 2.40.1 (20161225.0304)
 -->
<!-- Title: lpegNode Pages: 1 -->
<svg width="921pt" height="550pt"
 viewBox="0.00 0.00 921.50 550.00" xmlns="http://www.w3.org/2000/svg" xmlns:xlink="http://www.w3.org/1999/xlink">
<g id="graph0" class="graph" transform="scale(1 1) rotate(0) translate(4 546.0003)">
<title>lpegNode</title>
<polygon fill="#ffffff" stroke="transparent" points="-4,4 -4,-546.0003 917.4992,-546.0003 917.4992,4 -4,4"/>
<!-- doc_0 -->
<g id="node1" class="node">
<title>doc_0</title>
<ellipse fill="none" stroke="#000000" cx="199.9992" cy="-524.0003" rx="42.1216" ry="18"/>
<text text-anchor="middle" x="199.9992" y="-519.8003" font-family="Helvetica,sans-Serif" font-size="14.00" fill="#000000">doc &#45; 18</text>
</g>
<!-- section_1 -->
<g id="node2" class="node">
<title>section_1</title>
<ellipse fill="none" stroke="#000000" cx="199.9992" cy="-452.0003" rx="55.6456" ry="18"/>
<text text-anchor="middle" x="199.9992" y="-447.8003" font-family="Helvetica,sans-Serif" font-size="14.00" fill="#000000">section: 1&#45;2</text>
</g>
<!-- doc_0&#45;&gt;section_1 -->
<g id="edge1" class="edge">
<title>doc_0&#45;&gt;section_1</title>
<path fill="none" stroke="#000000" stroke-dasharray="5,2" d="M199.9992,-505.8317C199.9992,-498.1313 199.9992,-488.9747 199.9992,-480.4169"/>
<polygon fill="#000000" stroke="#000000" points="203.4993,-480.4135 199.9992,-470.4136 196.4993,-480.4136 203.4993,-480.4135"/>
</g>
<!-- header_2 -->
<g id="node3" class="node">
<title>header_2</title>
<ellipse fill="none" stroke="#000000" cx="74.9992" cy="-380.0003" rx="74.9984" ry="18"/>
<text text-anchor="middle" x="74.9992" y="-375.8003" font-family="Helvetica,sans-Serif" font-size="14.00" fill="#000000">1 : Concordance</text>
</g>
<!-- section_1&#45;&gt;header_2 -->
<g id="edge2" class="edge">
<title>section_1&#45;&gt;header_2</title>
<path fill="none" stroke="#000000" stroke-dasharray="5,2" d="M172.5674,-436.1996C155.0718,-426.1221 132.1555,-412.9223 112.9288,-401.8478"/>
<polygon fill="#000000" stroke="#000000" points="114.52,-398.7252 104.1078,-396.7668 111.0262,-404.791 114.52,-398.7252"/>
</g>
<!-- prose_3 -->
<g id="node4" class="node">
<title>prose_3</title>
<ellipse fill="none" stroke="#000000" cx="199.9992" cy="-380.0003" rx="32.4585" ry="18"/>
<text text-anchor="middle" x="199.9992" y="-375.8003" font-family="Helvetica,sans-Serif" font-size="14.00" fill="#000000">prose</text>
</g>
<!-- section_1&#45;&gt;prose_3 -->
<g id="edge3" class="edge">
<title>section_1&#45;&gt;prose_3</title>
<path fill="none" stroke="#000000" stroke-dasharray="5,2" d="M199.9992,-433.8317C199.9992,-426.1313 199.9992,-416.9747 199.9992,-408.4169"/>
<polygon fill="#000000" stroke="#000000" points="203.4993,-408.4135 199.9992,-398.4136 196.4993,-408.4136 203.4993,-408.4135"/>
</g>
<!-- section_4 -->
<g id="node5" class="node">
<title>section_4</title>
<ellipse fill="none" stroke="#000000" cx="415.9992" cy="-380.0003" rx="60.9826" ry="18"/>
<text text-anchor="middle" x="415.9992" y="-375.8003" font-family="Helvetica,sans-Serif" font-size="14.00" fill="#000000">section: 3&#45;18</text>
</g>
<!-- section_1&#45;&gt;section_4 -->
<g id="edge4" class="edge">
<title>section_1&#45;&gt;section_4</title>
<path fill="none" stroke="#000000" stroke-dasharray="5,2" d="M239.1152,-438.9617C274.6429,-427.1191 327.2394,-409.5869 365.8457,-396.7181"/>
<polygon fill="#000000" stroke="#000000" points="366.9605,-400.0359 375.3405,-393.5532 364.7469,-393.3952 366.9605,-400.0359"/>
</g>
<!-- leaf_5 -->
<g id="node6" class="node">
<title>leaf_5</title>
<polygon fill="none" stroke="#c0c0c0" points="128.4992,-326.0003 21.4992,-326.0003 21.4992,-290.0003 128.4992,-290.0003 128.4992,-326.0003"/>
<text text-anchor="middle" x="74.9992" y="-304.5003" font-family="Inconsolata" font-size="14.00" fill="#000000">* Concordance</text>
</g>
<!-- header_2&#45;&gt;leaf_5 -->
<g id="edge5" class="edge">
<title>header_2&#45;&gt;leaf_5</title>
<path fill="none" stroke="#000000" stroke-dasharray="5,2" d="M74.9992,-361.8317C74.9992,-354.1313 74.9992,-344.9747 74.9992,-336.4169"/>
<polygon fill="#000000" stroke="#000000" points="78.4993,-336.4135 74.9992,-326.4136 71.4993,-336.4136 78.4993,-336.4135"/>
</g>
<!-- raw_6 -->
<g id="node7" class="node">
<title>raw_6</title>
<ellipse fill="none" stroke="#000000" cx="186.9992" cy="-308.0003" rx="27" ry="18"/>
<text text-anchor="middle" x="186.9992" y="-303.8003" font-family="Helvetica,sans-Serif" font-size="14.00" fill="#000000">raw</text>
</g>
<!-- prose_3&#45;&gt;raw_6 -->
<g id="edge6" class="edge">
<title>prose_3&#45;&gt;raw_6</title>
<path fill="none" stroke="#000000" stroke-dasharray="5,2" d="M196.7188,-361.8317C195.307,-354.0128 193.6242,-344.6926 192.0588,-336.0224"/>
<polygon fill="#000000" stroke="#000000" points="195.4548,-335.1327 190.2336,-325.9137 188.5662,-336.3765 195.4548,-335.1327"/>
</g>
<!-- header_8 -->
<g id="node9" class="node">
<title>header_8</title>
<ellipse fill="none" stroke="#000000" cx="337.9992" cy="-308.0003" rx="105.7811" ry="18"/>
<text text-anchor="middle" x="337.9992" y="-303.8003" font-family="Helvetica,sans-Serif" font-size="14.00" fill="#000000">2 : SQL for concordance</text>
</g>
<!-- section_4&#45;&gt;header_8 -->
<g id="edge8" class="edge">
<title>section_4&#45;&gt;header_8</title>
<path fill="none" stroke="#000000" stroke-dasharray="5,2" d="M397.1176,-362.5711C387.3944,-353.5959 375.3737,-342.4999 364.7161,-332.662"/>
<polygon fill="#000000" stroke="#000000" points="366.9709,-329.9802 357.2488,-325.7692 362.2229,-335.1238 366.9709,-329.9802"/>
</g>
<!-- prose_9 -->
<g id="node10" class="node">
<title>prose_9</title>
<ellipse fill="none" stroke="#000000" cx="493.9992" cy="-308.0003" rx="32.4585" ry="18"/>
<text text-anchor="middle" x="493.9992" y="-303.8003" font-family="Helvetica,sans-Serif" font-size="14.00" fill="#000000">prose</text>
</g>
<!-- section_4&#45;&gt;prose_9 -->
<g id="edge9" class="edge">
<title>section_4&#45;&gt;prose_9</title>
<path fill="none" stroke="#000000" stroke-dasharray="5,2" d="M434.8808,-362.5711C445.3578,-352.9001 458.5023,-340.7667 469.7348,-330.3982"/>
<polygon fill="#000000" stroke="#000000" points="472.1753,-332.9086 477.1494,-323.554 467.4274,-327.765 472.1753,-332.9086"/>
</g>
<!-- codeblock_10 -->
<g id="node11" class="node">
<title>codeblock_10</title>
<ellipse fill="none" stroke="#000000" cx="668.9992" cy="-308.0003" rx="72.5844" ry="18"/>
<text text-anchor="middle" x="668.9992" y="-303.8003" font-family="Helvetica,sans-Serif" font-size="14.00" fill="#000000">code block 8&#45;18</text>
</g>
<!-- section_4&#45;&gt;codeblock_10 -->
<g id="edge10" class="edge">
<title>section_4&#45;&gt;codeblock_10</title>
<path fill="none" stroke="#000000" stroke-dasharray="5,2" d="M460.0684,-367.4589C502.0116,-355.5225 565.3692,-337.4918 611.3156,-324.4162"/>
<polygon fill="#000000" stroke="#000000" points="612.4729,-327.7259 621.133,-321.6223 610.5569,-320.9932 612.4729,-327.7259"/>
</g>
<!-- leaf_7 -->
<g id="node8" class="node">
<title>leaf_7</title>
<polygon fill="none" stroke="#c0c0c0" points="213.9992,-198.7002 159.9992,-198.7002 159.9992,-162.7002 213.9992,-162.7002 213.9992,-198.7002"/>
</g>
<!-- raw_6&#45;&gt;leaf_7 -->
<g id="edge7" class="edge">
<title>raw_6&#45;&gt;leaf_7</title>
<path fill="none" stroke="#000000" stroke-dasharray="5,2" d="M186.9992,-289.7613C186.9992,-268.6811 186.9992,-233.7346 186.9992,-209.0907"/>
<polygon fill="#000000" stroke="#000000" points="190.4993,-208.9053 186.9992,-198.9053 183.4993,-208.9054 190.4993,-208.9053"/>
</g>
<!-- leaf_11 -->
<g id="node12" class="node">
<title>leaf_11</title>
<polygon fill="none" stroke="#c0c0c0" points="422.9992,-198.7002 252.9992,-198.7002 252.9992,-162.7002 422.9992,-162.7002 422.9992,-198.7002"/>
<text text-anchor="middle" x="337.9992" y="-177.2002" font-family="Inconsolata" font-size="14.00" fill="#000000">** SQL for concordance</text>
</g>
<!-- header_8&#45;&gt;leaf_11 -->
<g id="edge11" class="edge">
<title>header_8&#45;&gt;leaf_11</title>
<path fill="none" stroke="#000000" stroke-dasharray="5,2" d="M337.9992,-289.7613C337.9992,-268.6811 337.9992,-233.7346 337.9992,-209.0907"/>
<polygon fill="#000000" stroke="#000000" points="341.4993,-208.9053 337.9992,-198.9053 334.4993,-208.9054 341.4993,-208.9053"/>
</g>
<!-- raw_12 -->
<g id="node13" class="node">
<title>raw_12</title>
<ellipse fill="none" stroke="#000000" cx="480.9992" cy="-180.7002" rx="27" ry="18"/>
<text text-anchor="middle" x="480.9992" y="-176.5002" font-family="Helvetica,sans-Serif" font-size="14.00" fill="#000000">raw</text>
</g>
<!-- prose_9&#45;&gt;raw_12 -->
<g id="edge12" class="edge">
<title>prose_9&#45;&gt;raw_12</title>
<path fill="none" stroke="#000000" stroke-dasharray="5,2" d="M492.1366,-289.7613C489.9839,-268.6811 486.4151,-233.7346 483.8985,-209.0907"/>
<polygon fill="#000000" stroke="#000000" points="487.3562,-208.498 482.8583,-198.9053 480.3925,-209.2092 487.3562,-208.498"/>
</g>
<!-- leaf_14 -->
<g id="node15" class="node">
<title>leaf_14</title>
<polygon fill="none" stroke="#c0c0c0" points="913.4992,-253.801 526.4992,-253.801 526.4992,-107.5993 913.4992,-107.5993 913.4992,-253.801"/>
<text text-anchor="middle" x="719.9992" y="-238.8003" font-family="Inconsolata" font-size="14.00" fill="#000000">CREATE TABLE IF NOT EXISTS codepoint (</text>
<text text-anchor="middle" x="719.9992" y="-223.4003" font-family="Inconsolata" font-size="14.00" fill="#000000"> &#160;&#160;codepoint_id INTEGER PRIMARY KEY AUTOINCREMENT,</text>
<text text-anchor="middle" x="719.9992" y="-208.0002" font-family="Inconsolata" font-size="14.00" fill="#000000"> &#160;&#160;codevalue UNIQUE NOT NULL ON CONFLICT DO NOTHING,</text>
<text text-anchor="middle" x="719.9992" y="-192.6002" font-family="Inconsolata" font-size="14.00" fill="#000000"> &#160;&#160;utf STRING UNIQUE NOT NULL ON CONFLICT DO NOTHING,</text>
<text text-anchor="middle" x="719.9992" y="-177.2002" font-family="Inconsolata" font-size="14.00" fill="#000000"> &#160;&#160;category NOT NULL ON CONFLICT DO NOTHING,</text>
<text text-anchor="middle" x="719.9992" y="-161.8002" font-family="Inconsolata" font-size="14.00" fill="#000000"> &#160;&#160;version STRING UNIQUE NOT NULL,</text>
<text text-anchor="middle" x="719.9992" y="-146.4001" font-family="Inconsolata" font-size="14.00" fill="#000000"> &#160;&#160;destription STRING NOT NULL,</text>
<text text-anchor="middle" x="719.9992" y="-131.0001" font-family="Inconsolata" font-size="14.00" fill="#000000"> &#160;&#160;FOREIGN KEY version REFERENCES (version)</text>
<text text-anchor="middle" x="719.9992" y="-115.6001" font-family="Inconsolata" font-size="14.00" fill="#000000">);</text>
</g>
<!-- codeblock_10&#45;&gt;leaf_14 -->
<g id="edge14" class="edge">
<title>codeblock_10&#45;&gt;leaf_14</title>
<path fill="none" stroke="#000000" stroke-dasharray="5,2" d="M676.1981,-290.0313C679.2042,-282.5277 682.9276,-273.2339 686.924,-263.2586"/>
<polygon fill="#000000" stroke="#000000" points="690.1881,-264.5223 690.6581,-253.9379 683.6902,-261.919 690.1881,-264.5223"/>
</g>
<!-- leaf_13 -->
<g id="node14" class="node">
<title>leaf_13</title>
<polygon fill="none" stroke="#c0c0c0" points="507.9992,-71.6012 453.9992,-71.6012 453.9992,.2011 507.9992,.2011 507.9992,-71.6012"/>
<text text-anchor="middle" x="480.9992" y="-8.2" font-family="Inconsolata" font-size="14.00" fill="#000000">***</text>
</g>
<!-- raw_12&#45;&gt;leaf_13 -->
<g id="edge13" class="edge">
<title>raw_12&#45;&gt;leaf_13</title>
<path fill="none" stroke="#000000" stroke-dasharray="5,2" d="M480.9992,-162.629C480.9992,-142.501 480.9992,-109.183 480.9992,-81.7327"/>
<polygon fill="#000000" stroke="#000000" points="484.4993,-81.5391 480.9992,-71.5391 477.4993,-81.5392 484.4993,-81.5391"/>
</g>
</g>
</svg>
